<?xml version="1.0" encoding="UTF-8"?>
<!-- Generator: visioncortex VTracer 0.6.4 -->
<svg version="1.1" xmlns="http://www.w3.org/2000/svg" width="128" height="128">
<path d="M0 0 C0.99 -0 1.97 -0.01 2.99 -0.01 C6.23 -0.02 9.48 -0.01 12.72 -0.01 C14.98 -0.01 17.25 -0.01 19.51 -0.01 C24.24 -0.02 28.98 -0.01 33.71 -0 C39.78 0.01 45.84 0 51.91 -0.01 C56.58 -0.02 61.25 -0.01 65.92 -0.01 C68.15 -0.01 70.39 -0.01 72.63 -0.01 C75.75 -0.02 78.88 -0.01 82 0 C82.93 -0 83.85 -0.01 84.8 -0.01 C92.15 0.04 97.36 1.14 102.94 6.26 C105.34 9.86 105.24 12.5 105.24 16.66 C105.25 17.42 105.26 18.17 105.27 18.94 C105.29 21.43 105.3 23.92 105.31 26.4 C105.32 28.13 105.33 29.86 105.34 31.59 C105.35 35.22 105.36 38.85 105.36 42.48 C105.37 47.12 105.41 51.77 105.45 56.41 C105.48 59.99 105.49 63.56 105.49 67.14 C105.49 68.85 105.51 70.56 105.53 72.27 C105.55 74.67 105.55 77.07 105.54 79.47 C105.56 80.52 105.56 80.52 105.58 81.6 C105.52 85.94 104.56 88.82 101.52 92 C95.7 96.63 88.92 96.69 81.79 96.65 C80.81 96.65 79.83 96.66 78.81 96.66 C75.58 96.68 72.35 96.67 69.12 96.66 C66.87 96.66 64.61 96.66 62.36 96.67 C57.64 96.67 52.91 96.66 48.19 96.65 C42.16 96.63 36.12 96.64 30.08 96.66 C25.42 96.67 20.76 96.67 16.11 96.66 C13.88 96.66 11.65 96.66 9.43 96.67 C6.31 96.68 3.2 96.66 0.08 96.65 C-0.83 96.65 -1.74 96.66 -2.68 96.67 C-8.93 96.6 -14.62 96.01 -19.64 92 C-23.27 88.2 -23.79 84.53 -23.73 79.53 C-23.74 78.78 -23.75 78.03 -23.76 77.25 C-23.78 74.79 -23.77 72.32 -23.76 69.86 C-23.77 68.13 -23.78 66.41 -23.78 64.69 C-23.8 61.08 -23.79 57.47 -23.77 53.87 C-23.75 49.25 -23.77 44.64 -23.81 40.03 C-23.84 36.47 -23.84 32.92 -23.83 29.36 C-23.83 27.66 -23.83 25.96 -23.85 24.26 C-23.98 9.35 -23.98 9.35 -20.45 4.79 C-15.14 -0.52 -6.95 -0.03 0 0 Z M-13.06 12.26 C-14.48 15.1 -14.2 17.5 -14.21 20.68 C-14.21 21.34 -14.21 22 -14.22 22.68 C-14.23 24.86 -14.23 27.04 -14.23 29.22 C-14.23 30.74 -14.24 32.25 -14.24 33.77 C-14.25 36.94 -14.25 40.12 -14.25 43.3 C-14.25 47.37 -14.26 51.44 -14.28 55.52 C-14.29 58.65 -14.29 61.77 -14.29 64.9 C-14.29 66.41 -14.3 67.91 -14.3 69.41 C-14.31 71.51 -14.31 73.61 -14.31 75.71 C-14.31 76.9 -14.31 78.1 -14.31 79.33 C-14.28 82.45 -14.28 82.45 -12.06 85.26 C-9.34 86.25 -6.78 86.39 -3.89 86.39 C-3.07 86.4 -2.25 86.4 -1.4 86.41 C-0.51 86.4 0.39 86.4 1.31 86.4 C2.73 86.41 2.73 86.41 4.18 86.41 C7.32 86.42 10.45 86.43 13.59 86.43 C15.77 86.43 17.95 86.43 20.13 86.44 C24.7 86.44 29.27 86.44 33.83 86.44 C39.69 86.44 45.55 86.46 51.4 86.47 C55.9 86.49 60.4 86.49 64.9 86.49 C67.06 86.49 69.22 86.49 71.38 86.5 C74.4 86.51 77.42 86.51 80.44 86.5 C81.78 86.51 81.78 86.51 83.14 86.52 C87.47 86.5 91.06 86.44 94.94 84.26 C96.36 81.42 96.08 79.01 96.1 75.84 C96.1 75.18 96.11 74.52 96.11 73.84 C96.13 71.66 96.13 69.48 96.14 67.29 C96.15 65.78 96.15 64.26 96.16 62.75 C96.17 59.57 96.17 56.4 96.18 53.22 C96.18 49.15 96.21 45.07 96.24 41 C96.25 37.87 96.26 34.74 96.26 31.61 C96.26 30.11 96.27 28.61 96.29 27.11 C96.3 25.01 96.3 22.91 96.29 20.81 C96.3 19.61 96.3 18.42 96.3 17.19 C96.15 14.31 96.15 14.31 94.79 12.38 C92.14 10.78 90.07 10.86 86.99 10.83 C85.75 10.81 84.52 10.79 83.25 10.77 C81.9 10.76 80.54 10.75 79.18 10.75 C77.78 10.73 76.37 10.71 74.96 10.69 C71.21 10.64 67.45 10.61 63.7 10.59 C59.84 10.56 55.99 10.52 52.13 10.47 C45.39 10.4 38.65 10.35 31.91 10.3 C26.85 10.27 21.78 10.22 16.71 10.16 C13.52 10.13 10.33 10.1 7.14 10.08 C5.12 10.07 3.09 10.05 1.07 10.03 C-0.11 10.03 -1.28 10.03 -2.49 10.03 C-3.46 10.02 -4.44 10.02 -5.44 10.02 C-8.33 10.28 -10.47 10.96 -13.06 12.26 Z " fill="#2391FF" transform="translate(23.062744140625,15.7412109375)"/>
<path d="M0 0 C0.77 -0 1.54 -0 2.34 -0.01 C3.21 -0.02 4.09 -0.03 4.99 -0.04 C5.93 -0.03 6.88 -0.02 7.85 -0.02 C8.82 -0.02 9.79 -0.02 10.79 -0.03 C12.84 -0.03 14.89 -0.02 16.94 -0.01 C20.09 0.01 23.24 -0.01 26.38 -0.03 C28.37 -0.03 30.36 -0.02 32.35 -0.02 C33.3 -0.02 34.24 -0.03 35.22 -0.04 C36.09 -0.03 36.97 -0.02 37.87 -0.01 C38.64 -0 39.41 -0 40.21 0 C42.1 0.38 42.1 0.38 44.1 3.38 C44.3 6.25 44.38 9.01 44.37 11.88 C44.37 13.13 44.37 13.13 44.37 14.4 C44.38 16.16 44.37 17.92 44.36 19.68 C44.35 22.37 44.36 25.06 44.38 27.76 C44.37 29.46 44.37 31.17 44.37 32.88 C44.37 33.69 44.38 34.49 44.38 35.32 C44.35 39.2 44.3 41.09 42.1 44.38 C39.48 44.57 39.48 44.57 37.1 44.38 C36.77 45.7 36.44 47.02 36.1 48.38 C31.55 48.75 31.55 48.75 29.29 46.88 C28.9 46.39 28.51 45.89 28.1 45.38 C27.77 45.71 27.44 46.04 27.1 46.38 C24.79 46.45 22.48 46.46 20.17 46.44 C18.9 46.43 17.63 46.43 16.33 46.42 C15.26 46.4 14.2 46.39 13.1 46.38 C12.44 46.38 11.78 46.38 11.1 46.38 C10.44 47.04 9.78 47.7 9.1 48.38 C6.48 48.51 6.48 48.51 4.1 48.38 C3.77 47.06 3.44 45.74 3.1 44.38 C1.93 44.47 1.93 44.47 0.73 44.57 C-0.14 44.51 -1 44.44 -1.9 44.38 C-4.47 40.53 -4.19 37.35 -4.16 32.88 C-4.17 31.63 -4.17 31.63 -4.17 30.36 C-4.17 28.6 -4.17 26.84 -4.16 25.08 C-4.15 22.39 -4.16 19.7 -4.17 17.01 C-4.17 15.3 -4.17 13.59 -4.16 11.88 C-4.17 11.07 -4.17 10.27 -4.18 9.44 C-4.1 0.82 -4.1 0.82 0 0 Z " fill="#F4F5F6" transform="translate(68.8974609375,49.619049072265625)"/>
<path d="M0 0 C0.77 -0 1.54 -0 2.34 -0.01 C3.21 -0.02 4.09 -0.03 4.99 -0.04 C5.93 -0.03 6.88 -0.02 7.85 -0.02 C8.82 -0.02 9.79 -0.02 10.79 -0.03 C12.84 -0.03 14.89 -0.02 16.94 -0.01 C20.09 0.01 23.24 -0.01 26.38 -0.03 C28.37 -0.03 30.36 -0.02 32.35 -0.02 C33.3 -0.02 34.24 -0.03 35.22 -0.04 C36.09 -0.03 36.97 -0.02 37.87 -0.01 C38.64 -0 39.41 -0 40.21 0 C42.1 0.38 42.1 0.38 44.1 3.38 C44.3 6.25 44.38 9.01 44.37 11.88 C44.37 13.13 44.37 13.13 44.37 14.4 C44.38 16.16 44.37 17.92 44.36 19.68 C44.35 22.37 44.36 25.06 44.38 27.76 C44.37 29.46 44.37 31.17 44.37 32.88 C44.37 33.69 44.38 34.49 44.38 35.32 C44.35 39.2 44.3 41.09 42.1 44.38 C39.48 44.57 39.48 44.57 37.1 44.38 C36.77 45.7 36.44 47.02 36.1 48.38 C31.55 48.75 31.55 48.75 29.29 46.88 C28.9 46.39 28.51 45.89 28.1 45.38 C27.77 45.71 27.44 46.04 27.1 46.38 C24.79 46.45 22.48 46.46 20.17 46.44 C18.9 46.43 17.63 46.43 16.33 46.42 C15.26 46.4 14.2 46.39 13.1 46.38 C12.44 46.38 11.78 46.38 11.1 46.38 C10.44 47.04 9.78 47.7 9.1 48.38 C6.48 48.51 6.48 48.51 4.1 48.38 C3.77 47.06 3.44 45.74 3.1 44.38 C1.93 44.47 1.93 44.47 0.73 44.57 C-0.14 44.51 -1 44.44 -1.9 44.38 C-4.47 40.53 -4.19 37.35 -4.16 32.88 C-4.17 31.63 -4.17 31.63 -4.17 30.36 C-4.17 28.6 -4.17 26.84 -4.16 25.08 C-4.15 22.39 -4.16 19.7 -4.17 17.01 C-4.17 15.3 -4.17 13.59 -4.16 11.88 C-4.17 11.07 -4.17 10.27 -4.18 9.44 C-4.1 0.82 -4.1 0.82 0 0 Z " fill="#F4F5F6" transform="translate(15.8974609375,29.619049072265625)"/>
<path d="M0 0 C0.77 -0 1.54 -0 2.34 -0.01 C3.21 -0.02 4.09 -0.03 4.99 -0.04 C5.93 -0.03 6.88 -0.02 7.85 -0.02 C8.82 -0.02 9.79 -0.02 10.79 -0.03 C12.84 -0.03 14.89 -0.02 16.94 -0.01 C20.09 0.01 23.24 -0.01 26.38 -0.03 C28.37 -0.03 30.36 -0.02 32.35 -0.02 C33.3 -0.02 34.24 -0.03 35.22 -0.04 C36.09 -0.03 36.97 -0.02 37.87 -0.01 C38.64 -0 39.41 -0 40.21 0 C42.1 0.38 42.1 0.38 44.1 3.38 C44.3 6.25 44.38 9.01 44.37 11.88 C44.37 13.13 44.37 13.13 44.37 14.4 C44.38 16.16 44.37 17.92 44.36 19.68 C44.35 22.37 44.36 25.06 44.38 27.76 C44.37 29.46 44.37 31.17 44.37 32.88 C44.37 33.69 44.38 34.49 44.38 35.32 C44.35 39.2 44.3 41.09 42.1 44.38 C39.48 44.57 39.48 44.57 37.1 44.38 C36.77 45.7 36.44 47.02 36.1 48.38 C31.55 48.75 31.55 48.75 29.29 46.88 C28.9 46.39 28.51 45.89 28.1 45.38 C27.77 45.71 27.44 46.04 27.1 46.38 C24.79 46.45 22.48 46.46 20.17 46.44 C18.9 46.43 17.63 46.43 16.33 46.42 C15.26 46.4 14.2 46.39 13.1 46.38 C12.44 46.38 11.78 46.38 11.1 46.38 C10.44 47.04 9.78 47.7 9.1 48.38 C6.48 48.51 6.48 48.51 4.1 48.38 C3.77 47.06 3.44 45.74 3.1 44.38 C1.93 44.47 1.93 44.47 0.73 44.57 C-0.14 44.51 -1 44.44 -1.9 44.38 C-4.47 40.53 -4.19 37.35 -4.16 32.88 C-4.17 31.63 -4.17 31.63 -4.17 30.36 C-4.17 28.6 -4.17 26.84 -4.16 25.08 C-4.15 22.39 -4.16 19.7 -4.17 17.01 C-4.17 15.3 -4.17 13.59 -4.16 11.88 C-4.17 11.07 -4.17 10.27 -4.18 9.44 C-4.1 0.82 -4.1 0.82 0 0 Z M-0.9 9.38 C-0.9 19.61 -0.9 29.84 -0.9 40.38 C5.23 42.42 6.41 42.43 12.1 40.38 C12.1 39.39 12.1 38.4 12.1 37.38 C10.12 37.38 8.14 37.38 6.1 37.38 C6.1 38.04 6.1 38.7 6.1 39.38 C4.78 39.05 3.46 38.72 2.1 38.38 C2.1 37.06 2.1 35.74 2.1 34.38 C3.42 34.05 4.74 33.72 6.1 33.38 C6.1 34.04 6.1 34.7 6.1 35.38 C10.24 35.59 10.24 35.59 14.1 34.38 C14.1 37.35 14.1 40.32 14.1 43.38 C18.06 43.38 22.02 43.38 26.1 43.38 C26.1 40.08 26.1 36.78 26.1 33.38 C23.46 33.05 20.82 32.72 18.1 32.38 C19.75 32.05 21.4 31.72 23.1 31.38 C23.1 30.58 23.1 29.77 23.1 28.94 C23.1 27.76 23.1 26.57 23.1 25.38 C23.76 25.38 24.42 25.38 25.1 25.38 C25.1 27.36 25.1 29.34 25.1 31.38 C25.76 31.71 26.42 32.04 27.1 32.38 C27.43 33.37 27.76 34.36 28.1 35.38 C30.08 35.38 32.06 35.38 34.1 35.38 C34.1 34.72 34.1 34.06 34.1 33.38 C35.42 33.71 36.74 34.04 38.1 34.38 C38.1 35.7 38.1 37.02 38.1 38.38 C36.78 38.71 35.46 39.04 34.1 39.38 C34.1 38.72 34.1 38.06 34.1 37.38 C32.12 37.38 30.14 37.38 28.1 37.38 C28.1 38.37 28.1 39.36 28.1 40.38 C31.07 41.37 34.04 42.36 37.1 43.38 C37.1 42.72 37.1 42.06 37.1 41.38 C38.42 41.05 39.74 40.72 41.1 40.38 C41.1 30.15 41.1 19.92 41.1 9.38 C27.24 9.38 13.38 9.38 -0.9 9.38 Z " fill="#474747" transform="translate(68.8974609375,49.619049072265625)"/>
<path d="M0 0 C0.77 -0 1.54 -0 2.34 -0.01 C3.21 -0.02 4.09 -0.03 4.99 -0.04 C5.93 -0.03 6.88 -0.02 7.85 -0.02 C8.82 -0.02 9.79 -0.02 10.79 -0.03 C12.84 -0.03 14.89 -0.02 16.94 -0.01 C20.09 0.01 23.24 -0.01 26.38 -0.03 C28.37 -0.03 30.36 -0.02 32.35 -0.02 C33.3 -0.02 34.24 -0.03 35.22 -0.04 C36.09 -0.03 36.97 -0.02 37.87 -0.01 C38.64 -0 39.41 -0 40.21 0 C42.1 0.38 42.1 0.38 44.1 3.38 C44.3 6.25 44.38 9.01 44.37 11.88 C44.37 13.13 44.37 13.13 44.37 14.4 C44.38 16.16 44.37 17.92 44.36 19.68 C44.35 22.37 44.36 25.06 44.38 27.76 C44.37 29.46 44.37 31.17 44.37 32.88 C44.37 33.69 44.38 34.49 44.38 35.32 C44.35 39.2 44.3 41.09 42.1 44.38 C39.48 44.57 39.48 44.57 37.1 44.38 C36.77 45.7 36.44 47.02 36.1 48.38 C31.55 48.75 31.55 48.75 29.29 46.88 C28.9 46.39 28.51 45.89 28.1 45.38 C27.77 45.71 27.44 46.04 27.1 46.38 C24.79 46.45 22.48 46.46 20.17 46.44 C18.9 46.43 17.63 46.43 16.33 46.42 C15.26 46.4 14.2 46.39 13.1 46.38 C12.44 46.38 11.78 46.38 11.1 46.38 C10.44 47.04 9.78 47.7 9.1 48.38 C6.48 48.51 6.48 48.51 4.1 48.38 C3.77 47.06 3.44 45.74 3.1 44.38 C1.93 44.47 1.93 44.47 0.73 44.57 C-0.14 44.51 -1 44.44 -1.9 44.38 C-4.47 40.53 -4.19 37.35 -4.16 32.88 C-4.17 31.63 -4.17 31.63 -4.17 30.36 C-4.17 28.6 -4.17 26.84 -4.16 25.08 C-4.15 22.39 -4.16 19.7 -4.17 17.01 C-4.17 15.3 -4.17 13.59 -4.16 11.88 C-4.17 11.07 -4.17 10.27 -4.18 9.44 C-4.1 0.82 -4.1 0.82 0 0 Z M-0.9 9.38 C-0.9 19.61 -0.9 29.84 -0.9 40.38 C5.23 42.42 6.41 42.43 12.1 40.38 C12.1 39.39 12.1 38.4 12.1 37.38 C10.12 37.38 8.14 37.38 6.1 37.38 C6.1 38.04 6.1 38.7 6.1 39.38 C4.78 39.05 3.46 38.72 2.1 38.38 C2.1 37.06 2.1 35.74 2.1 34.38 C3.42 34.05 4.74 33.72 6.1 33.38 C6.1 34.04 6.1 34.7 6.1 35.38 C10.24 35.59 10.24 35.59 14.1 34.38 C14.1 37.35 14.1 40.32 14.1 43.38 C18.06 43.38 22.02 43.38 26.1 43.38 C26.1 40.08 26.1 36.78 26.1 33.38 C23.46 33.05 20.82 32.72 18.1 32.38 C19.75 32.05 21.4 31.72 23.1 31.38 C23.1 30.58 23.1 29.77 23.1 28.94 C23.1 27.76 23.1 26.57 23.1 25.38 C23.76 25.38 24.42 25.38 25.1 25.38 C25.1 27.36 25.1 29.34 25.1 31.38 C25.76 31.71 26.42 32.04 27.1 32.38 C27.43 33.37 27.76 34.36 28.1 35.38 C30.08 35.38 32.06 35.38 34.1 35.38 C34.1 34.72 34.1 34.06 34.1 33.38 C35.42 33.71 36.74 34.04 38.1 34.38 C38.1 35.7 38.1 37.02 38.1 38.38 C36.78 38.71 35.46 39.04 34.1 39.38 C34.1 38.72 34.1 38.06 34.1 37.38 C32.12 37.38 30.14 37.38 28.1 37.38 C28.1 38.37 28.1 39.36 28.1 40.38 C31.07 41.37 34.04 42.36 37.1 43.38 C37.1 42.72 37.1 42.06 37.1 41.38 C38.42 41.05 39.74 40.72 41.1 40.38 C41.1 30.15 41.1 19.92 41.1 9.38 C27.24 9.38 13.38 9.38 -0.9 9.38 Z " fill="#474747" transform="translate(15.8974609375,29.619049072265625)"/>
<path d="M0 0 C7.26 0 14.52 0 22 0 C22 0.99 22 1.98 22 3 C20.68 3 19.36 3 18 3 C18 3.66 18 4.32 18 5 C19.32 5 20.64 5 22 5 C22 6.98 22 8.96 22 11 C19.69 11.33 17.38 11.66 15 12 C13.95 14.63 13.95 14.63 14 16 C14 17.67 14 19.33 14 21 C12.35 21.33 10.7 21.66 9 22 C11.64 22.33 14.28 22.66 17 23 C17 26.3 17 29.6 17 33 C13.04 33 9.08 33 5 33 C5 30.03 5 27.06 5 24 C4.34 24 3.68 24 3 24 C3.33 23.01 3.66 22.02 4 21 C4.66 21 5.32 21 6 21 C5.96 20.07 5.92 19.14 5.88 18.19 C6 15 6 15 8 12 C5.36 11.67 2.72 11.34 0 11 C0 9.02 0 7.04 0 5 C1.32 5 2.64 5 4 5 C4 4.34 4 3.68 4 3 C2.68 3 1.36 3 0 3 C0 2.01 0 1.02 0 0 Z " fill="#E4E3F6" transform="translate(78,60)"/>
<path d="M0 0 C7.26 0 14.52 0 22 0 C22 0.99 22 1.98 22 3 C20.68 3 19.36 3 18 3 C18 3.66 18 4.32 18 5 C19.32 5 20.64 5 22 5 C22 6.98 22 8.96 22 11 C19.69 11.33 17.38 11.66 15 12 C13.95 14.63 13.95 14.63 14 16 C14 17.67 14 19.33 14 21 C12.35 21.33 10.7 21.66 9 22 C11.64 22.33 14.28 22.66 17 23 C17 26.3 17 29.6 17 33 C13.04 33 9.08 33 5 33 C5 30.03 5 27.06 5 24 C4.34 24 3.68 24 3 24 C3.33 23.01 3.66 22.02 4 21 C4.66 21 5.32 21 6 21 C5.96 20.07 5.92 19.14 5.88 18.19 C6 15 6 15 8 12 C5.36 11.67 2.72 11.34 0 11 C0 9.02 0 7.04 0 5 C1.32 5 2.64 5 4 5 C4 4.34 4 3.68 4 3 C2.68 3 1.36 3 0 3 C0 2.01 0 1.02 0 0 Z " fill="#E4E3F6" transform="translate(25,40)"/>
<path d="M0 0 C1.32 0.33 2.64 0.66 4 1 C4 2.98 4 4.96 4 7 C4.99 7.33 5.98 7.66 7 8 C7 8.99 7 9.98 7 11 C8.98 11 10.96 11 13 11 C13 10.34 13 9.68 13 9 C15.47 9.5 15.47 9.5 18 10 C17.67 11.65 17.34 13.3 17 15 C15.68 15 14.36 15 13 15 C13 14.34 13 13.68 13 13 C11.02 13 9.04 13 7 13 C7 13.99 7 14.98 7 16 C8.11 16.12 9.23 16.25 10.38 16.38 C14 17 14 17 16 19 C15.62 21.62 15.62 21.62 15 24 C10.45 24.37 10.45 24.37 8.19 22.5 C7.8 22 7.4 21.51 7 21 C6.67 21.33 6.34 21.66 6 22 C3.69 22.07 1.37 22.08 -0.94 22.06 C-2.2 22.05 -3.47 22.04 -4.78 22.04 C-5.84 22.02 -6.9 22.01 -8 22 C-8.66 22 -9.32 22 -10 22 C-10.66 22.66 -11.32 23.32 -12 24 C-14.62 24.12 -14.62 24.12 -17 24 C-17.33 22.02 -17.66 20.04 -18 18 C-13.55 17.01 -13.55 17.01 -9 16 C-9 15.01 -9 14.02 -9 13 C-10.98 13 -12.96 13 -15 13 C-15 13.66 -15 14.32 -15 15 C-16.65 14.67 -18.3 14.34 -20 14 C-19.67 12.35 -19.34 10.7 -19 9 C-17.68 9 -16.36 9 -15 9 C-15 9.66 -15 10.32 -15 11 C-12.36 10.67 -9.72 10.34 -7 10 C-7 12.97 -7 15.94 -7 19 C-3.04 19 0.92 19 5 19 C5 15.7 5 12.4 5 9 C2.03 9 -0.94 9 -4 9 C-3.67 8.34 -3.34 7.68 -3 7 C-1.35 7 0.3 7 2 7 C1.34 4.69 0.68 2.38 0 0 Z " fill="#4B4B4B" transform="translate(90,74)"/>
<path d="M0 0 C1.32 0.33 2.64 0.66 4 1 C4 2.98 4 4.96 4 7 C4.99 7.33 5.98 7.66 7 8 C7 8.99 7 9.98 7 11 C8.98 11 10.96 11 13 11 C13 10.34 13 9.68 13 9 C15.47 9.5 15.47 9.5 18 10 C17.67 11.65 17.34 13.3 17 15 C15.68 15 14.36 15 13 15 C13 14.34 13 13.68 13 13 C11.02 13 9.04 13 7 13 C7 13.99 7 14.98 7 16 C8.11 16.12 9.23 16.25 10.38 16.38 C14 17 14 17 16 19 C15.62 21.62 15.62 21.62 15 24 C10.45 24.37 10.45 24.37 8.19 22.5 C7.8 22 7.4 21.51 7 21 C6.67 21.33 6.34 21.66 6 22 C3.69 22.07 1.37 22.08 -0.94 22.06 C-2.2 22.05 -3.47 22.04 -4.78 22.04 C-5.84 22.02 -6.9 22.01 -8 22 C-8.66 22 -9.32 22 -10 22 C-10.66 22.66 -11.32 23.32 -12 24 C-14.63 24.12 -14.63 24.12 -17 24 C-17.33 22.02 -17.66 20.04 -18 18 C-13.55 17.01 -13.55 17.01 -9 16 C-9 15.01 -9 14.02 -9 13 C-10.98 13 -12.96 13 -15 13 C-15 13.66 -15 14.32 -15 15 C-16.65 14.67 -18.3 14.34 -20 14 C-19.67 12.35 -19.34 10.7 -19 9 C-17.68 9 -16.36 9 -15 9 C-15 9.66 -15 10.32 -15 11 C-12.36 10.67 -9.72 10.34 -7 10 C-7 12.97 -7 15.94 -7 19 C-3.04 19 0.92 19 5 19 C5 15.7 5 12.4 5 9 C2.03 9 -0.94 9 -4 9 C-3.67 8.34 -3.34 7.68 -3 7 C-1.35 7 0.3 7 2 7 C1.34 4.69 0.68 2.38 0 0 Z " fill="#4B4B4B" transform="translate(37,54)"/>
<path d="M0 0 C2.97 0 5.94 0 9 0 C9 8.25 9 16.5 9 25 C7.02 24.34 5.04 23.68 3 23 C3 23.66 3 24.32 3 25 C1.02 25 -0.96 25 -3 25 C-3.33 24.01 -3.66 23.02 -4 22 C-4.66 21.67 -5.32 21.34 -6 21 C-6.67 18.97 -6.67 18.97 -7.19 16.5 C-7.37 15.69 -7.55 14.87 -7.73 14.03 C-7.82 13.36 -7.91 12.69 -8 12 C-7 11 -7 11 -3.44 10.94 C-2.3 10.96 -1.17 10.98 0 11 C0 9.02 0 7.04 0 5 C-1.32 5 -2.64 5 -4 5 C-4 4.34 -4 3.68 -4 3 C-2.68 3 -1.36 3 0 3 C0 2.01 0 1.02 0 0 Z " fill="#F4F5F6" transform="translate(100,60)"/>
<path d="M0 0 C2.97 0 5.94 0 9 0 C9 8.25 9 16.5 9 25 C7.02 24.34 5.04 23.68 3 23 C3 23.66 3 24.32 3 25 C1.02 25 -0.96 25 -3 25 C-3.33 24.01 -3.66 23.02 -4 22 C-4.66 21.67 -5.32 21.34 -6 21 C-6.67 18.97 -6.67 18.97 -7.19 16.5 C-7.37 15.69 -7.55 14.87 -7.73 14.03 C-7.82 13.36 -7.91 12.69 -8 12 C-7 11 -7 11 -3.44 10.94 C-2.3 10.96 -1.17 10.98 0 11 C0 9.02 0 7.04 0 5 C-1.32 5 -2.64 5 -4 5 C-4 4.34 -4 3.68 -4 3 C-2.68 3 -1.36 3 0 3 C0 2.01 0 1.02 0 0 Z " fill="#F4F5F6" transform="translate(47,40)"/>
<path d="M0 0 C1.93 0.02 1.93 0.02 3.9 0.04 C5.19 0.04 6.48 0.05 7.81 0.06 C8.81 0.07 9.81 0.09 10.84 0.1 C11.33 3.56 11.33 3.56 11.84 7.1 C-2.02 7.1 -15.88 7.1 -30.16 7.1 C-30.16 2.1 -30.16 2.1 -29.16 1.1 C-27.31 1.03 -25.45 1.01 -23.6 1.04 C-22.59 1.04 -21.57 1.05 -20.53 1.06 C-19.36 1.08 -19.36 1.08 -18.16 1.1 C-18.16 2.75 -18.16 4.4 -18.16 6.1 C-17.5 6.1 -16.84 6.1 -16.16 6.1 C-16.16 4.45 -16.16 2.8 -16.16 1.1 C-15.31 1.11 -14.45 1.12 -13.57 1.13 C-12.47 1.14 -11.36 1.15 -10.22 1.16 C-8.57 1.18 -8.57 1.18 -6.88 1.2 C-3.55 1.08 -3.49 0.11 0 0 Z " fill="#585959" transform="translate(98.16015625,51.90234375)"/>
<path d="M0 0 C1.93 0.02 1.93 0.02 3.9 0.04 C5.19 0.04 6.48 0.05 7.81 0.06 C8.81 0.07 9.81 0.09 10.84 0.1 C11.33 3.56 11.33 3.56 11.84 7.1 C-2.02 7.1 -15.88 7.1 -30.16 7.1 C-30.16 2.1 -30.16 2.1 -29.16 1.1 C-27.31 1.03 -25.45 1.01 -23.6 1.04 C-22.59 1.04 -21.57 1.05 -20.53 1.06 C-19.36 1.08 -19.36 1.08 -18.16 1.1 C-18.16 2.75 -18.16 4.4 -18.16 6.1 C-17.5 6.1 -16.84 6.1 -16.16 6.1 C-16.16 4.45 -16.16 2.8 -16.16 1.1 C-15.31 1.11 -14.45 1.12 -13.57 1.13 C-12.47 1.14 -11.36 1.15 -10.22 1.16 C-8.57 1.18 -8.57 1.18 -6.88 1.2 C-3.55 1.08 -3.49 0.11 0 0 Z " fill="#585959" transform="translate(45.16015625,31.90234375)"/>
<path d="M0 0 C0.78 0.04 1.57 0.08 2.38 0.12 C2.7 2.77 3.03 5.41 3.38 8.12 C1.72 8.45 0.08 8.78 -1.62 9.12 C1.02 9.45 3.66 9.78 6.38 10.12 C6.38 13.42 6.38 16.72 6.38 20.12 C2.41 20.12 -1.55 20.12 -5.62 20.12 C-5.62 17.16 -5.62 14.19 -5.62 11.12 C-6.28 11.12 -6.94 11.12 -7.62 11.12 C-7.3 10.14 -6.97 9.14 -6.62 8.12 C-5.97 8.12 -5.31 8.12 -4.62 8.12 C-4.69 6.7 -4.69 6.7 -4.75 5.25 C-4.59 1.31 -4.03 0.19 0 0 Z " fill="#868A8A" transform="translate(88.625,72.875)"/>
<path d="M0 0 C0.78 0.04 1.57 0.08 2.38 0.12 C2.7 2.77 3.03 5.41 3.38 8.12 C1.73 8.45 0.08 8.78 -1.62 9.12 C1.02 9.45 3.66 9.78 6.38 10.12 C6.38 13.42 6.38 16.72 6.38 20.12 C2.41 20.12 -1.55 20.12 -5.62 20.12 C-5.62 17.16 -5.62 14.19 -5.62 11.12 C-6.29 11.12 -6.95 11.12 -7.62 11.12 C-7.3 10.13 -6.96 9.14 -6.62 8.12 C-5.96 8.12 -5.3 8.12 -4.62 8.12 C-4.69 6.7 -4.69 6.7 -4.75 5.25 C-4.59 1.31 -4.03 0.19 0 0 Z " fill="#868A8A" transform="translate(35.625,52.875)"/>
<path d="M0 0 C13.86 0 27.72 0 42 0 C42 10.23 42 20.46 42 31 C40.68 31.33 39.36 31.66 38 32 C37.5 32.99 37.5 32.99 37 34 C34.36 33.01 31.72 32.02 29 31 C29 30.01 29 29.02 29 28 C30.98 28 32.96 28 35 28 C35 28.66 35 29.32 35 30 C36.98 29.73 36.98 29.73 39 29 C40.04 25.89 40.2 23.51 40.32 20.24 C40.35 19.23 40.39 18.22 40.43 17.18 C40.47 15.91 40.52 14.63 40.56 13.31 C40.71 9.25 40.85 5.19 41 1 C27.8 1 14.6 1 1 1 C1.14 5.06 1.29 9.13 1.44 13.31 C1.48 14.59 1.52 15.87 1.57 17.18 C1.61 18.19 1.64 19.2 1.68 20.24 C1.72 21.27 1.76 22.3 1.79 23.36 C1.9 26.11 1.9 26.11 3 29 C5.02 29.73 5.02 29.73 7 30 C7 29.34 7 28.68 7 28 C8.98 28 10.96 28 13 28 C13 28.99 13 29.98 13 31 C11.59 31.39 10.17 31.76 8.75 32.12 C7.96 32.33 7.17 32.54 6.36 32.76 C4 33 4 33 0 31 C0 20.77 0 10.54 0 0 Z " fill="#DBDDDC" transform="translate(68,59)"/>
<path d="M0 0 C13.86 0 27.72 0 42 0 C42 10.23 42 20.46 42 31 C40.68 31.33 39.36 31.66 38 32 C37.51 32.99 37.51 32.99 37 34 C34.36 33.01 31.72 32.02 29 31 C29 30.01 29 29.02 29 28 C30.98 28 32.96 28 35 28 C35 28.66 35 29.32 35 30 C36.98 29.73 36.98 29.73 39 29 C40.04 25.89 40.2 23.51 40.32 20.24 C40.35 19.23 40.39 18.22 40.43 17.18 C40.47 15.91 40.52 14.63 40.56 13.31 C40.71 9.25 40.85 5.19 41 1 C27.8 1 14.6 1 1 1 C1.14 5.06 1.29 9.13 1.44 13.31 C1.48 14.59 1.52 15.87 1.57 17.18 C1.61 18.19 1.64 19.2 1.68 20.24 C1.72 21.27 1.76 22.3 1.79 23.36 C1.9 26.11 1.9 26.11 3 29 C5.02 29.73 5.02 29.73 7 30 C7 29.34 7 28.68 7 28 C8.98 28 10.96 28 13 28 C13 28.99 13 29.98 13 31 C11.59 31.39 10.17 31.76 8.75 32.12 C7.96 32.33 7.17 32.54 6.36 32.76 C4 33 4 33 0 31 C0 20.77 0 10.54 0 0 Z " fill="#DBDDDC" transform="translate(15,39)"/>
<path d="M0 0 C1.93 0.02 1.93 0.02 3.9 0.04 C5.19 0.04 6.48 0.05 7.81 0.06 C8.81 0.07 9.81 0.09 10.84 0.1 C11.17 2.41 11.5 4.72 11.84 7.1 C5.57 7.1 -0.7 7.1 -7.16 7.1 C-7.49 6.44 -7.82 5.78 -8.16 5.1 C-7.17 5.1 -6.18 5.1 -5.16 5.1 C-4.94 4.14 -4.94 4.14 -4.72 3.16 C-3.82 -0.15 -3.62 0.11 0 0 Z " fill="#5D5E5E" transform="translate(98.16015625,51.90234375)"/>
<path d="M0 0 C1.93 0.02 1.93 0.02 3.9 0.04 C5.19 0.04 6.48 0.05 7.81 0.06 C8.81 0.07 9.81 0.09 10.84 0.1 C11.17 2.41 11.5 4.72 11.84 7.1 C5.57 7.1 -0.7 7.1 -7.16 7.1 C-7.49 6.44 -7.82 5.78 -8.16 5.1 C-7.17 5.1 -6.18 5.1 -5.16 5.1 C-4.94 4.14 -4.94 4.14 -4.72 3.16 C-3.82 -0.15 -3.62 0.11 0 0 Z " fill="#5D5E5E" transform="translate(45.16015625,31.90234375)"/>
<path d="M0 0 C1.32 0.33 2.64 0.66 4 1 C4 2.98 4 4.96 4 7 C4.99 7.33 5.98 7.66 7 8 C7 8.99 7 9.98 7 11 C8.98 11 10.96 11 13 11 C13 10.34 13 9.68 13 9 C15.47 9.5 15.47 9.5 18 10 C17.67 11.65 17.34 13.3 17 15 C15.68 15 14.36 15 13 15 C13 14.34 13 13.68 13 13 C11.02 13 9.04 13 7 13 C6.67 14.98 6.34 16.96 6 19 C5.67 19 5.34 19 5 19 C5 15.7 5 12.4 5 9 C2.03 9 -0.94 9 -4 9 C-3.67 8.34 -3.34 7.68 -3 7 C-1.35 7 0.3 7 2 7 C1.34 4.69 0.68 2.38 0 0 Z " fill="#555555" transform="translate(90,74)"/>
<path d="M0 0 C1.32 0.33 2.64 0.66 4 1 C4 2.98 4 4.96 4 7 C4.99 7.33 5.98 7.66 7 8 C7 8.99 7 9.98 7 11 C8.98 11 10.96 11 13 11 C13 10.34 13 9.68 13 9 C15.48 9.5 15.48 9.5 18 10 C17.67 11.65 17.34 13.3 17 15 C15.68 15 14.36 15 13 15 C13 14.34 13 13.68 13 13 C11.02 13 9.04 13 7 13 C6.67 14.98 6.34 16.96 6 19 C5.67 19 5.34 19 5 19 C5 15.7 5 12.4 5 9 C2.03 9 -0.94 9 -4 9 C-3.67 8.34 -3.34 7.68 -3 7 C-1.35 7 0.3 7 2 7 C1.34 4.69 0.68 2.38 0 0 Z " fill="#555555" transform="translate(37,54)"/>
<path d="M0 0 C3.3 0 6.6 0 10 0 C10 2.64 10 5.28 10 8 C6.7 8 3.4 8 0 8 C0 5.36 0 2.72 0 0 Z " fill="#C0C8C8" transform="translate(84,84)"/>
<path d="M0 0 C3.3 0 6.6 0 10 0 C10 2.64 10 5.28 10 8 C6.7 8 3.4 8 0 8 C0 5.36 0 2.72 0 0 Z " fill="#C0C8C8" transform="translate(31,64)"/>
<path d="M0 0 C4.29 0 8.58 0 13 0 C13.33 1.32 13.66 2.64 14 4 C9.38 4 4.76 4 0 4 C0 2.68 0 1.36 0 0 Z " fill="#E7E8E8" transform="translate(96,53)"/>
<path d="M0 0 C4.29 0 8.58 0 13 0 C13.33 1.32 13.66 2.64 14 4 C9.38 4 4.76 4 0 4 C0 2.68 0 1.36 0 0 Z " fill="#E7E8E8" transform="translate(43,33)"/>
<path d="M0 0 C1.98 0 3.96 0 6 0 C6 0.66 6 1.32 6 2 C4.68 2 3.36 2 2 2 C2 2.66 2 3.32 2 4 C3.32 4 4.64 4 6 4 C6 5.98 6 7.96 6 10 C4.02 10 2.04 10 0 10 C0 6.7 0 3.4 0 0 Z " fill="#8076FC" transform="translate(94,61)"/>
<path d="M0 0 C1.98 0 3.96 0 6 0 C6 0.66 6 1.32 6 2 C4.68 2 3.36 2 2 2 C2 2.66 2 3.32 2 4 C3.32 4 4.64 4 6 4 C6 5.98 6 7.96 6 10 C4.02 10 2.04 10 0 10 C0 6.7 0 3.4 0 0 Z " fill="#8076FC" transform="translate(41,41)"/>
<path d="M0 0 C1.98 0 3.96 0 6 0 C6 0.66 6 1.32 6 2 C4.68 2 3.36 2 2 2 C2 2.66 2 3.32 2 4 C3.32 4 4.64 4 6 4 C6 5.98 6 7.96 6 10 C4.02 10 2.04 10 0 10 C0 9.34 0 8.68 0 8 C1.32 8 2.64 8 4 8 C4 7.34 4 6.68 4 6 C2.68 6 1.36 6 0 6 C0 4.02 0 2.04 0 0 Z " fill="#7C72FC" transform="translate(86,61)"/>
<path d="M0 0 C1.98 0 3.96 0 6 0 C6 1.98 6 3.96 6 6 C4.68 6 3.36 6 2 6 C2 6.66 2 7.32 2 8 C3.32 8 4.64 8 6 8 C6 8.66 6 9.32 6 10 C4.02 10 2.04 10 0 10 C0 8.02 0 6.04 0 4 C1.32 4 2.64 4 4 4 C4 3.34 4 2.68 4 2 C2.68 2 1.36 2 0 2 C0 1.34 0 0.68 0 0 Z " fill="#7D72FC" transform="translate(78,61)"/>
<path d="M0 0 C3.63 0 7.26 0 11 0 C11 1.32 11 2.64 11 4 C7.37 4 3.74 4 0 4 C0 2.68 0 1.36 0 0 Z " fill="#B3BABA" transform="translate(82,53)"/>
<path d="M0 0 C1.98 0 3.96 0 6 0 C6 0.66 6 1.32 6 2 C4.68 2 3.36 2 2 2 C2 2.66 2 3.32 2 4 C3.32 4 4.64 4 6 4 C6 5.98 6 7.96 6 10 C4.02 10 2.04 10 0 10 C0 9.34 0 8.68 0 8 C1.32 8 2.64 8 4 8 C4 7.34 4 6.68 4 6 C2.68 6 1.36 6 0 6 C0 4.02 0 2.04 0 0 Z " fill="#7C72FC" transform="translate(33,41)"/>
<path d="M0 0 C1.98 0 3.96 0 6 0 C6 1.98 6 3.96 6 6 C4.68 6 3.36 6 2 6 C2 6.66 2 7.32 2 8 C3.32 8 4.64 8 6 8 C6 8.66 6 9.32 6 10 C4.02 10 2.04 10 0 10 C0 8.02 0 6.04 0 4 C1.32 4 2.64 4 4 4 C4 3.34 4 2.68 4 2 C2.68 2 1.36 2 0 2 C0 1.34 0 0.68 0 0 Z " fill="#7D72FC" transform="translate(25,41)"/>
<path d="M0 0 C3.63 0 7.26 0 11 0 C11 1.32 11 2.64 11 4 C7.37 4 3.74 4 0 4 C0 2.68 0 1.36 0 0 Z " fill="#B3BABA" transform="translate(29,33)"/>
<path d="M0 0 C3.3 0 6.6 0 10 0 C10 1.32 10 2.64 10 4 C6.37 4 2.74 4 -1 4 C-0.67 2.68 -0.34 1.36 0 0 Z " fill="#B2B9B9" transform="translate(69,53)"/>
<path d="M0 0 C3.3 0 6.6 0 10 0 C10 1.32 10 2.64 10 4 C6.37 4 2.74 4 -1 4 C-0.67 2.68 -0.34 1.36 0 0 Z " fill="#B2B9B9" transform="translate(16,33)"/>
<path d="M0 0 C1.98 0 3.96 0 6 0 C6 0.66 6 1.32 6 2 C7.98 1.34 9.96 0.68 12 0 C12 1.32 12 2.64 12 4 C11.01 4 10.02 4 9 4 C8.67 4.66 8.34 5.32 8 6 C5.36 5.01 2.72 4.02 0 3 C0 2.01 0 1.02 0 0 Z " fill="#E2E3E3" transform="translate(97,87)"/>
<path d="M0 0 C1.98 0 3.96 0 6 0 C6 0.66 6 1.32 6 2 C7.98 1.34 9.96 0.68 12 0 C12 1.32 12 2.64 12 4 C11.01 4 10.02 4 9 4 C8.67 4.66 8.34 5.32 8 6 C5.36 5.01 2.72 4.02 0 3 C0 2.01 0 1.02 0 0 Z " fill="#E2E3E3" transform="translate(44,67)"/>
<path d="M0 0 C1.98 0.66 3.96 1.32 6 2 C6 1.34 6 0.68 6 0 C7.98 0 9.96 0 12 0 C12 0.99 12 1.98 12 3 C10.56 3.36 9.13 3.72 7.69 4.06 C6.89 4.26 6.09 4.46 5.26 4.66 C3 5 3 5 0 4 C0 2.68 0 1.36 0 0 Z " fill="#E4E5E5" transform="translate(69,87)"/>
<path d="M0 0 C1.98 0.66 3.96 1.32 6 2 C6 1.34 6 0.68 6 0 C7.98 0 9.96 0 12 0 C12 0.99 12 1.98 12 3 C10.56 3.36 9.13 3.72 7.69 4.06 C6.89 4.26 6.09 4.46 5.26 4.66 C3 5 3 5 0 4 C0 2.68 0 1.36 0 0 Z " fill="#E4E5E5" transform="translate(16,67)"/>
<path d="M0 0 C1.68 0.29 3.34 0.62 5 1 C5 2.65 5 4.3 5 6 C3.02 6 1.04 6 -1 6 C-1.04 4.33 -1.04 2.67 -1 1 C-0.67 0.67 -0.34 0.34 0 0 Z " fill="#DEDFDF" transform="translate(87,75)"/>
<path d="M0 0 C1.68 0.29 3.34 0.62 5 1 C5 2.65 5 4.3 5 6 C3.02 6 1.04 6 -1 6 C-1.04 4.33 -1.04 2.67 -1 1 C-0.67 0.67 -0.34 0.34 0 0 Z " fill="#DEDFDF" transform="translate(34,55)"/>
<path d="M0 0 C1.32 0 2.64 0 4 0 C5.12 3.75 5.12 3.75 4 6 C2.35 5.67 0.7 5.34 -1 5 C-0.67 3.35 -0.34 1.7 0 0 Z " fill="#666767" transform="translate(71,83)"/>
<path d="M0 0 C1.32 0.33 2.64 0.66 4 1 C4 3.64 4 6.28 4 9 C1.36 9 -1.28 9 -4 9 C-3.67 8.34 -3.34 7.68 -3 7 C-1.35 7 0.3 7 2 7 C1.34 4.69 0.68 2.38 0 0 Z " fill="#575757" transform="translate(90,74)"/>
<path d="M0 0 C1.32 0 2.64 0 4 0 C5.12 3.75 5.12 3.75 4 6 C2.35 5.67 0.7 5.34 -1 5 C-0.67 3.35 -0.34 1.7 0 0 Z " fill="#666767" transform="translate(18,63)"/>
<path d="M0 0 C1.32 0.33 2.64 0.66 4 1 C4 3.64 4 6.28 4 9 C1.36 9 -1.28 9 -4 9 C-3.67 8.34 -3.34 7.68 -3 7 C-1.35 7 0.3 7 2 7 C1.34 4.69 0.68 2.38 0 0 Z " fill="#575757" transform="translate(37,54)"/>
<path d="M0 0 C1.32 0 2.64 0 4 0 C4 2.64 4 5.28 4 8 C2.68 7.67 1.36 7.34 0 7 C0 4.69 0 2.38 0 0 Z " fill="#BFC7C7" transform="translate(90,84)"/>
<path d="M0 0 C1.32 0 2.64 0 4 0 C4 2.64 4 5.28 4 8 C2.68 7.67 1.36 7.34 0 7 C0 4.69 0 2.38 0 0 Z " fill="#BFC7C7" transform="translate(37,64)"/>
<path d="M0 0 C0 2.97 0 5.94 0 9 C-2 6 -2 6 -2 3 C-3.65 3 -5.3 3 -7 3 C-7 2.34 -7 1.68 -7 1 C-2.25 0 -2.25 0 0 0 Z " fill="#555555" transform="translate(83,84)"/>
<path d="M0 0 C0 2.97 0 5.94 0 9 C-2 6 -2 6 -2 3 C-3.65 3 -5.3 3 -7 3 C-7 2.34 -7 1.68 -7 1 C-2.25 0 -2.25 0 0 0 Z " fill="#555555" transform="translate(30,64)"/>
<path d="M0 0 C2.47 0.5 2.47 0.5 5 1 C4.67 2.65 4.34 4.3 4 6 C2.68 5.67 1.36 5.34 0 5 C0 3.33 0 1.67 0 0 Z " fill="#717272" transform="translate(103,83)"/>
<path d="M0 0 C0.99 0.33 1.98 0.66 3 1 C3 2.65 3 4.3 3 6 C1.68 6 0.36 6 -1 6 C-1.04 4.33 -1.04 2.67 -1 1 C-0.67 0.67 -0.34 0.34 0 0 Z " fill="#EBEEEE" transform="translate(88,85)"/>
<path d="M0 0 C2.48 0.49 2.48 0.49 5 1 C4.67 2.65 4.34 4.3 4 6 C2.68 5.67 1.36 5.34 0 5 C0 3.33 0 1.67 0 0 Z " fill="#717272" transform="translate(50,63)"/>
<path d="M0 0 C0.99 0.33 1.98 0.66 3 1 C3 2.65 3 4.3 3 6 C1.68 6 0.36 6 -1 6 C-1.04 4.33 -1.04 2.67 -1 1 C-0.67 0.67 -0.34 0.34 0 0 Z " fill="#EBEEEE" transform="translate(35,65)"/>
</svg>
