<?xml version="1.0" encoding="UTF-8"?>
<!-- Generator: visioncortex VTracer 0.6.4 -->
<svg version="1.1" xmlns="http://www.w3.org/2000/svg" width="128" height="128">
<path d="M0 0 C0.99 -0 1.97 -0.01 2.99 -0.01 C6.23 -0.02 9.48 -0.01 12.72 -0.01 C14.98 -0.01 17.25 -0.01 19.51 -0.01 C24.24 -0.02 28.98 -0.01 33.71 -0 C39.78 0.01 45.84 0 51.91 -0.01 C56.58 -0.02 61.25 -0.01 65.92 -0.01 C68.15 -0.01 70.39 -0.01 72.63 -0.01 C75.75 -0.02 78.88 -0.01 82 0 C82.93 -0 83.85 -0.01 84.8 -0.01 C92.15 0.04 97.36 1.14 102.94 6.26 C105.34 9.86 105.24 12.5 105.24 16.66 C105.25 17.42 105.26 18.17 105.27 18.94 C105.29 21.43 105.3 23.92 105.31 26.4 C105.32 28.13 105.33 29.86 105.34 31.59 C105.35 35.22 105.36 38.85 105.36 42.48 C105.37 47.12 105.41 51.77 105.45 56.41 C105.48 59.99 105.49 63.56 105.49 67.14 C105.49 68.85 105.51 70.56 105.53 72.27 C105.55 74.67 105.55 77.07 105.54 79.47 C105.56 80.52 105.56 80.52 105.58 81.6 C105.52 85.94 104.56 88.82 101.52 92 C95.7 96.63 88.92 96.69 81.79 96.65 C80.81 96.65 79.83 96.66 78.81 96.66 C75.58 96.68 72.35 96.67 69.12 96.66 C66.87 96.66 64.61 96.66 62.36 96.67 C57.64 96.67 52.91 96.66 48.19 96.65 C42.16 96.63 36.12 96.64 30.08 96.66 C25.42 96.67 20.76 96.67 16.11 96.66 C13.88 96.66 11.65 96.66 9.43 96.67 C6.31 96.68 3.2 96.66 0.08 96.65 C-0.83 96.65 -1.74 96.66 -2.68 96.67 C-8.93 96.6 -14.62 96.01 -19.64 92 C-23.27 88.2 -23.79 84.53 -23.73 79.53 C-23.74 78.78 -23.75 78.03 -23.76 77.25 C-23.78 74.79 -23.77 72.32 -23.76 69.86 C-23.77 68.13 -23.78 66.41 -23.78 64.69 C-23.8 61.08 -23.79 57.47 -23.77 53.87 C-23.75 49.25 -23.77 44.64 -23.81 40.03 C-23.84 36.47 -23.84 32.92 -23.83 29.36 C-23.83 27.66 -23.83 25.96 -23.85 24.26 C-23.98 9.35 -23.98 9.35 -20.45 4.79 C-15.14 -0.52 -6.95 -0.03 0 0 Z M-13.06 12.26 C-14.48 15.1 -14.2 17.5 -14.21 20.68 C-14.21 21.34 -14.21 22 -14.22 22.68 C-14.23 24.86 -14.23 27.04 -14.23 29.22 C-14.23 30.74 -14.24 32.25 -14.24 33.77 C-14.25 36.94 -14.25 40.12 -14.25 43.3 C-14.25 47.37 -14.26 51.44 -14.28 55.52 C-14.29 58.65 -14.29 61.77 -14.29 64.9 C-14.29 66.41 -14.3 67.91 -14.3 69.41 C-14.31 71.51 -14.31 73.61 -14.31 75.71 C-14.31 76.9 -14.31 78.1 -14.31 79.33 C-14.28 82.45 -14.28 82.45 -12.06 85.26 C-9.34 86.25 -6.78 86.39 -3.89 86.39 C-3.07 86.4 -2.25 86.4 -1.4 86.41 C-0.51 86.4 0.39 86.4 1.31 86.4 C2.73 86.41 2.73 86.41 4.18 86.41 C7.32 86.42 10.45 86.43 13.59 86.43 C15.77 86.43 17.95 86.43 20.13 86.44 C24.7 86.44 29.27 86.44 33.83 86.44 C39.69 86.44 45.55 86.46 51.4 86.47 C55.9 86.49 60.4 86.49 64.9 86.49 C67.06 86.49 69.22 86.49 71.38 86.5 C74.4 86.51 77.42 86.51 80.44 86.5 C81.78 86.51 81.78 86.51 83.14 86.52 C87.47 86.5 91.06 86.44 94.94 84.26 C96.36 81.42 96.08 79.01 96.1 75.84 C96.1 75.18 96.11 74.52 96.11 73.84 C96.13 71.66 96.13 69.48 96.14 67.29 C96.15 65.78 96.15 64.26 96.16 62.75 C96.17 59.57 96.17 56.4 96.18 53.22 C96.18 49.15 96.21 45.07 96.24 41 C96.25 37.87 96.26 34.74 96.26 31.61 C96.26 30.11 96.27 28.61 96.29 27.11 C96.3 25.01 96.3 22.91 96.29 20.81 C96.3 19.61 96.3 18.42 96.3 17.19 C96.15 14.31 96.15 14.31 94.79 12.38 C92.14 10.78 90.07 10.86 86.99 10.83 C85.75 10.81 84.52 10.79 83.25 10.77 C81.9 10.76 80.54 10.75 79.18 10.75 C77.78 10.73 76.37 10.71 74.96 10.69 C71.21 10.64 67.45 10.61 63.7 10.59 C59.84 10.56 55.99 10.52 52.13 10.47 C45.39 10.4 38.65 10.35 31.91 10.3 C26.85 10.27 21.78 10.22 16.71 10.16 C13.52 10.13 10.33 10.1 7.14 10.08 C5.12 10.07 3.09 10.05 1.07 10.03 C-0.11 10.03 -1.28 10.03 -2.49 10.03 C-3.46 10.02 -4.44 10.02 -5.44 10.02 C-8.33 10.28 -10.47 10.96 -13.06 12.26 Z " fill="#2391FF" transform="translate(23.062744140625,15.7412109375)"/>
<path d="M0 0 C3.38 5.45 3.67 10.68 4 17 C5 16.99 6 16.98 7.03 16.96 C8.32 16.96 9.61 16.95 10.94 16.94 C12.23 16.93 13.51 16.91 14.84 16.9 C18 17 18 17 19 18 C20.26 35.5 20.26 35.5 15 42 C14.54 42.6 14.07 43.19 13.6 43.8 C10.13 47.48 7.02 48.51 2 48.88 C-1.53 48.71 -3.42 48.42 -6.29 46.34 C-9.24 43.1 -11.19 40.35 -12 36 C-12.7 35.92 -13.4 35.84 -14.12 35.75 C-20.15 34.18 -23.61 30.64 -27.02 25.68 C-28.77 22.68 -29.12 20.16 -29.1 16.77 C-29.09 15.57 -29.09 15.57 -29.09 14.34 C-29.08 13.5 -29.07 12.67 -29.06 11.81 C-29.06 10.97 -29.05 10.12 -29.05 9.25 C-29.04 7.17 -29.02 5.08 -29 3 C-25.42 2.16 -22.23 1.94 -18.56 2.06 C-12.06 2.14 -6.56 -0.26 0 0 Z " fill="#E45D68" transform="translate(94,50)"/>
<path d="M0 0 C3.38 5.45 3.67 10.68 4 17 C5 16.99 6 16.98 7.03 16.96 C8.32 16.96 9.61 16.95 10.94 16.94 C12.23 16.93 13.51 16.91 14.84 16.9 C18 17 18 17 19 18 C20.26 35.5 20.26 35.5 15 42 C14.54 42.6 14.07 43.19 13.6 43.8 C10.13 47.48 7.02 48.51 2 48.88 C-1.53 48.71 -3.42 48.42 -6.29 46.34 C-9.24 43.1 -11.19 40.35 -12 36 C-12.7 35.92 -13.4 35.84 -14.12 35.75 C-20.15 34.18 -23.61 30.64 -27.02 25.68 C-28.77 22.68 -29.12 20.16 -29.1 16.77 C-29.09 15.57 -29.09 15.57 -29.09 14.34 C-29.08 13.5 -29.07 12.67 -29.06 11.81 C-29.06 10.97 -29.05 10.12 -29.05 9.25 C-29.04 7.17 -29.02 5.08 -29 3 C-25.42 2.16 -22.23 1.94 -18.56 2.06 C-12.06 2.14 -6.56 -0.26 0 0 Z " fill="#E45D68" transform="translate(41,30)"/>
<path d="M0 0 C2.28 4.68 2.18 8.92 2 14 C1.26 13.65 0.52 13.3 -0.25 12.94 C-3.22 11.93 -4.16 11.81 -7 13 C-8.13 14.85 -8.13 14.85 -8.75 17.06 C-8.99 17.8 -9.23 18.53 -9.48 19.29 C-9.65 19.85 -9.82 20.42 -10 21 C-15.75 21.12 -15.75 21.12 -18 20 C-16.21 23.75 -16.21 23.75 -12.81 25.81 C-11.92 25.91 -11.92 25.91 -11 26 C-11 27.32 -11 28.64 -11 30 C-14.29 30 -16.38 29.54 -18.89 27.36 C-24.37 21.32 -26.29 16.37 -26.12 8.12 C-26.11 6.97 -26.09 5.82 -26.07 4.63 C-26.05 3.76 -26.02 2.9 -26 2 C-25.17 2.03 -24.33 2.07 -23.47 2.11 C-17.07 2.26 -11.82 2.12 -5.9 -0.44 C-3.53 -1.14 -2.27 -0.93 0 0 Z " fill="#8EA5ED" transform="translate(93,53)"/>
<path d="M0 0 C2.28 4.68 2.18 8.92 2 14 C1.26 13.65 0.52 13.3 -0.25 12.94 C-3.22 11.93 -4.16 11.81 -7 13 C-8.13 14.85 -8.13 14.85 -8.75 17.06 C-8.99 17.8 -9.23 18.53 -9.48 19.29 C-9.65 19.85 -9.82 20.42 -10 21 C-15.75 21.12 -15.75 21.12 -18 20 C-16.21 23.75 -16.21 23.75 -12.81 25.81 C-11.92 25.91 -11.92 25.91 -11 26 C-11 27.32 -11 28.64 -11 30 C-14.29 30 -16.38 29.54 -18.89 27.36 C-24.37 21.32 -26.29 16.37 -26.12 8.12 C-26.11 6.97 -26.09 5.82 -26.07 4.63 C-26.05 3.76 -26.02 2.9 -26 2 C-25.17 2.03 -24.33 2.07 -23.47 2.11 C-17.07 2.26 -11.82 2.12 -5.9 -0.44 C-3.53 -1.14 -2.27 -0.93 0 0 Z " fill="#8EA5ED" transform="translate(40,33)"/>
<path d="M0 0 C3.38 5.45 3.67 10.68 4 17 C5 16.99 6 16.98 7.03 16.96 C8.32 16.96 9.61 16.95 10.94 16.94 C12.23 16.93 13.51 16.91 14.84 16.9 C18 17 18 17 19 18 C20.26 35.5 20.26 35.5 15 42 C14.54 42.6 14.07 43.19 13.6 43.8 C10.13 47.48 7.02 48.51 2 48.88 C-1.53 48.71 -3.42 48.42 -6.29 46.34 C-9.24 43.1 -11.19 40.35 -12 36 C-12.7 35.92 -13.4 35.84 -14.12 35.75 C-20.15 34.18 -23.61 30.64 -27.02 25.68 C-28.77 22.68 -29.12 20.16 -29.1 16.77 C-29.09 15.57 -29.09 15.57 -29.09 14.34 C-29.08 13.5 -29.07 12.67 -29.06 11.81 C-29.06 10.97 -29.05 10.12 -29.05 9.25 C-29.04 7.17 -29.02 5.08 -29 3 C-25.42 2.16 -22.23 1.94 -18.56 2.06 C-12.06 2.14 -6.56 -0.26 0 0 Z M-8.88 3.5 C-14.84 5.6 -20.76 5.26 -27 5 C-27.5 14.07 -27.63 21.83 -21.32 28.88 C-17.92 32.03 -16.83 33 -12 33 C-12 31.68 -12 30.36 -12 29 C-12.78 28.75 -13.57 28.5 -14.38 28.25 C-17.32 26.85 -17.9 25.99 -19 23 C-18.34 23.33 -17.68 23.66 -17 24 C-15 24.04 -13 24.04 -11 24 C-9.02 19.55 -9.02 19.55 -7 15 C-4.33 15.67 -1.67 16.33 1 17 C1.32 11.01 0.68 7.36 -2 2 C-4.96 2 -6.21 2.41 -8.88 3.5 Z M-6 16 C-10.04 22.56 -11.37 28.32 -10 36 C-8.15 39.95 -6.01 44 -2 46 C2.09 46.39 4.45 46.29 8.12 44.38 C12.3 40.93 16.07 37.55 17 32 C17.07 29.92 17.09 27.83 17.06 25.75 C17.05 24.67 17.04 23.59 17.04 22.48 C17.02 21.66 17.01 20.84 17 20 C15.99 19.96 14.97 19.93 13.93 19.89 C12.58 19.82 11.23 19.75 9.88 19.69 C9.21 19.66 8.54 19.64 7.86 19.62 C3.22 19.37 0.04 18.24 -4 16 C-4.66 16 -5.32 16 -6 16 Z " fill="#3F2133" transform="translate(94,50)"/>
<path d="M0 0 C3.38 5.45 3.67 10.68 4 17 C5 16.99 6 16.98 7.03 16.96 C8.32 16.96 9.61 16.95 10.94 16.94 C12.23 16.93 13.51 16.91 14.84 16.9 C18 17 18 17 19 18 C20.26 35.5 20.26 35.5 15 42 C14.54 42.6 14.07 43.19 13.6 43.8 C10.13 47.48 7.02 48.51 2 48.88 C-1.53 48.71 -3.42 48.42 -6.29 46.34 C-9.24 43.1 -11.19 40.35 -12 36 C-12.7 35.92 -13.4 35.84 -14.12 35.75 C-20.15 34.18 -23.61 30.64 -27.02 25.68 C-28.77 22.68 -29.12 20.16 -29.1 16.77 C-29.09 15.57 -29.09 15.57 -29.09 14.34 C-29.08 13.5 -29.07 12.67 -29.06 11.81 C-29.06 10.97 -29.05 10.12 -29.05 9.25 C-29.04 7.17 -29.02 5.08 -29 3 C-25.42 2.16 -22.23 1.94 -18.56 2.06 C-12.06 2.14 -6.56 -0.26 0 0 Z M-8.88 3.5 C-14.84 5.6 -20.76 5.26 -27 5 C-27.5 14.07 -27.63 21.83 -21.32 28.88 C-17.92 32.03 -16.83 33 -12 33 C-12 31.68 -12 30.36 -12 29 C-12.78 28.75 -13.57 28.5 -14.38 28.25 C-17.32 26.85 -17.9 25.99 -19 23 C-18.34 23.33 -17.68 23.66 -17 24 C-15 24.04 -13 24.04 -11 24 C-9.02 19.55 -9.02 19.55 -7 15 C-4.33 15.67 -1.67 16.33 1 17 C1.32 11.01 0.68 7.36 -2 2 C-4.96 2 -6.21 2.41 -8.88 3.5 Z M-6 16 C-10.04 22.56 -11.37 28.32 -10 36 C-8.15 39.95 -6.01 44 -2 46 C2.09 46.39 4.45 46.29 8.12 44.38 C12.3 40.93 16.07 37.55 17 32 C17.07 29.92 17.09 27.83 17.06 25.75 C17.05 24.67 17.04 23.59 17.04 22.48 C17.02 21.66 17.01 20.84 17 20 C15.99 19.96 14.97 19.93 13.93 19.89 C12.58 19.82 11.23 19.75 9.88 19.69 C9.21 19.66 8.54 19.64 7.86 19.62 C3.22 19.37 0.04 18.24 -4 16 C-4.66 16 -5.32 16 -6 16 Z " fill="#3F2133" transform="translate(41,30)"/>
<path d="M0 0 C1.89 0.12 1.89 0.12 3.81 0.24 C7 0.69 7 0.69 9 2.69 C6.05 3.67 4.07 3.82 1 3.81 C-0.3 3.82 -0.3 3.82 -1.62 3.82 C-4 3.69 -4 3.69 -7 2.69 C-6.63 15.44 -6.63 15.44 -0.54 26.31 C2.06 28.64 4.49 30.28 8 30.69 C8 29.37 8 28.05 8 26.69 C7.22 26.56 6.43 26.44 5.62 26.31 C3 25.69 3 25.69 1 23.69 C1 22.7 1 21.71 1 20.69 C3.64 21.02 6.28 21.35 9 21.69 C9.1 20.78 9.21 19.87 9.31 18.94 C10 15.67 10.82 14.15 13 11.69 C15.93 12.32 18.36 13.27 21 14.69 C21 13.04 21 11.39 21 9.69 C21.33 9.69 21.66 9.69 22 9.69 C22 11.67 22 13.65 22 15.69 C18.89 15.69 16.89 15.51 14 14.69 C11.37 20.06 10.39 24.73 10 30.69 C9.36 30.81 8.72 30.94 8.06 31.06 C7.38 31.27 6.7 31.47 6 31.69 C5.67 32.35 5.34 33.01 5 33.69 C-1.77 30.04 -6.48 26.24 -9 18.69 C-9.08 17.28 -9.11 15.87 -9.1 14.46 C-9.09 13.25 -9.09 13.25 -9.09 12.03 C-9.08 11.19 -9.07 10.36 -9.06 9.5 C-9.06 8.66 -9.05 7.81 -9.05 6.94 C-9.04 4.86 -9.02 2.77 -9 0.69 C-5.98 -0.82 -3.34 -0.23 0 0 Z " fill="#3B253C" transform="translate(74,52.3125)"/>
<path d="M0 0 C1.89 0.12 1.89 0.12 3.81 0.24 C7 0.69 7 0.69 9 2.69 C6.05 3.67 4.07 3.82 1 3.81 C-0.3 3.82 -0.3 3.82 -1.62 3.82 C-4 3.69 -4 3.69 -7 2.69 C-6.63 15.44 -6.63 15.44 -0.54 26.31 C2.06 28.64 4.49 30.28 8 30.69 C8 29.37 8 28.05 8 26.69 C7.22 26.56 6.43 26.44 5.62 26.31 C3 25.69 3 25.69 1 23.69 C1 22.7 1 21.71 1 20.69 C3.64 21.02 6.28 21.35 9 21.69 C9.1 20.78 9.21 19.87 9.31 18.94 C10 15.67 10.82 14.15 13 11.69 C15.93 12.32 18.36 13.27 21 14.69 C21 13.04 21 11.39 21 9.69 C21.33 9.69 21.66 9.69 22 9.69 C22 11.67 22 13.65 22 15.69 C18.89 15.69 16.89 15.51 14 14.69 C11.37 20.06 10.39 24.73 10 30.69 C9.36 30.81 8.72 30.94 8.06 31.06 C7.38 31.27 6.7 31.48 6 31.69 C5.67 32.35 5.34 33.01 5 33.69 C-1.77 30.04 -6.48 26.24 -9 18.69 C-9.08 17.28 -9.11 15.87 -9.1 14.46 C-9.09 13.25 -9.09 13.25 -9.09 12.03 C-9.08 11.19 -9.07 10.36 -9.06 9.5 C-9.06 8.66 -9.05 7.81 -9.05 6.94 C-9.04 4.86 -9.02 2.77 -9 0.69 C-5.98 -0.82 -3.34 -0.23 0 0 Z " fill="#3B253C" transform="translate(21,32.3125)"/>
<path d="M0 0 C0.33 0 0.66 0 1 0 C1.05 0.61 1.1 1.23 1.15 1.86 C1.22 2.67 1.3 3.48 1.38 4.31 C1.44 5.11 1.51 5.91 1.59 6.74 C1.9 9.27 1.9 9.27 4 12 C4 12.66 4 13.32 4 14 C4.8 13.26 4.8 13.26 5.62 12.5 C8.67 10.58 10.46 10.55 14 11 C15.94 12.25 15.94 12.25 17 14 C16.69 16.19 16.69 16.19 16 18 C15.01 17.34 14.02 16.68 13 16 C9.87 15.83 9.87 15.83 7 16 C6.67 16.66 6.34 17.32 6 18 C8.97 18.99 11.94 19.98 15 21 C15 21.33 15 21.66 15 22 C10.69 22.42 8.71 22.56 5.25 19.81 C1.37 14.96 -0.4 12.01 -0.19 5.69 C-0.16 4.62 -0.13 3.55 -0.11 2.45 C-0.07 1.64 -0.04 0.83 0 0 Z " fill="#D34D59" transform="translate(84,74)"/>
<path d="M0 0 C0.33 0 0.66 0 1 0 C1.05 0.61 1.1 1.23 1.15 1.86 C1.22 2.67 1.3 3.48 1.38 4.31 C1.44 5.11 1.51 5.91 1.59 6.74 C1.9 9.27 1.9 9.27 4 12 C4 12.66 4 13.32 4 14 C4.8 13.26 4.8 13.26 5.62 12.5 C8.67 10.58 10.46 10.55 14 11 C15.94 12.25 15.94 12.25 17 14 C16.69 16.19 16.69 16.19 16 18 C15.01 17.34 14.02 16.68 13 16 C9.87 15.83 9.87 15.83 7 16 C6.67 16.66 6.34 17.32 6 18 C8.97 18.99 11.94 19.98 15 21 C15 21.33 15 21.66 15 22 C10.69 22.42 8.71 22.56 5.25 19.81 C1.37 14.96 -0.4 12.01 -0.19 5.69 C-0.16 4.62 -0.13 3.55 -0.11 2.45 C-0.07 1.64 -0.04 0.83 0 0 Z " fill="#D34D59" transform="translate(31,54)"/>
<path d="M0 0 C0.33 0 0.66 0 1 0 C1 1.98 1 3.96 1 6 C-2.11 6 -4.11 5.83 -7 5 C-9.63 10.37 -10.61 15.04 -11 21 C-11.99 21 -12.98 21 -14 21 C-13.67 19.68 -13.34 18.36 -13 17 C-13.78 16.88 -14.57 16.75 -15.38 16.62 C-18 16 -18 16 -20 14 C-20 13.01 -20 12.02 -20 11 C-17.36 11.33 -14.72 11.66 -12 12 C-11.9 11.09 -11.79 10.19 -11.69 9.25 C-11 5.98 -10.18 4.46 -8 2 C-5.07 2.63 -2.64 3.59 0 5 C0 3.35 0 1.7 0 0 Z " fill="#573A55" transform="translate(95,62)"/>
<path d="M0 0 C0.33 0 0.66 0 1 0 C1 1.98 1 3.96 1 6 C-2.11 6 -4.11 5.83 -7 5 C-9.63 10.37 -10.61 15.04 -11 21 C-11.99 21 -12.98 21 -14 21 C-13.67 19.68 -13.34 18.36 -13 17 C-13.78 16.88 -14.57 16.75 -15.38 16.62 C-18 16 -18 16 -20 14 C-20 13.01 -20 12.02 -20 11 C-17.36 11.33 -14.72 11.66 -12 12 C-11.9 11.09 -11.79 10.19 -11.69 9.25 C-11 5.98 -10.18 4.46 -8 2 C-5.07 2.63 -2.64 3.59 0 5 C0 3.35 0 1.7 0 0 Z " fill="#573A55" transform="translate(42,42)"/>
<path d="M0 0 C0.99 0.33 1.98 0.66 3 1 C2.34 1 1.68 1 1 1 C1.26 3.06 1.53 5.13 1.81 7.19 C1.96 8.34 2.11 9.48 2.27 10.67 C3 14.02 4.07 16.19 6 19 C6.33 18.34 6.66 17.68 7 17 C7.66 17.33 8.32 17.66 9 18 C9.1 18.64 9.21 19.28 9.31 19.94 C9.54 20.62 9.77 21.3 10 22 C12.49 23.3 12.49 23.3 15 24 C15 25.32 15 26.64 15 28 C11.71 28 9.62 27.54 7.11 25.36 C1.63 19.32 -0.29 14.37 -0.12 6.12 C-0.11 4.97 -0.09 3.82 -0.07 2.63 C-0.05 1.76 -0.02 0.9 0 0 Z " fill="#7B92E0" transform="translate(67,55)"/>
<path d="M0 0 C0.99 0.33 1.98 0.66 3 1 C2.34 1 1.68 1 1 1 C1.26 3.06 1.53 5.13 1.81 7.19 C1.96 8.34 2.11 9.48 2.27 10.67 C3 14.02 4.07 16.19 6 19 C6.33 18.34 6.66 17.68 7 17 C7.66 17.33 8.32 17.66 9 18 C9.1 18.64 9.21 19.28 9.31 19.94 C9.54 20.62 9.77 21.3 10 22 C12.49 23.3 12.49 23.3 15 24 C15 25.32 15 26.64 15 28 C11.71 28 9.62 27.54 7.11 25.36 C1.63 19.32 -0.29 14.37 -0.12 6.12 C-0.11 4.97 -0.09 3.82 -0.07 2.63 C-0.05 1.76 -0.02 0.9 0 0 Z " fill="#7B92E0" transform="translate(14,35)"/>
<path d="M0 0 C1.89 0.12 1.89 0.12 3.81 0.24 C7 0.69 7 0.69 9 2.69 C6.05 3.67 4.07 3.82 1 3.81 C-0.3 3.82 -0.3 3.82 -1.62 3.82 C-4 3.69 -4 3.69 -7 2.69 C-7 6.32 -7 9.95 -7 13.69 C-7.33 13.69 -7.66 13.69 -8 13.69 C-8.33 9.4 -8.66 5.11 -9 0.69 C-5.98 -0.82 -3.34 -0.23 0 0 Z " fill="#42314E" transform="translate(74,52.3125)"/>
<path d="M0 0 C1.89 0.12 1.89 0.12 3.81 0.24 C7 0.69 7 0.69 9 2.69 C6.05 3.67 4.07 3.82 1 3.81 C-0.3 3.82 -0.3 3.82 -1.62 3.82 C-4 3.69 -4 3.69 -7 2.69 C-7 6.32 -7 9.95 -7 13.69 C-7.33 13.69 -7.66 13.69 -8 13.69 C-8.33 9.4 -8.66 5.11 -9 0.69 C-5.98 -0.82 -3.34 -0.23 0 0 Z " fill="#42314E" transform="translate(21,32.3125)"/>
<path d="M0 0 C3.12 0.25 3.12 0.25 5.06 1.5 C6.12 3.25 6.12 3.25 5.81 5.44 C5.47 6.33 5.47 6.33 5.12 7.25 C4.14 6.59 3.14 5.93 2.12 5.25 C0.07 5.01 0.07 5.01 -2.06 5.12 C-3.32 5.17 -4.58 5.21 -5.88 5.25 C-3.48 0.3 -3.48 0.3 0 0 Z " fill="#6A4554" transform="translate(94.875,84.75)"/>
<path d="M0 0 C3.12 0.25 3.12 0.25 5.06 1.5 C6.12 3.25 6.12 3.25 5.81 5.44 C5.47 6.33 5.47 6.33 5.12 7.25 C4.13 6.59 3.14 5.93 2.12 5.25 C0.07 5.01 0.07 5.01 -2.06 5.12 C-3.32 5.17 -4.58 5.21 -5.88 5.25 C-3.48 0.3 -3.48 0.3 0 0 Z " fill="#6A4554" transform="translate(41.875,64.75)"/>
<path d="M0 0 C2 3 2 3 1.62 6.19 C1.42 7.12 1.21 8.04 1 9 C-1 6 -1 6 -2 3 C-5.63 3.33 -9.26 3.66 -13 4 C-13 3.34 -13 2.68 -13 2 C-8.52 0.25 -4.81 -0.46 0 0 Z " fill="#3E2940" transform="translate(94,50)"/>
<path d="M0 0 C2 3 2 3 1.62 6.19 C1.42 7.12 1.21 8.04 1 9 C-1 6 -1 6 -2 3 C-5.63 3.33 -9.26 3.66 -13 4 C-13 3.34 -13 2.68 -13 2 C-8.52 0.25 -4.81 -0.46 0 0 Z " fill="#3E2940" transform="translate(41,30)"/>
<path d="M0 0 C0.33 0 0.66 0 1 0 C1.22 2.06 1.43 4.12 1.62 6.19 C1.74 7.34 1.86 8.48 1.98 9.67 C2.01 13.81 1.39 16.55 -1.51 19.58 C-3.01 20.72 -4.5 21.86 -6 23 C-6.66 22.67 -7.32 22.34 -8 22 C-7.05 21.15 -6.1 20.31 -5.12 19.44 C-0.41 14.07 -0.51 6.82 0 0 Z " fill="#56293B" transform="translate(111,71)"/>
<path d="M0 0 C0.33 0 0.66 0 1 0 C1.22 2.06 1.43 4.12 1.62 6.19 C1.74 7.34 1.86 8.48 1.98 9.67 C2.01 13.81 1.39 16.55 -1.51 19.58 C-3.01 20.72 -4.5 21.86 -6 23 C-6.66 22.67 -7.32 22.34 -8 22 C-7.05 21.15 -6.1 20.31 -5.12 19.44 C-0.41 14.07 -0.51 6.82 0 0 Z " fill="#56293B" transform="translate(58,51)"/>
<path d="M0 0 C2.64 0.33 5.28 0.66 8 1 C8 2.32 8 3.64 8 5 C5.69 5.69 5.69 5.69 3 6 C1.19 4.75 1.19 4.75 0 3 C0 2.01 0 1.02 0 0 Z " fill="#734B3A" transform="translate(75,73)"/>
<path d="M0 0 C2.64 0.33 5.28 0.66 8 1 C8 2.32 8 3.64 8 5 C5.69 5.69 5.69 5.69 3 6 C1.19 4.75 1.19 4.75 0 3 C0 2.01 0 1.02 0 0 Z " fill="#734B3A" transform="translate(22,53)"/>
<path d="M0 0 C0.99 0.33 1.98 0.66 3 1 C2.34 1 1.68 1 1 1 C1.28 3.04 1.58 5.08 1.88 7.12 C2.04 8.26 2.2 9.4 2.37 10.57 C2.97 13.86 3.86 16.86 5 20 C4.01 19.67 3.02 19.34 2 19 C0.05 14.65 -0.22 10.85 -0.12 6.12 C-0.11 4.97 -0.09 3.82 -0.07 2.63 C-0.05 1.76 -0.02 0.9 0 0 Z " fill="#7B97EC" transform="translate(67,55)"/>
<path d="M0 0 C0.99 0.33 1.98 0.66 3 1 C2.34 1 1.68 1 1 1 C1.28 3.04 1.58 5.08 1.88 7.12 C2.04 8.26 2.2 9.4 2.37 10.57 C2.97 13.86 3.86 16.86 5 20 C4.01 19.67 3.02 19.34 2 19 C0.05 14.65 -0.22 10.85 -0.12 6.12 C-0.11 4.97 -0.09 3.82 -0.07 2.63 C-0.05 1.76 -0.02 0.9 0 0 Z " fill="#7B97EC" transform="translate(14,35)"/>
<path d="M0 0 C1.03 2.79 1.05 3.87 0.06 6.75 C-0.29 7.49 -0.64 8.23 -1 9 C-1.66 9 -2.32 9 -3 9 C-2.5 5.27 -2.13 3.19 0 0 Z " fill="#604564" transform="translate(86,65)"/>
<path d="M0 0 C1.03 2.79 1.05 3.87 0.06 6.75 C-0.29 7.49 -0.64 8.23 -1 9 C-1.66 9 -2.32 9 -3 9 C-2.5 5.27 -2.13 3.19 0 0 Z " fill="#604564" transform="translate(33,45)"/>
</svg>
