<?xml version="1.0" encoding="UTF-8"?>
<!-- Generator: visioncortex VTracer 0.6.4 -->
<svg version="1.1" xmlns="http://www.w3.org/2000/svg" width="128" height="128">
<path d="M0 0 C0.99 -0 1.97 -0.01 2.99 -0.01 C6.23 -0.02 9.48 -0.01 12.72 -0.01 C14.98 -0.01 17.25 -0.01 19.51 -0.01 C24.24 -0.02 28.98 -0.01 33.71 -0 C39.78 0.01 45.84 0 51.91 -0.01 C56.58 -0.02 61.25 -0.01 65.92 -0.01 C68.15 -0.01 70.39 -0.01 72.63 -0.01 C75.75 -0.02 78.88 -0.01 82 0 C82.93 -0 83.85 -0.01 84.8 -0.01 C92.15 0.04 97.36 1.14 102.94 6.26 C105.34 9.86 105.24 12.5 105.24 16.66 C105.25 17.42 105.26 18.17 105.27 18.94 C105.29 21.43 105.3 23.92 105.31 26.4 C105.32 28.13 105.33 29.86 105.34 31.59 C105.35 35.22 105.36 38.85 105.36 42.48 C105.37 47.12 105.41 51.77 105.45 56.41 C105.48 59.99 105.49 63.56 105.49 67.14 C105.49 68.85 105.51 70.56 105.53 72.27 C105.55 74.67 105.55 77.07 105.54 79.47 C105.56 80.52 105.56 80.52 105.58 81.6 C105.52 85.94 104.56 88.82 101.52 92 C95.7 96.63 88.92 96.69 81.79 96.65 C80.81 96.65 79.83 96.66 78.81 96.66 C75.58 96.68 72.35 96.67 69.12 96.66 C66.87 96.66 64.61 96.66 62.36 96.67 C57.64 96.67 52.91 96.66 48.19 96.65 C42.16 96.63 36.12 96.64 30.08 96.66 C25.42 96.67 20.76 96.67 16.11 96.66 C13.88 96.66 11.65 96.66 9.43 96.67 C6.31 96.68 3.2 96.66 0.08 96.65 C-0.83 96.65 -1.74 96.66 -2.68 96.67 C-8.93 96.6 -14.62 96.01 -19.64 92 C-23.27 88.2 -23.79 84.53 -23.73 79.53 C-23.74 78.78 -23.75 78.03 -23.76 77.25 C-23.78 74.79 -23.77 72.32 -23.76 69.86 C-23.77 68.13 -23.78 66.41 -23.78 64.69 C-23.8 61.08 -23.79 57.47 -23.77 53.87 C-23.75 49.25 -23.77 44.64 -23.81 40.03 C-23.84 36.47 -23.84 32.92 -23.83 29.36 C-23.83 27.66 -23.83 25.96 -23.85 24.26 C-23.98 9.35 -23.98 9.35 -20.45 4.79 C-15.14 -0.52 -6.95 -0.03 0 0 Z M-13.06 12.26 C-14.48 15.1 -14.2 17.5 -14.21 20.68 C-14.21 21.34 -14.21 22 -14.22 22.68 C-14.23 24.86 -14.23 27.04 -14.23 29.22 C-14.23 30.74 -14.24 32.25 -14.24 33.77 C-14.25 36.94 -14.25 40.12 -14.25 43.3 C-14.25 47.37 -14.26 51.44 -14.28 55.52 C-14.29 58.65 -14.29 61.77 -14.29 64.9 C-14.29 66.41 -14.3 67.91 -14.3 69.41 C-14.31 71.51 -14.31 73.61 -14.31 75.71 C-14.31 76.9 -14.31 78.1 -14.31 79.33 C-14.28 82.45 -14.28 82.45 -12.06 85.26 C-9.34 86.25 -6.78 86.39 -3.89 86.39 C-3.07 86.4 -2.25 86.4 -1.4 86.41 C-0.51 86.4 0.39 86.4 1.31 86.4 C2.73 86.41 2.73 86.41 4.18 86.41 C7.32 86.42 10.45 86.43 13.59 86.43 C15.77 86.43 17.95 86.43 20.13 86.44 C24.7 86.44 29.27 86.44 33.83 86.44 C39.69 86.44 45.55 86.46 51.4 86.47 C55.9 86.49 60.4 86.49 64.9 86.49 C67.06 86.49 69.22 86.49 71.38 86.5 C74.4 86.51 77.42 86.51 80.44 86.5 C81.78 86.51 81.78 86.51 83.14 86.52 C87.47 86.5 91.06 86.44 94.94 84.26 C96.36 81.42 96.08 79.01 96.1 75.84 C96.1 75.18 96.11 74.52 96.11 73.84 C96.13 71.66 96.13 69.48 96.14 67.29 C96.15 65.78 96.15 64.26 96.16 62.75 C96.17 59.57 96.17 56.4 96.18 53.22 C96.18 49.15 96.21 45.07 96.24 41 C96.25 37.87 96.26 34.74 96.26 31.61 C96.26 30.11 96.27 28.61 96.29 27.11 C96.3 25.01 96.3 22.91 96.29 20.81 C96.3 19.61 96.3 18.42 96.3 17.19 C96.15 14.31 96.15 14.31 94.79 12.38 C92.14 10.78 90.07 10.86 86.99 10.83 C85.75 10.81 84.52 10.79 83.25 10.77 C81.9 10.76 80.54 10.75 79.18 10.75 C77.78 10.73 76.37 10.71 74.96 10.69 C71.21 10.64 67.45 10.61 63.7 10.59 C59.84 10.56 55.99 10.52 52.13 10.47 C45.39 10.4 38.65 10.35 31.91 10.3 C26.85 10.27 21.78 10.22 16.71 10.16 C13.52 10.13 10.33 10.1 7.14 10.08 C5.12 10.07 3.09 10.05 1.07 10.03 C-0.11 10.03 -1.28 10.03 -2.49 10.03 C-3.46 10.02 -4.44 10.02 -5.44 10.02 C-8.33 10.28 -10.47 10.96 -13.06 12.26 Z " fill="#2391FF" transform="translate(23.062744140625,15.7412109375)"/>
<path d="M0 0 C2.25 -0.01 4.49 -0.04 6.74 -0.07 C8.17 -0.08 9.6 -0.08 11.03 -0.09 C12.99 -0.1 12.99 -0.1 14.98 -0.12 C18.7 0.27 20.48 1.02 23.45 3.24 C24.04 3.67 24.63 4.1 25.24 4.55 C27.06 7.09 26.84 9.2 26.85 12.3 C26.86 14.08 26.86 14.08 26.86 15.91 C26.85 17.15 26.84 18.4 26.83 19.68 C26.84 20.92 26.85 22.16 26.86 23.44 C26.86 24.63 26.85 25.82 26.85 27.05 C26.85 28.14 26.84 29.23 26.84 30.36 C26.41 33.55 25.71 34.97 23.45 37.24 C22.79 37.24 22.13 37.24 21.45 37.24 C21.79 39.13 21.79 39.13 22.14 41.05 C22.62 44.94 22.62 44.94 21.33 47.3 C18.67 48.63 17.27 48.08 14.45 47.24 C12.49 45.61 12.49 45.61 10.64 43.68 C7.72 41.04 6.54 40.26 2.58 39.3 C-2.42 39.7 -5.66 43.29 -9.15 46.59 C-11.55 48.24 -11.55 48.24 -14.35 47.99 C-15.07 47.74 -15.8 47.49 -16.55 47.24 C-17.5 43.54 -17.5 40.94 -16.55 37.24 C-17.19 36.95 -17.83 36.66 -18.49 36.37 C-20.55 35.24 -20.55 35.24 -21.55 33.24 C-21.9 28.81 -21.92 24.37 -21.99 19.93 C-22.03 18.69 -22.08 17.45 -22.12 16.18 C-22.24 7.27 -22.24 7.27 -20.25 4.31 C-14.15 -0.86 -7.53 0.02 0 0 Z " fill="#F89800" transform="translate(86.548095703125,49.759765625)"/>
<path d="M0 0 C2.25 -0.01 4.49 -0.04 6.74 -0.07 C8.17 -0.08 9.6 -0.08 11.03 -0.09 C12.99 -0.1 12.99 -0.1 14.98 -0.12 C18.7 0.27 20.48 1.02 23.45 3.24 C24.04 3.67 24.63 4.1 25.24 4.55 C27.06 7.09 26.84 9.2 26.85 12.3 C26.86 14.08 26.86 14.08 26.86 15.91 C26.85 17.15 26.84 18.4 26.83 19.68 C26.84 20.92 26.85 22.16 26.86 23.44 C26.86 24.63 26.85 25.82 26.85 27.05 C26.85 28.14 26.84 29.23 26.84 30.36 C26.41 33.55 25.71 34.97 23.45 37.24 C22.79 37.24 22.13 37.24 21.45 37.24 C21.79 39.13 21.79 39.13 22.14 41.05 C22.62 44.94 22.62 44.94 21.33 47.3 C18.67 48.63 17.27 48.08 14.45 47.24 C12.49 45.61 12.49 45.61 10.64 43.68 C7.72 41.04 6.54 40.26 2.58 39.3 C-2.42 39.7 -5.66 43.29 -9.15 46.59 C-11.55 48.24 -11.55 48.24 -14.35 47.99 C-15.07 47.74 -15.8 47.49 -16.55 47.24 C-17.5 43.54 -17.5 40.94 -16.55 37.24 C-17.19 36.95 -17.83 36.66 -18.49 36.37 C-20.55 35.24 -20.55 35.24 -21.55 33.24 C-21.9 28.81 -21.92 24.37 -21.99 19.93 C-22.03 18.69 -22.08 17.45 -22.12 16.18 C-22.24 7.27 -22.24 7.27 -20.25 4.31 C-14.15 -0.86 -7.53 0.02 0 0 Z " fill="#F89800" transform="translate(33.548095703125,29.759765625)"/>
<path d="M0 0 C2.25 -0.01 4.49 -0.04 6.74 -0.07 C8.17 -0.08 9.6 -0.08 11.03 -0.09 C12.99 -0.1 12.99 -0.1 14.98 -0.12 C18.7 0.27 20.48 1.02 23.45 3.24 C24.04 3.67 24.63 4.1 25.24 4.55 C27.06 7.09 26.84 9.2 26.85 12.3 C26.86 14.08 26.86 14.08 26.86 15.91 C26.85 17.15 26.84 18.4 26.83 19.68 C26.84 20.92 26.85 22.16 26.86 23.44 C26.86 24.63 26.85 25.82 26.85 27.05 C26.85 28.14 26.84 29.23 26.84 30.36 C26.41 33.55 25.71 34.97 23.45 37.24 C22.79 37.24 22.13 37.24 21.45 37.24 C21.79 39.13 21.79 39.13 22.14 41.05 C22.62 44.94 22.62 44.94 21.33 47.3 C18.67 48.63 17.27 48.08 14.45 47.24 C12.49 45.61 12.49 45.61 10.64 43.68 C7.72 41.04 6.54 40.26 2.58 39.3 C-2.42 39.7 -5.66 43.29 -9.15 46.59 C-11.55 48.24 -11.55 48.24 -14.35 47.99 C-15.07 47.74 -15.8 47.49 -16.55 47.24 C-17.5 43.54 -17.5 40.94 -16.55 37.24 C-17.19 36.95 -17.83 36.66 -18.49 36.37 C-20.55 35.24 -20.55 35.24 -21.55 33.24 C-21.9 28.81 -21.92 24.37 -21.99 19.93 C-22.03 18.69 -22.08 17.45 -22.12 16.18 C-22.24 7.27 -22.24 7.27 -20.25 4.31 C-14.15 -0.86 -7.53 0.02 0 0 Z M-19.55 7.24 C-21.41 10.97 -20.86 15.39 -20.92 19.49 C-20.96 20.43 -21 21.37 -21.04 22.35 C-21.09 26.93 -21.09 30.23 -18.15 33.91 C-15.88 36.46 -15.88 36.46 -13.55 36.24 C-13.88 39.21 -14.21 42.18 -14.55 45.24 C-10.61 44.26 -9.76 43.73 -6.92 41.18 C-2.99 38.17 -0.02 37.3 4.92 37.56 C8.9 38.63 11.54 40.96 14.54 43.71 C16.43 45.55 16.43 45.55 19.45 45.24 C18.96 40.79 18.96 40.79 18.45 36.24 C19.77 35.58 21.09 34.92 22.45 34.24 C26.55 29.9 25.97 25.48 25.95 19.8 C25.99 18.39 25.99 18.39 26.04 16.95 C26.05 12.21 26.03 9.98 23.05 6.14 C18.99 3.17 16.11 3.05 11.21 3 C10.5 2.99 9.78 2.99 9.04 2.98 C7.52 2.96 6 2.95 4.48 2.95 C2.16 2.93 -0.16 2.88 -2.48 2.84 C-3.95 2.83 -5.43 2.82 -6.91 2.81 C-7.6 2.8 -8.29 2.78 -9 2.76 C-13.79 2.78 -16.18 3.86 -19.55 7.24 Z " fill="#0F0701" transform="translate(86.548095703125,49.759765625)"/>
<path d="M0 0 C2.25 -0.01 4.49 -0.04 6.74 -0.07 C8.17 -0.08 9.6 -0.08 11.03 -0.09 C12.99 -0.1 12.99 -0.1 14.98 -0.12 C18.7 0.27 20.48 1.02 23.45 3.24 C24.04 3.67 24.63 4.1 25.24 4.55 C27.06 7.09 26.84 9.2 26.85 12.3 C26.86 14.08 26.86 14.08 26.86 15.91 C26.85 17.15 26.84 18.4 26.83 19.68 C26.84 20.92 26.85 22.16 26.86 23.44 C26.86 24.63 26.85 25.82 26.85 27.05 C26.85 28.14 26.84 29.23 26.84 30.36 C26.41 33.55 25.71 34.97 23.45 37.24 C22.79 37.24 22.13 37.24 21.45 37.24 C21.79 39.13 21.79 39.13 22.14 41.05 C22.62 44.94 22.62 44.94 21.33 47.3 C18.67 48.63 17.27 48.08 14.45 47.24 C12.49 45.61 12.49 45.61 10.64 43.68 C7.72 41.04 6.54 40.26 2.58 39.3 C-2.42 39.7 -5.66 43.29 -9.15 46.59 C-11.55 48.24 -11.55 48.24 -14.35 47.99 C-15.07 47.74 -15.8 47.49 -16.55 47.24 C-17.5 43.54 -17.5 40.94 -16.55 37.24 C-17.19 36.95 -17.83 36.66 -18.49 36.37 C-20.55 35.24 -20.55 35.24 -21.55 33.24 C-21.9 28.81 -21.92 24.37 -21.99 19.93 C-22.03 18.69 -22.08 17.45 -22.12 16.18 C-22.24 7.27 -22.24 7.27 -20.25 4.31 C-14.15 -0.86 -7.53 0.02 0 0 Z M-19.55 7.24 C-21.41 10.97 -20.86 15.39 -20.92 19.49 C-20.96 20.43 -21 21.37 -21.04 22.35 C-21.09 26.93 -21.09 30.23 -18.15 33.91 C-15.88 36.46 -15.88 36.46 -13.55 36.24 C-13.88 39.21 -14.21 42.18 -14.55 45.24 C-10.61 44.26 -9.76 43.73 -6.92 41.18 C-2.99 38.17 -0.02 37.3 4.92 37.56 C8.9 38.63 11.54 40.96 14.54 43.71 C16.43 45.55 16.43 45.55 19.45 45.24 C18.96 40.79 18.96 40.79 18.45 36.24 C19.77 35.58 21.09 34.92 22.45 34.24 C26.55 29.9 25.97 25.48 25.95 19.8 C25.99 18.39 25.99 18.39 26.04 16.95 C26.05 12.21 26.03 9.98 23.05 6.14 C18.99 3.17 16.11 3.05 11.21 3 C10.5 2.99 9.78 2.99 9.04 2.98 C7.52 2.96 6 2.95 4.48 2.95 C2.16 2.93 -0.16 2.88 -2.48 2.84 C-3.95 2.83 -5.43 2.82 -6.91 2.81 C-7.6 2.8 -8.29 2.78 -9 2.76 C-13.79 2.78 -16.18 3.86 -19.55 7.24 Z " fill="#0F0701" transform="translate(33.548095703125,29.759765625)"/>
<path d="M0 0 C0.33 0 0.66 0 1 0 C1.15 3.37 1.23 6.75 1.31 10.12 C1.35 11.08 1.4 12.03 1.44 13.01 C1.52 17.62 1.57 20.97 -1.39 24.68 C-4 27 -4 27 -6 27 C-5.5 31.45 -5.5 31.45 -5 36 C-8.88 35.76 -10.55 34.59 -13.19 31.94 C-16.8 28.71 -19.63 28.07 -24.43 28.32 C-28.44 29.38 -31.07 31.71 -34.09 34.47 C-36 36 -36 36 -39 36 C-38.5 31.55 -38.5 31.55 -38 27 C-39.32 26.34 -40.64 25.68 -42 25 C-43.25 22.88 -43.25 22.88 -44 21 C-43.33 21.33 -42.66 21.65 -41.97 21.99 C-38.4 23.2 -35.16 23.27 -31.43 23.23 C-30.72 23.23 -30 23.23 -29.26 23.23 C-27.76 23.23 -26.25 23.22 -24.74 23.21 C-22.44 23.19 -20.14 23.19 -17.84 23.19 C-16.37 23.18 -14.9 23.17 -13.43 23.17 C-12.75 23.17 -12.06 23.17 -11.36 23.16 C-6.57 23.2 -6.57 23.2 -2 22 C-1.09 19.27 -0.82 17.38 -0.68 14.55 C-0.62 13.28 -0.62 13.28 -0.56 11.98 C-0.52 11.1 -0.48 10.22 -0.44 9.31 C-0.37 7.97 -0.37 7.97 -0.31 6.61 C-0.2 4.41 -0.1 2.2 0 0 Z " fill="#E76F14" transform="translate(111,59)"/>
<path d="M0 0 C0.33 0 0.66 0 1 0 C1.15 3.37 1.23 6.75 1.31 10.12 C1.35 11.08 1.4 12.03 1.44 13.01 C1.52 17.62 1.57 20.97 -1.39 24.68 C-4 27 -4 27 -6 27 C-5.51 31.45 -5.51 31.45 -5 36 C-8.88 35.76 -10.55 34.59 -13.19 31.94 C-16.8 28.71 -19.63 28.07 -24.43 28.32 C-28.44 29.38 -31.07 31.71 -34.09 34.47 C-36 36 -36 36 -39 36 C-38.5 31.55 -38.5 31.55 -38 27 C-39.32 26.34 -40.64 25.68 -42 25 C-43.25 22.88 -43.25 22.88 -44 21 C-43.33 21.33 -42.66 21.65 -41.97 21.99 C-38.4 23.2 -35.16 23.27 -31.43 23.23 C-30.72 23.23 -30 23.23 -29.26 23.23 C-27.76 23.23 -26.25 23.22 -24.74 23.21 C-22.44 23.19 -20.14 23.19 -17.84 23.19 C-16.37 23.18 -14.9 23.17 -13.43 23.17 C-12.75 23.17 -12.06 23.17 -11.36 23.16 C-6.57 23.2 -6.57 23.2 -2 22 C-1.09 19.27 -0.82 17.38 -0.68 14.55 C-0.62 13.28 -0.62 13.28 -0.56 11.98 C-0.52 11.1 -0.48 10.22 -0.44 9.31 C-0.37 7.97 -0.37 7.97 -0.31 6.61 C-0.2 4.41 -0.1 2.2 0 0 Z " fill="#E76F14" transform="translate(58,39)"/>
<path d="M0 0 C2.44 0.38 2.44 0.38 5 1 C7.95 1.12 7.95 1.12 10.56 0.38 C11.77 0.19 11.77 0.19 13 0 C15 2 15 2 15.19 4.56 C15 7 15 7 14 8 C12 8.04 10 8.04 8 8 C5.96 8 3.92 8.02 1.88 8.06 C-1 8 -1 8 -2 7 C-2.19 4.56 -2.19 4.56 -2 2 C-1.34 1.34 -0.68 0.68 0 0 Z " fill="#726548" transform="translate(78,65)"/>
<path d="M0 0 C2.44 0.38 2.44 0.38 5 1 C7.95 1.12 7.95 1.12 10.56 0.38 C11.77 0.19 11.77 0.19 13 0 C15 2 15 2 15.19 4.56 C15 7 15 7 14 8 C12 8.04 10 8.04 8 8 C5.96 8 3.92 8.02 1.88 8.06 C-1 8 -1 8 -2 7 C-2.19 4.56 -2.19 4.56 -2 2 C-1.34 1.34 -0.68 0.68 0 0 Z " fill="#726548" transform="translate(25,45)"/>
<path d="M0 0 C1.88 2.58 1.66 4.65 1.67 7.81 C1.68 9.6 1.68 9.6 1.69 11.42 C1.67 12.66 1.66 13.91 1.65 15.19 C1.66 16.43 1.67 17.67 1.69 18.95 C1.68 20.14 1.68 21.33 1.67 22.56 C1.67 23.65 1.67 24.74 1.66 25.87 C1.23 29.09 0.52 30.44 -1.73 32.75 C-4.41 34 -4.41 34 -6.73 34.75 C-6.73 31.75 -6.73 31.75 -4.29 29.13 C-3.44 28.34 -2.6 27.56 -1.73 26.75 C0.64 24.39 -0.44 18.61 -0.41 15.44 C-0.38 14.48 -0.35 13.51 -0.32 12.52 C-0.18 6.96 -0.18 6.96 -2.62 2.15 C-6.42 -0.37 -9.46 -0.45 -13.92 -0.56 C-14.63 -0.58 -15.34 -0.6 -16.06 -0.63 C-18.33 -0.69 -20.59 -0.75 -22.85 -0.81 C-24.38 -0.85 -25.92 -0.9 -27.45 -0.94 C-31.21 -1.05 -34.97 -1.15 -38.73 -1.25 C-38.73 -1.58 -38.73 -1.91 -38.73 -2.25 C-34.1 -2.44 -29.47 -2.62 -24.85 -2.78 C-23.27 -2.84 -21.7 -2.9 -20.13 -2.97 C-17.86 -3.06 -15.6 -3.14 -13.33 -3.22 C-12.63 -3.26 -11.93 -3.29 -11.21 -3.32 C-6.37 -3.47 -3.84 -2.78 0 0 Z " fill="#2B1900" transform="translate(111.72509765625,54.246337890625)"/>
<path d="M0 0 C1.88 2.58 1.66 4.65 1.67 7.81 C1.68 9.6 1.68 9.6 1.69 11.42 C1.67 12.66 1.66 13.91 1.65 15.19 C1.66 16.43 1.67 17.67 1.69 18.95 C1.68 20.14 1.68 21.33 1.67 22.56 C1.67 23.65 1.67 24.74 1.66 25.87 C1.23 29.09 0.52 30.44 -1.73 32.75 C-4.41 34 -4.41 34 -6.73 34.75 C-6.73 31.75 -6.73 31.75 -4.29 29.13 C-3.44 28.34 -2.6 27.56 -1.73 26.75 C0.64 24.39 -0.44 18.61 -0.41 15.44 C-0.38 14.48 -0.35 13.51 -0.32 12.52 C-0.18 6.96 -0.18 6.96 -2.62 2.15 C-6.42 -0.37 -9.46 -0.45 -13.92 -0.56 C-14.63 -0.58 -15.34 -0.6 -16.06 -0.63 C-18.33 -0.69 -20.59 -0.75 -22.85 -0.81 C-24.38 -0.85 -25.92 -0.9 -27.45 -0.94 C-31.21 -1.05 -34.97 -1.15 -38.73 -1.25 C-38.73 -1.58 -38.73 -1.91 -38.73 -2.25 C-34.1 -2.44 -29.47 -2.62 -24.85 -2.78 C-23.27 -2.84 -21.7 -2.9 -20.13 -2.97 C-17.86 -3.06 -15.6 -3.14 -13.33 -3.22 C-12.63 -3.26 -11.93 -3.29 -11.21 -3.32 C-6.37 -3.47 -3.84 -2.78 0 0 Z " fill="#2B1900" transform="translate(58.72509765625,34.246337890625)"/>
<path d="M0 0 C0.71 0 1.41 0 2.14 0 C4.41 0.01 6.67 0.02 8.93 0.04 C10.46 0.04 11.99 0.04 13.53 0.05 C17.29 0.06 21.05 0.08 24.8 0.1 C25.3 1.09 25.3 1.09 25.8 2.1 C24.83 2.11 23.86 2.12 22.85 2.13 C19.23 2.17 15.6 2.23 11.98 2.31 C10.41 2.33 8.85 2.35 7.28 2.37 C5.02 2.39 2.77 2.44 0.51 2.49 C-0.18 2.49 -0.88 2.49 -1.6 2.49 C-6.39 2.64 -8.8 3.75 -12.2 7.1 C-13.96 9.22 -13.96 9.22 -15.2 11.1 C-15.57 8.91 -15.57 8.91 -15.2 6.1 C-9.96 1.09 -7 -0.05 0 0 Z " fill="#020100" transform="translate(80.1953125,49.90234375)"/>
<path d="M0 0 C0.71 0 1.41 0 2.14 0 C4.41 0.01 6.67 0.02 8.93 0.04 C10.46 0.04 11.99 0.04 13.53 0.05 C17.29 0.06 21.05 0.08 24.8 0.1 C25.3 1.09 25.3 1.09 25.8 2.1 C24.83 2.11 23.86 2.12 22.85 2.13 C19.23 2.17 15.6 2.23 11.98 2.31 C10.41 2.33 8.85 2.35 7.28 2.37 C5.02 2.39 2.77 2.44 0.51 2.49 C-0.18 2.49 -0.88 2.49 -1.6 2.49 C-6.39 2.64 -8.8 3.75 -12.2 7.1 C-13.96 9.22 -13.96 9.22 -15.2 11.1 C-15.57 8.91 -15.57 8.91 -15.2 6.1 C-9.96 1.09 -7 -0.05 0 0 Z " fill="#020100" transform="translate(27.1953125,29.90234375)"/>
<path d="M0 0 C4.56 0.56 4.56 0.56 6 2 C6.12 4.5 6.12 4.5 6 7 C5 8 5 8 1.94 8.06 C0.97 8.04 -0 8.02 -1 8 C-1.62 5.12 -1.62 5.12 -2 2 C-1.34 1.34 -0.68 0.68 0 0 Z " fill="#4E3F23" transform="translate(96,65)"/>
<path d="M0 0 C4.56 0.56 4.56 0.56 6 2 C6.12 4.5 6.12 4.5 6 7 C5 8 5 8 1.94 8.06 C0.97 8.04 -0 8.02 -1 8 C-1.62 5.12 -1.62 5.12 -2 2 C-1.34 1.34 -0.68 0.68 0 0 Z " fill="#4E3F23" transform="translate(43,45)"/>
<path d="M0 0 C2.47 0.5 2.47 0.5 5 1 C4.67 2.32 4.34 3.64 4 5 C2.68 5 1.36 5 0 5 C0 3.35 0 1.7 0 0 Z " fill="#CAD0BC" transform="translate(96,67)"/>
<path d="M0 0 C2.47 0.5 2.47 0.5 5 1 C4.67 2.32 4.34 3.64 4 5 C2.68 5 1.36 5 0 5 C0 3.35 0 1.7 0 0 Z " fill="#CACFBB" transform="translate(87,67)"/>
<path d="M0 0 C2.48 0.49 2.48 0.49 5 1 C4.67 2.32 4.34 3.64 4 5 C2.68 5 1.36 5 0 5 C0 3.35 0 1.7 0 0 Z " fill="#CAD0BC" transform="translate(43,47)"/>
<path d="M0 0 C2.48 0.49 2.48 0.49 5 1 C4.67 2.32 4.34 3.64 4 5 C2.68 5 1.36 5 0 5 C0 3.35 0 1.7 0 0 Z " fill="#CACFBB" transform="translate(34,47)"/>
<path d="M0 0 C0.66 0.33 1.32 0.66 2 1 C0.02 3.31 -1.96 5.62 -4 8 C-4.66 7.67 -5.32 7.34 -6 7 C-4.77 3.31 -3.06 2.28 0 0 Z " fill="#1A0C01" transform="translate(81,89)"/>
<path d="M0 0 C0.66 0.33 1.32 0.66 2 1 C0.02 3.31 -1.96 5.62 -4 8 C-4.66 7.67 -5.32 7.34 -6 7 C-4.77 3.31 -3.06 2.28 0 0 Z " fill="#1A0C01" transform="translate(28,69)"/>
</svg>
