<?xml version="1.0" encoding="UTF-8"?>
<!-- Generator: visioncortex VTracer 0.6.4 -->
<svg version="1.1" xmlns="http://www.w3.org/2000/svg" width="128" height="128">
<path d="M0 0 C0.99 -0 1.97 -0.01 2.99 -0.01 C6.23 -0.02 9.48 -0.01 12.72 -0.01 C14.98 -0.01 17.25 -0.01 19.51 -0.01 C24.24 -0.02 28.98 -0.01 33.71 -0 C39.78 0.01 45.84 0 51.91 -0.01 C56.58 -0.02 61.25 -0.01 65.92 -0.01 C68.15 -0.01 70.39 -0.01 72.63 -0.01 C75.75 -0.02 78.88 -0.01 82 0 C82.93 -0 83.85 -0.01 84.8 -0.01 C92.15 0.04 97.36 1.14 102.94 6.26 C105.34 9.86 105.24 12.5 105.24 16.66 C105.25 17.42 105.26 18.17 105.27 18.94 C105.29 21.43 105.3 23.92 105.31 26.4 C105.32 28.13 105.33 29.86 105.34 31.59 C105.35 35.22 105.36 38.85 105.36 42.48 C105.37 47.12 105.41 51.77 105.45 56.41 C105.48 59.99 105.49 63.56 105.49 67.14 C105.49 68.85 105.51 70.56 105.53 72.27 C105.55 74.67 105.55 77.07 105.54 79.47 C105.56 80.52 105.56 80.52 105.58 81.6 C105.52 85.94 104.56 88.82 101.52 92 C95.7 96.63 88.92 96.69 81.79 96.65 C80.81 96.65 79.83 96.66 78.81 96.66 C75.58 96.68 72.35 96.67 69.12 96.66 C66.87 96.66 64.61 96.66 62.36 96.67 C57.64 96.67 52.91 96.66 48.19 96.65 C42.16 96.63 36.12 96.64 30.08 96.66 C25.42 96.67 20.76 96.67 16.11 96.66 C13.88 96.66 11.65 96.66 9.43 96.67 C6.31 96.68 3.2 96.66 0.08 96.65 C-0.83 96.65 -1.74 96.66 -2.68 96.67 C-8.93 96.6 -14.62 96.01 -19.64 92 C-23.27 88.2 -23.79 84.53 -23.73 79.53 C-23.74 78.78 -23.75 78.03 -23.76 77.25 C-23.78 74.79 -23.77 72.32 -23.76 69.86 C-23.77 68.13 -23.78 66.41 -23.78 64.69 C-23.8 61.08 -23.79 57.47 -23.77 53.87 C-23.75 49.25 -23.77 44.64 -23.81 40.03 C-23.84 36.47 -23.84 32.92 -23.83 29.36 C-23.83 27.66 -23.83 25.96 -23.85 24.26 C-23.98 9.35 -23.98 9.35 -20.45 4.79 C-15.14 -0.52 -6.95 -0.03 0 0 Z M-13.06 12.26 C-14.48 15.1 -14.2 17.5 -14.21 20.68 C-14.21 21.34 -14.21 22 -14.22 22.68 C-14.23 24.86 -14.23 27.04 -14.23 29.22 C-14.23 30.74 -14.24 32.25 -14.24 33.77 C-14.25 36.94 -14.25 40.12 -14.25 43.3 C-14.25 47.37 -14.26 51.44 -14.28 55.52 C-14.29 58.65 -14.29 61.77 -14.29 64.9 C-14.29 66.41 -14.3 67.91 -14.3 69.41 C-14.31 71.51 -14.31 73.61 -14.31 75.71 C-14.31 76.9 -14.31 78.1 -14.31 79.33 C-14.28 82.45 -14.28 82.45 -12.06 85.26 C-9.34 86.25 -6.78 86.39 -3.89 86.39 C-3.07 86.4 -2.25 86.4 -1.4 86.41 C-0.51 86.4 0.39 86.4 1.31 86.4 C2.73 86.41 2.73 86.41 4.18 86.41 C7.32 86.42 10.45 86.43 13.59 86.43 C15.77 86.43 17.95 86.43 20.13 86.44 C24.7 86.44 29.27 86.44 33.83 86.44 C39.69 86.44 45.55 86.46 51.4 86.47 C55.9 86.49 60.4 86.49 64.9 86.49 C67.06 86.49 69.22 86.49 71.38 86.5 C74.4 86.51 77.42 86.51 80.44 86.5 C81.78 86.51 81.78 86.51 83.14 86.52 C87.47 86.5 91.06 86.44 94.94 84.26 C96.36 81.42 96.08 79.01 96.1 75.84 C96.1 75.18 96.11 74.52 96.11 73.84 C96.13 71.66 96.13 69.48 96.14 67.29 C96.15 65.78 96.15 64.26 96.16 62.75 C96.17 59.57 96.17 56.4 96.18 53.22 C96.18 49.15 96.21 45.07 96.24 41 C96.25 37.87 96.26 34.74 96.26 31.61 C96.26 30.11 96.27 28.61 96.29 27.11 C96.3 25.01 96.3 22.91 96.29 20.81 C96.3 19.61 96.3 18.42 96.3 17.19 C96.15 14.31 96.15 14.31 94.79 12.38 C92.14 10.78 90.07 10.86 86.99 10.83 C85.75 10.81 84.52 10.79 83.25 10.77 C81.9 10.76 80.54 10.75 79.18 10.75 C77.78 10.73 76.37 10.71 74.96 10.69 C71.21 10.64 67.45 10.61 63.7 10.59 C59.84 10.56 55.99 10.52 52.13 10.47 C45.39 10.4 38.65 10.35 31.91 10.3 C26.85 10.27 21.78 10.22 16.71 10.16 C13.52 10.13 10.33 10.1 7.14 10.08 C5.12 10.07 3.09 10.05 1.07 10.03 C-0.11 10.03 -1.28 10.03 -2.49 10.03 C-3.46 10.02 -4.44 10.02 -5.44 10.02 C-8.33 10.28 -10.47 10.96 -13.06 12.26 Z " fill="#2391FF" transform="translate(23.062744140625,15.7412109375)"/>
<path d="M0 0 C0.79 0.01 1.57 0.02 2.38 0.03 C3.23 0.04 4.08 0.04 4.96 0.05 C6.29 0.08 6.29 0.08 7.65 0.1 C9 0.12 9 0.12 10.37 0.13 C12.59 0.15 14.81 0.19 17.03 0.23 C17.03 1.88 17.03 3.53 17.03 5.23 C8.61 5.72 8.61 5.72 0.03 6.23 C-0.96 8.54 -1.95 10.85 -2.97 13.23 C-5.85 14.85 -5.85 14.85 -8.97 16.23 C-11.78 18.79 -11.78 18.79 -13.97 21.23 C-11 21.56 -8.03 21.89 -4.97 22.23 C-4.97 21.57 -4.97 20.91 -4.97 20.23 C0.78 19.1 0.78 19.1 3.03 20.23 C3.03 20.89 3.03 21.55 3.03 22.23 C3.75 22.34 4.48 22.45 5.23 22.57 C8.15 23.26 10.25 24.28 12.84 25.79 C13.63 26.24 14.42 26.7 15.24 27.17 C15.83 27.52 16.42 27.87 17.03 28.23 C17.03 29.88 17.03 31.53 17.03 33.23 C13.27 32.65 10.5 31.58 7.22 29.66 C6.43 29.21 5.64 28.75 4.82 28.29 C4.23 27.94 3.64 27.59 3.03 27.23 C3.03 27.89 3.03 28.55 3.03 29.23 C-2.72 30.35 -2.72 30.35 -4.97 29.23 C-4.97 28.57 -4.97 27.91 -4.97 27.23 C-8.93 27.56 -12.89 27.89 -16.97 28.23 C-17.3 29.88 -17.63 31.53 -17.97 33.23 C-16.33 33.75 -16.33 33.75 -14.66 34.29 C-11.26 35.72 -11 36.17 -9.16 39.73 C-8.77 40.88 -8.37 42.04 -7.97 43.23 C-7.31 44.22 -6.65 45.21 -5.97 46.23 C-6.3 46.89 -6.63 47.55 -6.97 48.23 C-8.64 47.92 -10.31 47.58 -11.97 47.23 C-13.77 46.95 -13.77 46.95 -15.6 46.66 C-18.97 45.23 -18.97 45.23 -20.01 43.39 C-20.78 41.23 -20.78 41.23 -21.37 39.1 C-21.88 37.01 -21.88 37.01 -23.97 35.23 C-24.1 32.1 -24.1 32.1 -23.97 29.23 C-24.63 29.23 -25.29 29.23 -25.97 29.23 C-25.97 28.57 -25.97 27.91 -25.97 27.23 C-27.62 27.23 -29.27 27.23 -30.97 27.23 C-30.97 25.58 -30.97 23.93 -30.97 22.23 C-28.99 21.57 -27.01 20.91 -24.97 20.23 C-24.64 14.62 -24.31 9.01 -23.97 3.23 C-22.65 2.9 -21.33 2.57 -19.97 2.23 C-18.62 4.93 -18.63 7.35 -18.41 10.35 C-18.32 11.45 -18.24 12.54 -18.15 13.67 C-18.09 14.52 -18.03 15.36 -17.97 16.23 C-14.1 12.78 -14.1 12.78 -12.1 8.1 C-10.97 5.23 -10.97 5.23 -7.47 3.48 C-6.32 3.06 -5.16 2.65 -3.97 2.23 C-1.97 0.23 -1.97 0.23 0 0 Z " fill="#FE4C63" transform="translate(95.97119140625,49.77294921875)"/>
<path d="M0 0 C0.79 0.01 1.57 0.02 2.38 0.03 C3.23 0.04 4.08 0.04 4.96 0.05 C6.29 0.08 6.29 0.08 7.65 0.1 C9 0.12 9 0.12 10.37 0.13 C12.59 0.15 14.81 0.19 17.03 0.23 C17.03 1.88 17.03 3.53 17.03 5.23 C8.61 5.72 8.61 5.72 0.03 6.23 C-0.96 8.54 -1.95 10.85 -2.97 13.23 C-5.85 14.85 -5.85 14.85 -8.97 16.23 C-11.78 18.79 -11.78 18.79 -13.97 21.23 C-11 21.56 -8.03 21.89 -4.97 22.23 C-4.97 21.57 -4.97 20.91 -4.97 20.23 C0.78 19.1 0.78 19.1 3.03 20.23 C3.03 20.89 3.03 21.55 3.03 22.23 C3.75 22.34 4.48 22.45 5.23 22.57 C8.15 23.26 10.25 24.28 12.84 25.79 C13.63 26.24 14.42 26.7 15.24 27.17 C15.83 27.52 16.42 27.87 17.03 28.23 C17.03 29.88 17.03 31.53 17.03 33.23 C13.27 32.65 10.5 31.58 7.22 29.66 C6.43 29.21 5.64 28.75 4.82 28.29 C4.23 27.94 3.64 27.59 3.03 27.23 C3.03 27.89 3.03 28.55 3.03 29.23 C-2.72 30.35 -2.72 30.35 -4.97 29.23 C-4.97 28.57 -4.97 27.91 -4.97 27.23 C-8.93 27.56 -12.89 27.89 -16.97 28.23 C-17.3 29.88 -17.63 31.53 -17.97 33.23 C-16.33 33.75 -16.33 33.75 -14.66 34.29 C-11.26 35.72 -11 36.17 -9.16 39.73 C-8.77 40.88 -8.37 42.04 -7.97 43.23 C-7.31 44.22 -6.65 45.21 -5.97 46.23 C-6.3 46.89 -6.63 47.55 -6.97 48.23 C-8.64 47.92 -10.31 47.58 -11.97 47.23 C-13.77 46.95 -13.77 46.95 -15.6 46.66 C-18.97 45.23 -18.97 45.23 -20.01 43.39 C-20.78 41.23 -20.78 41.23 -21.37 39.1 C-21.88 37.01 -21.88 37.01 -23.97 35.23 C-24.1 32.1 -24.1 32.1 -23.97 29.23 C-24.63 29.23 -25.29 29.23 -25.97 29.23 C-25.97 28.57 -25.97 27.91 -25.97 27.23 C-27.62 27.23 -29.27 27.23 -30.97 27.23 C-30.97 25.58 -30.97 23.93 -30.97 22.23 C-28.99 21.57 -27.01 20.91 -24.97 20.23 C-24.64 14.62 -24.31 9.01 -23.97 3.23 C-22.65 2.9 -21.33 2.57 -19.97 2.23 C-18.62 4.93 -18.63 7.35 -18.41 10.35 C-18.32 11.45 -18.24 12.54 -18.15 13.67 C-18.09 14.52 -18.03 15.36 -17.97 16.23 C-14.1 12.78 -14.1 12.78 -12.1 8.1 C-10.97 5.23 -10.97 5.23 -7.47 3.48 C-6.32 3.06 -5.16 2.65 -3.97 2.23 C-1.97 0.23 -1.97 0.23 0 0 Z " fill="#FE4C63" transform="translate(42.97119140625,29.77294921875)"/>
<path d="M0 0 C0.79 0.01 1.57 0.02 2.38 0.03 C3.23 0.04 4.08 0.04 4.96 0.05 C6.29 0.08 6.29 0.08 7.65 0.1 C9 0.12 9 0.12 10.37 0.13 C12.59 0.15 14.81 0.19 17.03 0.23 C17.03 1.88 17.03 3.53 17.03 5.23 C8.61 5.72 8.61 5.72 0.03 6.23 C-0.96 8.54 -1.95 10.85 -2.97 13.23 C-5.66 14.73 -5.66 14.73 -8.97 16.23 C-11.75 18.44 -14.37 20.81 -16.97 23.23 C-17.57 22.9 -18.17 22.57 -18.78 22.23 C-21.03 21.02 -21.03 21.02 -23.97 21.23 C-23.97 15.29 -23.97 9.35 -23.97 3.23 C-22.65 2.9 -21.33 2.57 -19.97 2.23 C-18.62 4.93 -18.63 7.35 -18.41 10.35 C-18.32 11.45 -18.24 12.54 -18.15 13.67 C-18.09 14.52 -18.03 15.36 -17.97 16.23 C-14.1 12.78 -14.1 12.78 -12.1 8.1 C-10.97 5.23 -10.97 5.23 -7.47 3.48 C-6.32 3.06 -5.16 2.65 -3.97 2.23 C-1.97 0.23 -1.97 0.23 0 0 Z " fill="#FECC01" transform="translate(95.97119140625,49.77294921875)"/>
<path d="M0 0 C0.79 0.01 1.57 0.02 2.38 0.03 C3.23 0.04 4.08 0.04 4.96 0.05 C6.29 0.08 6.29 0.08 7.65 0.1 C9 0.12 9 0.12 10.37 0.13 C12.59 0.15 14.81 0.19 17.03 0.23 C17.03 1.88 17.03 3.53 17.03 5.23 C8.61 5.72 8.61 5.72 0.03 6.23 C-0.96 8.54 -1.95 10.85 -2.97 13.23 C-5.66 14.73 -5.66 14.73 -8.97 16.23 C-11.75 18.44 -14.37 20.81 -16.97 23.23 C-17.57 22.9 -18.17 22.57 -18.78 22.23 C-21.03 21.02 -21.03 21.02 -23.97 21.23 C-23.97 15.29 -23.97 9.35 -23.97 3.23 C-22.65 2.9 -21.33 2.57 -19.97 2.23 C-18.62 4.93 -18.63 7.35 -18.41 10.35 C-18.32 11.45 -18.24 12.54 -18.15 13.67 C-18.09 14.52 -18.03 15.36 -17.97 16.23 C-14.1 12.78 -14.1 12.78 -12.1 8.1 C-10.97 5.23 -10.97 5.23 -7.47 3.48 C-6.32 3.06 -5.16 2.65 -3.97 2.23 C-1.97 0.23 -1.97 0.23 0 0 Z " fill="#FECC01" transform="translate(42.97119140625,29.77294921875)"/>
<path d="M0 0 C0 0.66 0 1.32 0 2 C1.09 2.17 1.09 2.17 2.2 2.34 C5.13 3.03 7.22 4.06 9.81 5.56 C10.6 6.02 11.39 6.47 12.21 6.94 C12.8 7.29 13.39 7.64 14 8 C14 9.65 14 11.3 14 13 C10.24 12.42 7.47 11.35 4.19 9.44 C3.4 8.98 2.61 8.53 1.79 8.06 C1.2 7.71 0.61 7.36 0 7 C0 7.66 0 8.32 0 9 C-5.75 10.12 -5.75 10.12 -8 9 C-8 8.34 -8 7.68 -8 7 C-12.29 7 -16.58 7 -21 7 C-20.67 5.35 -20.34 3.7 -20 2 C-16.04 2 -12.08 2 -8 2 C-8 1.34 -8 0.68 -8 0 C-5.14 -1.43 -3.07 -0.6 0 0 Z " fill="#2157A5" transform="translate(99,70)"/>
<path d="M0 0 C0 0.66 0 1.32 0 2 C1.09 2.17 1.09 2.17 2.2 2.34 C5.13 3.03 7.22 4.06 9.81 5.56 C10.6 6.02 11.39 6.47 12.21 6.94 C12.8 7.29 13.39 7.64 14 8 C14 9.65 14 11.3 14 13 C10.24 12.42 7.47 11.35 4.19 9.44 C3.4 8.98 2.61 8.53 1.79 8.06 C1.2 7.71 0.61 7.36 0 7 C0 7.66 0 8.32 0 9 C-5.75 10.12 -5.75 10.12 -8 9 C-8 8.34 -8 7.68 -8 7 C-12.29 7 -16.58 7 -21 7 C-20.67 5.35 -20.34 3.7 -20 2 C-16.04 2 -12.08 2 -8 2 C-8 1.34 -8 0.68 -8 0 C-5.14 -1.43 -3.07 -0.6 0 0 Z " fill="#2157A5" transform="translate(46,50)"/>
<path d="M0 0 C2.58 2.58 2.62 4.44 3 8 C2 9 2 9 0.15 9.1 C-1.9 9.07 -3.95 9.03 -6 9 C-6 8.34 -6 7.68 -6 7 C-7.65 7 -9.3 7 -11 7 C-11 5.35 -11 3.7 -11 2 C-7.22 0.59 -4.05 -0.45 0 0 Z " fill="#FA425B" transform="translate(76,70)"/>
<path d="M0 0 C2.58 2.58 2.62 4.44 3 8 C2 9 2 9 0.15 9.1 C-1.9 9.07 -3.95 9.03 -6 9 C-6 8.34 -6 7.68 -6 7 C-7.65 7 -9.3 7 -11 7 C-11 5.35 -11 3.7 -11 2 C-7.22 0.59 -4.05 -0.45 0 0 Z " fill="#FA425B" transform="translate(23,50)"/>
<path d="M0 0 C0.99 0 1.98 0 3 0 C4.52 3.03 4.18 6.18 4.19 9.5 C4.2 10.19 4.21 10.88 4.22 11.59 C4.23 13.39 4.12 15.2 4 17 C3.34 17.66 2.68 18.32 2 19 C1.01 19 0.02 19 -1 19 C-1.03 16.02 -1.05 13.04 -1.06 10.06 C-1.07 9.21 -1.08 8.36 -1.09 7.49 C-1.09 6.68 -1.09 5.87 -1.1 5.04 C-1.1 4.29 -1.11 3.54 -1.11 2.77 C-1 1 -1 1 0 0 Z " fill="#FF193C" transform="translate(73,52)"/>
<path d="M0 0 C0.99 0 1.98 0 3 0 C4.52 3.03 4.18 6.18 4.19 9.5 C4.2 10.19 4.21 10.88 4.22 11.59 C4.23 13.39 4.12 15.2 4 17 C3.34 17.66 2.68 18.32 2 19 C1.01 19 0.02 19 -1 19 C-1.03 16.02 -1.05 13.04 -1.06 10.06 C-1.07 9.21 -1.08 8.36 -1.09 7.49 C-1.09 6.68 -1.09 5.87 -1.1 5.04 C-1.1 4.29 -1.11 3.54 -1.11 2.77 C-1 1 -1 1 0 0 Z " fill="#FF193C" transform="translate(20,32)"/>
<path d="M0 0 C3.76 0.58 6.53 1.65 9.81 3.56 C10.6 4.02 11.39 4.47 12.21 4.94 C12.8 5.29 13.39 5.64 14 6 C14 7.65 14 9.3 14 11 C10.24 10.42 7.47 9.35 4.19 7.44 C3.4 6.98 2.61 6.53 1.79 6.06 C1.2 5.71 0.61 5.36 0 5 C0 3.35 0 1.7 0 0 Z " fill="#0072FA" transform="translate(99,72)"/>
<path d="M0 0 C3.76 0.58 6.53 1.65 9.81 3.56 C10.6 4.02 11.39 4.47 12.21 4.94 C12.8 5.29 13.39 5.64 14 6 C14 7.65 14 9.3 14 11 C10.24 10.42 7.47 9.35 4.19 7.44 C3.4 6.98 2.61 6.53 1.79 6.06 C1.2 5.71 0.61 5.36 0 5 C0 3.35 0 1.7 0 0 Z " fill="#0072FA" transform="translate(46,52)"/>
<path d="M0 0 C0.56 0.27 1.11 0.54 1.69 0.81 C1.69 4.81 1.69 4.81 -0.06 6.73 C-0.81 7.34 -1.55 7.94 -2.31 8.56 C-3.06 9.18 -3.8 9.79 -4.56 10.42 C-5.14 10.88 -5.72 11.34 -6.31 11.81 C-7.3 11.15 -8.29 10.49 -9.31 9.81 C-7.92 5.38 -5.32 -0.43 0 0 Z " fill="#FEDB44" transform="translate(85.3125,61.1875)"/>
<path d="M0 0 C0.56 0.27 1.11 0.54 1.69 0.81 C1.69 4.81 1.69 4.81 -0.06 6.73 C-0.8 7.34 -1.55 7.94 -2.31 8.56 C-3.05 9.18 -3.8 9.79 -4.56 10.42 C-5.14 10.88 -5.72 11.34 -6.31 11.81 C-7.3 11.15 -8.29 10.49 -9.31 9.81 C-7.92 5.38 -5.32 -0.43 0 0 Z " fill="#FEDB44" transform="translate(32.3125,41.1875)"/>
<path d="M0 0 C3.96 0 7.92 0 12 0 C12 1.65 12 3.3 12 5 C7.71 5 3.42 5 -1 5 C-0.67 3.35 -0.34 1.7 0 0 Z " fill="#069EE6" transform="translate(79,72)"/>
<path d="M0 0 C3.96 0 7.92 0 12 0 C12 1.65 12 3.3 12 5 C7.71 5 3.42 5 -1 5 C-0.67 3.35 -0.34 1.7 0 0 Z " fill="#069EE6" transform="translate(26,52)"/>
<path d="M0 0 C1.65 0 3.3 0 5 0 C6.26 2.91 7 4.8 7 8 C5.19 8.69 5.19 8.69 3 9 C1.25 7.94 1.25 7.94 0 6 C-0.19 2.81 -0.19 2.81 0 0 Z " fill="#FF183C" transform="translate(72,79)"/>
<path d="M0 0 C1.65 0 3.3 0 5 0 C6.26 2.91 7 4.8 7 8 C5.19 8.69 5.19 8.69 3 9 C1.25 7.94 1.25 7.94 0 6 C-0.19 2.81 -0.19 2.81 0 0 Z " fill="#FF183C" transform="translate(19,59)"/>
<path d="M0 0 C0.99 0 1.98 0 3 0 C4.25 6.62 4.25 6.62 2 10 C0 8.81 0 8.81 -2 7 C-2.38 4.44 -2.38 4.44 -2 2 C-1.34 1.34 -0.68 0.68 0 0 Z " fill="#FAC11E" transform="translate(86,54)"/>
<path d="M0 0 C0.99 0 1.98 0 3 0 C4.25 6.62 4.25 6.62 2 10 C0 8.81 0 8.81 -2 7 C-2.38 4.44 -2.38 4.44 -2 2 C-1.34 1.34 -0.68 0.68 0 0 Z " fill="#FAC11E" transform="translate(33,34)"/>
<path d="M0 0 C0.99 0.5 0.99 0.5 2 1 C2 1.66 2 2.32 2 3 C3.32 3 4.64 3 6 3 C6.33 2.01 6.66 1.02 7 0 C7.33 0 7.66 0 8 0 C8 1.98 8 3.96 8 6 C2.25 7.12 2.25 7.12 0 6 C0 4.02 0 2.04 0 0 Z " fill="#01429D" transform="translate(91,73)"/>
<path d="M0 0 C0.99 0.49 0.99 0.49 2 1 C2 1.66 2 2.32 2 3 C3.32 3 4.64 3 6 3 C6.33 2.01 6.66 1.02 7 0 C7.33 0 7.66 0 8 0 C8 1.98 8 3.96 8 6 C2.25 7.12 2.25 7.12 0 6 C0 4.02 0 2.04 0 0 Z " fill="#01429D" transform="translate(38,53)"/>
<path d="M0 0 C4 2 4 2 5 3 C5.19 5.44 5.19 5.44 5 8 C4.34 8.66 3.68 9.32 3 10 C2.01 10 1.02 10 0 10 C0 6.7 0 3.4 0 0 Z " fill="#FD9705" transform="translate(89,54)"/>
<path d="M0 0 C4 2 4 2 5 3 C5.19 5.44 5.19 5.44 5 8 C4.34 8.66 3.68 9.32 3 10 C2.01 10 1.02 10 0 10 C0 6.7 0 3.4 0 0 Z " fill="#FD9705" transform="translate(36,34)"/>
<path d="M0 0 C3.88 1.75 3.88 1.75 5 4 C4.67 4.66 4.34 5.32 4 6 C2.35 5.67 0.7 5.34 -1 5 C-1 1 -1 1 0 0 Z " fill="#FF183C" transform="translate(85,92)"/>
<path d="M0 0 C3.88 1.75 3.88 1.75 5 4 C4.67 4.66 4.34 5.32 4 6 C2.35 5.67 0.7 5.34 -1 5 C-1 1 -1 1 0 0 Z " fill="#FF183C" transform="translate(32,72)"/>
<path d="M0 0 C1.65 0 3.3 0 5 0 C5 1.65 5 3.3 5 5 C3.35 5 1.7 5 0 5 C0 3.35 0 1.7 0 0 Z " fill="#0AA6E3" transform="translate(65,72)"/>
<path d="M0 0 C1.65 0 3.3 0 5 0 C5 1.65 5 3.3 5 5 C3.35 5 1.7 5 0 5 C0 3.35 0 1.7 0 0 Z " fill="#0AA6E3" transform="translate(12,52)"/>
<path d="M0 0 C0.99 0.99 1.98 1.98 3 3 C2.01 4.48 2.01 4.48 1 6 C0.01 6 -0.98 6 -2 6 C-1.49 3.83 -1 2 0 0 Z " fill="#FB7C86" transform="translate(75,70)"/>
<path d="M0 0 C0.99 0.99 1.98 1.98 3 3 C2.01 4.48 2.01 4.48 1 6 C0.01 6 -0.98 6 -2 6 C-1.49 3.83 -1 2 0 0 Z " fill="#FB7C86" transform="translate(22,50)"/>
</svg>
