<?xml version="1.0" encoding="UTF-8"?>
<!-- Generator: visioncortex VTracer 0.6.4 -->
<svg version="1.1" xmlns="http://www.w3.org/2000/svg" width="128" height="128">
<path d="M0 0 C0.99 -0 1.97 -0.01 2.99 -0.01 C6.23 -0.02 9.48 -0.01 12.72 -0.01 C14.98 -0.01 17.25 -0.01 19.51 -0.01 C24.24 -0.02 28.98 -0.01 33.71 -0 C39.78 0.01 45.84 0 51.91 -0.01 C56.58 -0.02 61.25 -0.01 65.92 -0.01 C68.15 -0.01 70.39 -0.01 72.63 -0.01 C75.75 -0.02 78.88 -0.01 82 0 C82.93 -0 83.85 -0.01 84.8 -0.01 C92.15 0.04 97.36 1.14 102.94 6.26 C105.34 9.86 105.24 12.5 105.24 16.66 C105.25 17.42 105.26 18.17 105.27 18.94 C105.29 21.43 105.3 23.92 105.31 26.4 C105.32 28.13 105.33 29.86 105.34 31.59 C105.35 35.22 105.36 38.85 105.36 42.48 C105.37 47.12 105.41 51.77 105.45 56.41 C105.48 59.99 105.49 63.56 105.49 67.14 C105.49 68.85 105.51 70.56 105.53 72.27 C105.55 74.67 105.55 77.07 105.54 79.47 C105.56 80.52 105.56 80.52 105.58 81.6 C105.52 85.94 104.56 88.82 101.52 92 C95.7 96.63 88.92 96.69 81.79 96.65 C80.81 96.65 79.83 96.66 78.81 96.66 C75.58 96.68 72.35 96.67 69.12 96.66 C66.87 96.66 64.61 96.66 62.36 96.67 C57.64 96.67 52.91 96.66 48.19 96.65 C42.16 96.63 36.12 96.64 30.08 96.66 C25.42 96.67 20.76 96.67 16.11 96.66 C13.88 96.66 11.65 96.66 9.43 96.67 C6.31 96.68 3.2 96.66 0.08 96.65 C-0.83 96.65 -1.74 96.66 -2.68 96.67 C-8.93 96.6 -14.62 96.01 -19.64 92 C-23.27 88.2 -23.79 84.53 -23.73 79.53 C-23.74 78.78 -23.75 78.03 -23.76 77.25 C-23.78 74.79 -23.77 72.32 -23.76 69.86 C-23.77 68.13 -23.78 66.41 -23.78 64.69 C-23.8 61.08 -23.79 57.47 -23.77 53.87 C-23.75 49.25 -23.77 44.64 -23.81 40.03 C-23.84 36.47 -23.84 32.92 -23.83 29.36 C-23.83 27.66 -23.83 25.96 -23.85 24.26 C-23.98 9.35 -23.98 9.35 -20.45 4.79 C-15.14 -0.52 -6.95 -0.03 0 0 Z M-13.06 12.26 C-14.48 15.1 -14.2 17.5 -14.21 20.68 C-14.21 21.34 -14.21 22 -14.22 22.68 C-14.23 24.86 -14.23 27.04 -14.23 29.22 C-14.23 30.74 -14.24 32.25 -14.24 33.77 C-14.25 36.94 -14.25 40.12 -14.25 43.3 C-14.25 47.37 -14.26 51.44 -14.28 55.52 C-14.29 58.65 -14.29 61.77 -14.29 64.9 C-14.29 66.41 -14.3 67.91 -14.3 69.41 C-14.31 71.51 -14.31 73.61 -14.31 75.71 C-14.31 76.9 -14.31 78.1 -14.31 79.33 C-14.28 82.45 -14.28 82.45 -12.06 85.26 C-9.34 86.25 -6.78 86.39 -3.89 86.39 C-3.07 86.4 -2.25 86.4 -1.4 86.41 C-0.51 86.4 0.39 86.4 1.31 86.4 C2.73 86.41 2.73 86.41 4.18 86.41 C7.32 86.42 10.45 86.43 13.59 86.43 C15.77 86.43 17.95 86.43 20.13 86.44 C24.7 86.44 29.27 86.44 33.83 86.44 C39.69 86.44 45.55 86.46 51.4 86.47 C55.9 86.49 60.4 86.49 64.9 86.49 C67.06 86.49 69.22 86.49 71.38 86.5 C74.4 86.51 77.42 86.51 80.44 86.5 C81.78 86.51 81.78 86.51 83.14 86.52 C87.47 86.5 91.06 86.44 94.94 84.26 C96.36 81.42 96.08 79.01 96.1 75.84 C96.1 75.18 96.11 74.52 96.11 73.84 C96.13 71.66 96.13 69.48 96.14 67.29 C96.15 65.78 96.15 64.26 96.16 62.75 C96.17 59.57 96.17 56.4 96.18 53.22 C96.18 49.15 96.21 45.07 96.24 41 C96.25 37.87 96.26 34.74 96.26 31.61 C96.26 30.11 96.27 28.61 96.29 27.11 C96.3 25.01 96.3 22.91 96.29 20.81 C96.3 19.61 96.3 18.42 96.3 17.19 C96.15 14.31 96.15 14.31 94.79 12.38 C92.14 10.78 90.07 10.86 86.99 10.83 C85.75 10.81 84.52 10.79 83.25 10.77 C81.9 10.76 80.54 10.75 79.18 10.75 C77.78 10.73 76.37 10.71 74.96 10.69 C71.21 10.64 67.45 10.61 63.7 10.59 C59.84 10.56 55.99 10.52 52.13 10.47 C45.39 10.4 38.65 10.35 31.91 10.3 C26.85 10.27 21.78 10.22 16.71 10.16 C13.52 10.13 10.33 10.1 7.14 10.08 C5.12 10.07 3.09 10.05 1.07 10.03 C-0.11 10.03 -1.28 10.03 -2.49 10.03 C-3.46 10.02 -4.44 10.02 -5.44 10.02 C-8.33 10.28 -10.47 10.96 -13.06 12.26 Z " fill="#2391FF" transform="translate(23.062744140625,15.7412109375)"/>
<path d="M0 0 C1.93 0.02 1.93 0.02 3.9 0.04 C5.19 0.04 6.48 0.05 7.81 0.06 C8.81 0.07 9.81 0.09 10.84 0.1 C11.17 0.76 11.5 1.42 11.84 2.1 C12.83 2.43 13.82 2.76 14.84 3.1 C15.17 2.11 15.5 1.12 15.84 0.1 C19.99 0.07 24.13 0.05 28.28 0.04 C29.46 0.03 30.65 0.02 31.87 0.01 C32.99 0.01 34.11 0 35.27 0 C36.32 -0.01 37.36 -0.01 38.43 -0.02 C40.84 0.1 40.84 0.1 41.84 1.1 C42.33 7.04 42.33 7.04 42.84 13.1 C27 13.1 11.16 13.1 -5.16 13.1 C-4.08 0.13 -4.08 0.13 0 0 Z " fill="#523977" transform="translate(70.16015625,79.90234375)"/>
<path d="M0 0 C1.93 0.02 1.93 0.02 3.9 0.04 C5.19 0.04 6.48 0.05 7.81 0.06 C8.81 0.07 9.81 0.09 10.84 0.1 C11.17 0.76 11.5 1.42 11.84 2.1 C12.83 2.43 13.82 2.76 14.84 3.1 C15.17 2.11 15.5 1.12 15.84 0.1 C19.99 0.07 24.13 0.05 28.28 0.04 C29.46 0.03 30.65 0.02 31.87 0.01 C32.99 0.01 34.11 0 35.27 0 C36.32 -0.01 37.36 -0.01 38.43 -0.02 C40.84 0.1 40.84 0.1 41.84 1.1 C42.33 7.04 42.33 7.04 42.84 13.1 C27 13.1 11.16 13.1 -5.16 13.1 C-4.08 0.13 -4.08 0.13 0 0 Z " fill="#523977" transform="translate(17.16015625,59.90234375)"/>
<path d="M0 0 C4.95 0 9.9 0 15 0 C15.33 0.66 15.66 1.32 16 2 C16.99 2.33 17.98 2.66 19 3 C19.33 2.01 19.66 1.02 20 0 C28.58 0 37.16 0 46 0 C46 3.3 46 6.6 46 10 C45 11 45 11 42.59 11.11 C41.55 11.11 40.51 11.1 39.43 11.1 C38.31 11.09 37.18 11.09 36.03 11.09 C34.84 11.08 33.66 11.07 32.44 11.06 C31.25 11.06 30.06 11.05 28.84 11.05 C25.89 11.04 22.95 11.02 20 11 C19.67 10.01 19.34 9.02 19 8 C15.88 8.65 15.88 8.65 15 11 C12.69 11.03 10.38 11.05 8.06 11.06 C6.77 11.07 5.49 11.09 4.16 11.1 C1 11 1 11 0 10 C-0.14 6.66 -0.04 3.34 0 0 Z " fill="#4B447B" transform="translate(66,55)"/>
<path d="M0 0 C4.95 0 9.9 0 15 0 C15.33 0.66 15.66 1.32 16 2 C16.99 2.33 17.98 2.66 19 3 C19.33 2.01 19.66 1.02 20 0 C28.58 0 37.16 0 46 0 C46 3.3 46 6.6 46 10 C45 11 45 11 42.59 11.11 C41.55 11.11 40.51 11.1 39.43 11.1 C38.31 11.09 37.18 11.09 36.03 11.09 C34.84 11.08 33.66 11.07 32.44 11.06 C31.25 11.06 30.06 11.05 28.84 11.05 C25.89 11.04 22.95 11.02 20 11 C19.67 10.01 19.34 9.02 19 8 C15.88 8.65 15.88 8.65 15 11 C12.69 11.03 10.38 11.05 8.06 11.06 C6.77 11.07 5.49 11.09 4.16 11.1 C1 11 1 11 0 10 C-0.14 6.66 -0.04 3.34 0 0 Z " fill="#4B447B" transform="translate(13,35)"/>
<path d="M0 0 C1.17 -0.03 2.35 -0.05 3.56 -0.08 C4.55 0.03 5.54 0.14 6.56 0.25 C7.22 1.24 7.88 2.23 8.56 3.25 C9.55 3.58 10.54 3.91 11.56 4.25 C11.89 3.26 12.22 2.27 12.56 1.25 C15.11 -0.02 16.91 0.12 19.75 0.12 C20.78 0.12 21.81 0.11 22.87 0.11 C23.94 0.12 25.02 0.12 26.12 0.12 C27.2 0.12 28.28 0.12 29.4 0.11 C30.93 0.12 30.93 0.12 32.5 0.12 C33.45 0.12 34.4 0.12 35.37 0.12 C37.56 0.25 37.56 0.25 38.56 1.25 C38.56 4.55 38.56 7.85 38.56 11.25 C29.98 11.25 21.4 11.25 12.56 11.25 C12.23 10.26 11.9 9.27 11.56 8.25 C8.44 8.9 8.44 8.9 7.56 11.25 C2.61 11.25 -2.34 11.25 -7.44 11.25 C-7.54 3.54 -7.54 3.54 -7.44 1.25 C-5.56 -0.63 -2.51 0.03 0 0 Z " fill="#323465" transform="translate(73.4375,66.75)"/>
<path d="M0 0 C1.17 -0.03 2.35 -0.05 3.56 -0.08 C4.55 0.03 5.54 0.14 6.56 0.25 C7.22 1.24 7.88 2.23 8.56 3.25 C9.55 3.58 10.54 3.91 11.56 4.25 C11.89 3.26 12.22 2.27 12.56 1.25 C15.11 -0.02 16.91 0.12 19.75 0.12 C20.78 0.12 21.81 0.11 22.87 0.11 C23.94 0.12 25.02 0.12 26.12 0.12 C27.2 0.12 28.28 0.12 29.4 0.11 C30.93 0.12 30.93 0.12 32.5 0.12 C33.45 0.12 34.4 0.12 35.37 0.12 C37.56 0.25 37.56 0.25 38.56 1.25 C38.56 4.55 38.56 7.85 38.56 11.25 C29.98 11.25 21.4 11.25 12.56 11.25 C12.23 10.26 11.9 9.27 11.56 8.25 C8.44 8.9 8.44 8.9 7.56 11.25 C2.61 11.25 -2.34 11.25 -7.44 11.25 C-7.54 3.54 -7.54 3.54 -7.44 1.25 C-5.56 -0.63 -2.51 0.03 0 0 Z " fill="#323465" transform="translate(20.4375,46.75)"/>
<path d="M0 0 C7.92 0 15.84 0 24 0 C24 2.64 24 5.28 24 8 C16.08 8 8.16 8 0 8 C0 5.36 0 2.72 0 0 Z " fill="#5692C1" transform="translate(87,69)"/>
<path d="M0 0 C7.92 0 15.84 0 24 0 C24 2.64 24 5.28 24 8 C16.08 8 8.16 8 0 8 C0 5.36 0 2.72 0 0 Z " fill="#5692C1" transform="translate(34,49)"/>
<path d="M0 0 C7.59 0 15.18 0 23 0 C23 2.31 23 4.62 23 7 C15.41 7 7.82 7 0 7 C0 4.69 0 2.38 0 0 Z " fill="#9B9B9F" transform="translate(88,57)"/>
<path d="M0 0 C7.59 0 15.18 0 23 0 C23 2.31 23 4.62 23 7 C15.41 7 7.82 7 0 7 C0 4.69 0 2.38 0 0 Z " fill="#9B9B9F" transform="translate(35,37)"/>
<path d="M0 0 C7.26 0 14.52 0 22 0 C22 2.31 22 4.62 22 7 C14.74 7 7.48 7 0 7 C0 4.69 0 2.38 0 0 Z " fill="#EB5F74" transform="translate(88,82)"/>
<path d="M0 0 C7.26 0 14.52 0 22 0 C22 2.31 22 4.62 22 7 C14.74 7 7.48 7 0 7 C0 4.69 0 2.38 0 0 Z " fill="#EB5F74" transform="translate(35,62)"/>
<path d="M0 0 C4.29 0 8.58 0 13 0 C13 2.64 13 5.28 13 8 C8.71 8 4.42 8 0 8 C0 5.36 0 2.72 0 0 Z " fill="#5DA3D8" transform="translate(67,69)"/>
<path d="M0 0 C4.29 0 8.58 0 13 0 C13 2.64 13 5.28 13 8 C8.71 8 4.42 8 0 8 C0 5.36 0 2.72 0 0 Z " fill="#5DA3D8" transform="translate(14,49)"/>
<path d="M0 0 C3.63 0 7.26 0 11 0 C11 2.31 11 4.62 11 7 C7.37 7 3.74 7 0 7 C0 4.69 0 2.38 0 0 Z " fill="#EF5C74" transform="translate(68,82)"/>
<path d="M0 0 C5.61 0.33 11.22 0.66 17 1 C17 2.32 17 3.64 17 5 C8.59 5.5 8.59 5.5 0 6 C0 4.02 0 2.04 0 0 Z " fill="#769EAD" transform="translate(88,70)"/>
<path d="M0 0 C3.63 0 7.26 0 11 0 C11 2.31 11 4.62 11 7 C7.37 7 3.74 7 0 7 C0 4.69 0 2.38 0 0 Z " fill="#EF5C74" transform="translate(15,62)"/>
<path d="M0 0 C5.61 0.33 11.22 0.66 17 1 C17 2.32 17 3.64 17 5 C8.59 5.49 8.59 5.49 0 6 C0 4.02 0 2.04 0 0 Z " fill="#769EAD" transform="translate(35,50)"/>
<path d="M0 0 C3.3 0 6.6 0 10 0 C10 2.31 10 4.62 10 7 C6.7 7 3.4 7 0 7 C0 4.69 0 2.38 0 0 Z " fill="#9B9A9C" transform="translate(69,57)"/>
<path d="M0 0 C3.3 0 6.6 0 10 0 C10 2.31 10 4.62 10 7 C6.7 7 3.4 7 0 7 C0 4.69 0 2.38 0 0 Z " fill="#9B9A9C" transform="translate(16,37)"/>
<path d="M0 0 C5.94 0 11.88 0 18 0 C18 1.98 18 3.96 18 6 C12.39 6 6.78 6 1 6 C1 5.67 1 5.34 1 5 C4.96 5 8.92 5 13 5 C13 3.68 13 2.36 13 1 C8.71 1 4.42 1 0 1 C0 0.67 0 0.34 0 0 Z " fill="#62BDE4" transform="translate(92,70)"/>
<path d="M0 0 C5.94 0 11.88 0 18 0 C18 1.98 18 3.96 18 6 C12.39 6 6.78 6 1 6 C1 5.67 1 5.34 1 5 C4.96 5 8.92 5 13 5 C13 3.68 13 2.36 13 1 C8.71 1 4.42 1 0 1 C0 0.67 0 0.34 0 0 Z " fill="#62BDE4" transform="translate(39,50)"/>
<path d="M0 0 C4.62 0 9.24 0 14 0 C14 0.99 14 1.98 14 3 C9.38 3 4.76 3 0 3 C0 2.01 0 1.02 0 0 Z " fill="#B56C59" transform="translate(92,84)"/>
<path d="M0 0 C4.62 0 9.24 0 14 0 C14 0.99 14 1.98 14 3 C9.38 3 4.76 3 0 3 C0 2.01 0 1.02 0 0 Z " fill="#B56C59" transform="translate(39,64)"/>
<path d="M0 0 C4.62 0 9.24 0 14 0 C14 0.99 14 1.98 14 3 C9.38 3 4.76 3 0 3 C0 2.01 0 1.02 0 0 Z " fill="#9B7E65" transform="translate(92,59)"/>
<path d="M0 0 C4.62 0 9.24 0 14 0 C14 0.99 14 1.98 14 3 C9.38 3 4.76 3 0 3 C0 2.01 0 1.02 0 0 Z " fill="#9B7E65" transform="translate(39,39)"/>
<path d="M0 0 C0 2.31 0 4.62 0 7 C-1.65 6.67 -3.3 6.34 -5 6 C-5 4.35 -5 2.7 -5 1 C-1.12 0 -1.12 0 0 0 Z " fill="#F16A74" transform="translate(110,82)"/>
<path d="M0 0 C0 2.31 0 4.62 0 7 C-1.65 6.67 -3.3 6.34 -5 6 C-5 4.35 -5 2.7 -5 1 C-1.12 0 -1.12 0 0 0 Z " fill="#F16A74" transform="translate(57,62)"/>
<path d="M0 0 C1.32 0.66 2.64 1.32 4 2 C3.34 3.32 2.68 4.64 2 6 C1.34 6 0.68 6 0 6 C-1.12 2.25 -1.12 2.25 0 0 Z " fill="#3D3376" transform="translate(82,70)"/>
<path d="M0 0 C1.32 0.66 2.64 1.32 4 2 C3.34 3.32 2.68 4.64 2 6 C1.34 6 0.68 6 0 6 C-1.12 2.25 -1.12 2.25 0 0 Z " fill="#3D3376" transform="translate(29,50)"/>
</svg>
