<?xml version="1.0" encoding="UTF-8"?>
<!-- Generator: visioncortex VTracer 0.6.4 -->
<svg version="1.1" xmlns="http://www.w3.org/2000/svg" width="128" height="128">
<path d="M0 0 C0.99 -0 1.97 -0.01 2.99 -0.01 C6.23 -0.02 9.48 -0.01 12.72 -0.01 C14.98 -0.01 17.25 -0.01 19.51 -0.01 C24.24 -0.02 28.98 -0.01 33.71 -0 C39.78 0.01 45.84 0 51.91 -0.01 C56.58 -0.02 61.25 -0.01 65.92 -0.01 C68.15 -0.01 70.39 -0.01 72.63 -0.01 C75.75 -0.02 78.88 -0.01 82 0 C82.93 -0 83.85 -0.01 84.8 -0.01 C92.15 0.04 97.36 1.14 102.94 6.26 C105.34 9.86 105.24 12.5 105.24 16.66 C105.25 17.42 105.26 18.17 105.27 18.94 C105.29 21.43 105.3 23.92 105.31 26.4 C105.32 28.13 105.33 29.86 105.34 31.59 C105.35 35.22 105.36 38.85 105.36 42.48 C105.37 47.12 105.41 51.77 105.45 56.41 C105.48 59.99 105.49 63.56 105.49 67.14 C105.49 68.85 105.51 70.56 105.53 72.27 C105.55 74.67 105.55 77.07 105.54 79.47 C105.56 80.52 105.56 80.52 105.58 81.6 C105.52 85.94 104.56 88.82 101.52 92 C95.7 96.63 88.92 96.69 81.79 96.65 C80.81 96.65 79.83 96.66 78.81 96.66 C75.58 96.68 72.35 96.67 69.12 96.66 C66.87 96.66 64.61 96.66 62.36 96.67 C57.64 96.67 52.91 96.66 48.19 96.65 C42.16 96.63 36.12 96.64 30.08 96.66 C25.42 96.67 20.76 96.67 16.11 96.66 C13.88 96.66 11.65 96.66 9.43 96.67 C6.31 96.68 3.2 96.66 0.08 96.65 C-0.83 96.65 -1.74 96.66 -2.68 96.67 C-8.93 96.6 -14.62 96.01 -19.64 92 C-23.27 88.2 -23.79 84.53 -23.73 79.53 C-23.74 78.78 -23.75 78.03 -23.76 77.25 C-23.78 74.79 -23.77 72.32 -23.76 69.86 C-23.77 68.13 -23.78 66.41 -23.78 64.69 C-23.8 61.08 -23.79 57.47 -23.77 53.87 C-23.75 49.25 -23.77 44.64 -23.81 40.03 C-23.84 36.47 -23.84 32.92 -23.83 29.36 C-23.83 27.66 -23.83 25.96 -23.85 24.26 C-23.98 9.35 -23.98 9.35 -20.45 4.79 C-15.14 -0.52 -6.95 -0.03 0 0 Z M-13.06 12.26 C-14.48 15.1 -14.2 17.5 -14.21 20.68 C-14.21 21.34 -14.21 22 -14.22 22.68 C-14.23 24.86 -14.23 27.04 -14.23 29.22 C-14.23 30.74 -14.24 32.25 -14.24 33.77 C-14.25 36.94 -14.25 40.12 -14.25 43.3 C-14.25 47.37 -14.26 51.44 -14.28 55.52 C-14.29 58.65 -14.29 61.77 -14.29 64.9 C-14.29 66.41 -14.3 67.91 -14.3 69.41 C-14.31 71.51 -14.31 73.61 -14.31 75.71 C-14.31 76.9 -14.31 78.1 -14.31 79.33 C-14.28 82.45 -14.28 82.45 -12.06 85.26 C-9.34 86.25 -6.78 86.39 -3.89 86.39 C-3.07 86.4 -2.25 86.4 -1.4 86.41 C-0.51 86.4 0.39 86.4 1.31 86.4 C2.73 86.41 2.73 86.41 4.18 86.41 C7.32 86.42 10.45 86.43 13.59 86.43 C15.77 86.43 17.95 86.43 20.13 86.44 C24.7 86.44 29.27 86.44 33.83 86.44 C39.69 86.44 45.55 86.46 51.4 86.47 C55.9 86.49 60.4 86.49 64.9 86.49 C67.06 86.49 69.22 86.49 71.38 86.5 C74.4 86.51 77.42 86.51 80.44 86.5 C81.78 86.51 81.78 86.51 83.14 86.52 C87.47 86.5 91.06 86.44 94.94 84.26 C96.36 81.42 96.08 79.01 96.1 75.84 C96.1 75.18 96.11 74.52 96.11 73.84 C96.13 71.66 96.13 69.48 96.14 67.29 C96.15 65.78 96.15 64.26 96.16 62.75 C96.17 59.57 96.17 56.4 96.18 53.22 C96.18 49.15 96.21 45.07 96.24 41 C96.25 37.87 96.26 34.74 96.26 31.61 C96.26 30.11 96.27 28.61 96.29 27.11 C96.3 25.01 96.3 22.91 96.29 20.81 C96.3 19.61 96.3 18.42 96.3 17.19 C96.15 14.31 96.15 14.31 94.79 12.38 C92.14 10.78 90.07 10.86 86.99 10.83 C85.75 10.81 84.52 10.79 83.25 10.77 C81.9 10.76 80.54 10.75 79.18 10.75 C77.78 10.73 76.37 10.71 74.96 10.69 C71.21 10.64 67.45 10.61 63.7 10.59 C59.84 10.56 55.99 10.52 52.13 10.47 C45.39 10.4 38.65 10.35 31.91 10.3 C26.85 10.27 21.78 10.22 16.71 10.16 C13.52 10.13 10.33 10.1 7.14 10.08 C5.12 10.07 3.09 10.05 1.07 10.03 C-0.11 10.03 -1.28 10.03 -2.49 10.03 C-3.46 10.02 -4.44 10.02 -5.44 10.02 C-8.33 10.28 -10.47 10.96 -13.06 12.26 Z " fill="#2391FF" transform="translate(23.062744140625,15.7412109375)"/>
<path d="M0 0 C3.08 1.63 5.26 3.03 7.38 5.81 C8.3 9.07 8.35 11.63 8 15 C6.06 18.31 6.06 18.31 4 21 C2.68 23.13 2.68 23.13 3.62 26.25 C4.07 30.73 3.27 32.17 1 36 C-1.34 38.7 -1.34 38.7 -3.94 41.25 C-4.79 42.1 -5.65 42.95 -6.53 43.83 C-9.89 46.78 -11.93 47.88 -16.38 48.38 C-20.69 47.93 -22.69 46.77 -26 44 C-28.59 40.59 -28.43 37.17 -28 33 C-26.06 29.69 -26.06 29.69 -24 27 C-22.68 24.87 -22.68 24.87 -23.62 21.75 C-24.07 17.27 -23.27 15.83 -21 12 C-18.66 9.3 -18.66 9.3 -16.06 6.75 C-15.21 5.9 -14.35 5.05 -13.47 4.17 C-9.04 0.27 -5.95 -0.62 0 0 Z M-12.44 12 C-13.3 12.93 -14.17 13.86 -15.06 14.81 C-15.7 15.53 -16.34 16.26 -17 17 C-16.67 17.99 -16.34 18.98 -16 20 C-15.32 19.5 -14.64 19.01 -13.94 18.5 C-10.37 16.68 -7.95 16.78 -4 17 C-0.97 17.33 -0.97 17.33 0.81 15.38 C2.36 12.93 2.36 12.93 1.19 9.75 C0.8 8.84 0.4 7.94 0 7 C-6.15 6.39 -8.31 7.48 -12.44 12 Z M-11.12 24 C-11.74 24.66 -12.36 25.32 -13 26 C-9.27 24.88 -9.27 24.88 -7 22 C-9.24 21.77 -9.24 21.77 -11.12 24 Z M-4 28 C-4.68 28.5 -5.36 28.99 -6.06 29.5 C-9.63 31.32 -12.05 31.22 -16 31 C-16.99 31 -17.98 31 -19 31 C-20.95 33.14 -20.95 33.14 -22 36 C-21.31 38.78 -21.31 38.78 -20 41 C-15.66 41.43 -13.67 41.51 -10.13 38.81 C-9.28 37.88 -8.44 36.96 -7.56 36 C-6.7 35.07 -5.83 34.14 -4.94 33.19 C-3.98 32.1 -3.98 32.1 -3 31 C-3.33 30.01 -3.66 29.02 -4 28 Z " fill="#F55069" transform="translate(99,50)"/>
<path d="M0 0 C3.08 1.63 5.26 3.03 7.38 5.81 C8.3 9.07 8.35 11.63 8 15 C6.06 18.31 6.06 18.31 4 21 C2.68 23.13 2.68 23.13 3.62 26.25 C4.07 30.73 3.27 32.17 1 36 C-1.34 38.7 -1.34 38.7 -3.94 41.25 C-4.79 42.1 -5.65 42.95 -6.53 43.83 C-9.89 46.78 -11.93 47.88 -16.38 48.38 C-20.69 47.93 -22.69 46.77 -26 44 C-28.59 40.59 -28.43 37.17 -28 33 C-26.06 29.69 -26.06 29.69 -24 27 C-22.68 24.87 -22.68 24.87 -23.62 21.75 C-24.07 17.27 -23.27 15.83 -21 12 C-18.66 9.3 -18.66 9.3 -16.06 6.75 C-15.21 5.9 -14.35 5.05 -13.47 4.17 C-9.04 0.27 -5.95 -0.62 0 0 Z M-12.44 12 C-13.3 12.93 -14.17 13.86 -15.06 14.81 C-15.7 15.53 -16.34 16.26 -17 17 C-16.67 17.99 -16.34 18.98 -16 20 C-15.32 19.51 -14.64 19.01 -13.94 18.5 C-10.37 16.68 -7.95 16.78 -4 17 C-0.97 17.33 -0.97 17.33 0.81 15.38 C2.36 12.93 2.36 12.93 1.19 9.75 C0.8 8.84 0.4 7.94 0 7 C-6.15 6.39 -8.31 7.48 -12.44 12 Z M-11.12 24 C-11.74 24.66 -12.36 25.32 -13 26 C-9.27 24.88 -9.27 24.88 -7 22 C-9.24 21.77 -9.24 21.77 -11.12 24 Z M-4 28 C-4.68 28.5 -5.36 28.99 -6.06 29.5 C-9.63 31.32 -12.05 31.22 -16 31 C-16.99 31 -17.98 31 -19 31 C-20.95 33.14 -20.95 33.14 -22 36 C-21.31 38.78 -21.31 38.78 -20 41 C-15.66 41.43 -13.67 41.51 -10.13 38.81 C-9.28 37.88 -8.44 36.96 -7.56 36 C-6.7 35.07 -5.83 34.14 -4.94 33.19 C-3.98 32.1 -3.98 32.1 -3 31 C-3.33 30.01 -3.66 29.02 -4 28 Z " fill="#F55069" transform="translate(46,30)"/>
</svg>
