<?xml version="1.0" encoding="UTF-8"?>
<!-- Generator: visioncortex VTracer 0.6.4 -->
<svg version="1.1" xmlns="http://www.w3.org/2000/svg" width="128" height="128">
<path d="M0 0 C0.99 -0 1.97 -0.01 2.99 -0.01 C6.23 -0.02 9.48 -0.01 12.72 -0.01 C14.98 -0.01 17.25 -0.01 19.51 -0.01 C24.24 -0.02 28.98 -0.01 33.71 -0 C39.78 0.01 45.84 0 51.91 -0.01 C56.58 -0.02 61.25 -0.01 65.92 -0.01 C68.15 -0.01 70.39 -0.01 72.63 -0.01 C75.75 -0.02 78.88 -0.01 82 0 C82.93 -0 83.85 -0.01 84.8 -0.01 C92.15 0.04 97.36 1.14 102.94 6.26 C105.34 9.86 105.24 12.5 105.24 16.66 C105.25 17.42 105.26 18.17 105.27 18.94 C105.29 21.43 105.3 23.92 105.31 26.4 C105.32 28.13 105.33 29.86 105.34 31.59 C105.35 35.22 105.36 38.85 105.36 42.48 C105.37 47.12 105.41 51.77 105.45 56.41 C105.48 59.99 105.49 63.56 105.49 67.14 C105.49 68.85 105.51 70.56 105.53 72.27 C105.55 74.67 105.55 77.07 105.54 79.47 C105.56 80.52 105.56 80.52 105.58 81.6 C105.52 85.94 104.56 88.82 101.52 92 C95.7 96.63 88.92 96.69 81.79 96.65 C80.81 96.65 79.83 96.66 78.81 96.66 C75.58 96.68 72.35 96.67 69.12 96.66 C66.87 96.66 64.61 96.66 62.36 96.67 C57.64 96.67 52.91 96.66 48.19 96.65 C42.16 96.63 36.12 96.64 30.08 96.66 C25.42 96.67 20.76 96.67 16.11 96.66 C13.88 96.66 11.65 96.66 9.43 96.67 C6.31 96.68 3.2 96.66 0.08 96.65 C-0.83 96.65 -1.74 96.66 -2.68 96.67 C-8.93 96.6 -14.62 96.01 -19.64 92 C-23.27 88.2 -23.79 84.53 -23.73 79.53 C-23.74 78.78 -23.75 78.03 -23.76 77.25 C-23.78 74.79 -23.77 72.32 -23.76 69.86 C-23.77 68.13 -23.78 66.41 -23.78 64.69 C-23.8 61.08 -23.79 57.47 -23.77 53.87 C-23.75 49.25 -23.77 44.64 -23.81 40.03 C-23.84 36.47 -23.84 32.92 -23.83 29.36 C-23.83 27.66 -23.83 25.96 -23.85 24.26 C-23.98 9.35 -23.98 9.35 -20.45 4.79 C-15.14 -0.52 -6.95 -0.03 0 0 Z M-13.06 12.26 C-14.48 15.1 -14.2 17.5 -14.21 20.68 C-14.21 21.34 -14.21 22 -14.22 22.68 C-14.23 24.86 -14.23 27.04 -14.23 29.22 C-14.23 30.74 -14.24 32.25 -14.24 33.77 C-14.25 36.94 -14.25 40.12 -14.25 43.3 C-14.25 47.37 -14.26 51.44 -14.28 55.52 C-14.29 58.65 -14.29 61.77 -14.29 64.9 C-14.29 66.41 -14.3 67.91 -14.3 69.41 C-14.31 71.51 -14.31 73.61 -14.31 75.71 C-14.31 76.9 -14.31 78.1 -14.31 79.33 C-14.28 82.45 -14.28 82.45 -12.06 85.26 C-9.34 86.25 -6.78 86.39 -3.89 86.39 C-3.07 86.4 -2.25 86.4 -1.4 86.41 C-0.51 86.4 0.39 86.4 1.31 86.4 C2.73 86.41 2.73 86.41 4.18 86.41 C7.32 86.42 10.45 86.43 13.59 86.43 C15.77 86.43 17.95 86.43 20.13 86.44 C24.7 86.44 29.27 86.44 33.83 86.44 C39.69 86.44 45.55 86.46 51.4 86.47 C55.9 86.49 60.4 86.49 64.9 86.49 C67.06 86.49 69.22 86.49 71.38 86.5 C74.4 86.51 77.42 86.51 80.44 86.5 C81.78 86.51 81.78 86.51 83.14 86.52 C87.47 86.5 91.06 86.44 94.94 84.26 C96.36 81.42 96.08 79.01 96.1 75.84 C96.1 75.18 96.11 74.52 96.11 73.84 C96.13 71.66 96.13 69.48 96.14 67.29 C96.15 65.78 96.15 64.26 96.16 62.75 C96.17 59.57 96.17 56.4 96.18 53.22 C96.18 49.15 96.21 45.07 96.24 41 C96.25 37.87 96.26 34.74 96.26 31.61 C96.26 30.11 96.27 28.61 96.29 27.11 C96.3 25.01 96.3 22.91 96.29 20.81 C96.3 19.61 96.3 18.42 96.3 17.19 C96.15 14.31 96.15 14.31 94.79 12.38 C92.14 10.78 90.07 10.86 86.99 10.83 C85.75 10.81 84.52 10.79 83.25 10.77 C81.9 10.76 80.54 10.75 79.18 10.75 C77.78 10.73 76.37 10.71 74.96 10.69 C71.21 10.64 67.45 10.61 63.7 10.59 C59.84 10.56 55.99 10.52 52.13 10.47 C45.39 10.4 38.65 10.35 31.91 10.3 C26.85 10.27 21.78 10.22 16.71 10.16 C13.52 10.13 10.33 10.1 7.14 10.08 C5.12 10.07 3.09 10.05 1.07 10.03 C-0.11 10.03 -1.28 10.03 -2.49 10.03 C-3.46 10.02 -4.44 10.02 -5.44 10.02 C-8.33 10.28 -10.47 10.96 -13.06 12.26 Z " fill="#2391FF" transform="translate(23.062744140625,15.7412109375)"/>
<path d="M0 0 C4.14 0.03 7.46 0.57 11.31 2.19 C11.97 1.53 12.63 0.87 13.31 0.19 C16 -0.08 18.6 0.1 21.31 0.19 C21.31 0.85 21.31 1.51 21.31 2.19 C23.26 1.85 23.26 1.85 25.25 1.5 C30.43 0.91 34.63 1.94 39.31 4.19 C41.96 6.83 42.09 8.49 42.31 12.19 C40.37 17.37 35.86 20.35 31.31 23.19 C28.56 24.31 28.56 24.31 26.31 24.19 C24.98 22.85 23.65 21.52 22.31 20.19 C19.27 19.85 19.27 19.85 16.31 20.19 C15.32 20.19 14.33 20.19 13.31 20.19 C11.12 22.13 11.12 22.13 9.31 24.19 C6.23 22.99 3.25 21.71 0.31 20.19 C-0.44 23.66 -0.44 23.66 -0.69 27.19 C1.95 27.52 4.59 27.85 7.31 28.19 C7.31 27.53 7.31 26.87 7.31 26.19 C9.98 26.85 12.65 27.52 15.31 28.19 C15.97 26.87 16.63 25.55 17.31 24.19 C19.62 24.19 21.93 24.19 24.31 24.19 C24.64 25.18 24.97 26.17 25.31 27.19 C25.95 27 26.59 26.82 27.25 26.62 C27.93 26.48 28.61 26.34 29.31 26.19 C29.64 26.52 29.97 26.85 30.31 27.19 C31.77 27.43 33.23 27.66 34.69 27.88 C38.3 28.66 39.07 28.89 41.5 31.88 C42.57 36.22 42.29 38.16 40.31 42.19 C37.81 44.2 35.14 45.68 32.31 47.19 C31.98 47.52 31.65 47.85 31.31 48.19 C27.36 48.64 25.76 48.5 22.44 46.19 C21.74 45.53 21.03 44.87 20.31 44.19 C20.31 44.85 20.31 45.51 20.31 46.19 C19.69 45.98 19.08 45.78 18.44 45.56 C17.39 45.38 17.39 45.38 16.31 45.19 C15.65 45.85 14.99 46.51 14.31 47.19 C12.34 47.41 12.34 47.41 9.96 47.38 C9.11 47.38 8.26 47.37 7.38 47.36 C6.49 47.35 5.6 47.33 4.69 47.31 C3.34 47.3 3.34 47.3 1.97 47.29 C-0.25 47.26 -2.47 47.23 -4.69 47.19 C-5.94 40.56 -5.94 40.56 -3.69 37.19 C-0.79 36.88 1.85 36.77 4.75 36.81 C5.91 36.8 5.91 36.8 7.1 36.78 C12.92 36.81 12.92 36.81 14.92 38.73 C15.38 39.21 15.84 39.69 16.31 40.19 C18.48 39.96 18.48 39.96 20.31 39.19 C20.31 39.85 20.31 40.51 20.31 41.19 C21.2 40.36 22.09 39.54 23 38.69 C25.15 36.92 26.16 36.22 28.94 35.62 C32.03 36.36 33.3 37.8 35.31 40.19 C35.97 39.53 36.63 38.87 37.31 38.19 C36.99 35.58 36.99 35.58 36.31 33.19 C34.33 32.53 32.35 31.87 30.31 31.19 C30.31 31.85 30.31 32.51 30.31 33.19 C29.53 33.15 28.75 33.1 27.94 33.06 C25.15 32.9 25.15 32.9 23.31 35.19 C19.75 34.94 19.75 34.94 16.31 34.19 C15.98 33.53 15.65 32.87 15.31 32.19 C12.67 32.52 10.03 32.85 7.31 33.19 C7.31 32.53 7.31 31.87 7.31 31.19 C6.7 31.23 6.08 31.28 5.45 31.33 C-1.17 31.62 -1.17 31.62 -3.69 29.5 C-5.27 25.84 -6.23 23.6 -4.75 19.75 C-1.27 15.43 2.92 12.24 8 10 C11.54 10.29 12.91 12.72 15.31 15.19 C17.36 15.09 17.36 15.09 19.31 14.19 C20.98 14.15 22.65 14.14 24.31 14.19 C24.97 12.87 25.63 11.55 26.31 10.19 C30 10.69 31.92 11.29 34.31 14.19 C35.3 13.86 36.29 13.53 37.31 13.19 C37.31 11.21 37.31 9.23 37.31 7.19 C36.19 7.2 36.19 7.2 35.05 7.22 C34.06 7.23 33.08 7.24 32.06 7.25 C30.6 7.27 30.6 7.27 29.11 7.29 C26.65 7.2 24.65 6.89 22.31 6.19 C21.65 7.51 20.99 8.83 20.31 10.19 C17.5 10.38 17.5 10.38 14.31 10.19 C13.31 9.19 12.31 8.19 11.31 7.19 C8.69 7.26 8.69 7.26 6.31 8.19 C5.98 8.85 5.65 9.51 5.31 10.19 C2.01 10.19 -1.29 10.19 -4.69 10.19 C-6.18 7.21 -5.81 4.47 -5.69 1.19 C-4.06 -0.44 -2.24 0.02 0 0 Z " fill="#040302" transform="translate(70.6875,49.8125)"/>
<path d="M0 0 C4.14 0.03 7.46 0.57 11.31 2.19 C11.97 1.53 12.63 0.87 13.31 0.19 C16 -0.08 18.6 0.1 21.31 0.19 C21.31 0.85 21.31 1.51 21.31 2.19 C23.26 1.85 23.26 1.85 25.25 1.5 C30.43 0.91 34.63 1.94 39.31 4.19 C41.96 6.83 42.09 8.49 42.31 12.19 C40.37 17.37 35.86 20.35 31.31 23.19 C28.56 24.31 28.56 24.31 26.31 24.19 C24.98 22.85 23.65 21.52 22.31 20.19 C19.27 19.85 19.27 19.85 16.31 20.19 C15.32 20.19 14.33 20.19 13.31 20.19 C11.12 22.13 11.12 22.13 9.31 24.19 C6.23 22.99 3.25 21.71 0.31 20.19 C-0.44 23.66 -0.44 23.66 -0.69 27.19 C1.95 27.52 4.59 27.85 7.31 28.19 C7.31 27.53 7.31 26.87 7.31 26.19 C9.98 26.85 12.65 27.52 15.31 28.19 C15.97 26.87 16.63 25.55 17.31 24.19 C19.62 24.19 21.93 24.19 24.31 24.19 C24.64 25.18 24.97 26.17 25.31 27.19 C25.95 27 26.59 26.82 27.25 26.62 C27.93 26.48 28.61 26.34 29.31 26.19 C29.64 26.52 29.97 26.85 30.31 27.19 C31.77 27.43 33.23 27.66 34.69 27.88 C38.3 28.66 39.07 28.89 41.5 31.88 C42.57 36.22 42.29 38.16 40.31 42.19 C37.81 44.2 35.14 45.68 32.31 47.19 C31.98 47.52 31.65 47.85 31.31 48.19 C27.36 48.64 25.76 48.5 22.44 46.19 C21.74 45.53 21.03 44.87 20.31 44.19 C20.31 44.85 20.31 45.51 20.31 46.19 C19.69 45.98 19.08 45.78 18.44 45.56 C17.39 45.38 17.39 45.38 16.31 45.19 C15.65 45.85 14.99 46.51 14.31 47.19 C12.34 47.41 12.34 47.41 9.96 47.38 C9.11 47.38 8.26 47.37 7.38 47.36 C6.49 47.35 5.6 47.33 4.69 47.31 C3.34 47.3 3.34 47.3 1.97 47.29 C-0.25 47.26 -2.47 47.23 -4.69 47.19 C-5.94 40.56 -5.94 40.56 -3.69 37.19 C-0.79 36.88 1.85 36.77 4.75 36.81 C5.91 36.8 5.91 36.8 7.1 36.78 C12.92 36.81 12.92 36.81 14.92 38.73 C15.38 39.21 15.84 39.69 16.31 40.19 C18.48 39.96 18.48 39.96 20.31 39.19 C20.31 39.85 20.31 40.51 20.31 41.19 C21.2 40.36 22.09 39.54 23 38.69 C25.15 36.92 26.16 36.22 28.94 35.62 C32.03 36.36 33.3 37.8 35.31 40.19 C35.97 39.53 36.63 38.87 37.31 38.19 C36.99 35.58 36.99 35.58 36.31 33.19 C34.33 32.53 32.35 31.87 30.31 31.19 C30.31 31.85 30.31 32.51 30.31 33.19 C29.53 33.15 28.74 33.1 27.94 33.06 C25.15 32.9 25.15 32.9 23.31 35.19 C19.75 34.94 19.75 34.94 16.31 34.19 C15.98 33.53 15.65 32.87 15.31 32.19 C12.67 32.52 10.03 32.85 7.31 33.19 C7.31 32.53 7.31 31.87 7.31 31.19 C6.7 31.23 6.08 31.28 5.45 31.33 C-1.17 31.62 -1.17 31.62 -3.69 29.5 C-5.27 25.84 -6.23 23.6 -4.75 19.75 C-1.27 15.43 2.92 12.24 8 10 C11.54 10.29 12.91 12.72 15.31 15.19 C17.36 15.09 17.36 15.09 19.31 14.19 C20.98 14.15 22.65 14.14 24.31 14.19 C24.97 12.87 25.63 11.55 26.31 10.19 C30 10.69 31.92 11.29 34.31 14.19 C35.3 13.86 36.29 13.53 37.31 13.19 C37.31 11.21 37.31 9.23 37.31 7.19 C36.19 7.2 36.19 7.2 35.05 7.22 C34.06 7.23 33.08 7.24 32.06 7.25 C30.6 7.27 30.6 7.27 29.11 7.29 C26.65 7.2 24.65 6.89 22.31 6.19 C21.65 7.51 20.99 8.83 20.31 10.19 C17.5 10.38 17.5 10.38 14.31 10.19 C13.31 9.19 12.31 8.19 11.31 7.19 C8.69 7.26 8.69 7.26 6.31 8.19 C5.98 8.85 5.65 9.51 5.31 10.19 C2.01 10.19 -1.29 10.19 -4.69 10.19 C-6.18 7.21 -5.81 4.47 -5.69 1.19 C-4.06 -0.44 -2.24 0.02 0 0 Z " fill="#040302" transform="translate(17.6875,29.8125)"/>
<path d="M0 0 C0.99 0.33 1.98 0.66 3 1 C2.34 1 1.68 1 1 1 C-0.21 3.33 -1.17 5.5 -2 8 C-1.01 8.33 -0.02 8.66 1 9 C1 9.66 1 10.32 1 11 C1.66 11.33 2.32 11.66 3 12 C-0.82 11.47 -3.06 10.5 -6 8 C-6 8.66 -6 9.32 -6 10 C-6.62 9.79 -7.24 9.59 -7.88 9.38 C-8.58 9.25 -9.28 9.13 -10 9 C-10.66 9.66 -11.32 10.32 -12 11 C-13.97 11.23 -13.97 11.23 -16.35 11.2 C-17.2 11.19 -18.05 11.18 -18.93 11.18 C-20.26 11.15 -20.26 11.15 -21.62 11.12 C-22.97 11.11 -22.97 11.11 -24.34 11.1 C-26.56 11.07 -28.78 11.04 -31 11 C-32.25 4.38 -32.25 4.38 -30 1 C-27.1 0.7 -24.46 0.58 -21.56 0.62 C-20.79 0.61 -20.01 0.6 -19.21 0.59 C-13.4 0.62 -13.4 0.62 -11.39 2.54 C-10.93 3.02 -10.47 3.51 -10 4 C-7.84 3.77 -7.84 3.77 -6 3 C-6 3.66 -6 4.32 -6 5 C-5.07 4.15 -4.14 3.31 -3.19 2.44 C-1.61 1 -1.61 1 0 0 Z " fill="#010709" transform="translate(97,86)"/>
<path d="M0 0 C0.99 0.33 1.98 0.66 3 1 C2.34 1 1.68 1 1 1 C-0.21 3.33 -1.17 5.5 -2 8 C-1.01 8.33 -0.02 8.66 1 9 C1 9.66 1 10.32 1 11 C1.66 11.33 2.32 11.66 3 12 C-0.82 11.47 -3.06 10.5 -6 8 C-6 8.66 -6 9.32 -6 10 C-6.62 9.79 -7.24 9.59 -7.88 9.38 C-8.58 9.25 -9.28 9.13 -10 9 C-10.66 9.66 -11.32 10.32 -12 11 C-13.97 11.23 -13.97 11.23 -16.35 11.2 C-17.2 11.19 -18.05 11.18 -18.93 11.18 C-20.26 11.15 -20.26 11.15 -21.62 11.12 C-22.97 11.11 -22.97 11.11 -24.34 11.1 C-26.56 11.07 -28.78 11.04 -31 11 C-32.25 4.38 -32.25 4.38 -30 1 C-27.1 0.7 -24.46 0.58 -21.56 0.62 C-20.79 0.61 -20.01 0.6 -19.21 0.59 C-13.4 0.62 -13.4 0.62 -11.39 2.54 C-10.93 3.02 -10.47 3.51 -10 4 C-7.84 3.77 -7.84 3.77 -6 3 C-6 3.66 -6 4.32 -6 5 C-5.07 4.15 -4.14 3.31 -3.19 2.44 C-1.61 1 -1.61 1 0 0 Z " fill="#010709" transform="translate(44,66)"/>
<path d="M0 0 C4.14 0.03 7.46 0.57 11.31 2.19 C11.97 1.53 12.63 0.87 13.31 0.19 C15.81 -0.12 15.81 -0.12 18.31 0.19 C20.31 3.19 20.31 3.19 20.06 5.19 C19.31 7.19 19.31 7.19 17.31 10.19 C14.88 9.81 14.88 9.81 12.31 9.19 C11.98 8.53 11.65 7.87 11.31 7.19 C8.84 7.53 8.84 7.53 6.31 8.19 C5.98 8.85 5.65 9.51 5.31 10.19 C2.01 10.19 -1.29 10.19 -4.69 10.19 C-6.18 7.21 -5.81 4.47 -5.69 1.19 C-4.06 -0.44 -2.24 0.02 0 0 Z " fill="#080703" transform="translate(70.6875,49.8125)"/>
<path d="M0 0 C4.14 0.03 7.46 0.57 11.31 2.19 C11.97 1.53 12.63 0.87 13.31 0.19 C15.81 -0.12 15.81 -0.12 18.31 0.19 C20.31 3.19 20.31 3.19 20.06 5.19 C19.31 7.19 19.31 7.19 17.31 10.19 C14.88 9.81 14.88 9.81 12.31 9.19 C11.98 8.53 11.65 7.87 11.31 7.19 C8.84 7.53 8.84 7.53 6.31 8.19 C5.98 8.85 5.65 9.51 5.31 10.19 C2.01 10.19 -1.29 10.19 -4.69 10.19 C-6.18 7.21 -5.81 4.47 -5.69 1.19 C-4.06 -0.44 -2.24 0.02 0 0 Z " fill="#080703" transform="translate(17.6875,29.8125)"/>
<path d="M0 0 C4.45 0.99 4.45 0.99 9 2 C9 3.65 9 5.3 9 7 C4.05 7 -0.9 7 -6 7 C-6 5.35 -6 3.7 -6 2 C-4.02 2 -2.04 2 0 2 C0 1.34 0 0.68 0 0 Z " fill="#00BDE9" transform="translate(74,88)"/>
<path d="M0 0 C4.46 0.99 4.46 0.99 9 2 C9 3.65 9 5.3 9 7 C4.05 7 -0.9 7 -6 7 C-6 5.35 -6 3.7 -6 2 C-4.02 2 -2.04 2 0 2 C0 1.34 0 0.68 0 0 Z " fill="#00BDE9" transform="translate(21,68)"/>
<path d="M0 0 C0.99 0.66 1.98 1.32 3 2 C3.19 5.12 3.19 5.12 3 8 C1.02 8 -0.96 8 -3 8 C-3 5.69 -3 3.38 -3 1 C-2.01 0.67 -1.02 0.34 0 0 Z " fill="#E1B549" transform="translate(71,50)"/>
<path d="M0 0 C0.99 0.66 1.98 1.32 3 2 C3.19 5.12 3.19 5.12 3 8 C1.02 8 -0.96 8 -3 8 C-3 5.69 -3 3.38 -3 1 C-2.01 0.67 -1.02 0.34 0 0 Z " fill="#E1B549" transform="translate(18,30)"/>
<path d="M0 0 C1.32 0.66 2.64 1.32 4 2 C4 3.32 4 4.64 4 6 C2.02 6.99 2.02 6.99 0 8 C-0.99 7.34 -1.98 6.68 -3 6 C-2.43 3.13 -2.14 2.14 0 0 Z " fill="#DA656D" transform="translate(98,88)"/>
<path d="M0 0 C1.32 0.66 2.64 1.32 4 2 C4 3.32 4 4.64 4 6 C2.02 6.99 2.02 6.99 0 8 C-0.99 7.34 -1.98 6.68 -3 6 C-2.43 3.13 -2.14 2.14 0 0 Z " fill="#DA656D" transform="translate(45,68)"/>
<path d="M0 0 C1.32 0.66 2.64 1.32 4 2 C4 3.32 4 4.64 4 6 C2.02 6.99 2.02 6.99 0 8 C-0.99 7.01 -1.98 6.02 -3 5 C-1.12 1.12 -1.12 1.12 0 0 Z " fill="#E47278" transform="translate(98,63)"/>
<path d="M0 0 C1.32 0.66 2.64 1.32 4 2 C4 3.32 4 4.64 4 6 C2.02 6.99 2.02 6.99 0 8 C-0.99 7.01 -1.98 6.02 -3 5 C-1.12 1.12 -1.12 1.12 0 0 Z " fill="#8BCB70" transform="translate(78,63)"/>
<path d="M0 0 C1.32 0.66 2.64 1.32 4 2 C4 3.32 4 4.64 4 6 C2.02 6.99 2.02 6.99 0 8 C-0.99 7.01 -1.98 6.02 -3 5 C-1.12 1.12 -1.12 1.12 0 0 Z " fill="#E47278" transform="translate(45,43)"/>
<path d="M0 0 C1.32 0.66 2.64 1.32 4 2 C4 3.32 4 4.64 4 6 C2.02 6.99 2.02 6.99 0 8 C-0.99 7.01 -1.98 6.02 -3 5 C-1.12 1.12 -1.12 1.12 0 0 Z " fill="#8BCB70" transform="translate(25,43)"/>
<path d="M0 0 C2.12 0.38 2.12 0.38 4 1 C4.62 2.88 4.62 2.88 5 5 C4.34 5.66 3.68 6.32 3 7 C0.88 6.62 0.88 6.62 -1 6 C-1.62 4.12 -1.62 4.12 -2 2 C-1.34 1.34 -0.68 0.68 0 0 Z " fill="#0090B2" transform="translate(86,51)"/>
<path d="M0 0 C2.12 0.38 2.12 0.38 4 1 C4.62 2.88 4.62 2.88 5 5 C4.34 5.66 3.68 6.32 3 7 C0.88 6.62 0.88 6.62 -1 6 C-1.62 4.12 -1.62 4.12 -2 2 C-1.34 1.34 -0.68 0.68 0 0 Z " fill="#0090B2" transform="translate(33,31)"/>
<path d="M0 0 C2.12 0.38 2.12 0.38 4 1 C4 2.65 4 4.3 4 6 C2.35 6 0.7 6 -1 6 C-1.62 4.12 -1.62 4.12 -2 2 C-1.34 1.34 -0.68 0.68 0 0 Z " fill="#DFB247" transform="translate(90,76)"/>
<path d="M0 0 C2.12 0.38 2.12 0.38 4 1 C4 2.65 4 4.3 4 6 C2.35 6 0.7 6 -1 6 C-1.62 4.12 -1.62 4.12 -2 2 C-1.34 1.34 -0.68 0.68 0 0 Z " fill="#DFB247" transform="translate(37,56)"/>
<path d="M0 0 C2.05 0.03 4.1 0.07 6.15 0.1 C5.15 2.1 5.15 2.1 4.15 3.1 C2.15 3.14 0.15 3.14 -1.85 3.1 C-1.85 4.75 -1.85 6.4 -1.85 8.1 C-2.18 8.1 -2.51 8.1 -2.85 8.1 C-2.89 5.76 -2.89 3.43 -2.85 1.1 C-1.85 0.1 -1.85 0.1 0 0 Z " fill="#00161A" transform="translate(69.84765625,86.90234375)"/>
<path d="M0 0 C2.05 0.03 4.1 0.07 6.15 0.1 C5.15 2.1 5.15 2.1 4.15 3.1 C2.15 3.14 0.15 3.14 -1.85 3.1 C-1.85 4.75 -1.85 6.4 -1.85 8.1 C-2.18 8.1 -2.51 8.1 -2.85 8.1 C-2.89 5.76 -2.89 3.43 -2.85 1.1 C-1.85 0.1 -1.85 0.1 0 0 Z " fill="#00161A" transform="translate(16.84765625,66.90234375)"/>
<path d="M0 0 C0.99 0.66 1.98 1.32 3 2 C2.34 3.32 1.68 4.64 1 6 C-0.32 6 -1.64 6 -3 6 C-2.5 5.38 -2.01 4.76 -1.5 4.12 C0.19 2.16 0.19 2.16 0 0 Z " fill="#DF5D66" transform="translate(100,64)"/>
<path d="M0 0 C0.99 0.66 1.98 1.32 3 2 C2.34 3.32 1.68 4.64 1 6 C-0.32 6 -1.64 6 -3 6 C-2.5 5.38 -2.01 4.76 -1.5 4.12 C0.19 2.16 0.19 2.16 0 0 Z " fill="#6EB054" transform="translate(80,64)"/>
<path d="M0 0 C0.99 0.33 1.98 0.66 3 1 C2.67 2.32 2.34 3.64 2 5 C1.01 5 0.02 5 -1 5 C-0.67 3.35 -0.34 1.7 0 0 Z " fill="#00B6E4" transform="translate(87,53)"/>
<path d="M0 0 C0.99 0.66 1.98 1.32 3 2 C2.34 3.32 1.68 4.64 1 6 C-0.32 6 -1.64 6 -3 6 C-2.51 5.38 -2.01 4.76 -1.5 4.12 C0.19 2.16 0.19 2.16 0 0 Z " fill="#DF5D66" transform="translate(47,44)"/>
<path d="M0 0 C0.99 0.66 1.98 1.32 3 2 C2.34 3.32 1.68 4.64 1 6 C-0.32 6 -1.64 6 -3 6 C-2.5 5.38 -2.01 4.76 -1.5 4.12 C0.19 2.16 0.19 2.16 0 0 Z " fill="#6EB054" transform="translate(27,44)"/>
<path d="M0 0 C0.99 0.33 1.98 0.66 3 1 C2.67 2.32 2.34 3.64 2 5 C1.01 5 0.02 5 -1 5 C-0.67 3.35 -0.34 1.7 0 0 Z " fill="#00B6E4" transform="translate(34,33)"/>
</svg>
