<?xml version="1.0" encoding="UTF-8"?>
<!-- Generator: visioncortex VTracer 0.6.4 -->
<svg version="1.1" xmlns="http://www.w3.org/2000/svg" width="128" height="128">
<path d="M0 0 C0.99 -0 1.97 -0.01 2.99 -0.01 C6.23 -0.02 9.48 -0.01 12.72 -0.01 C14.98 -0.01 17.25 -0.01 19.51 -0.01 C24.24 -0.02 28.98 -0.01 33.71 -0 C39.78 0.01 45.84 0 51.91 -0.01 C56.58 -0.02 61.25 -0.01 65.92 -0.01 C68.15 -0.01 70.39 -0.01 72.63 -0.01 C75.75 -0.02 78.88 -0.01 82 0 C82.93 -0 83.85 -0.01 84.8 -0.01 C92.15 0.04 97.36 1.14 102.94 6.26 C105.34 9.86 105.24 12.5 105.24 16.66 C105.25 17.42 105.26 18.17 105.27 18.94 C105.29 21.43 105.3 23.92 105.31 26.4 C105.32 28.13 105.33 29.86 105.34 31.59 C105.35 35.22 105.36 38.85 105.36 42.48 C105.37 47.12 105.41 51.77 105.45 56.41 C105.48 59.99 105.49 63.56 105.49 67.14 C105.49 68.85 105.51 70.56 105.53 72.27 C105.55 74.67 105.55 77.07 105.54 79.47 C105.56 80.52 105.56 80.52 105.58 81.6 C105.52 85.94 104.56 88.82 101.52 92 C95.7 96.63 88.92 96.69 81.79 96.65 C80.81 96.65 79.83 96.66 78.81 96.66 C75.58 96.68 72.35 96.67 69.12 96.66 C66.87 96.66 64.61 96.66 62.36 96.67 C57.64 96.67 52.91 96.66 48.19 96.65 C42.16 96.63 36.12 96.64 30.08 96.66 C25.42 96.67 20.76 96.67 16.11 96.66 C13.88 96.66 11.65 96.66 9.43 96.67 C6.31 96.68 3.2 96.66 0.08 96.65 C-0.83 96.65 -1.74 96.66 -2.68 96.67 C-8.93 96.6 -14.62 96.01 -19.64 92 C-23.27 88.2 -23.79 84.53 -23.73 79.53 C-23.74 78.78 -23.75 78.03 -23.76 77.25 C-23.78 74.79 -23.77 72.32 -23.76 69.86 C-23.77 68.13 -23.78 66.41 -23.78 64.69 C-23.8 61.08 -23.79 57.47 -23.77 53.87 C-23.75 49.25 -23.77 44.64 -23.81 40.03 C-23.84 36.47 -23.84 32.92 -23.83 29.36 C-23.83 27.66 -23.83 25.96 -23.85 24.26 C-23.98 9.35 -23.98 9.35 -20.45 4.79 C-15.14 -0.52 -6.95 -0.03 0 0 Z M-13.06 12.26 C-14.48 15.1 -14.2 17.5 -14.21 20.68 C-14.21 21.34 -14.21 22 -14.22 22.68 C-14.23 24.86 -14.23 27.04 -14.23 29.22 C-14.23 30.74 -14.24 32.25 -14.24 33.77 C-14.25 36.94 -14.25 40.12 -14.25 43.3 C-14.25 47.37 -14.26 51.44 -14.28 55.52 C-14.29 58.65 -14.29 61.77 -14.29 64.9 C-14.29 66.41 -14.3 67.91 -14.3 69.41 C-14.31 71.51 -14.31 73.61 -14.31 75.71 C-14.31 76.9 -14.31 78.1 -14.31 79.33 C-14.28 82.45 -14.28 82.45 -12.06 85.26 C-9.34 86.25 -6.78 86.39 -3.89 86.39 C-3.07 86.4 -2.25 86.4 -1.4 86.41 C-0.51 86.4 0.39 86.4 1.31 86.4 C2.73 86.41 2.73 86.41 4.18 86.41 C7.32 86.42 10.45 86.43 13.59 86.43 C15.77 86.43 17.95 86.43 20.13 86.44 C24.7 86.44 29.27 86.44 33.83 86.44 C39.69 86.44 45.55 86.46 51.4 86.47 C55.9 86.49 60.4 86.49 64.9 86.49 C67.06 86.49 69.22 86.49 71.38 86.5 C74.4 86.51 77.42 86.51 80.44 86.5 C81.78 86.51 81.78 86.51 83.14 86.52 C87.47 86.5 91.06 86.44 94.94 84.26 C96.36 81.42 96.08 79.01 96.1 75.84 C96.1 75.18 96.11 74.52 96.11 73.84 C96.13 71.66 96.13 69.48 96.14 67.29 C96.15 65.78 96.15 64.26 96.16 62.75 C96.17 59.57 96.17 56.4 96.18 53.22 C96.18 49.15 96.21 45.07 96.24 41 C96.25 37.87 96.26 34.74 96.26 31.61 C96.26 30.11 96.27 28.61 96.29 27.11 C96.3 25.01 96.3 22.91 96.29 20.81 C96.3 19.61 96.3 18.42 96.3 17.19 C96.15 14.31 96.15 14.31 94.79 12.38 C92.14 10.78 90.07 10.86 86.99 10.83 C85.75 10.81 84.52 10.79 83.25 10.77 C81.9 10.76 80.54 10.75 79.18 10.75 C77.78 10.73 76.37 10.71 74.96 10.69 C71.21 10.64 67.45 10.61 63.7 10.59 C59.84 10.56 55.99 10.52 52.13 10.47 C45.39 10.4 38.65 10.35 31.91 10.3 C26.85 10.27 21.78 10.22 16.71 10.16 C13.52 10.13 10.33 10.1 7.14 10.08 C5.12 10.07 3.09 10.05 1.07 10.03 C-0.11 10.03 -1.28 10.03 -2.49 10.03 C-3.46 10.02 -4.44 10.02 -5.44 10.02 C-8.33 10.28 -10.47 10.96 -13.06 12.26 Z " fill="#2391FF" transform="translate(23.062744140625,15.7412109375)"/>
<path d="M0 0 C2.31 0 4.62 0 7 0 C7 1.32 7 2.64 7 4 C10.2 4.09 12.93 3.91 16 3 C19.59 6.76 19.59 6.76 21 9 C20.75 11.63 20.75 11.63 20 14 C20.37 16.23 20.37 16.23 21 18 C22.32 18 23.64 18 25 18 C25 21.3 25 24.6 25 28 C23.68 28 22.36 28 21 28 C20.05 31.49 20.05 31.49 20.75 34.94 C21 37 21 37 19.12 40.31 C17.27 42.41 16.48 42.97 13.66 43.16 C11.39 42.9 9.22 42.53 7 42 C7 43.32 7 44.64 7 46 C4.69 46 2.38 46 0 46 C0 45.01 0 44.02 0 43 C-1.03 42.92 -2.06 42.84 -3.12 42.75 C-8.47 41.72 -11.54 39.54 -15.25 35.62 C-18.69 30.46 -19.9 25.16 -19 19 C-16.81 11.57 -13.4 7.8 -6.94 3.69 C-4.55 2.84 -2.52 2.86 0 3 C0 2.01 0 1.02 0 0 Z M-8 13 C-8.12 13.57 -8.24 14.13 -8.37 14.71 C-8.53 15.45 -8.7 16.18 -8.88 16.94 C-9.04 17.67 -9.2 18.4 -9.37 19.15 C-10 21 -10 21 -12 22 C-12 22.66 -12 23.32 -12 24 C-11.01 24.5 -11.01 24.5 -10 25 C-9.37 26.85 -9.37 26.85 -8.88 29.06 C-8.71 29.8 -8.54 30.53 -8.37 31.29 C-8.25 31.85 -8.12 32.42 -8 33 C-5.36 33.33 -2.72 33.66 0 34 C0 32.68 0 31.36 0 30 C0.99 30 1.98 30 3 30 C3.33 31.32 3.66 32.64 4 34 C7.51 32.1 9.9 30.43 12 27 C12 26.34 12 25.68 12 25 C11.01 25 10.02 25 9 25 C9 23.68 9 22.36 9 21 C9.99 21 10.98 21 12 21 C10.83 17.66 9.85 15.19 7 13 C5.68 12.67 4.36 12.34 3 12 C3 16.29 3 20.58 3 25 C0.69 25 -1.62 25 -4 25 C-4 23.68 -4 22.36 -4 21 C-2.68 21 -1.36 21 0 21 C0 18.03 0 15.06 0 12 C-2.73 12 -5.32 12.53 -8 13 Z " fill="#0E0A04" transform="translate(86,51)"/>
<path d="M0 0 C2.31 0 4.62 0 7 0 C7 1.32 7 2.64 7 4 C10.2 4.09 12.93 3.91 16 3 C19.59 6.76 19.59 6.76 21 9 C20.75 11.63 20.75 11.63 20 14 C20.37 16.23 20.37 16.23 21 18 C22.32 18 23.64 18 25 18 C25 21.3 25 24.6 25 28 C23.68 28 22.36 28 21 28 C20.05 31.49 20.05 31.49 20.75 34.94 C21 37 21 37 19.12 40.31 C17.27 42.41 16.48 42.97 13.66 43.16 C11.39 42.9 9.22 42.53 7 42 C7 43.32 7 44.64 7 46 C4.69 46 2.38 46 0 46 C0 45.01 0 44.02 0 43 C-1.03 42.92 -2.06 42.84 -3.12 42.75 C-8.47 41.72 -11.54 39.54 -15.25 35.62 C-18.69 30.46 -19.9 25.16 -19 19 C-16.81 11.57 -13.4 7.8 -6.94 3.69 C-4.55 2.84 -2.52 2.86 0 3 C0 2.01 0 1.02 0 0 Z M-8 13 C-8.12 13.57 -8.24 14.13 -8.37 14.71 C-8.53 15.45 -8.7 16.18 -8.88 16.94 C-9.04 17.67 -9.2 18.4 -9.37 19.15 C-10 21 -10 21 -12 22 C-12 22.66 -12 23.32 -12 24 C-11.01 24.5 -11.01 24.5 -10 25 C-9.37 26.85 -9.37 26.85 -8.88 29.06 C-8.71 29.8 -8.54 30.53 -8.37 31.29 C-8.25 31.85 -8.12 32.42 -8 33 C-5.36 33.33 -2.72 33.66 0 34 C0 32.68 0 31.36 0 30 C0.99 30 1.98 30 3 30 C3.33 31.32 3.66 32.64 4 34 C7.51 32.1 9.9 30.43 12 27 C12 26.34 12 25.68 12 25 C11.01 25 10.02 25 9 25 C9 23.68 9 22.36 9 21 C9.99 21 10.98 21 12 21 C10.83 17.66 9.85 15.19 7 13 C5.68 12.67 4.36 12.34 3 12 C3 16.29 3 20.58 3 25 C0.69 25 -1.62 25 -4 25 C-4 23.68 -4 22.36 -4 21 C-2.68 21 -1.36 21 0 21 C0 18.03 0 15.06 0 12 C-2.73 12 -5.32 12.53 -8 13 Z " fill="#0E0A04" transform="translate(33,31)"/>
<path d="M0 0 C2.31 0 4.62 0 7 0 C7 1.32 7 2.64 7 4 C10.2 4.09 12.93 3.91 16 3 C19.59 6.76 19.59 6.76 21 9 C20.75 11.62 20.75 11.62 20 14 C20.37 16.23 20.37 16.23 21 18 C22.32 18 23.64 18 25 18 C25 21.3 25 24.6 25 28 C23.68 28 22.36 28 21 28 C20.05 31.49 20.05 31.49 20.75 34.94 C21 37 21 37 19.12 40.31 C17.31 42.34 16.47 42.95 13.73 43.23 C7.65 42.65 7.65 42.65 5 40 C8.51 38.4 11.14 37.78 15 38 C15.12 37.46 15.25 36.93 15.38 36.38 C16.31 32.81 17.35 29.3 19 26 C19.99 26 20.98 26 22 26 C22 24.02 22 22.04 22 20 C21.01 20 20.02 20 19 20 C17.38 17.31 17.38 17.31 16 14 C16.91 11.29 16.91 11.29 18 9 C17.24 8.87 16.48 8.73 15.7 8.6 C14.71 8.42 13.71 8.24 12.69 8.06 C11.7 7.89 10.72 7.71 9.7 7.54 C7 7 7 7 4 6 C4 4.68 4 3.36 4 2 C3.34 2 2.68 2 2 2 C2 4.64 2 7.28 2 10 C3.32 10.33 4.64 10.66 6 11 C5.01 11.5 5.01 11.5 4 12 C4 16.29 4 20.58 4 25 C0.3 25.93 -0.63 26.08 -4 25 C-4 23.68 -4 22.36 -4 21 C-2.68 21 -1.36 21 0 21 C0 18.03 0 15.06 0 12 C-1.98 12.99 -1.98 12.99 -4 14 C-6.25 13.62 -6.25 13.62 -8 13 C-6.68 12.67 -5.36 12.34 -4 12 C-4 11.34 -4 10.68 -4 10 C-3.34 10 -2.68 10 -2 10 C-2 8.35 -2 6.7 -2 5 C-2.99 4.67 -3.98 4.34 -5 4 C-3.35 3.67 -1.7 3.34 0 3 C0 2.01 0 1.02 0 0 Z " fill="#121415" transform="translate(86,51)"/>
<path d="M0 0 C2.31 0 4.62 0 7 0 C7 1.32 7 2.64 7 4 C10.2 4.09 12.93 3.91 16 3 C19.59 6.76 19.59 6.76 21 9 C20.75 11.62 20.75 11.62 20 14 C20.37 16.23 20.37 16.23 21 18 C22.32 18 23.64 18 25 18 C25 21.3 25 24.6 25 28 C23.68 28 22.36 28 21 28 C20.05 31.49 20.05 31.49 20.75 34.94 C21 37 21 37 19.12 40.31 C17.31 42.34 16.47 42.95 13.73 43.23 C7.65 42.65 7.65 42.65 5 40 C8.51 38.4 11.14 37.78 15 38 C15.12 37.46 15.25 36.93 15.38 36.38 C16.31 32.81 17.35 29.3 19 26 C19.99 26 20.98 26 22 26 C22 24.02 22 22.04 22 20 C21.01 20 20.02 20 19 20 C17.38 17.31 17.38 17.31 16 14 C16.91 11.29 16.91 11.29 18 9 C17.24 8.87 16.48 8.73 15.7 8.6 C14.71 8.42 13.71 8.24 12.69 8.06 C11.7 7.89 10.72 7.71 9.7 7.54 C7 7 7 7 4 6 C4 4.68 4 3.36 4 2 C3.34 2 2.68 2 2 2 C2 4.64 2 7.28 2 10 C3.32 10.33 4.64 10.66 6 11 C5.01 11.5 5.01 11.5 4 12 C4 16.29 4 20.58 4 25 C0.3 25.93 -0.63 26.08 -4 25 C-4 23.68 -4 22.36 -4 21 C-2.68 21 -1.36 21 0 21 C0 18.03 0 15.06 0 12 C-1.98 12.99 -1.98 12.99 -4 14 C-6.25 13.62 -6.25 13.62 -8 13 C-6.68 12.67 -5.36 12.34 -4 12 C-4 11.34 -4 10.68 -4 10 C-3.34 10 -2.68 10 -2 10 C-2 8.35 -2 6.7 -2 5 C-2.99 4.67 -3.98 4.34 -5 4 C-3.35 3.67 -1.7 3.34 0 3 C0 2.01 0 1.02 0 0 Z " fill="#121415" transform="translate(33,31)"/>
<path d="M0 0 C0.66 0 1.32 0 2 0 C2 1.32 2 2.64 2 4 C2.76 4.05 3.52 4.1 4.3 4.15 C5.29 4.22 6.29 4.3 7.31 4.38 C8.79 4.48 8.79 4.48 10.3 4.59 C13 5 13 5 16 7 C15.79 7.76 15.59 8.53 15.38 9.31 C14.67 12.22 14.67 12.22 17 15 C17 15.99 17 16.98 17 18 C17.99 18 18.98 18 20 18 C20 19.98 20 21.96 20 24 C19.01 24 18.02 24 17 24 C16.69 25.24 16.38 26.47 16.06 27.75 C15.71 29.17 15.35 30.58 15 32 C14.87 32.73 14.75 33.45 14.62 34.2 C14.42 34.8 14.21 35.39 14 36 C11 37 11 37 7.94 37.5 C5.08 37.84 5.08 37.84 3 39 C2.67 39.99 2.34 40.98 2 42 C1.34 42 0.68 42 0 42 C0 39.36 0 36.72 0 34 C0.54 33.83 1.09 33.66 1.64 33.48 C7.33 31.59 7.33 31.59 11 27 C12.24 23.28 12.52 19.87 12 16 C9.21 10.77 5.38 9.7 0 8 C0 5.36 0 2.72 0 0 Z " fill="#C3D5E4" transform="translate(88,53)"/>
<path d="M0 0 C0.66 0 1.32 0 2 0 C2 1.32 2 2.64 2 4 C2.76 4.05 3.52 4.1 4.3 4.15 C5.29 4.22 6.29 4.3 7.31 4.38 C8.79 4.48 8.79 4.48 10.3 4.59 C13 5 13 5 16 7 C15.79 7.76 15.59 8.53 15.38 9.31 C14.67 12.22 14.67 12.22 17 15 C17 15.99 17 16.98 17 18 C17.99 18 18.98 18 20 18 C20 19.98 20 21.96 20 24 C19.01 24 18.02 24 17 24 C16.69 25.24 16.38 26.48 16.06 27.75 C15.71 29.17 15.35 30.58 15 32 C14.87 32.73 14.75 33.45 14.62 34.2 C14.42 34.8 14.21 35.39 14 36 C11 37 11 37 7.94 37.5 C5.08 37.84 5.08 37.84 3 39 C2.67 39.99 2.34 40.98 2 42 C1.34 42 0.68 42 0 42 C0 39.36 0 36.72 0 34 C0.54 33.83 1.09 33.66 1.64 33.48 C7.33 31.59 7.33 31.59 11 27 C12.24 23.28 12.52 19.87 12 16 C9.21 10.77 5.38 9.7 0 8 C0 5.36 0 2.72 0 0 Z " fill="#C3D5E4" transform="translate(35,33)"/>
<path d="M0 0 C2.31 0 4.62 0 7 0 C7.33 1.65 7.66 3.3 8 5 C7.01 5 6.02 5 5 5 C5 4.01 5 3.02 5 2 C4.01 2 3.02 2 2 2 C2 4.64 2 7.28 2 10 C3.32 10.33 4.64 10.66 6 11 C5.01 11.5 5.01 11.5 4 12 C4 16.29 4 20.58 4 25 C0.3 25.93 -0.63 26.08 -4 25 C-4 23.68 -4 22.36 -4 21 C-2.68 21 -1.36 21 0 21 C0 18.03 0 15.06 0 12 C-1.98 12.99 -1.98 12.99 -4 14 C-6.25 13.62 -6.25 13.62 -8 13 C-6.68 12.67 -5.36 12.34 -4 12 C-4 11.34 -4 10.68 -4 10 C-3.34 10 -2.68 10 -2 10 C-2 8.35 -2 6.7 -2 5 C-2.99 4.67 -3.98 4.34 -5 4 C-3.35 3.67 -1.7 3.34 0 3 C0 2.01 0 1.02 0 0 Z " fill="#040302" transform="translate(86,51)"/>
<path d="M0 0 C2.31 0 4.62 0 7 0 C7.33 1.65 7.66 3.3 8 5 C7.01 5 6.02 5 5 5 C5 4.01 5 3.02 5 2 C4.01 2 3.02 2 2 2 C2 4.64 2 7.28 2 10 C3.32 10.33 4.64 10.66 6 11 C5.01 11.5 5.01 11.5 4 12 C4 16.29 4 20.58 4 25 C0.3 25.93 -0.63 26.08 -4 25 C-4 23.68 -4 22.36 -4 21 C-2.68 21 -1.36 21 0 21 C0 18.03 0 15.06 0 12 C-1.98 12.99 -1.98 12.99 -4 14 C-6.25 13.62 -6.25 13.62 -8 13 C-6.68 12.67 -5.36 12.34 -4 12 C-4 11.34 -4 10.68 -4 10 C-3.34 10 -2.68 10 -2 10 C-2 8.35 -2 6.7 -2 5 C-2.99 4.67 -3.98 4.34 -5 4 C-3.35 3.67 -1.7 3.34 0 3 C0 2.01 0 1.02 0 0 Z " fill="#040302" transform="translate(33,31)"/>
<path d="M0 0 C0 1.32 0 2.64 0 4 C-2.64 4.66 -5.28 5.32 -8 6 C-8.66 8.64 -9.32 11.28 -10 14 C-10.66 14 -11.32 14 -12 14 C-12 15.98 -12 17.96 -12 20 C-11.01 20.33 -10.02 20.66 -9 21 C-8.27 22.85 -8.27 22.85 -7.81 25.06 C-7.65 25.8 -7.5 26.53 -7.33 27.29 C-7.17 28.13 -7.17 28.13 -7 29 C-4.69 29.33 -2.38 29.66 0 30 C0 31.32 0 32.64 0 34 C-4.93 33.56 -7.48 31.37 -11 28 C-14.9 22.57 -14.78 17.48 -14 11 C-11.24 5.16 -6.68 0 0 0 Z " fill="#C58A1F" transform="translate(84,57)"/>
<path d="M0 0 C0 1.32 0 2.64 0 4 C-2.64 4.66 -5.28 5.32 -8 6 C-8.66 8.64 -9.32 11.28 -10 14 C-10.66 14 -11.32 14 -12 14 C-12 15.98 -12 17.96 -12 20 C-11.01 20.33 -10.02 20.66 -9 21 C-8.27 22.85 -8.27 22.85 -7.81 25.06 C-7.65 25.8 -7.5 26.53 -7.33 27.29 C-7.17 28.13 -7.17 28.13 -7 29 C-4.69 29.33 -2.38 29.66 0 30 C0 31.32 0 32.64 0 34 C-4.93 33.56 -7.48 31.37 -11 28 C-14.9 22.57 -14.78 17.48 -14 11 C-11.24 5.16 -6.68 0 0 0 Z " fill="#C58A1F" transform="translate(31,37)"/>
<path d="M0 0 C4.12 0.19 5.75 0.78 8.88 3.56 C11.73 7.36 11.53 10.37 11 15 C10.01 16.48 10.01 16.48 9 18 C8.67 16.68 8.34 15.36 8 14 C7.01 14 6.02 14 5 14 C5 12.68 5 11.36 5 10 C5.99 10 6.98 10 8 10 C4.97 4.89 4.97 4.89 0 2 C0 1.34 0 0.68 0 0 Z " fill="#0F1112" transform="translate(90,62)"/>
<path d="M0 0 C4.12 0.19 5.75 0.78 8.88 3.56 C11.73 7.36 11.53 10.37 11 15 C10.01 16.48 10.01 16.48 9 18 C8.67 16.68 8.34 15.36 8 14 C7.01 14 6.02 14 5 14 C5 12.68 5 11.36 5 10 C5.99 10 6.98 10 8 10 C4.97 4.89 4.97 4.89 0 2 C0 1.34 0 0.68 0 0 Z " fill="#0F1112" transform="translate(37,42)"/>
<path d="M0 0 C1.32 0 2.64 0 4 0 C4.66 2.64 5.32 5.28 6 8 C8.31 8.33 10.62 8.66 13 9 C13 10.32 13 11.64 13 13 C8.08 12.57 5.51 10.36 2 7 C0.24 4.29 0 3.29 0 0 Z " fill="#CC8F20" transform="translate(71,78)"/>
<path d="M0 0 C1.32 0 2.64 0 4 0 C4.66 2.64 5.32 5.28 6 8 C8.31 8.33 10.62 8.66 13 9 C13 10.32 13 11.64 13 13 C8.08 12.57 5.51 10.36 2 7 C0.24 4.29 0 3.29 0 0 Z " fill="#CC8F20" transform="translate(18,58)"/>
<path d="M0 0 C0.99 0 1.98 0 3 0 C3 3.3 3 6.6 3 10 C1.68 10 0.36 10 -1 10 C-0.67 6.7 -0.34 3.4 0 0 Z " fill="#0C0D0F" transform="translate(108,69)"/>
<path d="M0 0 C0.99 0 1.98 0 3 0 C3 3.3 3 6.6 3 10 C1.68 10 0.36 10 -1 10 C-0.67 6.7 -0.34 3.4 0 0 Z " fill="#0C0D0F" transform="translate(55,49)"/>
<path d="M0 0 C1.32 0 2.64 0 4 0 C4 1.32 4 2.64 4 4 C2.35 4.33 0.7 4.66 -1 5 C-1.33 4.01 -1.66 3.02 -2 2 C-1.34 1.34 -0.68 0.68 0 0 Z " fill="#D79722" transform="translate(80,57)"/>
<path d="M0 0 C1.32 0 2.64 0 4 0 C4 1.32 4 2.64 4 4 C2.35 4.33 0.7 4.66 -1 5 C-1.33 4.01 -1.66 3.02 -2 2 C-1.34 1.34 -0.68 0.68 0 0 Z " fill="#D79722" transform="translate(27,37)"/>
<path d="M0 0 C0.66 0 1.32 0 2 0 C1.75 2.88 1.75 2.88 1 6 C-1.06 7.38 -1.06 7.38 -3 8 C-1.12 2.25 -1.12 2.25 0 0 Z " fill="#191B1D" transform="translate(105,77)"/>
<path d="M0 0 C0.66 0 1.32 0 2 0 C1.75 2.88 1.75 2.88 1 6 C-1.06 7.38 -1.06 7.38 -3 8 C-1.12 2.25 -1.12 2.25 0 0 Z " fill="#191B1D" transform="translate(52,57)"/>
<path d="M0 0 C1.32 0 2.64 0 4 0 C3.67 1.98 3.34 3.96 3 6 C1.5 4.69 1.5 4.69 0 3 C0 2.01 0 1.02 0 0 Z " fill="#EAA425" transform="translate(71,78)"/>
<path d="M0 0 C1.32 0 2.64 0 4 0 C3.67 1.98 3.34 3.96 3 6 C1.5 4.69 1.5 4.69 0 3 C0 2.01 0 1.02 0 0 Z " fill="#EAA425" transform="translate(18,58)"/>
<path d="M0 0 C0.99 0 1.98 0 3 0 C3 1.32 3 2.64 3 4 C1.68 3.67 0.36 3.34 -1 3 C-0.67 2.01 -0.34 1.02 0 0 Z " fill="#000000" transform="translate(77,72)"/>
<path d="M0 0 C0.99 0 1.98 0 3 0 C3 1.32 3 2.64 3 4 C1.68 3.67 0.36 3.34 -1 3 C-0.67 2.01 -0.34 1.02 0 0 Z " fill="#000000" transform="translate(24,52)"/>
</svg>
