<?xml version="1.0" encoding="UTF-8"?>
<!-- Generator: visioncortex VTracer 0.6.4 -->
<svg version="1.1" xmlns="http://www.w3.org/2000/svg" width="128" height="128">
<path d="M0 0 C0.99 -0 1.97 -0.01 2.99 -0.01 C6.23 -0.02 9.48 -0.01 12.72 -0.01 C14.98 -0.01 17.25 -0.01 19.51 -0.01 C24.24 -0.02 28.98 -0.01 33.71 -0 C39.78 0.01 45.84 0 51.91 -0.01 C56.58 -0.02 61.25 -0.01 65.92 -0.01 C68.15 -0.01 70.39 -0.01 72.63 -0.01 C75.75 -0.02 78.88 -0.01 82 0 C82.93 -0 83.85 -0.01 84.8 -0.01 C92.15 0.04 97.36 1.14 102.94 6.26 C105.34 9.86 105.24 12.5 105.24 16.66 C105.25 17.42 105.26 18.17 105.27 18.94 C105.29 21.43 105.3 23.92 105.31 26.4 C105.32 28.13 105.33 29.86 105.34 31.59 C105.35 35.22 105.36 38.85 105.36 42.48 C105.37 47.12 105.41 51.77 105.45 56.41 C105.48 59.99 105.49 63.56 105.49 67.14 C105.49 68.85 105.51 70.56 105.53 72.27 C105.55 74.67 105.55 77.07 105.54 79.47 C105.56 80.52 105.56 80.52 105.58 81.6 C105.52 85.94 104.56 88.82 101.52 92 C95.7 96.63 88.92 96.69 81.79 96.65 C80.81 96.65 79.83 96.66 78.81 96.66 C75.58 96.68 72.35 96.67 69.12 96.66 C66.87 96.66 64.61 96.66 62.36 96.67 C57.64 96.67 52.91 96.66 48.19 96.65 C42.16 96.63 36.12 96.64 30.08 96.66 C25.42 96.67 20.76 96.67 16.11 96.66 C13.88 96.66 11.65 96.66 9.43 96.67 C6.31 96.68 3.2 96.66 0.08 96.65 C-0.83 96.65 -1.74 96.66 -2.68 96.67 C-8.93 96.6 -14.62 96.01 -19.64 92 C-23.27 88.2 -23.79 84.53 -23.73 79.53 C-23.74 78.78 -23.75 78.03 -23.76 77.25 C-23.78 74.79 -23.77 72.32 -23.76 69.86 C-23.77 68.13 -23.78 66.41 -23.78 64.69 C-23.8 61.08 -23.79 57.47 -23.77 53.87 C-23.75 49.25 -23.77 44.64 -23.81 40.03 C-23.84 36.47 -23.84 32.92 -23.83 29.36 C-23.83 27.66 -23.83 25.96 -23.85 24.26 C-23.98 9.35 -23.98 9.35 -20.45 4.79 C-15.14 -0.52 -6.95 -0.03 0 0 Z M-13.06 12.26 C-14.48 15.1 -14.2 17.5 -14.21 20.68 C-14.21 21.34 -14.21 22 -14.22 22.68 C-14.23 24.86 -14.23 27.04 -14.23 29.22 C-14.23 30.74 -14.24 32.25 -14.24 33.77 C-14.25 36.94 -14.25 40.12 -14.25 43.3 C-14.25 47.37 -14.26 51.44 -14.28 55.52 C-14.29 58.65 -14.29 61.77 -14.29 64.9 C-14.29 66.41 -14.3 67.91 -14.3 69.41 C-14.31 71.51 -14.31 73.61 -14.31 75.71 C-14.31 76.9 -14.31 78.1 -14.31 79.33 C-14.28 82.45 -14.28 82.45 -12.06 85.26 C-9.34 86.25 -6.78 86.39 -3.89 86.39 C-3.07 86.4 -2.25 86.4 -1.4 86.41 C-0.51 86.4 0.39 86.4 1.31 86.4 C2.73 86.41 2.73 86.41 4.18 86.41 C7.32 86.42 10.45 86.43 13.59 86.43 C15.77 86.43 17.95 86.43 20.13 86.44 C24.7 86.44 29.27 86.44 33.83 86.44 C39.69 86.44 45.55 86.46 51.4 86.47 C55.9 86.49 60.4 86.49 64.9 86.49 C67.06 86.49 69.22 86.49 71.38 86.5 C74.4 86.51 77.42 86.51 80.44 86.5 C81.78 86.51 81.78 86.51 83.14 86.52 C87.47 86.5 91.06 86.44 94.94 84.26 C96.36 81.42 96.08 79.01 96.1 75.84 C96.1 75.18 96.11 74.52 96.11 73.84 C96.13 71.66 96.13 69.48 96.14 67.29 C96.15 65.78 96.15 64.26 96.16 62.75 C96.17 59.57 96.17 56.4 96.18 53.22 C96.18 49.15 96.21 45.07 96.24 41 C96.25 37.87 96.26 34.74 96.26 31.61 C96.26 30.11 96.27 28.61 96.29 27.11 C96.3 25.01 96.3 22.91 96.29 20.81 C96.3 19.61 96.3 18.42 96.3 17.19 C96.15 14.31 96.15 14.31 94.79 12.38 C92.14 10.78 90.07 10.86 86.99 10.83 C85.75 10.81 84.52 10.79 83.25 10.77 C81.9 10.76 80.54 10.75 79.18 10.75 C77.78 10.73 76.37 10.71 74.96 10.69 C71.21 10.64 67.45 10.61 63.7 10.59 C59.84 10.56 55.99 10.52 52.13 10.47 C45.39 10.4 38.65 10.35 31.91 10.3 C26.85 10.27 21.78 10.22 16.71 10.16 C13.52 10.13 10.33 10.1 7.14 10.08 C5.12 10.07 3.09 10.05 1.07 10.03 C-0.11 10.03 -1.28 10.03 -2.49 10.03 C-3.46 10.02 -4.44 10.02 -5.44 10.02 C-8.33 10.28 -10.47 10.96 -13.06 12.26 Z " fill="#2391FF" transform="translate(23.062744140625,15.7412109375)"/>
<path d="M0 0 C1.58 0.01 3.16 0.02 4.75 0.04 C5.55 0.04 6.36 0.04 7.19 0.05 C9.19 0.06 11.19 0.08 13.18 0.1 C14.72 3.17 14.57 6.39 14.8 9.79 C14.98 12.29 14.98 12.29 17.18 14.1 C17.41 16.8 17.41 16.8 17.38 20.2 C17.37 21.41 17.37 22.62 17.36 23.87 C17.34 25.14 17.33 26.41 17.31 27.72 C17.3 29 17.29 30.28 17.28 31.6 C17.26 34.76 17.22 37.93 17.18 41.1 C17.84 41.1 18.5 41.1 19.18 41.1 C19.23 43.1 19.22 45.1 19.18 47.1 C17.61 48.67 16.05 48.22 13.86 48.23 C12.95 48.23 12.03 48.23 11.08 48.24 C10.08 48.23 9.09 48.23 8.06 48.23 C7.04 48.23 6.02 48.23 4.98 48.23 C2.82 48.23 0.67 48.23 -1.49 48.23 C-4.8 48.22 -8.11 48.23 -11.43 48.23 C-13.51 48.23 -15.6 48.23 -17.69 48.23 C-19.19 48.23 -19.19 48.23 -20.72 48.24 C-21.63 48.23 -22.55 48.23 -23.5 48.23 C-24.31 48.23 -25.12 48.23 -25.96 48.22 C-27.82 48.1 -27.82 48.1 -28.82 47.1 C-28.86 45.1 -28.86 43.1 -28.82 41.1 C-28.16 41.1 -27.5 41.1 -26.82 41.1 C-26.83 39.89 -26.83 39.89 -26.85 38.65 C-26.89 35.01 -26.92 31.37 -26.94 27.72 C-26.96 26.45 -26.97 25.18 -26.99 23.87 C-27 22.66 -27.01 21.45 -27.01 20.2 C-27.03 18.52 -27.03 18.52 -27.04 16.8 C-26.82 14.1 -26.82 14.1 -24.82 12.1 C-23.5 12.1 -22.18 12.1 -20.82 12.1 C-20.69 11.15 -20.57 10.2 -20.44 9.22 C-19.82 6.1 -19.82 6.1 -17.82 4.1 C-14.32 3.85 -14.32 3.85 -10.82 4.1 C-8.82 6.1 -8.82 6.1 -8.69 9.22 C-8.73 10.17 -8.77 11.12 -8.82 12.1 C-7.5 12.1 -6.18 12.1 -4.82 12.1 C-4.83 11.32 -4.84 10.53 -4.85 9.73 C-4.86 8.71 -4.87 7.7 -4.88 6.66 C-4.89 5.65 -4.9 4.64 -4.91 3.6 C-4.76 -0.46 -4.26 0.11 0 0 Z M9.18 4.1 C9.18 4.76 9.18 5.42 9.18 6.1 C5.88 5.77 2.58 5.44 -0.82 5.1 C-0.82 6.75 -0.82 8.4 -0.82 10.1 C-0.16 9.77 0.5 9.44 1.18 9.1 C2.72 9.03 4.27 9.01 5.81 9.04 C7.03 9.05 7.03 9.05 8.29 9.06 C9.22 9.08 9.22 9.08 10.18 9.1 C10.18 7.45 10.18 5.8 10.18 4.1 C9.85 4.1 9.52 4.1 9.18 4.1 Z M-6.82 16.1 C-6.69 17.95 -6.69 17.95 -6.57 19.85 C-6.58 22.9 -6.71 23.93 -8.38 26.6 C-11.78 28.69 -13.89 28.65 -17.82 28.1 C-20.75 26.1 -20.75 26.1 -22.82 24.1 C-22.82 26.41 -22.82 28.72 -22.82 31.1 C-18.2 30.77 -13.58 30.44 -8.82 30.1 C-9.15 33.4 -9.48 36.7 -9.82 40.1 C-9.16 40.1 -8.5 40.1 -7.82 40.1 C-7.82 36.8 -7.82 33.5 -7.82 30.1 C-6.17 30.1 -4.52 30.1 -2.82 30.1 C-3.48 29.77 -4.14 29.44 -4.82 29.1 C-4.82 24.81 -4.82 20.52 -4.82 16.1 C-5.48 16.1 -6.14 16.1 -6.82 16.1 Z M-23.82 17.1 C-22.82 19.1 -22.82 19.1 -22.82 19.1 Z M-0.82 21.1 C-0.82 22.75 -0.82 24.4 -0.82 26.1 C0.17 26.1 1.16 26.1 2.18 26.1 C2.18 25.11 2.18 24.12 2.18 23.1 C3.83 23.1 5.48 23.1 7.18 23.1 C7.18 24.09 7.18 25.08 7.18 26.1 C8.17 26.1 9.16 26.1 10.18 26.1 C10.18 24.78 10.18 23.46 10.18 22.1 C6.55 21.77 2.92 21.44 -0.82 21.1 Z M-23.82 22.1 C-22.82 24.1 -22.82 24.1 -22.82 24.1 Z M12.18 29.1 C13.18 31.1 13.18 31.1 13.18 31.1 Z M-1.82 30.1 C-1.82 33.4 -1.82 36.7 -1.82 40.1 C-1.16 39.77 -0.5 39.44 0.18 39.1 C0.18 36.13 0.18 33.16 0.18 30.1 C-0.48 30.1 -1.14 30.1 -1.82 30.1 Z M-23.82 31.1 C-22.82 33.1 -22.82 33.1 -22.82 33.1 Z M-23.82 34.1 C-22.82 36.1 -22.82 36.1 -22.82 36.1 Z M-23.82 37.1 C-22.82 39.1 -22.82 39.1 -22.82 39.1 Z " fill="#101F2D" transform="translate(93.81640625,49.90234375)"/>
<path d="M0 0 C1.58 0.01 3.16 0.02 4.75 0.04 C5.55 0.04 6.36 0.04 7.19 0.05 C9.19 0.06 11.19 0.08 13.18 0.1 C14.72 3.17 14.57 6.39 14.8 9.79 C14.98 12.29 14.98 12.29 17.18 14.1 C17.41 16.8 17.41 16.8 17.38 20.2 C17.37 21.41 17.37 22.62 17.36 23.87 C17.34 25.14 17.33 26.41 17.31 27.72 C17.3 29 17.29 30.28 17.28 31.6 C17.26 34.76 17.22 37.93 17.18 41.1 C17.84 41.1 18.5 41.1 19.18 41.1 C19.23 43.1 19.22 45.1 19.18 47.1 C17.61 48.67 16.05 48.22 13.86 48.23 C12.95 48.23 12.03 48.23 11.08 48.24 C10.08 48.23 9.09 48.23 8.06 48.23 C7.04 48.23 6.02 48.23 4.98 48.23 C2.82 48.23 0.67 48.23 -1.49 48.23 C-4.8 48.22 -8.11 48.23 -11.43 48.23 C-13.51 48.23 -15.6 48.23 -17.69 48.23 C-19.19 48.23 -19.19 48.23 -20.72 48.24 C-21.63 48.23 -22.55 48.23 -23.5 48.23 C-24.31 48.23 -25.12 48.23 -25.96 48.22 C-27.82 48.1 -27.82 48.1 -28.82 47.1 C-28.86 45.1 -28.86 43.1 -28.82 41.1 C-28.16 41.1 -27.5 41.1 -26.82 41.1 C-26.83 39.89 -26.83 39.89 -26.85 38.65 C-26.89 35.01 -26.92 31.37 -26.94 27.72 C-26.96 26.45 -26.97 25.18 -26.99 23.87 C-27 22.66 -27.01 21.45 -27.01 20.2 C-27.03 18.52 -27.03 18.52 -27.04 16.8 C-26.82 14.1 -26.82 14.1 -24.82 12.1 C-23.5 12.1 -22.18 12.1 -20.82 12.1 C-20.69 11.15 -20.57 10.2 -20.44 9.22 C-19.82 6.1 -19.82 6.1 -17.82 4.1 C-14.32 3.85 -14.32 3.85 -10.82 4.1 C-8.82 6.1 -8.82 6.1 -8.69 9.22 C-8.73 10.17 -8.77 11.12 -8.82 12.1 C-7.5 12.1 -6.18 12.1 -4.82 12.1 C-4.83 11.32 -4.84 10.53 -4.85 9.73 C-4.86 8.71 -4.87 7.7 -4.88 6.66 C-4.89 5.65 -4.9 4.64 -4.91 3.6 C-4.76 -0.46 -4.26 0.11 0 0 Z M9.18 4.1 C9.18 4.76 9.18 5.42 9.18 6.1 C5.88 5.77 2.58 5.44 -0.82 5.1 C-0.82 6.75 -0.82 8.4 -0.82 10.1 C-0.16 9.77 0.5 9.44 1.18 9.1 C2.72 9.03 4.27 9.01 5.81 9.04 C7.03 9.05 7.03 9.05 8.29 9.06 C9.22 9.08 9.22 9.08 10.18 9.1 C10.18 7.45 10.18 5.8 10.18 4.1 C9.85 4.1 9.52 4.1 9.18 4.1 Z M-6.82 16.1 C-6.69 17.95 -6.69 17.95 -6.57 19.85 C-6.58 22.9 -6.71 23.93 -8.38 26.6 C-11.78 28.69 -13.89 28.65 -17.82 28.1 C-20.75 26.1 -20.75 26.1 -22.82 24.1 C-22.82 26.41 -22.82 28.72 -22.82 31.1 C-18.2 30.77 -13.58 30.44 -8.82 30.1 C-9.15 33.4 -9.48 36.7 -9.82 40.1 C-9.16 40.1 -8.5 40.1 -7.82 40.1 C-7.82 36.8 -7.82 33.5 -7.82 30.1 C-6.17 30.1 -4.52 30.1 -2.82 30.1 C-3.48 29.77 -4.14 29.44 -4.82 29.1 C-4.82 24.81 -4.82 20.52 -4.82 16.1 C-5.48 16.1 -6.14 16.1 -6.82 16.1 Z M-23.82 17.1 C-22.82 19.1 -22.82 19.1 -22.82 19.1 Z M-0.82 21.1 C-0.82 22.75 -0.82 24.4 -0.82 26.1 C0.17 26.1 1.16 26.1 2.18 26.1 C2.18 25.11 2.18 24.12 2.18 23.1 C3.83 23.1 5.48 23.1 7.18 23.1 C7.18 24.09 7.18 25.08 7.18 26.1 C8.17 26.1 9.16 26.1 10.18 26.1 C10.18 24.78 10.18 23.46 10.18 22.1 C6.55 21.77 2.92 21.44 -0.82 21.1 Z M-23.82 22.1 C-22.82 24.1 -22.82 24.1 -22.82 24.1 Z M12.18 29.1 C13.18 31.1 13.18 31.1 13.18 31.1 Z M-1.82 30.1 C-1.82 33.4 -1.82 36.7 -1.82 40.1 C-1.16 39.77 -0.5 39.44 0.18 39.1 C0.18 36.13 0.18 33.16 0.18 30.1 C-0.48 30.1 -1.14 30.1 -1.82 30.1 Z M-23.82 31.1 C-22.82 33.1 -22.82 33.1 -22.82 33.1 Z M-23.82 34.1 C-22.82 36.1 -22.82 36.1 -22.82 36.1 Z M-23.82 37.1 C-22.82 39.1 -22.82 39.1 -22.82 39.1 Z " fill="#101F2D" transform="translate(40.81640625,29.90234375)"/>
<path d="M0 0 C14.52 0 29.04 0 44 0 C44 0.99 44 1.98 44 3 C29.48 3 14.96 3 0 3 C0 2.01 0 1.02 0 0 Z " fill="#BF5554" transform="translate(67,93)"/>
<path d="M0 0 C14.52 0 29.04 0 44 0 C44 0.99 44 1.98 44 3 C29.48 3 14.96 3 0 3 C0 2.01 0 1.02 0 0 Z " fill="#BF5554" transform="translate(14,73)"/>
<path d="M0 0 C3.12 0.38 3.12 0.38 5.5 2.06 C7.12 4.38 7.12 4.38 7.69 6.88 C7.12 9.38 7.12 9.38 4.94 11.75 C2.12 13.38 2.12 13.38 -0.5 13.31 C-4.45 11.75 -4.45 11.75 -5.88 9.38 C-5.42 0.71 -5.42 0.71 0 0 Z " fill="#5BB3E2" transform="translate(78.875,63.625)"/>
<path d="M0 0 C3.12 0.38 3.12 0.38 5.5 2.06 C7.12 4.38 7.12 4.38 7.69 6.88 C7.12 9.38 7.12 9.38 4.94 11.75 C2.12 13.38 2.12 13.38 -0.5 13.31 C-4.45 11.75 -4.45 11.75 -5.88 9.38 C-5.42 0.71 -5.42 0.71 0 0 Z " fill="#5BB3E2" transform="translate(25.875,43.625)"/>
<path d="M0 0 C2.06 0.44 2.06 0.44 4 1 C3.67 2.32 3.34 3.64 3 5 C2.01 5 1.02 5 0 5 C-0.56 3.06 -0.56 3.06 -1 1 C-0.67 0.67 -0.34 0.34 0 0 Z " fill="#3C586B" transform="translate(78,69)"/>
<path d="M0 0 C2.06 0.44 2.06 0.44 4 1 C3.67 2.32 3.34 3.64 3 5 C2.01 5 1.02 5 0 5 C-0.56 3.06 -0.56 3.06 -1 1 C-0.67 0.67 -0.34 0.34 0 0 Z " fill="#3C586B" transform="translate(25,49)"/>
<path d="M0 0 C0.27 0.58 0.54 1.16 0.81 1.75 C2.02 4.03 3.41 5.97 5 8 C3.68 8 2.36 8 1 8 C-1.12 3.38 -1.12 3.38 0 0 Z " fill="#142A3A" transform="translate(72,69)"/>
<path d="M0 0 C0.27 0.58 0.54 1.16 0.81 1.75 C2.02 4.03 3.41 5.97 5 8 C3.68 8 2.36 8 1 8 C-1.12 3.38 -1.12 3.38 0 0 Z " fill="#142A3A" transform="translate(19,49)"/>
<path d="M0 0 C0.95 0.04 1.9 0.08 2.88 0.12 C2.28 0.39 1.68 0.66 1.06 0.94 C-2.67 2.96 -4.4 5.28 -6.12 9.12 C-5.13 0.21 -5.13 0.21 0 0 Z " fill="#4E9AC4" transform="translate(79.125,63.875)"/>
<path d="M0 0 C0.95 0.04 1.9 0.08 2.88 0.12 C2.28 0.39 1.68 0.66 1.06 0.94 C-2.67 2.96 -4.4 5.28 -6.12 9.12 C-5.13 0.21 -5.13 0.21 0 0 Z " fill="#4E9AC4" transform="translate(26.125,43.875)"/>
</svg>
