<?xml version="1.0" encoding="UTF-8"?>
<!-- Generator: visioncortex VTracer 0.6.4 -->
<svg version="1.1" xmlns="http://www.w3.org/2000/svg" width="128" height="128">
<path d="M0 0 C0.99 -0 1.97 -0.01 2.99 -0.01 C6.23 -0.02 9.48 -0.01 12.72 -0.01 C14.98 -0.01 17.25 -0.01 19.51 -0.01 C24.24 -0.02 28.98 -0.01 33.71 -0 C39.78 0.01 45.84 0 51.91 -0.01 C56.58 -0.02 61.25 -0.01 65.92 -0.01 C68.15 -0.01 70.39 -0.01 72.63 -0.01 C75.75 -0.02 78.88 -0.01 82 0 C82.93 -0 83.85 -0.01 84.8 -0.01 C92.15 0.04 97.36 1.14 102.94 6.26 C105.34 9.86 105.24 12.5 105.24 16.66 C105.25 17.42 105.26 18.17 105.27 18.94 C105.29 21.43 105.3 23.92 105.31 26.4 C105.32 28.13 105.33 29.86 105.34 31.59 C105.35 35.22 105.36 38.85 105.36 42.48 C105.37 47.12 105.41 51.77 105.45 56.41 C105.48 59.99 105.49 63.56 105.49 67.14 C105.49 68.85 105.51 70.56 105.53 72.27 C105.55 74.67 105.55 77.07 105.54 79.47 C105.56 80.52 105.56 80.52 105.58 81.6 C105.52 85.94 104.56 88.82 101.52 92 C95.7 96.63 88.92 96.69 81.79 96.65 C80.81 96.65 79.83 96.66 78.81 96.66 C75.58 96.68 72.35 96.67 69.12 96.66 C66.87 96.66 64.61 96.66 62.36 96.67 C57.64 96.67 52.91 96.66 48.19 96.65 C42.16 96.63 36.12 96.64 30.08 96.66 C25.42 96.67 20.76 96.67 16.11 96.66 C13.88 96.66 11.65 96.66 9.43 96.67 C6.31 96.68 3.2 96.66 0.08 96.65 C-0.83 96.65 -1.74 96.66 -2.68 96.67 C-8.93 96.6 -14.62 96.01 -19.64 92 C-23.27 88.2 -23.79 84.53 -23.73 79.53 C-23.74 78.78 -23.75 78.03 -23.76 77.25 C-23.78 74.79 -23.77 72.32 -23.76 69.86 C-23.77 68.13 -23.78 66.41 -23.78 64.69 C-23.8 61.08 -23.79 57.47 -23.77 53.87 C-23.75 49.25 -23.77 44.64 -23.81 40.03 C-23.84 36.47 -23.84 32.92 -23.83 29.36 C-23.83 27.66 -23.83 25.96 -23.85 24.26 C-23.98 9.35 -23.98 9.35 -20.45 4.79 C-15.14 -0.52 -6.95 -0.03 0 0 Z M-13.06 12.26 C-14.48 15.1 -14.2 17.5 -14.21 20.68 C-14.21 21.34 -14.21 22 -14.22 22.68 C-14.23 24.86 -14.23 27.04 -14.23 29.22 C-14.23 30.74 -14.24 32.25 -14.24 33.77 C-14.25 36.94 -14.25 40.12 -14.25 43.3 C-14.25 47.37 -14.26 51.44 -14.28 55.52 C-14.29 58.65 -14.29 61.77 -14.29 64.9 C-14.29 66.41 -14.3 67.91 -14.3 69.41 C-14.31 71.51 -14.31 73.61 -14.31 75.71 C-14.31 76.9 -14.31 78.1 -14.31 79.33 C-14.28 82.45 -14.28 82.45 -12.06 85.26 C-9.34 86.25 -6.78 86.39 -3.89 86.39 C-3.07 86.4 -2.25 86.4 -1.4 86.41 C-0.51 86.4 0.39 86.4 1.31 86.4 C2.73 86.41 2.73 86.41 4.18 86.41 C7.32 86.42 10.45 86.43 13.59 86.43 C15.77 86.43 17.95 86.43 20.13 86.44 C24.7 86.44 29.27 86.44 33.83 86.44 C39.69 86.44 45.55 86.46 51.4 86.47 C55.9 86.49 60.4 86.49 64.9 86.49 C67.06 86.49 69.22 86.49 71.38 86.5 C74.4 86.51 77.42 86.51 80.44 86.5 C81.78 86.51 81.78 86.51 83.14 86.52 C87.47 86.5 91.06 86.44 94.94 84.26 C96.36 81.42 96.08 79.01 96.1 75.84 C96.1 75.18 96.11 74.52 96.11 73.84 C96.13 71.66 96.13 69.48 96.14 67.29 C96.15 65.78 96.15 64.26 96.16 62.75 C96.17 59.57 96.17 56.4 96.18 53.22 C96.18 49.15 96.21 45.07 96.24 41 C96.25 37.87 96.26 34.74 96.26 31.61 C96.26 30.11 96.27 28.61 96.29 27.11 C96.3 25.01 96.3 22.91 96.29 20.81 C96.3 19.61 96.3 18.42 96.3 17.19 C96.15 14.31 96.15 14.31 94.79 12.38 C92.14 10.78 90.07 10.86 86.99 10.83 C85.75 10.81 84.52 10.79 83.25 10.77 C81.9 10.76 80.54 10.75 79.18 10.75 C77.78 10.73 76.37 10.71 74.96 10.69 C71.21 10.64 67.45 10.61 63.7 10.59 C59.84 10.56 55.99 10.52 52.13 10.47 C45.39 10.4 38.65 10.35 31.91 10.3 C26.85 10.27 21.78 10.22 16.71 10.16 C13.52 10.13 10.33 10.1 7.14 10.08 C5.12 10.07 3.09 10.05 1.07 10.03 C-0.11 10.03 -1.28 10.03 -2.49 10.03 C-3.46 10.02 -4.44 10.02 -5.44 10.02 C-8.33 10.28 -10.47 10.96 -13.06 12.26 Z " fill="#2391FF" transform="translate(23.062744140625,15.7412109375)"/>
<path d="M0 0 C1.16 -0.01 2.31 -0.02 3.5 -0.02 C4.47 0.11 5.44 0.24 6.44 0.38 C8.97 4.17 9.04 6.92 8.44 11.38 C6.9 13.76 5.94 14.22 3.25 15.06 C2.65 15.17 2.05 15.27 1.44 15.38 C2.4 15.53 2.4 15.53 3.38 15.69 C4.06 15.91 4.74 16.14 5.44 16.38 C5.77 17.36 6.1 18.36 6.44 19.38 C7.43 19.7 8.42 20.03 9.44 20.38 C10.1 18.72 10.76 17.08 11.44 15.38 C12.9 15.32 14.35 15.28 15.81 15.25 C16.62 15.23 17.44 15.2 18.27 15.18 C20.44 15.38 20.44 15.38 22.44 17.38 C22.67 19.72 22.67 19.72 22.62 22.44 C22.62 23.34 22.61 24.23 22.61 25.16 C22.44 27.38 22.44 27.38 21.44 28.38 C19.77 28.42 18.1 28.42 16.44 28.38 C16.06 30.7 15.72 33.04 15.44 35.38 C15.77 35.7 16.1 36.03 16.44 36.38 C16.56 38.02 16.61 39.67 16.62 41.31 C16.64 42.21 16.65 43.1 16.67 44.03 C16.44 46.38 16.44 46.38 14.44 48.38 C7.27 48.94 7.27 48.94 4.44 47 C3.44 45.38 3.44 45.38 3.44 43.38 C0.8 43.38 -1.84 43.38 -4.56 43.38 C-4.69 44.01 -4.81 44.65 -4.94 45.31 C-5.25 46.33 -5.25 46.33 -5.56 47.38 C-7.79 48.49 -9.09 48.54 -11.56 48.56 C-12.26 48.58 -12.97 48.59 -13.69 48.61 C-15.56 48.38 -15.56 48.38 -17.56 46.38 C-17.83 44.06 -17.83 44.06 -17.81 41.38 C-17.82 40.04 -17.82 40.04 -17.83 38.69 C-17.56 36.38 -17.56 36.38 -15.56 34.38 C-16.12 31.88 -16.12 31.88 -17.56 29.38 C-20.59 28 -20.59 28 -23.56 27.38 C-23.62 25.75 -23.66 24.13 -23.69 22.5 C-23.72 21.14 -23.72 21.14 -23.76 19.76 C-23.56 17.38 -23.56 17.38 -21.56 15.38 C-19.4 15.18 -19.4 15.18 -16.94 15.25 C-15.71 15.28 -15.71 15.28 -14.46 15.3 C-13.52 15.34 -13.52 15.34 -12.56 15.38 C-11.9 17.03 -11.24 18.67 -10.56 20.38 C-7.14 19.23 -6.54 18.26 -4.56 15.38 C-4.23 15.05 -3.9 14.72 -3.56 14.38 C-4.37 14.25 -5.17 14.13 -6 14 C-6.85 13.79 -7.69 13.59 -8.56 13.38 C-10.12 10.26 -10.13 6.77 -9.56 3.38 C-7.16 -0.38 -4.18 -0.03 0 0 Z M-10.56 24.38 C-11.91 25.97 -11.91 25.97 -12.56 28.38 C-11.1 33.32 -11.1 33.32 -7.44 36.69 C-6.82 36.91 -6.2 37.14 -5.56 37.38 C-5.23 38.03 -4.9 38.69 -4.56 39.38 C1.02 39.96 1.02 39.96 5.75 37.56 C6.31 36.84 6.86 36.12 7.44 35.38 C7.99 34.9 8.55 34.43 9.12 33.94 C10.92 31.8 11.23 30.13 11.44 27.38 C10.78 26.38 10.12 25.39 9.44 24.38 C7.46 24.72 7.46 24.72 5.44 25.38 C5.11 26.03 4.78 26.69 4.44 27.38 C2.81 27.46 1.19 27.51 -0.44 27.56 C-1.34 27.6 -2.25 27.63 -3.18 27.67 C-4.36 27.52 -4.36 27.52 -5.56 27.38 C-6.22 26.38 -6.88 25.39 -7.56 24.38 C-8.55 24.38 -9.54 24.38 -10.56 24.38 Z " fill="#CE1E31" transform="translate(89.5625,49.625)"/>
<path d="M0 0 C1.16 -0.01 2.31 -0.02 3.5 -0.02 C4.47 0.11 5.44 0.24 6.44 0.38 C8.97 4.17 9.04 6.92 8.44 11.38 C6.9 13.76 5.94 14.22 3.25 15.06 C2.65 15.17 2.05 15.27 1.44 15.38 C2.4 15.53 2.4 15.53 3.38 15.69 C4.06 15.91 4.74 16.14 5.44 16.38 C5.77 17.36 6.1 18.36 6.44 19.38 C7.43 19.7 8.42 20.03 9.44 20.38 C10.1 18.73 10.76 17.08 11.44 15.38 C12.9 15.32 14.35 15.28 15.81 15.25 C16.62 15.23 17.44 15.2 18.27 15.18 C20.44 15.38 20.44 15.38 22.44 17.38 C22.67 19.72 22.67 19.72 22.62 22.44 C22.62 23.34 22.61 24.23 22.61 25.16 C22.44 27.38 22.44 27.38 21.44 28.38 C19.77 28.42 18.1 28.42 16.44 28.38 C16.06 30.7 15.72 33.04 15.44 35.38 C15.77 35.7 16.1 36.03 16.44 36.38 C16.56 38.02 16.61 39.67 16.62 41.31 C16.64 42.21 16.65 43.1 16.67 44.03 C16.44 46.38 16.44 46.38 14.44 48.38 C7.27 48.94 7.27 48.94 4.44 47 C3.44 45.38 3.44 45.38 3.44 43.38 C0.8 43.38 -1.84 43.38 -4.56 43.38 C-4.69 44.01 -4.81 44.65 -4.94 45.31 C-5.25 46.33 -5.25 46.33 -5.56 47.38 C-7.79 48.49 -9.09 48.54 -11.56 48.56 C-12.26 48.58 -12.96 48.59 -13.69 48.61 C-15.56 48.38 -15.56 48.38 -17.56 46.38 C-17.83 44.06 -17.83 44.06 -17.81 41.38 C-17.82 40.04 -17.82 40.04 -17.83 38.69 C-17.56 36.38 -17.56 36.38 -15.56 34.38 C-16.12 31.88 -16.12 31.88 -17.56 29.38 C-20.59 28 -20.59 28 -23.56 27.38 C-23.62 25.75 -23.66 24.13 -23.69 22.5 C-23.72 21.14 -23.72 21.14 -23.76 19.76 C-23.56 17.38 -23.56 17.38 -21.56 15.38 C-19.4 15.18 -19.4 15.18 -16.94 15.25 C-15.71 15.28 -15.71 15.28 -14.46 15.3 C-13.52 15.34 -13.52 15.34 -12.56 15.38 C-11.9 17.02 -11.24 18.67 -10.56 20.38 C-7.14 19.23 -6.54 18.26 -4.56 15.38 C-4.23 15.05 -3.9 14.72 -3.56 14.38 C-4.37 14.25 -5.17 14.13 -6 14 C-6.85 13.79 -7.69 13.59 -8.56 13.38 C-10.12 10.26 -10.13 6.77 -9.56 3.38 C-7.16 -0.38 -4.18 -0.03 0 0 Z M-10.56 24.38 C-11.91 25.97 -11.91 25.97 -12.56 28.38 C-11.1 33.32 -11.1 33.32 -7.44 36.69 C-6.82 36.91 -6.2 37.14 -5.56 37.38 C-5.23 38.03 -4.9 38.69 -4.56 39.38 C1.02 39.96 1.02 39.96 5.75 37.56 C6.31 36.84 6.86 36.12 7.44 35.38 C7.99 34.9 8.55 34.43 9.12 33.94 C10.92 31.8 11.23 30.13 11.44 27.38 C10.78 26.38 10.12 25.39 9.44 24.38 C7.46 24.72 7.46 24.72 5.44 25.38 C5.11 26.03 4.78 26.7 4.44 27.38 C2.81 27.46 1.19 27.51 -0.44 27.56 C-1.34 27.6 -2.25 27.63 -3.18 27.67 C-4.36 27.52 -4.36 27.52 -5.56 27.38 C-6.22 26.38 -6.88 25.39 -7.56 24.38 C-8.55 24.38 -9.54 24.38 -10.56 24.38 Z " fill="#CE1E31" transform="translate(36.5625,29.625)"/>
<path d="M0 0 C1.16 -0.01 2.31 -0.02 3.5 -0.02 C4.47 0.11 5.44 0.24 6.44 0.38 C8.97 4.17 9.05 6.92 8.44 11.38 C7.12 13.38 7.12 13.38 5.44 14.38 C4.45 14.38 3.46 14.38 2.44 14.38 C2.11 15.03 1.78 15.69 1.44 16.38 C0.12 16.38 -1.2 16.38 -2.56 16.38 C-2.89 15.72 -3.22 15.06 -3.56 14.38 C-4.39 14.21 -5.21 14.05 -6.06 13.88 C-6.89 13.71 -7.71 13.55 -8.56 13.38 C-10.12 10.26 -10.13 6.77 -9.56 3.38 C-7.16 -0.38 -4.18 -0.03 0 0 Z " fill="#C22134" transform="translate(89.5625,49.625)"/>
<path d="M0 0 C1.16 -0.01 2.31 -0.02 3.5 -0.02 C4.47 0.11 5.44 0.24 6.44 0.38 C8.97 4.17 9.05 6.92 8.44 11.38 C7.12 13.38 7.12 13.38 5.44 14.38 C4.45 14.38 3.46 14.38 2.44 14.38 C2.11 15.03 1.78 15.7 1.44 16.38 C0.12 16.38 -1.2 16.38 -2.56 16.38 C-2.89 15.72 -3.22 15.05 -3.56 14.38 C-4.39 14.21 -5.21 14.05 -6.06 13.88 C-6.89 13.71 -7.71 13.55 -8.56 13.38 C-10.12 10.26 -10.13 6.77 -9.56 3.38 C-7.16 -0.38 -4.18 -0.03 0 0 Z " fill="#C22134" transform="translate(36.5625,29.625)"/>
<path d="M0 0 C1.68 0.29 3.34 0.62 5 1 C5.25 1.95 5.5 2.9 5.75 3.88 C6.66 7.09 6.66 7.09 9.06 8.19 C9.7 8.46 10.34 8.72 11 9 C11.33 9.99 11.66 10.98 12 12 C14.97 12 17.94 12 21 12 C21 13.32 21 14.64 21 16 C18.03 16 15.06 16 12 16 C11.67 17.32 11.34 18.64 11 20 C8.77 21.11 7.47 21.16 5 21.19 C3.95 21.21 3.95 21.21 2.88 21.23 C1 21 1 21 -1 19 C-1.27 16.69 -1.27 16.69 -1.25 14 C-1.26 13.11 -1.26 12.23 -1.27 11.31 C-1 9 -1 9 1 7 C0.34 5.02 -0.32 3.04 -1 1 C-0.67 0.67 -0.34 0.34 0 0 Z " fill="#0B6CC1" transform="translate(73,77)"/>
<path d="M0 0 C1.68 0.29 3.34 0.62 5 1 C5.25 1.95 5.5 2.9 5.75 3.88 C6.66 7.09 6.66 7.09 9.06 8.19 C9.7 8.46 10.34 8.72 11 9 C11.33 9.99 11.66 10.98 12 12 C14.97 12 17.94 12 21 12 C21 13.32 21 14.64 21 16 C18.03 16 15.06 16 12 16 C11.67 17.32 11.34 18.64 11 20 C8.77 21.11 7.47 21.16 5 21.19 C3.95 21.21 3.95 21.21 2.88 21.23 C1 21 1 21 -1 19 C-1.27 16.69 -1.27 16.69 -1.25 14 C-1.26 13.11 -1.26 12.23 -1.27 11.31 C-1 9 -1 9 1 7 C0.34 5.02 -0.32 3.04 -1 1 C-0.67 0.67 -0.34 0.34 0 0 Z " fill="#0B6CC1" transform="translate(20,57)"/>
<path d="M0 0 C1.22 0.03 1.22 0.03 2.46 0.07 C3.69 0.1 3.69 0.1 4.94 0.12 C5.88 0.16 5.88 0.16 6.84 0.2 C7.5 1.85 8.16 3.5 8.84 5.2 C10.16 5.2 11.48 5.2 12.84 5.2 C12.84 6.52 12.84 7.84 12.84 9.2 C11.52 9.2 10.2 9.2 8.84 9.2 C8.51 10.19 8.18 11.18 7.84 12.2 C6.02 12.39 4.21 12.58 2.4 12.76 C0.88 12.91 0.88 12.91 -0.66 13.07 C-1.49 13.11 -2.31 13.15 -3.16 13.2 C-4.83 11.53 -4.34 9.54 -4.35 7.26 C-4.37 6.36 -4.38 5.47 -4.39 4.54 C-4.08 1.37 -3.22 0.29 0 0 Z " fill="#F9B650" transform="translate(70.1640625,64.8046875)"/>
<path d="M0 0 C1.22 0.03 1.22 0.03 2.46 0.07 C3.69 0.1 3.69 0.1 4.94 0.12 C5.88 0.16 5.88 0.16 6.84 0.2 C7.5 1.85 8.16 3.5 8.84 5.2 C10.16 5.2 11.48 5.2 12.84 5.2 C12.84 6.52 12.84 7.84 12.84 9.2 C11.52 9.2 10.2 9.2 8.84 9.2 C8.51 10.19 8.18 11.18 7.84 12.2 C6.02 12.39 4.21 12.58 2.4 12.76 C0.88 12.91 0.88 12.91 -0.66 13.07 C-1.49 13.11 -2.31 13.15 -3.16 13.2 C-4.83 11.53 -4.34 9.54 -4.35 7.26 C-4.37 6.36 -4.38 5.47 -4.39 4.54 C-4.08 1.37 -3.22 0.29 0 0 Z " fill="#F9B650" transform="translate(17.1640625,44.8046875)"/>
<path d="M0 0 C0.7 0.01 1.4 0.03 2.12 0.04 C3.18 0.05 3.18 0.05 4.25 0.06 C6.12 0.23 6.12 0.23 8.12 1.23 C8.45 2.22 8.78 3.21 9.12 4.23 C11.14 4.96 11.14 4.96 13.12 5.23 C13.12 6.55 13.12 7.87 13.12 9.23 C12.51 9.33 11.89 9.44 11.25 9.54 C8.76 10.11 8.76 10.11 7.12 13.23 C4.74 13.52 4.74 13.52 2 13.42 C1.09 13.39 0.18 13.36 -0.76 13.34 C-1.46 13.3 -2.16 13.27 -2.88 13.23 C-5.17 9.23 -4.88 6.74 -3.88 2.23 C-1.88 0.23 -1.88 0.23 0 0 Z " fill="#0B69BF" transform="translate(86.875,64.76953125)"/>
<path d="M0 0 C0.7 0.01 1.4 0.03 2.12 0.04 C3.18 0.05 3.18 0.05 4.25 0.06 C6.12 0.23 6.12 0.23 8.12 1.23 C8.45 2.22 8.78 3.21 9.12 4.23 C11.14 4.96 11.14 4.96 13.12 5.23 C13.12 6.55 13.12 7.87 13.12 9.23 C12.51 9.33 11.89 9.44 11.25 9.54 C8.76 10.11 8.76 10.11 7.12 13.23 C4.74 13.52 4.74 13.52 2 13.42 C1.09 13.39 0.18 13.36 -0.76 13.34 C-1.46 13.3 -2.16 13.27 -2.88 13.23 C-5.17 9.23 -4.88 6.74 -3.88 2.23 C-1.88 0.23 -1.88 0.23 0 0 Z " fill="#0B69BF" transform="translate(33.875,44.76953125)"/>
<path d="M0 0 C2.09 -0.36 2.09 -0.36 4.5 -0.31 C5.69 -0.31 5.69 -0.31 6.91 -0.3 C9 0 9 0 11 2 C11.23 4.35 11.23 4.35 11.19 7.06 C11.18 8.41 11.18 8.41 11.17 9.79 C11 12 11 12 10 13 C8.31 13.07 6.62 13.08 4.94 13.06 C4.02 13.05 3.1 13.04 2.15 13.04 C1.44 13.02 0.73 13.01 0 13 C-1.93 9.46 -2.35 7.06 -2 3 C-1.34 2.01 -0.68 1.02 0 0 Z " fill="#F79843" transform="translate(101,65)"/>
<path d="M0 0 C2.09 -0.36 2.09 -0.36 4.5 -0.31 C5.69 -0.31 5.69 -0.31 6.91 -0.3 C9 0 9 0 11 2 C11.23 4.35 11.23 4.35 11.19 7.06 C11.18 8.41 11.18 8.41 11.17 9.79 C11 12 11 12 10 13 C8.31 13.07 6.62 13.08 4.94 13.06 C4.02 13.05 3.1 13.04 2.15 13.04 C1.44 13.02 0.73 13.01 0 13 C-1.93 9.46 -2.35 7.06 -2 3 C-1.34 2.01 -0.68 1.02 0 0 Z " fill="#F79843" transform="translate(48,45)"/>
<path d="M0 0 C0.08 1.96 0.14 3.92 0.19 5.88 C0.22 6.97 0.26 8.06 0.29 9.18 C0.2 10.11 0.1 11.04 0 12 C-3 14 -3 14 -5.62 13.75 C-6.41 13.5 -7.19 13.26 -8 13 C-9.59 9.81 -9.38 6.47 -9 3 C-6.84 -0.84 -4.05 -0.09 0 0 Z " fill="#E32637" transform="translate(89,50)"/>
<path d="M0 0 C0.08 1.96 0.14 3.92 0.19 5.88 C0.22 6.97 0.26 8.06 0.29 9.18 C0.2 10.11 0.1 11.04 0 12 C-3 14 -3 14 -5.62 13.75 C-6.41 13.5 -7.19 13.26 -8 13 C-9.59 9.81 -9.38 6.47 -9 3 C-6.84 -0.84 -4.05 -0.09 0 0 Z " fill="#E32637" transform="translate(36,30)"/>
<path d="M0 0 C1.32 0.66 2.64 1.32 4 2 C4 5.96 4 9.92 4 14 C1.03 13.5 1.03 13.5 -2 13 C-3.38 9.17 -2.8 5.93 -2 2 C-1.34 1.34 -0.68 0.68 0 0 Z " fill="#E22737" transform="translate(96,84)"/>
<path d="M0 0 C1.32 0.66 2.64 1.32 4 2 C4 5.96 4 9.92 4 14 C1.03 13.5 1.03 13.5 -2 13 C-3.38 9.17 -2.8 5.93 -2 2 C-1.34 1.34 -0.68 0.68 0 0 Z " fill="#E22737" transform="translate(43,64)"/>
<path d="M0 0 C1.65 0 3.3 0 5 0 C5.66 1.65 6.32 3.3 7 5 C8.32 5 9.64 5 11 5 C11 6.32 11 7.64 11 9 C6.25 9.12 6.25 9.12 4 8 C2.68 8 1.36 8 0 8 C0 5.36 0 2.72 0 0 Z " fill="#EF9140" transform="translate(72,65)"/>
<path d="M0 0 C1.65 0 3.3 0 5 0 C5.66 1.65 6.32 3.3 7 5 C8.32 5 9.64 5 11 5 C11 6.32 11 7.64 11 9 C6.25 9.12 6.25 9.12 4 8 C2.68 8 1.36 8 0 8 C0 5.36 0 2.72 0 0 Z " fill="#EF9140" transform="translate(19,45)"/>
<path d="M0 0 C2.62 -0.19 2.62 -0.19 5 0 C5 1.65 5 3.3 5 5 C4.01 5 3.02 5 2 5 C2 5.99 2 6.98 2 8 C2.99 8 3.98 8 5 8 C5 9.32 5 10.64 5 12 C3.35 12.33 1.7 12.66 0 13 C-2.09 9.6 -2.34 6.96 -2 3 C-1.34 2.01 -0.68 1.02 0 0 Z " fill="#F5B751" transform="translate(101,65)"/>
<path d="M0 0 C2.62 -0.19 2.62 -0.19 5 0 C5 1.65 5 3.3 5 5 C4.01 5 3.02 5 2 5 C2 5.99 2 6.98 2 8 C2.99 8 3.98 8 5 8 C5 9.32 5 10.64 5 12 C3.35 12.33 1.7 12.66 0 13 C-2.09 9.6 -2.34 6.96 -2 3 C-1.34 2.01 -0.68 1.02 0 0 Z " fill="#F5B751" transform="translate(48,45)"/>
<path d="M0 0 C1.68 0.29 3.34 0.62 5 1 C5 2.32 5 3.64 5 5 C4.34 5 3.68 5 3 5 C3 5.99 3 6.98 3 8 C3.66 8 4.32 8 5 8 C5 9.65 5 11.3 5 13 C0.12 12.12 0.12 12.12 -1 11 C-1.1 9.34 -1.13 7.67 -1.12 6 C-1.13 5.09 -1.13 4.19 -1.13 3.25 C-1 1 -1 1 0 0 Z " fill="#128AE0" transform="translate(73,85)"/>
<path d="M0 0 C1.68 0.29 3.34 0.62 5 1 C5 2.32 5 3.64 5 5 C4.34 5 3.68 5 3 5 C3 5.99 3 6.98 3 8 C3.66 8 4.32 8 5 8 C5 9.65 5 11.3 5 13 C0.12 12.12 0.12 12.12 -1 11 C-1.1 9.34 -1.13 7.67 -1.12 6 C-1.13 5.09 -1.13 4.19 -1.13 3.25 C-1 1 -1 1 0 0 Z " fill="#128AE0" transform="translate(20,65)"/>
<path d="M0 0 C1.32 0.66 2.64 1.32 4 2 C4 5 4 5 2.5 6.69 C2 7.12 1.51 7.55 1 8 C1.99 8 2.98 8 4 8 C4 9.65 4 11.3 4 13 C2.35 13 0.7 13 -1 13 C-2.92 10.18 -2.99 8.87 -2.75 5.38 C-2 2 -2 2 0 0 Z " fill="#0F86DA" transform="translate(85,65)"/>
<path d="M0 0 C1.32 0.66 2.64 1.32 4 2 C4 5 4 5 2.5 6.69 C2.01 7.12 1.51 7.55 1 8 C1.99 8 2.98 8 4 8 C4 9.65 4 11.3 4 13 C2.35 13 0.7 13 -1 13 C-2.92 10.18 -2.99 8.87 -2.75 5.38 C-2 2 -2 2 0 0 Z " fill="#0F86DA" transform="translate(32,45)"/>
<path d="M0 0 C0.66 0 1.32 0 2 0 C2 1.32 2 2.64 2 4 C3.65 4.33 5.3 4.66 7 5 C7 5.99 7 6.98 7 8 C4 10 4 10 1.31 9.62 C0.55 9.42 -0.21 9.21 -1 9 C-1.81 6.09 -2.22 4.54 -1.06 1.69 C-0.71 1.13 -0.36 0.57 0 0 Z " fill="#EA2F3C" transform="translate(82,54)"/>
<path d="M0 0 C0.66 0 1.32 0 2 0 C2 1.32 2 2.64 2 4 C3.65 4.33 5.3 4.66 7 5 C7 5.99 7 6.98 7 8 C4 10 4 10 1.31 9.62 C0.55 9.42 -0.21 9.21 -1 9 C-1.81 6.09 -2.22 4.54 -1.06 1.69 C-0.71 1.13 -0.36 0.57 0 0 Z " fill="#EA2F3C" transform="translate(29,34)"/>
<path d="M0 0 C3.3 0 6.6 0 10 0 C10 1.32 10 2.64 10 4 C6.7 4 3.4 4 0 4 C0 2.68 0 1.36 0 0 Z " fill="#414141" transform="translate(84,89)"/>
<path d="M0 0 C1.32 0 2.64 0 4 0 C3.48 2.76 2.89 5.33 2 8 C0.02 8 -1.96 8 -4 8 C-2.68 5.36 -1.36 2.72 0 0 Z " fill="#484642" transform="translate(102,77)"/>
<path d="M0 0 C1.68 0.29 3.34 0.62 5 1 C5.66 3.31 6.32 5.62 7 8 C5.35 8 3.7 8 2 8 C1.01 5.69 0.02 3.38 -1 1 C-0.67 0.67 -0.34 0.34 0 0 Z " fill="#484543" transform="translate(73,77)"/>
<path d="M0 0 C3.3 0 6.6 0 10 0 C10 1.32 10 2.64 10 4 C6.7 4 3.4 4 0 4 C0 2.68 0 1.36 0 0 Z " fill="#414141" transform="translate(31,69)"/>
<path d="M0 0 C1.32 0 2.64 0 4 0 C3.48 2.76 2.89 5.33 2 8 C0.02 8 -1.96 8 -4 8 C-2.68 5.36 -1.36 2.72 0 0 Z " fill="#484642" transform="translate(49,57)"/>
<path d="M0 0 C1.68 0.29 3.34 0.62 5 1 C5.66 3.31 6.32 5.62 7 8 C5.35 8 3.7 8 2 8 C1.01 5.69 0.02 3.38 -1 1 C-0.67 0.67 -0.34 0.34 0 0 Z " fill="#484543" transform="translate(20,57)"/>
<path d="M0 0 C-0.33 0.99 -0.66 1.98 -1 3 C-2.98 3.33 -4.96 3.66 -7 4 C-7 2.35 -7 0.7 -7 -1 C-3.51 -2.2 -3.32 -2.21 0 0 Z " fill="#F59A44" transform="translate(79,74)"/>
<path d="M0 0 C-0.33 0.99 -0.66 1.98 -1 3 C-2.98 3.33 -4.96 3.66 -7 4 C-7 2.35 -7 0.7 -7 -1 C-3.51 -2.2 -3.32 -2.21 0 0 Z " fill="#F59A44" transform="translate(26,54)"/>
<path d="M0 0 C1.65 0 3.3 0 5 0 C5 1.32 5 2.64 5 4 C3.35 4 1.7 4 0 4 C0 2.68 0 1.36 0 0 Z " fill="#40403E" transform="translate(95,70)"/>
<path d="M0 0 C1.65 0 3.3 0 5 0 C5 1.32 5 2.64 5 4 C3.35 4 1.7 4 0 4 C0 2.68 0 1.36 0 0 Z " fill="#41403E" transform="translate(78,70)"/>
<path d="M0 0 C1.65 0 3.3 0 5 0 C5 1.32 5 2.64 5 4 C3.35 4 1.7 4 0 4 C0 2.68 0 1.36 0 0 Z " fill="#40403E" transform="translate(42,50)"/>
<path d="M0 0 C1.65 0 3.3 0 5 0 C5 1.32 5 2.64 5 4 C3.35 4 1.7 4 0 4 C0 2.68 0 1.36 0 0 Z " fill="#41403E" transform="translate(25,50)"/>
<path d="M0 0 C1.65 0 3.3 0 5 0 C5.33 0.99 5.66 1.98 6 3 C4.02 3 2.04 3 0 3 C0 2.01 0 1.02 0 0 Z " fill="#EA8539" transform="translate(103,70)"/>
<path d="M0 0 C1.65 0 3.3 0 5 0 C5.33 0.99 5.66 1.98 6 3 C4.02 3 2.04 3 0 3 C0 2.01 0 1.02 0 0 Z " fill="#EA8539" transform="translate(50,50)"/>
</svg>
