<?xml version="1.0" encoding="UTF-8"?>
<!-- Generator: visioncortex VTracer 0.6.4 -->
<svg version="1.1" xmlns="http://www.w3.org/2000/svg" width="128" height="128">
<path d="M0 0 C0.99 -0 1.97 -0.01 2.99 -0.01 C6.23 -0.02 9.48 -0.01 12.72 -0.01 C14.98 -0.01 17.25 -0.01 19.51 -0.01 C24.24 -0.02 28.98 -0.01 33.71 -0 C39.78 0.01 45.84 0 51.91 -0.01 C56.58 -0.02 61.25 -0.01 65.92 -0.01 C68.15 -0.01 70.39 -0.01 72.63 -0.01 C75.75 -0.02 78.88 -0.01 82 0 C82.93 -0 83.85 -0.01 84.8 -0.01 C92.15 0.04 97.36 1.14 102.94 6.26 C105.34 9.86 105.24 12.5 105.24 16.66 C105.25 17.42 105.26 18.17 105.27 18.94 C105.29 21.43 105.3 23.92 105.31 26.4 C105.32 28.13 105.33 29.86 105.34 31.59 C105.35 35.22 105.36 38.85 105.36 42.48 C105.37 47.12 105.41 51.77 105.45 56.41 C105.48 59.99 105.49 63.56 105.49 67.14 C105.49 68.85 105.51 70.56 105.53 72.27 C105.55 74.67 105.55 77.07 105.54 79.47 C105.56 80.52 105.56 80.52 105.58 81.6 C105.52 85.94 104.56 88.82 101.52 92 C95.7 96.63 88.92 96.69 81.79 96.65 C80.81 96.65 79.83 96.66 78.81 96.66 C75.58 96.68 72.35 96.67 69.12 96.66 C66.87 96.66 64.61 96.66 62.36 96.67 C57.64 96.67 52.91 96.66 48.19 96.65 C42.16 96.63 36.12 96.64 30.08 96.66 C25.42 96.67 20.76 96.67 16.11 96.66 C13.88 96.66 11.65 96.66 9.43 96.67 C6.31 96.68 3.2 96.66 0.08 96.65 C-0.83 96.65 -1.74 96.66 -2.68 96.67 C-8.93 96.6 -14.62 96.01 -19.64 92 C-23.27 88.2 -23.79 84.53 -23.73 79.53 C-23.74 78.78 -23.75 78.03 -23.76 77.25 C-23.78 74.79 -23.77 72.32 -23.76 69.86 C-23.77 68.13 -23.78 66.41 -23.78 64.69 C-23.8 61.08 -23.79 57.47 -23.77 53.87 C-23.75 49.25 -23.77 44.64 -23.81 40.03 C-23.84 36.47 -23.84 32.92 -23.83 29.36 C-23.83 27.66 -23.83 25.96 -23.85 24.26 C-23.98 9.35 -23.98 9.35 -20.45 4.79 C-15.14 -0.52 -6.95 -0.03 0 0 Z M-13.06 12.26 C-14.48 15.1 -14.2 17.5 -14.21 20.68 C-14.21 21.34 -14.21 22 -14.22 22.68 C-14.23 24.86 -14.23 27.04 -14.23 29.22 C-14.23 30.74 -14.24 32.25 -14.24 33.77 C-14.25 36.94 -14.25 40.12 -14.25 43.3 C-14.25 47.37 -14.26 51.44 -14.28 55.52 C-14.29 58.65 -14.29 61.77 -14.29 64.9 C-14.29 66.41 -14.3 67.91 -14.3 69.41 C-14.31 71.51 -14.31 73.61 -14.31 75.71 C-14.31 76.9 -14.31 78.1 -14.31 79.33 C-14.28 82.45 -14.28 82.45 -12.06 85.26 C-9.34 86.25 -6.78 86.39 -3.89 86.39 C-3.07 86.4 -2.25 86.4 -1.4 86.41 C-0.51 86.4 0.39 86.4 1.31 86.4 C2.73 86.41 2.73 86.41 4.18 86.41 C7.32 86.42 10.45 86.43 13.59 86.43 C15.77 86.43 17.95 86.43 20.13 86.44 C24.7 86.44 29.27 86.44 33.83 86.44 C39.69 86.44 45.55 86.46 51.4 86.47 C55.9 86.49 60.4 86.49 64.9 86.49 C67.06 86.49 69.22 86.49 71.38 86.5 C74.4 86.51 77.42 86.51 80.44 86.5 C81.78 86.51 81.78 86.51 83.14 86.52 C87.47 86.5 91.06 86.44 94.94 84.26 C96.36 81.42 96.08 79.01 96.1 75.84 C96.1 75.18 96.11 74.52 96.11 73.84 C96.13 71.66 96.13 69.48 96.14 67.29 C96.15 65.78 96.15 64.26 96.16 62.75 C96.17 59.57 96.17 56.4 96.18 53.22 C96.18 49.15 96.21 45.07 96.24 41 C96.25 37.87 96.26 34.74 96.26 31.61 C96.26 30.11 96.27 28.61 96.29 27.11 C96.3 25.01 96.3 22.91 96.29 20.81 C96.3 19.61 96.3 18.42 96.3 17.19 C96.15 14.31 96.15 14.31 94.79 12.38 C92.14 10.78 90.07 10.86 86.99 10.83 C85.75 10.81 84.52 10.79 83.25 10.77 C81.9 10.76 80.54 10.75 79.18 10.75 C77.78 10.73 76.37 10.71 74.96 10.69 C71.21 10.64 67.45 10.61 63.7 10.59 C59.84 10.56 55.99 10.52 52.13 10.47 C45.39 10.4 38.65 10.35 31.91 10.3 C26.85 10.27 21.78 10.22 16.71 10.16 C13.52 10.13 10.33 10.1 7.14 10.08 C5.12 10.07 3.09 10.05 1.07 10.03 C-0.11 10.03 -1.28 10.03 -2.49 10.03 C-3.46 10.02 -4.44 10.02 -5.44 10.02 C-8.33 10.28 -10.47 10.96 -13.06 12.26 Z " fill="#2391FF" transform="translate(23.062744140625,15.7412109375)"/>
<path d="M0 0 C2.09 -0 4.18 -0.02 6.27 -0.04 C7.61 -0.04 8.95 -0.04 10.29 -0.05 C12.1 -0.05 12.1 -0.05 13.96 -0.06 C17.18 0.18 19.38 0.7 22.23 2.19 C24.62 6.96 23.54 14.19 23.58 19.5 C23.6 21.2 23.62 22.91 23.66 24.61 C23.72 27.07 23.74 29.53 23.75 31.99 C23.78 32.75 23.8 33.51 23.82 34.29 C23.81 38.19 23.61 39.8 20.82 42.62 C19.97 43.14 19.11 43.65 18.23 44.19 C17.58 44.6 16.93 45.02 16.27 45.45 C9.47 48.84 2.71 49.29 -4.77 48.19 C-9.91 46.3 -14.86 44.09 -18.77 40.19 C-18.98 37.5 -19.07 34.91 -19.07 32.22 C-19.07 31.43 -19.08 30.64 -19.08 29.83 C-19.09 28.16 -19.09 26.49 -19.08 24.82 C-19.08 22.26 -19.11 19.71 -19.13 17.15 C-19.13 15.53 -19.13 13.9 -19.13 12.28 C-19.14 11.52 -19.15 10.75 -19.16 9.96 C-19.11 4.69 -19.11 4.69 -17.43 2.24 C-12.3 -1.01 -5.85 -0 0 0 Z " fill="#346397" transform="translate(86.76904296875,49.814697265625)"/>
<path d="M0 0 C2.09 -0 4.18 -0.02 6.27 -0.04 C7.61 -0.04 8.95 -0.04 10.29 -0.05 C12.1 -0.05 12.1 -0.05 13.96 -0.06 C17.18 0.18 19.38 0.7 22.23 2.19 C24.62 6.96 23.54 14.19 23.58 19.5 C23.6 21.2 23.62 22.91 23.66 24.61 C23.72 27.07 23.74 29.53 23.75 31.99 C23.78 32.75 23.8 33.51 23.82 34.29 C23.81 38.19 23.61 39.8 20.82 42.62 C19.97 43.14 19.11 43.65 18.23 44.19 C17.58 44.6 16.93 45.02 16.27 45.45 C9.47 48.84 2.71 49.29 -4.77 48.19 C-9.91 46.3 -14.86 44.09 -18.77 40.19 C-18.98 37.5 -19.07 34.91 -19.07 32.22 C-19.07 31.43 -19.08 30.64 -19.08 29.83 C-19.09 28.16 -19.09 26.49 -19.08 24.82 C-19.08 22.26 -19.11 19.71 -19.13 17.15 C-19.13 15.53 -19.13 13.9 -19.13 12.28 C-19.14 11.52 -19.15 10.75 -19.16 9.96 C-19.11 4.69 -19.11 4.69 -17.43 2.24 C-12.3 -1.01 -5.85 -0 0 0 Z " fill="#346397" transform="translate(33.76904296875,29.814697265625)"/>
<path d="M0 0 C0.7 0 1.4 0.01 2.13 0.01 C3.86 0.03 5.58 0.04 7.31 0.06 C7.31 2.7 7.31 5.34 7.31 8.06 C8.1 8.35 8.88 8.64 9.69 8.94 C12.31 10.06 12.31 10.06 14.31 12.06 C14.31 14.37 14.31 16.68 14.31 19.06 C8.37 19.06 2.43 19.06 -3.69 19.06 C-3.69 25 -3.69 30.94 -3.69 37.06 C-0.06 37.06 3.57 37.06 7.31 37.06 C7.31 40.69 7.31 44.32 7.31 48.06 C0.02 49.06 -5.51 45.68 -11.69 42.06 C-14.22 39.53 -13.94 37.89 -13.99 34.42 C-13.99 33.66 -13.99 32.89 -13.99 32.1 C-13.99 31.31 -14 30.52 -14 29.71 C-14.01 28.04 -14.01 26.37 -14 24.7 C-14 22.14 -14.02 19.58 -14.05 17.03 C-14.05 15.4 -14.05 13.78 -14.05 12.16 C-14.06 11.39 -14.07 10.63 -14.08 9.84 C-14.03 4.56 -14.03 4.56 -12.35 2.12 C-8.42 -0.37 -4.47 -0.05 0 0 Z " fill="#5AA6FC" transform="translate(81.6875,49.9375)"/>
<path d="M0 0 C0.7 0 1.4 0.01 2.13 0.01 C3.86 0.03 5.58 0.04 7.31 0.06 C7.31 2.7 7.31 5.34 7.31 8.06 C8.1 8.35 8.88 8.64 9.69 8.94 C12.31 10.06 12.31 10.06 14.31 12.06 C14.31 14.37 14.31 16.68 14.31 19.06 C8.37 19.06 2.43 19.06 -3.69 19.06 C-3.69 25 -3.69 30.94 -3.69 37.06 C-0.06 37.06 3.57 37.06 7.31 37.06 C7.31 40.69 7.31 44.32 7.31 48.06 C0.02 49.06 -5.51 45.68 -11.69 42.06 C-14.22 39.53 -13.94 37.89 -13.99 34.42 C-13.99 33.66 -13.99 32.89 -13.99 32.1 C-13.99 31.31 -14 30.52 -14 29.71 C-14.01 28.04 -14.01 26.37 -14 24.7 C-14 22.14 -14.02 19.58 -14.05 17.03 C-14.05 15.4 -14.05 13.78 -14.05 12.16 C-14.06 11.39 -14.07 10.63 -14.08 9.84 C-14.03 4.56 -14.03 4.56 -12.35 2.12 C-8.42 -0.37 -4.47 -0.05 0 0 Z " fill="#5AA6FC" transform="translate(28.6875,29.9375)"/>
<path d="M0 0 C7.26 0 14.52 0 22 0 C22 5.94 22 11.88 22 18 C14.74 18 7.48 18 0 18 C0 12.06 0 6.12 0 0 Z " fill="#E87F44" transform="translate(78,69)"/>
<path d="M0 0 C7.26 0 14.52 0 22 0 C22 5.94 22 11.88 22 18 C14.74 18 7.48 18 0 18 C0 12.06 0 6.12 0 0 Z " fill="#E87F44" transform="translate(25,49)"/>
<path d="M0 0 C3.63 0 7.26 0 11 0 C11.33 1.98 11.66 3.96 12 6 C11.34 6 10.68 6 10 6 C10 7.98 10 9.96 10 12 C10.66 12.33 11.32 12.66 12 13 C11.67 14.65 11.34 16.3 11 18 C7.37 18 3.74 18 0 18 C0 12.06 0 6.12 0 0 Z " fill="#F3BA63" transform="translate(78,69)"/>
<path d="M0 0 C3.63 0 7.26 0 11 0 C11.33 1.98 11.66 3.96 12 6 C11.34 6 10.68 6 10 6 C10 7.98 10 9.96 10 12 C10.66 12.33 11.32 12.66 12 13 C11.67 14.65 11.34 16.3 11 18 C7.37 18 3.74 18 0 18 C0 12.06 0 6.12 0 0 Z " fill="#F3BA63" transform="translate(25,49)"/>
<path d="M0 0 C3.44 0.94 3.44 0.94 5.38 2.06 C6.44 3.94 6.44 3.94 6.44 10.94 C1.82 10.94 -2.8 10.94 -7.56 10.94 C-7.56 3.94 -7.56 3.94 -6 1.44 C-3.56 -0.06 -3.56 -0.06 0 0 Z " fill="#B4BBC7" transform="translate(89.5625,58.0625)"/>
<path d="M0 0 C3.44 0.94 3.44 0.94 5.38 2.06 C6.44 3.94 6.44 3.94 6.44 10.94 C1.82 10.94 -2.8 10.94 -7.56 10.94 C-7.56 3.94 -7.56 3.94 -6 1.44 C-3.56 -0.06 -3.56 -0.06 0 0 Z " fill="#B4BBC7" transform="translate(36.5625,38.0625)"/>
<path d="M0 0 C0 1.32 0 2.64 0 4 C-0.99 4.49 -0.99 4.49 -2 5 C-2.66 7.53 -2.66 7.53 -3 10 C-4.32 10 -5.64 10 -7 10 C-7.36 3.56 -7.36 3.56 -5.75 1.06 C-4 0 -4 0 0 0 Z " fill="#E9ECF3" transform="translate(89,59)"/>
<path d="M0 0 C0 1.32 0 2.64 0 4 C-0.99 4.49 -0.99 4.49 -2 5 C-2.66 7.53 -2.66 7.53 -3 10 C-4.32 10 -5.64 10 -7 10 C-7.36 3.56 -7.36 3.56 -5.75 1.06 C-4 0 -4 0 0 0 Z " fill="#E9ECF3" transform="translate(36,39)"/>
<path d="M0 0 C1.68 0.29 3.34 0.62 5 1 C5 2.65 5 4.3 5 6 C3.02 6 1.04 6 -1 6 C-1.04 4.33 -1.04 2.67 -1 1 C-0.67 0.67 -0.34 0.34 0 0 Z " fill="#4C75A3" transform="translate(87,63)"/>
<path d="M0 0 C1.68 0.29 3.34 0.62 5 1 C5 2.65 5 4.3 5 6 C3.02 6 1.04 6 -1 6 C-1.04 4.33 -1.04 2.67 -1 1 C-0.67 0.67 -0.34 0.34 0 0 Z " fill="#4C75A3" transform="translate(34,43)"/>
<path d="M0 0 C0.66 0 1.32 0 2 0 C2 1.98 2 3.96 2 6 C1.01 6 0.02 6 -1 6 C-1.04 4.33 -1.04 2.67 -1 1 C-0.67 0.67 -0.34 0.34 0 0 Z " fill="#70AFF6" transform="translate(87,63)"/>
<path d="M0 0 C0.66 0 1.32 0 2 0 C2 1.98 2 3.96 2 6 C1.01 6 0.02 6 -1 6 C-1.04 4.33 -1.04 2.67 -1 1 C-0.67 0.67 -0.34 0.34 0 0 Z " fill="#70AFF6" transform="translate(34,43)"/>
</svg>
