<?xml version="1.0" encoding="UTF-8"?>
<!-- Generator: visioncortex VTracer 0.6.4 -->
<svg version="1.1" xmlns="http://www.w3.org/2000/svg" width="256" height="256">
<path d="M0 0 C0.88 -0.01 1.77 -0.01 2.68 -0.02 C5.63 -0.03 8.58 -0.02 11.53 -0.01 C13.65 -0.02 15.77 -0.02 17.89 -0.03 C23.64 -0.05 29.39 -0.04 35.15 -0.03 C41.17 -0.02 47.18 -0.03 53.2 -0.03 C63.31 -0.04 73.42 -0.03 83.53 -0.01 C95.21 0.01 106.9 0 118.59 -0.02 C128.62 -0.04 138.65 -0.04 148.69 -0.03 C154.68 -0.02 160.67 -0.02 166.67 -0.04 C172.3 -0.05 177.93 -0.04 183.57 -0.02 C185.64 -0.01 187.7 -0.01 189.77 -0.02 C192.59 -0.03 195.41 -0.02 198.24 0 C199.06 -0.01 199.88 -0.02 200.72 -0.03 C205.98 0.05 208.92 1.08 213.12 4.51 C218.56 10.67 217.7 19.19 217.65 26.89 C217.65 28.28 217.66 29.67 217.66 31.06 C217.67 33.96 217.66 36.86 217.64 39.75 C217.62 43.46 217.63 47.16 217.65 50.87 C217.67 53.73 217.66 56.59 217.65 59.46 C217.65 60.82 217.65 62.19 217.66 63.56 C217.67 65.47 217.66 67.37 217.64 69.28 C217.63 70.37 217.63 71.45 217.63 72.57 C217 76.22 215.72 77.91 213.12 80.51 C210.28 81.08 210.28 81.08 207.04 81 C205.99 80.98 204.95 80.97 203.87 80.96 C201.89 80.89 201.89 80.89 199.87 80.82 C195.66 80.72 191.45 80.61 187.12 80.51 C187.12 96.68 187.12 112.85 187.12 129.51 C188.77 130.17 190.42 130.83 192.12 131.51 C193.88 132.47 195.62 133.46 197.35 134.48 C198.32 135.05 199.28 135.62 200.28 136.21 C201.28 136.8 202.28 137.4 203.31 138.01 C204.32 138.6 205.33 139.2 206.37 139.81 C213.86 144.25 213.86 144.25 216.12 146.51 C217.29 154.36 213.91 159.39 209.99 166.01 C209.37 167.12 208.75 168.23 208.11 169.37 C205.05 174.78 201.92 179.9 198.11 184.79 C186.31 200.7 186.71 216.03 187.11 235.22 C187.13 236.25 187.15 237.29 187.17 238.35 C187.21 240.31 187.28 242.28 187.37 244.24 C187.39 245.12 187.42 246 187.44 246.91 C187.49 248.07 187.49 248.07 187.54 249.25 C186.91 252.63 185.58 254.12 183.12 256.51 C180.26 257.01 178 257.18 175.15 257.14 C174.34 257.14 173.53 257.15 172.7 257.16 C169.98 257.18 167.27 257.16 164.55 257.14 C162.61 257.14 160.66 257.15 158.72 257.16 C153.43 257.18 148.15 257.17 142.86 257.15 C137.34 257.13 131.81 257.14 126.28 257.14 C117 257.15 107.72 257.13 98.44 257.1 C87.71 257.07 76.97 257.07 66.23 257.09 C55.91 257.11 45.59 257.1 35.27 257.08 C30.88 257.08 26.48 257.08 22.09 257.08 C16.91 257.09 11.74 257.08 6.57 257.05 C4.66 257.04 2.76 257.04 0.86 257.05 C-1.73 257.06 -4.32 257.04 -6.91 257.02 C-7.67 257.03 -8.42 257.04 -9.2 257.05 C-12.55 256.99 -14.56 256.73 -17.35 254.81 C-19.22 252 -19.35 250.48 -19.29 247.12 C-19.28 246.03 -19.27 244.93 -19.26 243.81 C-19.23 242.61 -19.2 241.42 -19.17 240.19 C-19.15 238.25 -19.13 236.31 -19.1 234.37 C-19.08 232.29 -19.04 230.21 -19 228.13 C-18.92 223.78 -18.89 219.44 -18.86 215.09 C-18.85 213.6 -18.85 212.11 -18.84 210.62 C-18.83 209.87 -18.83 209.13 -18.82 208.36 C-18.76 198.24 -18.65 188.13 -18.47 178.01 C-18.34 171.18 -18.27 164.36 -18.27 157.53 C-18.27 153.92 -18.23 150.31 -18.13 146.7 C-17.01 132.33 -17.01 132.33 -21.48 119.35 C-25.29 115.97 -29.44 114.07 -34.16 112.29 C-36.59 111.19 -37.71 109.88 -38.88 107.51 C-38.73 102.11 -37.05 98.42 -34.35 93.8 C-34.01 93.2 -33.66 92.6 -33.3 91.97 C-32.19 90.06 -31.07 88.16 -29.94 86.26 C-29.19 84.97 -28.44 83.68 -27.7 82.38 C-22.49 73.42 -22.49 73.42 -19.88 69.51 C-19.58 66.86 -19.58 66.86 -19.63 63.85 C-19.62 62.1 -19.62 62.1 -19.6 60.33 C-19.61 59.07 -19.61 57.81 -19.61 56.52 C-19.59 54.55 -19.58 52.57 -19.56 50.6 C-19.52 45.74 -19.51 40.87 -19.5 36 C-19.5 33.27 -19.48 30.54 -19.46 27.82 C-19.43 25.25 -19.43 22.68 -19.44 20.11 C-19.31 9.07 -19.31 9.07 -14.88 4.51 C-9.83 0.38 -6.25 -0.07 0 0 Z " fill="#D00351" transform="translate(38.88134765625,-0.5079345703125)"/>
<path d="M0 0 C3.63 0.82 6.37 2.2 9.6 4.07 C11.28 5.03 11.28 5.03 12.98 6.01 C14.2 6.72 15.41 7.42 16.62 8.12 C17.89 8.85 19.15 9.58 20.41 10.3 C23.65 12.17 26.89 14.04 30.13 15.92 C32.99 17.57 35.85 19.22 38.72 20.87 C42.97 23.32 47.22 25.78 51.47 28.23 C55.48 30.55 59.49 32.85 63.51 35.14 C65.94 36.53 68.37 37.92 70.8 39.31 C72.53 40.29 74.26 41.27 75.99 42.25 C77.03 42.85 78.06 43.44 79.13 44.05 C80.05 44.57 80.97 45.1 81.91 45.63 C84 47 84 47 85 49 C84.07 49.01 84.07 49.01 83.13 49.01 C76.7 49.05 70.28 49.12 63.86 49.21 C61.46 49.24 59.06 49.26 56.66 49.27 C53.22 49.29 49.77 49.34 46.33 49.39 C44.72 49.39 44.72 49.39 43.08 49.39 C42.08 49.41 41.08 49.43 40.04 49.45 C39.16 49.46 38.29 49.47 37.38 49.48 C34.19 50.18 32.96 51.44 31 54 C30.91 57.63 30.91 57.63 32 61 C35.76 63.51 37.57 63.19 42.06 63.06 C43.54 63.03 45.03 63 46.51 62.97 C47.3 62.95 48.09 62.93 48.91 62.91 C53.14 62.81 57.38 62.79 61.62 62.75 C66.99 62.7 72.36 62.64 77.73 62.48 C101.71 61.79 118.18 63.78 138.01 77.93 C143 81.39 148.29 84.32 153.56 87.31 C159.23 90.6 164.87 93.91 170.47 97.32 C171.33 97.83 172.19 98.35 173.08 98.88 C174.68 99.84 176.27 100.82 177.85 101.8 C182.32 104.47 185.65 106 191 105 C195.01 101.3 197.49 95.91 200.19 91.19 C201.07 89.64 201.96 88.09 202.86 86.54 C203.24 85.86 203.63 85.18 204.03 84.48 C204.35 83.99 204.67 83.5 205 83 C205.33 83 205.66 83 206 83 C206.1 89.6 206.17 96.2 206.22 102.81 C206.24 105.05 206.27 107.3 206.3 109.54 C206.35 112.77 206.37 116 206.39 119.23 C206.41 120.23 206.43 121.23 206.45 122.27 C206.45 123.21 206.45 124.15 206.45 125.12 C206.46 125.94 206.47 126.77 206.48 127.61 C205.79 131.05 204.52 132.56 202 135 C199.15 135.5 196.88 135.67 194.03 135.63 C193.22 135.64 192.41 135.64 191.58 135.65 C188.86 135.67 186.15 135.65 183.43 135.63 C181.49 135.64 179.54 135.64 177.6 135.65 C172.31 135.67 167.03 135.66 161.74 135.64 C156.22 135.62 150.69 135.63 145.17 135.64 C135.88 135.64 126.6 135.62 117.32 135.6 C106.59 135.56 95.85 135.56 85.12 135.58 C74.8 135.6 64.48 135.59 54.16 135.57 C49.76 135.57 45.36 135.57 40.97 135.58 C35.8 135.58 30.62 135.57 25.45 135.54 C23.55 135.54 21.64 135.54 19.74 135.54 C17.15 135.55 14.56 135.54 11.97 135.51 C11.21 135.52 10.46 135.53 9.68 135.54 C6.33 135.49 4.32 135.22 1.53 133.31 C-0.34 130.49 -0.49 128.92 -0.48 125.55 C-0.49 124.44 -0.49 123.33 -0.5 122.19 C-0.48 120.98 -0.47 119.77 -0.45 118.52 C-0.45 117.24 -0.46 115.96 -0.46 114.65 C-0.46 111.14 -0.43 107.64 -0.41 104.14 C-0.38 100.48 -0.38 96.82 -0.37 93.16 C-0.36 86.23 -0.33 79.3 -0.29 72.37 C-0.24 64.48 -0.22 56.58 -0.2 48.69 C-0.16 32.46 -0.09 16.23 0 0 Z " fill="#FEF4F4" transform="translate(20,121)"/>
<path d="M0 0 C0.88 -0.01 1.77 -0.01 2.68 -0.02 C5.63 -0.03 8.58 -0.02 11.53 -0.01 C13.65 -0.02 15.77 -0.02 17.89 -0.03 C23.64 -0.05 29.39 -0.04 35.15 -0.03 C41.17 -0.02 47.18 -0.03 53.2 -0.03 C63.31 -0.04 73.42 -0.03 83.53 -0.01 C95.21 0.01 106.9 0 118.59 -0.02 C128.62 -0.04 138.65 -0.04 148.69 -0.03 C154.68 -0.02 160.67 -0.02 166.67 -0.04 C172.3 -0.05 177.93 -0.04 183.57 -0.02 C185.64 -0.01 187.7 -0.01 189.77 -0.02 C192.59 -0.03 195.41 -0.02 198.24 0 C199.06 -0.01 199.88 -0.02 200.72 -0.03 C205.98 0.05 208.92 1.08 213.12 4.51 C218.56 10.67 217.7 19.19 217.65 26.89 C217.65 28.28 217.66 29.67 217.66 31.06 C217.67 33.96 217.66 36.86 217.64 39.75 C217.62 43.46 217.63 47.16 217.65 50.87 C217.67 53.73 217.66 56.59 217.65 59.46 C217.65 60.82 217.65 62.19 217.66 63.56 C217.67 65.47 217.66 67.37 217.64 69.28 C217.63 70.37 217.63 71.45 217.63 72.57 C217 76.22 215.72 77.91 213.12 80.51 C210.28 81.08 210.28 81.08 207.04 81 C205.99 80.98 204.95 80.97 203.87 80.96 C201.89 80.89 201.89 80.89 199.87 80.82 C195.66 80.72 191.45 80.61 187.12 80.51 C187.12 96.68 187.12 112.85 187.12 129.51 C175.88 123.89 175.88 123.89 171.88 121.52 C170.97 120.99 170.06 120.45 169.13 119.9 C168.18 119.34 167.22 118.78 166.24 118.2 C157.03 112.78 147.78 107.43 138.49 102.13 C137.37 101.49 136.25 100.85 135.09 100.19 C132.9 98.94 130.7 97.69 128.51 96.44 C122.71 93.14 116.92 89.82 111.12 86.51 C111.12 86.18 111.12 85.85 111.12 85.51 C112.34 85.48 113.57 85.46 114.83 85.43 C119.38 85.34 123.93 85.24 128.47 85.14 C130.44 85.09 132.41 85.05 134.38 85.01 C137.2 84.95 140.03 84.89 142.86 84.82 C143.74 84.81 144.62 84.79 145.53 84.77 C146.35 84.75 147.17 84.73 148.01 84.71 C148.74 84.7 149.46 84.68 150.2 84.67 C152.34 84.57 152.34 84.57 155.12 83.51 C155.12 79.88 155.12 76.25 155.12 72.51 C151.76 71.39 149.36 71.44 145.82 71.52 C143.87 71.56 143.87 71.56 141.87 71.6 C141.18 71.62 140.48 71.63 139.76 71.64 C135.21 71.73 130.67 71.74 126.13 71.76 C122.16 71.78 118.21 71.83 114.24 71.94 C92.66 72.48 76.4 71.08 59.12 56.51 C59.12 56.18 59.12 55.85 59.12 55.51 C60.28 55.5 61.44 55.49 62.63 55.48 C73.53 55.38 84.44 55.28 95.34 55.17 C100.95 55.11 106.55 55.06 112.16 55.01 C117.57 54.96 122.97 54.91 128.38 54.85 C130.45 54.83 132.51 54.82 134.58 54.8 C137.47 54.77 140.35 54.74 143.24 54.71 C144.1 54.71 144.96 54.7 145.84 54.7 C149.18 54.65 151.93 54.57 155.12 53.51 C155.12 49.88 155.12 46.25 155.12 42.51 C152.18 41.53 150.35 41.4 147.29 41.42 C146.3 41.43 145.3 41.44 144.28 41.44 C143.19 41.45 142.1 41.47 140.97 41.48 C138.59 41.49 136.2 41.51 133.82 41.52 C131.91 41.54 131.91 41.54 129.97 41.55 C125.99 41.58 122.02 41.59 118.04 41.59 C117.36 41.6 116.69 41.6 116 41.6 C113.22 41.6 110.44 41.6 107.66 41.6 C99.8 41.61 91.94 41.63 84.08 41.71 C77.83 41.77 71.59 41.79 65.34 41.77 C62.04 41.76 58.74 41.77 55.44 41.83 C39.86 42.05 28.79 41.04 15.87 31.87 C12.53 29.55 10.26 28.84 6.12 29.51 C4.4 30.7 4.4 30.7 3.26 32.61 C2.51 33.71 2.51 33.71 1.76 34.83 C-1.66 40.42 -4.88 46.1 -8.07 51.82 C-9.14 53.73 -10.2 55.65 -11.28 57.56 C-12.25 59.28 -13.21 61 -14.17 62.72 C-15.62 65.08 -16.91 66.63 -18.88 68.51 C-18.97 61.05 -19.05 53.59 -19.09 46.13 C-19.11 42.67 -19.14 39.2 -19.18 35.74 C-19.24 31.75 -19.25 27.77 -19.27 23.78 C-19.29 22.54 -19.31 21.31 -19.33 20.03 C-19.34 9.1 -19.34 9.1 -14.88 4.51 C-9.83 0.38 -6.25 -0.07 0 0 Z " fill="#DFDDF4" transform="translate(38.88134765625,-0.5079345703125)"/>
<path d="M0 0 C3.49 0.68 6.18 2.07 9.26 3.81 C10.29 4.39 11.32 4.96 12.37 5.56 C13.47 6.18 14.56 6.8 15.69 7.44 C16.82 8.08 17.95 8.71 19.12 9.37 C25.92 13.22 32.68 17.12 39.4 21.1 C45.82 24.91 52.28 28.65 58.75 32.38 C59.85 33.01 60.96 33.65 62.09 34.3 C67.47 37.41 72.86 40.49 78.27 43.56 C79.24 44.11 80.21 44.66 81.2 45.23 C83.03 46.26 84.85 47.29 86.68 48.32 C87.49 48.78 88.29 49.24 89.12 49.71 C89.83 50.1 90.53 50.5 91.26 50.91 C93 52 93 52 95 54 C94.34 54 93.68 54 93 54 C92.71 54.72 92.42 55.44 92.12 56.19 C91.08 58.79 90.04 61.4 89 64 C90.49 64.5 90.49 64.5 92 65 C93.07 73.21 89.45 78.4 85.25 85.25 C84.62 86.33 83.98 87.4 83.33 88.51 C77.69 97.93 77.69 97.93 74 101 C70.25 101.25 70.25 101.25 67 101 C65.35 104.3 63.7 107.6 62 111 C60.75 110.14 59.51 109.29 58.22 108.41 C52.79 104.79 47.15 101.64 41.44 98.5 C31.93 93.22 22.5 87.84 13.13 82.34 C7.78 79.2 2.41 76.08 -2.97 73 C-3.55 72.66 -4.14 72.33 -4.74 71.98 C-7.55 70.37 -10.37 68.76 -13.19 67.15 C-19.28 63.65 -25.21 60 -31 56 C-29.66 52.46 -28.09 49.19 -26.23 45.89 C-25.68 44.9 -25.13 43.91 -24.56 42.89 C-23.96 41.83 -23.36 40.78 -22.75 39.69 C-22.14 38.6 -21.52 37.5 -20.89 36.38 C-14.77 25.53 -8.5 14.77 -2.18 4.03 C-1.41 2.71 -0.68 1.37 0 0 Z " fill="#FE425D" transform="translate(50,46)"/>
<path d="M0 0 C4.13 0.48 5.97 1.9 9.29 4.26 C22.42 13.37 35.15 12.85 50.63 12.55 C53.3 12.55 55.98 12.54 58.66 12.55 C64.93 12.54 71.2 12.49 77.48 12.41 C88.75 12.28 100.02 12.23 111.29 12.2 C115.87 12.19 120.45 12.14 125.03 12.08 C127.42 12.06 129.8 12.05 132.18 12.03 C133.82 12 133.82 12 135.48 11.96 C142.77 11.95 142.77 11.95 146.12 14.21 C148.08 17.45 147.98 19.69 147.44 23.4 C145.96 25.59 145.96 25.59 143.44 27.4 C140.39 27.8 137.69 27.97 134.64 27.95 C133.75 27.96 132.86 27.97 131.95 27.98 C129.01 28.01 126.08 28.01 123.15 28.01 C121.11 28.03 119.08 28.04 117.04 28.06 C111.69 28.1 106.34 28.12 100.99 28.14 C95.52 28.16 90.06 28.2 84.6 28.24 C73.88 28.32 63.16 28.37 52.44 28.4 C70.14 42.71 86.07 43.13 107.71 42.52 C113.98 42.36 120.25 42.32 126.52 42.28 C128.69 42.25 130.86 42.19 133.04 42.13 C134.35 42.11 135.66 42.09 137.01 42.06 C138.16 42.03 139.31 42 140.49 41.97 C143.44 42.4 143.44 42.4 145.82 44.2 C148.18 47.4 148 49.53 147.44 53.4 C145.8 55.83 144.51 57.18 141.58 57.78 C139.22 57.96 136.89 58.01 134.52 58.01 C133.66 58.03 132.8 58.04 131.92 58.06 C129.18 58.11 126.44 58.13 123.69 58.15 C121.83 58.18 119.97 58.21 118.11 58.24 C113.56 58.32 109 58.37 104.44 58.4 C100.98 64.84 100.98 64.84 97.44 71.4 C93.04 69.93 89.97 68.72 86.09 66.45 C85.07 65.86 84.05 65.27 83 64.66 C81.36 63.69 81.36 63.69 79.69 62.71 C78.54 62.04 77.38 61.36 76.22 60.69 C73.82 59.29 71.42 57.89 69.02 56.49 C63.51 53.27 57.97 50.09 52.44 46.9 C46.36 43.39 40.27 39.88 34.19 36.36 C32.43 35.34 30.67 34.32 28.91 33.31 C26.72 32.04 24.53 30.77 22.33 29.5 C15.76 25.7 9.13 22.01 2.44 18.4 C2.24 19.17 2.04 19.93 1.84 20.72 C-0.13 25.93 -2.96 30.5 -5.81 35.28 C-6.42 36.32 -7.03 37.36 -7.66 38.43 C-10.96 44.04 -14.29 49.63 -17.63 55.21 C-18.28 56.3 -18.92 57.39 -19.59 58.51 C-20.84 60.62 -22.1 62.72 -23.37 64.82 C-23.94 65.77 -24.5 66.72 -25.08 67.7 C-25.59 68.54 -26.09 69.38 -26.61 70.24 C-27.89 72.51 -27.89 72.51 -26.56 75.4 C-24.66 76.8 -24.66 76.8 -22.27 78.05 C-20.9 78.8 -20.9 78.8 -19.51 79.57 C-18.02 80.39 -18.02 80.39 -16.49 81.21 C-14.37 82.39 -12.25 83.57 -10.13 84.75 C-9.03 85.35 -7.94 85.96 -6.81 86.58 C-1.79 89.39 3.17 92.3 8.13 95.21 C17.05 100.45 26.02 105.6 35.01 110.71 C44.56 116.15 54.07 121.66 63.44 127.4 C61.87 132.36 59.83 136.8 57.44 141.4 C50.29 137.94 43.41 134.14 36.57 130.09 C26.89 124.4 17.17 118.81 7.41 113.26 C-1.23 108.35 -9.79 103.33 -18.25 98.12 C-22.58 95.47 -26.87 93.37 -31.56 91.4 C-33.83 90.14 -36.08 88.82 -38.31 87.46 C-39.97 86.46 -39.97 86.46 -41.66 85.44 C-46.19 82.25 -46.19 82.25 -47.56 79.4 C-47.19 74.11 -45.82 70.47 -43.17 65.91 C-42.83 65.32 -42.49 64.73 -42.14 64.12 C-41.06 62.25 -39.96 60.39 -38.87 58.53 C-38.15 57.29 -37.44 56.05 -36.72 54.8 C-33.78 49.72 -30.81 44.69 -27.5 39.84 C-22.94 33.13 -19.1 25.97 -15.12 18.91 C-4.78 0.75 -4.78 0.75 0 0 Z " fill="#FE6B6B" transform="translate(47.55540466308594,27.598251342773438)"/>
<path d="M0 0 C3.81 0.58 6.53 1.66 9.82 3.63 C10.76 4.18 11.69 4.74 12.65 5.3 C14.15 6.21 14.15 6.21 15.69 7.12 C17.85 8.41 20.02 9.69 22.18 10.96 C23.3 11.63 24.42 12.29 25.58 12.98 C31.13 16.26 36.72 19.47 42.31 22.69 C44.49 23.94 46.66 25.19 48.84 26.45 C49.87 27.04 50.91 27.64 51.98 28.26 C54.82 29.89 57.65 31.54 60.48 33.18 C69.99 38.73 69.99 38.73 79.62 44.06 C84.5 46.69 89.28 49.46 94.06 52.25 C94.81 52.69 95.57 53.12 96.34 53.57 C97.4 54.2 97.4 54.2 98.47 54.83 C99.1 55.2 99.74 55.57 100.39 55.95 C102 57 102 57 104 59 C105.16 66.82 101.85 71.84 97.94 78.44 C97.31 79.53 96.68 80.61 96.04 81.74 C94.04 85.17 92.03 88.59 90 92 C89.36 93.08 88.72 94.16 88.06 95.28 C84.34 101.55 80.58 107.79 76.8 114.02 C75.02 116.97 73.25 119.94 71.49 122.91 C70.94 123.83 70.4 124.76 69.83 125.71 C68.81 127.44 67.78 129.17 66.77 130.9 C66.31 131.66 65.86 132.42 65.39 133.21 C65 133.87 64.61 134.54 64.2 135.22 C62.08 138.36 60.85 139.83 57.05 140.6 C51.12 140.31 46.11 136.43 41.19 133.44 C40.04 132.76 38.89 132.07 37.74 131.4 C35.35 129.98 32.97 128.56 30.59 127.13 C24.95 123.77 19.25 120.52 13.56 117.25 C11.58 116.11 9.61 114.97 7.63 113.83 C6.57 113.25 5.52 112.67 4.43 112.07 C1.89 110.62 -0.33 108.97 -2.61 107.13 C-18.13 95.42 -36.69 97.69 -55.17 98.07 C-62.31 98.21 -69.45 98.27 -76.6 98.3 C-79.07 98.32 -81.55 98.38 -84.03 98.44 C-85.54 98.45 -87.06 98.47 -88.57 98.48 C-90.55 98.52 -90.55 98.52 -92.57 98.57 C-96.9 97.85 -98.38 96.47 -101 93 C-101.06 89.38 -101.06 89.38 -100 86 C-97.05 83.16 -94.99 82.63 -90.96 82.66 C-89.96 82.66 -88.95 82.66 -87.92 82.66 C-86.31 82.68 -86.31 82.68 -84.67 82.71 C-83.57 82.71 -82.46 82.72 -81.33 82.72 C-77.8 82.74 -74.28 82.77 -70.75 82.81 C-68.36 82.83 -65.97 82.84 -63.58 82.85 C-57.72 82.89 -51.86 82.94 -46 83 C-45.85 82.05 -45.71 81.11 -45.55 80.13 C-44.81 75.93 -43.36 73.54 -41 70 C-38 69 -38 69 -35.47 70.13 C-34.47 70.72 -33.46 71.31 -32.43 71.91 C-31.3 72.56 -30.17 73.22 -29 73.89 C-27.77 74.61 -26.54 75.34 -25.31 76.06 C-24.04 76.8 -22.77 77.54 -21.49 78.28 C-18.26 80.16 -15.04 82.04 -11.81 83.94 C-9.14 85.5 -6.47 87.06 -3.79 88.62 C-0.9 90.31 1.99 92 4.89 93.69 C14.01 99.03 23.19 104.27 32.39 109.5 C38.35 112.89 44.26 116.33 50.08 119.95 C51.93 121.16 51.93 121.16 54 121 C54.41 120.29 54.81 119.58 55.23 118.84 C65.11 101.53 75.03 84.25 85 67 C81.59 64.15 78.17 61.82 74.3 59.64 C73.19 59 72.07 58.37 70.93 57.72 C70.04 57.23 70.04 57.23 69.14 56.72 C66.63 55.31 64.13 53.88 61.62 52.46 C60.32 51.72 59.03 50.99 57.73 50.25 C51.43 46.68 45.15 43.06 38.88 39.44 C36.75 38.21 34.63 36.98 32.51 35.76 C31.45 35.15 30.39 34.54 29.31 33.91 C26.41 32.24 23.52 30.57 20.62 28.91 C18.24 27.54 15.85 26.17 13.47 24.8 C11.8 23.84 10.12 22.88 8.45 21.92 C3.52 19.09 -1.33 16.24 -6 13 C-5.52 7.85 -2.81 4.18 0 0 Z " fill="#FE405C" transform="translate(151,87)"/>
<path d="M0 0 C11.25 0 11.25 0 16.26 3.01 C17.37 3.66 18.47 4.31 19.62 4.98 C20.79 5.69 21.96 6.41 23.12 7.12 C24.36 7.86 25.59 8.59 26.83 9.32 C29.35 10.81 31.86 12.31 34.36 13.81 C39.72 17.04 45.15 20.17 50.56 23.31 C56.22 26.6 61.87 29.91 67.47 33.32 C68.33 33.83 69.19 34.35 70.08 34.88 C71.68 35.84 73.27 36.82 74.85 37.8 C79.32 40.47 82.65 42 88 41 C92.01 37.3 94.49 31.91 97.19 27.19 C98.07 25.64 98.96 24.09 99.86 22.54 C100.24 21.86 100.63 21.18 101.03 20.48 C101.51 19.75 101.51 19.75 102 19 C102.33 19 102.66 19 103 19 C103.1 25.6 103.17 32.2 103.22 38.81 C103.24 41.05 103.27 43.3 103.3 45.54 C103.35 48.77 103.37 52 103.39 55.23 C103.41 56.23 103.43 57.23 103.45 58.27 C103.45 59.68 103.45 59.68 103.45 61.12 C103.46 61.94 103.47 62.77 103.48 63.61 C102.77 67.15 101.74 68.62 99 71 C95.82 71.72 92.71 71.63 89.46 71.57 C88.01 71.57 88.01 71.57 86.53 71.57 C83.34 71.57 80.15 71.53 76.95 71.49 C74.74 71.48 72.53 71.47 70.31 71.47 C64.48 71.45 58.66 71.4 52.83 71.34 C45.84 71.28 38.85 71.26 31.86 71.23 C21.24 71.18 10.62 71.09 0 71 C0 47.57 0 24.14 0 0 Z " fill="#DFDDF4" transform="translate(123,185)"/>
<path d="M0 0 C0.91 -0 1.82 -0 2.75 -0 C5.74 0 8.72 0.03 11.71 0.06 C13.79 0.07 15.86 0.08 17.94 0.08 C23.4 0.1 28.85 0.14 34.3 0.18 C39.88 0.22 45.45 0.24 51.02 0.26 C61.94 0.3 72.86 0.37 83.78 0.45 C83.78 13.65 83.78 26.85 83.78 40.45 C76.58 40.71 69.39 40.93 62.18 41.06 C59.74 41.11 57.3 41.19 54.86 41.28 C39.3 41.88 28.44 41 15.55 31.84 C12.89 30 11.75 29.45 8.45 28.92 C5.36 29.54 4.65 29.99 2.92 32.56 C2.18 33.66 2.18 33.66 1.42 34.78 C-2 40.36 -5.22 46.05 -8.41 51.77 C-9.47 53.68 -10.54 55.59 -11.62 57.5 C-12.58 59.22 -13.54 60.95 -14.5 62.67 C-15.95 65.02 -17.25 66.58 -19.22 68.45 C-19.31 61 -19.38 53.54 -19.43 46.08 C-19.45 42.61 -19.47 39.15 -19.52 35.69 C-19.57 31.7 -19.59 27.71 -19.61 23.73 C-19.63 22.49 -19.65 21.25 -19.67 19.98 C-19.67 9.04 -19.67 9.04 -15.22 4.45 C-10.09 0.22 -6.36 -0.11 0 0 Z " fill="#FFF4F4" transform="translate(39.21826171875,-0.4541015625)"/>
<path d="M0 0 C5.42 5.04 6.91 9.9 7.21 17.11 C7.23 19.71 7.24 22.29 7.22 24.89 C7.22 26.28 7.23 27.66 7.23 29.05 C7.24 31.95 7.23 34.85 7.21 37.75 C7.19 41.45 7.2 45.16 7.22 48.86 C7.24 51.72 7.23 54.59 7.22 57.45 C7.22 58.82 7.22 60.18 7.23 61.55 C7.24 63.46 7.22 65.37 7.21 67.28 C7.2 68.9 7.2 68.9 7.2 70.56 C6.55 74.31 5.5 75.95 2.69 78.5 C-0.25 79.07 -0.25 79.07 -3.61 78.99 C-4.81 78.97 -6.02 78.96 -7.26 78.94 C-8.52 78.9 -9.77 78.86 -11.06 78.81 C-12.33 78.79 -13.6 78.77 -14.91 78.74 C-18.05 78.69 -21.18 78.6 -24.31 78.5 C-24.38 69.89 -24.44 61.27 -24.47 52.66 C-24.48 48.65 -24.5 44.65 -24.54 40.65 C-24.57 36.79 -24.59 32.92 -24.6 29.06 C-24.6 27.59 -24.61 26.12 -24.63 24.65 C-24.65 22.58 -24.65 20.51 -24.65 18.45 C-24.66 17.27 -24.67 16.1 -24.67 14.89 C-24.19 10.31 -22.87 6.31 -19.81 2.76 C-13.57 -1.96 -7.27 -3.29 0 0 Z " fill="#D2D0F2" transform="translate(249.3125,1.5)"/>
<path d="M0 0 C15.45 -0.09 30.89 -0.16 46.34 -0.21 C53.51 -0.23 60.68 -0.26 67.86 -0.3 C74.11 -0.34 80.36 -0.37 86.61 -0.38 C89.92 -0.38 93.23 -0.4 96.54 -0.42 C100.23 -0.45 103.93 -0.46 107.62 -0.45 C108.72 -0.47 109.82 -0.48 110.95 -0.5 C111.96 -0.49 112.96 -0.49 114 -0.48 C114.88 -0.48 115.75 -0.49 116.65 -0.49 C119.82 0.17 121.02 1.48 123 4 C123.54 7.79 123.7 9.97 121.52 13.18 C117.92 15.78 114.49 15.64 110.21 15.68 C108.87 15.71 108.87 15.71 107.51 15.75 C104.57 15.81 101.62 15.85 98.67 15.88 C97.66 15.9 96.64 15.91 95.6 15.92 C90.21 16 84.82 16.04 79.43 16.07 C75.01 16.1 70.6 16.17 66.18 16.28 C19.63 17.41 19.63 17.41 1.43 2.38 C0.96 1.93 0.49 1.47 0 1 C0 0.67 0 0.34 0 0 Z " fill="#453D83" transform="translate(72,40)"/>
<path d="M0 0 C6.73 2.21 12 7 16.03 12.67 C18.09 18.84 17.65 24.04 14.84 29.92 C12.71 33.8 10.44 36.78 7.03 39.67 C6.35 40.25 5.67 40.82 4.97 41.42 C0.59 44.24 -4.94 44.59 -9.97 43.67 C-15.38 41.19 -20.62 38.69 -23.97 33.67 C-23.68 28.91 -22.06 25.56 -19.7 21.46 C-19.37 20.9 -19.05 20.34 -18.71 19.76 C-18.03 18.57 -17.34 17.39 -16.65 16.22 C-15.59 14.42 -14.55 12.61 -13.52 10.79 C-6.55 -1.18 -6.55 -1.18 0 0 Z " fill="#DED9F1" transform="translate(197.96875,143.33203125)"/>
<path d="M0 0 C3.36 0.49 5.38 1.72 8.22 3.57 C9.15 4.17 10.08 4.76 11.04 5.37 C16.56 9.62 19.2 14.11 20.16 20.95 C19.98 27.56 16.35 34.26 12.1 39.2 C6.84 43.8 1.38 44.94 -5.41 44.84 C-10.46 44.06 -14.34 41.46 -18.34 38.39 C-18.95 37.97 -19.56 37.55 -20.18 37.12 C-21.34 35.39 -21.34 35.39 -21.12 32.16 C-20.31 28.24 -19.14 25.74 -17.07 22.34 C-16.41 21.25 -15.75 20.16 -15.07 19.03 C-14.37 17.91 -13.68 16.79 -12.96 15.64 C-12.27 14.49 -11.58 13.34 -10.89 12.2 C-3.84 0.63 -3.84 0.63 0 0 Z " fill="#FFF0F1" transform="translate(57.33984375,62.61328125)"/>
<path d="M0 0 C3.5 0.44 3.5 0.44 5.18 2.02 C6.95 5.27 6.98 7.94 7.12 11.62 C6.92 15.85 6.92 15.85 8.5 19.44 C8.85 18.87 9.2 18.31 9.56 17.72 C10.01 16.99 10.47 16.26 10.94 15.5 C11.39 14.77 11.84 14.04 12.31 13.29 C13.5 11.44 13.5 11.44 14.5 10.44 C18.53 10.17 20.06 10.14 23.5 12.44 C24.96 20.49 20.85 26.01 16.75 32.69 C16.12 33.76 15.48 34.84 14.83 35.95 C9.16 45.41 9.16 45.41 5.5 48.44 C1.88 48.38 1.88 48.38 -1.5 47.44 C-3.94 43.78 -4.17 40.5 -4.62 36.25 C-4.71 35.5 -4.8 34.75 -4.89 33.98 C-5.1 32.13 -5.3 30.29 -5.5 28.44 C-5.86 29.08 -6.23 29.71 -6.6 30.37 C-10.7 37.1 -10.7 37.1 -14.62 38.75 C-17.5 38.44 -17.5 38.44 -19.94 36.94 C-21.67 34.17 -21.75 32.84 -21.21 29.68 C-19.56 24.46 -16.43 19.85 -13.62 15.19 C-12.99 14.1 -12.35 13.01 -11.69 11.89 C-5.01 0.63 -5.01 0.63 0 0 Z " fill="#FEF1F1" transform="translate(118.5,98.5625)"/>
<path d="M0 0 C0.96 -0.04 1.93 -0.09 2.92 -0.13 C3.96 -0.16 5 -0.19 6.08 -0.22 C7.16 -0.26 8.25 -0.29 9.36 -0.33 C12.88 -0.41 16.39 -0.46 19.9 -0.5 C21.09 -0.51 22.27 -0.53 23.49 -0.54 C41.85 -0.65 55.43 0.8 69.78 13.16 C71.15 14.56 71.15 14.56 71.15 15.56 C61.33 15.68 51.51 15.77 41.68 15.82 C37.12 15.85 32.56 15.88 28 15.94 C23.6 15.99 19.2 16.02 14.79 16.04 C13.11 16.05 11.44 16.06 9.76 16.09 C7.4 16.13 5.05 16.13 2.7 16.13 C2 16.15 1.31 16.17 0.6 16.18 C-3.2 16.14 -4.78 15.61 -7.81 13.25 C-9.85 10.56 -9.85 10.56 -9.91 6.94 C-8.23 1.62 -5.41 0.23 0 0 Z " fill="#6055AF" transform="translate(59.8466796875,169.437255859375)"/>
<path d="M0 0 C1.78 -0.02 1.78 -0.02 3.59 -0.04 C5.5 -0.03 5.5 -0.03 7.46 -0.03 C8.77 -0.03 10.09 -0.04 11.44 -0.05 C14.22 -0.05 17 -0.05 19.78 -0.04 C23.33 -0.03 26.89 -0.05 30.44 -0.08 C33.84 -0.1 37.24 -0.1 40.64 -0.09 C41.92 -0.1 43.19 -0.11 44.51 -0.13 C45.69 -0.12 46.88 -0.11 48.11 -0.1 C49.15 -0.1 50.19 -0.1 51.27 -0.1 C54.88 0.54 56.56 1.81 59.12 4.4 C59.74 7.9 59.74 7.9 59.12 11.4 C55.56 15 53.13 15.91 48.12 15.94 C46.94 15.95 45.75 15.97 44.53 15.99 C43.26 15.98 41.99 15.98 40.68 15.97 C39.37 15.98 38.05 15.98 36.7 15.99 C33.93 16 31.15 16 28.38 15.98 C24.83 15.96 21.29 15.99 17.74 16.02 C14.34 16.05 10.95 16.04 7.55 16.03 C6.28 16.05 5.01 16.06 3.7 16.07 C-6.09 15.97 -6.09 15.97 -9.22 13.09 C-10.88 10.4 -10.88 10.4 -10.95 6.78 C-9.08 0.87 -5.89 0.03 0 0 Z " fill="#6056AF" transform="translate(60.882568359375,199.595947265625)"/>
<path d="M0 0 C3.59 1.27 6.71 2.8 9.99 4.73 C10.59 5.04 11.18 5.36 11.79 5.69 C13.48 6.7 13.48 6.7 16.12 9.1 C16.55 12.63 16.8 14.93 14.99 18.04 C12.19 19.63 10.3 19.48 7.12 19.1 C3.74 17.6 3.74 17.6 1.12 16.1 C2.79 17.85 4.19 19.14 6.3 20.35 C8.12 22.1 8.12 22.1 8.62 25.6 C8.12 29.1 8.12 29.1 6.49 31.1 C3.29 32.45 1.44 32 -1.88 31.1 C-4.26 30.04 -4.26 30.04 -5.88 29.1 C-6.21 29.76 -6.54 30.42 -6.88 31.1 C-5.74 31.53 -5.74 31.53 -4.57 31.98 C-1.88 33.1 -1.88 33.1 1.12 35.1 C1.49 38.52 1.75 41 -0.01 44.04 C-2.76 45.6 -4.75 45.37 -7.88 45.1 C-10.77 43.68 -10.77 43.68 -13.57 41.79 C-14.5 41.17 -15.43 40.56 -16.39 39.93 C-20.59 36.85 -20.59 36.85 -21.88 35.1 C-22.37 30.75 -21.19 28.29 -19 24.57 C-18.39 23.53 -17.78 22.49 -17.15 21.42 C-16.51 20.35 -15.86 19.27 -15.2 18.16 C-14.57 17.09 -13.94 16.02 -13.3 14.92 C-4.57 0.16 -4.57 0.16 0 0 Z " fill="#DED8F1" transform="translate(168.8828125,126.8984375)"/>
<path d="M0 0 C3.75 0.62 6.16 1.91 9.39 3.9 C10.95 4.84 10.95 4.84 12.53 5.8 C15.14 7.52 15.14 7.52 17.14 9.52 C17.52 12.96 17.52 12.96 17.14 16.52 C15.52 18.52 15.52 18.52 13.14 19.52 C9.14 19.27 5.79 18.13 2.14 16.52 C2.92 17.14 3.71 17.76 4.52 18.4 C7.14 20.52 7.14 20.52 9.14 22.52 C8.68 28.98 8.68 28.98 6.14 31.52 C1.29 32.07 -1.67 30.92 -5.86 28.52 C-4.04 30.44 -2.41 31.82 -0.17 33.27 C2.14 35.52 2.14 35.52 2.58 39.15 C2.14 42.52 2.14 42.52 0.14 44.52 C-6.44 45.81 -10.73 42.67 -16.29 39.35 C-18.86 37.52 -18.86 37.52 -20.86 34.52 C-21.43 30.17 -20.14 27.68 -17.94 23.96 C-17.32 22.92 -16.71 21.87 -16.08 20.8 C-15.43 19.72 -14.78 18.64 -14.11 17.52 C-13.48 16.44 -12.84 15.36 -12.19 14.25 C-4.2 0.77 -4.2 0.77 0 0 Z " fill="#FFF1F1" transform="translate(90.859375,82.4765625)"/>
<path d="M0 0 C8.67 -0.09 17.33 -0.16 26 -0.21 C30.02 -0.23 34.05 -0.26 38.07 -0.3 C41.96 -0.35 45.84 -0.37 49.72 -0.38 C51.21 -0.39 52.69 -0.4 54.17 -0.42 C56.24 -0.45 58.32 -0.46 60.4 -0.45 C61.58 -0.46 62.76 -0.47 63.98 -0.48 C67.64 0.1 68.81 1.04 71 4 C71.54 7.77 71.7 9.96 69.53 13.16 C65.83 15.85 62.52 15.76 58.05 15.88 C57.16 15.92 56.28 15.95 55.36 15.98 C52.49 16.07 49.62 16.1 46.75 16.12 C45.78 16.14 44.81 16.15 43.81 16.16 C26.43 16.25 13.21 13.15 0 1 C0 0.67 0 0.34 0 0 Z " fill="#463D83" transform="translate(124,70)"/>
<path d="M0 0 C16.83 0 33.66 0 51 0 C51 4.95 51 9.9 51 15 C30.53 16.99 16.4 13.92 0 1 C0 0.67 0 0.34 0 0 Z " fill="#6055AE" transform="translate(72,40)"/>
<path d="M0 0 C2.56 0.44 2.56 0.44 4.94 2.06 C6.56 4.44 6.56 4.44 6.37 7.2 C5.47 10.8 4.12 13.44 2.25 16.64 C1.93 17.2 1.6 17.77 1.26 18.35 C0.58 19.53 -0.12 20.71 -0.81 21.89 C-1.88 23.69 -2.93 25.5 -3.98 27.31 C-9.13 36.13 -9.13 36.13 -11.44 38.44 C-17.41 38.98 -17.41 38.98 -20.44 37.38 C-22.04 34.26 -21.12 31.8 -20.44 28.44 C-18.99 25.4 -18.99 25.4 -17.16 22.39 C-16.5 21.3 -15.84 20.21 -15.16 19.08 C-14.47 17.96 -13.78 16.84 -13.06 15.69 C-12.37 14.54 -11.68 13.39 -10.98 12.25 C-3.95 0.71 -3.95 0.71 0 0 Z " fill="#DED7F0" transform="translate(152.4375,117.5625)"/>
<path d="M0 0 C1.32 0.66 2.64 1.32 4 2 C5.07 10.21 1.45 15.4 -2.75 22.25 C-3.38 23.33 -4.02 24.4 -4.67 25.51 C-10.38 35.04 -10.38 35.04 -14 38 C-17.75 37.75 -17.75 37.75 -21 37 C-20.57 36.26 -20.15 35.51 -19.71 34.75 C-13.09 23.19 -6.55 11.6 0 0 Z " fill="#DFDAF1" transform="translate(138,109)"/>
<path d="M0 0 C8.25 0 16.5 0 25 0 C25 4.95 25 9.9 25 15 C22.92 13.8 20.83 12.61 18.69 11.38 C12.5 7.83 6.27 4.38 0 1 C0 0.67 0 0.34 0 0 Z " fill="#FFF2F2" transform="translate(98,55)"/>
<path d="M0 0 C3.88 1.88 3.88 1.88 5 3 C5.46 6.93 5.14 8.75 3.19 12.25 C1 15 1 15 -2 17 C-4.62 16.75 -4.62 16.75 -7 16 C-7.33 15.34 -7.66 14.68 -8 14 C-6.76 11.55 -5.47 9.23 -4.06 6.88 C-3.48 5.89 -3.48 5.89 -2.89 4.88 C-1.94 3.25 -0.97 1.62 0 0 Z " fill="#D00B57" transform="translate(197,158)"/>
<path d="M0 0 C3.88 1.88 3.88 1.88 5 3 C5.46 6.93 5.14 8.75 3.19 12.25 C1 15 1 15 -2 17 C-5.19 16.62 -5.19 16.62 -8 16 C-6.57 12.21 -4.84 8.73 -2.88 5.19 C-2.34 4.21 -1.8 3.24 -1.24 2.23 C-0.83 1.49 -0.42 0.76 0 0 Z " fill="#FF4863" transform="translate(59,78)"/>
<path d="M0 0 C3.96 1.98 3.96 1.98 8 4 C8 4.33 8 4.66 8 5 C5.36 5 2.72 5 0 5 C0 3.35 0 1.7 0 0 Z " fill="#4E3F84" transform="translate(123,180)"/>
<path d="M0 0 C2.47 0.5 2.47 0.5 5 1 C5.33 2.32 5.66 3.64 6 5 C4.02 4.01 2.04 3.02 0 2 C0 1.34 0 0.68 0 0 Z " fill="#D1165F" transform="translate(170,143)"/>
</svg>
