<?xml version="1.0" encoding="UTF-8"?>
<!-- Generator: visioncortex VTracer 0.6.4 -->
<svg version="1.1" xmlns="http://www.w3.org/2000/svg" width="256" height="256">
<path d="M0 0 C7.48 5.65 13.62 13.48 15.43 22.83 C17.04 41.83 9.05 54.49 -2.57 68.83 C-1.77 69.07 -0.96 69.32 -0.12 69.57 C10.68 72.95 10.68 72.95 14.43 76.83 C16.04 80.07 15.9 82.26 15.43 85.83 C9.58 93.97 -1.38 94.94 -10.52 96.5 C-11.54 96.66 -11.54 96.66 -12.57 96.83 C-11.91 97.49 -11.25 98.15 -10.57 98.83 C-6.4 115.18 -6.83 139.34 -14.57 154.83 C-17.15 157.21 -18 157.83 -21.57 157.83 C-21.22 158.58 -20.88 159.33 -20.52 160.11 C-15.46 171.48 -14.28 179.96 -18.57 191.83 C-22.18 199.79 -26.79 206.85 -32.07 213.79 C-33.67 215.54 -33.67 215.54 -33.57 216.83 C-32.92 217 -32.27 217.17 -31.6 217.35 C-26.33 218.81 -21.76 220.17 -17.57 223.83 C-15.9 227.11 -15.36 228.85 -16.14 232.46 C-19.43 237.9 -24.58 240.28 -30.57 241.83 C-47.04 244.95 -68.12 246.61 -83.57 238.83 C-86.57 236.21 -86.57 236.21 -88.57 233.83 C-88.9 233.5 -89.23 233.17 -89.57 232.83 C-90.11 228.98 -89.74 227.13 -87.82 223.71 C-83.93 219.4 -77.99 218.3 -72.57 216.83 C-72.57 213.7 -74.62 212.15 -76.57 209.83 C-76.74 210.6 -76.9 211.36 -77.07 212.14 C-78.9 215.41 -80.64 216.11 -84.14 217.21 C-109.63 223.76 -137.11 219.7 -159.86 206.58 C-179.82 193.7 -195.49 176.23 -203.35 153.61 C-203.73 150.57 -202.03 148.4 -200.57 145.83 C-201.73 145.86 -202.88 145.88 -204.07 145.91 C-213.65 145.9 -225.31 144.56 -232.57 137.83 C-235.11 134.03 -235.26 132.34 -234.57 127.83 C-231.19 123.54 -226.9 120.99 -221.57 119.83 C-219.91 119.81 -218.24 119.8 -216.57 119.83 C-216.93 119.31 -217.28 118.79 -217.64 118.25 C-218.7 116.68 -219.75 115.1 -220.79 113.52 C-221.97 111.74 -223.16 109.97 -224.36 108.21 C-232.59 95.79 -236.92 84.88 -233.98 69.79 C-231.21 60.69 -224.39 52.93 -216.43 47.79 C-207.83 43.34 -197.81 42.11 -188.44 44.7 C-186.58 45.38 -184.74 46.09 -182.91 46.86 C-180.8 47.74 -178.8 48.34 -176.57 48.83 C-176.33 48.09 -176.09 47.34 -175.85 46.57 C-170.97 36.07 -155.08 29.54 -144.76 25.58 C-119.23 16.36 -92.62 17.75 -67.57 27.83 C-66.72 28.17 -65.87 28.52 -64.99 28.87 C-61.75 30.31 -59.88 31.16 -58.37 34.46 C-57.98 35.63 -57.98 35.63 -57.57 36.83 C-57.62 36.02 -57.67 35.21 -57.71 34.38 C-58.1 22.69 -55.53 13.56 -47.57 4.83 C-35.06 -8.42 -14.96 -9.56 0 0 Z " fill="#040606" transform="translate(237.57421875,9.16796875)"/>
<path d="M0 0 C7.48 5.65 13.62 13.48 15.43 22.83 C17.04 41.83 9.05 54.49 -2.57 68.83 C-1.36 69.2 -1.36 69.2 -0.12 69.57 C10.68 72.95 10.68 72.95 14.43 76.83 C16.04 80.07 15.9 82.26 15.43 85.83 C9.58 93.97 -1.38 94.94 -10.52 96.5 C-11.2 96.61 -11.88 96.72 -12.57 96.83 C-11.91 97.49 -11.25 98.15 -10.57 98.83 C-6.4 115.18 -6.83 139.34 -14.57 154.83 C-17.15 157.21 -18 157.83 -21.57 157.83 C-21.22 158.58 -20.88 159.33 -20.52 160.11 C-15.46 171.48 -14.28 179.96 -18.57 191.83 C-22.18 199.79 -26.79 206.85 -32.07 213.79 C-33.67 215.54 -33.67 215.54 -33.57 216.83 C-32.92 217 -32.27 217.17 -31.6 217.35 C-26.33 218.81 -21.76 220.17 -17.57 223.83 C-15.9 227.11 -15.36 228.85 -16.14 232.46 C-19.43 237.9 -24.58 240.28 -30.57 241.83 C-47.04 244.95 -68.12 246.61 -83.57 238.83 C-86.57 236.21 -86.57 236.21 -88.57 233.83 C-88.9 233.5 -89.23 233.17 -89.57 232.83 C-90.11 228.98 -89.74 227.13 -87.82 223.71 C-83.93 219.4 -77.99 218.3 -72.57 216.83 C-72.57 214.22 -73.4 213.69 -75.07 211.71 C-78.21 207.64 -80.53 203.34 -82.82 198.77 C-83.17 198.1 -83.51 197.42 -83.86 196.73 C-88.68 186.93 -90.88 176.72 -87.32 166.09 C-82.58 155.22 -75.35 148.47 -64.57 143.83 C-61.69 142.87 -59.88 142.73 -56.89 142.77 C-56.08 142.78 -55.27 142.79 -54.44 142.8 C-53.52 142.81 -53.52 142.81 -52.57 142.83 C-53.67 137.42 -53.67 137.42 -57.57 133.83 C-60.9 133.58 -64.18 133.47 -67.51 133.44 C-73.5 133.24 -77.05 131.29 -81.4 127.05 C-81.87 126.48 -82.34 125.92 -82.82 125.33 C-83.3 124.76 -83.78 124.2 -84.28 123.61 C-87.39 119.33 -87.95 116.51 -87.26 111.32 C-86.22 107.55 -84.12 104.63 -81.98 101.39 C-80.49 98.67 -80 96.57 -79.57 93.52 C-79.03 90.08 -78.47 88.11 -75.89 85.71 C-71.94 83.47 -70.05 83.38 -65.57 83.83 C-64.77 83.91 -63.96 83.99 -63.13 84.07 C-60.94 84.3 -58.76 84.55 -56.57 84.83 C-56.57 83.51 -56.57 82.19 -56.57 80.83 C-57.41 80.89 -58.24 80.95 -59.09 81.01 C-60.18 81.05 -61.27 81.1 -62.39 81.14 C-63.47 81.2 -64.54 81.26 -65.66 81.32 C-68.57 80.83 -68.57 80.83 -70.4 78.56 C-73.05 72.42 -74.06 65.24 -71.88 58.77 C-68.35 52.91 -61.73 50.23 -55.57 47.83 C-54.58 47.83 -53.59 47.83 -52.57 47.83 C-53.12 46.87 -53.12 46.87 -53.67 45.88 C-57.98 37.48 -59.04 30.1 -56.88 20.84 C-53.93 11.86 -48.53 4.09 -40.57 -1.17 C-26.98 -7.84 -12.97 -8.29 0 0 Z " fill="#050404" transform="translate(237.57421875,9.16796875)"/>
<path d="M0 0 C2 0.04 4 0.04 6 0 C7.32 0 8.64 0 10 0 C12.77 2.77 13.33 5.23 14 9 C13.19 9.3 12.38 9.61 11.55 9.92 C3.91 12.91 -0.43 15.14 -5 22 C-5.87 28.97 -4.87 34.66 -2 41 C1.96 41.33 5.92 41.66 10 42 C10.33 43.65 10.66 45.3 11 47 C4.38 47.12 4.38 47.12 1 46 C-2.77 45.65 -5.28 45.67 -8.75 47.25 C-11.75 50.91 -12.22 54.4 -13.18 58.97 C-13.97 61.9 -14.9 63.73 -16.62 66.19 C-19.41 70.29 -20.58 74.02 -20 79 C-17.58 85.13 -12.89 90.05 -7 93 C-3.68 93.17 -0.36 93.3 2.97 93.34 C6.51 93.48 8.89 93.94 12.01 95.67 C14 98 14 98 14.31 101.25 C14.16 102.61 14.16 102.61 14 104 C13.23 104.1 12.45 104.2 11.66 104.3 C5.1 105.24 -0.44 106.33 -6 110 C-6.67 110.44 -7.33 110.87 -8.02 111.32 C-15.44 116.96 -20.13 125.49 -21.57 134.63 C-21.89 144.41 -19.3 152.27 -14.31 160.56 C-11.56 165.23 -11.12 169.65 -11 175 C-24.68 184.27 -47.3 182.4 -62.83 179.48 C-89.09 173.88 -111.66 157.85 -126.66 135.75 C-130.47 129.85 -133.39 123.5 -136 117 C-136.29 116.34 -136.57 115.69 -136.87 115.01 C-137.09 111.62 -135.45 109.02 -134 106 C-132.74 105.88 -131.49 105.76 -130.2 105.63 C-112.11 104.7 -112.11 104.7 -97 96 C-96.5 93.08 -96.5 93.08 -97 90 C-100.03 86.09 -103.68 84.73 -108.25 83.25 C-108.9 83.03 -109.55 82.81 -110.22 82.58 C-111.81 82.04 -113.4 81.52 -115 81 C-114 79 -113 77 -112 75 C-108.32 75.66 -105.65 77.26 -102.5 79.25 C-101.56 79.83 -100.62 80.42 -99.66 81.02 C-96.31 83.52 -93.87 86.25 -92 90 C-91.91 91.82 -91.82 93.64 -91.76 95.46 C-91.55 105.42 -91.55 105.42 -87 114 C-85.19 115.63 -83.35 117.23 -81.5 118.81 C-75.84 123.76 -73.74 127.78 -72 135 C-71.68 136.3 -71.35 137.6 -71.03 138.9 C-70.51 140.98 -70 143.06 -69.5 145.14 C-67.06 155.12 -67.06 155.12 -61.69 163.69 C-57.95 165.51 -55.94 165.22 -52 164 C-46.35 158.99 -44.14 150.82 -43.25 143.56 C-42.17 136.72 -38.28 132.26 -34 127 C-32.89 125.55 -31.78 124.09 -30.69 122.62 C-30.21 121.99 -29.74 121.36 -29.25 120.71 C-23.77 113.2 -23 106.22 -24 97 C-25.79 93.88 -25.79 93.88 -29 92 C-29.65 91.51 -30.31 91.03 -30.98 90.52 C-36.32 86.69 -41.82 84.15 -48 82 C-48.65 81.74 -49.29 81.49 -49.96 81.22 C-55.01 79.33 -59.18 78.8 -64.55 78.94 C-75.58 79.2 -75.58 79.2 -79.85 75.6 C-82.33 71.72 -84 68.65 -84 64 C-82.89 63.76 -81.78 63.52 -80.64 63.27 C-79.18 62.93 -77.71 62.59 -76.25 62.25 C-75.52 62.09 -74.79 61.94 -74.04 61.77 C-69.63 60.73 -66.84 59.76 -64 56 C-63.59 54.89 -63.17 53.77 -62.75 52.62 C-60.18 46.09 -53.1 42.72 -47 40 C-43.59 39.03 -40.13 38.33 -36.66 37.63 C-33.54 36.93 -31.39 36.38 -29.07 34.12 C-26.95 29.93 -26.81 26.18 -26.75 21.5 C-26.72 20.38 -26.7 19.25 -26.67 18.09 C-27.04 14.61 -27.4 13.34 -30 11 C-33.13 9.86 -33.13 9.86 -36.69 9.12 C-41.3 7.95 -44.5 7 -48 3.75 C-52.46 -0.07 -57.09 0.42 -62.73 0.66 C-66.33 1.04 -69.55 1.92 -73 3 C-76.03 3.31 -78.99 3.54 -82 3 C-83.77 1.48 -83.77 1.48 -85 0 C-82.96 -0.96 -80.92 -1.92 -78.88 -2.88 C-77.74 -3.41 -76.6 -3.94 -75.43 -4.49 C-51.2 -15.14 -23.12 -11.56 0 0 Z " fill="#87C5F9" transform="translate(171,48)"/>
<path d="M0 0 C3.12 0.44 3.12 0.44 6.44 1.94 C12.31 4.33 17.47 3.93 23.56 2.44 C29.15 1.12 35.09 -0.26 40.34 2.68 C41.79 3.74 43.24 4.81 44.68 5.9 C49.07 8.66 54.08 9.47 59.12 10.44 C59.32 15.24 59.27 19.09 57.12 23.44 C54.04 24.69 54.04 24.69 50.19 25.44 C41.03 27.47 32.12 30.85 26.12 38.44 C25.37 40 24.62 41.56 23.88 43.12 C21.76 47.15 21.76 47.15 19.05 48.39 C16.74 48.88 14.47 49.18 12.12 49.44 C7.46 50.55 7.46 50.55 3.19 52.62 C1.43 55.63 1.39 58.14 2.12 61.44 C3.81 65.31 5.81 68.91 8.12 72.44 C8.81 73.53 9.5 74.63 10.2 75.75 C14.41 79.62 17.69 79.01 23.19 78.81 C31.45 78.85 38.33 79.94 46 83.06 C47.2 83.54 47.2 83.54 48.43 84.03 C54.02 86.47 59.19 89.7 63.12 94.44 C63.88 103.76 57.56 110.98 52.06 117.94 C46.2 125.37 43.24 131.77 41.63 141.06 C40.91 144.45 39.62 147.32 38.12 150.44 C37.13 150.44 36.15 150.44 35.12 150.44 C31.42 143.02 29.7 135.71 28.15 127.61 C26.41 119.22 23.74 111.57 16.44 106.5 C15.67 105.95 14.9 105.41 14.11 104.85 C13.46 104.38 12.8 103.92 12.12 103.44 C9.74 101.06 9.83 100.37 9.63 97.11 C9.57 96.25 9.5 95.38 9.43 94.49 C9.31 92.68 9.2 90.87 9.09 89.06 C8.56 82.3 7.16 77.81 2.52 72.65 C-2.08 68.94 -6.89 65.62 -11.88 62.44 C-11.28 58.7 -10.21 55.83 -8.44 52.5 C-3.62 43.43 -1.98 33.87 -4.56 23.74 C-7.41 16.92 -11.81 10.7 -17.88 6.44 C-17.55 5.45 -17.22 4.46 -16.88 3.44 C-16.32 3.79 -15.76 4.14 -15.19 4.5 C-12.21 5.71 -10.91 5.47 -7.88 4.44 C-7.07 3.76 -6.27 3.08 -5.44 2.38 C-2.88 0.44 -2.88 0.44 0 0 Z " fill="#6AF1BF" transform="translate(77.875,54.5625)"/>
<path d="M0 0 C1.42 0.04 2.83 0.08 4.25 0.12 C5.39 0.16 5.39 0.16 6.55 0.19 C8.17 0.23 9.79 0.28 11.41 0.33 C13.84 0.41 16.26 0.48 18.68 0.55 C22.63 0.66 26.58 0.79 30.52 0.95 C32.05 1.01 33.58 1.06 35.12 1.12 C37.27 1.19 39.43 1.29 41.58 1.39 C42.81 1.44 44.05 1.49 45.32 1.55 C49.42 2.12 52.17 3.13 55.84 5.04 C63.8 20.6 58.19 44.24 53.78 60.15 C52.55 62.62 51.21 63.67 48.84 65.04 C43 64.36 40.24 61.79 36.09 57.81 C33.5 55.77 31.06 54.89 27.96 53.79 C25.12 52.62 25.12 52.62 22.84 51.04 C21.76 48.18 21.47 45.66 21.21 42.64 C21.01 39.75 21.01 39.75 18.52 36.98 C13.5 33.36 9.61 32.86 3.46 32.79 C-2.05 32.55 -6.23 32.04 -10.11 27.84 C-11.58 25.33 -11.99 22.99 -11.73 20.1 C-10.88 17.03 -9.23 14.73 -7.41 12.13 C-5.64 9.16 -5.1 6.2 -4.52 2.82 C-3.89 -0.33 -3.37 0.04 0 0 Z " fill="#6AF2BF" transform="translate(170.164306640625,101.96240234375)"/>
<path d="M0 0 C7.76 2.74 13.42 8.04 17.7 15.01 C20.72 22.02 20.41 29.79 18.01 36.91 C13.74 46.06 7.72 53.75 1.2 61.39 C0.76 61.91 0.31 62.43 -0.14 62.97 C-5.23 68.94 -5.23 68.94 -7.8 71.39 C-8.46 71.39 -9.12 71.39 -9.8 71.39 C-12.56 68.42 -15 65.21 -17.5 62.03 C-18.79 60.4 -20.1 58.79 -21.41 57.18 C-30.48 45.9 -36.82 35.25 -35.8 20.39 C-34.59 14.31 -31.43 9.47 -26.8 5.39 C-23.9 3.5 -20.92 1.89 -17.8 0.39 C-12.74 -2.14 -5.37 -1.18 0 0 Z " fill="#0A0607" transform="translate(47.80078125,62.61328125)"/>
<path d="M0 0 C7.17 4.06 11.25 8.9 14.5 16.44 C16.26 28.55 12.76 38.07 5.88 47.88 C1.73 53.31 -2.71 58.51 -7.18 63.69 C-9.55 66.4 -9.55 66.4 -11.5 69.44 C-15.79 67.85 -18.32 64.58 -21.19 61.19 C-21.71 60.57 -22.24 59.96 -22.78 59.32 C-27.99 53.07 -32.31 46.4 -36.5 39.44 C-37.06 38.56 -37.61 37.69 -38.18 36.79 C-41.5 30.88 -41.26 24.02 -40.5 17.44 C-37.78 9.33 -32.78 3.78 -25.5 -0.56 C-17.4 -4.51 -8.01 -3.75 0 0 Z " fill="#0B0707" transform="translate(197.5,162.5625)"/>
<path d="M0 0 C5.88 4.31 10.66 8.97 13 16 C14.86 34.5 4.55 47.07 -6.48 60.61 C-7.2 61.48 -7.2 61.48 -7.94 62.38 C-8.4 62.94 -8.86 63.51 -9.33 64.09 C-10.49 65.45 -11.74 66.74 -13 68 C-13.99 68 -14.98 68 -16 68 C-17.91 66.05 -17.91 66.05 -20.06 63.31 C-20.86 62.3 -21.65 61.3 -22.46 60.26 C-23.09 59.45 -23.09 59.45 -23.72 58.63 C-24.98 57.02 -26.27 55.44 -27.57 53.87 C-35.94 43.57 -43.37 33.08 -42.54 19.19 C-41.16 11.05 -36.63 5.84 -30.39 0.66 C-21.03 -5.86 -9.63 -5.92 0 0 Z " fill="#0B0707" transform="translate(231,16)"/>
<path d="M0 0 C6.2 1.01 6.2 1.01 8.23 3.52 C9.29 5.5 10.19 7.5 11.06 9.56 C11.74 11.03 12.42 12.49 13.1 13.95 C13.59 15 13.59 15 14.08 16.08 C17.92 24.12 23.85 30.65 30 37 C30.74 37.76 31.48 38.53 32.24 39.32 C48.34 54.88 70.09 62.15 92.12 62.25 C93.72 62.28 93.72 62.28 95.35 62.31 C102.03 62.34 107.84 61.55 114.24 59.65 C117.26 58.94 119.91 58.82 123 59 C124 60 124 60 124.38 62.88 C124.19 64.42 124.19 64.42 124 66 C112.66 74.66 91.94 73.1 78.51 71.53 C52.11 67.78 28.21 53.25 12.1 32.07 C6.28 24.13 -0.51 13.92 -2 4 C-1.06 1.75 -1.06 1.75 0 0 Z " fill="#010203" transform="translate(36,157)"/>
<path d="M0 0 C7.76 2.74 13.42 8.04 17.7 15.01 C20.72 22.02 20.41 29.79 18.01 36.91 C13.74 46.06 7.72 53.75 1.2 61.39 C0.76 61.91 0.31 62.43 -0.14 62.97 C-5.23 68.94 -5.23 68.94 -7.8 71.39 C-8.46 71.39 -9.12 71.39 -9.8 71.39 C-12.56 68.42 -15 65.21 -17.5 62.03 C-18.79 60.4 -20.1 58.79 -21.41 57.18 C-30.48 45.9 -36.82 35.25 -35.8 20.39 C-34.59 14.31 -31.43 9.47 -26.8 5.39 C-23.9 3.5 -20.92 1.89 -17.8 0.39 C-12.74 -2.14 -5.37 -1.18 0 0 Z M-28.36 13.51 C-32.78 19.74 -32.56 26.99 -31.8 34.39 C-29.56 40.78 -24.19 45.5 -18.8 49.39 C-12.67 51.43 -4.37 51.64 1.79 49.48 C7.89 45.83 12.88 40.11 15.2 33.39 C16.09 26.02 15.93 19.66 11.82 13.32 C6.98 7.54 1.23 4.04 -6.27 3.07 C-15.72 2.46 -22.54 6.11 -28.36 13.51 Z " fill="#EF5E68" transform="translate(47.80078125,62.61328125)"/>
<path d="M0 0 C5.88 4.31 10.66 8.97 13 16 C14.86 34.5 4.55 47.07 -6.48 60.61 C-7.2 61.48 -7.2 61.48 -7.94 62.38 C-8.4 62.94 -8.86 63.51 -9.33 64.09 C-10.49 65.45 -11.74 66.74 -13 68 C-13.99 68 -14.98 68 -16 68 C-17.91 66.05 -17.91 66.05 -20.06 63.31 C-20.86 62.3 -21.65 61.3 -22.46 60.26 C-23.09 59.45 -23.09 59.45 -23.72 58.63 C-24.98 57.02 -26.27 55.44 -27.57 53.87 C-35.94 43.57 -43.37 33.08 -42.54 19.19 C-41.16 11.05 -36.63 5.84 -30.39 0.66 C-21.03 -5.86 -9.63 -5.92 0 0 Z M-33.49 9.2 C-38.17 14.78 -38.53 19.69 -38.36 26.8 C-37.86 31.25 -36.5 34.34 -34 38 C-33.46 38.89 -32.93 39.77 -32.38 40.69 C-27.37 45.56 -21.5 48.28 -14.5 48.62 C-7.71 48.26 -1.85 45.98 2.89 41.03 C4.4 39.07 5.75 37.13 7 35 C7.37 34.4 7.75 33.79 8.13 33.17 C10.41 27.49 9.91 20.08 8.2 14.29 C5.27 8.37 0.77 5.03 -5 2 C-15.9 -1.63 -25.88 0.94 -33.49 9.2 Z " fill="#EF5D68" transform="translate(231,16)"/>
<path d="M0 0 C7.17 4.06 11.25 8.9 14.5 16.44 C16.26 28.55 12.76 38.07 5.88 47.88 C1.73 53.31 -2.71 58.51 -7.18 63.69 C-9.55 66.4 -9.55 66.4 -11.5 69.44 C-15.79 67.85 -18.32 64.58 -21.19 61.19 C-21.71 60.57 -22.24 59.96 -22.78 59.32 C-27.99 53.07 -32.31 46.4 -36.5 39.44 C-37.06 38.56 -37.61 37.69 -38.18 36.79 C-41.5 30.88 -41.26 24.02 -40.5 17.44 C-37.78 9.33 -32.78 3.78 -25.5 -0.56 C-17.4 -4.51 -8.01 -3.75 0 0 Z M-31.42 9.77 C-36.27 16.9 -37.09 21.8 -36.5 30.44 C-34.52 37.42 -29.91 43.34 -23.73 47.14 C-17.38 49.69 -9.45 49.8 -2.96 47.56 C2.74 44.22 8.1 38.65 10.5 32.44 C11.33 24.88 11.83 17.28 6.98 11.01 C1.07 4.74 -4.65 1.36 -13.31 0.88 C-20.9 1.1 -26.58 3.88 -31.42 9.77 Z " fill="#F05E69" transform="translate(197.5,162.5625)"/>
<path d="M0 0 C5.3 2.7 9.1 6.29 11 12 C11.82 17.28 11.45 21.02 8.31 25.44 C5.28 29.31 2.18 30.67 -2.65 31.41 C-7.62 31.58 -11.1 31.54 -15.06 28.31 C-19.08 24.17 -20.09 20.77 -20.38 15.06 C-20.25 10.27 -19.34 7.6 -16 4 C-10.84 0.15 -6.42 -1.16 0 0 Z " fill="#E7EAEC" transform="translate(44,74)"/>
<path d="M0 0 C3.5 1.69 3.5 1.69 6 4 C6.78 4.66 7.57 5.32 8.38 6 C11.02 10.88 11.05 15.6 10 21 C7.64 25.19 4.63 28 0.56 30.5 C-4.8 31.55 -8.42 31.82 -13.25 29.31 C-17.44 25.79 -20.59 22.57 -21.24 16.95 C-21.42 11.41 -20.75 8.35 -17 4 C-16.34 3.22 -15.68 2.43 -15 1.62 C-10.17 -0.99 -5.36 -0.72 0 0 Z " fill="#E6E9EB" transform="translate(222,25)"/>
<path d="M0 0 C4.51 2.35 8.16 5.15 10 10 C10.75 15.9 10.45 21 7 26 C1.99 30.63 -1.95 31.31 -8.56 31.21 C-11.83 30.93 -13.54 30.17 -16 28 C-20.09 22.54 -21.94 17.87 -21 11 C-16.54 2.41 -9.56 -1.65 0 0 Z " fill="#E7EAEC" transform="translate(190,172)"/>
<path d="M0 0 C2.5 -0.31 2.5 -0.31 5 0 C10.06 5.06 9.17 15.99 9.31 22.75 C9.28 33.87 8 48 3 58 C1.07 59.81 1.07 59.81 -1 61 C-3.75 60.19 -3.75 60.19 -6 59 C-5.59 53.33 -4.54 48.34 -2.94 42.88 C0.26 31.31 0.18 18.32 -1.64 6.5 C-2 3 -2 3 0 0 Z " fill="#000302" transform="translate(220,106)"/>
<path d="M0 0 C2.97 0 5.94 0 9 0 C9.99 3.96 9.76 5.21 9 9 C9.32 10.34 9.66 11.67 10 13 C11.19 27.02 9.77 39.73 5.55 53.09 C4.8 55.7 4.37 58.32 4 61 C0.18 59.44 -2.19 56.96 -5 54 C-4.34 54 -3.68 54 -3 54 C-2.31 51 -1.65 48.01 -1 45 C-0.82 44.19 -0.64 43.38 -0.46 42.55 C1.01 35.29 1.27 28.32 1.19 20.94 C1.19 19.81 1.19 18.69 1.19 17.53 C1.41 12.09 1.41 12.09 0 7 C-0.04 4.67 -0.04 2.33 0 0 Z " fill="#02DB94" transform="translate(210,104)"/>
<path d="M0 0 C2.07 2.27 2.07 2.27 4.12 5.25 C4.81 6.22 5.49 7.2 6.2 8.2 C7.64 10.43 8.89 12.59 10 15 C1.09 18.34 -7.61 18.13 -17 18 C-17.36 14.6 -17.49 11.39 -17 8 C-12.57 2.92 -6.81 0 0 0 Z " fill="#64EBB9" transform="translate(190,64)"/>
<path d="M0 0 C2.22 1.67 3.78 3.36 5.46 5.57 C5.97 6.04 6.48 6.51 7 7 C9.52 6.88 10.6 6.41 12.35 4.59 C12.98 3.77 12.98 3.77 13.62 2.94 C15.54 0.92 16.59 0.09 19.33 -0.5 C25.15 -0.64 29.71 0.65 35 3 C35 3.66 35 4.32 35 5 C33.42 5.48 31.83 5.96 30.25 6.44 C29.37 6.7 28.49 6.97 27.58 7.25 C26.73 7.49 25.88 7.74 25 8 C24.4 8.18 23.81 8.35 23.19 8.53 C18.38 9.56 13.34 9.23 8.44 9.25 C6.74 9.28 6.74 9.28 5.01 9.31 C-2.99 9.35 -10.73 8.63 -18 5 C-17.67 4.01 -17.34 3.02 -17 2 C-11.82 -0.59 -5.65 -1.13 0 0 Z " fill="#918791" transform="translate(31,137)"/>
<path d="M0 0 C3.48 0.77 6.37 1.97 9.55 3.56 C5.5 8.54 -1.41 8.87 -7.45 9.56 C-18.52 10.35 -31 10.87 -41.45 6.56 C-42.11 5.57 -42.77 4.58 -43.45 3.56 C-37.24 0.75 -31.28 -0.82 -24.45 0.56 C-22.3 2.33 -21.09 4.27 -19.45 6.56 C-16.27 7.53 -16.27 7.53 -13.45 7.56 C-13.2 6.99 -12.95 6.41 -12.7 5.81 C-9.3 -0.31 -6.73 -0.96 0 0 Z " fill="#928892" transform="translate(201.44921875,234.4375)"/>
<path d="M0 0 C1.89 1.65 3.23 3.39 4.71 5.41 C5.96 7.23 5.96 7.23 8.5 7.88 C11.48 6.83 11.78 5.98 13.5 3.44 C15 1.5 15 1.5 17 0 C23.32 -0.64 29.21 0.43 35 3 C35 3.66 35 4.32 35 5 C33.58 5.48 32.17 5.96 30.75 6.44 C29.96 6.7 29.17 6.97 28.36 7.25 C21.88 9.32 15.77 9.22 9 9.25 C7.25 9.28 7.25 9.28 5.46 9.31 C-2.18 9.35 -9.87 9.01 -17 6 C-17.33 5.01 -17.66 4.02 -18 3 C-12.16 0.41 -6.4 -1.57 0 0 Z " fill="#968B96" transform="translate(208,87)"/>
<path d="M0 0 C2.55 1.79 3.39 3.23 5 6 C5 6.66 5 7.32 5 8 C-3.36 8.32 -10.22 8.22 -18 5 C-18 4.01 -18 3.02 -18 2 C-12.13 -0.09 -6.2 -1.13 0 0 Z " fill="#9D929D" transform="translate(177,235)"/>
<path d="M0 0 C2.83 0.8 5.3 1.8 8 3 C8 3.66 8 4.32 8 5 C0.7 8.65 -8.03 8.13 -16 8 C-12.2 0.2 -8.49 -1.1 0 0 Z " fill="#9E939E" transform="translate(58,137)"/>
<path d="M0 0 C1.12 0.1 2.24 0.19 3.4 0.29 C6.42 0.78 8.85 1.55 11.62 2.81 C11.62 3.47 11.62 4.13 11.62 4.81 C3.85 8.03 -3.02 8.13 -11.38 7.81 C-8.99 1.03 -7.34 -0.71 0 0 Z " fill="#9F949F" transform="translate(231.375,87.1875)"/>
<path d="M0 0 C3.68 0.66 6.35 2.26 9.5 4.25 C10.44 4.83 11.38 5.42 12.34 6.02 C15.69 8.52 18.13 11.25 20 15 C20.13 17.67 20.04 20.32 20 23 C19.67 23 19.34 23 19 23 C19 20.69 19 18.38 19 16 C18.34 16 17.68 16 17 16 C16.67 17.32 16.34 18.64 16 20 C15.84 18.93 15.67 17.85 15.5 16.75 C14.82 14.39 14.35 13.27 12.4 11.75 C7.51 9.26 2.24 7.6 -3 6 C-2 4 -1 2 0 0 Z " fill="#7BB3E2" transform="translate(59,123)"/>
<path d="M0 0 C2 2 2 2 2 5 C-13.61 9.47 -30.94 11.41 -47 8 C-47 7.67 -47 7.34 -47 7 C-46.15 7.01 -45.3 7.02 -44.42 7.03 C-41.24 7.07 -38.06 7.09 -34.88 7.11 C-33.51 7.12 -32.14 7.13 -30.77 7.15 C-28.79 7.18 -26.81 7.19 -24.83 7.2 C-23.05 7.21 -23.05 7.21 -21.23 7.23 C-18.03 7 -15.89 6.35 -13 5 C-10.74 4.24 -8.46 3.51 -6.18 2.78 C-4.02 2.01 -2.03 1.07 0 0 Z " fill="#5B9DD4" transform="translate(157,211)"/>
<path d="M0 0 C2.62 2.1 3.6 4.43 4.88 7.5 C4.88 8.16 4.88 8.82 4.88 9.5 C3.19 10.31 3.19 10.31 0.88 10.5 C-2.16 7.96 -3.87 6.27 -5.12 2.5 C-5.78 2.17 -6.44 1.84 -7.12 1.5 C-2.81 -0.66 -2.81 -0.66 0 0 Z " fill="#5CADEF" transform="translate(180.125,47.5)"/>
<path d="M0 0 C3.3 0 6.6 0 10 0 C10.33 1.65 10.66 3.3 11 5 C3.57 5.29 3.57 5.29 0 3 C0 2.01 0 1.02 0 0 Z " fill="#79B1DF" transform="translate(171,90)"/>
<path d="M0 0 C0.66 0.33 1.32 0.66 2 1 C-0.97 3.97 -3.94 6.94 -7 10 C-7 7 -7 7 -4.62 4.44 C-3.76 3.63 -2.89 2.83 -2 2 C-1.34 1.34 -0.68 0.68 0 0 Z " fill="#D9555E" transform="translate(169,164)"/>
<path d="M0 0 C0.66 0.33 1.32 0.66 2 1 C-0.64 3.64 -3.28 6.28 -6 9 C-6 6 -6 6 -3.56 3.38 C-2.72 2.59 -1.87 1.81 -1 1 C-0.67 0.67 -0.34 0.34 0 0 Z " fill="#C2C4C6" transform="translate(32,75)"/>
</svg>
