<?xml version="1.0" encoding="utf-8" ?>
<svg xmlns="http://www.w3.org/2000/svg" xmlns:xlink="http://www.w3.org/1999/xlink" width="1024" height="1024">
	<path fill="#E33913" transform="scale(2 2)" d="M197.173 128.627C199.931 127.825 202.926 127.84 205.675 128.627C209.066 129.526 212.196 130.658 215.159 132.574L218.748 132.574L246.813 132.563C266.897 132.565 281.968 132.219 297.382 147.621C309.987 160.216 314.115 176.02 312.429 193.247L333.929 193.241C343.48 193.245 352.017 193.665 361.395 195.621C452.623 214.657 470.703 335.029 389.654 380.2C367.345 392.634 351.8 392.047 327.224 392.044L290.734 392.151C280.469 392.087 273.929 386.503 268.589 378.499C263.202 378.824 257.654 378.48 252.251 378.48L218.748 378.499L217.339 378.499C213.505 381.139 210.161 383.415 205.675 384.8C203.008 385.429 199.872 385.095 197.173 384.8C192.315 383.414 189.988 381.47 186 378.499C185.101 378.461 184.194 378.493 183.294 378.499L155.881 378.506C149.507 378.506 142.727 378.933 136.397 378.237C114.871 375.869 95.9681 356.3 93.6221 334.913C93.1587 330.688 93.3632 326.305 93.3736 322.054C92.9234 318.28 93.3584 312.372 93.361 308.314L93.3736 276.642C83.1783 276.736 72.9376 276.348 62.7517 276.642L62.7517 237.848C68.6366 238.708 87.2013 238.127 93.3736 237.848L93.3736 237.848L93.3541 236.114L93.3765 203.686C93.355 182.573 91.4485 165.058 107.672 148.736C123.159 133.154 137.243 132.563 157.686 132.567L183.294 132.574L188.56 132.574C191.396 131.144 194.241 129.849 197.173 128.627ZM125.892 243.363C132.02 251.558 133.284 260.004 127.521 268.546C126.944 269.401 126.283 270.243 125.892 271.201L125.884 310.22C125.886 324.061 122.555 342.876 140.521 347.169C145.207 348.288 152.88 347.722 157.848 347.725L186 347.715C194.223 343.771 196.138 339.405 208.134 343.187C211.702 344.311 213.8 346.74 216.764 347.715L266.212 347.715L266.202 229.554C266.197 216.552 264.578 200.397 280.22 194.823C279.585 186.186 281.657 178.163 274.483 171.297C266.701 163.851 255.297 165.998 245.446 165.999C235.901 166 226.304 165.779 216.764 166.005C211.358 171.871 200.113 172.808 193.289 169.653C190.808 168.506 188.623 166.861 186 166.005C176.301 165.677 146.815 164.993 139.159 166.767C129.628 168.975 126.098 176.859 125.9 186.005C125.525 203.256 125.895 220.59 125.892 237.848L125.892 243.363ZM369.746 246.036C369.404 249.351 369.722 252.841 369.73 256.182L369.746 276.642L351.215 276.624C348.217 276.619 345.091 276.399 342.111 276.642L342.154 330.303C342.18 332.241 342.448 334.476 342.111 336.382L342.111 349.334C397.407 349.215 418.55 273.711 369.746 246.036Z"/>
	<path fill="#E33913" transform="scale(2 2)" d="M174.51 207.134C182.429 211.886 189.931 217.391 197.603 222.534L240.089 250.778C241.734 251.867 252.61 258.49 252.94 259.248L252.77 259.515C249.204 261.778 245.767 264.4 242.205 266.716L194.295 297.862C187.75 302.099 181.218 306.684 174.51 310.629L174.51 259.515L174.51 207.134Z"/>
	<path fill="#FDC901" transform="scale(2 2)" d="M174.51 259.515L233.15 259.522C236.093 259.519 251.019 259.102 252.77 259.515C249.204 261.778 245.767 264.4 242.205 266.716L194.295 297.862C187.75 302.099 181.218 306.684 174.51 310.629L174.51 259.515Z"/>
	<path fill="#FDC901" transform="scale(2 2)" d="M197.173 128.627C199.931 127.825 202.926 127.84 205.675 128.627C209.066 129.526 212.196 130.658 215.159 132.574L218.748 132.574L246.813 132.563C266.897 132.565 281.968 132.219 297.382 147.621C309.987 160.216 314.115 176.02 312.429 193.247L298.517 193.232C292.446 193.231 286.018 192.767 280.22 194.823C279.585 186.186 281.657 178.163 274.483 171.297C266.701 163.851 255.297 165.998 245.446 165.999C235.901 166 226.304 165.779 216.764 166.005C211.358 171.871 200.113 172.808 193.289 169.653C190.808 168.506 188.623 166.861 186 166.005C176.301 165.677 146.815 164.993 139.159 166.767C129.628 168.975 126.098 176.859 125.9 186.005C125.525 203.256 125.895 220.59 125.892 237.848L125.892 243.363C132.02 251.558 133.284 260.004 127.521 268.546C126.944 269.401 126.283 270.243 125.892 271.201L125.884 310.22C125.886 324.061 122.555 342.876 140.521 347.169C145.207 348.288 152.88 347.722 157.848 347.725L186 347.715C194.223 343.771 196.138 339.405 208.134 343.187C211.702 344.311 213.8 346.74 216.764 347.715L266.212 347.715L266.19 360.576C266.132 367.232 266.304 372.203 268.589 378.499C263.202 378.824 257.654 378.48 252.251 378.48L218.748 378.499L217.339 378.499C213.505 381.139 210.161 383.415 205.675 384.8C203.008 385.429 199.872 385.095 197.173 384.8C192.315 383.414 189.988 381.47 186 378.499C185.101 378.461 184.194 378.493 183.294 378.499L155.881 378.506C149.507 378.506 142.727 378.933 136.397 378.237C114.871 375.869 95.9681 356.3 93.6221 334.913C93.1587 330.688 93.3632 326.305 93.3736 322.054C92.9234 318.28 93.3584 312.372 93.361 308.314L93.3736 276.642C83.1783 276.736 72.9376 276.348 62.7517 276.642L62.7517 237.848C68.6366 238.708 87.2013 238.127 93.3736 237.848L93.3736 237.848L93.3541 236.114L93.3765 203.686C93.355 182.573 91.4485 165.058 107.672 148.736C123.159 133.154 137.243 132.563 157.686 132.567L183.294 132.574L188.56 132.574C191.396 131.144 194.241 129.849 197.173 128.627Z"/>
	<path fill="#DEDEDE" transform="scale(2 2)" d="M62.7517 237.848C68.6366 238.708 87.2013 238.127 93.3736 237.848C93.9357 249.168 93.9149 265.333 93.3736 276.642L93.3875 307.642C93.3897 312.117 93.7976 317.743 93.3736 322.054C92.9234 318.28 93.3584 312.372 93.361 308.314L93.3736 276.642C83.1783 276.736 72.9376 276.348 62.7517 276.642L62.7517 237.848Z"/>
	<path fill="#FDC901" transform="scale(2 2)" d="M312.429 237.848C322.316 237.851 332.227 237.668 342.111 237.848C351.61 238.863 361.723 240.395 369.746 246.036C369.404 249.351 369.722 252.841 369.73 256.182L369.746 276.642L351.215 276.624C348.217 276.619 345.091 276.399 342.111 276.642L342.154 330.303C342.18 332.241 342.448 334.476 342.111 336.382L342.111 349.334C338.814 349.175 335.443 349.313 332.14 349.315L312.429 349.334L312.429 276.642L312.429 237.848Z"/>
	<path fill="#DEDEDE" transform="scale(2 2)" d="M342.111 237.848C351.61 238.863 361.723 240.395 369.746 246.036C369.404 249.351 369.722 252.841 369.73 256.182L369.746 276.642L351.215 276.624C348.217 276.619 345.091 276.399 342.111 276.642L342.154 330.303C342.18 332.241 342.448 334.476 342.111 336.382L342.111 276.642L342.111 237.848Z"/>
	<path fill="#E33913" transform="scale(2 2)" d="M319.707 76.3968L379.476 76.3995C381.4 76.3993 395.3 75.8389 396.235 76.3968C395.605 84.131 396.243 92.288 396.238 100.069L396.235 151.753L328.523 151.759C325.961 151.764 323.292 151.599 320.746 151.753C318.235 152.493 319.703 144.687 319.705 143.251L319.707 112.338L319.707 102.742L319.707 76.3968Z"/>
	<path fill="#FDE464" transform="scale(2 2)" d="M369.746 102.742C372.286 100.82 374.478 98.4183 376.708 96.152L386.966 85.6554C389.997 82.5816 393.517 79.7451 396.235 76.3968C395.605 84.131 396.243 92.288 396.238 100.069L396.235 151.753L328.523 151.759C325.961 151.764 323.292 151.599 320.746 151.753C332.53 138.468 347.521 125.405 360.184 112.338C363.571 109.836 367.235 106.113 369.746 102.742Z"/>
	<path fill="#797774" transform="scale(2 2)" d="M183.294 86.7355C187.903 86.8919 192.559 86.7447 197.173 86.7355L205.675 86.7355L218.748 86.7355C218.726 92.0306 219.404 97.4953 218.748 102.742L319.707 102.742L319.707 112.338C308.373 112.073 296.966 112.332 285.625 112.335L218.748 112.338L218.748 132.574L215.159 132.574C212.196 130.658 209.066 129.526 205.675 128.627C202.926 127.84 199.931 127.825 197.173 128.627C194.241 129.849 191.396 131.144 188.56 132.574L183.294 132.574C183.668 126.983 183.336 121.348 183.308 115.75L183.294 86.7355Z"/>
	<path fill="#DEDEDE" transform="scale(2 2)" d="M183.294 86.7355C187.903 86.8919 192.559 86.7447 197.173 86.7355C197.19 92.0387 197.437 97.4514 197.173 102.742L197.173 128.627C194.241 129.849 191.396 131.144 188.56 132.574L183.294 132.574C183.668 126.983 183.336 121.348 183.308 115.75L183.294 86.7355Z"/>
	<path fill="#DEDEDE" transform="scale(2 2)" d="M205.675 86.7355L218.748 86.7355C218.726 92.0306 219.404 97.4953 218.748 102.742L205.675 102.742L197.173 102.742C197.437 97.4514 197.19 92.0387 197.173 86.7355L205.675 86.7355Z"/>
	<path fill="#B7B6B5" transform="scale(2 2)" d="M197.173 86.7355L205.675 86.7355C205.683 91.5589 204.895 98.1858 205.675 102.742L197.173 102.742C197.437 97.4514 197.19 92.0387 197.173 86.7355Z"/>
	<path fill="#DEDEDE" transform="scale(2 2)" d="M205.675 112.338L218.748 112.338L218.748 132.574L215.159 132.574C212.196 130.658 209.066 129.526 205.675 128.627L205.675 112.338Z"/>
	<path fill="#DEDEDE" transform="scale(2 2)" d="M217.339 378.499L218.748 378.499C218.982 383.656 218.755 388.897 218.752 394.065L218.748 424.746L205.675 424.746L204.829 424.746C202.451 424.91 199.995 424.774 197.608 424.769L183.294 424.746L183.294 378.499C184.194 378.493 185.101 378.461 186 378.499C189.988 381.47 192.315 383.414 197.173 384.8C199.872 385.095 203.008 385.429 205.675 384.8C210.161 383.415 213.505 381.139 217.339 378.499Z"/>
	<path fill="#DEDEDE" transform="scale(2 2)" d="M217.339 378.499L218.748 378.499C218.982 383.656 218.755 388.897 218.752 394.065L218.748 424.746L205.675 424.746C205.961 424.29 205.673 388.74 205.675 384.8C210.161 383.415 213.505 381.139 217.339 378.499Z"/>
	<path fill="#B7B6B5" transform="scale(2 2)" d="M197.173 384.8C199.872 385.095 203.008 385.429 205.675 384.8C205.673 388.74 205.961 424.29 205.675 424.746L204.829 424.746C202.288 424.49 199.718 424.645 197.173 424.746C197.174 419.931 196.847 385.775 197.173 384.8Z"/>
</svg>
