<?xml version="1.0" encoding="UTF-8"?>
<!-- Generator: visioncortex VTracer 0.6.4 -->
<svg version="1.1" xmlns="http://www.w3.org/2000/svg" width="256" height="256">
<path d="M0 0 C7.98 8.16 16.75 18.87 16.75 30.81 C18 30.8 19.25 30.79 20.54 30.78 C32.34 30.68 44.14 30.6 55.95 30.55 C62.01 30.53 68.08 30.49 74.15 30.44 C80 30.38 85.86 30.35 91.71 30.34 C93.94 30.33 96.18 30.31 98.41 30.28 C101.54 30.25 104.67 30.24 107.8 30.24 C108.72 30.23 109.64 30.21 110.59 30.19 C114.95 30.23 117.85 30.43 121.31 33.22 C124.63 36.75 125.14 38.83 125.11 43.71 C124.47 47.43 122.41 49.22 119.75 51.81 C117.09 53.14 115.06 52.93 112.09 52.91 C110.4 52.91 110.4 52.91 108.69 52.9 C107.51 52.89 106.34 52.88 105.12 52.88 C103.94 52.87 102.76 52.87 101.54 52.86 C98.61 52.85 95.68 52.83 92.75 52.81 C92.78 53.54 92.8 54.26 92.83 55.01 C92.93 58.32 93 61.63 93.06 64.94 C93.13 66.65 93.13 66.65 93.19 68.4 C93.33 77.9 93.33 77.9 90.36 81.55 C86.79 84.65 84.63 85.21 79.86 85.17 C76.13 84.54 74.35 82.47 71.75 79.81 C70.42 77.15 70.64 75.13 70.65 72.15 C70.66 71.03 70.66 69.91 70.66 68.75 C70.67 67.57 70.68 66.4 70.69 65.19 C70.69 64 70.7 62.82 70.7 61.6 C70.71 58.67 70.73 55.74 70.75 52.81 C67.45 52.81 64.15 52.81 60.75 52.81 C60.78 53.54 60.8 54.26 60.83 55.01 C60.93 58.32 61 61.63 61.06 64.94 C61.13 66.65 61.13 66.65 61.19 68.4 C61.33 77.9 61.33 77.9 58.36 81.55 C54.79 84.65 52.63 85.21 47.86 85.17 C44.13 84.54 42.35 82.47 39.75 79.81 C38.42 77.15 38.64 75.13 38.65 72.15 C38.66 70.47 38.66 70.47 38.66 68.75 C38.67 66.99 38.67 66.99 38.69 65.19 C38.69 64 38.7 62.82 38.7 61.6 C38.71 58.67 38.73 55.74 38.75 52.81 C31.49 52.81 24.23 52.81 16.75 52.81 C16.42 55.12 16.09 57.43 15.75 59.81 C9.98 74.64 0.49 84.77 -13.81 91.69 C-28.07 97.69 -42.83 96.99 -57.25 91.81 C-70.43 85.92 -79.89 76.19 -85.47 62.91 C-90.87 48.55 -91.15 33.19 -85.03 18.98 C-78.4 5.81 -67.65 -4.36 -53.74 -9.41 C-34.14 -15.53 -16.8 -11.31 0 0 Z " fill="#000000" transform="translate(110.25,86.1875)"/>
<path d="M0 0 C7.17 5.37 12.25 13.15 14 22 C14.85 30.41 13.18 38.32 8.25 45.25 C1.91 52.95 -5.03 58.16 -15.18 59.38 C-24.9 59.73 -32.14 57.58 -39.75 51.5 C-46.86 44.63 -50.55 36.94 -50.75 27 C-50.55 17.06 -46.86 9.37 -39.75 2.5 C-27.69 -7.14 -13.32 -7.84 0 0 Z " fill="#F71127" transform="translate(93,101)"/>
</svg>
