<?xml version="1.0" encoding="UTF-8"?>
<!-- Generator: visioncortex VTracer 0.6.4 -->
<svg version="1.1" xmlns="http://www.w3.org/2000/svg" width="256" height="256">
<path d="M0 0 C1.26 -0.01 2.52 -0.01 3.81 -0.02 C6.47 -0.02 9.12 -0.02 11.78 -0.01 C15.16 -0 18.55 -0.02 21.93 -0.05 C25.18 -0.07 28.43 -0.07 31.69 -0.06 C32.89 -0.07 34.1 -0.08 35.34 -0.1 C43.04 -0.03 48.89 0.7 54.75 6.14 C55.11 6.69 55.47 7.24 55.85 7.81 C56.42 8.62 56.42 8.62 57 9.46 C59.92 15.79 59.09 23.5 59.1 30.31 C59.11 31.45 59.12 32.6 59.13 33.78 C59.15 41.49 59.09 48.14 54.72 54.75 C49.08 60.14 44.02 60.77 36.47 60.7 C35.48 60.67 34.49 60.65 33.47 60.62 C32.45 60.61 31.44 60.59 30.39 60.58 C27.9 60.54 25.4 60.49 22.91 60.43 C22.91 66.7 22.91 72.97 22.91 79.43 C25.88 79.43 28.85 79.43 31.91 79.43 C36.62 80.57 40.04 83.06 42.91 86.93 C44.91 91.43 44.91 91.43 44.91 103.43 C55.14 103.43 65.37 103.43 75.91 103.43 C75.91 99.8 75.91 96.17 75.91 92.43 C77.64 87.05 81.25 83.51 85.91 80.43 C91.35 78.62 97.35 79.17 103.02 79.14 C104.44 79.13 105.86 79.11 107.28 79.08 C115.36 78.91 122.01 78.79 128.91 83.43 C135.19 89.71 135.19 96.81 135.23 105.23 C135.23 105.9 135.23 106.57 135.23 107.26 C135.22 109.3 135.25 111.33 135.27 113.36 C135.28 128.4 135.28 128.4 130.19 134.49 C129.6 134.95 129.02 135.4 128.41 135.87 C127.82 136.34 127.23 136.82 126.63 137.3 C123.8 139.16 121.19 139.58 117.9 139.75 C116.76 139.81 116.76 139.81 115.6 139.88 C114.82 139.92 114.03 139.96 113.22 140 C112.43 140.04 111.63 140.08 110.81 140.13 C108.84 140.23 106.88 140.33 104.91 140.43 C102.69 145.29 100.46 150.15 98.24 155 C97.48 156.65 96.73 158.3 95.97 159.95 C94.88 162.33 93.79 164.71 92.7 167.09 C92.37 167.82 92.03 168.55 91.69 169.3 C89.7 173.66 87.78 178.03 85.91 182.43 C86.9 182.45 87.89 182.47 88.91 182.5 C94.05 183.22 97.62 186.59 100.91 190.43 C103.04 194.63 103.22 198.54 103.21 203.15 C103.22 203.88 103.22 204.62 103.22 205.37 C103.23 206.92 103.23 208.46 103.23 210.01 C103.22 212.36 103.25 214.71 103.27 217.06 C103.27 218.57 103.27 220.08 103.27 221.59 C103.28 222.28 103.29 222.98 103.3 223.7 C103.25 229.18 101.93 233.24 98.19 237.3 C97.6 237.78 97.02 238.25 96.41 238.75 C95.82 239.24 95.23 239.73 94.63 240.23 C89.48 243.83 82.48 242.7 76.45 242.73 C74.97 242.74 73.5 242.76 72.02 242.79 C56.76 243.1 56.76 243.1 49.91 238.43 C46.57 235.1 44.99 232.02 43.91 227.43 C43.91 224.79 43.91 222.15 43.91 219.43 C25.43 219.43 6.95 219.43 -12.09 219.43 C-12.09 222.07 -12.09 224.71 -12.09 227.43 C-12.93 231.87 -14.55 235.31 -17.96 238.31 C-24.99 243.09 -31.59 242.77 -39.81 242.75 C-42.02 242.75 -44.22 242.77 -46.43 242.79 C-47.85 242.8 -49.26 242.8 -50.68 242.8 C-51.96 242.8 -53.23 242.8 -54.55 242.81 C-60.02 242.23 -63.94 240.19 -67.4 235.93 C-67.89 235.35 -68.38 234.76 -68.89 234.15 C-71.54 230.35 -71.27 226.35 -71.29 221.91 C-71.3 221.18 -71.3 220.44 -71.31 219.68 C-71.32 218.13 -71.33 216.57 -71.33 215.01 C-71.34 212.64 -71.37 210.27 -71.4 207.9 C-71.41 206.38 -71.41 204.87 -71.42 203.35 C-71.43 202.65 -71.44 201.94 -71.46 201.22 C-71.43 195.74 -70.08 191.79 -66.55 187.61 C-66 187.14 -65.46 186.67 -64.9 186.18 C-64.37 185.7 -63.84 185.22 -63.3 184.73 C-60.07 182.83 -56.73 182.3 -53.09 181.43 C-53.57 180.23 -54.06 179.03 -54.56 177.79 C-56.35 173.35 -58.14 168.9 -59.93 164.45 C-60.7 162.53 -61.48 160.6 -62.25 158.67 C-63.37 155.91 -64.48 153.14 -65.59 150.38 C-65.94 149.51 -66.29 148.65 -66.65 147.76 C-66.97 146.96 -67.29 146.16 -67.62 145.33 C-67.91 144.63 -68.19 143.92 -68.48 143.19 C-69.09 141.43 -69.09 141.43 -69.09 139.43 C-69.69 139.45 -70.29 139.48 -70.91 139.5 C-73.65 139.58 -76.4 139.63 -79.15 139.68 C-80.1 139.72 -81.04 139.75 -82.01 139.79 C-88.31 139.87 -91.95 139.14 -97.09 135.43 C-103.79 128.55 -103.44 120.69 -103.41 111.6 C-103.4 109.57 -103.43 107.54 -103.45 105.51 C-103.46 90.21 -103.46 90.21 -98.74 84.93 C-91.82 78.73 -84.61 79.09 -75.85 79.12 C-73.73 79.12 -71.6 79.1 -69.48 79.07 C-68.11 79.07 -66.75 79.07 -65.38 79.07 C-64.15 79.07 -62.92 79.06 -61.65 79.06 C-56.83 79.57 -52.85 80.89 -49.13 84.15 C-48.66 84.74 -48.2 85.33 -47.71 85.93 C-47.23 86.52 -46.75 87.11 -46.25 87.71 C-42.78 92.84 -44.09 96.58 -44.09 103.43 C-33.86 103.43 -23.63 103.43 -13.09 103.43 C-13.09 99.47 -13.09 95.51 -13.09 91.43 C-10.54 85.7 -8.1 82.83 -2.54 80.03 C-0.09 79.43 -0.09 79.43 8.91 79.43 C8.91 73.16 8.91 66.89 8.91 60.43 C6.67 60.5 6.67 60.5 4.38 60.57 C2.39 60.61 0.4 60.65 -1.59 60.68 C-3.06 60.73 -3.06 60.73 -4.57 60.79 C-12.29 60.89 -17.78 59.57 -23.46 54.18 C-27.81 46.83 -27.4 38.72 -27.34 30.43 C-27.35 28.73 -27.35 28.73 -27.36 26.99 C-27.35 19.33 -27.23 12.68 -22.9 6.12 C-16.08 -0.4 -9 -0.02 0 0 Z M-44.09 117.43 C-44.75 121.39 -45.41 125.35 -46.09 129.43 C-50.55 135.67 -50.55 135.67 -54.09 137.43 C-51.57 147.13 -47.66 156.3 -43.9 165.56 C-43.24 167.2 -42.58 168.84 -41.92 170.48 C-40.31 174.47 -38.7 178.45 -37.09 182.43 C-36.35 182.49 -35.6 182.54 -34.84 182.59 C-33.86 182.67 -32.88 182.75 -31.87 182.83 C-30.9 182.9 -29.93 182.97 -28.93 183.05 C-23.38 183.8 -19.55 185.9 -15.71 189.93 C-14.09 193.43 -14.09 193.43 -12.09 205.43 C6.39 205.43 24.87 205.43 43.91 205.43 C44.57 201.47 45.23 197.51 45.91 193.43 C48.1 188.73 50.72 186.31 55.39 184.25 C58.35 183.29 61.08 183.04 64.19 182.83 C65.26 182.75 66.34 182.67 67.44 182.59 C68.66 182.51 68.66 182.51 69.91 182.43 C71.65 178.7 73.4 174.97 75.13 171.24 C75.72 169.98 76.31 168.71 76.9 167.45 C80.13 160.55 83.31 153.62 86.34 146.63 C86.83 145.49 87.33 144.35 87.84 143.17 C89.03 140.61 89.03 140.61 88.91 138.43 C88.02 138.06 87.14 137.69 86.22 137.31 C82.22 135.04 80.38 133.34 77.91 129.43 C76.92 123.49 76.92 123.49 75.91 117.43 C65.68 117.43 55.45 117.43 44.91 117.43 C44.25 121.72 43.59 126.01 42.91 130.43 C38.38 136.1 35.47 138.03 28.3 138.84 C20.84 138.9 20.84 138.9 18.15 138.88 C15.98 138.87 13.81 138.9 11.65 138.93 C4.12 138.97 -1.76 138.79 -8.09 134.43 C-12.67 128.56 -12.28 125.5 -13.09 117.43 C-23.32 117.43 -33.55 117.43 -44.09 117.43 Z " fill="#0B69C1" transform="translate(112.08984375,6.56640625)"/>
<path d="M0 0 C1.42 -0.01 2.84 -0.03 4.26 -0.06 C12.35 -0.23 18.99 -0.35 25.89 4.3 C32.17 10.58 32.17 17.67 32.22 26.1 C32.21 26.77 32.21 27.44 32.21 28.13 C32.21 30.16 32.23 32.19 32.25 34.22 C32.26 49.26 32.26 49.26 27.17 55.35 C26.59 55.81 26 56.26 25.39 56.73 C24.81 57.21 24.22 57.68 23.61 58.17 C20.78 60.02 18.18 60.44 14.88 60.61 C14.12 60.65 13.37 60.7 12.59 60.74 C11.8 60.78 11.02 60.82 10.21 60.86 C9.01 60.92 9.01 60.92 7.79 60.99 C5.82 61.09 3.86 61.2 1.89 61.3 C-0.33 66.15 -2.56 71.01 -4.78 75.86 C-5.53 77.51 -6.29 79.16 -7.04 80.81 C-8.14 83.19 -9.22 85.57 -10.31 87.96 C-10.65 88.68 -10.98 89.41 -11.33 90.17 C-13.32 94.52 -15.24 98.89 -17.11 103.3 C-16.12 103.32 -15.13 103.34 -14.11 103.36 C-8.97 104.08 -5.4 107.45 -2.11 111.3 C0.02 115.49 0.2 119.4 0.19 124.01 C0.2 125.11 0.2 125.11 0.21 126.23 C0.21 127.78 0.21 129.32 0.21 130.87 C0.21 133.22 0.23 135.57 0.25 137.93 C0.26 139.43 0.26 140.94 0.26 142.45 C0.27 143.14 0.27 143.84 0.28 144.56 C0.23 150.04 -1.09 154.11 -4.83 158.16 C-5.41 158.64 -6 159.11 -6.61 159.61 C-7.19 160.1 -7.78 160.59 -8.39 161.1 C-13.54 164.69 -20.54 163.56 -26.57 163.59 C-28.04 163.6 -29.52 163.62 -31 163.65 C-46.25 163.96 -46.25 163.96 -53.11 159.3 C-59.39 153.02 -59.38 145.92 -59.43 137.49 C-59.43 136.82 -59.42 136.15 -59.42 135.46 C-59.42 133.43 -59.44 131.4 -59.47 129.37 C-59.48 114.07 -59.48 114.07 -54.76 108.79 C-49.79 104.34 -45.35 103.03 -38.79 103.17 C-37.73 103.19 -36.66 103.21 -35.56 103.22 C-34.75 103.25 -33.94 103.27 -33.11 103.3 C-32.86 102.49 -32.61 101.68 -32.35 100.85 C-30.86 96.58 -29.05 92.51 -27.19 88.4 C-26.82 87.56 -26.44 86.73 -26.06 85.87 C-24.87 83.22 -23.68 80.57 -22.48 77.92 C-21.67 76.12 -20.86 74.31 -20.05 72.51 C-18.07 68.1 -16.09 63.7 -14.11 59.3 C-15.28 59.1 -15.28 59.1 -16.48 58.9 C-19.75 58.14 -20.74 56.98 -22.86 54.42 C-23.45 53.72 -24.04 53.02 -24.65 52.3 C-27.5 48.37 -27.28 44.43 -27.31 39.78 C-27.32 39.04 -27.32 38.3 -27.33 37.54 C-27.34 35.99 -27.34 34.43 -27.35 32.87 C-27.36 30.5 -27.39 28.13 -27.42 25.76 C-27.43 24.25 -27.43 22.73 -27.44 21.21 C-27.45 20.51 -27.46 19.81 -27.47 19.08 C-27.45 13.57 -26.13 9.54 -22.42 5.43 C-21.84 4.95 -21.27 4.48 -20.67 3.98 C-19.81 3.25 -19.81 3.25 -18.92 2.49 C-13.52 -1.07 -6.23 0.04 0 0 Z " fill="#D32032" transform="translate(215.10693359375,85.704833984375)"/>
<path d="M0 0 C1.89 -0.01 1.89 -0.01 3.81 -0.02 C6.47 -0.02 9.12 -0.02 11.78 -0.01 C15.16 -0 18.55 -0.02 21.93 -0.05 C25.18 -0.07 28.43 -0.07 31.69 -0.06 C32.89 -0.07 34.1 -0.08 35.34 -0.1 C43.04 -0.03 48.89 0.7 54.75 6.14 C55.29 6.97 55.29 6.97 55.85 7.81 C56.23 8.35 56.61 8.9 57 9.46 C59.92 15.79 59.09 23.5 59.1 30.31 C59.11 31.45 59.12 32.6 59.13 33.78 C59.15 41.49 59.09 48.14 54.72 54.75 C49.08 60.14 44.02 60.77 36.47 60.7 C35.48 60.67 34.49 60.65 33.47 60.62 C32.45 60.61 31.44 60.59 30.39 60.58 C27.9 60.54 25.4 60.49 22.91 60.43 C22.91 66.7 22.91 72.97 22.91 79.43 C18.29 79.43 13.67 79.43 8.91 79.43 C8.91 73.16 8.91 66.89 8.91 60.43 C6.67 60.5 6.67 60.5 4.38 60.57 C2.39 60.61 0.4 60.65 -1.59 60.68 C-3.06 60.73 -3.06 60.73 -4.57 60.79 C-12.29 60.89 -17.78 59.57 -23.46 54.18 C-27.81 46.83 -27.4 38.72 -27.34 30.43 C-27.35 29.3 -27.36 28.16 -27.36 26.99 C-27.35 19.33 -27.23 12.68 -22.9 6.12 C-16.08 -0.4 -9 -0.02 0 0 Z " fill="#D42032" transform="translate(112.08984375,6.56640625)"/>
<path d="M0 0 C2.16 0.02 4.32 0 6.48 -0.03 C14.98 -0.04 21.53 0.27 28.04 6.24 C32.29 12.97 31.16 15.36 31.16 24.52 C41.72 24.52 52.28 24.52 63.16 24.52 C63.16 29.14 63.16 33.76 63.16 38.52 C52.6 38.52 42.04 38.52 31.16 38.52 C31.16 41.82 31.16 45.12 31.16 48.52 C28.88 53.97 26.31 56.67 21.16 59.52 C15.89 61.28 10.22 60.79 4.71 60.82 C3.23 60.83 1.75 60.85 0.27 60.88 C-15.01 61.18 -15.01 61.18 -21.84 56.52 C-27.58 50.49 -26.84 47.5 -26.84 38.52 C-37.07 38.52 -47.3 38.52 -57.84 38.52 C-57.84 33.9 -57.84 29.28 -57.84 24.52 C-47.61 24.52 -37.38 24.52 -26.84 24.52 C-26.84 20.56 -26.84 16.6 -26.84 12.52 C-24.31 6.84 -22.28 4.05 -16.51 1.32 C-11.15 -0.28 -5.55 -0.07 0 0 Z " fill="#0C6BC3" transform="translate(125.8359375,85.478515625)"/>
<path d="M0 0 C2.12 0 4.25 -0.02 6.37 -0.05 C7.74 -0.05 9.11 -0.05 10.47 -0.05 C11.7 -0.05 12.93 -0.05 14.2 -0.06 C19.02 0.45 23.01 1.78 26.72 5.03 C27.19 5.62 27.66 6.21 28.14 6.82 C28.62 7.4 29.1 7.99 29.6 8.6 C32.19 12.43 31.94 16.4 31.97 20.84 C31.97 21.57 31.98 22.31 31.98 23.07 C31.99 24.62 32 26.18 32 27.74 C32.01 30.11 32.04 32.48 32.08 34.85 C32.08 36.37 32.09 37.88 32.09 39.4 C32.1 40.1 32.12 40.8 32.13 41.53 C32.1 47.04 30.79 51.07 27.08 55.18 C26.5 55.66 25.92 56.14 25.33 56.63 C24.46 57.36 24.46 57.36 23.58 58.12 C18.06 61.76 10.53 60.58 4.17 60.61 C2.7 60.62 1.22 60.64 -0.26 60.67 C-2.4 60.72 -4.55 60.73 -6.69 60.74 C-8.61 60.76 -8.61 60.76 -10.57 60.79 C-16.03 60.09 -19.67 57.92 -23.55 53.94 C-27.9 47.17 -27.58 40.29 -27.55 32.49 C-27.55 30.45 -27.57 28.42 -27.6 26.39 C-27.61 11.09 -27.61 11.09 -22.89 5.81 C-15.97 -0.39 -8.76 -0.03 0 0 Z " fill="#F79944" transform="translate(36.2373046875,85.684326171875)"/>
<path d="M0 0 C1.42 -0.01 2.84 -0.03 4.26 -0.06 C12.35 -0.23 18.99 -0.35 25.89 4.3 C32.17 10.58 32.17 17.67 32.22 26.1 C32.21 27.1 32.21 27.1 32.21 28.13 C32.21 30.16 32.23 32.19 32.25 34.22 C32.26 49.26 32.26 49.26 27.17 55.35 C26.59 55.81 26 56.26 25.39 56.73 C24.81 57.21 24.22 57.68 23.61 58.17 C19.81 60.66 15.96 60.47 11.59 60.5 C10.88 60.5 10.16 60.51 9.43 60.52 C7.92 60.53 6.41 60.53 4.9 60.54 C2.6 60.55 0.3 60.58 -2 60.61 C-3.47 60.61 -4.94 60.62 -6.41 60.62 C-7.09 60.64 -7.77 60.65 -8.47 60.66 C-13.92 60.64 -17.95 59.29 -21.97 55.58 C-22.45 54.99 -22.93 54.4 -23.42 53.8 C-23.91 53.21 -24.4 52.62 -24.91 52.01 C-27.56 48.21 -27.28 44.21 -27.31 39.78 C-27.32 39.04 -27.32 38.3 -27.33 37.54 C-27.34 35.99 -27.34 34.43 -27.35 32.87 C-27.36 30.5 -27.39 28.13 -27.42 25.76 C-27.43 24.25 -27.43 22.73 -27.44 21.21 C-27.45 20.51 -27.46 19.81 -27.47 19.08 C-27.45 13.57 -26.13 9.54 -22.42 5.43 C-21.84 4.95 -21.27 4.48 -20.67 3.98 C-20.09 3.49 -19.52 3 -18.92 2.49 C-13.52 -1.07 -6.23 0.04 0 0 Z " fill="#F79944" transform="translate(215.10693359375,85.704833984375)"/>
<path d="M0 0 C1.37 0.02 2.73 0.03 4.1 0.04 C7.42 0.08 10.74 0.13 14.06 0.19 C14.06 7.12 14.06 14.05 14.06 21.19 C6.31 21.56 6.31 21.56 3.89 21.67 C0.19 21.87 -2.83 22.07 -5.94 24.19 C-7.87 26.77 -7.95 28 -7.69 31.25 C-7.07 34.35 -7.07 34.35 -4.94 37.19 C-2.34 38.05 -0.6 38.36 2.07 38.5 C2.76 38.54 3.44 38.58 4.14 38.62 C5 38.66 5.86 38.71 6.75 38.75 C9.49 38.89 12.24 39.04 15.06 39.19 C15.06 45.79 15.06 52.39 15.06 59.19 C8.6 60 2.54 60.43 -3.94 60.5 C-4.88 60.53 -5.83 60.56 -6.8 60.59 C-14.33 60.66 -19.78 59.18 -25.31 53.94 C-29.66 46.58 -29.24 38.48 -29.19 30.19 C-29.2 29.05 -29.2 27.91 -29.21 26.74 C-29.19 19.08 -29.08 12.43 -24.75 5.88 C-17.46 -1.09 -9.56 -0.18 0 0 Z " fill="#E8283A" transform="translate(113.9375,6.8125)"/>
<path d="M0 0 C0 6.6 0 13.2 0 20 C-2.97 20.33 -5.94 20.66 -9 21 C-12.15 22.42 -12.15 22.42 -14 25 C-14.79 29.33 -14.53 31.22 -12.06 34.88 C-8.38 37.79 -8.38 37.79 0 38 C0 44.93 0 51.86 0 59 C-17.56 59.59 -17.56 59.59 -24 55 C-29.74 48.96 -29 45.98 -29 37 C-39.23 37 -49.46 37 -60 37 C-60 32.38 -60 27.76 -60 23 C-49.77 23 -39.54 23 -29 23 C-29 19.04 -29 15.08 -29 11 C-26.46 5.28 -23.96 2.09 -18.18 -0.39 C-12.07 -2.11 -6.18 -0.88 0 0 Z " fill="#0F8AE0" transform="translate(128,87)"/>
<path d="M0 0 C0 19.47 0 38.94 0 59 C-19 59 -19 59 -24.06 55.81 C-28.6 50.91 -29.31 45.76 -29.3 39.29 C-29.31 38.55 -29.31 37.82 -29.31 37.06 C-29.32 35.52 -29.32 33.97 -29.32 32.43 C-29.31 30.07 -29.34 27.72 -29.36 25.37 C-29.36 23.86 -29.36 22.35 -29.36 20.85 C-29.37 20.15 -29.38 19.45 -29.39 18.74 C-29.34 13.26 -28.01 9.22 -24.32 5.14 C-23.74 4.66 -23.16 4.18 -22.56 3.69 C-21.99 3.2 -21.41 2.71 -20.82 2.2 C-14.76 -1.8 -6.75 0 0 0 Z " fill="#FABA53" transform="translate(217,86)"/>
<path d="M0 0 C1.02 0 1.02 0 2.06 0.01 C4.22 0.02 6.38 0.04 8.54 0.07 C10.01 0.08 11.48 0.09 12.96 0.1 C16.55 0.12 20.14 0.15 23.73 0.2 C23.73 0.53 23.73 0.86 23.73 1.2 C18.78 1.2 13.83 1.2 8.73 1.2 C8.73 7.8 8.73 14.4 8.73 21.2 C5.76 21.53 2.79 21.86 -0.27 22.2 C-4.27 23.7 -4.27 23.7 -5.27 26.2 C-5.78 31.67 -5.78 31.67 -3.89 36.63 C0.18 39.06 4.02 38.95 8.73 39.2 C8.73 45.8 8.73 52.4 8.73 59.2 C10.05 59.53 11.37 59.86 12.73 60.2 C9.38 60.31 6.02 60.38 2.67 60.45 C1.73 60.48 0.78 60.51 -0.19 60.55 C-6.49 60.63 -10.13 59.9 -15.27 56.2 C-21.97 49.31 -21.61 41.45 -21.59 32.36 C-21.58 30.33 -21.61 28.3 -21.63 26.27 C-21.64 10.97 -21.64 10.97 -16.92 5.69 C-11.61 0.94 -6.97 -0.06 0 0 Z " fill="#FABA52" transform="translate(30.26953125,85.8046875)"/>
<path d="M0 0 C1.53 0.01 1.53 0.01 3.1 0.02 C5.94 0.19 5.94 0.19 9.94 1.19 C9.94 7.79 9.94 14.39 9.94 21.19 C6.97 21.52 4 21.85 0.94 22.19 C-3.06 23.69 -3.06 23.69 -4.06 26.19 C-4.75 31.87 -4.75 31.87 -2.12 36.62 C0.8 38.12 2.44 38.49 5.63 38.79 C6.44 38.86 7.24 38.94 8.08 39.02 C8.69 39.08 9.3 39.13 9.94 39.19 C9.97 42.5 9.98 45.81 10 49.12 C10.01 50.07 10.02 51.02 10.03 51.99 C10.03 53.34 10.03 53.34 10.04 54.71 C10.04 55.96 10.04 55.96 10.05 57.24 C9.94 59.19 9.94 59.19 8.94 60.19 C-7.43 61.45 -7.43 61.45 -14.06 56.19 C-20.34 49.91 -20.34 42.81 -20.38 34.39 C-20.38 33.72 -20.38 33.05 -20.38 32.36 C-20.38 30.32 -20.4 28.29 -20.42 26.26 C-20.43 10.96 -20.43 10.96 -15.72 5.68 C-10.86 1.33 -6.41 -0.09 0 0 Z " fill="#E82839" transform="translate(176.0625,188.8125)"/>
<path d="M0 0 C3.87 0.28 3.87 0.28 7.81 0.56 C7.81 7.16 7.81 13.76 7.81 20.56 C4.84 20.89 1.87 21.22 -1.19 21.56 C-4.65 24.04 -5.94 25.39 -6.81 29.56 C-5.94 33.73 -4.65 35.09 -1.19 37.56 C1.78 37.89 4.75 38.22 7.81 38.56 C7.81 45.49 7.81 52.42 7.81 59.56 C5.3 59.62 2.78 59.69 0.19 59.75 C-0.98 59.79 -0.98 59.79 -2.18 59.83 C-7.79 59.9 -11.81 58.76 -16.05 54.84 C-16.53 54.26 -17.01 53.67 -17.5 53.06 C-17.99 52.47 -18.48 51.89 -18.99 51.28 C-21.64 47.48 -21.36 43.48 -21.39 39.04 C-21.4 38.31 -21.4 37.57 -21.41 36.81 C-21.42 35.25 -21.42 33.7 -21.43 32.14 C-21.44 29.77 -21.47 27.4 -21.5 25.03 C-21.51 23.51 -21.51 22 -21.52 20.48 C-21.53 19.78 -21.54 19.07 -21.55 18.35 C-21.53 12.84 -20.23 8.78 -16.47 4.7 C-15.88 4.22 -15.29 3.74 -14.69 3.25 C-14.1 2.76 -13.51 2.27 -12.91 1.76 C-8.81 -1.1 -4.71 -0.36 0 0 Z " fill="#108BE1" transform="translate(62.1875,189.4375)"/>
<path d="M0 0 C19.14 0 38.28 0 58 0 C58 4.62 58 9.24 58 14 C38.86 14 19.72 14 0 14 C0 9.38 0 4.76 0 0 Z " fill="#444444" transform="translate(99,212)"/>
<path d="M0 0 C1.49 0.01 2.98 0.02 4.46 0.04 C5.22 0.04 5.98 0.04 6.76 0.05 C8.64 0.06 10.52 0.08 12.4 0.1 C6.19 14.48 -0.13 28.82 -6.6 43.1 C-11.88 43.1 -17.16 43.1 -22.6 43.1 C-20.35 36.35 -20.35 36.35 -18.92 33.13 C-18.6 32.41 -18.28 31.69 -17.96 30.95 C-17.62 30.2 -17.28 29.45 -16.94 28.67 C-16.59 27.88 -16.24 27.1 -15.88 26.28 C-15.14 24.63 -14.4 22.97 -13.67 21.32 C-12.53 18.78 -11.4 16.23 -10.28 13.69 C-9.56 12.08 -8.84 10.47 -8.12 8.86 C-7.79 8.1 -7.45 7.33 -7.1 6.55 C-4.22 0.11 -4.22 0.11 0 0 Z " fill="#444444" transform="translate(204.59765625,145.90234375)"/>
<path d="M0 0 C1.78 2.73 2.84 5.71 3.99 8.74 C4.34 9.62 4.68 10.5 5.04 11.41 C5.78 13.27 6.5 15.13 7.21 17 C8.31 19.86 9.43 22.72 10.56 25.57 C11.26 27.37 11.97 29.18 12.68 30.99 C13.01 31.85 13.34 32.7 13.69 33.59 C13.99 34.38 14.3 35.18 14.61 36 C14.88 36.7 15.15 37.41 15.43 38.13 C16 40 16 40 16 43 C11.05 43 6.1 43 1 43 C-2.76 34.92 -6.2 26.74 -9.5 18.46 C-10.32 16.41 -11.15 14.36 -11.98 12.3 C-12.5 10.99 -13.03 9.68 -13.55 8.37 C-14.02 7.19 -14.49 6.02 -14.98 4.81 C-16 2 -16 2 -16 0 C-14.27 -0.2 -12.54 -0.38 -10.81 -0.56 C-9.85 -0.67 -8.89 -0.77 -7.89 -0.88 C-2.67 -1.1 -2.67 -1.1 0 0 Z " fill="#454545" transform="translate(59,146)"/>
<path d="M0 0 C1.21 -0.04 1.21 -0.04 2.45 -0.09 C6.55 -0.13 8.64 -0.03 12.2 2.21 C14.57 4.72 15.12 5.69 15.5 9.12 C15.11 13.06 13.95 14.55 11.19 17.31 C7.19 18.64 3.5 18.61 -0.69 18.69 C-1.89 18.74 -1.89 18.74 -3.12 18.8 C-7.46 18.87 -9.27 18.72 -12.85 16.04 C-15.8 11.95 -15.52 10.26 -14.81 5.31 C-10.64 -0.11 -6.45 0.08 0 0 Z " fill="#F89843" transform="translate(38.8125,106.6875)"/>
<path d="M0 0 C0.76 -0.02 1.52 -0.04 2.3 -0.06 C6.95 -0.09 9.89 0.29 13.69 3.25 C15.77 5.9 15.69 7.32 15.62 10.75 C14.47 15.08 13.49 15.95 9.69 18.25 C6.69 18.84 3.8 18.85 0.75 18.81 C-0.04 18.84 -0.82 18.86 -1.63 18.88 C-5.74 18.87 -8.53 18.52 -11.84 15.97 C-14.31 13.25 -14.31 13.25 -15.04 11.15 C-14.86 7.68 -14.58 5.6 -12.44 2.81 C-8.39 -0.16 -4.87 0.03 0 0 Z " fill="#D31F32" transform="translate(185.3125,209.75)"/>
<path d="M0 0 C10.56 0 21.12 0 32 0 C32 4.62 32 9.24 32 14 C21.44 14 10.88 14 0 14 C0 9.38 0 4.76 0 0 Z " fill="#444444" transform="translate(157,110)"/>
<path d="M0 0 C10.23 0 20.46 0 31 0 C31 4.62 31 9.24 31 14 C20.77 14 10.54 14 0 14 C0 9.38 0 4.76 0 0 Z " fill="#444444" transform="translate(68,110)"/>
<path d="M0 0 C2.76 0.02 5.53 0.04 8.38 0.06 C8.38 6 8.38 11.94 8.38 18.06 C5.67 18.12 2.97 18.19 0.19 18.25 C-0.65 18.28 -1.5 18.3 -2.36 18.33 C-6.95 18.38 -9.91 18.05 -13.62 15.06 C-15.21 12.32 -15.65 10.66 -15.5 7.5 C-12.75 -0.16 -7.06 -0.07 0 0 Z " fill="#D31F32" transform="translate(120.625,27.9375)"/>
<path d="M0 0 C2.54 -0.1 5.07 -0.21 7.69 -0.31 C8.48 -0.36 9.27 -0.4 10.08 -0.45 C14.26 -0.53 15.6 -0.33 18.96 2.46 C19.63 3.3 20.31 4.14 21 5 C21.33 5.33 21.66 5.66 22 6 C21.66 10.51 21.26 13.74 18 17 C14.38 18.21 11.07 18.11 7.31 18.06 C3.69 18.03 3.69 18.03 0 18 C0 12.06 0 6.12 0 0 Z " fill="#BA1036" transform="translate(129,28)"/>
<path d="M0 0 C4.62 0 9.24 0 14 0 C14 6.27 14 12.54 14 19 C9.38 19 4.76 19 0 19 C0 12.73 0 6.46 0 0 Z " fill="#444444" transform="translate(121,67)"/>
<path d="M0 0 C10.31 0 10.31 0 14 3 C15.62 6.24 15.56 9.5 15 13 C13.12 16 13.12 16 10 18 C6.55 18.41 3.49 18.23 0 18 C0 12.06 0 6.12 0 0 Z " fill="#D9662B" transform="translate(217,107)"/>
<path d="M0 0 C0 5.94 0 11.88 0 18 C-9 18 -9 18 -12 16.12 C-14.37 13.6 -14.93 12.63 -15.31 9.19 C-14.93 5.27 -13.71 3.79 -11 1 C-9 0 -9 0 0 0 Z " fill="#0C6CC3" transform="translate(70,210)"/>
<path d="M0 0 C0 5.94 0 11.88 0 18 C-9 18 -9 18 -12 16.12 C-14.37 13.6 -14.93 12.63 -15.31 9.19 C-14.93 5.27 -13.71 3.79 -11 1 C-9 0 -9 0 0 0 Z " fill="#F99A44" transform="translate(217,107)"/>
<path d="M0 0 C9 0 9 0 12 1.88 C14.37 4.4 14.93 5.37 15.31 8.81 C14.93 12.73 13.71 14.21 11 17 C9 18 9 18 0 18 C0 12.06 0 6.12 0 0 Z " fill="#085BB6" transform="translate(128,107)"/>
<path d="M0 0 C9 0 9 0 12 1.88 C14.37 4.4 14.93 5.37 15.31 8.81 C14.93 12.75 13.77 14.23 11 17 C8 18 8 18 0 18 C0 12.06 0 6.12 0 0 Z " fill="#D9652A" transform="translate(39,107)"/>
<path d="M0 0 C9.36 0 9.36 0 13 3 C15.09 5.65 15 7.07 14.94 10.5 C14 14 14 14 12 16.44 C9 18 9 18 0 18 C0 12.06 0 6.12 0 0 Z " fill="#BA1036" transform="translate(186,210)"/>
<path d="M0 0 C2.61 2.61 2.29 4.51 2.32 8.07 C2.32 8.85 2.32 9.63 2.31 10.44 C2.33 11.21 2.34 11.99 2.36 12.79 C2.37 18.53 2.37 18.53 0.64 20.76 C-1 22 -1 22 -3.56 21.81 C-6 21 -6 21 -8 19 C-8.23 16.31 -8.32 13.75 -8.31 11.06 C-8.33 10.33 -8.34 9.6 -8.36 8.85 C-8.37 3.53 -8.37 3.53 -6.64 1.02 C-4.31 -0.42 -2.68 -0.34 0 0 Z " fill="#FC6157" transform="translate(97,24)"/>
<path d="M0 0 C2.61 0.08 3.83 0.18 6.12 1.5 C7.06 3.31 7.06 3.31 6.88 5.88 C6.06 8.31 6.06 8.31 4.06 10.31 C-2.97 10.87 -2.97 10.87 -6 9.12 C-6.94 7.31 -6.94 7.31 -6.75 4.75 C-5.36 0.59 -4.42 0.35 0 0 Z " fill="#48B3FC" transform="translate(54.9375,193.6875)"/>
<path d="M0 0 C1.98 0 3.96 0 6 0 C6 4.62 6 9.24 6 14 C4.02 14 2.04 14 0 14 C0 9.38 0 4.76 0 0 Z " fill="#332E2E" transform="translate(151,212)"/>
<path d="M0 0 C1.98 0 3.96 0 6 0 C6 4.62 6 9.24 6 14 C4.02 14 2.04 14 0 14 C0 9.38 0 4.76 0 0 Z " fill="#2C3236" transform="translate(99,212)"/>
<path d="M0 0 C1.98 0 3.96 0 6 0 C6 4.62 6 9.24 6 14 C4.02 14 2.04 14 0 14 C0 9.38 0 4.76 0 0 Z " fill="#3E3830" transform="translate(183,110)"/>
<path d="M0 0 C1.98 0 3.96 0 6 0 C6 4.62 6 9.24 6 14 C4.02 14 2.04 14 0 14 C0 9.38 0 4.76 0 0 Z " fill="#2E2E2E" transform="translate(157,110)"/>
<path d="M0 0 C1.98 0 3.96 0 6 0 C6 4.62 6 9.24 6 14 C4.02 14 2.04 14 0 14 C0 9.38 0 4.76 0 0 Z " fill="#2E2E2E" transform="translate(93,110)"/>
<path d="M0 0 C4.95 0 9.9 0 15 0 C14.67 1.65 14.34 3.3 14 5 C8.72 5 3.44 5 -2 5 C-1.34 3.35 -0.68 1.7 0 0 Z " fill="#2D2D2D" transform="translate(184,184)"/>
<path d="M0 0 C5.28 0 10.56 0 16 0 C16.33 1.65 16.66 3.3 17 5 C12.05 5 7.1 5 2 5 C1.34 3.35 0.68 1.7 0 0 Z " fill="#2D2D2D" transform="translate(58,184)"/>
<path d="M0 0 C5.28 0 10.56 0 16 0 C15.34 1.65 14.68 3.3 14 5 C9.05 5 4.1 5 -1 5 C-0.67 3.35 -0.34 1.7 0 0 Z " fill="#2D2D2D" transform="translate(201,146)"/>
<path d="M0 0 C0 1.32 0 2.64 0 4 C-3.16 4.94 -5.97 5.11 -9.25 5.06 C-10.14 5.05 -11.03 5.04 -11.95 5.04 C-12.63 5.02 -13.3 5.01 -14 5 C-14.66 3.35 -15.32 1.7 -16 0 C-14.27 -0.2 -12.54 -0.38 -10.81 -0.56 C-9.85 -0.67 -8.89 -0.77 -7.89 -0.88 C-5.06 -1 -2.75 -0.68 0 0 Z " fill="#2E2E2E" transform="translate(59,146)"/>
<path d="M0 0 C1.65 0 3.3 0 5 0 C5 4.62 5 9.24 5 14 C3.35 14 1.7 14 0 14 C0 9.38 0 4.76 0 0 Z " fill="#2D2D2D" transform="translate(68,110)"/>
<path d="M0 0 C4.62 0 9.24 0 14 0 C14 1.65 14 3.3 14 5 C9.38 5 4.76 5 0 5 C0 3.35 0 1.7 0 0 Z " fill="#2D2D2D" transform="translate(121,81)"/>
<path d="M0 0 C4.62 0 9.24 0 14 0 C14 1.65 14 3.3 14 5 C9.38 5 4.76 5 0 5 C0 3.35 0 1.7 0 0 Z " fill="#2D2D2D" transform="translate(121,67)"/>
</svg>
