<?xml version="1.0" encoding="UTF-8"?>
<!-- Generator: visioncortex VTracer 0.6.4 -->
<svg version="1.1" xmlns="http://www.w3.org/2000/svg" width="256" height="256">
<path d="M0 0 C14.52 0 29.04 0 44 0 C46.97 10.71 49.85 21.14 52 32 C52.98 31.68 53.96 31.35 54.97 31.02 C59.18 29.82 63.15 29.7 67.5 29.75 C68.58 29.74 68.58 29.74 69.68 29.73 C74.48 29.74 78.45 30.49 83 32 C83.36 30.29 83.36 30.29 83.73 28.55 C84.07 26.99 84.41 25.43 84.75 23.88 C84.91 23.13 85.06 22.39 85.23 21.63 C86.83 14.28 88.92 7.28 91 0 C105.52 0 120.04 0 135 0 C135 4.95 135 9.9 135 15 C124.77 15 114.54 15 104 15 C102.5 21.64 102.5 21.64 101.04 28.29 C100.45 31.01 99.82 33.68 99.11 36.36 C97.83 41.33 97.83 41.33 98.93 46.2 C99.8 47.55 100.72 48.88 101.69 50.18 C104.04 53.44 104.92 57.13 105.09 61.12 C105.35 67.2 107.25 70.08 111.15 74.68 C121.86 88.13 120 102.96 120 120 C154.98 120 189.96 120 226 120 C226.33 127.26 226.66 134.52 227 142 C228.65 140.35 230.3 138.7 232 137 C236.68 133.88 241.52 134.41 247 135 C251.59 137.17 253.84 139.45 256 144 C256.29 146.89 256.42 149.57 256.4 152.46 C256.41 153.72 256.41 153.72 256.42 155 C256.44 157.77 256.44 160.54 256.43 163.31 C256.44 165.24 256.44 167.17 256.45 169.1 C256.46 173.14 256.46 177.18 256.45 181.22 C256.43 186.39 256.45 191.56 256.48 196.74 C256.5 200.72 256.5 204.7 256.5 208.69 C256.5 210.59 256.5 212.5 256.51 214.41 C256.53 217.08 256.52 219.74 256.5 222.41 C256.51 223.2 256.52 223.98 256.53 224.79 C256.46 229.96 255.39 232.88 252 237 C246.78 241.06 241.35 240.77 235 240 C230.39 237.82 228.26 235.51 226 231 C225.6 228.04 225.6 228.04 225.57 224.74 C225.55 223.5 225.53 222.26 225.51 220.98 C225.5 219.64 225.49 218.29 225.49 216.95 C225.47 215.57 225.45 214.18 225.43 212.8 C225.39 209.17 225.36 205.54 225.33 201.92 C225.3 198.21 225.25 194.5 225.21 190.79 C225.12 183.53 225.06 176.27 225 169 C224.54 170.09 224.08 171.19 223.61 172.31 C219.71 181.6 213.03 188.65 204 193 C197.99 195.15 192.45 195.31 186.1 195.3 C185.06 195.31 184.02 195.31 182.96 195.31 C180.77 195.32 178.59 195.32 176.4 195.32 C173.08 195.31 169.75 195.34 166.42 195.36 C164.29 195.36 162.16 195.36 160.04 195.36 C159.05 195.37 158.06 195.38 157.05 195.39 C146.05 195.32 137.2 191.18 129.25 183.62 C125.16 179.33 122.3 174.85 121 169 C120.99 169.72 120.98 170.43 120.97 171.17 C120.92 174.45 120.83 177.72 120.75 181 C120.74 182.13 120.72 183.25 120.71 184.41 C120.48 192.26 119.45 198 114.25 204.02 C113.7 204.47 113.14 204.92 112.56 205.38 C111.73 206.07 111.73 206.07 110.88 206.77 C106.99 209.31 103.53 210.25 98.92 210.2 C97.52 210.19 97.52 210.19 96.1 210.18 C94.66 210.15 94.66 210.15 93.19 210.12 C92.21 210.12 91.23 210.11 90.22 210.1 C87.81 210.07 85.41 210.04 83 210 C83.03 211.3 83.07 212.6 83.11 213.95 C83.13 215.67 83.16 217.4 83.19 219.12 C83.21 219.98 83.24 220.84 83.26 221.72 C83.32 226.93 82.93 230.5 80 235 C74.82 239.67 71.61 240.35 64.77 240.29 C59.95 239.79 57.28 237.46 54.19 233.94 C52.24 230.77 51.88 228.18 51.9 224.55 C51.91 223.7 51.91 222.86 51.91 221.98 C51.92 220.66 51.92 220.66 51.94 219.31 C51.94 218.42 51.95 217.53 51.95 216.61 C51.96 214.4 51.98 212.2 52 210 C51.41 210.02 50.81 210.04 50.2 210.06 C47.47 210.15 44.73 210.2 42 210.25 C41.07 210.28 40.13 210.32 39.17 210.35 C31.82 210.45 26.59 209.1 20.98 204.25 C20.53 203.7 20.08 203.14 19.62 202.56 C19.16 202.01 18.7 201.45 18.23 200.88 C14.73 195.53 14.71 190.7 14.73 184.5 C14.72 183.55 14.72 182.6 14.71 181.62 C14.7 178.48 14.7 175.35 14.7 172.21 C14.7 170.02 14.69 167.83 14.69 165.64 C14.68 161.05 14.68 156.46 14.68 151.87 C14.69 146.01 14.67 140.15 14.65 134.29 C14.64 129.76 14.63 125.24 14.64 120.72 C14.64 118.56 14.63 116.4 14.62 114.24 C14.61 111.21 14.62 108.18 14.63 105.14 C14.62 104.26 14.61 103.38 14.6 102.47 C14.7 91.21 18.7 79.19 26.75 71.06 C29.66 67.1 29.91 63.71 30.54 58.91 C31.28 54.23 32.81 50.47 35.81 46.75 C37.83 42.08 36.13 37.81 35 33 C34.49 30.67 33.98 28.35 33.47 26.02 C32.66 22.34 31.83 18.67 31 15 C20.77 15 10.54 15 0 15 C0 10.05 0 5.1 0 0 Z " fill="#FE4949" transform="translate(0,8)"/>
<path d="M0 0 C14.52 0 29.04 0 44 0 C46.97 10.71 49.85 21.14 52 32 C52.98 31.68 53.96 31.35 54.97 31.02 C59.18 29.82 63.15 29.7 67.5 29.75 C68.58 29.74 68.58 29.74 69.68 29.73 C74.48 29.74 78.45 30.49 83 32 C83.36 30.29 83.36 30.29 83.73 28.55 C84.07 26.99 84.41 25.43 84.75 23.88 C84.91 23.13 85.06 22.39 85.23 21.63 C86.83 14.28 88.92 7.28 91 0 C105.52 0 120.04 0 135 0 C135 4.95 135 9.9 135 15 C124.77 15 114.54 15 104 15 C102.5 21.64 102.5 21.64 101.04 28.29 C100.45 31.01 99.82 33.68 99.11 36.36 C97.83 41.33 97.83 41.33 98.93 46.2 C100.19 48.24 100.19 48.24 101.64 49.95 C106.44 57.18 105.67 66.71 105 75 C102.4 85.46 95.74 93.84 87 100 C77.17 104.9 67.43 106.92 56.62 104.13 C50 101.55 44.92 98.1 40 93 C39.11 92.11 38.23 91.23 37.31 90.31 C29.98 80.81 28.86 70.52 30 59 C30.77 55.4 32.01 52.4 34.16 49.36 C36.65 45.74 37.27 43.57 36.5 39.19 C36.02 37.12 35.52 35.06 35 33 C34.48 30.68 33.97 28.35 33.47 26.03 C32.66 22.35 31.83 18.67 31 15 C20.77 15 10.54 15 0 15 C0 10.05 0 5.1 0 0 Z " fill="#FED301" transform="translate(0,8)"/>
<path d="M0 0 C0.33 0 0.66 0 1 0 C1.34 1.86 1.34 1.86 1.69 3.75 C4.16 14.52 8.02 23.2 17 30 C23.94 34.14 29.88 35.38 38 37 C38 46.9 38 56.8 38 67 C35.36 67.99 32.72 68.98 30 70 C26.23 72.87 25.23 74.4 24.55 79.09 C24.32 83.07 24.28 87.03 24.29 91.02 C24.28 92.49 24.26 93.97 24.25 95.44 C24.21 99.29 24.2 103.15 24.19 107.01 C24.18 110.95 24.15 114.89 24.11 118.83 C24.05 126.55 24.01 134.28 24 142 C20.5 142.12 17 142.19 13.5 142.25 C12.52 142.28 11.54 142.32 10.52 142.35 C3.03 142.45 -2.19 141.29 -8.02 136.25 C-8.47 135.7 -8.92 135.14 -9.38 134.56 C-9.84 134.01 -10.3 133.45 -10.77 132.88 C-14.27 127.53 -14.29 122.7 -14.27 116.5 C-14.28 115.55 -14.28 114.6 -14.29 113.62 C-14.3 110.48 -14.3 107.35 -14.3 104.21 C-14.3 102.02 -14.31 99.83 -14.31 97.64 C-14.32 93.05 -14.32 88.46 -14.32 83.87 C-14.31 78.01 -14.33 72.15 -14.35 66.29 C-14.36 61.76 -14.37 57.24 -14.36 52.72 C-14.36 50.56 -14.37 48.4 -14.38 46.24 C-14.39 43.21 -14.38 40.18 -14.37 37.14 C-14.38 36.26 -14.39 35.38 -14.4 34.47 C-14.29 21.55 -8.86 9.37 0 0 Z " fill="#FD6B6B" transform="translate(29,76)"/>
<path d="M0 0 C34.98 0 69.96 0 106 0 C106 9.9 106 19.8 106 30 C71.02 30 36.04 30 0 30 C0 20.1 0 10.2 0 0 Z " fill="#A8D3D8" transform="translate(120,128)"/>
<path d="M0 0 C4.59 2.17 6.84 4.45 9 9 C9.29 11.89 9.42 14.57 9.4 17.46 C9.41 18.3 9.42 19.14 9.42 20 C9.44 22.77 9.44 25.54 9.43 28.31 C9.44 30.24 9.44 32.17 9.45 34.1 C9.46 38.14 9.46 42.18 9.45 46.22 C9.43 51.39 9.45 56.56 9.48 61.74 C9.5 65.72 9.5 69.7 9.5 73.69 C9.5 75.59 9.5 77.5 9.51 79.41 C9.53 82.08 9.52 84.74 9.5 87.41 C9.51 88.2 9.52 88.98 9.53 89.79 C9.46 94.96 8.39 97.88 5 102 C-0.22 106.06 -5.65 105.77 -12 105 C-16.59 102.83 -18.84 100.55 -21 96 C-21.29 93.11 -21.42 90.43 -21.4 87.54 C-21.41 86.7 -21.42 85.86 -21.42 85 C-21.44 82.23 -21.44 79.46 -21.43 76.69 C-21.44 74.76 -21.44 72.83 -21.45 70.9 C-21.46 66.86 -21.46 62.82 -21.45 58.78 C-21.43 53.61 -21.45 48.44 -21.48 43.26 C-21.5 39.28 -21.5 35.3 -21.5 31.31 C-21.5 29.41 -21.5 27.5 -21.51 25.59 C-21.53 22.92 -21.52 20.26 -21.5 17.59 C-21.52 16.41 -21.52 16.41 -21.53 15.21 C-21.46 10.04 -20.39 7.12 -17 3 C-11.78 -1.06 -6.35 -0.77 0 0 Z " fill="#444444" transform="translate(247,143)"/>
<path d="M0 0 C5.3 2.7 9.1 6.29 11 12 C11.11 14.6 11.16 17.17 11.16 19.77 C11.17 20.56 11.17 21.35 11.18 22.17 C11.19 24.79 11.2 27.4 11.2 30.02 C11.21 31.84 11.21 33.66 11.22 35.48 C11.23 39.3 11.24 43.11 11.24 46.93 C11.25 51.82 11.27 56.7 11.3 61.59 C11.32 65.35 11.32 69.11 11.32 72.87 C11.33 74.67 11.33 76.47 11.35 78.27 C11.36 80.79 11.36 83.32 11.36 85.84 C11.37 86.58 11.37 87.32 11.38 88.08 C11.35 92.8 10.49 96 8 100 C2.82 104.67 -0.39 105.35 -7.23 105.29 C-12.05 104.79 -14.72 102.46 -17.81 98.94 C-20.31 94.86 -20.12 91.03 -20.07 86.42 C-20.06 84.69 -20.05 82.97 -20.04 81.24 C-20.03 80.26 -20.03 79.28 -20.02 78.27 C-20 74.64 -20 71 -20 67.37 C-20 60.91 -19.97 54.45 -19.92 47.99 C-19.89 44.22 -19.87 40.45 -19.88 36.68 C-19.89 32.98 -19.86 29.27 -19.82 25.57 C-19.81 24.17 -19.81 22.78 -19.82 21.38 C-19.9 9.25 -19.9 9.25 -16.2 4.72 C-11.44 0.03 -6.48 -0.91 0 0 Z " fill="#474545" transform="translate(72,143)"/>
<path d="M0 0 C14.52 0 29.04 0 44 0 C44 4.95 44 9.9 44 15 C33.77 15 23.54 15 13 15 C11.5 21.64 11.5 21.64 10.04 28.29 C9.45 31.01 8.82 33.68 8.11 36.36 C6.83 41.33 6.83 41.33 7.93 46.2 C9.19 48.24 9.19 48.24 10.64 49.95 C15.44 57.18 14.67 66.71 14 75 C11.4 85.46 4.74 93.84 -4 100 C-10.69 103.33 -16.17 105.15 -23.69 105.06 C-24.39 105.06 -25.09 105.05 -25.81 105.05 C-27.54 105.04 -29.27 105.02 -31 105 C-31 104.67 -31 104.34 -31 104 C-28.36 104 -25.72 104 -23 104 C-23 99.38 -23 94.76 -23 90 C-20.53 89.32 -18.05 88.63 -15.58 87.95 C-12.94 86.98 -11.21 85.71 -9 84 C-8.34 84 -7.68 84 -7 84 C-6.31 82.68 -5.65 81.34 -5 80 C-4.46 78.99 -3.93 77.98 -3.38 76.94 C-1.09 71.48 -0.84 65.19 -2.87 59.62 C-3.55 58.28 -4.26 56.95 -5.03 55.66 C-6 54 -6 54 -7 51 C-8.7 49.9 -8.7 49.9 -11 49 C-12.13 48.48 -13.27 47.97 -14.44 47.44 C-18.16 45.81 -18.16 45.81 -23 45 C-23 40.05 -23 35.1 -23 30 C-17.47 29.81 -13.35 30.35 -8 32 C-7.76 30.86 -7.52 29.73 -7.27 28.55 C-6.93 26.99 -6.59 25.43 -6.25 23.88 C-6.01 22.76 -6.01 22.76 -5.77 21.63 C-4.17 14.28 -2.08 7.28 0 0 Z " fill="#FCBE01" transform="translate(91,8)"/>
<path d="M0 0 C6.16 3.61 10.46 8.49 12.62 15.31 C13.66 22.5 12.79 28.33 8.62 34.31 C4.44 39.42 -0.48 42.75 -7.05 43.7 C-13.33 43.95 -18.31 43.14 -23.38 39.31 C-29.41 33.71 -32.33 28.73 -32.75 20.44 C-32.58 14.19 -30.8 9.88 -26.5 5.33 C-18.96 -1.59 -9.79 -4.59 0 0 Z " fill="#C6E1E4" transform="translate(77.375,54.6875)"/>
<path d="M0 0 C0 34.65 0 69.3 0 105 C-8.29 103.82 -8.29 103.82 -13 99 C-15.22 94.81 -15.24 90.92 -15.13 86.3 C-15.11 84.59 -15.09 82.88 -15.08 81.17 C-15.06 80.2 -15.05 79.24 -15.03 78.24 C-14.99 73.94 -14.99 69.63 -15 65.33 C-15 59.55 -14.97 53.77 -14.92 47.99 C-14.89 44.22 -14.87 40.45 -14.88 36.68 C-14.89 32.98 -14.86 29.27 -14.82 25.57 C-14.81 24.17 -14.81 22.78 -14.82 21.38 C-14.9 9.25 -14.9 9.25 -11.2 4.72 C-7.69 1.27 -4.96 0 0 0 Z " fill="#5A5A5A" transform="translate(67,143)"/>
<path d="M0 0 C14.52 0 29.04 0 44 0 C52 28.8 52 28.8 52 34 C50.46 35.31 50.46 35.31 48.38 36.44 C44.49 38.57 41.35 41.12 38 44 C37 40.19 36 36.38 35.01 32.57 C34.5 30.64 34 28.71 33.49 26.77 C33.17 25.56 32.86 24.35 32.53 23.1 C32.24 21.98 31.94 20.86 31.64 19.71 C31 17 31 17 31 15 C20.77 15 10.54 15 0 15 C0 10.05 0 5.1 0 0 Z " fill="#5A5A59" transform="translate(0,8)"/>
<path d="M0 0 C14.52 0 29.04 0 44 0 C44 4.95 44 9.9 44 15 C33.77 15 23.54 15 13 15 C12.4 17.76 11.8 20.53 11.19 23.38 C9.73 30.01 8.14 36.55 6 43 C5.34 43 4.68 43 4 43 C2.33 41.33 0.67 39.67 -1 38 C-3.28 36.25 -5.63 34.63 -8 33 C-6.88 25.71 -5.22 18.58 -3.44 11.44 C-3.22 10.54 -2.99 9.65 -2.76 8.73 C-1.13 2.26 -1.13 2.26 0 0 Z " fill="#444443" transform="translate(91,8)"/>
<path d="M0 0 C0 4.95 0 9.9 0 15 C-2.64 15 -5.28 15 -8 15 C-8 19.95 -8 24.9 -8 30 C-5.36 30 -2.72 30 0 30 C0 34.95 0 39.9 0 45 C-8.14 44.51 -12.64 42.74 -18.25 36.62 C-22.53 31.32 -23.49 26.23 -23.3 19.52 C-22.43 12.31 -18.44 7.86 -12.95 3.41 C-8.31 0.06 -5.9 0 0 0 Z " fill="#DEEBEC" transform="translate(68,53)"/>
<path d="M0 0 C2.31 0 4.62 0 7 0 C7 4.95 7 9.9 7 15 C4.69 15 2.38 15 0 15 C0 10.05 0 5.1 0 0 Z " fill="#A8D3D8" transform="translate(68,68)"/>
</svg>
