<?xml version="1.0" encoding="UTF-8"?>
<!-- Generator: visioncortex VTracer 0.6.4 -->
<svg version="1.1" xmlns="http://www.w3.org/2000/svg" width="256" height="256">
<path d="M0 0 C0.95 -0.01 1.9 -0.01 2.87 -0.02 C6.04 -0.04 9.2 -0.03 12.37 -0.02 C14.64 -0.03 16.92 -0.03 19.19 -0.04 C25.36 -0.07 31.53 -0.06 37.7 -0.06 C42.85 -0.05 48 -0.06 53.15 -0.07 C66 -0.08 78.85 -0.08 91.7 -0.06 C102.85 -0.04 114 -0.06 125.15 -0.09 C136.6 -0.12 148.06 -0.13 159.52 -0.12 C165.95 -0.11 172.38 -0.12 178.81 -0.14 C184.85 -0.15 190.9 -0.15 196.94 -0.12 C199.16 -0.12 201.38 -0.12 203.59 -0.14 C206.62 -0.15 209.65 -0.14 212.68 -0.11 C213.99 -0.13 213.99 -0.13 215.33 -0.15 C221.46 -0.06 225.79 1.38 230.4 5.51 C234.12 9.93 234.91 14.29 234.92 19.98 C234.93 20.7 234.93 21.42 234.94 22.16 C234.96 24.56 234.95 26.95 234.94 29.34 C234.94 31.06 234.95 32.78 234.96 34.5 C234.99 39.17 234.98 43.84 234.97 48.5 C234.97 52.4 234.98 56.3 234.98 60.2 C235 69.4 235 78.6 234.98 87.8 C234.96 97.28 234.98 106.76 235.01 116.25 C235.04 124.4 235.05 132.55 235.04 140.7 C235.03 145.56 235.03 150.42 235.06 155.29 C235.07 159.86 235.07 164.44 235.04 169.01 C235.04 170.69 235.04 172.36 235.05 174.04 C235.16 189.21 235.16 189.21 231.16 194.97 C225.23 200.19 220.47 201.1 212.81 201.03 C211.86 201.04 210.91 201.04 209.94 201.05 C206.77 201.07 203.61 201.06 200.44 201.05 C198.17 201.06 195.89 201.06 193.62 201.07 C187.45 201.1 181.28 201.09 175.11 201.08 C169.96 201.08 164.81 201.09 159.66 201.09 C146.81 201.11 133.96 201.11 121.11 201.09 C109.96 201.07 98.81 201.09 87.66 201.12 C76.21 201.15 64.75 201.16 53.29 201.15 C46.86 201.14 40.43 201.15 34 201.17 C27.96 201.18 21.91 201.18 15.87 201.15 C13.65 201.15 11.43 201.15 9.21 201.16 C6.19 201.18 3.16 201.17 0.13 201.14 C-0.75 201.15 -1.62 201.17 -2.52 201.18 C-8.65 201.09 -12.98 199.65 -17.6 195.51 C-21.31 191.09 -22.1 186.73 -22.11 181.05 C-22.12 180.33 -22.12 179.61 -22.13 178.87 C-22.15 176.47 -22.14 174.08 -22.13 171.69 C-22.14 169.97 -22.14 168.25 -22.16 166.52 C-22.18 161.86 -22.17 157.19 -22.17 152.53 C-22.16 148.63 -22.17 144.73 -22.18 140.83 C-22.19 131.63 -22.19 122.43 -22.17 113.23 C-22.16 103.75 -22.17 94.27 -22.2 84.78 C-22.23 76.63 -22.24 68.48 -22.23 60.33 C-22.22 55.47 -22.23 50.6 -22.25 45.74 C-22.26 41.17 -22.26 36.59 -22.23 32.02 C-22.23 30.34 -22.23 28.67 -22.25 26.99 C-22.35 11.82 -22.35 11.82 -18.35 6.06 C-12.42 0.84 -7.66 -0.07 0 0 Z " fill="#8BCCE5" transform="translate(21.595565795898438,27.485336303710938)"/>
<path d="M0 0 C0.86 -0 1.72 -0.01 2.6 -0.01 C5.49 -0.03 8.37 -0.02 11.26 -0.01 C13.32 -0.01 15.39 -0.02 17.45 -0.02 C23.07 -0.04 28.68 -0.03 34.3 -0.02 C40.17 -0.01 46.03 -0.02 51.9 -0.03 C61.76 -0.03 71.61 -0.02 81.47 -0.01 C92.88 0.01 104.28 0 115.69 -0.02 C125.47 -0.03 135.25 -0.03 145.03 -0.02 C150.88 -0.02 156.72 -0.02 162.57 -0.03 C168.07 -0.04 173.56 -0.03 179.06 -0.01 C181.08 -0.01 183.1 -0.01 185.12 -0.02 C187.87 -0.03 190.62 -0.02 193.37 0 C194.58 -0.01 194.58 -0.01 195.82 -0.02 C201.18 0.04 201.18 0.04 203.69 1.73 C205.23 4.27 205.02 6.42 204.98 9.36 C204.97 10.52 204.96 11.69 204.95 12.89 C204.93 14.1 204.9 15.32 204.87 16.57 C204.86 17.79 204.85 19.02 204.83 20.29 C204.8 23.32 204.75 26.35 204.69 29.38 C201.02 27.84 198.7 25.63 195.92 22.81 C195.03 21.91 194.14 21.02 193.23 20.1 C192.31 19.16 191.39 18.22 190.44 17.26 C189.49 16.3 188.55 15.35 187.6 14.39 C185.29 12.06 182.99 9.72 180.69 7.38 C178.21 8.37 178.21 8.37 175.69 9.38 C176.24 13.26 177.96 15.01 180.72 17.71 C181.53 18.51 182.34 19.31 183.17 20.13 C184.02 20.96 184.87 21.78 185.75 22.63 C186.6 23.47 187.46 24.31 188.34 25.18 C190.45 27.25 192.56 29.32 194.69 31.38 C193.23 34.74 191.38 36.93 188.77 39.49 C188.01 40.24 187.25 41 186.47 41.78 C185.67 42.55 184.88 43.33 184.06 44.13 C183.26 44.92 182.46 45.72 181.63 46.53 C179.65 48.49 177.67 50.44 175.69 52.38 C176.68 54.36 176.68 54.36 177.69 56.38 C181.68 56.8 181.68 56.8 184.04 54.45 C184.88 53.57 185.73 52.69 186.6 51.79 C187.28 51.09 187.28 51.09 187.98 50.37 C189.44 48.89 190.87 47.38 192.31 45.88 C193.76 44.38 195.21 42.88 196.66 41.39 C197.98 40.03 199.29 38.67 200.6 37.31 C202.69 35.38 202.69 35.38 204.69 35.38 C204.76 47.06 204.81 58.75 204.84 70.43 C204.86 75.85 204.88 81.28 204.91 86.7 C204.95 91.93 204.96 97.17 204.97 102.4 C204.98 104.4 204.99 106.4 205 108.4 C205.03 111.19 205.03 113.98 205.03 116.78 C205.04 117.61 205.05 118.44 205.06 119.3 C205.03 124.99 205.03 124.99 203.16 127.12 C202.43 127.74 202.43 127.74 201.69 128.38 C200.7 128.05 199.71 127.72 198.69 127.38 C199.02 127.05 199.35 126.72 199.69 126.38 C199.79 124.32 199.82 122.26 199.82 120.19 C199.82 118.31 199.82 118.31 199.82 116.39 C199.82 115.73 199.82 115.07 199.82 114.4 C199.81 112.39 199.82 110.38 199.82 108.37 C199.82 107.12 199.82 105.86 199.82 104.57 C199.82 102.83 199.82 102.83 199.82 101.05 C199.99 98.46 199.99 98.46 198.69 97.38 C196.83 97.28 194.97 97.25 193.11 97.25 C191.9 97.25 190.68 97.25 189.44 97.25 C188.08 97.25 186.73 97.25 185.37 97.25 C183.95 97.25 182.54 97.25 181.12 97.25 C177.26 97.24 173.4 97.24 169.54 97.25 C165.51 97.25 161.48 97.25 157.45 97.25 C150.68 97.24 143.91 97.25 137.14 97.25 C129.31 97.26 121.47 97.25 113.63 97.25 C106.91 97.24 100.2 97.24 93.48 97.25 C89.46 97.25 85.45 97.25 81.43 97.24 C77.65 97.24 73.88 97.24 70.1 97.25 C68.71 97.25 67.32 97.25 65.93 97.25 C64.05 97.25 62.16 97.25 60.27 97.25 C59.21 97.25 58.15 97.25 57.06 97.26 C54.73 97.11 54.73 97.11 53.69 98.38 C53.6 100.6 53.58 102.82 53.59 105.04 C53.59 105.71 53.59 106.37 53.59 107.05 C53.6 109.18 53.61 111.31 53.62 113.44 C53.63 114.88 53.63 116.32 53.64 117.77 C53.65 121.3 53.67 124.84 53.69 128.38 C51.71 128.38 49.73 128.38 47.69 128.38 C47.69 127.48 47.7 126.57 47.7 125.64 C47.72 122.3 47.73 118.96 47.74 115.62 C47.75 114.17 47.75 112.72 47.76 111.27 C47.77 109.2 47.78 107.12 47.78 105.04 C47.79 103.79 47.8 102.54 47.8 101.25 C48.02 98.48 48.02 98.48 46.69 97.38 C45.07 97.28 43.44 97.25 41.82 97.25 C40.78 97.25 39.74 97.25 38.67 97.24 C37.54 97.24 36.41 97.25 35.25 97.25 C34.1 97.25 32.95 97.25 31.76 97.25 C29.33 97.24 26.89 97.25 24.45 97.25 C20.7 97.26 16.96 97.25 13.21 97.24 C10.85 97.24 8.49 97.25 6.12 97.25 C4.43 97.25 4.43 97.25 2.7 97.24 C1.67 97.25 0.63 97.25 -0.44 97.25 C-1.36 97.25 -2.28 97.25 -3.23 97.25 C-5.3 97.15 -5.3 97.15 -6.31 98.38 C-6.41 100.43 -6.44 102.48 -6.45 104.53 C-6.45 105.78 -6.45 107.04 -6.45 108.32 C-6.45 109.64 -6.44 110.96 -6.44 112.32 C-6.44 113.63 -6.45 114.95 -6.45 116.3 C-6.45 117.55 -6.45 118.81 -6.45 120.1 C-6.44 121.25 -6.44 122.41 -6.44 123.6 C-6.5 126.34 -6.5 126.34 -5.31 128.38 C-8.18 127.81 -9.17 127.52 -11.31 125.38 C-11.5 122.52 -11.56 119.75 -11.54 116.89 C-11.54 116.01 -11.54 115.14 -11.54 114.23 C-11.54 111.32 -11.52 108.41 -11.51 105.5 C-11.5 103.48 -11.5 101.47 -11.5 99.45 C-11.49 94.14 -11.47 88.83 -11.45 83.52 C-11.43 78.11 -11.42 72.69 -11.41 67.28 C-11.39 56.64 -11.36 46.01 -11.31 35.38 C-7.68 37.08 -5.46 39.07 -2.69 41.99 C-1.82 42.89 -0.95 43.79 -0.05 44.71 C1.78 46.62 3.6 48.54 5.42 50.46 C6.29 51.35 7.16 52.25 8.06 53.17 C8.85 54 9.64 54.83 10.46 55.69 C12.53 57.66 12.53 57.66 14.98 57.14 C16.85 56.54 16.85 56.54 17.44 54.67 C17.96 52.23 17.96 52.23 16.06 50.18 C15.26 49.41 14.45 48.63 13.63 47.83 C12.34 46.57 12.34 46.57 11.02 45.28 C10.11 44.4 9.19 43.53 8.25 42.63 C7.34 41.74 6.43 40.85 5.49 39.94 C3.23 37.74 0.97 35.56 -1.31 33.38 C0.14 30.01 1.97 27.92 4.64 25.41 C5.4 24.68 6.17 23.94 6.95 23.18 C8.57 21.64 10.2 20.11 11.83 18.58 C12.59 17.84 13.35 17.11 14.14 16.35 C14.84 15.68 15.55 15.02 16.27 14.33 C17.96 12.47 17.96 12.47 17.41 10.13 C16.85 8.23 16.85 8.23 15.01 7.59 C12.48 7.1 12.48 7.1 10.25 9.29 C9.36 10.21 8.47 11.14 7.55 12.1 C7.08 12.59 6.6 13.08 6.11 13.58 C4.58 15.15 3.07 16.73 1.56 18.32 C0.04 19.9 -1.48 21.48 -3 23.05 C-4.39 24.47 -5.76 25.91 -7.13 27.35 C-9.31 29.38 -9.31 29.38 -11.31 29.38 C-11.4 25.11 -11.45 20.84 -11.5 16.57 C-11.53 15.35 -11.55 14.14 -11.58 12.89 C-11.59 11.72 -11.6 10.56 -11.61 9.36 C-11.62 8.29 -11.64 7.21 -11.65 6.11 C-11.31 3.38 -11.31 3.38 -10.31 1.73 C-7.13 -0.42 -3.71 -0.03 0 0 Z " fill="#CBE2E9" transform="translate(31.31298828125,79.61904907226563)"/>
<path d="M0 0 C0.95 -0.01 1.9 -0.01 2.87 -0.02 C6.04 -0.04 9.2 -0.03 12.37 -0.02 C14.64 -0.03 16.92 -0.03 19.19 -0.04 C25.36 -0.07 31.53 -0.06 37.7 -0.06 C42.85 -0.05 48 -0.06 53.15 -0.07 C66 -0.08 78.85 -0.08 91.7 -0.06 C102.85 -0.04 114 -0.06 125.15 -0.09 C136.6 -0.12 148.06 -0.13 159.52 -0.12 C165.95 -0.11 172.38 -0.12 178.81 -0.14 C184.85 -0.15 190.9 -0.15 196.94 -0.12 C199.16 -0.12 201.38 -0.12 203.59 -0.14 C206.62 -0.15 209.65 -0.14 212.68 -0.11 C213.99 -0.13 213.99 -0.13 215.33 -0.15 C221.46 -0.06 225.79 1.38 230.4 5.51 C234.12 9.93 234.91 14.29 234.92 19.98 C234.93 20.7 234.93 21.42 234.94 22.16 C234.96 24.56 234.95 26.95 234.94 29.34 C234.94 31.06 234.95 32.78 234.96 34.5 C234.99 39.17 234.98 43.84 234.97 48.5 C234.97 52.4 234.98 56.3 234.98 60.2 C235 69.4 235 78.6 234.98 87.8 C234.96 97.28 234.98 106.76 235.01 116.25 C235.04 124.4 235.05 132.55 235.04 140.7 C235.03 145.56 235.03 150.42 235.06 155.29 C235.07 159.86 235.07 164.44 235.04 169.01 C235.04 170.69 235.04 172.36 235.05 174.04 C235.16 189.21 235.16 189.21 231.16 194.97 C225.23 200.19 220.47 201.1 212.81 201.03 C211.86 201.04 210.91 201.04 209.94 201.05 C206.77 201.07 203.61 201.06 200.44 201.05 C198.17 201.06 195.89 201.06 193.62 201.07 C187.45 201.1 181.28 201.09 175.11 201.08 C169.96 201.08 164.81 201.09 159.66 201.09 C146.81 201.11 133.96 201.11 121.11 201.09 C109.96 201.07 98.81 201.09 87.66 201.12 C76.21 201.15 64.75 201.16 53.29 201.15 C46.86 201.14 40.43 201.15 34 201.17 C27.96 201.18 21.91 201.18 15.87 201.15 C13.65 201.15 11.43 201.15 9.21 201.16 C6.19 201.18 3.16 201.17 0.13 201.14 C-0.75 201.15 -1.62 201.17 -2.52 201.18 C-8.65 201.09 -12.98 199.65 -17.6 195.51 C-21.31 191.09 -22.1 186.73 -22.11 181.05 C-22.12 180.33 -22.12 179.61 -22.13 178.87 C-22.15 176.47 -22.14 174.08 -22.13 171.69 C-22.14 169.97 -22.14 168.25 -22.16 166.52 C-22.18 161.86 -22.17 157.19 -22.17 152.53 C-22.16 148.63 -22.17 144.73 -22.18 140.83 C-22.19 131.63 -22.19 122.43 -22.17 113.23 C-22.16 103.75 -22.17 94.27 -22.2 84.78 C-22.23 76.63 -22.24 68.48 -22.23 60.33 C-22.22 55.47 -22.23 50.6 -22.25 45.74 C-22.26 41.17 -22.26 36.59 -22.23 32.02 C-22.23 30.34 -22.23 28.67 -22.25 26.99 C-22.35 11.82 -22.35 11.82 -18.35 6.06 C-12.42 0.84 -7.66 -0.07 0 0 Z M-12.6 13.51 C-15.43 19.19 -13.6 26.17 -13.6 32.51 C52.4 32.51 118.4 32.51 186.4 32.51 C186.4 35.15 186.4 37.79 186.4 40.51 C120.4 40.51 54.4 40.51 -13.6 40.51 C-13.66 64.17 -13.72 87.83 -13.78 112.2 C-13.81 119.67 -13.84 127.15 -13.87 134.85 C-13.88 141.54 -13.88 141.54 -13.88 148.23 C-13.88 151.21 -13.9 154.2 -13.91 157.18 C-13.93 160.99 -13.94 164.79 -13.93 168.6 C-13.94 169.99 -13.94 171.39 -13.95 172.79 C-13.97 174.67 -13.96 176.56 -13.96 178.45 C-13.96 179.5 -13.96 180.56 -13.96 181.65 C-13.43 185.81 -11.75 188.24 -8.97 191.3 C-5.27 193.19 -1.7 192.93 2.39 192.9 C3.77 192.9 3.77 192.9 5.18 192.91 C8.26 192.92 11.35 192.91 14.43 192.9 C16.64 192.91 18.85 192.91 21.06 192.92 C27.07 192.93 33.07 192.93 39.08 192.92 C45.36 192.91 51.64 192.92 57.92 192.92 C69.14 192.93 80.37 192.92 91.59 192.9 C101.77 192.89 111.94 192.89 122.12 192.91 C133.93 192.92 145.75 192.93 157.56 192.92 C163.82 192.91 170.07 192.91 176.33 192.92 C182.21 192.93 188.09 192.93 193.97 192.91 C196.13 192.9 198.29 192.91 200.45 192.91 C203.4 192.92 206.34 192.91 209.29 192.9 C210.58 192.91 210.58 192.91 211.89 192.92 C216.52 192.87 219.72 192.63 223.4 189.51 C226.28 185.81 226.78 183.08 226.77 178.45 C226.77 177.23 226.77 176.01 226.78 174.75 C226.77 173.41 226.76 172.07 226.75 170.73 C226.74 169.31 226.74 167.89 226.75 166.47 C226.75 162.62 226.73 158.78 226.71 154.93 C226.69 150.91 226.69 146.88 226.68 142.86 C226.68 135.25 226.65 127.63 226.62 120.02 C226.59 111.35 226.57 102.68 226.56 94.01 C226.52 76.18 226.47 58.35 226.4 40.51 C218.48 40.51 210.56 40.51 202.4 40.51 C202.4 37.87 202.4 35.23 202.4 32.51 C210.32 32.51 218.24 32.51 226.4 32.51 C226.56 28.49 226.56 28.49 226.72 24.39 C226.76 23.56 226.81 22.72 226.85 21.87 C226.93 17.82 226.64 15.24 224.07 12.02 C219.62 7.84 215.33 8.36 209.54 8.36 C208.63 8.36 207.71 8.35 206.76 8.35 C203.68 8.33 200.59 8.33 197.5 8.32 C195.3 8.31 193.09 8.31 190.88 8.3 C183.62 8.27 176.36 8.26 169.1 8.24 C166.61 8.24 164.11 8.23 161.61 8.23 C151.23 8.2 140.84 8.18 130.46 8.17 C127.77 8.17 125.07 8.17 122.38 8.16 C121.37 8.16 121.37 8.16 120.35 8.16 C109.5 8.15 98.65 8.12 87.8 8.07 C76.66 8.03 65.52 8.01 54.38 8 C48.12 8 41.87 7.99 35.62 7.96 C29.73 7.93 23.85 7.92 17.97 7.93 C15.81 7.93 13.65 7.92 11.49 7.91 C8.54 7.88 5.6 7.89 2.65 7.91 C1.79 7.89 0.94 7.88 0.05 7.86 C-5.86 7.94 -8.48 9.23 -12.6 13.51 Z " fill="#000000" transform="translate(21.595565795898438,27.485336303710938)"/>
<path d="M0 0 C0.92 -0 1.83 -0.01 2.78 -0.01 C5.87 -0.02 8.96 -0.02 12.05 -0.02 C14.26 -0.03 16.47 -0.03 18.68 -0.04 C24.69 -0.05 30.71 -0.06 36.72 -0.06 C40.48 -0.06 44.23 -0.07 47.99 -0.07 C58.38 -0.08 68.77 -0.09 79.17 -0.1 C80.16 -0.1 80.16 -0.1 81.18 -0.1 C81.85 -0.1 82.52 -0.1 83.2 -0.1 C84.55 -0.1 85.91 -0.1 87.26 -0.1 C88.26 -0.1 88.26 -0.1 89.29 -0.1 C100.15 -0.1 111.02 -0.12 121.88 -0.15 C133.03 -0.17 144.18 -0.18 155.33 -0.18 C161.59 -0.18 167.85 -0.19 174.11 -0.21 C180 -0.22 185.89 -0.23 191.78 -0.22 C193.95 -0.22 196.11 -0.22 198.27 -0.23 C201.22 -0.24 204.17 -0.24 207.12 -0.23 C207.98 -0.24 208.84 -0.24 209.73 -0.25 C215.44 -0.2 218.74 0.85 223.05 4.78 C224.9 8.42 224.57 11.88 224.44 15.89 C224.38 18.61 224.32 21.34 224.25 24.14 C216.33 24.14 208.41 24.14 200.25 24.14 C200.25 25.46 200.25 26.78 200.25 28.14 C194.97 28.14 189.69 28.14 184.25 28.14 C184.25 26.82 184.25 25.5 184.25 24.14 C118.25 24.14 52.25 24.14 -15.75 24.14 C-15.75 7.14 -15.75 7.14 -10.75 1.14 C-7.41 -0.53 -3.67 -0 0 0 Z " fill="#DBDBDB" transform="translate(23.748733520507813,35.85955810546875)"/>
<path d="M0 0 C0.79 0 1.57 0.01 2.38 0.01 C3.63 0.01 3.63 0.01 4.91 0 C7.72 -0 10.53 0 13.33 0.01 C15.34 0.01 17.35 0 19.35 -0 C24.82 -0.01 30.28 -0.01 35.74 -0 C41.45 0 47.15 -0 52.86 -0 C62.44 -0.01 72.03 -0 81.61 0.01 C92.7 0.02 103.8 0.01 114.89 0 C124.4 -0.01 133.91 -0.01 143.42 -0 C149.11 0 154.8 0 160.48 -0.01 C165.83 -0.01 171.17 -0.01 176.52 0 C178.48 0.01 180.45 0.01 182.42 0 C185.09 -0 187.77 0 190.44 0.01 C191.23 0.01 192.01 0 192.82 0 C198.18 0.04 198.18 0.04 200.41 2.27 C200.67 4.3 200.67 4.3 200.68 6.77 C200.68 7.65 200.68 8.54 200.69 9.45 C200.68 10.38 200.67 11.31 200.66 12.27 C200.67 13.2 200.68 14.12 200.69 15.08 C200.68 15.97 200.68 16.85 200.68 17.77 C200.68 18.58 200.67 19.4 200.67 20.24 C200.41 22.27 200.41 22.27 198.41 24.27 C195.72 24.47 193.13 24.54 190.44 24.52 C189.19 24.53 189.19 24.53 187.91 24.53 C185.11 24.54 182.3 24.53 179.49 24.53 C177.48 24.53 175.48 24.53 173.47 24.54 C168.01 24.55 162.54 24.54 157.08 24.54 C151.38 24.53 145.67 24.54 139.96 24.54 C130.38 24.54 120.8 24.54 111.21 24.53 C100.12 24.52 89.03 24.52 77.93 24.53 C68.42 24.54 58.91 24.54 49.4 24.54 C43.71 24.53 38.03 24.53 32.34 24.54 C27 24.55 21.65 24.54 16.31 24.53 C14.34 24.53 12.37 24.53 10.41 24.53 C7.73 24.54 5.06 24.53 2.38 24.52 C1.6 24.53 0.81 24.53 0 24.53 C-5.36 24.5 -5.36 24.5 -7.59 22.27 C-7.85 20.24 -7.85 20.24 -7.85 17.77 C-7.86 16.88 -7.86 15.99 -7.86 15.08 C-7.85 13.69 -7.85 13.69 -7.84 12.27 C-7.85 11.34 -7.85 10.41 -7.86 9.45 C-7.86 8.57 -7.86 7.68 -7.85 6.77 C-7.85 5.95 -7.85 5.14 -7.85 4.3 C-7.25 -0.42 -3.98 0.03 0 0 Z " fill="#000000" transform="translate(31.588153839111328,147.7325131893158)"/>
<path d="M0 0 C1.82 -0.01 1.82 -0.01 3.67 -0.02 C5.02 -0.01 6.37 -0.01 7.72 -0 C9.14 -0.01 10.55 -0.01 11.97 -0.02 C15.82 -0.02 19.67 -0.02 23.52 -0.01 C27.55 -0.01 31.57 -0.01 35.59 -0.02 C42.35 -0.02 49.11 -0.02 55.87 -0.01 C63.69 0 71.51 0 79.34 -0.01 C86.04 -0.02 92.75 -0.02 99.46 -0.02 C103.47 -0.01 107.48 -0.01 111.49 -0.02 C115.26 -0.02 119.03 -0.02 122.79 -0.01 C124.18 -0.01 125.57 -0.01 126.95 -0.01 C128.84 -0.02 130.73 -0.01 132.61 0 C133.67 0 134.73 0 135.82 0 C138.31 0.25 138.31 0.25 140.31 2.25 C140.56 5.02 140.56 5.02 140.57 8.5 C140.57 9.75 140.58 11 140.58 12.29 C140.57 13.59 140.56 14.9 140.56 16.25 C140.56 17.56 140.57 18.87 140.58 20.22 C140.58 21.47 140.57 22.72 140.57 24 C140.57 25.15 140.57 26.3 140.56 27.49 C140.31 30.25 140.31 30.25 138.31 32.25 C135.82 32.51 135.82 32.51 132.61 32.51 C130.8 32.52 130.8 32.52 128.94 32.53 C127.59 32.52 126.24 32.52 124.89 32.51 C123.48 32.52 122.06 32.52 120.64 32.52 C116.79 32.53 112.94 32.53 109.09 32.52 C105.07 32.52 101.04 32.52 97.02 32.53 C90.26 32.53 83.5 32.52 76.74 32.51 C68.92 32.5 61.1 32.51 53.28 32.52 C46.57 32.53 39.86 32.53 33.15 32.52 C29.14 32.52 25.13 32.52 21.12 32.53 C17.36 32.53 13.59 32.53 9.82 32.52 C8.43 32.51 7.05 32.51 5.66 32.52 C3.77 32.52 1.89 32.52 0 32.51 C-1.06 32.51 -2.11 32.51 -3.2 32.51 C-5.69 32.25 -5.69 32.25 -7.69 30.25 C-7.95 27.49 -7.95 27.49 -7.96 24 C-7.96 22.76 -7.96 21.51 -7.97 20.22 C-7.96 18.91 -7.95 17.6 -7.94 16.25 C-7.95 14.94 -7.96 13.63 -7.97 12.29 C-7.96 11.04 -7.96 9.79 -7.96 8.5 C-7.96 7.35 -7.95 6.2 -7.95 5.02 C-7.45 -0.3 -4.62 0 0 0 Z " fill="#000000" transform="translate(91.69384765625,175.74603271484375)"/>
<path d="M0 0 C43.56 0 87.12 0 132 0 C132 5.28 132 10.56 132 16 C88.44 16 44.88 16 0 16 C0 10.72 0 5.44 0 0 Z " fill="#FFCB59" transform="translate(92,184)"/>
<path d="M0 0 C1.55 -0.01 1.55 -0.01 3.13 -0.02 C4.82 -0.01 4.82 -0.01 6.53 -0.01 C7.68 -0.01 8.82 -0.01 10.01 -0.01 C12.43 -0.01 14.86 -0.01 17.29 -0 C21.02 0.01 24.74 -0 28.47 -0.01 C30.82 -0.01 33.18 -0.01 35.53 -0.01 C36.65 -0.01 37.77 -0.01 38.93 -0.02 C39.96 -0.01 41 -0.01 42.06 0 C43.43 0 43.43 0 44.83 0 C47.03 0.26 47.03 0.26 49.03 2.26 C49.29 5.02 49.29 5.02 49.3 8.51 C49.3 10.38 49.3 10.38 49.3 12.29 C49.3 13.6 49.29 14.91 49.28 16.26 C49.29 18.22 49.29 18.22 49.3 20.23 C49.3 21.48 49.3 22.72 49.3 24.01 C49.29 25.16 49.29 26.31 49.29 27.49 C49.03 30.26 49.03 30.26 47.03 32.26 C44.83 32.51 44.83 32.51 42.06 32.52 C41.03 32.52 39.99 32.53 38.93 32.54 C37.25 32.53 37.25 32.53 35.53 32.52 C33.81 32.53 33.81 32.53 32.06 32.53 C29.63 32.53 27.2 32.53 24.77 32.52 C21.05 32.51 17.32 32.52 13.59 32.53 C11.24 32.53 8.89 32.53 6.53 32.52 C5.41 32.53 4.29 32.53 3.13 32.54 C1.58 32.53 1.58 32.53 0 32.52 C-0.91 32.52 -1.83 32.51 -2.77 32.51 C-4.97 32.26 -4.97 32.26 -6.97 30.26 C-7.23 27.49 -7.23 27.49 -7.23 24.01 C-7.24 22.76 -7.24 21.51 -7.24 20.23 C-7.23 18.92 -7.23 17.61 -7.22 16.26 C-7.23 14.95 -7.23 13.64 -7.24 12.29 C-7.24 11.04 -7.24 9.79 -7.23 8.51 C-7.23 7.36 -7.23 6.21 -7.23 5.02 C-6.76 0.05 -4.4 0.01 0 0 Z " fill="#000000" transform="translate(30.96875,175.7412109375)"/>
<path d="M0 0 C63.36 0 126.72 0 192 0 C192 2.64 192 5.28 192 8 C128.64 8 65.28 8 0 8 C0 5.36 0 2.72 0 0 Z " fill="#FFE168" transform="translate(32,156)"/>
<path d="M0 0 C1.87 -0 1.87 -0 3.78 -0.01 C5.75 0 5.75 0 7.75 0.02 C9.06 0.01 10.37 0 11.72 -0.01 C12.97 -0.01 14.21 -0 15.5 0 C16.65 0 17.8 0 18.98 0.01 C21.75 0.27 21.75 0.27 23.75 2.27 C24.01 4.3 24.01 4.3 24.02 6.77 C24.02 8.1 24.02 8.1 24.02 9.45 C24.02 10.38 24.01 11.31 24 12.27 C24.01 13.66 24.01 13.66 24.02 15.08 C24.02 15.97 24.02 16.85 24.02 17.77 C24.01 18.58 24.01 19.39 24.01 20.23 C23.75 22.27 23.75 22.27 21.75 24.27 C19.5 24.49 19.5 24.49 16.74 24.46 C15.76 24.45 14.77 24.45 13.75 24.44 C12.21 24.42 12.21 24.42 10.62 24.39 C9.58 24.38 8.54 24.37 7.47 24.36 C4.9 24.34 2.32 24.3 -0.25 24.27 C-0.25 29.55 -0.25 34.83 -0.25 40.27 C-2.89 40.27 -5.53 40.27 -8.25 40.27 C-8.3 34.89 -8.34 29.52 -8.36 24.14 C-8.37 22.31 -8.38 20.48 -8.4 18.65 C-8.43 16.03 -8.44 13.4 -8.45 10.77 C-8.46 9.95 -8.47 9.13 -8.48 8.29 C-8.48 6.28 -8.37 4.27 -8.25 2.27 C-5.49 -0.49 -3.86 0.01 0 0 Z " fill="#000000" transform="translate(172.25,91.734375)"/>
<path d="M0 0 C2.64 0 5.28 0 8 0 C8 5.28 8 10.56 8 16 C13.28 16 18.56 16 24 16 C24 10.72 24 5.44 24 0 C26.64 0 29.28 0 32 0 C32 13.2 32 26.4 32 40 C29.36 40 26.72 40 24 40 C24 34.72 24 29.44 24 24 C18.72 24 13.44 24 8 24 C8 29.28 8 34.56 8 40 C5.36 40 2.72 40 0 40 C0 26.8 0 13.6 0 0 Z " fill="#000000" transform="translate(60,92)"/>
<path d="M0 0 C13.2 0 26.4 0 40 0 C40 5.28 40 10.56 40 16 C26.8 16 13.6 16 0 16 C0 10.72 0 5.44 0 0 Z " fill="#F29919" transform="translate(32,184)"/>
<path d="M0 0 C1.79 0.92 1.79 0.92 3.79 2.92 C3.53 6.77 1.42 8.64 -1.25 11.25 C-2.06 12.05 -2.86 12.85 -3.7 13.67 C-4.97 14.91 -4.97 14.91 -6.27 16.17 C-7.56 17.43 -7.56 17.43 -8.86 18.72 C-10.97 20.79 -13.09 22.86 -15.21 24.92 C-13.76 28.3 -11.93 30.38 -9.26 32.89 C-8.5 33.63 -7.73 34.36 -6.94 35.12 C-5.32 36.66 -3.7 38.2 -2.07 39.72 C-0.93 40.83 -0.93 40.83 0.24 41.95 C0.94 42.62 1.65 43.29 2.37 43.97 C3.79 45.92 3.79 45.92 3.64 48.05 C2.79 49.92 2.79 49.92 0.79 51.92 C-3.39 51.77 -5.87 48.75 -8.67 45.97 C-9.18 45.47 -9.68 44.97 -10.21 44.46 C-11.27 43.41 -12.34 42.35 -13.4 41.29 C-15.02 39.68 -16.67 38.08 -18.32 36.49 C-19.35 35.46 -20.39 34.44 -21.42 33.41 C-21.91 32.93 -22.41 32.46 -22.92 31.97 C-25.05 29.8 -26.19 28.51 -26.32 25.43 C-24.86 22.14 -22.74 19.86 -20.22 17.37 C-19.47 16.61 -19.47 16.61 -18.71 15.83 C-17.65 14.77 -16.59 13.72 -15.53 12.66 C-13.9 11.05 -12.29 9.41 -10.69 7.77 C-9.66 6.74 -8.63 5.71 -7.6 4.68 C-7.12 4.19 -6.64 3.7 -6.15 3.19 C-2.77 -0.1 -2.77 -0.1 0 0 Z " fill="#040404" transform="translate(46.211669921875,86.07763671875)"/>
<path d="M0 0 C5.59 2.33 9.53 7.08 13.76 11.28 C15.31 12.81 16.89 14.32 18.46 15.84 C19.45 16.81 20.44 17.79 21.43 18.77 C22.33 19.65 23.23 20.54 24.16 21.44 C26 24 26 24 26.11 26.48 C24.64 29.81 22.46 32.04 19.87 34.52 C19.36 35.02 18.85 35.53 18.33 36.05 C16.71 37.64 15.07 39.23 13.44 40.81 C12.33 41.9 11.23 42.98 10.13 44.07 C7.43 46.72 4.72 49.36 2 52 C-1.78 50.49 -2.01 49.99 -4 46 C2.27 39.73 8.54 33.46 15 27 C13.17 23.34 11.93 21.74 9.05 19.03 C8.29 18.3 7.52 17.56 6.73 16.8 C5.11 15.26 3.49 13.73 1.86 12.2 C1.1 11.46 0.34 10.73 -0.45 9.97 C-1.51 8.97 -1.51 8.97 -2.58 7.95 C-4 6 -4 6 -3.91 3.88 C-3 2 -3 2 0 0 Z " fill="#030303" transform="translate(210,86)"/>
<path d="M0 0 C7.92 0 15.84 0 24 0 C24 2.64 24 5.28 24 8 C21.36 8 18.72 8 16 8 C16 18.56 16 29.12 16 40 C13.36 40 10.72 40 8 40 C8 29.44 8 18.88 8 8 C5.36 8 2.72 8 0 8 C0 5.36 0 2.72 0 0 Z " fill="#000000" transform="translate(132,92)"/>
<path d="M0 0 C7.92 0 15.84 0 24 0 C24 2.64 24 5.28 24 8 C21.36 8 18.72 8 16 8 C16 18.56 16 29.12 16 40 C13.36 40 10.72 40 8 40 C8 29.44 8 18.88 8 8 C5.36 8 2.72 8 0 8 C0 5.36 0 2.72 0 0 Z " fill="#000000" transform="translate(100,92)"/>
<path d="M0 0 C5.28 0 10.56 0 16 0 C16 2.64 16 5.28 16 8 C10.72 8 5.44 8 0 8 C0 5.36 0 2.72 0 0 Z " fill="#CCE3EA" transform="translate(172,100)"/>
<path d="M0 0 C2.64 0 5.28 0 8 0 C8 2.64 8 5.28 8 8 C5.36 8 2.72 8 0 8 C0 5.36 0 2.72 0 0 Z " fill="#000000" transform="translate(48,44)"/>
<path d="M0 0 C2.64 0 5.28 0 8 0 C8 2.64 8 5.28 8 8 C5.36 8 2.72 8 0 8 C0 5.36 0 2.72 0 0 Z " fill="#000000" transform="translate(32,44)"/>
<path d="M0 0 C2.64 0 5.28 0 8 0 C8 2.64 8 5.28 8 8 C5.36 8 2.72 8 0 8 C0 5.36 0 2.72 0 0 Z " fill="#000000" transform="translate(16,44)"/>
</svg>
