<?xml version="1.0" encoding="UTF-8"?>
<!-- Generator: visioncortex VTracer 0.6.4 -->
<svg version="1.1" xmlns="http://www.w3.org/2000/svg" width="256" height="256">
<path d="M0 0 C2.44 -0.14 4.87 -0.23 7.31 -0.31 C8.35 -0.38 8.35 -0.38 9.4 -0.44 C11.43 -0.49 11.43 -0.49 15 0 C16.84 2.16 16.84 2.16 18 5 C18.39 5.93 18.77 6.86 19.17 7.82 C19.5 8.77 19.84 9.71 20.19 10.69 C20.53 11.64 20.88 12.59 21.23 13.57 C22 16 22 16 22 18 C22.99 18.21 23.98 18.41 25 18.62 C28.35 19.52 30.11 20.91 32.62 23.25 C35.38 25.48 36.55 26.01 40.15 25.95 C43.46 25.39 46.73 24.75 50 24 C53.88 23.12 53.88 23.12 57 24 C60.02 27.7 62.42 31.49 64 36 C62.87 41.49 58.45 45.24 54.8 49.28 C52.42 52.18 52.42 52.18 54 57 C58.95 57 63.9 57 69 57 C69.59 53.84 69.59 53.84 70.19 50.62 C72.49 40.06 76.25 31.69 85 25 C95.97 18.53 106.48 15.93 119.15 18.68 C129.27 22.1 138.08 28.89 143.29 38.34 C148.38 49.36 148.28 60.6 144.46 72.05 C143.14 74.73 141.88 76.32 139.95 78.54 C136.3 83.38 136.18 87.36 136.32 93.27 C136.32 94.27 136.32 95.26 136.32 96.29 C136.32 99.56 136.37 102.83 136.41 106.09 C136.43 108.37 136.43 110.64 136.44 112.92 C136.46 118.89 136.52 124.86 136.59 130.83 C136.65 136.93 136.68 143.03 136.71 149.13 C136.77 161.09 136.87 173.04 137 185 C138.09 184.96 139.19 184.92 140.31 184.88 C144 185 144 185 147 187 C147.28 189.47 147.37 191.69 147.33 194.16 C147.33 194.87 147.32 195.57 147.32 196.3 C147.32 197.79 147.3 199.28 147.28 200.77 C147.25 203.06 147.24 205.35 147.23 207.63 C147.23 209.08 147.21 210.53 147.2 211.97 C147.2 212.66 147.19 213.35 147.19 214.06 C147.12 218.88 147.12 218.88 146 220 C143.2 220.1 140.42 220.13 137.61 220.13 C136.27 220.13 136.27 220.13 134.91 220.13 C131.91 220.14 128.9 220.13 125.89 220.13 C123.74 220.13 121.6 220.13 119.45 220.13 C113.6 220.14 107.76 220.14 101.91 220.13 C95.81 220.13 89.7 220.13 83.6 220.14 C73.35 220.14 63.09 220.14 52.84 220.13 C40.97 220.12 29.09 220.13 17.22 220.13 C7.05 220.14 -3.12 220.14 -13.3 220.13 C-19.38 220.13 -25.47 220.13 -31.55 220.14 C-37.27 220.14 -42.99 220.14 -48.71 220.13 C-50.82 220.13 -52.92 220.13 -55.03 220.13 C-57.89 220.14 -60.75 220.13 -63.61 220.13 C-64.45 220.13 -65.3 220.13 -66.17 220.13 C-71.89 220.11 -71.89 220.11 -73 219 C-73.13 216.65 -73.19 214.33 -73.2 211.97 C-73.21 210.92 -73.21 210.92 -73.22 209.84 C-73.23 208.35 -73.24 206.85 -73.24 205.36 C-73.25 203.08 -73.28 200.79 -73.31 198.5 C-73.32 197.05 -73.32 195.61 -73.33 194.16 C-73.34 193.47 -73.35 192.79 -73.37 192.08 C-73.36 190.15 -73.36 190.15 -73 187 C-69.36 184.57 -67.29 184.84 -63 185 C-63 184.35 -63 183.7 -62.99 183.04 C-62.93 167.3 -62.86 151.56 -62.76 135.82 C-62.72 128.21 -62.68 120.6 -62.65 112.98 C-62.63 106.35 -62.6 99.72 -62.55 93.09 C-62.53 89.57 -62.51 86.06 -62.5 82.55 C-62.5 78.63 -62.46 74.71 -62.43 70.79 C-62.43 69.62 -62.44 68.45 -62.44 67.24 C-62.42 66.18 -62.41 65.12 -62.4 64.02 C-62.39 63.1 -62.39 62.17 -62.38 61.21 C-62.19 60.12 -62.19 60.12 -62 59 C-58.75 56.83 -57.87 56.76 -54.11 56.8 C-53.18 56.81 -52.24 56.82 -51.27 56.82 C-50.3 56.84 -49.32 56.86 -48.31 56.88 C-47.32 56.88 -46.34 56.89 -45.32 56.9 C-42.88 56.93 -40.44 56.96 -38 57 C-37.5 52.89 -37.73 51.37 -40.22 47.96 C-41.63 46.42 -43.08 44.92 -44.53 43.41 C-48 39.61 -48 39.61 -48 36.46 C-46.87 33.68 -45.53 31.23 -43.94 28.69 C-43.39 27.8 -42.84 26.92 -42.28 26.01 C-41.86 25.35 -41.43 24.68 -41 24 C-39.15 24.14 -37.29 24.29 -35.44 24.44 C-34.33 24.52 -33.23 24.6 -32.09 24.68 C-29 25 -29 25 -25.44 26 C-20.46 26 -17.61 23.51 -13.65 20.66 C-11 19 -9.08 18.39 -6 18 C-5.9 17.45 -5.8 16.91 -5.7 16.35 C-4.54 10.48 -2.61 5.37 0 0 Z " fill="#FDA723" transform="translate(91,18)"/>
<path d="M0 0 C6.6 0 13.2 0 20 0 C20 8 20 8 18.07 10.79 C17.24 11.58 16.41 12.37 15.56 13.19 C11.21 17.33 11.21 17.33 10 23 C10.94 25.51 10.94 25.51 12.44 27.81 C12.91 28.6 13.38 29.39 13.87 30.21 C14.24 30.8 14.62 31.39 15 32 C15.55 31.93 16.1 31.87 16.66 31.8 C35.68 29.66 35.68 29.66 43.81 36.14 C44.53 36.75 45.25 37.37 46 38 C47.31 38.67 47.31 38.67 48.64 39.36 C51.75 41.52 52.2 43.34 53.25 46.94 C53.56 47.98 53.88 49.02 54.2 50.09 C54.83 52.39 55.44 54.68 56 57 C57.65 57 59.3 57 61 57 C61 71.85 61 86.7 61 102 C52.09 102 43.18 102 34 102 C33.34 99.69 32.68 97.38 32 95 C30.1 93.55 30.1 93.55 28 93 C27.34 92.67 26.68 92.34 26 92 C21.14 91.48 17.25 91.24 13 93.81 C9.59 97.55 8.61 99.85 8.75 104.94 C9.24 108.98 11 111.85 13.62 114.88 C17.39 116.66 20.92 116.64 25 116 C28.6 114.2 30.54 113.19 32.02 109.39 C34 107 34 107 36.04 106.56 C38.83 106.42 41.57 106.44 44.36 106.51 C45.37 106.52 46.39 106.53 47.44 106.53 C50.69 106.56 53.94 106.62 57.19 106.69 C59.39 106.71 61.59 106.74 63.79 106.76 C69.2 106.81 74.6 106.89 80 107 C80.98 108.78 81.97 110.55 82.95 112.33 C84.4 114.64 85.35 115.34 88 116 C93.08 116.33 97.35 116.32 102 114 C103.39 111.57 103.39 111.57 104 109 C104.33 108.34 104.66 107.68 105 107 C111.48 106.85 117.95 106.74 124.43 106.67 C126.64 106.64 128.84 106.6 131.04 106.55 C134.21 106.47 137.38 106.44 140.55 106.41 C141.53 106.38 142.52 106.35 143.53 106.32 C146.16 106.32 148.45 106.37 151 107 C153.53 109.92 153.53 109.92 155 113 C157.92 115.78 159.92 116.43 163.94 116.44 C167.42 116.32 168.89 116.06 172 114.31 C175.6 110.15 176.46 106.33 176.32 100.93 C175.8 97.78 174.27 96.15 172 94 C167.76 91.49 163.82 91.18 159 92 C154.45 94.33 152.91 97.23 151 102 C135.82 102 120.64 102 105 102 C104.01 99.69 103.02 97.38 102 95 C98.9 92.09 96.11 91.76 92 91.56 C88.58 91.68 87.08 91.96 84 93.62 C81.48 96.32 81.48 96.32 80 102 C75.71 102 71.42 102 67 102 C67 87.15 67 72.3 67 57 C68.65 56.34 70.3 55.68 72 55 C73.14 52.82 73.14 52.82 73.62 50.25 C74.9 44.84 75.98 40.3 80.85 37.17 C81.91 36.7 82.97 36.23 84.06 35.75 C88.38 33.88 88.38 33.88 92 31 C94.79 30.99 94.79 30.99 98.19 31.31 C99.35 31.42 100.51 31.53 101.71 31.64 C105.16 32.02 108.58 32.44 112 33 C113.04 31.43 114.05 29.84 115.06 28.25 C115.63 27.37 116.2 26.49 116.79 25.58 C118.15 23.17 118.15 23.17 117.97 21 C116.08 17.1 112.84 14.12 109.93 10.95 C108 8 108 8 108 1 C114.6 1 121.2 1 128 1 C128.68 2.79 129.36 4.59 130.06 6.44 C134.38 16.69 139.85 23.21 150 28 C159.71 31.89 170.49 30.99 180 27 C181.98 26.34 183.96 25.68 186 25 C186 57.34 186 89.68 186 123 C166.53 123 147.06 123 127 123 C127 128.94 127 134.88 127 141 C125.17 142.83 122.29 142.13 119.84 142.13 C118.53 142.13 117.21 142.14 115.85 142.14 C114.4 142.14 112.95 142.14 111.5 142.13 C110.02 142.13 108.55 142.13 107.07 142.14 C103.98 142.14 100.88 142.14 97.78 142.13 C93.8 142.12 89.82 142.13 85.85 142.13 C82.8 142.14 79.75 142.14 76.7 142.13 C75.23 142.13 73.77 142.13 72.3 142.14 C70.25 142.14 68.2 142.13 66.16 142.13 C64.41 142.13 64.41 142.13 62.62 142.13 C60 142 60 142 59 141 C59 135.06 59 129.12 59 123 C39.53 123 20.06 123 0 123 C0 82.41 0 41.82 0 0 Z " fill="#EBEAFB" transform="translate(35,81)"/>
<path d="M0 0 C0.93 0 1.86 0 2.81 0.01 C3.78 0.02 4.75 0.03 5.75 0.04 C6.72 0.04 7.69 0.04 8.69 0.04 C15.9 0.09 15.9 0.09 18.18 1.23 C18.18 2.88 18.18 4.53 18.18 6.23 C11.58 6.23 4.98 6.23 -1.82 6.23 C-1.82 46.82 -1.82 87.41 -1.82 129.23 C17.65 129.23 37.12 129.23 57.18 129.23 C57.68 138.14 57.68 138.14 58.18 147.23 C79.96 147.23 101.74 147.23 124.18 147.23 C124.51 141.29 124.84 135.35 125.18 129.23 C144.65 129.23 164.12 129.23 184.18 129.23 C184.14 122.12 184.09 115.01 184.04 107.68 C184.02 103.18 184 98.68 183.99 94.19 C183.96 87.04 183.94 79.9 183.88 72.75 C183.84 67 183.81 61.24 183.8 55.48 C183.8 53.28 183.78 51.08 183.76 48.88 C183.73 45.81 183.73 42.73 183.73 39.66 C183.72 38.74 183.7 37.83 183.69 36.89 C183.73 30.73 183.73 30.73 186.09 28.14 C188.18 27.23 188.18 27.23 190.18 27.23 C190.51 60.56 190.84 93.89 191.18 128.23 C193.49 128.23 195.8 128.23 198.18 128.23 C199.17 128.89 200.16 129.55 201.18 130.23 C201.46 132.7 201.56 134.92 201.51 137.39 C201.51 138.1 201.51 138.8 201.51 139.53 C201.5 141.02 201.49 142.51 201.46 144 C201.43 146.29 201.42 148.58 201.42 150.87 C201.41 152.31 201.4 153.76 201.39 155.2 C201.38 155.89 201.38 156.58 201.37 157.29 C201.3 162.11 201.3 162.11 200.18 163.23 C197.38 163.33 194.6 163.36 191.79 163.36 C190.46 163.36 190.46 163.36 189.1 163.36 C186.09 163.37 183.08 163.36 180.07 163.36 C177.93 163.36 175.78 163.36 173.64 163.37 C167.79 163.37 161.94 163.37 156.09 163.36 C149.99 163.36 143.89 163.36 137.78 163.37 C127.53 163.37 117.28 163.37 107.02 163.36 C95.15 163.36 83.28 163.36 71.41 163.36 C61.23 163.37 51.06 163.37 40.89 163.37 C34.8 163.36 28.72 163.36 22.63 163.37 C16.91 163.37 11.19 163.37 5.47 163.36 C3.37 163.36 1.26 163.36 -0.84 163.36 C-3.7 163.37 -6.57 163.36 -9.43 163.36 C-10.27 163.36 -11.12 163.36 -11.99 163.36 C-17.7 163.34 -17.7 163.34 -18.82 162.23 C-18.94 159.88 -19.01 157.56 -19.02 155.2 C-19.03 154.15 -19.03 154.15 -19.04 153.07 C-19.05 151.58 -19.05 150.09 -19.06 148.59 C-19.07 146.31 -19.1 144.02 -19.13 141.73 C-19.14 140.29 -19.14 138.84 -19.14 137.39 C-19.16 136.7 -19.17 136.02 -19.18 135.31 C-19.17 133.38 -19.17 133.38 -18.82 130.23 C-15.17 127.8 -13.1 128.07 -8.82 128.23 C-8.81 127.58 -8.81 126.94 -8.81 126.27 C-8.75 110.53 -8.67 94.79 -8.58 79.05 C-8.54 71.44 -8.5 63.83 -8.47 56.21 C-8.45 49.58 -8.41 42.95 -8.37 36.32 C-8.34 32.8 -8.33 29.29 -8.32 25.78 C-8.31 21.86 -8.28 17.94 -8.25 14.02 C-8.25 12.85 -8.25 11.68 -8.25 10.48 C-8.24 9.41 -8.23 8.35 -8.22 7.25 C-8.21 6.33 -8.21 5.4 -8.2 4.44 C-8.07 3.71 -7.95 2.98 -7.82 2.23 C-4.59 0.08 -3.72 -0.02 0 0 Z " fill="#26738B" transform="translate(36.81640625,74.76953125)"/>
<path d="M0 0 C8.27 6.76 14.03 14.54 15.75 25.25 C16.71 36.99 14.83 47.93 7.07 57.14 C-2.78 66.08 -14.38 69.77 -27.52 69.56 C-36.97 68.77 -45.04 64.13 -51.2 56.99 C-55.44 51.33 -57.59 46.1 -59.25 39.25 C-65.85 39.25 -72.45 39.25 -79.25 39.25 C-79.25 37.27 -79.25 35.29 -79.25 33.25 C-76.18 31.72 -72.98 32.15 -69.62 32.19 C-68.57 32.19 -68.57 32.19 -67.48 32.2 C-65.74 32.21 -63.99 32.23 -62.25 32.25 C-62.09 31.36 -61.93 30.46 -61.77 29.54 C-59.47 17.61 -56.18 7.84 -46.25 0.25 C-31.37 -8.52 -14.76 -10.33 0 0 Z " fill="#FE411D" transform="translate(222.25,42.75)"/>
<path d="M0 0 C0.84 0 1.67 0 2.53 0.01 C3.85 0 3.85 0 5.19 0 C8.1 -0 11.01 -0 13.93 0 C15.94 0 17.95 0 19.97 -0 C24.19 -0 28.42 0 32.65 0.01 C38.08 0.01 43.51 0.01 48.94 0 C53.1 -0 57.26 -0 61.42 0 C63.43 0 65.43 0 67.43 -0 C70.23 -0 73.02 0 75.82 0.01 C77.07 0 77.07 0 78.35 0 C84.06 0.02 84.06 0.02 85.18 1.14 C85.28 3.64 85.31 6.13 85.31 8.64 C85.31 9.39 85.31 10.14 85.31 10.91 C85.31 12.5 85.31 14.09 85.31 15.68 C85.3 18.13 85.31 20.57 85.31 23.01 C85.31 24.55 85.31 26.09 85.31 27.64 C85.31 28.37 85.31 29.11 85.31 29.86 C85.29 35.02 85.29 35.02 84.18 36.14 C81.42 36.24 78.68 36.28 75.92 36.28 C75.06 36.28 74.19 36.29 73.3 36.29 C70.43 36.3 67.55 36.3 64.68 36.3 C62.69 36.31 60.7 36.31 58.71 36.31 C54.54 36.32 50.36 36.32 46.18 36.32 C40.82 36.32 35.46 36.33 30.1 36.35 C25.99 36.36 21.88 36.36 17.77 36.36 C15.79 36.37 13.82 36.37 11.84 36.38 C9.08 36.39 6.32 36.38 3.56 36.38 C2.73 36.38 1.91 36.39 1.06 36.4 C-4.6 36.36 -4.6 36.36 -6.82 34.14 C-7.01 31.64 -7.08 29.25 -7.06 26.76 C-7.05 26.03 -7.05 25.3 -7.05 24.55 C-7.05 23.02 -7.04 21.48 -7.03 19.94 C-7.01 17.58 -7.01 15.22 -7.01 12.86 C-7.01 11.36 -7 9.87 -6.99 8.38 C-6.99 7.67 -6.99 6.96 -6.99 6.23 C-6.93 -0.12 -6.27 0.02 0 0 Z " fill="#F9D69C" transform="translate(126.8248291015625,124.86447143554688)"/>
<path d="M0 0 C1.65 0 3.3 0 5 0 C5 14.85 5 29.7 5 45 C9.62 45 14.24 45 19 45 C19.33 43.02 19.66 41.04 20 39 C22.7 35.82 24.3 34.35 28.38 33.52 C33.76 33.22 37.36 34.18 41.72 37.32 C43 39 43 39 44 45 C59.18 45 74.36 45 90 45 C90.33 43.35 90.66 41.7 91 40 C93.38 36.73 96.28 34.4 100.25 33.48 C105.59 33.24 108.87 34.46 113 38 C115.85 40.66 115.99 41.9 116.38 45.88 C116.15 51.06 114.33 54.47 110.94 58.38 C106.62 60.76 102.82 61.01 98 60 C94.02 57.72 91.46 55.37 90 51 C74.82 50.67 59.64 50.34 44 50 C43.34 51.65 42.68 53.3 42 55 C39.66 57.72 38.43 58.86 35 60 C29.69 60.34 26.26 60.53 22 57 C19 52.76 19 52.76 19 50 C12.5 50.02 6.01 50.07 -0.49 50.15 C-2.7 50.18 -4.91 50.19 -7.12 50.2 C-10.3 50.2 -13.47 50.25 -16.64 50.29 C-17.64 50.29 -18.63 50.29 -19.65 50.28 C-22.2 50.34 -24.52 50.42 -27 51 C-29.09 53.28 -29.09 53.28 -30 56 C-34.12 59.63 -37.45 60.71 -42.82 60.45 C-46.68 59.65 -48.35 57.91 -51 55 C-53.36 51.04 -54.01 46.51 -53 42 C-50.92 38.68 -48.54 35.77 -45 34 C-39.93 33.44 -36.08 33.44 -31.5 35.81 C-29 38 -29 38 -27 41 C-27 42.32 -27 43.64 -27 45 C-18.09 45 -9.18 45 0 45 C0 30.15 0 15.3 0 0 Z " fill="#FD411E" transform="translate(96,138)"/>
<path d="M0 0 C6.85 -0.42 11.99 1.41 17.62 5.29 C22.21 9.45 25.15 13.8 25.99 20.05 C26.18 28.41 24.63 34.78 18.98 41.13 C13.12 46.51 7.05 48.84 -0.89 48.57 C-7.72 47.78 -13.39 44.99 -17.76 39.58 C-23.13 32.31 -23.18 25.08 -22.38 16.29 C-21.26 13.01 -19.74 10.79 -17.38 8.29 C-16.58 7.42 -16.58 7.42 -15.77 6.55 C-10.94 1.91 -6.49 0.78 0 0 Z " fill="#FFFDFB" transform="translate(97.37890625,54.71484375)"/>
<path d="M0 0 C21.78 0 43.56 0 66 0 C66 6.27 66 12.54 66 19 C44.22 19 22.44 19 0 19 C0 12.73 0 6.46 0 0 Z " fill="#FEFEFE" transform="translate(95,204)"/>
<path d="M0 0 C5.62 4.35 8.9 10.02 11.13 16.72 C12.03 27.34 10.62 34.69 3.88 42.97 C-1.28 48.53 -6.91 52.27 -14.54 52.96 C-24.19 53.2 -32.13 51.19 -39.34 44.5 C-45.96 36.83 -47.32 29.21 -47.2 19.33 C-46.49 11.59 -43.06 6.53 -37.5 1.28 C-25.95 -8.23 -12.19 -8.35 0 0 Z M-37.87 8.72 C-42.63 14.43 -42.46 19.88 -42.26 27.18 C-41.74 31.87 -40.76 34.03 -37.87 37.72 C-37.27 38.61 -36.67 39.49 -36.06 40.41 C-31.17 45.57 -25.27 47.8 -18.25 48.09 C-11.52 48 -6.04 45.53 -1.02 41.07 C4.84 34.67 6.73 28.25 6.47 19.65 C5.76 13.56 3.29 9.52 -1.18 5.41 C-13.22 -3.95 -27.78 -2.11 -37.87 8.72 Z " fill="#FF9725" transform="translate(116.87109375,55.28125)"/>
<path d="M0 0 C0.93 0 1.86 0 2.81 0.01 C3.78 0.02 4.75 0.03 5.75 0.04 C6.72 0.04 7.69 0.04 8.69 0.04 C15.9 0.09 15.9 0.09 18.18 1.23 C18.18 2.88 18.18 4.53 18.18 6.23 C11.58 6.56 4.98 6.89 -1.82 7.23 C-2.15 47.49 -2.48 87.75 -2.82 129.23 C-4.47 129.23 -6.12 129.23 -7.82 129.23 C-7.89 112.71 -7.94 96.18 -7.97 79.66 C-7.99 71.99 -8.01 64.31 -8.04 56.64 C-8.07 49.96 -8.09 43.27 -8.1 36.59 C-8.1 33.04 -8.11 29.5 -8.13 25.96 C-8.16 22.01 -8.16 18.06 -8.16 14.12 C-8.17 12.94 -8.18 11.76 -8.19 10.54 C-8.19 9.47 -8.18 8.4 -8.18 7.29 C-8.18 6.36 -8.18 5.42 -8.19 4.46 C-8.06 3.72 -7.94 2.99 -7.82 2.23 C-4.59 0.08 -3.72 -0.02 0 0 Z " fill="#20677C" transform="translate(36.81640625,74.76953125)"/>
<path d="M0 0 C3.86 2 5.6 3.4 8 7 C8.58 11.48 8.52 15.66 6.88 19.88 C3.95 23.19 1.27 25.56 -3.18 26.42 C-7.27 26.67 -10.14 26.36 -13.44 23.81 C-17.36 19.51 -18.57 15.98 -18.46 10.07 C-17.6 6.2 -14.89 3.58 -12 1 C-8.29 -0.85 -4.05 -0.46 0 0 Z " fill="#FE421F" transform="translate(61,172)"/>
<path d="M0 0 C3.83 1.99 7.05 4.09 9 8 C9.54 13.61 9.18 17.17 6 22 C3.74 24.6 2.09 25.78 -1.3 26.45 C-6.16 26.78 -9.25 26.34 -13.06 23.19 C-16.31 20.09 -17.18 17.17 -17.44 12.75 C-17.41 7.97 -15.74 5.69 -12.51 2.31 C-8.85 -0.87 -4.62 -0.57 0 0 Z " fill="#FE421F" transform="translate(203,172)"/>
<path d="M0 0 C0 33.66 0 67.32 0 102 C-1.65 102 -3.3 102 -5 102 C-5.22 89.14 -5.42 76.29 -5.6 63.43 C-5.68 57.46 -5.77 51.49 -5.87 45.52 C-5.98 39.77 -6.06 34.01 -6.13 28.25 C-6.16 26.05 -6.19 23.85 -6.24 21.65 C-6.3 18.58 -6.33 15.5 -6.36 12.43 C-6.39 11.51 -6.41 10.6 -6.43 9.66 C-6.46 3.5 -6.46 3.5 -4.1 0.91 C-2 0 -2 0 0 0 Z " fill="#20677C" transform="translate(227,102)"/>
<path d="M0 0 C1.65 0 3.3 0 5 0 C5 14.85 5 29.7 5 45 C9.29 45 13.58 45 18 45 C18 46.65 18 48.3 18 50 C3.15 50 -11.7 50 -27 50 C-27 48.35 -27 46.7 -27 45 C-18.09 45 -9.18 45 0 45 C0 30.15 0 15.3 0 0 Z " fill="#3C3A3A" transform="translate(96,138)"/>
<path d="M0 0 C1.32 0 2.64 0 4 0 C4.33 5.61 4.66 11.22 5 17 C26.78 17 48.56 17 71 17 C71.33 11.39 71.66 5.78 72 0 C73.32 0 74.64 0 76 0 C76.11 2.92 76.19 5.83 76.25 8.75 C76.28 9.57 76.32 10.4 76.35 11.25 C76.37 12.45 76.37 12.45 76.39 13.67 C76.42 14.77 76.42 14.77 76.45 15.89 C75.79 18.98 74.45 20.05 72 22 C68.92 22.51 68.92 22.51 65.26 22.53 C64.26 22.55 64.26 22.55 63.23 22.56 C61.03 22.58 58.83 22.58 56.62 22.57 C55.09 22.57 53.55 22.58 52.02 22.59 C48.81 22.6 45.6 22.59 42.38 22.58 C38.26 22.56 34.15 22.58 30.03 22.62 C26.86 22.64 23.7 22.64 20.53 22.63 C19.01 22.63 17.49 22.64 15.97 22.65 C13.85 22.67 11.73 22.65 9.61 22.63 C8.4 22.63 7.2 22.63 5.95 22.63 C3 22 3 22 1.11 19.59 C0.03 17.06 -0.36 15.51 -0.29 12.79 C-0.28 12.04 -0.27 11.29 -0.26 10.52 C-0.23 9.36 -0.23 9.36 -0.19 8.19 C-0.17 7.4 -0.16 6.61 -0.15 5.8 C-0.11 3.87 -0.06 1.93 0 0 Z " fill="#2A6E82" transform="translate(90,205)"/>
<path d="M0 0 C21.78 0 43.56 0 66 0 C65.67 1.65 65.34 3.3 65 5 C43.88 5 22.76 5 1 5 C0.67 3.35 0.34 1.7 0 0 Z " fill="#3F3C39" transform="translate(133,146)"/>
<path d="M0 0 C21.78 0 43.56 0 66 0 C65.67 1.65 65.34 3.3 65 5 C43.88 5 22.76 5 1 5 C0.67 3.35 0.34 1.7 0 0 Z " fill="#3E3C38" transform="translate(133,136)"/>
<path d="M0 0 C4.95 0 9.9 0 15 0 C15 5.28 15 10.56 15 16 C11.37 16 7.74 16 4 16 C4 18.97 4 21.94 4 25 C2.68 25 1.36 25 0 25 C0 16.75 0 8.5 0 0 Z " fill="#FFF6F5" transform="translate(199,62)"/>
<path d="M0 0 C1.68 0.29 3.34 0.62 5 1 C5.25 1.8 5.51 2.59 5.77 3.41 C7.92 10.06 7.92 10.06 10.75 16.44 C12.1 19.2 12.27 20.96 12 24 C10.68 24.33 9.36 24.66 8 25 C7.34 23.02 6.68 21.04 6 19 C3.36 19 0.72 19 -2 19 C-2.66 20.98 -3.32 22.96 -4 25 C-5.32 24.67 -6.64 24.34 -8 24 C-7.42 18.49 -6.01 13.78 -4 8.62 C-3.73 7.9 -3.45 7.18 -3.17 6.43 C-1.15 1.15 -1.15 1.15 0 0 Z " fill="#FFEDEA" transform="translate(184,62)"/>
<path d="M0 0 C14.85 0 29.7 0 45 0 C45 1.65 45 3.3 45 5 C30.15 5 15.3 5 0 5 C0 3.35 0 1.7 0 0 Z " fill="#3D3C3C" transform="translate(141,183)"/>
<path d="M0 0 C0.69 -0 1.38 -0.01 2.09 -0.01 C7.25 -0 7.25 -0 9.5 1.12 C9.83 3.11 10.16 5.08 10.5 7.12 C3.9 7.12 -2.7 7.12 -9.5 7.12 C-9.5 5.14 -9.5 3.17 -9.5 1.12 C-6.47 -0.39 -3.32 -0.02 0 0 Z " fill="#347083" transform="translate(152.5,74.875)"/>
<path d="M0 0 C1.32 0 2.64 0 4 0 C4 8.25 4 16.5 4 25 C2.35 24.67 0.7 24.34 -1 24 C-1.03 20.19 -1.05 16.38 -1.06 12.56 C-1.07 11.47 -1.08 10.39 -1.09 9.26 C-1.09 8.23 -1.09 7.19 -1.1 6.13 C-1.1 5.17 -1.11 4.21 -1.11 3.22 C-1 1 -1 1 0 0 Z " fill="#FFEFED" transform="translate(219,62)"/>
<path d="M0 0 C1.65 0 3.3 0 5 0 C5 1.98 5 3.96 5 6 C3.35 6 1.7 6 0 6 C0 4.02 0 2.04 0 0 Z " fill="#FF421F" transform="translate(204,67)"/>
</svg>
