<?xml version="1.0" encoding="UTF-8"?>
<!-- Generator: visioncortex VTracer 0.6.4 -->
<svg version="1.1" xmlns="http://www.w3.org/2000/svg" width="256" height="256">
<path d="M0 0 C10.56 0 21.12 0 32 0 C32.99 3.96 33.98 7.92 35 12 C40.9 16.71 40.9 16.71 48 18.12 C51.64 16.76 55.25 15.36 58.83 13.84 C61 13 61 13 63 13 C63.13 12.23 63.27 11.46 63.4 10.66 C63.58 9.66 63.76 8.66 63.94 7.62 C64.11 6.63 64.29 5.63 64.46 4.6 C65 2 65 2 66 0 C71.28 0 76.56 0 82 0 C85 8.5 85 8.5 85 13 C86.01 13.29 86.01 13.29 87.05 13.59 C87.94 13.85 88.83 14.11 89.75 14.38 C91.07 14.76 91.07 14.76 92.42 15.15 C95 16 95 16 97.15 17.11 C100.05 18.51 101.95 17.85 105 17 C106.03 16.3 107.06 15.6 108.12 14.88 C111 13 111 13 112.88 13.11 C115.79 14.33 117.57 16.1 119.81 18.31 C120.62 19.09 121.43 19.87 122.27 20.68 C124 23 124 23 123.89 25.08 C122.72 27.59 121.29 29.82 119.74 32.12 C118.1 36.28 120.56 40.73 122.06 44.69 C124 49.78 124 49.78 124 52 C125.22 52.12 126.43 52.25 127.69 52.38 C131.33 52.75 133.38 53.55 137 55 C137 60.28 137 65.56 137 71 C127.38 74 127.38 74 124 74 C123.81 74.68 123.61 75.35 123.41 76.05 C123.15 76.94 122.89 77.83 122.62 78.75 C122.37 79.63 122.11 80.51 121.85 81.42 C121 84 121 84 119.84 86.02 C118.43 89.36 119.68 92.03 120.77 95.35 C121.94 98.11 121.94 98.11 125 102 C128.96 102.99 132.92 103.98 137 105 C137 115.56 137 126.12 137 137 C125.19 139.5 125.19 139.5 121.47 140.23 C115.91 141.33 115.91 141.33 111.67 144.74 C110.9 146.82 110.43 148.83 110 151 C109.54 152.27 109.05 153.53 108.54 154.78 C106.69 159.44 106.69 159.44 104.87 164.1 C104 166 104 166 102.71 167.89 C101.34 169.99 100.48 171.53 100 174 C101.32 177.84 103.54 180.95 105.88 184.25 C107.07 186 108.26 187.75 109.43 189.52 C110.24 190.66 110.24 190.66 111.06 191.84 C112 194 112 194 111.43 196 C109.69 198.43 107.78 200.45 105.65 202.55 C104.8 203.39 103.95 204.24 103.07 205.11 C102.18 205.98 101.29 206.85 100.38 207.75 C99.48 208.64 98.58 209.53 97.66 210.44 C95.44 212.63 93.22 214.82 91 217 C87.72 215.8 85.12 214.51 82.39 212.34 C75.27 206.79 75.27 206.79 66.76 205.26 C62.13 206.79 58.12 209.35 54 211.9 C50.96 213.57 48 214.18 44.62 214.94 C40.63 216.01 40.63 216.01 37.68 218.68 C36.81 221.11 36.42 223.44 36 226 C35.5 228.06 34.97 230.1 34.44 232.15 C33.59 235.42 32.8 238.71 32 242 C21.44 242 10.88 242 0 242 C-0.99 238.04 -1.98 234.08 -3 230 C-8.87 225.3 -8.87 225.3 -15.94 223.88 C-17.45 224.43 -17.45 224.43 -19 225 C-19.88 225.17 -20.76 225.35 -21.67 225.52 C-24.92 226.32 -27.23 227.1 -30 229 C-32.2 233.35 -32.99 237.17 -34 242 C-39.28 242 -44.56 242 -50 242 C-53 233.5 -53 233.5 -53 229 C-53.68 228.81 -54.35 228.61 -55.05 228.41 C-55.94 228.15 -56.83 227.89 -57.75 227.62 C-58.63 227.37 -59.51 227.11 -60.42 226.85 C-63 226 -63 226 -65.15 224.89 C-68.05 223.49 -69.95 224.15 -73 225 C-74.03 225.7 -75.06 226.4 -76.12 227.12 C-79 229 -79 229 -80.88 228.89 C-83.79 227.67 -85.57 225.9 -87.81 223.69 C-88.62 222.91 -89.43 222.13 -90.27 221.32 C-92 219 -92 219 -91.89 216.92 C-90.72 214.41 -89.29 212.18 -87.74 209.88 C-86.1 205.72 -88.56 201.27 -90.06 197.31 C-92 192.22 -92 192.22 -92 190 C-93.22 189.88 -94.43 189.75 -95.69 189.62 C-99.33 189.25 -101.38 188.45 -105 187 C-105 181.72 -105 176.44 -105 171 C-95.38 168 -95.38 168 -92 168 C-91.71 166.99 -91.71 166.99 -91.41 165.95 C-91.15 165.06 -90.89 164.17 -90.62 163.25 C-90.24 161.93 -90.24 161.93 -89.85 160.58 C-89 158 -89 158 -87.84 155.98 C-86.43 152.64 -87.68 149.97 -88.77 146.65 C-89.94 143.89 -89.94 143.89 -93 140 C-96.96 139.01 -100.92 138.02 -105 137 C-105 126.44 -105 115.88 -105 105 C-93.19 102.5 -93.19 102.5 -89.47 101.77 C-83.91 100.67 -83.91 100.67 -79.67 97.26 C-78.9 95.18 -78.43 93.17 -78 91 C-77.54 89.73 -77.05 88.47 -76.54 87.22 C-74.69 82.56 -74.69 82.56 -72.87 77.9 C-72 76 -72 76 -70.71 74.11 C-69.34 72.01 -68.48 70.47 -68 68 C-69.32 64.16 -71.54 61.05 -73.88 57.75 C-75.07 56 -76.26 54.25 -77.43 52.48 C-77.97 51.72 -78.51 50.95 -79.06 50.16 C-80 48 -80 48 -79.43 46 C-77.69 43.57 -75.78 41.55 -73.65 39.45 C-72.8 38.61 -71.95 37.76 -71.07 36.89 C-70.18 36.02 -69.29 35.15 -68.38 34.25 C-67.48 33.36 -66.58 32.47 -65.66 31.56 C-63.44 29.37 -61.22 27.18 -59 25 C-55.72 26.2 -53.12 27.49 -50.39 29.66 C-43.27 35.21 -43.27 35.21 -34.76 36.74 C-30.13 35.21 -26.12 32.65 -22 30.1 C-18.96 28.43 -16 27.82 -12.62 27.06 C-8.63 25.99 -8.63 25.99 -5.68 23.32 C-4.81 20.89 -4.42 18.56 -4 16 C-3.5 13.94 -2.97 11.9 -2.44 9.85 C-1.59 6.58 -0.8 3.29 0 0 Z M-21.71 84.52 C-30.08 93.59 -35.07 104.71 -36 117 C-35.34 117.33 -34.68 117.66 -34 118 C-33.65 119.93 -33.35 121.87 -33.06 123.81 C-32.03 128.54 -32.03 128.54 -28.54 131.61 C-25.71 132.6 -22.91 133.32 -20 134 C-19.16 134.42 -18.33 134.84 -17.46 135.27 C-14.94 136.31 -14.94 136.31 -12.46 134.81 C-11.63 134.21 -10.8 133.62 -9.94 133 C-7.4 131.19 -7.4 131.19 -5 130 C-1.45 130.96 0.74 133.53 3.25 136.12 C3.96 136.85 4.66 137.57 5.39 138.32 C5.92 138.87 6.45 139.43 7 140 C6.48 141.03 6.48 141.03 5.94 142.08 C5.49 142.98 5.03 143.88 4.56 144.81 C4.11 145.71 3.66 146.6 3.19 147.52 C1.92 150.04 1.92 150.04 1 153 C1.95 155.65 1.95 155.65 3.38 158.44 C4.92 161.62 6.29 164.53 7 168 C7.85 168.19 8.71 168.39 9.59 168.59 C10.69 168.85 11.8 169.11 12.94 169.38 C14.04 169.63 15.14 169.89 16.28 170.15 C17.18 170.43 18.07 170.71 19 171 C19.33 171.66 19.66 172.32 20 173 C34.21 171.72 46.47 165.67 56 155 C62.88 146.07 67.15 136.27 68 125 C67.34 124.67 66.68 124.34 66 124 C65.65 122.07 65.35 120.13 65.06 118.19 C64.03 113.46 64.03 113.46 60.54 110.39 C57.71 109.4 54.91 108.68 52 108 C51.16 107.58 50.33 107.16 49.46 106.73 C46.94 105.69 46.94 105.69 44.46 107.19 C43.63 107.79 42.8 108.38 41.94 109 C39.4 110.81 39.4 110.81 37 112 C33.45 111.04 31.26 108.47 28.75 105.88 C28.04 105.15 27.34 104.43 26.61 103.68 C26.08 103.13 25.55 102.57 25 102 C25.35 101.31 25.7 100.63 26.06 99.92 C26.51 99.02 26.97 98.12 27.44 97.19 C28.12 95.85 28.12 95.85 28.81 94.48 C30.08 91.96 30.08 91.96 31 89 C30.05 86.35 30.05 86.35 28.62 83.56 C27.03 80.28 25.89 77.57 25 74 C20.71 73.01 16.42 72.02 12 71 C12 70.34 12 69.68 12 69 C-0.97 69 -12.55 75.84 -21.71 84.52 Z " fill="#EF4A50" transform="translate(112,7)"/>
<path d="M0 0 C5.28 0 10.56 0 16 0 C19 8.5 19 8.5 19 13 C19.97 13.08 20.94 13.16 21.94 13.25 C25.26 13.66 27.43 14.77 30.31 16.44 C32.54 17.65 32.54 17.65 35 18 C37.93 16.74 40.21 15.2 42.74 13.26 C45 12 45 12 47 12.52 C49.49 14.36 51.59 16.4 53.75 18.62 C54.55 19.44 55.35 20.26 56.17 21.1 C56.78 21.73 57.38 22.35 58 23 C57.48 24.03 57.48 24.03 56.94 25.08 C56.49 25.98 56.03 26.88 55.56 27.81 C55.11 28.71 54.66 29.6 54.19 30.52 C52.92 33.04 52.92 33.04 52 36 C52.99 38.65 52.99 38.65 54.44 41.44 C56.28 45.13 57 46.78 57 51 C58.83 51.19 58.83 51.19 60.69 51.38 C64.33 51.75 66.38 52.55 70 54 C70 59.28 70 64.56 70 70 C65.71 70.99 61.42 71.98 57 73 C56.55 74.57 56.09 76.13 55.62 77.75 C54.87 80.36 54.14 82.73 52.89 85.15 C51.49 88.05 52.15 89.95 53 93 C54.95 96.31 54.95 96.31 57 99 C55.6 102.19 53.95 104.24 51.44 106.62 C48.86 109.05 48.86 109.05 47 112 C44.26 110.98 41.98 109.98 39.56 108.31 C36.09 106.53 34.77 106.95 31 108 C29.67 108.25 29.67 108.25 28.31 108.51 C25.08 109.33 22.76 110.11 20 112 C17.8 116.35 17.01 120.17 16 125 C10.72 125 5.44 125 0 125 C-3 116.5 -3 116.5 -3 112 C-3.68 111.81 -4.35 111.61 -5.05 111.41 C-5.94 111.15 -6.83 110.89 -7.75 110.62 C-8.63 110.37 -9.51 110.11 -10.42 109.85 C-13 109 -13 109 -15.15 107.89 C-18.05 106.49 -19.95 107.15 -23 108 C-24.03 108.7 -25.06 109.4 -26.12 110.12 C-29 112 -29 112 -30.88 111.89 C-33.79 110.67 -35.57 108.9 -37.81 106.69 C-38.62 105.91 -39.43 105.13 -40.27 104.32 C-42 102 -42 102 -41.89 99.92 C-40.72 97.41 -39.29 95.18 -37.74 92.88 C-36.1 88.72 -38.56 84.27 -40.06 80.31 C-42 75.22 -42 75.22 -42 73 C-43.22 72.88 -44.43 72.75 -45.69 72.62 C-49.33 72.25 -51.38 71.45 -55 70 C-55 64.72 -55 59.44 -55 54 C-45.37 51 -45.37 51 -42 51 C-41.81 50.32 -41.61 49.65 -41.41 48.95 C-41.15 48.06 -40.89 47.17 -40.62 46.25 C-40.37 45.37 -40.11 44.49 -39.85 43.58 C-39 41 -39 41 -37.89 38.82 C-36.58 36.14 -37.08 34.81 -38 32 C-39.27 29.63 -40.64 27.32 -42 25 C-42 24.34 -42 23.68 -42 23 C-40.36 21.38 -40.36 21.38 -38.19 19.56 C-35.69 17.46 -33.28 15.35 -31 13 C-28.25 14.02 -25.94 15.04 -23.5 16.69 C-20.36 18.33 -19.36 17.9 -16 17 C-13.4 16.02 -10.86 14.93 -8.3 13.84 C-6 13 -6 13 -3 13 C-2.01 8.71 -1.02 4.42 0 0 Z " fill="#7A8993" transform="translate(62,124)"/>
<path d="M0 0 C1.78 0.46 3.55 0.96 5.31 1.5 C7.29 2 7.29 2 9.31 2.5 C9.31 13.06 9.31 23.62 9.31 34.5 C-2.5 37 -2.5 37 -6.21 37.73 C-11.78 38.83 -11.78 38.83 -16.02 42.24 C-16.79 44.32 -17.26 46.33 -17.69 48.5 C-18.15 49.77 -18.64 51.03 -19.15 52.28 C-21 56.94 -21 56.94 -22.82 61.6 C-23.69 63.5 -23.69 63.5 -24.98 65.39 C-26.35 67.49 -27.21 69.03 -27.69 71.5 C-26.37 75.34 -24.15 78.45 -21.81 81.75 C-20.61 83.5 -19.43 85.25 -18.26 87.02 C-17.45 88.16 -17.45 88.16 -16.63 89.34 C-15.69 91.5 -15.69 91.5 -16.25 93.5 C-17.99 95.93 -19.91 97.95 -22.04 100.05 C-22.89 100.89 -23.74 101.74 -24.62 102.61 C-25.95 103.91 -25.95 103.91 -27.31 105.25 C-28.21 106.14 -29.11 107.03 -30.03 107.94 C-32.25 110.13 -34.46 112.32 -36.69 114.5 C-39.97 113.3 -42.56 112.01 -45.3 109.84 C-52.42 104.29 -52.42 104.29 -60.93 102.76 C-65.56 104.29 -69.57 106.85 -73.69 109.4 C-76.73 111.07 -79.69 111.68 -83.06 112.44 C-87.06 113.51 -87.06 113.51 -90.01 116.18 C-90.88 118.61 -91.27 120.94 -91.69 123.5 C-92.18 125.56 -92.72 127.6 -93.25 129.65 C-94.1 132.92 -94.89 136.21 -95.69 139.5 C-106.25 139.5 -116.81 139.5 -127.69 139.5 C-130.69 127.5 -130.69 127.5 -129.69 123.5 C-127.84 121.36 -127.84 121.36 -125.62 119.25 C-124.89 118.54 -124.16 117.84 -123.4 117.11 C-122.55 116.31 -122.55 116.31 -121.69 115.5 C-122.73 112.76 -123.7 110.49 -125.38 108.06 C-127.45 104.02 -126 100.64 -124.85 96.39 C-121.94 88.24 -121.94 88.24 -118.24 86.06 C-114.63 84.97 -111.45 84.5 -107.69 84.5 C-107.69 79.88 -107.69 75.26 -107.69 70.5 C-105.62 69.96 -103.56 69.43 -101.44 68.88 C-86.63 64.74 -75.19 57.75 -67.19 44.37 C-63.56 37.43 -61.41 30.1 -59.69 22.5 C-55.07 22.5 -50.45 22.5 -45.69 22.5 C-45.22 19.84 -45.22 19.84 -44.75 17.12 C-43.81 11.75 -43.81 11.75 -42.69 9.5 C-40.47 8.34 -38.29 7.31 -36 6.31 C-35.08 5.88 -35.08 5.88 -34.14 5.45 C-29.91 3.6 -27.12 3.2 -22.69 4.5 C-19.31 6.56 -19.31 6.56 -16.69 8.5 C-13.39 7.1 -11.81 5.54 -9.62 2.75 C-6.38 -0.65 -4.58 -0.85 0 0 Z " fill="#F6BA44" transform="translate(239.6875,109.5)"/>
<path d="M0 0 C10.56 0 21.12 0 32 0 C35 12 35 12 34 16 C32.15 18.14 32.15 18.14 29.94 20.25 C29.2 20.96 28.47 21.66 27.71 22.39 C27.15 22.92 26.58 23.45 26 24 C27.05 26.75 28.03 29.05 29.69 31.5 C31.7 35.34 30.22 38.15 29.16 42.23 C26.25 51.23 26.25 51.23 22.55 53.51 C18.95 54.59 15.76 55 12 55 C12 59.62 12 64.24 12 69 C11.04 69.22 10.09 69.44 9.11 69.66 C-5.7 73.22 -18.09 79.31 -26.81 92.31 C-31.44 100.04 -34.02 108.26 -36 117 C-40.62 117 -45.24 117 -50 117 C-50.31 118.77 -50.62 120.55 -50.94 122.38 C-51.88 127.75 -51.88 127.75 -53 130 C-55.05 130.93 -57.14 131.77 -59.25 132.56 C-60.96 133.21 -60.96 133.21 -62.7 133.88 C-68.3 135.78 -68.3 135.78 -71 136 C-73.24 134.86 -75.04 133.45 -77.04 131.93 C-78.98 130.74 -78.98 130.74 -81.05 131.61 C-83.17 133.12 -84.47 134.71 -86.06 136.75 C-87.87 138.64 -87.87 138.64 -90 140 C-93.89 140.07 -97.3 139.13 -101 138 C-102.32 137.67 -103.64 137.34 -105 137 C-105 126.44 -105 115.88 -105 105 C-93.19 102.5 -93.19 102.5 -89.47 101.77 C-83.91 100.67 -83.91 100.67 -79.67 97.26 C-78.9 95.18 -78.43 93.17 -78 91 C-77.54 89.73 -77.05 88.47 -76.54 87.22 C-74.69 82.56 -74.69 82.56 -72.87 77.9 C-72 76 -72 76 -70.71 74.11 C-69.34 72.01 -68.48 70.47 -68 68 C-69.32 64.16 -71.54 61.05 -73.88 57.75 C-75.07 56 -76.26 54.25 -77.43 52.48 C-77.97 51.72 -78.51 50.95 -79.06 50.16 C-80 48 -80 48 -79.43 46 C-77.69 43.57 -75.78 41.55 -73.65 39.45 C-72.8 38.61 -71.95 37.76 -71.07 36.89 C-70.18 36.02 -69.29 35.15 -68.38 34.25 C-67.48 33.36 -66.58 32.47 -65.66 31.56 C-63.44 29.37 -61.22 27.18 -59 25 C-55.72 26.2 -53.12 27.49 -50.39 29.66 C-43.27 35.21 -43.27 35.21 -34.76 36.74 C-30.13 35.21 -26.12 32.65 -22 30.1 C-18.96 28.43 -16 27.82 -12.62 27.06 C-8.63 25.99 -8.63 25.99 -5.68 23.32 C-4.81 20.89 -4.42 18.56 -4 16 C-3.5 13.94 -2.97 11.9 -2.44 9.85 C-1.59 6.58 -0.8 3.29 0 0 Z " fill="#F6BA44" transform="translate(112,7)"/>
<path d="M0 0 C2.06 0.69 2.06 0.69 5 2 C5.61 2.21 6.22 2.43 6.86 2.65 C9.33 3.84 10.45 4.69 12 7 C12.67 11.27 12.82 15.36 12.83 19.68 C12.86 22.72 13.24 25.37 14.03 28.32 C15.1 32.39 14.83 34.91 14 39 C12.15 48.26 12.04 56.69 17 65 C21.94 70.82 27.78 74.39 35.38 75.28 C41.61 75.52 47.2 74.26 53 72 C53.33 71.67 53.66 71.34 54 71 C55.54 70.92 57.09 70.92 58.63 70.94 C59.58 70.95 60.54 70.95 61.52 70.96 C63.52 70.99 65.52 71.01 67.53 71.04 C73.13 71.08 78.46 70.84 84 70 C83.73 71.16 83.46 72.31 83.19 73.5 C82.66 77.33 83.37 79.1 85.56 82.25 C86.06 82.87 86.56 83.5 87.07 84.14 C88 86 88 86 87.38 88.01 C85.9 90.15 84.32 91.84 82.44 93.62 C79.86 96.05 79.86 96.05 78 99 C75.26 97.98 72.98 96.98 70.56 95.31 C67.09 93.53 65.77 93.95 62 95 C60.67 95.25 60.67 95.25 59.31 95.51 C56.08 96.33 53.76 97.11 51 99 C48.8 103.35 48.01 107.17 47 112 C41.72 112 36.44 112 31 112 C28 103.5 28 103.5 28 99 C27.32 98.81 26.65 98.61 25.95 98.41 C25.06 98.15 24.17 97.89 23.25 97.62 C22.37 97.37 21.49 97.11 20.58 96.85 C18 96 18 96 15.85 94.89 C12.95 93.49 11.05 94.15 8 95 C6.97 95.7 5.94 96.4 4.88 97.12 C2 99 2 99 0.12 98.89 C-2.79 97.67 -4.57 95.9 -6.81 93.69 C-7.62 92.91 -8.43 92.13 -9.27 91.32 C-11 89 -11 89 -10.89 86.92 C-9.72 84.41 -8.29 82.18 -6.74 79.88 C-5.1 75.72 -7.56 71.27 -9.06 67.31 C-11 62.22 -11 62.22 -11 60 C-12.22 59.88 -13.43 59.75 -14.69 59.62 C-18.33 59.25 -20.38 58.45 -24 57 C-24 51.72 -24 46.44 -24 41 C-14.37 38 -14.37 38 -11 38 C-10.81 37.32 -10.61 36.65 -10.41 35.95 C-10.15 35.06 -9.89 34.17 -9.62 33.25 C-9.37 32.37 -9.11 31.49 -8.85 30.58 C-8 28 -8 28 -6.89 25.82 C-5.58 23.14 -6.08 21.81 -7 19 C-8.27 16.63 -9.64 14.32 -11 12 C-11 11.34 -11 10.68 -11 10 C-9.36 8.38 -9.36 8.38 -7.19 6.56 C-4.69 4.46 -2.28 2.35 0 0 Z " fill="#4E6574" transform="translate(31,137)"/>
<path d="M0 0 C13.2 5.23 25.85 7.57 40.06 7.5 C41.19 7.5 42.33 7.5 43.49 7.5 C51.09 7.42 58.06 6.68 65.39 4.75 C68.6 4.12 70.23 3.9 73.25 5.19 C75 7.48 76.33 9.5 77.69 12 C78.25 12.94 78.25 12.94 78.83 13.91 C79.87 15.77 79.87 15.77 81.25 19.19 C80.04 22.81 77.58 25.09 74.9 27.73 C74.05 28.58 73.2 29.42 72.32 30.29 C70.99 31.6 70.99 31.6 69.62 32.94 C68.73 33.83 67.83 34.71 66.91 35.63 C64.69 37.82 62.47 40.01 60.25 42.19 C56.97 40.98 54.37 39.7 51.64 37.52 C44.52 31.97 44.52 31.97 36.01 30.44 C31.38 31.98 27.37 34.53 23.25 37.09 C20.21 38.76 17.25 39.37 13.88 40.12 C9.88 41.2 9.88 41.2 6.93 43.86 C6.06 46.3 5.67 48.63 5.25 51.19 C4.75 53.24 4.22 55.29 3.69 57.34 C2.84 60.61 2.05 63.9 1.25 67.19 C-9.31 67.19 -19.87 67.19 -30.75 67.19 C-33.75 55.19 -33.75 55.19 -32.75 51.19 C-30.9 49.05 -30.9 49.05 -28.69 46.94 C-27.95 46.23 -27.22 45.52 -26.46 44.8 C-25.9 44.27 -25.33 43.73 -24.75 43.19 C-25.79 40.45 -26.76 38.17 -28.44 35.75 C-30.51 31.71 -29.06 28.33 -27.91 24.08 C-25.01 15.93 -25.01 15.93 -21.3 13.75 C-17.7 12.66 -14.51 12.19 -10.75 12.19 C-10.75 7.57 -10.75 2.95 -10.75 -1.81 C-6.59 -3.2 -3.88 -1.57 0 0 Z " fill="#FEAA03" transform="translate(142.75,181.8125)"/>
<path d="M0 0 C4.02 1.56 7.6 3.42 11.31 5.62 C12.92 6.57 12.92 6.57 14.55 7.54 C15.76 8.26 15.76 8.26 17 9 C16.51 11.02 16.02 13.04 15.54 15.05 C11.28 38.46 13.04 62.87 22.3 84.84 C23 87 23 87 23 92 C18.38 92 13.76 92 9 92 C8.69 93.77 8.38 95.55 8.06 97.38 C7.12 102.75 7.12 102.75 6 105 C3.95 105.93 1.86 106.77 -0.25 107.56 C-1.96 108.21 -1.96 108.21 -3.7 108.88 C-9.3 110.78 -9.3 110.78 -12 111 C-14.24 109.86 -16.04 108.45 -18.04 106.93 C-19.98 105.74 -19.98 105.74 -22.05 106.61 C-24.17 108.12 -25.47 109.71 -27.06 111.75 C-28.87 113.64 -28.87 113.64 -31 115 C-34.89 115.07 -38.3 114.13 -42 113 C-43.32 112.67 -44.64 112.34 -46 112 C-46 101.44 -46 90.88 -46 80 C-34.19 77.5 -34.19 77.5 -30.47 76.77 C-24.91 75.67 -24.91 75.67 -20.67 72.26 C-19.9 70.18 -19.43 68.17 -19 66 C-18.54 64.73 -18.05 63.47 -17.54 62.22 C-15.69 57.56 -15.69 57.56 -13.87 52.9 C-13 51 -13 51 -11.71 49.11 C-10.34 47.01 -9.48 45.47 -9 43 C-10.32 39.16 -12.54 36.05 -14.88 32.75 C-16.07 31 -17.26 29.25 -18.43 27.48 C-18.97 26.72 -19.51 25.95 -20.06 25.16 C-21 23 -21 23 -20.43 21 C-18.69 18.57 -16.78 16.55 -14.65 14.45 C-13.8 13.61 -12.95 12.76 -12.07 11.89 C-11.18 11.02 -10.29 10.15 -9.38 9.25 C-8.48 8.36 -7.58 7.47 -6.66 6.56 C-4.44 4.37 -2.22 2.18 0 0 Z " fill="#FEAA03" transform="translate(53,32)"/>
<path d="M0 0 C5.28 0 10.56 0 16 0 C19 8.5 19 8.5 19 13 C19.68 13.19 20.35 13.39 21.05 13.59 C21.94 13.85 22.83 14.11 23.75 14.38 C24.63 14.63 25.51 14.89 26.42 15.15 C29 16 29 16 31.15 17.11 C34.05 18.51 35.95 17.85 39 17 C40.03 16.3 41.06 15.6 42.12 14.88 C45 13 45 13 46.88 13.11 C49.79 14.33 51.57 16.1 53.81 18.31 C54.62 19.09 55.43 19.87 56.27 20.68 C58 23 58 23 57.89 25.08 C56.72 27.59 55.29 29.82 53.74 32.12 C52.1 36.28 54.56 40.73 56.06 44.69 C58 49.78 58 49.78 58 52 C59.83 52.19 59.83 52.19 61.69 52.38 C65.33 52.75 67.38 53.55 71 55 C71 60.28 71 65.56 71 71 C61.37 74 61.37 74 58 74 C57.01 77.3 56.02 80.6 55 84 C49.06 85.3 43.17 85.11 37.12 85.06 C35.52 85.06 35.52 85.06 33.88 85.05 C31.26 85.04 28.63 85.02 26 85 C27.18 82.53 28.37 80.49 30 78.25 C34.15 71.51 35.04 63.79 34 56 C31.51 48.29 27.21 42.85 20.12 38.97 C13.15 35.92 5.21 36.12 -2.05 38.17 C-7.09 40.32 -11.22 44.1 -15 48 C-18.73 41.02 -19.14 35.44 -19.06 27.69 C-19.06 26.85 -19.05 26.02 -19.05 25.15 C-19.04 23.1 -19.02 21.05 -19 19 C-17.27 18.18 -15.54 17.37 -13.81 16.56 C-12.85 16.11 -11.89 15.66 -10.89 15.19 C-8.23 14.1 -5.83 13.45 -3 13 C-2.87 12.23 -2.73 11.46 -2.6 10.66 C-2.42 9.66 -2.24 8.66 -2.06 7.62 C-1.89 6.63 -1.71 5.63 -1.54 4.6 C-1 2 -1 2 0 0 Z " fill="#EB767B" transform="translate(178,7)"/>
<path d="M0 0 C7.52 0.11 13.86 2.39 19.44 7.5 C24.85 13.51 27.21 19.76 26.81 27.84 C26.01 35.79 24.33 41.5 18.56 47.31 C10.81 53.29 3.34 55.5 -6.44 54.31 C-15.17 51.39 -20.71 46.14 -25.44 38.31 C-28.33 32.13 -28.54 25.36 -26.75 18.78 C-23.44 10.74 -18.36 4.92 -10.44 1.31 C-7.56 1.12 -7.56 1.12 -5.44 1.31 C-3.84 -0.28 -2.21 0.07 0 0 Z " fill="#F5BA45" transform="translate(186.4375,42.6875)"/>
<path d="M0 0 C7.09 4.18 12.28 10.38 14.36 18.39 C15.56 26.94 13.71 34.2 9.04 41.43 C5.01 46.6 0.16 49.19 -6.02 51.14 C-15.27 52.02 -22.9 51.53 -30.69 45.91 C-35.99 41.13 -39.01 35.15 -39.95 28.06 C-40.02 25.79 -39.9 23.65 -39.64 21.39 C-39.56 20.63 -39.48 19.88 -39.39 19.11 C-38.41 13.09 -36.03 8.64 -31.64 4.39 C-21.61 -2.8 -11.64 -5.27 0 0 Z " fill="#FDAA04" transform="translate(82.64453125,161.61328125)"/>
</svg>
