<?xml version="1.0" encoding="UTF-8"?>
<!-- Generator: visioncortex VTracer 0.6.4 -->
<svg version="1.1" xmlns="http://www.w3.org/2000/svg" width="256" height="256">
<path d="M0 0 C4.36 1.03 6.6 4.15 9.29 7.54 C14.07 13.13 19.04 18.52 24.11 23.85 C28.85 28.87 33.58 33.88 38.23 38.98 C39.39 40.24 39.39 40.24 40.57 41.54 C42.87 44.21 43.27 45.28 43.67 48.85 C43.29 52.54 43.29 52.54 41.67 55.48 C38.29 57.54 38.29 57.54 24.29 57.54 C24.62 72.72 24.95 87.9 25.29 103.54 C27.6 101.23 29.91 98.92 32.29 96.54 C34.93 94.25 37.7 92.15 40.48 90.04 C41.22 89.48 41.95 88.92 42.71 88.34 C48.64 83.88 54.73 80.02 61.29 76.54 C61.08 75.75 60.86 74.97 60.64 74.16 C57.51 62.35 57.51 62.35 58.29 57.54 C60.67 54.16 62.1 52.75 66.21 52.02 C72.24 52.23 77.51 55.91 82.67 58.73 C83.86 59.36 85.04 59.99 86.23 60.62 C88.68 61.93 91.14 63.25 93.59 64.56 C97.21 66.5 100.86 68.39 104.52 70.26 C105.66 70.84 106.8 71.43 107.97 72.03 C110.15 73.14 112.33 74.25 114.51 75.36 C115.49 75.87 116.47 76.37 117.48 76.89 C118.34 77.33 119.2 77.77 120.09 78.23 C122.26 79.52 123.76 80.53 125.29 82.54 C126.9 89.34 124.71 94.63 121.28 100.43 C120.71 101.35 120.14 102.28 119.54 103.23 C118.35 105.24 117.16 107.25 115.97 109.27 C115.36 110.29 114.75 111.32 114.12 112.38 C110.61 118.46 107.48 124.73 104.34 131 C97.9 143.64 97.9 143.64 92.98 145.34 C86.95 145.21 86.95 145.21 83.92 142.1 C82.05 137.99 80.57 133.87 79.29 129.54 C58.45 141.12 43.93 163.89 33.29 184.54 C32.4 186.26 32.4 186.26 31.49 188.02 C26.75 196.8 26.75 196.8 25.01 206.43 C24.99 207.38 24.98 208.32 24.97 209.3 C24.96 210.3 24.96 211.31 24.95 212.35 C24.93 213.92 24.93 213.92 24.91 215.52 C24.86 218.86 24.83 222.2 24.79 225.54 C24.75 229.94 24.7 234.33 24.64 238.73 C24.63 239.74 24.63 240.74 24.62 241.78 C24.61 242.73 24.6 243.67 24.58 244.64 C24.57 245.47 24.57 246.3 24.56 247.15 C24.13 251.04 23.06 253.77 20.29 256.54 C18.33 256.8 18.33 256.8 15.89 256.81 C14.98 256.82 14.07 256.83 13.13 256.84 C11.65 256.84 11.65 256.84 10.14 256.84 C8.63 256.85 8.63 256.85 7.08 256.85 C4.94 256.86 2.8 256.86 0.66 256.85 C-2.63 256.85 -5.91 256.88 -9.19 256.9 C-11.26 256.9 -13.34 256.9 -15.42 256.9 C-16.4 256.91 -17.39 256.92 -18.4 256.93 C-19.32 256.92 -20.23 256.92 -21.17 256.91 C-22.38 256.91 -22.38 256.91 -23.61 256.91 C-26.24 256.44 -27.09 255.64 -28.71 253.54 C-29.65 250.7 -29.91 248.62 -30.06 245.66 C-31.83 216.88 -37.6 189.87 -51.71 164.54 C-52.53 163.05 -52.53 163.05 -53.38 161.53 C-60.7 149.28 -72.25 136.6 -84.71 129.54 C-85.04 130.45 -85.38 131.37 -85.73 132.31 C-86.17 133.5 -86.62 134.69 -87.08 135.91 C-87.52 137.1 -87.96 138.28 -88.42 139.5 C-89.71 142.54 -89.71 142.54 -91.71 144.54 C-94.85 145.31 -97.55 145.21 -100.71 144.54 C-107.42 138.84 -111.13 128.52 -115.14 120.79 C-116.6 118 -118.05 115.21 -119.51 112.43 C-119.87 111.75 -120.22 111.08 -120.58 110.39 C-123.32 105.17 -126.28 100.13 -129.4 95.13 C-131.15 91.65 -131.47 88.55 -131.44 84.7 C-129.52 79.06 -122.07 76.49 -117.07 73.98 C-115.82 73.35 -115.82 73.35 -114.55 72.7 C-111.9 71.35 -109.24 70.01 -106.58 68.66 C-103.1 66.9 -99.62 65.13 -96.13 63.36 C-95.3 62.94 -94.47 62.52 -93.61 62.08 C-88.26 59.36 -82.99 56.55 -77.79 53.56 C-74.53 51.96 -72.23 51.76 -68.71 52.54 C-65.77 54.6 -65.77 54.6 -63.71 57.54 C-62.66 63.95 -65 70.38 -66.71 76.54 C-65.75 77.08 -64.79 77.63 -63.81 78.19 C-51.4 85.39 -41.42 93.9 -30.71 103.54 C-30.38 88.36 -30.05 73.18 -29.71 57.54 C-34.33 57.54 -38.95 57.54 -43.71 57.54 C-47.08 55.48 -47.08 55.48 -48.71 52.54 C-49.11 48.59 -49.15 46.3 -47.12 42.84 C-46.02 41.58 -46.02 41.58 -44.89 40.29 C-44.07 39.35 -43.26 38.41 -42.41 37.44 C-38.78 33.55 -35.05 29.8 -31.25 26.07 C-29.2 24.03 -27.27 21.98 -25.39 19.79 C-24.86 19.18 -24.32 18.56 -23.77 17.93 C-22.57 16.54 -21.38 15.15 -20.21 13.74 C-18.46 11.65 -16.68 9.59 -14.89 7.54 C-14.34 6.85 -13.78 6.17 -13.21 5.47 C-9.1 0.83 -6.18 -0.21 0 0 Z " fill="#E52E2F" transform="translate(130.705078125,-0.5390625)"/>
<path d="M0 0 C2.94 2.06 2.94 2.06 5 5 C6.05 11.41 3.7 17.84 2 24 C2.96 24.55 3.91 25.09 4.89 25.65 C13.22 30.48 20.75 35.63 28 42 C29.31 43.11 29.31 43.11 30.65 44.25 C35.4 48.36 39.45 52.53 43.17 57.59 C45.24 60.32 47.49 62.86 49.75 65.44 C51.52 67.61 53.27 69.8 55 72 C55.47 72.59 55.95 73.18 56.44 73.79 C67.11 87.47 67.48 99.82 67.07 116.7 C67.05 119.23 67.04 121.76 67.03 124.29 C66.99 130.21 66.9 136.14 66.79 142.07 C66.67 148.83 66.61 155.59 66.55 162.36 C66.44 176.24 66.25 190.12 66 204 C62.23 204.09 58.46 204.14 54.69 204.19 C53.62 204.21 52.54 204.24 51.44 204.26 C50.41 204.27 49.38 204.28 48.32 204.29 C47.38 204.31 46.43 204.32 45.45 204.34 C43 204 43 204 41.23 202.67 C39.01 199.65 38.83 196.74 38.64 193.12 C36.87 164.34 31.1 137.33 17 112 C16.17 110.51 16.17 110.51 15.32 108.99 C8 96.74 -3.54 84.07 -16 77 C-16.34 77.92 -16.68 78.83 -17.02 79.77 C-17.47 80.96 -17.92 82.15 -18.38 83.38 C-18.82 84.56 -19.26 85.74 -19.71 86.96 C-21 90 -21 90 -23 92 C-26.14 92.77 -28.84 92.67 -32 92 C-38.71 86.3 -42.43 75.98 -46.44 68.25 C-47.89 65.46 -49.35 62.68 -50.81 59.89 C-51.16 59.22 -51.51 58.54 -51.87 57.85 C-54.61 52.63 -57.58 47.59 -60.7 42.59 C-62.45 39.11 -62.76 36.02 -62.73 32.16 C-60.82 26.52 -53.36 23.95 -48.37 21.45 C-47.53 21.02 -46.7 20.6 -45.84 20.16 C-43.19 18.81 -40.53 17.47 -37.88 16.12 C-34.39 14.36 -30.91 12.59 -27.43 10.82 C-26.6 10.4 -25.76 9.98 -24.91 9.54 C-19.56 6.82 -14.29 4.01 -9.09 1.02 C-5.83 -0.58 -3.52 -0.77 0 0 Z " fill="#FEC24C" transform="translate(62,52)"/>
<path d="M0 0 C5.26 1.07 9.93 4.1 14.59 6.64 C15.78 7.27 16.97 7.91 18.15 8.54 C20.61 9.85 23.06 11.16 25.51 12.48 C29.14 14.42 32.79 16.3 36.45 18.17 C37.59 18.76 38.72 19.34 39.9 19.94 C42.08 21.06 44.26 22.17 46.44 23.28 C47.42 23.78 48.4 24.29 49.41 24.81 C50.27 25.25 51.13 25.69 52.01 26.14 C54.18 27.43 55.69 28.45 57.22 30.45 C58.82 37.26 56.63 42.55 53.21 48.34 C52.63 49.27 52.06 50.19 51.47 51.14 C50.27 53.15 49.08 55.16 47.89 57.18 C47.28 58.21 46.67 59.23 46.04 60.29 C42.54 66.37 39.41 72.64 36.27 78.91 C29.82 91.56 29.82 91.56 24.9 93.25 C18.87 93.12 18.87 93.12 15.84 90.02 C13.97 85.91 12.49 81.78 11.22 77.45 C-9.65 89.05 -24.09 111.81 -34.78 132.45 C-35.37 133.56 -35.95 134.66 -36.55 135.8 C-39.54 141.57 -41.91 147.23 -43.78 153.45 C-44.11 153.45 -44.44 153.45 -44.78 153.45 C-44.99 140.57 -45.15 127.69 -45.25 114.8 C-45.29 108.82 -45.36 102.84 -45.46 96.86 C-45.56 91.08 -45.61 85.3 -45.63 79.52 C-45.65 77.32 -45.68 75.12 -45.73 72.92 C-46.1 55.71 -46.1 55.71 -42.86 50.17 C-40.62 47.88 -38.47 46.18 -35.78 44.45 C-34.38 43.31 -32.99 42.15 -31.6 40.98 C-30.23 39.92 -28.85 38.87 -27.47 37.83 C-26.74 37.28 -26.01 36.72 -25.26 36.16 C-19.37 31.74 -13.3 27.91 -6.78 24.45 C-7 23.67 -7.21 22.88 -7.44 22.07 C-10.57 10.27 -10.57 10.27 -9.78 5.45 C-7.04 1.55 -4.85 -0.16 0 0 Z " fill="#667FFE" transform="translate(198.780029296875,51.547119140625)"/>
<path d="M0 0 C0 46.86 0 93.72 0 142 C-3.03 138.21 -5.65 134.48 -8.19 130.38 C-12.33 123.8 -16.96 117.92 -22 112 C-27.13 105.74 -27.13 105.74 -27.11 100.37 C-27.11 99.41 -27.11 98.45 -27.11 97.46 C-27.11 96.42 -27.1 95.38 -27.1 94.3 C-27.1 93.24 -27.09 92.18 -27.09 91.08 C-27.09 87.68 -27.08 84.28 -27.06 80.88 C-27.06 78.57 -27.05 76.27 -27.05 73.96 C-27.04 68.31 -27.02 62.65 -27 57 C-27.97 57.02 -28.94 57.05 -29.94 57.07 C-31.21 57.09 -32.48 57.11 -33.79 57.13 C-35.68 57.16 -35.68 57.16 -37.61 57.2 C-41 57 -41 57 -44.38 54.94 C-46.41 51.26 -46.39 49.16 -46 45 C-44.42 42.3 -44.42 42.3 -42.19 39.75 C-41.37 38.81 -40.55 37.87 -39.71 36.9 C-36.08 33.01 -32.34 29.26 -28.54 25.54 C-26.5 23.49 -24.57 21.44 -22.69 19.25 C-19.13 15.13 -15.53 11.04 -11.88 7 C-10.98 5.97 -10.98 5.97 -10.06 4.93 C-9.19 3.97 -9.19 3.97 -8.3 3 C-7.53 2.13 -7.53 2.13 -6.74 1.25 C-5 -0 -5 -0 0 0 Z " fill="#FE4C4C" transform="translate(128,0)"/>
<path d="M0 0 C9.42 14.13 14.87 31.71 19 48 C19.17 48.67 19.34 49.33 19.51 50.02 C22.41 61.81 23.7 73.68 24.75 85.75 C24.82 86.49 24.88 87.24 24.95 88.01 C25.35 92.67 25.73 97.33 26 102 C26.07 103.06 26.07 103.06 26.14 104.14 C26.22 106.28 26.22 106.28 26 110 C25.01 110.99 24.02 111.98 23 113 C15.41 113 7.82 113 0 113 C0 75.71 0 38.42 0 0 Z " fill="#FE7632" transform="translate(128,143)"/>
<path d="M0 0 C0.99 0 1.98 0 3 0 C3 7.59 3 15.18 3 23 C1.22 19.44 0.74 18.18 0.59 14.45 C0.55 13.61 0.51 12.76 0.47 11.89 C0.44 11.02 0.41 10.15 0.38 9.25 C0.34 8.36 0.3 7.47 0.26 6.56 C0.16 4.37 0.08 2.19 0 0 Z " fill="#D82C2A" transform="translate(152,226)"/>
</svg>
