<?xml version="1.0" encoding="UTF-8"?>
<!-- Generator: visioncortex VTracer 0.6.4 -->
<svg version="1.1" xmlns="http://www.w3.org/2000/svg" width="256" height="256">
<path d="M0 0 C77.88 0 155.76 0 236 0 C236 77.88 236 155.76 236 236 C158.12 236 80.24 236 0 236 C0 158.12 0 80.24 0 0 Z " fill="#FEFEFE" transform="translate(10,10)"/>
<path d="M0 0 C77.88 0 155.76 0 236 0 C236 77.88 236 155.76 236 236 C158.12 236 80.24 236 0 236 C0 158.12 0 80.24 0 0 Z M22 22 C22 85.36 22 148.72 22 214 C85.36 214 148.72 214 214 214 C214 150.64 214 87.28 214 22 C150.64 22 87.28 22 22 22 Z " fill="#292932" transform="translate(10,10)"/>
<path d="M0 0 C63.36 0 126.72 0 192 0 C192 6.93 192 13.86 192 21 C187.3 20.88 187.3 20.88 182.51 20.76 C172.09 20.51 161.66 20.38 151.23 20.3 C144.92 20.25 138.61 20.17 132.3 19.99 C103.57 17.29 103.57 17.29 78.06 26.75 C75.48 29.54 73.24 32.42 70.99 35.48 C67.32 40.29 64.7 43.38 58.52 44.48 C50.01 45.49 41.42 45 32.89 44.44 C29.17 44.22 25.45 44.13 21.72 44.03 C14.47 43.81 7.26 43.4 0 43 C0 28.81 0 14.62 0 0 Z " fill="#B9D9F4" transform="translate(32,32)"/>
<path d="M0 0 C28.38 0 56.76 0 86 0 C86 6.93 86 13.86 86 21 C57.62 21 29.24 21 0 21 C0 14.07 0 7.14 0 0 Z " fill="#2A2A33" transform="translate(117,139)"/>
<path d="M0 0 C21.12 0 42.24 0 64 0 C64 7.26 64 14.52 64 22 C42.88 22 21.76 22 0 22 C0 14.74 0 7.48 0 0 Z " fill="#303039" transform="translate(117,181)"/>
<path d="M0 0 C21.12 0 42.24 0 64 0 C64 6.93 64 13.86 64 21 C42.88 21 21.76 21 0 21 C0 14.07 0 7.14 0 0 Z " fill="#292932" transform="translate(96,96)"/>
<path d="M0 0 C6.93 0 13.86 0 21 0 C21 7.26 21 14.52 21 22 C14.07 22 7.14 22 0 22 C0 14.74 0 7.48 0 0 Z " fill="#0787F0" transform="translate(75,181)"/>
<path d="M0 0 C7.26 0 14.52 0 22 0 C22 6.93 22 13.86 22 21 C14.74 21 7.48 21 0 21 C0 14.07 0 7.14 0 0 Z " fill="#0787F0" transform="translate(53,96)"/>
<path d="M0 0 C6.93 0 13.86 0 21 0 C21 6.93 21 13.86 21 21 C14.07 21 7.14 21 0 21 C0 14.07 0 7.14 0 0 Z " fill="#0084F0" transform="translate(75,139)"/>
</svg>
