<?xml version="1.0" encoding="UTF-8"?>
<svg xmlns="http://www.w3.org/2000/svg" xmlns:xlink="http://www.w3.org/1999/xlink" width="16" height="16" viewBox="0 0 16 16" version="1.1">
<g id="surface1">
<path style=" stroke:none;fill-rule:nonzero;fill:rgb(94.901961%,38.82353%,43.137255%);fill-opacity:1;" d="M 9 0 C 9.402344 0.175781 9.59375 0.53125 9.761719 0.921875 C 9.835938 1.109375 9.90625 1.304688 9.972656 1.496094 C 9.996094 1.566406 10.023438 1.632812 10.046875 1.703125 C 10.238281 2.253906 10.398438 2.800781 10.5 3.375 C 10.511719 3.433594 10.523438 3.492188 10.535156 3.554688 C 10.625 4.078125 10.640625 4.582031 10.632812 5.113281 C 10.632812 5.191406 10.632812 5.273438 10.632812 5.355469 C 10.628906 5.550781 10.628906 5.742188 10.625 5.9375 C 10.699219 5.949219 10.699219 5.949219 10.773438 5.960938 C 11.371094 6.058594 11.371094 6.058594 11.628906 6.117188 C 12.574219 6.3125 13.585938 6.347656 14.539062 6.152344 C 14.859375 6.09375 15.140625 6.085938 15.453125 6.195312 C 15.679688 6.351562 15.878906 6.527344 15.976562 6.792969 C 16.011719 7.003906 16.011719 7.214844 16.011719 7.425781 C 16.011719 7.472656 16.015625 7.523438 16.015625 7.570312 C 16.027344 9.59375 16.027344 9.59375 15.8125 10.4375 C 15.800781 10.488281 15.785156 10.539062 15.773438 10.589844 C 15.277344 12.484375 14.335938 14.1875 12.621094 15.21875 C 11.664062 15.765625 10.488281 16.171875 9.375 16 C 8.207031 15.648438 7.125 14.460938 6.5625 13.4375 C 5.9375 12.234375 5.9375 12.234375 5.9375 11.6875 C 5.863281 11.683594 5.792969 11.679688 5.71875 11.675781 C 4.183594 11.5 2.738281 10.5625 1.75 9.410156 C 0.625 7.976562 -0.0078125 6.070312 -0.0117188 4.253906 C -0.0117188 4.199219 -0.0117188 4.148438 -0.0117188 4.09375 C -0.0117188 3.984375 -0.0117188 3.875 -0.0117188 3.765625 C -0.0117188 3.601562 -0.0117188 3.4375 -0.015625 3.273438 C -0.0195312 1.8125 -0.0195312 1.8125 0.375 1.375 C 0.6875 1.15625 0.929688 1.105469 1.3125 1.125 C 1.457031 1.152344 1.601562 1.179688 1.742188 1.214844 C 2.082031 1.289062 2.402344 1.359375 2.75 1.375 C 2.824219 1.378906 2.898438 1.382812 2.976562 1.386719 C 4.667969 1.445312 6.476562 1.082031 7.925781 0.179688 C 8.289062 -0.0429688 8.585938 -0.0546875 9 0 Z M 9 0 "/>
<path style=" stroke:none;fill-rule:nonzero;fill:rgb(58.823532%,69.01961%,99.215686%);fill-opacity:1;" d="M 8.679688 0.492188 C 8.929688 0.582031 9.058594 0.691406 9.1875 0.925781 C 9.25 1.070312 9.308594 1.214844 9.367188 1.363281 C 9.386719 1.417969 9.410156 1.472656 9.433594 1.527344 C 9.960938 2.921875 10.152344 4.269531 10.125 5.75 C 9.796875 5.714844 9.554688 5.605469 9.265625 5.457031 C 9.222656 5.433594 9.175781 5.414062 9.132812 5.390625 C 8.882812 5.261719 8.644531 5.125 8.410156 4.96875 C 8.171875 4.820312 7.984375 4.769531 7.707031 4.769531 C 7.429688 4.851562 7.207031 5.003906 7.042969 5.246094 C 6.964844 5.390625 6.898438 5.535156 6.835938 5.683594 C 6.800781 5.761719 6.800781 5.761719 6.765625 5.84375 C 6.480469 6.476562 6.253906 7.117188 6.097656 7.796875 C 6.0625 7.9375 6.0625 7.9375 6 8 C 5.132812 8.082031 4.332031 8.058594 3.582031 7.582031 C 3.441406 7.480469 3.441406 7.480469 3.261719 7.519531 C 3.214844 7.535156 3.171875 7.546875 3.125 7.5625 C 3.105469 7.859375 3.152344 8.035156 3.300781 8.292969 C 3.351562 8.378906 3.351562 8.378906 3.398438 8.46875 C 3.488281 8.605469 3.574219 8.699219 3.6875 8.8125 C 3.6875 8.851562 3.6875 8.894531 3.6875 8.9375 C 3.722656 8.953125 3.757812 8.972656 3.796875 8.988281 C 3.9375 9.0625 4.0625 9.148438 4.191406 9.242188 C 4.71875 9.597656 5.175781 9.6875 5.8125 9.75 C 5.832031 10.203125 5.851562 10.65625 5.875 11.125 C 5.144531 11.050781 5.144531 11.050781 4.765625 10.902344 C 4.722656 10.886719 4.679688 10.867188 4.636719 10.851562 C 3.183594 10.265625 2.164062 9.253906 1.4375 7.875 C 1.40625 7.820312 1.378906 7.761719 1.347656 7.703125 C 1.039062 7.113281 0.84375 6.5 0.707031 5.847656 C 0.695312 5.785156 0.679688 5.722656 0.667969 5.65625 C 0.578125 5.226562 0.507812 4.8125 0.5 4.375 C 0.5 4.324219 0.5 4.277344 0.496094 4.226562 C 0.464844 2.136719 0.464844 2.136719 0.75 1.75 C 1.054688 1.597656 1.402344 1.703125 1.71875 1.777344 C 3.71875 2.207031 6.238281 1.835938 8 0.761719 C 8.050781 0.726562 8.105469 0.691406 8.160156 0.65625 C 8.367188 0.527344 8.429688 0.5 8.679688 0.492188 Z M 8.679688 0.492188 "/>
<path style=" stroke:none;fill-rule:nonzero;fill:rgb(22.745098%,12.54902%,20.392157%);fill-opacity:1;" d="M 9 0 C 9.402344 0.175781 9.59375 0.53125 9.761719 0.921875 C 9.835938 1.109375 9.90625 1.304688 9.972656 1.496094 C 9.996094 1.566406 10.023438 1.632812 10.046875 1.703125 C 10.238281 2.253906 10.398438 2.800781 10.5 3.375 C 10.511719 3.433594 10.523438 3.492188 10.535156 3.554688 C 10.625 4.078125 10.640625 4.582031 10.632812 5.113281 C 10.632812 5.191406 10.632812 5.273438 10.632812 5.355469 C 10.628906 5.550781 10.628906 5.742188 10.625 5.9375 C 10.699219 5.949219 10.699219 5.949219 10.773438 5.960938 C 11.371094 6.058594 11.371094 6.058594 11.628906 6.117188 C 12.574219 6.3125 13.585938 6.347656 14.539062 6.152344 C 14.859375 6.09375 15.140625 6.085938 15.453125 6.195312 C 15.679688 6.351562 15.878906 6.527344 15.976562 6.792969 C 16.011719 7.003906 16.011719 7.214844 16.011719 7.425781 C 16.011719 7.472656 16.015625 7.523438 16.015625 7.570312 C 16.027344 9.59375 16.027344 9.59375 15.8125 10.4375 C 15.800781 10.488281 15.785156 10.539062 15.773438 10.589844 C 15.277344 12.484375 14.335938 14.1875 12.621094 15.21875 C 11.664062 15.765625 10.488281 16.171875 9.375 16 C 8.207031 15.648438 7.125 14.460938 6.5625 13.4375 C 5.9375 12.234375 5.9375 12.234375 5.9375 11.6875 C 5.863281 11.683594 5.792969 11.679688 5.71875 11.675781 C 4.183594 11.5 2.738281 10.5625 1.75 9.410156 C 0.625 7.976562 -0.0078125 6.070312 -0.0117188 4.253906 C -0.0117188 4.199219 -0.0117188 4.148438 -0.0117188 4.09375 C -0.0117188 3.984375 -0.0117188 3.875 -0.0117188 3.765625 C -0.0117188 3.601562 -0.0117188 3.4375 -0.015625 3.273438 C -0.0195312 1.8125 -0.0195312 1.8125 0.375 1.375 C 0.6875 1.15625 0.929688 1.105469 1.3125 1.125 C 1.457031 1.152344 1.601562 1.179688 1.742188 1.214844 C 2.082031 1.289062 2.402344 1.359375 2.75 1.375 C 2.824219 1.378906 2.898438 1.382812 2.976562 1.386719 C 4.667969 1.445312 6.476562 1.082031 7.925781 0.179688 C 8.289062 -0.0429688 8.585938 -0.0546875 9 0 Z M 7.988281 0.753906 C 6.597656 1.566406 5.035156 1.886719 3.433594 1.886719 C 3.351562 1.886719 3.273438 1.886719 3.1875 1.886719 C 2.59375 1.882812 2.007812 1.863281 1.429688 1.714844 C 1.238281 1.667969 1.070312 1.671875 0.875 1.6875 C 0.726562 1.804688 0.644531 1.894531 0.5625 2.0625 C 0.289062 4.386719 0.582031 6.945312 2.027344 8.859375 C 2.101562 8.949219 2.175781 9.035156 2.25 9.125 C 2.292969 9.175781 2.332031 9.226562 2.375 9.277344 C 3.175781 10.214844 4.308594 10.832031 5.5 11.125 C 5.625 11.125 5.746094 11.125 5.875 11.125 C 5.855469 10.671875 5.832031 10.21875 5.8125 9.75 C 5.6875 9.738281 5.558594 9.726562 5.429688 9.714844 C 4.8125 9.628906 4.253906 9.390625 3.8125 8.9375 C 3.769531 8.9375 3.730469 8.9375 3.6875 8.9375 C 3.671875 8.902344 3.65625 8.867188 3.636719 8.832031 C 3.554688 8.671875 3.464844 8.519531 3.371094 8.367188 C 3.191406 8.070312 3.117188 7.917969 3.125 7.5625 C 3.328125 7.5 3.417969 7.492188 3.617188 7.570312 C 3.679688 7.605469 3.746094 7.640625 3.808594 7.675781 C 4.332031 7.960938 4.71875 8.015625 5.304688 8.007812 C 5.371094 8.007812 5.4375 8.007812 5.507812 8.007812 C 5.671875 8.003906 5.835938 8.003906 6 8 C 6.117188 7.703125 6.214844 7.410156 6.292969 7.101562 C 6.394531 6.734375 6.527344 6.390625 6.683594 6.039062 C 6.703125 5.992188 6.722656 5.945312 6.746094 5.898438 C 7.089844 5.144531 7.089844 5.144531 7.390625 4.875 C 7.671875 4.773438 7.96875 4.753906 8.253906 4.859375 C 8.375 4.925781 8.496094 4.996094 8.613281 5.070312 C 8.699219 5.121094 8.785156 5.171875 8.875 5.226562 C 8.914062 5.25 8.957031 5.277344 9 5.300781 C 9.179688 5.40625 9.363281 5.503906 9.546875 5.597656 C 9.632812 5.640625 9.632812 5.640625 9.722656 5.6875 C 9.886719 5.765625 9.886719 5.765625 10.125 5.75 C 10.175781 4.132812 9.902344 2.601562 9.273438 1.105469 C 9.257812 1.066406 9.242188 1.023438 9.222656 0.984375 C 9.109375 0.734375 9.003906 0.605469 8.75 0.5 C 8.445312 0.441406 8.238281 0.601562 7.988281 0.753906 Z M 7.558594 5.34375 C 7.398438 5.550781 7.296875 5.765625 7.1875 6.003906 C 7.164062 6.050781 7.144531 6.101562 7.121094 6.148438 C 6.863281 6.714844 6.675781 7.277344 6.519531 7.878906 C 6.507812 7.929688 6.492188 7.984375 6.480469 8.035156 C 6.050781 9.757812 6.21875 11.710938 7.082031 13.269531 C 7.652344 14.1875 8.378906 14.847656 9.3125 15.375 C 9.351562 15.402344 9.390625 15.425781 9.433594 15.453125 C 10.09375 15.695312 11.089844 15.34375 11.691406 15.078125 C 13.347656 14.300781 14.433594 12.941406 15.054688 11.238281 C 15.359375 10.214844 15.511719 9.210938 15.515625 8.148438 C 15.515625 8.015625 15.515625 7.882812 15.519531 7.75 C 15.519531 7.667969 15.519531 7.582031 15.519531 7.496094 C 15.519531 7.382812 15.519531 7.382812 15.523438 7.265625 C 15.496094 7.027344 15.421875 6.859375 15.25 6.6875 C 14.902344 6.65625 14.566406 6.691406 14.226562 6.75 C 13.265625 6.894531 12.320312 6.832031 11.375 6.625 C 11.324219 6.613281 11.273438 6.601562 11.21875 6.589844 C 10.191406 6.363281 9.296875 6.03125 8.402344 5.476562 C 8.355469 5.445312 8.304688 5.417969 8.257812 5.386719 C 8.214844 5.359375 8.171875 5.335938 8.128906 5.308594 C 7.914062 5.210938 7.75 5.203125 7.558594 5.34375 Z M 7.558594 5.34375 "/>
<path style=" stroke:none;fill-rule:nonzero;fill:rgb(90.588236%,32.156864%,36.470589%);fill-opacity:1;" d="M 8 5.25 C 7.957031 5.546875 7.84375 5.804688 7.730469 6.082031 C 7.519531 6.609375 7.359375 7.132812 7.25 7.6875 C 7.238281 7.742188 7.226562 7.792969 7.214844 7.847656 C 7.117188 8.378906 7.101562 8.90625 7.101562 9.445312 C 7.101562 9.515625 7.101562 9.515625 7.101562 9.582031 C 7.105469 10.800781 7.363281 11.851562 7.9375 12.9375 C 8.042969 12.796875 8.140625 12.660156 8.234375 12.511719 C 8.566406 12.039062 8.933594 11.722656 9.5 11.5625 C 10.183594 11.472656 10.738281 11.589844 11.316406 11.957031 C 11.671875 12.230469 11.921875 12.640625 12.0625 13.0625 C 12.066406 13.210938 12.070312 13.359375 12.070312 13.507812 C 12.070312 13.625 12.070312 13.625 12.070312 13.746094 C 12.0625 13.9375 12.0625 13.9375 12 14 C 11.859375 14.027344 11.859375 14.027344 11.6875 14 C 11.613281 13.914062 11.539062 13.824219 11.46875 13.734375 C 11.101562 13.3125 10.507812 13.03125 9.960938 12.976562 C 9.3125 12.964844 8.824219 13.082031 8.25 13.375 C 8.972656 14.210938 9.847656 15.136719 11 15.25 C 10.765625 15.484375 10.382812 15.460938 10.0625 15.5 C 10.015625 15.507812 9.96875 15.515625 9.921875 15.519531 C 9.300781 15.574219 8.714844 15.035156 8.257812 14.667969 C 7.484375 14.015625 6.976562 13.191406 6.625 12.25 C 6.605469 12.203125 6.589844 12.15625 6.570312 12.109375 C 5.871094 10.234375 6.335938 7.886719 7.132812 6.121094 C 7.542969 5.238281 7.542969 5.238281 8 5.25 Z M 8 5.25 "/>
<path style=" stroke:none;fill-rule:nonzero;fill:rgb(49.803922%,62.352943%,98.431373%);fill-opacity:1;" d="M 1.0625 1.6875 C 1.0625 1.773438 1.0625 1.773438 1.0625 1.859375 C 1.035156 4.421875 1.3125 6.945312 3.1875 8.875 C 3.242188 8.933594 3.242188 8.933594 3.296875 8.996094 C 3.957031 9.695312 4.859375 10.117188 5.75 10.4375 C 5.75 10.210938 5.75 9.984375 5.75 9.75 C 5.769531 9.75 5.792969 9.75 5.8125 9.75 C 5.832031 10.203125 5.855469 10.65625 5.875 11.125 C 5.144531 11.050781 5.144531 11.050781 4.765625 10.902344 C 4.722656 10.886719 4.679688 10.871094 4.636719 10.851562 C 3.183594 10.265625 2.164062 9.253906 1.4375 7.875 C 1.40625 7.820312 1.375 7.761719 1.347656 7.703125 C 1.039062 7.113281 0.84375 6.5 0.707031 5.847656 C 0.695312 5.785156 0.679688 5.71875 0.667969 5.65625 C 0.578125 5.226562 0.507812 4.8125 0.5 4.375 C 0.5 4.324219 0.5 4.277344 0.496094 4.226562 C 0.464844 2.136719 0.464844 2.136719 0.75 1.75 C 0.875 1.6875 0.875 1.6875 1.0625 1.6875 Z M 1.0625 1.6875 "/>
<path style=" stroke:none;fill-rule:nonzero;fill:rgb(23.921569%,13.333334%,20.784314%);fill-opacity:1;" d="M 11.1875 11.875 C 11.617188 12.144531 11.902344 12.582031 12.0625 13.0625 C 12.066406 13.210938 12.070312 13.359375 12.070312 13.507812 C 12.070312 13.625 12.070312 13.625 12.070312 13.746094 C 12.0625 13.9375 12.0625 13.9375 12 14 C 11.859375 14.027344 11.859375 14.027344 11.6875 14 C 11.613281 13.914062 11.539062 13.824219 11.46875 13.734375 C 11.101562 13.3125 10.507812 13.03125 9.960938 12.976562 C 9.441406 12.964844 8.960938 13.007812 8.492188 13.257812 C 8.332031 13.332031 8.230469 13.296875 8.0625 13.25 C 8.015625 13.078125 7.988281 12.972656 8.042969 12.800781 C 8.726562 11.609375 9.945312 11.167969 11.1875 11.875 Z M 11.1875 11.875 "/>
<path style=" stroke:none;fill-rule:nonzero;fill:rgb(23.137255%,14.117648%,22.745098%);fill-opacity:1;" d="M 4.390625 4.179688 C 4.425781 4.203125 4.464844 4.226562 4.5 4.25 C 4.5 4.375 4.5 4.496094 4.5 4.625 C 4.367188 4.667969 4.367188 4.667969 4.1875 4.6875 C 4.101562 4.644531 4.101562 4.644531 4.015625 4.597656 C 3.671875 4.433594 3.375 4.460938 3.019531 4.574219 C 2.855469 4.664062 2.75 4.738281 2.617188 4.859375 C 2.4375 5 2.4375 5 2.257812 4.988281 C 2.214844 4.972656 2.171875 4.953125 2.125 4.9375 C 2.078125 4.796875 2.078125 4.796875 2.0625 4.625 C 2.644531 3.863281 3.578125 3.714844 4.390625 4.179688 Z M 4.390625 4.179688 "/>
<path style=" stroke:none;fill-rule:nonzero;fill:rgb(23.529412%,14.509805%,22.745098%);fill-opacity:1;" d="M 8.277344 3.527344 C 8.4375 3.625 8.4375 3.625 8.5 3.785156 C 8.5 3.859375 8.5 3.859375 8.5 3.9375 C 8.457031 3.980469 8.417969 4.019531 8.375 4.0625 C 8.160156 4.046875 7.980469 4.019531 7.78125 3.933594 C 7.492188 3.824219 7.253906 3.851562 6.964844 3.949219 C 6.792969 4.039062 6.691406 4.109375 6.554688 4.234375 C 6.375 4.375 6.375 4.375 6.195312 4.363281 C 6.152344 4.347656 6.109375 4.328125 6.0625 4.3125 C 6.015625 4.171875 6.015625 4.171875 6 4 C 6.617188 3.1875 7.402344 3.207031 8.277344 3.527344 Z M 8.277344 3.527344 "/>
<path style=" stroke:none;fill-rule:nonzero;fill:rgb(24.705882%,12.941177%,20.392157%);fill-opacity:1;" d="M 8.0625 7.8125 C 8.390625 7.820312 8.546875 7.945312 8.773438 8.164062 C 8.972656 8.335938 9.1875 8.324219 9.4375 8.324219 C 9.597656 8.308594 9.726562 8.25 9.875 8.1875 C 10.082031 8.179688 10.082031 8.179688 10.25 8.1875 C 10.28125 8.375 10.28125 8.375 10.3125 8.5625 C 9.84375 8.839844 9.488281 8.929688 8.9375 8.875 C 8.535156 8.757812 8.234375 8.46875 7.9375 8.1875 C 7.992188 7.882812 7.992188 7.882812 8.0625 7.8125 Z M 8.0625 7.8125 "/>
<path style=" stroke:none;fill-rule:nonzero;fill:rgb(25.098041%,13.333334%,20.392157%);fill-opacity:1;" d="M 11.75 8.5625 C 11.921875 8.542969 11.921875 8.542969 12.125 8.5625 C 12.210938 8.664062 12.292969 8.769531 12.375 8.875 C 12.722656 9.082031 12.992188 9.082031 13.375 9 C 13.4375 8.980469 13.5 8.957031 13.5625 8.9375 C 13.707031 8.933594 13.855469 8.933594 14 8.9375 C 14.03125 9.09375 14.03125 9.09375 14.0625 9.25 C 13.714844 9.554688 13.300781 9.667969 12.847656 9.652344 C 12.398438 9.578125 12.023438 9.339844 11.746094 8.980469 C 11.6875 8.875 11.6875 8.875 11.695312 8.691406 C 11.714844 8.648438 11.730469 8.605469 11.75 8.5625 Z M 11.75 8.5625 "/>
<path style=" stroke:none;fill-rule:nonzero;fill:rgb(87.843138%,53.333336%,9.019608%);fill-opacity:1;" d="M 3.8125 8.25 C 3.9375 8.28125 4.0625 8.3125 4.1875 8.34375 C 4.554688 8.433594 4.910156 8.464844 5.285156 8.476562 C 5.371094 8.480469 5.371094 8.480469 5.457031 8.484375 C 5.597656 8.488281 5.734375 8.496094 5.875 8.5 C 5.875 8.746094 5.875 8.996094 5.875 9.25 C 5.273438 9.292969 4.800781 9.167969 4.316406 8.796875 C 3.902344 8.429688 3.902344 8.429688 3.8125 8.25 Z M 3.8125 8.25 "/>
<path style=" stroke:none;fill-rule:nonzero;fill:rgb(96.470588%,87.450981%,86.666667%);fill-opacity:1;" d="M 10.824219 12.230469 C 11.105469 12.4375 11.375 12.640625 11.4375 13 C 11.359375 12.960938 11.359375 12.960938 11.277344 12.921875 C 11.171875 12.871094 11.171875 12.871094 11.0625 12.820312 C 10.992188 12.785156 10.921875 12.753906 10.851562 12.71875 C 10.390625 12.527344 9.996094 12.484375 9.5 12.492188 C 9.445312 12.492188 9.390625 12.492188 9.335938 12.492188 C 9.203125 12.496094 9.070312 12.496094 8.9375 12.5 C 9.414062 11.992188 10.210938 11.871094 10.824219 12.230469 Z M 10.824219 12.230469 "/>
<path style=" stroke:none;fill-rule:nonzero;fill:rgb(94.117647%,58.823532%,12.941177%);fill-opacity:1;" d="M 4.3125 8.4375 C 4.828125 8.457031 5.34375 8.480469 5.875 8.5 C 5.875 8.644531 5.875 8.789062 5.875 8.9375 C 5.441406 9.0625 4.996094 8.867188 4.601562 8.675781 C 4.5 8.621094 4.40625 8.5625 4.3125 8.5 C 4.3125 8.480469 4.3125 8.457031 4.3125 8.4375 Z M 4.3125 8.4375 "/>
</g>
</svg>
