<?xml version="1.0" encoding="UTF-8"?>
<svg xmlns="http://www.w3.org/2000/svg" xmlns:xlink="http://www.w3.org/1999/xlink" width="16" height="16" viewBox="0 0 16 16" version="1.1">
<g id="surface1">
<path style=" stroke:none;fill-rule:nonzero;fill:rgb(21.568628%,27.843139%,30.980393%);fill-opacity:1;" d="M 10.484375 1.796875 C 10.8125 2.105469 11.105469 2.464844 11.261719 2.890625 C 11.363281 3.089844 11.363281 3.089844 11.613281 3.117188 C 11.710938 3.125 11.808594 3.128906 11.90625 3.132812 C 12.796875 3.199219 13.574219 3.507812 14.195312 4.171875 C 14.886719 5 15.078125 5.863281 15.015625 6.917969 C 14.9375 7.714844 14.523438 8.40625 13.949219 8.949219 C 13.679688 9.171875 13.375 9.34375 13.0625 9.5 C 13.0625 9.558594 13.0625 9.621094 13.0625 9.683594 C 13.058594 10.25 13.054688 10.820312 13.050781 11.386719 C 13.046875 11.679688 13.046875 11.972656 13.046875 12.265625 C 13.042969 12.546875 13.042969 12.828125 13.039062 13.109375 C 13.039062 13.21875 13.039062 13.324219 13.039062 13.433594 C 13.039062 13.582031 13.035156 13.734375 13.035156 13.886719 C 13.035156 13.953125 13.035156 13.953125 13.035156 14.019531 C 13.027344 14.417969 12.878906 14.625 12.597656 14.894531 C 12.25 15.058594 11.914062 15.035156 11.535156 15.03125 C 11.449219 15.03125 11.363281 15.03125 11.277344 15.035156 C 11.046875 15.035156 10.8125 15.035156 10.582031 15.035156 C 10.339844 15.03125 10.097656 15.035156 9.851562 15.035156 C 9.445312 15.035156 9.035156 15.035156 8.628906 15.03125 C 8.15625 15.03125 7.6875 15.03125 7.214844 15.03125 C 6.808594 15.035156 6.40625 15.035156 6 15.035156 C 5.757812 15.03125 5.515625 15.03125 5.273438 15.035156 C 5.046875 15.035156 4.820312 15.035156 4.59375 15.03125 C 4.46875 15.03125 4.34375 15.03125 4.222656 15.035156 C 3.535156 15.027344 3.535156 15.027344 3.25 14.75 C 3.011719 14.46875 2.964844 14.242188 2.964844 13.886719 C 2.964844 13.835938 2.964844 13.789062 2.964844 13.742188 C 2.960938 13.585938 2.960938 13.429688 2.960938 13.273438 C 2.960938 13.164062 2.960938 13.054688 2.957031 12.945312 C 2.957031 12.660156 2.953125 12.375 2.953125 12.089844 C 2.953125 11.796875 2.949219 11.507812 2.949219 11.214844 C 2.941406 10.644531 2.9375 10.070312 2.9375 9.5 C 2.878906 9.46875 2.878906 9.46875 2.820312 9.4375 C 2.769531 9.410156 2.71875 9.378906 2.667969 9.351562 C 2.617188 9.324219 2.566406 9.296875 2.515625 9.269531 C 1.804688 8.855469 1.304688 8.148438 1.0625 7.375 C 0.84375 6.546875 0.953125 5.566406 1.347656 4.816406 C 1.71875 4.195312 2.171875 3.769531 2.8125 3.4375 C 2.878906 3.402344 2.878906 3.402344 2.949219 3.363281 C 3.265625 3.214844 3.542969 3.175781 3.886719 3.160156 C 4.371094 3.152344 4.371094 3.152344 4.765625 2.921875 C 4.859375 2.746094 4.859375 2.746094 4.925781 2.558594 C 5.183594 1.90625 5.871094 1.484375 6.480469 1.199219 C 7.835938 0.617188 9.351562 0.84375 10.484375 1.796875 Z M 5.675781 2.703125 C 5.582031 2.847656 5.527344 2.957031 5.46875 3.117188 C 5.261719 3.644531 5.261719 3.644531 5.0625 3.8125 C 4.691406 3.929688 4.285156 3.886719 3.902344 3.875 C 3.277344 3.878906 2.8125 4.273438 2.378906 4.675781 C 1.882812 5.1875 1.664062 5.875 1.675781 6.578125 C 1.734375 7.34375 2.09375 7.9375 2.628906 8.464844 C 2.75 8.5625 2.859375 8.621094 3 8.6875 C 3 8.648438 3 8.613281 3 8.574219 C 3.003906 8.183594 3.007812 7.792969 3.011719 7.398438 C 3.015625 7.253906 3.015625 7.109375 3.015625 6.960938 C 3.019531 6.75 3.019531 6.542969 3.023438 6.332031 C 3.023438 6.265625 3.023438 6.203125 3.023438 6.132812 C 3.03125 5.769531 3.054688 5.53125 3.3125 5.25 C 3.546875 5.082031 3.707031 5.039062 3.992188 5.039062 C 4.066406 5.039062 4.140625 5.035156 4.214844 5.035156 C 4.296875 5.035156 4.375 5.035156 4.457031 5.039062 C 4.542969 5.035156 4.628906 5.035156 4.714844 5.035156 C 4.945312 5.035156 5.179688 5.035156 5.410156 5.035156 C 5.605469 5.035156 5.800781 5.035156 5.992188 5.035156 C 6.449219 5.035156 6.910156 5.035156 7.367188 5.035156 C 7.839844 5.035156 8.308594 5.035156 8.78125 5.03125 C 9.1875 5.03125 9.59375 5.03125 10 5.03125 C 10.242188 5.03125 10.484375 5.03125 10.722656 5.03125 C 10.953125 5.03125 11.179688 5.03125 11.40625 5.03125 C 11.53125 5.03125 11.652344 5.03125 11.777344 5.03125 C 12.449219 5.035156 12.449219 5.035156 12.75 5.3125 C 13.007812 5.601562 12.96875 5.957031 12.96875 6.324219 C 12.96875 6.394531 12.972656 6.460938 12.972656 6.53125 C 12.976562 6.746094 12.976562 6.960938 12.980469 7.175781 C 12.984375 7.320312 12.984375 7.46875 12.988281 7.613281 C 12.992188 7.972656 12.996094 8.328125 13 8.6875 C 13.65625 8.253906 14.050781 7.761719 14.273438 6.992188 C 14.386719 6.285156 14.277344 5.628906 13.894531 5.011719 C 13.496094 4.464844 12.925781 4.011719 12.25 3.875 C 12.152344 3.875 12.054688 3.882812 11.957031 3.886719 C 11.070312 3.921875 11.070312 3.921875 10.835938 3.726562 C 10.671875 3.503906 10.582031 3.25 10.484375 2.992188 C 10.242188 2.40625 9.609375 2.027344 9.054688 1.792969 C 7.8125 1.359375 6.542969 1.714844 5.675781 2.703125 Z M 3.6875 7.5625 C 3.6875 9.066406 3.6875 10.574219 3.6875 12.125 C 4.90625 12.125 6.121094 12.125 7.375 12.125 C 7.457031 11.960938 7.539062 11.796875 7.625 11.625 C 7.953125 11.3125 8.175781 11.171875 8.628906 11.175781 C 8.738281 11.175781 8.738281 11.175781 8.847656 11.175781 C 8.925781 11.175781 9 11.179688 9.078125 11.179688 C 9.191406 11.179688 9.191406 11.179688 9.308594 11.179688 C 9.5 11.183594 9.6875 11.183594 9.875 11.1875 C 9.890625 11.226562 9.910156 11.269531 9.925781 11.308594 C 9.949219 11.351562 9.976562 11.394531 10 11.4375 C 10.191406 11.480469 10.191406 11.480469 10.40625 11.480469 C 10.804688 11.496094 10.804688 11.496094 10.9375 11.5625 C 10.949219 11.773438 10.949219 11.773438 10.9375 12 C 10.726562 12.140625 10.613281 12.148438 10.363281 12.164062 C 10.261719 12.171875 10.261719 12.171875 10.15625 12.179688 C 10.105469 12.179688 10.054688 12.183594 10 12.1875 C 10 12.375 10 12.558594 10 12.75 C 10.078125 12.753906 10.078125 12.753906 10.15625 12.757812 C 10.257812 12.765625 10.257812 12.765625 10.363281 12.773438 C 10.429688 12.777344 10.5 12.78125 10.566406 12.785156 C 10.75 12.8125 10.75 12.8125 10.9375 12.9375 C 10.949219 13.164062 10.949219 13.164062 10.9375 13.375 C 10.710938 13.488281 10.4375 13.457031 10.1875 13.464844 C 10.125 13.476562 10.0625 13.488281 10 13.5 C 9.925781 13.625 9.925781 13.625 9.875 13.75 C 9.625 13.757812 9.375 13.761719 9.125 13.765625 C 9.054688 13.765625 8.984375 13.769531 8.910156 13.773438 C 8.445312 13.777344 8.070312 13.742188 7.71875 13.410156 C 7.546875 13.21875 7.472656 13.054688 7.375 12.8125 C 6.15625 12.8125 4.941406 12.8125 3.6875 12.8125 C 3.6875 13.226562 3.6875 13.636719 3.6875 14.0625 C 3.945312 14.332031 3.945312 14.332031 4.273438 14.34375 C 4.34375 14.34375 4.410156 14.34375 4.480469 14.347656 C 4.554688 14.34375 4.628906 14.34375 4.707031 14.34375 C 4.828125 14.34375 4.828125 14.34375 4.945312 14.347656 C 5.164062 14.347656 5.378906 14.347656 5.59375 14.347656 C 5.820312 14.34375 6.046875 14.347656 6.273438 14.347656 C 6.65625 14.347656 7.035156 14.347656 7.414062 14.34375 C 7.851562 14.34375 8.292969 14.34375 8.730469 14.34375 C 9.109375 14.347656 9.484375 14.347656 9.863281 14.347656 C 10.089844 14.34375 10.3125 14.34375 10.539062 14.347656 C 10.789062 14.347656 11.042969 14.347656 11.292969 14.34375 C 11.367188 14.34375 11.441406 14.34375 11.519531 14.347656 C 11.585938 14.34375 11.65625 14.34375 11.726562 14.34375 C 11.785156 14.34375 11.84375 14.34375 11.90625 14.34375 C 12.113281 14.300781 12.1875 14.230469 12.3125 14.0625 C 12.347656 13.929688 12.347656 13.929688 12.34375 13.785156 C 12.34375 13.730469 12.34375 13.675781 12.34375 13.621094 C 12.34375 13.558594 12.34375 13.5 12.339844 13.4375 C 12.339844 13.339844 12.339844 13.339844 12.339844 13.242188 C 12.339844 13.035156 12.339844 12.824219 12.335938 12.617188 C 12.335938 12.488281 12.335938 12.359375 12.335938 12.230469 C 12.335938 11.75 12.332031 11.273438 12.328125 10.796875 C 12.324219 9.730469 12.316406 8.660156 12.3125 7.5625 C 9.464844 7.5625 6.621094 7.5625 3.6875 7.5625 Z M 3.6875 7.5625 "/>
<path style=" stroke:none;fill-rule:nonzero;fill:rgb(34.117648%,62.352943%,83.529413%);fill-opacity:1;" d="M 4.144531 5.671875 C 4.214844 5.671875 4.285156 5.671875 4.359375 5.671875 C 4.476562 5.671875 4.476562 5.671875 4.59375 5.671875 C 4.675781 5.671875 4.757812 5.671875 4.839844 5.671875 C 5.066406 5.671875 5.289062 5.671875 5.511719 5.671875 C 5.746094 5.671875 5.980469 5.671875 6.214844 5.671875 C 6.605469 5.671875 7 5.671875 7.394531 5.671875 C 7.847656 5.671875 8.304688 5.671875 8.757812 5.671875 C 9.148438 5.671875 9.539062 5.671875 9.929688 5.671875 C 10.160156 5.671875 10.394531 5.671875 10.628906 5.671875 C 10.886719 5.667969 11.148438 5.671875 11.40625 5.671875 C 11.484375 5.671875 11.5625 5.671875 11.640625 5.671875 C 11.710938 5.671875 11.78125 5.671875 11.855469 5.671875 C 11.917969 5.671875 11.976562 5.671875 12.042969 5.671875 C 12.1875 5.6875 12.1875 5.6875 12.3125 5.8125 C 12.3125 6.164062 12.3125 6.511719 12.3125 6.875 C 9.464844 6.875 6.621094 6.875 3.6875 6.875 C 3.6875 5.671875 3.6875 5.671875 4.144531 5.671875 Z M 4.144531 5.671875 "/>
<path style=" stroke:none;fill-rule:nonzero;fill:rgb(21.176471%,27.843139%,30.980393%);fill-opacity:1;" d="M 6.8125 8.3125 C 7.171875 8.644531 7.28125 9.074219 7.425781 9.53125 C 7.464844 9.644531 7.464844 9.644531 7.503906 9.761719 C 7.710938 10.394531 7.710938 10.394531 7.6875 10.75 C 7.621094 10.871094 7.621094 10.871094 7.5 10.9375 C 7.28125 10.945312 7.28125 10.945312 7.0625 10.875 C 6.9375 10.65625 6.875 10.503906 6.875 10.25 C 6.523438 10.25 6.171875 10.25 5.8125 10.25 C 5.792969 10.375 5.769531 10.496094 5.75 10.625 C 5.65625 10.859375 5.65625 10.859375 5.5 10.9375 C 5.3125 10.949219 5.3125 10.949219 5.125 10.9375 C 5 10.8125 5 10.8125 4.976562 10.605469 C 4.984375 10.214844 5.132812 9.855469 5.261719 9.492188 C 5.285156 9.421875 5.308594 9.347656 5.335938 9.273438 C 5.46875 8.894531 5.582031 8.589844 5.875 8.3125 C 6.191406 8.167969 6.503906 8.140625 6.8125 8.3125 Z M 6.3125 8.9375 C 6.175781 9.144531 6.097656 9.316406 6.0625 9.5625 C 6.226562 9.5625 6.390625 9.5625 6.5625 9.5625 C 6.546875 9.46875 6.527344 9.378906 6.507812 9.285156 C 6.492188 9.207031 6.492188 9.207031 6.476562 9.128906 C 6.464844 9.085938 6.453125 9.042969 6.4375 9 C 6.394531 8.980469 6.355469 8.957031 6.3125 8.9375 Z M 6.3125 8.9375 "/>
<path style=" stroke:none;fill-rule:nonzero;fill:rgb(21.176471%,27.450982%,30.588236%);fill-opacity:1;" d="M 9.503906 8.308594 C 9.742188 8.441406 9.878906 8.636719 10 8.875 C 10.03125 9.222656 10.046875 9.527344 9.898438 9.84375 C 9.523438 10.238281 9.523438 10.238281 9.199219 10.265625 C 9.027344 10.265625 8.859375 10.261719 8.6875 10.25 C 8.691406 10.328125 8.695312 10.40625 8.699219 10.488281 C 8.699219 10.730469 8.699219 10.730469 8.617188 10.875 C 8.445312 10.964844 8.316406 10.957031 8.125 10.9375 C 7.933594 10.746094 7.980469 10.527344 7.976562 10.273438 C 7.976562 10.21875 7.976562 10.167969 7.976562 10.113281 C 7.972656 10 7.972656 9.886719 7.972656 9.773438 C 7.972656 9.597656 7.96875 9.425781 7.964844 9.253906 C 7.964844 9.140625 7.964844 9.03125 7.964844 8.921875 C 7.964844 8.871094 7.960938 8.816406 7.960938 8.765625 C 7.960938 8.617188 7.960938 8.617188 8 8.375 C 8.398438 8.035156 9.042969 8.132812 9.503906 8.308594 Z M 8.6875 8.9375 C 8.6875 9.144531 8.6875 9.351562 8.6875 9.5625 C 8.863281 9.582031 8.863281 9.582031 9.0625 9.5625 C 9.210938 9.445312 9.210938 9.445312 9.3125 9.3125 C 9.246094 9.109375 9.246094 9.109375 9.125 8.9375 C 8.980469 8.933594 8.832031 8.933594 8.6875 8.9375 Z M 8.6875 8.9375 "/>
<path style=" stroke:none;fill-rule:nonzero;fill:rgb(21.176471%,27.450982%,30.588236%);fill-opacity:1;" d="M 10.796875 8.234375 C 10.9375 8.3125 10.9375 8.3125 11 8.375 C 11.007812 8.554688 11.011719 8.730469 11.011719 8.910156 C 11.011719 8.964844 11.011719 9.015625 11.011719 9.074219 C 11.011719 9.1875 11.011719 9.300781 11.011719 9.414062 C 11.011719 9.589844 11.011719 9.765625 11.015625 9.9375 C 11.015625 10.046875 11.015625 10.160156 11.015625 10.269531 C 11.015625 10.320312 11.015625 10.375 11.015625 10.429688 C 11.015625 10.796875 11.015625 10.796875 10.875 10.9375 C 10.546875 10.972656 10.546875 10.972656 10.394531 10.859375 C 10.25 10.671875 10.28125 10.445312 10.28125 10.21875 C 10.28125 10.167969 10.28125 10.113281 10.28125 10.0625 C 10.28125 9.953125 10.28125 9.839844 10.28125 9.730469 C 10.28125 9.5625 10.277344 9.394531 10.277344 9.226562 C 10.277344 9.121094 10.277344 9.011719 10.277344 8.90625 C 10.273438 8.855469 10.273438 8.804688 10.273438 8.753906 C 10.273438 8.609375 10.273438 8.609375 10.3125 8.375 C 10.496094 8.214844 10.558594 8.167969 10.796875 8.234375 Z M 10.796875 8.234375 "/>
<path style=" stroke:none;fill-rule:nonzero;fill:rgb(33.725491%,62.352943%,83.529413%);fill-opacity:1;" d="M 9.3125 11.8125 C 9.3125 12.246094 9.3125 12.679688 9.3125 13.125 C 8.425781 13.167969 8.425781 13.167969 8.199219 13.003906 C 8.023438 12.757812 7.957031 12.554688 8 12.25 C 8.296875 11.695312 8.753906 11.808594 9.3125 11.8125 Z M 9.3125 11.8125 "/>
<path style=" stroke:none;fill-rule:nonzero;fill:rgb(89.411765%,91.764706%,93.333334%);fill-opacity:1;" d="M 6.121094 5.917969 C 6.3125 5.9375 6.3125 5.9375 6.433594 6.007812 C 6.5 6.125 6.5 6.125 6.492188 6.316406 C 6.4375 6.5 6.4375 6.5 6.25 6.625 C 6.054688 6.609375 6.054688 6.609375 5.875 6.5625 C 5.789062 6.390625 5.800781 6.253906 5.8125 6.0625 C 5.9375 5.9375 5.9375 5.9375 6.121094 5.917969 Z M 6.121094 5.917969 "/>
<path style=" stroke:none;fill-rule:nonzero;fill:rgb(89.803922%,91.764706%,93.333334%);fill-opacity:1;" d="M 4.75 5.921875 C 4.9375 5.9375 4.9375 5.9375 5.0625 6.0625 C 5.082031 6.257812 5.09375 6.386719 4.988281 6.554688 C 4.832031 6.652344 4.742188 6.65625 4.5625 6.625 C 4.445312 6.519531 4.445312 6.519531 4.375 6.375 C 4.394531 6.09375 4.449219 5.945312 4.75 5.921875 Z M 4.75 5.921875 "/>
<path style=" stroke:none;fill-rule:nonzero;fill:rgb(90.980393%,92.54902%,93.725491%);fill-opacity:1;" d="M 7.375 5.9375 C 7.601562 5.960938 7.601562 5.960938 7.8125 6 C 7.832031 6.144531 7.855469 6.289062 7.875 6.4375 C 7.769531 6.535156 7.769531 6.535156 7.625 6.625 C 7.460938 6.617188 7.460938 6.617188 7.3125 6.5625 C 7.1875 6.375 7.1875 6.375 7.203125 6.214844 C 7.25 6.0625 7.25 6.0625 7.375 5.9375 Z M 7.375 5.9375 "/>
</g>
</svg>
