<?xml version="1.0" encoding="UTF-8"?>
<svg xmlns="http://www.w3.org/2000/svg" xmlns:xlink="http://www.w3.org/1999/xlink" width="16" height="16" viewBox="0 0 16 16" version="1.1">
<g id="surface1">
<path style=" stroke:none;fill-rule:nonzero;fill:rgb(0%,0%,0%);fill-opacity:1;" d="M 6.890625 5.386719 C 7.390625 5.898438 7.9375 6.566406 7.9375 7.3125 C 8.015625 7.3125 8.09375 7.3125 8.175781 7.308594 C 8.910156 7.304688 9.648438 7.300781 10.386719 7.296875 C 10.765625 7.292969 11.144531 7.292969 11.523438 7.289062 C 11.890625 7.285156 12.257812 7.285156 12.621094 7.28125 C 12.761719 7.28125 12.902344 7.28125 13.042969 7.277344 C 13.238281 7.277344 13.433594 7.277344 13.628906 7.277344 C 13.6875 7.277344 13.742188 7.273438 13.800781 7.273438 C 14.074219 7.277344 14.257812 7.289062 14.472656 7.464844 C 14.679688 7.683594 14.710938 7.8125 14.710938 8.117188 C 14.671875 8.351562 14.542969 8.464844 14.375 8.625 C 14.207031 8.707031 14.082031 8.695312 13.894531 8.695312 C 13.789062 8.695312 13.789062 8.695312 13.683594 8.691406 C 13.609375 8.691406 13.535156 8.691406 13.460938 8.691406 C 13.386719 8.691406 13.3125 8.691406 13.238281 8.691406 C 13.054688 8.691406 12.871094 8.6875 12.6875 8.6875 C 12.6875 8.734375 12.691406 8.777344 12.691406 8.824219 C 12.699219 9.03125 12.703125 9.238281 12.707031 9.445312 C 12.710938 9.550781 12.710938 9.550781 12.714844 9.660156 C 12.722656 10.253906 12.722656 10.253906 12.539062 10.484375 C 12.316406 10.675781 12.179688 10.710938 11.882812 10.710938 C 11.648438 10.671875 11.539062 10.542969 11.375 10.375 C 11.292969 10.207031 11.304688 10.082031 11.304688 9.894531 C 11.308594 9.824219 11.308594 9.757812 11.308594 9.683594 C 11.308594 9.609375 11.308594 9.535156 11.308594 9.460938 C 11.308594 9.386719 11.308594 9.3125 11.308594 9.238281 C 11.308594 9.054688 11.3125 8.871094 11.3125 8.6875 C 11.105469 8.6875 10.898438 8.6875 10.6875 8.6875 C 10.6875 8.734375 10.691406 8.777344 10.691406 8.824219 C 10.699219 9.03125 10.703125 9.238281 10.707031 9.445312 C 10.710938 9.550781 10.710938 9.550781 10.714844 9.660156 C 10.722656 10.253906 10.722656 10.253906 10.539062 10.484375 C 10.316406 10.675781 10.179688 10.710938 9.882812 10.710938 C 9.648438 10.671875 9.539062 10.542969 9.375 10.375 C 9.292969 10.207031 9.304688 10.082031 9.304688 9.894531 C 9.308594 9.792969 9.308594 9.792969 9.308594 9.683594 C 9.308594 9.574219 9.308594 9.574219 9.308594 9.460938 C 9.308594 9.386719 9.308594 9.3125 9.308594 9.238281 C 9.308594 9.054688 9.3125 8.871094 9.3125 8.6875 C 8.859375 8.6875 8.40625 8.6875 7.9375 8.6875 C 7.917969 8.832031 7.894531 8.976562 7.875 9.125 C 7.515625 10.050781 6.921875 10.683594 6.027344 11.117188 C 5.136719 11.492188 4.214844 11.449219 3.3125 11.125 C 2.488281 10.757812 1.898438 10.148438 1.546875 9.320312 C 1.210938 8.421875 1.195312 7.460938 1.578125 6.574219 C 1.992188 5.75 2.664062 5.113281 3.53125 4.796875 C 4.757812 4.417969 5.839844 4.679688 6.890625 5.386719 Z M 6.890625 5.386719 "/>
<path style=" stroke:none;fill-rule:nonzero;fill:rgb(96.862745%,6.666667%,15.294118%);fill-opacity:1;" d="M 5.8125 6.3125 C 6.261719 6.648438 6.578125 7.132812 6.6875 7.6875 C 6.742188 8.214844 6.636719 8.707031 6.328125 9.140625 C 5.933594 9.621094 5.5 9.949219 4.863281 10.023438 C 4.257812 10.046875 3.804688 9.910156 3.328125 9.53125 C 2.882812 9.101562 2.652344 8.621094 2.640625 8 C 2.652344 7.378906 2.882812 6.898438 3.328125 6.46875 C 4.082031 5.867188 4.980469 5.824219 5.8125 6.3125 Z M 5.8125 6.3125 "/>
</g>
</svg>
