<?xml version="1.0" encoding="UTF-8"?>
<svg xmlns="http://www.w3.org/2000/svg" xmlns:xlink="http://www.w3.org/1999/xlink" width="16" height="16" viewBox="0 0 16 16" version="1.1">
<g id="surface1">
<path style=" stroke:none;fill-rule:nonzero;fill:rgb(98.823529%,27.450982%,32.941177%);fill-opacity:1;" d="M 2.289062 0.425781 C 2.351562 0.425781 2.351562 0.425781 2.414062 0.425781 C 2.550781 0.425781 2.683594 0.421875 2.820312 0.421875 C 2.867188 0.421875 2.914062 0.421875 2.960938 0.421875 C 3.207031 0.421875 3.457031 0.417969 3.703125 0.417969 C 3.957031 0.417969 4.207031 0.417969 4.460938 0.414062 C 4.65625 0.410156 4.855469 0.410156 5.050781 0.410156 C 5.144531 0.410156 5.238281 0.410156 5.332031 0.410156 C 5.953125 0.402344 6.441406 0.46875 6.984375 0.789062 C 7.367188 1.191406 7.570312 1.621094 7.574219 2.175781 C 7.574219 2.21875 7.574219 2.261719 7.574219 2.304688 C 7.578125 2.449219 7.578125 2.589844 7.578125 2.734375 C 7.578125 2.78125 7.578125 2.832031 7.578125 2.878906 C 7.578125 3.140625 7.582031 3.398438 7.582031 3.65625 C 7.582031 3.921875 7.582031 4.1875 7.585938 4.453125 C 7.589844 4.660156 7.589844 4.863281 7.589844 5.070312 C 7.589844 5.167969 7.589844 5.265625 7.589844 5.363281 C 7.597656 6.066406 7.535156 6.617188 7.046875 7.15625 C 6.691406 7.464844 6.285156 7.570312 5.824219 7.574219 C 5.78125 7.574219 5.738281 7.574219 5.695312 7.574219 C 5.554688 7.578125 5.410156 7.578125 5.269531 7.578125 C 5.21875 7.582031 5.171875 7.582031 5.121094 7.582031 C 4.863281 7.582031 4.605469 7.582031 4.347656 7.585938 C 4.136719 7.585938 3.921875 7.585938 3.710938 7.589844 C 3.453125 7.59375 3.195312 7.59375 2.9375 7.59375 C 2.839844 7.59375 2.742188 7.597656 2.644531 7.597656 C 1.949219 7.609375 1.421875 7.527344 0.882812 7.054688 C 0.398438 6.519531 0.402344 5.828125 0.40625 5.148438 C 0.40625 5.054688 0.40625 4.960938 0.40625 4.867188 C 0.40625 4.675781 0.40625 4.480469 0.40625 4.289062 C 0.410156 4.042969 0.410156 3.792969 0.410156 3.546875 C 0.410156 3.355469 0.410156 3.164062 0.410156 2.972656 C 0.410156 2.882812 0.410156 2.792969 0.410156 2.699219 C 0.410156 1.960938 0.464844 1.421875 0.988281 0.871094 C 1.375 0.527344 1.78125 0.429688 2.289062 0.425781 Z M 2.289062 0.425781 "/>
<path style=" stroke:none;fill-rule:nonzero;fill:rgb(99.607843%,69.411767%,15.686275%);fill-opacity:1;" d="M 10.195312 8.417969 C 10.238281 8.417969 10.28125 8.417969 10.324219 8.417969 C 10.46875 8.414062 10.609375 8.414062 10.75 8.414062 C 10.847656 8.414062 10.945312 8.414062 11.046875 8.414062 C 11.253906 8.410156 11.460938 8.410156 11.667969 8.410156 C 11.929688 8.410156 12.195312 8.410156 12.457031 8.40625 C 12.660156 8.402344 12.867188 8.402344 13.070312 8.402344 C 13.167969 8.402344 13.265625 8.402344 13.363281 8.402344 C 14.023438 8.390625 14.523438 8.460938 15.050781 8.894531 C 15.410156 9.335938 15.570312 9.660156 15.574219 10.234375 C 15.574219 10.273438 15.574219 10.316406 15.574219 10.359375 C 15.574219 10.5 15.578125 10.636719 15.578125 10.773438 C 15.578125 10.820312 15.578125 10.867188 15.578125 10.917969 C 15.578125 11.167969 15.582031 11.417969 15.582031 11.667969 C 15.582031 11.925781 15.582031 12.183594 15.585938 12.441406 C 15.585938 12.640625 15.589844 12.839844 15.589844 13.039062 C 15.589844 13.136719 15.589844 13.230469 15.589844 13.324219 C 15.597656 14.0625 15.507812 14.589844 14.996094 15.140625 C 14.617188 15.480469 14.203125 15.570312 13.710938 15.574219 C 13.667969 15.574219 13.628906 15.574219 13.585938 15.574219 C 13.449219 15.574219 13.316406 15.578125 13.179688 15.578125 C 13.132812 15.578125 13.085938 15.578125 13.039062 15.578125 C 12.792969 15.578125 12.542969 15.582031 12.296875 15.582031 C 12.042969 15.582031 11.792969 15.582031 11.539062 15.585938 C 11.34375 15.585938 11.144531 15.589844 10.949219 15.589844 C 10.855469 15.589844 10.761719 15.589844 10.667969 15.589844 C 10.058594 15.597656 9.539062 15.558594 9.027344 15.199219 C 8.972656 15.140625 8.972656 15.140625 8.914062 15.082031 C 8.875 15.042969 8.839844 15.007812 8.800781 14.96875 C 8.410156 14.425781 8.398438 13.886719 8.398438 13.238281 C 8.398438 13.140625 8.398438 13.039062 8.398438 12.941406 C 8.398438 12.738281 8.398438 12.53125 8.398438 12.324219 C 8.398438 12.066406 8.394531 11.804688 8.394531 11.542969 C 8.390625 11.339844 8.390625 11.136719 8.390625 10.933594 C 8.390625 10.835938 8.390625 10.742188 8.390625 10.644531 C 8.382812 10.03125 8.445312 9.519531 8.8125 9 C 9.226562 8.589844 9.609375 8.421875 10.195312 8.417969 Z M 10.195312 8.417969 "/>
<path style=" stroke:none;fill-rule:nonzero;fill:rgb(0%,89.019608%,60.000002%);fill-opacity:1;" d="M 13.851562 1.328125 C 14.535156 1.832031 15.027344 2.535156 15.1875 3.375 C 15.292969 4.457031 15.085938 5.320312 14.417969 6.1875 C 13.867188 6.835938 13.078125 7.160156 12.25 7.242188 C 11.273438 7.285156 10.496094 7 9.75 6.375 C 9.101562 5.777344 8.804688 4.953125 8.753906 4.089844 C 8.738281 3.1875 9.078125 2.351562 9.6875 1.6875 C 10.875 0.652344 12.511719 0.46875 13.851562 1.328125 Z M 13.851562 1.328125 "/>
<path style=" stroke:none;fill-rule:nonzero;fill:rgb(37.254903%,71.372551%,99.607843%);fill-opacity:1;" d="M 4.644531 8.835938 C 5.140625 9.140625 5.417969 9.792969 5.691406 10.289062 C 5.761719 10.414062 5.832031 10.542969 5.902344 10.667969 C 5.957031 10.765625 5.957031 10.765625 6.011719 10.863281 C 6.199219 11.195312 6.390625 11.519531 6.582031 11.847656 C 6.65625 11.972656 6.726562 12.097656 6.800781 12.222656 C 6.835938 12.28125 6.867188 12.335938 6.902344 12.398438 C 7.035156 12.625 7.167969 12.851562 7.300781 13.082031 C 7.339844 13.148438 7.375 13.210938 7.414062 13.28125 C 7.605469 13.632812 7.589844 13.980469 7.5625 14.375 C 7.457031 14.714844 7.226562 14.929688 6.9375 15.125 C 6.667969 15.261719 6.414062 15.269531 6.117188 15.269531 C 6.039062 15.269531 6.039062 15.269531 5.960938 15.269531 C 5.796875 15.269531 5.628906 15.269531 5.464844 15.269531 C 5.347656 15.273438 5.230469 15.273438 5.113281 15.273438 C 4.871094 15.273438 4.628906 15.273438 4.386719 15.273438 C 4.074219 15.273438 3.765625 15.273438 3.453125 15.277344 C 3.214844 15.277344 2.972656 15.277344 2.734375 15.277344 C 2.621094 15.277344 2.503906 15.277344 2.390625 15.28125 C 2.230469 15.28125 2.070312 15.28125 1.910156 15.28125 C 1.863281 15.28125 1.816406 15.28125 1.765625 15.28125 C 1.367188 15.277344 1.03125 15.15625 0.746094 14.871094 C 0.703125 14.808594 0.703125 14.808594 0.660156 14.746094 C 0.617188 14.683594 0.617188 14.683594 0.570312 14.617188 C 0.394531 14.320312 0.378906 14.023438 0.4375 13.6875 C 0.683594 13.070312 1.039062 12.5 1.378906 11.929688 C 1.5625 11.625 1.738281 11.320312 1.914062 11.011719 C 2.074219 10.734375 2.234375 10.457031 2.394531 10.179688 C 2.457031 10.070312 2.519531 9.960938 2.582031 9.855469 C 3.042969 9.054688 3.648438 8.417969 4.644531 8.835938 Z M 4.644531 8.835938 "/>
<path style=" stroke:none;fill-rule:nonzero;fill:rgb(89.803922%,25.098041%,30.19608%);fill-opacity:1;" d="M 2.3125 0.417969 C 2.351562 0.417969 2.394531 0.417969 2.433594 0.417969 C 2.570312 0.417969 2.703125 0.417969 2.839844 0.417969 C 2.933594 0.417969 3.027344 0.414062 3.121094 0.414062 C 3.320312 0.414062 3.519531 0.414062 3.714844 0.414062 C 3.96875 0.414062 4.21875 0.414062 4.472656 0.410156 C 4.667969 0.410156 4.863281 0.410156 5.058594 0.410156 C 5.152344 0.410156 5.242188 0.40625 5.335938 0.40625 C 5.957031 0.402344 6.441406 0.46875 6.984375 0.789062 C 7.367188 1.191406 7.570312 1.621094 7.574219 2.175781 C 7.574219 2.21875 7.574219 2.261719 7.574219 2.304688 C 7.578125 2.449219 7.578125 2.589844 7.578125 2.734375 C 7.578125 2.78125 7.578125 2.832031 7.578125 2.878906 C 7.578125 3.140625 7.582031 3.398438 7.582031 3.65625 C 7.582031 3.921875 7.582031 4.1875 7.585938 4.453125 C 7.589844 4.660156 7.589844 4.863281 7.589844 5.070312 C 7.589844 5.167969 7.589844 5.265625 7.589844 5.363281 C 7.597656 6.078125 7.53125 6.617188 7.03125 7.160156 C 6.90625 7.28125 6.785156 7.367188 6.625 7.4375 C 6.53125 7.40625 6.53125 7.40625 6.4375 7.375 C 6.464844 7.324219 6.464844 7.324219 6.488281 7.273438 C 6.511719 7.226562 6.535156 7.183594 6.558594 7.136719 C 6.582031 7.09375 6.605469 7.046875 6.625 7.003906 C 6.746094 6.753906 6.757812 6.554688 6.761719 6.28125 C 6.761719 6.238281 6.761719 6.195312 6.761719 6.15625 C 6.765625 6.019531 6.765625 5.882812 6.765625 5.746094 C 6.765625 5.699219 6.765625 5.652344 6.765625 5.605469 C 6.765625 5.355469 6.769531 5.109375 6.769531 4.863281 C 6.769531 4.609375 6.769531 4.351562 6.773438 4.097656 C 6.777344 3.902344 6.777344 3.703125 6.777344 3.507812 C 6.777344 3.414062 6.777344 3.320312 6.777344 3.226562 C 6.785156 2.484375 6.691406 1.96875 6.175781 1.417969 C 5.820312 1.089844 5.421875 1.054688 4.960938 1.054688 C 4.921875 1.054688 4.878906 1.054688 4.835938 1.054688 C 4.703125 1.054688 4.574219 1.054688 4.4375 1.054688 C 4.347656 1.054688 4.253906 1.054688 4.160156 1.054688 C 3.96875 1.054688 3.773438 1.054688 3.578125 1.054688 C 3.332031 1.054688 3.082031 1.054688 2.835938 1.054688 C 2.644531 1.054688 2.453125 1.054688 2.261719 1.054688 C 2.167969 1.054688 2.078125 1.054688 1.984375 1.054688 C 1.859375 1.054688 1.730469 1.054688 1.601562 1.054688 C 1.53125 1.054688 1.457031 1.054688 1.382812 1.054688 C 1.207031 1.0625 1.046875 1.085938 0.875 1.125 C 0.96875 0.847656 1.1875 0.695312 1.4375 0.5625 C 1.734375 0.464844 1.996094 0.421875 2.3125 0.417969 Z M 2.3125 0.417969 "/>
<path style=" stroke:none;fill-rule:nonzero;fill:rgb(90.588236%,62.7451%,14.509805%);fill-opacity:1;" d="M 10.175781 8.425781 C 10.21875 8.425781 10.261719 8.425781 10.304688 8.425781 C 10.445312 8.421875 10.589844 8.421875 10.730469 8.421875 C 10.78125 8.417969 10.828125 8.417969 10.878906 8.417969 C 11.136719 8.417969 11.394531 8.417969 11.652344 8.414062 C 11.863281 8.414062 12.078125 8.414062 12.289062 8.410156 C 12.546875 8.40625 12.804688 8.40625 13.0625 8.40625 C 13.160156 8.40625 13.257812 8.402344 13.355469 8.402344 C 14.019531 8.394531 14.519531 8.457031 15.050781 8.894531 C 15.410156 9.335938 15.570312 9.660156 15.574219 10.234375 C 15.574219 10.277344 15.574219 10.316406 15.574219 10.359375 C 15.578125 10.496094 15.578125 10.636719 15.578125 10.773438 C 15.578125 10.820312 15.578125 10.867188 15.578125 10.917969 C 15.578125 11.167969 15.582031 11.417969 15.582031 11.667969 C 15.582031 11.925781 15.582031 12.183594 15.585938 12.441406 C 15.589844 12.640625 15.589844 12.839844 15.589844 13.039062 C 15.589844 13.136719 15.589844 13.230469 15.589844 13.324219 C 15.597656 14.078125 15.503906 14.585938 14.984375 15.144531 C 14.820312 15.300781 14.667969 15.4375 14.4375 15.4375 C 14.453125 15.398438 14.472656 15.355469 14.488281 15.316406 C 14.511719 15.253906 14.535156 15.191406 14.5625 15.125 C 14.578125 15.089844 14.59375 15.054688 14.609375 15.015625 C 14.789062 14.5625 14.777344 14.109375 14.777344 13.628906 C 14.777344 13.539062 14.777344 13.445312 14.777344 13.355469 C 14.777344 13.167969 14.777344 12.980469 14.777344 12.792969 C 14.777344 12.550781 14.777344 12.3125 14.78125 12.074219 C 14.78125 11.886719 14.78125 11.699219 14.78125 11.515625 C 14.78125 11.425781 14.78125 11.339844 14.78125 11.25 C 14.789062 10.535156 14.699219 9.949219 14.1875 9.417969 C 13.667969 8.980469 13.015625 9.027344 12.378906 9.039062 C 12.277344 9.039062 12.175781 9.039062 12.074219 9.039062 C 11.808594 9.039062 11.542969 9.042969 11.28125 9.046875 C 11.007812 9.046875 10.738281 9.050781 10.464844 9.050781 C 9.9375 9.054688 9.40625 9.058594 8.875 9.0625 C 8.976562 8.839844 9.058594 8.757812 9.277344 8.644531 C 9.328125 8.617188 9.375 8.59375 9.425781 8.566406 C 9.683594 8.441406 9.890625 8.429688 10.175781 8.425781 Z M 10.175781 8.425781 "/>
<path style=" stroke:none;fill-rule:nonzero;fill:rgb(33.725491%,64.705884%,90.588236%);fill-opacity:1;" d="M 4.644531 8.835938 C 5.140625 9.140625 5.417969 9.792969 5.691406 10.289062 C 5.761719 10.414062 5.832031 10.542969 5.902344 10.667969 C 5.941406 10.734375 5.976562 10.796875 6.011719 10.863281 C 6.199219 11.195312 6.390625 11.519531 6.582031 11.847656 C 6.65625 11.972656 6.726562 12.097656 6.800781 12.222656 C 6.835938 12.28125 6.867188 12.335938 6.902344 12.398438 C 7.035156 12.625 7.167969 12.851562 7.300781 13.082031 C 7.339844 13.148438 7.375 13.210938 7.414062 13.28125 C 7.605469 13.632812 7.589844 13.980469 7.5625 14.375 C 7.457031 14.714844 7.230469 14.929688 6.9375 15.125 C 6.753906 15.179688 6.753906 15.179688 6.625 15.1875 C 6.644531 15.136719 6.667969 15.085938 6.6875 15.03125 C 6.851562 14.457031 6.683594 14.035156 6.414062 13.523438 C 6.3125 13.347656 6.210938 13.171875 6.105469 13 C 6.027344 12.867188 5.949219 12.734375 5.871094 12.605469 C 5.8125 12.503906 5.8125 12.503906 5.75 12.398438 C 5.582031 12.113281 5.417969 11.828125 5.253906 11.542969 C 5.066406 11.214844 4.878906 10.890625 4.6875 10.5625 C 4.660156 10.515625 4.632812 10.464844 4.605469 10.417969 C 4.242188 9.761719 4.242188 9.761719 3.625 9.375 C 3.507812 9.359375 3.386719 9.351562 3.269531 9.339844 C 3.207031 9.335938 3.144531 9.328125 3.082031 9.324219 C 3.035156 9.320312 2.988281 9.316406 2.9375 9.3125 C 2.992188 9.242188 3.050781 9.171875 3.105469 9.101562 C 3.136719 9.0625 3.167969 9.023438 3.199219 8.984375 C 3.558594 8.636719 4.207031 8.652344 4.644531 8.835938 Z M 4.644531 8.835938 "/>
<path style=" stroke:none;fill-rule:nonzero;fill:rgb(0%,80.784315%,54.509807%);fill-opacity:1;" d="M 13.699219 1.230469 C 14.40625 1.683594 14.898438 2.347656 15.144531 3.148438 C 15.332031 4.125 15.195312 5.027344 14.65625 5.863281 C 14.371094 6.28125 14.046875 6.535156 13.625 6.8125 C 13.5625 6.78125 13.5625 6.78125 13.5 6.75 C 13.527344 6.71875 13.554688 6.683594 13.585938 6.652344 C 14.222656 5.875 14.457031 5.058594 14.375 4.0625 C 14.199219 3.210938 13.785156 2.441406 13.066406 1.933594 C 12.488281 1.582031 11.984375 1.40625 11.308594 1.417969 C 11.253906 1.417969 11.203125 1.417969 11.148438 1.417969 C 10.671875 1.421875 10.261719 1.53125 9.8125 1.6875 C 10 1.417969 10.199219 1.28125 10.488281 1.144531 C 10.5625 1.109375 10.636719 1.070312 10.710938 1.035156 C 11.691406 0.613281 12.777344 0.722656 13.699219 1.230469 Z M 13.699219 1.230469 "/>
</g>
</svg>
