<?xml version="1.0" encoding="UTF-8"?>
<svg xmlns="http://www.w3.org/2000/svg" xmlns:xlink="http://www.w3.org/1999/xlink" width="16" height="16" viewBox="0 0 16 16" version="1.1">
<g id="surface1">
<path style=" stroke:none;fill-rule:nonzero;fill:rgb(4.313726%,41.176471%,75.686276%);fill-opacity:1;" d="M 7.003906 0.410156 C 7.085938 0.410156 7.164062 0.410156 7.242188 0.410156 C 7.410156 0.410156 7.574219 0.410156 7.742188 0.410156 C 7.953125 0.410156 8.164062 0.410156 8.375 0.40625 C 8.578125 0.40625 8.78125 0.40625 8.984375 0.40625 C 9.0625 0.40625 9.136719 0.40625 9.214844 0.402344 C 9.695312 0.410156 10.0625 0.453125 10.425781 0.792969 C 10.449219 0.828125 10.472656 0.863281 10.496094 0.898438 C 10.53125 0.949219 10.53125 0.949219 10.566406 1 C 10.75 1.398438 10.699219 1.878906 10.699219 2.304688 C 10.699219 2.375 10.699219 2.449219 10.703125 2.523438 C 10.703125 3.003906 10.699219 3.417969 10.425781 3.832031 C 10.074219 4.167969 9.757812 4.207031 9.285156 4.203125 C 9.222656 4.203125 9.160156 4.199219 9.097656 4.199219 C 9.035156 4.199219 8.96875 4.199219 8.90625 4.195312 C 8.75 4.195312 8.59375 4.191406 8.4375 4.1875 C 8.4375 4.578125 8.4375 4.972656 8.4375 5.375 C 8.625 5.375 8.808594 5.375 9 5.375 C 9.292969 5.445312 9.507812 5.601562 9.6875 5.84375 C 9.8125 6.125 9.8125 6.125 9.8125 6.875 C 10.453125 6.875 11.089844 6.875 11.75 6.875 C 11.75 6.648438 11.75 6.421875 11.75 6.1875 C 11.859375 5.851562 12.082031 5.628906 12.375 5.4375 C 12.714844 5.324219 13.089844 5.359375 13.445312 5.355469 C 13.53125 5.355469 13.621094 5.355469 13.710938 5.351562 C 14.214844 5.34375 14.632812 5.335938 15.0625 5.625 C 15.453125 6.015625 15.453125 6.460938 15.457031 6.988281 C 15.457031 7.027344 15.457031 7.070312 15.457031 7.113281 C 15.457031 7.242188 15.457031 7.367188 15.460938 7.496094 C 15.460938 8.433594 15.460938 8.433594 15.140625 8.816406 C 15.105469 8.84375 15.070312 8.871094 15.03125 8.902344 C 14.996094 8.933594 14.957031 8.960938 14.921875 8.992188 C 14.742188 9.109375 14.578125 9.132812 14.375 9.144531 C 14.304688 9.148438 14.304688 9.148438 14.230469 9.152344 C 14.183594 9.15625 14.132812 9.15625 14.082031 9.160156 C 14.03125 9.164062 13.984375 9.164062 13.929688 9.167969 C 13.808594 9.175781 13.6875 9.179688 13.5625 9.1875 C 13.421875 9.492188 13.285156 9.792969 13.144531 10.097656 C 13.097656 10.199219 13.050781 10.304688 13.003906 10.40625 C 12.9375 10.554688 12.867188 10.703125 12.800781 10.855469 C 12.777344 10.898438 12.757812 10.945312 12.734375 10.992188 C 12.613281 11.265625 12.492188 11.539062 12.375 11.8125 C 12.4375 11.8125 12.5 11.816406 12.5625 11.816406 C 12.882812 11.863281 13.105469 12.074219 13.3125 12.3125 C 13.445312 12.574219 13.457031 12.820312 13.457031 13.105469 C 13.457031 13.152344 13.457031 13.199219 13.457031 13.246094 C 13.457031 13.34375 13.457031 13.4375 13.457031 13.535156 C 13.457031 13.683594 13.457031 13.828125 13.460938 13.976562 C 13.460938 14.070312 13.460938 14.164062 13.460938 14.261719 C 13.460938 14.304688 13.460938 14.347656 13.460938 14.390625 C 13.457031 14.734375 13.375 14.988281 13.140625 15.242188 C 13.105469 15.273438 13.070312 15.300781 13.03125 15.332031 C 12.996094 15.363281 12.957031 15.394531 12.921875 15.425781 C 12.597656 15.648438 12.160156 15.578125 11.785156 15.582031 C 11.691406 15.582031 11.597656 15.582031 11.507812 15.585938 C 10.554688 15.605469 10.554688 15.605469 10.125 15.3125 C 9.917969 15.105469 9.816406 14.910156 9.75 14.625 C 9.75 14.460938 9.75 14.292969 9.75 14.125 C 8.59375 14.125 7.441406 14.125 6.25 14.125 C 6.25 14.289062 6.25 14.453125 6.25 14.625 C 6.199219 14.902344 6.097656 15.117188 5.882812 15.304688 C 5.445312 15.605469 5.03125 15.582031 4.515625 15.582031 C 4.378906 15.582031 4.242188 15.582031 4.105469 15.585938 C 4.015625 15.585938 3.925781 15.585938 3.839844 15.585938 C 3.757812 15.585938 3.679688 15.585938 3.597656 15.585938 C 3.253906 15.550781 3.007812 15.421875 2.792969 15.15625 C 2.761719 15.121094 2.730469 15.082031 2.699219 15.042969 C 2.535156 14.808594 2.550781 14.558594 2.550781 14.28125 C 2.550781 14.234375 2.550781 14.1875 2.546875 14.140625 C 2.546875 14.042969 2.546875 13.945312 2.546875 13.847656 C 2.546875 13.699219 2.546875 13.550781 2.542969 13.402344 C 2.542969 13.308594 2.542969 13.214844 2.542969 13.121094 C 2.542969 13.074219 2.539062 13.03125 2.539062 12.988281 C 2.542969 12.644531 2.625 12.398438 2.847656 12.136719 C 2.878906 12.105469 2.914062 12.078125 2.949219 12.046875 C 2.984375 12.015625 3.015625 11.988281 3.050781 11.957031 C 3.25 11.835938 3.460938 11.804688 3.6875 11.75 C 3.65625 11.675781 3.625 11.601562 3.59375 11.523438 C 3.484375 11.246094 3.371094 10.964844 3.261719 10.6875 C 3.210938 10.570312 3.164062 10.449219 3.113281 10.328125 C 3.046875 10.15625 2.976562 9.980469 2.90625 9.808594 C 2.882812 9.753906 2.863281 9.699219 2.839844 9.644531 C 2.820312 9.59375 2.800781 9.546875 2.78125 9.492188 C 2.761719 9.449219 2.742188 9.40625 2.726562 9.359375 C 2.6875 9.25 2.6875 9.25 2.6875 9.125 C 2.648438 9.125 2.613281 9.128906 2.574219 9.128906 C 2.402344 9.132812 2.230469 9.136719 2.058594 9.140625 C 2 9.144531 1.941406 9.144531 1.878906 9.148438 C 1.484375 9.152344 1.257812 9.105469 0.9375 8.875 C 0.519531 8.445312 0.539062 7.953125 0.542969 7.386719 C 0.542969 7.257812 0.542969 7.132812 0.539062 7.003906 C 0.539062 6.046875 0.539062 6.046875 0.835938 5.71875 C 1.265625 5.332031 1.71875 5.355469 2.265625 5.355469 C 2.398438 5.355469 2.53125 5.355469 2.664062 5.351562 C 2.75 5.351562 2.832031 5.351562 2.917969 5.351562 C 2.996094 5.351562 3.074219 5.351562 3.152344 5.351562 C 3.453125 5.382812 3.703125 5.464844 3.933594 5.667969 C 3.964844 5.707031 3.992188 5.742188 4.023438 5.78125 C 4.054688 5.816406 4.082031 5.855469 4.113281 5.890625 C 4.332031 6.214844 4.25 6.445312 4.25 6.875 C 4.890625 6.875 5.527344 6.875 6.1875 6.875 C 6.1875 6.628906 6.1875 6.378906 6.1875 6.125 C 6.347656 5.765625 6.5 5.585938 6.847656 5.414062 C 7 5.375 7 5.375 7.5625 5.375 C 7.5625 4.984375 7.5625 4.589844 7.5625 4.1875 C 7.421875 4.191406 7.421875 4.191406 7.28125 4.195312 C 7.15625 4.199219 7.03125 4.199219 6.90625 4.203125 C 6.8125 4.207031 6.8125 4.207031 6.71875 4.210938 C 6.238281 4.214844 5.894531 4.132812 5.539062 3.796875 C 5.265625 3.335938 5.292969 2.832031 5.296875 2.3125 C 5.296875 2.207031 5.296875 2.207031 5.296875 2.097656 C 5.296875 1.617188 5.304688 1.203125 5.574219 0.792969 C 6 0.386719 6.441406 0.410156 7.003906 0.410156 Z M 4.25 7.75 C 4.207031 7.996094 4.167969 8.246094 4.125 8.5 C 3.847656 8.890625 3.847656 8.890625 3.625 9 C 3.78125 9.605469 4.027344 10.179688 4.261719 10.757812 C 4.304688 10.859375 4.34375 10.964844 4.386719 11.066406 C 4.484375 11.316406 4.585938 11.5625 4.6875 11.8125 C 4.734375 11.816406 4.78125 11.820312 4.828125 11.824219 C 4.890625 11.828125 4.949219 11.832031 5.015625 11.835938 C 5.074219 11.839844 5.136719 11.847656 5.199219 11.851562 C 5.542969 11.898438 5.785156 12.027344 6.023438 12.28125 C 6.125 12.5 6.125 12.5 6.25 13.25 C 7.40625 13.25 8.558594 13.25 9.75 13.25 C 9.792969 13.003906 9.832031 12.753906 9.875 12.5 C 10.011719 12.207031 10.175781 12.054688 10.46875 11.925781 C 10.652344 11.867188 10.824219 11.851562 11.015625 11.835938 C 11.085938 11.832031 11.152344 11.828125 11.21875 11.824219 C 11.296875 11.816406 11.296875 11.816406 11.375 11.8125 C 11.484375 11.578125 11.59375 11.347656 11.703125 11.113281 C 11.738281 11.035156 11.773438 10.953125 11.8125 10.875 C 12.015625 10.445312 12.210938 10.011719 12.402344 9.574219 C 12.433594 9.503906 12.464844 9.433594 12.496094 9.359375 C 12.570312 9.199219 12.570312 9.199219 12.5625 9.0625 C 12.507812 9.039062 12.453125 9.015625 12.394531 8.992188 C 12.144531 8.851562 12.03125 8.746094 11.875 8.5 C 11.8125 8.128906 11.8125 8.128906 11.75 7.75 C 11.109375 7.75 10.472656 7.75 9.8125 7.75 C 9.769531 8.019531 9.730469 8.285156 9.6875 8.5625 C 9.40625 8.917969 9.222656 9.039062 8.773438 9.089844 C 8.308594 9.089844 8.308594 9.089844 8.140625 9.089844 C 8.003906 9.089844 7.867188 9.089844 7.734375 9.09375 C 7.261719 9.097656 6.894531 9.085938 6.5 8.8125 C 6.214844 8.445312 6.238281 8.253906 6.1875 7.75 C 5.546875 7.75 4.910156 7.75 4.25 7.75 Z M 4.25 7.75 "/>
<path style=" stroke:none;fill-rule:nonzero;fill:rgb(82.745099%,12.54902%,19.607843%);fill-opacity:1;" d="M 13.445312 5.355469 C 13.53125 5.355469 13.621094 5.355469 13.710938 5.351562 C 14.214844 5.34375 14.632812 5.335938 15.0625 5.625 C 15.453125 6.019531 15.453125 6.460938 15.457031 6.988281 C 15.457031 7.03125 15.457031 7.070312 15.457031 7.113281 C 15.457031 7.242188 15.457031 7.367188 15.460938 7.496094 C 15.460938 8.433594 15.460938 8.433594 15.140625 8.816406 C 15.105469 8.84375 15.070312 8.871094 15.03125 8.902344 C 14.996094 8.933594 14.957031 8.960938 14.917969 8.992188 C 14.742188 9.109375 14.582031 9.132812 14.375 9.144531 C 14.328125 9.148438 14.28125 9.148438 14.230469 9.152344 C 14.183594 9.15625 14.132812 9.15625 14.082031 9.160156 C 14.007812 9.164062 14.007812 9.164062 13.929688 9.167969 C 13.808594 9.175781 13.683594 9.179688 13.5625 9.1875 C 13.421875 9.492188 13.285156 9.792969 13.144531 10.097656 C 13.097656 10.199219 13.050781 10.304688 13.003906 10.40625 C 12.933594 10.554688 12.867188 10.703125 12.800781 10.855469 C 12.777344 10.898438 12.757812 10.945312 12.734375 10.992188 C 12.613281 11.265625 12.492188 11.539062 12.375 11.8125 C 12.4375 11.8125 12.5 11.816406 12.5625 11.816406 C 12.882812 11.863281 13.105469 12.070312 13.3125 12.3125 C 13.445312 12.574219 13.457031 12.820312 13.457031 13.105469 C 13.457031 13.175781 13.457031 13.175781 13.457031 13.246094 C 13.457031 13.34375 13.457031 13.4375 13.457031 13.535156 C 13.457031 13.683594 13.457031 13.828125 13.460938 13.976562 C 13.460938 14.070312 13.460938 14.164062 13.460938 14.257812 C 13.460938 14.304688 13.460938 14.347656 13.460938 14.390625 C 13.457031 14.734375 13.375 14.988281 13.140625 15.242188 C 13.105469 15.273438 13.070312 15.300781 13.03125 15.332031 C 12.996094 15.363281 12.957031 15.394531 12.917969 15.425781 C 12.597656 15.648438 12.160156 15.578125 11.785156 15.582031 C 11.691406 15.582031 11.597656 15.582031 11.507812 15.585938 C 10.554688 15.605469 10.554688 15.605469 10.125 15.3125 C 9.730469 14.921875 9.734375 14.476562 9.730469 13.949219 C 9.730469 13.90625 9.730469 13.867188 9.730469 13.824219 C 9.730469 13.695312 9.730469 13.570312 9.726562 13.441406 C 9.726562 12.484375 9.726562 12.484375 10.023438 12.15625 C 10.332031 11.878906 10.609375 11.796875 11.019531 11.804688 C 11.085938 11.804688 11.152344 11.808594 11.222656 11.808594 C 11.273438 11.808594 11.324219 11.8125 11.375 11.8125 C 11.390625 11.761719 11.40625 11.710938 11.421875 11.660156 C 11.515625 11.394531 11.628906 11.136719 11.746094 10.882812 C 11.769531 10.828125 11.792969 10.777344 11.816406 10.722656 C 11.890625 10.558594 11.964844 10.390625 12.039062 10.226562 C 12.089844 10.113281 12.140625 10 12.191406 9.886719 C 12.316406 9.613281 12.4375 9.335938 12.5625 9.0625 C 12.488281 9.050781 12.488281 9.050781 12.414062 9.039062 C 12.210938 8.992188 12.148438 8.917969 12.015625 8.757812 C 11.980469 8.714844 11.941406 8.671875 11.902344 8.625 C 11.726562 8.378906 11.738281 8.132812 11.738281 7.84375 C 11.738281 7.796875 11.738281 7.75 11.734375 7.703125 C 11.734375 7.605469 11.734375 7.507812 11.734375 7.410156 C 11.734375 7.261719 11.730469 7.113281 11.730469 6.964844 C 11.730469 6.871094 11.730469 6.777344 11.730469 6.683594 C 11.730469 6.636719 11.726562 6.59375 11.726562 6.550781 C 11.730469 6.203125 11.8125 5.953125 12.042969 5.695312 C 12.078125 5.664062 12.113281 5.636719 12.152344 5.605469 C 12.207031 5.558594 12.207031 5.558594 12.261719 5.511719 C 12.597656 5.289062 13.054688 5.359375 13.445312 5.355469 Z M 13.445312 5.355469 "/>
<path style=" stroke:none;fill-rule:nonzero;fill:rgb(83.137256%,12.54902%,19.607843%);fill-opacity:1;" d="M 7.003906 0.410156 C 7.125 0.410156 7.125 0.410156 7.242188 0.410156 C 7.410156 0.410156 7.574219 0.410156 7.742188 0.410156 C 7.953125 0.410156 8.164062 0.410156 8.375 0.40625 C 8.578125 0.40625 8.78125 0.40625 8.984375 0.40625 C 9.0625 0.40625 9.136719 0.40625 9.214844 0.402344 C 9.695312 0.410156 10.0625 0.453125 10.425781 0.792969 C 10.460938 0.847656 10.460938 0.847656 10.496094 0.898438 C 10.519531 0.933594 10.542969 0.964844 10.566406 1 C 10.75 1.398438 10.699219 1.878906 10.699219 2.304688 C 10.699219 2.375 10.699219 2.449219 10.703125 2.523438 C 10.703125 3.003906 10.699219 3.417969 10.425781 3.832031 C 10.074219 4.167969 9.757812 4.207031 9.285156 4.203125 C 9.222656 4.203125 9.160156 4.199219 9.097656 4.199219 C 9.035156 4.199219 8.96875 4.199219 8.90625 4.195312 C 8.75 4.195312 8.59375 4.191406 8.4375 4.1875 C 8.4375 4.578125 8.4375 4.972656 8.4375 5.375 C 8.148438 5.375 7.859375 5.375 7.5625 5.375 C 7.5625 4.984375 7.5625 4.589844 7.5625 4.1875 C 7.421875 4.191406 7.421875 4.191406 7.28125 4.195312 C 7.15625 4.199219 7.03125 4.199219 6.90625 4.203125 C 6.8125 4.207031 6.8125 4.207031 6.71875 4.210938 C 6.238281 4.214844 5.894531 4.132812 5.539062 3.796875 C 5.265625 3.335938 5.292969 2.832031 5.296875 2.3125 C 5.296875 2.242188 5.296875 2.171875 5.296875 2.097656 C 5.296875 1.617188 5.304688 1.203125 5.574219 0.792969 C 6 0.386719 6.441406 0.410156 7.003906 0.410156 Z M 7.003906 0.410156 "/>
<path style=" stroke:none;fill-rule:nonzero;fill:rgb(4.705882%,41.960785%,76.47059%);fill-opacity:1;" d="M 7.863281 5.34375 C 8 5.34375 8.132812 5.34375 8.269531 5.339844 C 8.800781 5.339844 9.210938 5.359375 9.617188 5.730469 C 9.882812 6.152344 9.8125 6.300781 9.8125 6.875 C 10.472656 6.875 11.132812 6.875 11.8125 6.875 C 11.8125 7.164062 11.8125 7.453125 11.8125 7.75 C 11.152344 7.75 10.492188 7.75 9.8125 7.75 C 9.8125 7.957031 9.8125 8.164062 9.8125 8.375 C 9.667969 8.714844 9.507812 8.882812 9.1875 9.0625 C 8.859375 9.171875 8.503906 9.140625 8.160156 9.144531 C 8.066406 9.144531 7.972656 9.144531 7.882812 9.148438 C 6.925781 9.167969 6.925781 9.167969 6.5 8.875 C 6.140625 8.496094 6.1875 8.3125 6.1875 7.75 C 5.546875 7.75 4.910156 7.75 4.25 7.75 C 4.25 7.460938 4.25 7.171875 4.25 6.875 C 4.890625 6.875 5.527344 6.875 6.1875 6.875 C 6.1875 6.628906 6.1875 6.378906 6.1875 6.125 C 6.34375 5.769531 6.472656 5.59375 6.832031 5.425781 C 7.167969 5.324219 7.519531 5.339844 7.863281 5.34375 Z M 7.863281 5.34375 "/>
<path style=" stroke:none;fill-rule:nonzero;fill:rgb(96.862745%,60.000002%,26.666668%);fill-opacity:1;" d="M 2.265625 5.355469 C 2.398438 5.355469 2.53125 5.355469 2.664062 5.351562 C 2.75 5.351562 2.835938 5.351562 2.917969 5.351562 C 2.996094 5.351562 3.074219 5.351562 3.152344 5.351562 C 3.453125 5.382812 3.703125 5.464844 3.933594 5.667969 C 3.964844 5.707031 3.992188 5.742188 4.023438 5.78125 C 4.054688 5.816406 4.082031 5.855469 4.113281 5.894531 C 4.277344 6.132812 4.261719 6.378906 4.261719 6.65625 C 4.261719 6.703125 4.261719 6.75 4.261719 6.796875 C 4.265625 6.894531 4.265625 6.992188 4.265625 7.089844 C 4.265625 7.238281 4.265625 7.386719 4.269531 7.535156 C 4.269531 7.628906 4.269531 7.722656 4.269531 7.816406 C 4.269531 7.863281 4.273438 7.90625 4.273438 7.949219 C 4.269531 8.296875 4.1875 8.546875 3.957031 8.804688 C 3.921875 8.835938 3.886719 8.863281 3.847656 8.894531 C 3.792969 8.941406 3.792969 8.941406 3.738281 8.988281 C 3.394531 9.214844 2.921875 9.140625 2.527344 9.144531 C 2.433594 9.144531 2.339844 9.144531 2.25 9.148438 C 2.113281 9.148438 1.980469 9.152344 1.847656 9.152344 C 1.726562 9.152344 1.726562 9.152344 1.605469 9.15625 C 1.261719 9.109375 1.035156 8.976562 0.792969 8.726562 C 0.519531 8.304688 0.542969 7.875 0.542969 7.386719 C 0.542969 7.257812 0.542969 7.132812 0.539062 7.003906 C 0.539062 6.046875 0.539062 6.046875 0.835938 5.71875 C 1.265625 5.332031 1.71875 5.351562 2.265625 5.355469 Z M 2.265625 5.355469 "/>
<path style=" stroke:none;fill-rule:nonzero;fill:rgb(96.862745%,60.000002%,26.666668%);fill-opacity:1;" d="M 13.445312 5.355469 C 13.53125 5.355469 13.621094 5.355469 13.710938 5.351562 C 14.214844 5.34375 14.632812 5.335938 15.0625 5.625 C 15.453125 6.019531 15.453125 6.460938 15.457031 6.988281 C 15.457031 7.050781 15.457031 7.050781 15.457031 7.113281 C 15.457031 7.242188 15.457031 7.367188 15.460938 7.496094 C 15.460938 8.433594 15.460938 8.433594 15.140625 8.816406 C 15.105469 8.84375 15.070312 8.871094 15.03125 8.902344 C 14.996094 8.933594 14.957031 8.960938 14.917969 8.992188 C 14.683594 9.148438 14.441406 9.136719 14.167969 9.136719 C 14.125 9.136719 14.078125 9.136719 14.035156 9.140625 C 13.9375 9.140625 13.84375 9.140625 13.75 9.140625 C 13.605469 9.140625 13.464844 9.144531 13.320312 9.144531 C 13.226562 9.144531 13.136719 9.144531 13.042969 9.144531 C 13 9.148438 12.957031 9.148438 12.914062 9.148438 C 12.574219 9.148438 12.324219 9.0625 12.070312 8.832031 C 12.042969 8.792969 12.011719 8.757812 11.980469 8.71875 C 11.949219 8.683594 11.917969 8.644531 11.886719 8.605469 C 11.722656 8.371094 11.738281 8.121094 11.738281 7.84375 C 11.738281 7.796875 11.738281 7.75 11.734375 7.703125 C 11.734375 7.605469 11.734375 7.507812 11.734375 7.410156 C 11.734375 7.261719 11.730469 7.113281 11.730469 6.964844 C 11.730469 6.871094 11.730469 6.777344 11.730469 6.683594 C 11.730469 6.636719 11.726562 6.59375 11.726562 6.550781 C 11.730469 6.203125 11.8125 5.953125 12.042969 5.695312 C 12.078125 5.664062 12.113281 5.636719 12.152344 5.605469 C 12.1875 5.574219 12.222656 5.542969 12.261719 5.511719 C 12.597656 5.289062 13.054688 5.359375 13.445312 5.355469 Z M 13.445312 5.355469 "/>
<path style=" stroke:none;fill-rule:nonzero;fill:rgb(90.980393%,15.686275%,22.745098%);fill-opacity:1;" d="M 7.121094 0.425781 C 7.207031 0.425781 7.292969 0.425781 7.378906 0.429688 C 7.585938 0.429688 7.792969 0.433594 8 0.4375 C 8 0.871094 8 1.304688 8 1.75 C 7.515625 1.773438 7.515625 1.773438 7.363281 1.78125 C 7.132812 1.792969 6.945312 1.804688 6.75 1.9375 C 6.628906 2.097656 6.625 2.175781 6.640625 2.378906 C 6.679688 2.574219 6.679688 2.574219 6.8125 2.75 C 6.976562 2.804688 7.082031 2.824219 7.25 2.832031 C 7.292969 2.835938 7.335938 2.835938 7.378906 2.839844 C 7.433594 2.84375 7.488281 2.84375 7.542969 2.847656 C 7.714844 2.855469 7.886719 2.867188 8.0625 2.875 C 8.0625 3.289062 8.0625 3.699219 8.0625 4.125 C 7.660156 4.175781 7.28125 4.203125 6.875 4.207031 C 6.816406 4.207031 6.757812 4.210938 6.695312 4.210938 C 6.226562 4.21875 5.886719 4.125 5.539062 3.796875 C 5.265625 3.335938 5.292969 2.832031 5.296875 2.3125 C 5.296875 2.242188 5.296875 2.171875 5.296875 2.097656 C 5.296875 1.617188 5.304688 1.203125 5.574219 0.792969 C 6.03125 0.359375 6.523438 0.414062 7.121094 0.425781 Z M 7.121094 0.425781 "/>
<path style=" stroke:none;fill-rule:nonzero;fill:rgb(5.882353%,54.11765%,87.843138%);fill-opacity:1;" d="M 8 5.4375 C 8 5.851562 8 6.261719 8 6.6875 C 7.8125 6.707031 7.628906 6.730469 7.4375 6.75 C 7.242188 6.839844 7.242188 6.839844 7.125 7 C 7.074219 7.269531 7.09375 7.390625 7.246094 7.617188 C 7.476562 7.800781 7.476562 7.800781 8 7.8125 C 8 8.246094 8 8.679688 8 9.125 C 6.902344 9.160156 6.902344 9.160156 6.5 8.875 C 6.140625 8.496094 6.1875 8.3125 6.1875 7.75 C 5.546875 7.75 4.910156 7.75 4.25 7.75 C 4.25 7.460938 4.25 7.171875 4.25 6.875 C 4.890625 6.875 5.527344 6.875 6.1875 6.875 C 6.1875 6.628906 6.1875 6.378906 6.1875 6.125 C 6.347656 5.765625 6.503906 5.566406 6.863281 5.414062 C 7.246094 5.304688 7.613281 5.382812 8 5.4375 Z M 8 5.4375 "/>
<path style=" stroke:none;fill-rule:nonzero;fill:rgb(98.039216%,72.941178%,32.549021%);fill-opacity:1;" d="M 13.5625 5.375 C 13.5625 6.59375 13.5625 7.808594 13.5625 9.0625 C 12.375 9.0625 12.375 9.0625 12.058594 8.863281 C 11.773438 8.558594 11.730469 8.234375 11.730469 7.832031 C 11.730469 7.785156 11.730469 7.738281 11.730469 7.691406 C 11.730469 7.59375 11.730469 7.5 11.730469 7.402344 C 11.730469 7.253906 11.730469 7.109375 11.726562 6.960938 C 11.726562 6.867188 11.726562 6.773438 11.726562 6.679688 C 11.726562 6.632812 11.726562 6.589844 11.726562 6.546875 C 11.730469 6.203125 11.8125 5.953125 12.042969 5.695312 C 12.078125 5.667969 12.113281 5.636719 12.152344 5.605469 C 12.1875 5.574219 12.222656 5.542969 12.261719 5.511719 C 12.640625 5.261719 13.140625 5.375 13.5625 5.375 Z M 13.5625 5.375 "/>
<path style=" stroke:none;fill-rule:nonzero;fill:rgb(98.039216%,72.941178%,32.156864%);fill-opacity:1;" d="M 1.890625 5.363281 C 1.957031 5.363281 1.957031 5.363281 2.019531 5.363281 C 2.15625 5.363281 2.289062 5.367188 2.425781 5.367188 C 2.515625 5.367188 2.609375 5.367188 2.703125 5.367188 C 2.925781 5.371094 3.152344 5.371094 3.375 5.375 C 3.375 5.394531 3.375 5.417969 3.375 5.4375 C 3.066406 5.4375 2.757812 5.4375 2.4375 5.4375 C 2.4375 5.851562 2.4375 6.261719 2.4375 6.6875 C 2.25 6.707031 2.066406 6.730469 1.875 6.75 C 1.625 6.84375 1.625 6.84375 1.5625 7 C 1.53125 7.34375 1.53125 7.34375 1.648438 7.652344 C 1.902344 7.804688 2.144531 7.796875 2.4375 7.8125 C 2.4375 8.226562 2.4375 8.636719 2.4375 9.0625 C 2.519531 9.082031 2.601562 9.105469 2.6875 9.125 C 2.476562 9.132812 2.269531 9.136719 2.058594 9.140625 C 2 9.144531 1.941406 9.144531 1.878906 9.148438 C 1.484375 9.152344 1.257812 9.105469 0.9375 8.875 C 0.519531 8.445312 0.542969 7.953125 0.542969 7.386719 C 0.542969 7.257812 0.542969 7.132812 0.539062 7.003906 C 0.539062 6.046875 0.539062 6.046875 0.835938 5.71875 C 1.167969 5.421875 1.457031 5.359375 1.890625 5.363281 Z M 1.890625 5.363281 "/>
<path style=" stroke:none;fill-rule:nonzero;fill:rgb(90.980393%,15.686275%,22.352941%);fill-opacity:1;" d="M 11.003906 11.800781 C 11.097656 11.800781 11.097656 11.800781 11.199219 11.800781 C 11.375 11.8125 11.375 11.8125 11.625 11.875 C 11.625 12.289062 11.625 12.699219 11.625 13.125 C 11.441406 13.144531 11.253906 13.167969 11.0625 13.1875 C 10.8125 13.28125 10.8125 13.28125 10.75 13.4375 C 10.707031 13.792969 10.707031 13.792969 10.871094 14.089844 C 11.054688 14.183594 11.15625 14.207031 11.355469 14.226562 C 11.40625 14.230469 11.457031 14.234375 11.507812 14.238281 C 11.546875 14.242188 11.585938 14.246094 11.625 14.25 C 11.628906 14.457031 11.628906 14.664062 11.628906 14.871094 C 11.628906 14.929688 11.628906 14.988281 11.628906 15.050781 C 11.628906 15.132812 11.628906 15.132812 11.632812 15.21875 C 11.632812 15.296875 11.632812 15.296875 11.632812 15.378906 C 11.625 15.5 11.625 15.5 11.5625 15.5625 C 10.539062 15.640625 10.539062 15.640625 10.125 15.3125 C 9.734375 14.921875 9.734375 14.476562 9.730469 13.949219 C 9.730469 13.910156 9.730469 13.867188 9.730469 13.824219 C 9.730469 13.695312 9.730469 13.570312 9.726562 13.441406 C 9.726562 12.484375 9.726562 12.484375 10.019531 12.15625 C 10.324219 11.882812 10.601562 11.796875 11.003906 11.800781 Z M 11.003906 11.800781 "/>
<path style=" stroke:none;fill-rule:nonzero;fill:rgb(6.27451%,54.509807%,88.235295%);fill-opacity:1;" d="M 3.886719 11.839844 C 4.128906 11.855469 4.128906 11.855469 4.375 11.875 C 4.375 12.289062 4.375 12.699219 4.375 13.125 C 4.1875 13.144531 4.003906 13.167969 3.8125 13.1875 C 3.597656 13.34375 3.515625 13.425781 3.460938 13.6875 C 3.515625 13.949219 3.597656 14.03125 3.8125 14.1875 C 3.996094 14.207031 4.183594 14.230469 4.375 14.25 C 4.375 14.683594 4.375 15.117188 4.375 15.5625 C 4.21875 15.566406 4.058594 15.570312 3.898438 15.574219 C 3.824219 15.578125 3.824219 15.578125 3.75 15.578125 C 3.398438 15.582031 3.148438 15.511719 2.882812 15.265625 C 2.855469 15.230469 2.824219 15.195312 2.792969 15.15625 C 2.761719 15.121094 2.730469 15.082031 2.699219 15.042969 C 2.535156 14.808594 2.550781 14.558594 2.550781 14.28125 C 2.550781 14.234375 2.550781 14.1875 2.546875 14.140625 C 2.546875 14.042969 2.546875 13.945312 2.546875 13.847656 C 2.546875 13.699219 2.542969 13.550781 2.542969 13.402344 C 2.542969 13.308594 2.542969 13.214844 2.542969 13.121094 C 2.542969 13.074219 2.539062 13.03125 2.539062 12.988281 C 2.542969 12.640625 2.621094 12.386719 2.855469 12.132812 C 2.894531 12.105469 2.929688 12.074219 2.96875 12.042969 C 3.003906 12.011719 3.042969 11.980469 3.078125 11.949219 C 3.335938 11.769531 3.59375 11.816406 3.886719 11.839844 Z M 3.886719 11.839844 "/>
<path style=" stroke:none;fill-rule:nonzero;fill:rgb(26.666668%,26.666668%,26.666668%);fill-opacity:1;" d="M 6.1875 13.25 C 7.382812 13.25 8.578125 13.25 9.8125 13.25 C 9.8125 13.539062 9.8125 13.828125 9.8125 14.125 C 8.617188 14.125 7.421875 14.125 6.1875 14.125 C 6.1875 13.835938 6.1875 13.546875 6.1875 13.25 Z M 6.1875 13.25 "/>
<path style=" stroke:none;fill-rule:nonzero;fill:rgb(26.666668%,26.666668%,26.666668%);fill-opacity:1;" d="M 12.789062 9.117188 C 12.878906 9.121094 12.972656 9.121094 13.066406 9.121094 C 13.113281 9.121094 13.160156 9.121094 13.210938 9.121094 C 13.328125 9.121094 13.445312 9.125 13.5625 9.125 C 13.175781 10.023438 12.777344 10.921875 12.375 11.8125 C 12.042969 11.8125 11.714844 11.8125 11.375 11.8125 C 11.515625 11.390625 11.515625 11.390625 11.605469 11.191406 C 11.625 11.144531 11.644531 11.097656 11.664062 11.054688 C 11.6875 11.007812 11.707031 10.960938 11.730469 10.910156 C 11.75 10.863281 11.773438 10.8125 11.792969 10.761719 C 11.839844 10.660156 11.886719 10.554688 11.933594 10.453125 C 12.003906 10.292969 12.074219 10.132812 12.144531 9.972656 C 12.191406 9.875 12.234375 9.773438 12.28125 9.671875 C 12.300781 9.625 12.320312 9.578125 12.34375 9.527344 C 12.523438 9.125 12.523438 9.125 12.789062 9.117188 Z M 12.789062 9.117188 "/>
<path style=" stroke:none;fill-rule:nonzero;fill:rgb(27.058825%,27.058825%,27.058825%);fill-opacity:1;" d="M 3.6875 9.125 C 3.796875 9.296875 3.863281 9.480469 3.9375 9.671875 C 3.957031 9.726562 3.980469 9.78125 4.003906 9.839844 C 4.046875 9.953125 4.09375 10.070312 4.136719 10.1875 C 4.207031 10.367188 4.277344 10.546875 4.347656 10.722656 C 4.390625 10.835938 4.4375 10.949219 4.480469 11.0625 C 4.5 11.117188 4.519531 11.167969 4.542969 11.222656 C 4.5625 11.273438 4.582031 11.324219 4.601562 11.375 C 4.617188 11.417969 4.632812 11.464844 4.652344 11.507812 C 4.6875 11.625 4.6875 11.625 4.6875 11.8125 C 4.378906 11.8125 4.070312 11.8125 3.75 11.8125 C 3.515625 11.308594 3.300781 10.796875 3.09375 10.277344 C 3.042969 10.152344 2.992188 10.023438 2.9375 9.894531 C 2.90625 9.8125 2.875 9.730469 2.839844 9.648438 C 2.8125 9.574219 2.78125 9.5 2.75 9.425781 C 2.6875 9.25 2.6875 9.25 2.6875 9.125 C 2.796875 9.113281 2.902344 9.101562 3.011719 9.089844 C 3.070312 9.082031 3.132812 9.078125 3.195312 9.070312 C 3.519531 9.054688 3.519531 9.054688 3.6875 9.125 Z M 3.6875 9.125 "/>
<path style=" stroke:none;fill-rule:nonzero;fill:rgb(97.254902%,59.607846%,26.274511%);fill-opacity:1;" d="M 2.425781 6.667969 C 2.5 6.664062 2.5 6.664062 2.578125 6.664062 C 2.835938 6.660156 2.964844 6.667969 3.1875 6.804688 C 3.335938 6.964844 3.371094 7.023438 3.394531 7.238281 C 3.371094 7.484375 3.296875 7.578125 3.125 7.75 C 2.875 7.832031 2.644531 7.832031 2.382812 7.835938 C 2.308594 7.839844 2.308594 7.839844 2.230469 7.84375 C 1.960938 7.847656 1.847656 7.839844 1.621094 7.671875 C 1.4375 7.414062 1.457031 7.308594 1.5 7 C 1.761719 6.660156 2.023438 6.671875 2.425781 6.667969 Z M 2.425781 6.667969 "/>
<path style=" stroke:none;fill-rule:nonzero;fill:rgb(82.745099%,12.156863%,19.607843%);fill-opacity:1;" d="M 11.582031 13.109375 C 11.628906 13.109375 11.675781 13.105469 11.726562 13.105469 C 12.015625 13.105469 12.199219 13.128906 12.4375 13.3125 C 12.566406 13.476562 12.5625 13.566406 12.558594 13.78125 C 12.488281 14.050781 12.425781 14.105469 12.1875 14.25 C 12 14.285156 11.820312 14.289062 11.628906 14.285156 C 11.578125 14.285156 11.53125 14.289062 11.480469 14.289062 C 11.222656 14.289062 11.050781 14.265625 10.84375 14.109375 C 10.6875 13.9375 10.6875 13.9375 10.640625 13.804688 C 10.652344 13.589844 10.671875 13.460938 10.804688 13.285156 C 11.058594 13.097656 11.277344 13.109375 11.582031 13.109375 Z M 11.582031 13.109375 "/>
<path style=" stroke:none;fill-rule:nonzero;fill:rgb(26.666668%,26.666668%,26.666668%);fill-opacity:1;" d="M 9.8125 6.875 C 10.472656 6.875 11.132812 6.875 11.8125 6.875 C 11.8125 7.164062 11.8125 7.453125 11.8125 7.75 C 11.152344 7.75 10.492188 7.75 9.8125 7.75 C 9.8125 7.460938 9.8125 7.171875 9.8125 6.875 Z M 9.8125 6.875 "/>
<path style=" stroke:none;fill-rule:nonzero;fill:rgb(26.666668%,26.666668%,26.666668%);fill-opacity:1;" d="M 4.25 6.875 C 4.890625 6.875 5.527344 6.875 6.1875 6.875 C 6.1875 7.164062 6.1875 7.453125 6.1875 7.75 C 5.546875 7.75 4.910156 7.75 4.25 7.75 C 4.25 7.460938 4.25 7.171875 4.25 6.875 Z M 4.25 6.875 "/>
<path style=" stroke:none;fill-rule:nonzero;fill:rgb(82.745099%,12.156863%,19.607843%);fill-opacity:1;" d="M 7.539062 1.746094 C 7.710938 1.746094 7.882812 1.75 8.0625 1.75 C 8.0625 2.121094 8.0625 2.492188 8.0625 2.875 C 7.894531 2.878906 7.726562 2.882812 7.550781 2.886719 C 7.5 2.886719 7.445312 2.890625 7.390625 2.890625 C 7.105469 2.894531 6.917969 2.875 6.6875 2.6875 C 6.589844 2.515625 6.5625 2.414062 6.570312 2.214844 C 6.742188 1.734375 7.097656 1.742188 7.539062 1.746094 Z M 7.539062 1.746094 "/>
<path style=" stroke:none;fill-rule:nonzero;fill:rgb(72.941178%,6.27451%,21.176471%);fill-opacity:1;" d="M 8.0625 1.75 C 8.222656 1.742188 8.378906 1.738281 8.542969 1.730469 C 8.59375 1.726562 8.640625 1.726562 8.691406 1.722656 C 8.953125 1.71875 9.039062 1.730469 9.246094 1.902344 C 9.289062 1.957031 9.332031 2.007812 9.375 2.0625 C 9.394531 2.082031 9.417969 2.105469 9.4375 2.125 C 9.417969 2.40625 9.390625 2.609375 9.1875 2.8125 C 8.960938 2.886719 8.753906 2.882812 8.519531 2.878906 C 8.292969 2.875 8.292969 2.875 8.0625 2.875 C 8.0625 2.503906 8.0625 2.132812 8.0625 1.75 Z M 8.0625 1.75 "/>
<path style=" stroke:none;fill-rule:nonzero;fill:rgb(26.666668%,26.666668%,26.666668%);fill-opacity:1;" d="M 7.5625 4.1875 C 7.851562 4.1875 8.140625 4.1875 8.4375 4.1875 C 8.4375 4.578125 8.4375 4.972656 8.4375 5.375 C 8.148438 5.375 7.859375 5.375 7.5625 5.375 C 7.5625 4.984375 7.5625 4.589844 7.5625 4.1875 Z M 7.5625 4.1875 "/>
<path style=" stroke:none;fill-rule:nonzero;fill:rgb(85.09804%,40.000001%,16.862746%);fill-opacity:1;" d="M 13.5625 6.6875 C 14.207031 6.6875 14.207031 6.6875 14.4375 6.875 C 14.539062 7.078125 14.535156 7.28125 14.5 7.5 C 14.382812 7.6875 14.382812 7.6875 14.1875 7.8125 C 13.972656 7.839844 13.78125 7.828125 13.5625 7.8125 C 13.5625 7.441406 13.5625 7.070312 13.5625 6.6875 Z M 13.5625 6.6875 "/>
<path style=" stroke:none;fill-rule:nonzero;fill:rgb(4.705882%,42.352942%,76.47059%);fill-opacity:1;" d="M 4.375 13.125 C 4.375 13.496094 4.375 13.867188 4.375 14.25 C 3.8125 14.25 3.8125 14.25 3.625 14.132812 C 3.476562 13.976562 3.441406 13.914062 3.417969 13.699219 C 3.441406 13.453125 3.519531 13.363281 3.6875 13.1875 C 3.8125 13.125 3.8125 13.125 4.375 13.125 Z M 4.375 13.125 "/>
<path style=" stroke:none;fill-rule:nonzero;fill:rgb(97.647059%,60.392159%,26.666668%);fill-opacity:1;" d="M 13.5625 6.6875 C 13.5625 7.058594 13.5625 7.429688 13.5625 7.8125 C 13 7.8125 13 7.8125 12.8125 7.695312 C 12.664062 7.539062 12.628906 7.476562 12.605469 7.261719 C 12.628906 7.015625 12.707031 6.925781 12.875 6.75 C 13 6.6875 13 6.6875 13.5625 6.6875 Z M 13.5625 6.6875 "/>
<path style=" stroke:none;fill-rule:nonzero;fill:rgb(3.137255%,35.686275%,71.372551%);fill-opacity:1;" d="M 8 6.6875 C 8.5625 6.6875 8.5625 6.6875 8.75 6.804688 C 8.898438 6.960938 8.933594 7.023438 8.957031 7.238281 C 8.933594 7.484375 8.855469 7.574219 8.6875 7.75 C 8.5625 7.8125 8.5625 7.8125 8 7.8125 C 8 7.441406 8 7.070312 8 6.6875 Z M 8 6.6875 "/>
<path style=" stroke:none;fill-rule:nonzero;fill:rgb(85.09804%,39.607844%,16.470589%);fill-opacity:1;" d="M 2.4375 6.6875 C 3 6.6875 3 6.6875 3.1875 6.804688 C 3.335938 6.960938 3.371094 7.023438 3.394531 7.238281 C 3.371094 7.484375 3.296875 7.578125 3.125 7.75 C 2.9375 7.8125 2.9375 7.8125 2.4375 7.8125 C 2.4375 7.441406 2.4375 7.070312 2.4375 6.6875 Z M 2.4375 6.6875 "/>
<path style=" stroke:none;fill-rule:nonzero;fill:rgb(72.941178%,6.27451%,21.176471%);fill-opacity:1;" d="M 11.625 13.125 C 12.210938 13.125 12.210938 13.125 12.4375 13.3125 C 12.566406 13.476562 12.5625 13.566406 12.558594 13.78125 C 12.5 14 12.5 14 12.375 14.152344 C 12.1875 14.25 12.1875 14.25 11.625 14.25 C 11.625 13.878906 11.625 13.507812 11.625 13.125 Z M 11.625 13.125 "/>
<path style=" stroke:none;fill-rule:nonzero;fill:rgb(98.823529%,38.039216%,34.117648%);fill-opacity:1;" d="M 6.0625 1.5 C 6.226562 1.664062 6.207031 1.78125 6.207031 2.003906 C 6.207031 2.054688 6.207031 2.101562 6.207031 2.152344 C 6.207031 2.199219 6.207031 2.25 6.210938 2.300781 C 6.210938 2.65625 6.210938 2.65625 6.101562 2.796875 C 6 2.875 6 2.875 5.839844 2.863281 C 5.6875 2.8125 5.6875 2.8125 5.5625 2.6875 C 5.546875 2.519531 5.542969 2.359375 5.542969 2.191406 C 5.542969 2.144531 5.542969 2.101562 5.539062 2.054688 C 5.539062 1.71875 5.539062 1.71875 5.648438 1.5625 C 5.792969 1.472656 5.894531 1.480469 6.0625 1.5 Z M 6.0625 1.5 "/>
<path style=" stroke:none;fill-rule:nonzero;fill:rgb(28.235295%,70.19608%,98.823529%);fill-opacity:1;" d="M 3.433594 12.105469 C 3.597656 12.109375 3.671875 12.117188 3.816406 12.199219 C 3.875 12.3125 3.875 12.3125 3.863281 12.472656 C 3.8125 12.625 3.8125 12.625 3.6875 12.75 C 3.246094 12.785156 3.246094 12.785156 3.058594 12.675781 C 3 12.5625 3 12.5625 3.011719 12.402344 C 3.097656 12.140625 3.15625 12.128906 3.433594 12.105469 Z M 3.433594 12.105469 "/>
<path style=" stroke:none;fill-rule:nonzero;fill:rgb(20%,18.039216%,18.039216%);fill-opacity:1;" d="M 9.4375 13.25 C 9.5625 13.25 9.683594 13.25 9.8125 13.25 C 9.8125 13.539062 9.8125 13.828125 9.8125 14.125 C 9.6875 14.125 9.566406 14.125 9.4375 14.125 C 9.4375 13.835938 9.4375 13.546875 9.4375 13.25 Z M 9.4375 13.25 "/>
<path style=" stroke:none;fill-rule:nonzero;fill:rgb(17.254902%,19.607843%,21.176471%);fill-opacity:1;" d="M 6.1875 13.25 C 6.3125 13.25 6.433594 13.25 6.5625 13.25 C 6.5625 13.539062 6.5625 13.828125 6.5625 14.125 C 6.4375 14.125 6.316406 14.125 6.1875 14.125 C 6.1875 13.835938 6.1875 13.546875 6.1875 13.25 Z M 6.1875 13.25 "/>
<path style=" stroke:none;fill-rule:nonzero;fill:rgb(24.313726%,21.960784%,18.82353%);fill-opacity:1;" d="M 11.4375 6.875 C 11.5625 6.875 11.683594 6.875 11.8125 6.875 C 11.8125 7.164062 11.8125 7.453125 11.8125 7.75 C 11.6875 7.75 11.566406 7.75 11.4375 7.75 C 11.4375 7.460938 11.4375 7.171875 11.4375 6.875 Z M 11.4375 6.875 "/>
<path style=" stroke:none;fill-rule:nonzero;fill:rgb(18.039216%,18.039216%,18.039216%);fill-opacity:1;" d="M 9.8125 6.875 C 9.9375 6.875 10.058594 6.875 10.1875 6.875 C 10.1875 7.164062 10.1875 7.453125 10.1875 7.75 C 10.0625 7.75 9.941406 7.75 9.8125 7.75 C 9.8125 7.460938 9.8125 7.171875 9.8125 6.875 Z M 9.8125 6.875 "/>
<path style=" stroke:none;fill-rule:nonzero;fill:rgb(18.039216%,18.039216%,18.039216%);fill-opacity:1;" d="M 5.8125 6.875 C 5.9375 6.875 6.058594 6.875 6.1875 6.875 C 6.1875 7.164062 6.1875 7.453125 6.1875 7.75 C 6.0625 7.75 5.941406 7.75 5.8125 7.75 C 5.8125 7.460938 5.8125 7.171875 5.8125 6.875 Z M 5.8125 6.875 "/>
<path style=" stroke:none;fill-rule:nonzero;fill:rgb(17.647059%,17.647059%,17.647059%);fill-opacity:1;" d="M 11.5 11.5 C 11.808594 11.5 12.117188 11.5 12.4375 11.5 C 12.417969 11.601562 12.394531 11.707031 12.375 11.8125 C 12.046875 11.8125 11.714844 11.8125 11.375 11.8125 C 11.417969 11.710938 11.457031 11.605469 11.5 11.5 Z M 11.5 11.5 "/>
<path style=" stroke:none;fill-rule:nonzero;fill:rgb(17.647059%,17.647059%,17.647059%);fill-opacity:1;" d="M 3.625 11.5 C 3.953125 11.5 4.285156 11.5 4.625 11.5 C 4.644531 11.601562 4.667969 11.707031 4.6875 11.8125 C 4.378906 11.8125 4.070312 11.8125 3.75 11.8125 C 3.707031 11.710938 3.667969 11.605469 3.625 11.5 Z M 3.625 11.5 "/>
<path style=" stroke:none;fill-rule:nonzero;fill:rgb(17.647059%,17.647059%,17.647059%);fill-opacity:1;" d="M 12.5625 9.125 C 12.890625 9.125 13.222656 9.125 13.5625 9.125 C 13.519531 9.226562 13.480469 9.332031 13.4375 9.4375 C 13.128906 9.4375 12.820312 9.4375 12.5 9.4375 C 12.519531 9.335938 12.542969 9.230469 12.5625 9.125 Z M 12.5625 9.125 "/>
<path style=" stroke:none;fill-rule:nonzero;fill:rgb(18.039216%,18.039216%,18.039216%);fill-opacity:1;" d="M 3.6875 9.125 C 3.6875 9.207031 3.6875 9.289062 3.6875 9.375 C 3.488281 9.433594 3.3125 9.445312 3.109375 9.441406 C 3.054688 9.441406 3 9.441406 2.941406 9.441406 C 2.898438 9.4375 2.855469 9.4375 2.8125 9.4375 C 2.769531 9.335938 2.730469 9.230469 2.6875 9.125 C 2.796875 9.113281 2.902344 9.101562 3.011719 9.089844 C 3.070312 9.082031 3.132812 9.078125 3.195312 9.070312 C 3.371094 9.0625 3.515625 9.082031 3.6875 9.125 Z M 3.6875 9.125 "/>
<path style=" stroke:none;fill-rule:nonzero;fill:rgb(17.647059%,17.647059%,17.647059%);fill-opacity:1;" d="M 4.25 6.875 C 4.351562 6.875 4.457031 6.875 4.5625 6.875 C 4.5625 7.164062 4.5625 7.453125 4.5625 7.75 C 4.460938 7.75 4.355469 7.75 4.25 7.75 C 4.25 7.460938 4.25 7.171875 4.25 6.875 Z M 4.25 6.875 "/>
<path style=" stroke:none;fill-rule:nonzero;fill:rgb(17.647059%,17.647059%,17.647059%);fill-opacity:1;" d="M 7.5625 5.0625 C 7.851562 5.0625 8.140625 5.0625 8.4375 5.0625 C 8.4375 5.164062 8.4375 5.269531 8.4375 5.375 C 8.148438 5.375 7.859375 5.375 7.5625 5.375 C 7.5625 5.273438 7.5625 5.167969 7.5625 5.0625 Z M 7.5625 5.0625 "/>
<path style=" stroke:none;fill-rule:nonzero;fill:rgb(17.647059%,17.647059%,17.647059%);fill-opacity:1;" d="M 7.5625 4.1875 C 7.851562 4.1875 8.140625 4.1875 8.4375 4.1875 C 8.4375 4.289062 8.4375 4.394531 8.4375 4.5 C 8.148438 4.5 7.859375 4.5 7.5625 4.5 C 7.5625 4.398438 7.5625 4.292969 7.5625 4.1875 Z M 7.5625 4.1875 "/>
</g>
</svg>
