<?xml version="1.0" encoding="UTF-8"?>
<svg xmlns="http://www.w3.org/2000/svg" xmlns:xlink="http://www.w3.org/1999/xlink" width="16" height="16" viewBox="0 0 16 16" version="1.1">
<g id="surface1">
<path style=" stroke:none;fill-rule:nonzero;fill:rgb(43.921569%,74.509805%,89.411765%);fill-opacity:1;" d="M 7.523438 3.78125 C 7.601562 3.777344 7.675781 3.777344 7.757812 3.777344 C 7.878906 3.78125 7.878906 3.78125 8 3.78125 C 8.082031 3.78125 8.160156 3.78125 8.242188 3.777344 C 8.320312 3.777344 8.398438 3.777344 8.476562 3.78125 C 8.582031 3.78125 8.582031 3.78125 8.691406 3.78125 C 8.914062 3.820312 8.988281 3.882812 9.125 4.0625 C 9.132812 4.234375 9.132812 4.234375 9.121094 4.425781 C 9.121094 4.625 9.121094 4.625 9.1875 4.8125 C 9.4375 5.011719 9.707031 5.125 10 5.25 C 10.0625 5.292969 10.125 5.332031 10.1875 5.375 C 10.226562 5.351562 10.269531 5.328125 10.308594 5.300781 C 10.390625 5.257812 10.390625 5.257812 10.472656 5.210938 C 10.523438 5.179688 10.578125 5.148438 10.632812 5.117188 C 10.890625 5.039062 11.007812 5.070312 11.25 5.1875 C 11.386719 5.347656 11.484375 5.527344 11.582031 5.714844 C 11.636719 5.8125 11.6875 5.90625 11.742188 6.003906 C 11.773438 6.066406 11.773438 6.066406 11.808594 6.132812 C 11.867188 6.238281 11.933594 6.339844 12 6.4375 C 12.050781 6.875 12.050781 6.875 11.863281 7.113281 C 11.6875 7.25 11.6875 7.25 11.523438 7.316406 C 11.355469 7.453125 11.347656 7.484375 11.324219 7.6875 C 11.320312 7.789062 11.320312 7.890625 11.320312 7.988281 C 11.320312 8.039062 11.320312 8.089844 11.320312 8.144531 C 11.332031 8.386719 11.339844 8.523438 11.5 8.714844 C 11.640625 8.804688 11.78125 8.871094 11.9375 8.9375 C 12.039062 9.144531 12.035156 9.339844 12 9.5625 C 11.90625 9.792969 11.78125 10 11.652344 10.210938 C 11.621094 10.265625 11.589844 10.324219 11.554688 10.382812 C 11.398438 10.640625 11.300781 10.785156 11.027344 10.921875 C 10.777344 10.941406 10.683594 10.898438 10.476562 10.765625 C 10.304688 10.671875 10.304688 10.671875 10.125 10.625 C 9.945312 10.6875 9.832031 10.773438 9.6875 10.894531 C 9.5625 11 9.5625 11 9.34375 11.070312 C 9.167969 11.171875 9.167969 11.171875 9.160156 11.355469 C 9.152344 11.488281 9.148438 11.621094 9.148438 11.753906 C 9.117188 11.988281 9.058594 12.046875 8.875 12.1875 C 8.691406 12.21875 8.691406 12.21875 8.476562 12.21875 C 8.398438 12.222656 8.324219 12.222656 8.242188 12.222656 C 8.164062 12.21875 8.082031 12.21875 8 12.21875 C 7.878906 12.21875 7.878906 12.21875 7.757812 12.222656 C 7.679688 12.222656 7.601562 12.222656 7.523438 12.21875 C 7.417969 12.21875 7.417969 12.21875 7.308594 12.21875 C 7.085938 12.179688 7.011719 12.117188 6.875 11.9375 C 6.867188 11.765625 6.867188 11.765625 6.878906 11.574219 C 6.878906 11.375 6.878906 11.375 6.8125 11.1875 C 6.5625 10.988281 6.292969 10.875 6 10.75 C 5.90625 10.6875 5.90625 10.6875 5.8125 10.625 C 5.773438 10.648438 5.730469 10.671875 5.691406 10.699219 C 5.636719 10.726562 5.582031 10.757812 5.527344 10.789062 C 5.476562 10.820312 5.421875 10.851562 5.367188 10.882812 C 5.109375 10.960938 4.992188 10.929688 4.75 10.8125 C 4.613281 10.652344 4.515625 10.472656 4.417969 10.285156 C 4.363281 10.1875 4.3125 10.09375 4.257812 9.996094 C 4.234375 9.953125 4.210938 9.910156 4.191406 9.867188 C 4.132812 9.761719 4.066406 9.660156 4 9.5625 C 3.949219 9.125 3.949219 9.125 4.136719 8.886719 C 4.3125 8.75 4.3125 8.75 4.476562 8.683594 C 4.644531 8.546875 4.652344 8.515625 4.675781 8.3125 C 4.679688 8.210938 4.679688 8.113281 4.679688 8.011719 C 4.679688 7.960938 4.679688 7.910156 4.679688 7.855469 C 4.667969 7.613281 4.660156 7.480469 4.5 7.285156 C 4.359375 7.195312 4.21875 7.128906 4.0625 7.0625 C 3.960938 6.855469 3.964844 6.660156 4 6.4375 C 4.09375 6.207031 4.21875 6 4.347656 5.789062 C 4.394531 5.703125 4.394531 5.703125 4.445312 5.617188 C 4.601562 5.359375 4.699219 5.214844 4.972656 5.078125 C 5.222656 5.058594 5.316406 5.101562 5.523438 5.234375 C 5.695312 5.328125 5.695312 5.328125 5.875 5.375 C 6.054688 5.3125 6.167969 5.226562 6.3125 5.105469 C 6.4375 5 6.4375 5 6.65625 4.929688 C 6.832031 4.828125 6.832031 4.828125 6.839844 4.644531 C 6.847656 4.511719 6.851562 4.378906 6.851562 4.246094 C 6.902344 3.847656 7.160156 3.78125 7.523438 3.78125 Z M 7.523438 3.78125 "/>
<path style=" stroke:none;fill-rule:nonzero;fill:rgb(92.941177%,74.509805%,12.54902%);fill-opacity:1;" d="M 12.648438 0.09375 C 12.714844 0.09375 12.78125 0.09375 12.851562 0.0898438 C 12.957031 0.09375 12.957031 0.09375 13.066406 0.09375 C 13.179688 0.09375 13.179688 0.09375 13.292969 0.09375 C 13.449219 0.09375 13.605469 0.09375 13.761719 0.0976562 C 14.003906 0.0976562 14.242188 0.0976562 14.484375 0.0976562 C 14.636719 0.0976562 14.789062 0.0976562 14.941406 0.0976562 C 15.011719 0.0976562 15.082031 0.0976562 15.160156 0.0976562 C 15.222656 0.0976562 15.292969 0.0976562 15.359375 0.101562 C 15.449219 0.101562 15.449219 0.101562 15.539062 0.101562 C 15.714844 0.128906 15.769531 0.167969 15.875 0.3125 C 15.933594 0.492188 15.945312 0.609375 15.949219 0.796875 C 15.949219 0.859375 15.949219 0.917969 15.949219 0.980469 C 15.949219 1.042969 15.949219 1.109375 15.949219 1.175781 C 15.949219 1.246094 15.949219 1.3125 15.953125 1.378906 C 15.953125 1.523438 15.953125 1.664062 15.953125 1.804688 C 15.953125 2.023438 15.957031 2.238281 15.957031 2.457031 C 15.957031 2.59375 15.957031 2.730469 15.957031 2.867188 C 15.957031 2.933594 15.960938 2.996094 15.960938 3.066406 C 15.957031 3.632812 15.957031 3.632812 15.75 3.875 C 15.59375 3.953125 15.484375 3.945312 15.3125 3.949219 C 15.246094 3.949219 15.179688 3.949219 15.113281 3.949219 C 15.042969 3.949219 14.96875 3.953125 14.898438 3.953125 C 14.824219 3.953125 14.75 3.953125 14.675781 3.953125 C 14.523438 3.953125 14.367188 3.957031 14.214844 3.957031 C 13.976562 3.957031 13.742188 3.960938 13.503906 3.960938 C 13.355469 3.964844 13.207031 3.964844 13.058594 3.964844 C 12.988281 3.964844 12.914062 3.964844 12.84375 3.96875 C 12.777344 3.96875 12.710938 3.964844 12.644531 3.964844 C 12.585938 3.96875 12.527344 3.96875 12.46875 3.96875 C 12.257812 3.925781 12.1875 3.855469 12.0625 3.6875 C 12.03125 3.535156 12.03125 3.535156 12.03125 3.359375 C 12.03125 3.292969 12.027344 3.226562 12.027344 3.160156 C 12.027344 3.089844 12.027344 3.019531 12.03125 2.949219 C 12.027344 2.875 12.027344 2.800781 12.027344 2.726562 C 12.027344 2.574219 12.027344 2.421875 12.03125 2.265625 C 12.03125 2.03125 12.03125 1.796875 12.027344 1.5625 C 12.027344 1.414062 12.027344 1.265625 12.03125 1.117188 C 12.027344 1.042969 12.027344 0.972656 12.027344 0.902344 C 12.027344 0.835938 12.03125 0.769531 12.03125 0.703125 C 12.03125 0.644531 12.03125 0.589844 12.03125 0.527344 C 12.101562 0.183594 12.320312 0.09375 12.648438 0.09375 Z M 12.648438 0.09375 "/>
<path style=" stroke:none;fill-rule:nonzero;fill:rgb(97.647059%,36.078432%,23.529412%);fill-opacity:1;" d="M 13.160156 12.03125 C 13.207031 12.03125 13.253906 12.03125 13.300781 12.03125 C 13.398438 12.03125 13.496094 12.03125 13.59375 12.03125 C 13.742188 12.03125 13.890625 12.027344 14.039062 12.027344 C 14.132812 12.027344 14.230469 12.023438 14.324219 12.027344 C 14.390625 12.023438 14.390625 12.023438 14.457031 12.023438 C 14.695312 12.027344 14.800781 12.054688 14.988281 12.203125 C 15.101562 12.347656 15.199219 12.480469 15.285156 12.636719 C 15.324219 12.710938 15.324219 12.710938 15.367188 12.785156 C 15.40625 12.859375 15.40625 12.859375 15.445312 12.933594 C 15.472656 12.984375 15.5 13.03125 15.527344 13.082031 C 15.578125 13.179688 15.628906 13.273438 15.679688 13.371094 C 15.742188 13.480469 15.804688 13.589844 15.867188 13.699219 C 15.957031 13.917969 15.929688 14.019531 15.875 14.25 C 15.789062 14.429688 15.789062 14.429688 15.683594 14.609375 C 15.644531 14.675781 15.605469 14.742188 15.566406 14.808594 C 15.523438 14.878906 15.484375 14.945312 15.441406 15.015625 C 15.402344 15.085938 15.359375 15.152344 15.320312 15.222656 C 15.019531 15.730469 15.019531 15.730469 14.875 15.875 C 14.710938 15.890625 14.554688 15.894531 14.394531 15.894531 C 14.34375 15.894531 14.296875 15.898438 14.25 15.898438 C 14.148438 15.898438 14.046875 15.898438 13.945312 15.898438 C 13.789062 15.898438 13.636719 15.902344 13.480469 15.902344 C 13.382812 15.902344 13.285156 15.902344 13.1875 15.902344 C 13.117188 15.90625 13.117188 15.90625 13.046875 15.90625 C 12.839844 15.90625 12.714844 15.894531 12.542969 15.769531 C 12.34375 15.5 12.179688 15.210938 12.015625 14.917969 C 11.976562 14.855469 11.941406 14.789062 11.902344 14.722656 C 11.867188 14.664062 11.832031 14.601562 11.792969 14.535156 C 11.761719 14.480469 11.730469 14.421875 11.695312 14.363281 C 11.582031 14.078125 11.582031 13.851562 11.703125 13.566406 C 11.738281 13.507812 11.773438 13.445312 11.808594 13.386719 C 11.847656 13.320312 11.886719 13.253906 11.925781 13.1875 C 11.96875 13.121094 12.007812 13.054688 12.050781 12.984375 C 12.089844 12.917969 12.132812 12.847656 12.171875 12.777344 C 12.617188 12.03125 12.617188 12.03125 13.160156 12.03125 Z M 13.160156 12.03125 "/>
<path style=" stroke:none;fill-rule:nonzero;fill:rgb(92.156863%,92.156863%,92.156863%);fill-opacity:1;" d="M 9.0625 6.3125 C 9.492188 6.597656 9.777344 7.011719 9.9375 7.5 C 9.996094 8.078125 9.9375 8.539062 9.6875 9.0625 C 9.65625 9.171875 9.65625 9.171875 9.625 9.285156 C 9.605469 9.335938 9.582031 9.386719 9.5625 9.4375 C 9.429688 9.492188 9.429688 9.492188 9.3125 9.5 C 9.292969 9.582031 9.269531 9.664062 9.25 9.75 C 8.574219 9.941406 7.8125 10.117188 7.152344 9.800781 C 7.058594 9.746094 6.964844 9.6875 6.875 9.625 C 6.839844 9.601562 6.800781 9.578125 6.765625 9.550781 C 6.394531 9.277344 6.183594 8.875 6.0625 8.4375 C 5.988281 7.796875 6.0625 7.28125 6.4375 6.75 C 7.101562 5.984375 8.175781 5.792969 9.0625 6.3125 Z M 9.0625 6.3125 "/>
<path style=" stroke:none;fill-rule:nonzero;fill:rgb(92.54902%,74.117649%,12.54902%);fill-opacity:1;" d="M 2.945312 12.226562 C 3.097656 12.339844 3.121094 12.449219 3.1875 12.625 C 3.375 12.710938 3.375 12.710938 3.5625 12.75 C 3.5625 12.796875 3.558594 12.84375 3.558594 12.894531 C 3.554688 13.070312 3.554688 13.070312 3.625 13.25 C 3.75 13.296875 3.75 13.296875 3.875 13.3125 C 4.027344 13.820312 3.992188 14.378906 3.769531 14.855469 C 3.472656 15.367188 3.070312 15.714844 2.5 15.875 C 1.835938 15.949219 1.308594 15.898438 0.75 15.5 C 0.375 15.179688 0.113281 14.679688 0.0625 14.1875 C 0.0195312 13.65625 0.171875 13.167969 0.5 12.75 C 1.160156 12.019531 2.035156 11.859375 2.945312 12.226562 Z M 2.945312 12.226562 "/>
<path style=" stroke:none;fill-rule:nonzero;fill:rgb(97.647059%,36.078432%,23.921569%);fill-opacity:1;" d="M 2.1875 0.0898438 C 2.421875 0.132812 2.511719 0.214844 2.6875 0.375 C 2.804688 0.546875 2.804688 0.546875 2.914062 0.746094 C 2.945312 0.796875 2.945312 0.796875 2.976562 0.851562 C 3.039062 0.96875 3.105469 1.082031 3.167969 1.199219 C 3.234375 1.320312 3.300781 1.4375 3.367188 1.558594 C 3.410156 1.636719 3.457031 1.714844 3.5 1.792969 C 3.625 2.019531 3.757812 2.242188 3.890625 2.460938 C 3.921875 2.507812 3.949219 2.558594 3.980469 2.605469 C 4.03125 2.691406 4.085938 2.777344 4.140625 2.859375 C 4.304688 3.125 4.363281 3.316406 4.3125 3.625 C 4.207031 3.785156 4.164062 3.847656 4 3.9375 C 3.734375 3.984375 3.46875 3.976562 3.199219 3.972656 C 3.082031 3.972656 3.082031 3.972656 2.960938 3.972656 C 2.796875 3.972656 2.632812 3.96875 2.46875 3.96875 C 2.257812 3.964844 2.046875 3.964844 1.835938 3.964844 C 1.632812 3.964844 1.433594 3.960938 1.230469 3.960938 C 1.15625 3.960938 1.078125 3.960938 1 3.960938 C 0.929688 3.957031 0.859375 3.957031 0.789062 3.957031 C 0.695312 3.957031 0.695312 3.957031 0.601562 3.953125 C 0.433594 3.9375 0.328125 3.90625 0.1875 3.8125 C 0.0429688 3.5625 0.0585938 3.398438 0.125 3.125 C 0.207031 2.96875 0.289062 2.820312 0.382812 2.671875 C 0.4375 2.578125 0.496094 2.484375 0.550781 2.390625 C 0.582031 2.339844 0.613281 2.289062 0.648438 2.234375 C 0.765625 2.039062 0.875 1.839844 0.988281 1.640625 C 1.03125 1.570312 1.074219 1.496094 1.113281 1.421875 C 1.195312 1.277344 1.277344 1.132812 1.359375 0.988281 C 1.394531 0.921875 1.433594 0.855469 1.472656 0.785156 C 1.523438 0.695312 1.523438 0.695312 1.574219 0.605469 C 1.742188 0.355469 1.886719 0.144531 2.1875 0.0898438 Z M 2.1875 0.0898438 "/>
<path style=" stroke:none;fill-rule:nonzero;fill:rgb(0.392157%,0.784314%,1.176471%);fill-opacity:1;" d="M 7.523438 3.78125 C 7.601562 3.777344 7.675781 3.777344 7.757812 3.777344 C 7.878906 3.78125 7.878906 3.78125 8 3.78125 C 8.082031 3.78125 8.160156 3.78125 8.242188 3.777344 C 8.320312 3.777344 8.398438 3.777344 8.476562 3.78125 C 8.582031 3.78125 8.582031 3.78125 8.691406 3.78125 C 8.914062 3.820312 8.988281 3.882812 9.125 4.0625 C 9.132812 4.234375 9.132812 4.234375 9.121094 4.425781 C 9.121094 4.625 9.121094 4.625 9.1875 4.8125 C 9.4375 5.011719 9.707031 5.125 10 5.25 C 10.0625 5.292969 10.125 5.332031 10.1875 5.375 C 10.226562 5.351562 10.269531 5.328125 10.308594 5.300781 C 10.390625 5.257812 10.390625 5.257812 10.472656 5.210938 C 10.523438 5.179688 10.578125 5.148438 10.632812 5.117188 C 10.890625 5.039062 11.007812 5.070312 11.25 5.1875 C 11.386719 5.347656 11.484375 5.527344 11.582031 5.714844 C 11.636719 5.8125 11.6875 5.90625 11.742188 6.003906 C 11.773438 6.066406 11.773438 6.066406 11.808594 6.132812 C 11.867188 6.238281 11.933594 6.339844 12 6.4375 C 12.050781 6.875 12.050781 6.875 11.863281 7.113281 C 11.6875 7.25 11.6875 7.25 11.523438 7.316406 C 11.355469 7.453125 11.347656 7.484375 11.324219 7.6875 C 11.320312 7.789062 11.320312 7.890625 11.320312 7.988281 C 11.320312 8.039062 11.320312 8.089844 11.320312 8.144531 C 11.332031 8.386719 11.339844 8.523438 11.5 8.714844 C 11.640625 8.804688 11.78125 8.871094 11.9375 8.9375 C 12.039062 9.144531 12.035156 9.339844 12 9.5625 C 11.90625 9.792969 11.78125 10 11.652344 10.210938 C 11.621094 10.265625 11.589844 10.324219 11.554688 10.382812 C 11.398438 10.640625 11.300781 10.785156 11.027344 10.921875 C 10.777344 10.941406 10.683594 10.898438 10.476562 10.765625 C 10.304688 10.671875 10.304688 10.671875 10.125 10.625 C 9.945312 10.6875 9.832031 10.773438 9.6875 10.894531 C 9.5625 11 9.5625 11 9.34375 11.070312 C 9.167969 11.171875 9.167969 11.171875 9.160156 11.355469 C 9.152344 11.488281 9.148438 11.621094 9.148438 11.753906 C 9.117188 11.988281 9.058594 12.046875 8.875 12.1875 C 8.691406 12.21875 8.691406 12.21875 8.476562 12.21875 C 8.398438 12.222656 8.324219 12.222656 8.242188 12.222656 C 8.164062 12.21875 8.082031 12.21875 8 12.21875 C 7.878906 12.21875 7.878906 12.21875 7.757812 12.222656 C 7.679688 12.222656 7.601562 12.222656 7.523438 12.21875 C 7.417969 12.21875 7.417969 12.21875 7.308594 12.21875 C 7.085938 12.179688 7.011719 12.117188 6.875 11.9375 C 6.867188 11.765625 6.867188 11.765625 6.878906 11.574219 C 6.878906 11.375 6.878906 11.375 6.8125 11.1875 C 6.5625 10.988281 6.292969 10.875 6 10.75 C 5.90625 10.6875 5.90625 10.6875 5.8125 10.625 C 5.773438 10.648438 5.730469 10.671875 5.691406 10.699219 C 5.636719 10.726562 5.582031 10.757812 5.527344 10.789062 C 5.476562 10.820312 5.421875 10.851562 5.367188 10.882812 C 5.109375 10.960938 4.992188 10.929688 4.75 10.8125 C 4.613281 10.652344 4.515625 10.472656 4.417969 10.285156 C 4.363281 10.1875 4.3125 10.09375 4.257812 9.996094 C 4.234375 9.953125 4.210938 9.910156 4.191406 9.867188 C 4.132812 9.761719 4.066406 9.660156 4 9.5625 C 3.949219 9.125 3.949219 9.125 4.136719 8.886719 C 4.3125 8.75 4.3125 8.75 4.476562 8.683594 C 4.644531 8.546875 4.652344 8.515625 4.675781 8.3125 C 4.679688 8.210938 4.679688 8.113281 4.679688 8.011719 C 4.679688 7.960938 4.679688 7.910156 4.679688 7.855469 C 4.667969 7.613281 4.660156 7.480469 4.5 7.285156 C 4.359375 7.195312 4.21875 7.128906 4.0625 7.0625 C 3.960938 6.855469 3.964844 6.660156 4 6.4375 C 4.09375 6.207031 4.21875 6 4.347656 5.789062 C 4.394531 5.703125 4.394531 5.703125 4.445312 5.617188 C 4.601562 5.359375 4.699219 5.214844 4.972656 5.078125 C 5.222656 5.058594 5.316406 5.101562 5.523438 5.234375 C 5.695312 5.328125 5.695312 5.328125 5.875 5.375 C 6.054688 5.3125 6.167969 5.226562 6.3125 5.105469 C 6.4375 5 6.4375 5 6.65625 4.929688 C 6.832031 4.828125 6.832031 4.828125 6.839844 4.644531 C 6.847656 4.511719 6.851562 4.378906 6.851562 4.246094 C 6.902344 3.847656 7.160156 3.78125 7.523438 3.78125 Z M 7.1875 4.1875 C 7.191406 4.246094 7.195312 4.308594 7.199219 4.371094 C 7.207031 4.625 7.199219 4.820312 7.125 5.0625 C 6.914062 5.226562 6.714844 5.316406 6.46875 5.410156 C 6.253906 5.5 6.113281 5.601562 5.9375 5.75 C 5.722656 5.75 5.539062 5.605469 5.363281 5.488281 C 5.234375 5.421875 5.234375 5.421875 5 5.4375 C 4.902344 5.542969 4.902344 5.542969 4.824219 5.6875 C 4.792969 5.742188 4.761719 5.792969 4.730469 5.847656 C 4.683594 5.929688 4.683594 5.929688 4.636719 6.015625 C 4.589844 6.097656 4.589844 6.097656 4.539062 6.179688 C 4.371094 6.453125 4.371094 6.453125 4.316406 6.757812 C 4.402344 6.925781 4.515625 6.957031 4.6875 7.03125 C 4.882812 7.144531 4.980469 7.199219 5.0625 7.414062 C 5.085938 7.609375 5.089844 7.796875 5.082031 7.996094 C 5.082031 8.0625 5.078125 8.132812 5.078125 8.203125 C 5.0625 8.515625 5.042969 8.695312 4.84375 8.945312 C 4.667969 9.054688 4.511719 9.128906 4.3125 9.1875 C 4.34375 9.519531 4.523438 9.773438 4.691406 10.050781 C 4.722656 10.101562 4.75 10.148438 4.78125 10.199219 C 4.851562 10.320312 4.925781 10.441406 5 10.5625 C 5.207031 10.527344 5.355469 10.484375 5.53125 10.367188 C 5.75 10.25 5.75 10.25 5.914062 10.25 C 6.0625 10.3125 6.0625 10.3125 6.203125 10.433594 C 6.386719 10.570312 6.550781 10.632812 6.765625 10.710938 C 6.964844 10.804688 6.964844 10.804688 7.125 10.9375 C 7.207031 11.234375 7.199219 11.507812 7.1875 11.8125 C 7.292969 11.921875 7.4375 11.882812 7.582031 11.882812 C 7.648438 11.882812 7.714844 11.882812 7.785156 11.882812 C 7.855469 11.882812 7.925781 11.882812 8 11.882812 C 8.070312 11.882812 8.140625 11.882812 8.214844 11.882812 C 8.28125 11.882812 8.347656 11.882812 8.417969 11.882812 C 8.480469 11.882812 8.542969 11.882812 8.605469 11.882812 C 8.746094 11.890625 8.746094 11.890625 8.8125 11.8125 C 8.808594 11.753906 8.804688 11.691406 8.800781 11.628906 C 8.792969 11.375 8.800781 11.179688 8.875 10.9375 C 9.085938 10.773438 9.285156 10.683594 9.53125 10.589844 C 9.746094 10.5 9.886719 10.398438 10.0625 10.25 C 10.277344 10.25 10.460938 10.394531 10.636719 10.511719 C 10.765625 10.582031 10.765625 10.582031 11 10.5625 C 11.097656 10.457031 11.097656 10.457031 11.175781 10.3125 C 11.207031 10.257812 11.238281 10.207031 11.269531 10.152344 C 11.300781 10.097656 11.332031 10.042969 11.363281 9.984375 C 11.394531 9.929688 11.429688 9.875 11.460938 9.820312 C 11.628906 9.546875 11.628906 9.546875 11.683594 9.242188 C 11.597656 9.074219 11.484375 9.046875 11.3125 8.96875 C 11.117188 8.855469 11.019531 8.800781 10.9375 8.585938 C 10.914062 8.390625 10.910156 8.203125 10.917969 8.003906 C 10.917969 7.902344 10.917969 7.902344 10.921875 7.796875 C 10.9375 7.484375 10.957031 7.304688 11.15625 7.054688 C 11.332031 6.945312 11.488281 6.871094 11.6875 6.8125 C 11.65625 6.480469 11.476562 6.226562 11.308594 5.949219 C 11.265625 5.875 11.265625 5.875 11.21875 5.800781 C 11.148438 5.679688 11.074219 5.558594 11 5.4375 C 10.792969 5.472656 10.644531 5.515625 10.46875 5.632812 C 10.25 5.75 10.25 5.75 10.085938 5.75 C 9.902344 5.671875 9.777344 5.5625 9.625 5.4375 C 9.421875 5.324219 9.210938 5.214844 8.988281 5.144531 C 8.875 5.0625 8.875 5.0625 8.839844 4.859375 C 8.835938 4.742188 8.835938 4.742188 8.832031 4.621094 C 8.847656 4.351562 8.847656 4.351562 8.75 4.125 C 8.640625 4.117188 8.527344 4.117188 8.417969 4.117188 C 8.351562 4.117188 8.285156 4.117188 8.214844 4.117188 C 8.144531 4.117188 8.074219 4.117188 8 4.117188 C 7.929688 4.117188 7.859375 4.117188 7.785156 4.117188 C 7.71875 4.117188 7.652344 4.117188 7.582031 4.117188 C 7.519531 4.117188 7.457031 4.117188 7.394531 4.117188 C 7.253906 4.109375 7.253906 4.109375 7.1875 4.1875 Z M 7.1875 4.1875 "/>
<path style=" stroke:none;fill-rule:nonzero;fill:rgb(1.568628%,1.568628%,1.568628%);fill-opacity:1;" d="M 2.09375 4.691406 C 2.292969 4.765625 2.363281 4.859375 2.492188 5.027344 C 2.535156 5.082031 2.578125 5.140625 2.621094 5.199219 C 2.664062 5.257812 2.707031 5.316406 2.75 5.375 C 2.792969 5.429688 2.835938 5.484375 2.878906 5.542969 C 2.917969 5.59375 2.960938 5.648438 3 5.703125 C 3.054688 5.773438 3.054688 5.773438 3.109375 5.847656 C 3.207031 6.035156 3.207031 6.167969 3.1875 6.375 C 3.125 6.492188 3.125 6.492188 3 6.5625 C 2.832031 6.570312 2.667969 6.566406 2.5 6.5625 C 2.5 6.617188 2.5 6.671875 2.5 6.730469 C 2.503906 7.246094 2.507812 7.765625 2.511719 8.285156 C 2.511719 8.550781 2.511719 8.820312 2.515625 9.085938 C 2.515625 9.34375 2.515625 9.601562 2.519531 9.855469 C 2.519531 9.957031 2.519531 10.054688 2.519531 10.152344 C 2.519531 10.289062 2.519531 10.425781 2.519531 10.5625 C 2.523438 10.644531 2.523438 10.722656 2.523438 10.800781 C 2.496094 11.015625 2.464844 11.101562 2.3125 11.25 C 2.085938 11.324219 1.980469 11.332031 1.765625 11.234375 C 1.625 11.125 1.625 11.125 1.5 10.9375 C 1.484375 10.75 1.484375 10.75 1.484375 10.515625 C 1.484375 10.472656 1.484375 10.429688 1.484375 10.386719 C 1.484375 10.242188 1.488281 10.101562 1.488281 9.960938 C 1.488281 9.863281 1.488281 9.765625 1.488281 9.667969 C 1.488281 9.410156 1.488281 9.152344 1.492188 8.898438 C 1.492188 8.632812 1.492188 8.371094 1.492188 8.109375 C 1.496094 7.59375 1.496094 7.078125 1.5 6.5625 C 1.433594 6.566406 1.363281 6.566406 1.292969 6.570312 C 1.0625 6.5625 1.0625 6.5625 0.875 6.4375 C 0.816406 6.300781 0.816406 6.300781 0.8125 6.125 C 0.972656 5.816406 1.160156 5.539062 1.375 5.265625 C 1.402344 5.230469 1.429688 5.195312 1.457031 5.160156 C 1.820312 4.6875 1.820312 4.6875 2.09375 4.691406 Z M 2.09375 4.691406 "/>
<path style=" stroke:none;fill-rule:nonzero;fill:rgb(0.784314%,0.784314%,0.784314%);fill-opacity:1;" d="M 10 0.875 C 10.191406 0.976562 10.363281 1.101562 10.539062 1.230469 C 10.585938 1.265625 10.632812 1.296875 10.679688 1.332031 C 11.160156 1.675781 11.160156 1.675781 11.3125 1.9375 C 11.316406 2.148438 11.277344 2.222656 11.128906 2.375 C 11.078125 2.414062 11.027344 2.453125 10.972656 2.492188 C 10.917969 2.535156 10.859375 2.578125 10.800781 2.621094 C 10.742188 2.664062 10.683594 2.707031 10.625 2.75 C 10.542969 2.8125 10.542969 2.8125 10.457031 2.878906 C 10.40625 2.917969 10.351562 2.957031 10.296875 3 C 10.226562 3.054688 10.226562 3.054688 10.152344 3.109375 C 9.964844 3.207031 9.832031 3.207031 9.625 3.1875 C 9.507812 3.125 9.507812 3.125 9.4375 3 C 9.429688 2.832031 9.433594 2.667969 9.4375 2.5 C 9.355469 2.5 9.355469 2.5 9.269531 2.5 C 8.742188 2.503906 8.214844 2.507812 7.6875 2.511719 C 7.417969 2.511719 7.144531 2.511719 6.875 2.515625 C 6.613281 2.515625 6.351562 2.515625 6.089844 2.515625 C 5.988281 2.519531 5.890625 2.519531 5.789062 2.519531 C 5.652344 2.519531 5.511719 2.519531 5.371094 2.519531 C 5.292969 2.523438 5.214844 2.523438 5.128906 2.523438 C 4.9375 2.5 4.9375 2.5 4.820312 2.417969 C 4.710938 2.257812 4.695312 2.128906 4.6875 1.9375 C 4.761719 1.765625 4.824219 1.660156 4.980469 1.554688 C 5.175781 1.480469 5.339844 1.484375 5.550781 1.484375 C 5.589844 1.484375 5.632812 1.484375 5.675781 1.484375 C 5.816406 1.484375 5.953125 1.488281 6.09375 1.488281 C 6.1875 1.488281 6.285156 1.488281 6.382812 1.488281 C 6.636719 1.488281 6.886719 1.488281 7.140625 1.492188 C 7.398438 1.492188 7.65625 1.492188 7.917969 1.492188 C 8.421875 1.496094 8.929688 1.496094 9.4375 1.5 C 9.4375 1.429688 9.433594 1.359375 9.433594 1.289062 C 9.4375 1.0625 9.4375 1.0625 9.507812 0.941406 C 9.6875 0.839844 9.792969 0.847656 10 0.875 Z M 10 0.875 "/>
<path style=" stroke:none;fill-rule:nonzero;fill:rgb(0.784314%,0.784314%,0.784314%);fill-opacity:1;" d="M 6.375 12.8125 C 6.492188 12.875 6.492188 12.875 6.5625 13 C 6.570312 13.167969 6.566406 13.332031 6.5625 13.5 C 6.644531 13.5 6.644531 13.5 6.730469 13.5 C 7.257812 13.496094 7.785156 13.492188 8.3125 13.488281 C 8.582031 13.488281 8.855469 13.488281 9.125 13.484375 C 9.386719 13.484375 9.648438 13.484375 9.910156 13.484375 C 10.011719 13.480469 10.109375 13.480469 10.210938 13.480469 C 10.347656 13.480469 10.488281 13.480469 10.628906 13.480469 C 10.707031 13.476562 10.785156 13.476562 10.871094 13.476562 C 11.0625 13.5 11.0625 13.5 11.179688 13.582031 C 11.289062 13.742188 11.304688 13.871094 11.3125 14.0625 C 11.238281 14.234375 11.175781 14.339844 11.019531 14.445312 C 10.824219 14.519531 10.660156 14.515625 10.449219 14.515625 C 10.386719 14.515625 10.386719 14.515625 10.324219 14.515625 C 10.183594 14.515625 10.046875 14.511719 9.90625 14.511719 C 9.8125 14.511719 9.714844 14.511719 9.617188 14.511719 C 9.363281 14.511719 9.113281 14.511719 8.859375 14.507812 C 8.601562 14.507812 8.34375 14.507812 8.082031 14.507812 C 7.578125 14.503906 7.070312 14.503906 6.5625 14.5 C 6.5625 14.570312 6.566406 14.640625 6.566406 14.710938 C 6.5625 14.9375 6.5625 14.9375 6.492188 15.058594 C 6.3125 15.160156 6.207031 15.152344 6 15.125 C 5.808594 15.023438 5.636719 14.898438 5.460938 14.769531 C 5.390625 14.71875 5.390625 14.71875 5.320312 14.667969 C 4.839844 14.324219 4.839844 14.324219 4.6875 14.0625 C 4.683594 13.851562 4.722656 13.777344 4.871094 13.625 C 4.921875 13.585938 4.972656 13.546875 5.027344 13.507812 C 5.082031 13.464844 5.140625 13.421875 5.199219 13.378906 C 5.257812 13.335938 5.316406 13.292969 5.375 13.25 C 5.457031 13.1875 5.457031 13.1875 5.542969 13.121094 C 5.59375 13.082031 5.648438 13.042969 5.703125 13 C 5.773438 12.945312 5.773438 12.945312 5.847656 12.890625 C 6.035156 12.792969 6.167969 12.792969 6.375 12.8125 Z M 6.375 12.8125 "/>
<path style=" stroke:none;fill-rule:nonzero;fill:rgb(1.176471%,1.176471%,1.176471%);fill-opacity:1;" d="M 14.25 4.75 C 14.410156 4.886719 14.492188 5 14.523438 5.210938 C 14.53125 5.382812 14.527344 5.554688 14.523438 5.730469 C 14.523438 5.789062 14.523438 5.851562 14.523438 5.914062 C 14.515625 6.359375 14.515625 6.359375 14.375 6.5 C 14.335938 6.628906 14.335938 6.628906 14.3125 6.75 C 14.40625 6.78125 14.40625 6.78125 14.5 6.8125 C 14.457031 7.007812 14.390625 7.1875 14.3125 7.375 C 14.40625 7.40625 14.40625 7.40625 14.5 7.4375 C 14.5 8.097656 14.5 8.757812 14.5 9.4375 C 14.644531 9.4375 14.789062 9.4375 14.9375 9.4375 C 15.125 9.5625 15.125 9.5625 15.183594 9.699219 C 15.191406 10.082031 14.851562 10.441406 14.625 10.734375 C 14.585938 10.785156 14.585938 10.785156 14.542969 10.839844 C 14.261719 11.207031 14.261719 11.207031 14.0625 11.3125 C 13.855469 11.308594 13.773438 11.273438 13.625 11.128906 C 13.585938 11.078125 13.546875 11.027344 13.507812 10.972656 C 13.464844 10.917969 13.421875 10.859375 13.378906 10.800781 C 13.335938 10.742188 13.292969 10.683594 13.25 10.625 C 13.207031 10.570312 13.164062 10.515625 13.121094 10.457031 C 13.082031 10.40625 13.042969 10.351562 13 10.296875 C 12.964844 10.25 12.925781 10.199219 12.890625 10.152344 C 12.792969 9.964844 12.792969 9.832031 12.8125 9.625 C 12.875 9.507812 12.875 9.507812 13 9.4375 C 13.167969 9.429688 13.332031 9.433594 13.5 9.4375 C 13.5 9.355469 13.5 9.355469 13.5 9.269531 C 13.496094 8.75 13.492188 8.234375 13.488281 7.714844 C 13.488281 7.449219 13.488281 7.179688 13.484375 6.914062 C 13.484375 6.65625 13.484375 6.398438 13.484375 6.140625 C 13.480469 6.042969 13.480469 5.945312 13.480469 5.847656 C 13.480469 5.710938 13.480469 5.574219 13.480469 5.4375 C 13.476562 5.316406 13.476562 5.316406 13.476562 5.199219 C 13.5 4.984375 13.535156 4.898438 13.6875 4.75 C 13.914062 4.675781 14.023438 4.683594 14.25 4.75 Z M 14.25 4.75 "/>
<path style=" stroke:none;fill-rule:nonzero;fill:rgb(0.392157%,0.392157%,0%);fill-opacity:1;" d="M 12.648438 0.09375 C 12.714844 0.09375 12.78125 0.09375 12.851562 0.0898438 C 12.957031 0.09375 12.957031 0.09375 13.066406 0.09375 C 13.179688 0.09375 13.179688 0.09375 13.292969 0.09375 C 13.449219 0.09375 13.605469 0.09375 13.761719 0.0976562 C 14.003906 0.0976562 14.242188 0.0976562 14.484375 0.0976562 C 14.636719 0.0976562 14.789062 0.0976562 14.941406 0.0976562 C 15.011719 0.0976562 15.082031 0.0976562 15.160156 0.0976562 C 15.222656 0.0976562 15.292969 0.0976562 15.359375 0.101562 C 15.449219 0.101562 15.449219 0.101562 15.539062 0.101562 C 15.714844 0.128906 15.769531 0.167969 15.875 0.3125 C 15.933594 0.492188 15.945312 0.609375 15.949219 0.796875 C 15.949219 0.859375 15.949219 0.917969 15.949219 0.980469 C 15.949219 1.042969 15.949219 1.109375 15.949219 1.175781 C 15.949219 1.246094 15.949219 1.3125 15.953125 1.378906 C 15.953125 1.523438 15.953125 1.664062 15.953125 1.804688 C 15.953125 2.023438 15.957031 2.238281 15.957031 2.457031 C 15.957031 2.59375 15.957031 2.730469 15.957031 2.867188 C 15.957031 2.933594 15.960938 2.996094 15.960938 3.066406 C 15.957031 3.632812 15.957031 3.632812 15.75 3.875 C 15.59375 3.953125 15.484375 3.945312 15.3125 3.949219 C 15.246094 3.949219 15.179688 3.949219 15.113281 3.949219 C 15.042969 3.949219 14.96875 3.953125 14.898438 3.953125 C 14.824219 3.953125 14.75 3.953125 14.675781 3.953125 C 14.523438 3.953125 14.367188 3.957031 14.214844 3.957031 C 13.976562 3.957031 13.742188 3.960938 13.503906 3.960938 C 13.355469 3.964844 13.207031 3.964844 13.058594 3.964844 C 12.988281 3.964844 12.914062 3.964844 12.84375 3.96875 C 12.777344 3.96875 12.710938 3.964844 12.644531 3.964844 C 12.585938 3.96875 12.527344 3.96875 12.46875 3.96875 C 12.257812 3.925781 12.1875 3.855469 12.0625 3.6875 C 12.03125 3.535156 12.03125 3.535156 12.03125 3.359375 C 12.03125 3.292969 12.027344 3.226562 12.027344 3.160156 C 12.027344 3.089844 12.027344 3.019531 12.03125 2.949219 C 12.027344 2.875 12.027344 2.800781 12.027344 2.726562 C 12.027344 2.574219 12.027344 2.421875 12.03125 2.265625 C 12.03125 2.03125 12.03125 1.796875 12.027344 1.5625 C 12.027344 1.414062 12.027344 1.265625 12.03125 1.117188 C 12.027344 1.042969 12.027344 0.972656 12.027344 0.902344 C 12.027344 0.835938 12.03125 0.769531 12.03125 0.703125 C 12.03125 0.644531 12.03125 0.589844 12.03125 0.527344 C 12.101562 0.183594 12.320312 0.09375 12.648438 0.09375 Z M 12.375 0.5 C 12.367188 0.59375 12.367188 0.6875 12.367188 0.78125 C 12.367188 0.839844 12.367188 0.898438 12.367188 0.960938 C 12.367188 1.027344 12.367188 1.089844 12.367188 1.15625 C 12.367188 1.222656 12.367188 1.289062 12.367188 1.359375 C 12.367188 1.5 12.367188 1.640625 12.367188 1.78125 C 12.367188 1.996094 12.367188 2.210938 12.367188 2.425781 C 12.367188 2.5625 12.367188 2.699219 12.367188 2.832031 C 12.367188 2.898438 12.367188 2.964844 12.367188 3.03125 C 12.367188 3.089844 12.367188 3.148438 12.367188 3.210938 C 12.367188 3.265625 12.367188 3.316406 12.367188 3.371094 C 12.367188 3.503906 12.367188 3.503906 12.4375 3.625 C 12.871094 3.625 13.308594 3.628906 13.742188 3.628906 C 13.890625 3.628906 14.039062 3.628906 14.1875 3.628906 C 14.398438 3.628906 14.613281 3.628906 14.824219 3.632812 C 14.890625 3.632812 14.957031 3.632812 15.027344 3.632812 C 15.085938 3.632812 15.148438 3.632812 15.210938 3.632812 C 15.265625 3.632812 15.320312 3.632812 15.375 3.632812 C 15.5 3.636719 15.5 3.636719 15.5625 3.5625 C 15.566406 3.464844 15.570312 3.371094 15.570312 3.277344 C 15.570312 3.183594 15.570312 3.183594 15.570312 3.089844 C 15.570312 3.023438 15.570312 2.957031 15.570312 2.886719 C 15.570312 2.820312 15.570312 2.753906 15.570312 2.683594 C 15.570312 2.539062 15.570312 2.394531 15.570312 2.253906 C 15.570312 2.03125 15.570312 1.8125 15.570312 1.589844 C 15.570312 1.453125 15.570312 1.3125 15.570312 1.171875 C 15.570312 1.105469 15.570312 1.042969 15.570312 0.972656 C 15.570312 0.910156 15.570312 0.851562 15.570312 0.789062 C 15.570312 0.734375 15.570312 0.679688 15.570312 0.625 C 15.574219 0.5 15.574219 0.5 15.5 0.4375 C 15.40625 0.429688 15.308594 0.429688 15.210938 0.429688 C 15.152344 0.429688 15.089844 0.429688 15.027344 0.429688 C 14.960938 0.429688 14.894531 0.429688 14.828125 0.429688 C 14.757812 0.429688 14.691406 0.429688 14.621094 0.429688 C 14.476562 0.429688 14.332031 0.429688 14.191406 0.429688 C 13.96875 0.429688 13.75 0.429688 13.527344 0.429688 C 13.390625 0.429688 13.25 0.429688 13.113281 0.429688 C 13.042969 0.429688 12.976562 0.429688 12.910156 0.429688 C 12.816406 0.429688 12.816406 0.429688 12.722656 0.429688 C 12.644531 0.429688 12.644531 0.429688 12.5625 0.429688 C 12.4375 0.421875 12.4375 0.421875 12.375 0.5 Z M 12.375 0.5 "/>
<path style=" stroke:none;fill-rule:nonzero;fill:rgb(3.137255%,1.176471%,0.392157%);fill-opacity:1;" d="M 2.1875 0.0898438 C 2.421875 0.132812 2.511719 0.214844 2.6875 0.375 C 2.804688 0.546875 2.804688 0.546875 2.914062 0.746094 C 2.945312 0.796875 2.945312 0.796875 2.976562 0.851562 C 3.039062 0.96875 3.105469 1.082031 3.167969 1.199219 C 3.234375 1.320312 3.300781 1.4375 3.367188 1.558594 C 3.410156 1.636719 3.457031 1.714844 3.5 1.792969 C 3.625 2.019531 3.757812 2.242188 3.890625 2.460938 C 3.921875 2.507812 3.949219 2.558594 3.980469 2.605469 C 4.03125 2.691406 4.085938 2.777344 4.140625 2.859375 C 4.304688 3.125 4.363281 3.316406 4.3125 3.625 C 4.207031 3.785156 4.164062 3.847656 4 3.9375 C 3.734375 3.984375 3.46875 3.976562 3.199219 3.972656 C 3.082031 3.972656 3.082031 3.972656 2.960938 3.972656 C 2.796875 3.972656 2.632812 3.96875 2.46875 3.96875 C 2.257812 3.964844 2.046875 3.964844 1.835938 3.964844 C 1.632812 3.964844 1.433594 3.960938 1.230469 3.960938 C 1.15625 3.960938 1.078125 3.960938 1 3.960938 C 0.929688 3.957031 0.859375 3.957031 0.789062 3.957031 C 0.695312 3.957031 0.695312 3.957031 0.601562 3.953125 C 0.433594 3.9375 0.328125 3.90625 0.1875 3.8125 C 0.0429688 3.5625 0.0585938 3.398438 0.125 3.125 C 0.207031 2.96875 0.289062 2.820312 0.382812 2.671875 C 0.4375 2.578125 0.496094 2.484375 0.550781 2.390625 C 0.582031 2.339844 0.613281 2.289062 0.648438 2.234375 C 0.765625 2.039062 0.875 1.839844 0.988281 1.640625 C 1.03125 1.570312 1.074219 1.496094 1.113281 1.421875 C 1.195312 1.277344 1.277344 1.132812 1.359375 0.988281 C 1.394531 0.921875 1.433594 0.855469 1.472656 0.785156 C 1.523438 0.695312 1.523438 0.695312 1.574219 0.605469 C 1.742188 0.355469 1.886719 0.144531 2.1875 0.0898438 Z M 2.0625 0.5 C 2.035156 0.546875 2.007812 0.59375 1.980469 0.644531 C 1.878906 0.824219 1.773438 1.007812 1.671875 1.1875 C 1.601562 1.308594 1.53125 1.429688 1.464844 1.550781 C 1.265625 1.902344 1.0625 2.25 0.855469 2.59375 C 0.824219 2.640625 0.796875 2.691406 0.765625 2.742188 C 0.710938 2.828125 0.65625 2.914062 0.605469 3 C 0.523438 3.128906 0.523438 3.128906 0.4375 3.3125 C 0.457031 3.394531 0.480469 3.476562 0.5 3.5625 C 1.632812 3.5625 2.769531 3.5625 3.9375 3.5625 C 4.019531 3.378906 4.019531 3.378906 3.9375 3.226562 C 3.902344 3.167969 3.871094 3.113281 3.835938 3.050781 C 3.800781 2.988281 3.765625 2.921875 3.726562 2.855469 C 3.6875 2.789062 3.644531 2.71875 3.605469 2.648438 C 3.566406 2.578125 3.527344 2.507812 3.484375 2.4375 C 3.367188 2.226562 3.246094 2.019531 3.125 1.8125 C 3.09375 1.753906 3.058594 1.699219 3.023438 1.640625 C 2.710938 1.039062 2.710938 1.039062 2.3125 0.5 C 2.230469 0.5 2.148438 0.5 2.0625 0.5 Z M 2.0625 0.5 "/>
<path style=" stroke:none;fill-rule:nonzero;fill:rgb(1.176471%,0.392157%,0%);fill-opacity:1;" d="M 13.160156 12.03125 C 13.207031 12.03125 13.253906 12.03125 13.300781 12.03125 C 13.398438 12.03125 13.496094 12.03125 13.59375 12.03125 C 13.742188 12.03125 13.890625 12.027344 14.039062 12.027344 C 14.132812 12.027344 14.230469 12.023438 14.324219 12.027344 C 14.390625 12.023438 14.390625 12.023438 14.457031 12.023438 C 14.695312 12.027344 14.800781 12.054688 14.988281 12.203125 C 15.101562 12.347656 15.199219 12.480469 15.285156 12.636719 C 15.324219 12.710938 15.324219 12.710938 15.367188 12.785156 C 15.40625 12.859375 15.40625 12.859375 15.445312 12.933594 C 15.472656 12.984375 15.5 13.03125 15.527344 13.082031 C 15.578125 13.179688 15.628906 13.273438 15.679688 13.371094 C 15.742188 13.480469 15.804688 13.589844 15.867188 13.699219 C 15.957031 13.917969 15.929688 14.019531 15.875 14.25 C 15.789062 14.429688 15.789062 14.429688 15.683594 14.609375 C 15.644531 14.675781 15.605469 14.742188 15.566406 14.808594 C 15.523438 14.878906 15.484375 14.945312 15.441406 15.015625 C 15.402344 15.085938 15.359375 15.152344 15.320312 15.222656 C 15.019531 15.730469 15.019531 15.730469 14.875 15.875 C 14.710938 15.890625 14.554688 15.894531 14.394531 15.894531 C 14.34375 15.894531 14.296875 15.898438 14.25 15.898438 C 14.148438 15.898438 14.046875 15.898438 13.945312 15.898438 C 13.789062 15.898438 13.636719 15.902344 13.480469 15.902344 C 13.382812 15.902344 13.285156 15.902344 13.1875 15.902344 C 13.117188 15.90625 13.117188 15.90625 13.046875 15.90625 C 12.839844 15.90625 12.714844 15.894531 12.542969 15.769531 C 12.34375 15.5 12.179688 15.210938 12.015625 14.917969 C 11.976562 14.855469 11.941406 14.789062 11.902344 14.722656 C 11.867188 14.664062 11.832031 14.601562 11.792969 14.535156 C 11.761719 14.480469 11.730469 14.421875 11.695312 14.363281 C 11.582031 14.078125 11.582031 13.851562 11.703125 13.566406 C 11.738281 13.507812 11.773438 13.445312 11.808594 13.386719 C 11.847656 13.320312 11.886719 13.253906 11.925781 13.1875 C 11.96875 13.121094 12.007812 13.054688 12.050781 12.984375 C 12.089844 12.917969 12.132812 12.847656 12.171875 12.777344 C 12.617188 12.03125 12.617188 12.03125 13.160156 12.03125 Z M 12.648438 12.628906 C 12.597656 12.730469 12.546875 12.832031 12.5 12.9375 C 12.445312 13.023438 12.394531 13.105469 12.339844 13.1875 C 12.289062 13.265625 12.242188 13.347656 12.191406 13.425781 C 12.164062 13.464844 12.140625 13.503906 12.113281 13.546875 C 11.976562 13.757812 11.976562 13.757812 11.953125 13.996094 C 12.003906 14.136719 12.0625 14.257812 12.136719 14.382812 C 12.164062 14.433594 12.191406 14.480469 12.21875 14.53125 C 12.246094 14.582031 12.273438 14.632812 12.304688 14.683594 C 12.332031 14.734375 12.359375 14.78125 12.390625 14.835938 C 12.46875 14.972656 12.546875 15.113281 12.625 15.25 C 12.664062 15.332031 12.664062 15.332031 12.703125 15.417969 C 12.804688 15.578125 12.804688 15.578125 12.992188 15.621094 C 13.230469 15.644531 13.46875 15.660156 13.710938 15.667969 C 13.753906 15.667969 13.796875 15.671875 13.839844 15.671875 C 14.210938 15.675781 14.554688 15.667969 14.855469 15.429688 C 15.199219 15.015625 15.515625 14.421875 15.5625 13.875 C 15.5 13.703125 15.5 13.703125 15.394531 13.53125 C 15.339844 13.4375 15.339844 13.4375 15.28125 13.339844 C 15.242188 13.273438 15.203125 13.207031 15.164062 13.140625 C 15.125 13.074219 15.085938 13.007812 15.046875 12.9375 C 14.890625 12.640625 14.890625 12.640625 14.6875 12.375 C 14.433594 12.351562 14.183594 12.34375 13.929688 12.339844 C 13.84375 12.335938 13.757812 12.332031 13.675781 12.328125 C 13.082031 12.28125 13.082031 12.28125 12.648438 12.628906 Z M 12.648438 12.628906 "/>
<path style=" stroke:none;fill-rule:nonzero;fill:rgb(2.745098%,3.529412%,4.313726%);fill-opacity:1;" d="M 9.394531 6.160156 C 9.824219 6.5 10.105469 6.972656 10.25 7.5 C 10.316406 8.15625 10.25 8.660156 9.9375 9.25 C 9.835938 9.230469 9.730469 9.207031 9.625 9.1875 C 9.707031 8.9375 9.792969 8.6875 9.875 8.4375 C 9.925781 7.84375 9.902344 7.378906 9.5625 6.875 C 9.523438 6.816406 9.488281 6.757812 9.449219 6.699219 C 9.039062 6.289062 8.5625 6.109375 7.984375 6.097656 C 7.539062 6.105469 7.242188 6.191406 6.875 6.4375 C 6.808594 6.480469 6.742188 6.523438 6.671875 6.566406 C 6.339844 6.871094 6.152344 7.296875 6.09375 7.734375 C 6.074219 8.332031 6.183594 8.769531 6.507812 9.265625 C 7.027344 9.761719 7.5 9.886719 8.199219 9.882812 C 8.46875 9.875 8.730469 9.851562 9 9.8125 C 9 9.894531 9 9.976562 9 10.0625 C 8.484375 10.320312 7.875 10.332031 7.316406 10.207031 C 6.589844 9.945312 6.175781 9.441406 5.820312 8.78125 C 5.628906 8.199219 5.660156 7.511719 5.933594 6.964844 C 6.238281 6.429688 6.664062 6.023438 7.25 5.8125 C 8.011719 5.621094 8.742188 5.722656 9.394531 6.160156 Z M 9.394531 6.160156 "/>
<path style=" stroke:none;fill-rule:nonzero;fill:rgb(1.176471%,0.784314%,0%);fill-opacity:1;" d="M 2.949219 12.238281 C 3.0625 12.3125 3.0625 12.3125 3.125 12.5 C 3.082031 12.542969 3.042969 12.582031 3 12.625 C 2.820312 12.605469 2.65625 12.550781 2.484375 12.496094 C 1.988281 12.371094 1.652344 12.410156 1.203125 12.660156 C 0.855469 12.882812 0.621094 13.167969 0.5 13.5625 C 0.433594 14.046875 0.488281 14.460938 0.75 14.875 C 1.019531 15.195312 1.355469 15.472656 1.785156 15.515625 C 2.316406 15.535156 2.707031 15.4375 3.117188 15.089844 C 3.425781 14.765625 3.570312 14.367188 3.578125 13.921875 C 3.570312 13.695312 3.570312 13.695312 3.523438 13.507812 C 3.511719 13.441406 3.511719 13.441406 3.5 13.375 C 3.542969 13.332031 3.582031 13.292969 3.625 13.25 C 3.757812 13.273438 3.757812 13.273438 3.875 13.3125 C 4.027344 13.820312 3.992188 14.378906 3.769531 14.855469 C 3.472656 15.367188 3.070312 15.714844 2.5 15.875 C 1.835938 15.949219 1.308594 15.894531 0.75 15.5 C 0.375 15.179688 0.113281 14.679688 0.0625 14.1875 C 0.0195312 13.660156 0.171875 13.167969 0.5 12.75 C 1.164062 12.019531 2.042969 11.851562 2.949219 12.238281 Z M 2.949219 12.238281 "/>
<path style=" stroke:none;fill-rule:nonzero;fill:rgb(89.019608%,89.019608%,89.019608%);fill-opacity:1;" d="M 13.875 5.0625 C 13.957031 5.082031 14.039062 5.105469 14.125 5.125 C 14.144531 5.539062 14.167969 5.949219 14.1875 6.375 C 14.230469 6.394531 14.269531 6.417969 14.3125 6.4375 C 14.3125 6.539062 14.3125 6.644531 14.3125 6.75 C 14.375 6.769531 14.4375 6.792969 14.5 6.8125 C 14.453125 7.054688 14.363281 7.324219 14.1875 7.5 C 14.183594 7.660156 14.179688 7.824219 14.179688 7.984375 C 14.179688 8.058594 14.179688 8.058594 14.183594 8.132812 C 14.183594 8.285156 14.183594 8.441406 14.183594 8.597656 C 14.183594 8.703125 14.183594 8.808594 14.183594 8.914062 C 14.183594 9.171875 14.1875 9.429688 14.1875 9.6875 C 14.394531 9.707031 14.601562 9.730469 14.8125 9.75 C 14.71875 10.039062 14.5625 10.25 14.378906 10.488281 C 14.351562 10.527344 14.324219 10.5625 14.296875 10.601562 C 14.222656 10.695312 14.140625 10.785156 14.0625 10.875 C 14 10.875 13.9375 10.875 13.875 10.875 C 13.757812 10.738281 13.65625 10.601562 13.554688 10.453125 C 13.511719 10.394531 13.511719 10.394531 13.46875 10.332031 C 13.324219 10.128906 13.25 10 13.1875 9.75 C 13.394531 9.75 13.601562 9.75 13.8125 9.75 C 13.8125 9.691406 13.8125 9.632812 13.8125 9.574219 C 13.8125 9.03125 13.808594 8.488281 13.808594 7.945312 C 13.808594 7.664062 13.808594 7.386719 13.808594 7.105469 C 13.808594 6.835938 13.808594 6.566406 13.808594 6.296875 C 13.804688 6.195312 13.804688 6.089844 13.804688 5.988281 C 13.804688 5.84375 13.804688 5.699219 13.804688 5.558594 C 13.804688 5.472656 13.804688 5.390625 13.804688 5.308594 C 13.8125 5.125 13.8125 5.125 13.875 5.0625 Z M 13.875 5.0625 "/>
<path style=" stroke:none;fill-rule:nonzero;fill:rgb(89.803922%,89.803922%,89.803922%);fill-opacity:1;" d="M 9.75 1.1875 C 10.003906 1.3125 10.222656 1.457031 10.453125 1.621094 C 10.515625 1.664062 10.515625 1.664062 10.578125 1.703125 C 10.679688 1.777344 10.777344 1.855469 10.875 1.9375 C 10.875 2.125 10.875 2.125 10.785156 2.214844 C 10.746094 2.246094 10.703125 2.277344 10.660156 2.308594 C 10.617188 2.339844 10.570312 2.375 10.527344 2.40625 C 10.480469 2.441406 10.429688 2.476562 10.382812 2.511719 C 10.335938 2.546875 10.289062 2.582031 10.242188 2.617188 C 9.890625 2.875 9.890625 2.875 9.75 2.875 C 9.730469 2.667969 9.707031 2.460938 9.6875 2.25 C 8.183594 2.230469 6.675781 2.207031 5.125 2.1875 C 5.105469 2.105469 5.082031 2.023438 5.0625 1.9375 C 5.179688 1.820312 5.394531 1.863281 5.550781 1.863281 C 5.617188 1.859375 5.617188 1.859375 5.6875 1.859375 C 5.832031 1.859375 5.980469 1.855469 6.128906 1.855469 C 6.230469 1.855469 6.332031 1.851562 6.4375 1.851562 C 6.703125 1.847656 6.976562 1.84375 7.246094 1.84375 C 7.519531 1.839844 7.792969 1.835938 8.070312 1.832031 C 8.609375 1.824219 9.148438 1.820312 9.6875 1.8125 C 9.707031 1.605469 9.730469 1.398438 9.75 1.1875 Z M 9.75 1.1875 "/>
<path style=" stroke:none;fill-rule:nonzero;fill:rgb(89.803922%,89.803922%,89.803922%);fill-opacity:1;" d="M 6.125 13.125 C 6.167969 13.125 6.207031 13.125 6.25 13.125 C 6.269531 13.332031 6.292969 13.539062 6.3125 13.75 C 7.816406 13.769531 9.324219 13.792969 10.875 13.8125 C 10.90625 13.9375 10.90625 13.9375 10.9375 14.0625 C 10.820312 14.179688 10.605469 14.136719 10.449219 14.136719 C 10.382812 14.140625 10.382812 14.140625 10.3125 14.140625 C 10.167969 14.140625 10.019531 14.144531 9.871094 14.144531 C 9.769531 14.144531 9.667969 14.148438 9.5625 14.148438 C 9.296875 14.152344 9.023438 14.15625 8.753906 14.15625 C 8.480469 14.160156 8.207031 14.164062 7.929688 14.167969 C 7.390625 14.175781 6.851562 14.179688 6.3125 14.1875 C 6.292969 14.394531 6.269531 14.601562 6.25 14.8125 C 5.996094 14.6875 5.777344 14.542969 5.546875 14.378906 C 5.507812 14.351562 5.464844 14.324219 5.421875 14.296875 C 5.320312 14.222656 5.222656 14.144531 5.125 14.0625 C 5.125 14 5.125 13.9375 5.125 13.875 C 5.210938 13.792969 5.210938 13.792969 5.328125 13.707031 C 5.371094 13.679688 5.410156 13.648438 5.453125 13.617188 C 5.5 13.585938 5.542969 13.554688 5.589844 13.523438 C 5.675781 13.460938 5.765625 13.398438 5.851562 13.335938 C 5.890625 13.308594 5.929688 13.28125 5.96875 13.253906 C 6.0625 13.191406 6.0625 13.191406 6.125 13.125 Z M 6.125 13.125 "/>
<path style=" stroke:none;fill-rule:nonzero;fill:rgb(89.411765%,89.411765%,89.411765%);fill-opacity:1;" d="M 2 5.0625 C 2.320312 5.351562 2.585938 5.695312 2.8125 6.0625 C 2.8125 6.125 2.8125 6.1875 2.8125 6.25 C 2.605469 6.25 2.398438 6.25 2.1875 6.25 C 2.1875 7.777344 2.1875 9.300781 2.1875 10.875 C 2.0625 10.90625 2.0625 10.90625 1.9375 10.9375 C 1.820312 10.820312 1.863281 10.605469 1.863281 10.449219 C 1.859375 10.40625 1.859375 10.359375 1.859375 10.3125 C 1.859375 10.167969 1.855469 10.019531 1.855469 9.871094 C 1.855469 9.769531 1.851562 9.667969 1.851562 9.5625 C 1.847656 9.296875 1.84375 9.023438 1.84375 8.753906 C 1.839844 8.480469 1.835938 8.207031 1.832031 7.929688 C 1.824219 7.390625 1.820312 6.851562 1.8125 6.3125 C 1.605469 6.292969 1.398438 6.269531 1.1875 6.25 C 1.28125 5.960938 1.441406 5.75 1.628906 5.515625 C 1.65625 5.480469 1.6875 5.441406 1.714844 5.402344 C 1.921875 5.140625 1.921875 5.140625 2 5.0625 Z M 2 5.0625 "/>
<path style=" stroke:none;fill-rule:nonzero;fill:rgb(3.921569%,5.882353%,5.098039%);fill-opacity:1;" d="M 8.875 7.1875 C 9.023438 7.25 9.023438 7.25 9.125 7.375 C 9.171875 7.628906 9.1875 7.777344 9.046875 8 C 8.933594 8.132812 8.8125 8.253906 8.6875 8.375 C 8.640625 8.425781 8.589844 8.476562 8.542969 8.527344 C 8.09375 8.992188 8.09375 8.992188 7.875 9.0625 C 7.464844 9.050781 7.273438 8.828125 7 8.542969 C 6.878906 8.382812 6.828125 8.300781 6.820312 8.101562 C 6.875 7.875 6.875 7.875 6.972656 7.714844 C 7.191406 7.585938 7.320312 7.628906 7.5625 7.6875 C 7.648438 7.726562 7.730469 7.769531 7.8125 7.8125 C 7.871094 7.753906 7.871094 7.753906 7.929688 7.691406 C 7.984375 7.640625 8.03125 7.589844 8.085938 7.535156 C 8.136719 7.484375 8.1875 7.433594 8.238281 7.378906 C 8.453125 7.175781 8.585938 7.164062 8.875 7.1875 Z M 8.875 7.1875 "/>
<path style=" stroke:none;fill-rule:nonzero;fill:rgb(65.882355%,65.882355%,65.882355%);fill-opacity:1;" d="M 8.929688 6.234375 C 9.226562 6.410156 9.503906 6.636719 9.6875 6.9375 C 9.6875 6.980469 9.6875 7.019531 9.6875 7.0625 C 9.519531 6.992188 9.414062 6.917969 9.277344 6.789062 C 8.84375 6.421875 8.308594 6.332031 7.753906 6.351562 C 7.160156 6.425781 6.691406 6.808594 6.25 7.1875 C 6.429688 6.632812 6.816406 6.382812 7.3125 6.125 C 7.816406 5.957031 8.449219 6.007812 8.929688 6.234375 Z M 8.929688 6.234375 "/>
<path style=" stroke:none;fill-rule:nonzero;fill:rgb(96.862745%,88.627452%,65.098041%);fill-opacity:1;" d="M 1.328125 13.015625 C 1.363281 13.03125 1.402344 13.046875 1.4375 13.0625 C 1.410156 13.246094 1.359375 13.332031 1.246094 13.484375 C 1.101562 13.726562 1.070312 13.914062 1.125 14.1875 C 1.183594 14.320312 1.246094 14.445312 1.320312 14.570312 C 1.375 14.6875 1.375 14.6875 1.375 14.9375 C 1.234375 14.933594 1.234375 14.933594 1.0625 14.875 C 0.765625 14.496094 0.707031 14.09375 0.75 13.625 C 0.847656 13.363281 1.003906 12.980469 1.328125 13.015625 Z M 1.328125 13.015625 "/>
<path style=" stroke:none;fill-rule:nonzero;fill:rgb(6.666667%,70.588237%,40.392157%);fill-opacity:1;" d="M 8.8125 7.5 C 8.796875 7.851562 8.5625 8.039062 8.328125 8.273438 C 8.289062 8.3125 8.25 8.355469 8.210938 8.398438 C 7.921875 8.6875 7.921875 8.6875 7.703125 8.691406 C 7.484375 8.585938 7.324219 8.453125 7.1875 8.25 C 7.195312 8.070312 7.195312 8.070312 7.25 7.9375 C 7.40625 8.007812 7.503906 8.066406 7.625 8.1875 C 7.847656 8.183594 7.929688 8.132812 8.097656 7.980469 C 8.148438 7.925781 8.199219 7.867188 8.253906 7.808594 C 8.535156 7.5 8.535156 7.5 8.8125 7.5 Z M 8.8125 7.5 "/>
<path style=" stroke:none;fill-rule:nonzero;fill:rgb(99.607843%,76.47059%,72.549021%);fill-opacity:1;" d="M 13.0625 12.6875 C 13.125 12.707031 13.1875 12.730469 13.25 12.75 C 13.210938 13.132812 13.042969 13.375 12.835938 13.695312 C 12.738281 13.902344 12.742188 13.972656 12.8125 14.1875 C 12.832031 14.292969 12.855469 14.394531 12.875 14.5 C 12.792969 14.519531 12.710938 14.542969 12.625 14.5625 C 12.570312 14.484375 12.515625 14.410156 12.464844 14.332031 C 12.433594 14.289062 12.40625 14.246094 12.375 14.203125 C 12.292969 14.015625 12.308594 13.945312 12.375 13.75 C 12.460938 13.585938 12.554688 13.425781 12.652344 13.269531 C 12.679688 13.226562 12.703125 13.183594 12.730469 13.140625 C 12.832031 12.976562 12.925781 12.824219 13.0625 12.6875 Z M 13.0625 12.6875 "/>
<path style=" stroke:none;fill-rule:nonzero;fill:rgb(96.862745%,88.627452%,64.313728%);fill-opacity:1;" d="M 12.75 0.75 C 12.875 0.78125 12.875 0.78125 13 0.8125 C 13 1.347656 13 1.886719 13 2.4375 C 12.917969 2.457031 12.835938 2.480469 12.75 2.5 C 12.640625 2.390625 12.679688 2.226562 12.679688 2.078125 C 12.679688 2.003906 12.679688 1.933594 12.679688 1.859375 C 12.679688 1.78125 12.679688 1.703125 12.679688 1.625 C 12.679688 1.546875 12.679688 1.472656 12.679688 1.390625 C 12.679688 1.320312 12.679688 1.246094 12.679688 1.171875 C 12.679688 1.105469 12.679688 1.035156 12.679688 0.96875 C 12.6875 0.8125 12.6875 0.8125 12.75 0.75 Z M 12.75 0.75 "/>
<path style=" stroke:none;fill-rule:nonzero;fill:rgb(99.607843%,76.862746%,73.333335%);fill-opacity:1;" d="M 2.0625 1.125 C 2.164062 1.144531 2.269531 1.167969 2.375 1.1875 C 2.28125 1.527344 2.117188 1.792969 1.929688 2.085938 C 1.902344 2.132812 1.871094 2.179688 1.839844 2.226562 C 1.769531 2.339844 1.699219 2.449219 1.625 2.5625 C 1.542969 2.542969 1.460938 2.519531 1.375 2.5 C 1.40625 2.167969 1.582031 1.914062 1.753906 1.636719 C 1.78125 1.585938 1.8125 1.539062 1.84375 1.488281 C 1.917969 1.367188 1.988281 1.246094 2.0625 1.125 Z M 2.0625 1.125 "/>
<path style=" stroke:none;fill-rule:nonzero;fill:rgb(96.862745%,88.235295%,63.921571%);fill-opacity:1;" d="M 1.941406 14.933594 C 2.03125 14.933594 2.03125 14.933594 2.125 14.9375 C 2.160156 15.058594 2.160156 15.058594 2.1875 15.1875 C 2.125 15.25 2.125 15.25 1.933594 15.253906 C 1.875 15.253906 1.8125 15.25 1.75 15.25 C 1.714844 15.128906 1.714844 15.128906 1.6875 15 C 1.75 14.9375 1.75 14.9375 1.941406 14.933594 Z M 1.941406 14.933594 "/>
<path style=" stroke:none;fill-rule:nonzero;fill:rgb(96.862745%,87.843138%,62.352943%);fill-opacity:1;" d="M 12.75 2.8125 C 12.878906 2.839844 12.878906 2.839844 13 2.875 C 13 3 13 3.121094 13 3.25 C 12.878906 3.285156 12.878906 3.285156 12.75 3.3125 C 12.6875 3.25 12.6875 3.25 12.679688 3.0625 C 12.6875 2.875 12.6875 2.875 12.75 2.8125 Z M 12.75 2.8125 "/>
<path style=" stroke:none;fill-rule:nonzero;fill:rgb(99.607843%,76.47059%,72.941178%);fill-opacity:1;" d="M 1.125 2.8125 C 1.257812 2.835938 1.257812 2.835938 1.375 2.875 C 1.355469 2.976562 1.332031 3.082031 1.3125 3.1875 C 1.210938 3.207031 1.105469 3.230469 1 3.25 C 0.992188 3.101562 0.992188 3.101562 1 2.9375 C 1.042969 2.894531 1.082031 2.855469 1.125 2.8125 Z M 1.125 2.8125 "/>
<path style=" stroke:none;fill-rule:nonzero;fill:rgb(99.607843%,76.862746%,72.941178%);fill-opacity:1;" d="M 12.875 14.8125 C 13.03125 14.84375 13.03125 14.84375 13.1875 14.875 C 13.207031 14.976562 13.230469 15.082031 13.25 15.1875 C 13.167969 15.207031 13.085938 15.230469 13 15.25 C 12.875 15.0625 12.875 15.0625 12.875 14.8125 Z M 12.875 14.8125 "/>
<path style=" stroke:none;fill-rule:nonzero;fill:rgb(5.882353%,5.098039%,0.392157%);fill-opacity:1;" d="M 3.25 12.6875 C 3.40625 12.71875 3.40625 12.71875 3.5625 12.75 C 3.5625 12.832031 3.5625 12.914062 3.5625 13 C 3.441406 13.035156 3.441406 13.035156 3.3125 13.0625 C 3.25 13 3.25 13 3.246094 12.839844 C 3.246094 12.789062 3.25 12.738281 3.25 12.6875 Z M 3.25 12.6875 "/>
<path style=" stroke:none;fill-rule:nonzero;fill:rgb(3.921569%,3.921569%,3.921569%);fill-opacity:1;" d="M 14.25 6.75 C 14.332031 6.769531 14.414062 6.792969 14.5 6.8125 C 14.476562 6.933594 14.476562 6.933594 14.4375 7.0625 C 14.375 7.09375 14.375 7.09375 14.3125 7.125 C 14.25 7.082031 14.1875 7.042969 14.125 7 C 14.167969 6.917969 14.207031 6.835938 14.25 6.75 Z M 14.25 6.75 "/>
<path style=" stroke:none;fill-rule:nonzero;fill:rgb(3.529412%,4.313726%,5.098039%);fill-opacity:1;" d="M 9.3125 9.4375 C 9.375 9.457031 9.4375 9.480469 9.5 9.5 C 9.5 9.582031 9.5 9.664062 9.5 9.75 C 9.417969 9.730469 9.335938 9.707031 9.25 9.6875 C 9.269531 9.605469 9.292969 9.523438 9.3125 9.4375 Z M 9.3125 9.4375 "/>
</g>
</svg>
