<?xml version="1.0" encoding="UTF-8"?>
<svg xmlns="http://www.w3.org/2000/svg" xmlns:xlink="http://www.w3.org/1999/xlink" width="16" height="16" viewBox="0 0 16 16" version="1.1">
<g id="surface1">
<path style=" stroke:none;fill-rule:nonzero;fill:rgb(99.607843%,28.627452%,28.627452%);fill-opacity:1;" d="M 0 0.5 C 0.90625 0.5 1.816406 0.5 2.75 0.5 C 2.9375 1.167969 3.117188 1.820312 3.25 2.5 C 3.3125 2.480469 3.371094 2.460938 3.4375 2.4375 C 3.699219 2.363281 3.945312 2.355469 4.21875 2.359375 C 4.285156 2.359375 4.285156 2.359375 4.355469 2.359375 C 4.65625 2.359375 4.902344 2.40625 5.1875 2.5 C 5.210938 2.394531 5.210938 2.394531 5.234375 2.285156 C 5.253906 2.1875 5.277344 2.089844 5.296875 1.992188 C 5.308594 1.945312 5.316406 1.898438 5.328125 1.851562 C 5.425781 1.390625 5.558594 0.953125 5.6875 0.5 C 6.59375 0.5 7.503906 0.5 8.4375 0.5 C 8.4375 0.808594 8.4375 1.117188 8.4375 1.4375 C 7.796875 1.4375 7.160156 1.4375 6.5 1.4375 C 6.40625 1.851562 6.40625 1.851562 6.316406 2.269531 C 6.277344 2.4375 6.238281 2.605469 6.195312 2.773438 C 6.113281 3.082031 6.113281 3.082031 6.183594 3.386719 C 6.238281 3.472656 6.296875 3.554688 6.355469 3.636719 C 6.503906 3.839844 6.558594 4.070312 6.566406 4.320312 C 6.585938 4.699219 6.703125 4.878906 6.945312 5.167969 C 7.617188 6.007812 7.5 6.933594 7.5 8 C 9.6875 8 11.871094 8 14.125 8 C 14.144531 8.453125 14.167969 8.90625 14.1875 9.375 C 14.289062 9.273438 14.394531 9.167969 14.5 9.0625 C 14.792969 8.867188 15.09375 8.902344 15.4375 8.9375 C 15.722656 9.074219 15.863281 9.214844 16 9.5 C 16.019531 9.679688 16.027344 9.847656 16.023438 10.027344 C 16.027344 10.109375 16.027344 10.109375 16.027344 10.1875 C 16.027344 10.359375 16.027344 10.535156 16.027344 10.707031 C 16.027344 10.828125 16.027344 10.949219 16.027344 11.070312 C 16.027344 11.320312 16.027344 11.574219 16.027344 11.828125 C 16.027344 12.148438 16.027344 12.472656 16.03125 12.796875 C 16.03125 13.046875 16.03125 13.292969 16.03125 13.542969 C 16.03125 13.660156 16.03125 13.78125 16.03125 13.902344 C 16.03125 14.066406 16.03125 14.234375 16.03125 14.402344 C 16.03125 14.449219 16.03125 14.5 16.03125 14.550781 C 16.027344 14.871094 15.960938 15.054688 15.75 15.3125 C 15.421875 15.566406 15.085938 15.546875 14.6875 15.5 C 14.398438 15.363281 14.265625 15.21875 14.125 14.9375 C 14.101562 14.753906 14.101562 14.753906 14.097656 14.546875 C 14.097656 14.46875 14.09375 14.390625 14.09375 14.3125 C 14.09375 14.226562 14.09375 14.144531 14.09375 14.058594 C 14.09375 13.972656 14.089844 13.886719 14.089844 13.800781 C 14.085938 13.574219 14.085938 13.347656 14.082031 13.121094 C 14.082031 12.886719 14.078125 12.65625 14.074219 12.425781 C 14.070312 11.96875 14.066406 11.515625 14.0625 11.0625 C 14.035156 11.128906 14.003906 11.199219 13.976562 11.269531 C 13.730469 11.851562 13.3125 12.289062 12.75 12.5625 C 12.375 12.695312 12.027344 12.707031 11.632812 12.707031 C 11.566406 12.707031 11.5 12.707031 11.433594 12.707031 C 11.296875 12.707031 11.160156 12.707031 11.023438 12.707031 C 10.816406 12.707031 10.609375 12.707031 10.402344 12.710938 C 10.269531 12.710938 10.136719 12.710938 10.003906 12.710938 C 9.941406 12.710938 9.878906 12.710938 9.816406 12.710938 C 9.128906 12.707031 8.574219 12.449219 8.078125 11.976562 C 7.824219 11.707031 7.644531 11.429688 7.5625 11.0625 C 7.5625 11.109375 7.5625 11.152344 7.5625 11.199219 C 7.558594 11.402344 7.550781 11.609375 7.546875 11.8125 C 7.546875 11.882812 7.546875 11.953125 7.542969 12.027344 C 7.53125 12.515625 7.464844 12.875 7.140625 13.25 C 7.105469 13.28125 7.070312 13.308594 7.035156 13.335938 C 6.984375 13.378906 6.984375 13.378906 6.929688 13.421875 C 6.6875 13.582031 6.46875 13.640625 6.183594 13.636719 C 6.09375 13.636719 6.09375 13.636719 6.007812 13.636719 C 5.917969 13.632812 5.917969 13.632812 5.824219 13.632812 C 5.761719 13.632812 5.703125 13.632812 5.640625 13.632812 C 5.488281 13.628906 5.339844 13.628906 5.1875 13.625 C 5.1875 13.707031 5.191406 13.789062 5.195312 13.871094 C 5.195312 13.980469 5.199219 14.085938 5.199219 14.195312 C 5.199219 14.25 5.203125 14.300781 5.203125 14.359375 C 5.207031 14.683594 5.183594 14.90625 5 15.1875 C 4.675781 15.480469 4.476562 15.523438 4.046875 15.519531 C 3.746094 15.488281 3.578125 15.339844 3.386719 15.121094 C 3.265625 14.921875 3.242188 14.761719 3.242188 14.535156 C 3.246094 14.480469 3.246094 14.429688 3.246094 14.375 C 3.246094 14.292969 3.246094 14.292969 3.246094 14.207031 C 3.246094 14.152344 3.246094 14.09375 3.246094 14.039062 C 3.246094 13.898438 3.25 13.761719 3.25 13.625 C 3.214844 13.625 3.175781 13.628906 3.136719 13.628906 C 2.96875 13.632812 2.796875 13.636719 2.625 13.640625 C 2.566406 13.640625 2.507812 13.644531 2.449219 13.648438 C 1.988281 13.652344 1.660156 13.570312 1.3125 13.265625 C 1.28125 13.230469 1.253906 13.195312 1.226562 13.160156 C 1.199219 13.125 1.167969 13.089844 1.140625 13.054688 C 0.921875 12.71875 0.917969 12.417969 0.921875 12.03125 C 0.921875 11.972656 0.921875 11.914062 0.917969 11.851562 C 0.917969 11.65625 0.917969 11.460938 0.917969 11.261719 C 0.917969 11.125 0.917969 10.988281 0.917969 10.851562 C 0.917969 10.566406 0.917969 10.277344 0.917969 9.992188 C 0.917969 9.625 0.917969 9.257812 0.914062 8.894531 C 0.914062 8.609375 0.914062 8.328125 0.914062 8.046875 C 0.914062 7.910156 0.914062 7.773438 0.914062 7.640625 C 0.914062 7.449219 0.914062 7.261719 0.914062 7.070312 C 0.914062 7.015625 0.914062 6.960938 0.914062 6.90625 C 0.917969 6.199219 1.167969 5.449219 1.671875 4.941406 C 1.855469 4.695312 1.871094 4.480469 1.910156 4.183594 C 1.953125 3.890625 2.050781 3.65625 2.238281 3.421875 C 2.363281 3.128906 2.257812 2.863281 2.1875 2.5625 C 2.15625 2.417969 2.125 2.273438 2.09375 2.125 C 2.042969 1.894531 1.988281 1.667969 1.9375 1.4375 C 1.296875 1.4375 0.660156 1.4375 0 1.4375 C 0 1.128906 0 0.820312 0 0.5 Z M 0 0.5 "/>
<path style=" stroke:none;fill-rule:nonzero;fill:rgb(99.607843%,82.745099%,0.392157%);fill-opacity:1;" d="M 0 0.5 C 0.90625 0.5 1.816406 0.5 2.75 0.5 C 2.9375 1.167969 3.117188 1.820312 3.25 2.5 C 3.3125 2.480469 3.371094 2.460938 3.4375 2.4375 C 3.699219 2.363281 3.945312 2.355469 4.21875 2.359375 C 4.285156 2.359375 4.285156 2.359375 4.355469 2.359375 C 4.65625 2.359375 4.902344 2.40625 5.1875 2.5 C 5.210938 2.394531 5.210938 2.394531 5.234375 2.285156 C 5.253906 2.1875 5.277344 2.089844 5.296875 1.992188 C 5.308594 1.945312 5.316406 1.898438 5.328125 1.851562 C 5.425781 1.390625 5.558594 0.953125 5.6875 0.5 C 6.59375 0.5 7.503906 0.5 8.4375 0.5 C 8.4375 0.808594 8.4375 1.117188 8.4375 1.4375 C 7.796875 1.4375 7.160156 1.4375 6.5 1.4375 C 6.40625 1.851562 6.40625 1.851562 6.316406 2.269531 C 6.277344 2.4375 6.238281 2.605469 6.195312 2.773438 C 6.113281 3.082031 6.113281 3.082031 6.183594 3.386719 C 6.261719 3.515625 6.261719 3.515625 6.351562 3.621094 C 6.652344 4.074219 6.605469 4.667969 6.5625 5.1875 C 6.398438 5.839844 5.984375 6.363281 5.4375 6.75 C 4.824219 7.054688 4.214844 7.183594 3.539062 7.007812 C 3.125 6.847656 2.808594 6.632812 2.5 6.3125 C 2.445312 6.257812 2.390625 6.203125 2.332031 6.144531 C 1.875 5.550781 1.804688 4.90625 1.875 4.1875 C 1.921875 3.960938 2 3.773438 2.136719 3.585938 C 2.289062 3.359375 2.328125 3.222656 2.28125 2.949219 C 2.25 2.820312 2.21875 2.691406 2.1875 2.5625 C 2.15625 2.417969 2.125 2.273438 2.09375 2.125 C 2.042969 1.898438 1.988281 1.667969 1.9375 1.4375 C 1.296875 1.4375 0.660156 1.4375 0 1.4375 C 0 1.128906 0 0.820312 0 0.5 Z M 0 0.5 "/>
<path style=" stroke:none;fill-rule:nonzero;fill:rgb(99.215686%,41.960785%,41.960785%);fill-opacity:1;" d="M 1.8125 4.75 C 1.832031 4.75 1.855469 4.75 1.875 4.75 C 1.894531 4.867188 1.894531 4.867188 1.917969 4.984375 C 2.074219 5.65625 2.3125 6.199219 2.875 6.625 C 3.308594 6.882812 3.679688 6.960938 4.1875 7.0625 C 4.1875 7.679688 4.1875 8.300781 4.1875 8.9375 C 4.023438 9 3.859375 9.0625 3.6875 9.125 C 3.453125 9.304688 3.390625 9.398438 3.347656 9.691406 C 3.332031 9.941406 3.328125 10.1875 3.332031 10.4375 C 3.328125 10.53125 3.328125 10.625 3.328125 10.714844 C 3.324219 10.957031 3.324219 11.195312 3.324219 11.4375 C 3.324219 11.683594 3.320312 11.929688 3.320312 12.175781 C 3.316406 12.660156 3.3125 13.140625 3.3125 13.625 C 3.09375 13.632812 2.875 13.636719 2.65625 13.640625 C 2.59375 13.640625 2.535156 13.644531 2.46875 13.648438 C 2 13.652344 1.675781 13.582031 1.3125 13.265625 C 1.28125 13.230469 1.253906 13.195312 1.226562 13.160156 C 1.199219 13.125 1.167969 13.089844 1.140625 13.054688 C 0.921875 12.71875 0.917969 12.417969 0.921875 12.03125 C 0.921875 11.972656 0.921875 11.914062 0.917969 11.851562 C 0.917969 11.65625 0.917969 11.460938 0.917969 11.261719 C 0.917969 11.125 0.917969 10.988281 0.917969 10.851562 C 0.917969 10.566406 0.917969 10.277344 0.917969 9.992188 C 0.917969 9.625 0.917969 9.257812 0.914062 8.894531 C 0.914062 8.609375 0.914062 8.328125 0.914062 8.046875 C 0.914062 7.910156 0.914062 7.773438 0.914062 7.640625 C 0.914062 7.449219 0.914062 7.261719 0.914062 7.070312 C 0.914062 7.015625 0.914062 6.960938 0.914062 6.90625 C 0.917969 6.097656 1.257812 5.335938 1.8125 4.75 Z M 1.8125 4.75 "/>
<path style=" stroke:none;fill-rule:nonzero;fill:rgb(65.882355%,82.745099%,84.705883%);fill-opacity:1;" d="M 7.5 8 C 9.6875 8 11.871094 8 14.125 8 C 14.125 8.617188 14.125 9.238281 14.125 9.875 C 11.9375 9.875 9.753906 9.875 7.5 9.875 C 7.5 9.257812 7.5 8.636719 7.5 8 Z M 7.5 8 "/>
<path style=" stroke:none;fill-rule:nonzero;fill:rgb(26.666668%,26.666668%,26.666668%);fill-opacity:1;" d="M 15.4375 8.9375 C 15.722656 9.074219 15.863281 9.214844 16 9.5 C 16.019531 9.679688 16.027344 9.847656 16.023438 10.027344 C 16.027344 10.082031 16.027344 10.132812 16.027344 10.1875 C 16.027344 10.359375 16.027344 10.535156 16.027344 10.707031 C 16.027344 10.828125 16.027344 10.949219 16.027344 11.070312 C 16.027344 11.320312 16.027344 11.574219 16.027344 11.828125 C 16.027344 12.148438 16.027344 12.472656 16.03125 12.796875 C 16.03125 13.046875 16.03125 13.292969 16.03125 13.542969 C 16.03125 13.660156 16.03125 13.78125 16.03125 13.902344 C 16.03125 14.066406 16.03125 14.234375 16.03125 14.402344 C 16.03125 14.449219 16.03125 14.5 16.03125 14.550781 C 16.027344 14.871094 15.960938 15.054688 15.75 15.3125 C 15.421875 15.566406 15.085938 15.546875 14.6875 15.5 C 14.402344 15.363281 14.261719 15.222656 14.125 14.9375 C 14.105469 14.757812 14.097656 14.589844 14.101562 14.410156 C 14.097656 14.355469 14.097656 14.304688 14.097656 14.25 C 14.097656 14.078125 14.097656 13.902344 14.097656 13.730469 C 14.097656 13.609375 14.097656 13.488281 14.097656 13.367188 C 14.097656 13.117188 14.097656 12.863281 14.097656 12.609375 C 14.097656 12.289062 14.097656 11.964844 14.09375 11.640625 C 14.09375 11.390625 14.09375 11.144531 14.09375 10.894531 C 14.09375 10.777344 14.09375 10.65625 14.09375 10.535156 C 14.09375 10.371094 14.09375 10.203125 14.09375 10.035156 C 14.09375 9.964844 14.09375 9.964844 14.09375 9.886719 C 14.097656 9.566406 14.164062 9.382812 14.375 9.125 C 14.703125 8.871094 15.039062 8.890625 15.4375 8.9375 Z M 15.4375 8.9375 "/>
<path style=" stroke:none;fill-rule:nonzero;fill:rgb(27.843139%,27.058825%,27.058825%);fill-opacity:1;" d="M 4.5 8.9375 C 4.832031 9.105469 5.070312 9.332031 5.1875 9.6875 C 5.195312 9.851562 5.199219 10.011719 5.199219 10.171875 C 5.199219 10.222656 5.199219 10.273438 5.199219 10.324219 C 5.199219 10.488281 5.199219 10.648438 5.199219 10.8125 C 5.199219 10.925781 5.199219 11.042969 5.203125 11.15625 C 5.203125 11.394531 5.203125 11.632812 5.203125 11.871094 C 5.203125 12.175781 5.203125 12.480469 5.207031 12.785156 C 5.207031 13.023438 5.207031 13.257812 5.207031 13.492188 C 5.207031 13.605469 5.207031 13.71875 5.210938 13.828125 C 5.210938 13.988281 5.210938 14.144531 5.210938 14.300781 C 5.210938 14.347656 5.210938 14.394531 5.210938 14.441406 C 5.210938 14.738281 5.15625 14.9375 5 15.1875 C 4.675781 15.480469 4.476562 15.523438 4.046875 15.519531 C 3.746094 15.488281 3.578125 15.339844 3.386719 15.121094 C 3.230469 14.867188 3.242188 14.625 3.246094 14.339844 C 3.246094 14.230469 3.246094 14.125 3.246094 14.015625 C 3.25 13.953125 3.25 13.890625 3.25 13.828125 C 3.25 13.601562 3.25 13.375 3.25 13.148438 C 3.25 12.746094 3.25 12.339844 3.253906 11.9375 C 3.257812 11.703125 3.257812 11.464844 3.257812 11.230469 C 3.257812 11 3.257812 10.765625 3.261719 10.535156 C 3.261719 10.449219 3.261719 10.359375 3.261719 10.273438 C 3.257812 9.515625 3.257812 9.515625 3.488281 9.234375 C 3.785156 8.9375 4.09375 8.878906 4.5 8.9375 Z M 4.5 8.9375 "/>
<path style=" stroke:none;fill-rule:nonzero;fill:rgb(98.823529%,74.509805%,0.392157%);fill-opacity:1;" d="M 5.6875 0.5 C 6.59375 0.5 7.503906 0.5 8.4375 0.5 C 8.4375 0.808594 8.4375 1.117188 8.4375 1.4375 C 7.796875 1.4375 7.160156 1.4375 6.5 1.4375 C 6.40625 1.851562 6.40625 1.851562 6.316406 2.269531 C 6.277344 2.4375 6.238281 2.605469 6.195312 2.773438 C 6.113281 3.082031 6.113281 3.082031 6.183594 3.386719 C 6.261719 3.515625 6.261719 3.515625 6.351562 3.621094 C 6.652344 4.074219 6.605469 4.667969 6.5625 5.1875 C 6.398438 5.839844 5.984375 6.363281 5.4375 6.75 C 5.019531 6.957031 4.675781 7.070312 4.207031 7.066406 C 4.164062 7.066406 4.121094 7.066406 4.074219 7.066406 C 3.964844 7.066406 3.859375 7.0625 3.75 7.0625 C 3.75 7.042969 3.75 7.019531 3.75 7 C 3.914062 7 4.078125 7 4.25 7 C 4.25 6.710938 4.25 6.421875 4.25 6.125 C 4.40625 6.082031 4.558594 6.039062 4.714844 5.996094 C 4.878906 5.9375 4.988281 5.855469 5.125 5.75 C 5.167969 5.75 5.207031 5.75 5.25 5.75 C 5.292969 5.667969 5.335938 5.582031 5.375 5.5 C 5.410156 5.4375 5.441406 5.375 5.476562 5.308594 C 5.621094 4.96875 5.636719 4.574219 5.507812 4.226562 C 5.464844 4.140625 5.421875 4.058594 5.375 3.980469 C 5.3125 3.875 5.3125 3.875 5.25 3.6875 C 5.144531 3.617188 5.144531 3.617188 5 3.5625 C 4.929688 3.53125 4.859375 3.5 4.785156 3.464844 C 4.550781 3.363281 4.550781 3.363281 4.25 3.3125 C 4.25 3.003906 4.25 2.695312 4.25 2.375 C 4.59375 2.363281 4.851562 2.398438 5.1875 2.5 C 5.203125 2.429688 5.21875 2.359375 5.234375 2.285156 C 5.253906 2.1875 5.277344 2.089844 5.296875 1.992188 C 5.3125 1.921875 5.3125 1.921875 5.328125 1.851562 C 5.425781 1.390625 5.558594 0.953125 5.6875 0.5 Z M 5.6875 0.5 "/>
<path style=" stroke:none;fill-rule:nonzero;fill:rgb(77.64706%,88.235295%,89.411765%);fill-opacity:1;" d="M 4.835938 3.417969 C 5.222656 3.644531 5.488281 3.949219 5.625 4.375 C 5.691406 4.824219 5.636719 5.1875 5.375 5.5625 C 5.113281 5.882812 4.804688 6.089844 4.394531 6.148438 C 4.003906 6.164062 3.691406 6.113281 3.375 5.875 C 2.996094 5.523438 2.816406 5.214844 2.789062 4.695312 C 2.800781 4.304688 2.910156 4.035156 3.179688 3.75 C 3.652344 3.320312 4.222656 3.132812 4.835938 3.417969 Z M 4.835938 3.417969 "/>
<path style=" stroke:none;fill-rule:nonzero;fill:rgb(35.294119%,35.294119%,35.294119%);fill-opacity:1;" d="M 4.1875 8.9375 C 4.1875 11.101562 4.1875 13.269531 4.1875 15.5 C 3.667969 15.425781 3.667969 15.425781 3.375 15.125 C 3.234375 14.863281 3.234375 14.621094 3.242188 14.332031 C 3.242188 14.222656 3.246094 14.117188 3.246094 14.011719 C 3.246094 13.949219 3.246094 13.890625 3.25 13.828125 C 3.25 13.558594 3.25 13.289062 3.25 13.019531 C 3.25 12.660156 3.25 12.296875 3.253906 11.9375 C 3.257812 11.703125 3.257812 11.464844 3.257812 11.230469 C 3.257812 11 3.257812 10.765625 3.261719 10.535156 C 3.261719 10.449219 3.261719 10.359375 3.261719 10.273438 C 3.257812 9.515625 3.257812 9.515625 3.488281 9.234375 C 3.707031 9.015625 3.878906 8.9375 4.1875 8.9375 Z M 4.1875 8.9375 "/>
<path style=" stroke:none;fill-rule:nonzero;fill:rgb(35.294119%,35.294119%,34.901962%);fill-opacity:1;" d="M 0 0.5 C 0.90625 0.5 1.816406 0.5 2.75 0.5 C 3.25 2.300781 3.25 2.300781 3.25 2.625 C 3.152344 2.707031 3.152344 2.707031 3.023438 2.777344 C 2.78125 2.910156 2.585938 3.070312 2.375 3.25 C 2.3125 3.011719 2.25 2.773438 2.1875 2.535156 C 2.15625 2.414062 2.125 2.292969 2.09375 2.171875 C 2.074219 2.097656 2.054688 2.023438 2.03125 1.945312 C 2.015625 1.875 1.996094 1.804688 1.976562 1.730469 C 1.9375 1.5625 1.9375 1.5625 1.9375 1.4375 C 1.296875 1.4375 0.660156 1.4375 0 1.4375 C 0 1.128906 0 0.820312 0 0.5 Z M 0 0.5 "/>
<path style=" stroke:none;fill-rule:nonzero;fill:rgb(26.666668%,26.666668%,26.274511%);fill-opacity:1;" d="M 5.6875 0.5 C 6.59375 0.5 7.503906 0.5 8.4375 0.5 C 8.4375 0.808594 8.4375 1.117188 8.4375 1.4375 C 7.796875 1.4375 7.160156 1.4375 6.5 1.4375 C 6.460938 1.609375 6.425781 1.78125 6.386719 1.960938 C 6.296875 2.375 6.195312 2.785156 6.0625 3.1875 C 6.019531 3.1875 5.980469 3.1875 5.9375 3.1875 C 5.832031 3.082031 5.730469 2.980469 5.625 2.875 C 5.484375 2.765625 5.335938 2.664062 5.1875 2.5625 C 5.257812 2.105469 5.359375 1.660156 5.472656 1.214844 C 5.484375 1.160156 5.5 1.101562 5.515625 1.046875 C 5.617188 0.640625 5.617188 0.640625 5.6875 0.5 Z M 5.6875 0.5 "/>
<path style=" stroke:none;fill-rule:nonzero;fill:rgb(87.058824%,92.156863%,92.54902%);fill-opacity:1;" d="M 4.25 3.3125 C 4.25 3.621094 4.25 3.929688 4.25 4.25 C 4.085938 4.25 3.921875 4.25 3.75 4.25 C 3.75 4.558594 3.75 4.867188 3.75 5.1875 C 3.914062 5.1875 4.078125 5.1875 4.25 5.1875 C 4.25 5.496094 4.25 5.804688 4.25 6.125 C 3.742188 6.09375 3.460938 5.984375 3.109375 5.601562 C 2.84375 5.269531 2.78125 4.953125 2.792969 4.53125 C 2.847656 4.082031 3.097656 3.804688 3.441406 3.527344 C 3.730469 3.316406 3.882812 3.3125 4.25 3.3125 Z M 4.25 3.3125 "/>
<path style=" stroke:none;fill-rule:nonzero;fill:rgb(65.882355%,82.745099%,84.705883%);fill-opacity:1;" d="M 4.25 4.25 C 4.394531 4.25 4.539062 4.25 4.6875 4.25 C 4.6875 4.558594 4.6875 4.867188 4.6875 5.1875 C 4.542969 5.1875 4.398438 5.1875 4.25 5.1875 C 4.25 4.878906 4.25 4.570312 4.25 4.25 Z M 4.25 4.25 "/>
</g>
</svg>
