<?xml version="1.0" encoding="UTF-8"?>
<svg xmlns="http://www.w3.org/2000/svg" xmlns:xlink="http://www.w3.org/1999/xlink" width="16" height="16" viewBox="0 0 16 16" version="1.1">
<g id="surface1">
<path style=" stroke:none;fill-rule:nonzero;fill:rgb(0%,80.784315%,80.392158%);fill-opacity:1;" d="M 1.867188 2.46875 C 1.921875 2.464844 1.976562 2.464844 2.035156 2.464844 C 2.214844 2.464844 2.398438 2.464844 2.582031 2.464844 C 2.710938 2.464844 2.84375 2.464844 2.972656 2.464844 C 3.328125 2.460938 3.683594 2.460938 4.039062 2.460938 C 4.335938 2.460938 4.632812 2.460938 4.929688 2.460938 C 5.628906 2.460938 6.328125 2.460938 7.027344 2.460938 C 7.75 2.460938 8.472656 2.460938 9.195312 2.457031 C 9.8125 2.453125 10.433594 2.453125 11.054688 2.453125 C 11.425781 2.453125 11.792969 2.453125 12.164062 2.453125 C 12.511719 2.449219 12.859375 2.449219 13.207031 2.453125 C 13.335938 2.453125 13.464844 2.453125 13.589844 2.453125 C 14.78125 2.441406 14.78125 2.441406 15.152344 2.765625 C 15.558594 3.21875 15.535156 3.625 15.535156 4.214844 C 15.535156 4.304688 15.535156 4.398438 15.535156 4.488281 C 15.539062 4.734375 15.539062 4.984375 15.539062 5.230469 C 15.539062 5.4375 15.539062 5.644531 15.539062 5.851562 C 15.539062 6.339844 15.539062 6.832031 15.539062 7.320312 C 15.539062 7.824219 15.539062 8.328125 15.542969 8.832031 C 15.546875 9.261719 15.546875 9.695312 15.546875 10.128906 C 15.546875 10.386719 15.546875 10.648438 15.546875 10.90625 C 15.550781 11.148438 15.546875 11.390625 15.546875 11.632812 C 15.546875 11.722656 15.546875 11.8125 15.546875 11.902344 C 15.554688 12.378906 15.53125 12.738281 15.246094 13.136719 C 14.894531 13.464844 14.597656 13.535156 14.132812 13.53125 C 14.050781 13.53125 14.050781 13.53125 13.964844 13.535156 C 13.785156 13.535156 13.601562 13.535156 13.417969 13.535156 C 13.289062 13.535156 13.15625 13.535156 13.027344 13.535156 C 12.671875 13.539062 12.316406 13.539062 11.960938 13.539062 C 11.664062 13.539062 11.367188 13.539062 11.070312 13.539062 C 10.371094 13.539062 9.671875 13.539062 8.972656 13.539062 C 8.25 13.539062 7.527344 13.539062 6.804688 13.542969 C 6.1875 13.542969 5.566406 13.546875 4.945312 13.546875 C 4.574219 13.542969 4.207031 13.546875 3.835938 13.546875 C 3.488281 13.546875 3.140625 13.546875 2.789062 13.546875 C 2.664062 13.546875 2.535156 13.546875 2.410156 13.546875 C 1.21875 13.558594 1.21875 13.558594 0.847656 13.230469 C 0.441406 12.78125 0.464844 12.375 0.464844 11.785156 C 0.464844 11.695312 0.464844 11.601562 0.464844 11.511719 C 0.460938 11.261719 0.460938 11.015625 0.460938 10.769531 C 0.460938 10.5625 0.460938 10.355469 0.460938 10.148438 C 0.460938 9.65625 0.460938 9.167969 0.460938 8.679688 C 0.460938 8.175781 0.460938 7.671875 0.457031 7.167969 C 0.453125 6.734375 0.453125 6.304688 0.453125 5.871094 C 0.453125 5.609375 0.453125 5.351562 0.453125 5.09375 C 0.449219 4.851562 0.453125 4.609375 0.453125 4.367188 C 0.453125 4.277344 0.453125 4.1875 0.453125 4.097656 C 0.445312 3.621094 0.46875 3.261719 0.75 2.863281 C 1.105469 2.535156 1.402344 2.464844 1.867188 2.46875 Z M 1.867188 2.46875 "/>
<path style=" stroke:none;fill-rule:nonzero;fill:rgb(0%,2.745098%,30.588236%);fill-opacity:1;" d="M 1.867188 2.46875 C 1.921875 2.464844 1.976562 2.464844 2.035156 2.464844 C 2.214844 2.464844 2.398438 2.464844 2.582031 2.464844 C 2.710938 2.464844 2.84375 2.464844 2.972656 2.464844 C 3.328125 2.460938 3.683594 2.460938 4.039062 2.460938 C 4.335938 2.460938 4.632812 2.460938 4.929688 2.460938 C 5.628906 2.460938 6.328125 2.460938 7.027344 2.460938 C 7.75 2.460938 8.472656 2.460938 9.195312 2.457031 C 9.8125 2.453125 10.433594 2.453125 11.054688 2.453125 C 11.425781 2.453125 11.792969 2.453125 12.164062 2.453125 C 12.511719 2.449219 12.859375 2.449219 13.207031 2.453125 C 13.335938 2.453125 13.464844 2.453125 13.589844 2.453125 C 14.78125 2.441406 14.78125 2.441406 15.152344 2.765625 C 15.558594 3.21875 15.535156 3.625 15.535156 4.214844 C 15.535156 4.304688 15.535156 4.398438 15.535156 4.488281 C 15.539062 4.734375 15.539062 4.984375 15.539062 5.230469 C 15.539062 5.4375 15.539062 5.644531 15.539062 5.851562 C 15.539062 6.339844 15.539062 6.832031 15.539062 7.320312 C 15.539062 7.824219 15.539062 8.328125 15.542969 8.832031 C 15.546875 9.261719 15.546875 9.695312 15.546875 10.128906 C 15.546875 10.386719 15.546875 10.648438 15.546875 10.90625 C 15.550781 11.148438 15.546875 11.390625 15.546875 11.632812 C 15.546875 11.722656 15.546875 11.8125 15.546875 11.902344 C 15.554688 12.378906 15.53125 12.738281 15.246094 13.136719 C 14.894531 13.464844 14.597656 13.535156 14.132812 13.53125 C 14.050781 13.53125 14.050781 13.53125 13.964844 13.535156 C 13.785156 13.535156 13.601562 13.535156 13.417969 13.535156 C 13.289062 13.535156 13.15625 13.535156 13.027344 13.535156 C 12.671875 13.539062 12.316406 13.539062 11.960938 13.539062 C 11.664062 13.539062 11.367188 13.539062 11.070312 13.539062 C 10.371094 13.539062 9.671875 13.539062 8.972656 13.539062 C 8.25 13.539062 7.527344 13.539062 6.804688 13.542969 C 6.1875 13.542969 5.566406 13.546875 4.945312 13.546875 C 4.574219 13.542969 4.207031 13.546875 3.835938 13.546875 C 3.488281 13.546875 3.140625 13.546875 2.789062 13.546875 C 2.664062 13.546875 2.535156 13.546875 2.410156 13.546875 C 1.21875 13.558594 1.21875 13.558594 0.847656 13.230469 C 0.441406 12.78125 0.464844 12.375 0.464844 11.785156 C 0.464844 11.695312 0.464844 11.601562 0.464844 11.511719 C 0.460938 11.261719 0.460938 11.015625 0.460938 10.769531 C 0.460938 10.5625 0.460938 10.355469 0.460938 10.148438 C 0.460938 9.65625 0.460938 9.167969 0.460938 8.679688 C 0.460938 8.175781 0.460938 7.671875 0.457031 7.167969 C 0.453125 6.734375 0.453125 6.304688 0.453125 5.871094 C 0.453125 5.609375 0.453125 5.351562 0.453125 5.09375 C 0.449219 4.851562 0.453125 4.609375 0.453125 4.367188 C 0.453125 4.277344 0.453125 4.1875 0.453125 4.097656 C 0.445312 3.621094 0.46875 3.261719 0.75 2.863281 C 1.105469 2.535156 1.402344 2.464844 1.867188 2.46875 Z M 1 5 C 0.996094 6.21875 0.992188 7.441406 0.988281 8.699219 C 0.988281 9.085938 0.984375 9.46875 0.984375 9.867188 C 0.980469 10.214844 0.980469 10.214844 0.980469 10.558594 C 0.980469 10.710938 0.980469 10.867188 0.980469 11.019531 C 0.980469 11.253906 0.976562 11.484375 0.976562 11.71875 C 0.976562 11.789062 0.976562 11.855469 0.976562 11.925781 C 0.976562 12.347656 1.011719 12.574219 1.316406 12.882812 C 1.554688 13.035156 1.753906 13.035156 2.027344 13.03125 C 2.105469 13.03125 2.105469 13.03125 2.1875 13.03125 C 2.363281 13.03125 2.539062 13.03125 2.71875 13.03125 C 2.84375 13.03125 2.972656 13.03125 3.097656 13.03125 C 3.445312 13.03125 3.789062 13.03125 4.132812 13.03125 C 4.496094 13.03125 4.855469 13.03125 5.214844 13.03125 C 5.820312 13.03125 6.429688 13.03125 7.035156 13.027344 C 7.734375 13.027344 8.433594 13.027344 9.136719 13.027344 C 9.808594 13.027344 10.484375 13.027344 11.15625 13.027344 C 11.445312 13.027344 11.730469 13.027344 12.019531 13.027344 C 12.355469 13.027344 12.695312 13.027344 13.03125 13.027344 C 13.15625 13.027344 13.277344 13.027344 13.402344 13.027344 C 13.574219 13.027344 13.742188 13.027344 13.910156 13.023438 C 13.984375 13.023438 13.984375 13.023438 14.058594 13.027344 C 14.40625 13.019531 14.601562 12.941406 14.859375 12.71875 C 15.011719 12.539062 15.007812 12.355469 15.007812 12.132812 C 15.007812 12.070312 15.007812 12.007812 15.007812 11.941406 C 15.007812 11.875 15.007812 11.804688 15.007812 11.734375 C 15.007812 11.660156 15.007812 11.585938 15.007812 11.511719 C 15.007812 11.269531 15.007812 11.03125 15.007812 10.792969 C 15.007812 10.644531 15.007812 10.496094 15.007812 10.351562 C 15.003906 9.800781 15.003906 9.253906 15.003906 8.707031 C 15.003906 7.484375 15 6.261719 15 5 C 10.378906 5 5.757812 5 1 5 Z M 1 5 "/>
<path style=" stroke:none;fill-rule:nonzero;fill:rgb(98.823529%,82.745099%,27.843139%);fill-opacity:1;" d="M 4.6875 6.125 C 4.875 6.339844 4.875 6.339844 4.875 6.5 C 5.289062 6.5 5.699219 6.5 6.125 6.5 C 6.167969 6.417969 6.207031 6.335938 6.25 6.25 C 6.292969 6.1875 6.332031 6.125 6.375 6.0625 C 6.5625 6.125 6.746094 6.1875 6.9375 6.25 C 6.921875 6.390625 6.921875 6.390625 6.902344 6.53125 C 6.898438 6.753906 6.914062 6.847656 7.058594 7.019531 C 7.15625 7.105469 7.261719 7.191406 7.363281 7.269531 C 7.5 7.375 7.5 7.375 7.625 7.5625 C 7.777344 7.585938 7.777344 7.585938 7.945312 7.574219 C 8.003906 7.574219 8.058594 7.570312 8.117188 7.570312 C 8.160156 7.566406 8.203125 7.566406 8.25 7.5625 C 8.3125 7.75 8.375 7.933594 8.4375 8.125 C 8.140625 8.375 8.140625 8.375 8 8.375 C 8 8.566406 8.003906 8.757812 8.007812 8.949219 C 8.007812 9.003906 8.007812 9.058594 8.007812 9.113281 C 8.011719 9.414062 8.011719 9.414062 8.148438 9.671875 C 8.261719 9.769531 8.261719 9.769531 8.4375 9.875 C 8.375 10.0625 8.3125 10.246094 8.25 10.4375 C 8.15625 10.425781 8.0625 10.417969 7.964844 10.40625 C 7.757812 10.40625 7.660156 10.410156 7.496094 10.542969 C 7.421875 10.628906 7.351562 10.71875 7.285156 10.808594 C 7.1875 10.9375 7.1875 10.9375 7.050781 11.027344 C 6.921875 11.117188 6.921875 11.117188 6.914062 11.28125 C 6.917969 11.335938 6.917969 11.390625 6.921875 11.449219 C 6.925781 11.503906 6.925781 11.5625 6.929688 11.621094 C 6.933594 11.664062 6.933594 11.707031 6.9375 11.75 C 6.75 11.8125 6.566406 11.875 6.375 11.9375 C 6.125 11.640625 6.125 11.640625 6.125 11.5 C 5.710938 11.5 5.300781 11.5 4.875 11.5 C 4.832031 11.582031 4.792969 11.664062 4.75 11.75 C 4.707031 11.8125 4.667969 11.875 4.625 11.9375 C 4.4375 11.875 4.253906 11.8125 4.0625 11.75 C 4.078125 11.609375 4.078125 11.609375 4.09375 11.464844 C 4.09375 11.257812 4.089844 11.160156 3.957031 10.996094 C 3.871094 10.921875 3.78125 10.851562 3.691406 10.785156 C 3.5625 10.6875 3.5625 10.6875 3.472656 10.550781 C 3.382812 10.421875 3.382812 10.421875 3.21875 10.414062 C 3.164062 10.417969 3.109375 10.417969 3.050781 10.421875 C 2.996094 10.425781 2.9375 10.425781 2.878906 10.429688 C 2.835938 10.433594 2.792969 10.433594 2.75 10.4375 C 2.6875 10.25 2.625 10.066406 2.5625 9.875 C 2.859375 9.625 2.859375 9.625 3 9.625 C 3 9.210938 3 8.800781 3 8.375 C 2.917969 8.332031 2.835938 8.292969 2.75 8.25 C 2.6875 8.207031 2.625 8.167969 2.5625 8.125 C 2.625 7.9375 2.6875 7.753906 2.75 7.5625 C 2.84375 7.574219 2.9375 7.585938 3.03125 7.597656 C 3.253906 7.601562 3.347656 7.585938 3.519531 7.441406 C 3.605469 7.34375 3.691406 7.238281 3.769531 7.136719 C 3.875 7 3.875 7 4.0625 6.875 C 4.085938 6.722656 4.085938 6.722656 4.074219 6.554688 C 4.074219 6.496094 4.070312 6.441406 4.070312 6.382812 C 4.066406 6.339844 4.066406 6.296875 4.0625 6.25 C 4.476562 6.054688 4.476562 6.054688 4.6875 6.125 Z M 4.6875 6.125 "/>
<path style=" stroke:none;fill-rule:nonzero;fill:rgb(0%,64.313728%,66.666669%);fill-opacity:1;" d="M 2.003906 2.992188 C 2.054688 2.992188 2.109375 2.992188 2.164062 2.992188 C 2.339844 2.988281 2.519531 2.988281 2.695312 2.988281 C 2.824219 2.988281 2.949219 2.988281 3.078125 2.988281 C 3.421875 2.988281 3.769531 2.988281 4.113281 2.988281 C 4.332031 2.988281 4.546875 2.988281 4.761719 2.988281 C 5.4375 2.984375 6.113281 2.984375 6.785156 2.984375 C 7.566406 2.984375 8.347656 2.984375 9.125 2.980469 C 9.726562 2.980469 10.332031 2.980469 10.933594 2.980469 C 11.292969 2.980469 11.652344 2.980469 12.011719 2.976562 C 12.351562 2.976562 12.6875 2.976562 13.027344 2.976562 C 13.152344 2.976562 13.277344 2.976562 13.402344 2.976562 C 13.570312 2.976562 13.738281 2.976562 13.910156 2.976562 C 13.960938 2.976562 14.007812 2.976562 14.058594 2.976562 C 14.34375 2.976562 14.527344 3.007812 14.75 3.1875 C 15 3.5 15 3.5 15 4.5 C 10.378906 4.5 5.757812 4.5 1 4.5 C 1 3.5 1 3.5 1.179688 3.222656 C 1.4375 2.984375 1.664062 2.992188 2.003906 2.992188 Z M 2.003906 2.992188 "/>
<path style=" stroke:none;fill-rule:nonzero;fill:rgb(1.568628%,4.705882%,30.980393%);fill-opacity:1;" d="M 4.6875 5.4375 C 4.882812 5.621094 5.003906 5.757812 5.125 6 C 5.371094 6 5.621094 6 5.875 6 C 5.917969 5.917969 5.957031 5.835938 6 5.75 C 6.101562 5.644531 6.207031 5.539062 6.3125 5.4375 C 6.488281 5.507812 6.664062 5.582031 6.839844 5.652344 C 6.914062 5.683594 6.914062 5.683594 6.992188 5.714844 C 7.039062 5.734375 7.085938 5.753906 7.136719 5.773438 C 7.179688 5.792969 7.226562 5.808594 7.269531 5.828125 C 7.375 5.875 7.375 5.875 7.4375 5.9375 C 7.433594 6.046875 7.425781 6.152344 7.417969 6.261719 C 7.417969 6.5 7.421875 6.664062 7.578125 6.851562 C 7.773438 7.019531 7.945312 7.015625 8.195312 7.023438 C 8.535156 7.035156 8.535156 7.035156 8.65625 7.152344 C 8.726562 7.285156 8.769531 7.417969 8.8125 7.5625 C 8.859375 7.6875 8.90625 7.8125 8.953125 7.9375 C 8.988281 8.042969 9.027344 8.144531 9.0625 8.25 C 8.992188 8.3125 8.921875 8.375 8.851562 8.4375 C 8.8125 8.472656 8.773438 8.507812 8.734375 8.542969 C 8.625 8.625 8.625 8.625 8.5 8.625 C 8.5 8.871094 8.5 9.121094 8.5 9.375 C 8.625 9.4375 8.625 9.4375 8.75 9.5 C 8.855469 9.601562 8.960938 9.707031 9.0625 9.8125 C 8.992188 9.988281 8.917969 10.164062 8.847656 10.339844 C 8.816406 10.414062 8.816406 10.414062 8.785156 10.492188 C 8.765625 10.539062 8.746094 10.585938 8.726562 10.636719 C 8.707031 10.679688 8.691406 10.726562 8.671875 10.769531 C 8.625 10.875 8.625 10.875 8.5625 10.9375 C 8.457031 10.929688 8.347656 10.921875 8.242188 10.914062 C 7.972656 10.914062 7.820312 10.9375 7.613281 11.113281 C 7.394531 11.367188 7.402344 11.605469 7.421875 11.925781 C 7.429688 11.996094 7.429688 11.996094 7.4375 12.0625 C 7.308594 12.121094 7.183594 12.183594 7.054688 12.242188 C 6.984375 12.277344 6.914062 12.308594 6.839844 12.34375 C 6.644531 12.429688 6.453125 12.5 6.25 12.5625 C 6.1875 12.492188 6.125 12.421875 6.0625 12.351562 C 6.027344 12.3125 5.992188 12.273438 5.957031 12.234375 C 5.875 12.125 5.875 12.125 5.875 12 C 5.628906 12 5.378906 12 5.125 12 C 5.082031 12.082031 5.042969 12.164062 5 12.25 C 4.898438 12.355469 4.792969 12.460938 4.6875 12.5625 C 4.511719 12.492188 4.335938 12.417969 4.160156 12.347656 C 4.109375 12.328125 4.058594 12.308594 4.007812 12.285156 C 3.960938 12.265625 3.914062 12.246094 3.863281 12.226562 C 3.820312 12.207031 3.773438 12.191406 3.730469 12.171875 C 3.625 12.125 3.625 12.125 3.5625 12.0625 C 3.558594 11.945312 3.554688 11.824219 3.550781 11.707031 C 3.523438 11.367188 3.523438 11.367188 3.351562 11.078125 C 3.121094 10.882812 2.863281 10.90625 2.574219 10.925781 C 2.507812 10.929688 2.507812 10.929688 2.4375 10.9375 C 2.378906 10.808594 2.316406 10.683594 2.257812 10.554688 C 2.222656 10.484375 2.191406 10.414062 2.15625 10.339844 C 2.070312 10.144531 2 9.953125 1.9375 9.75 C 2.007812 9.6875 2.078125 9.625 2.148438 9.5625 C 2.1875 9.527344 2.226562 9.492188 2.265625 9.457031 C 2.375 9.375 2.375 9.375 2.5 9.375 C 2.5 9.128906 2.5 8.878906 2.5 8.625 C 2.417969 8.582031 2.335938 8.542969 2.25 8.5 C 2.144531 8.398438 2.039062 8.292969 1.9375 8.1875 C 2.007812 8.011719 2.082031 7.835938 2.152344 7.660156 C 2.171875 7.609375 2.191406 7.558594 2.214844 7.507812 C 2.234375 7.460938 2.253906 7.414062 2.273438 7.363281 C 2.292969 7.320312 2.308594 7.273438 2.328125 7.230469 C 2.375 7.125 2.375 7.125 2.4375 7.0625 C 2.542969 7.070312 2.652344 7.078125 2.757812 7.085938 C 3.027344 7.085938 3.179688 7.0625 3.386719 6.886719 C 3.605469 6.632812 3.597656 6.394531 3.578125 6.074219 C 3.574219 6.027344 3.566406 5.984375 3.5625 5.9375 C 3.929688 5.746094 4.300781 5.585938 4.6875 5.4375 Z M 4.0625 6.25 C 4.070312 6.289062 4.074219 6.328125 4.082031 6.371094 C 4.109375 6.636719 4.121094 6.804688 3.941406 7.019531 C 3.84375 7.105469 3.738281 7.191406 3.636719 7.269531 C 3.484375 7.375 3.484375 7.375 3.375 7.5625 C 3.226562 7.582031 3.226562 7.582031 3.054688 7.574219 C 2.996094 7.574219 2.941406 7.570312 2.882812 7.570312 C 2.839844 7.566406 2.796875 7.566406 2.75 7.5625 C 2.65625 7.839844 2.65625 7.839844 2.5625 8.125 C 2.753906 8.3125 2.753906 8.3125 3 8.375 C 3 8.789062 3 9.199219 3 9.625 C 2.917969 9.667969 2.835938 9.707031 2.75 9.75 C 2.6875 9.792969 2.625 9.832031 2.5625 9.875 C 2.625 10.0625 2.6875 10.246094 2.75 10.4375 C 2.84375 10.425781 2.9375 10.414062 3.03125 10.402344 C 3.253906 10.398438 3.347656 10.414062 3.519531 10.558594 C 3.605469 10.65625 3.691406 10.761719 3.769531 10.863281 C 3.875 11.015625 3.875 11.015625 4.0625 11.125 C 4.082031 11.273438 4.082031 11.273438 4.074219 11.445312 C 4.074219 11.503906 4.070312 11.558594 4.070312 11.617188 C 4.066406 11.660156 4.066406 11.703125 4.0625 11.75 C 4.25 11.8125 4.433594 11.875 4.625 11.9375 C 4.8125 11.746094 4.8125 11.746094 4.875 11.5 C 5.289062 11.5 5.699219 11.5 6.125 11.5 C 6.167969 11.582031 6.207031 11.664062 6.25 11.75 C 6.3125 11.84375 6.3125 11.84375 6.375 11.9375 C 6.5625 11.875 6.746094 11.8125 6.9375 11.75 C 6.925781 11.65625 6.917969 11.5625 6.90625 11.464844 C 6.90625 11.257812 6.910156 11.160156 7.042969 10.996094 C 7.128906 10.921875 7.21875 10.851562 7.308594 10.785156 C 7.445312 10.691406 7.445312 10.691406 7.527344 10.550781 C 7.625 10.4375 7.625 10.4375 7.78125 10.414062 C 7.835938 10.417969 7.890625 10.417969 7.949219 10.421875 C 8.003906 10.425781 8.0625 10.425781 8.121094 10.429688 C 8.164062 10.433594 8.207031 10.433594 8.25 10.4375 C 8.3125 10.25 8.375 10.066406 8.4375 9.875 C 8.375 9.835938 8.316406 9.796875 8.253906 9.757812 C 8.125 9.648438 8.070312 9.589844 8.027344 9.425781 C 8.011719 9.265625 8.007812 9.109375 8.007812 8.949219 C 8.007812 8.894531 8.003906 8.839844 8.003906 8.78125 C 8 8.644531 8 8.511719 8 8.375 C 8.039062 8.355469 8.074219 8.339844 8.113281 8.320312 C 8.261719 8.246094 8.261719 8.246094 8.4375 8.125 C 8.375 7.9375 8.3125 7.753906 8.25 7.5625 C 8.15625 7.574219 8.0625 7.585938 7.96875 7.597656 C 7.746094 7.601562 7.652344 7.585938 7.480469 7.441406 C 7.394531 7.34375 7.308594 7.238281 7.230469 7.136719 C 7.125 6.984375 7.125 6.984375 6.9375 6.875 C 6.917969 6.726562 6.917969 6.726562 6.925781 6.554688 C 6.929688 6.46875 6.929688 6.46875 6.929688 6.382812 C 6.933594 6.339844 6.933594 6.296875 6.9375 6.25 C 6.75 6.1875 6.566406 6.125 6.375 6.0625 C 6.1875 6.253906 6.1875 6.253906 6.125 6.5 C 5.710938 6.5 5.300781 6.5 4.875 6.5 C 4.832031 6.417969 4.792969 6.335938 4.75 6.25 C 4.707031 6.1875 4.667969 6.125 4.625 6.0625 C 4.417969 6.0625 4.25 6.167969 4.0625 6.25 Z M 4.0625 6.25 "/>
<path style=" stroke:none;fill-rule:nonzero;fill:rgb(0%,64.313728%,66.666669%);fill-opacity:1;" d="M 1 5 C 1.496094 5 1.988281 5 2.5 5 C 2.5 5.660156 2.5 6.320312 2.5 7 C 2.59375 7.03125 2.59375 7.03125 2.6875 7.0625 C 2.628906 7.070312 2.628906 7.070312 2.570312 7.078125 C 2.429688 7.113281 2.429688 7.113281 2.367188 7.230469 C 2.351562 7.273438 2.335938 7.316406 2.316406 7.363281 C 2.289062 7.433594 2.289062 7.433594 2.261719 7.507812 C 2.242188 7.558594 2.222656 7.609375 2.203125 7.660156 C 2.171875 7.734375 2.171875 7.734375 2.144531 7.8125 C 2.09375 7.9375 2.046875 8.0625 2 8.1875 C 2.160156 8.351562 2.308594 8.496094 2.5 8.625 C 2.554688 8.878906 2.554688 9.121094 2.5 9.375 C 2.355469 9.546875 2.195312 9.640625 2 9.75 C 2.066406 9.9375 2.132812 10.121094 2.203125 10.304688 C 2.222656 10.359375 2.242188 10.410156 2.261719 10.464844 C 2.277344 10.515625 2.296875 10.566406 2.316406 10.617188 C 2.335938 10.664062 2.351562 10.710938 2.367188 10.757812 C 2.453125 10.902344 2.535156 10.9375 2.6875 11 C 2.625 11 2.5625 11 2.5 11 C 2.503906 11.230469 2.511719 11.460938 2.519531 11.691406 C 2.519531 11.757812 2.523438 11.820312 2.523438 11.886719 C 2.535156 12.265625 2.574219 12.542969 2.75 12.875 C 2.78125 12.9375 2.78125 12.9375 2.8125 13 C 2.601562 13.011719 2.394531 13.015625 2.183594 13.023438 C 2.125 13.027344 2.066406 13.03125 2.003906 13.03125 C 1.691406 13.039062 1.488281 13.027344 1.242188 12.824219 C 1.078125 12.664062 1.003906 12.535156 0.992188 12.296875 C 0.992188 12.242188 0.992188 12.1875 0.992188 12.132812 C 0.992188 12.070312 0.992188 12.007812 0.992188 11.941406 C 0.992188 11.875 0.992188 11.804688 0.992188 11.734375 C 0.992188 11.660156 0.992188 11.589844 0.992188 11.515625 C 0.992188 11.273438 0.992188 11.03125 0.992188 10.792969 C 0.992188 10.625 0.996094 10.460938 0.996094 10.292969 C 0.996094 9.898438 0.996094 9.503906 0.996094 9.109375 C 0.996094 8.664062 0.996094 8.214844 0.996094 7.765625 C 0.996094 6.84375 1 5.921875 1 5 Z M 1 5 "/>
<path style=" stroke:none;fill-rule:nonzero;fill:rgb(1.960784%,4.313726%,30.19608%);fill-opacity:1;" d="M 6.226562 7.65625 C 6.589844 7.882812 6.871094 8.21875 7 8.625 C 7.058594 9.09375 6.988281 9.496094 6.71875 9.882812 C 6.433594 10.238281 6.152344 10.464844 5.695312 10.523438 C 5.285156 10.539062 4.953125 10.503906 4.625 10.25 C 4.234375 9.886719 3.996094 9.515625 3.972656 8.972656 C 3.988281 8.554688 4.09375 8.289062 4.378906 7.988281 C 4.945312 7.464844 5.507812 7.339844 6.226562 7.65625 Z M 6.226562 7.65625 "/>
<path style=" stroke:none;fill-rule:nonzero;fill:rgb(0%,2.745098%,30.588236%);fill-opacity:1;" d="M 11.40625 10.484375 C 11.460938 10.484375 11.515625 10.484375 11.574219 10.484375 C 11.632812 10.484375 11.691406 10.484375 11.75 10.484375 C 11.808594 10.484375 11.867188 10.484375 11.925781 10.484375 C 12.007812 10.484375 12.007812 10.484375 12.09375 10.484375 C 12.144531 10.484375 12.195312 10.484375 12.25 10.484375 C 12.375 10.5 12.375 10.5 12.5 10.625 C 12.5 10.832031 12.5 11.039062 12.5 11.25 C 12.996094 11.25 13.488281 11.25 14 11.25 C 14 11.414062 14 11.582031 14 11.75 C 13.503906 11.75 13.011719 11.75 12.5 11.75 C 12.5 11.957031 12.5 12.164062 12.5 12.375 C 12.347656 12.527344 12.304688 12.515625 12.09375 12.515625 C 12.039062 12.515625 11.984375 12.515625 11.925781 12.515625 C 11.867188 12.515625 11.808594 12.515625 11.75 12.515625 C 11.691406 12.515625 11.632812 12.515625 11.574219 12.515625 C 11.492188 12.515625 11.492188 12.515625 11.40625 12.515625 C 11.355469 12.515625 11.304688 12.515625 11.25 12.515625 C 11.125 12.5 11.125 12.5 11 12.375 C 11 12.167969 11 11.960938 11 11.75 C 10.503906 11.75 10.011719 11.75 9.5 11.75 C 9.5 11.585938 9.5 11.421875 9.5 11.25 C 9.996094 11.25 10.488281 11.25 11 11.25 C 11 11.042969 11 10.835938 11 10.625 C 11.152344 10.472656 11.195312 10.484375 11.40625 10.484375 Z M 11.40625 10.484375 "/>
<path style=" stroke:none;fill-rule:nonzero;fill:rgb(0%,2.745098%,30.588236%);fill-opacity:1;" d="M 10.40625 7.984375 C 10.460938 7.984375 10.515625 7.984375 10.574219 7.984375 C 10.632812 7.984375 10.691406 7.984375 10.75 7.984375 C 10.835938 7.984375 10.835938 7.984375 10.925781 7.984375 C 11.007812 7.984375 11.007812 7.984375 11.09375 7.984375 C 11.144531 7.984375 11.195312 7.984375 11.25 7.984375 C 11.375 8 11.375 8 11.5 8.125 C 11.5 8.332031 11.5 8.539062 11.5 8.75 C 12.324219 8.75 13.148438 8.75 14 8.75 C 14 8.914062 14 9.082031 14 9.25 C 13.175781 9.25 12.351562 9.25 11.5 9.25 C 11.5 9.457031 11.5 9.664062 11.5 9.875 C 11.347656 10.027344 11.304688 10.015625 11.09375 10.015625 C 11.039062 10.015625 10.984375 10.015625 10.925781 10.015625 C 10.867188 10.015625 10.808594 10.015625 10.75 10.015625 C 10.691406 10.015625 10.632812 10.015625 10.574219 10.015625 C 10.492188 10.015625 10.492188 10.015625 10.40625 10.015625 C 10.355469 10.015625 10.304688 10.015625 10.25 10.015625 C 10.125 10 10.125 10 10 9.875 C 9.988281 9.726562 9.988281 9.726562 9.992188 9.554688 C 9.992188 9.496094 9.996094 9.441406 9.996094 9.382812 C 9.996094 9.339844 10 9.296875 10 9.25 C 9.835938 9.25 9.671875 9.25 9.5 9.25 C 9.5 9.085938 9.5 8.921875 9.5 8.75 C 9.664062 8.75 9.828125 8.75 10 8.75 C 10 8.707031 9.996094 8.664062 9.996094 8.617188 C 9.992188 8.53125 9.992188 8.53125 9.992188 8.445312 C 9.992188 8.390625 9.988281 8.332031 9.988281 8.273438 C 10.011719 7.992188 10.160156 7.984375 10.40625 7.984375 Z M 10.40625 7.984375 "/>
<path style=" stroke:none;fill-rule:nonzero;fill:rgb(0%,2.745098%,30.588236%);fill-opacity:1;" d="M 11.90625 5.484375 C 11.960938 5.484375 12.015625 5.484375 12.074219 5.484375 C 12.132812 5.484375 12.191406 5.484375 12.25 5.484375 C 12.308594 5.484375 12.367188 5.484375 12.425781 5.484375 C 12.507812 5.484375 12.507812 5.484375 12.59375 5.484375 C 12.644531 5.484375 12.695312 5.484375 12.75 5.484375 C 12.875 5.5 12.875 5.5 13 5.625 C 13.015625 5.835938 13.003906 6.039062 13 6.25 C 13.328125 6.25 13.660156 6.25 14 6.25 C 14 6.414062 14 6.582031 14 6.75 C 13.671875 6.75 13.339844 6.75 13 6.75 C 13.003906 6.851562 13.003906 6.949219 13.007812 7.054688 C 13.011719 7.226562 13.011719 7.226562 13 7.375 C 12.847656 7.527344 12.804688 7.515625 12.59375 7.515625 C 12.539062 7.515625 12.484375 7.515625 12.425781 7.515625 C 12.367188 7.515625 12.308594 7.515625 12.25 7.515625 C 12.191406 7.515625 12.132812 7.515625 12.074219 7.515625 C 11.992188 7.515625 11.992188 7.515625 11.90625 7.515625 C 11.855469 7.515625 11.804688 7.515625 11.75 7.515625 C 11.625 7.5 11.625 7.5 11.5 7.375 C 11.5 7.167969 11.5 6.960938 11.5 6.75 C 10.839844 6.75 10.179688 6.75 9.5 6.75 C 9.5 6.585938 9.5 6.421875 9.5 6.25 C 10.160156 6.25 10.820312 6.25 11.5 6.25 C 11.5 6.042969 11.5 5.835938 11.5 5.625 C 11.652344 5.472656 11.695312 5.484375 11.90625 5.484375 Z M 11.90625 5.484375 "/>
<path style=" stroke:none;fill-rule:nonzero;fill:rgb(0%,79.215688%,79.215688%);fill-opacity:1;" d="M 5.75 8 C 6.105469 8.121094 6.332031 8.351562 6.5 8.6875 C 6.535156 8.996094 6.535156 9.242188 6.394531 9.523438 C 6.195312 9.75 5.988281 9.980469 5.675781 10.015625 C 5.3125 10.027344 5.097656 10 4.8125 9.75 C 4.542969 9.453125 4.476562 9.222656 4.484375 8.828125 C 4.519531 8.53125 4.695312 8.359375 4.914062 8.167969 C 5.191406 7.96875 5.414062 7.96875 5.75 8 Z M 5.75 8 "/>
<path style=" stroke:none;fill-rule:nonzero;fill:rgb(0%,2.745098%,30.588236%);fill-opacity:1;" d="M 8 3.5 C 9.980469 3.5 11.960938 3.5 14 3.5 C 14 3.664062 14 3.828125 14 4 C 12.019531 4 10.039062 4 8 4 C 8 3.835938 8 3.671875 8 3.5 Z M 8 3.5 "/>
<path style=" stroke:none;fill-rule:nonzero;fill:rgb(0%,48.627451%,57.254905%);fill-opacity:1;" d="M 1.800781 2.992188 C 1.859375 2.992188 1.917969 2.996094 1.976562 2.996094 C 2.039062 2.996094 2.101562 2.996094 2.164062 2.996094 C 2.226562 2.996094 2.289062 2.996094 2.351562 2.996094 C 2.503906 2.996094 2.660156 3 2.8125 3 C 2.773438 3.0625 2.730469 3.121094 2.691406 3.183594 C 2.535156 3.453125 2.519531 3.691406 2.515625 3.996094 C 2.511719 4.164062 2.503906 4.328125 2.5 4.5 C 2.003906 4.5 1.511719 4.5 1 4.5 C 0.949219 3.488281 0.949219 3.488281 1.179688 3.222656 C 1.382812 3.035156 1.523438 2.992188 1.800781 2.992188 Z M 1.800781 2.992188 "/>
<path style=" stroke:none;fill-rule:nonzero;fill:rgb(100%,83.92157%,28.235295%);fill-opacity:1;" d="M 11.5 11 C 11.664062 11 11.828125 11 12 11 C 12 11.328125 12 11.660156 12 12 C 11.835938 12 11.671875 12 11.5 12 C 11.5 11.671875 11.5 11.339844 11.5 11 Z M 11.5 11 "/>
<path style=" stroke:none;fill-rule:nonzero;fill:rgb(100%,83.92157%,28.235295%);fill-opacity:1;" d="M 10.5 8.5 C 10.664062 8.5 10.828125 8.5 11 8.5 C 11 8.828125 11 9.160156 11 9.5 C 10.835938 9.5 10.671875 9.5 10.5 9.5 C 10.5 9.171875 10.5 8.839844 10.5 8.5 Z M 10.5 8.5 "/>
<path style=" stroke:none;fill-rule:nonzero;fill:rgb(100%,83.92157%,28.235295%);fill-opacity:1;" d="M 12 6 C 12.164062 6 12.328125 6 12.5 6 C 12.5 6.328125 12.5 6.660156 12.5 7 C 12.335938 7 12.171875 7 12 7 C 12 6.671875 12 6.339844 12 6 Z M 12 6 "/>
<path style=" stroke:none;fill-rule:nonzero;fill:rgb(96.078432%,68.235296%,3.137255%);fill-opacity:1;" d="M 6.5625 7.9375 C 6.851562 8.011719 6.960938 8.15625 7.125 8.390625 C 7.292969 8.679688 7.285156 8.988281 7.25 9.3125 C 7.132812 9.710938 6.886719 9.945312 6.5625 10.1875 C 6.519531 10.167969 6.480469 10.144531 6.4375 10.125 C 6.476562 10.085938 6.476562 10.085938 6.515625 10.042969 C 6.867188 9.660156 6.96875 9.300781 6.957031 8.78125 C 6.914062 8.457031 6.742188 8.207031 6.5625 7.9375 Z M 6.5625 7.9375 "/>
<path style=" stroke:none;fill-rule:nonzero;fill:rgb(98.039216%,70.19608%,3.137255%);fill-opacity:1;" d="M 2.8125 8.25 C 2.945312 8.273438 3.046875 8.304688 3.164062 8.375 C 3.300781 8.574219 3.269531 8.78125 3.261719 9.011719 C 3.261719 9.058594 3.261719 9.105469 3.257812 9.152344 C 3.257812 9.269531 3.253906 9.382812 3.25 9.5 C 3.125 9.5625 3.125 9.5625 3 9.625 C 3 9.210938 3 8.800781 3 8.375 C 2.9375 8.355469 2.875 8.332031 2.8125 8.3125 C 2.8125 8.292969 2.8125 8.269531 2.8125 8.25 Z M 2.8125 8.25 "/>
<path style=" stroke:none;fill-rule:nonzero;fill:rgb(100%,70.19608%,0%);fill-opacity:1;" d="M 11.5 11 C 11.582031 11 11.664062 11 11.75 11 C 11.75 11.328125 11.75 11.660156 11.75 12 C 11.667969 12 11.585938 12 11.5 12 C 11.5 11.671875 11.5 11.339844 11.5 11 Z M 11.5 11 "/>
<path style=" stroke:none;fill-rule:nonzero;fill:rgb(100%,70.19608%,0%);fill-opacity:1;" d="M 10.5 8.5 C 10.582031 8.5 10.664062 8.5 10.75 8.5 C 10.75 8.828125 10.75 9.160156 10.75 9.5 C 10.667969 9.5 10.585938 9.5 10.5 9.5 C 10.5 9.171875 10.5 8.839844 10.5 8.5 Z M 10.5 8.5 "/>
<path style=" stroke:none;fill-rule:nonzero;fill:rgb(100%,70.19608%,0%);fill-opacity:1;" d="M 12 6 C 12.082031 6 12.164062 6 12.25 6 C 12.25 6.328125 12.25 6.660156 12.25 7 C 12.167969 7 12.085938 7 12 7 C 12 6.671875 12 6.339844 12 6 Z M 12 6 "/>
<path style=" stroke:none;fill-rule:nonzero;fill:rgb(0%,2.745098%,30.588236%);fill-opacity:1;" d="M 4 3.5 C 4.164062 3.5 4.328125 3.5 4.5 3.5 C 4.5 3.664062 4.5 3.828125 4.5 4 C 4.335938 4 4.171875 4 4 4 C 4 3.835938 4 3.671875 4 3.5 Z M 4 3.5 "/>
<path style=" stroke:none;fill-rule:nonzero;fill:rgb(0%,2.745098%,30.588236%);fill-opacity:1;" d="M 3 3.5 C 3.164062 3.5 3.328125 3.5 3.5 3.5 C 3.5 3.664062 3.5 3.828125 3.5 4 C 3.335938 4 3.171875 4 3 4 C 3 3.835938 3 3.671875 3 3.5 Z M 3 3.5 "/>
<path style=" stroke:none;fill-rule:nonzero;fill:rgb(0%,2.745098%,30.588236%);fill-opacity:1;" d="M 2 3.5 C 2.164062 3.5 2.328125 3.5 2.5 3.5 C 2.5 3.664062 2.5 3.828125 2.5 4 C 2.335938 4 2.171875 4 2 4 C 2 3.835938 2 3.671875 2 3.5 Z M 2 3.5 "/>
<path style=" stroke:none;fill-rule:nonzero;fill:rgb(97.647059%,69.411767%,1.960784%);fill-opacity:1;" d="M 3.5625 10.625 C 3.875 10.671875 4.050781 10.871094 4.261719 11.089844 C 4.390625 11.273438 4.40625 11.347656 4.378906 11.566406 C 4.347656 11.710938 4.347656 11.710938 4.3125 11.8125 C 4.230469 11.792969 4.148438 11.769531 4.0625 11.75 C 4.066406 11.710938 4.074219 11.671875 4.078125 11.628906 C 4.109375 11.28125 4.109375 11.28125 3.953125 10.988281 C 3.824219 10.882812 3.695312 10.785156 3.5625 10.6875 C 3.5625 10.667969 3.5625 10.644531 3.5625 10.625 Z M 3.5625 10.625 "/>
<path style=" stroke:none;fill-rule:nonzero;fill:rgb(94.509804%,68.627453%,5.882353%);fill-opacity:1;" d="M 3 9.625 C 2.976562 9.65625 2.957031 9.6875 2.933594 9.71875 C 2.847656 9.953125 2.898438 10.132812 2.9375 10.375 C 2.875 10.394531 2.8125 10.417969 2.75 10.4375 C 2.6875 10.25 2.625 10.066406 2.5625 9.875 C 2.859375 9.625 2.859375 9.625 3 9.625 Z M 3 9.625 "/>
<path style=" stroke:none;fill-rule:nonzero;fill:rgb(96.470588%,68.627453%,2.352941%);fill-opacity:1;" d="M 4.3125 6.1875 C 4.328125 6.277344 4.34375 6.367188 4.355469 6.457031 C 4.363281 6.507812 4.371094 6.558594 4.378906 6.609375 C 4.375 6.75 4.375 6.75 4.28125 6.863281 C 4.25 6.886719 4.21875 6.910156 4.1875 6.9375 C 4.144531 6.917969 4.105469 6.894531 4.0625 6.875 C 4.0625 6.667969 4.0625 6.460938 4.0625 6.25 C 4.1875 6.1875 4.1875 6.1875 4.3125 6.1875 Z M 4.3125 6.1875 "/>
<path style=" stroke:none;fill-rule:nonzero;fill:rgb(93.333334%,65.882355%,2.352941%);fill-opacity:1;" d="M 2.75 7.5625 C 2.8125 7.582031 2.875 7.605469 2.9375 7.625 C 2.875 7.8125 2.8125 7.996094 2.75 8.1875 C 2.6875 8.167969 2.625 8.144531 2.5625 8.125 C 2.625 7.9375 2.6875 7.753906 2.75 7.5625 Z M 2.75 7.5625 "/>
<path style=" stroke:none;fill-rule:nonzero;fill:rgb(89.019608%,64.313728%,6.27451%);fill-opacity:1;" d="M 3.5625 10.625 C 3.773438 10.660156 3.871094 10.722656 4.015625 10.878906 C 4.0625 10.929688 4.0625 10.929688 4.113281 10.984375 C 4.152344 11.023438 4.152344 11.023438 4.1875 11.0625 C 4.167969 11.125 4.144531 11.1875 4.125 11.25 C 3.921875 11.050781 3.734375 10.851562 3.5625 10.625 Z M 3.5625 10.625 "/>
</g>
</svg>
