<?xml version="1.0" encoding="UTF-8"?>
<svg xmlns="http://www.w3.org/2000/svg" xmlns:xlink="http://www.w3.org/1999/xlink" width="16" height="16" viewBox="0 0 16 16" version="1.1">
<g id="surface1">
<path style=" stroke:none;fill-rule:nonzero;fill:rgb(17.647059%,21.176471%,37.254903%);fill-opacity:1;" d="M 8.351562 0.859375 C 8.417969 0.859375 8.488281 0.859375 8.558594 0.859375 C 8.632812 0.859375 8.707031 0.859375 8.78125 0.859375 C 8.855469 0.859375 8.925781 0.859375 9.003906 0.859375 C 9.070312 0.859375 9.140625 0.859375 9.210938 0.859375 C 9.277344 0.859375 9.339844 0.859375 9.40625 0.859375 C 9.5625 0.875 9.5625 0.875 9.6875 1 C 9.695312 1.226562 9.695312 1.226562 9.6875 1.4375 C 9.777344 1.472656 9.863281 1.503906 9.953125 1.535156 C 10.027344 1.5625 10.027344 1.5625 10.101562 1.589844 C 10.265625 1.628906 10.34375 1.621094 10.5 1.5625 C 10.5625 1.523438 10.625 1.480469 10.6875 1.4375 C 11.058594 1.464844 11.242188 1.695312 11.492188 1.945312 C 11.535156 1.984375 11.578125 2.027344 11.625 2.070312 C 11.9375 2.375 11.9375 2.375 11.941406 2.675781 C 11.875 2.875 11.875 2.875 11.75 3.0625 C 11.789062 3.222656 11.789062 3.222656 11.867188 3.386719 C 11.902344 3.472656 11.902344 3.472656 11.941406 3.558594 C 11.960938 3.601562 11.980469 3.644531 12 3.6875 C 12.070312 3.695312 12.140625 3.707031 12.214844 3.714844 C 12.4375 3.75 12.4375 3.75 12.5 3.8125 C 12.507812 3.933594 12.507812 4.050781 12.507812 4.171875 C 12.507812 4.246094 12.507812 4.316406 12.507812 4.394531 C 12.507812 4.46875 12.507812 4.546875 12.507812 4.625 C 12.507812 4.703125 12.507812 4.777344 12.507812 4.855469 C 12.507812 4.929688 12.507812 5.003906 12.507812 5.078125 C 12.507812 5.144531 12.507812 5.210938 12.507812 5.28125 C 12.5 5.4375 12.5 5.4375 12.4375 5.5 C 12.292969 5.523438 12.144531 5.542969 12 5.5625 C 11.953125 5.671875 11.90625 5.78125 11.863281 5.890625 C 11.824219 5.980469 11.824219 5.980469 11.785156 6.074219 C 11.773438 6.132812 11.761719 6.191406 11.75 6.25 C 11.835938 6.378906 11.835938 6.378906 11.9375 6.5 C 11.960938 6.683594 11.960938 6.777344 11.855469 6.933594 C 11.820312 6.96875 11.78125 7.007812 11.742188 7.046875 C 11.703125 7.085938 11.660156 7.128906 11.621094 7.171875 C 11.578125 7.210938 11.53125 7.253906 11.488281 7.296875 C 11.445312 7.339844 11.402344 7.382812 11.359375 7.425781 C 10.996094 7.785156 10.996094 7.785156 10.6875 7.8125 C 10.648438 7.78125 10.609375 7.75 10.566406 7.71875 C 10.4375 7.601562 10.4375 7.601562 10.25 7.648438 C 10.183594 7.667969 10.117188 7.6875 10.046875 7.707031 C 9.980469 7.726562 9.914062 7.746094 9.84375 7.765625 C 9.792969 7.78125 9.742188 7.796875 9.6875 7.8125 C 9.691406 7.882812 9.691406 7.953125 9.695312 8.023438 C 9.6875 8.25 9.6875 8.25 9.5625 8.375 C 9.40625 8.390625 9.40625 8.390625 9.210938 8.390625 C 9.144531 8.390625 9.074219 8.390625 9.003906 8.390625 C 8.929688 8.390625 8.855469 8.390625 8.78125 8.390625 C 8.707031 8.390625 8.636719 8.390625 8.558594 8.390625 C 8.492188 8.390625 8.421875 8.390625 8.351562 8.390625 C 8.285156 8.390625 8.222656 8.390625 8.15625 8.390625 C 8 8.375 8 8.375 7.875 8.25 C 7.867188 8.023438 7.867188 8.023438 7.875 7.8125 C 7.757812 7.777344 7.636719 7.742188 7.515625 7.707031 C 7.449219 7.6875 7.382812 7.667969 7.3125 7.648438 C 7.125 7.601562 7.125 7.601562 6.996094 7.71875 C 6.957031 7.75 6.914062 7.78125 6.875 7.8125 C 6.503906 7.78125 6.324219 7.554688 6.074219 7.300781 C 6.03125 7.257812 5.988281 7.21875 5.941406 7.175781 C 5.636719 6.871094 5.636719 6.871094 5.585938 6.609375 C 5.625 6.4375 5.625 6.4375 5.726562 6.308594 C 5.753906 6.269531 5.78125 6.230469 5.8125 6.1875 C 5.78125 6.023438 5.78125 6.023438 5.699219 5.859375 C 5.675781 5.804688 5.648438 5.746094 5.625 5.691406 C 5.601562 5.648438 5.582031 5.605469 5.5625 5.5625 C 5.492188 5.554688 5.421875 5.550781 5.351562 5.542969 C 5.277344 5.527344 5.203125 5.515625 5.125 5.5 C 4.988281 5.296875 4.984375 5.234375 4.984375 5 C 4.984375 4.941406 4.984375 4.878906 4.984375 4.816406 C 4.984375 4.753906 4.984375 4.691406 4.984375 4.625 C 4.984375 4.5625 4.984375 4.5 4.984375 4.433594 C 4.984375 4.371094 4.984375 4.3125 4.984375 4.25 C 4.984375 4.195312 4.984375 4.140625 4.984375 4.082031 C 5 3.9375 5 3.9375 5.125 3.75 C 5.351562 3.707031 5.351562 3.707031 5.5625 3.6875 C 5.644531 3.460938 5.726562 3.234375 5.8125 3 C 5.75 2.9375 5.6875 2.875 5.625 2.8125 C 5.585938 2.644531 5.585938 2.644531 5.625 2.4375 C 5.757812 2.253906 5.914062 2.105469 6.074219 1.949219 C 6.117188 1.90625 6.160156 1.863281 6.203125 1.820312 C 6.566406 1.464844 6.566406 1.464844 6.875 1.4375 C 6.914062 1.46875 6.953125 1.5 6.996094 1.53125 C 7.125 1.648438 7.125 1.648438 7.3125 1.601562 C 7.378906 1.582031 7.445312 1.5625 7.515625 1.542969 C 7.582031 1.523438 7.648438 1.503906 7.71875 1.484375 C 7.769531 1.46875 7.820312 1.453125 7.875 1.4375 C 7.871094 1.367188 7.871094 1.296875 7.867188 1.226562 C 7.878906 0.855469 8.019531 0.859375 8.351562 0.859375 Z M 7.25 3.1875 C 6.863281 3.648438 6.644531 4.167969 6.664062 4.773438 C 6.75 5.410156 7.058594 5.933594 7.554688 6.332031 C 8.113281 6.71875 8.675781 6.773438 9.347656 6.660156 C 9.910156 6.503906 10.308594 6.121094 10.613281 5.636719 C 10.878906 5.144531 10.953125 4.558594 10.804688 4.015625 C 10.558594 3.375 10.164062 2.964844 9.554688 2.671875 C 8.730469 2.339844 7.867188 2.589844 7.25 3.1875 Z M 7.25 3.1875 "/>
<path style=" stroke:none;fill-rule:nonzero;fill:rgb(17.647059%,21.176471%,37.254903%);fill-opacity:1;" d="M 8.75 8.625 C 8.847656 8.652344 8.847656 8.652344 8.949219 8.679688 C 9.015625 8.699219 9.082031 8.71875 9.152344 8.738281 C 9.246094 8.765625 9.246094 8.765625 9.34375 8.792969 C 9.5 8.875 9.5 8.875 9.585938 9.027344 C 9.628906 9.210938 9.613281 9.324219 9.5625 9.5 C 9.601562 9.519531 9.640625 9.535156 9.679688 9.554688 C 9.8125 9.625 9.8125 9.625 9.9375 9.75 C 10.074219 9.765625 10.074219 9.765625 10.226562 9.757812 C 10.277344 9.757812 10.328125 9.753906 10.382812 9.753906 C 10.441406 9.753906 10.441406 9.753906 10.5 9.75 C 10.59375 9.921875 10.6875 10.089844 10.78125 10.261719 C 10.808594 10.308594 10.835938 10.359375 10.863281 10.40625 C 11.121094 10.886719 11.121094 10.886719 11.0625 11.125 C 10.980469 11.1875 10.894531 11.25 10.8125 11.3125 C 10.769531 11.46875 10.769531 11.46875 10.765625 11.636719 C 10.761719 11.722656 10.761719 11.722656 10.753906 11.808594 C 10.753906 11.851562 10.75 11.894531 10.75 11.9375 C 10.875 11.980469 10.996094 12.019531 11.125 12.0625 C 11.140625 12.40625 11.089844 12.667969 10.976562 12.988281 C 10.960938 13.03125 10.949219 13.070312 10.933594 13.113281 C 10.871094 13.296875 10.828125 13.421875 10.6875 13.5625 C 10.355469 13.582031 10.355469 13.582031 10.1875 13.5 C 10.171875 13.535156 10.152344 13.574219 10.136719 13.609375 C 10.0625 13.75 10.0625 13.75 9.957031 13.863281 C 9.835938 14.066406 9.890625 14.214844 9.9375 14.4375 C 9.660156 14.621094 9.378906 14.785156 9.082031 14.933594 C 9.027344 14.960938 8.96875 14.988281 8.914062 15.015625 C 8.75 15.0625 8.75 15.0625 8.578125 15.015625 C 8.4375 14.9375 8.4375 14.9375 8.386719 14.804688 C 8.378906 14.746094 8.378906 14.746094 8.375 14.6875 C 8.3125 14.707031 8.25 14.730469 8.1875 14.75 C 8.101562 14.753906 8.011719 14.753906 7.925781 14.753906 C 7.847656 14.753906 7.769531 14.75 7.6875 14.75 C 7.667969 14.851562 7.644531 14.957031 7.625 15.0625 C 7.273438 15.15625 7.035156 15.082031 6.703125 14.960938 C 6.65625 14.945312 6.609375 14.929688 6.558594 14.914062 C 6.214844 14.792969 6.214844 14.792969 6.09375 14.597656 C 6.0625 14.4375 6.0625 14.4375 6.0625 14.1875 C 5.941406 14.003906 5.941406 14.003906 5.75 13.875 C 5.605469 13.894531 5.457031 13.914062 5.3125 13.9375 C 5.078125 13.757812 4.957031 13.515625 4.828125 13.253906 C 4.808594 13.214844 4.789062 13.179688 4.769531 13.140625 C 4.65625 12.917969 4.601562 12.75 4.625 12.5 C 4.726562 12.457031 4.832031 12.417969 4.9375 12.375 C 4.9375 12.148438 4.9375 11.921875 4.9375 11.6875 C 4.8125 11.644531 4.691406 11.605469 4.5625 11.5625 C 4.539062 11.199219 4.609375 10.9375 4.746094 10.601562 C 4.765625 10.554688 4.78125 10.511719 4.796875 10.464844 C 4.925781 10.136719 4.925781 10.136719 5 10.0625 C 5.167969 10.074219 5.332031 10.101562 5.5 10.125 C 5.515625 10.089844 5.535156 10.050781 5.550781 10.015625 C 5.625 9.875 5.625 9.875 5.730469 9.761719 C 5.851562 9.5625 5.789062 9.410156 5.75 9.1875 C 5.917969 9.09375 6.089844 9 6.257812 8.90625 C 6.304688 8.878906 6.351562 8.851562 6.402344 8.824219 C 6.675781 8.675781 6.867188 8.589844 7.1875 8.625 C 7.230469 8.726562 7.269531 8.832031 7.3125 8.9375 C 7.539062 8.917969 7.765625 8.894531 8 8.875 C 8.019531 8.773438 8.042969 8.667969 8.0625 8.5625 C 8.28125 8.453125 8.523438 8.5625 8.75 8.625 Z M 6.59375 10.753906 C 6.246094 11.214844 6.179688 11.679688 6.25 12.25 C 6.402344 12.75 6.757812 13.042969 7.191406 13.3125 C 7.53125 13.488281 7.921875 13.492188 8.289062 13.390625 C 8.613281 13.273438 8.839844 13.144531 9.0625 12.875 C 9.109375 12.824219 9.152344 12.773438 9.199219 12.722656 C 9.476562 12.328125 9.484375 11.90625 9.4375 11.4375 C 9.332031 11.023438 9.097656 10.6875 8.75 10.4375 C 7.988281 10.054688 7.1875 10.085938 6.59375 10.753906 Z M 6.59375 10.753906 "/>
<path style=" stroke:none;fill-rule:nonzero;fill:rgb(17.647059%,21.176471%,37.254903%);fill-opacity:1;" d="M 2.59375 4.984375 C 2.648438 4.984375 2.703125 4.984375 2.761719 4.984375 C 2.820312 4.984375 2.878906 4.984375 2.9375 4.984375 C 2.996094 4.984375 3.054688 4.984375 3.113281 4.984375 C 3.195312 4.984375 3.195312 4.984375 3.28125 4.984375 C 3.332031 4.984375 3.382812 4.984375 3.4375 4.984375 C 3.5625 5 3.5625 5 3.6875 5.125 C 3.695312 5.289062 3.695312 5.289062 3.6875 5.4375 C 3.808594 5.453125 3.808594 5.453125 3.933594 5.472656 C 3.980469 5.480469 4.023438 5.484375 4.070312 5.492188 C 4.128906 5.496094 4.128906 5.496094 4.1875 5.5 C 4.207031 5.480469 4.230469 5.460938 4.25 5.4375 C 4.433594 5.410156 4.566406 5.398438 4.726562 5.503906 C 4.832031 5.59375 4.925781 5.6875 5.023438 5.789062 C 5.058594 5.820312 5.09375 5.855469 5.125 5.886719 C 5.296875 6.0625 5.371094 6.144531 5.398438 6.390625 C 5.375 6.5625 5.375 6.5625 5.339844 6.691406 C 5.304688 6.851562 5.335938 6.96875 5.375 7.125 C 5.449219 7.121094 5.449219 7.121094 5.523438 7.117188 C 5.6875 7.125 5.6875 7.125 5.8125 7.25 C 5.828125 7.378906 5.828125 7.378906 5.828125 7.53125 C 5.828125 7.613281 5.828125 7.613281 5.828125 7.699219 C 5.828125 7.757812 5.828125 7.816406 5.828125 7.875 C 5.828125 7.960938 5.828125 7.960938 5.828125 8.050781 C 5.828125 8.105469 5.828125 8.160156 5.828125 8.21875 C 5.828125 8.269531 5.828125 8.320312 5.828125 8.371094 C 5.8125 8.5 5.8125 8.5 5.6875 8.625 C 5.523438 8.632812 5.523438 8.632812 5.375 8.625 C 5.363281 8.707031 5.351562 8.789062 5.339844 8.871094 C 5.332031 8.917969 5.328125 8.960938 5.320312 9.007812 C 5.316406 9.046875 5.316406 9.085938 5.3125 9.125 C 5.332031 9.144531 5.355469 9.167969 5.375 9.1875 C 5.402344 9.371094 5.414062 9.503906 5.308594 9.664062 C 5.21875 9.769531 5.121094 9.863281 5.019531 9.960938 C 4.984375 9.996094 4.953125 10.027344 4.917969 10.0625 C 4.769531 10.210938 4.664062 10.304688 4.457031 10.34375 C 4.3125 10.3125 4.3125 10.3125 4.125 10.1875 C 3.894531 10.238281 3.894531 10.238281 3.6875 10.3125 C 3.691406 10.363281 3.691406 10.410156 3.695312 10.460938 C 3.6875 10.625 3.6875 10.625 3.5625 10.75 C 3.4375 10.765625 3.4375 10.765625 3.28125 10.765625 C 3.226562 10.765625 3.171875 10.765625 3.113281 10.765625 C 3.054688 10.765625 2.996094 10.765625 2.9375 10.765625 C 2.878906 10.765625 2.820312 10.765625 2.761719 10.765625 C 2.679688 10.765625 2.679688 10.765625 2.59375 10.765625 C 2.542969 10.765625 2.492188 10.765625 2.4375 10.765625 C 2.3125 10.75 2.3125 10.75 2.1875 10.625 C 2.179688 10.460938 2.179688 10.460938 2.1875 10.3125 C 2.042969 10.273438 1.898438 10.230469 1.75 10.1875 C 1.6875 10.25 1.6875 10.25 1.625 10.3125 C 1.441406 10.34375 1.3125 10.351562 1.148438 10.25 C 1.042969 10.160156 0.945312 10.066406 0.847656 9.964844 C 0.8125 9.933594 0.777344 9.902344 0.742188 9.867188 C 0.644531 9.769531 0.566406 9.683594 0.5 9.5625 C 0.503906 9.34375 0.527344 9.195312 0.625 9 C 0.585938 8.875 0.546875 8.75 0.5 8.625 C 0.425781 8.628906 0.425781 8.628906 0.351562 8.632812 C 0.1875 8.625 0.1875 8.625 0.0625 8.5 C 0.046875 8.371094 0.046875 8.371094 0.046875 8.21875 C 0.046875 8.164062 0.046875 8.109375 0.046875 8.050781 C 0.046875 7.964844 0.046875 7.964844 0.046875 7.875 C 0.046875 7.816406 0.046875 7.757812 0.046875 7.699219 C 0.046875 7.644531 0.046875 7.589844 0.046875 7.53125 C 0.046875 7.480469 0.046875 7.429688 0.046875 7.378906 C 0.0625 7.25 0.0625 7.25 0.1875 7.125 C 0.351562 7.117188 0.351562 7.117188 0.5 7.125 C 0.523438 7.042969 0.546875 6.964844 0.570312 6.882812 C 0.582031 6.835938 0.597656 6.792969 0.609375 6.746094 C 0.613281 6.707031 0.621094 6.667969 0.625 6.625 C 0.582031 6.585938 0.542969 6.542969 0.5 6.5 C 0.46875 6.359375 0.46875 6.359375 0.5 6.1875 C 0.613281 6.039062 0.71875 5.921875 0.851562 5.792969 C 0.882812 5.757812 0.917969 5.722656 0.949219 5.6875 C 1.125 5.515625 1.207031 5.441406 1.453125 5.414062 C 1.625 5.4375 1.625 5.4375 1.753906 5.472656 C 1.910156 5.507812 2.03125 5.476562 2.1875 5.4375 C 2.183594 5.386719 2.183594 5.339844 2.179688 5.289062 C 2.195312 4.996094 2.339844 4.984375 2.59375 4.984375 Z M 1.75 7.0625 C 1.515625 7.433594 1.511719 7.824219 1.5625 8.25 C 1.671875 8.636719 1.917969 8.90625 2.25 9.125 C 2.625 9.308594 3.058594 9.320312 3.460938 9.210938 C 3.859375 9.03125 4.132812 8.71875 4.308594 8.324219 C 4.421875 7.976562 4.398438 7.632812 4.25 7.296875 C 3.988281 6.84375 3.628906 6.574219 3.125 6.4375 C 2.585938 6.355469 2.09375 6.675781 1.75 7.0625 Z M 1.75 7.0625 "/>
<path style=" stroke:none;fill-rule:nonzero;fill:rgb(100%,40.784314%,34.901962%);fill-opacity:1;" d="M 13.335938 7.132812 C 13.507812 7.191406 13.652344 7.261719 13.8125 7.351562 C 13.871094 7.386719 13.929688 7.417969 13.992188 7.453125 C 14.054688 7.488281 14.117188 7.527344 14.179688 7.5625 C 14.242188 7.597656 14.308594 7.636719 14.371094 7.671875 C 15.8125 8.5 15.8125 8.5 15.9375 8.625 C 15.957031 8.773438 15.957031 8.773438 15.9375 8.9375 C 15.84375 9.03125 15.84375 9.03125 15.707031 9.113281 C 15.65625 9.144531 15.605469 9.175781 15.550781 9.210938 C 15.492188 9.242188 15.433594 9.277344 15.375 9.3125 C 15.3125 9.351562 15.246094 9.386719 15.179688 9.425781 C 14.96875 9.550781 14.757812 9.671875 14.546875 9.792969 C 14.402344 9.875 14.257812 9.957031 14.117188 10.039062 C 14.054688 10.074219 13.992188 10.113281 13.925781 10.148438 C 13.808594 10.214844 13.695312 10.285156 13.582031 10.355469 C 13.414062 10.453125 13.316406 10.46875 13.125 10.4375 C 12.992188 10.238281 12.984375 10.1875 12.992188 9.957031 C 12.992188 9.90625 12.996094 9.855469 12.996094 9.804688 C 12.996094 9.765625 13 9.726562 13 9.6875 C 12.945312 9.6875 12.890625 9.6875 12.835938 9.691406 C 12.636719 9.695312 12.4375 9.695312 12.234375 9.699219 C 12.148438 9.699219 12.0625 9.699219 11.976562 9.703125 C 11.851562 9.703125 11.726562 9.703125 11.601562 9.707031 C 11.527344 9.707031 11.453125 9.707031 11.375 9.707031 C 11.1875 9.6875 11.1875 9.6875 11.070312 9.613281 C 10.976562 9.460938 10.976562 9.351562 10.976562 9.171875 C 10.976562 9.074219 10.976562 9.074219 10.976562 8.980469 C 10.976562 8.914062 10.980469 8.84375 10.980469 8.777344 C 10.980469 8.710938 10.980469 8.644531 10.980469 8.574219 C 10.984375 8.078125 10.984375 8.078125 11.125 7.9375 C 11.3125 7.921875 11.3125 7.921875 11.546875 7.925781 C 11.609375 7.925781 11.609375 7.925781 11.671875 7.925781 C 11.804688 7.925781 11.9375 7.929688 12.070312 7.929688 C 12.160156 7.929688 12.25 7.929688 12.339844 7.929688 C 12.558594 7.933594 12.78125 7.933594 13 7.9375 C 12.996094 7.894531 12.996094 7.851562 12.992188 7.808594 C 12.992188 7.75 12.988281 7.695312 12.988281 7.636719 C 12.984375 7.554688 12.984375 7.554688 12.980469 7.46875 C 13 7.3125 13 7.3125 13.074219 7.195312 C 13.1875 7.125 13.1875 7.125 13.335938 7.132812 Z M 13.335938 7.132812 "/>
<path style=" stroke:none;fill-rule:nonzero;fill:rgb(17.647059%,21.176471%,37.254903%);fill-opacity:1;" d="M 9.671875 3.210938 C 10.089844 3.511719 10.335938 3.871094 10.4375 4.375 C 10.492188 4.847656 10.371094 5.300781 10.09375 5.695312 C 9.785156 6.027344 9.441406 6.21875 8.992188 6.273438 C 8.453125 6.292969 8.058594 6.203125 7.640625 5.859375 C 7.277344 5.417969 7.097656 5.058594 7.109375 4.484375 C 7.152344 4.023438 7.347656 3.648438 7.691406 3.34375 C 8.28125 2.898438 9.027344 2.835938 9.671875 3.210938 Z M 9.671875 3.210938 "/>
<path style=" stroke:none;fill-rule:nonzero;fill:rgb(17.647059%,21.176471%,37.254903%);fill-opacity:1;" d="M 8.5 10.8125 C 8.761719 10.984375 8.898438 11.136719 9 11.4375 C 9.054688 11.902344 9.039062 12.25 8.75 12.625 C 8.476562 12.882812 8.230469 13.003906 7.855469 13.023438 C 7.503906 13.015625 7.21875 12.898438 6.964844 12.65625 C 6.675781 12.328125 6.664062 12.046875 6.671875 11.625 C 6.703125 11.285156 6.839844 11.09375 7.085938 10.855469 C 7.5625 10.546875 8 10.554688 8.5 10.8125 Z M 8.5 10.8125 "/>
<path style=" stroke:none;fill-rule:nonzero;fill:rgb(17.647059%,21.176471%,37.254903%);fill-opacity:1;" d="M 3.515625 7.035156 C 3.765625 7.257812 3.921875 7.488281 3.949219 7.832031 C 3.925781 8.152344 3.839844 8.375 3.625 8.625 C 3.332031 8.832031 3.101562 8.855469 2.75 8.847656 C 2.441406 8.789062 2.257812 8.613281 2.0625 8.375 C 1.933594 8.113281 1.972656 7.785156 2 7.5 C 2.15625 7.171875 2.347656 7.027344 2.675781 6.890625 C 2.988281 6.855469 3.234375 6.902344 3.515625 7.035156 Z M 3.515625 7.035156 "/>
</g>
</svg>
