<?xml version="1.0" encoding="UTF-8"?>
<svg xmlns="http://www.w3.org/2000/svg" xmlns:xlink="http://www.w3.org/1999/xlink" width="16" height="16" viewBox="0 0 16 16" version="1.1">
<g id="surface1">
<path style=" stroke:none;fill-rule:nonzero;fill:rgb(96.862745%,36.078432%,38.431373%);fill-opacity:1;" d="M 12.222656 0.984375 C 12.984375 1.5625 13.511719 2.34375 13.648438 3.300781 C 13.773438 4.449219 13.464844 5.359375 12.75 6.25 C 12.511719 6.511719 12.265625 6.761719 12.015625 7.011719 C 11.945312 7.082031 11.875 7.15625 11.800781 7.226562 C 11.65625 7.371094 11.507812 7.519531 11.363281 7.667969 C 11.175781 7.851562 10.988281 8.039062 10.800781 8.230469 C 10.65625 8.375 10.511719 8.519531 10.363281 8.664062 C 10.296875 8.734375 10.226562 8.804688 10.160156 8.875 C 9.324219 9.714844 8.414062 10.296875 7.199219 10.332031 C 6.785156 10.328125 6.398438 10.234375 6 10.125 C 6 9.710938 6.308594 9.507812 6.585938 9.230469 C 6.976562 8.855469 7.273438 8.769531 7.8125 8.75 C 8.734375 8.484375 9.5 7.394531 10.164062 6.734375 C 10.292969 6.605469 10.425781 6.480469 10.554688 6.351562 C 10.714844 6.195312 10.871094 6.039062 11.03125 5.882812 C 11.117188 5.796875 11.207031 5.710938 11.292969 5.625 C 11.792969 5.125 12.148438 4.582031 12.203125 3.863281 C 12.164062 3.269531 11.941406 2.738281 11.507812 2.324219 C 10.960938 1.890625 10.441406 1.808594 9.75 1.875 C 8.949219 2.042969 8.378906 2.796875 7.820312 3.351562 C 7.789062 3.382812 7.757812 3.414062 7.726562 3.445312 C 7.566406 3.605469 7.402344 3.765625 7.242188 3.925781 C 7.074219 4.09375 6.910156 4.257812 6.742188 4.421875 C 6.613281 4.546875 6.484375 4.675781 6.355469 4.804688 C 6.292969 4.867188 6.234375 4.925781 6.171875 4.988281 C 5.5625 5.570312 5.5625 5.570312 5.292969 6.34375 C 5.296875 6.453125 5.296875 6.453125 5.300781 6.558594 C 5.234375 7.285156 4.582031 7.734375 4.0625 8.1875 C 3.9375 8.125 3.9375 8.125 3.882812 8.011719 C 3.601562 7.089844 3.660156 6.074219 4.082031 5.207031 C 4.460938 4.519531 5.074219 3.976562 5.625 3.421875 C 5.65625 3.390625 5.6875 3.359375 5.722656 3.328125 C 5.886719 3.15625 6.054688 2.988281 6.222656 2.820312 C 6.394531 2.648438 6.566406 2.476562 6.738281 2.300781 C 6.871094 2.167969 7.003906 2.03125 7.136719 1.898438 C 7.199219 1.835938 7.265625 1.773438 7.328125 1.707031 C 7.816406 1.207031 8.339844 0.742188 9.023438 0.539062 C 9.082031 0.519531 9.144531 0.5 9.203125 0.484375 C 10.253906 0.203125 11.328125 0.375 12.222656 0.984375 Z M 12.222656 0.984375 "/>
<path style=" stroke:none;fill-rule:nonzero;fill:rgb(96.078432%,27.450982%,44.313726%);fill-opacity:1;" d="M 10 5.875 C 10 6.289062 9.691406 6.492188 9.414062 6.769531 C 9.09375 7.078125 8.847656 7.234375 8.390625 7.226562 C 7.710938 7.304688 7.246094 7.832031 6.789062 8.292969 C 6.71875 8.363281 6.644531 8.4375 6.574219 8.507812 C 6.421875 8.65625 6.269531 8.808594 6.121094 8.960938 C 5.929688 9.152344 5.738281 9.34375 5.542969 9.535156 C 5.394531 9.683594 5.246094 9.832031 5.097656 9.980469 C 5.027344 10.050781 4.953125 10.121094 4.882812 10.191406 C 4.320312 10.75 3.859375 11.320312 3.796875 12.136719 C 3.835938 12.730469 4.058594 13.261719 4.492188 13.675781 C 5.039062 14.109375 5.558594 14.191406 6.25 14.125 C 7.257812 13.914062 8.050781 12.78125 8.753906 12.082031 C 8.886719 11.953125 9.019531 11.820312 9.152344 11.691406 C 9.316406 11.53125 9.476562 11.371094 9.640625 11.210938 C 9.730469 11.121094 9.820312 11.035156 9.910156 10.945312 C 10.375 10.480469 10.765625 9.984375 10.769531 9.304688 C 10.785156 8.910156 10.941406 8.738281 11.21875 8.472656 C 11.269531 8.425781 11.324219 8.375 11.378906 8.328125 C 11.433594 8.277344 11.484375 8.226562 11.539062 8.175781 C 11.671875 8.054688 11.804688 7.933594 11.9375 7.8125 C 12.0625 7.875 12.0625 7.875 12.117188 7.988281 C 12.398438 8.910156 12.339844 9.925781 11.917969 10.792969 C 11.539062 11.480469 10.925781 12.023438 10.375 12.578125 C 10.34375 12.609375 10.3125 12.640625 10.28125 12.671875 C 10.113281 12.84375 9.945312 13.011719 9.777344 13.179688 C 9.605469 13.351562 9.433594 13.523438 9.261719 13.699219 C 9.128906 13.832031 8.996094 13.96875 8.863281 14.101562 C 8.800781 14.164062 8.734375 14.226562 8.671875 14.292969 C 8.183594 14.792969 7.660156 15.257812 6.976562 15.460938 C 6.917969 15.480469 6.855469 15.5 6.796875 15.515625 C 5.882812 15.761719 4.921875 15.667969 4.089844 15.21875 C 3.242188 14.699219 2.761719 14.019531 2.421875 13.101562 C 2.21875 12.121094 2.308594 11.136719 2.851562 10.277344 C 3.1875 9.804688 3.574219 9.394531 3.984375 8.988281 C 4.054688 8.917969 4.125 8.84375 4.195312 8.773438 C 4.34375 8.628906 4.492188 8.480469 4.640625 8.332031 C 4.824219 8.148438 5.011719 7.960938 5.199219 7.769531 C 5.34375 7.625 5.488281 7.480469 5.632812 7.335938 C 5.703125 7.265625 5.773438 7.195312 5.839844 7.125 C 7.042969 5.914062 8.3125 5.410156 10 5.875 Z M 10 5.875 "/>
</g>
</svg>
