<?xml version="1.0" encoding="UTF-8"?>
<svg xmlns="http://www.w3.org/2000/svg" xmlns:xlink="http://www.w3.org/1999/xlink" width="16" height="16" viewBox="0 0 16 16" version="1.1">
<g id="surface1">
<path style=" stroke:none;fill-rule:nonzero;fill:rgb(16.862746%,73.333335%,91.37255%);fill-opacity:1;" d="M 1.859375 6.226562 C 1.921875 6.226562 1.921875 6.226562 1.984375 6.222656 C 2.070312 6.222656 2.15625 6.222656 2.242188 6.226562 C 2.375 6.226562 2.507812 6.226562 2.640625 6.222656 C 2.722656 6.222656 2.808594 6.222656 2.890625 6.226562 C 2.96875 6.226562 3.042969 6.226562 3.121094 6.226562 C 3.3125 6.25 3.3125 6.25 3.429688 6.332031 C 3.542969 6.5 3.515625 6.660156 3.511719 6.855469 C 3.507812 6.964844 3.507812 6.964844 3.507812 7.078125 C 3.503906 7.136719 3.503906 7.191406 3.5 7.25 C 3.664062 7.25 3.828125 7.25 4 7.25 C 3.996094 7.164062 3.996094 7.164062 3.992188 7.078125 C 3.992188 7.003906 3.988281 6.929688 3.988281 6.855469 C 3.984375 6.78125 3.984375 6.707031 3.980469 6.632812 C 4 6.4375 4 6.4375 4.070312 6.332031 C 4.246094 6.207031 4.394531 6.226562 4.609375 6.226562 C 4.671875 6.226562 4.671875 6.226562 4.734375 6.222656 C 4.820312 6.222656 4.90625 6.222656 4.992188 6.226562 C 5.125 6.226562 5.257812 6.226562 5.390625 6.222656 C 5.472656 6.222656 5.558594 6.222656 5.640625 6.226562 C 5.71875 6.226562 5.792969 6.226562 5.871094 6.226562 C 6.0625 6.25 6.0625 6.25 6.179688 6.332031 C 6.292969 6.5 6.265625 6.660156 6.261719 6.855469 C 6.257812 6.964844 6.257812 6.964844 6.257812 7.078125 C 6.253906 7.136719 6.253906 7.191406 6.25 7.25 C 6.496094 7.25 6.746094 7.25 7 7.25 C 6.996094 7.164062 6.996094 7.164062 6.992188 7.078125 C 6.992188 7.003906 6.988281 6.929688 6.988281 6.855469 C 6.984375 6.78125 6.984375 6.707031 6.980469 6.632812 C 7 6.4375 7 6.4375 7.070312 6.332031 C 7.246094 6.207031 7.394531 6.226562 7.609375 6.226562 C 7.671875 6.226562 7.671875 6.226562 7.734375 6.222656 C 7.820312 6.222656 7.90625 6.222656 7.992188 6.226562 C 8.125 6.226562 8.257812 6.226562 8.390625 6.222656 C 8.472656 6.222656 8.558594 6.222656 8.640625 6.226562 C 8.71875 6.226562 8.792969 6.226562 8.871094 6.226562 C 9.0625 6.25 9.0625 6.25 9.179688 6.332031 C 9.292969 6.5 9.265625 6.660156 9.261719 6.855469 C 9.257812 6.964844 9.257812 6.964844 9.257812 7.078125 C 9.253906 7.136719 9.253906 7.191406 9.25 7.25 C 9.300781 7.246094 9.351562 7.246094 9.40625 7.242188 C 9.472656 7.238281 9.539062 7.238281 9.609375 7.234375 C 9.675781 7.230469 9.742188 7.230469 9.8125 7.226562 C 10.046875 7.257812 10.105469 7.316406 10.25 7.5 C 10.28125 7.671875 10.28125 7.671875 10.28125 7.867188 C 10.28125 7.941406 10.285156 8.015625 10.285156 8.09375 C 10.285156 8.175781 10.285156 8.253906 10.28125 8.335938 C 10.285156 8.417969 10.285156 8.5 10.285156 8.585938 C 10.285156 8.757812 10.285156 8.933594 10.28125 9.109375 C 10.28125 9.332031 10.28125 9.550781 10.285156 9.777344 C 10.285156 9.988281 10.285156 10.203125 10.28125 10.414062 C 10.285156 10.492188 10.285156 10.574219 10.285156 10.65625 C 10.285156 10.769531 10.285156 10.769531 10.28125 10.882812 C 10.28125 10.945312 10.28125 11.011719 10.28125 11.078125 C 10.242188 11.300781 10.175781 11.363281 10 11.5 C 9.816406 11.53125 9.816406 11.53125 9.601562 11.53125 C 9.480469 11.53125 9.480469 11.53125 9.351562 11.535156 C 9.261719 11.535156 9.171875 11.53125 9.082031 11.53125 C 8.984375 11.53125 8.890625 11.535156 8.792969 11.535156 C 8.535156 11.535156 8.273438 11.535156 8.015625 11.535156 C 7.742188 11.535156 7.46875 11.535156 7.199219 11.535156 C 6.742188 11.535156 6.285156 11.535156 5.828125 11.53125 C 5.300781 11.53125 4.773438 11.53125 4.246094 11.535156 C 3.792969 11.535156 3.339844 11.535156 2.886719 11.535156 C 2.617188 11.535156 2.34375 11.535156 2.074219 11.535156 C 1.820312 11.535156 1.566406 11.535156 1.3125 11.53125 C 1.21875 11.53125 1.125 11.53125 1.03125 11.535156 C 0.902344 11.535156 0.777344 11.53125 0.648438 11.53125 C 0.578125 11.53125 0.503906 11.53125 0.433594 11.53125 C 0.210938 11.492188 0.136719 11.425781 0 11.25 C -0.03125 11.078125 -0.03125 11.078125 -0.03125 10.882812 C -0.03125 10.808594 -0.0351562 10.734375 -0.0351562 10.65625 C -0.0351562 10.535156 -0.0351562 10.535156 -0.03125 10.414062 C -0.0351562 10.332031 -0.0351562 10.25 -0.0351562 10.164062 C -0.0351562 9.992188 -0.0351562 9.816406 -0.03125 9.644531 C -0.03125 9.421875 -0.03125 9.195312 -0.0351562 8.972656 C -0.0351562 8.761719 -0.0351562 8.550781 -0.03125 8.335938 C -0.0351562 8.253906 -0.0351562 8.175781 -0.0351562 8.09375 C -0.0351562 8.019531 -0.03125 7.945312 -0.03125 7.867188 C -0.03125 7.804688 -0.03125 7.738281 -0.03125 7.671875 C 0.0078125 7.457031 0.0742188 7.378906 0.25 7.25 C 0.429688 7.230469 0.585938 7.226562 0.765625 7.234375 C 0.835938 7.238281 0.835938 7.238281 0.90625 7.238281 C 1.019531 7.242188 1.136719 7.246094 1.25 7.25 C 1.246094 7.164062 1.246094 7.164062 1.242188 7.078125 C 1.242188 7.003906 1.238281 6.929688 1.238281 6.855469 C 1.234375 6.78125 1.234375 6.707031 1.230469 6.632812 C 1.25 6.4375 1.25 6.4375 1.320312 6.332031 C 1.496094 6.207031 1.644531 6.226562 1.859375 6.226562 Z M 1.859375 6.226562 "/>
<path style=" stroke:none;fill-rule:nonzero;fill:rgb(96.470588%,49.019608%,62.352943%);fill-opacity:1;" d="M 9.25 0 C 9.488281 0.113281 9.703125 0.25 9.921875 0.394531 C 10.011719 0.449219 10.011719 0.449219 10.101562 0.507812 C 10.625 0.839844 10.625 0.839844 10.75 1 C 10.742188 1.382812 10.644531 1.617188 10.4375 1.9375 C 10.585938 2.054688 10.691406 2.125 10.875 2.1875 C 10.898438 2.121094 10.898438 2.121094 10.925781 2.050781 C 11.117188 1.597656 11.117188 1.597656 11.3125 1.5 C 11.695312 1.460938 11.902344 1.554688 12.214844 1.757812 C 12.253906 1.78125 12.296875 1.808594 12.339844 1.835938 C 13.007812 2.257812 13.007812 2.257812 13.25 2.5 C 13.226562 2.835938 13.179688 3.023438 13 3.3125 C 13.042969 3.507812 13.042969 3.507812 13.191406 3.574219 C 13.230469 3.589844 13.269531 3.609375 13.3125 3.625 C 13.339844 3.585938 13.363281 3.546875 13.390625 3.503906 C 13.421875 3.453125 13.457031 3.402344 13.492188 3.347656 C 13.527344 3.296875 13.558594 3.246094 13.59375 3.191406 C 13.6875 3.0625 13.6875 3.0625 13.8125 3 C 14.195312 2.960938 14.402344 3.054688 14.714844 3.257812 C 14.777344 3.296875 14.777344 3.296875 14.839844 3.335938 C 15.507812 3.757812 15.507812 3.757812 15.75 4 C 15.726562 4.339844 15.671875 4.574219 15.5 4.875 C 15.535156 4.894531 15.574219 4.917969 15.609375 4.9375 C 15.65625 4.96875 15.703125 5 15.75 5.03125 C 15.796875 5.058594 15.84375 5.089844 15.890625 5.121094 C 16.019531 5.277344 16.046875 5.390625 16.039062 5.59375 C 15.949219 5.957031 15.730469 6.273438 15.539062 6.589844 C 15.492188 6.667969 15.445312 6.746094 15.402344 6.824219 C 15.3125 6.980469 15.21875 7.132812 15.125 7.285156 C 15.015625 7.472656 14.90625 7.65625 14.800781 7.84375 C 14.746094 7.9375 14.691406 8.035156 14.636719 8.128906 C 14.613281 8.171875 14.589844 8.214844 14.5625 8.257812 C 14.289062 8.722656 14.289062 8.722656 14.070312 8.78125 C 13.609375 8.796875 13.308594 8.601562 12.929688 8.363281 C 12.796875 8.28125 12.664062 8.203125 12.527344 8.121094 C 12.460938 8.078125 12.394531 8.039062 12.324219 7.996094 C 12.023438 7.8125 11.714844 7.640625 11.40625 7.46875 C 10.917969 7.195312 10.429688 6.914062 9.945312 6.628906 C 9.4375 6.328125 8.921875 6.039062 8.40625 5.75 C 7.871094 5.453125 7.339844 5.152344 6.8125 4.84375 C 6.722656 4.792969 6.722656 4.792969 6.628906 4.738281 C 5.6875 4.1875 5.6875 4.1875 5.5 4 C 5.414062 3.472656 5.699219 3.09375 5.960938 2.660156 C 6.007812 2.582031 6.054688 2.503906 6.097656 2.425781 C 6.191406 2.269531 6.28125 2.117188 6.375 1.964844 C 6.484375 1.777344 6.589844 1.59375 6.695312 1.40625 C 6.726562 1.355469 6.753906 1.308594 6.78125 1.257812 C 6.832031 1.167969 6.882812 1.082031 6.929688 0.992188 C 7.054688 0.78125 7.160156 0.617188 7.375 0.5 C 7.722656 0.46875 7.898438 0.484375 8.1875 0.6875 C 8.230469 0.6875 8.269531 0.6875 8.3125 0.6875 C 8.40625 0.546875 8.40625 0.546875 8.5 0.378906 C 8.691406 0.0390625 8.847656 -0.078125 9.25 0 Z M 9.25 0 "/>
<path style=" stroke:none;fill-rule:nonzero;fill:rgb(99.607843%,85.490197%,30.980393%);fill-opacity:1;" d="M 13.359375 10.726562 C 13.421875 10.726562 13.421875 10.726562 13.484375 10.722656 C 13.570312 10.722656 13.65625 10.722656 13.742188 10.726562 C 13.875 10.726562 14.007812 10.726562 14.140625 10.722656 C 14.222656 10.722656 14.308594 10.722656 14.390625 10.726562 C 14.46875 10.726562 14.542969 10.726562 14.621094 10.726562 C 14.8125 10.75 14.8125 10.75 14.929688 10.832031 C 15.042969 11 15.015625 11.160156 15.011719 11.355469 C 15.007812 11.464844 15.007812 11.464844 15.007812 11.578125 C 15.003906 11.636719 15.003906 11.691406 15 11.75 C 15.050781 11.746094 15.101562 11.746094 15.15625 11.742188 C 15.222656 11.738281 15.289062 11.738281 15.359375 11.734375 C 15.425781 11.730469 15.492188 11.730469 15.5625 11.726562 C 15.796875 11.757812 15.855469 11.816406 16 12 C 16.03125 12.171875 16.03125 12.171875 16.03125 12.367188 C 16.03125 12.441406 16.035156 12.515625 16.035156 12.59375 C 16.035156 12.675781 16.035156 12.753906 16.03125 12.835938 C 16.035156 12.917969 16.035156 13 16.035156 13.085938 C 16.035156 13.257812 16.035156 13.433594 16.03125 13.609375 C 16.03125 13.832031 16.03125 14.050781 16.035156 14.277344 C 16.035156 14.488281 16.035156 14.703125 16.03125 14.914062 C 16.035156 14.992188 16.035156 15.074219 16.035156 15.15625 C 16.035156 15.269531 16.035156 15.269531 16.03125 15.382812 C 16.03125 15.445312 16.03125 15.511719 16.03125 15.578125 C 15.992188 15.800781 15.925781 15.863281 15.75 16 C 15.566406 16.03125 15.566406 16.03125 15.351562 16.03125 C 15.230469 16.03125 15.230469 16.03125 15.101562 16.035156 C 15.011719 16.035156 14.921875 16.03125 14.832031 16.03125 C 14.734375 16.03125 14.640625 16.035156 14.542969 16.035156 C 14.285156 16.035156 14.023438 16.035156 13.765625 16.035156 C 13.492188 16.035156 13.21875 16.035156 12.949219 16.035156 C 12.492188 16.035156 12.035156 16.035156 11.578125 16.03125 C 11.050781 16.03125 10.523438 16.03125 9.996094 16.035156 C 9.542969 16.035156 9.089844 16.035156 8.636719 16.035156 C 8.367188 16.035156 8.09375 16.035156 7.824219 16.035156 C 7.570312 16.035156 7.316406 16.035156 7.0625 16.03125 C 6.96875 16.03125 6.875 16.03125 6.78125 16.035156 C 6.652344 16.035156 6.527344 16.03125 6.398438 16.03125 C 6.328125 16.03125 6.253906 16.03125 6.183594 16.03125 C 5.960938 15.992188 5.886719 15.925781 5.75 15.75 C 5.71875 15.578125 5.71875 15.578125 5.71875 15.382812 C 5.71875 15.308594 5.714844 15.234375 5.714844 15.15625 C 5.714844 15.035156 5.714844 15.035156 5.71875 14.914062 C 5.714844 14.832031 5.714844 14.75 5.714844 14.664062 C 5.714844 14.492188 5.714844 14.316406 5.71875 14.144531 C 5.71875 13.921875 5.71875 13.695312 5.714844 13.472656 C 5.714844 13.261719 5.714844 13.050781 5.71875 12.835938 C 5.714844 12.753906 5.714844 12.675781 5.714844 12.59375 C 5.714844 12.519531 5.71875 12.445312 5.71875 12.367188 C 5.71875 12.304688 5.71875 12.238281 5.71875 12.171875 C 5.75 12 5.75 12 5.835938 11.855469 C 6.09375 11.691406 6.347656 11.71875 6.648438 11.722656 C 6.714844 11.722656 6.78125 11.722656 6.847656 11.722656 C 7.066406 11.722656 7.28125 11.722656 7.5 11.726562 C 7.652344 11.726562 7.804688 11.726562 7.953125 11.726562 C 8.351562 11.726562 8.75 11.730469 9.144531 11.734375 C 9.550781 11.734375 9.957031 11.738281 10.363281 11.738281 C 11.160156 11.742188 11.953125 11.746094 12.75 11.75 C 12.746094 11.664062 12.746094 11.664062 12.742188 11.578125 C 12.742188 11.503906 12.738281 11.429688 12.738281 11.355469 C 12.734375 11.28125 12.734375 11.207031 12.730469 11.132812 C 12.75 10.9375 12.75 10.9375 12.832031 10.820312 C 13 10.707031 13.160156 10.726562 13.359375 10.726562 Z M 13.359375 10.726562 "/>
<path style=" stroke:none;fill-rule:nonzero;fill:rgb(98.431373%,67.843139%,29.019609%);fill-opacity:1;" d="M 0.710938 11.71875 C 0.757812 11.71875 0.800781 11.71875 0.851562 11.714844 C 1 11.714844 1.152344 11.714844 1.304688 11.71875 C 1.410156 11.714844 1.515625 11.714844 1.621094 11.714844 C 1.84375 11.714844 2.0625 11.714844 2.285156 11.71875 C 2.566406 11.71875 2.851562 11.71875 3.132812 11.714844 C 3.351562 11.714844 3.570312 11.714844 3.789062 11.714844 C 3.890625 11.714844 3.996094 11.714844 4.101562 11.714844 C 4.246094 11.714844 4.394531 11.714844 4.539062 11.71875 C 4.582031 11.71875 4.625 11.714844 4.671875 11.714844 C 4.871094 11.71875 4.984375 11.738281 5.152344 11.855469 C 5.277344 12.039062 5.28125 12.148438 5.28125 12.367188 C 5.28125 12.441406 5.285156 12.515625 5.285156 12.59375 C 5.285156 12.675781 5.285156 12.753906 5.28125 12.835938 C 5.285156 12.960938 5.285156 12.960938 5.285156 13.085938 C 5.285156 13.257812 5.285156 13.433594 5.28125 13.605469 C 5.28125 13.832031 5.28125 14.050781 5.285156 14.277344 C 5.285156 14.488281 5.285156 14.703125 5.28125 14.914062 C 5.285156 14.992188 5.285156 15.074219 5.285156 15.15625 C 5.285156 15.230469 5.28125 15.304688 5.28125 15.382812 C 5.28125 15.445312 5.28125 15.511719 5.28125 15.578125 C 5.25 15.75 5.25 15.75 5.152344 15.894531 C 4.949219 16.035156 4.777344 16.035156 4.539062 16.03125 C 4.492188 16.03125 4.449219 16.035156 4.402344 16.035156 C 4.25 16.035156 4.097656 16.035156 3.945312 16.035156 C 3.839844 16.035156 3.734375 16.035156 3.628906 16.035156 C 3.40625 16.035156 3.1875 16.035156 2.964844 16.03125 C 2.683594 16.03125 2.398438 16.03125 2.117188 16.035156 C 1.898438 16.035156 1.679688 16.035156 1.460938 16.035156 C 1.355469 16.035156 1.253906 16.035156 1.148438 16.035156 C 1.003906 16.035156 0.855469 16.035156 0.710938 16.03125 C 0.644531 16.035156 0.644531 16.035156 0.578125 16.035156 C 0.378906 16.03125 0.265625 16.011719 0.0976562 15.894531 C -0.0273438 15.710938 -0.03125 15.601562 -0.03125 15.382812 C -0.0351562 15.308594 -0.0351562 15.234375 -0.0351562 15.15625 C -0.0351562 15.035156 -0.0351562 15.035156 -0.0351562 14.914062 C -0.0351562 14.832031 -0.0351562 14.75 -0.0351562 14.664062 C -0.0351562 14.492188 -0.0351562 14.316406 -0.03125 14.144531 C -0.03125 13.921875 -0.03125 13.695312 -0.0351562 13.472656 C -0.0351562 13.261719 -0.0351562 13.050781 -0.0351562 12.835938 C -0.0351562 12.753906 -0.0351562 12.675781 -0.0351562 12.59375 C -0.0351562 12.519531 -0.0351562 12.445312 -0.03125 12.367188 C -0.03125 12.304688 -0.03125 12.238281 -0.03125 12.171875 C 0 12 0 12 0.0976562 11.855469 C 0.300781 11.714844 0.472656 11.714844 0.710938 11.71875 Z M 0.710938 11.71875 "/>
<path style=" stroke:none;fill-rule:nonzero;fill:rgb(1.176471%,0.392157%,0.784314%);fill-opacity:1;" d="M 9.25 0 C 9.488281 0.113281 9.703125 0.25 9.921875 0.394531 C 10.011719 0.449219 10.011719 0.449219 10.101562 0.507812 C 10.625 0.839844 10.625 0.839844 10.75 1 C 10.742188 1.382812 10.644531 1.617188 10.4375 1.9375 C 10.585938 2.054688 10.691406 2.125 10.875 2.1875 C 10.898438 2.121094 10.898438 2.121094 10.925781 2.050781 C 11.117188 1.597656 11.117188 1.597656 11.3125 1.5 C 11.695312 1.460938 11.902344 1.554688 12.214844 1.757812 C 12.253906 1.78125 12.296875 1.808594 12.339844 1.835938 C 13.007812 2.257812 13.007812 2.257812 13.25 2.5 C 13.226562 2.835938 13.179688 3.023438 13 3.3125 C 13.042969 3.507812 13.042969 3.507812 13.191406 3.574219 C 13.230469 3.589844 13.269531 3.609375 13.3125 3.625 C 13.339844 3.585938 13.363281 3.546875 13.390625 3.503906 C 13.421875 3.453125 13.457031 3.402344 13.492188 3.347656 C 13.527344 3.296875 13.558594 3.246094 13.59375 3.191406 C 13.6875 3.0625 13.6875 3.0625 13.8125 3 C 14.195312 2.960938 14.402344 3.054688 14.714844 3.257812 C 14.777344 3.296875 14.777344 3.296875 14.839844 3.335938 C 15.507812 3.757812 15.507812 3.757812 15.75 4 C 15.726562 4.339844 15.671875 4.574219 15.5 4.875 C 15.535156 4.894531 15.574219 4.917969 15.609375 4.9375 C 15.65625 4.96875 15.703125 5 15.75 5.03125 C 15.796875 5.058594 15.84375 5.089844 15.890625 5.121094 C 16.019531 5.277344 16.046875 5.390625 16.039062 5.59375 C 15.949219 5.957031 15.730469 6.273438 15.539062 6.589844 C 15.492188 6.667969 15.445312 6.746094 15.402344 6.824219 C 15.3125 6.980469 15.21875 7.132812 15.125 7.285156 C 15.015625 7.472656 14.90625 7.65625 14.800781 7.84375 C 14.746094 7.9375 14.691406 8.035156 14.636719 8.128906 C 14.613281 8.171875 14.589844 8.214844 14.5625 8.257812 C 14.289062 8.722656 14.289062 8.722656 14.070312 8.78125 C 13.609375 8.796875 13.308594 8.601562 12.929688 8.363281 C 12.796875 8.28125 12.664062 8.203125 12.527344 8.121094 C 12.460938 8.078125 12.394531 8.039062 12.324219 7.996094 C 12.023438 7.8125 11.714844 7.640625 11.40625 7.46875 C 10.917969 7.195312 10.429688 6.914062 9.945312 6.628906 C 9.4375 6.328125 8.921875 6.039062 8.40625 5.75 C 7.871094 5.453125 7.339844 5.152344 6.8125 4.84375 C 6.722656 4.792969 6.722656 4.792969 6.628906 4.738281 C 5.6875 4.1875 5.6875 4.1875 5.5 4 C 5.414062 3.472656 5.699219 3.09375 5.960938 2.660156 C 6.007812 2.582031 6.054688 2.503906 6.097656 2.425781 C 6.191406 2.269531 6.28125 2.117188 6.375 1.964844 C 6.484375 1.777344 6.589844 1.59375 6.695312 1.40625 C 6.726562 1.355469 6.753906 1.308594 6.78125 1.257812 C 6.832031 1.167969 6.882812 1.082031 6.929688 0.992188 C 7.054688 0.78125 7.160156 0.617188 7.375 0.5 C 7.722656 0.46875 7.898438 0.484375 8.1875 0.6875 C 8.230469 0.6875 8.269531 0.6875 8.3125 0.6875 C 8.40625 0.546875 8.40625 0.546875 8.5 0.378906 C 8.691406 0.0390625 8.847656 -0.078125 9.25 0 Z M 7.5625 1.0625 C 7.457031 1.1875 7.457031 1.1875 7.359375 1.367188 C 7.328125 1.417969 7.328125 1.417969 7.296875 1.46875 C 7.21875 1.605469 7.140625 1.738281 7.0625 1.875 C 7.023438 1.9375 6.988281 2.003906 6.949219 2.070312 C 6.742188 2.429688 6.53125 2.789062 6.324219 3.148438 C 6.289062 3.210938 6.253906 3.273438 6.21875 3.335938 C 6.140625 3.472656 6.066406 3.609375 6 3.75 C 6.042969 3.773438 6.085938 3.800781 6.132812 3.824219 C 6.34375 3.945312 6.554688 4.066406 6.765625 4.1875 C 6.804688 4.210938 6.84375 4.234375 6.882812 4.253906 C 7.007812 4.324219 7.128906 4.394531 7.25 4.464844 C 7.3125 4.5 7.3125 4.5 7.375 4.535156 C 7.675781 4.707031 7.675781 4.707031 7.976562 4.878906 C 8.011719 4.898438 8.046875 4.921875 8.085938 4.941406 C 8.339844 5.085938 8.589844 5.230469 8.84375 5.375 C 8.878906 5.394531 8.914062 5.417969 8.953125 5.4375 C 9.117188 5.53125 9.117188 5.53125 9.28125 5.625 C 9.316406 5.644531 9.355469 5.667969 9.390625 5.6875 C 9.71875 5.875 9.71875 5.875 9.828125 5.9375 C 9.902344 5.980469 9.972656 6.019531 10.046875 6.0625 C 10.230469 6.167969 10.410156 6.269531 10.589844 6.375 C 10.929688 6.566406 11.265625 6.757812 11.605469 6.953125 C 11.761719 7.042969 11.917969 7.132812 12.074219 7.21875 C 12.183594 7.28125 12.292969 7.34375 12.402344 7.40625 C 12.46875 7.445312 12.535156 7.484375 12.605469 7.523438 C 12.671875 7.5625 12.734375 7.597656 12.804688 7.636719 C 12.9375 7.714844 13.074219 7.796875 13.207031 7.878906 C 13.273438 7.917969 13.34375 7.960938 13.410156 8 C 13.5 8.058594 13.5 8.058594 13.589844 8.113281 C 13.742188 8.195312 13.742188 8.195312 13.882812 8.1875 C 14.058594 8.09375 14.117188 7.964844 14.210938 7.792969 C 14.269531 7.6875 14.269531 7.6875 14.328125 7.582031 C 14.371094 7.507812 14.410156 7.433594 14.453125 7.359375 C 14.515625 7.246094 14.578125 7.136719 14.640625 7.023438 C 14.703125 6.914062 14.765625 6.804688 14.824219 6.695312 C 14.996094 6.398438 15.179688 6.117188 15.367188 5.832031 C 15.449219 5.695312 15.449219 5.695312 15.429688 5.566406 C 15.351562 5.382812 15.246094 5.339844 15.074219 5.242188 C 15.011719 5.207031 14.945312 5.171875 14.878906 5.132812 C 14.8125 5.09375 14.742188 5.054688 14.667969 5.015625 C 14.59375 4.972656 14.519531 4.933594 14.449219 4.890625 C 14.292969 4.804688 14.136719 4.71875 13.984375 4.632812 C 13.6875 4.464844 13.394531 4.296875 13.097656 4.128906 C 12.878906 4.003906 12.660156 3.875 12.441406 3.753906 C 12.148438 3.585938 11.855469 3.417969 11.5625 3.25 C 11.527344 3.230469 11.488281 3.207031 11.453125 3.1875 C 11.34375 3.125 11.234375 3.0625 11.125 3 C 10.714844 2.765625 10.304688 2.53125 9.894531 2.296875 C 9.738281 2.207031 9.582031 2.117188 9.425781 2.03125 C 9.316406 1.96875 9.207031 1.90625 9.097656 1.84375 C 9.03125 1.804688 8.964844 1.765625 8.894531 1.726562 C 8.828125 1.6875 8.765625 1.652344 8.695312 1.613281 C 8.5625 1.535156 8.425781 1.453125 8.289062 1.375 C 8.222656 1.332031 8.15625 1.292969 8.085938 1.253906 C 8.027344 1.214844 7.964844 1.179688 7.902344 1.140625 C 7.75 1.046875 7.75 1.046875 7.5625 1.0625 Z M 7.5625 1.0625 "/>
<path style=" stroke:none;fill-rule:nonzero;fill:rgb(0%,0%,0%);fill-opacity:1;" d="M 1.859375 6.226562 C 1.921875 6.226562 1.921875 6.226562 1.984375 6.222656 C 2.070312 6.222656 2.15625 6.222656 2.242188 6.226562 C 2.375 6.226562 2.507812 6.226562 2.640625 6.222656 C 2.722656 6.222656 2.808594 6.222656 2.890625 6.226562 C 2.96875 6.226562 3.042969 6.226562 3.121094 6.226562 C 3.3125 6.25 3.3125 6.25 3.429688 6.332031 C 3.542969 6.5 3.515625 6.660156 3.511719 6.855469 C 3.507812 6.964844 3.507812 6.964844 3.507812 7.078125 C 3.503906 7.136719 3.503906 7.191406 3.5 7.25 C 3.664062 7.25 3.828125 7.25 4 7.25 C 3.996094 7.164062 3.996094 7.164062 3.992188 7.078125 C 3.992188 7.003906 3.988281 6.929688 3.988281 6.855469 C 3.984375 6.78125 3.984375 6.707031 3.980469 6.632812 C 4 6.4375 4 6.4375 4.070312 6.332031 C 4.246094 6.207031 4.394531 6.226562 4.609375 6.226562 C 4.671875 6.226562 4.671875 6.226562 4.734375 6.222656 C 4.820312 6.222656 4.90625 6.222656 4.992188 6.226562 C 5.125 6.226562 5.257812 6.226562 5.390625 6.222656 C 5.472656 6.222656 5.558594 6.222656 5.640625 6.226562 C 5.71875 6.226562 5.792969 6.226562 5.871094 6.226562 C 6.0625 6.25 6.0625 6.25 6.179688 6.332031 C 6.292969 6.5 6.265625 6.660156 6.261719 6.855469 C 6.257812 6.964844 6.257812 6.964844 6.257812 7.078125 C 6.253906 7.136719 6.253906 7.191406 6.25 7.25 C 6.496094 7.25 6.746094 7.25 7 7.25 C 6.996094 7.164062 6.996094 7.164062 6.992188 7.078125 C 6.992188 7.003906 6.988281 6.929688 6.988281 6.855469 C 6.984375 6.78125 6.984375 6.707031 6.980469 6.632812 C 7 6.4375 7 6.4375 7.070312 6.332031 C 7.246094 6.207031 7.394531 6.226562 7.609375 6.226562 C 7.671875 6.226562 7.671875 6.226562 7.734375 6.222656 C 7.820312 6.222656 7.90625 6.222656 7.992188 6.226562 C 8.125 6.226562 8.257812 6.226562 8.390625 6.222656 C 8.472656 6.222656 8.558594 6.222656 8.640625 6.226562 C 8.71875 6.226562 8.792969 6.226562 8.871094 6.226562 C 9.0625 6.25 9.0625 6.25 9.179688 6.332031 C 9.292969 6.5 9.265625 6.660156 9.261719 6.855469 C 9.257812 6.964844 9.257812 6.964844 9.257812 7.078125 C 9.253906 7.136719 9.253906 7.191406 9.25 7.25 C 9.300781 7.246094 9.351562 7.246094 9.40625 7.242188 C 9.472656 7.238281 9.539062 7.238281 9.609375 7.234375 C 9.675781 7.230469 9.742188 7.230469 9.8125 7.226562 C 10.046875 7.257812 10.105469 7.316406 10.25 7.5 C 10.28125 7.671875 10.28125 7.671875 10.28125 7.867188 C 10.28125 7.941406 10.285156 8.015625 10.285156 8.09375 C 10.285156 8.175781 10.285156 8.253906 10.28125 8.335938 C 10.285156 8.417969 10.285156 8.5 10.285156 8.585938 C 10.285156 8.757812 10.285156 8.933594 10.28125 9.109375 C 10.28125 9.332031 10.28125 9.550781 10.285156 9.777344 C 10.285156 9.988281 10.285156 10.203125 10.28125 10.414062 C 10.285156 10.492188 10.285156 10.574219 10.285156 10.65625 C 10.285156 10.769531 10.285156 10.769531 10.28125 10.882812 C 10.28125 10.945312 10.28125 11.011719 10.28125 11.078125 C 10.242188 11.300781 10.175781 11.363281 10 11.5 C 9.816406 11.53125 9.816406 11.53125 9.601562 11.53125 C 9.480469 11.53125 9.480469 11.53125 9.351562 11.535156 C 9.261719 11.535156 9.171875 11.53125 9.082031 11.53125 C 8.984375 11.53125 8.890625 11.535156 8.792969 11.535156 C 8.535156 11.535156 8.273438 11.535156 8.015625 11.535156 C 7.742188 11.535156 7.46875 11.535156 7.199219 11.535156 C 6.742188 11.535156 6.285156 11.535156 5.828125 11.53125 C 5.300781 11.53125 4.773438 11.53125 4.246094 11.535156 C 3.792969 11.535156 3.339844 11.535156 2.886719 11.535156 C 2.617188 11.535156 2.34375 11.535156 2.074219 11.535156 C 1.820312 11.535156 1.566406 11.535156 1.3125 11.53125 C 1.21875 11.53125 1.125 11.53125 1.03125 11.535156 C 0.902344 11.535156 0.777344 11.53125 0.648438 11.53125 C 0.578125 11.53125 0.503906 11.53125 0.433594 11.53125 C 0.210938 11.492188 0.136719 11.425781 0 11.25 C -0.03125 11.078125 -0.03125 11.078125 -0.03125 10.882812 C -0.03125 10.808594 -0.0351562 10.734375 -0.0351562 10.65625 C -0.0351562 10.535156 -0.0351562 10.535156 -0.03125 10.414062 C -0.0351562 10.332031 -0.0351562 10.25 -0.0351562 10.164062 C -0.0351562 9.992188 -0.0351562 9.816406 -0.03125 9.644531 C -0.03125 9.421875 -0.03125 9.195312 -0.0351562 8.972656 C -0.0351562 8.761719 -0.0351562 8.550781 -0.03125 8.335938 C -0.0351562 8.253906 -0.0351562 8.175781 -0.0351562 8.09375 C -0.0351562 8.019531 -0.03125 7.945312 -0.03125 7.867188 C -0.03125 7.804688 -0.03125 7.738281 -0.03125 7.671875 C 0.0078125 7.457031 0.0742188 7.378906 0.25 7.25 C 0.429688 7.230469 0.585938 7.226562 0.765625 7.234375 C 0.835938 7.238281 0.835938 7.238281 0.90625 7.238281 C 1.019531 7.242188 1.136719 7.246094 1.25 7.25 C 1.246094 7.164062 1.246094 7.164062 1.242188 7.078125 C 1.242188 7.003906 1.238281 6.929688 1.238281 6.855469 C 1.234375 6.78125 1.234375 6.707031 1.230469 6.632812 C 1.25 6.4375 1.25 6.4375 1.320312 6.332031 C 1.496094 6.207031 1.644531 6.226562 1.859375 6.226562 Z M 0.5 7.75 C 0.5 8.824219 0.5 9.894531 0.5 11 C 3.550781 11 6.605469 11 9.75 11 C 9.75 9.925781 9.75 8.855469 9.75 7.75 C 6.699219 7.75 3.644531 7.75 0.5 7.75 Z M 0.5 7.75 "/>
<path style=" stroke:none;fill-rule:nonzero;fill:rgb(0%,0%,0%);fill-opacity:1;" d="M 13.359375 10.726562 C 13.421875 10.726562 13.421875 10.726562 13.484375 10.722656 C 13.570312 10.722656 13.65625 10.722656 13.742188 10.726562 C 13.875 10.726562 14.007812 10.726562 14.140625 10.722656 C 14.222656 10.722656 14.308594 10.722656 14.390625 10.726562 C 14.46875 10.726562 14.542969 10.726562 14.621094 10.726562 C 14.8125 10.75 14.8125 10.75 14.929688 10.832031 C 15.042969 11 15.015625 11.160156 15.011719 11.355469 C 15.007812 11.464844 15.007812 11.464844 15.007812 11.578125 C 15.003906 11.636719 15.003906 11.691406 15 11.75 C 15.050781 11.746094 15.101562 11.746094 15.15625 11.742188 C 15.222656 11.738281 15.289062 11.738281 15.359375 11.734375 C 15.425781 11.730469 15.492188 11.730469 15.5625 11.726562 C 15.796875 11.757812 15.855469 11.816406 16 12 C 16.03125 12.171875 16.03125 12.171875 16.03125 12.367188 C 16.03125 12.441406 16.035156 12.515625 16.035156 12.59375 C 16.035156 12.675781 16.035156 12.753906 16.03125 12.835938 C 16.035156 12.917969 16.035156 13 16.035156 13.085938 C 16.035156 13.257812 16.035156 13.433594 16.03125 13.609375 C 16.03125 13.832031 16.03125 14.050781 16.035156 14.277344 C 16.035156 14.488281 16.035156 14.703125 16.03125 14.914062 C 16.035156 14.992188 16.035156 15.074219 16.035156 15.15625 C 16.035156 15.269531 16.035156 15.269531 16.03125 15.382812 C 16.03125 15.445312 16.03125 15.511719 16.03125 15.578125 C 15.992188 15.800781 15.925781 15.863281 15.75 16 C 15.566406 16.03125 15.566406 16.03125 15.351562 16.03125 C 15.230469 16.03125 15.230469 16.03125 15.101562 16.035156 C 15.011719 16.035156 14.921875 16.03125 14.832031 16.03125 C 14.734375 16.03125 14.640625 16.035156 14.542969 16.035156 C 14.285156 16.035156 14.023438 16.035156 13.765625 16.035156 C 13.492188 16.035156 13.21875 16.035156 12.949219 16.035156 C 12.492188 16.035156 12.035156 16.035156 11.578125 16.03125 C 11.050781 16.03125 10.523438 16.03125 9.996094 16.035156 C 9.542969 16.035156 9.089844 16.035156 8.636719 16.035156 C 8.367188 16.035156 8.09375 16.035156 7.824219 16.035156 C 7.570312 16.035156 7.316406 16.035156 7.0625 16.03125 C 6.96875 16.03125 6.875 16.03125 6.78125 16.035156 C 6.652344 16.035156 6.527344 16.03125 6.398438 16.03125 C 6.328125 16.03125 6.253906 16.03125 6.183594 16.03125 C 5.960938 15.992188 5.886719 15.925781 5.75 15.75 C 5.71875 15.578125 5.71875 15.578125 5.71875 15.382812 C 5.71875 15.308594 5.714844 15.234375 5.714844 15.15625 C 5.714844 15.035156 5.714844 15.035156 5.71875 14.914062 C 5.714844 14.832031 5.714844 14.75 5.714844 14.664062 C 5.714844 14.492188 5.714844 14.316406 5.71875 14.144531 C 5.71875 13.921875 5.71875 13.695312 5.714844 13.472656 C 5.714844 13.261719 5.714844 13.050781 5.71875 12.835938 C 5.714844 12.753906 5.714844 12.675781 5.714844 12.59375 C 5.714844 12.519531 5.71875 12.445312 5.71875 12.367188 C 5.71875 12.304688 5.71875 12.238281 5.71875 12.171875 C 5.75 12 5.75 12 5.835938 11.855469 C 6.09375 11.691406 6.347656 11.71875 6.648438 11.722656 C 6.714844 11.722656 6.78125 11.722656 6.847656 11.722656 C 7.066406 11.722656 7.28125 11.722656 7.5 11.726562 C 7.652344 11.726562 7.804688 11.726562 7.953125 11.726562 C 8.351562 11.726562 8.75 11.730469 9.144531 11.734375 C 9.550781 11.734375 9.957031 11.738281 10.363281 11.738281 C 11.160156 11.742188 11.953125 11.746094 12.75 11.75 C 12.746094 11.664062 12.746094 11.664062 12.742188 11.578125 C 12.742188 11.503906 12.738281 11.429688 12.738281 11.355469 C 12.734375 11.28125 12.734375 11.207031 12.730469 11.132812 C 12.75 10.9375 12.75 10.9375 12.832031 10.820312 C 13 10.707031 13.160156 10.726562 13.359375 10.726562 Z M 6.25 12.25 C 6.25 13.324219 6.25 14.394531 6.25 15.5 C 9.300781 15.5 12.355469 15.5 15.5 15.5 C 15.5 14.425781 15.5 13.355469 15.5 12.25 C 12.449219 12.25 9.394531 12.25 6.25 12.25 Z M 6.25 12.25 "/>
<path style=" stroke:none;fill-rule:nonzero;fill:rgb(0%,0%,0%);fill-opacity:1;" d="M 0.710938 11.71875 C 0.757812 11.71875 0.800781 11.71875 0.851562 11.714844 C 1 11.714844 1.152344 11.714844 1.304688 11.71875 C 1.410156 11.714844 1.515625 11.714844 1.621094 11.714844 C 1.84375 11.714844 2.0625 11.714844 2.285156 11.71875 C 2.566406 11.71875 2.851562 11.71875 3.132812 11.714844 C 3.351562 11.714844 3.570312 11.714844 3.789062 11.714844 C 3.890625 11.714844 3.996094 11.714844 4.101562 11.714844 C 4.246094 11.714844 4.394531 11.714844 4.539062 11.71875 C 4.582031 11.71875 4.625 11.714844 4.671875 11.714844 C 4.871094 11.71875 4.984375 11.738281 5.152344 11.855469 C 5.277344 12.039062 5.28125 12.148438 5.28125 12.367188 C 5.28125 12.441406 5.285156 12.515625 5.285156 12.59375 C 5.285156 12.675781 5.285156 12.753906 5.28125 12.835938 C 5.285156 12.960938 5.285156 12.960938 5.285156 13.085938 C 5.285156 13.257812 5.285156 13.433594 5.28125 13.605469 C 5.28125 13.832031 5.28125 14.050781 5.285156 14.277344 C 5.285156 14.488281 5.285156 14.703125 5.28125 14.914062 C 5.285156 14.992188 5.285156 15.074219 5.285156 15.15625 C 5.285156 15.230469 5.28125 15.304688 5.28125 15.382812 C 5.28125 15.445312 5.28125 15.511719 5.28125 15.578125 C 5.25 15.75 5.25 15.75 5.152344 15.894531 C 4.949219 16.035156 4.777344 16.035156 4.539062 16.03125 C 4.492188 16.03125 4.449219 16.035156 4.402344 16.035156 C 4.25 16.035156 4.097656 16.035156 3.945312 16.035156 C 3.839844 16.035156 3.734375 16.035156 3.628906 16.035156 C 3.40625 16.035156 3.1875 16.035156 2.964844 16.03125 C 2.683594 16.03125 2.398438 16.03125 2.117188 16.035156 C 1.898438 16.035156 1.679688 16.035156 1.460938 16.035156 C 1.355469 16.035156 1.253906 16.035156 1.148438 16.035156 C 1.003906 16.035156 0.855469 16.035156 0.710938 16.03125 C 0.644531 16.035156 0.644531 16.035156 0.578125 16.035156 C 0.378906 16.03125 0.265625 16.011719 0.0976562 15.894531 C -0.0273438 15.710938 -0.03125 15.601562 -0.03125 15.382812 C -0.0351562 15.308594 -0.0351562 15.234375 -0.0351562 15.15625 C -0.0351562 15.035156 -0.0351562 15.035156 -0.0351562 14.914062 C -0.0351562 14.832031 -0.0351562 14.75 -0.0351562 14.664062 C -0.0351562 14.492188 -0.0351562 14.316406 -0.03125 14.144531 C -0.03125 13.921875 -0.03125 13.695312 -0.0351562 13.472656 C -0.0351562 13.261719 -0.0351562 13.050781 -0.0351562 12.835938 C -0.0351562 12.753906 -0.0351562 12.675781 -0.0351562 12.59375 C -0.0351562 12.519531 -0.0351562 12.445312 -0.03125 12.367188 C -0.03125 12.304688 -0.03125 12.238281 -0.03125 12.171875 C 0 12 0 12 0.0976562 11.855469 C 0.300781 11.714844 0.472656 11.714844 0.710938 11.71875 Z M 0.5 12.25 C 0.5 13.324219 0.5 14.394531 0.5 15.5 C 1.902344 15.5 3.304688 15.5 4.75 15.5 C 4.75 14.425781 4.75 13.355469 4.75 12.25 C 3.347656 12.25 1.945312 12.25 0.5 12.25 Z M 0.5 12.25 "/>
<path style=" stroke:none;fill-rule:nonzero;fill:rgb(88.627452%,31.37255%,48.235294%);fill-opacity:1;" d="M 9 0.5625 C 9.273438 0.664062 9.519531 0.796875 9.769531 0.945312 C 9.808594 0.96875 9.851562 0.992188 9.890625 1.015625 C 9.992188 1.074219 10.089844 1.128906 10.1875 1.1875 C 10.113281 1.378906 10.03125 1.566406 9.9375 1.75 C 9.664062 1.648438 9.417969 1.515625 9.167969 1.367188 C 9.128906 1.34375 9.085938 1.320312 9.046875 1.296875 C 8.945312 1.238281 8.847656 1.183594 8.75 1.125 C 8.824219 0.933594 8.90625 0.746094 9 0.5625 Z M 9 0.5625 "/>
<path style=" stroke:none;fill-rule:nonzero;fill:rgb(89.019608%,31.37255%,48.235294%);fill-opacity:1;" d="M 11.5 2.0625 C 11.773438 2.164062 12.019531 2.296875 12.269531 2.445312 C 12.308594 2.46875 12.351562 2.492188 12.390625 2.515625 C 12.492188 2.574219 12.589844 2.628906 12.6875 2.6875 C 12.613281 2.902344 12.539062 3.03125 12.375 3.1875 C 12.207031 3.101562 12.042969 3.011719 11.878906 2.921875 C 11.832031 2.898438 11.785156 2.871094 11.734375 2.847656 C 11.691406 2.824219 11.644531 2.796875 11.601562 2.773438 C 11.558594 2.75 11.515625 2.726562 11.472656 2.703125 C 11.375 2.625 11.375 2.625 11.324219 2.5 C 11.308594 2.3125 11.394531 2.214844 11.5 2.0625 Z M 11.5 2.0625 "/>
<path style=" stroke:none;fill-rule:nonzero;fill:rgb(88.627452%,31.37255%,48.235294%);fill-opacity:1;" d="M 14 3.5625 C 14.273438 3.664062 14.519531 3.796875 14.769531 3.945312 C 14.808594 3.96875 14.851562 3.992188 14.890625 4.015625 C 14.992188 4.074219 15.089844 4.128906 15.1875 4.1875 C 15.070312 4.484375 15.070312 4.484375 15 4.625 C 14.703125 4.539062 14.453125 4.40625 14.195312 4.242188 C 14.15625 4.21875 14.121094 4.195312 14.082031 4.171875 C 13.992188 4.113281 13.902344 4.058594 13.8125 4 C 13.929688 3.703125 13.929688 3.703125 14 3.5625 Z M 14 3.5625 "/>
<path style=" stroke:none;fill-rule:nonzero;fill:rgb(98.431373%,67.843139%,29.019609%);fill-opacity:1;" d="M 13.25 11.25 C 13.664062 11.25 14.074219 11.25 14.5 11.25 C 14.5 11.414062 14.5 11.578125 14.5 11.75 C 14.085938 11.75 13.675781 11.75 13.25 11.75 C 13.25 11.585938 13.25 11.421875 13.25 11.25 Z M 13.25 11.25 "/>
<path style=" stroke:none;fill-rule:nonzero;fill:rgb(16.470589%,55.686277%,90.196079%);fill-opacity:1;" d="M 7.5 6.75 C 7.914062 6.75 8.324219 6.75 8.75 6.75 C 8.75 6.914062 8.75 7.078125 8.75 7.25 C 8.335938 7.25 7.925781 7.25 7.5 7.25 C 7.5 7.085938 7.5 6.921875 7.5 6.75 Z M 7.5 6.75 "/>
<path style=" stroke:none;fill-rule:nonzero;fill:rgb(16.470589%,55.686277%,90.196079%);fill-opacity:1;" d="M 4.5 6.75 C 4.914062 6.75 5.324219 6.75 5.75 6.75 C 5.75 6.914062 5.75 7.078125 5.75 7.25 C 5.335938 7.25 4.925781 7.25 4.5 7.25 C 4.5 7.085938 4.5 6.921875 4.5 6.75 Z M 4.5 6.75 "/>
<path style=" stroke:none;fill-rule:nonzero;fill:rgb(16.470589%,55.686277%,90.196079%);fill-opacity:1;" d="M 1.75 6.75 C 2.164062 6.75 2.574219 6.75 3 6.75 C 3 6.914062 3 7.078125 3 7.25 C 2.585938 7.25 2.175781 7.25 1.75 7.25 C 1.75 7.085938 1.75 6.921875 1.75 6.75 Z M 1.75 6.75 "/>
</g>
</svg>
