<?xml version="1.0" encoding="UTF-8"?>
<svg xmlns="http://www.w3.org/2000/svg" xmlns:xlink="http://www.w3.org/1999/xlink" width="16" height="16" viewBox="0 0 16 16" version="1.1">
<g id="surface1">
<path style=" stroke:none;fill-rule:nonzero;fill:rgb(0.392157%,0.392157%,0.392157%);fill-opacity:1;" d="M 8.027344 -0.0234375 C 8.082031 -0.0234375 8.132812 -0.0234375 8.1875 -0.0273438 C 8.484375 -0.0234375 8.703125 -0.015625 8.9375 0.1875 C 9.109375 0.414062 9.148438 0.597656 9.175781 0.875 C 9.210938 1.132812 9.234375 1.28125 9.441406 1.445312 C 9.5 1.484375 9.5625 1.523438 9.625 1.5625 C 9.644531 1.605469 9.667969 1.644531 9.6875 1.6875 C 9.738281 1.6875 9.792969 1.6875 9.84375 1.6875 C 10.332031 1.691406 10.820312 1.695312 11.308594 1.703125 C 11.558594 1.707031 11.8125 1.707031 12.0625 1.710938 C 12.304688 1.710938 12.546875 1.714844 12.789062 1.714844 C 12.882812 1.71875 12.972656 1.71875 13.066406 1.71875 C 13.195312 1.71875 13.324219 1.722656 13.453125 1.722656 C 13.527344 1.722656 13.601562 1.722656 13.679688 1.726562 C 13.894531 1.753906 14.011719 1.804688 14.1875 1.9375 C 14.367188 2.210938 14.398438 2.429688 14.398438 2.753906 C 14.398438 2.816406 14.398438 2.816406 14.398438 2.878906 C 14.398438 2.964844 14.398438 3.050781 14.394531 3.136719 C 14.394531 3.265625 14.394531 3.398438 14.394531 3.527344 C 14.390625 4.171875 14.390625 4.171875 14.25 4.3125 C 14.089844 4.324219 14.089844 4.324219 13.9375 4.3125 C 13.824219 4.199219 13.863281 4.019531 13.863281 3.867188 C 13.859375 3.789062 13.859375 3.710938 13.855469 3.632812 C 13.851562 3.464844 13.851562 3.300781 13.847656 3.136719 C 13.84375 3.019531 13.84375 3.019531 13.84375 2.898438 C 13.839844 2.828125 13.839844 2.753906 13.839844 2.679688 C 13.828125 2.503906 13.828125 2.503906 13.742188 2.398438 C 13.574219 2.277344 13.449219 2.285156 13.246094 2.285156 C 13.171875 2.28125 13.09375 2.28125 13.011719 2.277344 C 12.929688 2.277344 12.84375 2.277344 12.757812 2.277344 C 12.671875 2.277344 12.585938 2.273438 12.496094 2.273438 C 12.3125 2.273438 12.132812 2.273438 11.949219 2.269531 C 11.714844 2.269531 11.480469 2.265625 11.25 2.261719 C 11.070312 2.257812 10.886719 2.257812 10.707031 2.257812 C 10.621094 2.257812 10.535156 2.257812 10.449219 2.253906 C 9.96875 2.226562 9.96875 2.226562 9.550781 2.429688 C 9.453125 2.550781 9.378906 2.671875 9.3125 2.8125 C 9.527344 3.164062 9.746094 3.503906 10.011719 3.820312 C 10.542969 4.464844 10.617188 5.128906 10.5625 5.9375 C 10.460938 6.570312 10.125 7.132812 9.628906 7.535156 C 9.429688 7.675781 9.226562 7.78125 9 7.875 C 8.945312 7.898438 8.886719 7.925781 8.828125 7.949219 C 7.9375 8.171875 7.15625 8.03125 6.375 7.5625 C 6.25 7.4375 6.25 7.4375 6.191406 7.226562 C 6.128906 7.019531 6.070312 6.914062 5.9375 6.75 C 5.9375 6.710938 5.9375 6.667969 5.9375 6.625 C 5.890625 6.625 5.84375 6.621094 5.792969 6.621094 C 5.625 6.5625 5.625 6.5625 5.515625 6.367188 C 5.269531 5.683594 5.332031 4.933594 5.636719 4.277344 C 5.839844 3.925781 6.089844 3.601562 6.347656 3.285156 C 6.5 3.09375 6.609375 2.917969 6.6875 2.6875 C 6.648438 2.671875 6.609375 2.660156 6.570312 2.644531 C 6.398438 2.539062 6.378906 2.4375 6.3125 2.25 C 5.800781 2.253906 5.292969 2.257812 4.78125 2.265625 C 4.546875 2.269531 4.308594 2.269531 4.070312 2.273438 C 3.84375 2.273438 3.613281 2.277344 3.386719 2.277344 C 3.296875 2.28125 3.210938 2.28125 3.125 2.28125 C 3 2.28125 2.878906 2.285156 2.757812 2.285156 C 2.652344 2.285156 2.652344 2.285156 2.546875 2.289062 C 2.378906 2.300781 2.378906 2.300781 2.257812 2.382812 C 2.148438 2.5625 2.164062 2.722656 2.160156 2.933594 C 2.160156 2.976562 2.160156 3.023438 2.160156 3.066406 C 2.15625 3.210938 2.15625 3.359375 2.15625 3.503906 C 2.152344 3.601562 2.152344 3.703125 2.152344 3.804688 C 2.148438 4.070312 2.148438 4.335938 2.144531 4.597656 C 2.144531 4.867188 2.140625 5.140625 2.136719 5.410156 C 2.132812 5.941406 2.128906 6.46875 2.125 7 C 2.164062 7.007812 2.203125 7.015625 2.242188 7.023438 C 2.292969 7.035156 2.34375 7.046875 2.394531 7.058594 C 2.445312 7.070312 2.496094 7.078125 2.546875 7.089844 C 2.972656 7.195312 3.308594 7.507812 3.546875 7.863281 C 3.839844 8.382812 3.886719 8.925781 3.746094 9.5 C 3.582031 9.992188 3.269531 10.355469 2.835938 10.625 C 2.605469 10.71875 2.367188 10.765625 2.125 10.8125 C 2.128906 11.121094 2.136719 11.429688 2.140625 11.738281 C 2.144531 11.839844 2.144531 11.945312 2.148438 12.050781 C 2.148438 12.203125 2.152344 12.351562 2.15625 12.503906 C 2.15625 12.550781 2.15625 12.597656 2.15625 12.644531 C 2.164062 12.898438 2.164062 12.898438 2.269531 13.121094 C 2.457031 13.238281 2.671875 13.222656 2.886719 13.230469 C 2.933594 13.234375 2.980469 13.234375 3.027344 13.238281 C 3.144531 13.242188 3.261719 13.246094 3.375 13.25 C 3.371094 13.175781 3.371094 13.105469 3.367188 13.027344 C 3.363281 12.929688 3.363281 12.835938 3.359375 12.738281 C 3.355469 12.691406 3.355469 12.640625 3.351562 12.59375 C 3.347656 12.355469 3.363281 12.210938 3.46875 11.996094 C 3.6875 11.828125 3.878906 11.839844 4.140625 11.855469 C 4.210938 11.859375 4.210938 11.859375 4.28125 11.859375 C 4.394531 11.863281 4.511719 11.867188 4.625 11.875 C 4.625 11.835938 4.625 11.800781 4.628906 11.761719 C 4.644531 11.488281 4.660156 11.347656 4.835938 11.125 C 5.058594 10.957031 5.214844 10.929688 5.488281 10.925781 C 5.578125 10.925781 5.578125 10.925781 5.671875 10.925781 C 5.734375 10.925781 5.800781 10.925781 5.871094 10.925781 C 5.9375 10.925781 6.003906 10.925781 6.074219 10.921875 C 6.214844 10.921875 6.355469 10.921875 6.5 10.921875 C 6.71875 10.921875 6.9375 10.917969 7.152344 10.917969 C 7.292969 10.917969 7.429688 10.917969 7.570312 10.917969 C 7.632812 10.914062 7.699219 10.914062 7.765625 10.914062 C 7.859375 10.914062 7.859375 10.914062 7.949219 10.914062 C 8.003906 10.914062 8.058594 10.914062 8.113281 10.914062 C 8.28125 10.941406 8.328125 11 8.4375 11.125 C 8.578125 11.160156 8.578125 11.160156 8.730469 11.167969 C 8.804688 11.175781 8.804688 11.175781 8.882812 11.179688 C 8.921875 11.183594 8.960938 11.183594 9 11.1875 C 9.042969 11.105469 9.082031 11.023438 9.125 10.9375 C 9.535156 10.933594 9.949219 10.929688 10.359375 10.925781 C 10.5 10.925781 10.640625 10.925781 10.777344 10.921875 C 10.980469 10.921875 11.183594 10.921875 11.382812 10.917969 C 11.476562 10.917969 11.476562 10.917969 11.574219 10.917969 C 11.902344 10.914062 12.160156 10.921875 12.4375 11.125 C 12.617188 11.390625 12.648438 11.601562 12.644531 11.917969 C 12.644531 11.996094 12.640625 12.074219 12.640625 12.15625 C 12.640625 12.234375 12.636719 12.316406 12.636719 12.398438 C 12.636719 12.480469 12.636719 12.5625 12.632812 12.644531 C 12.632812 12.847656 12.628906 13.046875 12.625 13.25 C 12.789062 13.246094 12.949219 13.238281 13.113281 13.230469 C 13.160156 13.230469 13.207031 13.226562 13.253906 13.226562 C 13.503906 13.214844 13.503906 13.214844 13.730469 13.121094 C 13.859375 12.929688 13.84375 12.726562 13.84375 12.503906 C 13.84375 12.453125 13.847656 12.40625 13.847656 12.355469 C 13.851562 12.203125 13.855469 12.046875 13.855469 11.894531 C 13.855469 11.789062 13.859375 11.683594 13.863281 11.582031 C 13.867188 11.324219 13.871094 11.070312 13.875 10.8125 C 13.839844 10.804688 13.800781 10.796875 13.761719 10.789062 C 13.195312 10.675781 12.78125 10.433594 12.449219 9.949219 C 12.179688 9.464844 12.101562 8.929688 12.230469 8.386719 C 12.417969 7.792969 12.742188 7.417969 13.289062 7.121094 C 13.480469 7.046875 13.671875 7.023438 13.875 7 C 13.875 6.957031 13.871094 6.917969 13.871094 6.875 C 13.867188 6.683594 13.863281 6.496094 13.859375 6.304688 C 13.855469 6.238281 13.855469 6.175781 13.851562 6.105469 C 13.847656 5.726562 13.851562 5.476562 14.125 5.1875 C 14.292969 5.042969 14.46875 4.914062 14.652344 4.789062 C 14.699219 4.753906 14.746094 4.722656 14.792969 4.6875 C 14.839844 4.652344 14.886719 4.621094 14.933594 4.589844 C 14.996094 4.542969 14.996094 4.542969 15.058594 4.5 C 15.21875 4.421875 15.324219 4.417969 15.5 4.4375 C 15.625 4.5625 15.625 4.5625 15.632812 4.734375 C 15.527344 5.035156 15.328125 5.132812 15.066406 5.292969 C 14.972656 5.351562 14.882812 5.410156 14.792969 5.46875 C 14.75 5.496094 14.710938 5.519531 14.667969 5.546875 C 14.523438 5.65625 14.445312 5.761719 14.417969 5.941406 C 14.414062 5.992188 14.414062 6.039062 14.410156 6.089844 C 14.410156 6.144531 14.40625 6.195312 14.402344 6.25 C 14.402344 6.304688 14.402344 6.359375 14.398438 6.417969 C 14.394531 6.5 14.394531 6.5 14.390625 6.585938 C 14.386719 6.726562 14.378906 6.863281 14.375 7 C 14.414062 7.007812 14.449219 7.015625 14.488281 7.023438 C 15.042969 7.132812 15.363281 7.390625 15.730469 7.8125 C 15.957031 8.15625 16.03125 8.460938 16.023438 8.871094 C 16.023438 8.914062 16.023438 8.960938 16.019531 9.003906 C 16 9.617188 15.820312 9.917969 15.402344 10.363281 C 15.082031 10.652344 14.792969 10.746094 14.375 10.8125 C 14.375 10.921875 14.375 10.921875 14.378906 11.03125 C 14.382812 11.300781 14.382812 11.570312 14.386719 11.835938 C 14.386719 11.953125 14.386719 12.070312 14.390625 12.183594 C 14.390625 12.351562 14.390625 12.519531 14.394531 12.6875 C 14.394531 12.738281 14.394531 12.789062 14.394531 12.84375 C 14.394531 13.136719 14.375 13.324219 14.1875 13.5625 C 13.902344 13.8125 13.585938 13.773438 13.230469 13.761719 C 13.171875 13.761719 13.113281 13.761719 13.054688 13.757812 C 12.910156 13.757812 12.769531 13.753906 12.625 13.75 C 12.625 13.800781 12.625 13.851562 12.628906 13.90625 C 12.632812 14.136719 12.632812 14.367188 12.636719 14.601562 C 12.636719 14.683594 12.640625 14.761719 12.640625 14.84375 C 12.640625 14.960938 12.640625 14.960938 12.644531 15.082031 C 12.644531 15.1875 12.644531 15.1875 12.644531 15.296875 C 12.621094 15.53125 12.558594 15.675781 12.4375 15.875 C 12.238281 16.007812 12.183594 16.015625 11.953125 16.015625 C 11.894531 16.019531 11.832031 16.019531 11.769531 16.019531 C 11.703125 16.019531 11.636719 16.019531 11.566406 16.019531 C 11.496094 16.019531 11.429688 16.019531 11.355469 16.019531 C 11.121094 16.023438 10.890625 16.023438 10.65625 16.023438 C 10.496094 16.023438 10.332031 16.023438 10.171875 16.023438 C 9.832031 16.027344 9.496094 16.027344 9.15625 16.027344 C 8.765625 16.027344 8.371094 16.027344 7.980469 16.03125 C 7.605469 16.035156 7.226562 16.035156 6.851562 16.035156 C 6.691406 16.035156 6.53125 16.035156 6.371094 16.035156 C 6.144531 16.039062 5.921875 16.039062 5.699219 16.039062 C 5.597656 16.039062 5.597656 16.039062 5.496094 16.039062 C 5.046875 16.035156 5.046875 16.035156 4.804688 15.851562 C 4.683594 15.679688 4.644531 15.589844 4.636719 15.386719 C 4.632812 15.3125 4.632812 15.3125 4.628906 15.238281 C 4.625 15.199219 4.625 15.164062 4.625 15.125 C 4.527344 15.128906 4.527344 15.128906 4.429688 15.136719 C 4.347656 15.140625 4.261719 15.140625 4.175781 15.144531 C 4.113281 15.148438 4.113281 15.148438 4.046875 15.152344 C 3.816406 15.15625 3.695312 15.128906 3.5 15.003906 C 3.332031 14.746094 3.339844 14.5625 3.355469 14.261719 C 3.355469 14.210938 3.359375 14.164062 3.359375 14.113281 C 3.363281 13.992188 3.371094 13.871094 3.375 13.75 C 3.320312 13.75 3.320312 13.75 3.265625 13.753906 C 3.101562 13.757812 2.933594 13.757812 2.769531 13.761719 C 2.710938 13.761719 2.65625 13.765625 2.597656 13.765625 C 2.050781 13.773438 2.050781 13.773438 1.8125 13.5625 C 1.589844 13.277344 1.601562 13.03125 1.605469 12.6875 C 1.605469 12.632812 1.605469 12.578125 1.605469 12.523438 C 1.609375 12.351562 1.609375 12.183594 1.613281 12.011719 C 1.613281 11.894531 1.613281 11.78125 1.617188 11.664062 C 1.617188 11.378906 1.621094 11.097656 1.625 10.8125 C 1.546875 10.792969 1.46875 10.773438 1.386719 10.757812 C 0.804688 10.617188 0.4375 10.257812 0.113281 9.761719 C -0.0976562 9.3125 -0.0820312 8.65625 0.0546875 8.1875 C 0.285156 7.695312 0.632812 7.34375 1.121094 7.109375 C 1.285156 7.050781 1.453125 7.027344 1.625 7 C 1.625 6.941406 1.625 6.882812 1.625 6.824219 C 1.621094 6.277344 1.617188 5.730469 1.617188 5.1875 C 1.613281 4.90625 1.613281 4.625 1.609375 4.34375 C 1.609375 4.070312 1.609375 3.800781 1.605469 3.53125 C 1.605469 3.425781 1.605469 3.324219 1.605469 3.21875 C 1.605469 3.074219 1.605469 2.929688 1.605469 2.785156 C 1.605469 2.703125 1.601562 2.621094 1.601562 2.535156 C 1.632812 2.222656 1.710938 2.023438 1.953125 1.820312 C 2.164062 1.734375 2.320312 1.726562 2.542969 1.726562 C 2.585938 1.726562 2.625 1.726562 2.667969 1.726562 C 2.804688 1.730469 2.9375 1.730469 3.070312 1.730469 C 3.164062 1.730469 3.257812 1.730469 3.351562 1.730469 C 3.597656 1.734375 3.84375 1.734375 4.085938 1.738281 C 4.339844 1.738281 4.589844 1.738281 4.839844 1.742188 C 5.332031 1.742188 5.820312 1.746094 6.3125 1.75 C 6.328125 1.699219 6.34375 1.652344 6.359375 1.601562 C 6.4375 1.4375 6.4375 1.4375 6.660156 1.332031 C 6.78125 1.277344 6.78125 1.277344 6.875 1.1875 C 6.914062 1.027344 6.917969 0.878906 6.921875 0.71875 C 6.949219 0.441406 7.101562 0.277344 7.285156 0.0859375 C 7.523438 -0.046875 7.757812 -0.0273438 8.027344 -0.0234375 Z M 8.027344 -0.0234375 "/>
<path style=" stroke:none;fill-rule:nonzero;fill:rgb(21.176471%,36.470589%,48.627451%);fill-opacity:1;" d="M 8.375 11.1875 C 8.476562 11.183594 8.578125 11.179688 8.679688 11.175781 C 8.734375 11.171875 8.792969 11.171875 8.851562 11.167969 C 8.925781 11.179688 8.925781 11.179688 9 11.1875 C 9.042969 11.25 9.082031 11.3125 9.125 11.375 C 9.253906 11.402344 9.253906 11.402344 9.402344 11.398438 C 9.488281 11.402344 9.488281 11.402344 9.574219 11.402344 C 9.636719 11.402344 9.699219 11.402344 9.761719 11.402344 C 9.824219 11.402344 9.886719 11.40625 9.953125 11.40625 C 10.15625 11.40625 10.359375 11.410156 10.5625 11.410156 C 10.765625 11.410156 10.96875 11.414062 11.171875 11.414062 C 11.296875 11.417969 11.425781 11.417969 11.550781 11.417969 C 11.609375 11.417969 11.664062 11.421875 11.722656 11.421875 C 11.773438 11.421875 11.824219 11.421875 11.875 11.421875 C 12 11.4375 12 11.4375 12.125 11.5625 C 12.140625 11.722656 12.140625 11.722656 12.140625 11.929688 C 12.140625 12.007812 12.140625 12.085938 12.140625 12.164062 C 12.140625 12.25 12.140625 12.332031 12.140625 12.417969 C 12.140625 12.503906 12.140625 12.589844 12.140625 12.675781 C 12.140625 12.859375 12.140625 13.039062 12.140625 13.21875 C 12.140625 13.453125 12.140625 13.6875 12.140625 13.917969 C 12.140625 14.097656 12.140625 14.273438 12.140625 14.453125 C 12.140625 14.539062 12.140625 14.625 12.140625 14.710938 C 12.140625 14.828125 12.140625 14.949219 12.140625 15.070312 C 12.140625 15.136719 12.140625 15.207031 12.140625 15.277344 C 12.125 15.4375 12.125 15.4375 12 15.5625 C 11.878906 15.578125 11.878906 15.578125 11.730469 15.578125 C 11.644531 15.578125 11.644531 15.578125 11.558594 15.578125 C 11.496094 15.578125 11.433594 15.578125 11.367188 15.578125 C 11.300781 15.578125 11.238281 15.578125 11.167969 15.578125 C 10.953125 15.578125 10.734375 15.578125 10.515625 15.578125 C 10.363281 15.578125 10.214844 15.578125 10.0625 15.578125 C 9.746094 15.578125 9.429688 15.578125 9.113281 15.578125 C 8.707031 15.578125 8.300781 15.578125 7.894531 15.578125 C 7.582031 15.578125 7.269531 15.578125 6.960938 15.578125 C 6.808594 15.578125 6.660156 15.578125 6.507812 15.578125 C 6.300781 15.578125 6.089844 15.578125 5.882812 15.578125 C 5.789062 15.578125 5.789062 15.578125 5.691406 15.578125 C 5.636719 15.578125 5.578125 15.578125 5.519531 15.578125 C 5.472656 15.578125 5.421875 15.578125 5.371094 15.578125 C 5.25 15.5625 5.25 15.5625 5.125 15.4375 C 5.109375 15.277344 5.109375 15.277344 5.109375 15.070312 C 5.109375 14.992188 5.109375 14.914062 5.109375 14.835938 C 5.109375 14.75 5.109375 14.667969 5.109375 14.582031 C 5.109375 14.496094 5.109375 14.410156 5.109375 14.324219 C 5.109375 14.140625 5.109375 13.960938 5.109375 13.78125 C 5.109375 13.546875 5.109375 13.3125 5.109375 13.082031 C 5.109375 12.902344 5.109375 12.726562 5.109375 12.546875 C 5.109375 12.460938 5.109375 12.375 5.109375 12.289062 C 5.109375 12.171875 5.109375 12.050781 5.109375 11.929688 C 5.109375 11.863281 5.109375 11.792969 5.109375 11.722656 C 5.125 11.5625 5.125 11.5625 5.25 11.4375 C 5.382812 11.421875 5.382812 11.421875 5.546875 11.417969 C 5.636719 11.414062 5.636719 11.414062 5.730469 11.414062 C 5.832031 11.414062 5.832031 11.414062 5.933594 11.410156 C 6.035156 11.410156 6.035156 11.410156 6.136719 11.40625 C 6.355469 11.40625 6.570312 11.402344 6.789062 11.398438 C 6.9375 11.394531 7.082031 11.394531 7.230469 11.390625 C 7.589844 11.386719 7.953125 11.378906 8.3125 11.375 C 8.332031 11.3125 8.355469 11.25 8.375 11.1875 Z M 8.375 11.1875 "/>
<path style=" stroke:none;fill-rule:nonzero;fill:rgb(98.823529%,83.529413%,43.921569%);fill-opacity:1;" d="M 7.1875 2.8125 C 7.375 2.8125 7.558594 2.8125 7.75 2.8125 C 7.757812 3.09375 7.765625 3.375 7.769531 3.652344 C 7.773438 3.75 7.773438 3.84375 7.777344 3.9375 C 7.78125 4.078125 7.785156 4.214844 7.785156 4.351562 C 7.789062 4.394531 7.789062 4.4375 7.792969 4.480469 C 7.792969 4.601562 7.792969 4.601562 7.75 4.8125 C 7.566406 4.953125 7.566406 4.953125 7.375 5.0625 C 7.1875 5.339844 7.210938 5.609375 7.25 5.9375 C 7.375 6.160156 7.503906 6.296875 7.75 6.375 C 8.074219 6.40625 8.289062 6.371094 8.5625 6.1875 C 8.730469 5.945312 8.785156 5.726562 8.777344 5.433594 C 8.714844 5.144531 8.488281 4.972656 8.25 4.8125 C 8.234375 4.65625 8.226562 4.519531 8.230469 4.363281 C 8.230469 4.320312 8.234375 4.273438 8.234375 4.230469 C 8.234375 4.085938 8.234375 3.945312 8.238281 3.804688 C 8.238281 3.707031 8.238281 3.613281 8.242188 3.515625 C 8.242188 3.28125 8.246094 3.046875 8.25 2.8125 C 8.414062 2.8125 8.578125 2.8125 8.75 2.8125 C 8.769531 2.851562 8.789062 2.890625 8.808594 2.933594 C 8.996094 3.304688 9.214844 3.625 9.476562 3.945312 C 9.984375 4.578125 10.148438 5.039062 10.0625 5.875 C 9.949219 6.414062 9.691406 6.828125 9.246094 7.15625 C 9.125 7.238281 9.003906 7.308594 8.875 7.375 C 8.828125 7.398438 8.785156 7.421875 8.738281 7.445312 C 8.253906 7.597656 7.617188 7.589844 7.144531 7.417969 C 6.949219 7.3125 6.949219 7.3125 6.785156 7.207031 C 6.59375 7.109375 6.460938 7.121094 6.25 7.125 C 6.015625 6.929688 6.015625 6.929688 5.9375 6.75 C 5.933594 6.597656 5.953125 6.460938 5.980469 6.308594 C 6.011719 6.183594 6.011719 6.183594 5.9375 6.0625 C 5.835938 5.113281 6.007812 4.546875 6.597656 3.808594 C 6.644531 3.753906 6.644531 3.753906 6.691406 3.695312 C 6.914062 3.417969 7.066406 3.152344 7.1875 2.8125 Z M 7.1875 2.8125 "/>
<path style=" stroke:none;fill-rule:nonzero;fill:rgb(93.725491%,47.450981%,47.843137%);fill-opacity:1;" d="M 14.886719 7.667969 C 15.152344 7.863281 15.378906 8.125 15.5 8.4375 C 15.550781 8.871094 15.582031 9.3125 15.34375 9.695312 C 15.113281 9.984375 14.828125 10.148438 14.5 10.3125 C 14.035156 10.355469 13.628906 10.351562 13.25 10.0625 C 12.894531 9.734375 12.683594 9.367188 12.660156 8.878906 C 12.679688 8.421875 12.847656 8.128906 13.179688 7.820312 C 13.667969 7.425781 14.335938 7.347656 14.886719 7.667969 Z M 14.886719 7.667969 "/>
<path style=" stroke:none;fill-rule:nonzero;fill:rgb(15.686275%,28.235295%,37.254903%);fill-opacity:1;" d="M 9.1875 11.4375 C 9.585938 11.433594 9.984375 11.433594 10.382812 11.429688 C 10.519531 11.429688 10.652344 11.429688 10.789062 11.429688 C 10.984375 11.425781 11.179688 11.425781 11.371094 11.425781 C 11.433594 11.425781 11.496094 11.421875 11.558594 11.421875 C 11.613281 11.421875 11.667969 11.421875 11.726562 11.421875 C 11.777344 11.421875 11.828125 11.421875 11.878906 11.421875 C 12 11.4375 12 11.4375 12.125 11.5625 C 12.140625 11.722656 12.140625 11.722656 12.140625 11.929688 C 12.140625 12.007812 12.140625 12.085938 12.140625 12.164062 C 12.140625 12.25 12.140625 12.332031 12.140625 12.417969 C 12.140625 12.503906 12.140625 12.589844 12.140625 12.675781 C 12.140625 12.859375 12.140625 13.039062 12.140625 13.21875 C 12.140625 13.453125 12.140625 13.6875 12.140625 13.917969 C 12.140625 14.097656 12.140625 14.273438 12.140625 14.453125 C 12.140625 14.539062 12.140625 14.625 12.140625 14.710938 C 12.140625 14.828125 12.140625 14.949219 12.140625 15.070312 C 12.140625 15.136719 12.140625 15.207031 12.140625 15.277344 C 12.125 15.4375 12.125 15.4375 12 15.5625 C 11.878906 15.578125 11.878906 15.578125 11.730469 15.578125 C 11.644531 15.578125 11.644531 15.578125 11.558594 15.578125 C 11.496094 15.578125 11.433594 15.578125 11.367188 15.578125 C 11.300781 15.578125 11.238281 15.578125 11.167969 15.578125 C 10.953125 15.578125 10.734375 15.578125 10.515625 15.578125 C 10.363281 15.578125 10.214844 15.578125 10.0625 15.578125 C 9.746094 15.578125 9.429688 15.578125 9.113281 15.578125 C 8.707031 15.578125 8.300781 15.578125 7.894531 15.578125 C 7.582031 15.578125 7.269531 15.578125 6.960938 15.578125 C 6.808594 15.578125 6.660156 15.578125 6.507812 15.578125 C 6.300781 15.578125 6.089844 15.578125 5.882812 15.578125 C 5.789062 15.578125 5.789062 15.578125 5.691406 15.578125 C 5.636719 15.578125 5.578125 15.578125 5.519531 15.578125 C 5.472656 15.578125 5.421875 15.578125 5.371094 15.578125 C 5.25 15.5625 5.25 15.5625 5.125 15.4375 C 5.109375 15.277344 5.109375 15.277344 5.109375 15.066406 C 5.109375 14.988281 5.109375 14.914062 5.109375 14.832031 C 5.109375 14.746094 5.113281 14.664062 5.113281 14.578125 C 5.113281 14.492188 5.113281 14.40625 5.113281 14.316406 C 5.113281 14.089844 5.113281 13.859375 5.117188 13.632812 C 5.117188 13.398438 5.117188 13.167969 5.117188 12.933594 C 5.121094 12.476562 5.121094 12.019531 5.125 11.5625 C 5.144531 11.5625 5.167969 11.5625 5.1875 11.5625 C 5.1875 12.695312 5.1875 13.832031 5.1875 15 C 7.3125 15 9.4375 15 11.625 15 C 11.625 13.84375 11.625 12.691406 11.625 11.5 C 10.820312 11.5 10.015625 11.5 9.1875 11.5 C 9.1875 11.480469 9.1875 11.457031 9.1875 11.4375 Z M 9.1875 11.4375 "/>
<path style=" stroke:none;fill-rule:nonzero;fill:rgb(29.803923%,76.862746%,66.666669%);fill-opacity:1;" d="M 1.9375 7.5 C 2.226562 7.707031 2.4375 7.976562 2.5625 8.3125 C 2.574219 8.492188 2.574219 8.492188 2.5625 8.625 C 2.417969 8.625 2.273438 8.625 2.125 8.625 C 2.105469 8.480469 2.082031 8.335938 2.0625 8.1875 C 1.933594 8.152344 1.824219 8.125 1.6875 8.125 C 1.6875 8.3125 1.6875 8.496094 1.6875 8.6875 C 1.5 8.707031 1.316406 8.730469 1.125 8.75 C 1.144531 8.851562 1.167969 8.957031 1.1875 9.0625 C 1.332031 9.082031 1.476562 9.105469 1.625 9.125 C 1.632812 9.195312 1.640625 9.265625 1.648438 9.335938 C 1.664062 9.5625 1.664062 9.5625 1.8125 9.6875 C 1.945312 9.667969 1.945312 9.667969 2.0625 9.625 C 2.082031 9.480469 2.105469 9.335938 2.125 9.1875 C 2.269531 9.1875 2.414062 9.1875 2.5625 9.1875 C 2.523438 9.605469 2.339844 9.863281 2.046875 10.152344 C 1.863281 10.300781 1.816406 10.3125 1.566406 10.328125 C 1.171875 10.242188 0.867188 9.972656 0.625 9.660156 C 0.414062 9.285156 0.4375 8.851562 0.5 8.4375 C 0.660156 8.03125 0.945312 7.785156 1.3125 7.5625 C 1.546875 7.484375 1.691406 7.46875 1.9375 7.5 Z M 1.9375 7.5 "/>
<path style=" stroke:none;fill-rule:nonzero;fill:rgb(14.901961%,70.980394%,60.000002%);fill-opacity:1;" d="M 1.9375 7.5 C 2.417969 7.53125 2.6875 7.664062 3.015625 8.027344 C 3.273438 8.347656 3.34375 8.609375 3.335938 9.019531 C 3.273438 9.476562 3.03125 9.839844 2.667969 10.117188 C 2.378906 10.308594 2.15625 10.328125 1.8125 10.3125 C 1.859375 10.265625 1.90625 10.222656 1.953125 10.175781 C 2.261719 9.859375 2.421875 9.605469 2.5625 9.1875 C 2.417969 9.1875 2.273438 9.1875 2.125 9.1875 C 2.128906 9.257812 2.128906 9.328125 2.132812 9.398438 C 2.125 9.625 2.125 9.625 2 9.75 C 1.816406 9.726562 1.757812 9.695312 1.625 9.5625 C 1.617188 9.335938 1.617188 9.335938 1.625 9.125 C 1.519531 9.128906 1.519531 9.128906 1.414062 9.132812 C 1.1875 9.125 1.1875 9.125 1.0625 9 C 1.085938 8.835938 1.085938 8.835938 1.125 8.6875 C 1.3125 8.6875 1.496094 8.6875 1.6875 8.6875 C 1.6875 8.5 1.6875 8.316406 1.6875 8.125 C 1.835938 8.085938 1.835938 8.085938 2 8.0625 C 2.125 8.1875 2.125 8.1875 2.132812 8.414062 C 2.128906 8.484375 2.128906 8.554688 2.125 8.625 C 2.269531 8.625 2.414062 8.625 2.5625 8.625 C 2.464844 8.21875 2.316406 7.957031 2.027344 7.65625 C 1.9375 7.5625 1.9375 7.5625 1.9375 7.5 Z M 1.9375 7.5 "/>
<path style=" stroke:none;fill-rule:nonzero;fill:rgb(86.666667%,37.64706%,41.568628%);fill-opacity:1;" d="M 14.1875 7.5 C 14.585938 7.53125 14.902344 7.628906 15.171875 7.9375 C 15.527344 8.402344 15.5625 8.796875 15.5 9.375 C 15.316406 9.859375 14.945312 10.089844 14.5 10.3125 C 14.355469 10.316406 14.207031 10.316406 14.0625 10.3125 C 14.109375 10.269531 14.152344 10.230469 14.199219 10.1875 C 14.503906 9.882812 14.683594 9.535156 14.8125 9.125 C 14.769531 9.125 14.726562 9.125 14.679688 9.125 C 14.488281 9.128906 14.292969 9.128906 14.097656 9.128906 C 14.03125 9.128906 13.960938 9.128906 13.890625 9.128906 C 13.828125 9.128906 13.761719 9.128906 13.695312 9.132812 C 13.636719 9.132812 13.574219 9.132812 13.515625 9.132812 C 13.375 9.125 13.375 9.125 13.3125 9.0625 C 13.300781 8.910156 13.300781 8.910156 13.3125 8.75 C 13.4375 8.625 13.4375 8.625 13.578125 8.609375 C 13.636719 8.609375 13.691406 8.613281 13.75 8.613281 C 13.8125 8.613281 13.875 8.613281 13.9375 8.613281 C 14.035156 8.617188 14.035156 8.617188 14.132812 8.617188 C 14.199219 8.617188 14.261719 8.617188 14.328125 8.617188 C 14.492188 8.621094 14.652344 8.621094 14.8125 8.625 C 14.785156 8.546875 14.753906 8.46875 14.726562 8.386719 C 14.710938 8.34375 14.695312 8.300781 14.679688 8.253906 C 14.5625 7.972656 14.371094 7.738281 14.1875 7.5 Z M 14.1875 7.5 "/>
<path style=" stroke:none;fill-rule:nonzero;fill:rgb(97.254902%,96.470588%,96.862745%);fill-opacity:1;" d="M 3.875 12.3125 C 4.144531 12.3125 4.410156 12.3125 4.6875 12.3125 C 4.6875 13.074219 4.6875 13.839844 4.6875 14.625 C 4.417969 14.625 4.152344 14.625 3.875 14.625 C 3.875 13.863281 3.875 13.097656 3.875 12.3125 Z M 3.875 12.3125 "/>
<path style=" stroke:none;fill-rule:nonzero;fill:rgb(0.392157%,0.784314%,1.176471%);fill-opacity:1;" d="M 8.8125 11.9375 C 9.042969 11.980469 9.042969 11.980469 9.125 12.0625 C 9.15625 12.277344 9.128906 12.367188 9.015625 12.554688 C 8.96875 12.617188 8.921875 12.675781 8.875 12.738281 C 8.828125 12.800781 8.78125 12.859375 8.734375 12.921875 C 8.699219 12.96875 8.660156 13.015625 8.625 13.0625 C 8.695312 13.070312 8.765625 13.078125 8.835938 13.085938 C 9.0625 13.125 9.0625 13.125 9.1875 13.25 C 9.179688 13.632812 9.042969 13.847656 8.820312 14.140625 C 8.792969 14.179688 8.765625 14.21875 8.734375 14.257812 C 8.453125 14.636719 8.453125 14.636719 8.3125 14.75 C 8.175781 14.730469 8.175781 14.730469 8.0625 14.6875 C 8.015625 14.558594 8.015625 14.558594 8 14.375 C 8.085938 14.21875 8.171875 14.089844 8.277344 13.949219 C 8.304688 13.910156 8.332031 13.875 8.359375 13.835938 C 8.425781 13.746094 8.496094 13.652344 8.5625 13.5625 C 8.441406 13.566406 8.441406 13.566406 8.320312 13.570312 C 8.183594 13.574219 8.183594 13.574219 8.0625 13.5625 C 8.019531 13.519531 7.980469 13.480469 7.9375 13.4375 C 7.9375 13.058594 8.160156 12.804688 8.375 12.511719 C 8.410156 12.464844 8.445312 12.414062 8.480469 12.363281 C 8.734375 12.015625 8.734375 12.015625 8.8125 11.9375 Z M 8.8125 11.9375 "/>
<path style=" stroke:none;fill-rule:nonzero;fill:rgb(96.078432%,71.372551%,33.725491%);fill-opacity:1;" d="M 8.375 2.8125 C 8.5 2.8125 8.621094 2.8125 8.75 2.8125 C 8.769531 2.851562 8.789062 2.890625 8.808594 2.933594 C 8.996094 3.304688 9.214844 3.625 9.476562 3.945312 C 9.984375 4.578125 10.148438 5.039062 10.0625 5.875 C 9.949219 6.417969 9.6875 6.839844 9.234375 7.164062 C 9.117188 7.238281 9 7.308594 8.875 7.375 C 8.875 7.3125 8.875 7.25 8.875 7.1875 C 8.917969 7.148438 8.960938 7.109375 9.007812 7.066406 C 9.390625 6.710938 9.59375 6.152344 9.640625 5.640625 C 9.660156 4.832031 9.367188 4.3125 8.875 3.6875 C 8.464844 3.164062 8.464844 3.164062 8.375 2.8125 Z M 8.375 2.8125 "/>
<path style=" stroke:none;fill-rule:nonzero;fill:rgb(97.254902%,96.470588%,96.862745%);fill-opacity:1;" d="M 7.261719 1.671875 C 7.304688 1.671875 7.347656 1.671875 7.394531 1.671875 C 7.460938 1.671875 7.460938 1.671875 7.53125 1.671875 C 7.625 1.671875 7.722656 1.671875 7.816406 1.671875 C 7.964844 1.671875 8.109375 1.671875 8.257812 1.671875 C 8.347656 1.671875 8.441406 1.671875 8.535156 1.671875 C 8.578125 1.671875 8.621094 1.671875 8.667969 1.671875 C 8.894531 1.671875 8.992188 1.683594 9.1875 1.8125 C 9.210938 2 9.210938 2 9.1875 2.1875 C 8.960938 2.335938 8.796875 2.332031 8.535156 2.332031 C 8.46875 2.332031 8.46875 2.332031 8.402344 2.332031 C 8.304688 2.332031 8.210938 2.332031 8.113281 2.332031 C 7.96875 2.332031 7.824219 2.332031 7.679688 2.335938 C 7.585938 2.335938 7.492188 2.335938 7.402344 2.335938 C 7.335938 2.335938 7.335938 2.335938 7.269531 2.335938 C 7.085938 2.335938 6.964844 2.332031 6.8125 2.226562 C 6.75 2.125 6.75 2.125 6.761719 1.964844 C 6.855469 1.679688 6.980469 1.671875 7.261719 1.671875 Z M 7.261719 1.671875 "/>
<path style=" stroke:none;fill-rule:nonzero;fill:rgb(0.784314%,2.352941%,1.960784%);fill-opacity:1;" d="M 2.0625 8.125 C 2.125 8.1875 2.125 8.1875 2.132812 8.304688 C 2.128906 8.429688 2.125 8.558594 2.125 8.6875 C 2.207031 8.6875 2.289062 8.683594 2.371094 8.683594 C 2.457031 8.683594 2.539062 8.683594 2.625 8.6875 C 2.6875 8.75 2.6875 8.75 2.695312 8.90625 C 2.6875 9.0625 2.6875 9.0625 2.625 9.125 C 2.457031 9.132812 2.292969 9.128906 2.125 9.125 C 2.128906 9.203125 2.128906 9.285156 2.132812 9.367188 C 2.136719 9.503906 2.136719 9.503906 2.125 9.625 C 2.082031 9.667969 2.042969 9.707031 2 9.75 C 1.816406 9.726562 1.757812 9.695312 1.625 9.5625 C 1.617188 9.335938 1.617188 9.335938 1.625 9.125 C 1.519531 9.128906 1.519531 9.128906 1.414062 9.132812 C 1.1875 9.125 1.1875 9.125 1.0625 9 C 1.085938 8.835938 1.085938 8.835938 1.125 8.6875 C 1.3125 8.6875 1.496094 8.6875 1.6875 8.6875 C 1.6875 8.5 1.6875 8.316406 1.6875 8.125 C 1.84375 8.046875 1.898438 8.074219 2.0625 8.125 Z M 2.0625 8.125 "/>
<path style=" stroke:none;fill-rule:nonzero;fill:rgb(21.176471%,36.470589%,48.627451%);fill-opacity:1;" d="M 8.375 0.4375 C 8.574219 0.5625 8.574219 0.5625 8.6875 0.75 C 8.6875 0.914062 8.6875 1.078125 8.6875 1.25 C 8.273438 1.25 7.863281 1.25 7.4375 1.25 C 7.4375 0.6875 7.4375 0.6875 7.519531 0.527344 C 7.796875 0.378906 8.070312 0.386719 8.375 0.4375 Z M 8.375 0.4375 "/>
<path style=" stroke:none;fill-rule:nonzero;fill:rgb(0.392157%,0%,0%);fill-opacity:1;" d="M 14.089844 8.675781 C 14.191406 8.675781 14.191406 8.675781 14.292969 8.671875 C 14.359375 8.671875 14.421875 8.671875 14.488281 8.671875 C 14.578125 8.671875 14.578125 8.671875 14.667969 8.671875 C 14.8125 8.6875 14.8125 8.6875 14.9375 8.8125 C 14.902344 9.035156 14.902344 9.035156 14.8125 9.125 C 14.707031 9.132812 14.601562 9.132812 14.496094 9.132812 C 14.429688 9.132812 14.367188 9.132812 14.300781 9.132812 C 14.199219 9.132812 14.199219 9.132812 14.09375 9.132812 C 14.027344 9.132812 13.957031 9.132812 13.886719 9.132812 C 13.824219 9.132812 13.761719 9.132812 13.695312 9.132812 C 13.632812 9.132812 13.574219 9.132812 13.511719 9.132812 C 13.375 9.125 13.375 9.125 13.3125 9.0625 C 13.304688 8.90625 13.304688 8.90625 13.3125 8.75 C 13.46875 8.59375 13.882812 8.675781 14.089844 8.675781 Z M 14.089844 8.675781 "/>
<path style=" stroke:none;fill-rule:nonzero;fill:rgb(83.92157%,83.137256%,85.490197%);fill-opacity:1;" d="M 3.875 12.3125 C 4.144531 12.3125 4.410156 12.3125 4.6875 12.3125 C 4.6875 13.074219 4.6875 13.839844 4.6875 14.625 C 4.417969 14.625 4.152344 14.625 3.875 14.625 C 3.875 14.460938 3.875 14.296875 3.875 14.125 C 4.121094 14.125 4.371094 14.125 4.625 14.125 C 4.625 13.546875 4.625 12.96875 4.625 12.375 C 4.378906 12.375 4.128906 12.375 3.875 12.375 C 3.875 12.355469 3.875 12.332031 3.875 12.3125 Z M 3.875 12.3125 "/>
<path style=" stroke:none;fill-rule:nonzero;fill:rgb(94.901961%,94.117647%,94.509804%);fill-opacity:1;" d="M 8.25 5.3125 C 8.3125 5.375 8.3125 5.375 8.324219 5.589844 C 8.3125 5.8125 8.3125 5.8125 8.1875 5.9375 C 7.992188 5.957031 7.863281 5.96875 7.695312 5.863281 C 7.597656 5.707031 7.597656 5.617188 7.625 5.4375 C 7.777344 5.171875 7.984375 5.253906 8.25 5.3125 Z M 8.25 5.3125 "/>
<path style=" stroke:none;fill-rule:nonzero;fill:rgb(14.117648%,25.490198%,33.725491%);fill-opacity:1;" d="M 7.6875 0.4375 C 8.296875 0.390625 8.296875 0.390625 8.574219 0.5625 C 8.6875 0.75 8.6875 0.75 8.6875 1.25 C 8.273438 1.25 7.863281 1.25 7.4375 1.25 C 7.4375 1.230469 7.4375 1.207031 7.4375 1.1875 C 7.707031 1.1875 7.972656 1.1875 8.25 1.1875 C 8.230469 0.960938 8.207031 0.734375 8.1875 0.5 C 8.023438 0.5 7.859375 0.5 7.6875 0.5 C 7.6875 0.480469 7.6875 0.457031 7.6875 0.4375 Z M 7.6875 0.4375 "/>
<path style=" stroke:none;fill-rule:nonzero;fill:rgb(84.313726%,83.92157%,85.882354%);fill-opacity:1;" d="M 7.261719 1.671875 C 7.304688 1.671875 7.347656 1.671875 7.394531 1.671875 C 7.460938 1.671875 7.460938 1.671875 7.53125 1.671875 C 7.625 1.671875 7.722656 1.671875 7.816406 1.671875 C 7.964844 1.671875 8.109375 1.671875 8.257812 1.671875 C 8.347656 1.671875 8.441406 1.671875 8.535156 1.671875 C 8.578125 1.671875 8.621094 1.671875 8.667969 1.671875 C 8.894531 1.671875 8.992188 1.683594 9.1875 1.8125 C 9.210938 2 9.210938 2 9.1875 2.1875 C 9 2.3125 9 2.3125 8.75 2.3125 C 8.75 2.128906 8.75 1.941406 8.75 1.75 C 8.464844 1.75 8.175781 1.757812 7.890625 1.761719 C 7.808594 1.761719 7.726562 1.761719 7.644531 1.761719 C 7.566406 1.765625 7.488281 1.765625 7.40625 1.769531 C 7.335938 1.769531 7.261719 1.769531 7.1875 1.769531 C 6.945312 1.824219 6.882812 1.921875 6.75 2.125 C 6.808594 1.757812 6.882812 1.675781 7.261719 1.671875 Z M 7.261719 1.671875 "/>
</g>
</svg>
