<?xml version="1.0" encoding="UTF-8"?>
<svg xmlns="http://www.w3.org/2000/svg" xmlns:xlink="http://www.w3.org/1999/xlink" width="16" height="16" viewBox="0 0 16 16" version="1.1">
<g id="surface1">
<path style=" stroke:none;fill-rule:nonzero;fill:rgb(84.313726%,34.901962%,29.019609%);fill-opacity:1;" d="M 1.066406 8.675781 C 1.125 8.675781 1.183594 8.675781 1.242188 8.675781 C 1.433594 8.675781 1.625 8.671875 1.816406 8.671875 C 1.882812 8.671875 1.949219 8.671875 2.015625 8.671875 C 2.363281 8.671875 2.710938 8.667969 3.058594 8.667969 C 3.414062 8.667969 3.773438 8.667969 4.132812 8.664062 C 4.40625 8.660156 4.683594 8.660156 4.957031 8.660156 C 5.089844 8.660156 5.222656 8.660156 5.355469 8.660156 C 5.539062 8.65625 5.726562 8.65625 5.910156 8.660156 C 5.992188 8.65625 5.992188 8.65625 6.074219 8.65625 C 6.414062 8.660156 6.609375 8.710938 6.875 8.9375 C 7.003906 9.128906 7.015625 9.164062 7.015625 9.378906 C 7.015625 9.433594 7.019531 9.484375 7.019531 9.539062 C 7.019531 9.59375 7.019531 9.652344 7.019531 9.710938 C 7.019531 9.769531 7.019531 9.828125 7.019531 9.890625 C 7.019531 10.089844 7.019531 10.289062 7.019531 10.484375 C 7.019531 10.625 7.023438 10.761719 7.023438 10.898438 C 7.023438 11.1875 7.023438 11.476562 7.023438 11.765625 C 7.023438 12.136719 7.023438 12.503906 7.027344 12.875 C 7.027344 13.160156 7.027344 13.445312 7.027344 13.730469 C 7.027344 13.867188 7.027344 14.003906 7.03125 14.140625 C 7.03125 14.332031 7.03125 14.519531 7.03125 14.710938 C 7.03125 14.769531 7.03125 14.824219 7.03125 14.882812 C 7.03125 15.136719 7.019531 15.277344 6.886719 15.5 C 6.683594 15.683594 6.519531 15.765625 6.246094 15.765625 C 6.167969 15.765625 6.167969 15.765625 6.089844 15.769531 C 6.007812 15.769531 6.007812 15.769531 5.925781 15.765625 C 5.867188 15.769531 5.808594 15.769531 5.75 15.769531 C 5.558594 15.769531 5.367188 15.769531 5.175781 15.769531 C 5.039062 15.769531 4.90625 15.769531 4.773438 15.769531 C 4.496094 15.769531 4.214844 15.769531 3.933594 15.769531 C 3.574219 15.769531 3.21875 15.769531 2.859375 15.773438 C 2.585938 15.773438 2.308594 15.773438 2.03125 15.773438 C 1.902344 15.773438 1.769531 15.773438 1.636719 15.773438 C 1.453125 15.773438 1.265625 15.773438 1.082031 15.773438 C 1 15.773438 1 15.773438 0.917969 15.773438 C 0.550781 15.769531 0.351562 15.710938 0.0742188 15.460938 C -0.046875 15.222656 -0.0273438 14.988281 -0.0273438 14.722656 C -0.0273438 14.660156 -0.0273438 14.601562 -0.0273438 14.539062 C -0.03125 14.34375 -0.03125 14.144531 -0.03125 13.949219 C -0.03125 13.808594 -0.03125 13.671875 -0.03125 13.535156 C -0.03125 13.246094 -0.03125 12.957031 -0.03125 12.671875 C -0.03125 12.300781 -0.03125 11.933594 -0.0351562 11.5625 C -0.0351562 11.277344 -0.0351562 10.996094 -0.0351562 10.710938 C -0.0351562 10.574219 -0.0390625 10.4375 -0.0390625 10.300781 C -0.0390625 10.113281 -0.0390625 9.921875 -0.0390625 9.730469 C -0.0390625 9.675781 -0.0390625 9.621094 -0.0390625 9.5625 C -0.0390625 9.296875 -0.0195312 9.117188 0.148438 8.902344 C 0.425781 8.644531 0.703125 8.675781 1.066406 8.675781 Z M 1.066406 8.675781 "/>
<path style=" stroke:none;fill-rule:nonzero;fill:rgb(49.411765%,66.666669%,85.490197%);fill-opacity:1;" d="M 9.714844 -0.0273438 C 9.804688 -0.0273438 9.804688 -0.0273438 9.898438 -0.0273438 C 10.09375 -0.03125 10.292969 -0.03125 10.488281 -0.03125 C 10.628906 -0.03125 10.765625 -0.03125 10.902344 -0.03125 C 11.191406 -0.03125 11.480469 -0.03125 11.765625 -0.03125 C 12.136719 -0.03125 12.503906 -0.03125 12.875 -0.0351562 C 13.160156 -0.0351562 13.441406 -0.0351562 13.726562 -0.0351562 C 13.863281 -0.0351562 14 -0.0390625 14.136719 -0.0390625 C 14.324219 -0.0390625 14.515625 -0.0390625 14.707031 -0.0390625 C 14.761719 -0.0390625 14.816406 -0.0390625 14.875 -0.0429688 C 15.140625 -0.0390625 15.320312 -0.0195312 15.535156 0.148438 C 15.792969 0.425781 15.761719 0.703125 15.761719 1.066406 C 15.761719 1.125 15.761719 1.183594 15.761719 1.242188 C 15.761719 1.433594 15.765625 1.625 15.765625 1.816406 C 15.765625 1.882812 15.765625 1.949219 15.765625 2.015625 C 15.765625 2.363281 15.769531 2.710938 15.769531 3.058594 C 15.769531 3.414062 15.769531 3.773438 15.773438 4.132812 C 15.777344 4.40625 15.777344 4.683594 15.777344 4.957031 C 15.777344 5.089844 15.777344 5.222656 15.777344 5.355469 C 15.78125 5.539062 15.78125 5.726562 15.777344 5.910156 C 15.78125 5.964844 15.78125 6.019531 15.78125 6.074219 C 15.777344 6.414062 15.726562 6.609375 15.5 6.875 C 15.308594 7 15.273438 7.015625 15.058594 7.015625 C 14.980469 7.015625 14.980469 7.015625 14.898438 7.019531 C 14.816406 7.019531 14.816406 7.019531 14.726562 7.019531 C 14.667969 7.019531 14.609375 7.019531 14.546875 7.019531 C 14.347656 7.019531 14.148438 7.019531 13.953125 7.019531 C 13.8125 7.019531 13.675781 7.023438 13.539062 7.023438 C 13.25 7.023438 12.960938 7.023438 12.671875 7.023438 C 12.300781 7.023438 11.933594 7.023438 11.5625 7.027344 C 11.277344 7.027344 10.992188 7.027344 10.707031 7.027344 C 10.570312 7.027344 10.433594 7.03125 10.296875 7.03125 C 10.105469 7.03125 9.917969 7.03125 9.726562 7.03125 C 9.667969 7.03125 9.613281 7.03125 9.554688 7.03125 C 9.300781 7.03125 9.160156 7.019531 8.9375 6.890625 C 8.753906 6.683594 8.671875 6.519531 8.671875 6.246094 C 8.671875 6.195312 8.671875 6.144531 8.667969 6.09375 C 8.667969 6.035156 8.671875 5.980469 8.671875 5.925781 C 8.667969 5.867188 8.667969 5.808594 8.667969 5.75 C 8.667969 5.558594 8.667969 5.367188 8.667969 5.175781 C 8.667969 5.039062 8.667969 4.90625 8.667969 4.773438 C 8.667969 4.496094 8.667969 4.214844 8.667969 3.933594 C 8.667969 3.578125 8.667969 3.21875 8.664062 2.859375 C 8.664062 2.585938 8.664062 2.308594 8.664062 2.03125 C 8.664062 1.902344 8.664062 1.769531 8.664062 1.636719 C 8.664062 1.453125 8.664062 1.265625 8.664062 1.082031 C 8.664062 1.027344 8.664062 0.972656 8.664062 0.917969 C 8.667969 0.550781 8.726562 0.351562 8.976562 0.0742188 C 9.214844 -0.046875 9.449219 -0.0273438 9.714844 -0.0273438 Z M 9.714844 -0.0273438 "/>
<path style=" stroke:none;fill-rule:nonzero;fill:rgb(93.725491%,80.784315%,28.627452%);fill-opacity:1;" d="M 0.625 -0.0078125 C 0.675781 -0.0117188 0.730469 -0.0117188 0.785156 -0.0117188 C 0.839844 -0.0117188 0.898438 -0.0117188 0.957031 -0.0117188 C 1.019531 -0.0117188 1.078125 -0.0117188 1.140625 -0.0117188 C 1.34375 -0.015625 1.542969 -0.015625 1.742188 -0.015625 C 1.847656 -0.0195312 1.847656 -0.0195312 1.949219 -0.0195312 C 2.3125 -0.0195312 2.675781 -0.0195312 3.039062 -0.0234375 C 3.410156 -0.0234375 3.785156 -0.0273438 4.160156 -0.0273438 C 4.449219 -0.03125 4.738281 -0.03125 5.023438 -0.03125 C 5.160156 -0.03125 5.300781 -0.0351562 5.4375 -0.0351562 C 5.632812 -0.0390625 5.824219 -0.0390625 6.019531 -0.0351562 C 6.101562 -0.0390625 6.101562 -0.0390625 6.191406 -0.0390625 C 6.472656 -0.0351562 6.585938 -0.03125 6.816406 0.152344 C 7.027344 0.433594 7.011719 0.664062 7.011719 1.007812 C 7.011719 1.097656 7.011719 1.097656 7.011719 1.1875 C 7.015625 1.382812 7.015625 1.578125 7.015625 1.777344 C 7.019531 1.84375 7.019531 1.910156 7.019531 1.980469 C 7.019531 2.335938 7.019531 2.6875 7.023438 3.042969 C 7.023438 3.410156 7.027344 3.777344 7.027344 4.140625 C 7.03125 4.425781 7.03125 4.707031 7.03125 4.988281 C 7.03125 5.121094 7.035156 5.257812 7.035156 5.390625 C 7.035156 5.582031 7.035156 5.769531 7.035156 5.960938 C 7.039062 6.015625 7.039062 6.070312 7.039062 6.128906 C 7.035156 6.398438 7.019531 6.570312 6.847656 6.785156 C 6.578125 7.042969 6.351562 7.007812 5.992188 7.011719 C 5.933594 7.011719 5.875 7.011719 5.8125 7.011719 C 5.617188 7.011719 5.421875 7.015625 5.222656 7.015625 C 5.125 7.015625 5.125 7.015625 5.019531 7.015625 C 4.664062 7.015625 4.3125 7.019531 3.957031 7.019531 C 3.589844 7.019531 3.222656 7.019531 2.859375 7.023438 C 2.574219 7.023438 2.292969 7.027344 2.011719 7.027344 C 1.878906 7.027344 1.742188 7.027344 1.609375 7.027344 C 1.417969 7.03125 1.230469 7.03125 1.039062 7.027344 C 0.984375 7.03125 0.929688 7.03125 0.871094 7.03125 C 0.519531 7.027344 0.332031 6.980469 0.0625 6.75 C -0.0078125 6.609375 -0.0078125 6.53125 -0.0078125 6.375 C -0.0117188 6.320312 -0.0117188 6.269531 -0.0117188 6.214844 C -0.0117188 6.160156 -0.0117188 6.101562 -0.0117188 6.042969 C -0.0117188 5.980469 -0.0117188 5.921875 -0.0117188 5.859375 C -0.0117188 5.65625 -0.015625 5.457031 -0.015625 5.257812 C -0.015625 5.1875 -0.015625 5.121094 -0.015625 5.050781 C -0.015625 4.6875 -0.0195312 4.324219 -0.0195312 3.960938 C -0.0195312 3.585938 -0.0195312 3.214844 -0.0234375 2.839844 C -0.0273438 2.550781 -0.0273438 2.261719 -0.0273438 1.976562 C -0.0273438 1.835938 -0.0273438 1.699219 -0.0273438 1.5625 C -0.03125 1.367188 -0.03125 1.175781 -0.0273438 0.980469 C -0.03125 0.925781 -0.03125 0.867188 -0.03125 0.808594 C -0.03125 0.546875 -0.0234375 0.410156 0.117188 0.183594 C 0.296875 0.0195312 0.390625 -0.0078125 0.625 -0.0078125 Z M 0.625 -0.0078125 "/>
<path style=" stroke:none;fill-rule:nonzero;fill:rgb(13.725491%,63.529414%,29.803923%);fill-opacity:1;" d="M 12 8.4375 C 12.21875 8.414062 12.21875 8.414062 12.4375 8.4375 C 12.574219 8.644531 12.578125 8.703125 12.578125 8.945312 C 12.578125 9.007812 12.578125 9.074219 12.578125 9.140625 C 12.578125 9.210938 12.574219 9.28125 12.574219 9.355469 C 12.574219 9.425781 12.574219 9.5 12.574219 9.570312 C 12.574219 9.800781 12.570312 10.03125 12.570312 10.261719 C 12.570312 10.417969 12.570312 10.574219 12.570312 10.730469 C 12.566406 11.109375 12.566406 11.492188 12.5625 11.875 C 12.625 11.875 12.625 11.875 12.683594 11.875 C 13.101562 11.871094 13.523438 11.871094 13.941406 11.867188 C 14.097656 11.867188 14.253906 11.867188 14.410156 11.867188 C 14.632812 11.863281 14.859375 11.863281 15.082031 11.863281 C 15.1875 11.863281 15.1875 11.863281 15.296875 11.859375 C 15.359375 11.859375 15.425781 11.859375 15.492188 11.859375 C 15.578125 11.859375 15.578125 11.859375 15.667969 11.859375 C 15.8125 11.875 15.8125 11.875 16 12 C 16.023438 12.21875 16.023438 12.21875 16 12.4375 C 15.792969 12.574219 15.734375 12.578125 15.492188 12.578125 C 15.429688 12.578125 15.363281 12.578125 15.296875 12.578125 C 15.226562 12.578125 15.15625 12.574219 15.082031 12.574219 C 15.011719 12.574219 14.9375 12.574219 14.867188 12.574219 C 14.636719 12.574219 14.40625 12.570312 14.175781 12.570312 C 14.019531 12.570312 13.863281 12.570312 13.707031 12.570312 C 13.328125 12.566406 12.945312 12.566406 12.5625 12.5625 C 12.5625 12.601562 12.5625 12.644531 12.5625 12.683594 C 12.566406 13.101562 12.566406 13.523438 12.570312 13.941406 C 12.570312 14.097656 12.570312 14.253906 12.570312 14.410156 C 12.574219 14.632812 12.574219 14.859375 12.574219 15.082031 C 12.574219 15.152344 12.578125 15.222656 12.578125 15.296875 C 12.578125 15.359375 12.578125 15.425781 12.578125 15.492188 C 12.578125 15.550781 12.578125 15.609375 12.578125 15.667969 C 12.5625 15.8125 12.5625 15.8125 12.4375 16 C 12.21875 16.023438 12.21875 16.023438 12 16 C 11.863281 15.792969 11.859375 15.734375 11.859375 15.492188 C 11.859375 15.429688 11.859375 15.363281 11.859375 15.296875 C 11.859375 15.226562 11.863281 15.15625 11.863281 15.082031 C 11.863281 15.011719 11.863281 14.9375 11.863281 14.867188 C 11.863281 14.636719 11.867188 14.40625 11.867188 14.175781 C 11.867188 14.019531 11.867188 13.863281 11.867188 13.707031 C 11.871094 13.328125 11.871094 12.945312 11.875 12.5625 C 11.835938 12.5625 11.792969 12.5625 11.753906 12.5625 C 11.335938 12.566406 10.914062 12.566406 10.496094 12.570312 C 10.339844 12.570312 10.183594 12.570312 10.027344 12.570312 C 9.804688 12.574219 9.578125 12.574219 9.355469 12.574219 C 9.25 12.574219 9.25 12.574219 9.140625 12.578125 C 9.078125 12.578125 9.011719 12.578125 8.945312 12.578125 C 8.886719 12.578125 8.828125 12.578125 8.769531 12.578125 C 8.625 12.5625 8.625 12.5625 8.4375 12.4375 C 8.367188 12.28125 8.367188 12.214844 8.425781 12.050781 C 8.5 11.9375 8.5 11.9375 8.625 11.875 C 8.730469 11.871094 8.832031 11.867188 8.9375 11.867188 C 9.035156 11.867188 9.035156 11.867188 9.132812 11.867188 C 9.203125 11.867188 9.277344 11.867188 9.347656 11.867188 C 9.421875 11.867188 9.492188 11.871094 9.566406 11.871094 C 9.796875 11.871094 10.027344 11.871094 10.257812 11.871094 C 10.414062 11.871094 10.570312 11.871094 10.726562 11.871094 C 11.109375 11.871094 11.492188 11.875 11.875 11.875 C 11.875 11.835938 11.875 11.792969 11.875 11.753906 C 11.871094 11.335938 11.871094 10.914062 11.867188 10.496094 C 11.867188 10.339844 11.867188 10.183594 11.867188 10.027344 C 11.863281 9.804688 11.863281 9.578125 11.863281 9.355469 C 11.863281 9.285156 11.859375 9.214844 11.859375 9.140625 C 11.859375 9.042969 11.859375 9.042969 11.859375 8.945312 C 11.859375 8.886719 11.859375 8.828125 11.859375 8.769531 C 11.875 8.625 11.875 8.625 12 8.4375 Z M 12 8.4375 "/>
</g>
</svg>
