<?xml version="1.0" encoding="UTF-8"?>
<svg xmlns="http://www.w3.org/2000/svg" xmlns:xlink="http://www.w3.org/1999/xlink" width="16" height="16" viewBox="0 0 16 16" version="1.1">
<g id="surface1">
<path style=" stroke:none;fill-rule:nonzero;fill:rgb(100%,75.294119%,5.882353%);fill-opacity:1;" d="M 9.722656 8.488281 C 9.785156 8.488281 9.785156 8.488281 9.847656 8.488281 C 9.988281 8.488281 10.125 8.488281 10.261719 8.488281 C 10.355469 8.488281 10.453125 8.488281 10.546875 8.484375 C 10.75 8.484375 10.949219 8.484375 11.148438 8.484375 C 11.40625 8.484375 11.660156 8.484375 11.917969 8.480469 C 12.113281 8.480469 12.3125 8.480469 12.507812 8.480469 C 12.605469 8.480469 12.699219 8.480469 12.792969 8.476562 C 12.925781 8.476562 13.058594 8.476562 13.1875 8.476562 C 13.265625 8.476562 13.339844 8.476562 13.417969 8.476562 C 13.75 8.515625 13.996094 8.644531 14.207031 8.902344 C 14.253906 8.957031 14.253906 8.957031 14.300781 9.011719 C 14.457031 9.25 14.445312 9.5 14.449219 9.78125 C 14.449219 9.902344 14.449219 9.902344 14.453125 10.027344 C 14.453125 10.117188 14.453125 10.207031 14.453125 10.296875 C 14.453125 10.34375 14.453125 10.390625 14.453125 10.4375 C 14.453125 10.675781 14.457031 10.914062 14.457031 11.15625 C 14.457031 11.402344 14.457031 11.648438 14.460938 11.894531 C 14.464844 12.085938 14.464844 12.277344 14.464844 12.46875 C 14.464844 12.558594 14.464844 12.652344 14.464844 12.742188 C 14.472656 13.238281 14.46875 13.636719 14.1875 14.0625 C 13.875 14.367188 13.582031 14.453125 13.148438 14.453125 C 13.066406 14.457031 12.984375 14.457031 12.898438 14.457031 C 12.8125 14.457031 12.71875 14.457031 12.632812 14.457031 C 12.539062 14.457031 12.445312 14.457031 12.355469 14.457031 C 12.160156 14.457031 11.96875 14.457031 11.773438 14.457031 C 11.527344 14.457031 11.28125 14.457031 11.03125 14.460938 C 10.84375 14.460938 10.652344 14.460938 10.460938 14.460938 C 10.371094 14.460938 10.277344 14.460938 10.1875 14.460938 C 9.1875 14.46875 9.1875 14.46875 8.816406 14.140625 C 8.785156 14.105469 8.757812 14.070312 8.726562 14.03125 C 8.679688 13.976562 8.679688 13.976562 8.636719 13.921875 C 8.480469 13.691406 8.492188 13.480469 8.488281 13.214844 C 8.488281 13.171875 8.488281 13.128906 8.488281 13.089844 C 8.488281 12.953125 8.488281 12.8125 8.488281 12.675781 C 8.488281 12.582031 8.488281 12.484375 8.484375 12.390625 C 8.484375 12.191406 8.484375 11.988281 8.484375 11.789062 C 8.484375 11.53125 8.484375 11.277344 8.480469 11.019531 C 8.480469 10.824219 8.480469 10.625 8.480469 10.429688 C 8.480469 10.332031 8.480469 10.238281 8.476562 10.144531 C 8.476562 10.011719 8.476562 9.878906 8.476562 9.75 C 8.476562 9.671875 8.476562 9.597656 8.476562 9.519531 C 8.515625 9.1875 8.644531 8.941406 8.90625 8.730469 C 8.941406 8.699219 8.980469 8.667969 9.015625 8.636719 C 9.242188 8.480469 9.457031 8.492188 9.722656 8.488281 Z M 9.722656 8.488281 "/>
<path style=" stroke:none;fill-rule:nonzero;fill:rgb(89.803922%,23.529412%,21.176471%);fill-opacity:1;" d="M 2.785156 8.488281 C 2.847656 8.488281 2.847656 8.488281 2.910156 8.488281 C 3.050781 8.488281 3.1875 8.488281 3.324219 8.488281 C 3.417969 8.488281 3.515625 8.488281 3.609375 8.484375 C 3.8125 8.484375 4.011719 8.484375 4.210938 8.484375 C 4.46875 8.484375 4.722656 8.484375 4.980469 8.480469 C 5.175781 8.480469 5.375 8.480469 5.570312 8.480469 C 5.667969 8.480469 5.761719 8.480469 5.855469 8.476562 C 5.988281 8.476562 6.121094 8.476562 6.25 8.476562 C 6.328125 8.476562 6.402344 8.476562 6.480469 8.476562 C 6.816406 8.515625 7.058594 8.644531 7.269531 8.90625 C 7.316406 8.960938 7.316406 8.960938 7.363281 9.015625 C 7.519531 9.242188 7.507812 9.457031 7.511719 9.722656 C 7.511719 9.785156 7.511719 9.785156 7.511719 9.847656 C 7.511719 9.988281 7.511719 10.125 7.511719 10.261719 C 7.511719 10.355469 7.515625 10.453125 7.515625 10.546875 C 7.515625 10.75 7.515625 10.949219 7.515625 11.148438 C 7.515625 11.40625 7.515625 11.660156 7.519531 11.917969 C 7.519531 12.113281 7.519531 12.3125 7.519531 12.507812 C 7.519531 12.605469 7.519531 12.699219 7.523438 12.792969 C 7.523438 12.925781 7.523438 13.058594 7.523438 13.1875 C 7.523438 13.300781 7.523438 13.300781 7.523438 13.417969 C 7.484375 13.75 7.355469 13.996094 7.097656 14.207031 C 7.0625 14.238281 7.027344 14.269531 6.988281 14.300781 C 6.75 14.457031 6.5 14.445312 6.21875 14.449219 C 6.136719 14.449219 6.054688 14.449219 5.972656 14.453125 C 5.882812 14.453125 5.792969 14.453125 5.703125 14.453125 C 5.632812 14.453125 5.632812 14.453125 5.566406 14.453125 C 5.324219 14.453125 5.085938 14.457031 4.84375 14.457031 C 4.597656 14.457031 4.351562 14.457031 4.105469 14.460938 C 3.914062 14.464844 3.722656 14.464844 3.53125 14.464844 C 3.441406 14.464844 3.347656 14.464844 3.257812 14.464844 C 2.761719 14.472656 2.363281 14.46875 1.9375 14.1875 C 1.632812 13.875 1.546875 13.582031 1.546875 13.148438 C 1.546875 13.066406 1.542969 12.984375 1.542969 12.898438 C 1.542969 12.8125 1.542969 12.71875 1.542969 12.632812 C 1.542969 12.539062 1.542969 12.445312 1.542969 12.355469 C 1.542969 12.160156 1.542969 11.96875 1.542969 11.773438 C 1.542969 11.527344 1.542969 11.28125 1.539062 11.03125 C 1.539062 10.84375 1.539062 10.652344 1.539062 10.460938 C 1.539062 10.371094 1.539062 10.277344 1.539062 10.1875 C 1.53125 9.1875 1.53125 9.1875 1.859375 8.816406 C 1.894531 8.785156 1.929688 8.757812 1.96875 8.726562 C 2.003906 8.695312 2.042969 8.667969 2.078125 8.636719 C 2.308594 8.480469 2.519531 8.492188 2.785156 8.488281 Z M 2.785156 8.488281 "/>
<path style=" stroke:none;fill-rule:nonzero;fill:rgb(17.254902%,67.058825%,88.235295%);fill-opacity:1;" d="M 2.851562 1.546875 C 2.933594 1.542969 3.015625 1.542969 3.101562 1.542969 C 3.191406 1.542969 3.277344 1.542969 3.367188 1.542969 C 3.460938 1.542969 3.554688 1.542969 3.644531 1.542969 C 3.839844 1.542969 4.03125 1.542969 4.226562 1.542969 C 4.472656 1.542969 4.71875 1.542969 4.96875 1.539062 C 5.15625 1.539062 5.347656 1.539062 5.539062 1.539062 C 5.628906 1.539062 5.722656 1.539062 5.8125 1.539062 C 6.816406 1.53125 6.816406 1.53125 7.183594 1.855469 C 7.230469 1.914062 7.230469 1.914062 7.273438 1.96875 C 7.304688 2.003906 7.332031 2.042969 7.363281 2.082031 C 7.519531 2.308594 7.507812 2.519531 7.511719 2.785156 C 7.511719 2.847656 7.511719 2.847656 7.511719 2.914062 C 7.511719 3.050781 7.511719 3.1875 7.511719 3.324219 C 7.511719 3.417969 7.511719 3.515625 7.511719 3.609375 C 7.515625 3.808594 7.515625 4.011719 7.515625 4.210938 C 7.515625 4.46875 7.515625 4.722656 7.519531 4.980469 C 7.519531 5.175781 7.519531 5.375 7.519531 5.570312 C 7.519531 5.664062 7.519531 5.761719 7.523438 5.855469 C 7.523438 5.988281 7.523438 6.121094 7.523438 6.253906 C 7.523438 6.363281 7.523438 6.363281 7.523438 6.480469 C 7.484375 6.816406 7.355469 7.058594 7.09375 7.269531 C 7.039062 7.316406 7.039062 7.316406 6.980469 7.363281 C 6.757812 7.519531 6.542969 7.507812 6.277344 7.511719 C 6.234375 7.511719 6.195312 7.511719 6.152344 7.511719 C 6.011719 7.511719 5.875 7.511719 5.738281 7.511719 C 5.644531 7.511719 5.546875 7.511719 5.453125 7.515625 C 5.253906 7.515625 5.050781 7.515625 4.851562 7.515625 C 4.59375 7.515625 4.339844 7.515625 4.082031 7.519531 C 3.886719 7.519531 3.6875 7.519531 3.492188 7.519531 C 3.398438 7.519531 3.300781 7.519531 3.207031 7.523438 C 3.074219 7.523438 2.941406 7.523438 2.808594 7.523438 C 2.734375 7.523438 2.660156 7.523438 2.582031 7.523438 C 2.25 7.484375 2.003906 7.355469 1.792969 7.097656 C 1.761719 7.0625 1.730469 7.023438 1.699219 6.988281 C 1.542969 6.75 1.554688 6.5 1.550781 6.21875 C 1.550781 6.136719 1.550781 6.054688 1.550781 5.972656 C 1.546875 5.882812 1.546875 5.792969 1.546875 5.703125 C 1.546875 5.65625 1.546875 5.613281 1.546875 5.566406 C 1.546875 5.324219 1.542969 5.085938 1.542969 4.84375 C 1.542969 4.597656 1.542969 4.351562 1.539062 4.101562 C 1.539062 3.914062 1.535156 3.722656 1.535156 3.53125 C 1.535156 3.441406 1.535156 3.347656 1.535156 3.257812 C 1.527344 2.761719 1.53125 2.363281 1.8125 1.9375 C 2.125 1.632812 2.417969 1.546875 2.851562 1.546875 Z M 2.851562 1.546875 "/>
<path style=" stroke:none;fill-rule:nonzero;fill:rgb(48.627451%,70.19608%,25.882354%);fill-opacity:1;" d="M 9.78125 1.550781 C 9.902344 1.550781 9.902344 1.550781 10.027344 1.550781 C 10.117188 1.546875 10.207031 1.546875 10.296875 1.546875 C 10.34375 1.546875 10.386719 1.546875 10.433594 1.546875 C 10.675781 1.546875 10.914062 1.542969 11.15625 1.542969 C 11.402344 1.542969 11.648438 1.542969 11.898438 1.539062 C 12.085938 1.535156 12.277344 1.535156 12.46875 1.535156 C 12.558594 1.535156 12.652344 1.535156 12.742188 1.535156 C 13.238281 1.527344 13.636719 1.53125 14.0625 1.8125 C 14.367188 2.125 14.453125 2.417969 14.453125 2.851562 C 14.457031 2.933594 14.457031 3.015625 14.457031 3.101562 C 14.457031 3.191406 14.457031 3.277344 14.457031 3.367188 C 14.457031 3.460938 14.457031 3.554688 14.457031 3.644531 C 14.457031 3.839844 14.457031 4.03125 14.457031 4.226562 C 14.457031 4.472656 14.457031 4.71875 14.460938 4.96875 C 14.460938 5.160156 14.460938 5.347656 14.460938 5.539062 C 14.460938 5.628906 14.460938 5.722656 14.460938 5.8125 C 14.46875 6.816406 14.46875 6.816406 14.140625 7.183594 C 14.085938 7.230469 14.085938 7.230469 14.03125 7.273438 C 13.996094 7.304688 13.957031 7.332031 13.917969 7.363281 C 13.691406 7.519531 13.480469 7.507812 13.214844 7.511719 C 13.171875 7.511719 13.132812 7.511719 13.089844 7.511719 C 12.949219 7.511719 12.8125 7.511719 12.675781 7.511719 C 12.582031 7.511719 12.484375 7.511719 12.390625 7.515625 C 12.191406 7.515625 11.988281 7.515625 11.789062 7.515625 C 11.53125 7.515625 11.277344 7.515625 11.019531 7.519531 C 10.824219 7.519531 10.625 7.519531 10.429688 7.519531 C 10.332031 7.519531 10.238281 7.519531 10.144531 7.519531 C 10.011719 7.523438 9.878906 7.523438 9.746094 7.523438 C 9.671875 7.523438 9.597656 7.523438 9.519531 7.523438 C 9.183594 7.484375 8.941406 7.355469 8.730469 7.09375 C 8.699219 7.058594 8.667969 7.019531 8.636719 6.984375 C 8.480469 6.757812 8.492188 6.542969 8.488281 6.277344 C 8.488281 6.234375 8.488281 6.191406 8.488281 6.152344 C 8.488281 6.011719 8.488281 5.875 8.488281 5.738281 C 8.488281 5.644531 8.488281 5.546875 8.484375 5.453125 C 8.484375 5.253906 8.484375 5.050781 8.484375 4.851562 C 8.484375 4.59375 8.484375 4.339844 8.480469 4.082031 C 8.480469 3.886719 8.480469 3.6875 8.480469 3.492188 C 8.480469 3.394531 8.480469 3.300781 8.476562 3.207031 C 8.476562 3.074219 8.476562 2.941406 8.476562 2.808594 C 8.476562 2.734375 8.476562 2.660156 8.476562 2.582031 C 8.511719 2.25 8.644531 2.003906 8.902344 1.792969 C 8.9375 1.761719 8.972656 1.730469 9.011719 1.699219 C 9.25 1.542969 9.5 1.554688 9.78125 1.550781 Z M 9.78125 1.550781 "/>
<path style=" stroke:none;fill-rule:nonzero;fill:rgb(98.431373%,95.686275%,87.058824%);fill-opacity:1;" d="M 9.5625 9.625 C 10.800781 9.625 12.039062 9.625 13.3125 9.625 C 13.3125 10.863281 13.3125 12.101562 13.3125 13.375 C 12.707031 13.375 12.097656 13.378906 11.472656 13.378906 C 11.28125 13.378906 11.089844 13.378906 10.890625 13.378906 C 10.738281 13.378906 10.589844 13.382812 10.4375 13.382812 C 10.359375 13.382812 10.28125 13.382812 10.199219 13.382812 C 10.121094 13.382812 10.046875 13.382812 9.96875 13.382812 C 9.871094 13.382812 9.871094 13.382812 9.773438 13.382812 C 9.625 13.375 9.625 13.375 9.5625 13.3125 C 9.558594 13.199219 9.554688 13.082031 9.554688 12.96875 C 9.554688 12.890625 9.554688 12.816406 9.554688 12.738281 C 9.554688 12.621094 9.554688 12.621094 9.554688 12.5 C 9.554688 12.425781 9.554688 12.355469 9.558594 12.28125 C 9.558594 12.007812 9.558594 11.738281 9.558594 11.464844 C 9.558594 10.859375 9.5625 10.25 9.5625 9.625 Z M 9.5625 9.625 "/>
<path style=" stroke:none;fill-rule:nonzero;fill:rgb(92.941177%,95.294118%,90.196079%);fill-opacity:1;" d="M 9.5625 2.6875 C 10.800781 2.6875 12.039062 2.6875 13.3125 2.6875 C 13.3125 3.925781 13.3125 5.164062 13.3125 6.4375 C 12.707031 6.4375 12.097656 6.441406 11.472656 6.441406 C 11.28125 6.441406 11.089844 6.441406 10.890625 6.441406 C 10.738281 6.441406 10.589844 6.445312 10.4375 6.445312 C 10.359375 6.445312 10.28125 6.445312 10.199219 6.445312 C 10.121094 6.445312 10.046875 6.445312 9.96875 6.445312 C 9.871094 6.445312 9.871094 6.445312 9.773438 6.445312 C 9.625 6.4375 9.625 6.4375 9.5625 6.375 C 9.558594 6.261719 9.554688 6.144531 9.554688 6.03125 C 9.554688 5.953125 9.554688 5.878906 9.554688 5.800781 C 9.554688 5.683594 9.554688 5.683594 9.554688 5.5625 C 9.554688 5.488281 9.554688 5.417969 9.558594 5.34375 C 9.558594 5.070312 9.558594 4.800781 9.558594 4.527344 C 9.558594 3.921875 9.5625 3.3125 9.5625 2.6875 Z M 9.5625 2.6875 "/>
<path style=" stroke:none;fill-rule:nonzero;fill:rgb(87.058824%,94.117647%,97.647059%);fill-opacity:1;" d="M 2.625 2.6875 C 3.863281 2.6875 5.101562 2.6875 6.375 2.6875 C 6.375 3.925781 6.375 5.164062 6.375 6.4375 C 5.769531 6.4375 5.160156 6.441406 4.535156 6.441406 C 4.34375 6.441406 4.152344 6.441406 3.953125 6.441406 C 3.800781 6.441406 3.652344 6.445312 3.5 6.445312 C 3.421875 6.445312 3.34375 6.445312 3.261719 6.445312 C 3.183594 6.445312 3.109375 6.445312 3.03125 6.445312 C 2.933594 6.445312 2.933594 6.445312 2.835938 6.445312 C 2.6875 6.4375 2.6875 6.4375 2.625 6.375 C 2.621094 6.261719 2.617188 6.144531 2.617188 6.03125 C 2.617188 5.953125 2.617188 5.878906 2.617188 5.800781 C 2.617188 5.683594 2.617188 5.683594 2.617188 5.5625 C 2.617188 5.488281 2.617188 5.417969 2.621094 5.34375 C 2.621094 5.070312 2.621094 4.800781 2.621094 4.527344 C 2.621094 3.921875 2.625 3.3125 2.625 2.6875 Z M 2.625 2.6875 "/>
<path style=" stroke:none;fill-rule:nonzero;fill:rgb(97.647059%,90.588236%,91.764706%);fill-opacity:1;" d="M 2.6875 9.625 C 3.90625 9.625 5.121094 9.625 6.375 9.625 C 6.375 10.84375 6.375 12.058594 6.375 13.3125 C 5.15625 13.3125 3.941406 13.3125 2.6875 13.3125 C 2.6875 12.09375 2.6875 10.878906 2.6875 9.625 Z M 2.6875 9.625 "/>
<path style=" stroke:none;fill-rule:nonzero;fill:rgb(100%,91.37255%,67.058825%);fill-opacity:1;" d="M 9.5625 9.625 C 9.789062 9.625 10.015625 9.625 10.25 9.625 C 10.25 10.636719 10.25 11.644531 10.25 12.6875 C 11.261719 12.6875 12.269531 12.6875 13.3125 12.6875 C 13.3125 12.914062 13.3125 13.140625 13.3125 13.375 C 12.832031 13.375 12.351562 13.378906 11.875 13.378906 C 11.652344 13.378906 11.429688 13.378906 11.203125 13.378906 C 10.949219 13.378906 10.695312 13.378906 10.4375 13.382812 C 10.316406 13.382812 10.316406 13.382812 10.195312 13.382812 C 10.082031 13.382812 10.082031 13.382812 9.96875 13.382812 C 9.871094 13.382812 9.871094 13.382812 9.773438 13.382812 C 9.625 13.375 9.625 13.375 9.5625 13.3125 C 9.558594 13.199219 9.554688 13.082031 9.554688 12.96875 C 9.554688 12.894531 9.554688 12.820312 9.554688 12.742188 C 9.554688 12.664062 9.554688 12.582031 9.554688 12.5 C 9.554688 12.417969 9.558594 12.335938 9.558594 12.25 C 9.558594 12.035156 9.558594 11.816406 9.558594 11.597656 C 9.558594 11.375 9.558594 11.15625 9.558594 10.933594 C 9.558594 10.496094 9.5625 10.0625 9.5625 9.625 Z M 9.5625 9.625 "/>
<path style=" stroke:none;fill-rule:nonzero;fill:rgb(84.313726%,90.980393%,76.078433%);fill-opacity:1;" d="M 9.5625 2.6875 C 9.789062 2.6875 10.015625 2.6875 10.25 2.6875 C 10.25 3.699219 10.25 4.707031 10.25 5.75 C 11.261719 5.75 12.269531 5.75 13.3125 5.75 C 13.3125 5.976562 13.3125 6.203125 13.3125 6.4375 C 12.832031 6.4375 12.351562 6.441406 11.875 6.441406 C 11.652344 6.441406 11.429688 6.441406 11.203125 6.441406 C 10.949219 6.441406 10.695312 6.441406 10.4375 6.445312 C 10.316406 6.445312 10.316406 6.445312 10.195312 6.445312 C 10.082031 6.445312 10.082031 6.445312 9.96875 6.445312 C 9.871094 6.445312 9.871094 6.445312 9.773438 6.445312 C 9.625 6.4375 9.625 6.4375 9.5625 6.375 C 9.558594 6.261719 9.554688 6.144531 9.554688 6.03125 C 9.554688 5.957031 9.554688 5.882812 9.554688 5.804688 C 9.554688 5.726562 9.554688 5.644531 9.554688 5.5625 C 9.554688 5.480469 9.558594 5.398438 9.558594 5.3125 C 9.558594 5.097656 9.558594 4.878906 9.558594 4.660156 C 9.558594 4.4375 9.558594 4.21875 9.558594 3.996094 C 9.558594 3.558594 9.5625 3.125 9.5625 2.6875 Z M 9.5625 2.6875 "/>
<path style=" stroke:none;fill-rule:nonzero;fill:rgb(68.235296%,87.843138%,97.254902%);fill-opacity:1;" d="M 2.625 2.6875 C 2.851562 2.6875 3.078125 2.6875 3.3125 2.6875 C 3.3125 3.699219 3.3125 4.707031 3.3125 5.75 C 4.324219 5.75 5.332031 5.75 6.375 5.75 C 6.375 5.976562 6.375 6.203125 6.375 6.4375 C 5.894531 6.4375 5.414062 6.441406 4.9375 6.441406 C 4.714844 6.441406 4.492188 6.441406 4.265625 6.441406 C 4.011719 6.441406 3.757812 6.441406 3.5 6.445312 C 3.378906 6.445312 3.378906 6.445312 3.257812 6.445312 C 3.144531 6.445312 3.144531 6.445312 3.03125 6.445312 C 2.933594 6.445312 2.933594 6.445312 2.835938 6.445312 C 2.6875 6.4375 2.6875 6.4375 2.625 6.375 C 2.621094 6.261719 2.617188 6.144531 2.617188 6.03125 C 2.617188 5.957031 2.617188 5.882812 2.617188 5.804688 C 2.617188 5.726562 2.617188 5.644531 2.617188 5.5625 C 2.617188 5.480469 2.621094 5.398438 2.621094 5.3125 C 2.621094 5.097656 2.621094 4.878906 2.621094 4.660156 C 2.621094 4.4375 2.621094 4.21875 2.621094 3.996094 C 2.621094 3.558594 2.625 3.125 2.625 2.6875 Z M 2.625 2.6875 "/>
<path style=" stroke:none;fill-rule:nonzero;fill:rgb(97.647059%,80.000001%,82.352942%);fill-opacity:1;" d="M 2.6875 9.625 C 2.894531 9.625 3.101562 9.625 3.3125 9.625 C 3.3125 10.636719 3.3125 11.644531 3.3125 12.6875 C 4.324219 12.6875 5.332031 12.6875 6.375 12.6875 C 6.375 12.894531 6.375 13.101562 6.375 13.3125 C 5.15625 13.3125 3.941406 13.3125 2.6875 13.3125 C 2.6875 12.09375 2.6875 10.878906 2.6875 9.625 Z M 2.6875 9.625 "/>
<path style=" stroke:none;fill-rule:nonzero;fill:rgb(30.19608%,37.64706%,41.568628%);fill-opacity:1;" d="M 3.4375 10.375 C 4.160156 10.375 4.882812 10.375 5.625 10.375 C 5.625 10.644531 5.625 10.910156 5.625 11.1875 C 4.902344 11.1875 4.179688 11.1875 3.4375 11.1875 C 3.4375 10.917969 3.4375 10.652344 3.4375 10.375 Z M 3.4375 10.375 "/>
<path style=" stroke:none;fill-rule:nonzero;fill:rgb(29.803923%,38.039216%,41.960785%);fill-opacity:1;" d="M 3.4375 4.8125 C 4.160156 4.8125 4.882812 4.8125 5.625 4.8125 C 5.625 5.082031 5.625 5.347656 5.625 5.625 C 4.902344 5.625 4.179688 5.625 3.4375 5.625 C 3.4375 5.355469 3.4375 5.089844 3.4375 4.8125 Z M 3.4375 4.8125 "/>
<path style=" stroke:none;fill-rule:nonzero;fill:rgb(27.058825%,35.294119%,39.215687%);fill-opacity:1;" d="M 10.375 11.75 C 11.078125 11.75 11.777344 11.75 12.5 11.75 C 12.5 11.996094 12.5 12.246094 12.5 12.5 C 11.796875 12.519531 11.097656 12.542969 10.375 12.5625 C 10.375 12.292969 10.375 12.027344 10.375 11.75 Z M 10.375 11.75 "/>
<path style=" stroke:none;fill-rule:nonzero;fill:rgb(27.058825%,35.294119%,39.215687%);fill-opacity:1;" d="M 10.375 3.4375 C 11.078125 3.457031 11.777344 3.480469 12.5 3.5 C 12.5 3.746094 12.5 3.996094 12.5 4.25 C 11.796875 4.25 11.097656 4.25 10.375 4.25 C 10.375 3.980469 10.375 3.714844 10.375 3.4375 Z M 10.375 3.4375 "/>
<path style=" stroke:none;fill-rule:nonzero;fill:rgb(33.333334%,40.392157%,43.137255%);fill-opacity:1;" d="M 10.375 10.375 C 10.746094 10.375 11.117188 10.375 11.5 10.375 C 11.5 10.644531 11.5 10.910156 11.5 11.1875 C 11.128906 11.1875 10.757812 11.1875 10.375 11.1875 C 10.375 10.917969 10.375 10.652344 10.375 10.375 Z M 10.375 10.375 "/>
<path style=" stroke:none;fill-rule:nonzero;fill:rgb(32.941177%,40.392157%,43.529412%);fill-opacity:1;" d="M 10.375 4.8125 C 10.746094 4.8125 11.117188 4.8125 11.5 4.8125 C 11.5 5.082031 11.5 5.347656 11.5 5.625 C 11.128906 5.625 10.757812 5.625 10.375 5.625 C 10.375 5.355469 10.375 5.089844 10.375 4.8125 Z M 10.375 4.8125 "/>
<path style=" stroke:none;fill-rule:nonzero;fill:rgb(19.215687%,23.529412%,26.274511%);fill-opacity:1;" d="M 3.4375 11.75 C 3.789062 11.75 4.140625 11.75 4.5 11.75 C 4.5 11.996094 4.5 12.246094 4.5 12.5 C 4.140625 12.550781 3.800781 12.566406 3.4375 12.5625 C 3.4375 12.292969 3.4375 12.027344 3.4375 11.75 Z M 3.4375 11.75 "/>
<path style=" stroke:none;fill-rule:nonzero;fill:rgb(18.82353%,23.921569%,26.274511%);fill-opacity:1;" d="M 3.4375 3.4375 C 3.800781 3.433594 4.140625 3.449219 4.5 3.5 C 4.5 3.746094 4.5 3.996094 4.5 4.25 C 4.148438 4.25 3.796875 4.25 3.4375 4.25 C 3.4375 3.980469 3.4375 3.714844 3.4375 3.4375 Z M 3.4375 3.4375 "/>
<path style=" stroke:none;fill-rule:nonzero;fill:rgb(18.431373%,23.137255%,25.098041%);fill-opacity:1;" d="M 10.375 11.75 C 10.601562 11.75 10.828125 11.75 11.0625 11.75 C 11.0625 12.019531 11.0625 12.285156 11.0625 12.5625 C 10.835938 12.5625 10.609375 12.5625 10.375 12.5625 C 10.375 12.292969 10.375 12.027344 10.375 11.75 Z M 10.375 11.75 "/>
<path style=" stroke:none;fill-rule:nonzero;fill:rgb(18.431373%,22.745098%,25.098041%);fill-opacity:1;" d="M 3.4375 10.375 C 3.664062 10.375 3.890625 10.375 4.125 10.375 C 4.125 10.644531 4.125 10.910156 4.125 11.1875 C 3.898438 11.1875 3.671875 11.1875 3.4375 11.1875 C 3.4375 10.917969 3.4375 10.652344 3.4375 10.375 Z M 3.4375 10.375 "/>
<path style=" stroke:none;fill-rule:nonzero;fill:rgb(18.039216%,22.745098%,25.490198%);fill-opacity:1;" d="M 3.4375 4.8125 C 3.664062 4.8125 3.890625 4.8125 4.125 4.8125 C 4.125 5.082031 4.125 5.347656 4.125 5.625 C 3.898438 5.625 3.671875 5.625 3.4375 5.625 C 3.4375 5.355469 3.4375 5.089844 3.4375 4.8125 Z M 3.4375 4.8125 "/>
<path style=" stroke:none;fill-rule:nonzero;fill:rgb(18.039216%,23.137255%,25.098041%);fill-opacity:1;" d="M 10.375 3.4375 C 10.601562 3.4375 10.828125 3.4375 11.0625 3.4375 C 11.0625 3.707031 11.0625 3.972656 11.0625 4.25 C 10.835938 4.25 10.609375 4.25 10.375 4.25 C 10.375 3.980469 10.375 3.714844 10.375 3.4375 Z M 10.375 3.4375 "/>
<path style=" stroke:none;fill-rule:nonzero;fill:rgb(18.431373%,23.137255%,25.098041%);fill-opacity:1;" d="M 10.375 10.375 C 10.5625 10.375 10.746094 10.375 10.9375 10.375 C 10.9375 10.644531 10.9375 10.910156 10.9375 11.1875 C 10.75 11.1875 10.566406 11.1875 10.375 11.1875 C 10.375 10.917969 10.375 10.652344 10.375 10.375 Z M 10.375 10.375 "/>
<path style=" stroke:none;fill-rule:nonzero;fill:rgb(18.039216%,23.137255%,25.490198%);fill-opacity:1;" d="M 10.375 4.8125 C 10.5625 4.8125 10.746094 4.8125 10.9375 4.8125 C 10.9375 5.082031 10.9375 5.347656 10.9375 5.625 C 10.75 5.625 10.566406 5.625 10.375 5.625 C 10.375 5.355469 10.375 5.089844 10.375 4.8125 Z M 10.375 4.8125 "/>
<path style=" stroke:none;fill-rule:nonzero;fill:rgb(27.058825%,35.294119%,39.215687%);fill-opacity:1;" d="M 4 11.75 C 4.164062 11.75 4.328125 11.75 4.5 11.75 C 4.5 11.996094 4.5 12.246094 4.5 12.5 C 4.335938 12.5 4.171875 12.5 4 12.5 C 4 12.253906 4 12.003906 4 11.75 Z M 4 11.75 "/>
<path style=" stroke:none;fill-rule:nonzero;fill:rgb(27.058825%,35.294119%,39.215687%);fill-opacity:1;" d="M 4 3.5 C 4.164062 3.5 4.328125 3.5 4.5 3.5 C 4.5 3.746094 4.5 3.996094 4.5 4.25 C 4.335938 4.25 4.171875 4.25 4 4.25 C 4 4.003906 4 3.753906 4 3.5 Z M 4 3.5 "/>
</g>
</svg>
