<?xml version="1.0" encoding="UTF-8"?>
<svg xmlns="http://www.w3.org/2000/svg" xmlns:xlink="http://www.w3.org/1999/xlink" width="16" height="16" viewBox="0 0 16 16" version="1.1">
<g id="surface1">
<path style=" stroke:none;fill-rule:nonzero;fill:rgb(99.215686%,25.882354%,36.078432%);fill-opacity:1;" d="M 10.761719 0.242188 C 10.839844 0.242188 10.839844 0.242188 10.917969 0.242188 C 11.085938 0.238281 11.257812 0.238281 11.425781 0.238281 C 11.542969 0.238281 11.660156 0.238281 11.78125 0.238281 C 12.027344 0.238281 12.273438 0.238281 12.523438 0.238281 C 12.839844 0.238281 13.15625 0.238281 13.472656 0.238281 C 13.714844 0.234375 13.960938 0.234375 14.203125 0.234375 C 14.320312 0.234375 14.4375 0.234375 14.554688 0.234375 C 14.714844 0.234375 14.878906 0.234375 15.042969 0.234375 C 15.089844 0.234375 15.140625 0.234375 15.1875 0.234375 C 15.519531 0.234375 15.761719 0.261719 16 0.5 C 16.019531 0.628906 16.019531 0.628906 16.023438 0.777344 C 16.027344 0.828125 16.027344 0.875 16.027344 0.925781 C 16 1.0625 16 1.0625 15.902344 1.164062 C 15.6875 1.285156 15.496094 1.269531 15.257812 1.261719 C 15.152344 1.257812 15.050781 1.257812 14.949219 1.253906 C 14.894531 1.253906 14.839844 1.25 14.785156 1.25 C 14.492188 1.242188 14.203125 1.238281 13.914062 1.238281 C 13.546875 1.234375 13.175781 1.226562 12.808594 1.214844 C 11.285156 1.101562 11.285156 1.101562 9.941406 1.671875 C 9.613281 2.015625 9.402344 2.3125 9.378906 2.796875 C 9.382812 2.9375 9.382812 2.9375 9.417969 3.15625 C 9.441406 3.417969 9.382812 3.53125 9.25 3.75 C 9.203125 3.828125 9.203125 3.828125 9.152344 3.910156 C 8.921875 4.140625 8.6875 4.285156 8.375 4.375 C 8.238281 4.359375 8.105469 4.34375 7.96875 4.324219 C 7.621094 4.308594 7.472656 4.375 7.210938 4.605469 C 6.878906 4.929688 6.570312 5.269531 6.273438 5.621094 C 5.894531 6.0625 5.472656 6.464844 5.058594 6.871094 C 4.957031 6.972656 4.855469 7.070312 4.757812 7.171875 C 4.726562 7.203125 4.695312 7.230469 4.664062 7.261719 C 4.519531 7.40625 4.441406 7.492188 4.375 7.6875 C 5.796875 7.6875 7.222656 7.6875 8.6875 7.6875 C 8.730469 7.5625 8.769531 7.441406 8.8125 7.3125 C 9.0625 6.992188 9.417969 6.816406 9.8125 6.75 C 10.28125 6.726562 10.640625 6.820312 11 7.125 C 11.175781 7.3125 11.257812 7.441406 11.3125 7.6875 C 11.363281 7.683594 11.414062 7.679688 11.464844 7.675781 C 12.039062 7.644531 12.382812 7.773438 12.863281 8.070312 C 12.929688 8.109375 12.996094 8.148438 13.0625 8.1875 C 13.203125 8.269531 13.339844 8.351562 13.480469 8.4375 C 13.683594 8.5625 13.890625 8.683594 14.101562 8.800781 C 14.40625 8.980469 14.714844 9.160156 15.019531 9.339844 C 15.136719 9.40625 15.25 9.472656 15.363281 9.539062 C 15.417969 9.570312 15.472656 9.605469 15.53125 9.636719 C 15.582031 9.667969 15.628906 9.695312 15.683594 9.726562 C 15.808594 9.808594 15.90625 9.882812 16 10 C 16.046875 10.425781 16.046875 10.425781 15.902344 10.65625 C 15.699219 10.78125 15.542969 10.796875 15.3125 10.75 C 15.054688 10.632812 14.816406 10.488281 14.574219 10.339844 C 14.464844 10.277344 14.359375 10.210938 14.25 10.148438 C 14.140625 10.082031 14.027344 10.015625 13.917969 9.949219 C 13.6875 9.8125 13.457031 9.679688 13.226562 9.546875 C 13.1875 9.523438 13.152344 9.503906 13.113281 9.480469 C 13.039062 9.4375 12.964844 9.398438 12.894531 9.355469 C 12.722656 9.257812 12.550781 9.15625 12.378906 9.058594 C 12.324219 9.027344 12.265625 8.992188 12.207031 8.960938 C 12.09375 8.894531 11.984375 8.824219 11.875 8.75 C 11.730469 8.722656 11.730469 8.722656 11.582031 8.710938 C 11.53125 8.707031 11.480469 8.703125 11.429688 8.695312 C 11.371094 8.691406 11.371094 8.691406 11.3125 8.6875 C 11.308594 8.75 11.308594 8.75 11.308594 8.816406 C 11.199219 9.164062 10.917969 9.375 10.613281 9.558594 C 10.199219 9.675781 9.757812 9.707031 9.355469 9.53125 C 9.050781 9.355469 8.78125 9.066406 8.625 8.75 C 6.519531 8.71875 6.519531 8.71875 4.375 8.6875 C 4.3125 8.875 4.3125 8.875 4.25 9.0625 C 4.132812 9.191406 4.132812 9.191406 4 9.300781 C 3.957031 9.335938 3.914062 9.375 3.867188 9.410156 C 3.75 9.5 3.75 9.5 3.625 9.5625 C 3.527344 10.039062 3.472656 10.496094 3.734375 10.929688 C 3.878906 11.113281 4.03125 11.277344 4.195312 11.445312 C 4.246094 11.5 4.300781 11.554688 4.355469 11.609375 C 4.738281 11.96875 5.03125 12.0625 5.554688 12.058594 C 5.890625 12.066406 6.121094 12.1875 6.359375 12.417969 C 6.59375 12.679688 6.753906 12.914062 6.789062 13.273438 C 6.796875 13.339844 6.796875 13.339844 6.804688 13.410156 C 6.8125 13.5625 6.8125 13.5625 6.785156 13.738281 C 6.828125 14.054688 7.046875 14.210938 7.277344 14.421875 C 7.363281 14.503906 7.453125 14.585938 7.539062 14.671875 C 7.578125 14.707031 7.617188 14.742188 7.65625 14.78125 C 7.800781 14.929688 7.8125 15 7.832031 15.210938 C 7.8125 15.4375 7.8125 15.4375 7.703125 15.585938 C 7.558594 15.6875 7.488281 15.738281 7.3125 15.75 C 6.976562 15.664062 6.777344 15.421875 6.542969 15.179688 C 6.503906 15.136719 6.460938 15.097656 6.421875 15.054688 C 6.320312 14.953125 6.222656 14.851562 6.125 14.75 C 6.070312 14.769531 6.019531 14.789062 5.960938 14.8125 C 5.546875 14.933594 5.0625 14.957031 4.660156 14.777344 C 4.308594 14.570312 4.0625 14.261719 3.9375 13.875 C 3.921875 13.679688 3.921875 13.679688 3.921875 13.472656 C 3.921875 13.371094 3.921875 13.371094 3.921875 13.265625 C 3.9375 13.054688 3.992188 12.886719 4.0625 12.6875 C 4.019531 12.644531 3.976562 12.601562 3.933594 12.558594 C 3.773438 12.398438 3.613281 12.238281 3.453125 12.082031 C 3.382812 12.011719 3.3125 11.941406 3.242188 11.875 C 3.144531 11.773438 3.042969 11.675781 2.945312 11.578125 C 2.914062 11.546875 2.882812 11.515625 2.851562 11.484375 C 2.5625 11.195312 2.5625 11.195312 2.558594 10.972656 C 2.558594 10.910156 2.5625 10.847656 2.5625 10.785156 C 2.5625 10.714844 2.5625 10.648438 2.5625 10.578125 C 2.5625 10.433594 2.5625 10.289062 2.570312 10.144531 C 2.566406 9.9375 2.558594 9.761719 2.5 9.5625 C 2.367188 9.433594 2.238281 9.355469 2.074219 9.273438 C 1.917969 9.175781 1.886719 9.117188 1.824219 8.949219 C 1.710938 8.738281 1.710938 8.738281 1.539062 8.714844 C 1.347656 8.703125 1.160156 8.703125 0.96875 8.707031 C 0.839844 8.710938 0.710938 8.710938 0.578125 8.710938 C 0.523438 8.710938 0.464844 8.714844 0.40625 8.714844 C 0.199219 8.679688 0.128906 8.597656 0 8.4375 C -0.0351562 8.3125 -0.0351562 8.3125 -0.0351562 8.1875 C -0.0351562 8.148438 -0.0390625 8.105469 -0.0390625 8.0625 C 0.0273438 7.851562 0.121094 7.796875 0.3125 7.6875 C 0.605469 7.648438 0.898438 7.664062 1.191406 7.667969 C 1.363281 7.667969 1.519531 7.664062 1.6875 7.625 C 1.851562 7.453125 1.851562 7.453125 1.9375 7.25 C 2.121094 7.058594 2.296875 6.929688 2.5625 6.875 C 2.5625 6.804688 2.5625 6.738281 2.5625 6.667969 C 2.554688 6.023438 2.550781 5.378906 2.550781 4.738281 C 2.546875 4.40625 2.546875 4.074219 2.542969 3.742188 C 2.542969 3.425781 2.539062 3.105469 2.539062 2.785156 C 2.539062 2.664062 2.539062 2.542969 2.535156 2.421875 C 2.535156 2.25 2.535156 2.078125 2.535156 1.910156 C 2.53125 1.859375 2.53125 1.808594 2.53125 1.753906 C 2.53125 1.53125 2.542969 1.402344 2.679688 1.21875 C 2.835938 1.105469 2.929688 1.066406 3.125 1.0625 C 3.34375 1.164062 3.429688 1.234375 3.5625 1.4375 C 3.574219 1.609375 3.582031 1.777344 3.582031 1.953125 C 3.582031 2.003906 3.582031 2.058594 3.585938 2.109375 C 3.585938 2.285156 3.585938 2.457031 3.589844 2.632812 C 3.589844 2.75 3.589844 2.871094 3.59375 2.992188 C 3.59375 3.308594 3.597656 3.625 3.601562 3.941406 C 3.601562 4.265625 3.605469 4.585938 3.609375 4.910156 C 3.613281 5.542969 3.621094 6.179688 3.625 6.8125 C 3.875 6.5625 4.125 6.316406 4.375 6.066406 C 4.460938 5.980469 4.542969 5.898438 4.628906 5.8125 C 5.230469 5.222656 5.230469 5.222656 5.789062 4.597656 C 5.886719 4.488281 5.988281 4.394531 6.101562 4.300781 C 6.527344 3.960938 6.527344 3.960938 6.707031 3.476562 C 6.671875 3.265625 6.671875 3.265625 6.613281 3.0625 C 6.523438 2.730469 6.601562 2.472656 6.761719 2.175781 C 7.019531 1.796875 7.324219 1.640625 7.75 1.5 C 8.019531 1.492188 8.214844 1.488281 8.476562 1.570312 C 8.675781 1.597656 8.738281 1.570312 8.902344 1.453125 C 9.074219 1.289062 9.230469 1.121094 9.390625 0.945312 C 9.5 0.828125 9.609375 0.710938 9.71875 0.59375 C 9.765625 0.542969 9.816406 0.488281 9.863281 0.433594 C 10.125 0.199219 10.425781 0.242188 10.761719 0.242188 Z M 10.761719 0.242188 "/>
<path style=" stroke:none;fill-rule:nonzero;fill:rgb(99.607843%,80.392158%,0.784314%);fill-opacity:1;" d="M 10.761719 0.242188 C 10.8125 0.242188 10.863281 0.242188 10.917969 0.242188 C 11.085938 0.238281 11.257812 0.238281 11.425781 0.238281 C 11.542969 0.238281 11.660156 0.238281 11.78125 0.238281 C 12.027344 0.238281 12.273438 0.238281 12.523438 0.238281 C 12.839844 0.238281 13.15625 0.238281 13.472656 0.238281 C 13.714844 0.234375 13.960938 0.234375 14.203125 0.234375 C 14.320312 0.234375 14.4375 0.234375 14.554688 0.234375 C 14.714844 0.234375 14.878906 0.234375 15.042969 0.234375 C 15.089844 0.234375 15.140625 0.234375 15.1875 0.234375 C 15.519531 0.234375 15.761719 0.261719 16 0.5 C 16.019531 0.628906 16.019531 0.628906 16.023438 0.777344 C 16.027344 0.828125 16.027344 0.875 16.027344 0.925781 C 16 1.0625 16 1.0625 15.902344 1.164062 C 15.6875 1.285156 15.496094 1.269531 15.257812 1.261719 C 15.152344 1.257812 15.050781 1.257812 14.949219 1.253906 C 14.894531 1.253906 14.839844 1.25 14.785156 1.25 C 14.492188 1.242188 14.203125 1.238281 13.914062 1.238281 C 13.546875 1.234375 13.175781 1.226562 12.808594 1.214844 C 11.285156 1.101562 11.285156 1.101562 9.941406 1.671875 C 9.613281 2.015625 9.402344 2.3125 9.378906 2.796875 C 9.382812 2.9375 9.382812 2.9375 9.417969 3.15625 C 9.441406 3.417969 9.382812 3.53125 9.25 3.75 C 9.203125 3.828125 9.203125 3.828125 9.152344 3.910156 C 8.921875 4.140625 8.6875 4.285156 8.375 4.375 C 8.238281 4.359375 8.105469 4.34375 7.96875 4.324219 C 7.621094 4.308594 7.472656 4.375 7.210938 4.605469 C 6.878906 4.925781 6.570312 5.269531 6.273438 5.621094 C 5.949219 6 5.597656 6.351562 5.242188 6.707031 C 5.136719 6.8125 5.027344 6.921875 4.917969 7.03125 C 4.851562 7.101562 4.78125 7.167969 4.714844 7.238281 C 4.683594 7.269531 4.648438 7.304688 4.617188 7.335938 C 4.390625 7.5625 4.390625 7.5625 4.25 7.5625 C 4.214844 7.507812 4.179688 7.449219 4.140625 7.390625 C 3.984375 7.164062 3.859375 7.074219 3.625 6.9375 C 3.726562 6.675781 3.917969 6.503906 4.117188 6.3125 C 4.152344 6.273438 4.1875 6.238281 4.226562 6.203125 C 4.339844 6.085938 4.457031 5.972656 4.574219 5.859375 C 4.726562 5.710938 4.878906 5.558594 5.03125 5.410156 C 5.085938 5.355469 5.085938 5.355469 5.140625 5.300781 C 5.363281 5.078125 5.574219 4.847656 5.78125 4.605469 C 5.878906 4.492188 5.984375 4.398438 6.101562 4.300781 C 6.527344 3.960938 6.527344 3.960938 6.707031 3.476562 C 6.671875 3.265625 6.671875 3.265625 6.613281 3.0625 C 6.523438 2.730469 6.601562 2.472656 6.761719 2.175781 C 7.019531 1.796875 7.324219 1.640625 7.75 1.5 C 8.019531 1.492188 8.214844 1.488281 8.476562 1.570312 C 8.675781 1.597656 8.738281 1.570312 8.902344 1.453125 C 9.074219 1.289062 9.230469 1.121094 9.390625 0.945312 C 9.5 0.828125 9.609375 0.710938 9.71875 0.59375 C 9.765625 0.542969 9.816406 0.488281 9.863281 0.433594 C 10.125 0.199219 10.425781 0.242188 10.761719 0.242188 Z M 10.761719 0.242188 "/>
<path style=" stroke:none;fill-rule:nonzero;fill:rgb(0.392157%,25.882354%,61.56863%);fill-opacity:1;" d="M 10.898438 7.039062 C 11.125 7.230469 11.25 7.398438 11.3125 7.6875 C 11.386719 7.679688 11.386719 7.679688 11.464844 7.675781 C 12.039062 7.644531 12.382812 7.773438 12.863281 8.070312 C 12.929688 8.109375 12.996094 8.148438 13.0625 8.1875 C 13.203125 8.269531 13.339844 8.351562 13.480469 8.4375 C 13.683594 8.5625 13.890625 8.683594 14.101562 8.800781 C 14.40625 8.980469 14.714844 9.160156 15.023438 9.339844 C 15.132812 9.40625 15.25 9.472656 15.363281 9.539062 C 15.417969 9.570312 15.472656 9.605469 15.53125 9.636719 C 15.582031 9.667969 15.632812 9.695312 15.679688 9.726562 C 15.808594 9.808594 15.90625 9.882812 16 10 C 16.046875 10.425781 16.046875 10.425781 15.902344 10.65625 C 15.695312 10.78125 15.542969 10.796875 15.3125 10.75 C 15.054688 10.632812 14.816406 10.488281 14.574219 10.339844 C 14.46875 10.277344 14.359375 10.210938 14.253906 10.148438 C 14.140625 10.082031 14.027344 10.015625 13.914062 9.949219 C 13.6875 9.8125 13.457031 9.679688 13.226562 9.546875 C 13.171875 9.515625 13.171875 9.515625 13.113281 9.480469 C 13.039062 9.4375 12.964844 9.398438 12.894531 9.355469 C 12.722656 9.257812 12.550781 9.15625 12.378906 9.058594 C 12.320312 9.027344 12.265625 8.992188 12.207031 8.960938 C 12.09375 8.894531 11.984375 8.824219 11.875 8.75 C 11.734375 8.722656 11.734375 8.722656 11.582031 8.710938 C 11.53125 8.707031 11.480469 8.703125 11.429688 8.695312 C 11.390625 8.695312 11.351562 8.691406 11.3125 8.6875 C 11.3125 8.730469 11.308594 8.773438 11.308594 8.816406 C 11.195312 9.164062 10.917969 9.375 10.613281 9.558594 C 10.199219 9.675781 9.757812 9.707031 9.355469 9.53125 C 9.050781 9.355469 8.78125 9.066406 8.625 8.75 C 6.523438 8.71875 6.523438 8.71875 4.375 8.6875 C 4.375 8.355469 4.375 8.027344 4.375 7.6875 C 5.796875 7.6875 7.222656 7.6875 8.6875 7.6875 C 8.730469 7.5625 8.769531 7.441406 8.8125 7.3125 C 9.320312 6.667969 10.242188 6.570312 10.898438 7.039062 Z M 10.898438 7.039062 "/>
<path style=" stroke:none;fill-rule:nonzero;fill:rgb(99.607843%,25.490198%,35.686275%);fill-opacity:1;" d="M 2.5625 9.5625 C 2.890625 9.5625 3.222656 9.5625 3.5625 9.5625 C 3.546875 9.667969 3.546875 9.667969 3.53125 9.777344 C 3.492188 10.300781 3.542969 10.683594 3.875 11.105469 C 3.980469 11.21875 4.089844 11.332031 4.199219 11.445312 C 4.25 11.5 4.304688 11.554688 4.355469 11.609375 C 4.738281 11.96875 5.03125 12.0625 5.554688 12.058594 C 5.890625 12.066406 6.121094 12.1875 6.359375 12.417969 C 6.59375 12.679688 6.753906 12.914062 6.789062 13.273438 C 6.792969 13.320312 6.796875 13.363281 6.804688 13.410156 C 6.8125 13.5625 6.8125 13.5625 6.785156 13.738281 C 6.828125 14.054688 7.046875 14.210938 7.277344 14.421875 C 7.363281 14.503906 7.453125 14.585938 7.539062 14.671875 C 7.597656 14.726562 7.597656 14.726562 7.65625 14.78125 C 7.800781 14.925781 7.8125 15 7.832031 15.210938 C 7.8125 15.4375 7.8125 15.4375 7.703125 15.585938 C 7.5625 15.6875 7.488281 15.738281 7.3125 15.75 C 6.972656 15.664062 6.777344 15.421875 6.542969 15.179688 C 6.503906 15.140625 6.460938 15.097656 6.421875 15.054688 C 6.320312 14.953125 6.222656 14.851562 6.125 14.75 C 6.070312 14.769531 6.015625 14.789062 5.960938 14.8125 C 5.546875 14.9375 5.0625 14.957031 4.660156 14.777344 C 4.308594 14.566406 4.0625 14.261719 3.9375 13.875 C 3.921875 13.679688 3.921875 13.679688 3.921875 13.472656 C 3.921875 13.40625 3.921875 13.335938 3.921875 13.265625 C 3.9375 13.054688 3.992188 12.886719 4.0625 12.6875 C 3.996094 12.625 3.996094 12.625 3.929688 12.558594 C 3.769531 12.398438 3.613281 12.238281 3.453125 12.078125 C 3.382812 12.011719 3.3125 11.941406 3.242188 11.875 C 3.144531 11.773438 3.046875 11.675781 2.945312 11.578125 C 2.914062 11.546875 2.882812 11.515625 2.851562 11.484375 C 2.566406 11.199219 2.566406 11.199219 2.554688 10.96875 C 2.554688 10.902344 2.554688 10.835938 2.554688 10.769531 C 2.558594 10.699219 2.558594 10.628906 2.558594 10.558594 C 2.558594 10.484375 2.558594 10.410156 2.558594 10.335938 C 2.558594 10.261719 2.558594 10.1875 2.558594 10.113281 C 2.558594 9.929688 2.5625 9.746094 2.5625 9.5625 Z M 2.5625 9.5625 "/>
<path style=" stroke:none;fill-rule:nonzero;fill:rgb(99.607843%,86.666667%,27.058825%);fill-opacity:1;" d="M 8 1.5 C 8.03125 1.996094 8.03125 1.996094 8.0625 2.5 C 8.1875 2.53125 8.1875 2.53125 8.3125 2.5625 C 8.421875 2.636719 8.421875 2.636719 8.5 2.75 C 8.53125 2.929688 8.53125 2.929688 8.5 3.125 C 8.351562 3.304688 8.351562 3.304688 8.1875 3.4375 C 8.144531 3.4375 8.105469 3.4375 8.0625 3.4375 C 8.042969 3.746094 8.019531 4.054688 8 4.375 C 7.929688 4.363281 7.859375 4.351562 7.785156 4.34375 C 7.523438 4.34375 7.410156 4.425781 7.21875 4.605469 C 7.125 4.703125 7.027344 4.804688 6.933594 4.90625 C 6.886719 4.957031 6.839844 5.003906 6.789062 5.054688 C 6.578125 5.277344 6.371094 5.503906 6.171875 5.734375 C 5.878906 6.074219 5.558594 6.390625 5.242188 6.703125 C 5.136719 6.8125 5.027344 6.921875 4.921875 7.03125 C 4.851562 7.101562 4.78125 7.167969 4.714844 7.238281 C 4.679688 7.269531 4.648438 7.304688 4.617188 7.335938 C 4.390625 7.5625 4.390625 7.5625 4.25 7.5625 C 4.214844 7.503906 4.175781 7.449219 4.140625 7.390625 C 3.984375 7.164062 3.859375 7.078125 3.625 6.9375 C 3.726562 6.675781 3.917969 6.503906 4.117188 6.3125 C 4.152344 6.277344 4.1875 6.238281 4.226562 6.203125 C 4.34375 6.089844 4.457031 5.972656 4.574219 5.859375 C 4.726562 5.710938 4.878906 5.558594 5.03125 5.410156 C 5.066406 5.375 5.101562 5.335938 5.140625 5.300781 C 5.363281 5.078125 5.574219 4.847656 5.78125 4.605469 C 5.878906 4.496094 5.984375 4.398438 6.101562 4.300781 C 6.527344 3.960938 6.527344 3.960938 6.707031 3.472656 C 6.671875 3.265625 6.671875 3.265625 6.613281 3.0625 C 6.523438 2.730469 6.601562 2.472656 6.761719 2.175781 C 7.050781 1.746094 7.476562 1.5 8 1.5 Z M 8 1.5 "/>
<path style=" stroke:none;fill-rule:nonzero;fill:rgb(100%,9.803922%,23.529412%);fill-opacity:1;" d="M 3.375 1.1875 C 3.546875 1.347656 3.5625 1.4375 3.585938 1.671875 C 3.585938 1.769531 3.585938 1.867188 3.582031 1.964844 C 3.582031 2.042969 3.582031 2.042969 3.582031 2.125 C 3.582031 2.300781 3.582031 2.476562 3.582031 2.652344 C 3.582031 2.773438 3.578125 2.894531 3.578125 3.015625 C 3.578125 3.335938 3.578125 3.65625 3.574219 3.976562 C 3.574219 4.300781 3.574219 4.628906 3.570312 4.953125 C 3.570312 5.59375 3.566406 6.234375 3.5625 6.875 C 3.234375 6.875 2.902344 6.875 2.5625 6.875 C 2.558594 6.164062 2.550781 5.449219 2.550781 4.738281 C 2.546875 4.40625 2.546875 4.074219 2.542969 3.742188 C 2.539062 3.425781 2.539062 3.105469 2.539062 2.785156 C 2.539062 2.664062 2.539062 2.542969 2.535156 2.421875 C 2.535156 2.25 2.535156 2.078125 2.535156 1.90625 C 2.53125 1.859375 2.53125 1.808594 2.53125 1.753906 C 2.53125 1.53125 2.542969 1.402344 2.675781 1.21875 C 2.941406 1.03125 3.085938 1.0625 3.375 1.1875 Z M 3.375 1.1875 "/>
<path style=" stroke:none;fill-rule:nonzero;fill:rgb(0%,43.921569%,99.215686%);fill-opacity:1;" d="M 11.3125 7.6875 C 11.957031 7.644531 12.320312 7.734375 12.863281 8.070312 C 12.929688 8.109375 12.996094 8.148438 13.0625 8.1875 C 13.203125 8.269531 13.339844 8.355469 13.480469 8.4375 C 13.683594 8.5625 13.890625 8.683594 14.101562 8.800781 C 14.40625 8.980469 14.714844 9.160156 15.019531 9.339844 C 15.136719 9.40625 15.25 9.472656 15.363281 9.539062 C 15.417969 9.574219 15.472656 9.605469 15.53125 9.640625 C 15.582031 9.667969 15.628906 9.695312 15.683594 9.726562 C 15.808594 9.808594 15.90625 9.882812 16 10 C 16.046875 10.425781 16.046875 10.425781 15.902344 10.65625 C 15.695312 10.78125 15.542969 10.796875 15.3125 10.75 C 15.054688 10.632812 14.816406 10.488281 14.574219 10.339844 C 14.46875 10.277344 14.359375 10.210938 14.25 10.148438 C 14.140625 10.082031 14.027344 10.015625 13.917969 9.949219 C 13.6875 9.8125 13.457031 9.679688 13.226562 9.546875 C 13.1875 9.523438 13.152344 9.503906 13.113281 9.480469 C 13.039062 9.4375 12.964844 9.398438 12.894531 9.355469 C 12.722656 9.257812 12.550781 9.15625 12.378906 9.058594 C 12.324219 9.027344 12.265625 8.992188 12.207031 8.960938 C 12.09375 8.894531 11.984375 8.824219 11.875 8.75 C 11.6875 8.714844 11.503906 8.703125 11.3125 8.6875 C 11.3125 8.359375 11.3125 8.027344 11.3125 7.6875 Z M 11.3125 7.6875 "/>
<path style=" stroke:none;fill-rule:nonzero;fill:rgb(0%,67.058825%,90.980393%);fill-opacity:1;" d="M 4.375 7.6875 C 5.796875 7.6875 7.222656 7.6875 8.6875 7.6875 C 8.667969 8.015625 8.644531 8.347656 8.625 8.6875 C 7.222656 8.6875 5.820312 8.6875 4.375 8.6875 C 4.375 8.359375 4.375 8.027344 4.375 7.6875 Z M 4.375 7.6875 "/>
<path style=" stroke:none;fill-rule:nonzero;fill:rgb(98.823529%,74.901962%,0.784314%);fill-opacity:1;" d="M 8 1.5 C 8.03125 1.996094 8.03125 1.996094 8.0625 2.5 C 8.144531 2.519531 8.226562 2.542969 8.3125 2.5625 C 8.421875 2.636719 8.421875 2.636719 8.5 2.75 C 8.53125 2.929688 8.53125 2.929688 8.5 3.125 C 8.351562 3.304688 8.351562 3.304688 8.1875 3.4375 C 8.144531 3.4375 8.105469 3.4375 8.0625 3.4375 C 8.042969 3.746094 8.019531 4.054688 8 4.375 C 7.464844 4.296875 7.207031 4.125 6.816406 3.769531 C 6.589844 3.40625 6.523438 3.003906 6.59375 2.582031 C 6.691406 2.230469 6.882812 1.929688 7.191406 1.726562 C 7.460938 1.589844 7.691406 1.5 8 1.5 Z M 8 1.5 "/>
<path style=" stroke:none;fill-rule:nonzero;fill:rgb(100%,9.803922%,23.921569%);fill-opacity:1;" d="M 2.5625 9.5625 C 2.890625 9.5625 3.222656 9.5625 3.5625 9.5625 C 3.550781 9.632812 3.542969 9.703125 3.53125 9.777344 C 3.492188 10.207031 3.496094 10.570312 3.757812 10.933594 C 4.117188 11.34375 4.523438 11.707031 4.9375 12.0625 C 4.890625 12.101562 4.839844 12.140625 4.789062 12.179688 C 4.652344 12.289062 4.519531 12.402344 4.386719 12.515625 C 4.347656 12.546875 4.3125 12.582031 4.273438 12.613281 C 4.230469 12.652344 4.230469 12.652344 4.1875 12.6875 C 3.953125 12.589844 3.804688 12.445312 3.628906 12.265625 C 3.570312 12.210938 3.511719 12.152344 3.453125 12.089844 C 3.421875 12.0625 3.390625 12.03125 3.359375 12 C 3.269531 11.90625 3.175781 11.8125 3.085938 11.722656 C 2.566406 11.199219 2.566406 11.199219 2.554688 10.96875 C 2.554688 10.902344 2.554688 10.835938 2.554688 10.769531 C 2.558594 10.699219 2.558594 10.628906 2.558594 10.558594 C 2.558594 10.484375 2.558594 10.410156 2.558594 10.335938 C 2.558594 10.261719 2.558594 10.1875 2.558594 10.113281 C 2.558594 9.929688 2.5625 9.746094 2.5625 9.5625 Z M 2.5625 9.5625 "/>
<path style=" stroke:none;fill-rule:nonzero;fill:rgb(99.607843%,57.647061%,0%);fill-opacity:1;" d="M 8 1.5 C 8.476562 1.554688 8.476562 1.554688 8.6875 1.625 C 8.6875 1.667969 8.6875 1.707031 8.6875 1.75 C 8.734375 1.765625 8.78125 1.78125 8.832031 1.796875 C 9.027344 1.890625 9.089844 1.972656 9.203125 2.15625 C 9.234375 2.207031 9.265625 2.253906 9.296875 2.308594 C 9.496094 2.644531 9.464844 2.988281 9.4375 3.375 C 9.359375 3.59375 9.359375 3.59375 9.25 3.75 C 9.203125 3.828125 9.203125 3.828125 9.152344 3.910156 C 8.875 4.1875 8.535156 4.359375 8.148438 4.394531 C 8.097656 4.386719 8.050781 4.382812 8 4.375 C 7.996094 4.054688 8.007812 3.753906 8.0625 3.4375 C 8.164062 3.394531 8.269531 3.355469 8.375 3.3125 C 8.390625 3.222656 8.40625 3.132812 8.417969 3.042969 C 8.425781 2.992188 8.433594 2.941406 8.441406 2.890625 C 8.449219 2.746094 8.449219 2.746094 8.355469 2.640625 C 8.246094 2.550781 8.246094 2.550781 8.0625 2.5 C 8.042969 2.171875 8.019531 1.839844 8 1.5 Z M 8 1.5 "/>
<path style=" stroke:none;fill-rule:nonzero;fill:rgb(100%,9.803922%,23.921569%);fill-opacity:1;" d="M 6.6875 13.875 C 7.644531 14.667969 7.644531 14.667969 7.8125 15 C 7.847656 15.390625 7.847656 15.390625 7.703125 15.585938 C 7.5625 15.6875 7.488281 15.738281 7.3125 15.75 C 6.972656 15.664062 6.777344 15.421875 6.542969 15.179688 C 6.503906 15.140625 6.460938 15.097656 6.421875 15.054688 C 6.320312 14.953125 6.222656 14.851562 6.125 14.75 C 6.238281 14.507812 6.390625 14.328125 6.5625 14.125 C 6.605469 14.042969 6.648438 13.960938 6.6875 13.875 Z M 6.6875 13.875 "/>
<path style=" stroke:none;fill-rule:nonzero;fill:rgb(0%,67.058825%,90.980393%);fill-opacity:1;" d="M 1.019531 7.671875 C 1.117188 7.671875 1.117188 7.671875 1.214844 7.675781 C 1.371094 7.679688 1.53125 7.683594 1.6875 7.6875 C 1.6875 8.015625 1.6875 8.347656 1.6875 8.6875 C 1.453125 8.695312 1.21875 8.699219 0.984375 8.703125 C 0.917969 8.703125 0.851562 8.707031 0.78125 8.710938 C 0.71875 8.710938 0.65625 8.710938 0.589844 8.710938 C 0.53125 8.714844 0.472656 8.714844 0.410156 8.714844 C 0.203125 8.679688 0.128906 8.597656 0 8.4375 C -0.0351562 8.3125 -0.0351562 8.3125 -0.0351562 8.1875 C -0.0351562 8.144531 -0.0390625 8.105469 -0.0390625 8.0625 C 0.113281 7.582031 0.613281 7.65625 1.019531 7.671875 Z M 1.019531 7.671875 "/>
<path style=" stroke:none;fill-rule:nonzero;fill:rgb(96.470588%,90.196079%,89.019608%);fill-opacity:1;" d="M 3.25 7.75 C 3.402344 7.851562 3.402344 7.851562 3.5 8 C 3.535156 8.183594 3.535156 8.183594 3.5 8.375 C 3.355469 8.5625 3.261719 8.667969 3.03125 8.726562 C 2.796875 8.667969 2.703125 8.570312 2.5625 8.375 C 2.5625 8.152344 2.582031 8.007812 2.695312 7.816406 C 2.886719 7.707031 3.035156 7.722656 3.25 7.75 Z M 3.25 7.75 "/>
<path style=" stroke:none;fill-rule:nonzero;fill:rgb(96.470588%,90.980393%,89.411765%);fill-opacity:1;" d="M 5.625 13.0625 C 5.746094 13.136719 5.746094 13.136719 5.8125 13.25 C 5.855469 13.503906 5.832031 13.597656 5.683594 13.808594 C 5.5 13.9375 5.5 13.9375 5.273438 13.941406 C 5.0625 13.875 5.0625 13.875 4.9375 13.773438 C 4.84375 13.554688 4.875 13.414062 4.9375 13.1875 C 5.136719 12.941406 5.335938 12.988281 5.625 13.0625 Z M 5.625 13.0625 "/>
<path style=" stroke:none;fill-rule:nonzero;fill:rgb(90.588236%,86.274511%,85.490197%);fill-opacity:1;" d="M 10.1875 7.75 C 10.335938 7.847656 10.335938 7.847656 10.4375 8 C 10.472656 8.21875 10.472656 8.21875 10.4375 8.4375 C 10.304688 8.59375 10.304688 8.59375 10.125 8.6875 C 9.925781 8.683594 9.804688 8.65625 9.632812 8.558594 C 9.515625 8.359375 9.519531 8.160156 9.5625 7.9375 C 9.738281 7.722656 9.921875 7.710938 10.1875 7.75 Z M 10.1875 7.75 "/>
<path style=" stroke:none;fill-rule:nonzero;fill:rgb(96.078432%,92.54902%,89.019608%);fill-opacity:1;" d="M 8.25 2.5 C 8.402344 2.601562 8.402344 2.601562 8.5 2.75 C 8.539062 2.976562 8.53125 3.078125 8.402344 3.273438 C 8.191406 3.414062 8.0625 3.410156 7.8125 3.375 C 7.660156 3.273438 7.660156 3.273438 7.5625 3.125 C 7.523438 2.898438 7.53125 2.796875 7.660156 2.601562 C 7.871094 2.460938 8 2.464844 8.25 2.5 Z M 8.25 2.5 "/>
<path style=" stroke:none;fill-rule:nonzero;fill:rgb(0%,44.705883%,98.431373%);fill-opacity:1;" d="M 8 7.6875 C 8.226562 7.6875 8.453125 7.6875 8.6875 7.6875 C 8.667969 8.015625 8.644531 8.347656 8.625 8.6875 C 8.417969 8.6875 8.210938 8.6875 8 8.6875 C 8 8.359375 8 8.027344 8 7.6875 Z M 8 7.6875 "/>
<path style=" stroke:none;fill-rule:nonzero;fill:rgb(93.333334%,87.058824%,82.745099%);fill-opacity:1;" d="M 8.0625 2.5 C 8.382812 2.578125 8.382812 2.578125 8.5 2.75 C 8.527344 2.933594 8.527344 2.933594 8.5 3.125 C 8.386719 3.273438 8.386719 3.273438 8.25 3.375 C 8.1875 3.375 8.125 3.375 8.0625 3.375 C 8.0625 3.085938 8.0625 2.796875 8.0625 2.5 Z M 8.0625 2.5 "/>
</g>
</svg>
