<?xml version="1.0" encoding="UTF-8"?>
<svg xmlns="http://www.w3.org/2000/svg" xmlns:xlink="http://www.w3.org/1999/xlink" width="16" height="16" viewBox="0 0 16 16" version="1.1">
<g id="surface1">
<path style=" stroke:none;fill-rule:nonzero;fill:rgb(96.470588%,96.862745%,97.254902%);fill-opacity:1;" d="M 1.855469 0.296875 C 1.910156 0.296875 1.964844 0.296875 2.019531 0.296875 C 2.203125 0.292969 2.386719 0.292969 2.566406 0.292969 C 2.699219 0.292969 2.832031 0.292969 2.960938 0.292969 C 3.316406 0.292969 3.671875 0.292969 4.027344 0.292969 C 4.324219 0.292969 4.621094 0.289062 4.921875 0.289062 C 5.621094 0.289062 6.320312 0.289062 7.023438 0.289062 C 7.746094 0.289062 8.46875 0.289062 9.191406 0.285156 C 9.8125 0.285156 10.433594 0.285156 11.054688 0.285156 C 11.425781 0.285156 11.796875 0.285156 12.167969 0.28125 C 12.515625 0.28125 12.863281 0.28125 13.214844 0.28125 C 13.339844 0.28125 13.46875 0.28125 13.597656 0.28125 C 13.773438 0.28125 13.945312 0.28125 14.121094 0.28125 C 14.195312 0.28125 14.195312 0.28125 14.273438 0.28125 C 14.679688 0.285156 15.003906 0.40625 15.3125 0.671875 C 15.355469 0.722656 15.355469 0.722656 15.398438 0.777344 C 15.441406 0.828125 15.441406 0.828125 15.484375 0.882812 C 15.679688 1.179688 15.707031 1.457031 15.703125 1.804688 C 15.703125 1.855469 15.703125 1.902344 15.707031 1.953125 C 15.707031 2.117188 15.707031 2.28125 15.707031 2.445312 C 15.707031 2.566406 15.707031 2.683594 15.707031 2.800781 C 15.707031 3.121094 15.707031 3.441406 15.707031 3.761719 C 15.707031 3.964844 15.707031 4.164062 15.707031 4.363281 C 15.710938 5.0625 15.710938 5.761719 15.710938 6.460938 C 15.710938 7.113281 15.710938 7.765625 15.714844 8.417969 C 15.714844 8.976562 15.714844 9.535156 15.714844 10.09375 C 15.714844 10.429688 15.714844 10.765625 15.71875 11.097656 C 15.71875 11.410156 15.71875 11.726562 15.71875 12.039062 C 15.71875 12.15625 15.71875 12.269531 15.71875 12.386719 C 15.71875 12.542969 15.71875 12.703125 15.71875 12.859375 C 15.71875 12.90625 15.71875 12.949219 15.71875 12.996094 C 15.714844 13.425781 15.5625 13.746094 15.265625 14.050781 C 14.828125 14.34375 14.402344 14.453125 13.875 14.375 C 13.707031 14.257812 13.707031 14.257812 13.625 14.125 C 13.625 14.082031 13.625 14.042969 13.625 14 C 13.480469 14.019531 13.335938 14.042969 13.1875 14.0625 C 13.21875 14.113281 13.25 14.167969 13.28125 14.222656 C 13.402344 14.503906 13.429688 14.710938 13.328125 15.003906 C 13.203125 15.28125 13.070312 15.457031 12.8125 15.625 C 12.539062 15.714844 12.285156 15.71875 12 15.6875 C 11.6875 15.53125 11.46875 15.3125 11.3125 15 C 11.3125 14.789062 11.316406 14.582031 11.324219 14.375 C 11.332031 14.179688 11.332031 14.179688 11.1875 14.0625 C 11.019531 14.027344 10.855469 14.015625 10.6875 14 C 10.683594 14.066406 10.675781 14.128906 10.671875 14.195312 C 10.609375 14.515625 10.5 14.722656 10.234375 14.914062 C 10.027344 15.015625 9.886719 15.023438 9.65625 15.027344 C 9.574219 15.027344 9.492188 15.027344 9.410156 15.03125 C 9.320312 15.03125 9.234375 15.03125 9.144531 15.03125 C 9.054688 15.03125 8.964844 15.03125 8.871094 15.03125 C 8.679688 15.03125 8.492188 15.03125 8.300781 15.03125 C 8.058594 15.03125 7.8125 15.03125 7.570312 15.035156 C 7.382812 15.035156 7.195312 15.035156 7.007812 15.035156 C 6.917969 15.035156 6.828125 15.039062 6.738281 15.039062 C 5.953125 15.046875 5.953125 15.046875 5.667969 14.851562 C 5.441406 14.632812 5.320312 14.453125 5.300781 14.132812 C 5.304688 14.089844 5.308594 14.046875 5.3125 14 C 4.964844 14.011719 4.964844 14.011719 4.6875 14.1875 C 4.683594 14.316406 4.6875 14.449219 4.695312 14.578125 C 4.699219 14.921875 4.683594 15.117188 4.4375 15.375 C 4.125 15.652344 3.945312 15.707031 3.535156 15.699219 C 3.234375 15.675781 3.0625 15.566406 2.859375 15.351562 C 2.652344 15.042969 2.59375 14.8125 2.625 14.4375 C 2.675781 14.285156 2.742188 14.144531 2.8125 14 C 2.667969 14 2.523438 14 2.375 14 C 2.347656 14.074219 2.347656 14.074219 2.320312 14.152344 C 2.25 14.3125 2.25 14.3125 2.125 14.375 C 1.648438 14.425781 1.226562 14.375 0.8125 14.125 C 0.503906 13.855469 0.328125 13.566406 0.296875 13.148438 C 0.296875 13.0625 0.296875 12.972656 0.296875 12.882812 C 0.296875 12.832031 0.296875 12.785156 0.296875 12.734375 C 0.292969 12.570312 0.292969 12.40625 0.292969 12.238281 C 0.292969 12.121094 0.292969 12.003906 0.292969 11.886719 C 0.292969 11.566406 0.292969 11.246094 0.292969 10.925781 C 0.292969 10.722656 0.292969 10.523438 0.289062 10.324219 C 0.289062 9.625 0.289062 8.925781 0.289062 8.226562 C 0.289062 7.574219 0.289062 6.921875 0.285156 6.269531 C 0.285156 5.710938 0.285156 5.152344 0.285156 4.59375 C 0.285156 4.257812 0.285156 3.925781 0.28125 3.589844 C 0.28125 3.273438 0.28125 2.960938 0.28125 2.648438 C 0.28125 2.53125 0.28125 2.417969 0.28125 2.300781 C 0.28125 2.144531 0.28125 1.984375 0.28125 1.828125 C 0.28125 1.785156 0.28125 1.738281 0.28125 1.691406 C 0.285156 1.300781 0.417969 0.980469 0.671875 0.6875 C 0.707031 0.660156 0.742188 0.628906 0.777344 0.601562 C 0.8125 0.574219 0.847656 0.542969 0.882812 0.515625 C 1.195312 0.308594 1.488281 0.292969 1.855469 0.296875 Z M 1.855469 0.296875 "/>
<path style=" stroke:none;fill-rule:nonzero;fill:rgb(25.882354%,25.882354%,25.882354%);fill-opacity:1;" d="M 1.855469 0.296875 C 1.910156 0.296875 1.964844 0.296875 2.019531 0.296875 C 2.203125 0.292969 2.386719 0.292969 2.566406 0.292969 C 2.699219 0.292969 2.832031 0.292969 2.960938 0.292969 C 3.316406 0.292969 3.671875 0.292969 4.027344 0.292969 C 4.324219 0.292969 4.621094 0.289062 4.921875 0.289062 C 5.621094 0.289062 6.320312 0.289062 7.023438 0.289062 C 7.746094 0.289062 8.46875 0.289062 9.191406 0.285156 C 9.8125 0.285156 10.433594 0.285156 11.054688 0.285156 C 11.425781 0.285156 11.796875 0.285156 12.167969 0.28125 C 12.515625 0.28125 12.863281 0.28125 13.214844 0.28125 C 13.339844 0.28125 13.46875 0.28125 13.597656 0.28125 C 13.773438 0.28125 13.945312 0.28125 14.121094 0.28125 C 14.195312 0.28125 14.195312 0.28125 14.273438 0.28125 C 14.679688 0.285156 15.003906 0.40625 15.3125 0.671875 C 15.355469 0.722656 15.355469 0.722656 15.398438 0.777344 C 15.441406 0.828125 15.441406 0.828125 15.484375 0.882812 C 15.679688 1.179688 15.707031 1.457031 15.703125 1.804688 C 15.703125 1.855469 15.703125 1.902344 15.707031 1.953125 C 15.707031 2.117188 15.707031 2.28125 15.707031 2.445312 C 15.707031 2.566406 15.707031 2.683594 15.707031 2.800781 C 15.707031 3.121094 15.707031 3.441406 15.707031 3.761719 C 15.707031 3.964844 15.707031 4.164062 15.707031 4.363281 C 15.710938 5.0625 15.710938 5.761719 15.710938 6.460938 C 15.710938 7.113281 15.710938 7.765625 15.714844 8.417969 C 15.714844 8.976562 15.714844 9.535156 15.714844 10.09375 C 15.714844 10.429688 15.714844 10.765625 15.71875 11.097656 C 15.71875 11.410156 15.71875 11.726562 15.71875 12.039062 C 15.71875 12.15625 15.71875 12.269531 15.71875 12.386719 C 15.71875 12.542969 15.71875 12.703125 15.71875 12.859375 C 15.71875 12.90625 15.71875 12.949219 15.71875 12.996094 C 15.714844 13.425781 15.5625 13.746094 15.265625 14.050781 C 14.832031 14.34375 14.402344 14.457031 13.875 14.375 C 13.707031 14.25 13.707031 14.25 13.625 14.125 C 13.742188 13.757812 13.742188 13.757812 13.8125 13.6875 C 13.921875 13.675781 14.03125 13.671875 14.140625 13.664062 C 14.410156 13.640625 14.597656 13.617188 14.8125 13.4375 C 14.964844 13.210938 14.953125 13.109375 14.957031 12.839844 C 14.957031 12.796875 14.957031 12.753906 14.957031 12.710938 C 14.957031 12.570312 14.957031 12.429688 14.957031 12.289062 C 14.957031 12.183594 14.957031 12.082031 14.960938 11.980469 C 14.960938 11.703125 14.960938 11.429688 14.960938 11.152344 C 14.964844 10.894531 14.964844 10.636719 14.96875 10.378906 C 14.972656 9.625 14.972656 8.867188 14.976562 8.113281 C 14.984375 6.425781 14.992188 4.738281 15 3 C 10.378906 3 5.761719 3 1 3 C 1.003906 4.683594 1.007812 6.371094 1.011719 8.105469 C 1.011719 8.636719 1.011719 9.171875 1.011719 9.71875 C 1.015625 10.195312 1.015625 10.195312 1.015625 10.671875 C 1.019531 10.882812 1.019531 11.097656 1.019531 11.308594 C 1.019531 11.582031 1.019531 11.851562 1.019531 12.121094 C 1.019531 12.222656 1.019531 12.320312 1.019531 12.421875 C 1.019531 12.554688 1.019531 12.6875 1.023438 12.824219 C 1.023438 12.898438 1.023438 12.972656 1.023438 13.050781 C 1.074219 13.304688 1.175781 13.398438 1.375 13.5625 C 1.535156 13.644531 1.660156 13.632812 1.839844 13.640625 C 2.167969 13.667969 2.167969 13.667969 2.332031 13.828125 C 2.386719 14.039062 2.359375 14.125 2.25 14.3125 C 1.960938 14.457031 1.574219 14.40625 1.265625 14.335938 C 0.84375 14.183594 0.570312 13.957031 0.371094 13.554688 C 0.296875 13.328125 0.292969 13.117188 0.296875 12.882812 C 0.296875 12.832031 0.296875 12.785156 0.296875 12.734375 C 0.292969 12.570312 0.292969 12.40625 0.292969 12.238281 C 0.292969 12.121094 0.292969 12.003906 0.292969 11.886719 C 0.292969 11.566406 0.292969 11.246094 0.292969 10.925781 C 0.292969 10.722656 0.292969 10.523438 0.289062 10.324219 C 0.289062 9.625 0.289062 8.925781 0.289062 8.226562 C 0.289062 7.574219 0.289062 6.921875 0.285156 6.269531 C 0.285156 5.710938 0.285156 5.152344 0.285156 4.59375 C 0.285156 4.257812 0.285156 3.925781 0.28125 3.589844 C 0.28125 3.273438 0.28125 2.960938 0.28125 2.648438 C 0.28125 2.53125 0.28125 2.417969 0.28125 2.300781 C 0.28125 2.144531 0.28125 1.984375 0.28125 1.828125 C 0.28125 1.785156 0.28125 1.738281 0.28125 1.691406 C 0.285156 1.300781 0.417969 0.980469 0.671875 0.6875 C 0.707031 0.660156 0.742188 0.628906 0.777344 0.601562 C 0.8125 0.574219 0.847656 0.542969 0.882812 0.515625 C 1.195312 0.308594 1.488281 0.292969 1.855469 0.296875 Z M 1.855469 0.296875 "/>
<path style=" stroke:none;fill-rule:nonzero;fill:rgb(26.274511%,26.274511%,26.274511%);fill-opacity:1;" d="M 9.136719 8.0625 C 9.511719 8.414062 9.691406 8.835938 9.710938 9.339844 C 9.714844 9.664062 9.707031 9.988281 9.6875 10.3125 C 9.734375 10.320312 9.785156 10.328125 9.835938 10.339844 C 10.136719 10.40625 10.371094 10.570312 10.566406 10.8125 C 10.648438 10.988281 10.636719 11.132812 10.632812 11.328125 C 10.632812 11.394531 10.632812 11.460938 10.628906 11.53125 C 10.628906 11.582031 10.625 11.632812 10.625 11.6875 C 10.910156 11.6875 11.199219 11.683594 11.484375 11.679688 C 11.566406 11.679688 11.648438 11.679688 11.730469 11.679688 C 11.953125 11.675781 12.15625 11.667969 12.375 11.625 C 12.550781 11.457031 12.550781 11.457031 12.625 11.25 C 12.914062 11.035156 13.132812 10.957031 13.492188 10.976562 C 13.84375 11.039062 14.050781 11.285156 14.25 11.5625 C 14.367188 11.792969 14.339844 12.058594 14.3125 12.3125 C 14.175781 12.589844 14.003906 12.761719 13.75 12.9375 C 13.476562 13.027344 13.214844 13.054688 12.941406 12.957031 C 12.726562 12.84375 12.640625 12.789062 12.542969 12.558594 C 12.339844 12.335938 12.273438 12.34375 11.980469 12.324219 C 11.824219 12.320312 11.671875 12.320312 11.515625 12.320312 C 11.4375 12.320312 11.355469 12.316406 11.273438 12.316406 C 11.078125 12.3125 10.882812 12.3125 10.6875 12.3125 C 10.6875 12.640625 10.6875 12.972656 10.6875 13.3125 C 10.800781 13.304688 10.917969 13.296875 11.035156 13.289062 C 11.398438 13.285156 11.398438 13.285156 11.558594 13.394531 C 11.605469 13.449219 11.605469 13.449219 11.65625 13.5 C 11.796875 13.648438 11.847656 13.683594 12.054688 13.703125 C 12.183594 13.699219 12.3125 13.691406 12.445312 13.683594 C 12.722656 13.6875 12.84375 13.769531 13.0625 13.9375 C 13.273438 14.164062 13.363281 14.328125 13.394531 14.636719 C 13.363281 15.007812 13.234375 15.269531 12.964844 15.527344 C 12.660156 15.722656 12.351562 15.726562 12 15.6875 C 11.6875 15.53125 11.46875 15.3125 11.3125 15 C 11.308594 14.789062 11.316406 14.582031 11.324219 14.375 C 11.332031 14.179688 11.332031 14.179688 11.1875 14.0625 C 11.023438 14.027344 10.855469 14.015625 10.6875 14 C 10.683594 14.0625 10.675781 14.128906 10.671875 14.195312 C 10.609375 14.515625 10.5 14.722656 10.234375 14.914062 C 10.027344 15.015625 9.886719 15.023438 9.65625 15.027344 C 9.535156 15.027344 9.535156 15.027344 9.410156 15.03125 C 9.320312 15.03125 9.234375 15.03125 9.144531 15.03125 C 9.054688 15.03125 8.964844 15.03125 8.871094 15.03125 C 8.683594 15.03125 8.492188 15.03125 8.300781 15.03125 C 8.058594 15.03125 7.8125 15.03125 7.570312 15.035156 C 7.382812 15.035156 7.195312 15.035156 7.007812 15.035156 C 6.917969 15.035156 6.828125 15.039062 6.738281 15.039062 C 5.953125 15.046875 5.953125 15.046875 5.667969 14.851562 C 5.441406 14.632812 5.320312 14.453125 5.300781 14.132812 C 5.308594 14.066406 5.308594 14.066406 5.3125 14 C 4.964844 14.011719 4.964844 14.011719 4.6875 14.1875 C 4.683594 14.316406 4.6875 14.449219 4.695312 14.578125 C 4.699219 14.921875 4.683594 15.117188 4.4375 15.375 C 4.121094 15.652344 3.945312 15.707031 3.535156 15.699219 C 3.234375 15.675781 3.0625 15.566406 2.859375 15.351562 C 2.652344 15.042969 2.59375 14.8125 2.625 14.4375 C 2.71875 14.097656 2.855469 13.914062 3.15625 13.738281 C 3.414062 13.652344 3.667969 13.6875 3.933594 13.703125 C 4.195312 13.683594 4.273438 13.578125 4.445312 13.394531 C 4.695312 13.21875 5.023438 13.292969 5.3125 13.3125 C 5.3125 12.984375 5.3125 12.652344 5.3125 12.3125 C 5.039062 12.3125 4.761719 12.3125 4.488281 12.316406 C 4.410156 12.316406 4.332031 12.316406 4.253906 12.3125 C 3.851562 12.304688 3.851562 12.304688 3.507812 12.472656 C 3.414062 12.601562 3.414062 12.601562 3.3125 12.8125 C 3.019531 13.019531 2.726562 13.054688 2.375 13 C 2.042969 12.832031 1.804688 12.605469 1.6875 12.25 C 1.660156 11.6875 1.660156 11.6875 1.8125 11.4375 C 2.0625 11.191406 2.273438 10.992188 2.632812 10.976562 C 2.960938 10.980469 3.199219 11.09375 3.4375 11.3125 C 3.460938 11.363281 3.488281 11.417969 3.511719 11.472656 C 3.613281 11.644531 3.613281 11.644531 3.808594 11.667969 C 3.878906 11.667969 3.953125 11.667969 4.027344 11.667969 C 4.144531 11.671875 4.144531 11.671875 4.261719 11.675781 C 4.386719 11.675781 4.386719 11.675781 4.511719 11.675781 C 4.59375 11.675781 4.679688 11.679688 4.761719 11.679688 C 4.964844 11.683594 5.171875 11.6875 5.375 11.6875 C 5.371094 11.636719 5.371094 11.585938 5.367188 11.535156 C 5.367188 11.433594 5.367188 11.433594 5.363281 11.332031 C 5.359375 11.230469 5.359375 11.230469 5.355469 11.128906 C 5.382812 10.855469 5.503906 10.71875 5.695312 10.53125 C 5.902344 10.367188 6.050781 10.3125 6.3125 10.3125 C 6.308594 10.277344 6.308594 10.242188 6.308594 10.203125 C 6.269531 9.40625 6.238281 8.761719 6.792969 8.128906 C 7.5 7.46875 8.371094 7.582031 9.136719 8.0625 Z M 9.136719 8.0625 "/>
<path style=" stroke:none;fill-rule:nonzero;fill:rgb(74.509805%,77.64706%,77.64706%);fill-opacity:1;" d="M 6.539062 10.976562 C 6.609375 10.976562 6.683594 10.972656 6.757812 10.972656 C 6.871094 10.972656 6.871094 10.972656 6.992188 10.976562 C 7.113281 10.976562 7.113281 10.976562 7.234375 10.972656 C 7.402344 10.972656 7.570312 10.972656 7.738281 10.976562 C 7.957031 10.976562 8.171875 10.976562 8.390625 10.976562 C 8.59375 10.972656 8.800781 10.972656 9.007812 10.976562 C 9.085938 10.972656 9.164062 10.972656 9.242188 10.972656 C 9.351562 10.976562 9.351562 10.976562 9.460938 10.976562 C 9.523438 10.976562 9.589844 10.976562 9.652344 10.976562 C 9.8125 11 9.8125 11 9.925781 11.078125 C 10.019531 11.21875 10.023438 11.304688 10.023438 11.476562 C 10.023438 11.535156 10.027344 11.59375 10.027344 11.652344 C 10.027344 11.714844 10.027344 11.777344 10.023438 11.84375 C 10.023438 11.90625 10.027344 11.972656 10.027344 12.035156 C 10.027344 12.175781 10.027344 12.308594 10.023438 12.445312 C 10.023438 12.65625 10.023438 12.863281 10.027344 13.074219 C 10.027344 13.207031 10.027344 13.339844 10.023438 13.472656 C 10.027344 13.535156 10.027344 13.597656 10.027344 13.660156 C 10.027344 13.75 10.027344 13.75 10.023438 13.835938 C 10.023438 13.886719 10.023438 13.941406 10.023438 13.992188 C 10 14.125 10 14.125 9.925781 14.234375 C 9.765625 14.34375 9.648438 14.335938 9.453125 14.335938 C 9.382812 14.335938 9.308594 14.339844 9.230469 14.339844 C 9.152344 14.339844 9.074219 14.335938 8.992188 14.335938 C 8.871094 14.335938 8.871094 14.335938 8.746094 14.339844 C 8.574219 14.339844 8.402344 14.335938 8.230469 14.335938 C 8.007812 14.335938 7.789062 14.335938 7.566406 14.335938 C 7.359375 14.339844 7.148438 14.335938 6.9375 14.335938 C 6.816406 14.339844 6.816406 14.339844 6.695312 14.339844 C 6.625 14.339844 6.550781 14.335938 6.476562 14.335938 C 6.410156 14.335938 6.34375 14.335938 6.277344 14.335938 C 6.226562 14.328125 6.175781 14.320312 6.125 14.3125 C 5.992188 14.113281 5.984375 14.066406 5.984375 13.835938 C 5.980469 13.777344 5.980469 13.722656 5.980469 13.660156 C 5.980469 13.597656 5.980469 13.535156 5.980469 13.472656 C 5.980469 13.40625 5.980469 13.34375 5.980469 13.273438 C 5.980469 13.140625 5.980469 13.003906 5.980469 12.867188 C 5.980469 12.65625 5.980469 12.449219 5.976562 12.238281 C 5.976562 12.105469 5.976562 11.972656 5.976562 11.84375 C 5.976562 11.777344 5.976562 11.714844 5.976562 11.652344 C 5.976562 11.59375 5.976562 11.535156 5.976562 11.476562 C 5.976562 11.425781 5.976562 11.375 5.976562 11.320312 C 6 11.1875 6 11.1875 6.074219 11.078125 C 6.230469 10.96875 6.347656 10.976562 6.539062 10.976562 Z M 6.539062 10.976562 "/>
<path style=" stroke:none;fill-rule:nonzero;fill:rgb(96.862745%,97.254902%,97.254902%);fill-opacity:1;" d="M 10.0625 1 C 10.636719 0.996094 11.207031 0.992188 11.78125 0.988281 C 12.046875 0.988281 12.3125 0.988281 12.582031 0.984375 C 12.835938 0.984375 13.09375 0.984375 13.351562 0.984375 C 13.449219 0.980469 13.546875 0.980469 13.644531 0.980469 C 13.78125 0.980469 13.921875 0.980469 14.058594 0.980469 C 14.136719 0.976562 14.214844 0.976562 14.292969 0.976562 C 14.519531 1.003906 14.632812 1.046875 14.8125 1.1875 C 15 1.4375 15 1.4375 15 2.3125 C 13.433594 2.3125 11.863281 2.3125 10.25 2.3125 C 10.1875 1.878906 10.125 1.445312 10.0625 1 Z M 10.0625 1 "/>
<path style=" stroke:none;fill-rule:nonzero;fill:rgb(40.000001%,34.901962%,99.607843%);fill-opacity:1;" d="M 10.414062 3.667969 C 10.53125 3.667969 10.53125 3.667969 10.652344 3.667969 C 10.769531 3.667969 10.769531 3.667969 10.890625 3.664062 C 10.964844 3.664062 11.039062 3.664062 11.117188 3.664062 C 11.1875 3.664062 11.253906 3.664062 11.324219 3.664062 C 11.5 3.6875 11.5 3.6875 11.617188 3.773438 C 11.6875 3.875 11.6875 3.875 11.675781 4.035156 C 11.625 4.1875 11.625 4.1875 11.5 4.3125 C 11.375 4.328125 11.375 4.328125 11.226562 4.324219 C 11.175781 4.324219 11.121094 4.324219 11.066406 4.324219 C 10.984375 4.320312 10.984375 4.320312 10.898438 4.320312 C 10.84375 4.320312 10.785156 4.320312 10.730469 4.320312 C 10.589844 4.316406 10.449219 4.316406 10.3125 4.3125 C 10.3125 4.539062 10.3125 4.765625 10.3125 5 C 10.390625 4.996094 10.46875 4.996094 10.550781 4.992188 C 10.652344 4.992188 10.757812 4.988281 10.859375 4.988281 C 10.910156 4.988281 10.960938 4.984375 11.015625 4.984375 C 11.066406 4.984375 11.117188 4.980469 11.167969 4.980469 C 11.214844 4.980469 11.257812 4.980469 11.304688 4.980469 C 11.484375 5.007812 11.5625 5.058594 11.6875 5.1875 C 11.71875 5.347656 11.71875 5.347656 11.71875 5.539062 C 11.722656 5.640625 11.722656 5.640625 11.722656 5.746094 C 11.71875 5.820312 11.71875 5.890625 11.71875 5.964844 C 11.71875 6.035156 11.71875 6.109375 11.722656 6.183594 C 11.722656 6.25 11.722656 6.320312 11.71875 6.390625 C 11.71875 6.453125 11.71875 6.515625 11.71875 6.582031 C 11.679688 6.796875 11.617188 6.871094 11.4375 7 C 11.269531 7.03125 11.269531 7.03125 11.078125 7.03125 C 10.976562 7.03125 10.976562 7.03125 10.871094 7.03125 C 10.796875 7.03125 10.726562 7.027344 10.652344 7.027344 C 10.582031 7.027344 10.507812 7.027344 10.433594 7.027344 C 9.90625 7.023438 9.90625 7.023438 9.773438 6.921875 C 9.664062 6.78125 9.664062 6.699219 9.664062 6.519531 C 9.664062 6.457031 9.664062 6.398438 9.664062 6.335938 C 9.664062 6.273438 9.664062 6.207031 9.664062 6.140625 C 9.664062 6.074219 9.664062 6.011719 9.664062 5.941406 C 9.664062 5.800781 9.664062 5.664062 9.667969 5.523438 C 9.667969 5.308594 9.667969 5.09375 9.667969 4.878906 C 9.667969 4.746094 9.667969 4.609375 9.667969 4.472656 C 9.667969 4.378906 9.667969 4.378906 9.667969 4.277344 C 9.667969 4.21875 9.667969 4.160156 9.671875 4.097656 C 9.671875 4.046875 9.671875 3.996094 9.671875 3.941406 C 9.71875 3.566406 10.128906 3.667969 10.414062 3.667969 Z M 10.414062 3.667969 "/>
<path style=" stroke:none;fill-rule:nonzero;fill:rgb(74.117649%,77.254903%,77.254903%);fill-opacity:1;" d="M 5.4375 1 C 5.929688 0.996094 6.425781 0.992188 6.917969 0.988281 C 7.148438 0.988281 7.378906 0.988281 7.605469 0.984375 C 7.828125 0.984375 8.050781 0.984375 8.269531 0.984375 C 8.394531 0.980469 8.523438 0.980469 8.648438 0.980469 C 8.761719 0.980469 8.761719 0.980469 8.878906 0.980469 C 8.980469 0.976562 8.980469 0.976562 9.082031 0.976562 C 9.25 1 9.25 1 9.363281 1.085938 C 9.464844 1.226562 9.484375 1.347656 9.511719 1.515625 C 9.523438 1.574219 9.53125 1.628906 9.542969 1.6875 C 9.566406 1.894531 9.5625 2.105469 9.5625 2.3125 C 8.261719 2.3125 6.964844 2.3125 5.625 2.3125 C 5.4375 1.25 5.4375 1.25 5.4375 1 Z M 5.4375 1 "/>
<path style=" stroke:none;fill-rule:nonzero;fill:rgb(74.117649%,77.254903%,77.254903%);fill-opacity:1;" d="M 1.734375 0.988281 C 1.796875 0.988281 1.859375 0.988281 1.921875 0.988281 C 1.992188 0.988281 2.058594 0.988281 2.125 0.988281 C 2.195312 0.988281 2.265625 0.988281 2.335938 0.984375 C 2.480469 0.984375 2.625 0.984375 2.773438 0.984375 C 2.996094 0.984375 3.21875 0.984375 3.441406 0.980469 C 3.582031 0.980469 3.722656 0.980469 3.863281 0.980469 C 3.933594 0.980469 4 0.976562 4.066406 0.976562 C 4.128906 0.976562 4.191406 0.976562 4.257812 0.976562 C 4.339844 0.976562 4.339844 0.976562 4.421875 0.976562 C 4.59375 1.003906 4.648438 1.046875 4.75 1.1875 C 4.792969 1.34375 4.828125 1.496094 4.855469 1.65625 C 4.863281 1.699219 4.871094 1.742188 4.878906 1.785156 C 4.914062 1.964844 4.9375 2.128906 4.9375 2.3125 C 3.636719 2.3125 2.339844 2.3125 1 2.3125 C 1 1.4375 1 1.4375 1.148438 1.199219 C 1.363281 1.019531 1.460938 0.992188 1.734375 0.988281 Z M 1.734375 0.988281 "/>
<path style=" stroke:none;fill-rule:nonzero;fill:rgb(40.392157%,35.294119%,99.607843%);fill-opacity:1;" d="M 7.125 3.6875 C 7.296875 3.664062 7.296875 3.664062 7.515625 3.664062 C 7.59375 3.664062 7.671875 3.664062 7.75 3.664062 C 7.875 3.667969 7.875 3.667969 8 3.667969 C 8.082031 3.667969 8.164062 3.667969 8.25 3.667969 C 8.859375 3.671875 8.859375 3.671875 9 3.8125 C 8.964844 4.222656 8.964844 4.222656 8.875 4.3125 C 8.785156 4.316406 8.699219 4.320312 8.609375 4.320312 C 8.554688 4.316406 8.503906 4.316406 8.449219 4.316406 C 8.390625 4.316406 8.335938 4.316406 8.277344 4.316406 C 8.222656 4.316406 8.164062 4.316406 8.105469 4.316406 C 7.96875 4.316406 7.828125 4.3125 7.6875 4.3125 C 7.6875 4.539062 7.6875 4.765625 7.6875 5 C 7.765625 5 7.84375 4.996094 7.925781 4.992188 C 8.03125 4.992188 8.132812 4.988281 8.238281 4.988281 C 8.289062 4.988281 8.34375 4.984375 8.394531 4.984375 C 8.472656 4.984375 8.472656 4.984375 8.546875 4.980469 C 8.59375 4.980469 8.640625 4.980469 8.6875 4.980469 C 8.8125 5 8.8125 5 8.921875 5.070312 C 9.03125 5.234375 9.023438 5.359375 9.023438 5.554688 C 9.023438 5.664062 9.023438 5.664062 9.027344 5.773438 C 9.023438 5.847656 9.023438 5.921875 9.023438 6 C 9.023438 6.074219 9.023438 6.148438 9.027344 6.226562 C 9.027344 6.300781 9.023438 6.371094 9.023438 6.445312 C 9.023438 6.511719 9.023438 6.578125 9.023438 6.644531 C 9 6.8125 9 6.8125 8.925781 6.925781 C 8.765625 7.03125 8.636719 7.023438 8.445312 7.023438 C 8.375 7.023438 8.300781 7.027344 8.226562 7.027344 C 8.152344 7.023438 8.078125 7.023438 8 7.023438 C 7.925781 7.023438 7.851562 7.023438 7.773438 7.027344 C 7.664062 7.023438 7.664062 7.023438 7.554688 7.023438 C 7.488281 7.023438 7.421875 7.023438 7.355469 7.023438 C 7.1875 7 7.1875 7 7.074219 6.914062 C 6.96875 6.769531 6.972656 6.675781 7 6.5 C 7.097656 6.371094 7.152344 6.320312 7.3125 6.292969 C 7.359375 6.292969 7.40625 6.292969 7.453125 6.292969 C 7.5 6.296875 7.550781 6.296875 7.605469 6.296875 C 7.65625 6.296875 7.707031 6.300781 7.761719 6.300781 C 7.839844 6.300781 7.839844 6.300781 7.921875 6.304688 C 8.050781 6.304688 8.183594 6.308594 8.3125 6.3125 C 8.3125 6.105469 8.3125 5.898438 8.3125 5.6875 C 8.195312 5.691406 8.195312 5.691406 8.074219 5.695312 C 7.96875 5.699219 7.867188 5.699219 7.761719 5.703125 C 7.683594 5.707031 7.683594 5.707031 7.605469 5.710938 C 7.527344 5.710938 7.527344 5.710938 7.453125 5.710938 C 7.40625 5.714844 7.359375 5.714844 7.3125 5.714844 C 7.1875 5.6875 7.1875 5.6875 7.078125 5.582031 C 6.980469 5.402344 6.976562 5.28125 6.976562 5.078125 C 6.976562 5.007812 6.976562 4.941406 6.976562 4.871094 C 6.976562 4.796875 6.980469 4.726562 6.980469 4.652344 C 6.980469 4.582031 6.980469 4.507812 6.980469 4.433594 C 6.984375 3.898438 6.984375 3.898438 7.125 3.6875 Z M 7.125 3.6875 "/>
<path style=" stroke:none;fill-rule:nonzero;fill:rgb(40.392157%,35.294119%,99.607843%);fill-opacity:1;" d="M 4.875 3.671875 C 4.953125 3.671875 5.027344 3.671875 5.105469 3.671875 C 5.183594 3.671875 5.261719 3.671875 5.34375 3.671875 C 5.421875 3.671875 5.5 3.671875 5.582031 3.671875 C 5.65625 3.671875 5.734375 3.671875 5.8125 3.671875 C 5.878906 3.671875 5.949219 3.671875 6.019531 3.671875 C 6.1875 3.6875 6.1875 3.6875 6.3125 3.8125 C 6.339844 4.089844 6.332031 4.371094 6.332031 4.652344 C 6.332031 4.730469 6.332031 4.808594 6.335938 4.890625 C 6.335938 4.964844 6.335938 5.039062 6.335938 5.117188 C 6.335938 5.1875 6.335938 5.253906 6.335938 5.324219 C 6.3125 5.5 6.3125 5.5 6.234375 5.617188 C 6.097656 5.703125 6.019531 5.710938 5.859375 5.707031 C 5.8125 5.707031 5.761719 5.703125 5.707031 5.703125 C 5.65625 5.703125 5.605469 5.699219 5.550781 5.699219 C 5.472656 5.699219 5.472656 5.699219 5.390625 5.695312 C 5.261719 5.695312 5.128906 5.691406 5 5.6875 C 5 5.894531 5 6.101562 5 6.3125 C 5.078125 6.308594 5.15625 6.308594 5.238281 6.304688 C 5.34375 6.304688 5.445312 6.300781 5.550781 6.300781 C 5.601562 6.300781 5.65625 6.296875 5.707031 6.296875 C 5.785156 6.296875 5.785156 6.296875 5.859375 6.292969 C 5.90625 6.292969 5.953125 6.292969 6 6.292969 C 6.160156 6.320312 6.214844 6.371094 6.3125 6.5 C 6.335938 6.691406 6.335938 6.691406 6.3125 6.875 C 6.007812 7.078125 5.671875 7.023438 5.3125 7.023438 C 5.199219 7.027344 5.199219 7.027344 5.085938 7.027344 C 5.011719 7.027344 4.941406 7.027344 4.867188 7.027344 C 4.769531 7.03125 4.769531 7.03125 4.667969 7.03125 C 4.5 7 4.5 7 4.386719 6.894531 C 4.296875 6.714844 4.289062 6.589844 4.289062 6.390625 C 4.289062 6.320312 4.285156 6.253906 4.285156 6.179688 C 4.289062 6.074219 4.289062 6.074219 4.289062 5.964844 C 4.289062 5.894531 4.289062 5.820312 4.285156 5.746094 C 4.285156 5.679688 4.289062 5.609375 4.289062 5.539062 C 4.289062 5.476562 4.289062 5.414062 4.289062 5.347656 C 4.3125 5.1875 4.3125 5.1875 4.390625 5.074219 C 4.53125 4.980469 4.613281 4.976562 4.777344 4.980469 C 4.832031 4.980469 4.882812 4.984375 4.9375 4.984375 C 5.019531 4.984375 5.019531 4.984375 5.105469 4.988281 C 5.160156 4.988281 5.21875 4.992188 5.273438 4.992188 C 5.410156 4.992188 5.550781 4.996094 5.6875 5 C 5.6875 4.773438 5.6875 4.546875 5.6875 4.3125 C 5.605469 4.316406 5.519531 4.316406 5.433594 4.320312 C 5.324219 4.320312 5.214844 4.324219 5.105469 4.324219 C 5.050781 4.324219 4.996094 4.328125 4.9375 4.328125 C 4.859375 4.328125 4.859375 4.328125 4.777344 4.332031 C 4.730469 4.332031 4.679688 4.332031 4.628906 4.335938 C 4.464844 4.308594 4.410156 4.257812 4.3125 4.125 C 4.34375 3.722656 4.5 3.671875 4.875 3.671875 Z M 4.875 3.671875 "/>
<path style=" stroke:none;fill-rule:nonzero;fill:rgb(96.470588%,96.862745%,96.862745%);fill-opacity:1;" d="M 8.316406 8.351562 C 8.664062 8.5 8.851562 8.714844 9 9.0625 C 9.035156 9.285156 9.03125 9.496094 9.019531 9.71875 C 9.011719 9.914062 9.007812 10.109375 9 10.3125 C 8.339844 10.3125 7.679688 10.3125 7 10.3125 C 6.996094 10.117188 6.988281 9.917969 6.984375 9.714844 C 6.980469 9.652344 6.980469 9.59375 6.976562 9.53125 C 6.972656 9.152344 7.023438 8.933594 7.25 8.625 C 7.5625 8.332031 7.894531 8.222656 8.316406 8.351562 Z M 8.316406 8.351562 "/>
<path style=" stroke:none;fill-rule:nonzero;fill:rgb(96.470588%,96.862745%,96.862745%);fill-opacity:1;" d="M 8.25 11.6875 C 8.460938 11.816406 8.617188 11.945312 8.6875 12.1875 C 8.671875 12.402344 8.648438 12.578125 8.554688 12.769531 C 8.484375 12.988281 8.523438 13.113281 8.585938 13.332031 C 8.621094 13.449219 8.652344 13.566406 8.6875 13.6875 C 8.234375 13.6875 7.78125 13.6875 7.3125 13.6875 C 7.367188 13.464844 7.417969 13.242188 7.472656 13.023438 C 7.523438 12.804688 7.523438 12.804688 7.375 12.625 C 7.328125 12.339844 7.335938 12.125 7.492188 11.875 C 7.722656 11.660156 7.945312 11.644531 8.25 11.6875 Z M 8.25 11.6875 "/>
<path style=" stroke:none;fill-rule:nonzero;fill:rgb(95.294118%,95.686275%,97.647059%);fill-opacity:1;" d="M 10.3125 5.6875 C 10.539062 5.6875 10.765625 5.6875 11 5.6875 C 11 5.894531 11 6.101562 11 6.3125 C 10.773438 6.3125 10.546875 6.3125 10.3125 6.3125 C 10.3125 6.105469 10.3125 5.898438 10.3125 5.6875 Z M 10.3125 5.6875 "/>
<path style=" stroke:none;fill-rule:nonzero;fill:rgb(70.19608%,72.941178%,72.941178%);fill-opacity:1;" d="M 12.378906 14.320312 C 12.5625 14.375 12.5625 14.375 12.6875 14.5625 C 12.667969 14.769531 12.648438 14.851562 12.5 15 C 12.320312 15.023438 12.226562 15.023438 12.074219 14.925781 C 11.972656 14.773438 11.972656 14.679688 12 14.5 C 12.109375 14.316406 12.160156 14.3125 12.378906 14.320312 Z M 12.378906 14.320312 "/>
<path style=" stroke:none;fill-rule:nonzero;fill:rgb(70.19608%,72.941178%,72.941178%);fill-opacity:1;" d="M 3.722656 14.328125 C 3.875 14.375 3.875 14.375 4 14.5 C 4.023438 14.679688 4.023438 14.773438 3.925781 14.925781 C 3.773438 15.027344 3.679688 15.027344 3.5 15 C 3.382812 14.929688 3.382812 14.929688 3.3125 14.8125 C 3.320312 14.621094 3.320312 14.621094 3.375 14.4375 C 3.5625 14.3125 3.5625 14.3125 3.722656 14.328125 Z M 3.722656 14.328125 "/>
<path style=" stroke:none;fill-rule:nonzero;fill:rgb(71.764708%,74.901962%,74.901962%);fill-opacity:1;" d="M 13.125 11.6875 C 13.324219 11.660156 13.449219 11.65625 13.621094 11.761719 C 13.6875 11.875 13.6875 11.875 13.675781 12.035156 C 13.625 12.1875 13.625 12.1875 13.5 12.3125 C 13.273438 12.289062 13.273438 12.289062 13.0625 12.25 C 13.023438 12.074219 13.023438 12.074219 13 11.875 C 13.042969 11.8125 13.082031 11.75 13.125 11.6875 Z M 13.125 11.6875 "/>
<path style=" stroke:none;fill-rule:nonzero;fill:rgb(72.156864%,75.294119%,75.294119%);fill-opacity:1;" d="M 2.5 11.6875 C 2.726562 11.710938 2.726562 11.710938 2.9375 11.75 C 3.019531 12.089844 3.019531 12.089844 2.929688 12.242188 C 2.773438 12.335938 2.679688 12.339844 2.5 12.3125 C 2.382812 12.238281 2.382812 12.238281 2.3125 12.125 C 2.328125 11.917969 2.351562 11.835938 2.5 11.6875 Z M 2.5 11.6875 "/>
</g>
</svg>
