<?xml version="1.0" encoding="UTF-8"?>
<svg xmlns="http://www.w3.org/2000/svg" xmlns:xlink="http://www.w3.org/1999/xlink" width="16" height="16" viewBox="0 0 16 16" version="1.1">
<g id="surface1">
<path style=" stroke:none;fill-rule:nonzero;fill:rgb(98.823529%,98.431373%,98.823529%);fill-opacity:1;" d="M 0 0 C 5.28125 0 10.558594 0 16 0 C 16 5.28125 16 10.558594 16 16 C 10.71875 16 5.441406 16 0 16 C 0 10.71875 0 5.441406 0 0 Z M 0 0 "/>
<path style=" stroke:none;fill-rule:nonzero;fill:rgb(95.686275%,73.725492%,11.764706%);fill-opacity:1;" d="M 1.75 1.375 C 5.875 1.375 10 1.375 14.25 1.375 C 14.25 2.59375 14.25 3.808594 14.25 5.0625 C 10.125 5.0625 6 5.0625 1.75 5.0625 C 1.75 3.84375 1.75 2.628906 1.75 1.375 Z M 1.75 1.375 "/>
<path style=" stroke:none;fill-rule:nonzero;fill:rgb(4.313726%,12.941177%,20.784314%);fill-opacity:1;" d="M 0 0 C 5.28125 0 10.558594 0 16 0 C 16 5.28125 16 10.558594 16 16 C 10.71875 16 5.441406 16 0 16 C 0 10.71875 0 5.441406 0 0 Z M 0.9375 0.5625 C 0.9375 5.472656 0.9375 10.378906 0.9375 15.4375 C 5.597656 15.4375 10.261719 15.4375 15.0625 15.4375 C 15.0625 10.527344 15.0625 5.621094 15.0625 0.5625 C 10.402344 0.5625 5.738281 0.5625 0.9375 0.5625 Z M 0.9375 0.5625 "/>
<path style=" stroke:none;fill-rule:nonzero;fill:rgb(70.588237%,74.901962%,81.960785%);fill-opacity:1;" d="M 1.75 6.1875 C 5.875 6.1875 10 6.1875 14.25 6.1875 C 14.25 7.382812 14.25 8.578125 14.25 9.8125 C 10.125 9.8125 6 9.8125 1.75 9.8125 C 1.75 8.617188 1.75 7.421875 1.75 6.1875 Z M 1.75 6.1875 "/>
<path style=" stroke:none;fill-rule:nonzero;fill:rgb(88.627452%,17.254902%,29.411766%);fill-opacity:1;" d="M 8.5625 10.9375 C 10.4375 10.9375 12.316406 10.9375 14.25 10.9375 C 14.25 12.15625 14.25 13.371094 14.25 14.625 C 12.375 14.625 10.496094 14.625 8.5625 14.625 C 8.5625 13.40625 8.5625 12.191406 8.5625 10.9375 Z M 8.5625 10.9375 "/>
<path style=" stroke:none;fill-rule:nonzero;fill:rgb(4.705882%,15.294118%,26.274511%);fill-opacity:1;" d="M 1.75 10.9375 C 3.625 10.9375 5.503906 10.9375 7.4375 10.9375 C 7.4375 12.15625 7.4375 13.371094 7.4375 14.625 C 5.5625 14.625 3.683594 14.625 1.75 14.625 C 1.75 13.40625 1.75 12.191406 1.75 10.9375 Z M 1.75 10.9375 "/>
<path style=" stroke:none;fill-rule:nonzero;fill:rgb(0%,0%,0%);fill-opacity:1;" d="M 15.5 0 C 15.664062 0 15.828125 0 16 0 C 16 5.28125 16 10.558594 16 16 C 15.835938 16 15.671875 16 15.5 16 C 15.53125 15.9375 15.53125 15.9375 15.5625 15.875 C 15.566406 15.789062 15.570312 15.703125 15.570312 15.613281 C 15.570312 15.558594 15.570312 15.503906 15.570312 15.449219 C 15.570312 15.386719 15.570312 15.324219 15.570312 15.261719 C 15.570312 15.199219 15.570312 15.132812 15.570312 15.066406 C 15.570312 14.851562 15.570312 14.632812 15.570312 14.417969 C 15.570312 14.261719 15.570312 14.105469 15.570312 13.953125 C 15.570312 13.574219 15.570312 13.195312 15.570312 12.816406 C 15.570312 12.511719 15.570312 12.203125 15.570312 11.894531 C 15.570312 11.851562 15.570312 11.808594 15.570312 11.765625 C 15.570312 11.675781 15.570312 11.585938 15.570312 11.496094 C 15.570312 10.664062 15.570312 9.832031 15.570312 9 C 15.570312 8.285156 15.570312 7.570312 15.570312 6.855469 C 15.570312 6.027344 15.570312 5.199219 15.570312 4.367188 C 15.570312 4.28125 15.570312 4.191406 15.570312 4.105469 C 15.570312 4.039062 15.570312 4.039062 15.570312 3.972656 C 15.570312 3.664062 15.570312 3.359375 15.570312 3.050781 C 15.570312 2.636719 15.570312 2.226562 15.570312 1.8125 C 15.570312 1.660156 15.570312 1.507812 15.570312 1.355469 C 15.570312 1.148438 15.570312 0.945312 15.570312 0.738281 C 15.570312 0.675781 15.570312 0.617188 15.570312 0.550781 C 15.570312 0.496094 15.570312 0.441406 15.570312 0.386719 C 15.570312 0.339844 15.570312 0.289062 15.570312 0.242188 C 15.570312 0.121094 15.570312 0.121094 15.5 0 Z M 15.5 0 "/>
<path style=" stroke:none;fill-rule:nonzero;fill:rgb(0%,0%,0%);fill-opacity:1;" d="M 0 0 C 0.164062 0 0.328125 0 0.5 0 C 0.480469 0.0429688 0.457031 0.0820312 0.4375 0.125 C 0.433594 0.210938 0.429688 0.296875 0.429688 0.386719 C 0.429688 0.441406 0.429688 0.496094 0.429688 0.550781 C 0.429688 0.613281 0.429688 0.675781 0.429688 0.738281 C 0.429688 0.800781 0.429688 0.867188 0.429688 0.933594 C 0.429688 1.148438 0.429688 1.367188 0.429688 1.582031 C 0.429688 1.738281 0.429688 1.894531 0.429688 2.046875 C 0.429688 2.425781 0.429688 2.804688 0.429688 3.183594 C 0.429688 3.488281 0.429688 3.796875 0.429688 4.105469 C 0.429688 4.148438 0.429688 4.191406 0.429688 4.234375 C 0.429688 4.324219 0.429688 4.414062 0.429688 4.503906 C 0.429688 5.335938 0.429688 6.167969 0.429688 7 C 0.429688 7.714844 0.429688 8.429688 0.429688 9.144531 C 0.429688 9.972656 0.429688 10.800781 0.429688 11.632812 C 0.429688 11.71875 0.429688 11.808594 0.429688 11.894531 C 0.429688 11.9375 0.429688 11.984375 0.429688 12.027344 C 0.429688 12.335938 0.429688 12.640625 0.429688 12.949219 C 0.429688 13.363281 0.429688 13.773438 0.429688 14.1875 C 0.429688 14.339844 0.429688 14.492188 0.429688 14.644531 C 0.429688 14.851562 0.429688 15.054688 0.429688 15.261719 C 0.429688 15.324219 0.429688 15.382812 0.429688 15.449219 C 0.429688 15.503906 0.429688 15.558594 0.429688 15.613281 C 0.429688 15.660156 0.429688 15.710938 0.429688 15.757812 C 0.429688 15.878906 0.429688 15.878906 0.5 16 C 0.335938 16 0.171875 16 0 16 C 0 10.71875 0 5.441406 0 0 Z M 0 0 "/>
</g>
</svg>
