<?xml version="1.0" encoding="UTF-8"?>
<svg xmlns="http://www.w3.org/2000/svg" xmlns:xlink="http://www.w3.org/1999/xlink" width="16" height="16" viewBox="0 0 16 16" version="1.1">
<g id="surface1">
<path style=" stroke:none;fill-rule:nonzero;fill:rgb(81.568629%,1.176471%,31.764707%);fill-opacity:1;" d="M 2.429688 -0.03125 C 2.484375 -0.03125 2.539062 -0.03125 2.597656 -0.03125 C 2.78125 -0.0351562 2.964844 -0.03125 3.152344 -0.03125 C 3.285156 -0.03125 3.414062 -0.03125 3.546875 -0.0351562 C 3.90625 -0.0351562 4.265625 -0.0351562 4.628906 -0.0351562 C 5.003906 -0.03125 5.378906 -0.0351562 5.753906 -0.0351562 C 6.386719 -0.0351562 7.019531 -0.0351562 7.652344 -0.03125 C 8.378906 -0.03125 9.113281 -0.03125 9.84375 -0.03125 C 10.46875 -0.0351562 11.097656 -0.0351562 11.722656 -0.0351562 C 12.097656 -0.03125 12.472656 -0.03125 12.847656 -0.0351562 C 13.199219 -0.0351562 13.550781 -0.0351562 13.902344 -0.03125 C 14.03125 -0.03125 14.160156 -0.03125 14.289062 -0.03125 C 14.46875 -0.0351562 14.644531 -0.03125 14.820312 -0.03125 C 14.871094 -0.03125 14.921875 -0.03125 14.976562 -0.0351562 C 15.304688 -0.0273438 15.488281 0.0351562 15.75 0.25 C 16.089844 0.636719 16.035156 1.167969 16.035156 1.648438 C 16.035156 1.734375 16.035156 1.824219 16.035156 1.910156 C 16.035156 2.089844 16.035156 2.273438 16.03125 2.453125 C 16.03125 2.683594 16.03125 2.914062 16.035156 3.148438 C 16.035156 3.328125 16.035156 3.503906 16.035156 3.683594 C 16.035156 3.769531 16.035156 3.855469 16.035156 3.941406 C 16.035156 4.058594 16.035156 4.179688 16.03125 4.296875 C 16.03125 4.367188 16.03125 4.433594 16.03125 4.503906 C 15.992188 4.730469 15.914062 4.835938 15.75 5 C 15.574219 5.035156 15.574219 5.035156 15.371094 5.03125 C 15.304688 5.03125 15.238281 5.027344 15.171875 5.027344 C 15.046875 5.023438 15.046875 5.023438 14.921875 5.019531 C 14.660156 5.011719 14.394531 5.007812 14.125 5 C 14.125 6.011719 14.125 7.019531 14.125 8.0625 C 14.226562 8.105469 14.332031 8.144531 14.4375 8.1875 C 14.546875 8.246094 14.65625 8.308594 14.765625 8.375 C 14.824219 8.410156 14.886719 8.445312 14.949219 8.480469 C 15.011719 8.519531 15.074219 8.554688 15.136719 8.59375 C 15.199219 8.628906 15.261719 8.667969 15.328125 8.707031 C 15.796875 8.984375 15.796875 8.984375 15.9375 9.125 C 16.011719 9.617188 15.800781 9.929688 15.554688 10.34375 C 15.515625 10.414062 15.476562 10.484375 15.4375 10.554688 C 15.246094 10.890625 15.050781 11.210938 14.8125 11.519531 C 14.074219 12.511719 14.097656 13.46875 14.125 14.667969 C 14.125 14.734375 14.128906 14.800781 14.128906 14.863281 C 14.128906 14.988281 14.136719 15.109375 14.140625 15.234375 C 14.140625 15.289062 14.144531 15.34375 14.144531 15.398438 C 14.148438 15.472656 14.148438 15.472656 14.152344 15.546875 C 14.113281 15.757812 14.027344 15.851562 13.875 16 C 13.695312 16.03125 13.554688 16.042969 13.378906 16.039062 C 13.328125 16.039062 13.277344 16.039062 13.222656 16.039062 C 13.054688 16.042969 12.882812 16.039062 12.714844 16.039062 C 12.59375 16.039062 12.472656 16.039062 12.351562 16.039062 C 12.019531 16.042969 11.691406 16.042969 11.359375 16.039062 C 11.015625 16.039062 10.667969 16.039062 10.324219 16.039062 C 9.742188 16.039062 9.164062 16.039062 8.582031 16.035156 C 7.910156 16.035156 7.242188 16.035156 6.570312 16.035156 C 5.925781 16.039062 5.28125 16.035156 4.632812 16.035156 C 4.359375 16.035156 4.085938 16.035156 3.8125 16.035156 C 3.488281 16.035156 3.164062 16.035156 2.839844 16.035156 C 2.722656 16.035156 2.601562 16.035156 2.484375 16.035156 C 2.320312 16.035156 2.160156 16.035156 2 16.03125 C 1.949219 16.03125 1.902344 16.035156 1.855469 16.035156 C 1.644531 16.03125 1.519531 16.015625 1.347656 15.894531 C 1.230469 15.71875 1.222656 15.625 1.222656 15.414062 C 1.226562 15.34375 1.226562 15.277344 1.226562 15.207031 C 1.226562 15.132812 1.230469 15.058594 1.230469 14.980469 C 1.234375 14.859375 1.234375 14.738281 1.238281 14.617188 C 1.238281 14.488281 1.238281 14.355469 1.242188 14.226562 C 1.246094 13.953125 1.25 13.683594 1.25 13.410156 C 1.253906 13.316406 1.253906 13.226562 1.253906 13.132812 C 1.253906 13.085938 1.253906 13.039062 1.253906 12.992188 C 1.257812 12.359375 1.265625 11.726562 1.277344 11.09375 C 1.285156 10.667969 1.289062 10.242188 1.289062 9.8125 C 1.289062 9.589844 1.289062 9.363281 1.296875 9.136719 C 1.367188 8.238281 1.367188 8.238281 1.085938 7.425781 C 0.847656 7.214844 0.589844 7.097656 0.296875 6.988281 C 0.144531 6.917969 0.0742188 6.835938 0 6.6875 C 0.0078125 6.351562 0.113281 6.121094 0.285156 5.832031 C 0.304688 5.792969 0.328125 5.753906 0.347656 5.714844 C 0.417969 5.597656 0.488281 5.476562 0.558594 5.359375 C 0.605469 5.277344 0.652344 5.199219 0.699219 5.117188 C 1.023438 4.558594 1.023438 4.558594 1.1875 4.3125 C 1.207031 4.148438 1.207031 4.148438 1.203125 3.957031 C 1.203125 3.847656 1.203125 3.847656 1.207031 3.738281 C 1.203125 3.660156 1.203125 3.582031 1.203125 3.5 C 1.207031 3.378906 1.207031 3.253906 1.207031 3.128906 C 1.210938 2.828125 1.210938 2.523438 1.210938 2.21875 C 1.210938 2.046875 1.210938 1.878906 1.214844 1.707031 C 1.214844 1.546875 1.214844 1.386719 1.214844 1.226562 C 1.222656 0.535156 1.222656 0.535156 1.5 0.25 C 1.816406 -0.0078125 2.039062 -0.0351562 2.429688 -0.03125 Z M 2.429688 -0.03125 "/>
<path style=" stroke:none;fill-rule:nonzero;fill:rgb(99.607843%,95.686275%,95.686275%);fill-opacity:1;" d="M 1.25 7.5625 C 1.476562 7.613281 1.648438 7.699219 1.851562 7.816406 C 1.953125 7.875 1.953125 7.875 2.0625 7.9375 C 2.136719 7.984375 2.214844 8.027344 2.289062 8.070312 C 2.367188 8.117188 2.445312 8.160156 2.527344 8.207031 C 2.726562 8.324219 2.929688 8.441406 3.132812 8.558594 C 3.3125 8.660156 3.492188 8.765625 3.671875 8.867188 C 3.9375 9.019531 4.203125 9.171875 4.46875 9.328125 C 4.71875 9.472656 4.96875 9.617188 5.21875 9.757812 C 5.371094 9.84375 5.523438 9.933594 5.675781 10.019531 C 5.78125 10.082031 5.890625 10.140625 6 10.203125 C 6.0625 10.242188 6.128906 10.277344 6.195312 10.316406 C 6.253906 10.347656 6.3125 10.382812 6.371094 10.414062 C 6.5 10.5 6.5 10.5 6.5625 10.625 C 6.503906 10.625 6.503906 10.625 6.445312 10.625 C 6.042969 10.628906 5.640625 10.632812 5.242188 10.636719 C 5.089844 10.640625 4.941406 10.640625 4.792969 10.640625 C 4.578125 10.644531 4.359375 10.644531 4.144531 10.648438 C 4.046875 10.648438 4.046875 10.648438 3.941406 10.648438 C 3.878906 10.652344 3.816406 10.652344 3.753906 10.652344 C 3.699219 10.652344 3.644531 10.65625 3.585938 10.65625 C 3.386719 10.699219 3.308594 10.777344 3.1875 10.9375 C 3.183594 11.164062 3.183594 11.164062 3.25 11.375 C 3.484375 11.53125 3.597656 11.511719 3.878906 11.503906 C 3.972656 11.5 4.0625 11.5 4.15625 11.5 C 4.207031 11.496094 4.253906 11.496094 4.308594 11.496094 C 4.570312 11.488281 4.835938 11.488281 5.101562 11.484375 C 5.4375 11.480469 5.773438 11.476562 6.109375 11.46875 C 7.605469 11.425781 8.636719 11.546875 9.875 12.433594 C 10.1875 12.648438 10.519531 12.832031 10.847656 13.019531 C 11.203125 13.226562 11.554688 13.433594 11.90625 13.644531 C 11.957031 13.675781 12.011719 13.710938 12.066406 13.742188 C 12.167969 13.800781 12.265625 13.863281 12.367188 13.925781 C 12.644531 14.09375 12.851562 14.1875 13.1875 14.125 C 13.4375 13.894531 13.59375 13.558594 13.761719 13.261719 C 13.816406 13.164062 13.871094 13.066406 13.929688 12.972656 C 13.953125 12.929688 13.976562 12.886719 14 12.84375 C 14.023438 12.8125 14.042969 12.78125 14.0625 12.75 C 14.082031 12.75 14.105469 12.75 14.125 12.75 C 14.132812 13.164062 14.136719 13.574219 14.140625 13.988281 C 14.140625 14.128906 14.140625 14.269531 14.144531 14.410156 C 14.148438 14.609375 14.148438 14.8125 14.148438 15.015625 C 14.152344 15.078125 14.152344 15.140625 14.152344 15.203125 C 14.152344 15.261719 14.152344 15.320312 14.152344 15.382812 C 14.152344 15.433594 14.15625 15.484375 14.15625 15.539062 C 14.113281 15.753906 14.03125 15.847656 13.875 16 C 13.695312 16.03125 13.554688 16.042969 13.375 16.039062 C 13.328125 16.039062 13.277344 16.039062 13.222656 16.039062 C 13.054688 16.042969 12.882812 16.039062 12.714844 16.039062 C 12.59375 16.039062 12.472656 16.039062 12.351562 16.039062 C 12.019531 16.042969 11.6875 16.042969 11.359375 16.039062 C 11.015625 16.039062 10.667969 16.039062 10.324219 16.039062 C 9.742188 16.039062 9.164062 16.039062 8.582031 16.039062 C 7.910156 16.035156 7.242188 16.035156 6.570312 16.035156 C 5.925781 16.039062 5.28125 16.035156 4.636719 16.035156 C 4.359375 16.035156 4.085938 16.035156 3.8125 16.035156 C 3.488281 16.035156 3.164062 16.035156 2.839844 16.035156 C 2.722656 16.035156 2.601562 16.035156 2.484375 16.035156 C 2.320312 16.035156 2.160156 16.035156 2 16.03125 C 1.949219 16.03125 1.902344 16.03125 1.855469 16.035156 C 1.644531 16.03125 1.519531 16.015625 1.34375 15.894531 C 1.230469 15.71875 1.21875 15.621094 1.21875 15.410156 C 1.21875 15.339844 1.21875 15.269531 1.21875 15.199219 C 1.21875 15.125 1.21875 15.046875 1.222656 14.96875 C 1.222656 14.890625 1.222656 14.808594 1.222656 14.726562 C 1.222656 14.507812 1.222656 14.289062 1.222656 14.070312 C 1.226562 13.84375 1.226562 13.613281 1.226562 13.386719 C 1.226562 12.953125 1.230469 12.519531 1.230469 12.085938 C 1.234375 11.59375 1.234375 11.097656 1.238281 10.605469 C 1.238281 9.589844 1.246094 8.578125 1.25 7.5625 Z M 1.25 7.5625 "/>
<path style=" stroke:none;fill-rule:nonzero;fill:rgb(87.450981%,86.666667%,95.686275%);fill-opacity:1;" d="M 2.429688 -0.03125 C 2.484375 -0.03125 2.539062 -0.03125 2.597656 -0.03125 C 2.78125 -0.0351562 2.964844 -0.03125 3.152344 -0.03125 C 3.285156 -0.03125 3.414062 -0.03125 3.546875 -0.0351562 C 3.90625 -0.0351562 4.265625 -0.0351562 4.628906 -0.0351562 C 5.003906 -0.03125 5.378906 -0.0351562 5.753906 -0.0351562 C 6.386719 -0.0351562 7.019531 -0.0351562 7.652344 -0.03125 C 8.378906 -0.03125 9.113281 -0.03125 9.84375 -0.03125 C 10.46875 -0.0351562 11.097656 -0.0351562 11.722656 -0.0351562 C 12.097656 -0.03125 12.472656 -0.03125 12.847656 -0.0351562 C 13.199219 -0.0351562 13.550781 -0.0351562 13.902344 -0.03125 C 14.03125 -0.03125 14.160156 -0.03125 14.289062 -0.03125 C 14.46875 -0.0351562 14.644531 -0.03125 14.820312 -0.03125 C 14.871094 -0.03125 14.921875 -0.03125 14.976562 -0.0351562 C 15.304688 -0.0273438 15.488281 0.0351562 15.75 0.25 C 16.089844 0.636719 16.035156 1.167969 16.035156 1.648438 C 16.035156 1.734375 16.035156 1.824219 16.035156 1.910156 C 16.035156 2.089844 16.035156 2.273438 16.03125 2.453125 C 16.03125 2.683594 16.03125 2.914062 16.035156 3.148438 C 16.035156 3.328125 16.035156 3.503906 16.035156 3.683594 C 16.035156 3.769531 16.035156 3.855469 16.035156 3.941406 C 16.035156 4.058594 16.035156 4.179688 16.03125 4.296875 C 16.03125 4.367188 16.03125 4.433594 16.03125 4.503906 C 15.992188 4.730469 15.914062 4.835938 15.75 5 C 15.574219 5.035156 15.574219 5.035156 15.371094 5.03125 C 15.304688 5.03125 15.238281 5.027344 15.171875 5.027344 C 15.046875 5.023438 15.046875 5.023438 14.921875 5.019531 C 14.660156 5.011719 14.394531 5.007812 14.125 5 C 14.125 6.011719 14.125 7.019531 14.125 8.0625 C 13.421875 7.710938 13.421875 7.710938 13.171875 7.5625 C 13.117188 7.53125 13.058594 7.496094 13 7.460938 C 12.941406 7.425781 12.882812 7.390625 12.820312 7.355469 C 12.246094 7.015625 11.667969 6.683594 11.085938 6.351562 C 11.015625 6.3125 10.945312 6.269531 10.875 6.230469 C 10.738281 6.152344 10.597656 6.074219 10.460938 5.996094 C 10.097656 5.789062 9.738281 5.582031 9.375 5.375 C 9.375 5.355469 9.375 5.332031 9.375 5.3125 C 9.453125 5.3125 9.527344 5.308594 9.605469 5.308594 C 9.890625 5.300781 10.175781 5.296875 10.460938 5.289062 C 10.582031 5.285156 10.707031 5.285156 10.828125 5.28125 C 11.003906 5.277344 11.183594 5.273438 11.359375 5.269531 C 11.414062 5.269531 11.46875 5.269531 11.527344 5.265625 C 11.578125 5.265625 11.628906 5.265625 11.679688 5.261719 C 11.726562 5.261719 11.769531 5.261719 11.816406 5.261719 C 11.953125 5.253906 11.953125 5.253906 12.125 5.1875 C 12.125 4.960938 12.125 4.734375 12.125 4.5 C 11.914062 4.429688 11.765625 4.433594 11.542969 4.4375 C 11.421875 4.441406 11.421875 4.441406 11.296875 4.441406 C 11.253906 4.445312 11.210938 4.445312 11.164062 4.445312 C 10.878906 4.453125 10.597656 4.453125 10.3125 4.453125 C 10.066406 4.453125 9.816406 4.457031 9.570312 4.464844 C 8.222656 4.5 7.207031 4.410156 6.125 3.5 C 6.125 3.480469 6.125 3.457031 6.125 3.4375 C 6.199219 3.4375 6.269531 3.4375 6.34375 3.4375 C 7.027344 3.429688 7.707031 3.421875 8.390625 3.417969 C 8.738281 3.414062 9.089844 3.410156 9.441406 3.40625 C 9.777344 3.402344 10.117188 3.398438 10.453125 3.394531 C 10.582031 3.394531 10.710938 3.394531 10.839844 3.394531 C 11.023438 3.390625 11.203125 3.390625 11.382812 3.386719 C 11.4375 3.386719 11.488281 3.386719 11.546875 3.386719 C 11.753906 3.382812 11.925781 3.378906 12.125 3.3125 C 12.125 3.085938 12.125 2.859375 12.125 2.625 C 11.941406 2.5625 11.828125 2.554688 11.636719 2.558594 C 11.574219 2.558594 11.511719 2.558594 11.449219 2.558594 C 11.378906 2.558594 11.3125 2.558594 11.242188 2.5625 C 11.09375 2.5625 10.941406 2.5625 10.792969 2.5625 C 10.675781 2.566406 10.675781 2.566406 10.554688 2.566406 C 10.304688 2.566406 10.054688 2.566406 9.808594 2.566406 C 9.765625 2.566406 9.722656 2.566406 9.679688 2.566406 C 9.507812 2.566406 9.332031 2.566406 9.160156 2.566406 C 8.667969 2.570312 8.175781 2.570312 7.683594 2.574219 C 7.292969 2.578125 6.90625 2.582031 6.515625 2.578125 C 6.308594 2.578125 6.101562 2.578125 5.894531 2.582031 C 4.921875 2.597656 4.230469 2.535156 3.421875 1.960938 C 3.214844 1.816406 3.070312 1.769531 2.8125 1.8125 C 2.707031 1.886719 2.707031 1.886719 2.632812 2.007812 C 2.585938 2.074219 2.585938 2.074219 2.539062 2.144531 C 2.328125 2.496094 2.125 2.847656 1.925781 3.207031 C 1.859375 3.328125 1.792969 3.445312 1.726562 3.566406 C 1.664062 3.671875 1.605469 3.78125 1.542969 3.886719 C 1.453125 4.035156 1.375 4.132812 1.25 4.25 C 1.246094 3.785156 1.238281 3.316406 1.238281 2.851562 C 1.234375 2.636719 1.234375 2.417969 1.230469 2.203125 C 1.226562 1.953125 1.226562 1.703125 1.226562 1.453125 C 1.222656 1.378906 1.222656 1.300781 1.222656 1.21875 C 1.222656 0.535156 1.222656 0.535156 1.5 0.25 C 1.816406 -0.0078125 2.039062 -0.0351562 2.429688 -0.03125 Z M 2.429688 -0.03125 "/>
<path style=" stroke:none;fill-rule:nonzero;fill:rgb(99.607843%,25.882354%,36.470589%);fill-opacity:1;" d="M 3.125 2.875 C 3.34375 2.917969 3.511719 3.003906 3.703125 3.113281 C 3.769531 3.148438 3.832031 3.183594 3.898438 3.222656 C 3.96875 3.261719 4.035156 3.300781 4.105469 3.339844 C 4.175781 3.378906 4.246094 3.417969 4.320312 3.460938 C 4.746094 3.703125 5.167969 3.945312 5.585938 4.195312 C 5.988281 4.433594 6.390625 4.664062 6.796875 4.898438 C 6.867188 4.9375 6.933594 4.976562 7.003906 5.019531 C 7.34375 5.214844 7.679688 5.40625 8.015625 5.597656 C 8.078125 5.632812 8.136719 5.667969 8.199219 5.703125 C 8.3125 5.765625 8.429688 5.832031 8.542969 5.894531 C 8.59375 5.921875 8.644531 5.953125 8.695312 5.980469 C 8.738281 6.007812 8.78125 6.03125 8.828125 6.058594 C 8.9375 6.125 8.9375 6.125 9.0625 6.25 C 9.019531 6.25 8.980469 6.25 8.9375 6.25 C 8.917969 6.296875 8.902344 6.339844 8.882812 6.386719 C 8.816406 6.550781 8.753906 6.710938 8.6875 6.875 C 8.78125 6.90625 8.78125 6.90625 8.875 6.9375 C 8.941406 7.449219 8.714844 7.773438 8.453125 8.203125 C 8.414062 8.269531 8.375 8.335938 8.332031 8.40625 C 7.980469 8.996094 7.980469 8.996094 7.75 9.1875 C 7.515625 9.203125 7.515625 9.203125 7.3125 9.1875 C 7.210938 9.394531 7.105469 9.601562 7 9.8125 C 6.921875 9.757812 6.84375 9.707031 6.765625 9.652344 C 6.425781 9.425781 6.070312 9.226562 5.714844 9.03125 C 5.121094 8.703125 4.53125 8.363281 3.945312 8.019531 C 3.609375 7.824219 3.277344 7.628906 2.9375 7.4375 C 2.902344 7.417969 2.867188 7.394531 2.828125 7.375 C 2.652344 7.273438 2.476562 7.171875 2.300781 7.070312 C 1.921875 6.851562 1.550781 6.625 1.1875 6.375 C 1.269531 6.152344 1.371094 5.949219 1.484375 5.742188 C 1.519531 5.679688 1.554688 5.621094 1.589844 5.554688 C 1.628906 5.488281 1.664062 5.421875 1.703125 5.355469 C 1.742188 5.289062 1.78125 5.21875 1.820312 5.148438 C 2.203125 4.46875 2.59375 3.796875 2.988281 3.125 C 3.035156 3.042969 3.082031 2.960938 3.125 2.875 Z M 3.125 2.875 "/>
<path style=" stroke:none;fill-rule:nonzero;fill:rgb(99.607843%,41.960785%,41.960785%);fill-opacity:1;" d="M 2.972656 1.726562 C 3.230469 1.753906 3.34375 1.84375 3.554688 1.992188 C 4.375 2.558594 5.167969 2.527344 6.136719 2.507812 C 6.304688 2.507812 6.472656 2.507812 6.636719 2.507812 C 7.03125 2.507812 7.421875 2.503906 7.816406 2.5 C 8.519531 2.492188 9.222656 2.488281 9.929688 2.488281 C 10.214844 2.488281 10.5 2.484375 10.785156 2.480469 C 10.9375 2.480469 11.085938 2.476562 11.234375 2.476562 C 11.335938 2.476562 11.335938 2.476562 11.441406 2.472656 C 11.894531 2.472656 11.894531 2.472656 12.105469 2.613281 C 12.226562 2.816406 12.222656 2.957031 12.1875 3.1875 C 12.09375 3.324219 12.09375 3.324219 11.9375 3.4375 C 11.746094 3.460938 11.578125 3.472656 11.386719 3.472656 C 11.332031 3.472656 11.277344 3.472656 11.21875 3.472656 C 11.035156 3.476562 10.851562 3.476562 10.667969 3.476562 C 10.542969 3.476562 10.414062 3.476562 10.289062 3.480469 C 9.953125 3.480469 9.617188 3.480469 9.285156 3.484375 C 8.941406 3.484375 8.601562 3.488281 8.257812 3.488281 C 7.589844 3.496094 6.917969 3.496094 6.25 3.5 C 7.355469 4.394531 8.351562 4.421875 9.703125 4.382812 C 10.097656 4.371094 10.488281 4.371094 10.878906 4.367188 C 11.015625 4.367188 11.152344 4.363281 11.289062 4.359375 C 11.367188 4.355469 11.449219 4.355469 11.535156 4.355469 C 11.605469 4.351562 11.679688 4.351562 11.753906 4.347656 C 11.9375 4.375 11.9375 4.375 12.085938 4.488281 C 12.234375 4.6875 12.222656 4.820312 12.1875 5.0625 C 12.085938 5.214844 12.003906 5.296875 11.820312 5.335938 C 11.671875 5.347656 11.527344 5.351562 11.378906 5.351562 C 11.324219 5.351562 11.273438 5.351562 11.21875 5.355469 C 11.046875 5.355469 10.875 5.359375 10.703125 5.359375 C 10.585938 5.359375 10.46875 5.363281 10.355469 5.363281 C 10.070312 5.371094 9.785156 5.371094 9.5 5.375 C 9.285156 5.777344 9.285156 5.777344 9.0625 6.1875 C 8.789062 6.09375 8.59375 6.019531 8.351562 5.878906 C 8.289062 5.839844 8.226562 5.804688 8.160156 5.765625 C 8.058594 5.707031 8.058594 5.707031 7.953125 5.644531 C 7.882812 5.601562 7.808594 5.558594 7.734375 5.519531 C 7.585938 5.429688 7.4375 5.34375 7.285156 5.253906 C 6.941406 5.054688 6.59375 4.855469 6.25 4.65625 C 5.871094 4.4375 5.488281 4.21875 5.109375 3.996094 C 5 3.933594 4.890625 3.871094 4.777344 3.808594 C 4.640625 3.726562 4.503906 3.648438 4.367188 3.570312 C 3.957031 3.332031 3.542969 3.101562 3.125 2.875 C 3.113281 2.921875 3.101562 2.96875 3.085938 3.019531 C 2.964844 3.34375 2.789062 3.632812 2.609375 3.929688 C 2.570312 3.996094 2.53125 4.058594 2.492188 4.125 C 2.289062 4.476562 2.078125 4.828125 1.871094 5.175781 C 1.828125 5.242188 1.789062 5.3125 1.746094 5.382812 C 1.667969 5.511719 1.589844 5.644531 1.511719 5.777344 C 1.476562 5.835938 1.441406 5.894531 1.40625 5.957031 C 1.371094 6.007812 1.339844 6.0625 1.308594 6.113281 C 1.230469 6.257812 1.230469 6.257812 1.3125 6.4375 C 1.429688 6.523438 1.429688 6.523438 1.582031 6.601562 C 1.664062 6.648438 1.664062 6.648438 1.753906 6.699219 C 1.847656 6.75 1.847656 6.75 1.941406 6.800781 C 2.074219 6.875 2.207031 6.949219 2.339844 7.023438 C 2.40625 7.058594 2.476562 7.097656 2.546875 7.136719 C 2.859375 7.3125 3.171875 7.492188 3.480469 7.675781 C 4.039062 8.003906 4.597656 8.324219 5.160156 8.644531 C 5.757812 8.984375 6.351562 9.328125 6.9375 9.6875 C 6.839844 9.996094 6.710938 10.273438 6.5625 10.5625 C 6.117188 10.347656 5.683594 10.109375 5.257812 9.855469 C 4.652344 9.5 4.046875 9.152344 3.433594 8.804688 C 2.894531 8.496094 2.359375 8.183594 1.832031 7.855469 C 1.5625 7.691406 1.292969 7.558594 1 7.4375 C 0.859375 7.359375 0.71875 7.277344 0.578125 7.191406 C 0.472656 7.128906 0.472656 7.128906 0.367188 7.066406 C 0.0859375 6.867188 0.0859375 6.867188 0 6.6875 C 0.0234375 6.355469 0.109375 6.128906 0.273438 5.84375 C 0.296875 5.808594 0.316406 5.769531 0.339844 5.730469 C 0.40625 5.617188 0.476562 5.5 0.542969 5.382812 C 0.585938 5.304688 0.632812 5.226562 0.675781 5.148438 C 0.859375 4.832031 1.046875 4.519531 1.253906 4.214844 C 1.539062 3.796875 1.777344 3.347656 2.027344 2.90625 C 2.671875 1.773438 2.671875 1.773438 2.972656 1.726562 Z M 2.972656 1.726562 "/>
<path style=" stroke:none;fill-rule:nonzero;fill:rgb(99.607843%,25.098041%,36.078432%);fill-opacity:1;" d="M 9.4375 5.4375 C 9.675781 5.472656 9.84375 5.542969 10.050781 5.664062 C 10.109375 5.699219 10.167969 5.734375 10.226562 5.769531 C 10.320312 5.824219 10.320312 5.824219 10.417969 5.882812 C 10.554688 5.964844 10.6875 6.042969 10.824219 6.121094 C 10.894531 6.164062 10.964844 6.207031 11.035156 6.25 C 11.382812 6.453125 11.734375 6.65625 12.082031 6.855469 C 12.21875 6.933594 12.355469 7.011719 12.488281 7.089844 C 12.554688 7.128906 12.621094 7.164062 12.6875 7.203125 C 12.863281 7.304688 13.039062 7.410156 13.21875 7.511719 C 13.8125 7.859375 13.8125 7.859375 14.414062 8.191406 C 14.71875 8.355469 15.015625 8.527344 15.316406 8.703125 C 15.363281 8.730469 15.410156 8.757812 15.457031 8.785156 C 15.523438 8.824219 15.523438 8.824219 15.59375 8.863281 C 15.632812 8.886719 15.671875 8.910156 15.710938 8.933594 C 15.8125 9 15.8125 9 15.9375 9.125 C 16.011719 9.613281 15.804688 9.925781 15.558594 10.339844 C 15.519531 10.40625 15.480469 10.476562 15.441406 10.546875 C 15.316406 10.761719 15.1875 10.972656 15.0625 11.1875 C 15.023438 11.253906 14.984375 11.324219 14.941406 11.390625 C 14.707031 11.785156 14.472656 12.175781 14.238281 12.5625 C 14.125 12.75 14.015625 12.933594 13.90625 13.121094 C 13.871094 13.175781 13.835938 13.234375 13.800781 13.292969 C 13.738281 13.402344 13.671875 13.511719 13.609375 13.617188 C 13.582031 13.667969 13.554688 13.714844 13.523438 13.761719 C 13.5 13.804688 13.476562 13.847656 13.449219 13.890625 C 13.316406 14.085938 13.242188 14.175781 13.003906 14.226562 C 12.632812 14.207031 12.320312 13.964844 12.011719 13.777344 C 11.941406 13.734375 11.867188 13.691406 11.796875 13.648438 C 11.648438 13.5625 11.5 13.472656 11.347656 13.382812 C 10.996094 13.171875 10.640625 12.96875 10.285156 12.765625 C 10.160156 12.695312 10.039062 12.625 9.914062 12.550781 C 9.847656 12.515625 9.78125 12.480469 9.714844 12.441406 C 9.554688 12.351562 9.417969 12.25 9.273438 12.132812 C 8.304688 11.402344 7.144531 11.542969 5.988281 11.566406 C 5.542969 11.574219 5.097656 11.578125 4.648438 11.582031 C 4.496094 11.582031 4.339844 11.585938 4.1875 11.589844 C 4.089844 11.589844 3.996094 11.59375 3.902344 11.59375 C 3.777344 11.59375 3.777344 11.59375 3.652344 11.597656 C 3.382812 11.554688 3.289062 11.46875 3.125 11.25 C 3.121094 11.023438 3.121094 11.023438 3.1875 10.8125 C 3.371094 10.636719 3.5 10.601562 3.753906 10.605469 C 3.816406 10.605469 3.878906 10.605469 3.941406 10.605469 C 4.042969 10.605469 4.042969 10.605469 4.144531 10.605469 C 4.214844 10.605469 4.285156 10.609375 4.355469 10.609375 C 4.574219 10.609375 4.796875 10.609375 5.015625 10.613281 C 5.164062 10.613281 5.3125 10.613281 5.464844 10.617188 C 5.828125 10.617188 6.195312 10.621094 6.5625 10.625 C 6.570312 10.566406 6.582031 10.507812 6.589844 10.445312 C 6.636719 10.183594 6.726562 10.035156 6.875 9.8125 C 7.0625 9.75 7.0625 9.75 7.21875 9.820312 C 7.28125 9.859375 7.347656 9.894531 7.410156 9.933594 C 7.480469 9.972656 7.550781 10.015625 7.625 10.054688 C 7.703125 10.101562 7.777344 10.144531 7.855469 10.191406 C 7.933594 10.238281 8.015625 10.285156 8.09375 10.328125 C 8.296875 10.449219 8.496094 10.566406 8.699219 10.683594 C 8.867188 10.78125 9.03125 10.878906 9.199219 10.976562 C 9.382812 11.082031 9.5625 11.1875 9.742188 11.292969 C 10.3125 11.625 10.886719 11.953125 11.460938 12.28125 C 11.835938 12.492188 12.203125 12.707031 12.566406 12.933594 C 12.683594 13.011719 12.683594 13.011719 12.8125 13 C 12.839844 12.957031 12.863281 12.910156 12.890625 12.863281 C 13.507812 11.78125 14.125 10.703125 14.75 9.625 C 14.535156 9.445312 14.324219 9.300781 14.082031 9.164062 C 14.011719 9.125 13.941406 9.085938 13.871094 9.046875 C 13.816406 9.015625 13.816406 9.015625 13.757812 8.984375 C 13.601562 8.894531 13.445312 8.804688 13.289062 8.714844 C 13.207031 8.671875 13.125 8.625 13.046875 8.578125 C 12.652344 8.355469 12.257812 8.128906 11.867188 7.902344 C 11.734375 7.824219 11.601562 7.75 11.46875 7.671875 C 11.402344 7.632812 11.335938 7.597656 11.269531 7.558594 C 11.089844 7.453125 10.90625 7.347656 10.726562 7.246094 C 10.578125 7.160156 10.429688 7.074219 10.28125 6.988281 C 10.175781 6.925781 10.070312 6.867188 9.964844 6.808594 C 9.65625 6.628906 9.355469 6.453125 9.0625 6.25 C 9.09375 5.929688 9.261719 5.699219 9.4375 5.4375 Z M 9.4375 5.4375 "/>
<path style=" stroke:none;fill-rule:nonzero;fill:rgb(87.450981%,86.666667%,95.686275%);fill-opacity:1;" d="M 7.6875 11.5625 C 8.390625 11.5625 8.390625 11.5625 8.703125 11.75 C 8.773438 11.792969 8.84375 11.832031 8.914062 11.875 C 8.988281 11.917969 9.058594 11.964844 9.132812 12.007812 C 9.210938 12.054688 9.285156 12.097656 9.363281 12.144531 C 9.523438 12.238281 9.679688 12.332031 9.835938 12.425781 C 10.171875 12.628906 10.507812 12.824219 10.847656 13.019531 C 11.203125 13.226562 11.554688 13.433594 11.90625 13.644531 C 11.957031 13.675781 12.011719 13.710938 12.066406 13.742188 C 12.167969 13.800781 12.265625 13.863281 12.367188 13.925781 C 12.644531 14.09375 12.851562 14.1875 13.1875 14.125 C 13.4375 13.894531 13.59375 13.558594 13.761719 13.261719 C 13.816406 13.164062 13.871094 13.066406 13.929688 12.972656 C 13.953125 12.929688 13.976562 12.886719 14 12.84375 C 14.03125 12.796875 14.03125 12.796875 14.0625 12.75 C 14.082031 12.75 14.105469 12.75 14.125 12.75 C 14.132812 13.164062 14.136719 13.574219 14.140625 13.988281 C 14.140625 14.128906 14.140625 14.269531 14.144531 14.410156 C 14.148438 14.609375 14.148438 14.8125 14.148438 15.015625 C 14.152344 15.078125 14.152344 15.140625 14.152344 15.203125 C 14.152344 15.292969 14.152344 15.292969 14.152344 15.382812 C 14.152344 15.433594 14.15625 15.484375 14.15625 15.539062 C 14.109375 15.757812 14.046875 15.851562 13.875 16 C 13.675781 16.046875 13.480469 16.039062 13.277344 16.035156 C 13.1875 16.035156 13.1875 16.035156 13.09375 16.035156 C 12.894531 16.035156 12.695312 16.03125 12.496094 16.03125 C 12.359375 16.03125 12.21875 16.03125 12.082031 16.03125 C 11.71875 16.027344 11.355469 16.023438 10.988281 16.019531 C 10.550781 16.015625 10.117188 16.015625 9.679688 16.015625 C 9.015625 16.011719 8.351562 16.003906 7.6875 16 C 7.6875 14.535156 7.6875 13.070312 7.6875 11.5625 Z M 7.6875 11.5625 "/>
<path style=" stroke:none;fill-rule:nonzero;fill:rgb(100%,95.686275%,95.686275%);fill-opacity:1;" d="M 2.449219 -0.0273438 C 2.507812 -0.0273438 2.566406 -0.0273438 2.621094 -0.0273438 C 2.808594 -0.0273438 2.996094 -0.0273438 3.183594 -0.0234375 C 3.3125 -0.0234375 3.441406 -0.0234375 3.574219 -0.0234375 C 3.914062 -0.0234375 4.253906 -0.0195312 4.59375 -0.015625 C 4.945312 -0.015625 5.292969 -0.0117188 5.640625 -0.0117188 C 6.324219 -0.0078125 7.003906 -0.00390625 7.6875 0 C 7.6875 0.824219 7.6875 1.648438 7.6875 2.5 C 7.238281 2.515625 6.789062 2.53125 6.335938 2.539062 C 6.183594 2.539062 6.03125 2.546875 5.878906 2.550781 C 4.90625 2.589844 4.230469 2.535156 3.421875 1.960938 C 3.257812 1.847656 3.183594 1.8125 2.980469 1.777344 C 2.785156 1.816406 2.742188 1.847656 2.632812 2.007812 C 2.585938 2.074219 2.585938 2.074219 2.539062 2.144531 C 2.324219 2.492188 2.125 2.851562 1.925781 3.207031 C 1.859375 3.328125 1.792969 3.445312 1.726562 3.566406 C 1.664062 3.671875 1.605469 3.78125 1.542969 3.886719 C 1.453125 4.035156 1.371094 4.132812 1.25 4.25 C 1.246094 3.785156 1.238281 3.316406 1.238281 2.851562 C 1.234375 2.632812 1.234375 2.417969 1.230469 2.203125 C 1.226562 1.953125 1.226562 1.703125 1.226562 1.453125 C 1.222656 1.378906 1.222656 1.300781 1.222656 1.21875 C 1.222656 0.535156 1.222656 0.535156 1.5 0.25 C 1.820312 -0.015625 2.054688 -0.0351562 2.449219 -0.0273438 Z M 2.449219 -0.0273438 "/>
<path style=" stroke:none;fill-rule:nonzero;fill:rgb(82.352942%,81.568629%,94.901961%);fill-opacity:1;" d="M 15.582031 0.09375 C 15.921875 0.410156 16.015625 0.710938 16.03125 1.164062 C 16.035156 1.324219 16.035156 1.488281 16.035156 1.648438 C 16.035156 1.734375 16.035156 1.824219 16.035156 1.910156 C 16.035156 2.089844 16.035156 2.273438 16.03125 2.453125 C 16.03125 2.683594 16.03125 2.917969 16.035156 3.148438 C 16.035156 3.328125 16.035156 3.503906 16.035156 3.683594 C 16.035156 3.769531 16.035156 3.855469 16.035156 3.941406 C 16.035156 4.058594 16.035156 4.179688 16.03125 4.296875 C 16.03125 4.398438 16.03125 4.398438 16.03125 4.503906 C 15.992188 4.738281 15.925781 4.839844 15.75 5 C 15.566406 5.035156 15.566406 5.035156 15.355469 5.03125 C 15.28125 5.03125 15.207031 5.027344 15.128906 5.027344 C 15.050781 5.023438 14.972656 5.023438 14.890625 5.019531 C 14.8125 5.019531 14.730469 5.015625 14.648438 5.015625 C 14.453125 5.011719 14.257812 5.007812 14.0625 5 C 14.058594 4.460938 14.054688 3.921875 14.050781 3.386719 C 14.050781 3.132812 14.050781 2.882812 14.046875 2.632812 C 14.046875 2.394531 14.046875 2.152344 14.042969 1.910156 C 14.042969 1.816406 14.042969 1.726562 14.042969 1.632812 C 14.042969 1.503906 14.042969 1.375 14.042969 1.246094 C 14.039062 1.171875 14.039062 1.101562 14.039062 1.023438 C 14.070312 0.738281 14.152344 0.488281 14.34375 0.265625 C 14.734375 -0.0273438 15.128906 -0.113281 15.582031 0.09375 Z M 15.582031 0.09375 "/>
<path style=" stroke:none;fill-rule:nonzero;fill:rgb(27.058825%,23.921569%,51.372552%);fill-opacity:1;" d="M 4.5 2.5 C 5.464844 2.496094 6.429688 2.488281 7.394531 2.488281 C 7.84375 2.484375 8.292969 2.484375 8.742188 2.480469 C 9.132812 2.480469 9.523438 2.476562 9.914062 2.476562 C 10.121094 2.476562 10.328125 2.476562 10.535156 2.472656 C 10.765625 2.472656 10.996094 2.472656 11.226562 2.472656 C 11.296875 2.46875 11.363281 2.46875 11.433594 2.46875 C 11.496094 2.46875 11.558594 2.46875 11.625 2.46875 C 11.679688 2.46875 11.734375 2.46875 11.789062 2.46875 C 11.988281 2.511719 12.0625 2.59375 12.1875 2.75 C 12.222656 2.988281 12.230469 3.125 12.09375 3.324219 C 11.871094 3.484375 11.65625 3.476562 11.386719 3.480469 C 11.304688 3.480469 11.304688 3.480469 11.21875 3.484375 C 11.035156 3.488281 10.851562 3.492188 10.667969 3.492188 C 10.605469 3.492188 10.539062 3.496094 10.476562 3.496094 C 10.136719 3.5 9.800781 3.503906 9.464844 3.503906 C 9.1875 3.507812 8.914062 3.511719 8.636719 3.515625 C 5.726562 3.589844 5.726562 3.589844 4.589844 2.648438 C 4.558594 2.621094 4.53125 2.59375 4.5 2.5625 C 4.5 2.542969 4.5 2.519531 4.5 2.5 Z M 4.5 2.5 "/>
<path style=" stroke:none;fill-rule:nonzero;fill:rgb(87.058824%,85.09804%,94.509804%);fill-opacity:1;" d="M 12.375 8.957031 C 12.792969 9.097656 13.125 9.394531 13.375 9.75 C 13.503906 10.136719 13.476562 10.460938 13.300781 10.828125 C 13.167969 11.070312 13.027344 11.257812 12.8125 11.4375 C 12.769531 11.472656 12.726562 11.507812 12.683594 11.546875 C 12.410156 11.722656 12.0625 11.746094 11.75 11.6875 C 11.410156 11.53125 11.085938 11.375 10.875 11.0625 C 10.894531 10.765625 10.996094 10.554688 11.140625 10.300781 C 11.164062 10.265625 11.183594 10.230469 11.203125 10.191406 C 11.246094 10.117188 11.289062 10.046875 11.332031 9.972656 C 11.398438 9.859375 11.464844 9.746094 11.527344 9.632812 C 11.964844 8.882812 11.964844 8.882812 12.375 8.957031 Z M 12.375 8.957031 "/>
<path style=" stroke:none;fill-rule:nonzero;fill:rgb(100%,94.117647%,94.509804%);fill-opacity:1;" d="M 3.582031 3.914062 C 3.792969 3.945312 3.921875 4.019531 4.097656 4.136719 C 4.15625 4.175781 4.214844 4.210938 4.273438 4.25 C 4.617188 4.515625 4.785156 4.796875 4.84375 5.222656 C 4.832031 5.636719 4.605469 6.054688 4.339844 6.363281 C 4.011719 6.652344 3.671875 6.722656 3.246094 6.714844 C 2.929688 6.667969 2.6875 6.503906 2.4375 6.3125 C 2.398438 6.285156 2.359375 6.261719 2.324219 6.234375 C 2.25 6.125 2.25 6.125 2.265625 5.921875 C 2.3125 5.679688 2.386719 5.523438 2.515625 5.308594 C 2.558594 5.242188 2.597656 5.171875 2.640625 5.101562 C 2.6875 5.03125 2.730469 4.960938 2.773438 4.890625 C 2.816406 4.820312 2.859375 4.746094 2.902344 4.675781 C 3.34375 3.953125 3.34375 3.953125 3.582031 3.914062 Z M 3.582031 3.914062 "/>
<path style=" stroke:none;fill-rule:nonzero;fill:rgb(99.607843%,94.509804%,94.509804%);fill-opacity:1;" d="M 7.40625 6.160156 C 7.625 6.1875 7.625 6.1875 7.730469 6.285156 C 7.839844 6.488281 7.84375 6.65625 7.851562 6.886719 C 7.839844 7.152344 7.839844 7.152344 7.9375 7.375 C 7.960938 7.339844 7.980469 7.304688 8.003906 7.269531 C 8.03125 7.222656 8.0625 7.175781 8.089844 7.128906 C 8.117188 7.082031 8.144531 7.039062 8.175781 6.992188 C 8.25 6.875 8.25 6.875 8.3125 6.8125 C 8.5625 6.796875 8.660156 6.792969 8.875 6.9375 C 8.964844 7.441406 8.710938 7.785156 8.453125 8.203125 C 8.414062 8.269531 8.375 8.335938 8.332031 8.40625 C 7.980469 9 7.980469 9 7.75 9.1875 C 7.523438 9.183594 7.523438 9.183594 7.3125 9.125 C 7.160156 8.894531 7.144531 8.691406 7.117188 8.425781 C 7.113281 8.378906 7.105469 8.332031 7.101562 8.285156 C 7.085938 8.167969 7.074219 8.054688 7.0625 7.9375 C 7.039062 7.976562 7.015625 8.015625 6.992188 8.058594 C 6.738281 8.480469 6.738281 8.480469 6.492188 8.582031 C 6.3125 8.5625 6.3125 8.5625 6.160156 8.46875 C 6.050781 8.296875 6.046875 8.210938 6.082031 8.015625 C 6.183594 7.6875 6.378906 7.402344 6.554688 7.109375 C 6.59375 7.042969 6.632812 6.972656 6.675781 6.902344 C 7.09375 6.199219 7.09375 6.199219 7.40625 6.160156 Z M 7.40625 6.160156 "/>
<path style=" stroke:none;fill-rule:nonzero;fill:rgb(37.64706%,33.333334%,68.627453%);fill-opacity:1;" d="M 3.742188 10.589844 C 3.800781 10.585938 3.859375 10.585938 3.921875 10.582031 C 3.988281 10.578125 4.054688 10.578125 4.121094 10.574219 C 4.1875 10.574219 4.257812 10.570312 4.324219 10.570312 C 4.546875 10.5625 4.765625 10.5625 4.984375 10.558594 C 5.058594 10.558594 5.132812 10.558594 5.207031 10.554688 C 6.355469 10.550781 7.203125 10.640625 8.101562 11.414062 C 8.1875 11.5 8.1875 11.5 8.1875 11.5625 C 7.574219 11.570312 6.960938 11.574219 6.34375 11.578125 C 6.058594 11.582031 5.777344 11.582031 5.492188 11.585938 C 5.214844 11.589844 4.941406 11.589844 4.664062 11.59375 C 4.558594 11.59375 4.457031 11.59375 4.351562 11.59375 C 4.203125 11.597656 4.054688 11.597656 3.910156 11.597656 C 3.867188 11.597656 3.824219 11.601562 3.777344 11.601562 C 3.539062 11.597656 3.441406 11.566406 3.253906 11.417969 C 3.125 11.25 3.125 11.25 3.121094 11.023438 C 3.226562 10.691406 3.402344 10.605469 3.742188 10.589844 Z M 3.742188 10.589844 "/>
<path style=" stroke:none;fill-rule:nonzero;fill:rgb(37.64706%,33.725491%,68.627453%);fill-opacity:1;" d="M 3.804688 12.476562 C 3.917969 12.472656 3.917969 12.472656 4.03125 12.472656 C 4.148438 12.472656 4.148438 12.472656 4.269531 12.472656 C 4.351562 12.472656 4.4375 12.472656 4.519531 12.472656 C 4.695312 12.472656 4.867188 12.472656 5.042969 12.472656 C 5.261719 12.472656 5.484375 12.472656 5.707031 12.46875 C 5.921875 12.46875 6.132812 12.46875 6.34375 12.46875 C 6.425781 12.46875 6.503906 12.46875 6.585938 12.464844 C 6.660156 12.46875 6.734375 12.46875 6.8125 12.46875 C 6.878906 12.46875 6.941406 12.46875 7.007812 12.46875 C 7.234375 12.507812 7.339844 12.585938 7.5 12.75 C 7.539062 12.96875 7.539062 12.96875 7.5 13.1875 C 7.277344 13.414062 7.125 13.46875 6.8125 13.472656 C 6.738281 13.472656 6.664062 13.472656 6.589844 13.472656 C 6.507812 13.472656 6.429688 13.472656 6.347656 13.472656 C 6.265625 13.472656 6.183594 13.472656 6.097656 13.472656 C 5.925781 13.476562 5.753906 13.476562 5.578125 13.472656 C 5.355469 13.472656 5.136719 13.472656 4.914062 13.476562 C 4.703125 13.476562 4.488281 13.476562 4.277344 13.476562 C 4.199219 13.476562 4.117188 13.476562 4.035156 13.480469 C 3.425781 13.472656 3.425781 13.472656 3.230469 13.292969 C 3.125 13.125 3.125 13.125 3.121094 12.898438 C 3.238281 12.527344 3.4375 12.476562 3.804688 12.476562 Z M 3.804688 12.476562 "/>
<path style=" stroke:none;fill-rule:nonzero;fill:rgb(87.058824%,84.705883%,94.509804%);fill-opacity:1;" d="M 10.554688 7.929688 C 10.78125 8.011719 10.972656 8.105469 11.179688 8.226562 C 11.21875 8.246094 11.253906 8.265625 11.292969 8.285156 C 11.398438 8.351562 11.398438 8.351562 11.5625 8.5 C 11.589844 8.71875 11.605469 8.863281 11.492188 9.058594 C 11.316406 9.15625 11.199219 9.148438 11 9.125 C 10.789062 9.03125 10.789062 9.03125 10.625 8.9375 C 10.730469 9.046875 10.816406 9.128906 10.949219 9.203125 C 11.0625 9.3125 11.0625 9.3125 11.09375 9.53125 C 11.0625 9.75 11.0625 9.75 10.960938 9.875 C 10.761719 9.960938 10.644531 9.929688 10.4375 9.875 C 10.289062 9.808594 10.289062 9.808594 10.1875 9.75 C 10.167969 9.792969 10.144531 9.832031 10.125 9.875 C 10.195312 9.902344 10.195312 9.902344 10.269531 9.929688 C 10.4375 10 10.4375 10 10.625 10.125 C 10.648438 10.339844 10.664062 10.492188 10.554688 10.683594 C 10.382812 10.78125 10.257812 10.765625 10.0625 10.75 C 9.882812 10.660156 9.882812 10.660156 9.707031 10.542969 C 9.648438 10.503906 9.589844 10.464844 9.53125 10.425781 C 9.269531 10.234375 9.269531 10.234375 9.1875 10.125 C 9.15625 9.851562 9.230469 9.699219 9.367188 9.464844 C 9.40625 9.402344 9.445312 9.335938 9.484375 9.269531 C 9.523438 9.203125 9.5625 9.136719 9.605469 9.066406 C 9.644531 9 9.683594 8.933594 9.722656 8.863281 C 10.269531 7.941406 10.269531 7.941406 10.554688 7.929688 Z M 10.554688 7.929688 "/>
<path style=" stroke:none;fill-rule:nonzero;fill:rgb(100%,94.509804%,94.509804%);fill-opacity:1;" d="M 5.679688 5.15625 C 5.914062 5.195312 6.0625 5.273438 6.265625 5.398438 C 6.363281 5.457031 6.363281 5.457031 6.460938 5.515625 C 6.625 5.625 6.625 5.625 6.75 5.75 C 6.773438 5.964844 6.773438 5.964844 6.75 6.1875 C 6.648438 6.3125 6.648438 6.3125 6.5 6.375 C 6.25 6.359375 6.039062 6.289062 5.8125 6.1875 C 5.859375 6.226562 5.910156 6.265625 5.960938 6.304688 C 6.125 6.4375 6.125 6.4375 6.25 6.5625 C 6.222656 6.964844 6.222656 6.964844 6.0625 7.125 C 5.757812 7.160156 5.574219 7.085938 5.3125 6.9375 C 5.425781 7.058594 5.527344 7.144531 5.667969 7.234375 C 5.8125 7.375 5.8125 7.375 5.839844 7.601562 C 5.8125 7.8125 5.8125 7.8125 5.6875 7.9375 C 5.277344 8.019531 5.007812 7.820312 4.660156 7.613281 C 4.5 7.5 4.5 7.5 4.375 7.3125 C 4.339844 7.039062 4.421875 6.886719 4.558594 6.652344 C 4.597656 6.585938 4.632812 6.523438 4.671875 6.453125 C 4.714844 6.386719 4.753906 6.320312 4.796875 6.25 C 4.835938 6.183594 4.875 6.113281 4.917969 6.046875 C 5.417969 5.203125 5.417969 5.203125 5.679688 5.15625 Z M 5.679688 5.15625 "/>
<path style=" stroke:none;fill-rule:nonzero;fill:rgb(27.450982%,23.921569%,51.372552%);fill-opacity:1;" d="M 7.75 4.375 C 8.292969 4.371094 8.832031 4.363281 9.375 4.363281 C 9.625 4.359375 9.878906 4.359375 10.128906 4.355469 C 10.371094 4.351562 10.613281 4.351562 10.859375 4.351562 C 10.949219 4.351562 11.042969 4.351562 11.136719 4.347656 C 11.265625 4.347656 11.394531 4.347656 11.523438 4.347656 C 11.597656 4.347656 11.671875 4.34375 11.75 4.34375 C 11.976562 4.382812 12.050781 4.441406 12.1875 4.625 C 12.222656 4.859375 12.230469 4.996094 12.09375 5.199219 C 11.863281 5.367188 11.65625 5.359375 11.378906 5.367188 C 11.324219 5.371094 11.265625 5.371094 11.210938 5.375 C 11.03125 5.378906 10.851562 5.382812 10.671875 5.382812 C 10.609375 5.382812 10.550781 5.382812 10.488281 5.386719 C 9.402344 5.390625 8.574219 5.195312 7.75 4.4375 C 7.75 4.417969 7.75 4.394531 7.75 4.375 Z M 7.75 4.375 "/>
<path style=" stroke:none;fill-rule:nonzero;fill:rgb(37.64706%,33.333334%,68.235296%);fill-opacity:1;" d="M 4.5 2.5 C 5.550781 2.5 6.605469 2.5 7.6875 2.5 C 7.6875 2.808594 7.6875 3.117188 7.6875 3.4375 C 6.40625 3.5625 5.523438 3.371094 4.5 2.5625 C 4.5 2.542969 4.5 2.519531 4.5 2.5 Z M 4.5 2.5 "/>
<path style=" stroke:none;fill-rule:nonzero;fill:rgb(87.058824%,84.313726%,94.117647%);fill-opacity:1;" d="M 9.527344 7.347656 C 9.6875 7.375 9.6875 7.375 9.835938 7.476562 C 9.9375 7.625 9.9375 7.625 9.925781 7.796875 C 9.871094 8.023438 9.785156 8.1875 9.667969 8.386719 C 9.648438 8.421875 9.628906 8.457031 9.605469 8.496094 C 9.5625 8.566406 9.519531 8.640625 9.476562 8.714844 C 9.410156 8.828125 9.34375 8.941406 9.277344 9.054688 C 8.957031 9.605469 8.957031 9.605469 8.8125 9.75 C 8.4375 9.785156 8.4375 9.785156 8.25 9.683594 C 8.148438 9.488281 8.207031 9.335938 8.25 9.125 C 8.339844 8.933594 8.339844 8.933594 8.453125 8.746094 C 8.496094 8.679688 8.539062 8.609375 8.578125 8.539062 C 8.621094 8.46875 8.667969 8.398438 8.710938 8.328125 C 8.753906 8.257812 8.796875 8.183594 8.839844 8.113281 C 9.28125 7.390625 9.28125 7.390625 9.527344 7.347656 Z M 9.527344 7.347656 "/>
<path style=" stroke:none;fill-rule:nonzero;fill:rgb(87.450981%,85.490197%,94.509804%);fill-opacity:1;" d="M 8.625 6.8125 C 8.707031 6.855469 8.789062 6.894531 8.875 6.9375 C 8.941406 7.449219 8.714844 7.773438 8.453125 8.203125 C 8.414062 8.269531 8.375 8.335938 8.332031 8.40625 C 7.976562 9.003906 7.976562 9.003906 7.75 9.1875 C 7.515625 9.171875 7.515625 9.171875 7.3125 9.125 C 7.339844 9.078125 7.367188 9.03125 7.394531 8.984375 C 7.808594 8.261719 8.214844 7.539062 8.625 6.8125 Z M 8.625 6.8125 "/>
<path style=" stroke:none;fill-rule:nonzero;fill:rgb(100%,94.901961%,94.901961%);fill-opacity:1;" d="M 6.125 3.4375 C 6.640625 3.4375 7.15625 3.4375 7.6875 3.4375 C 7.6875 3.746094 7.6875 4.054688 7.6875 4.375 C 7.558594 4.300781 7.425781 4.226562 7.292969 4.148438 C 6.90625 3.925781 6.515625 3.710938 6.125 3.5 C 6.125 3.480469 6.125 3.457031 6.125 3.4375 Z M 6.125 3.4375 "/>
<path style=" stroke:none;fill-rule:nonzero;fill:rgb(81.568629%,4.313726%,34.117648%);fill-opacity:1;" d="M 12.3125 9.875 C 12.554688 9.992188 12.554688 9.992188 12.625 10.0625 C 12.652344 10.308594 12.632812 10.421875 12.511719 10.640625 C 12.375 10.8125 12.375 10.8125 12.1875 10.9375 C 12.023438 10.921875 12.023438 10.921875 11.875 10.875 C 11.855469 10.832031 11.832031 10.792969 11.8125 10.75 C 11.890625 10.597656 11.96875 10.453125 12.058594 10.304688 C 12.09375 10.242188 12.09375 10.242188 12.132812 10.179688 C 12.191406 10.078125 12.25 9.976562 12.3125 9.875 Z M 12.3125 9.875 "/>
<path style=" stroke:none;fill-rule:nonzero;fill:rgb(100%,28.235295%,38.82353%);fill-opacity:1;" d="M 3.6875 4.875 C 3.929688 4.992188 3.929688 4.992188 4 5.0625 C 4.027344 5.308594 4.007812 5.421875 3.886719 5.640625 C 3.75 5.8125 3.75 5.8125 3.5625 5.9375 C 3.363281 5.914062 3.363281 5.914062 3.1875 5.875 C 3.277344 5.636719 3.386719 5.421875 3.507812 5.199219 C 3.542969 5.136719 3.574219 5.078125 3.609375 5.015625 C 3.636719 4.96875 3.660156 4.921875 3.6875 4.875 Z M 3.6875 4.875 "/>
<path style=" stroke:none;fill-rule:nonzero;fill:rgb(30.588236%,24.705882%,51.764709%);fill-opacity:1;" d="M 7.6875 11.25 C 7.933594 11.375 7.933594 11.375 8.1875 11.5 C 8.1875 11.519531 8.1875 11.542969 8.1875 11.5625 C 8.023438 11.5625 7.859375 11.5625 7.6875 11.5625 C 7.6875 11.460938 7.6875 11.355469 7.6875 11.25 Z M 7.6875 11.25 "/>
<path style=" stroke:none;fill-rule:nonzero;fill:rgb(81.960785%,8.627451%,37.254903%);fill-opacity:1;" d="M 10.625 8.9375 C 10.78125 8.96875 10.78125 8.96875 10.9375 9 C 10.957031 9.082031 10.980469 9.164062 11 9.25 C 10.875 9.1875 10.753906 9.125 10.625 9.0625 C 10.625 9.019531 10.625 8.980469 10.625 8.9375 Z M 10.625 8.9375 "/>
</g>
</svg>
