<?xml version="1.0" encoding="UTF-8"?>
<svg xmlns="http://www.w3.org/2000/svg" xmlns:xlink="http://www.w3.org/1999/xlink" width="16" height="16" viewBox="0 0 16 16" version="1.1">
<g id="surface1">
<path style=" stroke:none;fill-rule:nonzero;fill:rgb(1.568628%,1.568628%,1.568628%);fill-opacity:1;" d="M 11.8125 1 C 11.832031 1.101562 11.855469 1.207031 11.875 1.3125 C 11.941406 1.3125 12.011719 1.3125 12.078125 1.308594 C 12.332031 1.304688 12.582031 1.304688 12.835938 1.300781 C 12.945312 1.300781 13.054688 1.300781 13.160156 1.296875 C 13.320312 1.296875 13.476562 1.296875 13.632812 1.292969 C 13.703125 1.292969 13.703125 1.292969 13.777344 1.292969 C 14.121094 1.292969 14.375 1.359375 14.6875 1.5 C 14.992188 1.8125 15.078125 2.058594 15.078125 2.488281 C 15.078125 2.53125 15.078125 2.578125 15.078125 2.621094 C 15.082031 2.765625 15.082031 2.910156 15.082031 3.050781 C 15.082031 3.15625 15.082031 3.257812 15.082031 3.363281 C 15.082031 3.644531 15.082031 3.921875 15.082031 4.203125 C 15.082031 4.378906 15.082031 4.554688 15.085938 4.730469 C 15.085938 5.34375 15.085938 5.953125 15.085938 6.566406 C 15.085938 7.136719 15.085938 7.707031 15.089844 8.277344 C 15.089844 8.765625 15.089844 9.257812 15.089844 9.746094 C 15.089844 10.039062 15.089844 10.332031 15.09375 10.625 C 15.09375 10.898438 15.09375 11.171875 15.09375 11.449219 C 15.09375 11.550781 15.09375 11.652344 15.09375 11.75 C 15.101562 12.707031 15.101562 12.707031 14.8125 13.125 C 14.4375 13.4375 14.0625 13.40625 13.59375 13.398438 C 13.519531 13.398438 13.445312 13.398438 13.367188 13.398438 C 13.132812 13.398438 12.894531 13.394531 12.660156 13.390625 C 12.5 13.390625 12.339844 13.386719 12.179688 13.386719 C 11.785156 13.382812 11.390625 13.378906 11 13.375 C 10.984375 13.417969 10.96875 13.460938 10.953125 13.503906 C 10.863281 13.714844 10.757812 13.914062 10.648438 14.113281 C 10.628906 14.152344 10.609375 14.1875 10.585938 14.226562 C 10.539062 14.316406 10.488281 14.410156 10.4375 14.5 C 10.363281 14.5 10.285156 14.5 10.207031 14.5 C 9.496094 14.5 8.785156 14.5 8.070312 14.503906 C 7.703125 14.507812 7.339844 14.507812 6.972656 14.507812 C 6.617188 14.507812 6.265625 14.507812 5.910156 14.511719 C 5.777344 14.511719 5.640625 14.511719 5.507812 14.511719 C 5.316406 14.511719 5.128906 14.511719 4.9375 14.515625 C 4.882812 14.511719 4.828125 14.511719 4.769531 14.511719 C 4.394531 14.519531 4.171875 14.621094 3.871094 14.847656 C 3.515625 15.109375 3.050781 15.109375 2.625 15.0625 C 2.027344 14.917969 1.558594 14.65625 1.226562 14.128906 C 0.941406 13.605469 0.851562 13.101562 0.972656 12.511719 C 1.140625 11.972656 1.492188 11.503906 1.984375 11.21875 C 2.519531 10.996094 3.136719 10.921875 3.6875 11.125 C 3.769531 11.1875 3.851562 11.25 3.933594 11.316406 C 4.410156 11.605469 4.953125 11.542969 5.488281 11.535156 C 5.6875 11.53125 5.890625 11.53125 6.089844 11.53125 C 6.65625 11.527344 7.222656 11.519531 7.789062 11.515625 C 8.140625 11.507812 8.488281 11.507812 8.835938 11.507812 C 8.96875 11.507812 9.097656 11.503906 9.230469 11.503906 C 10.261719 11.480469 10.261719 11.480469 10.53125 11.671875 C 10.636719 11.820312 10.691406 11.953125 10.75 12.125 C 10.796875 12.21875 10.847656 12.316406 10.898438 12.410156 C 10.949219 12.515625 10.949219 12.515625 11 12.625 C 11.453125 12.628906 11.902344 12.632812 12.355469 12.636719 C 12.507812 12.636719 12.664062 12.636719 12.816406 12.640625 C 13.035156 12.640625 13.257812 12.640625 13.476562 12.644531 C 13.546875 12.644531 13.617188 12.644531 13.6875 12.644531 C 13.78125 12.644531 13.78125 12.644531 13.878906 12.644531 C 13.9375 12.648438 13.992188 12.648438 14.050781 12.648438 C 14.097656 12.640625 14.140625 12.632812 14.1875 12.625 C 14.335938 12.398438 14.328125 12.300781 14.328125 12.03125 C 14.328125 11.992188 14.328125 11.949219 14.328125 11.90625 C 14.328125 11.765625 14.328125 11.628906 14.328125 11.488281 C 14.328125 11.390625 14.328125 11.289062 14.328125 11.191406 C 14.328125 10.921875 14.328125 10.652344 14.328125 10.378906 C 14.328125 10.097656 14.328125 9.816406 14.328125 9.53125 C 14.328125 9.058594 14.328125 8.582031 14.328125 8.109375 C 14.328125 7.558594 14.328125 7.007812 14.328125 6.460938 C 14.328125 5.988281 14.328125 5.515625 14.328125 5.046875 C 14.328125 4.765625 14.328125 4.484375 14.328125 4.203125 C 14.328125 3.9375 14.328125 3.671875 14.328125 3.40625 C 14.328125 3.3125 14.328125 3.214844 14.328125 3.117188 C 14.328125 2.984375 14.328125 2.851562 14.328125 2.71875 C 14.328125 2.644531 14.328125 2.570312 14.328125 2.492188 C 14.328125 2.300781 14.328125 2.300781 14.1875 2.125 C 14.011719 2.105469 13.847656 2.09375 13.667969 2.09375 C 13.617188 2.09375 13.566406 2.089844 13.515625 2.089844 C 13.351562 2.085938 13.1875 2.085938 13.023438 2.082031 C 12.914062 2.078125 12.800781 2.078125 12.691406 2.074219 C 12.417969 2.070312 12.148438 2.066406 11.875 2.0625 C 11.832031 2.1875 11.792969 2.308594 11.75 2.4375 C 11.421875 2.40625 11.175781 2.328125 10.882812 2.175781 C 10.8125 2.140625 10.742188 2.105469 10.667969 2.066406 C 10.5 1.9375 10.5 1.9375 10.445312 1.734375 C 10.441406 1.679688 10.441406 1.621094 10.4375 1.5625 C 10.640625 1.382812 10.855469 1.242188 11.089844 1.105469 C 11.144531 1.074219 11.203125 1.039062 11.261719 1.003906 C 11.472656 0.925781 11.597656 0.945312 11.8125 1 Z M 11.8125 1 "/>
<path style=" stroke:none;fill-rule:nonzero;fill:rgb(97.254902%,74.117649%,29.019609%);fill-opacity:1;" d="M 4.25 7 C 4.28125 7.03125 4.28125 7.03125 4.3125 7.0625 C 4.5 7.066406 4.683594 7.066406 4.871094 7.066406 C 4.992188 7.066406 5.113281 7.066406 5.234375 7.0625 C 5.296875 7.0625 5.363281 7.0625 5.429688 7.0625 C 5.773438 7.0625 6.113281 7.0625 6.453125 7.0625 C 6.890625 7.0625 7.324219 7.0625 7.761719 7.058594 C 8.109375 7.054688 8.460938 7.054688 8.8125 7.058594 C 8.945312 7.058594 9.082031 7.058594 9.214844 7.054688 C 9.402344 7.054688 9.589844 7.054688 9.777344 7.054688 C 9.832031 7.054688 9.886719 7.054688 9.945312 7.050781 C 10.105469 7.054688 10.222656 7.066406 10.375 7.125 C 10.535156 7.296875 10.640625 7.480469 10.75 7.6875 C 10.792969 7.761719 10.839844 7.835938 10.882812 7.910156 C 10.921875 7.976562 10.957031 8.042969 10.996094 8.109375 C 11.035156 8.175781 11.070312 8.242188 11.109375 8.3125 C 11.199219 8.527344 11.1875 8.59375 11.125 8.8125 C 11.054688 8.960938 11.054688 8.960938 10.96875 9.117188 C 10.9375 9.171875 10.90625 9.226562 10.875 9.285156 C 10.828125 9.371094 10.828125 9.371094 10.777344 9.457031 C 10.730469 9.542969 10.730469 9.542969 10.679688 9.632812 C 10.597656 9.777344 10.519531 9.917969 10.4375 10.0625 C 10.363281 10.0625 10.285156 10.0625 10.207031 10.0625 C 9.496094 10.0625 8.785156 10.0625 8.070312 10.066406 C 7.703125 10.070312 7.339844 10.070312 6.972656 10.070312 C 6.617188 10.070312 6.265625 10.070312 5.910156 10.074219 C 5.777344 10.074219 5.640625 10.074219 5.507812 10.074219 C 5.316406 10.074219 5.128906 10.074219 4.9375 10.078125 C 4.882812 10.074219 4.828125 10.074219 4.769531 10.074219 C 4.394531 10.082031 4.175781 10.183594 3.875 10.410156 C 3.523438 10.660156 3.042969 10.675781 2.625 10.625 C 2.027344 10.476562 1.558594 10.21875 1.226562 9.691406 C 0.941406 9.167969 0.84375 8.65625 0.976562 8.070312 C 1.113281 7.65625 1.308594 7.359375 1.625 7.0625 C 1.65625 7.03125 1.691406 7 1.722656 6.96875 C 2.5 6.328125 3.457031 6.535156 4.25 7 Z M 4.25 7 "/>
<path style=" stroke:none;fill-rule:nonzero;fill:rgb(92.156863%,39.607844%,38.039216%);fill-opacity:1;" d="M 3.796875 2.335938 C 4.304688 2.734375 4.878906 2.671875 5.488281 2.660156 C 5.691406 2.65625 5.890625 2.652344 6.089844 2.652344 C 6.65625 2.652344 7.222656 2.644531 7.789062 2.636719 C 8.140625 2.636719 8.488281 2.632812 8.835938 2.632812 C 8.96875 2.632812 9.097656 2.628906 9.230469 2.628906 C 10.265625 2.605469 10.265625 2.605469 10.535156 2.808594 C 10.636719 2.953125 10.695312 3.082031 10.75 3.25 C 10.792969 3.324219 10.835938 3.398438 10.882812 3.472656 C 10.921875 3.539062 10.957031 3.605469 10.996094 3.671875 C 11.035156 3.738281 11.070312 3.804688 11.109375 3.875 C 11.199219 4.089844 11.1875 4.15625 11.125 4.375 C 11.054688 4.523438 11.054688 4.523438 10.96875 4.679688 C 10.9375 4.734375 10.90625 4.789062 10.875 4.847656 C 10.828125 4.933594 10.828125 4.933594 10.777344 5.019531 C 10.726562 5.105469 10.726562 5.105469 10.679688 5.195312 C 10.597656 5.339844 10.519531 5.480469 10.4375 5.625 C 10.363281 5.625 10.285156 5.625 10.207031 5.625 C 9.496094 5.625 8.785156 5.625 8.070312 5.628906 C 7.703125 5.632812 7.339844 5.632812 6.972656 5.632812 C 6.617188 5.632812 6.265625 5.632812 5.910156 5.636719 C 5.777344 5.636719 5.640625 5.636719 5.507812 5.636719 C 5.316406 5.636719 5.128906 5.636719 4.9375 5.640625 C 4.882812 5.636719 4.828125 5.636719 4.769531 5.636719 C 4.394531 5.644531 4.175781 5.746094 3.875 5.972656 C 3.523438 6.222656 3.042969 6.238281 2.625 6.1875 C 2.027344 6.039062 1.558594 5.78125 1.226562 5.253906 C 0.941406 4.730469 0.84375 4.21875 0.976562 3.632812 C 1.167969 3.050781 1.53125 2.617188 2.0625 2.3125 C 2.550781 2.109375 3.347656 1.980469 3.796875 2.335938 Z M 3.796875 2.335938 "/>
<path style=" stroke:none;fill-rule:nonzero;fill:rgb(90.588236%,90.588236%,90.588236%);fill-opacity:1;" d="M 4.5625 11.8125 C 5.292969 11.789062 6.023438 11.769531 6.753906 11.757812 C 7.09375 11.75 7.433594 11.746094 7.773438 11.734375 C 8.101562 11.71875 8.429688 11.714844 8.757812 11.710938 C 8.882812 11.710938 9.007812 11.707031 9.128906 11.699219 C 10.074219 11.65625 10.074219 11.65625 10.367188 11.914062 C 10.648438 12.253906 10.878906 12.648438 10.871094 13.097656 C 10.753906 13.527344 10.605469 13.957031 10.25 14.25 C 9.84375 14.414062 9.378906 14.359375 8.949219 14.339844 C 8.824219 14.339844 8.699219 14.339844 8.570312 14.335938 C 8.238281 14.332031 7.90625 14.324219 7.574219 14.3125 C 7.234375 14.304688 6.894531 14.300781 6.558594 14.296875 C 5.890625 14.285156 5.226562 14.269531 4.5625 14.25 C 4.585938 14.191406 4.605469 14.132812 4.628906 14.074219 C 4.660156 13.992188 4.6875 13.914062 4.714844 13.835938 C 4.746094 13.761719 4.773438 13.683594 4.804688 13.605469 C 4.988281 13.015625 4.882812 12.542969 4.625 12 C 4.605469 11.9375 4.582031 11.875 4.5625 11.8125 Z M 4.5625 11.8125 "/>
<path style=" stroke:none;fill-rule:nonzero;fill:rgb(90.588236%,90.588236%,90.588236%);fill-opacity:1;" d="M 4.5625 7.375 C 5.292969 7.351562 6.023438 7.332031 6.753906 7.320312 C 7.09375 7.3125 7.433594 7.308594 7.773438 7.296875 C 8.101562 7.28125 8.429688 7.277344 8.757812 7.273438 C 8.882812 7.273438 9.007812 7.269531 9.128906 7.261719 C 10.074219 7.21875 10.074219 7.21875 10.367188 7.476562 C 10.648438 7.816406 10.878906 8.210938 10.871094 8.660156 C 10.753906 9.089844 10.605469 9.519531 10.25 9.8125 C 9.84375 9.976562 9.378906 9.921875 8.949219 9.902344 C 8.824219 9.902344 8.699219 9.902344 8.570312 9.898438 C 8.238281 9.894531 7.90625 9.886719 7.574219 9.875 C 7.234375 9.867188 6.894531 9.863281 6.558594 9.859375 C 5.890625 9.847656 5.226562 9.832031 4.5625 9.8125 C 4.585938 9.753906 4.605469 9.695312 4.628906 9.636719 C 4.660156 9.554688 4.6875 9.476562 4.714844 9.398438 C 4.746094 9.324219 4.773438 9.246094 4.804688 9.167969 C 4.988281 8.578125 4.882812 8.105469 4.625 7.5625 C 4.605469 7.5 4.582031 7.4375 4.5625 7.375 Z M 4.5625 7.375 "/>
<path style=" stroke:none;fill-rule:nonzero;fill:rgb(90.588236%,90.588236%,90.588236%);fill-opacity:1;" d="M 4.5625 2.9375 C 5.292969 2.914062 6.023438 2.894531 6.753906 2.882812 C 7.09375 2.875 7.433594 2.871094 7.773438 2.859375 C 8.101562 2.84375 8.429688 2.839844 8.757812 2.835938 C 8.882812 2.835938 9.007812 2.832031 9.128906 2.824219 C 10.074219 2.78125 10.074219 2.78125 10.367188 3.039062 C 10.648438 3.378906 10.878906 3.773438 10.871094 4.222656 C 10.753906 4.652344 10.605469 5.082031 10.25 5.375 C 9.84375 5.539062 9.378906 5.484375 8.949219 5.464844 C 8.824219 5.464844 8.699219 5.464844 8.570312 5.460938 C 8.238281 5.457031 7.90625 5.449219 7.574219 5.4375 C 7.234375 5.429688 6.894531 5.425781 6.558594 5.421875 C 5.890625 5.410156 5.226562 5.394531 4.5625 5.375 C 4.585938 5.316406 4.605469 5.257812 4.628906 5.199219 C 4.660156 5.117188 4.6875 5.039062 4.714844 4.960938 C 4.746094 4.886719 4.773438 4.808594 4.804688 4.730469 C 4.988281 4.140625 4.882812 3.667969 4.625 3.125 C 4.605469 3.0625 4.582031 3 4.5625 2.9375 Z M 4.5625 2.9375 "/>
<path style=" stroke:none;fill-rule:nonzero;fill:rgb(55.686277%,78.039217%,39.215687%);fill-opacity:1;" d="M 3.765625 11.429688 C 4.226562 11.71875 4.570312 12.097656 4.726562 12.628906 C 4.835938 13.183594 4.660156 13.710938 4.359375 14.179688 C 4.105469 14.503906 3.710938 14.726562 3.3125 14.8125 C 2.730469 14.882812 2.300781 14.765625 1.8125 14.4375 C 1.65625 14.304688 1.546875 14.171875 1.4375 14 C 1.414062 13.957031 1.386719 13.917969 1.359375 13.875 C 1.148438 13.476562 1.125 13.070312 1.1875 12.625 C 1.351562 12.101562 1.695312 11.699219 2.15625 11.410156 C 2.617188 11.203125 3.304688 11.21875 3.765625 11.429688 Z M 3.765625 11.429688 "/>
<path style=" stroke:none;fill-rule:nonzero;fill:rgb(3.137255%,3.137255%,2.352941%);fill-opacity:1;" d="M 4.25 7 C 4.28125 7.03125 4.28125 7.03125 4.3125 7.0625 C 4.5 7.066406 4.683594 7.066406 4.871094 7.066406 C 4.992188 7.066406 5.113281 7.066406 5.234375 7.0625 C 5.296875 7.0625 5.363281 7.0625 5.429688 7.0625 C 5.773438 7.0625 6.113281 7.0625 6.453125 7.0625 C 6.890625 7.0625 7.324219 7.0625 7.761719 7.058594 C 8.109375 7.054688 8.460938 7.054688 8.8125 7.058594 C 8.945312 7.058594 9.082031 7.058594 9.214844 7.054688 C 9.402344 7.054688 9.589844 7.054688 9.777344 7.054688 C 9.832031 7.054688 9.886719 7.054688 9.945312 7.050781 C 10.105469 7.054688 10.222656 7.066406 10.375 7.125 C 10.535156 7.296875 10.640625 7.480469 10.75 7.6875 C 10.792969 7.761719 10.839844 7.835938 10.882812 7.910156 C 10.921875 7.976562 10.957031 8.042969 10.996094 8.109375 C 11.035156 8.175781 11.070312 8.242188 11.109375 8.3125 C 11.199219 8.527344 11.1875 8.59375 11.125 8.8125 C 11.054688 8.960938 11.054688 8.960938 10.96875 9.117188 C 10.9375 9.171875 10.90625 9.226562 10.875 9.285156 C 10.828125 9.371094 10.828125 9.371094 10.777344 9.457031 C 10.730469 9.542969 10.730469 9.542969 10.679688 9.632812 C 10.597656 9.777344 10.519531 9.917969 10.4375 10.0625 C 10.363281 10.0625 10.285156 10.0625 10.207031 10.0625 C 9.496094 10.0625 8.785156 10.0625 8.070312 10.066406 C 7.703125 10.070312 7.339844 10.070312 6.972656 10.070312 C 6.617188 10.070312 6.265625 10.070312 5.910156 10.074219 C 5.777344 10.074219 5.640625 10.074219 5.507812 10.074219 C 5.316406 10.074219 5.128906 10.074219 4.9375 10.078125 C 4.882812 10.074219 4.828125 10.074219 4.769531 10.074219 C 4.394531 10.082031 4.175781 10.183594 3.875 10.410156 C 3.523438 10.660156 3.042969 10.675781 2.625 10.625 C 2.027344 10.476562 1.558594 10.21875 1.226562 9.691406 C 0.941406 9.167969 0.84375 8.65625 0.976562 8.070312 C 1.113281 7.65625 1.308594 7.359375 1.625 7.0625 C 1.65625 7.03125 1.691406 7 1.722656 6.96875 C 2.5 6.328125 3.457031 6.535156 4.25 7 Z M 1.9375 7.125 C 1.898438 7.15625 1.859375 7.1875 1.820312 7.21875 C 1.46875 7.535156 1.234375 7.910156 1.15625 8.382812 C 1.125 8.957031 1.292969 9.429688 1.664062 9.871094 C 2 10.183594 2.410156 10.386719 2.871094 10.402344 C 3.402344 10.375 3.816406 10.242188 4.203125 9.875 C 4.628906 9.394531 4.726562 8.945312 4.714844 8.320312 C 4.683594 7.851562 4.429688 7.527344 4.09375 7.222656 C 3.742188 6.933594 3.421875 6.839844 2.976562 6.847656 C 2.929688 6.847656 2.882812 6.847656 2.832031 6.847656 C 2.484375 6.859375 2.214844 6.902344 1.9375 7.125 Z M 4.5625 7.375 C 4.632812 7.554688 4.707031 7.734375 4.789062 7.910156 C 5.007812 8.507812 4.867188 9.058594 4.625 9.625 C 4.605469 9.6875 4.582031 9.75 4.5625 9.8125 C 5.292969 9.835938 6.023438 9.855469 6.753906 9.867188 C 7.09375 9.875 7.433594 9.878906 7.773438 9.890625 C 8.101562 9.90625 8.429688 9.910156 8.757812 9.914062 C 8.882812 9.914062 9.007812 9.917969 9.128906 9.925781 C 9.792969 9.972656 9.792969 9.972656 10.367188 9.707031 C 10.628906 9.382812 10.828125 9.003906 10.902344 8.59375 C 10.820312 8.144531 10.59375 7.683594 10.25 7.375 C 9.847656 7.191406 9.375 7.25 8.945312 7.269531 C 8.816406 7.273438 8.691406 7.273438 8.566406 7.277344 C 8.234375 7.28125 7.902344 7.289062 7.570312 7.300781 C 7.230469 7.3125 6.890625 7.316406 6.554688 7.324219 C 5.890625 7.335938 5.226562 7.351562 4.5625 7.375 Z M 4.5625 7.375 "/>
<path style=" stroke:none;fill-rule:nonzero;fill:rgb(3.137255%,2.745098%,2.352941%);fill-opacity:1;" d="M 3.796875 2.335938 C 4.304688 2.734375 4.878906 2.671875 5.488281 2.660156 C 5.691406 2.65625 5.890625 2.652344 6.089844 2.652344 C 6.65625 2.652344 7.222656 2.644531 7.789062 2.636719 C 8.140625 2.636719 8.488281 2.632812 8.835938 2.632812 C 8.96875 2.632812 9.097656 2.628906 9.230469 2.628906 C 10.265625 2.605469 10.265625 2.605469 10.535156 2.808594 C 10.636719 2.953125 10.695312 3.082031 10.75 3.25 C 10.792969 3.324219 10.835938 3.398438 10.882812 3.472656 C 10.921875 3.539062 10.957031 3.605469 10.996094 3.671875 C 11.035156 3.738281 11.070312 3.804688 11.109375 3.875 C 11.199219 4.089844 11.1875 4.15625 11.125 4.375 C 11.054688 4.523438 11.054688 4.523438 10.96875 4.679688 C 10.9375 4.734375 10.90625 4.789062 10.875 4.847656 C 10.828125 4.933594 10.828125 4.933594 10.777344 5.019531 C 10.726562 5.105469 10.726562 5.105469 10.679688 5.195312 C 10.597656 5.339844 10.519531 5.480469 10.4375 5.625 C 10.363281 5.625 10.285156 5.625 10.207031 5.625 C 9.496094 5.625 8.785156 5.625 8.070312 5.628906 C 7.703125 5.632812 7.339844 5.632812 6.972656 5.632812 C 6.617188 5.632812 6.265625 5.632812 5.910156 5.636719 C 5.777344 5.636719 5.640625 5.636719 5.507812 5.636719 C 5.316406 5.636719 5.128906 5.636719 4.9375 5.640625 C 4.882812 5.636719 4.828125 5.636719 4.769531 5.636719 C 4.394531 5.644531 4.175781 5.746094 3.875 5.972656 C 3.523438 6.222656 3.042969 6.238281 2.625 6.1875 C 2.027344 6.039062 1.558594 5.78125 1.226562 5.253906 C 0.941406 4.730469 0.84375 4.21875 0.976562 3.632812 C 1.167969 3.050781 1.53125 2.617188 2.0625 2.3125 C 2.550781 2.109375 3.347656 1.980469 3.796875 2.335938 Z M 1.625 3 C 1.558594 3.074219 1.558594 3.074219 1.492188 3.148438 C 1.171875 3.597656 1.113281 4.015625 1.1875 4.5625 C 1.390625 5.164062 1.707031 5.542969 2.261719 5.835938 C 2.695312 6.011719 3.171875 6.011719 3.609375 5.839844 C 4.0625 5.605469 4.421875 5.285156 4.632812 4.8125 C 4.769531 4.335938 4.789062 3.757812 4.5625 3.308594 C 4.296875 2.917969 3.9375 2.617188 3.5 2.4375 C 3.324219 2.410156 3.152344 2.40625 2.976562 2.410156 C 2.90625 2.410156 2.90625 2.410156 2.832031 2.410156 C 2.304688 2.425781 1.980469 2.59375 1.625 3 Z M 4.5625 2.9375 C 4.632812 3.117188 4.707031 3.296875 4.789062 3.472656 C 5.007812 4.070312 4.867188 4.621094 4.625 5.1875 C 4.605469 5.25 4.582031 5.3125 4.5625 5.375 C 5.292969 5.398438 6.023438 5.417969 6.753906 5.429688 C 7.09375 5.433594 7.433594 5.441406 7.773438 5.453125 C 8.101562 5.464844 8.429688 5.472656 8.757812 5.476562 C 8.882812 5.476562 9.003906 5.480469 9.128906 5.488281 C 9.789062 5.535156 9.789062 5.535156 10.367188 5.269531 C 10.628906 4.945312 10.828125 4.566406 10.902344 4.15625 C 10.820312 3.707031 10.59375 3.246094 10.25 2.9375 C 9.847656 2.753906 9.375 2.8125 8.945312 2.832031 C 8.816406 2.835938 8.691406 2.835938 8.566406 2.839844 C 8.234375 2.84375 7.902344 2.851562 7.570312 2.863281 C 7.230469 2.875 6.894531 2.878906 6.554688 2.886719 C 5.890625 2.898438 5.226562 2.914062 4.5625 2.9375 Z M 4.5625 2.9375 "/>
<path style=" stroke:none;fill-rule:nonzero;fill:rgb(60.000002%,80.000001%,45.09804%);fill-opacity:1;" d="M 3.6875 11.4375 C 3.691406 11.589844 3.691406 11.742188 3.695312 11.894531 C 3.695312 11.9375 3.699219 11.980469 3.699219 12.023438 C 3.699219 12.261719 3.695312 12.359375 3.5625 12.5625 C 3.546875 12.5 3.53125 12.441406 3.515625 12.378906 C 3.460938 12.1875 3.460938 12.1875 3.335938 12.132812 C 3.285156 12.128906 3.238281 12.128906 3.1875 12.125 C 3.105469 12.117188 3.023438 12.113281 2.941406 12.105469 C 2.738281 12.109375 2.683594 12.128906 2.5 12.238281 C 2.355469 12.367188 2.355469 12.367188 2.375 12.5625 C 2.457031 12.582031 2.539062 12.605469 2.625 12.625 C 2.667969 12.523438 2.707031 12.417969 2.75 12.3125 C 2.898438 12.304688 2.898438 12.304688 3.0625 12.3125 C 3.105469 12.355469 3.144531 12.394531 3.1875 12.4375 C 3.164062 12.601562 3.164062 12.601562 3.125 12.75 C 2.765625 12.875 2.765625 12.875 2.625 12.875 C 2.644531 12.9375 2.667969 13 2.6875 13.0625 C 2.757812 13.070312 2.828125 13.078125 2.898438 13.085938 C 3.125 13.125 3.125 13.125 3.25 13.25 C 3.265625 13.4375 3.265625 13.4375 3.25 13.625 C 3.125 13.75 3.125 13.75 2.945312 13.78125 C 2.75 13.75 2.75 13.75 2.609375 13.5625 C 2.574219 13.5 2.535156 13.4375 2.5 13.375 C 2.457031 13.375 2.417969 13.375 2.375 13.375 C 2.355469 13.5 2.332031 13.621094 2.3125 13.75 C 2.019531 13.847656 1.714844 13.824219 1.414062 13.800781 C 1.3125 13.75 1.3125 13.75 1.246094 13.613281 C 1.105469 13.179688 1.125 12.703125 1.316406 12.289062 C 1.546875 11.890625 1.859375 11.546875 2.28125 11.351562 C 2.726562 11.238281 3.269531 11.238281 3.6875 11.4375 Z M 3.6875 11.4375 "/>
<path style=" stroke:none;fill-rule:nonzero;fill:rgb(94.117647%,45.882353%,44.313726%);fill-opacity:1;" d="M 2.96875 2.425781 C 3.042969 2.425781 3.042969 2.425781 3.113281 2.421875 C 3.359375 2.421875 3.480469 2.425781 3.6875 2.5625 C 3.765625 3.082031 3.710938 3.605469 3.4375 4.0625 C 3.375 4.09375 3.375 4.09375 3.3125 4.125 C 3.292969 3.855469 3.269531 3.589844 3.25 3.3125 C 3.167969 3.292969 3.085938 3.269531 3 3.25 C 2.964844 3.296875 2.929688 3.34375 2.894531 3.394531 C 2.75 3.5625 2.632812 3.652344 2.4375 3.75 C 2.394531 3.75 2.355469 3.75 2.3125 3.75 C 2.332031 3.8125 2.355469 3.875 2.375 3.9375 C 2.546875 3.90625 2.707031 3.867188 2.875 3.8125 C 2.875 4.082031 2.875 4.347656 2.875 4.625 C 2.394531 4.863281 2.003906 4.949219 1.46875 4.929688 C 1.3125 4.875 1.3125 4.875 1.242188 4.738281 C 1.105469 4.296875 1.125 3.824219 1.324219 3.40625 C 1.707031 2.746094 2.21875 2.425781 2.96875 2.425781 Z M 2.96875 2.425781 "/>
<path style=" stroke:none;fill-rule:nonzero;fill:rgb(97.254902%,76.47059%,36.078432%);fill-opacity:1;" d="M 3.5 6.875 C 3.5625 6.917969 3.625 6.957031 3.6875 7 C 3.703125 7.164062 3.703125 7.3125 3.699219 7.476562 C 3.699219 7.542969 3.699219 7.542969 3.695312 7.609375 C 3.695312 7.71875 3.691406 7.828125 3.6875 7.9375 C 3.5 7.9375 3.5 7.9375 3.402344 7.847656 C 3.371094 7.816406 3.34375 7.78125 3.3125 7.75 C 3.113281 7.648438 2.90625 7.65625 2.6875 7.6875 C 2.5 7.777344 2.5 7.777344 2.375 7.9375 C 2.320312 8.132812 2.320312 8.132812 2.3125 8.3125 C 2.394531 8.3125 2.476562 8.3125 2.5625 8.3125 C 2.582031 8.265625 2.597656 8.214844 2.617188 8.164062 C 2.6875 8 2.6875 8 2.8125 7.875 C 3.019531 7.894531 3.101562 7.914062 3.25 8.0625 C 3.253906 8.253906 3.230469 8.386719 3.105469 8.535156 C 3 8.636719 2.894531 8.734375 2.78125 8.828125 C 2.511719 9.042969 2.511719 9.042969 2.3125 9.3125 C 2.015625 9.425781 1.609375 9.421875 1.3125 9.3125 C 1.109375 8.917969 1.113281 8.429688 1.242188 8.011719 C 1.410156 7.652344 1.628906 7.371094 1.9375 7.125 C 1.972656 7.097656 2.003906 7.070312 2.039062 7.042969 C 2.457031 6.773438 3.023438 6.832031 3.5 6.875 Z M 3.5 6.875 "/>
<path style=" stroke:none;fill-rule:nonzero;fill:rgb(21.960784%,25.098041%,26.274511%);fill-opacity:1;" d="M 11.8125 1.5625 C 12.152344 1.554688 12.492188 1.550781 12.832031 1.546875 C 12.949219 1.546875 13.0625 1.546875 13.179688 1.542969 C 13.347656 1.539062 13.515625 1.539062 13.679688 1.539062 C 13.730469 1.535156 13.78125 1.535156 13.835938 1.535156 C 14.171875 1.535156 14.363281 1.585938 14.625 1.8125 C 14.8125 2.0625 14.835938 2.246094 14.835938 2.554688 C 14.835938 2.621094 14.835938 2.621094 14.835938 2.6875 C 14.839844 2.828125 14.835938 2.96875 14.835938 3.113281 C 14.835938 3.214844 14.835938 3.316406 14.835938 3.417969 C 14.839844 3.695312 14.839844 3.972656 14.835938 4.25 C 14.835938 4.542969 14.835938 4.832031 14.839844 5.125 C 14.839844 5.609375 14.839844 6.097656 14.835938 6.585938 C 14.835938 7.152344 14.835938 7.714844 14.835938 8.277344 C 14.839844 8.761719 14.839844 9.246094 14.835938 9.730469 C 14.835938 10.019531 14.835938 10.308594 14.839844 10.597656 C 14.839844 10.871094 14.839844 11.144531 14.835938 11.414062 C 14.835938 11.515625 14.835938 11.613281 14.835938 11.714844 C 14.839844 11.851562 14.835938 11.988281 14.835938 12.125 C 14.835938 12.199219 14.835938 12.277344 14.835938 12.355469 C 14.804688 12.640625 14.714844 12.855469 14.503906 13.054688 C 14.199219 13.167969 13.90625 13.148438 13.585938 13.144531 C 13.515625 13.144531 13.445312 13.140625 13.371094 13.140625 C 13.148438 13.140625 12.921875 13.140625 12.699219 13.136719 C 12.546875 13.136719 12.394531 13.136719 12.242188 13.132812 C 11.871094 13.132812 11.496094 13.128906 11.125 13.125 C 11.125 13.0625 11.125 13 11.125 12.9375 C 11.164062 12.9375 11.199219 12.9375 11.238281 12.9375 C 11.632812 12.929688 12.027344 12.925781 12.421875 12.917969 C 12.566406 12.914062 12.714844 12.914062 12.859375 12.910156 C 13.070312 12.90625 13.28125 12.90625 13.492188 12.902344 C 13.558594 12.898438 13.625 12.898438 13.691406 12.898438 C 13.785156 12.898438 13.785156 12.898438 13.878906 12.894531 C 13.957031 12.894531 13.957031 12.894531 14.042969 12.890625 C 14.203125 12.875 14.300781 12.84375 14.4375 12.75 C 14.582031 12.53125 14.578125 12.339844 14.578125 12.082031 C 14.578125 12.039062 14.578125 11.996094 14.582031 11.953125 C 14.582031 11.8125 14.582031 11.671875 14.582031 11.53125 C 14.582031 11.429688 14.582031 11.328125 14.582031 11.226562 C 14.585938 10.953125 14.585938 10.675781 14.585938 10.402344 C 14.585938 10.230469 14.585938 10.058594 14.585938 9.886719 C 14.589844 9.289062 14.589844 8.691406 14.589844 8.09375 C 14.589844 7.535156 14.589844 6.976562 14.59375 6.417969 C 14.597656 5.9375 14.597656 5.460938 14.597656 4.980469 C 14.597656 4.695312 14.597656 4.410156 14.597656 4.121094 C 14.601562 3.855469 14.601562 3.585938 14.601562 3.316406 C 14.601562 3.21875 14.601562 3.117188 14.601562 3.019531 C 14.601562 2.882812 14.601562 2.75 14.601562 2.613281 C 14.601562 2.5 14.601562 2.5 14.601562 2.386719 C 14.550781 2.128906 14.449219 2.039062 14.25 1.875 C 14.121094 1.828125 14.121094 1.828125 13.992188 1.832031 C 13.941406 1.832031 13.894531 1.832031 13.84375 1.828125 C 13.792969 1.828125 13.738281 1.832031 13.6875 1.832031 C 13.632812 1.828125 13.578125 1.828125 13.523438 1.828125 C 13.351562 1.824219 13.183594 1.824219 13.011719 1.824219 C 12.894531 1.824219 12.78125 1.820312 12.664062 1.820312 C 12.378906 1.816406 12.097656 1.8125 11.8125 1.8125 C 11.8125 1.730469 11.8125 1.648438 11.8125 1.5625 Z M 11.8125 1.5625 "/>
<path style=" stroke:none;fill-rule:nonzero;fill:rgb(50.588238%,74.901962%,32.156864%);fill-opacity:1;" d="M 4.25 11.875 C 4.597656 12.148438 4.726562 12.570312 4.78125 12.996094 C 4.753906 13.484375 4.53125 14.027344 4.1875 14.375 C 3.75 14.714844 3.320312 14.847656 2.765625 14.839844 C 2.414062 14.792969 2.109375 14.632812 1.8125 14.4375 C 1.792969 14.394531 1.769531 14.355469 1.75 14.3125 C 1.804688 14.324219 1.859375 14.332031 1.914062 14.34375 C 2.515625 14.433594 3.082031 14.445312 3.582031 14.082031 C 3.96875 13.765625 4.214844 13.429688 4.3125 12.9375 C 4.332031 12.578125 4.328125 12.226562 4.25 11.875 Z M 4.25 11.875 "/>
<path style=" stroke:none;fill-rule:nonzero;fill:rgb(97.254902%,71.372551%,21.568628%);fill-opacity:1;" d="M 4.25 7.4375 C 4.527344 7.6875 4.671875 7.921875 4.71875 8.296875 C 4.71875 8.378906 4.71875 8.464844 4.71875 8.546875 C 4.71875 8.589844 4.71875 8.636719 4.71875 8.679688 C 4.699219 9.195312 4.511719 9.558594 4.164062 9.933594 C 3.882812 10.191406 3.566406 10.332031 3.1875 10.375 C 3.144531 10.378906 3.101562 10.386719 3.054688 10.390625 C 2.578125 10.425781 2.210938 10.253906 1.8125 10 C 1.792969 9.957031 1.769531 9.917969 1.75 9.875 C 1.792969 9.886719 1.835938 9.894531 1.878906 9.90625 C 2.53125 10.019531 3.070312 9.96875 3.621094 9.609375 C 3.992188 9.328125 4.167969 8.933594 4.3125 8.5 C 4.332031 8.140625 4.328125 7.789062 4.25 7.4375 Z M 4.25 7.4375 "/>
<path style=" stroke:none;fill-rule:nonzero;fill:rgb(92.156863%,33.725491%,31.764707%);fill-opacity:1;" d="M 4.25 3 C 4.527344 3.25 4.671875 3.484375 4.71875 3.859375 C 4.734375 4.46875 4.667969 4.921875 4.246094 5.390625 C 3.796875 5.824219 3.386719 5.980469 2.761719 5.96875 C 2.410156 5.914062 2.109375 5.753906 1.8125 5.5625 C 1.792969 5.519531 1.769531 5.480469 1.75 5.4375 C 1.796875 5.453125 1.796875 5.453125 1.84375 5.46875 C 2.390625 5.582031 3.007812 5.578125 3.492188 5.289062 C 3.882812 4.992188 4.191406 4.605469 4.3125 4.125 C 4.34375 3.742188 4.335938 3.375 4.25 3 Z M 4.25 3 "/>
<path style=" stroke:none;fill-rule:nonzero;fill:rgb(0%,0.392157%,0.392157%);fill-opacity:1;" d="M 11.679688 7.871094 C 12.046875 7.933594 12.394531 8.148438 12.6875 8.375 C 12.773438 8.546875 12.773438 8.546875 12.8125 8.6875 C 12.617188 8.902344 12.414062 9.035156 12.160156 9.175781 C 12.089844 9.214844 12.019531 9.253906 11.949219 9.292969 C 11.738281 9.378906 11.648438 9.386719 11.4375 9.3125 C 11.292969 9.167969 11.363281 8.820312 11.363281 8.628906 C 11.363281 8.570312 11.363281 8.511719 11.359375 8.453125 C 11.359375 8.398438 11.359375 8.339844 11.359375 8.285156 C 11.359375 8.207031 11.359375 8.207031 11.359375 8.128906 C 11.386719 7.90625 11.46875 7.875 11.679688 7.871094 Z M 11.679688 7.871094 "/>
<path style=" stroke:none;fill-rule:nonzero;fill:rgb(0%,0.392157%,0.392157%);fill-opacity:1;" d="M 11.679688 3.433594 C 12.046875 3.496094 12.394531 3.710938 12.6875 3.9375 C 12.773438 4.109375 12.773438 4.109375 12.8125 4.25 C 12.617188 4.464844 12.414062 4.597656 12.160156 4.738281 C 12.089844 4.777344 12.019531 4.816406 11.949219 4.855469 C 11.738281 4.941406 11.648438 4.949219 11.4375 4.875 C 11.292969 4.730469 11.363281 4.382812 11.363281 4.191406 C 11.363281 4.132812 11.363281 4.074219 11.359375 4.015625 C 11.359375 3.960938 11.359375 3.902344 11.359375 3.847656 C 11.359375 3.769531 11.359375 3.769531 11.359375 3.691406 C 11.386719 3.46875 11.46875 3.4375 11.679688 3.433594 Z M 11.679688 3.433594 "/>
<path style=" stroke:none;fill-rule:nonzero;fill:rgb(5.098039%,3.921569%,1.568628%);fill-opacity:1;" d="M 3.1875 7.625 C 3.410156 7.726562 3.488281 7.792969 3.625 8 C 3.632812 8.378906 3.488281 8.5625 3.242188 8.824219 C 3.105469 8.957031 2.964844 9.078125 2.8125 9.1875 C 3.058594 9.207031 3.308594 9.230469 3.5625 9.25 C 3.582031 9.332031 3.605469 9.414062 3.625 9.5 C 3.5625 9.5625 3.5625 9.5625 3.441406 9.570312 C 3.390625 9.570312 3.335938 9.570312 3.28125 9.570312 C 3.226562 9.566406 3.171875 9.566406 3.113281 9.566406 C 3.054688 9.566406 2.996094 9.566406 2.933594 9.566406 C 2.875 9.566406 2.816406 9.566406 2.753906 9.566406 C 2.605469 9.566406 2.460938 9.5625 2.3125 9.5625 C 2.285156 9.226562 2.285156 9.226562 2.410156 9.050781 C 2.453125 9.011719 2.5 8.96875 2.542969 8.929688 C 2.589844 8.886719 2.632812 8.84375 2.679688 8.800781 C 2.8125 8.6875 2.8125 8.6875 2.996094 8.554688 C 3.140625 8.441406 3.140625 8.441406 3.183594 8.242188 C 3.183594 8.183594 3.1875 8.125 3.1875 8.0625 C 3.144531 8.019531 3.105469 7.980469 3.0625 7.9375 C 2.90625 7.933594 2.90625 7.933594 2.75 8 C 2.6875 8.105469 2.625 8.207031 2.5625 8.3125 C 2.480469 8.3125 2.398438 8.3125 2.3125 8.3125 C 2.289062 8.144531 2.289062 8.144531 2.3125 7.9375 C 2.585938 7.621094 2.777344 7.574219 3.1875 7.625 Z M 3.1875 7.625 "/>
<path style=" stroke:none;fill-rule:nonzero;fill:rgb(3.137255%,4.705882%,2.352941%);fill-opacity:1;" d="M 3.1875 12.0625 C 3.363281 12.125 3.417969 12.144531 3.5 12.3125 C 3.515625 12.703125 3.515625 12.703125 3.457031 12.890625 C 3.449219 12.925781 3.445312 12.964844 3.4375 13 C 3.46875 13.027344 3.496094 13.054688 3.527344 13.082031 C 3.625 13.1875 3.625 13.1875 3.652344 13.398438 C 3.621094 13.65625 3.558594 13.753906 3.375 13.9375 C 3.140625 14.054688 2.878906 14.035156 2.625 14 C 2.429688 13.863281 2.429688 13.863281 2.3125 13.6875 C 2.292969 13.511719 2.292969 13.511719 2.3125 13.375 C 2.394531 13.375 2.476562 13.375 2.5625 13.375 C 2.589844 13.425781 2.621094 13.476562 2.648438 13.53125 C 2.683594 13.582031 2.714844 13.632812 2.75 13.6875 C 2.941406 13.71875 2.941406 13.71875 3.125 13.6875 C 3.207031 13.617188 3.207031 13.617188 3.195312 13.4375 C 3.207031 13.257812 3.207031 13.257812 3.125 13.1875 C 2.980469 13.164062 2.832031 13.144531 2.6875 13.125 C 2.667969 13.042969 2.644531 12.960938 2.625 12.875 C 2.789062 12.8125 2.953125 12.75 3.125 12.6875 C 3.105469 12.585938 3.082031 12.480469 3.0625 12.375 C 2.960938 12.375 2.855469 12.375 2.75 12.375 C 2.707031 12.457031 2.667969 12.539062 2.625 12.625 C 2.523438 12.605469 2.417969 12.582031 2.3125 12.5625 C 2.332031 12.378906 2.378906 12.308594 2.503906 12.171875 C 2.757812 12.019531 2.894531 12.035156 3.1875 12.0625 Z M 3.1875 12.0625 "/>
<path style=" stroke:none;fill-rule:nonzero;fill:rgb(0%,0%,0%);fill-opacity:1;" d="M 5 13.375 C 6.527344 13.375 8.050781 13.375 9.625 13.375 C 9.605469 13.4375 9.582031 13.5 9.5625 13.5625 C 8.058594 13.5625 6.550781 13.5625 5 13.5625 C 5 13.5 5 13.4375 5 13.375 Z M 5 13.375 "/>
<path style=" stroke:none;fill-rule:nonzero;fill:rgb(0.392157%,0.392157%,0.392157%);fill-opacity:1;" d="M 5 8.9375 C 6.527344 8.9375 8.050781 8.9375 9.625 8.9375 C 9.605469 9 9.582031 9.0625 9.5625 9.125 C 8.058594 9.125 6.550781 9.125 5 9.125 C 5 9.0625 5 9 5 8.9375 Z M 5 8.9375 "/>
<path style=" stroke:none;fill-rule:nonzero;fill:rgb(0%,0%,0%);fill-opacity:1;" d="M 5 4.5 C 6.527344 4.5 8.050781 4.5 9.625 4.5 C 9.605469 4.5625 9.582031 4.625 9.5625 4.6875 C 8.058594 4.6875 6.550781 4.6875 5 4.6875 C 5 4.625 5 4.5625 5 4.5 Z M 5 4.5 "/>
<path style=" stroke:none;fill-rule:nonzero;fill:rgb(14.117648%,14.117648%,14.117648%);fill-opacity:1;" d="M 5.0625 12.5 C 6.113281 12.5 7.167969 12.5 8.25 12.5 C 8.25 12.582031 8.25 12.664062 8.25 12.75 C 7.175781 12.75 6.105469 12.75 5 12.75 C 5.019531 12.667969 5.042969 12.585938 5.0625 12.5 Z M 5.0625 12.5 "/>
<path style=" stroke:none;fill-rule:nonzero;fill:rgb(12.54902%,12.54902%,12.54902%);fill-opacity:1;" d="M 5.0625 8.0625 C 6.113281 8.0625 7.167969 8.0625 8.25 8.0625 C 8.25 8.144531 8.25 8.226562 8.25 8.3125 C 7.175781 8.3125 6.105469 8.3125 5 8.3125 C 5.019531 8.230469 5.042969 8.148438 5.0625 8.0625 Z M 5.0625 8.0625 "/>
<path style=" stroke:none;fill-rule:nonzero;fill:rgb(12.54902%,12.54902%,12.54902%);fill-opacity:1;" d="M 5.0625 3.625 C 6.113281 3.625 7.167969 3.625 8.25 3.625 C 8.25 3.707031 8.25 3.789062 8.25 3.875 C 7.199219 3.875 6.144531 3.875 5.0625 3.875 C 5.0625 3.792969 5.0625 3.710938 5.0625 3.625 Z M 5.0625 3.625 "/>
<path style=" stroke:none;fill-rule:nonzero;fill:rgb(1.568628%,0.784314%,0.784314%);fill-opacity:1;" d="M 3 3.1875 C 3.082031 3.207031 3.164062 3.230469 3.25 3.25 C 3.25 3.847656 3.25 4.445312 3.25 5.0625 C 3.148438 5.082031 3.042969 5.105469 2.9375 5.125 C 2.9375 4.671875 2.9375 4.21875 2.9375 3.75 C 2.75 3.875 2.75 3.875 2.5625 4 C 2.414062 3.984375 2.414062 3.984375 2.3125 3.9375 C 2.3125 3.875 2.3125 3.8125 2.3125 3.75 C 2.429688 3.65625 2.429688 3.65625 2.585938 3.5625 C 2.78125 3.441406 2.871094 3.382812 3 3.1875 Z M 3 3.1875 "/>
<path style=" stroke:none;fill-rule:nonzero;fill:rgb(20.392157%,22.352941%,18.82353%);fill-opacity:1;" d="M 4.0625 11.5 C 4.0625 11.5625 4.0625 11.625 4.0625 11.6875 C 3.957031 11.625 3.851562 11.5625 3.746094 11.5 C 3.328125 11.285156 2.730469 11.308594 2.28125 11.410156 C 1.851562 11.601562 1.554688 12 1.3125 12.390625 C 1.140625 13.035156 1.238281 13.550781 1.5625 14.125 C 1.5 14.125 1.4375 14.125 1.375 14.125 C 1.085938 13.578125 1.042969 13.015625 1.152344 12.410156 C 1.316406 11.894531 1.71875 11.550781 2.179688 11.308594 C 2.8125 11.035156 3.496094 11.136719 4.0625 11.5 Z M 4.0625 11.5 "/>
<path style=" stroke:none;fill-rule:nonzero;fill:rgb(20.784314%,23.529412%,24.705882%);fill-opacity:1;" d="M 11.625 1.1875 C 11.625 1.515625 11.625 1.847656 11.625 2.1875 C 11.363281 2.101562 11.175781 2.03125 10.945312 1.898438 C 10.894531 1.871094 10.847656 1.84375 10.796875 1.8125 C 10.761719 1.792969 10.726562 1.773438 10.6875 1.75 C 10.6875 1.707031 10.6875 1.667969 10.6875 1.625 C 10.820312 1.550781 10.953125 1.480469 11.085938 1.40625 C 11.140625 1.375 11.140625 1.375 11.199219 1.34375 C 11.484375 1.1875 11.484375 1.1875 11.625 1.1875 Z M 11.625 1.1875 "/>
<path style=" stroke:none;fill-rule:nonzero;fill:rgb(21.960784%,25.098041%,26.274511%);fill-opacity:1;" d="M 11.625 8.125 C 11.882812 8.210938 12.054688 8.269531 12.273438 8.40625 C 12.316406 8.433594 12.359375 8.460938 12.402344 8.484375 C 12.4375 8.511719 12.46875 8.535156 12.5 8.5625 C 12.5 8.605469 12.5 8.644531 12.5 8.6875 C 12.066406 8.90625 12.066406 8.90625 11.625 9.125 C 11.625 8.796875 11.625 8.464844 11.625 8.125 Z M 11.625 8.125 "/>
<path style=" stroke:none;fill-rule:nonzero;fill:rgb(23.529412%,21.960784%,18.82353%);fill-opacity:1;" d="M 4.0625 7.0625 C 4.0625 7.105469 4.0625 7.144531 4.0625 7.1875 C 3.765625 7.070312 3.765625 7.070312 3.644531 6.996094 C 3.257812 6.839844 2.679688 6.882812 2.273438 6.972656 C 1.847656 7.160156 1.550781 7.566406 1.3125 7.953125 C 1.203125 8.367188 1.1875 8.835938 1.3125 9.25 C 1.269531 9.25 1.230469 9.25 1.1875 9.25 C 1.042969 8.8125 1.046875 8.160156 1.242188 7.734375 C 1.53125 7.273438 1.90625 6.945312 2.429688 6.773438 C 3.035156 6.664062 3.542969 6.726562 4.0625 7.0625 Z M 4.0625 7.0625 "/>
<path style=" stroke:none;fill-rule:nonzero;fill:rgb(21.960784%,25.098041%,26.274511%);fill-opacity:1;" d="M 11.625 3.6875 C 11.882812 3.773438 12.054688 3.832031 12.273438 3.96875 C 12.316406 3.996094 12.359375 4.023438 12.402344 4.046875 C 12.4375 4.074219 12.46875 4.097656 12.5 4.125 C 12.5 4.167969 12.5 4.207031 12.5 4.25 C 12.066406 4.46875 12.066406 4.46875 11.625 4.6875 C 11.625 4.359375 11.625 4.027344 11.625 3.6875 Z M 11.625 3.6875 "/>
<path style=" stroke:none;fill-rule:nonzero;fill:rgb(23.529412%,19.215687%,19.215687%);fill-opacity:1;" d="M 2.992188 2.296875 C 3.066406 2.296875 3.140625 2.292969 3.21875 2.292969 C 3.457031 2.3125 3.605469 2.378906 3.8125 2.5 C 3.792969 2.542969 3.773438 2.582031 3.75 2.625 C 3.703125 2.59375 3.703125 2.59375 3.65625 2.5625 C 3.433594 2.472656 3.21875 2.476562 2.984375 2.476562 C 2.914062 2.476562 2.914062 2.476562 2.839844 2.476562 C 2.476562 2.484375 2.242188 2.546875 1.9375 2.75 C 1.894531 2.769531 1.851562 2.785156 1.808594 2.804688 C 1.65625 2.890625 1.628906 2.964844 1.5625 3.125 C 1.523438 3.191406 1.523438 3.191406 1.480469 3.257812 C 1.214844 3.722656 1.167969 4.1875 1.28125 4.710938 C 1.292969 4.746094 1.300781 4.777344 1.3125 4.8125 C 1.269531 4.8125 1.230469 4.8125 1.1875 4.8125 C 1.042969 4.375 1.046875 3.722656 1.242188 3.296875 C 1.53125 2.835938 1.90625 2.511719 2.425781 2.335938 C 2.617188 2.304688 2.800781 2.300781 2.992188 2.296875 Z M 2.992188 2.296875 "/>
<path style=" stroke:none;fill-rule:nonzero;fill:rgb(54.509807%,76.47059%,38.431373%);fill-opacity:1;" d="M 3.125 13.25 C 3.167969 13.25 3.207031 13.25 3.25 13.25 C 3.257812 13.429688 3.257812 13.429688 3.25 13.625 C 3.125 13.75 3.125 13.75 2.9375 13.769531 C 2.875 13.761719 2.8125 13.757812 2.75 13.75 C 2.707031 13.6875 2.667969 13.625 2.625 13.5625 C 2.738281 13.5 2.847656 13.4375 2.960938 13.375 C 3.0625 13.320312 3.0625 13.320312 3.125 13.25 Z M 3.125 13.25 "/>
<path style=" stroke:none;fill-rule:nonzero;fill:rgb(27.058825%,24.705882%,19.607843%);fill-opacity:1;" d="M 1.875 7.0625 C 1.9375 7.082031 2 7.105469 2.0625 7.125 C 2.011719 7.171875 2.011719 7.171875 1.957031 7.214844 C 1.914062 7.253906 1.867188 7.296875 1.820312 7.335938 C 1.777344 7.375 1.730469 7.414062 1.683594 7.453125 C 1.597656 7.53125 1.515625 7.609375 1.4375 7.6875 C 1.445312 7.519531 1.46875 7.410156 1.582031 7.28125 C 1.679688 7.195312 1.679688 7.195312 1.875 7.0625 Z M 1.875 7.0625 "/>
<path style=" stroke:none;fill-rule:nonzero;fill:rgb(12.54902%,14.117648%,11.372549%);fill-opacity:1;" d="M 3.5625 11.25 C 3.808594 11.375 3.808594 11.375 4.0625 11.5 C 4.0625 11.5625 4.0625 11.625 4.0625 11.6875 C 3.980469 11.640625 3.894531 11.589844 3.8125 11.539062 C 3.765625 11.511719 3.71875 11.484375 3.671875 11.457031 C 3.636719 11.429688 3.597656 11.402344 3.5625 11.375 C 3.5625 11.332031 3.5625 11.292969 3.5625 11.25 Z M 3.5625 11.25 "/>
<path style=" stroke:none;fill-rule:nonzero;fill:rgb(16.470589%,14.509805%,10.980392%);fill-opacity:1;" d="M 3.5625 6.8125 C 3.808594 6.9375 3.808594 6.9375 4.0625 7.0625 C 4.0625 7.105469 4.0625 7.144531 4.0625 7.1875 C 3.875 7.117188 3.730469 7.046875 3.5625 6.9375 C 3.5625 6.894531 3.5625 6.855469 3.5625 6.8125 Z M 3.5625 6.8125 "/>
</g>
</svg>
