<?xml version="1.0" encoding="UTF-8"?>
<svg xmlns="http://www.w3.org/2000/svg" xmlns:xlink="http://www.w3.org/1999/xlink" width="16" height="16" viewBox="0 0 16 16" version="1.1">
<g id="surface1">
<path style=" stroke:none;fill-rule:nonzero;fill:rgb(99.607843%,32.156864%,89.803922%);fill-opacity:1;" d="M 5.609375 1.785156 C 6.171875 2.226562 6.554688 2.792969 6.6875 3.5 C 6.742188 4.070312 6.710938 4.5625 6.480469 5.097656 C 6.425781 5.242188 6.425781 5.242188 6.472656 5.359375 C 6.605469 5.566406 6.773438 5.730469 6.949219 5.902344 C 6.988281 5.941406 7.027344 5.980469 7.070312 6.019531 C 7.199219 6.152344 7.332031 6.28125 7.464844 6.414062 C 7.554688 6.503906 7.644531 6.59375 7.734375 6.683594 C 7.976562 6.925781 8.214844 7.160156 8.453125 7.398438 C 8.699219 7.644531 8.941406 7.886719 9.1875 8.128906 C 9.667969 8.609375 10.144531 9.085938 10.625 9.5625 C 10.667969 9.550781 10.710938 9.535156 10.753906 9.523438 C 10.808594 9.507812 10.863281 9.488281 10.921875 9.472656 C 10.976562 9.457031 11.03125 9.441406 11.089844 9.421875 C 11.804688 9.214844 12.574219 9.230469 13.25 9.5625 C 13.9375 9.957031 14.425781 10.527344 14.648438 11.292969 C 14.804688 12.128906 14.691406 12.898438 14.214844 13.609375 C 13.75 14.203125 13.179688 14.554688 12.4375 14.6875 C 11.589844 14.773438 10.898438 14.609375 10.222656 14.082031 C 9.675781 13.585938 9.359375 12.988281 9.289062 12.257812 C 9.265625 11.769531 9.328125 11.355469 9.519531 10.902344 C 9.574219 10.757812 9.574219 10.757812 9.527344 10.640625 C 9.394531 10.433594 9.226562 10.269531 9.050781 10.097656 C 9.011719 10.058594 8.972656 10.019531 8.929688 9.976562 C 8.800781 9.847656 8.667969 9.71875 8.535156 9.585938 C 8.445312 9.496094 8.355469 9.40625 8.265625 9.316406 C 8.023438 9.074219 7.785156 8.835938 7.546875 8.597656 C 7.300781 8.355469 7.058594 8.113281 6.8125 7.871094 C 6.332031 7.390625 5.855469 6.914062 5.375 6.4375 C 5.332031 6.449219 5.292969 6.464844 5.25 6.476562 C 5.195312 6.492188 5.140625 6.511719 5.082031 6.527344 C 5.027344 6.542969 4.972656 6.5625 4.917969 6.578125 C 4.195312 6.78125 3.429688 6.769531 2.75 6.4375 C 2.0625 6.042969 1.574219 5.472656 1.351562 4.707031 C 1.195312 3.871094 1.308594 3.101562 1.785156 2.390625 C 2.726562 1.183594 4.34375 0.941406 5.609375 1.785156 Z M 3 3.125 C 2.757812 3.460938 2.671875 3.769531 2.6875 4.1875 C 2.777344 4.601562 2.976562 4.894531 3.320312 5.140625 C 3.632812 5.304688 3.980469 5.355469 4.328125 5.28125 C 4.71875 5.148438 5.003906 4.941406 5.199219 4.566406 C 5.332031 4.226562 5.355469 3.886719 5.238281 3.542969 C 5.066406 3.164062 4.832031 2.902344 4.4375 2.75 C 3.886719 2.617188 3.40625 2.71875 3 3.125 Z M 11 11.125 C 10.757812 11.460938 10.671875 11.769531 10.6875 12.1875 C 10.777344 12.601562 10.976562 12.894531 11.320312 13.140625 C 11.632812 13.304688 11.980469 13.355469 12.328125 13.28125 C 12.71875 13.148438 13.003906 12.941406 13.199219 12.566406 C 13.332031 12.226562 13.355469 11.886719 13.238281 11.542969 C 13.066406 11.164062 12.832031 10.902344 12.4375 10.75 C 11.886719 10.617188 11.40625 10.71875 11 11.125 Z M 11 11.125 "/>
<path style=" stroke:none;fill-rule:nonzero;fill:rgb(99.607843%,32.156864%,89.803922%);fill-opacity:1;" d="M 13.609375 9.785156 C 14.171875 10.226562 14.554688 10.792969 14.6875 11.5 C 14.769531 12.363281 14.625 13.085938 14.082031 13.777344 C 13.566406 14.34375 12.960938 14.636719 12.203125 14.710938 C 11.359375 14.738281 10.6875 14.511719 10.0625 13.9375 C 9.480469 13.300781 9.253906 12.601562 9.289062 11.746094 C 9.328125 11.347656 9.445312 10.984375 9.625 10.625 C 9.667969 10.625 9.707031 10.625 9.75 10.625 C 9.765625 10.589844 9.785156 10.550781 9.800781 10.515625 C 9.960938 10.214844 10.210938 9.925781 10.5 9.75 C 10.542969 9.75 10.582031 9.75 10.625 9.75 C 10.625 9.707031 10.625 9.667969 10.625 9.625 C 10.722656 9.585938 10.824219 9.542969 10.921875 9.503906 C 10.976562 9.480469 11.03125 9.457031 11.089844 9.4375 C 11.933594 9.117188 12.875 9.292969 13.609375 9.785156 Z M 11 11.125 C 10.757812 11.460938 10.671875 11.769531 10.6875 12.1875 C 10.777344 12.601562 10.976562 12.894531 11.320312 13.140625 C 11.632812 13.304688 11.980469 13.355469 12.328125 13.28125 C 12.71875 13.148438 13.003906 12.941406 13.199219 12.566406 C 13.332031 12.226562 13.355469 11.886719 13.238281 11.542969 C 13.066406 11.164062 12.832031 10.902344 12.4375 10.75 C 11.886719 10.617188 11.40625 10.71875 11 11.125 Z M 11 11.125 "/>
<path style=" stroke:none;fill-rule:nonzero;fill:rgb(96.470588%,83.137256%,24.313726%);fill-opacity:1;" d="M 6.25 5.375 C 6.546875 5.429688 6.703125 5.613281 6.90625 5.820312 C 6.949219 5.859375 6.988281 5.898438 7.03125 5.941406 C 7.160156 6.074219 7.292969 6.207031 7.425781 6.339844 C 7.519531 6.429688 7.609375 6.523438 7.703125 6.613281 C 7.894531 6.808594 8.089844 7 8.28125 7.195312 C 8.527344 7.441406 8.777344 7.691406 9.023438 7.9375 C 9.214844 8.125 9.40625 8.316406 9.59375 8.507812 C 9.6875 8.597656 9.777344 8.6875 9.867188 8.78125 C 9.996094 8.90625 10.125 9.035156 10.25 9.164062 C 10.289062 9.203125 10.328125 9.238281 10.367188 9.277344 C 10.625 9.542969 10.625 9.542969 10.625 9.75 C 10.511719 9.847656 10.511719 9.847656 10.363281 9.953125 C 10.09375 10.152344 9.929688 10.34375 9.75 10.625 C 9.554688 10.589844 9.453125 10.539062 9.3125 10.394531 C 9.277344 10.359375 9.238281 10.324219 9.203125 10.289062 C 9.164062 10.25 9.125 10.210938 9.085938 10.171875 C 9.046875 10.128906 9.003906 10.089844 8.964844 10.046875 C 8.828125 9.910156 8.695312 9.777344 8.558594 9.640625 C 8.464844 9.546875 8.371094 9.453125 8.277344 9.359375 C 8.03125 9.113281 7.785156 8.863281 7.542969 8.617188 C 7.292969 8.363281 7.039062 8.113281 6.789062 7.859375 C 6.296875 7.367188 5.804688 6.871094 5.3125 6.375 C 5.476562 6.210938 5.632812 6.054688 5.816406 5.910156 C 6.011719 5.742188 6.117188 5.59375 6.25 5.375 Z M 6.25 5.375 "/>
</g>
</svg>
