<?xml version="1.0" encoding="UTF-8"?>
<svg xmlns="http://www.w3.org/2000/svg" xmlns:xlink="http://www.w3.org/1999/xlink" width="16" height="16" viewBox="0 0 16 16" version="1.1">
<g id="surface1">
<path style=" stroke:none;fill-rule:nonzero;fill:rgb(54.509807%,80.000001%,89.803922%);fill-opacity:1;" d="M 1.351562 1.71875 C 1.410156 1.71875 1.46875 1.71875 1.527344 1.714844 C 1.726562 1.714844 1.925781 1.714844 2.121094 1.714844 C 2.265625 1.714844 2.40625 1.714844 2.550781 1.714844 C 2.933594 1.714844 3.320312 1.714844 3.707031 1.714844 C 4.027344 1.714844 4.351562 1.714844 4.671875 1.714844 C 5.476562 1.710938 6.277344 1.710938 7.082031 1.714844 C 7.777344 1.714844 8.476562 1.714844 9.171875 1.710938 C 9.886719 1.710938 10.601562 1.710938 11.320312 1.710938 C 11.722656 1.710938 12.125 1.710938 12.523438 1.710938 C 12.902344 1.707031 13.28125 1.707031 13.660156 1.710938 C 13.796875 1.710938 13.9375 1.710938 14.074219 1.710938 C 14.261719 1.707031 14.453125 1.710938 14.640625 1.710938 C 14.722656 1.710938 14.722656 1.710938 14.808594 1.707031 C 15.191406 1.714844 15.460938 1.804688 15.75 2.0625 C 15.980469 2.339844 16.03125 2.609375 16.03125 2.964844 C 16.03125 3.011719 16.03125 3.054688 16.035156 3.101562 C 16.035156 3.253906 16.035156 3.402344 16.035156 3.550781 C 16.035156 3.660156 16.035156 3.765625 16.035156 3.875 C 16.035156 4.164062 16.035156 4.457031 16.035156 4.75 C 16.035156 4.992188 16.035156 5.238281 16.035156 5.480469 C 16.039062 6.054688 16.039062 6.628906 16.035156 7.207031 C 16.035156 7.796875 16.035156 8.390625 16.039062 8.984375 C 16.039062 9.492188 16.039062 10.003906 16.039062 10.511719 C 16.039062 10.816406 16.039062 11.117188 16.039062 11.421875 C 16.042969 11.710938 16.042969 11.996094 16.039062 12.28125 C 16.039062 12.386719 16.039062 12.492188 16.039062 12.59375 C 16.046875 13.542969 16.046875 13.542969 15.796875 13.902344 C 15.425781 14.230469 15.128906 14.285156 14.648438 14.28125 C 14.589844 14.28125 14.53125 14.28125 14.472656 14.285156 C 14.273438 14.285156 14.074219 14.285156 13.878906 14.285156 C 13.734375 14.285156 13.59375 14.285156 13.449219 14.285156 C 13.066406 14.285156 12.679688 14.285156 12.292969 14.285156 C 11.972656 14.285156 11.648438 14.285156 11.328125 14.285156 C 10.523438 14.289062 9.722656 14.289062 8.917969 14.285156 C 8.222656 14.285156 7.523438 14.285156 6.828125 14.289062 C 6.113281 14.289062 5.398438 14.289062 4.679688 14.289062 C 4.277344 14.289062 3.875 14.289062 3.476562 14.289062 C 3.097656 14.292969 2.71875 14.292969 2.339844 14.289062 C 2.203125 14.289062 2.0625 14.289062 1.925781 14.289062 C 1.738281 14.292969 1.546875 14.289062 1.359375 14.289062 C 1.304688 14.289062 1.25 14.289062 1.191406 14.292969 C 0.808594 14.285156 0.539062 14.195312 0.25 13.9375 C 0.0195312 13.660156 -0.03125 13.386719 -0.03125 13.035156 C -0.03125 12.988281 -0.03125 12.945312 -0.0351562 12.898438 C -0.0351562 12.746094 -0.0351562 12.597656 -0.0351562 12.449219 C -0.0351562 12.339844 -0.0351562 12.234375 -0.0351562 12.125 C -0.0351562 11.835938 -0.0351562 11.542969 -0.0351562 11.25 C -0.0351562 11.007812 -0.0351562 10.761719 -0.0351562 10.519531 C -0.0390625 9.945312 -0.0390625 9.371094 -0.0351562 8.792969 C -0.0351562 8.203125 -0.0351562 7.609375 -0.0390625 7.015625 C -0.0390625 6.507812 -0.0390625 5.996094 -0.0390625 5.488281 C -0.0390625 5.183594 -0.0390625 4.878906 -0.0390625 4.578125 C -0.0429688 4.289062 -0.0429688 4.003906 -0.0390625 3.71875 C -0.0390625 3.613281 -0.0390625 3.507812 -0.0390625 3.40625 C -0.046875 2.457031 -0.046875 2.457031 0.203125 2.097656 C 0.574219 1.769531 0.871094 1.714844 1.351562 1.71875 Z M 1.351562 1.71875 "/>
<path style=" stroke:none;fill-rule:nonzero;fill:rgb(79.607844%,88.627452%,91.37255%);fill-opacity:1;" d="M 1.957031 4.976562 C 2.011719 4.976562 2.066406 4.976562 2.121094 4.976562 C 2.300781 4.972656 2.480469 4.976562 2.660156 4.976562 C 2.789062 4.976562 2.917969 4.976562 3.046875 4.976562 C 3.398438 4.972656 3.75 4.972656 4.101562 4.976562 C 4.46875 4.976562 4.832031 4.976562 5.199219 4.972656 C 5.816406 4.972656 6.433594 4.976562 7.050781 4.976562 C 7.761719 4.976562 8.472656 4.976562 9.1875 4.976562 C 9.800781 4.972656 10.410156 4.972656 11.019531 4.976562 C 11.386719 4.976562 11.753906 4.976562 12.117188 4.972656 C 12.460938 4.972656 12.804688 4.972656 13.148438 4.976562 C 13.273438 4.976562 13.402344 4.976562 13.527344 4.976562 C 13.699219 4.972656 13.871094 4.976562 14.042969 4.976562 C 14.117188 4.976562 14.117188 4.976562 14.195312 4.976562 C 14.53125 4.980469 14.53125 4.980469 14.6875 5.085938 C 14.785156 5.242188 14.769531 5.378906 14.769531 5.5625 C 14.769531 5.632812 14.765625 5.707031 14.765625 5.78125 C 14.765625 5.859375 14.761719 5.933594 14.761719 6.011719 C 14.761719 6.089844 14.761719 6.164062 14.757812 6.246094 C 14.757812 6.433594 14.753906 6.625 14.75 6.8125 C 14.519531 6.714844 14.375 6.578125 14.203125 6.402344 C 14.144531 6.34375 14.089844 6.289062 14.035156 6.234375 C 13.976562 6.171875 13.917969 6.113281 13.859375 6.054688 C 13.800781 5.996094 13.742188 5.9375 13.683594 5.875 C 13.539062 5.730469 13.394531 5.582031 13.25 5.4375 C 13.09375 5.5 13.09375 5.5 12.9375 5.5625 C 12.972656 5.804688 13.078125 5.914062 13.253906 6.082031 C 13.300781 6.132812 13.351562 6.183594 13.40625 6.234375 C 13.457031 6.285156 13.511719 6.335938 13.566406 6.390625 C 13.621094 6.441406 13.671875 6.496094 13.726562 6.550781 C 13.859375 6.679688 13.992188 6.808594 14.125 6.9375 C 14.035156 7.148438 13.917969 7.285156 13.753906 7.445312 C 13.707031 7.492188 13.660156 7.539062 13.613281 7.585938 C 13.5625 7.636719 13.511719 7.683594 13.460938 7.734375 C 13.410156 7.785156 13.359375 7.832031 13.308594 7.882812 C 13.183594 8.007812 13.0625 8.128906 12.9375 8.25 C 13 8.375 13 8.375 13.0625 8.5 C 13.3125 8.527344 13.3125 8.527344 13.460938 8.378906 C 13.511719 8.324219 13.566406 8.269531 13.621094 8.214844 C 13.660156 8.167969 13.660156 8.167969 13.707031 8.125 C 13.796875 8.03125 13.886719 7.9375 13.976562 7.84375 C 14.066406 7.75 14.15625 7.65625 14.25 7.5625 C 14.332031 7.476562 14.414062 7.394531 14.496094 7.308594 C 14.625 7.1875 14.625 7.1875 14.75 7.1875 C 14.753906 7.917969 14.757812 8.648438 14.757812 9.378906 C 14.761719 9.71875 14.761719 10.054688 14.765625 10.394531 C 14.765625 10.722656 14.765625 11.050781 14.769531 11.375 C 14.769531 11.5 14.769531 11.625 14.769531 11.75 C 14.769531 11.925781 14.769531 12.101562 14.769531 12.273438 C 14.773438 12.328125 14.773438 12.378906 14.773438 12.433594 C 14.769531 12.789062 14.769531 12.789062 14.65625 12.921875 C 14.609375 12.960938 14.609375 12.960938 14.5625 13 C 14.5 12.980469 14.4375 12.957031 14.375 12.9375 C 14.394531 12.917969 14.417969 12.894531 14.4375 12.875 C 14.445312 12.746094 14.445312 12.617188 14.445312 12.488281 C 14.445312 12.371094 14.445312 12.371094 14.445312 12.25 C 14.445312 12.210938 14.445312 12.167969 14.445312 12.125 C 14.445312 12 14.445312 11.875 14.445312 11.75 C 14.445312 11.671875 14.445312 11.59375 14.445312 11.511719 C 14.445312 11.402344 14.445312 11.402344 14.445312 11.292969 C 14.457031 11.128906 14.457031 11.128906 14.375 11.0625 C 14.257812 11.054688 14.144531 11.054688 14.027344 11.054688 C 13.949219 11.054688 13.875 11.054688 13.796875 11.054688 C 13.710938 11.054688 13.628906 11.054688 13.542969 11.054688 C 13.453125 11.054688 13.367188 11.054688 13.277344 11.054688 C 13.035156 11.054688 12.792969 11.054688 12.554688 11.054688 C 12.300781 11.054688 12.050781 11.054688 11.796875 11.054688 C 11.375 11.054688 10.953125 11.054688 10.527344 11.054688 C 10.039062 11.054688 9.550781 11.054688 9.058594 11.054688 C 8.640625 11.054688 8.21875 11.054688 7.800781 11.054688 C 7.546875 11.054688 7.296875 11.054688 7.046875 11.054688 C 6.808594 11.054688 6.574219 11.054688 6.339844 11.054688 C 6.25 11.054688 6.164062 11.054688 6.078125 11.054688 C 5.960938 11.054688 5.84375 11.054688 5.722656 11.054688 C 5.65625 11.054688 5.589844 11.054688 5.523438 11.054688 C 5.378906 11.046875 5.378906 11.046875 5.3125 11.125 C 5.308594 11.265625 5.304688 11.402344 5.304688 11.542969 C 5.304688 11.582031 5.304688 11.625 5.304688 11.667969 C 5.308594 11.800781 5.308594 11.933594 5.308594 12.066406 C 5.308594 12.15625 5.308594 12.246094 5.308594 12.335938 C 5.308594 12.558594 5.3125 12.777344 5.3125 13 C 5.1875 13 5.066406 13 4.9375 13 C 4.9375 12.945312 4.9375 12.886719 4.9375 12.828125 C 4.941406 12.621094 4.941406 12.410156 4.941406 12.203125 C 4.941406 12.113281 4.941406 12.019531 4.941406 11.929688 C 4.941406 11.800781 4.941406 11.671875 4.941406 11.542969 C 4.945312 11.464844 4.945312 11.386719 4.945312 11.304688 C 4.957031 11.132812 4.957031 11.132812 4.875 11.0625 C 4.773438 11.054688 4.671875 11.054688 4.570312 11.054688 C 4.503906 11.054688 4.441406 11.054688 4.375 11.054688 C 4.304688 11.054688 4.234375 11.054688 4.160156 11.054688 C 4.089844 11.054688 4.015625 11.054688 3.941406 11.054688 C 3.789062 11.054688 3.636719 11.054688 3.484375 11.054688 C 3.25 11.054688 3.015625 11.054688 2.78125 11.054688 C 2.636719 11.054688 2.488281 11.054688 2.339844 11.054688 C 2.234375 11.054688 2.234375 11.054688 2.125 11.054688 C 2.0625 11.054688 1.996094 11.054688 1.929688 11.054688 C 1.871094 11.054688 1.816406 11.054688 1.753906 11.054688 C 1.625 11.046875 1.625 11.046875 1.5625 11.125 C 1.554688 11.253906 1.554688 11.382812 1.554688 11.507812 C 1.554688 11.585938 1.554688 11.667969 1.554688 11.746094 C 1.554688 11.828125 1.554688 11.910156 1.554688 11.996094 C 1.554688 12.078125 1.554688 12.160156 1.554688 12.246094 C 1.554688 12.324219 1.554688 12.402344 1.554688 12.484375 C 1.554688 12.554688 1.554688 12.625 1.554688 12.703125 C 1.550781 12.871094 1.550781 12.871094 1.625 13 C 1.445312 12.964844 1.382812 12.945312 1.25 12.8125 C 1.238281 12.632812 1.234375 12.460938 1.234375 12.28125 C 1.234375 12.226562 1.234375 12.171875 1.234375 12.117188 C 1.234375 11.933594 1.238281 11.75 1.238281 11.570312 C 1.238281 11.445312 1.238281 11.316406 1.238281 11.191406 C 1.238281 10.859375 1.238281 10.527344 1.242188 10.195312 C 1.242188 9.859375 1.242188 9.519531 1.242188 9.179688 C 1.246094 8.515625 1.246094 7.851562 1.25 7.1875 C 1.476562 7.292969 1.617188 7.417969 1.789062 7.601562 C 1.84375 7.65625 1.898438 7.714844 1.953125 7.769531 C 2.066406 7.890625 2.183594 8.011719 2.296875 8.128906 C 2.351562 8.1875 2.40625 8.242188 2.460938 8.300781 C 2.511719 8.351562 2.558594 8.402344 2.609375 8.457031 C 2.738281 8.578125 2.738281 8.578125 2.894531 8.546875 C 3.011719 8.511719 3.011719 8.511719 3.046875 8.394531 C 3.078125 8.242188 3.078125 8.242188 2.960938 8.113281 C 2.910156 8.0625 2.859375 8.015625 2.808594 7.964844 C 2.726562 7.886719 2.726562 7.886719 2.644531 7.804688 C 2.589844 7.75 2.53125 7.695312 2.472656 7.640625 C 2.414062 7.585938 2.359375 7.53125 2.300781 7.472656 C 2.160156 7.335938 2.019531 7.199219 1.875 7.0625 C 1.964844 6.851562 2.082031 6.722656 2.246094 6.5625 C 2.292969 6.519531 2.34375 6.472656 2.390625 6.425781 C 2.492188 6.328125 2.59375 6.234375 2.695312 6.136719 C 2.742188 6.089844 2.792969 6.046875 2.839844 6 C 2.882812 5.957031 2.929688 5.914062 2.972656 5.871094 C 3.078125 5.753906 3.078125 5.753906 3.046875 5.609375 C 3.011719 5.492188 3.011719 5.492188 2.894531 5.449219 C 2.738281 5.421875 2.738281 5.421875 2.597656 5.558594 C 2.542969 5.613281 2.488281 5.671875 2.429688 5.734375 C 2.398438 5.761719 2.371094 5.792969 2.339844 5.824219 C 2.242188 5.921875 2.148438 6.023438 2.054688 6.121094 C 1.960938 6.21875 1.863281 6.320312 1.769531 6.417969 C 1.683594 6.503906 1.597656 6.59375 1.511719 6.6875 C 1.375 6.8125 1.375 6.8125 1.25 6.8125 C 1.246094 6.546875 1.242188 6.277344 1.238281 6.011719 C 1.238281 5.9375 1.234375 5.859375 1.234375 5.78125 C 1.234375 5.707031 1.230469 5.636719 1.230469 5.5625 C 1.230469 5.496094 1.230469 5.425781 1.230469 5.359375 C 1.25 5.1875 1.25 5.1875 1.3125 5.085938 C 1.511719 4.949219 1.726562 4.972656 1.957031 4.976562 Z M 1.957031 4.976562 "/>
<path style=" stroke:none;fill-rule:nonzero;fill:rgb(0%,0%,0%);fill-opacity:1;" d="M 1.351562 1.71875 C 1.410156 1.71875 1.46875 1.71875 1.527344 1.714844 C 1.726562 1.714844 1.925781 1.714844 2.121094 1.714844 C 2.265625 1.714844 2.40625 1.714844 2.550781 1.714844 C 2.933594 1.714844 3.320312 1.714844 3.707031 1.714844 C 4.027344 1.714844 4.351562 1.714844 4.671875 1.714844 C 5.476562 1.710938 6.277344 1.710938 7.082031 1.714844 C 7.777344 1.714844 8.476562 1.714844 9.171875 1.710938 C 9.886719 1.710938 10.601562 1.710938 11.320312 1.710938 C 11.722656 1.710938 12.125 1.710938 12.523438 1.710938 C 12.902344 1.707031 13.28125 1.707031 13.660156 1.710938 C 13.796875 1.710938 13.9375 1.710938 14.074219 1.710938 C 14.261719 1.707031 14.453125 1.710938 14.640625 1.710938 C 14.722656 1.710938 14.722656 1.710938 14.808594 1.707031 C 15.191406 1.714844 15.460938 1.804688 15.75 2.0625 C 15.980469 2.339844 16.03125 2.609375 16.03125 2.964844 C 16.03125 3.011719 16.03125 3.054688 16.035156 3.101562 C 16.035156 3.253906 16.035156 3.402344 16.035156 3.550781 C 16.035156 3.660156 16.035156 3.765625 16.035156 3.875 C 16.035156 4.164062 16.035156 4.457031 16.035156 4.75 C 16.035156 4.992188 16.035156 5.238281 16.035156 5.480469 C 16.039062 6.054688 16.039062 6.628906 16.035156 7.207031 C 16.035156 7.796875 16.035156 8.390625 16.039062 8.984375 C 16.039062 9.492188 16.039062 10.003906 16.039062 10.511719 C 16.039062 10.816406 16.039062 11.117188 16.039062 11.421875 C 16.042969 11.710938 16.042969 11.996094 16.039062 12.28125 C 16.039062 12.386719 16.039062 12.492188 16.039062 12.59375 C 16.046875 13.542969 16.046875 13.542969 15.796875 13.902344 C 15.425781 14.230469 15.128906 14.285156 14.648438 14.28125 C 14.589844 14.28125 14.53125 14.28125 14.472656 14.285156 C 14.273438 14.285156 14.074219 14.285156 13.878906 14.285156 C 13.734375 14.285156 13.59375 14.285156 13.449219 14.285156 C 13.066406 14.285156 12.679688 14.285156 12.292969 14.285156 C 11.972656 14.285156 11.648438 14.285156 11.328125 14.285156 C 10.523438 14.289062 9.722656 14.289062 8.917969 14.285156 C 8.222656 14.285156 7.523438 14.285156 6.828125 14.289062 C 6.113281 14.289062 5.398438 14.289062 4.679688 14.289062 C 4.277344 14.289062 3.875 14.289062 3.476562 14.289062 C 3.097656 14.292969 2.71875 14.292969 2.339844 14.289062 C 2.203125 14.289062 2.0625 14.289062 1.925781 14.289062 C 1.738281 14.292969 1.546875 14.289062 1.359375 14.289062 C 1.304688 14.289062 1.25 14.289062 1.191406 14.292969 C 0.808594 14.285156 0.539062 14.195312 0.25 13.9375 C 0.0195312 13.660156 -0.03125 13.386719 -0.03125 13.035156 C -0.03125 12.988281 -0.03125 12.945312 -0.0351562 12.898438 C -0.0351562 12.746094 -0.0351562 12.597656 -0.0351562 12.449219 C -0.0351562 12.339844 -0.0351562 12.234375 -0.0351562 12.125 C -0.0351562 11.835938 -0.0351562 11.542969 -0.0351562 11.25 C -0.0351562 11.007812 -0.0351562 10.761719 -0.0351562 10.519531 C -0.0390625 9.945312 -0.0390625 9.371094 -0.0351562 8.792969 C -0.0351562 8.203125 -0.0351562 7.609375 -0.0390625 7.015625 C -0.0390625 6.507812 -0.0390625 5.996094 -0.0390625 5.488281 C -0.0390625 5.183594 -0.0390625 4.878906 -0.0390625 4.578125 C -0.0429688 4.289062 -0.0429688 4.003906 -0.0390625 3.71875 C -0.0390625 3.613281 -0.0390625 3.507812 -0.0390625 3.40625 C -0.046875 2.457031 -0.046875 2.457031 0.203125 2.097656 C 0.574219 1.769531 0.871094 1.714844 1.351562 1.71875 Z M 0.5625 2.5625 C 0.386719 2.917969 0.5 3.351562 0.5 3.75 C 4.625 3.75 8.75 3.75 13 3.75 C 13 3.914062 13 4.078125 13 4.25 C 8.875 4.25 4.75 4.25 0.5 4.25 C 0.496094 5.726562 0.492188 7.207031 0.488281 8.730469 C 0.488281 9.195312 0.484375 9.664062 0.484375 10.144531 C 0.480469 10.5625 0.480469 10.5625 0.480469 10.980469 C 0.480469 11.167969 0.480469 11.355469 0.480469 11.542969 C 0.480469 11.78125 0.476562 12.015625 0.480469 12.253906 C 0.476562 12.34375 0.476562 12.429688 0.476562 12.515625 C 0.476562 12.632812 0.476562 12.753906 0.476562 12.871094 C 0.476562 12.9375 0.476562 13.003906 0.476562 13.070312 C 0.511719 13.332031 0.617188 13.484375 0.789062 13.675781 C 1.019531 13.792969 1.242188 13.777344 1.5 13.773438 C 1.585938 13.773438 1.585938 13.773438 1.671875 13.773438 C 1.867188 13.773438 2.058594 13.773438 2.25 13.773438 C 2.390625 13.773438 2.527344 13.773438 2.664062 13.773438 C 3.042969 13.777344 3.417969 13.777344 3.792969 13.773438 C 4.183594 13.773438 4.578125 13.773438 4.96875 13.773438 C 5.671875 13.777344 6.371094 13.773438 7.074219 13.773438 C 7.710938 13.773438 8.347656 13.773438 8.980469 13.773438 C 9.71875 13.773438 10.460938 13.777344 11.195312 13.773438 C 11.589844 13.773438 11.980469 13.773438 12.371094 13.773438 C 12.738281 13.777344 13.105469 13.777344 13.472656 13.773438 C 13.609375 13.773438 13.742188 13.773438 13.878906 13.773438 C 14.0625 13.773438 14.246094 13.773438 14.429688 13.773438 C 14.511719 13.773438 14.511719 13.773438 14.59375 13.773438 C 14.882812 13.773438 15.082031 13.757812 15.3125 13.5625 C 15.492188 13.332031 15.523438 13.160156 15.523438 12.871094 C 15.523438 12.792969 15.523438 12.71875 15.523438 12.640625 C 15.523438 12.554688 15.523438 12.472656 15.523438 12.386719 C 15.519531 12.300781 15.519531 12.210938 15.523438 12.121094 C 15.523438 11.882812 15.519531 11.640625 15.519531 11.402344 C 15.519531 11.148438 15.519531 10.898438 15.515625 10.648438 C 15.515625 10.171875 15.515625 9.695312 15.511719 9.21875 C 15.511719 8.675781 15.511719 8.136719 15.507812 7.59375 C 15.507812 6.480469 15.503906 5.363281 15.5 4.25 C 15.003906 4.25 14.507812 4.25 14 4.25 C 14 4.085938 14 3.917969 14 3.75 C 14.496094 3.75 14.988281 3.75 15.5 3.75 C 15.507812 3.5 15.507812 3.5 15.519531 3.242188 C 15.523438 3.191406 15.523438 3.136719 15.527344 3.085938 C 15.53125 2.832031 15.515625 2.671875 15.355469 2.46875 C 15.074219 2.207031 14.808594 2.242188 14.445312 2.242188 C 14.390625 2.242188 14.332031 2.238281 14.273438 2.238281 C 14.078125 2.238281 13.886719 2.238281 13.695312 2.238281 C 13.554688 2.238281 13.417969 2.238281 13.28125 2.238281 C 12.824219 2.234375 12.371094 2.234375 11.917969 2.234375 C 11.761719 2.234375 11.605469 2.230469 11.449219 2.230469 C 10.800781 2.230469 10.152344 2.230469 9.503906 2.226562 C 9.335938 2.226562 9.167969 2.226562 9 2.226562 C 8.933594 2.226562 8.933594 2.226562 8.871094 2.226562 C 8.195312 2.226562 7.515625 2.226562 6.835938 2.222656 C 6.140625 2.21875 5.445312 2.21875 4.75 2.21875 C 4.355469 2.21875 3.964844 2.21875 3.574219 2.214844 C 3.207031 2.214844 2.839844 2.210938 2.472656 2.214844 C 2.335938 2.214844 2.203125 2.210938 2.066406 2.210938 C 1.882812 2.210938 1.699219 2.210938 1.515625 2.210938 C 1.460938 2.210938 1.410156 2.210938 1.351562 2.210938 C 0.984375 2.214844 0.820312 2.292969 0.5625 2.5625 Z M 0.5625 2.5625 "/>
<path style=" stroke:none;fill-rule:nonzero;fill:rgb(85.882354%,85.882354%,85.882354%);fill-opacity:1;" d="M 1.484375 2.242188 C 1.542969 2.242188 1.597656 2.242188 1.65625 2.242188 C 1.851562 2.238281 2.042969 2.238281 2.238281 2.238281 C 2.375 2.238281 2.511719 2.238281 2.652344 2.238281 C 3.027344 2.238281 3.402344 2.238281 3.777344 2.238281 C 4.015625 2.238281 4.25 2.238281 4.484375 2.238281 C 5.132812 2.234375 5.78125 2.234375 6.433594 2.234375 C 6.496094 2.234375 6.496094 2.234375 6.558594 2.234375 C 6.601562 2.234375 6.640625 2.234375 6.683594 2.234375 C 6.769531 2.234375 6.855469 2.234375 6.9375 2.234375 C 7 2.234375 7 2.234375 7.066406 2.234375 C 7.742188 2.234375 8.421875 2.234375 9.101562 2.230469 C 9.796875 2.230469 10.496094 2.230469 11.191406 2.230469 C 11.582031 2.230469 11.976562 2.230469 12.367188 2.226562 C 12.734375 2.226562 13.101562 2.226562 13.46875 2.226562 C 13.605469 2.226562 13.742188 2.226562 13.875 2.226562 C 14.058594 2.226562 14.246094 2.226562 14.429688 2.226562 C 14.484375 2.226562 14.535156 2.226562 14.59375 2.226562 C 14.949219 2.230469 15.15625 2.292969 15.425781 2.539062 C 15.539062 2.765625 15.519531 2.984375 15.511719 3.234375 C 15.507812 3.40625 15.503906 3.574219 15.5 3.75 C 15.003906 3.75 14.511719 3.75 14 3.75 C 14 3.832031 14 3.914062 14 4 C 13.667969 4 13.339844 4 13 4 C 13 3.917969 13 3.835938 13 3.75 C 8.875 3.75 4.75 3.75 0.5 3.75 C 0.5 2.6875 0.5 2.6875 0.8125 2.3125 C 1.019531 2.207031 1.253906 2.242188 1.484375 2.242188 Z M 1.484375 2.242188 "/>
<path style=" stroke:none;fill-rule:nonzero;fill:rgb(0%,0%,0%);fill-opacity:1;" d="M 1.972656 9.234375 C 2.023438 9.234375 2.074219 9.234375 2.121094 9.234375 C 2.199219 9.234375 2.199219 9.234375 2.28125 9.234375 C 2.457031 9.234375 2.632812 9.234375 2.808594 9.234375 C 2.933594 9.234375 3.058594 9.234375 3.183594 9.234375 C 3.527344 9.234375 3.867188 9.234375 4.207031 9.234375 C 4.566406 9.234375 4.921875 9.234375 5.277344 9.234375 C 5.875 9.234375 6.476562 9.234375 7.074219 9.234375 C 7.769531 9.234375 8.460938 9.234375 9.15625 9.234375 C 9.75 9.234375 10.34375 9.234375 10.9375 9.234375 C 11.292969 9.234375 11.648438 9.234375 12.003906 9.234375 C 12.339844 9.234375 12.671875 9.234375 13.007812 9.234375 C 13.128906 9.234375 13.253906 9.234375 13.375 9.234375 C 13.542969 9.234375 13.710938 9.234375 13.875 9.234375 C 13.925781 9.234375 13.976562 9.234375 14.027344 9.234375 C 14.359375 9.234375 14.359375 9.234375 14.5 9.375 C 14.515625 9.503906 14.515625 9.503906 14.515625 9.65625 C 14.515625 9.710938 14.515625 9.765625 14.515625 9.824219 C 14.515625 9.882812 14.515625 9.941406 14.515625 10 C 14.515625 10.058594 14.515625 10.117188 14.515625 10.175781 C 14.515625 10.230469 14.515625 10.285156 14.515625 10.34375 C 14.515625 10.394531 14.515625 10.445312 14.515625 10.5 C 14.5 10.625 14.5 10.625 14.375 10.75 C 14.207031 10.761719 14.042969 10.765625 13.875 10.765625 C 13.796875 10.765625 13.796875 10.765625 13.71875 10.765625 C 13.542969 10.765625 13.367188 10.765625 13.191406 10.765625 C 13.066406 10.765625 12.941406 10.765625 12.816406 10.765625 C 12.476562 10.769531 12.132812 10.765625 11.792969 10.765625 C 11.433594 10.765625 11.078125 10.765625 10.722656 10.765625 C 10.121094 10.765625 9.523438 10.765625 8.925781 10.765625 C 8.230469 10.765625 7.539062 10.765625 6.84375 10.765625 C 6.25 10.765625 5.65625 10.765625 5.0625 10.765625 C 4.707031 10.765625 4.351562 10.765625 3.996094 10.765625 C 3.660156 10.769531 3.328125 10.765625 2.992188 10.765625 C 2.871094 10.765625 2.746094 10.765625 2.625 10.765625 C 2.457031 10.765625 2.289062 10.765625 2.121094 10.765625 C 2.074219 10.765625 2.023438 10.765625 1.972656 10.765625 C 1.640625 10.765625 1.640625 10.765625 1.5 10.625 C 1.484375 10.5 1.484375 10.5 1.484375 10.34375 C 1.484375 10.289062 1.484375 10.234375 1.484375 10.175781 C 1.484375 10.089844 1.484375 10.089844 1.484375 10 C 1.484375 9.941406 1.484375 9.882812 1.484375 9.824219 C 1.484375 9.769531 1.484375 9.714844 1.484375 9.65625 C 1.484375 9.605469 1.484375 9.554688 1.484375 9.503906 C 1.519531 9.207031 1.726562 9.234375 1.972656 9.234375 Z M 1.972656 9.234375 "/>
<path style=" stroke:none;fill-rule:nonzero;fill:rgb(0%,0%,0%);fill-opacity:1;" d="M 5.730469 10.984375 C 5.84375 10.984375 5.84375 10.984375 5.960938 10.984375 C 6.042969 10.984375 6.128906 10.984375 6.214844 10.984375 C 6.300781 10.984375 6.390625 10.984375 6.480469 10.984375 C 6.71875 10.984375 6.960938 10.984375 7.199219 10.984375 C 7.453125 10.984375 7.703125 10.984375 7.957031 10.984375 C 8.378906 10.984375 8.800781 10.984375 9.222656 10.984375 C 9.710938 10.984375 10.199219 10.984375 10.691406 10.984375 C 11.109375 10.984375 11.527344 10.984375 11.945312 10.984375 C 12.199219 10.984375 12.449219 10.984375 12.699219 10.984375 C 12.933594 10.984375 13.171875 10.984375 13.40625 10.984375 C 13.492188 10.984375 13.578125 10.984375 13.664062 10.984375 C 13.785156 10.984375 13.902344 10.984375 14.019531 10.984375 C 14.085938 10.984375 14.152344 10.984375 14.21875 10.984375 C 14.375 11 14.375 11 14.5 11.125 C 14.515625 11.296875 14.515625 11.296875 14.515625 11.515625 C 14.515625 11.59375 14.515625 11.671875 14.515625 11.753906 C 14.515625 11.832031 14.515625 11.914062 14.515625 12 C 14.515625 12.082031 14.515625 12.164062 14.515625 12.246094 C 14.515625 12.324219 14.515625 12.402344 14.515625 12.484375 C 14.515625 12.554688 14.515625 12.628906 14.515625 12.703125 C 14.5 12.875 14.5 12.875 14.375 13 C 14.21875 13.015625 14.21875 13.015625 14.019531 13.015625 C 13.90625 13.015625 13.90625 13.015625 13.789062 13.015625 C 13.707031 13.015625 13.621094 13.015625 13.535156 13.015625 C 13.449219 13.015625 13.359375 13.015625 13.269531 13.015625 C 13.03125 13.015625 12.789062 13.015625 12.550781 13.015625 C 12.296875 13.015625 12.046875 13.015625 11.792969 13.015625 C 11.371094 13.015625 10.949219 13.015625 10.527344 13.015625 C 10.039062 13.015625 9.550781 13.015625 9.0625 13.015625 C 8.640625 13.015625 8.222656 13.015625 7.804688 13.015625 C 7.550781 13.015625 7.300781 13.015625 7.050781 13.015625 C 6.816406 13.015625 6.582031 13.015625 6.34375 13.015625 C 6.257812 13.015625 6.171875 13.015625 6.085938 13.015625 C 5.964844 13.015625 5.847656 13.015625 5.730469 13.015625 C 5.664062 13.015625 5.597656 13.015625 5.53125 13.015625 C 5.375 13 5.375 13 5.25 12.875 C 5.234375 12.703125 5.234375 12.703125 5.234375 12.484375 C 5.234375 12.40625 5.234375 12.328125 5.234375 12.246094 C 5.234375 12.164062 5.234375 12.085938 5.234375 12 C 5.234375 11.917969 5.234375 11.835938 5.234375 11.753906 C 5.234375 11.675781 5.234375 11.597656 5.234375 11.515625 C 5.234375 11.445312 5.234375 11.371094 5.234375 11.296875 C 5.265625 10.964844 5.441406 10.984375 5.730469 10.984375 Z M 5.730469 10.984375 "/>
<path style=" stroke:none;fill-rule:nonzero;fill:rgb(100%,79.607844%,34.901962%);fill-opacity:1;" d="M 5.75 11.5 C 8.472656 11.5 11.195312 11.5 14 11.5 C 14 11.828125 14 12.160156 14 12.5 C 11.277344 12.5 8.554688 12.5 5.75 12.5 C 5.75 12.171875 5.75 11.839844 5.75 11.5 Z M 5.75 11.5 "/>
<path style=" stroke:none;fill-rule:nonzero;fill:rgb(0%,0%,0%);fill-opacity:1;" d="M 1.9375 10.984375 C 2.03125 10.984375 2.03125 10.984375 2.132812 10.984375 C 2.238281 10.984375 2.238281 10.984375 2.34375 10.984375 C 2.414062 10.984375 2.488281 10.984375 2.5625 10.984375 C 2.710938 10.984375 2.863281 10.984375 3.015625 10.984375 C 3.25 10.984375 3.480469 10.984375 3.714844 10.984375 C 3.863281 10.984375 4.007812 10.984375 4.15625 10.984375 C 4.226562 10.984375 4.296875 10.984375 4.367188 10.984375 C 4.433594 10.984375 4.5 10.984375 4.5625 10.984375 C 4.648438 10.984375 4.648438 10.984375 4.738281 10.984375 C 4.875 11 4.875 11 5 11.125 C 5.015625 11.296875 5.015625 11.296875 5.015625 11.515625 C 5.015625 11.632812 5.015625 11.632812 5.015625 11.75 C 5.015625 11.832031 5.015625 11.914062 5.015625 12 C 5.015625 12.121094 5.015625 12.121094 5.015625 12.25 C 5.015625 12.328125 5.015625 12.402344 5.015625 12.484375 C 5.015625 12.554688 5.015625 12.628906 5.015625 12.703125 C 5 12.875 5 12.875 4.875 13 C 4.738281 13.015625 4.738281 13.015625 4.5625 13.015625 C 4.5 13.015625 4.433594 13.015625 4.367188 13.015625 C 4.265625 13.015625 4.265625 13.015625 4.15625 13.015625 C 4.046875 13.015625 4.046875 13.015625 3.9375 13.015625 C 3.789062 13.015625 3.636719 13.015625 3.484375 13.015625 C 3.25 13.015625 3.019531 13.015625 2.785156 13.015625 C 2.636719 13.015625 2.492188 13.015625 2.34375 13.015625 C 2.273438 13.015625 2.203125 13.015625 2.132812 13.015625 C 2.035156 13.015625 2.035156 13.015625 1.9375 13.015625 C 1.878906 13.015625 1.820312 13.015625 1.761719 13.015625 C 1.625 13 1.625 13 1.5 12.875 C 1.484375 12.703125 1.484375 12.703125 1.484375 12.484375 C 1.484375 12.40625 1.484375 12.328125 1.484375 12.25 C 1.484375 12.167969 1.484375 12.085938 1.484375 12 C 1.484375 11.917969 1.484375 11.835938 1.484375 11.75 C 1.484375 11.671875 1.484375 11.59375 1.484375 11.515625 C 1.484375 11.445312 1.484375 11.371094 1.484375 11.296875 C 1.511719 10.988281 1.660156 10.984375 1.9375 10.984375 Z M 1.9375 10.984375 "/>
<path style=" stroke:none;fill-rule:nonzero;fill:rgb(100%,88.235295%,40.784314%);fill-opacity:1;" d="M 2 9.75 C 5.960938 9.75 9.921875 9.75 14 9.75 C 14 9.914062 14 10.078125 14 10.25 C 10.039062 10.25 6.078125 10.25 2 10.25 C 2 10.085938 2 9.921875 2 9.75 Z M 2 9.75 "/>
<path style=" stroke:none;fill-rule:nonzero;fill:rgb(0%,0%,0%);fill-opacity:1;" d="M 10.765625 5.734375 C 10.882812 5.734375 10.882812 5.734375 11 5.734375 C 11.125 5.734375 11.125 5.734375 11.25 5.734375 C 11.332031 5.734375 11.414062 5.734375 11.5 5.734375 C 11.578125 5.734375 11.652344 5.734375 11.734375 5.734375 C 11.804688 5.734375 11.878906 5.734375 11.953125 5.734375 C 12.125 5.75 12.125 5.75 12.25 5.875 C 12.265625 6.003906 12.265625 6.003906 12.265625 6.15625 C 12.265625 6.238281 12.265625 6.238281 12.265625 6.324219 C 12.265625 6.382812 12.265625 6.441406 12.265625 6.5 C 12.265625 6.585938 12.265625 6.585938 12.265625 6.675781 C 12.265625 6.730469 12.265625 6.785156 12.265625 6.84375 C 12.265625 6.894531 12.265625 6.945312 12.265625 6.996094 C 12.25 7.125 12.25 7.125 12.125 7.25 C 11.984375 7.265625 11.984375 7.265625 11.8125 7.261719 C 11.75 7.261719 11.6875 7.261719 11.625 7.261719 C 11.527344 7.257812 11.527344 7.257812 11.429688 7.257812 C 11.363281 7.257812 11.300781 7.257812 11.234375 7.257812 C 11.070312 7.253906 10.910156 7.253906 10.75 7.25 C 10.75 7.582031 10.75 7.910156 10.75 8.25 C 10.585938 8.25 10.421875 8.25 10.25 8.25 C 10.246094 7.914062 10.246094 7.578125 10.242188 7.242188 C 10.242188 7.128906 10.242188 7.011719 10.242188 6.898438 C 10.238281 6.734375 10.238281 6.570312 10.238281 6.40625 C 10.238281 6.355469 10.234375 6.304688 10.234375 6.25 C 10.234375 6.125 10.242188 6 10.25 5.875 C 10.421875 5.703125 10.523438 5.734375 10.765625 5.734375 Z M 10.765625 5.734375 "/>
<path style=" stroke:none;fill-rule:nonzero;fill:rgb(0%,0%,0%);fill-opacity:1;" d="M 3.75 5.75 C 3.914062 5.75 4.078125 5.75 4.25 5.75 C 4.25 6.078125 4.25 6.410156 4.25 6.75 C 4.578125 6.75 4.910156 6.75 5.25 6.75 C 5.25 6.421875 5.25 6.089844 5.25 5.75 C 5.414062 5.75 5.578125 5.75 5.75 5.75 C 5.75 6.574219 5.75 7.398438 5.75 8.25 C 5.585938 8.25 5.421875 8.25 5.25 8.25 C 5.25 7.921875 5.25 7.589844 5.25 7.25 C 4.921875 7.25 4.589844 7.25 4.25 7.25 C 4.25 7.578125 4.25 7.910156 4.25 8.25 C 4.085938 8.25 3.921875 8.25 3.75 8.25 C 3.75 7.425781 3.75 6.601562 3.75 5.75 Z M 3.75 5.75 "/>
<path style=" stroke:none;fill-rule:nonzero;fill:rgb(94.901961%,60.000002%,9.803922%);fill-opacity:1;" d="M 2 11.5 C 2.824219 11.5 3.648438 11.5 4.5 11.5 C 4.5 11.828125 4.5 12.160156 4.5 12.5 C 3.675781 12.5 2.851562 12.5 2 12.5 C 2 12.171875 2 11.839844 2 11.5 Z M 2 11.5 "/>
<path style=" stroke:none;fill-rule:nonzero;fill:rgb(1.568628%,1.568628%,1.568628%);fill-opacity:1;" d="M 2.886719 5.378906 C 3 5.4375 3 5.4375 3.125 5.5625 C 3.109375 5.804688 2.976562 5.917969 2.808594 6.082031 C 2.757812 6.132812 2.710938 6.183594 2.65625 6.234375 C 2.578125 6.3125 2.578125 6.3125 2.496094 6.390625 C 2.414062 6.46875 2.414062 6.46875 2.335938 6.550781 C 2.203125 6.679688 2.070312 6.808594 1.9375 6.9375 C 2.027344 7.148438 2.144531 7.277344 2.308594 7.433594 C 2.355469 7.480469 2.40625 7.527344 2.453125 7.574219 C 2.554688 7.671875 2.65625 7.765625 2.757812 7.863281 C 2.832031 7.933594 2.832031 7.933594 2.902344 8 C 2.945312 8.042969 2.992188 8.085938 3.035156 8.128906 C 3.125 8.25 3.125 8.25 3.117188 8.382812 C 3.0625 8.5 3.0625 8.5 2.9375 8.625 C 2.675781 8.617188 2.519531 8.425781 2.347656 8.253906 C 2.316406 8.222656 2.285156 8.191406 2.25 8.160156 C 2.183594 8.09375 2.117188 8.027344 2.050781 7.960938 C 1.949219 7.859375 1.847656 7.761719 1.742188 7.660156 C 1.679688 7.597656 1.613281 7.53125 1.550781 7.46875 C 1.519531 7.4375 1.488281 7.410156 1.457031 7.378906 C 1.324219 7.242188 1.25 7.160156 1.242188 6.96875 C 1.335938 6.761719 1.46875 6.621094 1.625 6.464844 C 1.671875 6.417969 1.671875 6.417969 1.71875 6.371094 C 1.785156 6.304688 1.851562 6.238281 1.917969 6.171875 C 2.019531 6.070312 2.121094 5.96875 2.21875 5.867188 C 2.285156 5.800781 2.347656 5.738281 2.414062 5.671875 C 2.441406 5.640625 2.472656 5.609375 2.503906 5.578125 C 2.714844 5.375 2.714844 5.375 2.886719 5.378906 Z M 2.886719 5.378906 "/>
<path style=" stroke:none;fill-rule:nonzero;fill:rgb(1.176471%,1.176471%,1.176471%);fill-opacity:1;" d="M 13.125 5.375 C 13.472656 5.519531 13.71875 5.816406 13.984375 6.078125 C 14.082031 6.175781 14.179688 6.269531 14.277344 6.363281 C 14.339844 6.425781 14.402344 6.488281 14.464844 6.546875 C 14.519531 6.601562 14.578125 6.660156 14.636719 6.714844 C 14.75 6.875 14.75 6.875 14.757812 7.03125 C 14.664062 7.238281 14.527344 7.378906 14.367188 7.53125 C 14.335938 7.5625 14.304688 7.59375 14.269531 7.628906 C 14.167969 7.726562 14.066406 7.828125 13.964844 7.925781 C 13.894531 7.992188 13.828125 8.0625 13.757812 8.128906 C 13.589844 8.296875 13.421875 8.460938 13.25 8.625 C 13.015625 8.53125 13 8.5 12.875 8.25 C 13.265625 7.859375 13.660156 7.464844 14.0625 7.0625 C 13.949219 6.832031 13.871094 6.734375 13.691406 6.5625 C 13.644531 6.519531 13.59375 6.472656 13.546875 6.425781 C 13.445312 6.328125 13.34375 6.234375 13.242188 6.136719 C 13.195312 6.089844 13.144531 6.046875 13.097656 6 C 13.03125 5.9375 13.03125 5.9375 12.964844 5.871094 C 12.875 5.75 12.875 5.75 12.878906 5.617188 C 12.9375 5.5 12.9375 5.5 13.125 5.375 Z M 13.125 5.375 "/>
<path style=" stroke:none;fill-rule:nonzero;fill:rgb(0%,0%,0%);fill-opacity:1;" d="M 8.25 5.75 C 8.746094 5.75 9.238281 5.75 9.75 5.75 C 9.75 5.914062 9.75 6.078125 9.75 6.25 C 9.585938 6.25 9.421875 6.25 9.25 6.25 C 9.25 6.910156 9.25 7.570312 9.25 8.25 C 9.085938 8.25 8.921875 8.25 8.75 8.25 C 8.75 7.589844 8.75 6.929688 8.75 6.25 C 8.585938 6.25 8.421875 6.25 8.25 6.25 C 8.25 6.085938 8.25 5.921875 8.25 5.75 Z M 8.25 5.75 "/>
<path style=" stroke:none;fill-rule:nonzero;fill:rgb(0%,0%,0%);fill-opacity:1;" d="M 6.25 5.75 C 6.746094 5.75 7.238281 5.75 7.75 5.75 C 7.75 5.914062 7.75 6.078125 7.75 6.25 C 7.585938 6.25 7.421875 6.25 7.25 6.25 C 7.25 6.910156 7.25 7.570312 7.25 8.25 C 7.085938 8.25 6.921875 8.25 6.75 8.25 C 6.75 7.589844 6.75 6.929688 6.75 6.25 C 6.585938 6.25 6.421875 6.25 6.25 6.25 C 6.25 6.085938 6.25 5.921875 6.25 5.75 Z M 6.25 5.75 "/>
<path style=" stroke:none;fill-rule:nonzero;fill:rgb(80.000001%,89.019608%,91.764706%);fill-opacity:1;" d="M 10.75 6.25 C 11.078125 6.25 11.410156 6.25 11.75 6.25 C 11.75 6.414062 11.75 6.578125 11.75 6.75 C 11.421875 6.75 11.089844 6.75 10.75 6.75 C 10.75 6.585938 10.75 6.421875 10.75 6.25 Z M 10.75 6.25 "/>
<path style=" stroke:none;fill-rule:nonzero;fill:rgb(0%,0%,0%);fill-opacity:1;" d="M 3 2.75 C 3.164062 2.75 3.328125 2.75 3.5 2.75 C 3.5 2.914062 3.5 3.078125 3.5 3.25 C 3.335938 3.25 3.171875 3.25 3 3.25 C 3 3.085938 3 2.921875 3 2.75 Z M 3 2.75 "/>
<path style=" stroke:none;fill-rule:nonzero;fill:rgb(0%,0%,0%);fill-opacity:1;" d="M 2 2.75 C 2.164062 2.75 2.328125 2.75 2.5 2.75 C 2.5 2.914062 2.5 3.078125 2.5 3.25 C 2.335938 3.25 2.171875 3.25 2 3.25 C 2 3.085938 2 2.921875 2 2.75 Z M 2 2.75 "/>
<path style=" stroke:none;fill-rule:nonzero;fill:rgb(0%,0%,0%);fill-opacity:1;" d="M 1 2.75 C 1.164062 2.75 1.328125 2.75 1.5 2.75 C 1.5 2.914062 1.5 3.078125 1.5 3.25 C 1.335938 3.25 1.171875 3.25 1 3.25 C 1 3.085938 1 2.921875 1 2.75 Z M 1 2.75 "/>
</g>
</svg>
