<?xml version="1.0" encoding="UTF-8"?>
<svg xmlns="http://www.w3.org/2000/svg" xmlns:xlink="http://www.w3.org/1999/xlink" width="16" height="16" viewBox="0 0 16 16" version="1.1">
<g id="surface1">
<path style=" stroke:none;fill-rule:nonzero;fill:rgb(83.529413%,91.37255%,98.431373%);fill-opacity:1;" d="M 7.46875 0.546875 C 7.535156 0.550781 7.597656 0.550781 7.667969 0.550781 C 7.738281 0.550781 7.808594 0.550781 7.878906 0.550781 C 7.953125 0.550781 8.027344 0.554688 8.101562 0.554688 C 8.210938 0.554688 8.210938 0.554688 8.324219 0.554688 C 8.507812 0.558594 8.691406 0.558594 8.875 0.5625 C 8.976562 0.769531 8.945312 1 8.941406 1.226562 C 8.941406 1.277344 8.941406 1.328125 8.941406 1.378906 C 8.941406 1.503906 8.9375 1.625 8.9375 1.75 C 9 1.757812 9.066406 1.765625 9.132812 1.773438 C 9.363281 1.808594 9.550781 1.867188 9.769531 1.953125 C 9.839844 1.980469 9.910156 2.007812 9.980469 2.035156 C 10.222656 2.140625 10.453125 2.261719 10.679688 2.390625 C 10.8125 2.453125 10.8125 2.453125 10.941406 2.398438 C 11.128906 2.265625 11.269531 2.089844 11.417969 1.910156 C 11.5625 1.8125 11.5625 1.8125 11.765625 1.816406 C 12.050781 1.886719 12.199219 2.019531 12.394531 2.222656 C 12.429688 2.257812 12.464844 2.292969 12.503906 2.328125 C 12.578125 2.402344 12.652344 2.476562 12.722656 2.554688 C 12.835938 2.667969 12.949219 2.78125 13.0625 2.894531 C 13.136719 2.964844 13.207031 3.039062 13.277344 3.109375 C 13.3125 3.144531 13.347656 3.175781 13.382812 3.210938 C 13.585938 3.421875 13.6875 3.578125 13.6875 3.875 C 13.578125 4.019531 13.480469 4.125 13.347656 4.242188 C 13.316406 4.273438 13.28125 4.304688 13.246094 4.335938 C 13.164062 4.414062 13.082031 4.488281 13 4.5625 C 13.015625 4.59375 13.03125 4.628906 13.050781 4.660156 C 13.121094 4.8125 13.195312 4.964844 13.269531 5.117188 C 13.292969 5.167969 13.320312 5.21875 13.347656 5.273438 C 13.75 6.113281 13.75 6.113281 13.75 6.5625 C 14.121094 6.5625 14.492188 6.5625 14.875 6.5625 C 14.945312 6.707031 14.945312 6.789062 14.945312 6.949219 C 14.945312 7 14.945312 7.054688 14.945312 7.109375 C 14.945312 7.195312 14.945312 7.195312 14.945312 7.285156 C 14.945312 7.34375 14.945312 7.402344 14.945312 7.464844 C 14.945312 7.589844 14.945312 7.714844 14.945312 7.839844 C 14.945312 8.035156 14.945312 8.226562 14.945312 8.421875 C 14.945312 8.542969 14.945312 8.664062 14.945312 8.785156 C 14.945312 8.84375 14.945312 8.902344 14.945312 8.960938 C 14.945312 9.042969 14.945312 9.042969 14.945312 9.125 C 14.945312 9.171875 14.945312 9.21875 14.945312 9.265625 C 14.9375 9.375 14.9375 9.375 14.875 9.4375 C 14.792969 9.441406 14.707031 9.445312 14.621094 9.441406 C 14.570312 9.441406 14.523438 9.441406 14.46875 9.441406 C 14.417969 9.441406 14.363281 9.441406 14.308594 9.441406 C 14.253906 9.441406 14.203125 9.441406 14.148438 9.441406 C 14.015625 9.441406 13.882812 9.4375 13.75 9.4375 C 13.746094 9.476562 13.738281 9.511719 13.734375 9.550781 C 13.636719 10.222656 13.304688 10.839844 13 11.4375 C 13.050781 11.484375 13.101562 11.527344 13.152344 11.574219 C 13.21875 11.636719 13.28125 11.695312 13.347656 11.757812 C 13.378906 11.789062 13.414062 11.816406 13.449219 11.847656 C 13.542969 11.9375 13.542969 11.9375 13.6875 12.125 C 13.6875 12.421875 13.585938 12.578125 13.382812 12.789062 C 13.347656 12.820312 13.3125 12.855469 13.277344 12.890625 C 13.242188 12.925781 13.207031 12.960938 13.171875 12.996094 C 13.097656 13.070312 13.023438 13.144531 12.949219 13.21875 C 12.835938 13.332031 12.722656 13.445312 12.613281 13.558594 C 12.539062 13.632812 12.46875 13.703125 12.394531 13.777344 C 12.363281 13.8125 12.332031 13.84375 12.296875 13.878906 C 12.0625 14.105469 11.886719 14.183594 11.5625 14.1875 C 11.382812 14.058594 11.382812 14.058594 11.222656 13.878906 C 11.167969 13.820312 11.113281 13.761719 11.058594 13.703125 C 11.019531 13.65625 10.980469 13.609375 10.9375 13.5625 C 10.667969 13.644531 10.421875 13.75 10.167969 13.871094 C 9.355469 14.25 9.355469 14.25 8.9375 14.25 C 8.9375 14.324219 8.9375 14.402344 8.941406 14.476562 C 8.941406 14.578125 8.941406 14.675781 8.941406 14.773438 C 8.941406 14.824219 8.941406 14.871094 8.941406 14.925781 C 8.945312 15.296875 8.945312 15.296875 8.875 15.4375 C 8.617188 15.441406 8.359375 15.441406 8.101562 15.445312 C 8.027344 15.445312 7.953125 15.449219 7.878906 15.449219 C 7.773438 15.449219 7.773438 15.449219 7.667969 15.449219 C 7.601562 15.449219 7.535156 15.449219 7.46875 15.453125 C 7.3125 15.4375 7.3125 15.4375 7.1875 15.3125 C 7.171875 15.179688 7.171875 15.179688 7.171875 15.015625 C 7.171875 14.953125 7.171875 14.890625 7.171875 14.828125 C 7.171875 14.757812 7.171875 14.691406 7.171875 14.625 C 7.171875 14.554688 7.171875 14.484375 7.171875 14.414062 C 7.171875 14.269531 7.171875 14.125 7.171875 13.976562 C 7.171875 13.753906 7.171875 13.53125 7.171875 13.308594 C 7.171875 13.167969 7.171875 13.027344 7.171875 12.886719 C 7.171875 12.816406 7.171875 12.75 7.171875 12.683594 C 7.171875 12.621094 7.171875 12.558594 7.171875 12.492188 C 7.171875 12.4375 7.171875 12.382812 7.171875 12.328125 C 7.1875 12.1875 7.1875 12.1875 7.3125 12 C 7.496094 11.964844 7.675781 11.9375 7.863281 11.914062 C 8.992188 11.757812 9.949219 11.292969 10.644531 10.371094 C 11.324219 9.410156 11.546875 8.332031 11.351562 7.164062 C 11.125 6.140625 10.476562 5.234375 9.605469 4.660156 C 8.941406 4.28125 8.269531 4.117188 7.515625 4.042969 C 7.3125 4 7.3125 4 7.1875 3.8125 C 7.171875 3.671875 7.171875 3.671875 7.171875 3.507812 C 7.171875 3.445312 7.171875 3.382812 7.171875 3.316406 C 7.171875 3.25 7.171875 3.183594 7.171875 3.113281 C 7.171875 3.046875 7.171875 2.976562 7.171875 2.90625 C 7.171875 2.761719 7.171875 2.617188 7.171875 2.46875 C 7.171875 2.246094 7.171875 2.023438 7.171875 1.800781 C 7.171875 1.660156 7.171875 1.519531 7.171875 1.375 C 7.171875 1.277344 7.171875 1.277344 7.171875 1.171875 C 7.171875 1.113281 7.171875 1.050781 7.171875 0.984375 C 7.171875 0.929688 7.171875 0.875 7.171875 0.820312 C 7.195312 0.613281 7.269531 0.566406 7.46875 0.546875 Z M 7.46875 0.546875 "/>
<path style=" stroke:none;fill-rule:nonzero;fill:rgb(0.784314%,0.784314%,0%);fill-opacity:1;" d="M 6.8125 1.625 C 6.992188 1.804688 6.957031 1.980469 6.960938 2.21875 C 6.960938 2.265625 6.960938 2.3125 6.960938 2.359375 C 6.964844 2.460938 6.964844 2.558594 6.964844 2.65625 C 6.964844 2.808594 6.96875 2.957031 6.972656 3.109375 C 6.972656 3.203125 6.972656 3.300781 6.972656 3.394531 C 6.972656 3.441406 6.976562 3.484375 6.976562 3.53125 C 6.976562 3.660156 6.976562 3.660156 6.9375 3.875 C 6.734375 4.039062 6.519531 4.101562 6.273438 4.175781 C 5.933594 4.28125 5.648438 4.429688 5.347656 4.621094 C 5.140625 4.707031 5.027344 4.6875 4.8125 4.625 C 4.667969 4.535156 4.5625 4.429688 4.4375 4.3125 C 4.230469 4.519531 4.023438 4.726562 3.8125 4.9375 C 3.921875 5.183594 3.921875 5.183594 4.074219 5.339844 C 4.1875 5.5 4.1875 5.5 4.175781 5.640625 C 4.113281 5.851562 4.019531 6.035156 3.914062 6.230469 C 3.75 6.542969 3.621094 6.851562 3.539062 7.195312 C 3.5 7.3125 3.5 7.3125 3.375 7.4375 C 3.144531 7.453125 2.917969 7.441406 2.6875 7.4375 C 2.6875 7.808594 2.6875 8.179688 2.6875 8.5625 C 2.796875 8.554688 2.90625 8.550781 3.019531 8.542969 C 3.207031 8.53125 3.207031 8.53125 3.375 8.5625 C 3.535156 8.765625 3.601562 8.980469 3.675781 9.226562 C 3.78125 9.566406 3.933594 9.855469 4.121094 10.15625 C 4.203125 10.347656 4.191406 10.433594 4.125 10.625 C 3.964844 10.800781 3.964844 10.800781 3.8125 10.9375 C 3.90625 11.152344 4.027344 11.289062 4.195312 11.453125 C 4.242188 11.496094 4.285156 11.542969 4.332031 11.585938 C 4.367188 11.621094 4.402344 11.652344 4.4375 11.6875 C 4.484375 11.644531 4.484375 11.644531 4.535156 11.601562 C 4.578125 11.566406 4.621094 11.53125 4.664062 11.496094 C 4.726562 11.441406 4.726562 11.441406 4.792969 11.386719 C 4.996094 11.28125 5.09375 11.3125 5.3125 11.375 C 5.453125 11.441406 5.59375 11.511719 5.734375 11.585938 C 6.046875 11.75 6.351562 11.878906 6.695312 11.960938 C 6.8125 12 6.8125 12 6.9375 12.125 C 6.949219 12.285156 6.953125 12.4375 6.953125 12.597656 C 6.953125 12.644531 6.953125 12.691406 6.953125 12.738281 C 6.953125 12.839844 6.953125 12.9375 6.953125 13.035156 C 6.953125 13.1875 6.953125 13.339844 6.953125 13.488281 C 6.953125 13.585938 6.953125 13.679688 6.953125 13.777344 C 6.953125 13.824219 6.953125 13.867188 6.953125 13.914062 C 6.953125 14.234375 6.953125 14.234375 6.8125 14.375 C 5.457031 14.484375 4.042969 13.578125 3.054688 12.738281 C 1.871094 11.628906 1.101562 10.0625 1.042969 8.429688 C 1.03125 7.609375 1.066406 6.847656 1.3125 6.0625 C 1.335938 5.992188 1.355469 5.921875 1.378906 5.847656 C 1.960938 4.191406 3.148438 2.929688 4.710938 2.144531 C 5.351562 1.855469 6.101562 1.574219 6.8125 1.625 Z M 6.8125 1.625 "/>
<path style=" stroke:none;fill-rule:nonzero;fill:rgb(1.176471%,1.176471%,1.176471%);fill-opacity:1;" d="M 7.46875 0.546875 C 7.535156 0.550781 7.597656 0.550781 7.667969 0.550781 C 7.738281 0.550781 7.808594 0.550781 7.878906 0.550781 C 7.953125 0.550781 8.027344 0.554688 8.101562 0.554688 C 8.210938 0.554688 8.210938 0.554688 8.324219 0.554688 C 8.507812 0.558594 8.691406 0.558594 8.875 0.5625 C 8.976562 0.769531 8.945312 1 8.941406 1.226562 C 8.941406 1.277344 8.941406 1.328125 8.941406 1.378906 C 8.941406 1.503906 8.9375 1.625 8.9375 1.75 C 9 1.757812 9.066406 1.765625 9.132812 1.773438 C 9.363281 1.808594 9.550781 1.867188 9.769531 1.953125 C 9.839844 1.980469 9.910156 2.007812 9.980469 2.035156 C 10.222656 2.140625 10.453125 2.261719 10.679688 2.390625 C 10.8125 2.453125 10.8125 2.453125 10.941406 2.398438 C 11.128906 2.265625 11.269531 2.089844 11.417969 1.910156 C 11.5625 1.8125 11.5625 1.8125 11.765625 1.816406 C 12.050781 1.886719 12.199219 2.019531 12.394531 2.222656 C 12.429688 2.257812 12.464844 2.292969 12.503906 2.328125 C 12.578125 2.402344 12.652344 2.476562 12.722656 2.554688 C 12.835938 2.667969 12.949219 2.78125 13.0625 2.894531 C 13.136719 2.964844 13.207031 3.039062 13.277344 3.109375 C 13.3125 3.144531 13.347656 3.175781 13.382812 3.210938 C 13.585938 3.421875 13.6875 3.578125 13.6875 3.875 C 13.578125 4.019531 13.480469 4.125 13.347656 4.242188 C 13.316406 4.273438 13.28125 4.304688 13.246094 4.335938 C 13.164062 4.414062 13.082031 4.488281 13 4.5625 C 13.015625 4.59375 13.03125 4.628906 13.050781 4.660156 C 13.121094 4.8125 13.195312 4.964844 13.269531 5.117188 C 13.292969 5.167969 13.320312 5.21875 13.347656 5.273438 C 13.75 6.113281 13.75 6.113281 13.75 6.5625 C 14.121094 6.5625 14.492188 6.5625 14.875 6.5625 C 14.945312 6.707031 14.945312 6.789062 14.945312 6.949219 C 14.945312 7 14.945312 7.054688 14.945312 7.109375 C 14.945312 7.195312 14.945312 7.195312 14.945312 7.285156 C 14.945312 7.34375 14.945312 7.402344 14.945312 7.464844 C 14.945312 7.589844 14.945312 7.714844 14.945312 7.839844 C 14.945312 8.035156 14.945312 8.226562 14.945312 8.421875 C 14.945312 8.542969 14.945312 8.664062 14.945312 8.785156 C 14.945312 8.84375 14.945312 8.902344 14.945312 8.960938 C 14.945312 9.042969 14.945312 9.042969 14.945312 9.125 C 14.945312 9.171875 14.945312 9.21875 14.945312 9.265625 C 14.9375 9.375 14.9375 9.375 14.875 9.4375 C 14.792969 9.441406 14.707031 9.445312 14.621094 9.441406 C 14.570312 9.441406 14.523438 9.441406 14.46875 9.441406 C 14.417969 9.441406 14.363281 9.441406 14.308594 9.441406 C 14.253906 9.441406 14.203125 9.441406 14.148438 9.441406 C 14.015625 9.441406 13.882812 9.4375 13.75 9.4375 C 13.746094 9.476562 13.738281 9.511719 13.734375 9.550781 C 13.636719 10.222656 13.304688 10.839844 13 11.4375 C 13.050781 11.484375 13.101562 11.527344 13.152344 11.574219 C 13.21875 11.636719 13.28125 11.695312 13.347656 11.757812 C 13.378906 11.789062 13.414062 11.816406 13.449219 11.847656 C 13.542969 11.9375 13.542969 11.9375 13.6875 12.125 C 13.6875 12.421875 13.585938 12.578125 13.382812 12.789062 C 13.347656 12.820312 13.3125 12.855469 13.277344 12.890625 C 13.242188 12.925781 13.207031 12.960938 13.171875 12.996094 C 13.097656 13.070312 13.023438 13.144531 12.949219 13.21875 C 12.835938 13.332031 12.722656 13.445312 12.613281 13.558594 C 12.539062 13.632812 12.46875 13.703125 12.394531 13.777344 C 12.363281 13.8125 12.332031 13.84375 12.296875 13.878906 C 12.0625 14.105469 11.886719 14.183594 11.5625 14.1875 C 11.382812 14.058594 11.382812 14.058594 11.222656 13.878906 C 11.167969 13.820312 11.113281 13.761719 11.058594 13.703125 C 11.019531 13.65625 10.980469 13.609375 10.9375 13.5625 C 10.667969 13.644531 10.421875 13.75 10.167969 13.871094 C 9.355469 14.25 9.355469 14.25 8.9375 14.25 C 8.9375 14.324219 8.9375 14.402344 8.941406 14.476562 C 8.941406 14.578125 8.941406 14.675781 8.941406 14.773438 C 8.941406 14.824219 8.941406 14.871094 8.941406 14.925781 C 8.945312 15.296875 8.945312 15.296875 8.875 15.4375 C 8.617188 15.441406 8.359375 15.441406 8.101562 15.445312 C 8.027344 15.445312 7.953125 15.449219 7.878906 15.449219 C 7.773438 15.449219 7.773438 15.449219 7.667969 15.449219 C 7.601562 15.449219 7.535156 15.449219 7.46875 15.453125 C 7.3125 15.4375 7.3125 15.4375 7.1875 15.3125 C 7.171875 15.179688 7.171875 15.179688 7.171875 15.015625 C 7.171875 14.953125 7.171875 14.890625 7.171875 14.828125 C 7.171875 14.757812 7.171875 14.691406 7.171875 14.625 C 7.171875 14.554688 7.171875 14.484375 7.171875 14.414062 C 7.171875 14.269531 7.171875 14.125 7.171875 13.976562 C 7.171875 13.753906 7.171875 13.53125 7.171875 13.308594 C 7.171875 13.167969 7.171875 13.027344 7.171875 12.886719 C 7.171875 12.816406 7.171875 12.75 7.171875 12.683594 C 7.171875 12.621094 7.171875 12.558594 7.171875 12.492188 C 7.171875 12.4375 7.171875 12.382812 7.171875 12.328125 C 7.1875 12.1875 7.1875 12.1875 7.3125 12 C 7.496094 11.964844 7.675781 11.9375 7.863281 11.914062 C 8.992188 11.757812 9.949219 11.292969 10.644531 10.371094 C 11.324219 9.410156 11.546875 8.332031 11.351562 7.164062 C 11.125 6.140625 10.476562 5.234375 9.605469 4.660156 C 8.941406 4.28125 8.269531 4.117188 7.515625 4.042969 C 7.3125 4 7.3125 4 7.1875 3.8125 C 7.171875 3.671875 7.171875 3.671875 7.171875 3.507812 C 7.171875 3.445312 7.171875 3.382812 7.171875 3.316406 C 7.171875 3.25 7.171875 3.183594 7.171875 3.113281 C 7.171875 3.046875 7.171875 2.976562 7.171875 2.90625 C 7.171875 2.761719 7.171875 2.617188 7.171875 2.46875 C 7.171875 2.246094 7.171875 2.023438 7.171875 1.800781 C 7.171875 1.660156 7.171875 1.519531 7.171875 1.375 C 7.171875 1.277344 7.171875 1.277344 7.171875 1.171875 C 7.171875 1.113281 7.171875 1.050781 7.171875 0.984375 C 7.171875 0.929688 7.171875 0.875 7.171875 0.820312 C 7.195312 0.613281 7.269531 0.566406 7.46875 0.546875 Z M 7.75 1.0625 C 7.75 1.867188 7.75 2.671875 7.75 3.5 C 8.082031 3.5625 8.410156 3.625 8.75 3.6875 C 9.964844 4.085938 10.902344 4.867188 11.5 6 C 11.980469 7.054688 12.121094 8.210938 11.773438 9.332031 C 11.257812 10.714844 10.410156 11.570312 9.0625 12.1875 C 8.75 12.3125 8.75 12.3125 7.75 12.5 C 7.75 13.304688 7.75 14.109375 7.75 14.9375 C 7.976562 14.9375 8.203125 14.9375 8.4375 14.9375 C 8.457031 14.585938 8.480469 14.238281 8.5 13.875 C 8.730469 13.8125 8.730469 13.8125 8.96875 13.75 C 9.601562 13.570312 10.203125 13.300781 10.75 12.9375 C 10.898438 12.910156 10.898438 12.910156 11.0625 12.9375 C 11.207031 13.0625 11.207031 13.0625 11.347656 13.222656 C 11.480469 13.382812 11.480469 13.382812 11.625 13.5 C 11.867188 13.484375 11.980469 13.351562 12.144531 13.183594 C 12.195312 13.132812 12.246094 13.082031 12.296875 13.03125 C 12.347656 12.980469 12.398438 12.925781 12.453125 12.871094 C 12.503906 12.816406 12.558594 12.765625 12.613281 12.710938 C 12.742188 12.578125 12.871094 12.445312 13 12.3125 C 12.882812 12.0625 12.734375 11.925781 12.527344 11.75 C 12.398438 11.570312 12.40625 11.464844 12.4375 11.25 C 12.53125 11.070312 12.53125 11.070312 12.660156 10.875 C 13.019531 10.296875 13.1875 9.648438 13.375 9 C 13.902344 8.96875 13.902344 8.96875 14.4375 8.9375 C 14.4375 8.320312 14.4375 7.699219 14.4375 7.0625 C 14.085938 7.042969 13.738281 7.019531 13.375 7 C 13.355469 6.921875 13.332031 6.839844 13.3125 6.757812 C 13.03125 5.675781 13.03125 5.675781 12.4375 4.75 C 12.40625 4.511719 12.410156 4.410156 12.5625 4.214844 C 12.613281 4.167969 12.664062 4.121094 12.71875 4.070312 C 12.796875 3.996094 12.796875 3.996094 12.878906 3.921875 C 12.917969 3.886719 12.957031 3.847656 13 3.8125 C 12.855469 3.484375 12.601562 3.261719 12.351562 3.011719 C 12.28125 2.9375 12.28125 2.9375 12.207031 2.859375 C 12.160156 2.8125 12.113281 2.765625 12.066406 2.71875 C 12.023438 2.675781 11.980469 2.628906 11.9375 2.585938 C 11.820312 2.484375 11.820312 2.484375 11.679688 2.511719 C 11.46875 2.601562 11.34375 2.785156 11.195312 2.957031 C 11.0625 3.0625 11.0625 3.0625 10.90625 3.089844 C 10.726562 3.058594 10.628906 3.003906 10.476562 2.898438 C 9.871094 2.515625 9.191406 2.296875 8.5 2.125 C 8.480469 1.773438 8.457031 1.425781 8.4375 1.0625 C 8.210938 1.0625 7.984375 1.0625 7.75 1.0625 Z M 7.75 1.0625 "/>
<path style=" stroke:none;fill-rule:nonzero;fill:rgb(97.254902%,67.843139%,15.294118%);fill-opacity:1;" d="M 6.4375 2.1875 C 6.4375 2.640625 6.4375 3.09375 6.4375 3.5625 C 6.324219 3.597656 6.210938 3.636719 6.09375 3.671875 C 5.851562 3.75 5.628906 3.835938 5.40625 3.960938 C 5.1875 4.0625 5.1875 4.0625 5.0625 4.015625 C 4.945312 3.941406 4.851562 3.863281 4.75 3.769531 C 4.585938 3.609375 4.585938 3.609375 4.445312 3.632812 C 4.144531 3.757812 3.925781 4.039062 3.699219 4.265625 C 3.644531 4.320312 3.585938 4.375 3.53125 4.429688 C 3.476562 4.480469 3.425781 4.53125 3.371094 4.585938 C 3.320312 4.632812 3.273438 4.683594 3.222656 4.730469 C 3.109375 4.871094 3.109375 4.871094 3.136719 5.042969 C 3.191406 5.203125 3.253906 5.28125 3.378906 5.394531 C 3.4375 5.449219 3.5 5.503906 3.5625 5.5625 C 3.445312 5.855469 3.324219 6.148438 3.203125 6.441406 C 3.132812 6.605469 3.066406 6.773438 3 6.9375 C 2.953125 6.941406 2.902344 6.945312 2.851562 6.949219 C 2.789062 6.953125 2.726562 6.960938 2.660156 6.964844 C 2.597656 6.96875 2.535156 6.976562 2.46875 6.980469 C 2.316406 6.984375 2.316406 6.984375 2.25 7.0625 C 2.242188 7.199219 2.242188 7.339844 2.242188 7.476562 C 2.242188 7.519531 2.242188 7.558594 2.242188 7.601562 C 2.242188 7.6875 2.242188 7.777344 2.242188 7.863281 C 2.242188 8 2.242188 8.132812 2.242188 8.269531 C 2.242188 8.355469 2.242188 8.4375 2.242188 8.523438 C 2.242188 8.601562 2.242188 8.679688 2.242188 8.757812 C 2.230469 8.929688 2.230469 8.929688 2.3125 9 C 2.4375 9.015625 2.566406 9.027344 2.691406 9.035156 C 2.796875 9.042969 2.796875 9.042969 2.902344 9.050781 C 2.953125 9.054688 3.007812 9.058594 3.0625 9.0625 C 3.074219 9.101562 3.082031 9.136719 3.09375 9.175781 C 3.191406 9.539062 3.324219 9.847656 3.511719 10.171875 C 3.5625 10.3125 3.5625 10.3125 3.519531 10.445312 C 3.4375 10.5625 3.4375 10.5625 3.269531 10.714844 C 3.105469 10.859375 3.105469 10.859375 3.132812 11.023438 C 3.238281 11.335938 3.5 11.542969 3.730469 11.769531 C 3.78125 11.820312 3.832031 11.875 3.882812 11.929688 C 3.933594 11.976562 3.980469 12.027344 4.03125 12.078125 C 4.078125 12.121094 4.121094 12.167969 4.167969 12.214844 C 4.351562 12.339844 4.46875 12.335938 4.6875 12.3125 C 4.808594 12.234375 4.808594 12.234375 4.898438 12.125 C 4.953125 12.0625 5.007812 12 5.0625 11.9375 C 5.386719 12.042969 5.699219 12.171875 6.011719 12.304688 C 6.195312 12.382812 6.195312 12.382812 6.4375 12.4375 C 6.4375 12.890625 6.4375 13.34375 6.4375 13.8125 C 5.199219 13.644531 4.199219 13.046875 3.3125 12.1875 C 3.25 12.128906 3.25 12.128906 3.183594 12.070312 C 2.289062 11.246094 1.882812 10.09375 1.625 8.9375 C 1.613281 8.894531 1.601562 8.851562 1.585938 8.808594 C 1.316406 7.496094 1.75 6.132812 2.375 5 C 2.40625 4.941406 2.4375 4.878906 2.46875 4.820312 C 3.167969 3.59375 4.449219 2.707031 5.78125 2.3125 C 6.257812 2.1875 6.257812 2.1875 6.4375 2.1875 Z M 6.4375 2.1875 "/>
<path style=" stroke:none;fill-rule:nonzero;fill:rgb(0%,0%,0%);fill-opacity:1;" d="M 7.539062 5.703125 C 7.6875 5.75 7.6875 5.75 7.75 5.8125 C 7.757812 5.941406 7.761719 6.066406 7.761719 6.195312 C 7.765625 6.273438 7.765625 6.351562 7.769531 6.429688 C 7.773438 6.597656 7.773438 6.761719 7.777344 6.925781 C 7.777344 7.003906 7.78125 7.082031 7.78125 7.164062 C 7.785156 7.234375 7.785156 7.308594 7.785156 7.382812 C 7.816406 7.585938 7.851562 7.617188 8 7.75 C 8.046875 8.171875 8.046875 8.171875 7.90625 8.40625 C 7.691406 8.535156 7.496094 8.554688 7.25 8.5 C 7.214844 8.46875 7.179688 8.4375 7.144531 8.40625 C 6.925781 8.265625 6.710938 8.28125 6.457031 8.273438 C 5.945312 8.257812 5.945312 8.257812 5.875 8.1875 C 5.867188 8 5.867188 8 5.875 7.8125 C 6.019531 7.667969 6.410156 7.722656 6.613281 7.71875 C 6.898438 7.71875 6.898438 7.71875 7.125 7.5625 C 7.144531 7.390625 7.144531 7.390625 7.144531 7.1875 C 7.144531 7.113281 7.148438 7.039062 7.148438 6.960938 C 7.152344 6.800781 7.152344 6.644531 7.15625 6.484375 C 7.15625 6.410156 7.160156 6.335938 7.160156 6.257812 C 7.160156 6.1875 7.160156 6.121094 7.164062 6.050781 C 7.1875 5.875 7.1875 5.875 7.273438 5.757812 C 7.375 5.6875 7.375 5.6875 7.539062 5.703125 Z M 7.539062 5.703125 "/>
<path style=" stroke:none;fill-rule:nonzero;fill:rgb(0%,0%,0%);fill-opacity:1;" d="M 7.3125 4.5 C 7.507812 4.488281 7.507812 4.488281 7.6875 4.5 C 7.761719 4.648438 7.761719 4.742188 7.761719 4.90625 C 7.761719 4.957031 7.765625 5.003906 7.765625 5.058594 C 7.75 5.1875 7.75 5.1875 7.625 5.3125 C 7.433594 5.296875 7.433594 5.296875 7.25 5.25 C 7.15625 5.0625 7.175781 4.894531 7.1875 4.6875 C 7.230469 4.625 7.269531 4.5625 7.3125 4.5 Z M 7.3125 4.5 "/>
<path style=" stroke:none;fill-rule:nonzero;fill:rgb(0%,0%,0%);fill-opacity:1;" d="M 7.539062 10.703125 C 7.6875 10.75 7.6875 10.75 7.75 10.8125 C 7.761719 10.9375 7.761719 10.9375 7.761719 11.089844 C 7.761719 11.140625 7.761719 11.191406 7.765625 11.242188 C 7.75 11.375 7.75 11.375 7.625 11.5 C 7.46875 11.519531 7.46875 11.519531 7.3125 11.5 C 7.160156 11.269531 7.164062 11.148438 7.1875 10.875 C 7.292969 10.699219 7.332031 10.683594 7.539062 10.703125 Z M 7.539062 10.703125 "/>
<path style=" stroke:none;fill-rule:nonzero;fill:rgb(0%,0%,0%);fill-opacity:1;" d="M 4.21875 7.742188 C 4.3125 7.746094 4.3125 7.746094 4.410156 7.746094 C 4.472656 7.746094 4.535156 7.746094 4.601562 7.746094 C 4.675781 7.75 4.675781 7.75 4.75 7.75 C 4.820312 8.109375 4.820312 8.109375 4.75 8.25 C 4.636719 8.25 4.523438 8.253906 4.410156 8.253906 C 4.347656 8.253906 4.285156 8.253906 4.21875 8.257812 C 4.0625 8.25 4.0625 8.25 4 8.1875 C 3.992188 8 3.992188 8 4 7.8125 C 4.0625 7.75 4.0625 7.75 4.21875 7.742188 Z M 4.21875 7.742188 "/>
<path style=" stroke:none;fill-rule:nonzero;fill:rgb(0%,0%,0%);fill-opacity:1;" d="M 10.25 7.75 C 10.476562 7.75 10.703125 7.75 10.9375 7.75 C 10.976562 7.929688 10.976562 7.929688 11 8.125 C 10.875 8.25 10.875 8.25 10.726562 8.265625 C 10.671875 8.265625 10.617188 8.261719 10.558594 8.261719 C 10.503906 8.261719 10.445312 8.261719 10.386719 8.261719 C 10.25 8.25 10.25 8.25 10.1875 8.1875 C 10.207031 8.042969 10.226562 7.894531 10.25 7.75 Z M 10.25 7.75 "/>
</g>
</svg>
