<?xml version="1.0" encoding="UTF-8"?>
<svg xmlns="http://www.w3.org/2000/svg" xmlns:xlink="http://www.w3.org/1999/xlink" width="16" height="16" viewBox="0 0 16 16" version="1.1">
<g id="surface1">
<path style=" stroke:none;fill-rule:nonzero;fill:rgb(34.901962%,65.490198%,99.607843%);fill-opacity:1;" d="M 11.25 0.1875 C 11.316406 0.199219 11.382812 0.210938 11.453125 0.222656 C 12.179688 0.34375 12.902344 0.496094 13.613281 0.691406 C 13.695312 0.714844 13.695312 0.714844 13.777344 0.734375 C 13.824219 0.75 13.875 0.765625 13.925781 0.78125 C 13.96875 0.792969 14.011719 0.804688 14.058594 0.816406 C 14.242188 0.898438 14.359375 0.980469 14.5 1.125 C 14.53125 1.300781 14.542969 1.4375 14.539062 1.617188 C 14.539062 1.664062 14.542969 1.714844 14.542969 1.765625 C 14.542969 1.933594 14.542969 2.101562 14.542969 2.265625 C 14.542969 2.386719 14.542969 2.507812 14.542969 2.625 C 14.546875 2.953125 14.546875 3.277344 14.542969 3.601562 C 14.542969 3.871094 14.542969 4.144531 14.542969 4.414062 C 14.546875 5.054688 14.546875 5.695312 14.542969 6.332031 C 14.542969 6.992188 14.542969 7.65625 14.546875 8.3125 C 14.546875 8.882812 14.546875 9.449219 14.546875 10.015625 C 14.546875 10.351562 14.546875 10.691406 14.550781 11.03125 C 14.550781 11.347656 14.550781 11.667969 14.546875 11.984375 C 14.546875 12.101562 14.546875 12.21875 14.546875 12.335938 C 14.550781 12.496094 14.546875 12.65625 14.546875 12.8125 C 14.546875 12.882812 14.546875 12.882812 14.550781 12.953125 C 14.546875 13.128906 14.535156 13.269531 14.417969 13.410156 C 14.21875 13.578125 13.996094 13.707031 13.765625 13.824219 C 13.699219 13.859375 13.628906 13.894531 13.558594 13.933594 C 13.484375 13.96875 13.414062 14.003906 13.339844 14.042969 C 13.265625 14.082031 13.1875 14.121094 13.113281 14.160156 C 12.886719 14.273438 12.664062 14.386719 12.4375 14.5 C 12.375 14.53125 12.316406 14.5625 12.253906 14.59375 C 8.617188 16.40625 8.617188 16.40625 6.75 15.835938 C 6.667969 15.808594 6.582031 15.777344 6.5 15.75 C 6.453125 15.734375 6.40625 15.71875 6.359375 15.703125 C 4.792969 15.15625 3.046875 14.460938 1.6875 13.5 C 1.65625 13.476562 1.621094 13.453125 1.589844 13.433594 C 1.453125 13.246094 1.472656 13.050781 1.476562 12.828125 C 1.476562 12.78125 1.472656 12.730469 1.472656 12.679688 C 1.472656 12.511719 1.472656 12.34375 1.472656 12.175781 C 1.472656 12.058594 1.472656 11.9375 1.472656 11.816406 C 1.46875 11.492188 1.46875 11.167969 1.46875 10.839844 C 1.46875 10.570312 1.46875 10.296875 1.46875 10.027344 C 1.46875 9.386719 1.46875 8.746094 1.46875 8.105469 C 1.46875 7.445312 1.46875 6.78125 1.464844 6.121094 C 1.464844 5.554688 1.460938 4.988281 1.464844 4.421875 C 1.464844 4.082031 1.460938 3.742188 1.460938 3.402344 C 1.460938 3.082031 1.460938 2.765625 1.460938 2.445312 C 1.460938 2.328125 1.460938 2.210938 1.460938 2.09375 C 1.460938 1.9375 1.460938 1.777344 1.460938 1.617188 C 1.460938 1.570312 1.460938 1.523438 1.457031 1.476562 C 1.464844 1.238281 1.480469 1.144531 1.652344 0.972656 C 1.792969 0.886719 1.914062 0.824219 2.074219 0.78125 C 2.148438 0.757812 2.148438 0.757812 2.222656 0.734375 C 2.277344 0.722656 2.332031 0.707031 2.386719 0.691406 C 2.445312 0.675781 2.5 0.660156 2.558594 0.644531 C 3.28125 0.449219 4.011719 0.3125 4.75 0.1875 C 4.808594 0.175781 4.867188 0.167969 4.929688 0.15625 C 6.945312 -0.1875 9.238281 -0.167969 11.25 0.1875 Z M 11.25 0.1875 "/>
<path style=" stroke:none;fill-rule:nonzero;fill:rgb(19.215687%,38.039216%,58.823532%);fill-opacity:1;" d="M 8 0 C 9.914062 -0.03125 11.765625 0.179688 13.613281 0.691406 C 13.667969 0.707031 13.71875 0.71875 13.777344 0.734375 C 13.824219 0.75 13.875 0.765625 13.925781 0.78125 C 13.96875 0.792969 14.011719 0.804688 14.058594 0.816406 C 14.242188 0.898438 14.359375 0.980469 14.5 1.125 C 14.53125 1.300781 14.542969 1.4375 14.539062 1.617188 C 14.539062 1.664062 14.542969 1.714844 14.542969 1.765625 C 14.542969 1.933594 14.542969 2.101562 14.542969 2.265625 C 14.542969 2.386719 14.542969 2.507812 14.542969 2.625 C 14.546875 2.953125 14.546875 3.277344 14.542969 3.601562 C 14.542969 3.871094 14.542969 4.144531 14.542969 4.414062 C 14.546875 5.054688 14.546875 5.695312 14.542969 6.332031 C 14.542969 6.992188 14.542969 7.65625 14.546875 8.3125 C 14.546875 8.882812 14.546875 9.449219 14.546875 10.015625 C 14.546875 10.351562 14.546875 10.691406 14.550781 11.03125 C 14.550781 11.347656 14.550781 11.667969 14.546875 11.984375 C 14.546875 12.101562 14.546875 12.21875 14.546875 12.335938 C 14.550781 12.496094 14.546875 12.65625 14.546875 12.8125 C 14.546875 12.859375 14.546875 12.90625 14.550781 12.953125 C 14.546875 13.128906 14.535156 13.269531 14.417969 13.410156 C 14.21875 13.578125 13.996094 13.707031 13.765625 13.824219 C 13.699219 13.859375 13.628906 13.894531 13.558594 13.933594 C 13.449219 13.988281 13.449219 13.988281 13.339844 14.042969 C 13.265625 14.082031 13.1875 14.121094 13.113281 14.160156 C 12.886719 14.273438 12.664062 14.386719 12.4375 14.5 C 12.375 14.53125 12.316406 14.5625 12.253906 14.59375 C 11.171875 15.128906 10.046875 15.632812 8.875 15.9375 C 8.828125 15.949219 8.78125 15.960938 8.734375 15.972656 C 8.492188 16.011719 8.246094 16 8 16 C 8 14.761719 8 13.523438 8 12.25 C 9.699219 12.238281 9.699219 12.238281 10.234375 12.238281 C 10.375 12.234375 10.515625 12.234375 10.65625 12.230469 C 10.765625 12.230469 10.765625 12.230469 10.875 12.234375 C 10.945312 12.230469 11.015625 12.230469 11.085938 12.230469 C 11.175781 12.226562 11.175781 12.226562 11.269531 12.226562 C 11.511719 12.171875 11.601562 12.074219 11.75 11.875 C 11.78125 11.695312 11.792969 11.554688 11.789062 11.378906 C 11.789062 11.328125 11.789062 11.28125 11.789062 11.230469 C 11.792969 11.070312 11.789062 10.90625 11.789062 10.746094 C 11.789062 10.632812 11.789062 10.519531 11.789062 10.410156 C 11.789062 10.171875 11.789062 9.9375 11.789062 9.703125 C 11.785156 9.402344 11.785156 9.097656 11.785156 8.796875 C 11.789062 8.566406 11.785156 8.332031 11.785156 8.101562 C 11.785156 7.988281 11.785156 7.878906 11.785156 7.765625 C 11.785156 7.609375 11.785156 7.457031 11.78125 7.300781 C 11.785156 7.253906 11.785156 7.207031 11.785156 7.160156 C 11.78125 6.945312 11.765625 6.832031 11.628906 6.660156 C 11.488281 6.554688 11.417969 6.53125 11.242188 6.523438 C 11.171875 6.519531 11.171875 6.519531 11.101562 6.519531 C 11.050781 6.515625 11.003906 6.515625 10.953125 6.515625 C 10.878906 6.511719 10.878906 6.511719 10.804688 6.511719 C 10.679688 6.503906 10.558594 6.503906 10.4375 6.5 C 10.4375 6.449219 10.4375 6.398438 10.4375 6.347656 C 10.433594 6.15625 10.433594 5.960938 10.429688 5.769531 C 10.425781 5.648438 10.425781 5.527344 10.425781 5.402344 C 10.40625 4.601562 10.214844 3.957031 9.644531 3.378906 C 9.128906 2.914062 8.75 2.875 8 2.6875 C 8 1.800781 8 0.914062 8 0 Z M 8 0 "/>
<path style=" stroke:none;fill-rule:nonzero;fill:rgb(99.215686%,50.196081%,21.176471%);fill-opacity:1;" d="M 5.171875 6.460938 C 5.242188 6.457031 5.308594 6.457031 5.378906 6.457031 C 5.601562 6.457031 5.828125 6.457031 6.050781 6.457031 C 6.207031 6.457031 6.363281 6.457031 6.519531 6.457031 C 6.886719 6.457031 7.253906 6.457031 7.621094 6.460938 C 7.917969 6.460938 8.210938 6.460938 8.503906 6.460938 C 8.90625 6.457031 9.3125 6.457031 9.71875 6.457031 C 9.871094 6.457031 10.027344 6.457031 10.179688 6.457031 C 10.394531 6.457031 10.609375 6.457031 10.828125 6.460938 C 10.890625 6.457031 10.953125 6.457031 11.019531 6.457031 C 11.300781 6.460938 11.457031 6.472656 11.695312 6.628906 C 11.839844 6.859375 11.855469 7.042969 11.851562 7.308594 C 11.851562 7.355469 11.851562 7.40625 11.851562 7.457031 C 11.855469 7.617188 11.851562 7.777344 11.851562 7.941406 C 11.851562 8.050781 11.851562 8.164062 11.851562 8.277344 C 11.851562 8.511719 11.851562 8.746094 11.851562 8.980469 C 11.847656 9.285156 11.847656 9.582031 11.847656 9.886719 C 11.851562 10.117188 11.847656 10.347656 11.847656 10.582031 C 11.847656 10.691406 11.847656 10.800781 11.847656 10.914062 C 11.847656 11.070312 11.847656 11.222656 11.84375 11.378906 C 11.847656 11.425781 11.847656 11.472656 11.847656 11.519531 C 11.839844 11.820312 11.777344 11.976562 11.5625 12.1875 C 11.414062 12.261719 11.328125 12.257812 11.164062 12.257812 C 11.078125 12.257812 11.078125 12.257812 10.988281 12.257812 C 10.925781 12.257812 10.863281 12.257812 10.796875 12.257812 C 10.699219 12.257812 10.699219 12.257812 10.597656 12.257812 C 10.375 12.257812 10.15625 12.257812 9.933594 12.257812 C 9.820312 12.257812 9.820312 12.257812 9.703125 12.257812 C 9.261719 12.257812 8.820312 12.253906 8.378906 12.253906 C 8.082031 12.25 7.789062 12.25 7.492188 12.25 C 7.078125 12.246094 6.667969 12.246094 6.257812 12.238281 C 6.097656 12.238281 5.941406 12.238281 5.78125 12.238281 C 5.5625 12.238281 5.339844 12.234375 5.121094 12.230469 C 5.054688 12.230469 4.988281 12.230469 4.921875 12.234375 C 4.832031 12.230469 4.832031 12.230469 4.738281 12.230469 C 4.6875 12.226562 4.632812 12.226562 4.578125 12.226562 C 4.363281 12.167969 4.300781 12.066406 4.1875 11.875 C 4.164062 11.703125 4.152344 11.550781 4.15625 11.378906 C 4.152344 11.304688 4.152344 11.304688 4.152344 11.230469 C 4.152344 11.070312 4.152344 10.910156 4.152344 10.75 C 4.152344 10.636719 4.152344 10.523438 4.152344 10.410156 C 4.148438 10.175781 4.152344 9.941406 4.152344 9.707031 C 4.152344 9.40625 4.152344 9.101562 4.148438 8.800781 C 4.148438 8.570312 4.148438 8.339844 4.148438 8.105469 C 4.148438 7.996094 4.148438 7.882812 4.148438 7.773438 C 4.144531 7.617188 4.148438 7.464844 4.148438 7.308594 C 4.148438 7.261719 4.148438 7.214844 4.144531 7.167969 C 4.148438 6.945312 4.183594 6.816406 4.304688 6.628906 C 4.589844 6.441406 4.835938 6.457031 5.171875 6.460938 Z M 5.171875 6.460938 "/>
<path style=" stroke:none;fill-rule:nonzero;fill:rgb(99.215686%,73.725492%,35.294119%);fill-opacity:1;" d="M 4.855469 6.464844 C 4.925781 6.464844 4.996094 6.464844 5.070312 6.464844 C 5.144531 6.464844 5.21875 6.46875 5.296875 6.46875 C 5.375 6.46875 5.449219 6.46875 5.53125 6.472656 C 5.734375 6.472656 5.9375 6.476562 6.144531 6.476562 C 6.351562 6.480469 6.5625 6.484375 6.769531 6.484375 C 7.179688 6.488281 7.589844 6.492188 8 6.5 C 8 7.058594 8 7.613281 8 8.1875 C 8.042969 8.207031 8.082031 8.230469 8.125 8.25 C 8.019531 8.277344 8.019531 8.277344 7.910156 8.308594 C 7.699219 8.351562 7.699219 8.351562 7.625 8.4375 C 7.609375 8.691406 7.609375 8.949219 7.609375 9.207031 C 7.609375 9.335938 7.605469 9.464844 7.605469 9.59375 C 7.605469 9.671875 7.605469 9.753906 7.605469 9.835938 C 7.605469 9.910156 7.601562 9.988281 7.601562 10.0625 C 7.609375 10.25 7.609375 10.25 7.707031 10.367188 C 7.820312 10.449219 7.820312 10.449219 8 10.5 C 8 11.058594 8 11.613281 8 12.1875 C 7.539062 12.195312 7.082031 12.199219 6.621094 12.203125 C 6.40625 12.207031 6.191406 12.207031 5.980469 12.210938 C 5.730469 12.214844 5.488281 12.214844 5.242188 12.21875 C 5.164062 12.21875 5.089844 12.222656 5.007812 12.222656 C 4.902344 12.222656 4.902344 12.222656 4.792969 12.222656 C 4.730469 12.222656 4.667969 12.222656 4.601562 12.226562 C 4.4375 12.1875 4.4375 12.1875 4.292969 12.058594 C 4.160156 11.828125 4.152344 11.636719 4.152344 11.378906 C 4.152344 11.304688 4.152344 11.304688 4.152344 11.230469 C 4.152344 11.070312 4.152344 10.910156 4.152344 10.75 C 4.152344 10.636719 4.152344 10.523438 4.152344 10.410156 C 4.152344 10.175781 4.152344 9.941406 4.152344 9.707031 C 4.152344 9.40625 4.152344 9.101562 4.148438 8.800781 C 4.148438 8.570312 4.148438 8.339844 4.148438 8.105469 C 4.148438 7.996094 4.148438 7.882812 4.148438 7.773438 C 4.144531 7.617188 4.148438 7.464844 4.148438 7.308594 C 4.148438 7.261719 4.148438 7.214844 4.144531 7.167969 C 4.152344 6.933594 4.183594 6.820312 4.324219 6.628906 C 4.523438 6.484375 4.613281 6.460938 4.855469 6.464844 Z M 4.855469 6.464844 "/>
<path style=" stroke:none;fill-rule:nonzero;fill:rgb(72.549021%,73.725492%,77.64706%);fill-opacity:1;" d="M 9.667969 3.335938 C 10.066406 3.695312 10.308594 4.171875 10.4375 4.6875 C 10.4375 5.285156 10.4375 5.882812 10.4375 6.5 C 8.828125 6.5 7.21875 6.5 5.5625 6.5 C 5.5625 4.15625 5.5625 4.15625 6.304688 3.375 C 7.296875 2.460938 8.640625 2.503906 9.667969 3.335938 Z M 9.667969 3.335938 "/>
<path style=" stroke:none;fill-rule:nonzero;fill:rgb(93.333334%,94.117647%,96.078432%);fill-opacity:1;" d="M 8 2.75 C 8 3.265625 8 3.78125 8 4.3125 C 7.855469 4.355469 7.710938 4.394531 7.5625 4.4375 C 7.371094 4.601562 7.265625 4.699219 7.1875 4.9375 C 7.179688 5.058594 7.171875 5.175781 7.167969 5.296875 C 7.164062 5.359375 7.164062 5.421875 7.160156 5.488281 C 7.15625 5.609375 7.15625 5.609375 7.152344 5.730469 C 7.144531 5.984375 7.132812 6.238281 7.125 6.5 C 6.609375 6.5 6.09375 6.5 5.5625 6.5 C 5.554688 6.222656 5.550781 5.945312 5.546875 5.667969 C 5.546875 5.589844 5.542969 5.511719 5.539062 5.433594 C 5.53125 4.632812 5.746094 3.960938 6.304688 3.375 C 6.835938 2.886719 7.28125 2.75 8 2.75 Z M 8 2.75 "/>
<path style=" stroke:none;fill-rule:nonzero;fill:rgb(35.686275%,65.882355%,99.607843%);fill-opacity:1;" d="M 8.425781 4.386719 C 8.644531 4.566406 8.796875 4.714844 8.839844 5.003906 C 8.839844 5.105469 8.839844 5.105469 8.835938 5.210938 C 8.835938 5.28125 8.835938 5.347656 8.835938 5.417969 C 8.832031 5.546875 8.832031 5.546875 8.828125 5.675781 C 8.824219 5.949219 8.816406 6.21875 8.8125 6.5 C 8.253906 6.5 7.699219 6.5 7.125 6.5 C 7.121094 6.25 7.113281 6.003906 7.109375 5.746094 C 7.105469 5.667969 7.105469 5.589844 7.101562 5.511719 C 7.097656 5.09375 7.121094 4.835938 7.375 4.5 C 7.671875 4.238281 8.070312 4.238281 8.425781 4.386719 Z M 8.425781 4.386719 "/>
<path style=" stroke:none;fill-rule:nonzero;fill:rgb(21.960784%,39.215687%,58.823532%);fill-opacity:1;" d="M 8.121094 8.210938 C 8.320312 8.269531 8.386719 8.394531 8.5 8.5625 C 8.53125 8.742188 8.53125 8.742188 8.535156 8.9375 C 8.535156 9.007812 8.535156 9.078125 8.535156 9.152344 C 8.535156 9.226562 8.53125 9.300781 8.53125 9.375 C 8.53125 9.449219 8.535156 9.523438 8.535156 9.597656 C 8.535156 9.667969 8.535156 9.738281 8.535156 9.8125 C 8.53125 9.875 8.53125 9.941406 8.53125 10.007812 C 8.492188 10.234375 8.414062 10.339844 8.25 10.5 C 8.03125 10.535156 8.03125 10.535156 7.8125 10.5 C 7.625 10.363281 7.570312 10.289062 7.53125 10.058594 C 7.53125 9.984375 7.53125 9.910156 7.53125 9.835938 C 7.53125 9.753906 7.53125 9.675781 7.53125 9.59375 C 7.53125 9.53125 7.53125 9.53125 7.535156 9.46875 C 7.535156 9.339844 7.535156 9.210938 7.535156 9.085938 C 7.539062 8.472656 7.539062 8.472656 7.644531 8.320312 C 7.792969 8.222656 7.945312 8.222656 8.121094 8.210938 Z M 8.121094 8.210938 "/>
<path style=" stroke:none;fill-rule:nonzero;fill:rgb(19.215687%,38.039216%,58.823532%);fill-opacity:1;" d="M 8 4.3125 C 8.53125 4.390625 8.53125 4.390625 8.742188 4.664062 C 8.890625 4.984375 8.851562 5.339844 8.835938 5.683594 C 8.835938 5.761719 8.832031 5.839844 8.832031 5.921875 C 8.828125 6.113281 8.820312 6.308594 8.8125 6.5 C 8.542969 6.5 8.277344 6.5 8 6.5 C 8 5.777344 8 5.054688 8 4.3125 Z M 8 4.3125 "/>
<path style=" stroke:none;fill-rule:nonzero;fill:rgb(35.294119%,65.490198%,99.215686%);fill-opacity:1;" d="M 8 8.25 C 8 8.992188 8 9.734375 8 10.5 C 7.898438 10.480469 7.792969 10.457031 7.6875 10.4375 C 7.488281 10.140625 7.542969 9.820312 7.542969 9.472656 C 7.542969 9.34375 7.542969 9.21875 7.539062 9.089844 C 7.539062 9.007812 7.539062 8.929688 7.539062 8.84375 C 7.539062 8.773438 7.539062 8.699219 7.539062 8.621094 C 7.5625 8.4375 7.5625 8.4375 7.640625 8.316406 C 7.75 8.25 7.75 8.25 8 8.25 Z M 8 8.25 "/>
</g>
</svg>
