<?xml version="1.0" encoding="UTF-8"?>
<svg xmlns="http://www.w3.org/2000/svg" xmlns:xlink="http://www.w3.org/1999/xlink" width="16" height="16" viewBox="0 0 16 16" version="1.1">
<g id="surface1">
<path style=" stroke:none;fill-rule:nonzero;fill:rgb(1.960784%,1.568628%,1.176471%);fill-opacity:1;" d="M 4.359375 -0.0078125 C 4.421875 -0.0117188 4.484375 -0.0117188 4.550781 -0.0117188 C 4.617188 -0.0117188 4.6875 -0.0117188 4.757812 -0.0117188 C 4.832031 -0.0117188 4.902344 -0.0117188 4.980469 -0.0117188 C 5.21875 -0.0117188 5.460938 -0.015625 5.703125 -0.015625 C 5.785156 -0.015625 5.867188 -0.015625 5.949219 -0.015625 C 6.339844 -0.015625 6.730469 -0.0195312 7.121094 -0.0195312 C 7.570312 -0.0195312 8.019531 -0.0195312 8.472656 -0.0234375 C 8.820312 -0.0234375 9.167969 -0.0273438 9.515625 -0.0273438 C 9.722656 -0.0273438 9.929688 -0.0273438 10.136719 -0.0273438 C 10.371094 -0.03125 10.601562 -0.03125 10.832031 -0.0273438 C 10.9375 -0.03125 10.9375 -0.03125 11.039062 -0.03125 C 11.480469 -0.0273438 11.714844 0.0429688 12.042969 0.347656 C 12.070312 0.378906 12.101562 0.410156 12.128906 0.445312 C 12.160156 0.480469 12.195312 0.515625 12.226562 0.554688 C 12.261719 0.589844 12.296875 0.628906 12.332031 0.667969 C 12.40625 0.75 12.484375 0.832031 12.558594 0.914062 C 12.679688 1.039062 12.796875 1.167969 12.910156 1.296875 C 13.445312 1.90625 13.445312 1.90625 14.191406 2.132812 C 14.335938 2.132812 14.472656 2.128906 14.613281 2.117188 C 14.910156 2.109375 15.132812 2.210938 15.375 2.375 C 15.640625 2.648438 15.652344 2.886719 15.648438 3.25 C 15.644531 3.339844 15.644531 3.339844 15.640625 3.429688 C 15.640625 3.492188 15.636719 3.550781 15.636719 3.613281 C 15.632812 3.765625 15.628906 3.914062 15.625 4.0625 C 15.5625 4.082031 15.5 4.105469 15.4375 4.125 C 15.4375 4.332031 15.4375 4.539062 15.4375 4.75 C 15.5 4.769531 15.5625 4.792969 15.625 4.8125 C 15.628906 6.183594 15.632812 7.554688 15.632812 8.925781 C 15.636719 9.566406 15.636719 10.203125 15.640625 10.839844 C 15.640625 11.394531 15.640625 11.949219 15.644531 12.503906 C 15.644531 12.796875 15.644531 13.09375 15.644531 13.386719 C 15.644531 13.664062 15.648438 13.9375 15.644531 14.214844 C 15.644531 14.316406 15.648438 14.417969 15.648438 14.519531 C 15.648438 14.660156 15.648438 14.796875 15.648438 14.9375 C 15.648438 15.015625 15.648438 15.089844 15.648438 15.171875 C 15.613281 15.472656 15.484375 15.632812 15.289062 15.859375 C 14.992188 16.089844 14.625 16.039062 14.269531 16.035156 C 14.1875 16.035156 14.109375 16.035156 14.027344 16.035156 C 13.808594 16.035156 13.589844 16.035156 13.371094 16.03125 C 13.144531 16.03125 12.914062 16.03125 12.6875 16.027344 C 12.253906 16.027344 11.820312 16.027344 11.390625 16.023438 C 10.898438 16.019531 10.402344 16.015625 9.914062 16.015625 C 8.898438 16.011719 7.886719 16.007812 6.875 16 C 6.855469 15.9375 6.832031 15.875 6.8125 15.8125 C 6.605469 15.8125 6.398438 15.8125 6.1875 15.8125 C 6.167969 15.875 6.144531 15.9375 6.125 16 C 5.640625 16.003906 5.160156 16.011719 4.679688 16.011719 C 4.453125 16.015625 4.230469 16.015625 4.003906 16.019531 C 3.789062 16.019531 3.574219 16.023438 3.355469 16.023438 C 3.234375 16.023438 3.113281 16.027344 2.988281 16.027344 C 2.296875 16.027344 2.296875 16.027344 2 15.75 C 1.777344 15.496094 1.742188 15.289062 1.746094 14.957031 C 1.746094 14.894531 1.746094 14.832031 1.746094 14.769531 C 1.75 14.722656 1.75 14.675781 1.75 14.625 C 1.710938 14.628906 1.671875 14.628906 1.632812 14.632812 C 1.277344 14.644531 0.925781 14.644531 0.625 14.4375 C 0.304688 14.085938 0.339844 13.71875 0.339844 13.257812 C 0.339844 13.183594 0.339844 13.105469 0.339844 13.023438 C 0.339844 12.820312 0.339844 12.613281 0.34375 12.40625 C 0.34375 12.28125 0.34375 12.15625 0.34375 12.03125 C 0.339844 11.789062 0.339844 11.546875 0.339844 11.300781 C 0.339844 11.226562 0.339844 11.152344 0.339844 11.074219 C 0.34375 10.679688 0.351562 10.421875 0.625 10.125 C 0.878906 9.9375 1.082031 9.929688 1.386719 9.933594 C 1.492188 9.933594 1.492188 9.933594 1.59375 9.933594 C 1.644531 9.9375 1.695312 9.9375 1.75 9.9375 C 1.75 9.902344 1.75 9.863281 1.75 9.828125 C 1.742188 8.941406 1.738281 8.058594 1.738281 7.171875 C 1.734375 6.746094 1.734375 6.316406 1.730469 5.890625 C 1.726562 5.476562 1.726562 5.0625 1.726562 4.652344 C 1.726562 4.492188 1.726562 4.335938 1.722656 4.179688 C 1.722656 3.957031 1.722656 3.738281 1.722656 3.515625 C 1.71875 3.417969 1.71875 3.417969 1.71875 3.320312 C 1.722656 2.925781 1.769531 2.695312 2 2.375 C 2.277344 2.105469 2.632812 2.105469 3 2.109375 C 3.144531 2.113281 3.292969 2.117188 3.4375 2.125 C 3.4375 2.082031 3.433594 2.042969 3.433594 2 C 3.429688 1.808594 3.429688 1.621094 3.425781 1.429688 C 3.425781 1.363281 3.421875 1.300781 3.421875 1.230469 C 3.417969 0.878906 3.417969 0.613281 3.625 0.3125 C 3.875 0.0859375 4.023438 -0.0078125 4.359375 -0.0078125 Z M 4.359375 -0.0078125 "/>
<path style=" stroke:none;fill-rule:nonzero;fill:rgb(98.823529%,87.058824%,45.882353%);fill-opacity:1;" d="M 10.214844 7.105469 C 10.269531 7.105469 10.320312 7.105469 10.375 7.105469 C 10.550781 7.105469 10.726562 7.105469 10.902344 7.105469 C 11.023438 7.105469 11.144531 7.109375 11.265625 7.109375 C 11.585938 7.109375 11.90625 7.109375 12.226562 7.113281 C 12.550781 7.113281 12.878906 7.113281 13.203125 7.117188 C 13.84375 7.117188 14.484375 7.121094 15.125 7.125 C 15.132812 8.179688 15.136719 9.234375 15.140625 10.285156 C 15.140625 10.777344 15.144531 11.265625 15.148438 11.753906 C 15.152344 12.183594 15.152344 12.609375 15.15625 13.035156 C 15.15625 13.261719 15.15625 13.484375 15.15625 13.710938 C 15.160156 13.964844 15.160156 14.214844 15.160156 14.46875 C 15.160156 14.582031 15.160156 14.582031 15.164062 14.695312 C 15.160156 14.992188 15.15625 15.191406 15.015625 15.453125 C 14.699219 15.625 14.40625 15.605469 14.054688 15.601562 C 13.980469 15.601562 13.902344 15.601562 13.824219 15.601562 C 13.65625 15.601562 13.492188 15.601562 13.324219 15.601562 C 13.0625 15.601562 12.800781 15.601562 12.535156 15.601562 C 12.074219 15.601562 11.609375 15.601562 11.148438 15.601562 C 10.449219 15.601562 9.753906 15.601562 9.054688 15.601562 C 8.792969 15.605469 8.53125 15.605469 8.269531 15.601562 C 8.070312 15.601562 7.871094 15.601562 7.667969 15.601562 C 7.597656 15.601562 7.523438 15.601562 7.449219 15.601562 C 7.382812 15.601562 7.316406 15.601562 7.25 15.601562 C 7.191406 15.601562 7.132812 15.601562 7.074219 15.601562 C 7.03125 15.609375 6.984375 15.617188 6.9375 15.625 C 6.894531 15.6875 6.855469 15.75 6.8125 15.8125 C 6.664062 15.832031 6.664062 15.832031 6.492188 15.824219 C 6.433594 15.824219 6.378906 15.820312 6.320312 15.820312 C 6.277344 15.816406 6.234375 15.816406 6.1875 15.8125 C 6.167969 15.75 6.144531 15.6875 6.125 15.625 C 6.082031 15.625 6.035156 15.625 5.992188 15.625 C 5.578125 15.625 5.164062 15.621094 4.746094 15.617188 C 4.535156 15.613281 4.320312 15.613281 4.109375 15.613281 C 3.863281 15.613281 3.617188 15.609375 3.371094 15.605469 C 3.296875 15.605469 3.21875 15.609375 3.140625 15.609375 C 2.835938 15.601562 2.625 15.597656 2.355469 15.445312 C 2.238281 15.230469 2.238281 15.132812 2.242188 14.894531 C 2.246094 14.832031 2.246094 14.769531 2.246094 14.707031 C 2.25 14.636719 2.25 14.636719 2.25 14.5625 C 2.320312 14.5625 2.320312 14.5625 2.390625 14.5625 C 3.527344 14.558594 4.664062 14.554688 5.804688 14.546875 C 6.351562 14.546875 6.902344 14.542969 7.453125 14.539062 C 7.933594 14.539062 8.410156 14.539062 8.890625 14.535156 C 9.144531 14.53125 9.398438 14.53125 9.652344 14.53125 C 9.890625 14.53125 10.128906 14.53125 10.367188 14.527344 C 10.457031 14.527344 10.542969 14.527344 10.632812 14.527344 C 10.75 14.527344 10.871094 14.527344 10.992188 14.523438 C 11.058594 14.523438 11.125 14.523438 11.195312 14.523438 C 11.476562 14.484375 11.636719 14.367188 11.828125 14.160156 C 11.984375 13.835938 11.972656 13.546875 11.96875 13.191406 C 11.96875 13.121094 11.972656 13.046875 11.972656 12.972656 C 11.972656 12.820312 11.972656 12.671875 11.96875 12.519531 C 11.96875 12.285156 11.96875 12.054688 11.972656 11.824219 C 11.972656 11.675781 11.972656 11.527344 11.96875 11.378906 C 11.972656 11.308594 11.972656 11.242188 11.972656 11.171875 C 11.96875 10.769531 11.9375 10.507812 11.6875 10.1875 C 11.480469 10.050781 11.304688 10.046875 11.058594 10.046875 C 10.980469 10.042969 10.902344 10.042969 10.824219 10.042969 C 10.738281 10.042969 10.652344 10.042969 10.566406 10.042969 C 10.476562 10.042969 10.382812 10.042969 10.292969 10.039062 C 10.046875 10.039062 9.800781 10.039062 9.558594 10.039062 C 9.300781 10.035156 9.042969 10.035156 8.785156 10.03125 C 8.300781 10.03125 7.8125 10.027344 7.328125 10.027344 C 6.773438 10.023438 6.21875 10.019531 5.667969 10.015625 C 4.527344 10.011719 3.390625 10.003906 2.25 10 C 2.25 9.609375 2.25 9.214844 2.25 8.8125 C 2.421875 8.8125 2.597656 8.8125 2.777344 8.8125 C 3.347656 8.8125 3.921875 8.808594 4.496094 8.804688 C 4.84375 8.800781 5.195312 8.800781 5.542969 8.800781 C 5.878906 8.800781 6.214844 8.796875 6.550781 8.796875 C 6.675781 8.792969 6.804688 8.792969 6.933594 8.792969 C 7.113281 8.796875 7.292969 8.792969 7.472656 8.792969 C 7.523438 8.792969 7.578125 8.792969 7.632812 8.792969 C 8.085938 8.785156 8.394531 8.613281 8.707031 8.289062 C 8.746094 8.238281 8.78125 8.1875 8.820312 8.136719 C 8.859375 8.082031 8.902344 8.027344 8.945312 7.972656 C 9.019531 7.871094 9.09375 7.769531 9.167969 7.667969 C 9.214844 7.601562 9.214844 7.601562 9.265625 7.535156 C 9.292969 7.496094 9.320312 7.457031 9.347656 7.417969 C 9.605469 7.113281 9.832031 7.097656 10.214844 7.105469 Z M 10.214844 7.105469 "/>
<path style=" stroke:none;fill-rule:nonzero;fill:rgb(90.588236%,95.294118%,98.823529%);fill-opacity:1;" d="M 4.484375 0.46875 C 4.546875 0.46875 4.605469 0.46875 4.667969 0.46875 C 4.730469 0.46875 4.796875 0.46875 4.863281 0.472656 C 4.96875 0.472656 4.96875 0.472656 5.074219 0.472656 C 5.300781 0.472656 5.527344 0.472656 5.757812 0.476562 C 5.914062 0.476562 6.074219 0.476562 6.230469 0.476562 C 6.605469 0.476562 6.976562 0.480469 7.351562 0.480469 C 7.777344 0.484375 8.203125 0.484375 8.625 0.488281 C 9.5 0.488281 10.375 0.496094 11.25 0.5 C 11.25 0.542969 11.25 0.582031 11.25 0.625 C 11.253906 0.8125 11.257812 1 11.261719 1.1875 C 11.261719 1.25 11.261719 1.316406 11.261719 1.382812 C 11.273438 1.796875 11.328125 2.128906 11.625 2.4375 C 12.167969 2.710938 12.832031 2.601562 13.4375 2.625 C 13.4375 3.964844 13.4375 5.304688 13.4375 6.6875 C 13.085938 6.6875 12.734375 6.6875 12.375 6.6875 C 12.371094 6.542969 12.371094 6.542969 12.371094 6.398438 C 12.367188 6.273438 12.363281 6.144531 12.359375 6.019531 C 12.359375 5.957031 12.359375 5.894531 12.355469 5.828125 C 12.347656 5.566406 12.332031 5.359375 12.230469 5.113281 C 11.949219 4.921875 11.648438 4.953125 11.3125 4.960938 C 11.246094 4.960938 11.175781 4.957031 11.105469 4.957031 C 10.726562 4.957031 10.726562 4.957031 10.394531 5.113281 C 10.269531 5.414062 10.269531 5.699219 10.265625 6.019531 C 10.261719 6.117188 10.261719 6.117188 10.261719 6.214844 C 10.253906 6.371094 10.253906 6.53125 10.25 6.6875 C 10.085938 6.6875 9.921875 6.6875 9.75 6.6875 C 9.75 6.609375 9.75 6.535156 9.75 6.457031 C 9.746094 6.171875 9.742188 5.890625 9.738281 5.605469 C 9.734375 5.484375 9.734375 5.359375 9.734375 5.238281 C 9.730469 5.0625 9.730469 4.886719 9.726562 4.710938 C 9.726562 4.65625 9.726562 4.601562 9.726562 4.542969 C 9.71875 4.304688 9.714844 4.167969 9.582031 3.964844 C 9.3125 3.796875 9.027344 3.835938 8.722656 3.839844 C 8.65625 3.839844 8.59375 3.835938 8.527344 3.835938 C 8.433594 3.835938 8.433594 3.835938 8.335938 3.835938 C 8.28125 3.835938 8.222656 3.835938 8.164062 3.835938 C 7.925781 3.890625 7.832031 3.996094 7.6875 4.1875 C 7.644531 4.386719 7.644531 4.386719 7.65625 4.601562 C 7.65625 4.679688 7.660156 4.757812 7.660156 4.835938 C 7.664062 4.917969 7.664062 5 7.667969 5.082031 C 7.671875 5.203125 7.671875 5.203125 7.671875 5.332031 C 7.675781 5.53125 7.679688 5.734375 7.6875 5.9375 C 7.875 5.875 7.875 5.875 8.0625 5.8125 C 8.082031 5.296875 8.105469 4.78125 8.125 4.25 C 8.308594 4.25 8.492188 4.246094 8.683594 4.246094 C 8.742188 4.246094 8.800781 4.246094 8.859375 4.246094 C 8.90625 4.246094 8.949219 4.246094 8.996094 4.242188 C 9.042969 4.242188 9.089844 4.242188 9.140625 4.242188 C 9.25 4.25 9.25 4.25 9.3125 4.3125 C 9.332031 4.671875 9.332031 5.035156 9.335938 5.394531 C 9.335938 5.515625 9.335938 5.636719 9.339844 5.761719 C 9.34375 5.9375 9.34375 6.109375 9.34375 6.285156 C 9.347656 6.367188 9.347656 6.367188 9.347656 6.449219 C 9.347656 6.722656 9.34375 6.835938 9.167969 7.050781 C 9.109375 7.097656 9.054688 7.140625 9 7.1875 C 8.933594 7.269531 8.871094 7.351562 8.808594 7.4375 C 8.761719 7.503906 8.761719 7.503906 8.710938 7.570312 C 8.644531 7.664062 8.578125 7.753906 8.511719 7.847656 C 8.480469 7.890625 8.449219 7.933594 8.414062 7.980469 C 8.371094 8.039062 8.371094 8.039062 8.328125 8.101562 C 8.300781 8.128906 8.277344 8.15625 8.25 8.1875 C 8.207031 8.1875 8.167969 8.1875 8.125 8.1875 C 8.105469 7.714844 8.082031 7.238281 8.0625 6.75 C 7.960938 6.730469 7.855469 6.707031 7.75 6.6875 C 7.640625 6.796875 7.671875 6.949219 7.667969 7.097656 C 7.664062 7.203125 7.664062 7.203125 7.660156 7.3125 C 7.65625 7.386719 7.65625 7.457031 7.652344 7.535156 C 7.648438 7.648438 7.648438 7.648438 7.644531 7.761719 C 7.636719 7.945312 7.632812 8.128906 7.625 8.3125 C 7.460938 8.3125 7.296875 8.3125 7.125 8.3125 C 7.125 8.246094 7.125 8.179688 7.125 8.109375 C 7.125 7.480469 7.121094 6.851562 7.117188 6.222656 C 7.113281 5.898438 7.113281 5.578125 7.113281 5.253906 C 7.113281 4.941406 7.109375 4.628906 7.109375 4.316406 C 7.105469 4.199219 7.105469 4.078125 7.105469 3.960938 C 7.109375 3.792969 7.105469 3.625 7.105469 3.460938 C 7.105469 3.386719 7.105469 3.386719 7.105469 3.308594 C 7.101562 3.066406 7.085938 2.960938 6.914062 2.78125 C 6.636719 2.621094 6.375 2.648438 6.0625 2.652344 C 6 2.652344 5.9375 2.648438 5.875 2.648438 C 5.816406 2.648438 5.757812 2.648438 5.695312 2.648438 C 5.640625 2.648438 5.585938 2.648438 5.53125 2.648438 C 5.296875 2.707031 5.210938 2.8125 5.0625 3 C 5.03125 3.1875 5.019531 3.335938 5.019531 3.523438 C 5.019531 3.601562 5.019531 3.601562 5.019531 3.679688 C 5.015625 3.851562 5.019531 4.023438 5.019531 4.191406 C 5.015625 4.3125 5.015625 4.429688 5.015625 4.546875 C 5.011719 4.859375 5.011719 5.171875 5.011719 5.484375 C 5.011719 5.800781 5.007812 6.121094 5.007812 6.4375 C 5.003906 7.0625 5 7.6875 5 8.3125 C 4.648438 8.3125 4.296875 8.3125 3.9375 8.3125 C 3.933594 7.332031 3.925781 6.347656 3.925781 5.367188 C 3.921875 4.910156 3.921875 4.457031 3.917969 4 C 3.917969 3.601562 3.914062 3.207031 3.914062 2.808594 C 3.914062 2.597656 3.914062 2.386719 3.910156 2.175781 C 3.910156 1.941406 3.910156 1.707031 3.910156 1.472656 C 3.90625 1.402344 3.90625 1.332031 3.90625 1.261719 C 3.90625 1.195312 3.90625 1.132812 3.90625 1.066406 C 3.90625 1.011719 3.90625 0.957031 3.90625 0.898438 C 3.972656 0.578125 4.175781 0.46875 4.484375 0.46875 Z M 4.484375 0.46875 "/>
<path style=" stroke:none;fill-rule:nonzero;fill:rgb(59.215689%,89.019608%,97.647059%);fill-opacity:1;" d="M 1.472656 10.414062 C 1.535156 10.414062 1.535156 10.414062 1.601562 10.414062 C 1.742188 10.410156 1.882812 10.414062 2.023438 10.414062 C 2.121094 10.414062 2.222656 10.414062 2.324219 10.414062 C 2.597656 10.410156 2.871094 10.410156 3.144531 10.414062 C 3.429688 10.414062 3.71875 10.414062 4.003906 10.410156 C 4.484375 10.410156 4.964844 10.414062 5.445312 10.414062 C 6 10.414062 6.558594 10.414062 7.113281 10.414062 C 7.589844 10.410156 8.066406 10.410156 8.542969 10.414062 C 8.828125 10.414062 9.113281 10.414062 9.402344 10.410156 C 9.667969 10.410156 9.9375 10.410156 10.203125 10.414062 C 10.300781 10.414062 10.402344 10.414062 10.5 10.414062 C 10.632812 10.410156 10.769531 10.414062 10.902344 10.414062 C 10.976562 10.414062 11.050781 10.414062 11.128906 10.414062 C 11.3125 10.4375 11.3125 10.4375 11.429688 10.523438 C 11.527344 10.664062 11.523438 10.769531 11.527344 10.941406 C 11.527344 11.035156 11.527344 11.035156 11.527344 11.136719 C 11.527344 11.203125 11.527344 11.273438 11.527344 11.34375 C 11.527344 11.417969 11.527344 11.488281 11.527344 11.5625 C 11.527344 11.710938 11.527344 11.863281 11.527344 12.015625 C 11.527344 12.246094 11.527344 12.476562 11.53125 12.707031 C 11.53125 12.851562 11.53125 13 11.53125 13.144531 C 11.53125 13.214844 11.53125 13.285156 11.53125 13.355469 C 11.53125 13.421875 11.53125 13.484375 11.53125 13.550781 C 11.53125 13.609375 11.53125 13.664062 11.53125 13.722656 C 11.488281 13.929688 11.414062 13.996094 11.25 14.125 C 11.058594 14.15625 11.058594 14.15625 10.835938 14.15625 C 10.792969 14.15625 10.75 14.15625 10.707031 14.15625 C 10.570312 14.15625 10.429688 14.15625 10.289062 14.15625 C 10.1875 14.15625 10.089844 14.15625 9.988281 14.15625 C 9.71875 14.15625 9.445312 14.15625 9.171875 14.15625 C 8.890625 14.15625 8.605469 14.15625 8.320312 14.15625 C 7.84375 14.15625 7.367188 14.15625 6.890625 14.15625 C 6.335938 14.152344 5.785156 14.152344 5.230469 14.152344 C 4.703125 14.152344 4.171875 14.152344 3.640625 14.152344 C 3.414062 14.152344 3.1875 14.152344 2.960938 14.152344 C 2.695312 14.152344 2.429688 14.152344 2.164062 14.152344 C 2.066406 14.152344 1.96875 14.152344 1.871094 14.152344 C 1.738281 14.152344 1.605469 14.152344 1.46875 14.148438 C 1.394531 14.148438 1.320312 14.148438 1.246094 14.148438 C 1.0625 14.125 1.0625 14.125 0.945312 14.039062 C 0.847656 13.894531 0.851562 13.789062 0.851562 13.613281 C 0.851562 13.550781 0.851562 13.484375 0.847656 13.417969 C 0.847656 13.34375 0.851562 13.273438 0.851562 13.203125 C 0.851562 13.128906 0.851562 13.054688 0.851562 12.980469 C 0.847656 12.828125 0.851562 12.671875 0.851562 12.519531 C 0.851562 12.28125 0.851562 12.046875 0.847656 11.808594 C 0.851562 11.660156 0.851562 11.511719 0.851562 11.359375 C 0.851562 11.289062 0.847656 11.21875 0.847656 11.144531 C 0.851562 11.082031 0.851562 11.015625 0.851562 10.949219 C 0.851562 10.890625 0.851562 10.832031 0.851562 10.773438 C 0.910156 10.410156 1.152344 10.414062 1.472656 10.414062 Z M 1.472656 10.414062 "/>
<path style=" stroke:none;fill-rule:nonzero;fill:rgb(96.078432%,67.450982%,20.784314%);fill-opacity:1;" d="M 2.5625 2.625 C 2.871094 2.625 3.179688 2.625 3.5 2.625 C 3.5 4.5 3.5 6.378906 3.5 8.3125 C 3.085938 8.3125 2.675781 8.3125 2.25 8.3125 C 2.242188 7.617188 2.238281 6.921875 2.234375 6.226562 C 2.230469 5.902344 2.230469 5.582031 2.226562 5.257812 C 2.222656 4.945312 2.222656 4.632812 2.21875 4.324219 C 2.21875 4.203125 2.21875 4.085938 2.21875 3.964844 C 2.214844 3.800781 2.214844 3.632812 2.214844 3.464844 C 2.214844 3.417969 2.210938 3.367188 2.210938 3.316406 C 2.214844 2.9375 2.265625 2.921875 2.5625 2.625 Z M 2.5625 2.625 "/>
<path style=" stroke:none;fill-rule:nonzero;fill:rgb(1.960784%,2.745098%,3.137255%);fill-opacity:1;" d="M 6.082031 10.9375 C 6.386719 11.109375 6.574219 11.328125 6.75 11.625 C 6.773438 11.664062 6.796875 11.703125 6.820312 11.746094 C 6.964844 12.09375 6.914062 12.515625 6.78125 12.859375 C 6.605469 13.207031 6.324219 13.460938 5.980469 13.636719 C 5.597656 13.753906 5.140625 13.769531 4.765625 13.617188 C 4.441406 13.414062 4.148438 13.136719 4.023438 12.761719 C 3.949219 12.355469 3.914062 11.898438 4.128906 11.535156 C 4.617188 10.882812 5.300781 10.585938 6.082031 10.9375 Z M 6.082031 10.9375 "/>
<path style=" stroke:none;fill-rule:nonzero;fill:rgb(26.666668%,77.254903%,53.333336%);fill-opacity:1;" d="M 5.941406 3.054688 C 5.992188 3.054688 6.042969 3.054688 6.09375 3.054688 C 6.144531 3.054688 6.191406 3.054688 6.246094 3.054688 C 6.617188 3.054688 6.617188 3.054688 6.6875 3.125 C 6.691406 3.285156 6.695312 3.445312 6.695312 3.609375 C 6.695312 3.660156 6.695312 3.710938 6.695312 3.761719 C 6.695312 3.929688 6.695312 4.097656 6.695312 4.265625 C 6.691406 4.382812 6.691406 4.5 6.691406 4.613281 C 6.691406 4.921875 6.691406 5.226562 6.691406 5.535156 C 6.691406 5.847656 6.691406 6.160156 6.691406 6.472656 C 6.691406 7.085938 6.6875 7.699219 6.6875 8.3125 C 6.296875 8.3125 5.902344 8.3125 5.5 8.3125 C 5.5 7.636719 5.496094 6.960938 5.496094 6.285156 C 5.496094 5.972656 5.496094 5.660156 5.496094 5.347656 C 5.496094 5.042969 5.496094 4.742188 5.492188 4.4375 C 5.492188 4.324219 5.492188 4.207031 5.492188 4.09375 C 5.492188 3.929688 5.492188 3.769531 5.492188 3.609375 C 5.492188 3.558594 5.492188 3.511719 5.492188 3.460938 C 5.492188 3.046875 5.527344 3.054688 5.941406 3.054688 Z M 5.941406 3.054688 "/>
<path style=" stroke:none;fill-rule:nonzero;fill:rgb(94.509804%,78.039217%,34.509805%);fill-opacity:1;" d="M 9.6875 7.125 C 11.480469 7.125 13.277344 7.125 15.125 7.125 C 15.136719 9.148438 15.136719 9.148438 15.140625 10 C 15.140625 10.582031 15.144531 11.167969 15.148438 11.753906 C 15.152344 12.183594 15.152344 12.609375 15.15625 13.035156 C 15.15625 13.261719 15.15625 13.484375 15.15625 13.710938 C 15.160156 13.964844 15.160156 14.214844 15.160156 14.46875 C 15.160156 14.582031 15.160156 14.582031 15.164062 14.695312 C 15.160156 14.992188 15.15625 15.191406 15.015625 15.453125 C 14.703125 15.625 14.410156 15.605469 14.058594 15.597656 C 13.945312 15.597656 13.945312 15.597656 13.828125 15.597656 C 13.621094 15.597656 13.410156 15.597656 13.203125 15.59375 C 12.984375 15.59375 12.765625 15.59375 12.546875 15.59375 C 12.136719 15.589844 11.722656 15.589844 11.3125 15.585938 C 10.839844 15.582031 10.371094 15.578125 9.898438 15.578125 C 8.933594 15.574219 7.96875 15.570312 7 15.5625 C 7 15.542969 7 15.519531 7 15.5 C 10.683594 15.46875 10.683594 15.46875 14.4375 15.4375 C 14.515625 15.277344 14.507812 15.167969 14.511719 14.988281 C 14.511719 14.921875 14.511719 14.851562 14.511719 14.78125 C 14.511719 14.707031 14.511719 14.628906 14.511719 14.550781 C 14.515625 14.472656 14.515625 14.394531 14.515625 14.3125 C 14.515625 14.09375 14.515625 13.875 14.519531 13.660156 C 14.519531 13.433594 14.523438 13.203125 14.523438 12.976562 C 14.527344 12.546875 14.53125 12.117188 14.53125 11.683594 C 14.535156 11.101562 14.539062 10.519531 14.542969 9.9375 C 14.550781 9.023438 14.558594 8.105469 14.5625 7.1875 C 12.953125 7.1875 11.34375 7.1875 9.6875 7.1875 C 9.6875 7.167969 9.6875 7.144531 9.6875 7.125 Z M 9.6875 7.125 "/>
<path style=" stroke:none;fill-rule:nonzero;fill:rgb(98.823529%,69.01961%,21.176471%);fill-opacity:1;" d="M 13.9375 2.625 C 14.8125 2.625 14.8125 2.625 15.125 2.875 C 15.167969 3.007812 15.167969 3.007812 15.167969 3.144531 C 15.171875 3.195312 15.171875 3.246094 15.175781 3.296875 C 15.175781 3.347656 15.175781 3.398438 15.175781 3.453125 C 15.175781 3.503906 15.179688 3.558594 15.179688 3.613281 C 15.183594 3.742188 15.1875 3.871094 15.1875 4 C 15.269531 4.042969 15.351562 4.082031 15.4375 4.125 C 15.4375 4.332031 15.4375 4.539062 15.4375 4.75 C 15.355469 4.792969 15.273438 4.832031 15.1875 4.875 C 15.167969 5.453125 15.144531 6.03125 15.125 6.625 C 14.734375 6.625 14.339844 6.625 13.9375 6.625 C 13.9375 5.304688 13.9375 3.984375 13.9375 2.625 Z M 13.9375 2.625 "/>
<path style=" stroke:none;fill-rule:nonzero;fill:rgb(67.450982%,51.764709%,76.078433%);fill-opacity:1;" d="M 8.125 4.25 C 8.308594 4.25 8.492188 4.246094 8.683594 4.246094 C 8.742188 4.246094 8.800781 4.246094 8.859375 4.246094 C 8.90625 4.246094 8.949219 4.242188 8.996094 4.242188 C 9.042969 4.242188 9.089844 4.242188 9.140625 4.242188 C 9.25 4.25 9.25 4.25 9.3125 4.3125 C 9.332031 4.671875 9.332031 5.035156 9.335938 5.394531 C 9.335938 5.515625 9.335938 5.636719 9.339844 5.761719 C 9.34375 5.9375 9.34375 6.109375 9.34375 6.285156 C 9.347656 6.339844 9.347656 6.394531 9.347656 6.449219 C 9.347656 6.722656 9.34375 6.835938 9.167969 7.050781 C 9.109375 7.097656 9.054688 7.140625 9 7.1875 C 8.933594 7.269531 8.871094 7.351562 8.808594 7.4375 C 8.777344 7.480469 8.746094 7.523438 8.710938 7.570312 C 8.644531 7.664062 8.578125 7.753906 8.511719 7.847656 C 8.480469 7.890625 8.449219 7.933594 8.414062 7.980469 C 8.386719 8.019531 8.359375 8.058594 8.328125 8.101562 C 8.289062 8.144531 8.289062 8.144531 8.25 8.1875 C 8.207031 8.1875 8.167969 8.1875 8.125 8.1875 C 8.125 8.144531 8.125 8.101562 8.125 8.058594 C 8.121094 7.867188 8.113281 7.671875 8.109375 7.480469 C 8.109375 7.414062 8.109375 7.347656 8.105469 7.277344 C 8.105469 7.214844 8.101562 7.148438 8.101562 7.082031 C 8.097656 7.023438 8.097656 6.964844 8.097656 6.902344 C 8.054688 6.707031 7.976562 6.671875 7.8125 6.5625 C 7.789062 6.40625 7.789062 6.40625 7.796875 6.238281 C 7.800781 6.183594 7.800781 6.125 7.804688 6.066406 C 7.808594 6.023438 7.808594 5.980469 7.8125 5.9375 C 7.894531 5.894531 7.976562 5.855469 8.0625 5.8125 C 8.082031 5.296875 8.105469 4.78125 8.125 4.25 Z M 8.125 4.25 "/>
<path style=" stroke:none;fill-rule:nonzero;fill:rgb(99.607843%,76.078433%,26.274511%);fill-opacity:1;" d="M 2.875 2.6875 C 2.875 4.542969 2.875 6.398438 2.875 8.3125 C 2.667969 8.3125 2.460938 8.3125 2.25 8.3125 C 2.246094 7.617188 2.242188 6.917969 2.238281 6.222656 C 2.238281 5.898438 2.238281 5.578125 2.234375 5.253906 C 2.234375 4.941406 2.234375 4.628906 2.234375 4.316406 C 2.230469 4.199219 2.230469 4.078125 2.230469 3.960938 C 2.230469 3.792969 2.230469 3.625 2.230469 3.460938 C 2.226562 3.410156 2.226562 3.359375 2.226562 3.308594 C 2.226562 3.117188 2.242188 2.960938 2.316406 2.78125 C 2.4375 2.6875 2.4375 2.6875 2.875 2.6875 Z M 2.875 2.6875 "/>
<path style=" stroke:none;fill-rule:nonzero;fill:rgb(1.568628%,2.745098%,2.745098%);fill-opacity:1;" d="M 10 11 C 10.125 11.125 10.125 11.125 10.132812 11.289062 C 10.128906 11.339844 10.128906 11.386719 10.125 11.4375 C 9.84375 11.515625 9.84375 11.515625 9.699219 11.441406 C 9.53125 11.359375 9.40625 11.355469 9.21875 11.355469 C 9.160156 11.355469 9.101562 11.351562 9.042969 11.351562 C 8.851562 11.378906 8.769531 11.441406 8.625 11.5625 C 8.582031 11.5625 8.542969 11.5625 8.5 11.5625 C 8.480469 11.609375 8.460938 11.660156 8.441406 11.710938 C 8.375 11.875 8.375 11.875 8.3125 12 C 8.269531 12.253906 8.265625 12.472656 8.386719 12.707031 C 8.546875 12.925781 8.679688 13.085938 8.9375 13.1875 C 9.28125 13.214844 9.523438 13.210938 9.8125 13 C 9.914062 12.839844 9.992188 12.675781 10.0625 12.5 C 9.996094 12.5 9.996094 12.5 9.929688 12.503906 C 9.875 12.503906 9.816406 12.507812 9.757812 12.507812 C 9.671875 12.511719 9.671875 12.511719 9.585938 12.511719 C 9.4375 12.5 9.4375 12.5 9.3125 12.375 C 9.347656 12.152344 9.347656 12.152344 9.4375 12.0625 C 9.605469 12.054688 9.769531 12.054688 9.9375 12.054688 C 9.984375 12.054688 10.03125 12.054688 10.078125 12.054688 C 10.429688 12.054688 10.429688 12.054688 10.5 12.125 C 10.550781 12.539062 10.527344 12.863281 10.28125 13.203125 C 10.039062 13.484375 9.8125 13.667969 9.433594 13.707031 C 8.984375 13.722656 8.664062 13.710938 8.300781 13.429688 C 7.980469 13.105469 7.804688 12.757812 7.796875 12.300781 C 7.804688 11.894531 7.84375 11.605469 8.125 11.300781 C 8.707031 10.761719 9.273438 10.664062 10 11 Z M 10 11 "/>
<path style=" stroke:none;fill-rule:nonzero;fill:rgb(38.431373%,80.392158%,91.764706%);fill-opacity:1;" d="M 10.625 10.4375 C 10.734375 10.433594 10.847656 10.429688 10.957031 10.425781 C 11.019531 10.421875 11.078125 10.421875 11.144531 10.417969 C 11.3125 10.4375 11.3125 10.4375 11.414062 10.511719 C 11.527344 10.660156 11.523438 10.753906 11.523438 10.941406 C 11.527344 11.035156 11.527344 11.035156 11.527344 11.136719 C 11.527344 11.203125 11.527344 11.273438 11.527344 11.34375 C 11.527344 11.417969 11.527344 11.488281 11.527344 11.5625 C 11.527344 11.710938 11.527344 11.863281 11.527344 12.015625 C 11.527344 12.246094 11.53125 12.476562 11.53125 12.707031 C 11.53125 12.851562 11.53125 13 11.53125 13.144531 C 11.53125 13.214844 11.53125 13.285156 11.53125 13.355469 C 11.53125 13.421875 11.53125 13.484375 11.53125 13.550781 C 11.53125 13.609375 11.53125 13.664062 11.53125 13.722656 C 11.488281 13.929688 11.414062 13.996094 11.25 14.125 C 11.058594 14.15625 11.058594 14.15625 10.832031 14.15625 C 10.769531 14.15625 10.769531 14.15625 10.707031 14.15625 C 10.566406 14.15625 10.425781 14.15625 10.285156 14.152344 C 10.1875 14.152344 10.085938 14.152344 9.984375 14.152344 C 9.710938 14.152344 9.441406 14.152344 9.167969 14.152344 C 8.882812 14.148438 8.597656 14.148438 8.3125 14.148438 C 7.773438 14.148438 7.234375 14.144531 6.695312 14.144531 C 6.082031 14.140625 5.464844 14.140625 4.851562 14.136719 C 3.589844 14.136719 2.324219 14.128906 1.0625 14.125 C 1.0625 14.105469 1.0625 14.082031 1.0625 14.0625 C 1.113281 14.0625 1.160156 14.0625 1.210938 14.0625 C 2.40625 14.054688 3.605469 14.046875 4.800781 14.042969 C 5.378906 14.039062 5.957031 14.035156 6.535156 14.03125 C 7.039062 14.027344 7.542969 14.027344 8.046875 14.023438 C 8.3125 14.019531 8.582031 14.019531 8.847656 14.019531 C 9.097656 14.015625 9.347656 14.015625 9.601562 14.015625 C 9.691406 14.011719 9.785156 14.011719 9.878906 14.011719 C 10.003906 14.011719 10.128906 14.011719 10.253906 14.011719 C 10.324219 14.007812 10.394531 14.007812 10.46875 14.007812 C 10.621094 14.015625 10.621094 14.015625 10.6875 13.9375 C 10.695312 13.835938 10.695312 13.730469 10.695312 13.628906 C 10.695312 13.53125 10.695312 13.53125 10.695312 13.429688 C 10.695312 13.359375 10.695312 13.285156 10.695312 13.214844 C 10.695312 13.140625 10.695312 13.066406 10.695312 12.992188 C 10.695312 12.835938 10.695312 12.683594 10.695312 12.527344 C 10.695312 12.289062 10.695312 12.054688 10.695312 11.816406 C 10.695312 11.664062 10.695312 11.515625 10.695312 11.367188 C 10.695312 11.257812 10.695312 11.257812 10.695312 11.148438 C 10.695312 11.082031 10.695312 11.015625 10.695312 10.949219 C 10.695312 10.890625 10.695312 10.832031 10.695312 10.773438 C 10.695312 10.617188 10.695312 10.617188 10.625 10.4375 Z M 10.625 10.4375 "/>
<path style=" stroke:none;fill-rule:nonzero;fill:rgb(58.823532%,88.627452%,97.254902%);fill-opacity:1;" d="M 5.75 11.3125 C 5.964844 11.417969 5.964844 11.417969 6.125 11.5625 C 6.171875 11.605469 6.222656 11.644531 6.273438 11.6875 C 6.4375 11.988281 6.421875 12.289062 6.375 12.625 C 6.234375 12.910156 6.0625 13.113281 5.765625 13.230469 C 5.4375 13.277344 5.214844 13.296875 4.921875 13.144531 C 4.691406 12.953125 4.53125 12.785156 4.4375 12.5 C 4.40625 12.117188 4.441406 11.867188 4.6875 11.5625 C 5 11.261719 5.335938 11.25 5.75 11.3125 Z M 5.75 11.3125 "/>
<path style=" stroke:none;fill-rule:nonzero;fill:rgb(42.745098%,83.137256%,62.7451%);fill-opacity:1;" d="M 5.5 3.125 C 5.6875 3.125 5.871094 3.125 6.0625 3.125 C 6.0625 4.835938 6.0625 6.546875 6.0625 8.3125 C 5.875 8.3125 5.691406 8.3125 5.5 8.3125 C 5.5 6.601562 5.5 4.890625 5.5 3.125 Z M 5.5 3.125 "/>
<path style=" stroke:none;fill-rule:nonzero;fill:rgb(99.607843%,76.078433%,26.274511%);fill-opacity:1;" d="M 13.9375 2.6875 C 14.101562 2.6875 14.265625 2.6875 14.4375 2.6875 C 14.582031 2.90625 14.578125 2.984375 14.578125 3.242188 C 14.578125 3.351562 14.578125 3.351562 14.578125 3.46875 C 14.578125 3.546875 14.574219 3.628906 14.574219 3.714844 C 14.574219 3.796875 14.574219 3.882812 14.574219 3.964844 C 14.574219 4.1875 14.574219 4.40625 14.570312 4.625 C 14.570312 4.851562 14.570312 5.078125 14.570312 5.300781 C 14.566406 5.742188 14.566406 6.183594 14.5625 6.625 C 14.355469 6.625 14.148438 6.625 13.9375 6.625 C 13.9375 5.324219 13.9375 4.027344 13.9375 2.6875 Z M 13.9375 2.6875 "/>
<path style=" stroke:none;fill-rule:nonzero;fill:rgb(77.64706%,92.156863%,97.647059%);fill-opacity:1;" d="M 12.125 2.625 C 12.558594 2.625 12.992188 2.625 13.4375 2.625 C 13.4375 3.964844 13.4375 5.304688 13.4375 6.6875 C 13.085938 6.6875 12.734375 6.6875 12.375 6.6875 C 12.375 6.296875 12.375 5.902344 12.375 5.5 C 12.394531 5.5 12.417969 5.5 12.4375 5.5 C 12.4375 5.871094 12.4375 6.242188 12.4375 6.625 C 12.582031 6.625 12.726562 6.625 12.875 6.625 C 12.875 5.324219 12.875 4.027344 12.875 2.6875 C 12.628906 2.6875 12.378906 2.6875 12.125 2.6875 C 12.125 2.667969 12.125 2.644531 12.125 2.625 Z M 12.125 2.625 "/>
<path style=" stroke:none;fill-rule:nonzero;fill:rgb(5.882353%,5.098039%,2.745098%);fill-opacity:1;" d="M 10.554688 7.742188 C 10.632812 7.742188 10.710938 7.742188 10.792969 7.738281 C 10.878906 7.738281 10.964844 7.738281 11.050781 7.738281 C 11.136719 7.738281 11.226562 7.738281 11.3125 7.738281 C 11.5 7.738281 11.683594 7.738281 11.867188 7.738281 C 12.105469 7.738281 12.339844 7.738281 12.578125 7.738281 C 12.757812 7.734375 12.941406 7.734375 13.121094 7.734375 C 13.210938 7.734375 13.296875 7.734375 13.382812 7.734375 C 13.507812 7.734375 13.628906 7.734375 13.75 7.734375 C 13.820312 7.734375 13.890625 7.734375 13.960938 7.734375 C 14.125 7.75 14.125 7.75 14.25 7.875 C 14.214844 8.160156 14.214844 8.160156 14.125 8.25 C 14.003906 8.257812 13.882812 8.257812 13.757812 8.257812 C 13.679688 8.257812 13.601562 8.257812 13.519531 8.261719 C 13.433594 8.261719 13.347656 8.261719 13.261719 8.261719 C 13.175781 8.261719 13.085938 8.261719 13 8.261719 C 12.8125 8.261719 12.628906 8.261719 12.445312 8.261719 C 12.207031 8.261719 11.972656 8.261719 11.734375 8.261719 C 11.554688 8.265625 11.371094 8.265625 11.191406 8.265625 C 11.101562 8.265625 11.015625 8.265625 10.929688 8.265625 C 10.804688 8.265625 10.683594 8.265625 10.5625 8.265625 C 10.457031 8.265625 10.457031 8.265625 10.351562 8.265625 C 10.1875 8.25 10.1875 8.25 10.0625 8.125 C 10.109375 7.738281 10.179688 7.742188 10.554688 7.742188 Z M 10.554688 7.742188 "/>
<path style=" stroke:none;fill-rule:nonzero;fill:rgb(78.823531%,58.823532%,89.803922%);fill-opacity:1;" d="M 8.125 4.3125 C 8.3125 4.3125 8.496094 4.3125 8.6875 4.3125 C 8.695312 4.6875 8.699219 5.066406 8.703125 5.445312 C 8.707031 5.570312 8.707031 5.699219 8.710938 5.828125 C 8.714844 6.011719 8.71875 6.195312 8.71875 6.382812 C 8.71875 6.4375 8.722656 6.496094 8.722656 6.554688 C 8.722656 6.839844 8.722656 6.957031 8.539062 7.1875 C 8.484375 7.226562 8.429688 7.269531 8.375 7.3125 C 8.328125 7.359375 8.28125 7.40625 8.230469 7.457031 C 8.195312 7.492188 8.160156 7.527344 8.125 7.5625 C 8.125 7.507812 8.121094 7.449219 8.121094 7.390625 C 8.117188 7.316406 8.113281 7.242188 8.109375 7.167969 C 8.105469 7.09375 8.105469 7.019531 8.101562 6.945312 C 8.054688 6.710938 8 6.695312 7.8125 6.5625 C 7.789062 6.40625 7.789062 6.40625 7.796875 6.238281 C 7.800781 6.183594 7.800781 6.125 7.804688 6.066406 C 7.808594 6.023438 7.808594 5.980469 7.8125 5.9375 C 7.894531 5.894531 7.976562 5.855469 8.0625 5.8125 C 8.082031 5.316406 8.105469 4.824219 8.125 4.3125 Z M 8.125 4.3125 "/>
<path style=" stroke:none;fill-rule:nonzero;fill:rgb(3.529412%,5.490196%,6.27451%);fill-opacity:1;" d="M 1.9375 10.8125 C 2.222656 10.847656 2.222656 10.847656 2.3125 10.9375 C 2.316406 11.109375 2.320312 11.277344 2.320312 11.449219 C 2.320312 11.5 2.316406 11.550781 2.316406 11.605469 C 2.316406 11.769531 2.316406 11.933594 2.316406 12.097656 C 2.316406 12.207031 2.316406 12.320312 2.316406 12.429688 C 2.316406 12.703125 2.3125 12.976562 2.3125 13.25 C 2.386719 13.25 2.386719 13.25 2.457031 13.246094 C 2.519531 13.246094 2.582031 13.242188 2.648438 13.242188 C 2.710938 13.242188 2.773438 13.238281 2.835938 13.238281 C 3 13.25 3 13.25 3.125 13.375 C 3.089844 13.660156 3.089844 13.660156 3 13.75 C 2.835938 13.757812 2.671875 13.765625 2.507812 13.765625 C 2.460938 13.765625 2.417969 13.769531 2.367188 13.769531 C 2.03125 13.773438 2.03125 13.773438 1.894531 13.671875 C 1.792969 13.539062 1.789062 13.46875 1.789062 13.300781 C 1.789062 13.25 1.789062 13.199219 1.789062 13.144531 C 1.789062 13.089844 1.789062 13.03125 1.789062 12.972656 C 1.789062 12.917969 1.789062 12.859375 1.789062 12.800781 C 1.789062 12.675781 1.789062 12.554688 1.792969 12.433594 C 1.792969 12.246094 1.792969 12.058594 1.792969 11.871094 C 1.792969 11.753906 1.792969 11.636719 1.792969 11.515625 C 1.792969 11.460938 1.792969 11.40625 1.792969 11.347656 C 1.792969 11.296875 1.796875 11.242188 1.796875 11.1875 C 1.796875 11.144531 1.796875 11.097656 1.796875 11.050781 C 1.8125 10.9375 1.8125 10.9375 1.9375 10.8125 Z M 1.9375 10.8125 "/>
<path style=" stroke:none;fill-rule:nonzero;fill:rgb(84.705883%,23.921569%,30.19608%);fill-opacity:1;" d="M 11 5.367188 C 11.050781 5.367188 11.101562 5.367188 11.152344 5.367188 C 11.203125 5.367188 11.257812 5.367188 11.3125 5.367188 C 11.390625 5.367188 11.390625 5.367188 11.472656 5.367188 C 11.523438 5.367188 11.574219 5.367188 11.625 5.367188 C 11.671875 5.367188 11.71875 5.367188 11.765625 5.367188 C 11.875 5.375 11.875 5.375 11.9375 5.4375 C 11.941406 5.53125 11.945312 5.625 11.945312 5.71875 C 11.945312 5.769531 11.941406 5.816406 11.941406 5.871094 C 11.941406 5.933594 11.941406 6 11.941406 6.066406 C 11.941406 6.269531 11.9375 6.476562 11.9375 6.6875 C 11.523438 6.6875 11.113281 6.6875 10.6875 6.6875 C 10.6875 6.480469 10.683594 6.277344 10.683594 6.066406 C 10.683594 6 10.683594 5.9375 10.683594 5.871094 C 10.683594 5.792969 10.683594 5.792969 10.679688 5.71875 C 10.679688 5.664062 10.679688 5.613281 10.679688 5.558594 C 10.695312 5.335938 10.804688 5.367188 11 5.367188 Z M 11 5.367188 "/>
<path style=" stroke:none;fill-rule:nonzero;fill:rgb(6.27451%,6.666667%,6.666667%);fill-opacity:1;" d="M 5.789062 1.300781 C 5.855469 1.300781 5.855469 1.300781 5.925781 1.300781 C 6.058594 1.300781 6.191406 1.300781 6.324219 1.296875 C 6.410156 1.296875 6.496094 1.296875 6.578125 1.296875 C 6.65625 1.296875 6.734375 1.296875 6.816406 1.296875 C 7 1.3125 7 1.3125 7.125 1.4375 C 7.089844 1.722656 7.089844 1.722656 7 1.8125 C 6.734375 1.824219 6.46875 1.824219 6.199219 1.824219 C 6.066406 1.824219 5.933594 1.824219 5.800781 1.828125 C 5.714844 1.828125 5.628906 1.828125 5.546875 1.828125 C 5.46875 1.828125 5.390625 1.828125 5.308594 1.828125 C 5.125 1.8125 5.125 1.8125 5 1.6875 C 5.0625 1.183594 5.355469 1.304688 5.789062 1.300781 Z M 5.789062 1.300781 "/>
<path style=" stroke:none;fill-rule:nonzero;fill:rgb(35.686275%,78.431374%,89.803922%);fill-opacity:1;" d="M 11.75 0.8125 C 12.0625 1.078125 12.363281 1.351562 12.652344 1.640625 C 12.691406 1.679688 12.730469 1.71875 12.773438 1.757812 C 12.828125 1.816406 12.828125 1.816406 12.886719 1.871094 C 12.921875 1.90625 12.953125 1.9375 12.988281 1.972656 C 13.0625 2.0625 13.0625 2.0625 13.0625 2.1875 C 12.890625 2.195312 12.71875 2.199219 12.546875 2.203125 C 12.472656 2.207031 12.472656 2.207031 12.398438 2.210938 C 12.175781 2.214844 12.039062 2.207031 11.84375 2.097656 C 11.703125 1.855469 11.722656 1.632812 11.734375 1.359375 C 11.734375 1.308594 11.738281 1.253906 11.738281 1.199219 C 11.742188 1.070312 11.746094 0.941406 11.75 0.8125 Z M 11.75 0.8125 "/>
<path style=" stroke:none;fill-rule:nonzero;fill:rgb(98.431373%,37.254903%,47.843137%);fill-opacity:1;" d="M 10.75 5.4375 C 10.9375 5.4375 11.121094 5.4375 11.3125 5.4375 C 11.3125 5.828125 11.3125 6.222656 11.3125 6.625 C 11.125 6.625 10.941406 6.625 10.75 6.625 C 10.75 6.234375 10.75 5.839844 10.75 5.4375 Z M 10.75 5.4375 "/>
<path style=" stroke:none;fill-rule:nonzero;fill:rgb(58.431375%,89.019608%,97.647059%);fill-opacity:1;" d="M 11.75 1.3125 C 12.054688 1.558594 12.316406 1.820312 12.5625 2.125 C 12.460938 2.128906 12.363281 2.132812 12.261719 2.136719 C 12.207031 2.140625 12.148438 2.140625 12.09375 2.144531 C 11.9375 2.125 11.9375 2.125 11.824219 2.050781 C 11.722656 1.898438 11.730469 1.792969 11.738281 1.613281 C 11.738281 1.558594 11.742188 1.5 11.742188 1.441406 C 11.746094 1.398438 11.746094 1.355469 11.75 1.3125 Z M 11.75 1.3125 "/>
</g>
</svg>
