<?xml version="1.0" encoding="UTF-8"?>
<svg xmlns="http://www.w3.org/2000/svg" xmlns:xlink="http://www.w3.org/1999/xlink" width="16" height="16" viewBox="0 0 16 16" version="1.1">
<g id="surface1">
<path style=" stroke:none;fill-rule:nonzero;fill:rgb(81.568629%,86.666667%,87.450981%);fill-opacity:1;" d="M 7.3125 4.4375 C 7.765625 4.4375 8.21875 4.4375 8.6875 4.4375 C 8.734375 4.671875 8.757812 4.847656 8.753906 5.082031 C 8.753906 5.136719 8.753906 5.191406 8.753906 5.25 C 8.75 5.289062 8.75 5.332031 8.75 5.375 C 8.90625 5.40625 8.90625 5.40625 9.0625 5.4375 C 9.109375 5.453125 9.160156 5.46875 9.207031 5.484375 C 9.382812 5.515625 9.382812 5.515625 9.542969 5.398438 C 9.597656 5.347656 9.652344 5.300781 9.707031 5.253906 C 9.789062 5.183594 9.789062 5.183594 9.875 5.113281 C 9.9375 5.054688 9.9375 5.054688 10 5 C 10.355469 5.292969 10.679688 5.609375 11 5.9375 C 10.894531 6.125 10.789062 6.285156 10.640625 6.4375 C 10.480469 6.609375 10.480469 6.609375 10.507812 6.785156 C 10.527344 6.835938 10.542969 6.886719 10.5625 6.9375 C 10.582031 7.042969 10.605469 7.144531 10.625 7.25 C 10.6875 7.25 10.6875 7.25 10.75 7.246094 C 10.804688 7.246094 10.859375 7.246094 10.917969 7.246094 C 11 7.246094 11 7.246094 11.082031 7.242188 C 11.25 7.25 11.25 7.25 11.5625 7.3125 C 11.5625 7.765625 11.5625 8.21875 11.5625 8.6875 C 11.328125 8.734375 11.152344 8.757812 10.917969 8.753906 C 10.835938 8.753906 10.835938 8.753906 10.75 8.753906 C 10.710938 8.75 10.667969 8.75 10.625 8.75 C 10.617188 8.796875 10.605469 8.839844 10.597656 8.886719 C 10.5625 9.0625 10.5625 9.0625 10.515625 9.210938 C 10.480469 9.382812 10.480469 9.382812 10.601562 9.527344 C 10.652344 9.578125 10.699219 9.625 10.746094 9.675781 C 10.816406 9.75 10.816406 9.75 10.886719 9.824219 C 10.925781 9.863281 10.960938 9.898438 11 9.9375 C 10.894531 10.203125 10.703125 10.382812 10.507812 10.582031 C 10.476562 10.617188 10.441406 10.652344 10.40625 10.6875 C 10.308594 10.789062 10.308594 10.789062 10.125 10.9375 C 9.890625 10.910156 9.804688 10.8125 9.648438 10.640625 C 9.523438 10.515625 9.523438 10.515625 9.375 10.4375 C 9.144531 10.453125 8.957031 10.527344 8.75 10.625 C 8.75 10.667969 8.75 10.707031 8.753906 10.75 C 8.753906 10.804688 8.753906 10.859375 8.753906 10.917969 C 8.753906 10.972656 8.753906 11.027344 8.757812 11.082031 C 8.75 11.25 8.75 11.25 8.6875 11.5625 C 8.234375 11.5625 7.78125 11.5625 7.3125 11.5625 C 7.265625 11.328125 7.242188 11.152344 7.246094 10.917969 C 7.246094 10.863281 7.246094 10.808594 7.246094 10.75 C 7.25 10.710938 7.25 10.667969 7.25 10.625 C 7.183594 10.609375 7.183594 10.609375 7.113281 10.597656 C 6.9375 10.5625 6.9375 10.5625 6.792969 10.515625 C 6.617188 10.484375 6.617188 10.484375 6.457031 10.601562 C 6.375 10.671875 6.375 10.671875 6.292969 10.746094 C 6.210938 10.816406 6.210938 10.816406 6.125 10.886719 C 6.085938 10.925781 6.042969 10.960938 6 11 C 5.644531 10.707031 5.320312 10.390625 5 10.0625 C 5.105469 9.875 5.210938 9.714844 5.359375 9.5625 C 5.519531 9.390625 5.519531 9.390625 5.492188 9.214844 C 5.472656 9.164062 5.457031 9.113281 5.4375 9.0625 C 5.40625 8.90625 5.40625 8.90625 5.375 8.75 C 5.332031 8.75 5.292969 8.75 5.25 8.753906 C 5.167969 8.753906 5.167969 8.753906 5.082031 8.753906 C 5.027344 8.753906 4.972656 8.753906 4.917969 8.757812 C 4.75 8.75 4.75 8.75 4.4375 8.6875 C 4.4375 8.234375 4.4375 7.78125 4.4375 7.3125 C 4.746094 7.292969 5.054688 7.269531 5.375 7.25 C 5.480469 6.941406 5.480469 6.941406 5.5 6.625 C 5.363281 6.402344 5.195312 6.234375 5 6.0625 C 5.105469 5.796875 5.296875 5.617188 5.492188 5.417969 C 5.523438 5.382812 5.558594 5.347656 5.59375 5.3125 C 5.691406 5.210938 5.691406 5.210938 5.875 5.0625 C 6.109375 5.089844 6.195312 5.1875 6.351562 5.359375 C 6.476562 5.484375 6.476562 5.484375 6.625 5.5625 C 6.855469 5.546875 7.042969 5.472656 7.25 5.375 C 7.25 5.332031 7.25 5.292969 7.246094 5.25 C 7.246094 5.195312 7.246094 5.140625 7.246094 5.082031 C 7.246094 5.027344 7.246094 4.972656 7.242188 4.917969 C 7.25 4.75 7.25 4.75 7.3125 4.4375 Z M 7.3125 4.4375 "/>
<path style=" stroke:none;fill-rule:nonzero;fill:rgb(56.470591%,55.686277%,76.47059%);fill-opacity:1;" d="M 1.296875 -0.015625 C 1.371094 -0.015625 1.449219 -0.0195312 1.527344 -0.0195312 C 1.925781 0.015625 2.183594 0.199219 2.4375 0.5 C 2.703125 0.878906 2.726562 1.234375 2.6875 1.6875 C 2.65625 1.773438 2.65625 1.773438 2.625 1.859375 C 2.625 2.265625 2.972656 2.523438 3.238281 2.796875 C 3.714844 3.242188 4.140625 3.296875 4.773438 3.285156 C 4.933594 3.277344 5.089844 3.265625 5.25 3.25 C 5.25 3.496094 5.25 3.746094 5.25 4 C 3.710938 4.214844 3.710938 4.214844 3.222656 3.863281 C 2.832031 3.542969 2.507812 3.144531 2.203125 2.746094 C 2.066406 2.601562 2.066406 2.601562 1.867188 2.636719 C 1.808594 2.652344 1.75 2.671875 1.6875 2.6875 C 1.183594 2.738281 0.792969 2.675781 0.375 2.375 C 0.0195312 2 -0.0234375 1.640625 -0.015625 1.144531 C 0.0117188 0.792969 0.109375 0.5625 0.375 0.328125 C 0.695312 0.078125 0.882812 -0.0117188 1.296875 -0.015625 Z M 0.8125 0.9375 C 0.679688 1.105469 0.6875 1.1875 0.691406 1.402344 C 0.761719 1.675781 0.832031 1.777344 1.0625 1.9375 C 1.238281 1.976562 1.386719 1.976562 1.5625 1.9375 C 1.738281 1.824219 1.84375 1.75 1.9375 1.5625 C 1.976562 1.195312 1.976562 1.195312 1.808594 0.878906 C 1.429688 0.613281 1.160156 0.636719 0.8125 0.9375 Z M 0.8125 0.9375 "/>
<path style=" stroke:none;fill-rule:nonzero;fill:rgb(95.686275%,45.490196%,69.411767%);fill-opacity:1;" d="M 10.75 12 C 12.289062 11.785156 12.289062 11.785156 12.777344 12.136719 C 13.167969 12.457031 13.492188 12.855469 13.796875 13.253906 C 13.933594 13.398438 13.933594 13.398438 14.132812 13.363281 C 14.191406 13.347656 14.25 13.328125 14.3125 13.3125 C 14.816406 13.261719 15.207031 13.324219 15.625 13.625 C 15.980469 14 16.023438 14.359375 16.015625 14.855469 C 15.988281 15.207031 15.890625 15.4375 15.628906 15.671875 C 15.183594 16.019531 14.804688 16.039062 14.25 16 C 13.871094 15.871094 13.617188 15.617188 13.417969 15.273438 C 13.253906 14.921875 13.246094 14.503906 13.375 14.140625 C 13.375 13.734375 13.027344 13.476562 12.761719 13.203125 C 12.285156 12.757812 11.859375 12.703125 11.226562 12.714844 C 11.066406 12.722656 10.910156 12.734375 10.75 12.75 C 10.75 12.503906 10.75 12.253906 10.75 12 Z M 14.125 14.3125 C 14.023438 14.515625 14.027344 14.71875 14.0625 14.9375 C 14.21875 15.164062 14.328125 15.234375 14.589844 15.316406 C 14.867188 15.3125 14.980469 15.242188 15.1875 15.0625 C 15.320312 14.894531 15.3125 14.8125 15.308594 14.597656 C 15.238281 14.324219 15.167969 14.222656 14.9375 14.0625 C 14.59375 13.984375 14.371094 14.058594 14.125 14.3125 Z M 14.125 14.3125 "/>
<path style=" stroke:none;fill-rule:nonzero;fill:rgb(81.960785%,87.058824%,87.843138%);fill-opacity:1;" d="M 15.339844 0.09375 C 15.640625 0.273438 15.84375 0.566406 16 0.875 C 16.007812 1.015625 16.011719 1.15625 16.015625 1.296875 C 16.015625 1.371094 16.019531 1.449219 16.019531 1.527344 C 15.984375 1.925781 15.800781 2.183594 15.5 2.4375 C 15.121094 2.703125 14.765625 2.726562 14.3125 2.6875 C 14.253906 2.671875 14.191406 2.65625 14.132812 2.636719 C 13.933594 2.601562 13.933594 2.601562 13.796875 2.746094 C 13.730469 2.832031 13.730469 2.832031 13.664062 2.917969 C 12.765625 4.003906 12.765625 4.003906 12.195312 4.082031 C 11.710938 4.117188 11.230469 4.066406 10.75 4 C 10.75 3.753906 10.75 3.503906 10.75 3.25 C 10.84375 3.257812 10.941406 3.265625 11.039062 3.277344 C 11.621094 3.304688 12.128906 3.320312 12.601562 2.945312 C 12.886719 2.679688 13.179688 2.402344 13.375 2.0625 C 13.386719 1.859375 13.386719 1.859375 13.3125 1.6875 C 13.261719 1.183594 13.324219 0.792969 13.625 0.375 C 14.074219 -0.0507812 14.769531 -0.15625 15.339844 0.09375 Z M 14.1875 0.875 C 14.035156 1.105469 14.019531 1.296875 14.0625 1.5625 C 14.175781 1.738281 14.25 1.84375 14.4375 1.9375 C 14.804688 1.976562 14.804688 1.976562 15.121094 1.808594 C 15.277344 1.585938 15.316406 1.457031 15.3125 1.1875 C 15.210938 0.984375 15.125 0.855469 14.9375 0.726562 C 14.636719 0.632812 14.445312 0.722656 14.1875 0.875 Z M 14.1875 0.875 "/>
<path style=" stroke:none;fill-rule:nonzero;fill:rgb(22.745098%,70.19608%,75.294119%);fill-opacity:1;" d="M 5.25 12 C 5.25 12.246094 5.25 12.496094 5.25 12.75 C 5.15625 12.742188 5.058594 12.734375 4.960938 12.722656 C 4.378906 12.695312 3.871094 12.679688 3.398438 13.054688 C 3.113281 13.320312 2.820312 13.597656 2.625 13.9375 C 2.613281 14.140625 2.613281 14.140625 2.6875 14.3125 C 2.726562 14.765625 2.703125 15.121094 2.4375 15.5 C 2.1875 15.796875 1.957031 15.976562 1.5625 16.019531 C 1.140625 16.035156 0.773438 16.027344 0.4375 15.75 C 0.0546875 15.332031 -0.0195312 15.011719 -0.0117188 14.449219 C 0.0078125 14.125 0.121094 13.953125 0.324219 13.710938 C 0.707031 13.386719 1.015625 13.285156 1.519531 13.296875 C 1.6875 13.3125 1.6875 13.3125 1.867188 13.363281 C 2.066406 13.398438 2.066406 13.398438 2.203125 13.253906 C 2.246094 13.199219 2.289062 13.140625 2.335938 13.082031 C 3.238281 11.988281 3.816406 11.800781 5.25 12 Z M 0.878906 14.191406 C 0.722656 14.414062 0.683594 14.542969 0.6875 14.8125 C 0.789062 15.007812 0.878906 15.140625 1.050781 15.277344 C 1.265625 15.332031 1.414062 15.304688 1.625 15.25 C 1.804688 15.125 1.914062 15.035156 1.964844 14.816406 C 1.980469 14.578125 1.953125 14.460938 1.820312 14.253906 C 1.636719 14.078125 1.585938 14.066406 1.324219 14.039062 C 1.109375 14.042969 1.0625 14.0625 0.878906 14.191406 Z M 0.878906 14.191406 "/>
<path style=" stroke:none;fill-rule:nonzero;fill:rgb(28.235295%,46.27451%,53.333336%);fill-opacity:1;" d="M 8.65625 6.667969 C 9.003906 6.875 9.308594 7.171875 9.4375 7.5625 C 9.5 8.046875 9.480469 8.472656 9.1875 8.875 C 8.914062 9.210938 8.609375 9.402344 8.183594 9.464844 C 7.683594 9.492188 7.316406 9.398438 6.9375 9.0625 C 6.609375 8.660156 6.53125 8.289062 6.539062 7.777344 C 6.585938 7.367188 6.769531 7.089844 7.074219 6.816406 C 7.542969 6.484375 8.128906 6.425781 8.65625 6.667969 Z M 8.65625 6.667969 "/>
<path style=" stroke:none;fill-rule:nonzero;fill:rgb(18.039216%,66.666669%,80.392158%);fill-opacity:1;" d="M 15.367188 6.792969 C 15.652344 6.972656 15.875 7.246094 16 7.5625 C 16.054688 8.023438 16.070312 8.453125 15.78125 8.835938 C 15.464844 9.179688 15.179688 9.351562 14.703125 9.398438 C 14.332031 9.386719 13.976562 9.265625 13.691406 9.023438 C 13.484375 8.796875 13.4375 8.691406 13.375 8.375 C 13.042969 8.375 12.714844 8.375 12.375 8.375 C 12.375 8.128906 12.375 7.878906 12.375 7.625 C 12.703125 7.625 13.035156 7.625 13.375 7.625 C 13.394531 7.523438 13.417969 7.417969 13.4375 7.3125 C 13.632812 6.964844 13.910156 6.792969 14.28125 6.667969 C 14.679688 6.5625 15 6.613281 15.367188 6.792969 Z M 15.367188 6.792969 "/>
<path style=" stroke:none;fill-rule:nonzero;fill:rgb(98.039216%,81.176472%,29.411766%);fill-opacity:1;" d="M 2.1875 6.875 C 2.460938 7.109375 2.554688 7.265625 2.625 7.625 C 2.953125 7.625 3.285156 7.625 3.625 7.625 C 3.625 7.871094 3.625 8.121094 3.625 8.375 C 3.296875 8.375 2.964844 8.375 2.625 8.375 C 2.59375 8.53125 2.59375 8.53125 2.5625 8.6875 C 2.367188 9.035156 2.089844 9.207031 1.71875 9.332031 C 1.324219 9.4375 1 9.386719 0.632812 9.207031 C 0.34375 9.027344 0.125 8.753906 0 8.4375 C -0.0546875 7.976562 -0.0703125 7.546875 0.21875 7.164062 C 0.785156 6.550781 1.464844 6.464844 2.1875 6.875 Z M 2.1875 6.875 "/>
<path style=" stroke:none;fill-rule:nonzero;fill:rgb(27.450982%,45.490196%,52.941179%);fill-opacity:1;" d="M 13.4375 2 C 13.480469 2 13.519531 2 13.5625 2 C 13.667969 2.125 13.773438 2.25 13.875 2.375 C 13.917969 2.394531 13.957031 2.417969 14 2.4375 C 13.722656 3.050781 13.144531 3.65625 12.5625 4 C 11.964844 4.152344 11.355469 4.078125 10.75 4 C 10.75 3.753906 10.75 3.503906 10.75 3.25 C 10.84375 3.257812 10.9375 3.269531 11.035156 3.277344 C 11.636719 3.308594 12.136719 3.324219 12.609375 2.917969 C 12.871094 2.664062 13.109375 2.390625 13.339844 2.109375 C 13.371094 2.074219 13.402344 2.035156 13.4375 2 Z M 13.4375 2 "/>
<path style=" stroke:none;fill-rule:nonzero;fill:rgb(27.450982%,45.490196%,52.941179%);fill-opacity:1;" d="M 10.75 12 C 12.265625 11.777344 12.265625 11.777344 12.789062 12.140625 C 13.25 12.5 13.664062 12.960938 14 13.4375 C 14 13.480469 14 13.519531 14 13.5625 C 13.890625 13.671875 13.890625 13.671875 13.75 13.789062 C 13.679688 13.847656 13.679688 13.847656 13.609375 13.910156 C 13.574219 13.9375 13.535156 13.96875 13.5 14 C 13.277344 13.820312 13.078125 13.648438 12.90625 13.421875 C 12.601562 13.042969 12.363281 12.804688 11.863281 12.746094 C 11.492188 12.722656 11.121094 12.730469 10.75 12.75 C 10.75 12.503906 10.75 12.253906 10.75 12 Z M 10.75 12 "/>
<path style=" stroke:none;fill-rule:nonzero;fill:rgb(27.450982%,45.490196%,52.941179%);fill-opacity:1;" d="M 2.4375 2 C 2.648438 2.089844 2.753906 2.1875 2.890625 2.367188 C 3.410156 2.996094 3.410156 2.996094 4.152344 3.269531 C 4.519531 3.292969 4.882812 3.28125 5.25 3.25 C 5.25 3.496094 5.25 3.746094 5.25 4 C 3.734375 4.222656 3.734375 4.222656 3.210938 3.859375 C 2.75 3.492188 2.363281 3.027344 2 2.5625 C 2.027344 2.53125 2.050781 2.503906 2.078125 2.472656 C 2.113281 2.433594 2.148438 2.390625 2.183594 2.351562 C 2.21875 2.3125 2.25 2.273438 2.285156 2.234375 C 2.378906 2.128906 2.378906 2.128906 2.4375 2 Z M 2.4375 2 "/>
<path style=" stroke:none;fill-rule:nonzero;fill:rgb(27.450982%,45.490196%,52.941179%);fill-opacity:1;" d="M 5.25 12 C 5.25 12.246094 5.25 12.496094 5.25 12.75 C 5.15625 12.742188 5.0625 12.730469 4.964844 12.722656 C 4.363281 12.691406 3.863281 12.675781 3.386719 13.082031 C 3.089844 13.367188 2.816406 13.675781 2.5625 14 C 2.492188 13.941406 2.421875 13.882812 2.351562 13.824219 C 2.3125 13.792969 2.273438 13.757812 2.234375 13.726562 C 2.125 13.625 2.125 13.625 2 13.4375 C 2.980469 12.183594 3.625 11.761719 5.25 12 Z M 5.25 12 "/>
<path style=" stroke:none;fill-rule:nonzero;fill:rgb(98.039216%,98.431373%,98.823529%);fill-opacity:1;" d="M 8.1875 7.1875 C 8.703125 7.480469 8.703125 7.480469 8.789062 7.753906 C 8.824219 8.011719 8.828125 8.152344 8.714844 8.394531 C 8.355469 8.792969 8.355469 8.792969 8.050781 8.828125 C 7.828125 8.820312 7.679688 8.796875 7.507812 8.652344 C 7.300781 8.414062 7.171875 8.242188 7.191406 7.921875 C 7.226562 7.640625 7.320312 7.503906 7.527344 7.316406 C 7.738281 7.171875 7.9375 7.164062 8.1875 7.1875 Z M 8.1875 7.1875 "/>
<path style=" stroke:none;fill-rule:nonzero;fill:rgb(99.607843%,99.215686%,97.647059%);fill-opacity:1;" d="M 1.625 7.375 C 1.804688 7.53125 1.804688 7.53125 1.9375 7.6875 C 1.957031 7.707031 1.980469 7.730469 2 7.75 C 2.035156 8.191406 2.035156 8.191406 1.890625 8.429688 C 1.667969 8.640625 1.667969 8.640625 1.5 8.6875 C 1.167969 8.675781 0.988281 8.605469 0.75 8.375 C 0.648438 8.171875 0.652344 7.96875 0.6875 7.75 C 0.914062 7.34375 1.183594 7.269531 1.625 7.375 Z M 1.625 7.375 "/>
<path style=" stroke:none;fill-rule:nonzero;fill:rgb(97.254902%,98.823529%,99.215686%);fill-opacity:1;" d="M 14.9375 7.375 C 15.105469 7.488281 15.222656 7.566406 15.3125 7.75 C 15.347656 8.191406 15.347656 8.191406 15.203125 8.429688 C 14.988281 8.632812 14.898438 8.6875 14.597656 8.683594 C 14.335938 8.613281 14.234375 8.515625 14.0625 8.3125 C 14.042969 8.292969 14.019531 8.269531 14 8.25 C 13.964844 7.808594 13.964844 7.808594 14.109375 7.570312 C 14.390625 7.304688 14.554688 7.28125 14.9375 7.375 Z M 14.9375 7.375 "/>
<path style=" stroke:none;fill-rule:nonzero;fill:rgb(27.058825%,45.490196%,52.941179%);fill-opacity:1;" d="M 12.375 7.625 C 12.703125 7.625 13.035156 7.625 13.375 7.625 C 13.375 7.871094 13.375 8.121094 13.375 8.375 C 13.046875 8.375 12.714844 8.375 12.375 8.375 C 12.375 8.128906 12.375 7.878906 12.375 7.625 Z M 12.375 7.625 "/>
<path style=" stroke:none;fill-rule:nonzero;fill:rgb(27.450982%,45.490196%,52.549022%);fill-opacity:1;" d="M 2.625 7.625 C 2.953125 7.625 3.285156 7.625 3.625 7.625 C 3.625 7.871094 3.625 8.121094 3.625 8.375 C 3.296875 8.375 2.964844 8.375 2.625 8.375 C 2.625 8.128906 2.625 7.878906 2.625 7.625 Z M 2.625 7.625 "/>
</g>
</svg>
