<?xml version="1.0" encoding="UTF-8"?>
<svg xmlns="http://www.w3.org/2000/svg" xmlns:xlink="http://www.w3.org/1999/xlink" width="16" height="16" viewBox="0 0 16 16" version="1.1">
<g id="surface1">
<path style=" stroke:none;fill-rule:nonzero;fill:rgb(99.215686%,65.490198%,13.725491%);fill-opacity:1;" d="M 5.6875 1.125 C 5.839844 1.117188 5.992188 1.109375 6.144531 1.105469 C 6.210938 1.101562 6.210938 1.101562 6.273438 1.097656 C 6.402344 1.09375 6.402344 1.09375 6.625 1.125 C 6.738281 1.261719 6.738281 1.261719 6.8125 1.4375 C 6.835938 1.496094 6.859375 1.554688 6.886719 1.613281 C 6.90625 1.671875 6.925781 1.730469 6.949219 1.792969 C 6.96875 1.851562 6.992188 1.910156 7.015625 1.972656 C 7.0625 2.125 7.0625 2.125 7.0625 2.25 C 7.125 2.261719 7.1875 2.277344 7.25 2.289062 C 7.460938 2.34375 7.570312 2.433594 7.726562 2.578125 C 7.898438 2.71875 7.972656 2.75 8.195312 2.746094 C 8.402344 2.710938 8.609375 2.671875 8.8125 2.625 C 9.054688 2.570312 9.054688 2.570312 9.25 2.625 C 9.4375 2.855469 9.589844 3.09375 9.6875 3.375 C 9.617188 3.71875 9.339844 3.953125 9.113281 4.203125 C 8.964844 4.386719 8.964844 4.386719 9.0625 4.6875 C 9.371094 4.6875 9.679688 4.6875 10 4.6875 C 10.035156 4.488281 10.035156 4.488281 10.074219 4.289062 C 10.21875 3.628906 10.453125 3.105469 11 2.6875 C 11.6875 2.28125 12.34375 2.121094 13.132812 2.292969 C 13.765625 2.507812 14.316406 2.929688 14.644531 3.519531 C 14.960938 4.210938 14.953125 4.914062 14.714844 5.628906 C 14.632812 5.796875 14.554688 5.894531 14.433594 6.035156 C 14.207031 6.335938 14.199219 6.585938 14.207031 6.953125 C 14.207031 7.015625 14.207031 7.078125 14.207031 7.144531 C 14.207031 7.347656 14.210938 7.550781 14.214844 7.753906 C 14.214844 7.898438 14.214844 8.039062 14.214844 8.183594 C 14.214844 8.554688 14.21875 8.929688 14.222656 9.300781 C 14.226562 9.683594 14.230469 10.0625 14.230469 10.445312 C 14.234375 11.191406 14.242188 11.941406 14.25 12.6875 C 14.316406 12.683594 14.386719 12.683594 14.457031 12.679688 C 14.6875 12.6875 14.6875 12.6875 14.875 12.8125 C 14.890625 12.96875 14.898438 13.105469 14.894531 13.261719 C 14.894531 13.304688 14.894531 13.347656 14.894531 13.394531 C 14.894531 13.488281 14.894531 13.578125 14.890625 13.671875 C 14.890625 13.816406 14.890625 13.960938 14.890625 14.101562 C 14.890625 14.191406 14.886719 14.28125 14.886719 14.375 C 14.886719 14.417969 14.886719 14.460938 14.886719 14.503906 C 14.882812 14.804688 14.882812 14.804688 14.8125 14.875 C 14.636719 14.882812 14.464844 14.882812 14.289062 14.882812 C 14.203125 14.882812 14.203125 14.882812 14.121094 14.882812 C 13.933594 14.882812 13.742188 14.882812 13.554688 14.882812 C 13.421875 14.882812 13.289062 14.882812 13.152344 14.882812 C 12.789062 14.882812 12.421875 14.882812 12.058594 14.882812 C 11.675781 14.882812 11.292969 14.882812 10.914062 14.882812 C 10.273438 14.882812 9.628906 14.882812 8.988281 14.882812 C 8.25 14.882812 7.503906 14.882812 6.765625 14.882812 C 6.128906 14.882812 5.492188 14.882812 4.855469 14.882812 C 4.476562 14.882812 4.09375 14.882812 3.714844 14.882812 C 3.359375 14.882812 3 14.882812 2.644531 14.882812 C 2.511719 14.882812 2.378906 14.882812 2.25 14.882812 C 2.070312 14.882812 1.890625 14.882812 1.710938 14.882812 C 1.660156 14.882812 1.605469 14.882812 1.550781 14.882812 C 1.195312 14.882812 1.195312 14.882812 1.125 14.8125 C 1.117188 14.664062 1.113281 14.519531 1.113281 14.375 C 1.113281 14.308594 1.113281 14.308594 1.109375 14.238281 C 1.109375 14.148438 1.109375 14.054688 1.109375 13.960938 C 1.109375 13.816406 1.109375 13.675781 1.105469 13.53125 C 1.105469 13.441406 1.105469 13.351562 1.105469 13.261719 C 1.105469 13.21875 1.101562 13.175781 1.101562 13.128906 C 1.101562 13.007812 1.101562 13.007812 1.125 12.8125 C 1.351562 12.660156 1.480469 12.675781 1.75 12.6875 C 1.75 12.648438 1.75 12.605469 1.75 12.566406 C 1.753906 11.582031 1.757812 10.597656 1.765625 9.613281 C 1.765625 9.136719 1.769531 8.664062 1.773438 8.1875 C 1.773438 7.773438 1.773438 7.359375 1.777344 6.941406 C 1.78125 6.722656 1.78125 6.503906 1.78125 6.285156 C 1.78125 6.039062 1.785156 5.792969 1.785156 5.550781 C 1.785156 5.476562 1.785156 5.402344 1.785156 5.328125 C 1.785156 5.261719 1.785156 5.195312 1.789062 5.125 C 1.789062 5.070312 1.789062 5.011719 1.789062 4.949219 C 1.800781 4.882812 1.800781 4.882812 1.8125 4.8125 C 2.015625 4.675781 2.070312 4.671875 2.304688 4.675781 C 2.363281 4.675781 2.421875 4.675781 2.484375 4.675781 C 2.542969 4.675781 2.605469 4.679688 2.667969 4.679688 C 2.730469 4.679688 2.792969 4.679688 2.855469 4.679688 C 3.007812 4.683594 3.160156 4.683594 3.3125 4.6875 C 3.34375 4.429688 3.328125 4.335938 3.171875 4.121094 C 3.085938 4.027344 2.996094 3.933594 2.90625 3.839844 C 2.6875 3.601562 2.6875 3.601562 2.6875 3.402344 C 2.757812 3.230469 2.84375 3.078125 2.941406 2.917969 C 2.976562 2.863281 3.011719 2.808594 3.046875 2.75 C 3.070312 2.710938 3.097656 2.667969 3.125 2.625 C 3.242188 2.632812 3.355469 2.644531 3.472656 2.652344 C 3.542969 2.65625 3.609375 2.664062 3.683594 2.667969 C 3.875 2.6875 3.875 2.6875 4.097656 2.75 C 4.410156 2.75 4.585938 2.59375 4.835938 2.417969 C 5 2.3125 5.121094 2.273438 5.3125 2.25 C 5.320312 2.214844 5.324219 2.183594 5.332031 2.148438 C 5.402344 1.78125 5.523438 1.460938 5.6875 1.125 Z M 5.6875 1.125 "/>
<path style=" stroke:none;fill-rule:nonzero;fill:rgb(92.156863%,91.764706%,98.431373%);fill-opacity:1;" d="M 2.1875 5.0625 C 2.601562 5.0625 3.011719 5.0625 3.4375 5.0625 C 3.4375 5.5625 3.4375 5.5625 3.316406 5.738281 C 3.265625 5.785156 3.214844 5.835938 3.160156 5.886719 C 2.886719 6.144531 2.886719 6.144531 2.8125 6.5 C 2.871094 6.65625 2.871094 6.65625 2.964844 6.800781 C 2.996094 6.851562 3.023438 6.898438 3.054688 6.949219 C 3.078125 6.988281 3.101562 7.023438 3.125 7.0625 C 3.160156 7.058594 3.195312 7.054688 3.230469 7.050781 C 4.417969 6.917969 4.417969 6.917969 4.925781 7.320312 C 4.96875 7.359375 5.015625 7.398438 5.0625 7.4375 C 5.144531 7.480469 5.144531 7.480469 5.226562 7.523438 C 5.421875 7.65625 5.449219 7.769531 5.515625 7.996094 C 5.535156 8.0625 5.554688 8.125 5.574219 8.191406 C 5.613281 8.335938 5.652344 8.480469 5.6875 8.625 C 5.789062 8.625 5.894531 8.625 6 8.625 C 6 9.554688 6 10.480469 6 11.4375 C 5.441406 11.4375 4.886719 11.4375 4.3125 11.4375 C 4.269531 11.292969 4.230469 11.148438 4.1875 11 C 4.070312 10.910156 4.070312 10.910156 3.9375 10.875 C 3.894531 10.855469 3.855469 10.832031 3.8125 10.8125 C 3.507812 10.78125 3.265625 10.765625 3 10.925781 C 2.785156 11.160156 2.726562 11.304688 2.734375 11.621094 C 2.765625 11.875 2.875 12.054688 3.039062 12.242188 C 3.273438 12.355469 3.496094 12.351562 3.75 12.3125 C 3.976562 12.199219 4.097656 12.136719 4.1875 11.898438 C 4.3125 11.75 4.3125 11.75 4.441406 11.722656 C 4.613281 11.714844 4.785156 11.714844 4.960938 11.71875 C 5.023438 11.71875 5.085938 11.71875 5.152344 11.71875 C 5.355469 11.722656 5.558594 11.726562 5.761719 11.730469 C 5.898438 11.730469 6.035156 11.734375 6.175781 11.734375 C 6.511719 11.738281 6.851562 11.742188 7.1875 11.75 C 7.25 11.859375 7.3125 11.972656 7.371094 12.082031 C 7.460938 12.226562 7.523438 12.269531 7.6875 12.3125 C 8.003906 12.332031 8.273438 12.332031 8.5625 12.1875 C 8.648438 12.035156 8.648438 12.035156 8.6875 11.875 C 8.707031 11.832031 8.730469 11.792969 8.75 11.75 C 9.15625 11.742188 9.558594 11.734375 9.964844 11.730469 C 10.101562 11.726562 10.238281 11.726562 10.378906 11.722656 C 10.574219 11.71875 10.773438 11.714844 10.972656 11.714844 C 11.03125 11.710938 11.09375 11.710938 11.15625 11.707031 C 11.324219 11.707031 11.464844 11.710938 11.625 11.75 C 11.78125 11.933594 11.78125 11.933594 11.875 12.125 C 12.058594 12.296875 12.183594 12.339844 12.433594 12.339844 C 12.652344 12.332031 12.742188 12.316406 12.9375 12.207031 C 13.164062 11.945312 13.214844 11.707031 13.207031 11.371094 C 13.175781 11.171875 13.078125 11.070312 12.9375 10.9375 C 12.671875 10.78125 12.425781 10.761719 12.125 10.8125 C 11.839844 10.957031 11.746094 11.140625 11.625 11.4375 C 10.675781 11.4375 9.726562 11.4375 8.75 11.4375 C 8.6875 11.292969 8.625 11.148438 8.5625 11 C 8.367188 10.816406 8.195312 10.796875 7.9375 10.785156 C 7.722656 10.792969 7.628906 10.808594 7.4375 10.914062 C 7.28125 11.082031 7.28125 11.082031 7.1875 11.4375 C 6.917969 11.4375 6.652344 11.4375 6.375 11.4375 C 6.375 10.507812 6.375 9.582031 6.375 8.625 C 6.476562 8.582031 6.582031 8.542969 6.6875 8.5 C 6.757812 8.363281 6.757812 8.363281 6.789062 8.203125 C 6.867188 7.863281 6.9375 7.582031 7.242188 7.386719 C 7.308594 7.355469 7.375 7.328125 7.441406 7.296875 C 7.710938 7.179688 7.710938 7.179688 7.9375 7 C 8.113281 7 8.113281 7 8.324219 7.019531 C 8.398438 7.027344 8.46875 7.03125 8.542969 7.039062 C 8.761719 7.0625 8.972656 7.089844 9.1875 7.125 C 9.253906 7.027344 9.316406 6.925781 9.378906 6.828125 C 9.414062 6.773438 9.449219 6.71875 9.488281 6.660156 C 9.570312 6.511719 9.570312 6.511719 9.5625 6.375 C 9.441406 6.132812 9.238281 5.945312 9.058594 5.746094 C 8.9375 5.5625 8.9375 5.5625 8.9375 5.125 C 9.351562 5.125 9.761719 5.125 10.1875 5.125 C 10.230469 5.238281 10.273438 5.347656 10.316406 5.464844 C 10.585938 6.105469 10.929688 6.511719 11.5625 6.8125 C 12.167969 7.054688 12.84375 7 13.4375 6.75 C 13.5625 6.707031 13.683594 6.667969 13.8125 6.625 C 13.8125 8.644531 13.8125 10.667969 13.8125 12.75 C 12.59375 12.75 11.378906 12.75 10.125 12.75 C 10.125 13.121094 10.125 13.492188 10.125 13.875 C 10.011719 13.988281 9.832031 13.945312 9.675781 13.945312 C 9.59375 13.945312 9.511719 13.945312 9.429688 13.945312 C 9.335938 13.945312 9.246094 13.945312 9.15625 13.945312 C 9.0625 13.945312 8.972656 13.945312 8.878906 13.945312 C 8.6875 13.945312 8.492188 13.945312 8.296875 13.945312 C 8.050781 13.945312 7.800781 13.945312 7.554688 13.945312 C 7.363281 13.945312 7.171875 13.945312 6.980469 13.945312 C 6.890625 13.945312 6.796875 13.945312 6.707031 13.945312 C 6.578125 13.945312 6.449219 13.945312 6.324219 13.945312 C 6.214844 13.945312 6.214844 13.945312 6.101562 13.945312 C 5.9375 13.9375 5.9375 13.9375 5.875 13.875 C 5.875 13.503906 5.875 13.132812 5.875 12.75 C 4.65625 12.75 3.441406 12.75 2.1875 12.75 C 2.1875 10.214844 2.1875 7.675781 2.1875 5.0625 Z M 2.1875 5.0625 "/>
<path style=" stroke:none;fill-rule:nonzero;fill:rgb(14.901961%,45.09804%,54.509807%);fill-opacity:1;" d="M 2.300781 4.671875 C 2.359375 4.671875 2.417969 4.671875 2.476562 4.671875 C 2.539062 4.675781 2.597656 4.675781 2.660156 4.675781 C 2.722656 4.675781 2.78125 4.675781 2.84375 4.675781 C 3.292969 4.679688 3.292969 4.679688 3.4375 4.75 C 3.4375 4.851562 3.4375 4.957031 3.4375 5.0625 C 3.023438 5.0625 2.613281 5.0625 2.1875 5.0625 C 2.1875 7.597656 2.1875 10.136719 2.1875 12.75 C 3.402344 12.75 4.621094 12.75 5.875 12.75 C 5.90625 13.308594 5.90625 13.308594 5.9375 13.875 C 7.296875 13.875 8.660156 13.875 10.0625 13.875 C 10.082031 13.503906 10.105469 13.132812 10.125 12.75 C 11.339844 12.75 12.558594 12.75 13.8125 12.75 C 13.808594 12.304688 13.808594 11.859375 13.804688 11.402344 C 13.800781 11.121094 13.800781 10.839844 13.800781 10.558594 C 13.796875 10.113281 13.796875 9.667969 13.792969 9.21875 C 13.792969 8.859375 13.789062 8.5 13.789062 8.140625 C 13.789062 8.003906 13.789062 7.867188 13.785156 7.726562 C 13.785156 7.535156 13.785156 7.34375 13.785156 7.152344 C 13.785156 7.09375 13.78125 7.039062 13.78125 6.980469 C 13.785156 6.59375 13.785156 6.59375 13.933594 6.433594 C 14.0625 6.375 14.0625 6.375 14.1875 6.375 C 14.207031 8.457031 14.230469 10.542969 14.25 12.6875 C 14.394531 12.6875 14.539062 12.6875 14.6875 12.6875 C 14.75 12.730469 14.8125 12.769531 14.875 12.8125 C 14.890625 12.96875 14.898438 13.105469 14.894531 13.261719 C 14.894531 13.304688 14.894531 13.347656 14.894531 13.394531 C 14.894531 13.488281 14.894531 13.578125 14.890625 13.671875 C 14.890625 13.816406 14.890625 13.960938 14.890625 14.101562 C 14.890625 14.191406 14.886719 14.28125 14.886719 14.375 C 14.886719 14.417969 14.886719 14.460938 14.886719 14.503906 C 14.882812 14.804688 14.882812 14.804688 14.8125 14.875 C 14.636719 14.882812 14.464844 14.882812 14.289062 14.882812 C 14.203125 14.882812 14.203125 14.882812 14.121094 14.882812 C 13.933594 14.882812 13.742188 14.882812 13.554688 14.882812 C 13.421875 14.882812 13.289062 14.882812 13.152344 14.882812 C 12.789062 14.882812 12.421875 14.882812 12.058594 14.882812 C 11.675781 14.882812 11.292969 14.882812 10.914062 14.882812 C 10.273438 14.882812 9.632812 14.882812 8.988281 14.882812 C 8.246094 14.882812 7.507812 14.882812 6.765625 14.882812 C 6.128906 14.882812 5.492188 14.882812 4.855469 14.882812 C 4.476562 14.882812 4.097656 14.882812 3.714844 14.882812 C 3.359375 14.882812 3 14.882812 2.644531 14.882812 C 2.511719 14.882812 2.378906 14.882812 2.25 14.882812 C 2.070312 14.882812 1.890625 14.882812 1.710938 14.882812 C 1.660156 14.882812 1.605469 14.882812 1.550781 14.882812 C 1.195312 14.882812 1.195312 14.882812 1.125 14.8125 C 1.117188 14.664062 1.113281 14.519531 1.113281 14.375 C 1.113281 14.308594 1.113281 14.308594 1.109375 14.238281 C 1.109375 14.148438 1.109375 14.054688 1.109375 13.960938 C 1.109375 13.816406 1.105469 13.675781 1.105469 13.53125 C 1.105469 13.441406 1.105469 13.351562 1.105469 13.261719 C 1.105469 13.21875 1.101562 13.175781 1.101562 13.128906 C 1.101562 13.007812 1.101562 13.007812 1.125 12.8125 C 1.351562 12.660156 1.480469 12.675781 1.75 12.6875 C 1.75 12.648438 1.75 12.605469 1.75 12.566406 C 1.753906 11.582031 1.757812 10.597656 1.765625 9.613281 C 1.765625 9.136719 1.769531 8.664062 1.773438 8.1875 C 1.773438 7.773438 1.777344 7.359375 1.777344 6.941406 C 1.78125 6.722656 1.78125 6.503906 1.78125 6.285156 C 1.78125 6.039062 1.785156 5.792969 1.785156 5.550781 C 1.785156 5.476562 1.785156 5.402344 1.785156 5.328125 C 1.785156 5.261719 1.785156 5.195312 1.789062 5.125 C 1.789062 5.070312 1.789062 5.011719 1.789062 4.949219 C 1.796875 4.90625 1.804688 4.859375 1.8125 4.8125 C 2.015625 4.679688 2.070312 4.671875 2.300781 4.671875 Z M 2.300781 4.671875 "/>
<path style=" stroke:none;fill-rule:nonzero;fill:rgb(99.607843%,25.490198%,11.372549%);fill-opacity:1;" d="M 13.890625 2.671875 C 14.40625 3.09375 14.765625 3.582031 14.875 4.25 C 14.933594 4.984375 14.816406 5.667969 14.332031 6.242188 C 13.71875 6.800781 12.992188 7.03125 12.171875 7.019531 C 11.578125 6.96875 11.074219 6.679688 10.691406 6.234375 C 10.425781 5.878906 10.292969 5.554688 10.1875 5.125 C 9.773438 5.125 9.363281 5.125 8.9375 5.125 C 8.9375 5 8.9375 4.878906 8.9375 4.75 C 9.128906 4.65625 9.328125 4.679688 9.539062 4.683594 C 9.605469 4.683594 9.605469 4.683594 9.671875 4.683594 C 9.78125 4.683594 9.890625 4.6875 10 4.6875 C 10.011719 4.632812 10.019531 4.574219 10.03125 4.519531 C 10.171875 3.773438 10.378906 3.160156 11 2.6875 C 11.929688 2.140625 12.96875 2.027344 13.890625 2.671875 Z M 13.890625 2.671875 "/>
<path style=" stroke:none;fill-rule:nonzero;fill:rgb(97.647059%,83.92157%,61.176473%);fill-opacity:1;" d="M 7.925781 7.804688 C 7.980469 7.804688 8.03125 7.804688 8.085938 7.804688 C 8.167969 7.804688 8.167969 7.804688 8.25 7.804688 C 8.433594 7.804688 8.613281 7.804688 8.796875 7.804688 C 8.921875 7.804688 9.046875 7.804688 9.175781 7.804688 C 9.4375 7.804688 9.703125 7.804688 9.96875 7.804688 C 10.304688 7.804688 10.644531 7.804688 10.984375 7.804688 C 11.246094 7.804688 11.503906 7.804688 11.765625 7.804688 C 11.890625 7.804688 12.015625 7.804688 12.140625 7.804688 C 12.316406 7.804688 12.492188 7.804688 12.664062 7.804688 C 12.742188 7.804688 12.742188 7.804688 12.824219 7.804688 C 13.179688 7.804688 13.179688 7.804688 13.25 7.875 C 13.257812 8.03125 13.257812 8.1875 13.257812 8.34375 C 13.257812 8.390625 13.257812 8.4375 13.257812 8.484375 C 13.257812 8.585938 13.257812 8.683594 13.257812 8.785156 C 13.257812 8.9375 13.257812 9.089844 13.257812 9.242188 C 13.257812 9.339844 13.257812 9.433594 13.257812 9.53125 C 13.257812 9.578125 13.257812 9.625 13.257812 9.671875 C 13.257812 9.992188 13.257812 9.992188 13.1875 10.0625 C 13.015625 10.070312 12.84375 10.070312 12.671875 10.070312 C 12.617188 10.070312 12.5625 10.070312 12.507812 10.070312 C 12.328125 10.074219 12.148438 10.074219 11.96875 10.074219 C 11.84375 10.074219 11.71875 10.074219 11.597656 10.074219 C 11.335938 10.074219 11.074219 10.074219 10.8125 10.074219 C 10.476562 10.074219 10.144531 10.074219 9.808594 10.074219 C 9.550781 10.078125 9.292969 10.078125 9.039062 10.078125 C 8.914062 10.078125 8.789062 10.078125 8.667969 10.078125 C 8.492188 10.078125 8.320312 10.078125 8.148438 10.078125 C 8.097656 10.078125 8.046875 10.078125 7.992188 10.078125 C 7.640625 10.078125 7.640625 10.078125 7.5 9.9375 C 7.488281 9.78125 7.484375 9.632812 7.484375 9.476562 C 7.484375 9.429688 7.484375 9.386719 7.484375 9.339844 C 7.484375 9.242188 7.488281 9.148438 7.488281 9.050781 C 7.488281 8.902344 7.488281 8.753906 7.488281 8.609375 C 7.488281 8.515625 7.488281 8.421875 7.488281 8.328125 C 7.488281 8.285156 7.488281 8.238281 7.488281 8.195312 C 7.492188 7.796875 7.535156 7.804688 7.925781 7.804688 Z M 7.925781 7.804688 "/>
<path style=" stroke:none;fill-rule:nonzero;fill:rgb(99.215686%,25.490198%,11.764706%);fill-opacity:1;" d="M 6 8.625 C 6.101562 8.625 6.207031 8.625 6.3125 8.625 C 6.3125 9.554688 6.3125 10.480469 6.3125 11.4375 C 6.601562 11.4375 6.890625 11.4375 7.1875 11.4375 C 7.207031 11.3125 7.230469 11.191406 7.25 11.0625 C 7.417969 10.863281 7.519531 10.773438 7.773438 10.71875 C 8.109375 10.703125 8.335938 10.761719 8.609375 10.957031 C 8.6875 11.0625 8.6875 11.0625 8.75 11.4375 C 9.699219 11.4375 10.648438 11.4375 11.625 11.4375 C 11.644531 11.335938 11.667969 11.230469 11.6875 11.125 C 11.835938 10.921875 12.015625 10.773438 12.265625 10.71875 C 12.597656 10.703125 12.804688 10.777344 13.0625 11 C 13.242188 11.167969 13.25 11.242188 13.273438 11.492188 C 13.257812 11.816406 13.144531 12.03125 12.933594 12.273438 C 12.664062 12.421875 12.425781 12.4375 12.125 12.375 C 11.875 12.234375 11.714844 12.085938 11.625 11.8125 C 10.675781 11.792969 9.726562 11.769531 8.75 11.75 C 8.707031 11.851562 8.667969 11.957031 8.625 12.0625 C 8.480469 12.234375 8.402344 12.304688 8.1875 12.375 C 7.855469 12.394531 7.640625 12.40625 7.375 12.1875 C 7.1875 11.921875 7.1875 11.921875 7.1875 11.75 C 6.78125 11.75 6.375 11.753906 5.96875 11.757812 C 5.832031 11.761719 5.691406 11.761719 5.554688 11.761719 C 5.355469 11.761719 5.15625 11.765625 4.960938 11.769531 C 4.898438 11.769531 4.835938 11.769531 4.773438 11.765625 C 4.613281 11.769531 4.46875 11.777344 4.3125 11.8125 C 4.183594 11.953125 4.183594 11.953125 4.125 12.125 C 3.867188 12.351562 3.660156 12.417969 3.324219 12.402344 C 3.082031 12.351562 2.976562 12.246094 2.8125 12.0625 C 2.664062 11.816406 2.625 11.53125 2.6875 11.25 C 2.816406 11.042969 2.964844 10.859375 3.1875 10.75 C 3.503906 10.714844 3.746094 10.714844 4.03125 10.863281 C 4.1875 11 4.1875 11 4.3125 11.1875 C 4.3125 11.269531 4.3125 11.351562 4.3125 11.4375 C 4.871094 11.4375 5.425781 11.4375 6 11.4375 C 6 10.507812 6 9.582031 6 8.625 Z M 6 8.625 "/>
<path style=" stroke:none;fill-rule:nonzero;fill:rgb(100%,99.215686%,98.431373%);fill-opacity:1;" d="M 6.085938 3.417969 C 6.515625 3.394531 6.835938 3.507812 7.1875 3.75 C 7.472656 4.011719 7.65625 4.28125 7.710938 4.671875 C 7.722656 5.195312 7.625 5.59375 7.273438 5.992188 C 6.90625 6.328125 6.527344 6.472656 6.03125 6.457031 C 5.605469 6.40625 5.25 6.230469 4.976562 5.894531 C 4.640625 5.4375 4.636719 4.988281 4.6875 4.4375 C 4.757812 4.234375 4.851562 4.09375 5 3.9375 C 5.050781 3.882812 5.050781 3.882812 5.101562 3.828125 C 5.402344 3.539062 5.679688 3.46875 6.085938 3.417969 Z M 6.085938 3.417969 "/>
<path style=" stroke:none;fill-rule:nonzero;fill:rgb(99.607843%,99.607843%,99.607843%);fill-opacity:1;" d="M 5.9375 12.75 C 7.296875 12.75 8.660156 12.75 10.0625 12.75 C 10.0625 13.140625 10.0625 13.535156 10.0625 13.9375 C 8.703125 13.9375 7.339844 13.9375 5.9375 13.9375 C 5.9375 13.546875 5.9375 13.152344 5.9375 12.75 Z M 5.9375 12.75 "/>
<path style=" stroke:none;fill-rule:nonzero;fill:rgb(100%,59.215689%,14.509805%);fill-opacity:1;" d="M 7.304688 3.453125 C 7.65625 3.726562 7.859375 4.082031 8 4.5 C 8.054688 5.164062 7.96875 5.625 7.546875 6.140625 C 7.222656 6.488281 6.871094 6.722656 6.394531 6.765625 C 5.792969 6.78125 5.296875 6.65625 4.84375 6.234375 C 4.433594 5.757812 4.347656 5.28125 4.355469 4.664062 C 4.398438 4.179688 4.613281 3.863281 4.960938 3.535156 C 5.683594 2.941406 6.542969 2.933594 7.304688 3.453125 Z M 4.9375 4 C 4.640625 4.355469 4.652344 4.699219 4.664062 5.152344 C 4.695312 5.445312 4.757812 5.582031 4.9375 5.8125 C 4.976562 5.867188 5.011719 5.921875 5.050781 5.980469 C 5.355469 6.304688 5.726562 6.441406 6.164062 6.460938 C 6.585938 6.453125 6.925781 6.300781 7.242188 6.023438 C 7.605469 5.621094 7.726562 5.21875 7.707031 4.683594 C 7.664062 4.300781 7.511719 4.050781 7.230469 3.792969 C 6.476562 3.207031 5.566406 3.324219 4.9375 4 Z M 4.9375 4 "/>
<path style=" stroke:none;fill-rule:nonzero;fill:rgb(12.54902%,40.392157%,48.627451%);fill-opacity:1;" d="M 2.300781 4.671875 C 2.359375 4.671875 2.417969 4.671875 2.476562 4.671875 C 2.539062 4.675781 2.597656 4.675781 2.660156 4.675781 C 2.722656 4.675781 2.78125 4.675781 2.84375 4.675781 C 3.292969 4.679688 3.292969 4.679688 3.4375 4.75 C 3.4375 4.851562 3.4375 4.957031 3.4375 5.0625 C 3.023438 5.082031 2.613281 5.105469 2.1875 5.125 C 2.167969 7.640625 2.144531 10.15625 2.125 12.75 C 2.023438 12.75 1.917969 12.75 1.8125 12.75 C 1.808594 11.71875 1.804688 10.683594 1.804688 9.652344 C 1.800781 9.171875 1.800781 8.691406 1.796875 8.214844 C 1.796875 7.796875 1.796875 7.378906 1.792969 6.960938 C 1.792969 6.738281 1.792969 6.515625 1.792969 6.296875 C 1.792969 6.046875 1.792969 5.800781 1.792969 5.554688 C 1.789062 5.480469 1.789062 5.40625 1.789062 5.332031 C 1.789062 5.265625 1.789062 5.199219 1.789062 5.128906 C 1.789062 5.070312 1.789062 5.011719 1.789062 4.953125 C 1.796875 4.90625 1.804688 4.859375 1.8125 4.8125 C 2.015625 4.679688 2.070312 4.671875 2.300781 4.671875 Z M 2.300781 4.671875 "/>
<path style=" stroke:none;fill-rule:nonzero;fill:rgb(99.607843%,25.882354%,12.156863%);fill-opacity:1;" d="M 3.8125 10.75 C 4.054688 10.875 4.164062 10.960938 4.3125 11.1875 C 4.347656 11.46875 4.34375 11.730469 4.242188 11.992188 C 4.058594 12.199219 3.890625 12.347656 3.613281 12.402344 C 3.359375 12.417969 3.179688 12.398438 2.972656 12.238281 C 2.726562 11.96875 2.652344 11.75 2.660156 11.378906 C 2.710938 11.136719 2.882812 10.972656 3.0625 10.8125 C 3.292969 10.695312 3.558594 10.722656 3.8125 10.75 Z M 3.8125 10.75 "/>
<path style=" stroke:none;fill-rule:nonzero;fill:rgb(99.607843%,25.882354%,12.156863%);fill-opacity:1;" d="M 12.6875 10.75 C 12.925781 10.875 13.128906 11.003906 13.25 11.25 C 13.285156 11.601562 13.261719 11.824219 13.0625 12.125 C 12.921875 12.289062 12.816406 12.359375 12.605469 12.402344 C 12.300781 12.421875 12.109375 12.394531 11.871094 12.199219 C 11.667969 12.003906 11.613281 11.824219 11.597656 11.546875 C 11.597656 11.25 11.703125 11.105469 11.90625 10.894531 C 12.132812 10.695312 12.398438 10.714844 12.6875 10.75 Z M 12.6875 10.75 "/>
<path style=" stroke:none;fill-rule:nonzero;fill:rgb(12.54902%,40.392157%,48.627451%);fill-opacity:1;" d="M 14.1875 6.375 C 14.1875 8.480469 14.1875 10.582031 14.1875 12.75 C 14.085938 12.75 13.980469 12.75 13.875 12.75 C 13.859375 11.945312 13.847656 11.144531 13.835938 10.339844 C 13.832031 9.964844 13.828125 9.59375 13.820312 9.21875 C 13.8125 8.859375 13.808594 8.5 13.804688 8.140625 C 13.800781 8.003906 13.800781 7.867188 13.796875 7.726562 C 13.792969 7.535156 13.792969 7.34375 13.789062 7.152344 C 13.789062 7.09375 13.785156 7.039062 13.785156 6.980469 C 13.785156 6.59375 13.785156 6.59375 13.929688 6.433594 C 14.0625 6.375 14.0625 6.375 14.1875 6.375 Z M 14.1875 6.375 "/>
<path style=" stroke:none;fill-rule:nonzero;fill:rgb(23.529412%,22.745098%,22.745098%);fill-opacity:1;" d="M 6 8.625 C 6.101562 8.625 6.207031 8.625 6.3125 8.625 C 6.3125 9.554688 6.3125 10.480469 6.3125 11.4375 C 6.582031 11.4375 6.847656 11.4375 7.125 11.4375 C 7.125 11.539062 7.125 11.644531 7.125 11.75 C 6.195312 11.75 5.269531 11.75 4.3125 11.75 C 4.3125 11.648438 4.3125 11.542969 4.3125 11.4375 C 4.871094 11.4375 5.425781 11.4375 6 11.4375 C 6 10.507812 6 9.582031 6 8.625 Z M 6 8.625 "/>
<path style=" stroke:none;fill-rule:nonzero;fill:rgb(16.470589%,43.137255%,50.980395%);fill-opacity:1;" d="M 5.625 12.8125 C 5.707031 12.8125 5.789062 12.8125 5.875 12.8125 C 5.894531 13.164062 5.917969 13.515625 5.9375 13.875 C 7.296875 13.875 8.660156 13.875 10.0625 13.875 C 10.082031 13.523438 10.105469 13.171875 10.125 12.8125 C 10.207031 12.8125 10.289062 12.8125 10.375 12.8125 C 10.382812 12.996094 10.386719 13.175781 10.390625 13.359375 C 10.390625 13.410156 10.394531 13.460938 10.398438 13.515625 C 10.398438 13.589844 10.398438 13.589844 10.398438 13.667969 C 10.402344 13.734375 10.402344 13.734375 10.402344 13.804688 C 10.363281 14 10.277344 14.066406 10.125 14.1875 C 9.933594 14.21875 9.933594 14.21875 9.703125 14.21875 C 9.640625 14.222656 9.640625 14.222656 9.578125 14.222656 C 9.4375 14.222656 9.300781 14.222656 9.164062 14.222656 C 9.066406 14.222656 8.972656 14.222656 8.875 14.222656 C 8.675781 14.226562 8.476562 14.222656 8.273438 14.222656 C 8.015625 14.222656 7.757812 14.222656 7.5 14.226562 C 7.304688 14.226562 7.105469 14.226562 6.90625 14.226562 C 6.8125 14.226562 6.71875 14.226562 6.625 14.226562 C 6.492188 14.230469 6.359375 14.226562 6.226562 14.226562 C 6.148438 14.226562 6.074219 14.226562 5.996094 14.226562 C 5.8125 14.1875 5.8125 14.1875 5.695312 14.035156 C 5.625 13.878906 5.601562 13.78125 5.605469 13.613281 C 5.609375 13.566406 5.609375 13.519531 5.609375 13.46875 C 5.609375 13.398438 5.609375 13.398438 5.613281 13.324219 C 5.613281 13.273438 5.613281 13.226562 5.617188 13.175781 C 5.617188 13.054688 5.621094 12.933594 5.625 12.8125 Z M 5.625 12.8125 "/>
<path style=" stroke:none;fill-rule:nonzero;fill:rgb(24.705882%,23.529412%,22.352941%);fill-opacity:1;" d="M 8.3125 9.125 C 9.671875 9.125 11.035156 9.125 12.4375 9.125 C 12.417969 9.226562 12.394531 9.332031 12.375 9.4375 C 11.054688 9.4375 9.734375 9.4375 8.375 9.4375 C 8.355469 9.335938 8.332031 9.230469 8.3125 9.125 Z M 8.3125 9.125 "/>
<path style=" stroke:none;fill-rule:nonzero;fill:rgb(24.313726%,23.529412%,21.960784%);fill-opacity:1;" d="M 8.3125 8.5 C 9.671875 8.5 11.035156 8.5 12.4375 8.5 C 12.417969 8.601562 12.394531 8.707031 12.375 8.8125 C 11.054688 8.8125 9.734375 8.8125 8.375 8.8125 C 8.355469 8.710938 8.332031 8.605469 8.3125 8.5 Z M 8.3125 8.5 "/>
<path style=" stroke:none;fill-rule:nonzero;fill:rgb(100%,96.470588%,96.078432%);fill-opacity:1;" d="M 12.4375 3.875 C 12.746094 3.875 13.054688 3.875 13.375 3.875 C 13.375 4.203125 13.375 4.535156 13.375 4.875 C 13.148438 4.875 12.921875 4.875 12.6875 4.875 C 12.6875 5.0625 12.6875 5.246094 12.6875 5.4375 C 12.605469 5.4375 12.523438 5.4375 12.4375 5.4375 C 12.4375 4.921875 12.4375 4.40625 12.4375 3.875 Z M 12.4375 3.875 "/>
<path style=" stroke:none;fill-rule:nonzero;fill:rgb(100%,92.941177%,91.764706%);fill-opacity:1;" d="M 11.5 3.875 C 11.605469 3.894531 11.707031 3.914062 11.8125 3.9375 C 11.828125 3.988281 11.84375 4.035156 11.859375 4.089844 C 11.996094 4.503906 11.996094 4.503906 12.171875 4.902344 C 12.257812 5.074219 12.265625 5.183594 12.25 5.375 C 12.167969 5.394531 12.085938 5.417969 12 5.4375 C 11.957031 5.3125 11.917969 5.191406 11.875 5.0625 C 11.710938 5.0625 11.546875 5.0625 11.375 5.0625 C 11.332031 5.1875 11.292969 5.308594 11.25 5.4375 C 11.167969 5.417969 11.085938 5.394531 11 5.375 C 11.035156 5.03125 11.125 4.734375 11.25 4.414062 C 11.265625 4.367188 11.285156 4.324219 11.300781 4.277344 C 11.429688 3.945312 11.429688 3.945312 11.5 3.875 Z M 11.5 3.875 "/>
<path style=" stroke:none;fill-rule:nonzero;fill:rgb(23.921569%,23.529412%,23.529412%);fill-opacity:1;" d="M 8.8125 11.4375 C 9.742188 11.4375 10.667969 11.4375 11.625 11.4375 C 11.625 11.539062 11.625 11.644531 11.625 11.75 C 10.695312 11.75 9.769531 11.75 8.8125 11.75 C 8.8125 11.648438 8.8125 11.542969 8.8125 11.4375 Z M 8.8125 11.4375 "/>
<path style=" stroke:none;fill-rule:nonzero;fill:rgb(20.392157%,43.921569%,51.372552%);fill-opacity:1;" d="M 9.53125 4.679688 C 9.574219 4.679688 9.617188 4.679688 9.660156 4.679688 C 9.984375 4.679688 9.984375 4.679688 10.125 4.75 C 10.144531 4.875 10.167969 4.996094 10.1875 5.125 C 9.773438 5.125 9.363281 5.125 8.9375 5.125 C 8.9375 5 8.9375 4.878906 8.9375 4.75 C 9.125 4.65625 9.324219 4.679688 9.53125 4.679688 Z M 9.53125 4.679688 "/>
<path style=" stroke:none;fill-rule:nonzero;fill:rgb(100%,93.725491%,92.941177%);fill-opacity:1;" d="M 13.6875 3.875 C 13.769531 3.875 13.851562 3.875 13.9375 3.875 C 13.9375 4.390625 13.9375 4.90625 13.9375 5.4375 C 13.835938 5.417969 13.730469 5.394531 13.625 5.375 C 13.625 5.136719 13.621094 4.898438 13.621094 4.660156 C 13.621094 4.59375 13.621094 4.523438 13.621094 4.453125 C 13.621094 4.390625 13.621094 4.324219 13.617188 4.257812 C 13.617188 4.199219 13.617188 4.136719 13.617188 4.078125 C 13.625 3.9375 13.625 3.9375 13.6875 3.875 Z M 13.6875 3.875 "/>
<path style=" stroke:none;fill-rule:nonzero;fill:rgb(100%,25.882354%,12.156863%);fill-opacity:1;" d="M 12.75 4.1875 C 12.851562 4.1875 12.957031 4.1875 13.0625 4.1875 C 13.0625 4.3125 13.0625 4.433594 13.0625 4.5625 C 12.960938 4.5625 12.855469 4.5625 12.75 4.5625 C 12.75 4.4375 12.75 4.316406 12.75 4.1875 Z M 12.75 4.1875 "/>
</g>
</svg>
