<?xml version="1.0" encoding="UTF-8"?>
<svg xmlns="http://www.w3.org/2000/svg" xmlns:xlink="http://www.w3.org/1999/xlink" width="16" height="16" viewBox="0 0 16 16" version="1.1">
<g id="surface1">
<path style=" stroke:none;fill-rule:nonzero;fill:rgb(1.568628%,2.352941%,2.352941%);fill-opacity:1;" d="M 14.847656 0.574219 C 15.316406 0.925781 15.699219 1.414062 15.8125 2 C 15.914062 3.1875 15.414062 3.980469 14.6875 4.875 C 14.738281 4.890625 14.789062 4.90625 14.839844 4.921875 C 15.515625 5.132812 15.515625 5.132812 15.75 5.375 C 15.851562 5.578125 15.84375 5.714844 15.8125 5.9375 C 15.445312 6.445312 14.761719 6.507812 14.191406 6.605469 C 14.128906 6.613281 14.128906 6.613281 14.0625 6.625 C 14.105469 6.667969 14.144531 6.707031 14.1875 6.75 C 14.449219 7.773438 14.421875 9.28125 13.9375 10.25 C 13.777344 10.398438 13.722656 10.4375 13.5 10.4375 C 13.523438 10.484375 13.542969 10.53125 13.566406 10.578125 C 13.882812 11.289062 13.957031 11.820312 13.6875 12.5625 C 13.460938 13.058594 13.175781 13.5 12.84375 13.933594 C 12.742188 14.042969 12.742188 14.042969 12.75 14.125 C 12.789062 14.136719 12.832031 14.144531 12.875 14.15625 C 13.203125 14.25 13.488281 14.332031 13.75 14.5625 C 13.855469 14.765625 13.886719 14.875 13.839844 15.101562 C 13.632812 15.441406 13.3125 15.589844 12.9375 15.6875 C 11.910156 15.882812 10.589844 15.984375 9.625 15.5 C 9.4375 15.335938 9.4375 15.335938 9.3125 15.1875 C 9.292969 15.167969 9.273438 15.144531 9.25 15.125 C 9.214844 14.882812 9.238281 14.769531 9.359375 14.554688 C 9.601562 14.285156 9.972656 14.214844 10.3125 14.125 C 10.3125 13.929688 10.183594 13.832031 10.0625 13.6875 C 10.050781 13.734375 10.042969 13.78125 10.03125 13.832031 C 9.917969 14.035156 9.808594 14.078125 9.589844 14.148438 C 7.996094 14.558594 6.277344 14.304688 4.855469 13.484375 C 3.609375 12.679688 2.628906 11.585938 2.140625 10.171875 C 2.117188 9.984375 2.222656 9.847656 2.3125 9.6875 C 2.242188 9.6875 2.167969 9.691406 2.09375 9.691406 C 1.496094 9.691406 0.765625 9.609375 0.3125 9.1875 C 0.152344 8.949219 0.144531 8.84375 0.1875 8.5625 C 0.398438 8.292969 0.667969 8.136719 1 8.0625 C 1.105469 8.0625 1.207031 8.058594 1.3125 8.0625 C 1.289062 8.03125 1.269531 7.996094 1.246094 7.964844 C 1.179688 7.867188 1.113281 7.765625 1.050781 7.667969 C 0.976562 7.558594 0.902344 7.445312 0.824219 7.335938 C 0.3125 6.558594 0.0390625 5.878906 0.226562 4.933594 C 0.398438 4.367188 0.824219 3.882812 1.320312 3.558594 C 1.859375 3.28125 2.484375 3.203125 3.070312 3.367188 C 3.1875 3.410156 3.300781 3.453125 3.417969 3.5 C 3.546875 3.558594 3.671875 3.59375 3.8125 3.625 C 3.828125 3.578125 3.84375 3.53125 3.859375 3.484375 C 4.164062 2.828125 5.15625 2.417969 5.800781 2.171875 C 7.398438 1.59375 9.058594 1.683594 10.625 2.3125 C 10.679688 2.332031 10.730469 2.355469 10.785156 2.378906 C 10.988281 2.46875 11.105469 2.519531 11.199219 2.726562 C 11.226562 2.800781 11.226562 2.800781 11.25 2.875 C 11.246094 2.824219 11.242188 2.773438 11.242188 2.722656 C 11.21875 1.992188 11.378906 1.421875 11.875 0.875 C 12.65625 0.046875 13.914062 -0.0234375 14.847656 0.574219 Z M 14.847656 0.574219 "/>
<path style=" stroke:none;fill-rule:nonzero;fill:rgb(1.960784%,1.568628%,1.568628%);fill-opacity:1;" d="M 14.847656 0.574219 C 15.316406 0.925781 15.699219 1.414062 15.8125 2 C 15.914062 3.1875 15.414062 3.980469 14.6875 4.875 C 14.761719 4.898438 14.761719 4.898438 14.839844 4.921875 C 15.515625 5.132812 15.515625 5.132812 15.75 5.375 C 15.851562 5.578125 15.84375 5.714844 15.8125 5.9375 C 15.445312 6.445312 14.761719 6.507812 14.191406 6.605469 C 14.148438 6.609375 14.105469 6.617188 14.0625 6.625 C 14.105469 6.667969 14.144531 6.707031 14.1875 6.75 C 14.449219 7.773438 14.421875 9.28125 13.9375 10.25 C 13.777344 10.398438 13.722656 10.4375 13.5 10.4375 C 13.523438 10.484375 13.542969 10.53125 13.566406 10.578125 C 13.882812 11.289062 13.957031 11.820312 13.6875 12.5625 C 13.460938 13.058594 13.175781 13.5 12.84375 13.933594 C 12.742188 14.042969 12.742188 14.042969 12.75 14.125 C 12.789062 14.136719 12.832031 14.144531 12.875 14.15625 C 13.203125 14.25 13.488281 14.332031 13.75 14.5625 C 13.855469 14.765625 13.886719 14.875 13.839844 15.101562 C 13.632812 15.441406 13.3125 15.589844 12.9375 15.6875 C 11.910156 15.882812 10.589844 15.984375 9.625 15.5 C 9.4375 15.335938 9.4375 15.335938 9.3125 15.1875 C 9.292969 15.167969 9.273438 15.144531 9.25 15.125 C 9.214844 14.882812 9.238281 14.769531 9.359375 14.554688 C 9.601562 14.285156 9.972656 14.214844 10.3125 14.125 C 10.3125 13.960938 10.261719 13.929688 10.15625 13.804688 C 9.960938 13.550781 9.816406 13.28125 9.671875 12.996094 C 9.648438 12.953125 9.628906 12.910156 9.605469 12.867188 C 9.304688 12.257812 9.167969 11.617188 9.390625 10.953125 C 9.6875 10.273438 10.140625 9.851562 10.8125 9.5625 C 10.992188 9.503906 11.105469 9.492188 11.292969 9.496094 C 11.34375 9.496094 11.394531 9.496094 11.445312 9.496094 C 11.503906 9.5 11.503906 9.5 11.5625 9.5 C 11.492188 9.160156 11.492188 9.160156 11.25 8.9375 C 11.042969 8.921875 10.835938 8.914062 10.628906 8.914062 C 10.253906 8.902344 10.03125 8.777344 9.761719 8.511719 C 9.730469 8.476562 9.703125 8.441406 9.671875 8.40625 C 9.640625 8.371094 9.613281 8.335938 9.582031 8.296875 C 9.386719 8.03125 9.351562 7.855469 9.394531 7.53125 C 9.460938 7.292969 9.589844 7.113281 9.726562 6.910156 C 9.816406 6.738281 9.847656 6.609375 9.875 6.417969 C 9.910156 6.203125 9.945312 6.078125 10.105469 5.929688 C 10.351562 5.789062 10.46875 5.785156 10.75 5.8125 C 10.800781 5.816406 10.851562 5.824219 10.902344 5.828125 C 11.039062 5.839844 11.175781 5.855469 11.3125 5.875 C 11.3125 5.792969 11.3125 5.710938 11.3125 5.625 C 11.261719 5.628906 11.207031 5.632812 11.15625 5.636719 C 11.085938 5.636719 11.019531 5.640625 10.949219 5.644531 C 10.882812 5.648438 10.816406 5.652344 10.746094 5.65625 C 10.5625 5.625 10.5625 5.625 10.449219 5.484375 C 10.28125 5.097656 10.21875 4.652344 10.355469 4.246094 C 10.578125 3.878906 10.992188 3.710938 11.375 3.5625 C 11.4375 3.5625 11.5 3.5625 11.5625 3.5625 C 11.527344 3.503906 11.527344 3.503906 11.492188 3.441406 C 11.226562 2.914062 11.160156 2.453125 11.292969 1.875 C 11.476562 1.3125 11.816406 0.828125 12.3125 0.5 C 13.164062 0.0820312 14.039062 0.0546875 14.847656 0.574219 Z M 14.847656 0.574219 "/>
<path style=" stroke:none;fill-rule:nonzero;fill:rgb(52.941179%,77.254903%,97.647059%);fill-opacity:1;" d="M 10.6875 3 C 10.8125 3.003906 10.9375 3.003906 11.0625 3 C 11.144531 3 11.226562 3 11.3125 3 C 11.484375 3.171875 11.519531 3.328125 11.5625 3.5625 C 11.511719 3.582031 11.460938 3.601562 11.410156 3.621094 C 10.933594 3.808594 10.660156 3.945312 10.375 4.375 C 10.320312 4.8125 10.382812 5.167969 10.5625 5.5625 C 10.808594 5.582031 11.058594 5.605469 11.3125 5.625 C 11.332031 5.726562 11.355469 5.832031 11.375 5.9375 C 10.960938 5.945312 10.960938 5.945312 10.75 5.875 C 10.515625 5.851562 10.359375 5.855469 10.140625 5.953125 C 9.953125 6.183594 9.921875 6.398438 9.863281 6.6875 C 9.8125 6.867188 9.757812 6.984375 9.648438 7.136719 C 9.472656 7.394531 9.402344 7.625 9.4375 7.9375 C 9.589844 8.320312 9.882812 8.628906 10.25 8.8125 C 10.457031 8.824219 10.664062 8.832031 10.875 8.832031 C 11.09375 8.84375 11.242188 8.871094 11.4375 8.980469 C 11.5625 9.125 11.5625 9.125 11.582031 9.328125 C 11.574219 9.414062 11.574219 9.414062 11.5625 9.5 C 11.515625 9.507812 11.464844 9.511719 11.417969 9.519531 C 11.007812 9.578125 10.660156 9.644531 10.3125 9.875 C 10.269531 9.902344 10.230469 9.929688 10.1875 9.957031 C 9.722656 10.308594 9.429688 10.84375 9.339844 11.414062 C 9.320312 12.027344 9.480469 12.515625 9.792969 13.035156 C 9.964844 13.328125 9.992188 13.601562 10 13.9375 C 9.144531 14.515625 7.730469 14.398438 6.761719 14.21875 C 5.121094 13.867188 3.707031 12.867188 2.769531 11.484375 C 2.53125 11.117188 2.351562 10.71875 2.1875 10.3125 C 2.167969 10.269531 2.152344 10.230469 2.132812 10.1875 C 2.121094 9.976562 2.222656 9.8125 2.3125 9.625 C 2.390625 9.617188 2.46875 9.609375 2.550781 9.601562 C 3.679688 9.542969 3.679688 9.542969 4.625 9 C 4.65625 8.816406 4.65625 8.816406 4.625 8.625 C 4.4375 8.378906 4.207031 8.296875 3.921875 8.203125 C 3.882812 8.1875 3.839844 8.175781 3.796875 8.160156 C 3.699219 8.128906 3.601562 8.09375 3.5 8.0625 C 3.5625 7.9375 3.625 7.8125 3.6875 7.6875 C 3.917969 7.730469 4.085938 7.828125 4.28125 7.953125 C 4.339844 7.988281 4.398438 8.027344 4.457031 8.0625 C 4.667969 8.21875 4.820312 8.390625 4.9375 8.625 C 4.941406 8.738281 4.949219 8.851562 4.953125 8.964844 C 4.964844 9.589844 4.964844 9.589844 5.25 10.125 C 5.363281 10.226562 5.476562 10.328125 5.59375 10.425781 C 5.949219 10.734375 6.078125 10.984375 6.1875 11.4375 C 6.207031 11.519531 6.226562 11.601562 6.25 11.679688 C 6.28125 11.8125 6.3125 11.941406 6.34375 12.070312 C 6.496094 12.695312 6.496094 12.695312 6.832031 13.230469 C 7.066406 13.34375 7.191406 13.328125 7.4375 13.25 C 7.789062 12.9375 7.929688 12.425781 7.984375 11.972656 C 8.050781 11.546875 8.296875 11.265625 8.5625 10.9375 C 8.632812 10.847656 8.703125 10.753906 8.769531 10.664062 C 8.800781 10.625 8.828125 10.585938 8.859375 10.542969 C 9.203125 10.074219 9.25 9.640625 9.1875 9.0625 C 9.074219 8.867188 9.074219 8.867188 8.875 8.75 C 8.835938 8.71875 8.792969 8.6875 8.75 8.65625 C 8.417969 8.417969 8.074219 8.257812 7.6875 8.125 C 7.648438 8.109375 7.605469 8.09375 7.566406 8.078125 C 7.25 7.957031 6.988281 7.925781 6.652344 7.933594 C 5.964844 7.949219 5.964844 7.949219 5.695312 7.726562 C 5.542969 7.484375 5.4375 7.289062 5.4375 7 C 5.507812 6.984375 5.578125 6.96875 5.648438 6.953125 C 5.738281 6.933594 5.832031 6.910156 5.921875 6.890625 C 5.96875 6.878906 6.011719 6.871094 6.058594 6.859375 C 6.335938 6.796875 6.511719 6.734375 6.6875 6.5 C 6.714844 6.429688 6.738281 6.359375 6.765625 6.289062 C 6.925781 5.878906 7.367188 5.671875 7.75 5.5 C 7.964844 5.4375 8.179688 5.394531 8.394531 5.351562 C 8.589844 5.308594 8.726562 5.273438 8.871094 5.132812 C 9.003906 4.871094 9.011719 4.636719 9.015625 4.34375 C 9.015625 4.273438 9.019531 4.203125 9.019531 4.128906 C 8.996094 3.914062 8.976562 3.832031 8.8125 3.6875 C 8.617188 3.617188 8.617188 3.617188 8.394531 3.570312 C 8.105469 3.496094 7.90625 3.4375 7.6875 3.234375 C 7.410156 2.996094 7.121094 3.027344 6.765625 3.042969 C 6.542969 3.066406 6.339844 3.121094 6.125 3.1875 C 5.9375 3.207031 5.75 3.222656 5.5625 3.1875 C 5.453125 3.09375 5.453125 3.09375 5.375 3 C 5.503906 2.941406 5.628906 2.878906 5.757812 2.820312 C 5.828125 2.785156 5.898438 2.753906 5.972656 2.71875 C 7.488281 2.054688 9.242188 2.277344 10.6875 3 Z M 10.6875 3 "/>
<path style=" stroke:none;fill-rule:nonzero;fill:rgb(41.568628%,94.509804%,74.901962%);fill-opacity:1;" d="M 4.867188 3.410156 C 5.0625 3.4375 5.0625 3.4375 5.269531 3.53125 C 5.636719 3.679688 5.960938 3.65625 6.339844 3.5625 C 6.6875 3.480469 7.058594 3.394531 7.386719 3.578125 C 7.480469 3.644531 7.570312 3.710938 7.660156 3.777344 C 7.933594 3.953125 8.246094 4.003906 8.5625 4.0625 C 8.574219 4.363281 8.570312 4.601562 8.4375 4.875 C 8.246094 4.953125 8.246094 4.953125 8.003906 5 C 7.429688 5.128906 6.875 5.339844 6.5 5.8125 C 6.453125 5.910156 6.40625 6.007812 6.359375 6.105469 C 6.226562 6.355469 6.226562 6.355469 6.058594 6.433594 C 5.914062 6.464844 5.773438 6.484375 5.625 6.5 C 5.332031 6.570312 5.332031 6.570312 5.066406 6.699219 C 4.957031 6.886719 4.953125 7.042969 5 7.25 C 5.105469 7.492188 5.230469 7.71875 5.375 7.9375 C 5.417969 8.003906 5.460938 8.074219 5.503906 8.144531 C 5.769531 8.386719 5.972656 8.347656 6.316406 8.335938 C 6.832031 8.339844 7.261719 8.40625 7.742188 8.601562 C 7.816406 8.632812 7.816406 8.632812 7.894531 8.660156 C 8.242188 8.816406 8.566406 9.015625 8.8125 9.3125 C 8.859375 9.894531 8.464844 10.347656 8.121094 10.78125 C 7.753906 11.246094 7.570312 11.644531 7.46875 12.226562 C 7.425781 12.4375 7.34375 12.617188 7.25 12.8125 C 7.1875 12.8125 7.125 12.8125 7.0625 12.8125 C 6.832031 12.347656 6.722656 11.890625 6.625 11.386719 C 6.519531 10.863281 6.351562 10.382812 5.894531 10.066406 C 5.847656 10.03125 5.796875 10 5.75 9.964844 C 5.707031 9.933594 5.667969 9.90625 5.625 9.875 C 5.476562 9.726562 5.480469 9.683594 5.46875 9.480469 C 5.464844 9.425781 5.460938 9.371094 5.457031 9.316406 C 5.449219 9.203125 5.441406 9.089844 5.433594 8.976562 C 5.402344 8.554688 5.316406 8.273438 5.023438 7.949219 C 4.738281 7.71875 4.4375 7.511719 4.125 7.3125 C 4.164062 7.078125 4.230469 6.898438 4.339844 6.691406 C 4.640625 6.125 4.742188 5.527344 4.582031 4.894531 C 4.402344 4.46875 4.128906 4.078125 3.75 3.8125 C 3.769531 3.75 3.789062 3.6875 3.8125 3.625 C 3.847656 3.648438 3.882812 3.667969 3.917969 3.691406 C 4.105469 3.765625 4.183594 3.753906 4.375 3.6875 C 4.425781 3.644531 4.476562 3.601562 4.527344 3.558594 C 4.6875 3.4375 4.6875 3.4375 4.867188 3.410156 Z M 4.867188 3.410156 "/>
<path style=" stroke:none;fill-rule:nonzero;fill:rgb(41.568628%,94.901961%,74.901962%);fill-opacity:1;" d="M 10.636719 6.371094 C 10.722656 6.375 10.8125 6.378906 10.902344 6.378906 C 10.972656 6.382812 10.972656 6.382812 11.042969 6.382812 C 11.144531 6.386719 11.246094 6.390625 11.347656 6.394531 C 11.5 6.398438 11.652344 6.402344 11.804688 6.40625 C 12.050781 6.414062 12.296875 6.421875 12.542969 6.433594 C 12.636719 6.4375 12.734375 6.4375 12.832031 6.441406 C 12.964844 6.445312 13.101562 6.453125 13.234375 6.460938 C 13.3125 6.460938 13.386719 6.464844 13.46875 6.46875 C 13.722656 6.503906 13.894531 6.566406 14.125 6.6875 C 14.621094 7.660156 14.273438 9.136719 13.996094 10.132812 C 13.917969 10.285156 13.835938 10.351562 13.6875 10.4375 C 13.324219 10.394531 13.148438 10.234375 12.890625 9.984375 C 12.730469 9.859375 12.578125 9.804688 12.382812 9.734375 C 12.207031 9.660156 12.207031 9.660156 12.0625 9.5625 C 11.996094 9.382812 11.976562 9.226562 11.960938 9.039062 C 11.949219 8.855469 11.949219 8.855469 11.792969 8.683594 C 11.480469 8.457031 11.234375 8.425781 10.851562 8.421875 C 10.507812 8.40625 10.246094 8.375 10.003906 8.113281 C 9.910156 7.957031 9.886719 7.808594 9.902344 7.628906 C 9.957031 7.4375 10.058594 7.292969 10.171875 7.128906 C 10.28125 6.945312 10.316406 6.761719 10.351562 6.550781 C 10.390625 6.351562 10.425781 6.375 10.636719 6.371094 Z M 10.636719 6.371094 "/>
<path style=" stroke:none;fill-rule:nonzero;fill:rgb(3.921569%,2.352941%,2.745098%);fill-opacity:1;" d="M 2.988281 3.914062 C 3.472656 4.085938 3.828125 4.414062 4.09375 4.851562 C 4.28125 5.289062 4.261719 5.773438 4.113281 6.21875 C 3.847656 6.792969 3.46875 7.273438 3.0625 7.75 C 3.035156 7.78125 3.007812 7.816406 2.980469 7.847656 C 2.660156 8.222656 2.660156 8.222656 2.5 8.375 C 2.457031 8.375 2.417969 8.375 2.375 8.375 C 2.203125 8.191406 2.050781 7.988281 1.894531 7.789062 C 1.8125 7.6875 1.730469 7.585938 1.648438 7.488281 C 1.082031 6.78125 0.6875 6.117188 0.75 5.1875 C 0.824219 4.808594 1.023438 4.503906 1.3125 4.25 C 1.492188 4.132812 1.679688 4.03125 1.875 3.9375 C 2.191406 3.78125 2.652344 3.839844 2.988281 3.914062 Z M 2.988281 3.914062 "/>
<path style=" stroke:none;fill-rule:nonzero;fill:rgb(4.313726%,2.745098%,2.745098%);fill-opacity:1;" d="M 12.34375 10.160156 C 12.792969 10.414062 13.046875 10.714844 13.25 11.1875 C 13.359375 11.945312 13.140625 12.539062 12.710938 13.152344 C 12.453125 13.492188 12.175781 13.816406 11.894531 14.140625 C 11.746094 14.308594 11.746094 14.308594 11.625 14.5 C 11.355469 14.402344 11.199219 14.195312 11.019531 13.984375 C 10.988281 13.945312 10.953125 13.90625 10.921875 13.867188 C 10.59375 13.476562 10.324219 13.058594 10.0625 12.625 C 10.027344 12.570312 9.992188 12.515625 9.957031 12.460938 C 9.75 12.089844 9.765625 11.660156 9.8125 11.25 C 9.984375 10.742188 10.296875 10.394531 10.75 10.125 C 11.257812 9.878906 11.84375 9.925781 12.34375 10.160156 Z M 12.34375 10.160156 "/>
<path style=" stroke:none;fill-rule:nonzero;fill:rgb(4.313726%,2.745098%,2.745098%);fill-opacity:1;" d="M 14.4375 1 C 14.804688 1.269531 15.105469 1.5625 15.25 2 C 15.367188 3.15625 14.722656 3.941406 14.03125 4.789062 C 13.988281 4.84375 13.988281 4.84375 13.941406 4.898438 C 13.914062 4.933594 13.882812 4.96875 13.855469 5.003906 C 13.78125 5.089844 13.703125 5.171875 13.625 5.25 C 13.5625 5.25 13.5 5.25 13.4375 5.25 C 13.316406 5.128906 13.316406 5.128906 13.183594 4.957031 C 13.132812 4.894531 13.085938 4.832031 13.035156 4.765625 C 12.996094 4.714844 12.996094 4.714844 12.953125 4.664062 C 12.875 4.5625 12.796875 4.464844 12.714844 4.367188 C 12.191406 3.722656 11.726562 3.066406 11.777344 2.199219 C 11.863281 1.691406 12.148438 1.363281 12.539062 1.042969 C 13.125 0.632812 13.835938 0.628906 14.4375 1 Z M 14.4375 1 "/>
<path style=" stroke:none;fill-rule:nonzero;fill:rgb(0.392157%,0.784314%,1.176471%);fill-opacity:1;" d="M 2.25 9.8125 C 2.636719 9.875 2.636719 9.875 2.765625 10.03125 C 2.832031 10.15625 2.886719 10.28125 2.941406 10.410156 C 2.984375 10.5 3.027344 10.59375 3.070312 10.683594 C 3.097656 10.75 3.097656 10.75 3.128906 10.816406 C 3.371094 11.320312 3.742188 11.726562 4.125 12.125 C 4.171875 12.171875 4.21875 12.21875 4.265625 12.269531 C 5.269531 13.242188 6.628906 13.695312 8.007812 13.703125 C 8.109375 13.703125 8.109375 13.703125 8.210938 13.707031 C 8.625 13.707031 8.988281 13.660156 9.390625 13.539062 C 9.578125 13.496094 9.746094 13.488281 9.9375 13.5 C 10 13.5625 10 13.5625 10.023438 13.742188 C 10.011719 13.839844 10.011719 13.839844 10 13.9375 C 9.292969 14.480469 7.996094 14.382812 7.15625 14.28125 C 5.507812 14.046875 4.011719 13.140625 3.007812 11.816406 C 2.640625 11.320312 2.21875 10.683594 2.125 10.0625 C 2.183594 9.921875 2.183594 9.921875 2.25 9.8125 Z M 2.25 9.8125 "/>
<path style=" stroke:none;fill-rule:nonzero;fill:rgb(93.725491%,36.862746%,40.784314%);fill-opacity:1;" d="M 2.988281 3.914062 C 3.472656 4.085938 3.828125 4.414062 4.09375 4.851562 C 4.28125 5.289062 4.261719 5.773438 4.113281 6.21875 C 3.847656 6.792969 3.46875 7.273438 3.0625 7.75 C 3.035156 7.78125 3.007812 7.816406 2.980469 7.847656 C 2.660156 8.222656 2.660156 8.222656 2.5 8.375 C 2.457031 8.375 2.417969 8.375 2.375 8.375 C 2.203125 8.191406 2.050781 7.988281 1.894531 7.789062 C 1.8125 7.6875 1.730469 7.585938 1.648438 7.488281 C 1.082031 6.78125 0.6875 6.117188 0.75 5.1875 C 0.824219 4.808594 1.023438 4.503906 1.3125 4.25 C 1.492188 4.132812 1.679688 4.03125 1.875 3.9375 C 2.191406 3.78125 2.652344 3.839844 2.988281 3.914062 Z M 1.214844 4.757812 C 0.9375 5.148438 0.953125 5.601562 1 6.0625 C 1.140625 6.460938 1.476562 6.757812 1.8125 7 C 2.195312 7.128906 2.714844 7.140625 3.097656 7.003906 C 3.480469 6.777344 3.792969 6.421875 3.9375 6 C 3.992188 5.539062 3.984375 5.140625 3.726562 4.746094 C 3.421875 4.382812 3.0625 4.164062 2.59375 4.105469 C 2.003906 4.066406 1.578125 4.296875 1.214844 4.757812 Z M 1.214844 4.757812 "/>
<path style=" stroke:none;fill-rule:nonzero;fill:rgb(93.725491%,36.470589%,40.784314%);fill-opacity:1;" d="M 14.4375 1 C 14.804688 1.269531 15.105469 1.5625 15.25 2 C 15.367188 3.15625 14.722656 3.941406 14.03125 4.789062 C 13.988281 4.84375 13.988281 4.84375 13.941406 4.898438 C 13.914062 4.933594 13.882812 4.96875 13.855469 5.003906 C 13.78125 5.089844 13.703125 5.171875 13.625 5.25 C 13.5625 5.25 13.5 5.25 13.4375 5.25 C 13.316406 5.128906 13.316406 5.128906 13.183594 4.957031 C 13.132812 4.894531 13.085938 4.832031 13.035156 4.765625 C 12.996094 4.714844 12.996094 4.714844 12.953125 4.664062 C 12.875 4.5625 12.796875 4.464844 12.714844 4.367188 C 12.191406 3.722656 11.726562 3.066406 11.777344 2.199219 C 11.863281 1.691406 12.148438 1.363281 12.539062 1.042969 C 13.125 0.632812 13.835938 0.628906 14.4375 1 Z M 12.34375 1.574219 C 12.050781 1.921875 12.03125 2.230469 12.039062 2.675781 C 12.070312 2.953125 12.15625 3.144531 12.3125 3.375 C 12.347656 3.429688 12.378906 3.484375 12.414062 3.542969 C 12.726562 3.847656 13.09375 4.015625 13.53125 4.039062 C 13.957031 4.015625 14.320312 3.875 14.617188 3.5625 C 14.710938 3.441406 14.796875 3.320312 14.875 3.1875 C 14.898438 3.148438 14.921875 3.113281 14.945312 3.074219 C 15.089844 2.71875 15.058594 2.253906 14.949219 1.894531 C 14.765625 1.523438 14.484375 1.3125 14.125 1.125 C 13.445312 0.898438 12.820312 1.058594 12.34375 1.574219 Z M 12.34375 1.574219 "/>
<path style=" stroke:none;fill-rule:nonzero;fill:rgb(94.117647%,36.862746%,41.176471%);fill-opacity:1;" d="M 12.34375 10.160156 C 12.792969 10.414062 13.046875 10.714844 13.25 11.1875 C 13.359375 11.945312 13.140625 12.539062 12.710938 13.152344 C 12.453125 13.492188 12.175781 13.816406 11.894531 14.140625 C 11.746094 14.308594 11.746094 14.308594 11.625 14.5 C 11.355469 14.402344 11.199219 14.195312 11.019531 13.984375 C 10.988281 13.945312 10.953125 13.90625 10.921875 13.867188 C 10.59375 13.476562 10.324219 13.058594 10.0625 12.625 C 10.027344 12.570312 9.992188 12.515625 9.957031 12.460938 C 9.75 12.089844 9.765625 11.660156 9.8125 11.25 C 9.984375 10.742188 10.296875 10.394531 10.75 10.125 C 11.257812 9.878906 11.84375 9.925781 12.34375 10.160156 Z M 10.378906 10.769531 C 10.078125 11.214844 10.027344 11.523438 10.0625 12.0625 C 10.1875 12.5 10.472656 12.867188 10.859375 13.105469 C 11.257812 13.265625 11.753906 13.273438 12.160156 13.132812 C 12.515625 12.925781 12.851562 12.574219 13 12.1875 C 13.050781 11.714844 13.082031 11.238281 12.78125 10.847656 C 12.410156 10.457031 12.054688 10.246094 11.511719 10.214844 C 11.039062 10.230469 10.683594 10.402344 10.378906 10.769531 Z M 10.378906 10.769531 "/>
<path style=" stroke:none;fill-rule:nonzero;fill:rgb(90.588236%,91.764706%,92.54902%);fill-opacity:1;" d="M 2.75 4.625 C 3.082031 4.792969 3.320312 5.019531 3.4375 5.375 C 3.488281 5.703125 3.464844 5.9375 3.269531 6.214844 C 3.078125 6.457031 2.886719 6.542969 2.585938 6.589844 C 2.273438 6.597656 2.054688 6.597656 1.808594 6.394531 C 1.558594 6.136719 1.496094 5.921875 1.476562 5.566406 C 1.484375 5.265625 1.542969 5.101562 1.75 4.875 C 2.074219 4.632812 2.347656 4.550781 2.75 4.625 Z M 2.75 4.625 "/>
<path style=" stroke:none;fill-rule:nonzero;fill:rgb(90.196079%,91.37255%,92.156863%);fill-opacity:1;" d="M 13.875 1.5625 C 14.09375 1.667969 14.09375 1.667969 14.25 1.8125 C 14.296875 1.855469 14.347656 1.894531 14.398438 1.9375 C 14.5625 2.242188 14.566406 2.539062 14.5 2.875 C 14.351562 3.136719 14.164062 3.3125 13.910156 3.46875 C 13.574219 3.535156 13.347656 3.550781 13.046875 3.394531 C 12.785156 3.175781 12.589844 2.972656 12.546875 2.621094 C 12.535156 2.277344 12.578125 2.085938 12.8125 1.8125 C 12.855469 1.765625 12.894531 1.714844 12.9375 1.664062 C 13.238281 1.5 13.539062 1.515625 13.875 1.5625 Z M 13.875 1.5625 "/>
<path style=" stroke:none;fill-rule:nonzero;fill:rgb(90.588236%,91.764706%,92.54902%);fill-opacity:1;" d="M 11.875 10.75 C 12.15625 10.898438 12.386719 11.070312 12.5 11.375 C 12.546875 11.742188 12.527344 12.0625 12.3125 12.375 C 12 12.664062 11.753906 12.707031 11.339844 12.699219 C 11.136719 12.683594 11.027344 12.636719 10.875 12.5 C 10.621094 12.160156 10.503906 11.867188 10.5625 11.4375 C 10.839844 10.902344 11.277344 10.648438 11.875 10.75 Z M 11.875 10.75 "/>
<path style=" stroke:none;fill-rule:nonzero;fill:rgb(0%,1.176471%,0.784314%);fill-opacity:1;" d="M 13.75 6.625 C 13.90625 6.605469 13.90625 6.605469 14.0625 6.625 C 14.378906 6.941406 14.324219 7.625 14.332031 8.046875 C 14.328125 8.742188 14.25 9.625 13.9375 10.25 C 13.816406 10.363281 13.816406 10.363281 13.6875 10.4375 C 13.515625 10.386719 13.515625 10.386719 13.375 10.3125 C 13.402344 9.957031 13.464844 9.644531 13.566406 9.304688 C 13.765625 8.582031 13.761719 7.769531 13.648438 7.03125 C 13.625 6.8125 13.625 6.8125 13.75 6.625 Z M 13.75 6.625 "/>
<path style=" stroke:none;fill-rule:nonzero;fill:rgb(0.784314%,85.882354%,58.039218%);fill-opacity:1;" d="M 13.125 6.5 C 13.3125 6.5 13.496094 6.5 13.6875 6.5 C 13.75 6.746094 13.734375 6.824219 13.6875 7.0625 C 13.707031 7.144531 13.730469 7.230469 13.75 7.3125 C 13.824219 8.1875 13.734375 8.984375 13.472656 9.816406 C 13.425781 9.980469 13.398438 10.144531 13.375 10.3125 C 13.136719 10.214844 12.988281 10.058594 12.8125 9.875 C 12.855469 9.875 12.894531 9.875 12.9375 9.875 C 12.980469 9.6875 13.023438 9.5 13.0625 9.3125 C 13.074219 9.261719 13.085938 9.210938 13.097656 9.160156 C 13.1875 8.707031 13.203125 8.269531 13.199219 7.808594 C 13.199219 7.738281 13.199219 7.667969 13.199219 7.59375 C 13.214844 7.253906 13.214844 7.253906 13.125 6.9375 C 13.121094 6.792969 13.121094 6.644531 13.125 6.5 Z M 13.125 6.5 "/>
<path style=" stroke:none;fill-rule:nonzero;fill:rgb(39.215687%,92.156863%,72.549021%);fill-opacity:1;" d="M 11.875 4 C 12.003906 4.140625 12.003906 4.140625 12.132812 4.328125 C 12.175781 4.390625 12.21875 4.449219 12.261719 4.511719 C 12.351562 4.652344 12.429688 4.785156 12.5 4.9375 C 11.941406 5.144531 11.398438 5.132812 10.8125 5.125 C 10.789062 4.914062 10.78125 4.710938 10.8125 4.5 C 11.089844 4.183594 11.449219 4 11.875 4 Z M 11.875 4 "/>
<path style=" stroke:none;fill-rule:nonzero;fill:rgb(56.862748%,52.941179%,56.862748%);fill-opacity:1;" d="M 1.9375 8.5625 C 2.078125 8.667969 2.171875 8.773438 2.277344 8.910156 C 2.3125 8.941406 2.34375 8.96875 2.375 9 C 2.53125 8.992188 2.601562 8.964844 2.710938 8.847656 C 2.75 8.796875 2.75 8.796875 2.789062 8.746094 C 2.910156 8.621094 2.972656 8.566406 3.144531 8.53125 C 3.507812 8.523438 3.792969 8.601562 4.125 8.75 C 4.125 8.792969 4.125 8.832031 4.125 8.875 C 4.027344 8.90625 3.925781 8.933594 3.828125 8.964844 C 3.773438 8.980469 3.71875 9 3.660156 9.015625 C 3.609375 9.03125 3.554688 9.046875 3.5 9.0625 C 3.460938 9.074219 3.425781 9.085938 3.386719 9.09375 C 3.085938 9.160156 2.769531 9.140625 2.464844 9.140625 C 2.359375 9.140625 2.359375 9.140625 2.25 9.144531 C 1.75 9.148438 1.265625 9.101562 0.8125 8.875 C 0.832031 8.8125 0.855469 8.75 0.875 8.6875 C 1.199219 8.527344 1.585938 8.492188 1.9375 8.5625 Z M 1.9375 8.5625 "/>
<path style=" stroke:none;fill-rule:nonzero;fill:rgb(57.254905%,53.333336%,57.254905%);fill-opacity:1;" d="M 12.589844 14.652344 C 12.808594 14.699219 12.988281 14.777344 13.1875 14.875 C 12.933594 15.1875 12.503906 15.207031 12.125 15.25 C 11.433594 15.300781 10.652344 15.332031 10 15.0625 C 9.957031 15 9.917969 14.9375 9.875 14.875 C 10.261719 14.699219 10.636719 14.601562 11.0625 14.6875 C 11.195312 14.796875 11.273438 14.917969 11.375 15.0625 C 11.574219 15.121094 11.574219 15.121094 11.75 15.125 C 11.765625 15.089844 11.78125 15.054688 11.796875 15.015625 C 12.007812 14.632812 12.171875 14.59375 12.589844 14.652344 Z M 12.589844 14.652344 "/>
<path style=" stroke:none;fill-rule:nonzero;fill:rgb(58.823532%,54.509807%,58.823532%);fill-opacity:1;" d="M 13 5.4375 C 13.117188 5.539062 13.203125 5.648438 13.292969 5.777344 C 13.371094 5.890625 13.371094 5.890625 13.53125 5.929688 C 13.71875 5.863281 13.734375 5.8125 13.84375 5.652344 C 13.9375 5.53125 13.9375 5.53125 14.0625 5.4375 C 14.457031 5.398438 14.824219 5.464844 15.1875 5.625 C 15.1875 5.667969 15.1875 5.707031 15.1875 5.75 C 15.097656 5.78125 15.011719 5.808594 14.921875 5.839844 C 14.871094 5.855469 14.824219 5.875 14.773438 5.890625 C 14.367188 6.019531 13.984375 6.015625 13.5625 6.015625 C 13.453125 6.015625 13.453125 6.015625 13.339844 6.019531 C 12.863281 6.023438 12.382812 6 11.9375 5.8125 C 11.917969 5.75 11.894531 5.6875 11.875 5.625 C 12.238281 5.464844 12.601562 5.339844 13 5.4375 Z M 13 5.4375 "/>
<path style=" stroke:none;fill-rule:nonzero;fill:rgb(61.56863%,57.254905%,61.56863%);fill-opacity:1;" d="M 11.0625 14.6875 C 11.222656 14.800781 11.273438 14.890625 11.375 15.0625 C 11.375 15.105469 11.375 15.144531 11.375 15.1875 C 10.851562 15.207031 10.421875 15.203125 9.9375 15 C 9.9375 14.9375 9.9375 14.875 9.9375 14.8125 C 10.304688 14.683594 10.675781 14.617188 11.0625 14.6875 Z M 11.0625 14.6875 "/>
<path style=" stroke:none;fill-rule:nonzero;fill:rgb(61.960787%,57.647061%,61.960787%);fill-opacity:1;" d="M 3.625 8.5625 C 3.800781 8.613281 3.957031 8.675781 4.125 8.75 C 4.125 8.792969 4.125 8.832031 4.125 8.875 C 3.667969 9.101562 3.125 9.070312 2.625 9.0625 C 2.863281 8.574219 3.09375 8.492188 3.625 8.5625 Z M 3.625 8.5625 "/>
<path style=" stroke:none;fill-rule:nonzero;fill:rgb(62.352943%,58.039218%,62.352943%);fill-opacity:1;" d="M 14.460938 5.449219 C 14.53125 5.457031 14.601562 5.460938 14.671875 5.46875 C 14.863281 5.496094 15.015625 5.546875 15.1875 5.625 C 15.1875 5.667969 15.1875 5.707031 15.1875 5.75 C 14.703125 5.949219 14.273438 5.957031 13.75 5.9375 C 13.898438 5.511719 14.003906 5.40625 14.460938 5.449219 Z M 14.460938 5.449219 "/>
<path style=" stroke:none;fill-rule:nonzero;fill:rgb(48.235294%,70.19608%,88.627452%);fill-opacity:1;" d="M 3.6875 7.6875 C 3.917969 7.730469 4.085938 7.828125 4.28125 7.953125 C 4.339844 7.988281 4.398438 8.027344 4.457031 8.0625 C 4.667969 8.21875 4.820312 8.390625 4.9375 8.625 C 4.945312 8.792969 4.941406 8.957031 4.9375 9.125 C 4.917969 9.125 4.894531 9.125 4.875 9.125 C 4.875 8.980469 4.875 8.835938 4.875 8.6875 C 4.832031 8.6875 4.792969 8.6875 4.75 8.6875 C 4.730469 8.769531 4.707031 8.851562 4.6875 8.9375 C 4.675781 8.871094 4.667969 8.804688 4.65625 8.734375 C 4.613281 8.585938 4.585938 8.515625 4.460938 8.421875 C 4.15625 8.265625 3.828125 8.164062 3.5 8.0625 C 3.5625 7.9375 3.625 7.8125 3.6875 7.6875 Z M 3.6875 7.6875 "/>
<path style=" stroke:none;fill-rule:nonzero;fill:rgb(35.686275%,61.56863%,83.137256%);fill-opacity:1;" d="M 9.8125 13.1875 C 9.9375 13.3125 9.9375 13.3125 9.9375 13.5 C 8.960938 13.78125 7.878906 13.902344 6.875 13.6875 C 6.875 13.667969 6.875 13.644531 6.875 13.625 C 6.929688 13.625 6.980469 13.625 7.035156 13.625 C 7.234375 13.628906 7.433594 13.628906 7.632812 13.632812 C 7.71875 13.632812 7.804688 13.632812 7.890625 13.632812 C 8.011719 13.636719 8.136719 13.636719 8.261719 13.636719 C 8.371094 13.636719 8.371094 13.636719 8.484375 13.640625 C 8.6875 13.625 8.820312 13.585938 9 13.5 C 9.140625 13.453125 9.285156 13.40625 9.425781 13.359375 C 9.5625 13.3125 9.6875 13.253906 9.8125 13.1875 Z M 9.8125 13.1875 "/>
<path style=" stroke:none;fill-rule:nonzero;fill:rgb(36.078432%,67.843139%,93.725491%);fill-opacity:1;" d="M 11.257812 2.96875 C 11.421875 3.101562 11.484375 3.246094 11.5625 3.4375 C 11.5625 3.480469 11.5625 3.519531 11.5625 3.5625 C 11.457031 3.613281 11.457031 3.613281 11.3125 3.625 C 11.121094 3.464844 11.015625 3.359375 10.9375 3.125 C 10.898438 3.105469 10.855469 3.082031 10.8125 3.0625 C 11.082031 2.925781 11.082031 2.925781 11.257812 2.96875 Z M 11.257812 2.96875 "/>
<path style=" stroke:none;fill-rule:nonzero;fill:rgb(47.450981%,69.411767%,87.450981%);fill-opacity:1;" d="M 10.6875 5.625 C 10.894531 5.625 11.101562 5.625 11.3125 5.625 C 11.332031 5.726562 11.355469 5.832031 11.375 5.9375 C 10.910156 5.957031 10.910156 5.957031 10.6875 5.8125 C 10.6875 5.75 10.6875 5.6875 10.6875 5.625 Z M 10.6875 5.625 "/>
<path style=" stroke:none;fill-rule:nonzero;fill:rgb(85.09804%,33.333334%,36.862746%);fill-opacity:1;" d="M 10.5625 10.25 C 10.605469 10.269531 10.644531 10.292969 10.6875 10.3125 C 10.5 10.5 10.316406 10.683594 10.125 10.875 C 10.125 10.6875 10.125 10.6875 10.273438 10.527344 C 10.328125 10.476562 10.382812 10.425781 10.4375 10.375 C 10.480469 10.332031 10.519531 10.292969 10.5625 10.25 Z M 10.5625 10.25 "/>
<path style=" stroke:none;fill-rule:nonzero;fill:rgb(76.078433%,76.862746%,77.64706%);fill-opacity:1;" d="M 2 4.6875 C 2.042969 4.707031 2.082031 4.730469 2.125 4.75 C 1.960938 4.914062 1.796875 5.078125 1.625 5.25 C 1.625 5.0625 1.625 5.0625 1.777344 4.898438 C 1.828125 4.847656 1.882812 4.800781 1.9375 4.75 C 1.957031 4.730469 1.980469 4.707031 2 4.6875 Z M 2 4.6875 "/>
</g>
</svg>
