<?xml version="1.0" encoding="UTF-8"?>
<svg xmlns="http://www.w3.org/2000/svg" xmlns:xlink="http://www.w3.org/1999/xlink" width="16" height="16" viewBox="0 0 16 16" version="1.1">
<g id="surface1">
<path style=" stroke:none;fill-rule:nonzero;fill:rgb(77.254903%,92.54902%,94.117647%);fill-opacity:1;" d="M 5.5 0 C 5.640625 -0.0234375 5.640625 -0.0234375 5.820312 -0.0234375 C 5.886719 -0.0273438 5.953125 -0.0273438 6.023438 -0.0273438 C 6.132812 -0.0273438 6.132812 -0.0273438 6.25 -0.0273438 C 6.367188 -0.0273438 6.367188 -0.0273438 6.484375 -0.0273438 C 6.699219 -0.03125 6.914062 -0.03125 7.128906 -0.03125 C 7.308594 -0.03125 7.484375 -0.03125 7.664062 -0.03125 C 8.089844 -0.03125 8.511719 -0.03125 8.933594 -0.03125 C 9.371094 -0.03125 9.804688 -0.03125 10.242188 -0.0351562 C 10.613281 -0.0351562 10.988281 -0.0390625 11.363281 -0.0351562 C 11.585938 -0.0351562 11.808594 -0.0390625 12.035156 -0.0390625 C 12.28125 -0.0390625 12.53125 -0.0390625 12.78125 -0.0390625 C 12.855469 -0.0390625 12.929688 -0.0390625 13.003906 -0.0429688 C 13.5625 -0.0351562 13.5625 -0.0351562 13.796875 0.152344 C 13.96875 0.347656 14.007812 0.433594 14.007812 0.6875 C 14.007812 0.742188 14.007812 0.792969 14.007812 0.847656 C 14.007812 0.90625 14.007812 0.964844 14.007812 1.023438 C 14.011719 1.117188 14.011719 1.117188 14.011719 1.210938 C 14.011719 1.417969 14.011719 1.625 14.011719 1.835938 C 14.011719 1.984375 14.011719 2.132812 14.015625 2.28125 C 14.015625 2.726562 14.015625 3.171875 14.015625 3.617188 C 14.015625 3.746094 14.015625 3.871094 14.015625 3.996094 C 14.019531 4.78125 14.019531 5.5625 14.019531 6.34375 C 14.019531 6.527344 14.023438 6.707031 14.023438 6.886719 C 14.023438 6.933594 14.023438 6.980469 14.023438 7.023438 C 14.023438 7.753906 14.023438 8.484375 14.027344 9.214844 C 14.03125 9.964844 14.03125 10.714844 14.03125 11.464844 C 14.03125 11.882812 14.03125 12.304688 14.035156 12.726562 C 14.035156 13.121094 14.039062 13.515625 14.035156 13.914062 C 14.035156 14.058594 14.035156 14.203125 14.039062 14.347656 C 14.039062 14.546875 14.039062 14.746094 14.039062 14.945312 C 14.039062 15 14.039062 15.058594 14.039062 15.117188 C 14.039062 15.390625 14.023438 15.570312 13.847656 15.785156 C 13.597656 16.019531 13.46875 16.007812 13.128906 16.007812 C 13.082031 16.011719 13.035156 16.011719 12.992188 16.011719 C 12.839844 16.011719 12.6875 16.011719 12.53125 16.011719 C 12.421875 16.011719 12.316406 16.011719 12.207031 16.015625 C 11.847656 16.015625 11.488281 16.015625 11.128906 16.015625 C 11.007812 16.015625 10.882812 16.015625 10.761719 16.019531 C 10.246094 16.019531 9.734375 16.019531 9.21875 16.019531 C 8.484375 16.023438 7.75 16.023438 7.011719 16.027344 C 6.496094 16.03125 5.976562 16.03125 5.460938 16.03125 C 5.152344 16.03125 4.84375 16.03125 4.535156 16.035156 C 4.242188 16.035156 3.953125 16.039062 3.660156 16.035156 C 3.554688 16.035156 3.449219 16.035156 3.339844 16.039062 C 3.195312 16.039062 3.050781 16.039062 2.90625 16.039062 C 2.78125 16.039062 2.78125 16.039062 2.65625 16.039062 C 2.367188 15.988281 2.269531 15.890625 2.0625 15.6875 C 1.96875 15.5 1.988281 15.3125 1.988281 15.109375 C 1.988281 15.0625 1.988281 15.015625 1.988281 14.964844 C 1.988281 14.808594 1.988281 14.648438 1.984375 14.488281 C 1.984375 14.375 1.984375 14.261719 1.984375 14.148438 C 1.980469 13.773438 1.980469 13.398438 1.980469 13.023438 C 1.976562 12.957031 1.976562 12.894531 1.976562 12.828125 C 1.976562 12.230469 1.972656 11.628906 1.972656 11.027344 C 1.96875 10.257812 1.96875 9.492188 1.960938 8.722656 C 1.957031 8.183594 1.957031 7.640625 1.957031 7.101562 C 1.957031 6.777344 1.953125 6.457031 1.953125 6.132812 C 1.949219 5.828125 1.949219 5.527344 1.949219 5.222656 C 1.949219 5.109375 1.949219 5 1.945312 4.886719 C 1.9375 4.046875 1.9375 4.046875 2.09375 3.78125 C 2.203125 3.671875 2.3125 3.585938 2.4375 3.5 C 2.503906 3.425781 2.574219 3.351562 2.636719 3.277344 C 2.671875 3.234375 2.707031 3.195312 2.746094 3.152344 C 2.84375 3.035156 2.945312 2.917969 3.042969 2.800781 C 3.390625 2.390625 3.746094 1.988281 4.113281 1.59375 C 4.316406 1.375 4.511719 1.160156 4.703125 0.9375 C 4.886719 0.730469 5.070312 0.527344 5.253906 0.324219 C 5.382812 0.183594 5.382812 0.183594 5.5 0 Z M 5.5 0 "/>
<path style=" stroke:none;fill-rule:nonzero;fill:rgb(17.647059%,26.274511%,33.725491%);fill-opacity:1;" d="M 5.5 0 C 5.640625 -0.0234375 5.640625 -0.0234375 5.820312 -0.0234375 C 5.886719 -0.0273438 5.953125 -0.0273438 6.023438 -0.0273438 C 6.132812 -0.0273438 6.132812 -0.0273438 6.25 -0.0273438 C 6.367188 -0.0273438 6.367188 -0.0273438 6.484375 -0.0273438 C 6.699219 -0.03125 6.914062 -0.03125 7.128906 -0.03125 C 7.308594 -0.03125 7.484375 -0.03125 7.664062 -0.03125 C 8.089844 -0.03125 8.511719 -0.03125 8.933594 -0.03125 C 9.371094 -0.03125 9.804688 -0.03125 10.242188 -0.0351562 C 10.613281 -0.0351562 10.988281 -0.0390625 11.363281 -0.0351562 C 11.585938 -0.0351562 11.808594 -0.0390625 12.035156 -0.0390625 C 12.28125 -0.0390625 12.53125 -0.0390625 12.78125 -0.0390625 C 12.855469 -0.0390625 12.929688 -0.0390625 13.003906 -0.0429688 C 13.5625 -0.0351562 13.5625 -0.0351562 13.796875 0.152344 C 13.96875 0.347656 14.007812 0.433594 14.007812 0.6875 C 14.007812 0.742188 14.007812 0.792969 14.007812 0.847656 C 14.007812 0.90625 14.007812 0.964844 14.007812 1.023438 C 14.011719 1.117188 14.011719 1.117188 14.011719 1.210938 C 14.011719 1.417969 14.011719 1.625 14.011719 1.835938 C 14.011719 1.984375 14.011719 2.132812 14.015625 2.28125 C 14.015625 2.726562 14.015625 3.171875 14.015625 3.617188 C 14.015625 3.746094 14.015625 3.871094 14.015625 3.996094 C 14.019531 4.78125 14.019531 5.5625 14.019531 6.34375 C 14.019531 6.527344 14.023438 6.707031 14.023438 6.886719 C 14.023438 6.933594 14.023438 6.980469 14.023438 7.023438 C 14.023438 7.753906 14.023438 8.484375 14.027344 9.214844 C 14.03125 9.964844 14.03125 10.714844 14.03125 11.464844 C 14.03125 11.882812 14.03125 12.304688 14.035156 12.726562 C 14.035156 13.121094 14.039062 13.515625 14.035156 13.914062 C 14.035156 14.058594 14.035156 14.203125 14.039062 14.347656 C 14.039062 14.546875 14.039062 14.746094 14.039062 14.945312 C 14.039062 15 14.039062 15.058594 14.039062 15.117188 C 14.039062 15.390625 14.023438 15.570312 13.847656 15.785156 C 13.597656 16.019531 13.46875 16.007812 13.128906 16.007812 C 13.082031 16.011719 13.035156 16.011719 12.992188 16.011719 C 12.839844 16.011719 12.6875 16.011719 12.53125 16.011719 C 12.421875 16.011719 12.316406 16.011719 12.207031 16.015625 C 11.847656 16.015625 11.488281 16.015625 11.128906 16.015625 C 11.007812 16.015625 10.882812 16.015625 10.761719 16.019531 C 10.246094 16.019531 9.734375 16.019531 9.21875 16.019531 C 8.484375 16.023438 7.75 16.023438 7.011719 16.027344 C 6.496094 16.03125 5.976562 16.03125 5.460938 16.03125 C 5.152344 16.03125 4.84375 16.03125 4.535156 16.035156 C 4.242188 16.035156 3.953125 16.039062 3.660156 16.035156 C 3.554688 16.035156 3.449219 16.035156 3.339844 16.039062 C 3.195312 16.039062 3.050781 16.039062 2.90625 16.039062 C 2.78125 16.039062 2.78125 16.039062 2.65625 16.039062 C 2.367188 15.988281 2.269531 15.890625 2.0625 15.6875 C 1.96875 15.5 1.988281 15.3125 1.988281 15.109375 C 1.988281 15.0625 1.988281 15.015625 1.988281 14.964844 C 1.988281 14.808594 1.988281 14.648438 1.984375 14.488281 C 1.984375 14.375 1.984375 14.261719 1.984375 14.148438 C 1.980469 13.773438 1.980469 13.398438 1.980469 13.023438 C 1.976562 12.957031 1.976562 12.894531 1.976562 12.828125 C 1.976562 12.230469 1.972656 11.628906 1.972656 11.027344 C 1.96875 10.257812 1.96875 9.492188 1.960938 8.722656 C 1.957031 8.183594 1.957031 7.640625 1.957031 7.101562 C 1.957031 6.777344 1.953125 6.457031 1.953125 6.132812 C 1.949219 5.828125 1.949219 5.527344 1.949219 5.222656 C 1.949219 5.109375 1.949219 5 1.945312 4.886719 C 1.9375 4.046875 1.9375 4.046875 2.09375 3.78125 C 2.203125 3.671875 2.3125 3.585938 2.4375 3.5 C 2.503906 3.425781 2.574219 3.351562 2.636719 3.277344 C 2.671875 3.234375 2.707031 3.195312 2.746094 3.152344 C 2.84375 3.035156 2.945312 2.917969 3.042969 2.800781 C 3.390625 2.390625 3.746094 1.988281 4.113281 1.59375 C 4.316406 1.375 4.511719 1.160156 4.703125 0.9375 C 4.886719 0.730469 5.070312 0.527344 5.253906 0.324219 C 5.382812 0.183594 5.382812 0.183594 5.5 0 Z M 6 0.5 C 6 0.542969 6 0.582031 6 0.625 C 5.996094 1.058594 5.988281 1.488281 5.984375 1.921875 C 5.980469 2.082031 5.980469 2.242188 5.976562 2.40625 C 5.976562 2.636719 5.972656 2.867188 5.96875 3.101562 C 5.96875 3.207031 5.96875 3.207031 5.96875 3.316406 C 5.957031 3.980469 5.957031 3.980469 5.75 4.25 C 5.429688 4.484375 5.089844 4.46875 4.710938 4.46875 C 4.613281 4.472656 4.613281 4.472656 4.515625 4.472656 C 4.316406 4.476562 4.113281 4.476562 3.914062 4.480469 C 3.777344 4.484375 3.640625 4.484375 3.503906 4.488281 C 3.167969 4.492188 2.835938 4.496094 2.5 4.5 C 2.496094 5.914062 2.496094 7.332031 2.492188 8.746094 C 2.492188 9.40625 2.492188 10.0625 2.492188 10.71875 C 2.488281 11.292969 2.488281 11.863281 2.488281 12.4375 C 2.488281 12.742188 2.488281 13.042969 2.488281 13.347656 C 2.484375 13.632812 2.484375 13.917969 2.484375 14.203125 C 2.484375 14.308594 2.484375 14.414062 2.484375 14.519531 C 2.484375 14.660156 2.484375 14.804688 2.484375 14.945312 C 2.484375 15.027344 2.484375 15.109375 2.484375 15.191406 C 2.480469 15.382812 2.480469 15.382812 2.625 15.5 C 2.816406 15.519531 2.816406 15.519531 3.046875 15.515625 C 3.113281 15.515625 3.113281 15.515625 3.179688 15.515625 C 3.328125 15.515625 3.476562 15.515625 3.625 15.515625 C 3.730469 15.515625 3.835938 15.515625 3.941406 15.515625 C 4.230469 15.515625 4.515625 15.515625 4.804688 15.515625 C 5.105469 15.515625 5.40625 15.515625 5.707031 15.515625 C 6.210938 15.515625 6.714844 15.515625 7.21875 15.515625 C 7.804688 15.515625 8.390625 15.515625 8.972656 15.515625 C 9.472656 15.515625 9.976562 15.515625 10.476562 15.515625 C 10.777344 15.515625 11.074219 15.515625 11.375 15.515625 C 11.65625 15.515625 11.9375 15.515625 12.21875 15.515625 C 12.324219 15.515625 12.425781 15.515625 12.53125 15.515625 C 12.671875 15.515625 12.8125 15.515625 12.953125 15.515625 C 13.03125 15.515625 13.109375 15.515625 13.191406 15.515625 C 13.382812 15.519531 13.382812 15.519531 13.5 15.375 C 13.511719 15.183594 13.515625 14.996094 13.515625 14.800781 C 13.515625 14.742188 13.515625 14.679688 13.515625 14.617188 C 13.515625 14.414062 13.515625 14.210938 13.515625 14.007812 C 13.515625 13.863281 13.515625 13.71875 13.515625 13.574219 C 13.515625 13.179688 13.515625 12.78125 13.515625 12.386719 C 13.515625 12.015625 13.515625 11.644531 13.515625 11.273438 C 13.515625 10.496094 13.515625 9.71875 13.515625 8.9375 C 13.515625 8.269531 13.515625 7.597656 13.515625 6.929688 C 13.515625 6.152344 13.515625 5.375 13.515625 4.601562 C 13.515625 4.1875 13.515625 3.777344 13.515625 3.367188 C 13.515625 2.980469 13.515625 2.59375 13.515625 2.207031 C 13.515625 2.0625 13.515625 1.921875 13.515625 1.78125 C 13.515625 1.585938 13.515625 1.390625 13.515625 1.199219 C 13.515625 1.140625 13.515625 1.085938 13.515625 1.027344 C 13.53125 0.734375 13.53125 0.734375 13.375 0.5 C 13.238281 0.480469 13.238281 0.480469 13.078125 0.484375 C 12.988281 0.484375 12.988281 0.484375 12.890625 0.484375 C 12.789062 0.484375 12.789062 0.484375 12.683594 0.484375 C 12.574219 0.484375 12.574219 0.484375 12.464844 0.484375 C 12.226562 0.484375 11.988281 0.488281 11.75 0.488281 C 11.585938 0.488281 11.417969 0.488281 11.253906 0.488281 C 10.863281 0.488281 10.472656 0.488281 10.082031 0.492188 C 9.636719 0.492188 9.191406 0.492188 8.746094 0.492188 C 7.832031 0.496094 6.914062 0.496094 6 0.5 Z M 6 0.5 "/>
<path style=" stroke:none;fill-rule:nonzero;fill:rgb(17.647059%,26.274511%,33.725491%);fill-opacity:1;" d="M 4.808594 12.085938 C 4.886719 12.085938 4.960938 12.085938 5.039062 12.085938 C 5.246094 12.085938 5.453125 12.085938 5.660156 12.085938 C 5.878906 12.089844 6.097656 12.085938 6.3125 12.085938 C 6.675781 12.085938 7.042969 12.089844 7.40625 12.089844 C 7.828125 12.09375 8.25 12.09375 8.671875 12.09375 C 9.074219 12.09375 9.480469 12.09375 9.886719 12.09375 C 10.058594 12.09375 10.230469 12.097656 10.40625 12.097656 C 10.644531 12.09375 10.886719 12.097656 11.128906 12.097656 C 11.199219 12.097656 11.269531 12.097656 11.34375 12.097656 C 11.441406 12.097656 11.441406 12.097656 11.542969 12.101562 C 11.597656 12.101562 11.65625 12.101562 11.714844 12.101562 C 11.910156 12.128906 12.027344 12.199219 12.1875 12.3125 C 12.304688 12.546875 12.265625 12.824219 12.265625 13.082031 C 12.269531 13.171875 12.269531 13.171875 12.269531 13.261719 C 12.273438 13.824219 12.273438 13.824219 12.0625 14.0625 C 11.875 14.125 11.753906 14.132812 11.558594 14.132812 C 11.492188 14.132812 11.425781 14.132812 11.359375 14.132812 C 11.285156 14.132812 11.214844 14.136719 11.140625 14.136719 C 11.027344 14.136719 11.027344 14.136719 10.910156 14.136719 C 10.703125 14.136719 10.496094 14.136719 10.285156 14.136719 C 10.15625 14.136719 10.027344 14.136719 9.898438 14.136719 C 9.488281 14.140625 9.082031 14.140625 8.675781 14.140625 C 8.207031 14.140625 7.738281 14.140625 7.269531 14.144531 C 6.90625 14.144531 6.542969 14.144531 6.179688 14.144531 C 5.964844 14.144531 5.746094 14.144531 5.53125 14.148438 C 5.289062 14.148438 5.046875 14.148438 4.804688 14.148438 C 4.734375 14.148438 4.660156 14.148438 4.585938 14.148438 C 4.488281 14.148438 4.488281 14.148438 4.386719 14.148438 C 4.332031 14.148438 4.273438 14.148438 4.214844 14.148438 C 4.03125 14.121094 3.945312 14.066406 3.8125 13.9375 C 3.71875 13.660156 3.730469 13.390625 3.726562 13.101562 C 3.722656 13.042969 3.722656 12.984375 3.71875 12.921875 C 3.71875 12.867188 3.71875 12.808594 3.71875 12.75 C 3.714844 12.695312 3.714844 12.644531 3.714844 12.589844 C 3.753906 12.417969 3.820312 12.3125 3.949219 12.191406 C 4.203125 12.042969 4.523438 12.082031 4.808594 12.085938 Z M 4.808594 12.085938 "/>
<path style=" stroke:none;fill-rule:nonzero;fill:rgb(17.647059%,26.274511%,33.725491%);fill-opacity:1;" d="M 4.808594 6.085938 C 4.886719 6.085938 4.960938 6.085938 5.039062 6.085938 C 5.246094 6.085938 5.453125 6.085938 5.660156 6.085938 C 5.878906 6.089844 6.097656 6.085938 6.3125 6.085938 C 6.675781 6.085938 7.042969 6.089844 7.40625 6.089844 C 7.828125 6.09375 8.25 6.09375 8.671875 6.09375 C 9.074219 6.09375 9.480469 6.09375 9.886719 6.09375 C 10.058594 6.09375 10.230469 6.097656 10.40625 6.097656 C 10.644531 6.09375 10.886719 6.097656 11.128906 6.097656 C 11.199219 6.097656 11.269531 6.097656 11.34375 6.097656 C 11.441406 6.097656 11.441406 6.097656 11.542969 6.101562 C 11.597656 6.101562 11.65625 6.101562 11.714844 6.101562 C 11.910156 6.128906 12.027344 6.199219 12.1875 6.3125 C 12.304688 6.546875 12.265625 6.824219 12.265625 7.082031 C 12.269531 7.171875 12.269531 7.171875 12.269531 7.261719 C 12.273438 7.839844 12.273438 7.839844 12.0625 8.0625 C 11.960938 8.082031 11.855469 8.105469 11.75 8.125 C 11.75 7.628906 11.75 7.136719 11.75 6.625 C 11.367188 6.625 10.984375 6.628906 10.601562 6.632812 C 10.472656 6.636719 10.34375 6.636719 10.210938 6.636719 C 10.023438 6.636719 9.835938 6.640625 9.648438 6.644531 C 9.59375 6.644531 9.535156 6.644531 9.476562 6.644531 C 9.082031 6.652344 8.800781 6.738281 8.5 7 C 8.316406 7.277344 8.304688 7.476562 8.339844 7.796875 C 8.347656 7.890625 8.347656 7.890625 8.359375 7.984375 C 8.363281 8.03125 8.371094 8.078125 8.375 8.125 C 7.816406 8.128906 7.257812 8.132812 6.699219 8.132812 C 6.441406 8.136719 6.183594 8.136719 5.925781 8.140625 C 5.675781 8.140625 5.425781 8.140625 5.175781 8.144531 C 5.078125 8.144531 4.984375 8.144531 4.886719 8.144531 C 4.753906 8.144531 4.621094 8.148438 4.488281 8.148438 C 4.371094 8.148438 4.371094 8.148438 4.257812 8.148438 C 4.046875 8.121094 3.960938 8.085938 3.8125 7.9375 C 3.71875 7.660156 3.730469 7.390625 3.726562 7.101562 C 3.722656 7.042969 3.722656 6.984375 3.71875 6.921875 C 3.71875 6.867188 3.71875 6.808594 3.71875 6.75 C 3.714844 6.695312 3.714844 6.644531 3.714844 6.589844 C 3.753906 6.417969 3.820312 6.3125 3.949219 6.191406 C 4.203125 6.042969 4.523438 6.082031 4.808594 6.085938 Z M 4.808594 6.085938 "/>
<path style=" stroke:none;fill-rule:nonzero;fill:rgb(17.647059%,26.274511%,33.725491%);fill-opacity:1;" d="M 4.527344 9.089844 C 4.574219 9.089844 4.621094 9.089844 4.667969 9.089844 C 4.816406 9.089844 4.96875 9.09375 5.117188 9.09375 C 5.222656 9.09375 5.328125 9.097656 5.433594 9.097656 C 5.707031 9.097656 5.980469 9.101562 6.257812 9.101562 C 6.539062 9.105469 6.816406 9.109375 7.097656 9.109375 C 7.648438 9.113281 8.199219 9.117188 8.75 9.125 C 8.8125 9.289062 8.875 9.457031 8.9375 9.625 C 7.390625 9.625 5.84375 9.625 4.25 9.625 C 4.25 9.957031 4.25 10.285156 4.25 10.625 C 6.726562 10.625 9.199219 10.625 11.75 10.625 C 11.75 10.296875 11.75 9.964844 11.75 9.625 C 11.6875 9.59375 11.6875 9.59375 11.625 9.5625 C 11.707031 9.4375 11.789062 9.316406 11.875 9.1875 C 11.992188 9.207031 11.992188 9.207031 12.125 9.25 C 12.304688 9.523438 12.269531 9.765625 12.269531 10.085938 C 12.269531 10.144531 12.269531 10.203125 12.273438 10.265625 C 12.273438 10.824219 12.273438 10.824219 12.0625 11.0625 C 11.875 11.125 11.753906 11.132812 11.558594 11.132812 C 11.492188 11.132812 11.425781 11.132812 11.359375 11.136719 C 11.285156 11.136719 11.214844 11.136719 11.140625 11.136719 C 11.027344 11.136719 11.027344 11.136719 10.910156 11.136719 C 10.703125 11.136719 10.496094 11.136719 10.285156 11.136719 C 10.15625 11.136719 10.027344 11.136719 9.898438 11.136719 C 9.488281 11.140625 9.082031 11.140625 8.675781 11.140625 C 8.207031 11.140625 7.738281 11.140625 7.269531 11.144531 C 6.90625 11.144531 6.542969 11.144531 6.179688 11.144531 C 5.964844 11.144531 5.746094 11.144531 5.53125 11.148438 C 5.289062 11.148438 5.046875 11.148438 4.804688 11.148438 C 4.734375 11.148438 4.660156 11.148438 4.585938 11.148438 C 4.488281 11.148438 4.488281 11.148438 4.386719 11.148438 C 4.332031 11.148438 4.273438 11.148438 4.214844 11.148438 C 4.03125 11.121094 3.945312 11.066406 3.8125 10.9375 C 3.71875 10.660156 3.730469 10.390625 3.726562 10.101562 C 3.722656 10.042969 3.722656 9.984375 3.71875 9.921875 C 3.71875 9.863281 3.71875 9.808594 3.71875 9.75 C 3.714844 9.695312 3.714844 9.644531 3.714844 9.589844 C 3.816406 9.167969 4.140625 9.078125 4.527344 9.089844 Z M 4.527344 9.089844 "/>
<path style=" stroke:none;fill-rule:nonzero;fill:rgb(57.647061%,52.941179%,63.529414%);fill-opacity:1;" d="M 4.25 12.625 C 6.726562 12.625 9.199219 12.625 11.75 12.625 C 11.75 12.953125 11.75 13.285156 11.75 13.625 C 9.273438 13.625 6.800781 13.625 4.25 13.625 C 4.25 13.296875 4.25 12.964844 4.25 12.625 Z M 4.25 12.625 "/>
<path style=" stroke:none;fill-rule:nonzero;fill:rgb(99.607843%,85.882354%,50.196081%);fill-opacity:1;" d="M 4.25 9.625 C 4.863281 9.617188 5.472656 9.613281 6.085938 9.609375 C 6.371094 9.605469 6.652344 9.605469 6.9375 9.601562 C 7.210938 9.597656 7.484375 9.597656 7.761719 9.59375 C 7.863281 9.59375 7.96875 9.59375 8.074219 9.59375 C 8.21875 9.589844 8.367188 9.589844 8.515625 9.589844 C 8.558594 9.589844 8.601562 9.585938 8.644531 9.585938 C 8.949219 9.589844 9.113281 9.679688 9.339844 9.867188 C 9.488281 9.976562 9.613281 9.964844 9.792969 9.949219 C 10.039062 9.929688 10.160156 9.945312 10.375 10.0625 C 10.636719 10.113281 10.855469 10.105469 11.089844 9.980469 C 11.1875 9.914062 11.28125 9.847656 11.371094 9.777344 C 11.5 9.6875 11.5 9.6875 11.75 9.625 C 11.75 9.953125 11.75 10.285156 11.75 10.625 C 9.273438 10.625 6.800781 10.625 4.25 10.625 C 4.25 10.296875 4.25 9.964844 4.25 9.625 Z M 4.25 9.625 "/>
<path style=" stroke:none;fill-rule:nonzero;fill:rgb(19.215687%,27.843139%,35.294119%);fill-opacity:1;" d="M 9.664062 7.152344 C 9.851562 7.1875 10.039062 7.226562 10.226562 7.265625 C 10.289062 7.277344 10.355469 7.292969 10.421875 7.304688 C 11.039062 7.4375 11.039062 7.4375 11.25 7.6875 C 11.273438 7.839844 11.273438 7.839844 11.253906 8 C 11.230469 8.253906 11.230469 8.253906 11.375 8.453125 C 11.417969 8.488281 11.457031 8.523438 11.5 8.5625 C 11.542969 8.734375 11.542969 8.734375 11.5 8.9375 C 11.3125 9.207031 11.085938 9.441406 10.8125 9.625 C 10.554688 9.664062 10.453125 9.636719 10.226562 9.5 C 10.171875 9.457031 10.117188 9.417969 10.0625 9.375 C 10 9.417969 9.9375 9.457031 9.875 9.5 C 9.492188 9.480469 9.492188 9.480469 9.339844 9.359375 C 9.152344 9.128906 9.082031 8.820312 8.988281 8.542969 C 8.964844 8.476562 8.941406 8.414062 8.917969 8.347656 C 8.898438 8.285156 8.875 8.222656 8.851562 8.15625 C 8.832031 8.101562 8.8125 8.042969 8.792969 7.984375 C 8.746094 7.792969 8.734375 7.632812 8.75 7.4375 C 9.011719 7.074219 9.257812 7.085938 9.664062 7.152344 Z M 9.664062 7.152344 "/>
<path style=" stroke:none;fill-rule:nonzero;fill:rgb(98.431373%,47.058824%,36.862746%);fill-opacity:1;" d="M 4.25 6.625 C 5.816406 6.625 7.386719 6.625 9 6.625 C 8.867188 6.726562 8.730469 6.824219 8.589844 6.914062 C 8.378906 7.097656 8.378906 7.097656 8.25 7.625 C 6.929688 7.625 5.609375 7.625 4.25 7.625 C 4.25 7.296875 4.25 6.964844 4.25 6.625 Z M 4.25 6.625 "/>
<path style=" stroke:none;fill-rule:nonzero;fill:rgb(87.843138%,91.764706%,95.294118%);fill-opacity:1;" d="M 5.4375 0.9375 C 5.457031 0.9375 5.480469 0.9375 5.5 0.9375 C 5.503906 1.355469 5.503906 1.769531 5.507812 2.1875 C 5.507812 2.328125 5.507812 2.46875 5.507812 2.609375 C 5.511719 2.8125 5.511719 3.015625 5.511719 3.21875 C 5.511719 3.285156 5.515625 3.347656 5.515625 3.414062 C 5.515625 3.5 5.515625 3.5 5.515625 3.589844 C 5.515625 3.644531 5.515625 3.695312 5.515625 3.75 C 5.5 3.875 5.5 3.875 5.375 4 C 5.183594 4.011719 4.996094 4.015625 4.800781 4.011719 C 4.71875 4.011719 4.71875 4.011719 4.628906 4.011719 C 4.449219 4.011719 4.265625 4.007812 4.085938 4.007812 C 3.964844 4.007812 3.839844 4.007812 3.71875 4.007812 C 3.414062 4.003906 3.113281 4.003906 2.8125 4 C 2.871094 3.921875 2.929688 3.84375 2.988281 3.761719 C 3.019531 3.71875 3.054688 3.675781 3.085938 3.628906 C 3.230469 3.445312 3.390625 3.273438 3.550781 3.105469 C 3.78125 2.859375 4.007812 2.609375 4.21875 2.34375 C 4.464844 2.039062 4.726562 1.75 4.996094 1.464844 C 5.152344 1.292969 5.296875 1.125 5.4375 0.9375 Z M 5.4375 0.9375 "/>
<path style=" stroke:none;fill-rule:nonzero;fill:rgb(63.529414%,76.862746%,78.039217%);fill-opacity:1;" d="M 2.5 15.125 C 2.5625 15.15625 2.5625 15.15625 2.625 15.1875 C 2.765625 15.195312 2.90625 15.195312 3.046875 15.195312 C 3.113281 15.195312 3.113281 15.195312 3.179688 15.195312 C 3.328125 15.195312 3.476562 15.195312 3.625 15.195312 C 3.730469 15.195312 3.835938 15.195312 3.941406 15.195312 C 4.230469 15.195312 4.515625 15.195312 4.804688 15.195312 C 5.105469 15.195312 5.40625 15.195312 5.707031 15.195312 C 6.210938 15.195312 6.714844 15.195312 7.21875 15.195312 C 7.804688 15.195312 8.390625 15.195312 8.972656 15.195312 C 9.472656 15.195312 9.976562 15.195312 10.476562 15.195312 C 10.777344 15.195312 11.074219 15.195312 11.375 15.195312 C 11.65625 15.195312 11.9375 15.195312 12.21875 15.195312 C 12.324219 15.195312 12.425781 15.195312 12.53125 15.195312 C 12.671875 15.195312 12.8125 15.195312 12.953125 15.195312 C 13.03125 15.195312 13.109375 15.195312 13.191406 15.195312 C 13.371094 15.199219 13.371094 15.199219 13.5 15.125 C 13.445312 15.429688 13.445312 15.429688 13.375 15.5 C 13.238281 15.507812 13.097656 15.507812 12.960938 15.507812 C 12.894531 15.507812 12.894531 15.507812 12.828125 15.507812 C 12.679688 15.507812 12.53125 15.507812 12.382812 15.507812 C 12.277344 15.507812 12.171875 15.507812 12.066406 15.511719 C 11.777344 15.511719 11.488281 15.511719 11.203125 15.511719 C 10.960938 15.511719 10.722656 15.511719 10.480469 15.511719 C 9.917969 15.511719 9.351562 15.511719 8.785156 15.511719 C 8.199219 15.511719 7.613281 15.511719 7.03125 15.511719 C 6.527344 15.515625 6.027344 15.515625 5.527344 15.515625 C 5.226562 15.515625 4.925781 15.515625 4.625 15.515625 C 4.34375 15.515625 4.0625 15.515625 3.78125 15.515625 C 3.679688 15.515625 3.574219 15.515625 3.46875 15.515625 C 3.328125 15.515625 3.1875 15.515625 3.046875 15.515625 C 2.96875 15.515625 2.890625 15.515625 2.808594 15.515625 C 2.625 15.5 2.625 15.5 2.5 15.375 C 2.5 15.292969 2.5 15.210938 2.5 15.125 Z M 2.5 15.125 "/>
<path style=" stroke:none;fill-rule:nonzero;fill:rgb(47.450981%,43.921569%,52.156866%);fill-opacity:1;" d="M 4.25 13.375 C 6.726562 13.375 9.199219 13.375 11.75 13.375 C 11.75 13.457031 11.75 13.539062 11.75 13.625 C 9.273438 13.625 6.800781 13.625 4.25 13.625 C 4.25 13.542969 4.25 13.460938 4.25 13.375 Z M 4.25 13.375 "/>
<path style=" stroke:none;fill-rule:nonzero;fill:rgb(63.529414%,58.431375%,69.803923%);fill-opacity:1;" d="M 4.25 12.625 C 6.726562 12.625 9.199219 12.625 11.75 12.625 C 11.75 12.707031 11.75 12.789062 11.75 12.875 C 9.273438 12.875 6.800781 12.875 4.25 12.875 C 4.25 12.792969 4.25 12.710938 4.25 12.625 Z M 4.25 12.625 "/>
<path style=" stroke:none;fill-rule:nonzero;fill:rgb(85.490197%,72.941178%,43.137255%);fill-opacity:1;" d="M 4.25 10.375 C 6.726562 10.375 9.199219 10.375 11.75 10.375 C 11.75 10.457031 11.75 10.539062 11.75 10.625 C 9.273438 10.625 6.800781 10.625 4.25 10.625 C 4.25 10.542969 4.25 10.460938 4.25 10.375 Z M 4.25 10.375 "/>
<path style=" stroke:none;fill-rule:nonzero;fill:rgb(85.490197%,89.803922%,93.333334%);fill-opacity:1;" d="M 9.25 7.625 C 9.753906 7.691406 10.253906 7.765625 10.75 7.875 C 10.75 7.917969 10.75 7.957031 10.75 8 C 10.625 8.0625 10.503906 8.125 10.375 8.1875 C 10.582031 8.375 10.789062 8.558594 11 8.75 C 10.898438 8.875 10.792969 8.996094 10.6875 9.125 C 10.398438 8.960938 10.136719 8.765625 9.875 8.5625 C 9.867188 8.613281 9.859375 8.664062 9.851562 8.714844 C 9.839844 8.765625 9.824219 8.820312 9.8125 8.875 C 9.769531 8.894531 9.730469 8.917969 9.6875 8.9375 C 9.625 8.777344 9.566406 8.617188 9.503906 8.457031 C 9.484375 8.410156 9.46875 8.367188 9.453125 8.320312 C 9.363281 8.089844 9.289062 7.871094 9.25 7.625 Z M 9.25 7.625 "/>
<path style=" stroke:none;fill-rule:nonzero;fill:rgb(98.431373%,89.411765%,66.274512%);fill-opacity:1;" d="M 4.25 9.625 C 4.863281 9.621094 5.480469 9.613281 6.09375 9.613281 C 6.378906 9.609375 6.667969 9.609375 6.953125 9.605469 C 7.226562 9.601562 7.503906 9.601562 7.777344 9.601562 C 7.882812 9.601562 7.988281 9.601562 8.09375 9.597656 C 8.242188 9.597656 8.386719 9.597656 8.535156 9.597656 C 8.601562 9.59375 8.601562 9.59375 8.667969 9.59375 C 8.984375 9.597656 9.003906 9.628906 9.25 9.875 C 7.601562 9.875 5.949219 9.875 4.25 9.875 C 4.25 9.792969 4.25 9.710938 4.25 9.625 Z M 4.25 9.625 "/>
<path style=" stroke:none;fill-rule:nonzero;fill:rgb(98.039216%,58.431375%,50.980395%);fill-opacity:1;" d="M 4.25 6.625 C 5.816406 6.625 7.386719 6.625 9 6.625 C 8.660156 6.878906 8.507812 6.953125 8.082031 6.945312 C 8.019531 6.945312 8.019531 6.945312 7.957031 6.945312 C 7.820312 6.941406 7.683594 6.9375 7.546875 6.9375 C 7.453125 6.933594 7.355469 6.933594 7.261719 6.929688 C 7.011719 6.925781 6.761719 6.921875 6.511719 6.917969 C 6.257812 6.910156 6.003906 6.90625 5.75 6.902344 C 5.25 6.894531 4.75 6.886719 4.25 6.875 C 4.25 6.792969 4.25 6.710938 4.25 6.625 Z M 4.25 6.625 "/>
<path style=" stroke:none;fill-rule:nonzero;fill:rgb(81.960785%,38.431373%,30.980393%);fill-opacity:1;" d="M 4.25 7.375 C 5.570312 7.375 6.890625 7.375 8.25 7.375 C 8.25 7.457031 8.25 7.539062 8.25 7.625 C 6.929688 7.625 5.609375 7.625 4.25 7.625 C 4.25 7.542969 4.25 7.460938 4.25 7.375 Z M 4.25 7.375 "/>
<path style=" stroke:none;fill-rule:nonzero;fill:rgb(97.254902%,59.607846%,52.156866%);fill-opacity:1;" d="M 9.5 6.625 C 10.242188 6.625 10.984375 6.625 11.75 6.625 C 11.75 6.953125 11.75 7.285156 11.75 7.625 C 11.667969 7.523438 11.585938 7.417969 11.5 7.3125 C 11.113281 6.949219 10.601562 6.902344 10.097656 6.804688 C 10.039062 6.792969 9.984375 6.78125 9.921875 6.769531 C 9.78125 6.742188 9.640625 6.714844 9.5 6.6875 C 9.5 6.667969 9.5 6.644531 9.5 6.625 Z M 9.5 6.625 "/>
<path style=" stroke:none;fill-rule:nonzero;fill:rgb(74.901962%,78.039217%,80.784315%);fill-opacity:1;" d="M 5.4375 3.625 C 5.476562 3.742188 5.476562 3.742188 5.5 3.875 C 5.375 4 5.375 4 5.125 4.015625 C 5.015625 4.015625 4.910156 4.015625 4.800781 4.011719 C 4.71875 4.011719 4.71875 4.011719 4.628906 4.011719 C 4.449219 4.011719 4.265625 4.007812 4.085938 4.007812 C 3.964844 4.007812 3.839844 4.007812 3.71875 4.007812 C 3.414062 4.003906 3.113281 4.003906 2.8125 4 C 2.871094 3.878906 2.871094 3.878906 3 3.75 C 3.1875 3.722656 3.347656 3.714844 3.535156 3.714844 C 3.589844 3.714844 3.640625 3.710938 3.695312 3.710938 C 3.859375 3.707031 4.027344 3.707031 4.195312 3.707031 C 4.363281 3.703125 4.53125 3.703125 4.699219 3.699219 C 4.800781 3.699219 4.90625 3.699219 5.011719 3.699219 C 5.242188 3.71875 5.242188 3.71875 5.4375 3.625 Z M 5.4375 3.625 "/>
<path style=" stroke:none;fill-rule:nonzero;fill:rgb(97.647059%,49.019608%,39.215687%);fill-opacity:1;" d="M 10.875 6.875 C 11.164062 6.875 11.453125 6.875 11.75 6.875 C 11.75 7.121094 11.75 7.371094 11.75 7.625 C 11.714844 7.578125 11.679688 7.53125 11.644531 7.484375 C 11.421875 7.21875 11.203125 7.050781 10.875 6.9375 C 10.875 6.917969 10.875 6.894531 10.875 6.875 Z M 10.875 6.875 "/>
</g>
</svg>
