<?xml version="1.0" encoding="UTF-8"?>
<svg xmlns="http://www.w3.org/2000/svg" xmlns:xlink="http://www.w3.org/1999/xlink" width="16" height="16" viewBox="0 0 16 16" version="1.1">
<g id="surface1">
<path style=" stroke:none;fill-rule:nonzero;fill:rgb(1.568628%,1.568628%,1.568628%);fill-opacity:1;" d="M 11.3125 0 C 11.847656 0 12.386719 0 12.9375 0 C 12.957031 0.226562 12.980469 0.453125 13 0.6875 C 13.261719 0.605469 13.261719 0.605469 13.507812 0.488281 C 13.625 0.4375 13.625 0.4375 13.734375 0.445312 C 13.945312 0.527344 14.082031 0.6875 14.234375 0.847656 C 14.265625 0.878906 14.296875 0.914062 14.332031 0.945312 C 14.40625 1.027344 14.484375 1.105469 14.5625 1.1875 C 14.40625 1.589844 14.40625 1.589844 14.25 2 C 14.496094 2.019531 14.746094 2.042969 15 2.0625 C 15 2.578125 15 3.09375 15 3.625 C 14.773438 3.644531 14.546875 3.667969 14.3125 3.6875 C 14.355469 3.988281 14.355469 3.988281 14.480469 4.191406 C 14.5625 4.375 14.5625 4.375 14.519531 4.5 C 14.429688 4.636719 14.339844 4.71875 14.214844 4.820312 C 13.992188 5.039062 13.949219 5.195312 13.941406 5.5 C 13.941406 5.558594 13.941406 5.613281 13.941406 5.667969 C 13.941406 5.726562 13.941406 5.785156 13.941406 5.847656 C 13.9375 6.042969 13.941406 6.238281 13.941406 6.433594 C 13.941406 6.566406 13.941406 6.703125 13.941406 6.839844 C 13.941406 7.125 13.941406 7.40625 13.941406 7.691406 C 13.945312 8.054688 13.945312 8.417969 13.941406 8.785156 C 13.941406 9.0625 13.941406 9.34375 13.941406 9.625 C 13.941406 9.757812 13.941406 9.890625 13.941406 10.027344 C 13.9375 10.214844 13.941406 10.402344 13.941406 10.589844 C 13.941406 10.644531 13.941406 10.699219 13.941406 10.757812 C 13.945312 10.980469 13.949219 11.128906 14.097656 11.300781 C 14.210938 11.402344 14.210938 11.402344 14.332031 11.488281 C 14.472656 11.585938 14.554688 11.703125 14.644531 11.847656 C 14.671875 11.894531 14.703125 11.9375 14.734375 11.984375 C 14.875 12.234375 14.9375 12.398438 14.9375 12.6875 C 14.980469 12.691406 15.019531 12.691406 15.0625 12.695312 C 15.417969 12.796875 15.714844 13.027344 15.90625 13.34375 C 16.078125 13.746094 16.070312 14.238281 15.957031 14.65625 C 15.773438 15.058594 15.460938 15.292969 15.058594 15.460938 C 14.859375 15.523438 14.667969 15.519531 14.460938 15.519531 C 14.371094 15.519531 14.28125 15.519531 14.191406 15.519531 C 14.050781 15.519531 13.910156 15.519531 13.769531 15.515625 C 13.0625 15.5 13.0625 15.5 12.464844 15.851562 C 12.28125 16.027344 12.074219 16.007812 11.832031 16.007812 C 11.757812 16.007812 11.683594 16.011719 11.605469 16.011719 C 11.523438 16.011719 11.445312 16.011719 11.359375 16.011719 C 11.273438 16.011719 11.1875 16.011719 11.097656 16.011719 C 10.816406 16.015625 10.53125 16.015625 10.246094 16.015625 C 10.148438 16.015625 10.050781 16.015625 9.953125 16.015625 C 9.488281 16.015625 9.03125 16.015625 8.566406 16.019531 C 8.035156 16.019531 7.503906 16.019531 6.972656 16.023438 C 6.5625 16.023438 6.152344 16.027344 5.738281 16.027344 C 5.496094 16.027344 5.25 16.027344 5.003906 16.027344 C 4.773438 16.03125 4.542969 16.03125 4.308594 16.03125 C 4.183594 16.03125 4.0625 16.03125 3.9375 16.03125 C 3.488281 16.03125 3.191406 15.996094 2.8125 15.75 C 2.78125 15.71875 2.75 15.683594 2.714844 15.648438 C 2.578125 15.519531 2.46875 15.539062 2.285156 15.539062 C 2.183594 15.539062 2.183594 15.539062 2.082031 15.535156 C 1.941406 15.535156 1.796875 15.535156 1.65625 15.535156 C 1.175781 15.527344 0.746094 15.480469 0.382812 15.140625 C 0.015625 14.742188 -0.0273438 14.375 -0.0195312 13.839844 C 0.0117188 13.484375 0.109375 13.261719 0.367188 13.015625 C 0.585938 12.839844 0.773438 12.707031 1.0625 12.6875 C 1.066406 12.636719 1.074219 12.585938 1.078125 12.53125 C 1.175781 12.070312 1.417969 11.703125 1.75 11.375 C 1.792969 11.351562 1.835938 11.324219 1.878906 11.300781 C 2.015625 11.195312 2.015625 11.195312 2.03125 11.011719 C 2.03125 10.9375 2.03125 10.867188 2.03125 10.792969 C 2.03125 10.730469 2.03125 10.730469 2.03125 10.671875 C 2.03125 10.535156 2.03125 10.398438 2.03125 10.265625 C 2.03125 10.167969 2.03125 10.070312 2.03125 9.972656 C 2.03125 9.765625 2.03125 9.558594 2.027344 9.347656 C 2.027344 9.019531 2.027344 8.6875 2.027344 8.359375 C 2.03125 7.539062 2.027344 6.71875 2.027344 5.902344 C 2.027344 5.265625 2.023438 4.628906 2.027344 3.992188 C 2.027344 3.664062 2.027344 3.335938 2.023438 3.007812 C 2.023438 2.804688 2.023438 2.597656 2.023438 2.394531 C 2.023438 2.300781 2.023438 2.207031 2.023438 2.109375 C 2.023438 1.980469 2.023438 1.851562 2.023438 1.722656 C 2.023438 1.652344 2.023438 1.578125 2.023438 1.503906 C 2.074219 1.25 2.171875 1.15625 2.375 1 C 2.53125 0.960938 2.53125 0.960938 2.695312 0.964844 C 2.757812 0.964844 2.824219 0.964844 2.886719 0.960938 C 2.957031 0.964844 3.027344 0.964844 3.097656 0.96875 C 3.207031 0.96875 3.207031 0.96875 3.316406 0.96875 C 3.476562 0.96875 3.636719 0.96875 3.792969 0.96875 C 4.042969 0.972656 4.296875 0.972656 4.546875 0.972656 C 5.214844 0.972656 5.882812 0.976562 6.550781 0.984375 C 6.988281 0.988281 7.429688 0.988281 7.867188 0.988281 C 8.078125 0.988281 8.285156 0.988281 8.492188 0.992188 C 8.726562 0.996094 8.957031 0.996094 9.191406 0.996094 C 9.261719 0.996094 9.328125 1 9.398438 1 C 9.769531 0.996094 9.769531 0.996094 10.082031 0.820312 C 10.214844 0.683594 10.214844 0.683594 10.324219 0.539062 C 10.359375 0.503906 10.398438 0.472656 10.4375 0.4375 C 10.699219 0.453125 10.894531 0.570312 11.125 0.6875 C 11.167969 0.6875 11.207031 0.6875 11.25 0.6875 C 11.269531 0.460938 11.292969 0.234375 11.3125 0 Z M 11.5625 2.3125 C 11.417969 2.523438 11.375 2.648438 11.375 2.90625 C 11.453125 3.179688 11.550781 3.296875 11.75 3.5 C 11.949219 3.601562 12.15625 3.585938 12.375 3.5625 C 12.59375 3.476562 12.671875 3.398438 12.804688 3.207031 C 12.890625 2.949219 12.902344 2.757812 12.8125 2.5 C 12.664062 2.316406 12.664062 2.316406 12.5 2.1875 C 12.480469 2.167969 12.457031 2.144531 12.4375 2.125 C 12.109375 2.089844 11.820312 2.082031 11.5625 2.3125 Z M 11.5625 2.3125 "/>
<path style=" stroke:none;fill-rule:nonzero;fill:rgb(87.843138%,89.019608%,90.588236%);fill-opacity:1;" d="M 8.40625 11.378906 C 8.53125 11.480469 8.628906 11.566406 8.726562 11.695312 C 8.957031 11.875 9.1875 11.839844 9.46875 11.839844 C 10.101562 11.855469 10.632812 11.949219 11.121094 12.386719 C 11.398438 12.695312 11.609375 13.058594 11.644531 13.476562 C 11.636719 13.527344 11.632812 13.574219 11.625 13.625 C 11.667969 13.632812 11.710938 13.636719 11.757812 13.644531 C 12.152344 13.738281 12.40625 13.902344 12.625 14.25 C 12.691406 14.597656 12.636719 14.890625 12.4375 15.1875 C 12.164062 15.441406 11.964844 15.507812 11.597656 15.507812 C 11.527344 15.507812 11.457031 15.511719 11.382812 15.511719 C 11.304688 15.511719 11.226562 15.511719 11.148438 15.511719 C 11.066406 15.511719 10.984375 15.511719 10.898438 15.511719 C 10.628906 15.515625 10.359375 15.515625 10.085938 15.515625 C 9.992188 15.515625 9.898438 15.515625 9.804688 15.515625 C 9.367188 15.515625 8.929688 15.519531 8.492188 15.519531 C 7.984375 15.519531 7.476562 15.519531 6.972656 15.523438 C 6.582031 15.523438 6.1875 15.527344 5.796875 15.527344 C 5.5625 15.527344 5.328125 15.527344 5.097656 15.527344 C 4.835938 15.53125 4.574219 15.53125 4.3125 15.53125 C 4.238281 15.53125 4.160156 15.53125 4.078125 15.53125 C 3.679688 15.53125 3.425781 15.523438 3.125 15.25 C 3.078125 15.207031 3.027344 15.164062 2.976562 15.121094 C 2.820312 14.835938 2.828125 14.566406 2.875 14.25 C 3.011719 13.96875 3.152344 13.816406 3.4375 13.6875 C 3.5625 13.664062 3.6875 13.644531 3.8125 13.625 C 3.824219 13.5625 3.839844 13.5 3.851562 13.433594 C 4.035156 12.585938 4.355469 11.851562 5.082031 11.335938 C 6.117188 10.671875 7.398438 10.652344 8.40625 11.378906 Z M 8.40625 11.378906 "/>
<path style=" stroke:none;fill-rule:nonzero;fill:rgb(90.980393%,78.823531%,68.235296%);fill-opacity:1;" d="M 2.5625 3.0625 C 4.789062 3.0625 7.015625 3.0625 9.3125 3.0625 C 9.3125 3.25 9.3125 3.433594 9.3125 3.625 C 9.539062 3.625 9.765625 3.625 10 3.625 C 10.0625 3.875 10.0625 3.875 10.003906 4.015625 C 9.980469 4.050781 9.960938 4.089844 9.9375 4.125 C 9.859375 4.125 9.78125 4.125 9.699219 4.128906 C 9.597656 4.128906 9.492188 4.132812 9.390625 4.136719 C 9.3125 4.136719 9.3125 4.136719 9.234375 4.136719 C 9.183594 4.140625 9.132812 4.140625 9.082031 4.144531 C 9.035156 4.144531 8.992188 4.144531 8.945312 4.144531 C 8.738281 4.210938 8.671875 4.320312 8.5625 4.5 C 8.523438 4.691406 8.523438 4.691406 8.523438 4.898438 C 8.523438 4.976562 8.519531 5.050781 8.519531 5.128906 C 8.515625 5.203125 8.515625 5.28125 8.515625 5.363281 C 8.511719 5.480469 8.511719 5.480469 8.511719 5.601562 C 8.503906 5.796875 8.503906 5.992188 8.5 6.1875 C 8.394531 6.191406 8.394531 6.191406 8.285156 6.191406 C 6.988281 6.234375 5.847656 6.621094 4.929688 7.578125 C 4.292969 8.320312 4.003906 9.15625 3.929688 10.121094 C 3.925781 10.1875 3.917969 10.253906 3.914062 10.324219 C 3.898438 10.484375 3.886719 10.648438 3.875 10.8125 C 3.714844 10.832031 3.554688 10.855469 3.394531 10.875 C 3.347656 10.882812 3.304688 10.886719 3.257812 10.894531 C 3.214844 10.898438 3.171875 10.90625 3.125 10.910156 C 3.082031 10.914062 3.042969 10.921875 3.003906 10.925781 C 2.855469 10.9375 2.710938 10.9375 2.5625 10.9375 C 2.5625 8.339844 2.5625 5.738281 2.5625 3.0625 Z M 2.5625 3.0625 "/>
<path style=" stroke:none;fill-rule:nonzero;fill:rgb(95.686275%,81.960785%,42.352942%);fill-opacity:1;" d="M 11.875 0.5 C 12.039062 0.5 12.203125 0.5 12.375 0.5 C 12.386719 0.542969 12.398438 0.589844 12.410156 0.632812 C 12.425781 0.691406 12.441406 0.75 12.457031 0.808594 C 12.472656 0.867188 12.488281 0.921875 12.503906 0.980469 C 12.523438 1.03125 12.542969 1.078125 12.5625 1.125 C 12.878906 1.230469 13.234375 1.21875 13.558594 1.144531 C 13.601562 1.136719 13.644531 1.132812 13.6875 1.125 C 13.800781 1.214844 13.800781 1.214844 13.875 1.3125 C 13.855469 1.367188 13.832031 1.417969 13.8125 1.472656 C 13.726562 1.761719 13.730469 2.003906 13.777344 2.300781 C 13.898438 2.46875 13.964844 2.472656 14.164062 2.519531 C 14.300781 2.539062 14.300781 2.539062 14.4375 2.5625 C 14.4375 2.75 14.4375 2.933594 14.4375 3.125 C 14.371094 3.140625 14.304688 3.15625 14.234375 3.171875 C 13.992188 3.253906 13.890625 3.289062 13.75 3.5 C 13.71875 3.828125 13.75 4.066406 13.875 4.375 C 13.800781 4.472656 13.800781 4.472656 13.6875 4.5625 C 13.519531 4.546875 13.398438 4.511719 13.25 4.4375 C 13.046875 4.417969 12.898438 4.429688 12.707031 4.496094 C 12.492188 4.6875 12.445312 4.914062 12.375 5.1875 C 12.210938 5.1875 12.046875 5.1875 11.875 5.1875 C 11.863281 5.148438 11.855469 5.109375 11.84375 5.070312 C 11.753906 4.75 11.753906 4.75 11.542969 4.496094 C 11.347656 4.425781 11.207031 4.414062 11 4.4375 C 10.933594 4.46875 10.933594 4.46875 10.867188 4.503906 C 10.75 4.5625 10.75 4.5625 10.617188 4.554688 C 10.5 4.5 10.5 4.5 10.414062 4.386719 C 10.363281 4.207031 10.417969 4.164062 10.5 4 C 10.542969 3.628906 10.542969 3.628906 10.367188 3.316406 C 10.171875 3.175781 10.046875 3.140625 9.8125 3.125 C 9.8125 2.9375 9.8125 2.753906 9.8125 2.5625 C 9.851562 2.550781 9.890625 2.542969 9.929688 2.53125 C 9.984375 2.515625 10.03125 2.5 10.085938 2.484375 C 10.136719 2.46875 10.1875 2.457031 10.238281 2.441406 C 10.382812 2.386719 10.382812 2.386719 10.453125 2.257812 C 10.550781 1.980469 10.527344 1.710938 10.4375 1.4375 C 10.417969 1.394531 10.394531 1.355469 10.375 1.3125 C 10.449219 1.214844 10.449219 1.214844 10.5625 1.125 C 10.691406 1.144531 10.691406 1.144531 10.875 1.1875 C 11.285156 1.230469 11.285156 1.230469 11.65625 1.089844 C 11.773438 0.898438 11.824219 0.714844 11.875 0.5 Z M 11.5625 2.3125 C 11.417969 2.523438 11.375 2.648438 11.375 2.90625 C 11.453125 3.179688 11.550781 3.296875 11.75 3.5 C 11.949219 3.601562 12.15625 3.585938 12.375 3.5625 C 12.59375 3.476562 12.671875 3.398438 12.804688 3.207031 C 12.890625 2.949219 12.902344 2.757812 12.8125 2.5 C 12.664062 2.316406 12.664062 2.316406 12.5 2.1875 C 12.480469 2.167969 12.457031 2.144531 12.4375 2.125 C 12.109375 2.089844 11.820312 2.082031 11.5625 2.3125 Z M 11.5625 2.3125 "/>
<path style=" stroke:none;fill-rule:nonzero;fill:rgb(78.823531%,80.784315%,83.92157%);fill-opacity:1;" d="M 12 11.375 C 12.726562 11.34375 13.296875 11.351562 13.894531 11.820312 C 14.179688 12.089844 14.402344 12.429688 14.457031 12.824219 C 14.457031 12.945312 14.457031 12.945312 14.4375 13.125 C 14.472656 13.128906 14.511719 13.136719 14.546875 13.140625 C 14.910156 13.207031 15.117188 13.292969 15.375 13.5625 C 15.527344 13.800781 15.515625 14.027344 15.476562 14.296875 C 15.402344 14.5625 15.246094 14.734375 15.015625 14.882812 C 14.828125 14.957031 14.667969 14.953125 14.46875 14.949219 C 14.351562 14.949219 14.351562 14.949219 14.230469 14.949219 C 14.109375 14.945312 14.109375 14.945312 13.984375 14.945312 C 13.902344 14.945312 13.820312 14.945312 13.734375 14.945312 C 13.53125 14.941406 13.328125 14.941406 13.125 14.9375 C 13.121094 14.882812 13.121094 14.828125 13.117188 14.769531 C 13.109375 14.660156 13.109375 14.660156 13.101562 14.550781 C 13.097656 14.476562 13.09375 14.40625 13.089844 14.332031 C 13.039062 13.960938 12.863281 13.730469 12.597656 13.480469 C 12.4375 13.367188 12.4375 13.367188 12.246094 13.304688 C 12 13.148438 11.957031 12.980469 11.867188 12.710938 C 11.8125 12.550781 11.8125 12.550781 11.6875 12.375 C 11.703125 12.003906 11.839844 11.703125 12 11.375 Z M 12 11.375 "/>
<path style=" stroke:none;fill-rule:nonzero;fill:rgb(97.647059%,49.803922%,41.960785%);fill-opacity:1;" d="M 9 4.625 C 9.902344 4.566406 9.902344 4.566406 10.175781 4.734375 C 10.296875 4.859375 10.402344 4.980469 10.5 5.125 C 10.554688 5.105469 10.605469 5.085938 10.660156 5.066406 C 10.878906 5 11.085938 4.960938 11.3125 4.9375 C 11.375 5 11.375 5 11.382812 5.15625 C 11.378906 5.332031 11.375 5.511719 11.375 5.6875 C 11.703125 5.6875 12.035156 5.6875 12.375 5.6875 C 12.375 6.882812 12.375 8.078125 12.375 9.3125 C 12.25 9.3125 12.128906 9.3125 12 9.3125 C 11.980469 9.257812 11.980469 9.257812 11.957031 9.199219 C 11.527344 8.070312 10.890625 7.152344 9.761719 6.632812 C 9.652344 6.585938 9.546875 6.542969 9.4375 6.5 C 9.292969 6.4375 9.148438 6.375 9 6.3125 C 9 5.753906 9 5.199219 9 4.625 Z M 9 4.625 "/>
<path style=" stroke:none;fill-rule:nonzero;fill:rgb(3.529412%,2.352941%,1.960784%);fill-opacity:1;" d="M 3.792969 3.589844 C 3.835938 3.589844 3.878906 3.589844 3.921875 3.589844 C 4.058594 3.589844 4.195312 3.589844 4.332031 3.589844 C 4.425781 3.589844 4.523438 3.589844 4.617188 3.589844 C 4.820312 3.589844 5.019531 3.589844 5.21875 3.589844 C 5.476562 3.589844 5.730469 3.589844 5.988281 3.585938 C 6.183594 3.585938 6.382812 3.585938 6.578125 3.585938 C 6.675781 3.585938 6.769531 3.585938 6.863281 3.585938 C 6.996094 3.582031 7.128906 3.585938 7.261719 3.585938 C 7.371094 3.585938 7.371094 3.585938 7.488281 3.585938 C 7.746094 3.636719 7.839844 3.734375 8 3.9375 C 8.039062 4.136719 8.039062 4.136719 8.03125 4.34375 C 8.03125 4.414062 8.03125 4.480469 8.027344 4.554688 C 7.996094 4.769531 7.941406 4.886719 7.8125 5.0625 C 7.589844 5.210938 7.492188 5.203125 7.230469 5.203125 C 7.105469 5.207031 7.105469 5.207031 6.984375 5.207031 C 6.894531 5.207031 6.804688 5.207031 6.714844 5.207031 C 6.625 5.207031 6.53125 5.207031 6.441406 5.207031 C 6.25 5.207031 6.058594 5.207031 5.867188 5.207031 C 5.621094 5.207031 5.375 5.207031 5.128906 5.210938 C 4.941406 5.210938 4.75 5.210938 4.5625 5.210938 C 4.472656 5.210938 4.382812 5.210938 4.292969 5.210938 C 4.164062 5.210938 4.039062 5.210938 3.910156 5.210938 C 3.839844 5.210938 3.765625 5.210938 3.691406 5.210938 C 3.476562 5.183594 3.359375 5.128906 3.1875 5 C 3.089844 4.804688 3.109375 4.597656 3.105469 4.382812 C 3.105469 4.339844 3.101562 4.292969 3.101562 4.246094 C 3.097656 4.039062 3.101562 3.90625 3.226562 3.738281 C 3.421875 3.589844 3.546875 3.59375 3.792969 3.589844 Z M 3.792969 3.589844 "/>
<path style=" stroke:none;fill-rule:nonzero;fill:rgb(78.823531%,80.784315%,83.92157%);fill-opacity:1;" d="M 3.464844 11.363281 C 3.542969 11.363281 3.542969 11.363281 3.621094 11.367188 C 3.746094 11.367188 3.875 11.371094 4 11.375 C 4.058594 11.527344 4.078125 11.640625 4.023438 11.800781 C 3.960938 11.925781 3.894531 12.050781 3.824219 12.175781 C 3.683594 12.433594 3.558594 12.667969 3.5 12.960938 C 3.4375 13.1875 3.4375 13.1875 3.316406 13.289062 C 3.269531 13.308594 3.21875 13.328125 3.171875 13.347656 C 2.824219 13.515625 2.597656 13.734375 2.429688 14.085938 C 2.371094 14.265625 2.351562 14.425781 2.335938 14.613281 C 2.332031 14.675781 2.328125 14.734375 2.320312 14.796875 C 2.320312 14.84375 2.316406 14.890625 2.3125 14.9375 C 2.113281 14.949219 1.914062 14.957031 1.714844 14.960938 C 1.660156 14.964844 1.601562 14.96875 1.546875 14.96875 C 1.238281 14.976562 1.046875 14.960938 0.808594 14.757812 C 0.578125 14.535156 0.511719 14.355469 0.476562 14.035156 C 0.511719 13.703125 0.660156 13.527344 0.890625 13.292969 C 1.121094 13.152344 1.292969 13.144531 1.5625 13.125 C 1.554688 13.066406 1.550781 13.007812 1.542969 12.945312 C 1.546875 12.546875 1.742188 12.207031 2.003906 11.917969 C 2.46875 11.488281 2.839844 11.34375 3.464844 11.363281 Z M 3.464844 11.363281 "/>
<path style=" stroke:none;fill-rule:nonzero;fill:rgb(69.803923%,85.882354%,49.411765%);fill-opacity:1;" d="M 2.5625 1.5625 C 4.996094 1.5625 7.429688 1.5625 9.9375 1.5625 C 10.0625 1.8125 10.0625 1.8125 10 2.0625 C 9.773438 2.0625 9.546875 2.0625 9.3125 2.0625 C 9.3125 2.226562 9.3125 2.390625 9.3125 2.5625 C 8.117188 2.5625 6.921875 2.5625 5.6875 2.5625 C 5.6875 2.398438 5.6875 2.234375 5.6875 2.0625 C 5.5 2.0625 5.316406 2.0625 5.125 2.0625 C 5.125 2.226562 5.125 2.390625 5.125 2.5625 C 4.960938 2.5625 4.796875 2.5625 4.625 2.5625 C 4.625 2.398438 4.625 2.234375 4.625 2.0625 C 4.460938 2.0625 4.296875 2.0625 4.125 2.0625 C 4.125 2.226562 4.125 2.390625 4.125 2.5625 C 3.960938 2.5625 3.796875 2.5625 3.625 2.5625 C 3.625 2.398438 3.625 2.234375 3.625 2.0625 C 3.4375 2.0625 3.253906 2.0625 3.0625 2.0625 C 3.0625 2.226562 3.0625 2.390625 3.0625 2.5625 C 2.898438 2.5625 2.734375 2.5625 2.5625 2.5625 C 2.5625 2.234375 2.5625 1.902344 2.5625 1.5625 Z M 2.5625 1.5625 "/>
<path style=" stroke:none;fill-rule:nonzero;fill:rgb(40.392157%,82.352942%,94.117647%);fill-opacity:1;" d="M 6.5625 9.3125 C 7.511719 9.3125 8.460938 9.3125 9.4375 9.3125 C 9.578125 9.804688 9.578125 9.804688 9.578125 10.019531 C 9.578125 10.09375 9.578125 10.09375 9.578125 10.164062 C 9.578125 10.210938 9.578125 10.257812 9.578125 10.308594 C 9.578125 10.378906 9.578125 10.378906 9.578125 10.453125 C 9.578125 10.78125 9.527344 11.0625 9.4375 11.375 C 9.15625 11.398438 9.15625 11.398438 9.011719 11.292969 C 8.976562 11.253906 8.9375 11.21875 8.902344 11.179688 C 8.242188 10.570312 7.375 10.367188 6.5 10.3125 C 6.5 10.179688 6.496094 10.050781 6.496094 9.917969 C 6.496094 9.84375 6.496094 9.769531 6.492188 9.695312 C 6.5 9.5 6.5 9.5 6.5625 9.3125 Z M 6.5625 9.3125 "/>
<path style=" stroke:none;fill-rule:nonzero;fill:rgb(88.235295%,76.47059%,66.274512%);fill-opacity:1;" d="M 12.9375 4.9375 C 13.359375 4.984375 13.359375 4.984375 13.4375 5.0625 C 13.445312 5.246094 13.445312 5.425781 13.445312 5.609375 C 13.445312 5.667969 13.445312 5.722656 13.445312 5.78125 C 13.445312 5.972656 13.445312 6.164062 13.445312 6.355469 C 13.445312 6.484375 13.441406 6.617188 13.441406 6.75 C 13.441406 7.09375 13.441406 7.441406 13.441406 7.789062 C 13.441406 8.144531 13.441406 8.5 13.441406 8.851562 C 13.441406 9.546875 13.4375 10.242188 13.4375 10.9375 C 13.398438 10.933594 13.359375 10.929688 13.320312 10.925781 C 13.246094 10.917969 13.246094 10.917969 13.171875 10.90625 C 13.09375 10.898438 13.09375 10.898438 13.019531 10.890625 C 12.835938 10.871094 12.648438 10.855469 12.464844 10.839844 C 12.351562 10.832031 12.242188 10.820312 12.125 10.8125 C 12.125 10.484375 12.125 10.152344 12.125 9.8125 C 12.261719 9.789062 12.261719 9.789062 12.398438 9.761719 C 12.550781 9.738281 12.550781 9.738281 12.6875 9.6875 C 12.839844 9.457031 12.828125 9.339844 12.832031 9.066406 C 12.832031 9.023438 12.832031 8.980469 12.832031 8.933594 C 12.835938 8.789062 12.835938 8.644531 12.835938 8.5 C 12.835938 8.398438 12.839844 8.296875 12.839844 8.199219 C 12.84375 7.933594 12.84375 7.667969 12.847656 7.40625 C 12.847656 6.980469 12.855469 6.558594 12.859375 6.132812 C 12.859375 5.984375 12.859375 5.835938 12.863281 5.6875 C 12.863281 5.597656 12.863281 5.507812 12.863281 5.417969 C 12.863281 5.296875 12.863281 5.296875 12.867188 5.175781 C 12.875 5 12.875 5 12.9375 4.9375 Z M 12.9375 4.9375 "/>
<path style=" stroke:none;fill-rule:nonzero;fill:rgb(1.960784%,1.960784%,1.960784%);fill-opacity:1;" d="M 5.175781 12.902344 C 5.222656 12.902344 5.273438 12.902344 5.324219 12.902344 C 5.679688 12.90625 5.894531 12.980469 6.1875 13.1875 C 6.414062 13.457031 6.476562 13.707031 6.457031 14.054688 C 6.398438 14.453125 6.179688 14.648438 5.875 14.875 C 5.671875 14.976562 5.449219 14.953125 5.226562 14.953125 C 5.179688 14.953125 5.128906 14.957031 5.082031 14.957031 C 4.867188 14.957031 4.726562 14.957031 4.53125 14.855469 C 4.300781 14.601562 4.359375 14.234375 4.355469 13.914062 C 4.355469 13.855469 4.351562 13.796875 4.351562 13.734375 C 4.347656 13.472656 4.355469 13.292969 4.46875 13.054688 C 4.699219 12.882812 4.894531 12.894531 5.175781 12.902344 Z M 5.175781 12.902344 "/>
<path style=" stroke:none;fill-rule:nonzero;fill:rgb(1.568628%,1.568628%,0.784314%);fill-opacity:1;" d="M 12.648438 1.621094 C 12.976562 1.8125 13.207031 2.0625 13.394531 2.394531 C 13.496094 2.796875 13.476562 3.144531 13.269531 3.507812 C 13.066406 3.792969 12.78125 4.042969 12.4375 4.125 C 11.960938 4.175781 11.628906 4.074219 11.234375 3.792969 C 10.9375 3.503906 10.847656 3.230469 10.839844 2.820312 C 10.847656 2.464844 10.890625 2.242188 11.136719 1.976562 C 11.171875 1.941406 11.210938 1.910156 11.25 1.875 C 11.285156 1.84375 11.324219 1.808594 11.359375 1.777344 C 11.734375 1.492188 12.210938 1.449219 12.648438 1.621094 Z M 11.5625 2.3125 C 11.417969 2.523438 11.375 2.648438 11.375 2.90625 C 11.453125 3.179688 11.550781 3.296875 11.75 3.5 C 11.949219 3.601562 12.15625 3.585938 12.375 3.5625 C 12.59375 3.476562 12.671875 3.398438 12.804688 3.207031 C 12.890625 2.949219 12.902344 2.757812 12.8125 2.5 C 12.664062 2.316406 12.664062 2.316406 12.5 2.1875 C 12.480469 2.167969 12.457031 2.144531 12.4375 2.125 C 12.109375 2.089844 11.820312 2.082031 11.5625 2.3125 Z M 11.5625 2.3125 "/>
<path style=" stroke:none;fill-rule:nonzero;fill:rgb(40.392157%,82.745099%,94.117647%);fill-opacity:1;" d="M 10 9.3125 C 10.496094 9.3125 10.988281 9.3125 11.5 9.3125 C 11.699219 10.207031 11.664062 10.964844 11.3125 11.8125 C 11.023438 11.75 10.765625 11.625 10.5 11.511719 C 10.296875 11.425781 10.296875 11.425781 10 11.375 C 10 10.695312 10 10.015625 10 9.3125 Z M 10 9.3125 "/>
<path style=" stroke:none;fill-rule:nonzero;fill:rgb(4.313726%,4.313726%,4.313726%);fill-opacity:1;" d="M 8.5 12.875 C 8.6875 12.875 8.871094 12.875 9.0625 12.875 C 9.066406 13.140625 9.070312 13.402344 9.074219 13.667969 C 9.074219 13.742188 9.078125 13.816406 9.078125 13.894531 C 9.078125 13.96875 9.078125 14.039062 9.082031 14.113281 C 9.082031 14.179688 9.082031 14.246094 9.082031 14.316406 C 9.050781 14.585938 8.941406 14.746094 8.75 14.9375 C 8.625 14.960938 8.625 14.960938 8.476562 14.964844 C 8.40625 14.96875 8.40625 14.96875 8.332031 14.972656 C 8.109375 14.917969 8.058594 14.816406 7.9375 14.625 C 7.859375 14.433594 7.796875 14.238281 7.734375 14.042969 C 7.675781 13.863281 7.621094 13.683594 7.5625 13.5 C 7.542969 13.972656 7.519531 14.449219 7.5 14.9375 C 7.335938 14.9375 7.171875 14.9375 7 14.9375 C 6.992188 14.652344 6.988281 14.363281 6.984375 14.078125 C 6.984375 13.996094 6.980469 13.914062 6.976562 13.832031 C 6.976562 13.753906 6.976562 13.675781 6.976562 13.59375 C 6.972656 13.523438 6.972656 13.449219 6.972656 13.375 C 7.007812 13.148438 7.070312 13.078125 7.25 12.9375 C 7.390625 12.90625 7.390625 12.90625 7.53125 12.90625 C 7.578125 12.90625 7.625 12.90625 7.671875 12.90625 C 7.875 12.953125 7.9375 13.019531 8.0625 13.1875 C 8.144531 13.375 8.207031 13.570312 8.265625 13.765625 C 8.324219 13.945312 8.378906 14.125 8.4375 14.3125 C 8.457031 13.839844 8.480469 13.363281 8.5 12.875 Z M 8.5 12.875 "/>
<path style=" stroke:none;fill-rule:nonzero;fill:rgb(40.392157%,82.352942%,94.117647%);fill-opacity:1;" d="M 7.9375 6.875 C 8.207031 6.972656 8.355469 7.179688 8.523438 7.398438 C 8.554688 7.4375 8.582031 7.476562 8.613281 7.515625 C 9.25 8.351562 9.25 8.351562 9.25 8.75 C 8.425781 8.75 7.601562 8.75 6.75 8.75 C 6.890625 8.332031 6.964844 8.113281 7.203125 7.777344 C 7.226562 7.742188 7.25 7.707031 7.277344 7.671875 C 7.480469 7.390625 7.699219 7.128906 7.9375 6.875 Z M 7.9375 6.875 "/>
<path style=" stroke:none;fill-rule:nonzero;fill:rgb(3.921569%,3.921569%,3.921569%);fill-opacity:1;" d="M 10.257812 12.867188 C 10.308594 12.867188 10.359375 12.871094 10.410156 12.871094 C 10.488281 12.871094 10.488281 12.871094 10.570312 12.871094 C 10.648438 12.871094 10.648438 12.871094 10.730469 12.871094 C 10.863281 12.871094 10.992188 12.875 11.125 12.875 C 11.125 13.0625 11.125 13.246094 11.125 13.4375 C 10.628906 13.46875 10.628906 13.46875 10.125 13.5 C 10.410156 13.660156 10.410156 13.660156 10.695312 13.816406 C 10.992188 13.988281 10.992188 13.988281 11.0625 14.125 C 11.105469 14.5625 11.105469 14.5625 10.941406 14.796875 C 10.671875 14.996094 10.460938 14.972656 10.136719 14.957031 C 10.082031 14.957031 10.027344 14.953125 9.96875 14.953125 C 9.832031 14.949219 9.699219 14.941406 9.5625 14.9375 C 9.5625 14.773438 9.5625 14.609375 9.5625 14.4375 C 9.894531 14.4375 10.222656 14.4375 10.5625 14.4375 C 10.5625 14.394531 10.5625 14.355469 10.5625 14.3125 C 10.511719 14.296875 10.460938 14.285156 10.40625 14.269531 C 10.066406 14.144531 9.765625 13.992188 9.5625 13.6875 C 9.535156 13.476562 9.535156 13.476562 9.5625 13.25 C 9.777344 12.988281 9.921875 12.867188 10.257812 12.867188 Z M 10.257812 12.867188 "/>
<path style=" stroke:none;fill-rule:nonzero;fill:rgb(40.000001%,81.960785%,93.333334%);fill-opacity:1;" d="M 4.5 9.3125 C 4.996094 9.3125 5.488281 9.3125 6 9.3125 C 5.980469 9.683594 5.957031 10.054688 5.9375 10.4375 C 5.824219 10.480469 5.714844 10.523438 5.597656 10.570312 C 5.28125 10.699219 5.015625 10.851562 4.738281 11.054688 C 4.625 11.125 4.625 11.125 4.4375 11.125 C 4.320312 10.5 4.363281 9.933594 4.5 9.3125 Z M 4.5 9.3125 "/>
<path style=" stroke:none;fill-rule:nonzero;fill:rgb(40.000001%,81.960785%,93.725491%);fill-opacity:1;" d="M 7.3125 6.8125 C 7.292969 6.839844 7.269531 6.863281 7.25 6.890625 C 6.800781 7.460938 6.480469 8.089844 6.1875 8.75 C 5.714844 8.75 5.238281 8.75 4.75 8.75 C 5.210938 7.832031 5.882812 7.25 6.828125 6.863281 C 7 6.8125 7.136719 6.800781 7.3125 6.8125 Z M 7.3125 6.8125 "/>
<path style=" stroke:none;fill-rule:nonzero;fill:rgb(40.392157%,82.352942%,93.725491%);fill-opacity:1;" d="M 8.6875 6.8125 C 9.609375 6.875 10.292969 7.4375 10.886719 8.09375 C 11.035156 8.296875 11.140625 8.527344 11.25 8.75 C 10.777344 8.75 10.300781 8.75 9.8125 8.75 C 9.699219 8.519531 9.699219 8.519531 9.585938 8.285156 C 9.394531 7.898438 9.1875 7.539062 8.9375 7.1875 C 8.886719 7.113281 8.839844 7.039062 8.789062 6.964844 C 8.738281 6.890625 8.738281 6.890625 8.6875 6.8125 Z M 8.6875 6.8125 "/>
<path style=" stroke:none;fill-rule:nonzero;fill:rgb(98.431373%,50.196081%,42.352942%);fill-opacity:1;" d="M 3.625 4.125 C 4.902344 4.125 6.183594 4.125 7.5 4.125 C 7.5 4.289062 7.5 4.453125 7.5 4.625 C 6.222656 4.625 4.941406 4.625 3.625 4.625 C 3.625 4.460938 3.625 4.296875 3.625 4.125 Z M 3.625 4.125 "/>
<path style=" stroke:none;fill-rule:nonzero;fill:rgb(0%,0%,0%);fill-opacity:1;" d="M 3.125 5.6875 C 3.96875 5.6875 4.816406 5.6875 5.6875 5.6875 C 5.6875 5.851562 5.6875 6.015625 5.6875 6.1875 C 4.84375 6.1875 3.996094 6.1875 3.125 6.1875 C 3.125 6.023438 3.125 5.859375 3.125 5.6875 Z M 3.125 5.6875 "/>
<path style=" stroke:none;fill-rule:nonzero;fill:rgb(85.882354%,87.058824%,88.627452%);fill-opacity:1;" d="M 4.875 13.4375 C 5.566406 13.398438 5.566406 13.398438 5.828125 13.570312 C 5.957031 13.785156 5.988281 13.878906 5.9375 14.125 C 5.828125 14.304688 5.828125 14.304688 5.625 14.4375 C 5.367188 14.464844 5.132812 14.453125 4.875 14.4375 C 4.875 14.109375 4.875 13.777344 4.875 13.4375 Z M 4.875 13.4375 "/>
<path style=" stroke:none;fill-rule:nonzero;fill:rgb(11.764706%,9.803922%,8.627451%);fill-opacity:1;" d="M 3.0625 6.6875 C 3.597656 6.6875 4.136719 6.6875 4.6875 6.6875 C 4.6875 6.875 4.6875 7.058594 4.6875 7.25 C 4.152344 7.25 3.613281 7.25 3.0625 7.25 C 3.0625 7.0625 3.0625 6.878906 3.0625 6.6875 Z M 3.0625 6.6875 "/>
<path style=" stroke:none;fill-rule:nonzero;fill:rgb(0%,0%,0%);fill-opacity:1;" d="M 3.125 7.75 C 3.453125 7.75 3.785156 7.75 4.125 7.75 C 4.125 7.914062 4.125 8.078125 4.125 8.25 C 3.796875 8.25 3.464844 8.25 3.125 8.25 C 3.125 8.085938 3.125 7.921875 3.125 7.75 Z M 3.125 7.75 "/>
</g>
</svg>
