<?xml version="1.0" encoding="UTF-8"?>
<svg xmlns="http://www.w3.org/2000/svg" xmlns:xlink="http://www.w3.org/1999/xlink" width="16" height="16" viewBox="0 0 16 16" version="1.1">
<g id="surface1">
<path style=" stroke:none;fill-rule:nonzero;fill:rgb(93.725491%,29.019609%,31.37255%);fill-opacity:1;" d="M 7 0.4375 C 7.660156 0.4375 8.320312 0.4375 9 0.4375 C 9.0625 0.683594 9.125 0.933594 9.1875 1.1875 C 9.554688 1.480469 9.554688 1.480469 10 1.570312 C 10.226562 1.484375 10.453125 1.398438 10.675781 1.300781 C 10.8125 1.25 10.8125 1.25 10.9375 1.25 C 10.945312 1.203125 10.953125 1.152344 10.960938 1.105469 C 10.972656 1.042969 10.984375 0.980469 10.996094 0.914062 C 11.007812 0.851562 11.019531 0.789062 11.027344 0.726562 C 11.0625 0.5625 11.0625 0.5625 11.125 0.4375 C 11.453125 0.4375 11.785156 0.4375 12.125 0.4375 C 12.3125 0.96875 12.3125 0.96875 12.3125 1.25 C 12.375 1.269531 12.375 1.269531 12.441406 1.285156 C 12.496094 1.304688 12.550781 1.320312 12.609375 1.335938 C 12.691406 1.359375 12.691406 1.359375 12.777344 1.382812 C 12.9375 1.4375 12.9375 1.4375 13.070312 1.507812 C 13.253906 1.59375 13.371094 1.554688 13.5625 1.5 C 13.625 1.457031 13.691406 1.414062 13.757812 1.367188 C 13.9375 1.25 13.9375 1.25 14.054688 1.257812 C 14.238281 1.332031 14.347656 1.445312 14.488281 1.582031 C 14.539062 1.628906 14.589844 1.679688 14.640625 1.730469 C 14.75 1.875 14.75 1.875 14.742188 2.003906 C 14.671875 2.160156 14.582031 2.300781 14.484375 2.445312 C 14.382812 2.703125 14.535156 2.984375 14.628906 3.230469 C 14.75 3.546875 14.75 3.546875 14.75 3.6875 C 14.828125 3.695312 14.902344 3.703125 14.980469 3.710938 C 15.207031 3.734375 15.335938 3.785156 15.5625 3.875 C 15.5625 4.203125 15.5625 4.535156 15.5625 4.875 C 14.960938 5.0625 14.960938 5.0625 14.75 5.0625 C 14.738281 5.105469 14.726562 5.148438 14.714844 5.191406 C 14.695312 5.246094 14.679688 5.300781 14.664062 5.359375 C 14.648438 5.414062 14.632812 5.46875 14.617188 5.527344 C 14.5625 5.6875 14.5625 5.6875 14.488281 5.8125 C 14.402344 6.023438 14.480469 6.1875 14.546875 6.398438 C 14.621094 6.570312 14.621094 6.570312 14.8125 6.8125 C 15.058594 6.875 15.308594 6.9375 15.5625 7 C 15.5625 7.660156 15.5625 8.320312 15.5625 9 C 14.824219 9.15625 14.824219 9.15625 14.59375 9.203125 C 14.246094 9.269531 14.246094 9.269531 13.980469 9.484375 C 13.929688 9.613281 13.902344 9.738281 13.875 9.875 C 13.847656 9.953125 13.816406 10.03125 13.785156 10.109375 C 13.667969 10.402344 13.667969 10.402344 13.554688 10.695312 C 13.5 10.8125 13.5 10.8125 13.417969 10.929688 C 13.332031 11.0625 13.28125 11.15625 13.25 11.3125 C 13.332031 11.550781 13.472656 11.746094 13.617188 11.953125 C 13.691406 12.0625 13.765625 12.171875 13.839844 12.28125 C 13.890625 12.355469 13.890625 12.355469 13.941406 12.425781 C 14 12.5625 14 12.5625 13.964844 12.6875 C 13.855469 12.839844 13.734375 12.964844 13.601562 13.097656 C 13.550781 13.148438 13.496094 13.203125 13.441406 13.257812 C 13.386719 13.3125 13.332031 13.367188 13.273438 13.421875 C 13.21875 13.476562 13.160156 13.53125 13.105469 13.589844 C 12.964844 13.726562 12.828125 13.863281 12.6875 14 C 12.484375 13.925781 12.320312 13.84375 12.148438 13.707031 C 11.703125 13.363281 11.703125 13.363281 11.171875 13.265625 C 10.882812 13.363281 10.632812 13.523438 10.375 13.679688 C 10.183594 13.785156 10 13.824219 9.789062 13.871094 C 9.539062 13.9375 9.539062 13.9375 9.355469 14.105469 C 9.300781 14.257812 9.277344 14.402344 9.25 14.5625 C 9.21875 14.691406 9.1875 14.820312 9.152344 14.945312 C 9.097656 15.152344 9.050781 15.355469 9 15.5625 C 8.339844 15.5625 7.679688 15.5625 7 15.5625 C 6.9375 15.316406 6.875 15.066406 6.8125 14.8125 C 6.445312 14.519531 6.445312 14.519531 6.003906 14.429688 C 5.910156 14.464844 5.910156 14.464844 5.8125 14.5 C 5.757812 14.511719 5.703125 14.523438 5.644531 14.53125 C 5.441406 14.582031 5.296875 14.632812 5.125 14.75 C 4.988281 15.023438 4.9375 15.261719 4.875 15.5625 C 4.546875 15.5625 4.214844 15.5625 3.875 15.5625 C 3.6875 15.03125 3.6875 15.03125 3.6875 14.75 C 3.644531 14.738281 3.601562 14.726562 3.558594 14.714844 C 3.503906 14.695312 3.449219 14.679688 3.390625 14.664062 C 3.335938 14.648438 3.28125 14.632812 3.222656 14.617188 C 3.0625 14.5625 3.0625 14.5625 2.929688 14.492188 C 2.746094 14.40625 2.628906 14.445312 2.4375 14.5 C 2.375 14.542969 2.308594 14.585938 2.242188 14.632812 C 2.0625 14.75 2.0625 14.75 1.945312 14.742188 C 1.761719 14.667969 1.652344 14.554688 1.511719 14.417969 C 1.460938 14.371094 1.410156 14.320312 1.359375 14.269531 C 1.25 14.125 1.25 14.125 1.257812 13.996094 C 1.328125 13.839844 1.417969 13.699219 1.515625 13.554688 C 1.617188 13.296875 1.464844 13.015625 1.371094 12.769531 C 1.25 12.453125 1.25 12.453125 1.25 12.3125 C 1.171875 12.304688 1.097656 12.296875 1.019531 12.289062 C 0.792969 12.265625 0.664062 12.214844 0.4375 12.125 C 0.4375 11.796875 0.4375 11.464844 0.4375 11.125 C 1.039062 10.9375 1.039062 10.9375 1.25 10.9375 C 1.269531 10.875 1.269531 10.875 1.285156 10.808594 C 1.304688 10.753906 1.320312 10.699219 1.335938 10.640625 C 1.359375 10.558594 1.359375 10.558594 1.382812 10.472656 C 1.4375 10.3125 1.4375 10.3125 1.511719 10.1875 C 1.597656 9.976562 1.519531 9.8125 1.453125 9.601562 C 1.378906 9.429688 1.378906 9.429688 1.1875 9.1875 C 0.941406 9.125 0.691406 9.0625 0.4375 9 C 0.4375 8.339844 0.4375 7.679688 0.4375 7 C 1.175781 6.84375 1.175781 6.84375 1.40625 6.796875 C 1.753906 6.730469 1.753906 6.730469 2.019531 6.515625 C 2.070312 6.386719 2.097656 6.261719 2.125 6.125 C 2.152344 6.046875 2.183594 5.96875 2.214844 5.890625 C 2.332031 5.597656 2.332031 5.597656 2.445312 5.304688 C 2.5 5.1875 2.5 5.1875 2.582031 5.070312 C 2.667969 4.9375 2.71875 4.84375 2.75 4.6875 C 2.667969 4.449219 2.527344 4.253906 2.382812 4.046875 C 2.308594 3.9375 2.234375 3.828125 2.160156 3.71875 C 2.125 3.671875 2.09375 3.621094 2.058594 3.574219 C 2 3.4375 2 3.4375 2.035156 3.3125 C 2.144531 3.160156 2.265625 3.035156 2.398438 2.902344 C 2.449219 2.851562 2.503906 2.796875 2.558594 2.742188 C 2.613281 2.6875 2.667969 2.632812 2.726562 2.578125 C 2.78125 2.523438 2.839844 2.46875 2.894531 2.410156 C 3.035156 2.273438 3.171875 2.136719 3.3125 2 C 3.515625 2.074219 3.679688 2.15625 3.851562 2.292969 C 4.296875 2.636719 4.296875 2.636719 4.828125 2.734375 C 5.117188 2.636719 5.367188 2.476562 5.625 2.320312 C 5.816406 2.214844 6 2.175781 6.210938 2.128906 C 6.460938 2.0625 6.460938 2.0625 6.644531 1.894531 C 6.699219 1.742188 6.722656 1.597656 6.75 1.4375 C 6.78125 1.308594 6.8125 1.179688 6.847656 1.054688 C 6.902344 0.847656 6.949219 0.644531 7 0.4375 Z M 5.644531 5.71875 C 5.121094 6.285156 4.808594 6.980469 4.75 7.75 C 4.792969 7.769531 4.832031 7.792969 4.875 7.8125 C 4.898438 7.933594 4.914062 8.054688 4.933594 8.175781 C 5 8.472656 5 8.472656 5.214844 8.664062 C 5.394531 8.726562 5.566406 8.769531 5.75 8.8125 C 5.800781 8.839844 5.855469 8.863281 5.910156 8.890625 C 6.066406 8.957031 6.066406 8.957031 6.222656 8.863281 C 6.273438 8.824219 6.324219 8.789062 6.378906 8.75 C 6.539062 8.636719 6.539062 8.636719 6.6875 8.5625 C 6.910156 8.621094 7.046875 8.78125 7.203125 8.945312 C 7.246094 8.992188 7.292969 9.035156 7.335938 9.082031 C 7.371094 9.117188 7.402344 9.152344 7.4375 9.1875 C 7.40625 9.25 7.40625 9.25 7.371094 9.316406 C 7.34375 9.375 7.3125 9.429688 7.285156 9.488281 C 7.257812 9.542969 7.230469 9.601562 7.199219 9.65625 C 7.121094 9.816406 7.121094 9.816406 7.0625 10 C 7.121094 10.164062 7.121094 10.164062 7.210938 10.339844 C 7.308594 10.539062 7.394531 10.71875 7.4375 10.9375 C 7.492188 10.949219 7.542969 10.960938 7.597656 10.972656 C 7.667969 10.992188 7.738281 11.007812 7.808594 11.023438 C 7.878906 11.039062 7.945312 11.054688 8.015625 11.070312 C 8.074219 11.089844 8.128906 11.105469 8.1875 11.125 C 8.207031 11.167969 8.230469 11.207031 8.25 11.25 C 9.136719 11.171875 9.90625 10.792969 10.5 10.125 C 10.929688 9.566406 11.195312 8.953125 11.25 8.25 C 11.207031 8.230469 11.167969 8.207031 11.125 8.1875 C 11.101562 8.066406 11.085938 7.945312 11.066406 7.824219 C 11 7.527344 11 7.527344 10.785156 7.335938 C 10.605469 7.273438 10.433594 7.230469 10.25 7.1875 C 10.199219 7.160156 10.144531 7.136719 10.089844 7.109375 C 9.933594 7.042969 9.933594 7.042969 9.777344 7.136719 C 9.726562 7.175781 9.675781 7.210938 9.621094 7.25 C 9.460938 7.363281 9.460938 7.363281 9.3125 7.4375 C 9.089844 7.378906 8.953125 7.21875 8.796875 7.054688 C 8.753906 7.007812 8.707031 6.964844 8.664062 6.917969 C 8.628906 6.882812 8.597656 6.847656 8.5625 6.8125 C 8.585938 6.769531 8.605469 6.726562 8.628906 6.683594 C 8.65625 6.625 8.6875 6.570312 8.714844 6.511719 C 8.757812 6.429688 8.757812 6.429688 8.800781 6.34375 C 8.878906 6.183594 8.878906 6.183594 8.9375 6 C 8.878906 5.835938 8.878906 5.835938 8.789062 5.660156 C 8.6875 5.453125 8.617188 5.285156 8.5625 5.0625 C 8.292969 5 8.027344 4.9375 7.75 4.875 C 7.75 4.832031 7.75 4.792969 7.75 4.75 C 6.9375 4.75 6.214844 5.175781 5.644531 5.71875 Z M 5.644531 5.71875 "/>
<path style=" stroke:none;fill-rule:nonzero;fill:rgb(47.843137%,53.725493%,57.647061%);fill-opacity:1;" d="M 3.875 7.75 C 4.203125 7.75 4.535156 7.75 4.875 7.75 C 5.0625 8.28125 5.0625 8.28125 5.0625 8.5625 C 5.125 8.566406 5.183594 8.574219 5.246094 8.578125 C 5.453125 8.605469 5.589844 8.671875 5.769531 8.777344 C 5.910156 8.851562 5.910156 8.851562 6.0625 8.875 C 6.246094 8.796875 6.386719 8.699219 6.546875 8.578125 C 6.6875 8.5 6.6875 8.5 6.8125 8.53125 C 6.96875 8.648438 7.097656 8.773438 7.234375 8.914062 C 7.285156 8.964844 7.335938 9.015625 7.386719 9.070312 C 7.421875 9.109375 7.460938 9.148438 7.5 9.1875 C 7.46875 9.25 7.46875 9.25 7.433594 9.316406 C 7.40625 9.375 7.375 9.429688 7.347656 9.488281 C 7.320312 9.542969 7.292969 9.601562 7.261719 9.65625 C 7.183594 9.816406 7.183594 9.816406 7.125 10 C 7.1875 10.164062 7.1875 10.164062 7.277344 10.339844 C 7.390625 10.570312 7.4375 10.671875 7.4375 10.9375 C 7.550781 10.949219 7.550781 10.949219 7.667969 10.960938 C 7.894531 10.984375 8.023438 11.035156 8.25 11.125 C 8.25 11.453125 8.25 11.785156 8.25 12.125 C 7.980469 12.1875 7.714844 12.25 7.4375 12.3125 C 7.410156 12.410156 7.378906 12.507812 7.351562 12.609375 C 7.304688 12.773438 7.257812 12.921875 7.179688 13.070312 C 7.09375 13.253906 7.132812 13.371094 7.1875 13.5625 C 7.308594 13.769531 7.308594 13.769531 7.4375 13.9375 C 7.351562 14.136719 7.246094 14.265625 7.089844 14.414062 C 6.929688 14.566406 6.929688 14.566406 6.8125 14.75 C 6.640625 14.6875 6.5 14.625 6.347656 14.519531 C 6.128906 14.40625 6.046875 14.433594 5.8125 14.5 C 5.730469 14.515625 5.730469 14.515625 5.644531 14.53125 C 5.441406 14.582031 5.296875 14.632812 5.125 14.75 C 4.988281 15.023438 4.9375 15.261719 4.875 15.5625 C 4.546875 15.5625 4.214844 15.5625 3.875 15.5625 C 3.6875 15.03125 3.6875 15.03125 3.6875 14.75 C 3.644531 14.738281 3.601562 14.726562 3.558594 14.714844 C 3.503906 14.695312 3.449219 14.679688 3.390625 14.664062 C 3.335938 14.648438 3.28125 14.632812 3.222656 14.617188 C 3.0625 14.5625 3.0625 14.5625 2.929688 14.492188 C 2.746094 14.40625 2.628906 14.445312 2.4375 14.5 C 2.375 14.542969 2.308594 14.585938 2.242188 14.632812 C 2.0625 14.75 2.0625 14.75 1.945312 14.742188 C 1.761719 14.667969 1.652344 14.554688 1.511719 14.417969 C 1.460938 14.371094 1.410156 14.320312 1.359375 14.269531 C 1.25 14.125 1.25 14.125 1.257812 13.996094 C 1.328125 13.839844 1.417969 13.699219 1.515625 13.554688 C 1.617188 13.296875 1.464844 13.015625 1.371094 12.769531 C 1.25 12.453125 1.25 12.453125 1.25 12.3125 C 1.171875 12.304688 1.097656 12.296875 1.019531 12.289062 C 0.792969 12.265625 0.664062 12.214844 0.4375 12.125 C 0.4375 11.796875 0.4375 11.464844 0.4375 11.125 C 1.039062 10.9375 1.039062 10.9375 1.25 10.9375 C 1.261719 10.894531 1.273438 10.851562 1.285156 10.808594 C 1.304688 10.753906 1.320312 10.699219 1.335938 10.640625 C 1.351562 10.585938 1.367188 10.53125 1.382812 10.472656 C 1.4375 10.3125 1.4375 10.3125 1.507812 10.175781 C 1.589844 10.007812 1.558594 9.925781 1.5 9.75 C 1.421875 9.601562 1.335938 9.457031 1.25 9.3125 C 1.25 9.269531 1.25 9.230469 1.25 9.1875 C 1.351562 9.085938 1.351562 9.085938 1.488281 8.972656 C 1.644531 8.839844 1.796875 8.710938 1.9375 8.5625 C 2.109375 8.625 2.253906 8.691406 2.40625 8.792969 C 2.601562 8.894531 2.664062 8.867188 2.875 8.8125 C 3.039062 8.75 3.195312 8.683594 3.355469 8.613281 C 3.5 8.5625 3.5 8.5625 3.6875 8.5625 C 3.75 8.292969 3.8125 8.027344 3.875 7.75 Z M 3.875 7.75 "/>
<path style=" stroke:none;fill-rule:nonzero;fill:rgb(96.470588%,72.941178%,26.666668%);fill-opacity:1;" d="M 14.980469 6.84375 C 15.089844 6.871094 15.203125 6.902344 15.3125 6.9375 C 15.4375 6.96875 15.4375 6.96875 15.5625 7 C 15.5625 7.660156 15.5625 8.320312 15.5625 9 C 14.824219 9.15625 14.824219 9.15625 14.59375 9.203125 C 14.246094 9.269531 14.246094 9.269531 13.980469 9.484375 C 13.929688 9.613281 13.902344 9.738281 13.875 9.875 C 13.847656 9.953125 13.816406 10.03125 13.785156 10.109375 C 13.667969 10.402344 13.667969 10.402344 13.554688 10.695312 C 13.5 10.8125 13.5 10.8125 13.417969 10.929688 C 13.332031 11.0625 13.28125 11.15625 13.25 11.3125 C 13.332031 11.550781 13.472656 11.746094 13.617188 11.953125 C 13.691406 12.0625 13.765625 12.171875 13.839844 12.28125 C 13.890625 12.355469 13.890625 12.355469 13.941406 12.425781 C 14 12.5625 14 12.5625 13.964844 12.6875 C 13.855469 12.839844 13.734375 12.964844 13.601562 13.097656 C 13.550781 13.148438 13.496094 13.203125 13.441406 13.257812 C 13.359375 13.339844 13.359375 13.339844 13.273438 13.421875 C 13.21875 13.476562 13.160156 13.53125 13.105469 13.589844 C 12.964844 13.726562 12.828125 13.863281 12.6875 14 C 12.480469 13.925781 12.320312 13.84375 12.148438 13.707031 C 11.703125 13.363281 11.703125 13.363281 11.171875 13.265625 C 10.882812 13.363281 10.632812 13.523438 10.375 13.679688 C 10.183594 13.785156 10 13.824219 9.789062 13.871094 C 9.539062 13.9375 9.539062 13.9375 9.355469 14.105469 C 9.300781 14.257812 9.277344 14.402344 9.25 14.5625 C 9.21875 14.691406 9.183594 14.820312 9.152344 14.945312 C 9.097656 15.152344 9.050781 15.355469 9 15.5625 C 8.339844 15.5625 7.679688 15.5625 7 15.5625 C 6.8125 14.8125 6.8125 14.8125 6.875 14.5625 C 6.992188 14.429688 6.992188 14.429688 7.128906 14.296875 C 7.175781 14.253906 7.21875 14.207031 7.269531 14.164062 C 7.320312 14.113281 7.320312 14.113281 7.375 14.0625 C 7.308594 13.890625 7.25 13.75 7.144531 13.597656 C 7.015625 13.34375 7.105469 13.132812 7.175781 12.867188 C 7.359375 12.359375 7.359375 12.359375 7.589844 12.222656 C 7.816406 12.15625 8.015625 12.125 8.25 12.125 C 8.25 11.835938 8.25 11.546875 8.25 11.25 C 8.378906 11.214844 8.507812 11.183594 8.640625 11.148438 C 9.566406 10.890625 10.28125 10.453125 10.78125 9.617188 C 11.007812 9.183594 11.140625 8.726562 11.25 8.25 C 11.539062 8.25 11.828125 8.25 12.125 8.25 C 12.152344 8.082031 12.152344 8.082031 12.183594 7.914062 C 12.242188 7.578125 12.242188 7.578125 12.3125 7.4375 C 12.449219 7.363281 12.585938 7.300781 12.730469 7.238281 C 12.789062 7.210938 12.789062 7.210938 12.847656 7.183594 C 13.109375 7.070312 13.285156 7.042969 13.5625 7.125 C 13.773438 7.253906 13.773438 7.253906 13.9375 7.375 C 14.144531 7.289062 14.242188 7.191406 14.378906 7.015625 C 14.582031 6.804688 14.695312 6.789062 14.980469 6.84375 Z M 14.980469 6.84375 "/>
<path style=" stroke:none;fill-rule:nonzero;fill:rgb(96.470588%,72.941178%,26.666668%);fill-opacity:1;" d="M 7 0.4375 C 7.660156 0.4375 8.320312 0.4375 9 0.4375 C 9.1875 1.1875 9.1875 1.1875 9.125 1.4375 C 9.007812 1.570312 9.007812 1.570312 8.871094 1.703125 C 8.824219 1.746094 8.78125 1.792969 8.730469 1.835938 C 8.695312 1.871094 8.660156 1.902344 8.625 1.9375 C 8.691406 2.109375 8.75 2.253906 8.855469 2.40625 C 8.980469 2.644531 8.890625 2.820312 8.824219 3.078125 C 8.640625 3.640625 8.640625 3.640625 8.410156 3.78125 C 8.183594 3.847656 7.984375 3.875 7.75 3.875 C 7.75 4.164062 7.75 4.453125 7.75 4.75 C 7.691406 4.765625 7.628906 4.777344 7.570312 4.792969 C 6.644531 5.015625 5.871094 5.394531 5.324219 6.207031 C 5.035156 6.691406 4.875 7.203125 4.75 7.75 C 4.460938 7.75 4.171875 7.75 3.875 7.75 C 3.855469 7.859375 3.835938 7.972656 3.816406 8.085938 C 3.757812 8.421875 3.757812 8.421875 3.6875 8.5625 C 3.558594 8.621094 3.429688 8.671875 3.296875 8.722656 C 3.191406 8.761719 3.191406 8.761719 3.082031 8.804688 C 2.730469 8.921875 2.730469 8.921875 2.5625 8.9375 C 2.421875 8.867188 2.308594 8.777344 2.183594 8.683594 C 2.0625 8.609375 2.0625 8.609375 1.933594 8.664062 C 1.800781 8.757812 1.71875 8.855469 1.621094 8.984375 C 1.507812 9.101562 1.507812 9.101562 1.375 9.1875 C 1.132812 9.191406 0.917969 9.132812 0.6875 9.0625 C 0.605469 9.042969 0.523438 9.019531 0.4375 9 C 0.4375 8.339844 0.4375 7.679688 0.4375 7 C 1.175781 6.84375 1.175781 6.84375 1.40625 6.796875 C 1.753906 6.730469 1.753906 6.730469 2.019531 6.515625 C 2.070312 6.386719 2.097656 6.261719 2.125 6.125 C 2.152344 6.046875 2.183594 5.96875 2.214844 5.890625 C 2.332031 5.597656 2.332031 5.597656 2.445312 5.304688 C 2.5 5.1875 2.5 5.1875 2.582031 5.070312 C 2.667969 4.9375 2.71875 4.84375 2.75 4.6875 C 2.667969 4.449219 2.527344 4.253906 2.382812 4.046875 C 2.308594 3.9375 2.234375 3.828125 2.160156 3.71875 C 2.125 3.671875 2.09375 3.621094 2.058594 3.574219 C 2 3.4375 2 3.4375 2.035156 3.3125 C 2.144531 3.160156 2.265625 3.035156 2.398438 2.902344 C 2.449219 2.851562 2.503906 2.796875 2.558594 2.742188 C 2.613281 2.6875 2.667969 2.632812 2.726562 2.578125 C 2.78125 2.523438 2.839844 2.46875 2.894531 2.410156 C 3.035156 2.273438 3.171875 2.136719 3.3125 2 C 3.515625 2.074219 3.679688 2.15625 3.851562 2.292969 C 4.296875 2.636719 4.296875 2.636719 4.828125 2.734375 C 5.117188 2.636719 5.367188 2.476562 5.625 2.320312 C 5.816406 2.214844 6 2.175781 6.210938 2.128906 C 6.460938 2.0625 6.460938 2.0625 6.644531 1.894531 C 6.699219 1.742188 6.722656 1.597656 6.75 1.4375 C 6.78125 1.308594 6.8125 1.179688 6.847656 1.054688 C 6.902344 0.847656 6.949219 0.644531 7 0.4375 Z M 7 0.4375 "/>
<path style=" stroke:none;fill-rule:nonzero;fill:rgb(30.588236%,39.607844%,45.490196%);fill-opacity:1;" d="M 1.9375 8.5625 C 2.066406 8.605469 2.066406 8.605469 2.25 8.6875 C 2.289062 8.699219 2.328125 8.714844 2.367188 8.726562 C 2.519531 8.800781 2.589844 8.855469 2.6875 9 C 2.730469 9.265625 2.738281 9.523438 2.738281 9.792969 C 2.742188 9.984375 2.765625 10.148438 2.8125 10.332031 C 2.882812 10.585938 2.863281 10.746094 2.8125 11 C 2.695312 11.578125 2.691406 12.105469 3 12.625 C 3.308594 12.988281 3.671875 13.210938 4.148438 13.265625 C 4.539062 13.28125 4.886719 13.203125 5.25 13.0625 C 5.269531 13.042969 5.292969 13.019531 5.3125 13 C 5.410156 12.996094 5.503906 12.996094 5.601562 12.996094 C 5.660156 12.996094 5.722656 12.996094 5.78125 12.996094 C 5.90625 13 6.03125 13 6.15625 13.003906 C 6.507812 13.003906 6.839844 12.988281 7.1875 12.9375 C 7.171875 13.011719 7.152344 13.082031 7.136719 13.15625 C 7.105469 13.394531 7.148438 13.507812 7.285156 13.703125 C 7.316406 13.742188 7.347656 13.78125 7.378906 13.820312 C 7.4375 13.9375 7.4375 13.9375 7.398438 14.0625 C 7.304688 14.195312 7.207031 14.300781 7.089844 14.414062 C 6.929688 14.566406 6.929688 14.566406 6.8125 14.75 C 6.640625 14.6875 6.5 14.625 6.347656 14.519531 C 6.128906 14.40625 6.046875 14.433594 5.8125 14.5 C 5.730469 14.515625 5.730469 14.515625 5.644531 14.53125 C 5.441406 14.582031 5.296875 14.632812 5.125 14.75 C 4.988281 15.023438 4.9375 15.261719 4.875 15.5625 C 4.546875 15.5625 4.214844 15.5625 3.875 15.5625 C 3.6875 15.03125 3.6875 15.03125 3.6875 14.75 C 3.644531 14.738281 3.601562 14.726562 3.558594 14.714844 C 3.503906 14.695312 3.449219 14.679688 3.390625 14.664062 C 3.335938 14.648438 3.28125 14.632812 3.222656 14.617188 C 3.0625 14.5625 3.0625 14.5625 2.929688 14.492188 C 2.746094 14.40625 2.628906 14.445312 2.4375 14.5 C 2.375 14.542969 2.308594 14.585938 2.242188 14.632812 C 2.0625 14.75 2.0625 14.75 1.945312 14.742188 C 1.761719 14.667969 1.652344 14.554688 1.511719 14.417969 C 1.460938 14.371094 1.410156 14.320312 1.359375 14.269531 C 1.25 14.125 1.25 14.125 1.257812 13.996094 C 1.328125 13.839844 1.417969 13.699219 1.515625 13.554688 C 1.617188 13.296875 1.464844 13.015625 1.371094 12.769531 C 1.25 12.453125 1.25 12.453125 1.25 12.3125 C 1.171875 12.304688 1.097656 12.296875 1.019531 12.289062 C 0.792969 12.265625 0.664062 12.214844 0.4375 12.125 C 0.4375 11.796875 0.4375 11.464844 0.4375 11.125 C 1.039062 10.9375 1.039062 10.9375 1.25 10.9375 C 1.261719 10.894531 1.273438 10.851562 1.285156 10.808594 C 1.304688 10.753906 1.320312 10.699219 1.335938 10.640625 C 1.351562 10.585938 1.367188 10.53125 1.382812 10.472656 C 1.4375 10.3125 1.4375 10.3125 1.507812 10.175781 C 1.589844 10.007812 1.558594 9.925781 1.5 9.75 C 1.421875 9.601562 1.335938 9.457031 1.25 9.3125 C 1.25 9.269531 1.25 9.230469 1.25 9.1875 C 1.351562 9.085938 1.351562 9.085938 1.488281 8.972656 C 1.644531 8.839844 1.796875 8.710938 1.9375 8.5625 Z M 1.9375 8.5625 "/>
<path style=" stroke:none;fill-rule:nonzero;fill:rgb(99.607843%,66.666669%,1.176471%);fill-opacity:1;" d="M 8.921875 11.363281 C 9.746094 11.691406 10.539062 11.835938 11.425781 11.832031 C 11.496094 11.832031 11.566406 11.832031 11.640625 11.832031 C 12.113281 11.828125 12.550781 11.78125 13.007812 11.660156 C 13.210938 11.621094 13.3125 11.605469 13.5 11.6875 C 13.609375 11.832031 13.691406 11.957031 13.777344 12.113281 C 13.8125 12.171875 13.8125 12.171875 13.847656 12.234375 C 13.914062 12.347656 13.914062 12.347656 14 12.5625 C 13.925781 12.789062 13.769531 12.929688 13.601562 13.097656 C 13.550781 13.148438 13.496094 13.203125 13.441406 13.257812 C 13.359375 13.339844 13.359375 13.339844 13.273438 13.421875 C 13.21875 13.476562 13.160156 13.53125 13.105469 13.589844 C 12.964844 13.726562 12.828125 13.863281 12.6875 14 C 12.484375 13.925781 12.320312 13.84375 12.148438 13.707031 C 11.703125 13.363281 11.703125 13.363281 11.171875 13.265625 C 10.882812 13.363281 10.632812 13.519531 10.375 13.679688 C 10.183594 13.785156 10 13.824219 9.789062 13.871094 C 9.539062 13.9375 9.539062 13.9375 9.355469 14.105469 C 9.300781 14.257812 9.277344 14.402344 9.25 14.5625 C 9.21875 14.691406 9.1875 14.820312 9.152344 14.945312 C 9.097656 15.152344 9.050781 15.355469 9 15.5625 C 8.339844 15.5625 7.679688 15.5625 7 15.5625 C 6.8125 14.8125 6.8125 14.8125 6.875 14.5625 C 6.992188 14.429688 6.992188 14.429688 7.128906 14.296875 C 7.175781 14.253906 7.21875 14.207031 7.269531 14.164062 C 7.304688 14.128906 7.339844 14.097656 7.375 14.0625 C 7.308594 13.890625 7.25 13.75 7.144531 13.597656 C 7.015625 13.34375 7.105469 13.132812 7.175781 12.867188 C 7.359375 12.359375 7.359375 12.359375 7.589844 12.222656 C 7.816406 12.15625 8.015625 12.125 8.25 12.125 C 8.25 11.835938 8.25 11.546875 8.25 11.25 C 8.511719 11.164062 8.679688 11.265625 8.921875 11.363281 Z M 8.921875 11.363281 "/>
<path style=" stroke:none;fill-rule:nonzero;fill:rgb(99.607843%,66.666669%,1.176471%);fill-opacity:1;" d="M 3.3125 2 C 3.5625 2.097656 3.789062 2.214844 4.019531 2.351562 C 4.121094 2.410156 4.121094 2.410156 4.222656 2.472656 C 4.296875 2.515625 4.296875 2.515625 4.375 2.5625 C 4.34375 2.6875 4.3125 2.816406 4.285156 2.941406 C 4.015625 4.402344 4.128906 5.929688 4.707031 7.300781 C 4.75 7.4375 4.75 7.4375 4.75 7.75 C 4.460938 7.75 4.171875 7.75 3.875 7.75 C 3.855469 7.859375 3.835938 7.972656 3.816406 8.085938 C 3.757812 8.421875 3.757812 8.421875 3.6875 8.5625 C 3.558594 8.621094 3.429688 8.671875 3.296875 8.722656 C 3.191406 8.761719 3.191406 8.761719 3.082031 8.804688 C 2.730469 8.921875 2.730469 8.921875 2.5625 8.9375 C 2.421875 8.867188 2.308594 8.777344 2.183594 8.683594 C 2.0625 8.609375 2.0625 8.609375 1.933594 8.664062 C 1.800781 8.757812 1.71875 8.855469 1.621094 8.984375 C 1.507812 9.101562 1.507812 9.101562 1.375 9.1875 C 1.132812 9.191406 0.917969 9.132812 0.6875 9.0625 C 0.605469 9.042969 0.523438 9.019531 0.4375 9 C 0.4375 8.339844 0.4375 7.679688 0.4375 7 C 1.175781 6.84375 1.175781 6.84375 1.40625 6.796875 C 1.753906 6.730469 1.753906 6.730469 2.019531 6.515625 C 2.070312 6.386719 2.097656 6.261719 2.125 6.125 C 2.152344 6.046875 2.183594 5.96875 2.214844 5.890625 C 2.332031 5.597656 2.332031 5.597656 2.445312 5.304688 C 2.5 5.1875 2.5 5.1875 2.582031 5.070312 C 2.667969 4.9375 2.71875 4.84375 2.75 4.6875 C 2.667969 4.449219 2.527344 4.253906 2.382812 4.046875 C 2.308594 3.9375 2.234375 3.828125 2.160156 3.71875 C 2.125 3.671875 2.09375 3.621094 2.058594 3.574219 C 2 3.4375 2 3.4375 2.035156 3.3125 C 2.144531 3.160156 2.265625 3.035156 2.398438 2.902344 C 2.449219 2.851562 2.503906 2.796875 2.558594 2.742188 C 2.613281 2.6875 2.667969 2.632812 2.726562 2.578125 C 2.78125 2.523438 2.839844 2.46875 2.894531 2.410156 C 3.035156 2.273438 3.171875 2.136719 3.3125 2 Z M 3.3125 2 "/>
<path style=" stroke:none;fill-rule:nonzero;fill:rgb(92.156863%,46.27451%,48.235294%);fill-opacity:1;" d="M 11.125 0.4375 C 11.453125 0.4375 11.785156 0.4375 12.125 0.4375 C 12.3125 0.96875 12.3125 0.96875 12.3125 1.25 C 12.355469 1.261719 12.398438 1.273438 12.441406 1.285156 C 12.496094 1.304688 12.550781 1.320312 12.609375 1.335938 C 12.664062 1.351562 12.71875 1.367188 12.777344 1.382812 C 12.9375 1.4375 12.9375 1.4375 13.070312 1.507812 C 13.253906 1.59375 13.371094 1.554688 13.5625 1.5 C 13.625 1.457031 13.691406 1.414062 13.757812 1.367188 C 13.9375 1.25 13.9375 1.25 14.054688 1.257812 C 14.238281 1.332031 14.347656 1.445312 14.488281 1.582031 C 14.539062 1.628906 14.589844 1.679688 14.640625 1.730469 C 14.75 1.875 14.75 1.875 14.742188 2.003906 C 14.671875 2.160156 14.582031 2.300781 14.484375 2.445312 C 14.382812 2.703125 14.535156 2.984375 14.628906 3.230469 C 14.75 3.546875 14.75 3.546875 14.75 3.6875 C 14.863281 3.699219 14.863281 3.699219 14.980469 3.710938 C 15.207031 3.734375 15.335938 3.785156 15.5625 3.875 C 15.5625 4.203125 15.5625 4.535156 15.5625 4.875 C 14.960938 5.0625 14.960938 5.0625 14.75 5.0625 C 14.6875 5.269531 14.625 5.476562 14.5625 5.6875 C 14.191406 5.769531 13.824219 5.757812 13.445312 5.753906 C 13.34375 5.753906 13.34375 5.753906 13.242188 5.753906 C 13.078125 5.753906 12.914062 5.75 12.75 5.75 C 12.824219 5.59375 12.898438 5.46875 13 5.328125 C 13.257812 4.90625 13.316406 4.425781 13.25 3.9375 C 13.09375 3.457031 12.824219 3.117188 12.382812 2.875 C 11.945312 2.683594 11.449219 2.695312 10.996094 2.824219 C 10.683594 2.957031 10.421875 3.195312 10.1875 3.4375 C 9.953125 3 9.929688 2.652344 9.933594 2.167969 C 9.933594 2.117188 9.933594 2.0625 9.933594 2.007812 C 9.933594 1.882812 9.9375 1.753906 9.9375 1.625 C 10.046875 1.574219 10.152344 1.523438 10.261719 1.472656 C 10.320312 1.445312 10.382812 1.417969 10.445312 1.386719 C 10.609375 1.320312 10.761719 1.277344 10.9375 1.25 C 10.945312 1.203125 10.953125 1.152344 10.960938 1.105469 C 10.972656 1.042969 10.984375 0.980469 10.996094 0.914062 C 11.007812 0.851562 11.019531 0.789062 11.027344 0.726562 C 11.0625 0.5625 11.0625 0.5625 11.125 0.4375 Z M 11.125 0.4375 "/>
<path style=" stroke:none;fill-rule:nonzero;fill:rgb(96.078432%,72.941178%,27.058825%);fill-opacity:1;" d="M 11.652344 2.667969 C 12.121094 2.675781 12.519531 2.816406 12.867188 3.136719 C 13.207031 3.511719 13.351562 3.902344 13.328125 4.40625 C 13.277344 4.90625 13.171875 5.261719 12.8125 5.625 C 12.328125 6 11.859375 6.136719 11.25 6.0625 C 10.703125 5.878906 10.359375 5.550781 10.0625 5.0625 C 9.882812 4.675781 9.867188 4.253906 9.980469 3.839844 C 10.1875 3.339844 10.503906 2.976562 11 2.75 C 11.179688 2.738281 11.179688 2.738281 11.3125 2.75 C 11.414062 2.652344 11.515625 2.671875 11.652344 2.667969 Z M 11.652344 2.667969 "/>
<path style=" stroke:none;fill-rule:nonzero;fill:rgb(99.215686%,66.666669%,1.568628%);fill-opacity:1;" d="M 5.164062 10.101562 C 5.609375 10.363281 5.933594 10.75 6.0625 11.25 C 6.136719 11.785156 6.023438 12.238281 5.730469 12.691406 C 5.476562 13.011719 5.175781 13.175781 4.789062 13.296875 C 4.210938 13.351562 3.734375 13.320312 3.246094 12.96875 C 2.914062 12.671875 2.726562 12.296875 2.667969 11.855469 C 2.664062 11.710938 2.671875 11.578125 2.6875 11.4375 C 2.691406 11.390625 2.699219 11.34375 2.703125 11.296875 C 2.765625 10.917969 2.914062 10.640625 3.1875 10.375 C 3.816406 9.925781 4.4375 9.769531 5.164062 10.101562 Z M 5.164062 10.101562 "/>
</g>
</svg>
