<?xml version="1.0" encoding="UTF-8"?>
<svg xmlns="http://www.w3.org/2000/svg" xmlns:xlink="http://www.w3.org/1999/xlink" width="16" height="16" viewBox="0 0 16 16" version="1.1">
<g id="surface1">
<path style=" stroke:none;fill-rule:nonzero;fill:rgb(99.607843%,61.176473%,0%);fill-opacity:1;" d="M 4.128906 0.421875 C 4.222656 0.421875 4.316406 0.417969 4.410156 0.417969 C 4.664062 0.417969 4.914062 0.417969 5.167969 0.417969 C 5.378906 0.417969 5.589844 0.417969 5.804688 0.417969 C 6.304688 0.417969 6.800781 0.417969 7.300781 0.417969 C 7.816406 0.417969 8.328125 0.417969 8.84375 0.414062 C 9.285156 0.414062 9.730469 0.414062 10.171875 0.414062 C 10.4375 0.414062 10.699219 0.414062 10.964844 0.414062 C 11.210938 0.414062 11.460938 0.414062 11.707031 0.414062 C 11.796875 0.414062 11.890625 0.414062 11.980469 0.414062 C 13.132812 0.40625 14.15625 0.675781 15 1.5 C 15.664062 2.257812 16.019531 3.050781 16.019531 4.054688 C 16.019531 4.113281 16.019531 4.175781 16.019531 4.234375 C 16.019531 4.433594 16.019531 4.628906 16.019531 4.824219 C 16.023438 4.960938 16.023438 5.101562 16.023438 5.238281 C 16.023438 5.523438 16.023438 5.8125 16.023438 6.101562 C 16.023438 6.46875 16.023438 6.835938 16.027344 7.203125 C 16.027344 7.484375 16.027344 7.769531 16.027344 8.054688 C 16.027344 8.1875 16.027344 8.324219 16.03125 8.460938 C 16.039062 9.746094 15.839844 10.75 14.921875 11.71875 C 14.597656 12.015625 14.242188 12.277344 13.8125 12.375 C 13.828125 12.449219 13.828125 12.449219 13.847656 12.523438 C 13.894531 12.742188 13.945312 12.964844 13.996094 13.1875 C 14.011719 13.265625 14.03125 13.339844 14.046875 13.417969 C 14.316406 14.617188 14.316406 14.617188 14.125 15.0625 C 13.90625 15.335938 13.660156 15.523438 13.304688 15.585938 C 12.722656 15.621094 12.320312 15.21875 11.898438 14.867188 C 11.808594 14.792969 11.722656 14.722656 11.632812 14.648438 C 11.589844 14.613281 11.546875 14.578125 11.503906 14.539062 C 11.316406 14.390625 11.128906 14.242188 10.9375 14.09375 C 10.5625 13.800781 10.195312 13.503906 9.828125 13.203125 C 9.789062 13.167969 9.746094 13.136719 9.707031 13.101562 C 9.671875 13.074219 9.636719 13.046875 9.597656 13.015625 C 9.203125 12.707031 8.714844 12.769531 8.230469 12.757812 C 8.113281 12.753906 7.992188 12.75 7.875 12.742188 C 7.175781 12.707031 6.675781 12.730469 6.128906 13.199219 C 6.015625 13.304688 5.902344 13.414062 5.792969 13.523438 C 5.625 13.6875 5.4375 13.828125 5.25 13.96875 C 4.972656 14.183594 4.695312 14.40625 4.425781 14.632812 C 3.257812 15.585938 3.257812 15.585938 2.714844 15.578125 C 2.371094 15.539062 2.136719 15.394531 1.910156 15.140625 C 1.644531 14.585938 1.804688 14.054688 1.929688 13.480469 C 1.949219 13.394531 1.964844 13.308594 1.984375 13.222656 C 2.109375 12.605469 2.109375 12.605469 2.1875 12.375 C 2.152344 12.367188 2.117188 12.363281 2.082031 12.355469 C 1.300781 12.121094 0.753906 11.433594 0.375 10.75 C 0.105469 10.179688 -0.0078125 9.71875 -0.0117188 9.089844 C -0.0117188 9.03125 -0.0117188 8.972656 -0.0117188 8.910156 C -0.0117188 8.710938 -0.015625 8.515625 -0.015625 8.320312 C -0.015625 8.25 -0.015625 8.183594 -0.015625 8.113281 C -0.015625 7.753906 -0.0195312 7.398438 -0.0195312 7.039062 C -0.0195312 6.667969 -0.0234375 6.300781 -0.0234375 5.933594 C -0.0234375 5.648438 -0.0273438 5.363281 -0.0273438 5.078125 C -0.0273438 4.941406 -0.0273438 4.808594 -0.0273438 4.671875 C -0.0390625 3.488281 0.109375 2.453125 0.945312 1.542969 C 1.902344 0.65625 2.863281 0.417969 4.128906 0.421875 Z M 4.128906 0.421875 "/>
<path style=" stroke:none;fill-rule:nonzero;fill:rgb(97.254902%,45.882353%,9.019608%);fill-opacity:1;" d="M 4.128906 0.421875 C 4.222656 0.421875 4.316406 0.417969 4.410156 0.417969 C 4.664062 0.417969 4.914062 0.417969 5.167969 0.417969 C 5.378906 0.417969 5.589844 0.417969 5.804688 0.417969 C 6.304688 0.417969 6.800781 0.417969 7.300781 0.417969 C 7.816406 0.417969 8.328125 0.417969 8.84375 0.414062 C 9.285156 0.414062 9.730469 0.414062 10.171875 0.414062 C 10.4375 0.414062 10.699219 0.414062 10.964844 0.414062 C 11.210938 0.414062 11.460938 0.414062 11.707031 0.414062 C 11.796875 0.414062 11.890625 0.414062 11.980469 0.414062 C 13.132812 0.40625 14.15625 0.675781 15 1.5 C 15.664062 2.257812 16.019531 3.050781 16.019531 4.054688 C 16.019531 4.113281 16.019531 4.175781 16.019531 4.234375 C 16.019531 4.433594 16.019531 4.628906 16.019531 4.824219 C 16.023438 4.960938 16.023438 5.101562 16.023438 5.238281 C 16.023438 5.523438 16.023438 5.8125 16.023438 6.101562 C 16.023438 6.46875 16.023438 6.835938 16.027344 7.203125 C 16.027344 7.484375 16.027344 7.769531 16.027344 8.054688 C 16.027344 8.1875 16.027344 8.324219 16.03125 8.460938 C 16.039062 9.746094 15.839844 10.75 14.921875 11.71875 C 14.597656 12.015625 14.242188 12.277344 13.8125 12.375 C 13.828125 12.449219 13.828125 12.449219 13.847656 12.523438 C 13.894531 12.742188 13.945312 12.964844 13.996094 13.1875 C 14.011719 13.265625 14.03125 13.339844 14.046875 13.417969 C 14.316406 14.617188 14.316406 14.617188 14.125 15.0625 C 13.90625 15.335938 13.660156 15.523438 13.304688 15.585938 C 12.722656 15.621094 12.320312 15.21875 11.898438 14.867188 C 11.808594 14.792969 11.722656 14.722656 11.632812 14.648438 C 11.589844 14.613281 11.546875 14.578125 11.503906 14.539062 C 11.316406 14.390625 11.128906 14.242188 10.9375 14.09375 C 10.5625 13.800781 10.195312 13.503906 9.828125 13.203125 C 9.789062 13.167969 9.746094 13.136719 9.707031 13.101562 C 9.671875 13.074219 9.636719 13.046875 9.597656 13.015625 C 9.203125 12.707031 8.714844 12.769531 8.230469 12.757812 C 8.113281 12.753906 7.992188 12.75 7.875 12.742188 C 7.175781 12.707031 6.675781 12.730469 6.128906 13.199219 C 6.015625 13.304688 5.902344 13.414062 5.792969 13.523438 C 5.625 13.6875 5.4375 13.828125 5.25 13.96875 C 4.972656 14.183594 4.695312 14.40625 4.425781 14.632812 C 3.257812 15.585938 3.257812 15.585938 2.714844 15.578125 C 2.371094 15.539062 2.136719 15.394531 1.910156 15.140625 C 1.644531 14.585938 1.804688 14.054688 1.929688 13.480469 C 1.949219 13.394531 1.964844 13.308594 1.984375 13.222656 C 2.109375 12.605469 2.109375 12.605469 2.1875 12.375 C 2.152344 12.367188 2.117188 12.363281 2.082031 12.355469 C 1.300781 12.121094 0.753906 11.433594 0.375 10.75 C 0.105469 10.179688 -0.0078125 9.71875 -0.0117188 9.089844 C -0.0117188 9.03125 -0.0117188 8.972656 -0.0117188 8.910156 C -0.0117188 8.710938 -0.015625 8.515625 -0.015625 8.320312 C -0.015625 8.25 -0.015625 8.183594 -0.015625 8.113281 C -0.015625 7.753906 -0.0195312 7.398438 -0.0195312 7.039062 C -0.0195312 6.667969 -0.0234375 6.300781 -0.0234375 5.933594 C -0.0234375 5.648438 -0.0273438 5.363281 -0.0273438 5.078125 C -0.0273438 4.941406 -0.0273438 4.808594 -0.0273438 4.671875 C -0.0390625 3.488281 0.109375 2.453125 0.945312 1.542969 C 1.902344 0.65625 2.863281 0.417969 4.128906 0.421875 Z M 1.234375 1.925781 C 1.042969 2.164062 0.894531 2.421875 0.75 2.6875 C 0.714844 2.75 0.679688 2.8125 0.640625 2.878906 C 0.398438 3.449219 0.417969 4.039062 0.417969 4.648438 C 0.417969 4.75 0.417969 4.847656 0.417969 4.949219 C 0.417969 5.15625 0.417969 5.363281 0.417969 5.570312 C 0.417969 5.835938 0.417969 6.101562 0.414062 6.367188 C 0.414062 6.570312 0.414062 6.777344 0.414062 6.980469 C 0.414062 7.078125 0.414062 7.175781 0.414062 7.273438 C 0.40625 8.398438 0.605469 9.324219 1.398438 10.164062 C 2.03125 10.734375 2.792969 11.070312 3.644531 11.070312 C 3.761719 11.070312 3.761719 11.070312 3.882812 11.070312 C 3.972656 11.070312 4.058594 11.070312 4.148438 11.074219 C 4.238281 11.074219 4.332031 11.074219 4.425781 11.074219 C 4.675781 11.074219 4.925781 11.074219 5.175781 11.074219 C 5.335938 11.074219 5.492188 11.074219 5.648438 11.074219 C 6.140625 11.078125 6.632812 11.078125 7.125 11.078125 C 7.691406 11.078125 8.257812 11.078125 8.824219 11.082031 C 9.265625 11.082031 9.703125 11.082031 10.140625 11.082031 C 10.402344 11.082031 10.664062 11.082031 10.925781 11.085938 C 11.175781 11.085938 11.421875 11.085938 11.667969 11.085938 C 11.757812 11.085938 11.847656 11.085938 11.9375 11.085938 C 13.015625 11.09375 13.925781 10.816406 14.714844 10.054688 C 15.453125 9.214844 15.59375 8.273438 15.585938 7.1875 C 15.585938 7.089844 15.585938 6.988281 15.585938 6.886719 C 15.589844 6.675781 15.585938 6.464844 15.585938 6.253906 C 15.585938 5.988281 15.585938 5.71875 15.585938 5.453125 C 15.589844 5.242188 15.585938 5.035156 15.585938 4.828125 C 15.585938 4.726562 15.585938 4.628906 15.585938 4.53125 C 15.589844 3.441406 15.359375 2.578125 14.59375 1.769531 C 13.949219 1.175781 13.15625 0.867188 12.289062 0.867188 C 12.167969 0.867188 12.167969 0.867188 12.046875 0.863281 C 11.960938 0.863281 11.871094 0.863281 11.785156 0.863281 C 11.695312 0.863281 11.601562 0.863281 11.507812 0.863281 C 11.207031 0.863281 10.902344 0.859375 10.601562 0.859375 C 10.496094 0.859375 10.390625 0.859375 10.289062 0.859375 C 9.796875 0.859375 9.304688 0.855469 8.8125 0.855469 C 8.25 0.855469 7.683594 0.855469 7.117188 0.851562 C 6.679688 0.851562 6.242188 0.847656 5.804688 0.847656 C 5.542969 0.847656 5.28125 0.847656 5.023438 0.847656 C 4.773438 0.84375 4.527344 0.84375 4.285156 0.84375 C 4.195312 0.84375 4.105469 0.84375 4.015625 0.84375 C 2.957031 0.835938 1.972656 1.136719 1.234375 1.925781 Z M 1.234375 1.925781 "/>
<path style=" stroke:none;fill-rule:nonzero;fill:rgb(1.176471%,0.392157%,0%);fill-opacity:1;" d="M 4.128906 0.421875 C 4.222656 0.421875 4.316406 0.417969 4.410156 0.417969 C 4.664062 0.417969 4.914062 0.417969 5.167969 0.417969 C 5.378906 0.417969 5.589844 0.417969 5.804688 0.417969 C 6.304688 0.417969 6.800781 0.417969 7.300781 0.417969 C 7.816406 0.417969 8.328125 0.417969 8.84375 0.414062 C 9.285156 0.414062 9.730469 0.414062 10.171875 0.414062 C 10.4375 0.414062 10.699219 0.414062 10.964844 0.414062 C 11.210938 0.414062 11.460938 0.414062 11.707031 0.414062 C 11.796875 0.414062 11.890625 0.414062 11.980469 0.414062 C 13.132812 0.40625 14.15625 0.675781 15 1.5 C 15.664062 2.257812 16.019531 3.050781 16.019531 4.054688 C 16.019531 4.113281 16.019531 4.175781 16.019531 4.234375 C 16.019531 4.433594 16.019531 4.628906 16.019531 4.824219 C 16.023438 4.960938 16.023438 5.101562 16.023438 5.238281 C 16.023438 5.523438 16.023438 5.8125 16.023438 6.101562 C 16.023438 6.46875 16.023438 6.835938 16.027344 7.203125 C 16.027344 7.484375 16.027344 7.769531 16.027344 8.054688 C 16.027344 8.1875 16.027344 8.324219 16.03125 8.460938 C 16.039062 9.746094 15.839844 10.75 14.921875 11.71875 C 14.597656 12.015625 14.242188 12.277344 13.8125 12.375 C 13.828125 12.449219 13.828125 12.449219 13.847656 12.523438 C 13.894531 12.742188 13.945312 12.964844 13.996094 13.1875 C 14.011719 13.265625 14.03125 13.339844 14.046875 13.417969 C 14.316406 14.617188 14.316406 14.617188 14.125 15.0625 C 13.90625 15.335938 13.660156 15.523438 13.304688 15.585938 C 12.722656 15.621094 12.320312 15.21875 11.898438 14.867188 C 11.808594 14.792969 11.722656 14.722656 11.632812 14.648438 C 11.589844 14.613281 11.546875 14.578125 11.503906 14.539062 C 11.316406 14.390625 11.128906 14.242188 10.9375 14.09375 C 10.5625 13.800781 10.195312 13.503906 9.828125 13.203125 C 9.789062 13.167969 9.746094 13.136719 9.707031 13.101562 C 9.671875 13.074219 9.636719 13.046875 9.597656 13.015625 C 9.203125 12.707031 8.714844 12.769531 8.230469 12.757812 C 8.113281 12.753906 7.992188 12.75 7.875 12.742188 C 7.175781 12.707031 6.675781 12.730469 6.128906 13.199219 C 6.015625 13.304688 5.902344 13.414062 5.792969 13.523438 C 5.625 13.6875 5.4375 13.828125 5.25 13.96875 C 4.972656 14.183594 4.695312 14.40625 4.425781 14.632812 C 3.257812 15.585938 3.257812 15.585938 2.714844 15.578125 C 2.371094 15.539062 2.136719 15.394531 1.910156 15.140625 C 1.644531 14.585938 1.804688 14.054688 1.929688 13.480469 C 1.949219 13.394531 1.964844 13.308594 1.984375 13.222656 C 2.109375 12.605469 2.109375 12.605469 2.1875 12.375 C 2.152344 12.367188 2.117188 12.363281 2.082031 12.355469 C 1.300781 12.121094 0.753906 11.433594 0.375 10.75 C 0.105469 10.179688 -0.0078125 9.71875 -0.0117188 9.089844 C -0.0117188 9.03125 -0.0117188 8.972656 -0.0117188 8.910156 C -0.0117188 8.710938 -0.015625 8.515625 -0.015625 8.320312 C -0.015625 8.25 -0.015625 8.183594 -0.015625 8.113281 C -0.015625 7.753906 -0.0195312 7.398438 -0.0195312 7.039062 C -0.0195312 6.667969 -0.0234375 6.300781 -0.0234375 5.933594 C -0.0234375 5.648438 -0.0273438 5.363281 -0.0273438 5.078125 C -0.0273438 4.941406 -0.0273438 4.808594 -0.0273438 4.671875 C -0.0390625 3.488281 0.109375 2.453125 0.945312 1.542969 C 1.902344 0.65625 2.863281 0.417969 4.128906 0.421875 Z M 1.234375 1.925781 C 1.042969 2.164062 0.894531 2.421875 0.75 2.6875 C 0.714844 2.75 0.679688 2.8125 0.640625 2.878906 C 0.453125 3.316406 0.417969 3.757812 0.417969 4.226562 C 0.417969 4.285156 0.417969 4.34375 0.417969 4.402344 C 0.417969 4.589844 0.417969 4.777344 0.417969 4.964844 C 0.414062 5.097656 0.414062 5.230469 0.414062 5.363281 C 0.414062 5.636719 0.414062 5.914062 0.414062 6.191406 C 0.414062 6.542969 0.414062 6.894531 0.410156 7.246094 C 0.410156 7.519531 0.410156 7.789062 0.410156 8.0625 C 0.410156 8.191406 0.410156 8.320312 0.40625 8.453125 C 0.398438 9.5625 0.554688 10.480469 1.328125 11.335938 C 1.707031 11.691406 2.144531 11.9375 2.625 12.125 C 2.566406 12.550781 2.496094 12.96875 2.402344 13.386719 C 2.183594 14.183594 2.183594 14.183594 2.367188 14.941406 C 2.527344 15.085938 2.585938 15.121094 2.800781 15.140625 C 3.035156 15.121094 3.117188 15.070312 3.300781 14.929688 C 3.359375 14.882812 3.417969 14.839844 3.480469 14.792969 C 3.816406 14.523438 4.152344 14.246094 4.484375 13.96875 C 4.746094 13.75 5.015625 13.535156 5.289062 13.328125 C 5.476562 13.183594 5.65625 13.039062 5.820312 12.867188 C 6.375 12.335938 6.851562 12.203125 7.613281 12.203125 C 7.675781 12.207031 7.738281 12.207031 7.804688 12.207031 C 7.992188 12.210938 8.179688 12.207031 8.367188 12.199219 C 9.199219 12.191406 9.675781 12.386719 10.273438 12.964844 C 10.332031 13.023438 10.332031 13.023438 10.386719 13.078125 C 10.5625 13.246094 10.75 13.390625 10.941406 13.535156 C 11.21875 13.75 11.488281 13.96875 11.761719 14.191406 C 12.238281 14.582031 12.238281 14.582031 12.726562 14.957031 C 12.792969 15.007812 12.792969 15.007812 12.863281 15.058594 C 13.042969 15.144531 13.175781 15.144531 13.375 15.125 C 13.542969 15.011719 13.660156 14.933594 13.75 14.75 C 13.808594 14.21875 13.675781 13.707031 13.5625 13.191406 C 13.527344 13.03125 13.492188 12.867188 13.457031 12.707031 C 13.433594 12.597656 13.433594 12.597656 13.410156 12.492188 C 13.375 12.3125 13.375 12.3125 13.375 12.125 C 13.433594 12.097656 13.488281 12.070312 13.550781 12.042969 C 14.496094 11.597656 15.046875 11.03125 15.441406 10.042969 C 15.523438 9.8125 15.570312 9.613281 15.570312 9.371094 C 15.570312 9.320312 15.570312 9.273438 15.570312 9.222656 C 15.570312 9.167969 15.570312 9.113281 15.574219 9.054688 C 15.574219 9 15.574219 8.941406 15.574219 8.882812 C 15.574219 8.691406 15.574219 8.503906 15.574219 8.3125 C 15.574219 8.179688 15.574219 8.046875 15.574219 7.914062 C 15.578125 7.636719 15.578125 7.359375 15.578125 7.082031 C 15.578125 6.726562 15.578125 6.371094 15.582031 6.015625 C 15.582031 5.742188 15.582031 5.46875 15.582031 5.195312 C 15.582031 5.0625 15.582031 4.933594 15.585938 4.800781 C 15.589844 3.601562 15.449219 2.671875 14.59375 1.769531 C 13.949219 1.175781 13.15625 0.867188 12.289062 0.867188 C 12.167969 0.867188 12.167969 0.867188 12.046875 0.863281 C 11.960938 0.863281 11.871094 0.863281 11.785156 0.863281 C 11.695312 0.863281 11.601562 0.863281 11.507812 0.863281 C 11.207031 0.863281 10.902344 0.859375 10.601562 0.859375 C 10.496094 0.859375 10.390625 0.859375 10.289062 0.859375 C 9.796875 0.859375 9.304688 0.855469 8.8125 0.855469 C 8.25 0.855469 7.683594 0.855469 7.117188 0.851562 C 6.679688 0.851562 6.242188 0.847656 5.804688 0.847656 C 5.542969 0.847656 5.28125 0.847656 5.023438 0.847656 C 4.773438 0.84375 4.527344 0.84375 4.285156 0.84375 C 4.195312 0.84375 4.105469 0.84375 4.015625 0.84375 C 2.957031 0.835938 1.972656 1.136719 1.234375 1.925781 Z M 1.234375 1.925781 "/>
<path style=" stroke:none;fill-rule:nonzero;fill:rgb(3.529412%,2.745098%,0.784314%);fill-opacity:1;" d="M 11.796875 5.210938 C 12.058594 5.398438 12.230469 5.648438 12.375 5.9375 C 12.429688 6.476562 12.394531 6.929688 12.0625 7.375 C 11.675781 7.742188 11.296875 7.773438 10.78125 7.769531 C 10.394531 7.734375 10.183594 7.5625 9.917969 7.289062 C 9.65625 6.882812 9.558594 6.546875 9.625 6.0625 C 9.761719 5.589844 10.113281 5.28125 10.523438 5.035156 C 10.996094 4.933594 11.371094 4.976562 11.796875 5.210938 Z M 11.796875 5.210938 "/>
<path style=" stroke:none;fill-rule:nonzero;fill:rgb(3.137255%,2.352941%,0.784314%);fill-opacity:1;" d="M 5.574219 5.128906 C 5.921875 5.320312 6.136719 5.558594 6.335938 5.894531 C 6.445312 6.363281 6.398438 6.746094 6.164062 7.171875 C 5.960938 7.453125 5.703125 7.640625 5.375 7.75 C 4.882812 7.800781 4.453125 7.816406 4.054688 7.496094 C 3.730469 7.15625 3.605469 6.804688 3.582031 6.339844 C 3.601562 5.933594 3.714844 5.664062 4 5.375 C 4.488281 4.992188 4.992188 4.863281 5.574219 5.128906 Z M 5.574219 5.128906 "/>
<path style=" stroke:none;fill-rule:nonzero;fill:rgb(3.137255%,2.352941%,1.176471%);fill-opacity:1;" d="M 8.695312 5.164062 C 8.980469 5.375 9.242188 5.664062 9.375 6 C 9.425781 6.40625 9.414062 6.835938 9.1875 7.1875 C 8.898438 7.503906 8.617188 7.722656 8.183594 7.773438 C 7.652344 7.785156 7.351562 7.710938 6.96875 7.347656 C 6.648438 6.996094 6.589844 6.628906 6.601562 6.171875 C 6.660156 5.746094 6.945312 5.457031 7.269531 5.199219 C 7.695312 4.898438 8.246094 4.90625 8.695312 5.164062 Z M 8.695312 5.164062 "/>
<path style=" stroke:none;fill-rule:nonzero;fill:rgb(87.450981%,89.411765%,80.784315%);fill-opacity:1;" d="M 5.386719 5.507812 C 5.628906 5.667969 5.804688 5.859375 5.9375 6.125 C 5.972656 6.414062 5.964844 6.632812 5.832031 6.894531 C 5.582031 7.1875 5.378906 7.351562 4.988281 7.398438 C 4.675781 7.367188 4.484375 7.269531 4.25 7.0625 C 4.058594 6.820312 3.980469 6.585938 3.992188 6.277344 C 4.042969 5.96875 4.203125 5.761719 4.4375 5.5625 C 4.746094 5.375 5.054688 5.390625 5.386719 5.507812 Z M 5.386719 5.507812 "/>
<path style=" stroke:none;fill-rule:nonzero;fill:rgb(87.450981%,89.803922%,80.784315%);fill-opacity:1;" d="M 11.3125 5.4375 C 11.519531 5.542969 11.519531 5.542969 11.6875 5.6875 C 11.734375 5.730469 11.785156 5.769531 11.835938 5.8125 C 12 6.113281 11.980469 6.414062 11.9375 6.75 C 11.804688 7.0625 11.617188 7.199219 11.316406 7.332031 C 11.113281 7.398438 10.960938 7.40625 10.75 7.375 C 10.421875 7.199219 10.183594 6.984375 10.0625 6.625 C 10.035156 6.292969 10.046875 6.066406 10.230469 5.785156 C 10.515625 5.449219 10.886719 5.359375 11.3125 5.4375 Z M 11.3125 5.4375 "/>
<path style=" stroke:none;fill-rule:nonzero;fill:rgb(87.450981%,89.803922%,80.784315%);fill-opacity:1;" d="M 8.320312 5.480469 C 8.621094 5.613281 8.800781 5.757812 8.9375 6.0625 C 8.992188 6.414062 8.976562 6.734375 8.773438 7.03125 C 8.550781 7.269531 8.28125 7.363281 7.964844 7.40625 C 7.59375 7.351562 7.390625 7.226562 7.160156 6.929688 C 7.019531 6.648438 7.011719 6.367188 7.0625 6.0625 C 7.316406 5.539062 7.761719 5.300781 8.320312 5.480469 Z M 8.320312 5.480469 "/>
</g>
</svg>
