<?xml version="1.0" encoding="UTF-8"?>
<svg xmlns="http://www.w3.org/2000/svg" xmlns:xlink="http://www.w3.org/1999/xlink" width="16" height="16" viewBox="0 0 16 16" version="1.1">
<g id="surface1">
<path style=" stroke:none;fill-rule:nonzero;fill:rgb(94.509804%,38.039216%,38.039216%);fill-opacity:1;" d="M 6.359375 5.015625 C 7.175781 5.664062 7.746094 6.527344 7.9375 7.5625 C 8.179688 9.867188 6.539062 12.097656 5.25 13.875 C 5.332031 13.902344 5.332031 13.902344 5.414062 13.929688 C 6.351562 14.265625 6.351562 14.265625 6.5625 14.6875 C 6.605469 15.128906 6.605469 15.128906 6.441406 15.355469 C 5.695312 15.921875 4.902344 16.035156 3.976562 16.027344 C 3.898438 16.027344 3.816406 16.027344 3.734375 16.027344 C 2.917969 16.011719 2.160156 15.898438 1.5 15.375 C 1.34375 15.144531 1.328125 14.957031 1.375 14.6875 C 1.671875 14.203125 2.175781 14.058594 2.6875 13.875 C 2.65625 13.828125 2.625 13.785156 2.589844 13.738281 C -0.296875 9.625 -0.296875 9.625 0.0195312 7.429688 C 0.226562 6.394531 0.875 5.523438 1.722656 4.90625 C 3.148438 4.011719 4.988281 4.015625 6.359375 5.015625 Z M 2.167969 6.765625 C 1.777344 7.226562 1.597656 7.792969 1.609375 8.398438 C 1.675781 9.066406 1.941406 9.59375 2.429688 10.046875 C 2.929688 10.449219 3.546875 10.667969 4.1875 10.625 C 4.847656 10.503906 5.414062 10.230469 5.839844 9.703125 C 6.191406 9.1875 6.378906 8.625 6.3125 8 C 6.148438 7.242188 5.820312 6.703125 5.1875 6.25 C 4.125 5.664062 2.992188 5.90625 2.167969 6.765625 Z M 2.167969 6.765625 "/>
<path style=" stroke:none;fill-rule:nonzero;fill:rgb(7.058824%,72.549021%,46.27451%);fill-opacity:1;" d="M 15.179688 0.382812 C 15.570312 0.671875 15.90625 1.207031 16 1.6875 C 16.140625 3.03125 15.339844 4.175781 14.625 5.25 C 14.660156 5.269531 14.695312 5.292969 14.730469 5.3125 C 14.773438 5.34375 14.820312 5.371094 14.867188 5.398438 C 14.914062 5.425781 14.957031 5.453125 15.003906 5.480469 C 15.125 5.5625 15.125 5.5625 15.25 5.6875 C 15.277344 5.902344 15.28125 6.019531 15.15625 6.199219 C 14.636719 6.574219 13.992188 6.605469 13.375 6.5625 C 12.546875 6.429688 12.546875 6.429688 12.3125 6.125 C 12.269531 5.910156 12.269531 5.910156 12.3125 5.6875 C 12.503906 5.492188 12.695312 5.367188 12.9375 5.25 C 12.90625 5.203125 12.90625 5.203125 12.875 5.15625 C 11.332031 2.78125 11.332031 2.78125 11.5625 1.625 C 11.796875 0.863281 12.285156 0.4375 12.96875 0.0703125 C 13.71875 -0.179688 14.523438 -0.015625 15.179688 0.382812 Z M 12.820312 1.4375 C 12.550781 1.820312 12.523438 2.097656 12.5625 2.5625 C 12.675781 2.925781 12.949219 3.15625 13.25 3.375 C 13.578125 3.484375 13.945312 3.507812 14.273438 3.378906 C 14.621094 3.167969 14.890625 2.902344 15 2.5 C 15.050781 2.09375 14.988281 1.773438 14.75 1.4375 C 14.476562 1.144531 14.191406 0.996094 13.792969 0.976562 C 13.394531 0.988281 13.082031 1.136719 12.820312 1.4375 Z M 12.820312 1.4375 "/>
<path style=" stroke:none;fill-rule:nonzero;fill:rgb(3.529412%,1.960784%,1.176471%);fill-opacity:1;" d="M 6.359375 5.015625 C 7.175781 5.664062 7.746094 6.527344 7.9375 7.5625 C 8.179688 9.867188 6.539062 12.097656 5.25 13.875 C 5.332031 13.902344 5.332031 13.902344 5.414062 13.929688 C 6.351562 14.265625 6.351562 14.265625 6.5625 14.6875 C 6.605469 15.128906 6.605469 15.128906 6.441406 15.355469 C 5.695312 15.921875 4.902344 16.035156 3.976562 16.027344 C 3.898438 16.027344 3.816406 16.027344 3.734375 16.027344 C 2.917969 16.011719 2.160156 15.898438 1.5 15.375 C 1.34375 15.144531 1.328125 14.957031 1.375 14.6875 C 1.671875 14.203125 2.175781 14.058594 2.6875 13.875 C 2.65625 13.828125 2.625 13.785156 2.589844 13.738281 C -0.296875 9.625 -0.296875 9.625 0.0195312 7.429688 C 0.226562 6.394531 0.875 5.523438 1.722656 4.90625 C 3.148438 4.011719 4.988281 4.015625 6.359375 5.015625 Z M 2.4375 4.75 C 2.375 4.78125 2.3125 4.8125 2.25 4.84375 C 1.246094 5.386719 0.574219 6.214844 0.238281 7.300781 C -0.0078125 8.570312 0.398438 9.640625 0.992188 10.742188 C 1.066406 10.882812 1.140625 11.023438 1.210938 11.164062 C 1.667969 12.023438 2.199219 12.824219 2.75 13.625 C 2.804688 13.707031 2.804688 13.707031 2.863281 13.789062 C 2.964844 13.9375 3.066406 14.085938 3.167969 14.234375 C 3.199219 14.277344 3.226562 14.320312 3.257812 14.363281 C 3.417969 14.59375 3.574219 14.78125 3.8125 14.9375 C 4.03125 14.960938 4.03125 14.960938 4.25 14.875 C 4.589844 14.566406 4.839844 14.148438 5.097656 13.773438 C 5.140625 13.710938 5.183594 13.648438 5.230469 13.582031 C 7.246094 10.75 7.246094 10.75 7.722656 7.425781 C 7.457031 6.367188 6.796875 5.503906 5.875 4.9375 C 4.875 4.414062 3.476562 4.21875 2.4375 4.75 Z M 2.4375 4.75 "/>
<path style=" stroke:none;fill-rule:nonzero;fill:rgb(0.784314%,2.745098%,1.960784%);fill-opacity:1;" d="M 15.179688 0.382812 C 15.570312 0.671875 15.90625 1.207031 16 1.6875 C 16.140625 3.03125 15.339844 4.175781 14.625 5.25 C 14.660156 5.269531 14.695312 5.292969 14.730469 5.3125 C 14.773438 5.34375 14.820312 5.371094 14.867188 5.398438 C 14.914062 5.425781 14.957031 5.453125 15.003906 5.480469 C 15.125 5.5625 15.125 5.5625 15.25 5.6875 C 15.277344 5.902344 15.28125 6.019531 15.15625 6.199219 C 14.636719 6.574219 13.992188 6.605469 13.375 6.5625 C 12.546875 6.429688 12.546875 6.429688 12.3125 6.125 C 12.269531 5.910156 12.269531 5.910156 12.3125 5.6875 C 12.503906 5.492188 12.695312 5.367188 12.9375 5.25 C 12.90625 5.203125 12.90625 5.203125 12.875 5.15625 C 11.332031 2.78125 11.332031 2.78125 11.5625 1.625 C 11.796875 0.863281 12.285156 0.4375 12.96875 0.0703125 C 13.71875 -0.179688 14.523438 -0.015625 15.179688 0.382812 Z M 12.101562 0.980469 C 11.734375 1.503906 11.636719 2.058594 11.75 2.6875 C 11.851562 3.019531 12.019531 3.320312 12.1875 3.625 C 12.21875 3.683594 12.246094 3.742188 12.277344 3.804688 C 12.863281 5 12.863281 5 13.761719 5.859375 C 13.800781 5.863281 13.835938 5.871094 13.875 5.875 C 14.589844 5.058594 15.144531 4.09375 15.625 3.125 C 15.648438 3.078125 15.671875 3.035156 15.695312 2.988281 C 15.910156 2.53125 15.894531 1.953125 15.746094 1.476562 C 15.5 0.933594 15.128906 0.542969 14.589844 0.28125 C 13.65625 -0.0390625 12.71875 0.203125 12.101562 0.980469 Z M 12.101562 0.980469 "/>
<path style=" stroke:none;fill-rule:nonzero;fill:rgb(98.039216%,79.215688%,15.686275%);fill-opacity:1;" d="M 3 14.1875 C 3.109375 14.3125 3.199219 14.425781 3.292969 14.5625 C 3.453125 14.820312 3.453125 14.820312 3.6875 15 C 3.96875 15.039062 4.179688 15.050781 4.414062 14.878906 C 4.5 14.769531 4.582031 14.65625 4.660156 14.539062 C 4.765625 14.386719 4.867188 14.253906 5 14.125 C 5.445312 14.070312 5.875 14.332031 6.25 14.5625 C 6.375 14.75 6.375 14.75 6.371094 14.964844 C 6.300781 15.234375 6.226562 15.28125 6 15.4375 C 5.808594 15.527344 5.808594 15.527344 5.605469 15.605469 C 5.539062 15.632812 5.472656 15.65625 5.402344 15.683594 C 4.386719 15.996094 2.941406 15.96875 1.992188 15.46875 C 1.828125 15.371094 1.6875 15.273438 1.5625 15.125 C 1.53125 14.945312 1.53125 14.945312 1.5625 14.75 C 1.8125 14.421875 2.15625 14.253906 2.542969 14.136719 C 2.71875 14.121094 2.828125 14.128906 3 14.1875 Z M 3 14.1875 "/>
<path style=" stroke:none;fill-rule:nonzero;fill:rgb(4.313726%,1.568628%,1.568628%);fill-opacity:1;" d="M 5.28125 6.082031 C 5.894531 6.460938 6.304688 7.015625 6.476562 7.71875 C 6.574219 8.367188 6.496094 9.046875 6.144531 9.609375 C 5.753906 10.136719 5.367188 10.457031 4.75 10.6875 C 4.6875 10.710938 4.628906 10.734375 4.566406 10.757812 C 3.972656 10.929688 3.363281 10.820312 2.8125 10.5625 C 2.628906 10.453125 2.472656 10.328125 2.3125 10.1875 C 2.230469 10.117188 2.230469 10.117188 2.148438 10.042969 C 1.613281 9.4375 1.414062 8.859375 1.425781 8.050781 C 1.472656 7.390625 1.789062 6.800781 2.273438 6.351562 C 3.15625 5.617188 4.269531 5.546875 5.28125 6.082031 Z M 2.167969 6.765625 C 1.777344 7.226562 1.597656 7.796875 1.609375 8.394531 C 1.675781 9.066406 1.941406 9.59375 2.429688 10.046875 C 2.929688 10.453125 3.546875 10.667969 4.1875 10.625 C 4.847656 10.503906 5.414062 10.230469 5.839844 9.703125 C 6.191406 9.1875 6.378906 8.625 6.3125 8 C 6.148438 7.242188 5.820312 6.703125 5.1875 6.25 C 4.125 5.664062 2.992188 5.90625 2.167969 6.765625 Z M 2.167969 6.765625 "/>
<path style=" stroke:none;fill-rule:nonzero;fill:rgb(6.666667%,66.274512%,42.745098%);fill-opacity:1;" d="M 14.125 0.1875 C 14.8125 0.347656 15.246094 0.652344 15.625 1.25 C 15.878906 1.664062 15.890625 2.148438 15.8125 2.625 C 15.714844 2.980469 15.546875 3.304688 15.375 3.625 C 15.351562 3.667969 15.328125 3.710938 15.304688 3.753906 C 14.910156 4.480469 14.460938 5.289062 13.875 5.875 C 13.742188 5.851562 13.742188 5.851562 13.625 5.8125 C 13.625 5.578125 13.6875 5.523438 13.832031 5.339844 C 15 3.777344 15 3.777344 15.375 1.9375 C 15.265625 1.367188 15.019531 0.890625 14.550781 0.539062 C 14.511719 0.511719 14.46875 0.484375 14.425781 0.457031 C 14.3125 0.375 14.21875 0.289062 14.125 0.1875 Z M 14.125 0.1875 "/>
<path style=" stroke:none;fill-rule:nonzero;fill:rgb(0%,2.745098%,1.568628%);fill-opacity:1;" d="M 14.367188 0.882812 C 14.765625 1.101562 15.039062 1.371094 15.1875 1.8125 C 15.242188 2.335938 15.191406 2.757812 14.875 3.1875 C 14.457031 3.59375 14.089844 3.65625 13.519531 3.648438 C 13.078125 3.597656 12.796875 3.335938 12.527344 2.996094 C 12.292969 2.609375 12.304688 2.167969 12.40625 1.738281 C 12.539062 1.390625 12.777344 1.105469 13.09375 0.914062 C 13.496094 0.734375 13.957031 0.722656 14.367188 0.882812 Z M 12.820312 1.4375 C 12.550781 1.820312 12.519531 2.097656 12.5625 2.5625 C 12.675781 2.925781 12.949219 3.15625 13.25 3.375 C 13.578125 3.484375 13.945312 3.507812 14.273438 3.378906 C 14.621094 3.167969 14.890625 2.902344 15 2.5 C 15.050781 2.09375 14.988281 1.773438 14.75 1.4375 C 14.476562 1.144531 14.191406 0.996094 13.792969 0.976562 C 13.394531 0.988281 13.082031 1.136719 12.820312 1.4375 Z M 12.820312 1.4375 "/>
<path style=" stroke:none;fill-rule:nonzero;fill:rgb(90.588236%,89.803922%,89.803922%);fill-opacity:1;" d="M 13.25 5.5625 C 13.296875 5.625 13.347656 5.6875 13.398438 5.753906 C 13.546875 5.957031 13.546875 5.957031 13.78125 5.988281 C 14.019531 5.933594 14.046875 5.90625 14.183594 5.71875 C 14.226562 5.648438 14.269531 5.574219 14.3125 5.5 C 14.609375 5.53125 14.816406 5.578125 15.0625 5.75 C 15.0625 5.890625 15.0625 5.890625 15 6.0625 C 14.5 6.417969 13.902344 6.421875 13.3125 6.375 C 13.011719 6.300781 12.722656 6.222656 12.5 6 C 12.5 5.847656 12.5 5.847656 12.5625 5.6875 C 12.800781 5.523438 12.976562 5.441406 13.25 5.5625 Z M 13.25 5.5625 "/>
<path style=" stroke:none;fill-rule:nonzero;fill:rgb(98.039216%,62.352943%,62.352943%);fill-opacity:1;" d="M 1.734375 5.726562 C 1.875 5.75 1.875 5.75 1.9375 5.8125 C 1.964844 6.023438 1.945312 6.113281 1.835938 6.292969 C 1.765625 6.382812 1.765625 6.382812 1.699219 6.46875 C 1.566406 6.640625 1.445312 6.800781 1.339844 6.988281 C 1.308594 7.035156 1.28125 7.078125 1.25 7.125 C 1.050781 7.144531 1.050781 7.144531 0.875 7.125 C 0.816406 6.902344 0.796875 6.789062 0.890625 6.574219 C 1.441406 5.765625 1.441406 5.765625 1.734375 5.726562 Z M 1.734375 5.726562 "/>
<path style=" stroke:none;fill-rule:nonzero;fill:rgb(0.784314%,0.784314%,0.784314%);fill-opacity:1;" d="M 10.0625 5.875 C 10.183594 5.976562 10.183594 5.976562 10.25 6.125 C 10.253906 6.394531 10.203125 6.480469 10.019531 6.679688 C 9.796875 6.824219 9.699219 6.859375 9.4375 6.8125 C 9.316406 6.746094 9.316406 6.746094 9.25 6.625 C 9.246094 6.335938 9.28125 6.21875 9.480469 6.003906 C 9.703125 5.863281 9.804688 5.824219 10.0625 5.875 Z M 10.0625 5.875 "/>
<path style=" stroke:none;fill-rule:nonzero;fill:rgb(0%,0%,0%);fill-opacity:1;" d="M 11.3125 5.5625 C 11.472656 5.632812 11.472656 5.632812 11.5625 5.75 C 11.589844 5.945312 11.605469 6.066406 11.488281 6.230469 C 11.332031 6.34375 11.222656 6.335938 11.03125 6.335938 C 10.972656 6.335938 10.910156 6.335938 10.847656 6.335938 C 10.6875 6.3125 10.6875 6.3125 10.574219 6.230469 C 10.457031 6.066406 10.472656 5.945312 10.5 5.75 C 10.699219 5.492188 11.015625 5.523438 11.3125 5.5625 Z M 11.3125 5.5625 "/>
<path style=" stroke:none;fill-rule:nonzero;fill:rgb(0.784314%,0.784314%,0.784314%);fill-opacity:1;" d="M 13.75 14.0625 C 13.875 14.1875 13.875 14.1875 13.910156 14.394531 C 13.871094 14.640625 13.863281 14.667969 13.679688 14.808594 C 13.46875 14.9375 13.3125 14.984375 13.0625 14.9375 C 12.945312 14.867188 12.945312 14.867188 12.875 14.75 C 12.835938 14.570312 12.835938 14.570312 12.875 14.375 C 13.121094 14.097656 13.378906 14.011719 13.75 14.0625 Z M 13.75 14.0625 "/>
<path style=" stroke:none;fill-rule:nonzero;fill:rgb(0.784314%,0.784314%,0.784314%);fill-opacity:1;" d="M 14.488281 13.007812 C 14.585938 13.035156 14.585938 13.035156 14.6875 13.0625 C 14.777344 13.246094 14.832031 13.371094 14.769531 13.570312 C 14.597656 13.917969 14.597656 13.917969 14.4375 14 C 14.21875 14.015625 14.21875 14.015625 14 14 C 13.875 13.8125 13.875 13.8125 13.878906 13.605469 C 13.96875 13.25 14.082031 12.996094 14.488281 13.007812 Z M 14.488281 13.007812 "/>
<path style=" stroke:none;fill-rule:nonzero;fill:rgb(0.784314%,0.784314%,0.784314%);fill-opacity:1;" d="M 13.382812 9.347656 C 13.664062 9.378906 13.777344 9.449219 13.980469 9.640625 C 14.0625 9.75 14.0625 9.75 14.109375 9.949219 C 14.0625 10.125 14.0625 10.125 13.929688 10.25 C 13.75 10.3125 13.75 10.3125 13.5625 10.28125 C 13.339844 10.171875 13.210938 10.078125 13.0625 9.875 C 13.078125 9.390625 13.078125 9.390625 13.382812 9.347656 Z M 13.382812 9.347656 "/>
<path style=" stroke:none;fill-rule:nonzero;fill:rgb(0.784314%,0.784314%,0.784314%);fill-opacity:1;" d="M 14.332031 10.351562 C 14.5625 10.375 14.5625 10.375 14.710938 10.5 C 14.84375 10.746094 14.871094 10.90625 14.875 11.1875 C 14.808594 11.3125 14.808594 11.3125 14.6875 11.375 C 14.507812 11.417969 14.507812 11.417969 14.3125 11.375 C 14.164062 11.226562 14.074219 11.070312 14 10.875 C 14.015625 10.386719 14.015625 10.386719 14.332031 10.351562 Z M 14.332031 10.351562 "/>
<path style=" stroke:none;fill-rule:nonzero;fill:rgb(0.784314%,0.784314%,0.784314%);fill-opacity:1;" d="M 12.246094 8.914062 C 12.324219 8.914062 12.324219 8.914062 12.40625 8.914062 C 12.59375 8.941406 12.679688 8.992188 12.8125 9.125 C 12.839844 9.347656 12.839844 9.347656 12.8125 9.5625 C 12.582031 9.71875 12.460938 9.707031 12.1875 9.6875 C 11.992188 9.625 11.894531 9.582031 11.75 9.4375 C 11.726562 9.261719 11.71875 9.167969 11.824219 9.023438 C 11.972656 8.910156 12.0625 8.914062 12.246094 8.914062 Z M 12.246094 8.914062 "/>
<path style=" stroke:none;fill-rule:nonzero;fill:rgb(1.176471%,1.176471%,1.176471%);fill-opacity:1;" d="M 9.75 8.3125 C 9.910156 8.414062 10.023438 8.527344 10.125 8.6875 C 10.15625 8.921875 10.15625 8.921875 10.125 9.125 C 10 9.25 10 9.25 9.796875 9.28125 C 9.527344 9.246094 9.433594 9.183594 9.257812 8.984375 C 9.148438 8.8125 9.148438 8.695312 9.1875 8.5 C 9.324219 8.269531 9.5 8.269531 9.75 8.3125 Z M 9.75 8.3125 "/>
<path style=" stroke:none;fill-rule:nonzero;fill:rgb(1.568628%,1.568628%,1.568628%);fill-opacity:1;" d="M 9.257812 7.003906 C 9.4375 7.0625 9.4375 7.0625 9.511719 7.171875 C 9.570312 7.339844 9.566406 7.457031 9.546875 7.632812 C 9.542969 7.6875 9.535156 7.742188 9.53125 7.796875 C 9.5 7.9375 9.5 7.9375 9.375 8.0625 C 9.15625 8.078125 9.15625 8.078125 8.9375 8.0625 C 8.769531 7.894531 8.792969 7.800781 8.789062 7.566406 C 8.789062 7.5 8.785156 7.433594 8.785156 7.367188 C 8.8125 7.1875 8.8125 7.1875 8.925781 7.070312 C 9.0625 7 9.0625 7 9.257812 7.003906 Z M 9.257812 7.003906 "/>
<path style=" stroke:none;fill-rule:nonzero;fill:rgb(1.176471%,1.176471%,1.176471%);fill-opacity:1;" d="M 14.71875 11.671875 C 14.9375 11.6875 14.9375 11.6875 15.0625 11.8125 C 15.082031 11.980469 15.082031 11.980469 15.082031 12.183594 C 15.082031 12.25 15.085938 12.316406 15.085938 12.382812 C 15.0625 12.5625 15.0625 12.5625 14.980469 12.679688 C 14.875 12.75 14.875 12.75 14.648438 12.734375 C 14.4375 12.6875 14.4375 12.6875 14.375 12.625 C 14.367188 12.492188 14.363281 12.355469 14.363281 12.222656 C 14.363281 12.148438 14.359375 12.074219 14.359375 12 C 14.382812 11.71875 14.441406 11.691406 14.71875 11.671875 Z M 14.71875 11.671875 "/>
<path style=" stroke:none;fill-rule:nonzero;fill:rgb(1.568628%,1.568628%,1.568628%);fill-opacity:1;" d="M 12.128906 14.542969 C 12.230469 14.542969 12.230469 14.542969 12.332031 14.539062 C 12.386719 14.546875 12.441406 14.554688 12.5 14.5625 C 12.632812 14.765625 12.65625 14.828125 12.625 15.0625 C 12.554688 15.164062 12.554688 15.164062 12.4375 15.25 C 12.257812 15.273438 12.257812 15.273438 12.058594 15.269531 C 11.992188 15.269531 11.925781 15.269531 11.855469 15.269531 C 11.6875 15.25 11.6875 15.25 11.5625 15.125 C 11.542969 14.90625 11.542969 14.90625 11.5625 14.6875 C 11.777344 14.542969 11.875 14.542969 12.128906 14.542969 Z M 12.128906 14.542969 "/>
<path style=" stroke:none;fill-rule:nonzero;fill:rgb(1.960784%,1.960784%,1.960784%);fill-opacity:1;" d="M 9.308594 14.539062 C 9.40625 14.535156 9.40625 14.535156 9.507812 14.535156 C 9.6875 14.5625 9.6875 14.5625 9.804688 14.679688 C 9.875 14.8125 9.875 14.8125 9.863281 14.976562 C 9.8125 15.125 9.8125 15.125 9.6875 15.25 C 9.519531 15.269531 9.519531 15.269531 9.316406 15.273438 C 9.25 15.273438 9.183594 15.277344 9.117188 15.277344 C 8.9375 15.25 8.9375 15.25 8.820312 15.132812 C 8.75 15 8.75 15 8.761719 14.835938 C 8.863281 14.535156 9.015625 14.542969 9.308594 14.539062 Z M 9.308594 14.539062 "/>
<path style=" stroke:none;fill-rule:nonzero;fill:rgb(1.176471%,1.176471%,1.176471%);fill-opacity:1;" d="M 10.902344 8.925781 C 11.011719 8.925781 11.011719 8.925781 11.125 8.921875 C 11.3125 8.9375 11.3125 8.9375 11.4375 9.0625 C 11.457031 9.28125 11.457031 9.28125 11.4375 9.5 C 11.230469 9.640625 11.152344 9.644531 10.90625 9.644531 C 10.847656 9.644531 10.785156 9.644531 10.726562 9.648438 C 10.5625 9.625 10.5625 9.625 10.445312 9.542969 C 10.375 9.4375 10.375 9.4375 10.390625 9.210938 C 10.46875 8.867188 10.570312 8.925781 10.902344 8.925781 Z M 10.902344 8.925781 "/>
<path style=" stroke:none;fill-rule:nonzero;fill:rgb(1.960784%,1.960784%,1.960784%);fill-opacity:1;" d="M 10.683594 14.539062 C 10.78125 14.535156 10.78125 14.535156 10.882812 14.535156 C 11.0625 14.5625 11.0625 14.5625 11.179688 14.679688 C 11.25 14.8125 11.25 14.8125 11.238281 14.976562 C 11.1875 15.125 11.1875 15.125 11.0625 15.25 C 10.890625 15.265625 10.890625 15.265625 10.6875 15.265625 C 10.585938 15.265625 10.585938 15.265625 10.484375 15.265625 C 10.3125 15.25 10.3125 15.25 10.1875 15.125 C 10.171875 14.90625 10.171875 14.90625 10.1875 14.6875 C 10.355469 14.519531 10.449219 14.542969 10.683594 14.539062 Z M 10.683594 14.539062 "/>
<path style=" stroke:none;fill-rule:nonzero;fill:rgb(1.960784%,1.960784%,1.960784%);fill-opacity:1;" d="M 7.933594 14.535156 C 8 14.53125 8.066406 14.53125 8.132812 14.527344 C 8.3125 14.5625 8.3125 14.5625 8.433594 14.710938 C 8.5 14.875 8.5 14.875 8.453125 15.046875 C 8.375 15.1875 8.375 15.1875 8.3125 15.25 C 8.191406 15.261719 8.066406 15.265625 7.945312 15.269531 C 7.878906 15.273438 7.8125 15.273438 7.742188 15.277344 C 7.5625 15.25 7.5625 15.25 7.445312 15.132812 C 7.375 15 7.375 15 7.386719 14.835938 C 7.488281 14.535156 7.640625 14.542969 7.933594 14.535156 Z M 7.933594 14.535156 "/>
<path style=" stroke:none;fill-rule:nonzero;fill:rgb(7.843138%,4.705882%,1.960784%);fill-opacity:1;" d="M 4.75 14.1875 C 4.792969 14.1875 4.832031 14.1875 4.875 14.1875 C 4.835938 14.414062 4.742188 14.550781 4.597656 14.730469 C 4.558594 14.78125 4.519531 14.828125 4.480469 14.878906 C 4.363281 15.015625 4.300781 15.054688 4.125 15.078125 C 3.882812 15.085938 3.730469 15.085938 3.515625 14.964844 C 3.0625 14.472656 3.0625 14.472656 3.0625 14.25 C 3.230469 14.273438 3.296875 14.292969 3.402344 14.425781 C 3.429688 14.46875 3.460938 14.515625 3.488281 14.5625 C 3.628906 14.761719 3.667969 14.804688 3.910156 14.890625 C 4.179688 14.871094 4.253906 14.820312 4.4375 14.625 C 4.496094 14.546875 4.550781 14.46875 4.605469 14.390625 C 4.652344 14.324219 4.699219 14.257812 4.75 14.1875 Z M 4.75 14.1875 "/>
<path style=" stroke:none;fill-rule:nonzero;fill:rgb(37.64706%,37.64706%,37.64706%);fill-opacity:1;" d="M 11.128906 5.734375 C 11.25 5.75 11.25 5.75 11.375 5.875 C 11.375 5.9375 11.375 6 11.375 6.0625 C 11.175781 6.164062 10.972656 6.128906 10.75 6.125 C 10.726562 6.019531 10.707031 5.917969 10.6875 5.8125 C 10.804688 5.695312 10.972656 5.738281 11.128906 5.734375 Z M 11.128906 5.734375 "/>
<path style=" stroke:none;fill-rule:nonzero;fill:rgb(39.215687%,39.215687%,39.215687%);fill-opacity:1;" d="M 12.378906 9.117188 C 12.5 9.125 12.5 9.125 12.625 9.1875 C 12.605469 9.289062 12.582031 9.394531 12.5625 9.5 C 12.375 9.480469 12.191406 9.457031 12 9.4375 C 11.980469 9.355469 11.957031 9.273438 11.9375 9.1875 C 12.054688 9.070312 12.222656 9.117188 12.378906 9.117188 Z M 12.378906 9.117188 "/>
<path style=" stroke:none;fill-rule:nonzero;fill:rgb(39.215687%,39.215687%,39.215687%);fill-opacity:1;" d="M 9.890625 6.078125 C 9.945312 6.101562 9.945312 6.101562 10 6.125 C 10 6.375 10 6.375 9.859375 6.519531 C 9.6875 6.625 9.6875 6.625 9.542969 6.609375 C 9.507812 6.59375 9.472656 6.578125 9.4375 6.5625 C 9.472656 6.308594 9.601562 6.046875 9.890625 6.078125 Z M 9.890625 6.078125 "/>
<path style=" stroke:none;fill-rule:nonzero;fill:rgb(39.607844%,39.607844%,39.607844%);fill-opacity:1;" d="M 14.3125 13.1875 C 14.394531 13.207031 14.476562 13.230469 14.5625 13.25 C 14.53125 13.484375 14.507812 13.613281 14.375 13.8125 C 14.273438 13.792969 14.167969 13.769531 14.0625 13.75 C 14.101562 13.53125 14.195312 13.375 14.3125 13.1875 Z M 14.3125 13.1875 "/>
<path style=" stroke:none;fill-rule:nonzero;fill:rgb(39.607844%,39.607844%,39.607844%);fill-opacity:1;" d="M 13.3125 9.5625 C 13.550781 9.59375 13.691406 9.65625 13.875 9.8125 C 13.855469 9.894531 13.832031 9.976562 13.8125 10.0625 C 13.574219 10.03125 13.433594 9.96875 13.25 9.8125 C 13.269531 9.730469 13.292969 9.648438 13.3125 9.5625 Z M 13.3125 9.5625 "/>
<path style=" stroke:none;fill-rule:nonzero;fill:rgb(40.392157%,40.392157%,40.392157%);fill-opacity:1;" d="M 13.6875 14.3125 C 13.675781 14.425781 13.675781 14.425781 13.625 14.5625 C 13.480469 14.675781 13.480469 14.675781 13.3125 14.75 C 13.167969 14.730469 13.167969 14.730469 13.0625 14.6875 C 13.085938 14.519531 13.117188 14.449219 13.234375 14.324219 C 13.414062 14.230469 13.5 14.253906 13.6875 14.3125 Z M 13.6875 14.3125 "/>
<path style=" stroke:none;fill-rule:nonzero;fill:rgb(40.000001%,40.000001%,40.000001%);fill-opacity:1;" d="M 14.25 10.5625 C 14.332031 10.5625 14.414062 10.5625 14.5 10.5625 C 14.691406 10.902344 14.691406 10.902344 14.667969 11.085938 C 14.652344 11.121094 14.640625 11.152344 14.625 11.1875 C 14.511719 11.175781 14.511719 11.175781 14.375 11.125 C 14.261719 10.980469 14.261719 10.980469 14.1875 10.8125 C 14.207031 10.667969 14.207031 10.667969 14.25 10.5625 Z M 14.25 10.5625 "/>
<path style=" stroke:none;fill-rule:nonzero;fill:rgb(40.784314%,40.784314%,40.784314%);fill-opacity:1;" d="M 11.941406 14.742188 C 12.019531 14.746094 12.019531 14.746094 12.097656 14.746094 C 12.148438 14.746094 12.199219 14.746094 12.253906 14.746094 C 12.292969 14.75 12.335938 14.75 12.375 14.75 C 12.410156 14.871094 12.410156 14.871094 12.4375 15 C 12.375 15.0625 12.375 15.0625 12.246094 15.070312 C 12.195312 15.066406 12.144531 15.066406 12.089844 15.066406 C 12.039062 15.066406 11.988281 15.066406 11.933594 15.066406 C 11.894531 15.0625 11.855469 15.0625 11.8125 15.0625 C 11.777344 14.941406 11.777344 14.941406 11.75 14.8125 C 11.8125 14.75 11.8125 14.75 11.941406 14.742188 Z M 11.941406 14.742188 "/>
<path style=" stroke:none;fill-rule:nonzero;fill:rgb(40.784314%,40.784314%,40.784314%);fill-opacity:1;" d="M 14.625 11.875 C 14.75 11.90625 14.75 11.90625 14.875 11.9375 C 14.875 12.125 14.875 12.308594 14.875 12.5 C 14.792969 12.519531 14.710938 12.542969 14.625 12.5625 C 14.5625 12.5 14.5625 12.5 14.554688 12.375 C 14.554688 12.320312 14.554688 12.269531 14.554688 12.21875 C 14.554688 12.167969 14.554688 12.117188 14.554688 12.0625 C 14.5625 11.9375 14.5625 11.9375 14.625 11.875 Z M 14.625 11.875 "/>
<path style=" stroke:none;fill-rule:nonzero;fill:rgb(40.784314%,40.784314%,40.784314%);fill-opacity:1;" d="M 10.753906 9.117188 C 10.832031 9.121094 10.832031 9.121094 10.910156 9.121094 C 10.960938 9.121094 11.011719 9.121094 11.066406 9.121094 C 11.105469 9.125 11.148438 9.125 11.1875 9.125 C 11.222656 9.246094 11.222656 9.246094 11.25 9.375 C 11.1875 9.4375 11.1875 9.4375 11.058594 9.445312 C 11.007812 9.441406 10.957031 9.441406 10.902344 9.441406 C 10.851562 9.441406 10.800781 9.441406 10.746094 9.441406 C 10.707031 9.4375 10.667969 9.4375 10.625 9.4375 C 10.589844 9.316406 10.589844 9.316406 10.5625 9.1875 C 10.625 9.125 10.625 9.125 10.753906 9.117188 Z M 10.753906 9.117188 "/>
<path style=" stroke:none;fill-rule:nonzero;fill:rgb(40.784314%,40.784314%,40.784314%);fill-opacity:1;" d="M 9.4375 8.5 C 9.675781 8.535156 9.789062 8.625 9.9375 8.8125 C 9.9375 8.894531 9.9375 8.976562 9.9375 9.0625 C 9.742188 9.039062 9.636719 9.007812 9.476562 8.886719 C 9.375 8.75 9.375 8.75 9.390625 8.609375 C 9.40625 8.574219 9.421875 8.535156 9.4375 8.5 Z M 9.4375 8.5 "/>
<path style=" stroke:none;fill-rule:nonzero;fill:rgb(40.784314%,40.784314%,40.784314%);fill-opacity:1;" d="M 9.125 7.1875 C 9.1875 7.207031 9.25 7.230469 9.3125 7.25 C 9.3125 7.457031 9.3125 7.664062 9.3125 7.875 C 9.210938 7.855469 9.105469 7.832031 9 7.8125 C 8.988281 7.433594 8.988281 7.433594 9 7.3125 C 9.042969 7.269531 9.082031 7.230469 9.125 7.1875 Z M 9.125 7.1875 "/>
<path style=" stroke:none;fill-rule:nonzero;fill:rgb(6.666667%,9.019608%,8.235294%);fill-opacity:1;" d="M 14.1875 5.4375 C 14.230469 5.4375 14.269531 5.4375 14.3125 5.4375 C 14.277344 5.683594 14.179688 5.832031 14 6 C 13.773438 6.03125 13.632812 6.050781 13.441406 5.914062 C 13.375 5.8125 13.375 5.8125 13.375 5.6875 C 13.625 5.75 13.625 5.75 13.875 5.8125 C 13.921875 5.75 13.972656 5.6875 14.023438 5.625 C 14.078125 5.5625 14.132812 5.5 14.1875 5.4375 Z M 14.1875 5.4375 "/>
<path style=" stroke:none;fill-rule:nonzero;fill:rgb(41.960785%,41.960785%,41.960785%);fill-opacity:1;" d="M 10.4375 14.75 C 10.601562 14.75 10.765625 14.75 10.9375 14.75 C 10.957031 14.851562 10.980469 14.957031 11 15.0625 C 10.792969 15.0625 10.585938 15.0625 10.375 15.0625 C 10.394531 14.960938 10.417969 14.855469 10.4375 14.75 Z M 10.4375 14.75 "/>
<path style=" stroke:none;fill-rule:nonzero;fill:rgb(41.960785%,41.960785%,41.960785%);fill-opacity:1;" d="M 9.0625 14.75 C 9.226562 14.75 9.390625 14.75 9.5625 14.75 C 9.582031 14.851562 9.605469 14.957031 9.625 15.0625 C 9.417969 15.0625 9.210938 15.0625 9 15.0625 C 9.019531 14.960938 9.042969 14.855469 9.0625 14.75 Z M 9.0625 14.75 "/>
<path style=" stroke:none;fill-rule:nonzero;fill:rgb(41.960785%,41.960785%,41.960785%);fill-opacity:1;" d="M 7.6875 14.75 C 7.851562 14.75 8.015625 14.75 8.1875 14.75 C 8.207031 14.851562 8.230469 14.957031 8.25 15.0625 C 8.042969 15.0625 7.835938 15.0625 7.625 15.0625 C 7.644531 14.960938 7.667969 14.855469 7.6875 14.75 Z M 7.6875 14.75 "/>
<path style=" stroke:none;fill-rule:nonzero;fill:rgb(3.921569%,6.27451%,5.098039%);fill-opacity:1;" d="M 13.375 5.6875 C 13.59375 5.726562 13.753906 5.816406 13.9375 5.9375 C 13.9375 5.957031 13.9375 5.980469 13.9375 6 C 13.59375 6.023438 13.59375 6.023438 13.445312 5.914062 C 13.375 5.8125 13.375 5.8125 13.375 5.6875 Z M 13.375 5.6875 "/>
</g>
</svg>
