<?xml version="1.0" encoding="UTF-8"?>
<svg xmlns="http://www.w3.org/2000/svg" xmlns:xlink="http://www.w3.org/1999/xlink" width="16" height="16" viewBox="0 0 16 16" version="1.1">
<g id="surface1">
<path style=" stroke:none;fill-rule:nonzero;fill:rgb(94.509804%,0%,31.764707%);fill-opacity:1;" d="M 13.039062 1.710938 C 13.261719 1.902344 13.472656 2.105469 13.6875 2.3125 C 13.730469 2.351562 13.777344 2.394531 13.824219 2.4375 C 14.214844 2.804688 14.515625 3.242188 14.8125 3.6875 C 14.851562 3.746094 14.890625 3.804688 14.933594 3.863281 C 16.007812 5.582031 16.3125 7.855469 15.867188 9.824219 C 15.339844 11.902344 14.097656 13.738281 12.25 14.863281 C 11.535156 15.285156 10.796875 15.585938 10 15.8125 C 9.925781 15.835938 9.851562 15.855469 9.777344 15.878906 C 7.785156 16.347656 5.53125 15.949219 3.792969 14.898438 C 1.976562 13.753906 0.769531 12.050781 0.1875 10 C 0.167969 9.925781 0.144531 9.851562 0.121094 9.777344 C -0.351562 7.769531 0.0585938 5.515625 1.128906 3.769531 C 1.4375 3.285156 1.789062 2.851562 2.1875 2.4375 C 2.238281 2.382812 2.289062 2.328125 2.339844 2.269531 C 3.335938 1.21875 4.621094 0.578125 6 0.1875 C 6.074219 0.164062 6.148438 0.144531 6.222656 0.121094 C 8.535156 -0.421875 11.222656 0.183594 13.039062 1.710938 Z M 13.039062 1.710938 "/>
<path style=" stroke:none;fill-rule:nonzero;fill:rgb(99.607843%,0.392157%,34.901962%);fill-opacity:1;" d="M 13.039062 1.710938 C 13.261719 1.902344 13.472656 2.105469 13.6875 2.3125 C 13.730469 2.351562 13.777344 2.394531 13.824219 2.4375 C 14.269531 2.855469 14.601562 3.367188 14.9375 3.875 C 14.882812 4.414062 14.355469 4.925781 14.003906 5.300781 C 13.867188 5.441406 13.867188 5.441406 13.726562 5.628906 C 13.472656 5.914062 13.175781 6.140625 12.875 6.375 C 12.828125 6.410156 12.78125 6.449219 12.734375 6.488281 C 11.742188 7.222656 10.644531 7.65625 9.4375 7.875 C 9.417969 9.773438 9.394531 11.667969 9.375 13.625 C 9.601562 13.625 9.828125 13.625 10.0625 13.625 C 10.0625 14.078125 10.0625 14.53125 10.0625 15 C 8.988281 15 7.917969 15 6.8125 15 C 6.8125 14.546875 6.8125 14.09375 6.8125 13.625 C 7.039062 13.605469 7.265625 13.582031 7.5 13.5625 C 7.480469 13.519531 7.457031 13.476562 7.4375 13.429688 C 7.410156 13.371094 7.378906 13.3125 7.351562 13.25 C 7.324219 13.191406 7.296875 13.132812 7.269531 13.074219 C 7.09375 12.644531 7.039062 12.253906 7.042969 11.792969 C 7.042969 11.742188 7.042969 11.6875 7.042969 11.632812 C 7.050781 11.199219 7.09375 10.777344 7.3125 10.390625 C 7.496094 10.058594 7.535156 9.789062 7.539062 9.414062 C 7.546875 8.890625 7.546875 8.890625 7.6875 8.75 C 7.863281 8.722656 7.863281 8.722656 8.0625 8.75 C 8.164062 8.851562 8.269531 8.957031 8.375 9.0625 C 8.394531 8.710938 8.417969 8.359375 8.4375 8 C 8.265625 8.003906 8.09375 8.007812 7.914062 8.011719 C 6.578125 8.019531 5.328125 7.660156 4.140625 7.054688 C 4.089844 7.027344 4.039062 7.003906 3.984375 6.976562 C 3.941406 6.953125 3.894531 6.929688 3.84375 6.902344 C 3.804688 6.878906 3.761719 6.859375 3.71875 6.835938 C 3.585938 6.714844 3.589844 6.617188 3.5625 6.4375 C 3.558594 6.316406 3.554688 6.191406 3.554688 6.070312 C 3.554688 5.996094 3.554688 5.925781 3.554688 5.847656 C 3.554688 5.773438 3.554688 5.695312 3.554688 5.613281 C 3.554688 5.535156 3.554688 5.453125 3.554688 5.371094 C 3.558594 5.160156 3.558594 4.949219 3.558594 4.734375 C 3.558594 4.519531 3.558594 4.300781 3.558594 4.085938 C 3.558594 3.660156 3.5625 3.238281 3.5625 2.8125 C 3.003906 2.8125 2.449219 2.8125 1.875 2.8125 C 3.007812 1.488281 4.324219 0.664062 6 0.1875 C 6.074219 0.164062 6.148438 0.144531 6.222656 0.121094 C 8.535156 -0.421875 11.222656 0.183594 13.039062 1.710938 Z M 13.039062 1.710938 "/>
<path style=" stroke:none;fill-rule:nonzero;fill:rgb(94.901961%,0%,31.764707%);fill-opacity:1;" d="M 14.9375 4 C 15.183594 4.269531 15.304688 4.558594 15.4375 4.894531 C 15.46875 4.976562 15.46875 4.976562 15.503906 5.0625 C 16.273438 7.058594 16.207031 9.332031 15.375 11.296875 C 14.496094 13.261719 12.851562 14.765625 10.859375 15.546875 C 10.625 15.625 10.625 15.625 10.4375 15.625 C 10.4375 15.417969 10.4375 15.210938 10.4375 15 C 10.3125 15 10.191406 15 10.0625 15 C 10.0625 14.546875 10.0625 14.09375 10.0625 13.625 C 9.835938 13.625 9.609375 13.625 9.375 13.625 C 9.375 11.375 9.375 9.128906 9.375 6.8125 C 9.394531 6.8125 9.417969 6.8125 9.4375 6.8125 C 9.4375 7.164062 9.4375 7.515625 9.4375 7.875 C 11.613281 7.332031 13.382812 6.253906 14.65625 4.386719 C 14.746094 4.253906 14.839844 4.128906 14.9375 4 Z M 14.9375 4 "/>
<path style=" stroke:none;fill-rule:nonzero;fill:rgb(99.607843%,80.000001%,74.117649%);fill-opacity:1;" d="M 3.5625 3.125 C 4.015625 3.125 4.46875 3.125 4.9375 3.125 C 4.9375 3.371094 4.9375 3.621094 4.9375 3.875 C 5.023438 3.875 5.109375 3.875 5.199219 3.875 C 6.011719 3.871094 6.824219 3.867188 7.636719 3.863281 C 8.054688 3.863281 8.472656 3.863281 8.890625 3.859375 C 9.296875 3.859375 9.699219 3.859375 10.101562 3.859375 C 10.253906 3.855469 10.410156 3.855469 10.5625 3.855469 C 10.78125 3.855469 10.996094 3.855469 11.210938 3.855469 C 11.273438 3.851562 11.335938 3.851562 11.402344 3.851562 C 11.460938 3.851562 11.519531 3.851562 11.582031 3.851562 C 11.632812 3.851562 11.683594 3.851562 11.734375 3.851562 C 11.910156 3.878906 11.996094 3.945312 12.125 4.0625 C 12.15625 4.183594 12.15625 4.183594 12.15625 4.3125 C 12.15625 4.375 12.15625 4.375 12.15625 4.441406 C 12.125 4.5625 12.125 4.5625 12.035156 4.660156 C 11.796875 4.792969 11.570312 4.78125 11.304688 4.78125 C 11.25 4.78125 11.195312 4.785156 11.136719 4.785156 C 10.960938 4.789062 10.785156 4.789062 10.609375 4.792969 C 10.488281 4.796875 10.371094 4.796875 10.25 4.800781 C 9.960938 4.804688 9.667969 4.808594 9.375 4.8125 C 9.433594 4.851562 9.492188 4.886719 9.554688 4.925781 C 9.75 5.0625 9.75 5.0625 9.875 5.25 C 9.855469 5.457031 9.835938 5.539062 9.6875 5.6875 C 9.511719 5.699219 9.335938 5.703125 9.160156 5.707031 C 8.734375 5.71875 8.410156 5.773438 8.035156 5.984375 C 7.636719 6.179688 7.234375 6.210938 6.800781 6.210938 C 6.722656 6.210938 6.722656 6.210938 6.644531 6.210938 C 6.039062 6.199219 5.535156 6.027344 5 5.75 C 5 5.976562 5 6.203125 5 6.4375 C 4.527344 6.4375 4.050781 6.4375 3.5625 6.4375 C 3.5625 5.34375 3.5625 4.25 3.5625 3.125 Z M 3.5625 3.125 "/>
<path style=" stroke:none;fill-rule:nonzero;fill:rgb(99.607843%,79.215688%,73.725492%);fill-opacity:1;" d="M 9.125 6.4375 C 9.261719 6.523438 9.261719 6.523438 9.375 6.6875 C 9.410156 6.910156 9.40625 7.128906 9.402344 7.351562 C 9.402344 7.421875 9.402344 7.488281 9.402344 7.558594 C 9.402344 7.78125 9.402344 8.003906 9.398438 8.230469 C 9.398438 8.382812 9.398438 8.539062 9.398438 8.695312 C 9.398438 9.0625 9.394531 9.429688 9.394531 9.796875 C 9.390625 10.253906 9.390625 10.710938 9.386719 11.171875 C 9.382812 11.988281 9.378906 12.808594 9.375 13.625 C 9.601562 13.625 9.828125 13.625 10.0625 13.625 C 10.0625 14.078125 10.0625 14.53125 10.0625 15 C 8.988281 15 7.917969 15 6.8125 15 C 6.8125 14.546875 6.8125 14.09375 6.8125 13.625 C 7.152344 13.59375 7.152344 13.59375 7.5 13.5625 C 7.46875 13.496094 7.46875 13.496094 7.4375 13.429688 C 7.40625 13.371094 7.378906 13.3125 7.351562 13.25 C 7.324219 13.191406 7.296875 13.132812 7.269531 13.074219 C 7.09375 12.644531 7.039062 12.253906 7.042969 11.792969 C 7.042969 11.742188 7.042969 11.6875 7.042969 11.636719 C 7.050781 11.199219 7.09375 10.777344 7.3125 10.390625 C 7.496094 10.058594 7.535156 9.789062 7.539062 9.414062 C 7.546875 8.890625 7.546875 8.890625 7.6875 8.75 C 7.863281 8.722656 7.863281 8.722656 8.0625 8.75 C 8.222656 8.886719 8.34375 9 8.4375 9.1875 C 8.4375 9.113281 8.4375 9.039062 8.4375 8.960938 C 8.441406 8.6875 8.445312 8.410156 8.449219 8.132812 C 8.453125 8.015625 8.453125 7.894531 8.453125 7.773438 C 8.457031 7.601562 8.457031 7.429688 8.460938 7.257812 C 8.460938 7.207031 8.460938 7.152344 8.460938 7.097656 C 8.472656 6.726562 8.472656 6.726562 8.617188 6.527344 C 8.800781 6.402344 8.90625 6.402344 9.125 6.4375 Z M 9.125 6.4375 "/>
<path style=" stroke:none;fill-rule:nonzero;fill:rgb(22.352941%,17.647059%,43.137255%);fill-opacity:1;" d="M 1.8125 2.8125 C 2.390625 2.8125 2.96875 2.8125 3.5625 2.8125 C 3.5625 4.113281 3.5625 5.410156 3.5625 6.75 C 2.40625 6.75 1.253906 6.75 0.0625 6.75 C 0.210938 5.867188 0.210938 5.867188 0.351562 5.453125 C 0.367188 5.40625 0.382812 5.359375 0.402344 5.308594 C 0.730469 4.378906 1.222656 3.597656 1.8125 2.8125 Z M 1.8125 2.8125 "/>
<path style=" stroke:none;fill-rule:nonzero;fill:rgb(98.431373%,72.549021%,66.274512%);fill-opacity:1;" d="M 3.5625 3.125 C 3.582031 3.125 3.605469 3.125 3.625 3.125 C 3.625 4.199219 3.625 5.269531 3.625 6.375 C 4.058594 6.375 4.492188 6.375 4.9375 6.375 C 4.9375 6.28125 4.933594 6.1875 4.933594 6.089844 C 4.9375 5.640625 4.96875 5.195312 5 4.75 C 5.84375 4.75 6.691406 4.75 7.5625 4.75 C 7.5625 4.605469 7.5625 4.460938 7.5625 4.3125 C 9.066406 4.3125 10.574219 4.3125 12.125 4.3125 C 12.105469 4.414062 12.082031 4.519531 12.0625 4.625 C 11.875 4.75 11.835938 4.765625 11.625 4.769531 C 11.574219 4.769531 11.523438 4.773438 11.472656 4.773438 C 11.390625 4.773438 11.390625 4.773438 11.308594 4.777344 C 11.253906 4.777344 11.199219 4.777344 11.140625 4.78125 C 10.964844 4.78125 10.789062 4.785156 10.613281 4.789062 C 10.492188 4.792969 10.375 4.792969 10.253906 4.796875 C 9.960938 4.800781 9.667969 4.808594 9.375 4.8125 C 9.433594 4.851562 9.492188 4.886719 9.554688 4.925781 C 9.75 5.0625 9.75 5.0625 9.875 5.25 C 9.855469 5.457031 9.835938 5.539062 9.6875 5.6875 C 9.511719 5.699219 9.335938 5.703125 9.160156 5.707031 C 8.734375 5.71875 8.410156 5.773438 8.035156 5.984375 C 7.636719 6.179688 7.234375 6.210938 6.800781 6.210938 C 6.722656 6.210938 6.722656 6.210938 6.644531 6.210938 C 6.039062 6.199219 5.535156 6.027344 5 5.75 C 5 5.976562 5 6.203125 5 6.4375 C 4.527344 6.4375 4.050781 6.4375 3.5625 6.4375 C 3.5625 5.34375 3.5625 4.25 3.5625 3.125 Z M 3.5625 3.125 "/>
<path style=" stroke:none;fill-rule:nonzero;fill:rgb(100%,74.117649%,66.274512%);fill-opacity:1;" d="M 8.9375 6.40625 C 9.125 6.4375 9.125 6.4375 9.261719 6.523438 C 9.441406 6.78125 9.40625 7.039062 9.402344 7.347656 C 9.402344 7.414062 9.402344 7.480469 9.402344 7.550781 C 9.402344 7.773438 9.402344 7.992188 9.398438 8.214844 C 9.398438 8.371094 9.398438 8.523438 9.398438 8.675781 C 9.398438 9.082031 9.394531 9.488281 9.390625 9.890625 C 9.390625 10.304688 9.390625 10.71875 9.386719 11.128906 C 9.382812 11.941406 9.378906 12.75 9.375 13.5625 C 9.066406 13.5625 8.757812 13.5625 8.4375 13.5625 C 8.425781 9.394531 8.425781 9.394531 8.449219 7.914062 C 8.453125 7.804688 8.453125 7.695312 8.453125 7.585938 C 8.457031 7.4375 8.457031 7.285156 8.460938 7.136719 C 8.464844 7.054688 8.464844 6.972656 8.464844 6.890625 C 8.515625 6.585938 8.636719 6.457031 8.9375 6.40625 Z M 8.9375 6.40625 "/>
<path style=" stroke:none;fill-rule:nonzero;fill:rgb(27.058825%,22.745098%,51.764709%);fill-opacity:1;" d="M 2.710938 2.78125 C 3.132812 2.796875 3.132812 2.796875 3.5625 2.8125 C 3.5625 3.453125 3.5625 4.089844 3.5625 4.75 C 2.613281 4.75 1.664062 4.75 0.6875 4.75 C 0.828125 4.257812 0.828125 4.257812 0.949219 4.070312 C 0.988281 4.007812 0.988281 4.007812 1.027344 3.941406 C 1.054688 3.902344 1.082031 3.859375 1.109375 3.816406 C 1.136719 3.773438 1.160156 3.734375 1.1875 3.691406 C 1.242188 3.605469 1.296875 3.523438 1.351562 3.441406 C 1.441406 3.3125 1.441406 3.3125 1.511719 3.171875 C 1.789062 2.683594 2.199219 2.753906 2.710938 2.78125 Z M 2.710938 2.78125 "/>
<path style=" stroke:none;fill-rule:nonzero;fill:rgb(89.411765%,94.117647%,97.254902%);fill-opacity:1;" d="M 6.8125 13.625 C 7.886719 13.625 8.957031 13.625 10.0625 13.625 C 10.0625 14.078125 10.0625 14.53125 10.0625 15 C 8.988281 15 7.917969 15 6.8125 15 C 6.8125 14.546875 6.8125 14.09375 6.8125 13.625 Z M 6.8125 13.625 "/>
<path style=" stroke:none;fill-rule:nonzero;fill:rgb(89.411765%,94.117647%,97.254902%);fill-opacity:1;" d="M 3.625 3.125 C 4.058594 3.125 4.492188 3.125 4.9375 3.125 C 4.9375 4.199219 4.9375 5.269531 4.9375 6.375 C 4.503906 6.375 4.070312 6.375 3.625 6.375 C 3.625 5.300781 3.625 4.230469 3.625 3.125 Z M 3.625 3.125 "/>
<path style=" stroke:none;fill-rule:nonzero;fill:rgb(27.450982%,23.137255%,51.372552%);fill-opacity:1;" d="M 6.5 15 C 7.800781 15 9.097656 15 10.4375 15 C 10.4375 15.226562 10.4375 15.453125 10.4375 15.6875 C 10.28125 15.726562 10.121094 15.769531 9.964844 15.808594 C 9.921875 15.820312 9.875 15.832031 9.832031 15.84375 C 9.789062 15.855469 9.742188 15.863281 9.699219 15.875 C 9.660156 15.886719 9.621094 15.898438 9.578125 15.90625 C 9.230469 15.980469 8.890625 16.007812 8.535156 16.007812 C 8.472656 16.007812 8.472656 16.007812 8.40625 16.007812 C 8.316406 16.007812 8.226562 16.007812 8.136719 16.007812 C 8 16.007812 7.863281 16.007812 7.726562 16.007812 C 7.640625 16.007812 7.550781 16.007812 7.464844 16.007812 C 7.386719 16.007812 7.308594 16.007812 7.226562 16.007812 C 6.609375 15.984375 6.609375 15.984375 6.5 15.875 C 6.5 15.585938 6.5 15.296875 6.5 15 Z M 6.5 15 "/>
<path style=" stroke:none;fill-rule:nonzero;fill:rgb(81.568629%,90.588236%,99.607843%);fill-opacity:1;" d="M 8.5 13.625 C 9.015625 13.625 9.53125 13.625 10.0625 13.625 C 10.0625 14.078125 10.0625 14.53125 10.0625 15 C 9.546875 15 9.03125 15 8.5 15 C 8.5 14.546875 8.5 14.09375 8.5 13.625 Z M 8.5 13.625 "/>
<path style=" stroke:none;fill-rule:nonzero;fill:rgb(81.568629%,90.980393%,100%);fill-opacity:1;" d="M 3.625 4.8125 C 4.058594 4.8125 4.492188 4.8125 4.9375 4.8125 C 4.9375 5.328125 4.9375 5.84375 4.9375 6.375 C 4.503906 6.375 4.070312 6.375 3.625 6.375 C 3.625 5.859375 3.625 5.34375 3.625 4.8125 Z M 3.625 4.8125 "/>
<path style=" stroke:none;fill-rule:nonzero;fill:rgb(99.607843%,64.705884%,54.901963%);fill-opacity:1;" d="M 9.125 6.4375 C 9.0625 6.457031 9 6.480469 8.9375 6.5 C 8.9375 7.984375 8.9375 9.46875 8.9375 11 C 8.792969 11 8.648438 11 8.5 11 C 8.441406 10.03125 8.429688 9.0625 8.445312 8.089844 C 8.449219 7.96875 8.449219 7.851562 8.449219 7.734375 C 8.453125 7.5625 8.457031 7.394531 8.460938 7.226562 C 8.460938 7.175781 8.460938 7.125 8.460938 7.074219 C 8.46875 6.847656 8.480469 6.714844 8.613281 6.53125 C 8.792969 6.410156 8.914062 6.417969 9.125 6.4375 Z M 9.125 6.4375 "/>
<path style=" stroke:none;fill-rule:nonzero;fill:rgb(100%,64.705884%,54.901963%);fill-opacity:1;" d="M 7.5625 4.3125 C 9.066406 4.3125 10.574219 4.3125 12.125 4.3125 C 12.105469 4.414062 12.082031 4.519531 12.0625 4.625 C 11.871094 4.753906 11.824219 4.765625 11.605469 4.769531 C 11.550781 4.773438 11.496094 4.773438 11.441406 4.773438 C 11.382812 4.777344 11.324219 4.777344 11.261719 4.777344 C 11.199219 4.78125 11.140625 4.78125 11.074219 4.78125 C 10.945312 4.785156 10.8125 4.789062 10.679688 4.789062 C 10.484375 4.792969 10.289062 4.796875 10.09375 4.800781 C 9.246094 4.820312 8.40625 4.800781 7.5625 4.75 C 7.5625 4.605469 7.5625 4.460938 7.5625 4.3125 Z M 7.5625 4.3125 "/>
<path style=" stroke:none;fill-rule:nonzero;fill:rgb(22.745098%,17.647059%,42.745098%);fill-opacity:1;" d="M 8.5 15 C 9.140625 15 9.777344 15 10.4375 15 C 10.4375 15.226562 10.4375 15.453125 10.4375 15.6875 C 10.28125 15.726562 10.121094 15.769531 9.964844 15.808594 C 9.921875 15.820312 9.875 15.832031 9.832031 15.84375 C 9.453125 15.9375 9.082031 16.011719 8.691406 16.003906 C 8.644531 16.003906 8.59375 16.003906 8.546875 16.003906 C 8.507812 16 8.472656 16 8.4375 16 C 8.4375 15.867188 8.433594 15.738281 8.433594 15.605469 C 8.433594 15.53125 8.433594 15.457031 8.429688 15.382812 C 8.4375 15.1875 8.4375 15.1875 8.5 15 Z M 8.5 15 "/>
</g>
</svg>
