<?xml version="1.0" encoding="UTF-8"?>
<svg xmlns="http://www.w3.org/2000/svg" xmlns:xlink="http://www.w3.org/1999/xlink" width="16" height="16" viewBox="0 0 16 16" version="1.1">
<g id="surface1">
<path style=" stroke:none;fill-rule:nonzero;fill:rgb(89.411765%,89.803922%,91.764706%);fill-opacity:1;" d="M 1.378906 0.242188 C 1.4375 0.242188 1.496094 0.242188 1.554688 0.242188 C 1.753906 0.238281 1.953125 0.238281 2.148438 0.238281 C 2.289062 0.238281 2.429688 0.238281 2.570312 0.238281 C 2.957031 0.238281 3.339844 0.238281 3.722656 0.238281 C 3.964844 0.238281 4.203125 0.238281 4.441406 0.238281 C 5.105469 0.234375 5.769531 0.234375 6.433594 0.234375 C 6.476562 0.234375 6.519531 0.234375 6.5625 0.234375 C 6.605469 0.234375 6.648438 0.234375 6.691406 0.234375 C 6.777344 0.234375 6.863281 0.234375 6.953125 0.234375 C 6.992188 0.234375 7.035156 0.234375 7.082031 0.234375 C 7.773438 0.234375 8.46875 0.234375 9.160156 0.230469 C 9.875 0.230469 10.585938 0.230469 11.296875 0.230469 C 11.699219 0.230469 12.097656 0.230469 12.5 0.226562 C 12.875 0.226562 13.25 0.226562 13.625 0.226562 C 13.765625 0.226562 13.902344 0.226562 14.039062 0.226562 C 14.230469 0.226562 14.417969 0.226562 14.605469 0.226562 C 14.6875 0.226562 14.6875 0.226562 14.773438 0.226562 C 15.128906 0.230469 15.332031 0.292969 15.609375 0.53125 C 15.808594 0.769531 15.757812 1.085938 15.757812 1.378906 C 15.757812 1.4375 15.757812 1.496094 15.757812 1.554688 C 15.761719 1.753906 15.761719 1.953125 15.761719 2.148438 C 15.761719 2.289062 15.761719 2.429688 15.761719 2.570312 C 15.761719 2.957031 15.761719 3.339844 15.761719 3.722656 C 15.761719 3.964844 15.761719 4.203125 15.761719 4.441406 C 15.765625 5.105469 15.765625 5.769531 15.765625 6.433594 C 15.765625 6.5 15.765625 6.5 15.765625 6.5625 C 15.765625 6.605469 15.765625 6.648438 15.765625 6.691406 C 15.765625 6.777344 15.765625 6.863281 15.765625 6.953125 C 15.765625 7.015625 15.765625 7.015625 15.765625 7.082031 C 15.765625 7.773438 15.765625 8.46875 15.769531 9.160156 C 15.769531 9.875 15.769531 10.585938 15.769531 11.296875 C 15.769531 11.699219 15.769531 12.097656 15.773438 12.5 C 15.773438 12.875 15.773438 13.25 15.773438 13.625 C 15.773438 13.765625 15.773438 13.902344 15.773438 14.039062 C 15.773438 14.230469 15.773438 14.417969 15.773438 14.605469 C 15.773438 14.6875 15.773438 14.6875 15.773438 14.773438 C 15.773438 15.128906 15.707031 15.332031 15.46875 15.609375 C 15.230469 15.808594 14.914062 15.757812 14.621094 15.757812 C 14.5625 15.757812 14.503906 15.757812 14.445312 15.757812 C 14.246094 15.761719 14.046875 15.761719 13.851562 15.761719 C 13.710938 15.761719 13.570312 15.761719 13.429688 15.761719 C 13.042969 15.761719 12.660156 15.761719 12.277344 15.761719 C 12.035156 15.761719 11.796875 15.761719 11.558594 15.761719 C 10.894531 15.765625 10.230469 15.765625 9.566406 15.765625 C 9.523438 15.765625 9.480469 15.765625 9.4375 15.765625 C 9.394531 15.765625 9.351562 15.765625 9.308594 15.765625 C 9.222656 15.765625 9.136719 15.765625 9.046875 15.765625 C 9.007812 15.765625 8.964844 15.765625 8.917969 15.765625 C 8.226562 15.765625 7.53125 15.765625 6.839844 15.769531 C 6.125 15.769531 5.414062 15.769531 4.703125 15.769531 C 4.300781 15.769531 3.902344 15.769531 3.5 15.773438 C 3.125 15.773438 2.75 15.773438 2.375 15.773438 C 2.234375 15.773438 2.097656 15.773438 1.960938 15.773438 C 1.769531 15.773438 1.582031 15.773438 1.394531 15.773438 C 1.339844 15.773438 1.285156 15.773438 1.226562 15.773438 C 0.871094 15.773438 0.667969 15.707031 0.390625 15.46875 C 0.191406 15.230469 0.242188 14.914062 0.242188 14.621094 C 0.242188 14.5625 0.242188 14.503906 0.242188 14.445312 C 0.238281 14.246094 0.238281 14.046875 0.238281 13.851562 C 0.238281 13.710938 0.238281 13.570312 0.238281 13.429688 C 0.238281 13.042969 0.238281 12.660156 0.238281 12.277344 C 0.238281 12.035156 0.238281 11.796875 0.238281 11.558594 C 0.234375 10.894531 0.234375 10.230469 0.234375 9.566406 C 0.234375 9.523438 0.234375 9.480469 0.234375 9.4375 C 0.234375 9.394531 0.234375 9.351562 0.234375 9.308594 C 0.234375 9.222656 0.234375 9.136719 0.234375 9.046875 C 0.234375 8.984375 0.234375 8.984375 0.234375 8.917969 C 0.234375 8.226562 0.234375 7.53125 0.234375 6.839844 C 0.230469 6.125 0.230469 5.414062 0.230469 4.703125 C 0.230469 4.300781 0.230469 3.902344 0.226562 3.5 C 0.226562 3.125 0.226562 2.75 0.226562 2.375 C 0.226562 2.234375 0.226562 2.097656 0.226562 1.960938 C 0.226562 1.769531 0.226562 1.582031 0.226562 1.394531 C 0.226562 1.339844 0.226562 1.285156 0.226562 1.226562 C 0.230469 0.871094 0.292969 0.667969 0.53125 0.390625 C 0.769531 0.191406 1.085938 0.242188 1.378906 0.242188 Z M 1.378906 0.242188 "/>
<path style=" stroke:none;fill-rule:nonzero;fill:rgb(10.588235%,16.078432%,39.607844%);fill-opacity:1;" d="M 1.378906 0.242188 C 1.4375 0.242188 1.496094 0.242188 1.554688 0.242188 C 1.753906 0.238281 1.953125 0.238281 2.148438 0.238281 C 2.289062 0.238281 2.429688 0.238281 2.570312 0.238281 C 2.957031 0.238281 3.339844 0.238281 3.722656 0.238281 C 3.964844 0.238281 4.203125 0.238281 4.441406 0.238281 C 5.105469 0.234375 5.769531 0.234375 6.433594 0.234375 C 6.476562 0.234375 6.519531 0.234375 6.5625 0.234375 C 6.605469 0.234375 6.648438 0.234375 6.691406 0.234375 C 6.777344 0.234375 6.863281 0.234375 6.953125 0.234375 C 6.992188 0.234375 7.035156 0.234375 7.082031 0.234375 C 7.773438 0.234375 8.46875 0.234375 9.160156 0.230469 C 9.875 0.230469 10.585938 0.230469 11.296875 0.230469 C 11.699219 0.230469 12.097656 0.230469 12.5 0.226562 C 12.875 0.226562 13.25 0.226562 13.625 0.226562 C 13.765625 0.226562 13.902344 0.226562 14.039062 0.226562 C 14.230469 0.226562 14.417969 0.226562 14.605469 0.226562 C 14.6875 0.226562 14.6875 0.226562 14.773438 0.226562 C 15.128906 0.230469 15.332031 0.292969 15.609375 0.53125 C 15.992188 0.988281 15.75 2.070312 15.75 2.375 C 10.636719 2.375 5.519531 2.375 0.25 2.375 C 0.25 0.71875 0.25 0.71875 0.53125 0.390625 C 0.769531 0.191406 1.085938 0.242188 1.378906 0.242188 Z M 1.378906 0.242188 "/>
<path style=" stroke:none;fill-rule:nonzero;fill:rgb(66.666669%,68.627453%,73.725492%);fill-opacity:1;" d="M 3 3.5 C 3.125 3.496094 3.25 3.496094 3.375 3.5 C 3.492188 3.617188 3.445312 3.828125 3.445312 3.988281 C 3.445312 4.03125 3.445312 4.078125 3.445312 4.121094 C 3.445312 4.273438 3.445312 4.425781 3.445312 4.578125 C 3.445312 4.6875 3.445312 4.792969 3.449219 4.902344 C 3.449219 5.195312 3.449219 5.492188 3.449219 5.785156 C 3.449219 6.03125 3.449219 6.277344 3.449219 6.523438 C 3.449219 7.101562 3.449219 7.679688 3.449219 8.261719 C 3.449219 8.859375 3.449219 9.457031 3.449219 10.054688 C 3.453125 10.566406 3.453125 11.082031 3.453125 11.59375 C 3.453125 11.902344 3.453125 12.207031 3.453125 12.515625 C 3.453125 12.800781 3.453125 13.089844 3.453125 13.378906 C 3.453125 13.484375 3.453125 13.589844 3.453125 13.699219 C 3.453125 13.84375 3.453125 13.984375 3.453125 14.128906 C 3.453125 14.210938 3.453125 14.292969 3.453125 14.375 C 3.4375 14.5625 3.4375 14.5625 3.3125 14.6875 C 3.152344 14.671875 3.152344 14.671875 3 14.625 C 2.90625 14.441406 2.929688 14.277344 2.929688 14.074219 C 2.929688 14.027344 2.929688 13.984375 2.929688 13.9375 C 2.929688 13.789062 2.929688 13.640625 2.929688 13.488281 C 2.929688 13.382812 2.929688 13.277344 2.929688 13.167969 C 2.929688 12.878906 2.929688 12.585938 2.929688 12.296875 C 2.929688 11.992188 2.929688 11.6875 2.929688 11.382812 C 2.929688 10.871094 2.929688 10.363281 2.929688 9.851562 C 2.929688 9.261719 2.929688 8.667969 2.929688 8.078125 C 2.929688 7.570312 2.929688 7.0625 2.929688 6.558594 C 2.929688 6.253906 2.929688 5.953125 2.929688 5.648438 C 2.929688 5.363281 2.929688 5.078125 2.929688 4.792969 C 2.929688 4.6875 2.929688 4.585938 2.929688 4.480469 C 2.929688 4.335938 2.929688 4.195312 2.929688 4.050781 C 2.929688 3.972656 2.929688 3.890625 2.929688 3.808594 C 2.9375 3.625 2.9375 3.625 3 3.5 Z M 3 3.5 "/>
<path style=" stroke:none;fill-rule:nonzero;fill:rgb(5.882353%,9.411765%,30.19608%);fill-opacity:1;" d="M 6.320312 1.054688 C 6.390625 1.054688 6.457031 1.054688 6.53125 1.054688 C 6.605469 1.054688 6.683594 1.054688 6.761719 1.054688 C 6.882812 1.054688 6.882812 1.054688 7.003906 1.054688 C 7.226562 1.050781 7.449219 1.050781 7.667969 1.050781 C 7.851562 1.050781 8.035156 1.050781 8.21875 1.050781 C 8.652344 1.050781 9.089844 1.050781 9.523438 1.050781 C 9.972656 1.050781 10.417969 1.050781 10.867188 1.050781 C 11.253906 1.046875 11.636719 1.046875 12.019531 1.046875 C 12.25 1.046875 12.480469 1.046875 12.710938 1.046875 C 12.964844 1.046875 13.222656 1.046875 13.480469 1.046875 C 13.554688 1.046875 13.632812 1.046875 13.710938 1.046875 C 13.816406 1.046875 13.816406 1.046875 13.921875 1.046875 C 13.984375 1.046875 14.042969 1.046875 14.105469 1.046875 C 14.25 1.0625 14.25 1.0625 14.375 1.1875 C 14.390625 1.34375 14.390625 1.34375 14.375 1.5 C 14.214844 1.660156 14.148438 1.640625 13.925781 1.640625 C 13.855469 1.640625 13.789062 1.640625 13.714844 1.644531 C 13.640625 1.640625 13.566406 1.640625 13.488281 1.640625 C 13.40625 1.640625 13.328125 1.644531 13.246094 1.644531 C 13.027344 1.644531 12.808594 1.644531 12.589844 1.644531 C 12.40625 1.644531 12.226562 1.644531 12.042969 1.644531 C 11.613281 1.644531 11.183594 1.644531 10.753906 1.644531 C 10.308594 1.644531 9.863281 1.644531 9.421875 1.648438 C 9.039062 1.648438 8.660156 1.648438 8.277344 1.648438 C 8.050781 1.648438 7.824219 1.648438 7.59375 1.648438 C 7.339844 1.648438 7.085938 1.648438 6.832031 1.648438 C 6.757812 1.648438 6.683594 1.648438 6.605469 1.648438 C 6.535156 1.648438 6.464844 1.648438 6.394531 1.648438 C 6.335938 1.648438 6.273438 1.648438 6.214844 1.648438 C 6.0625 1.625 6.0625 1.625 5.945312 1.539062 C 5.875 1.4375 5.875 1.4375 5.890625 1.273438 C 5.972656 1.015625 6.0625 1.054688 6.320312 1.054688 Z M 6.320312 1.054688 "/>
<path style=" stroke:none;fill-rule:nonzero;fill:rgb(89.803922%,77.64706%,18.431373%);fill-opacity:1;" d="M 9.515625 13.054688 C 9.5625 13.054688 9.609375 13.054688 9.65625 13.054688 C 9.707031 13.054688 9.753906 13.050781 9.804688 13.050781 C 9.96875 13.050781 10.132812 13.050781 10.296875 13.050781 C 10.410156 13.050781 10.523438 13.050781 10.636719 13.050781 C 10.875 13.050781 11.109375 13.050781 11.347656 13.050781 C 11.652344 13.050781 11.957031 13.050781 12.261719 13.050781 C 12.496094 13.046875 12.730469 13.046875 12.964844 13.046875 C 13.078125 13.046875 13.1875 13.046875 13.300781 13.046875 C 13.457031 13.046875 13.613281 13.046875 13.773438 13.046875 C 13.820312 13.046875 13.867188 13.046875 13.914062 13.046875 C 14.234375 13.046875 14.234375 13.046875 14.375 13.1875 C 14.390625 13.34375 14.390625 13.34375 14.375 13.5 C 14.21875 13.65625 14.128906 13.640625 13.917969 13.644531 C 13.875 13.644531 13.828125 13.640625 13.78125 13.640625 C 13.730469 13.644531 13.683594 13.644531 13.632812 13.644531 C 13.472656 13.644531 13.3125 13.644531 13.152344 13.644531 C 13.039062 13.644531 12.925781 13.644531 12.816406 13.644531 C 12.582031 13.644531 12.347656 13.644531 12.113281 13.644531 C 11.816406 13.644531 11.515625 13.644531 11.214844 13.648438 C 10.984375 13.648438 10.753906 13.648438 10.523438 13.648438 C 10.414062 13.648438 10.300781 13.648438 10.191406 13.648438 C 10.039062 13.648438 9.882812 13.648438 9.726562 13.648438 C 9.683594 13.648438 9.636719 13.648438 9.589844 13.648438 C 9.40625 13.648438 9.28125 13.644531 9.125 13.539062 C 9.0625 13.4375 9.0625 13.4375 9.078125 13.273438 C 9.160156 13.011719 9.257812 13.054688 9.515625 13.054688 Z M 9.515625 13.054688 "/>
<path style=" stroke:none;fill-rule:nonzero;fill:rgb(89.803922%,77.254903%,14.509805%);fill-opacity:1;" d="M 9.515625 8.804688 C 9.5625 8.804688 9.609375 8.804688 9.65625 8.804688 C 9.707031 8.804688 9.753906 8.800781 9.804688 8.800781 C 9.96875 8.800781 10.132812 8.800781 10.296875 8.800781 C 10.410156 8.800781 10.523438 8.800781 10.636719 8.800781 C 10.875 8.800781 11.109375 8.800781 11.347656 8.800781 C 11.652344 8.800781 11.957031 8.800781 12.261719 8.800781 C 12.496094 8.796875 12.730469 8.796875 12.964844 8.796875 C 13.078125 8.796875 13.1875 8.796875 13.300781 8.796875 C 13.457031 8.796875 13.613281 8.796875 13.773438 8.796875 C 13.820312 8.796875 13.867188 8.796875 13.914062 8.796875 C 14.234375 8.796875 14.234375 8.796875 14.375 8.9375 C 14.386719 9.097656 14.386719 9.097656 14.375 9.25 C 14.265625 9.359375 14.125 9.320312 13.980469 9.320312 C 13.933594 9.320312 13.886719 9.320312 13.835938 9.320312 C 13.761719 9.320312 13.761719 9.320312 13.6875 9.320312 C 13.519531 9.324219 13.355469 9.324219 13.191406 9.324219 C 13.074219 9.324219 12.960938 9.324219 12.847656 9.324219 C 12.605469 9.324219 12.363281 9.324219 12.125 9.324219 C 11.816406 9.324219 11.507812 9.324219 11.199219 9.324219 C 10.960938 9.328125 10.726562 9.328125 10.488281 9.328125 C 10.375 9.328125 10.261719 9.328125 10.148438 9.328125 C 9.988281 9.328125 9.832031 9.328125 9.671875 9.328125 C 9.601562 9.328125 9.601562 9.328125 9.527344 9.328125 C 9.203125 9.328125 9.203125 9.328125 9.0625 9.1875 C 9.105469 8.824219 9.160156 8.804688 9.515625 8.804688 Z M 9.515625 8.804688 "/>
<path style=" stroke:none;fill-rule:nonzero;fill:rgb(89.803922%,77.254903%,14.509805%);fill-opacity:1;" d="M 9.519531 4.554688 C 9.589844 4.554688 9.589844 4.554688 9.664062 4.554688 C 9.714844 4.554688 9.761719 4.554688 9.816406 4.554688 C 9.980469 4.554688 10.148438 4.554688 10.3125 4.554688 C 10.425781 4.554688 10.542969 4.554688 10.65625 4.554688 C 10.898438 4.554688 11.136719 4.554688 11.378906 4.554688 C 11.6875 4.554688 11.996094 4.554688 12.304688 4.554688 C 12.542969 4.554688 12.78125 4.554688 13.015625 4.554688 C 13.128906 4.554688 13.246094 4.554688 13.359375 4.554688 C 13.519531 4.554688 13.675781 4.554688 13.835938 4.554688 C 13.882812 4.554688 13.929688 4.554688 13.980469 4.554688 C 14.304688 4.554688 14.304688 4.554688 14.375 4.625 C 14.386719 4.777344 14.386719 4.777344 14.375 4.9375 C 14.21875 5.09375 14.128906 5.078125 13.914062 5.078125 C 13.84375 5.078125 13.84375 5.078125 13.773438 5.078125 C 13.722656 5.078125 13.675781 5.078125 13.625 5.078125 C 13.460938 5.078125 13.296875 5.078125 13.136719 5.078125 C 13.023438 5.078125 12.910156 5.078125 12.796875 5.078125 C 12.558594 5.078125 12.320312 5.078125 12.085938 5.078125 C 11.78125 5.078125 11.476562 5.078125 11.171875 5.078125 C 10.9375 5.078125 10.703125 5.078125 10.472656 5.078125 C 10.359375 5.078125 10.246094 5.078125 10.132812 5.078125 C 9.976562 5.078125 9.820312 5.078125 9.664062 5.078125 C 9.617188 5.078125 9.570312 5.078125 9.523438 5.078125 C 9.203125 5.078125 9.203125 5.078125 9.0625 4.9375 C 9.105469 4.574219 9.160156 4.554688 9.519531 4.554688 Z M 9.519531 4.554688 "/>
<path style=" stroke:none;fill-rule:nonzero;fill:rgb(89.803922%,77.64706%,18.431373%);fill-opacity:1;" d="M 11.140625 14.109375 C 11.207031 14.109375 11.277344 14.109375 11.347656 14.109375 C 11.460938 14.109375 11.460938 14.109375 11.570312 14.109375 C 11.648438 14.109375 11.722656 14.109375 11.800781 14.109375 C 11.960938 14.109375 12.125 14.109375 12.285156 14.109375 C 12.53125 14.109375 12.777344 14.109375 13.023438 14.109375 C 13.179688 14.109375 13.335938 14.109375 13.492188 14.109375 C 13.566406 14.109375 13.636719 14.109375 13.714844 14.109375 C 13.816406 14.109375 13.816406 14.109375 13.921875 14.109375 C 14.011719 14.109375 14.011719 14.109375 14.105469 14.109375 C 14.25 14.125 14.25 14.125 14.375 14.25 C 14.390625 14.40625 14.390625 14.40625 14.375 14.5625 C 14.210938 14.722656 14.148438 14.703125 13.921875 14.703125 C 13.820312 14.703125 13.820312 14.703125 13.714844 14.703125 C 13.640625 14.703125 13.566406 14.703125 13.492188 14.703125 C 13.414062 14.703125 13.339844 14.703125 13.261719 14.703125 C 13.101562 14.703125 12.941406 14.703125 12.777344 14.703125 C 12.53125 14.703125 12.285156 14.703125 12.039062 14.703125 C 11.882812 14.703125 11.726562 14.703125 11.570312 14.703125 C 11.460938 14.703125 11.460938 14.703125 11.347656 14.703125 C 11.277344 14.703125 11.210938 14.703125 11.140625 14.703125 C 11.078125 14.703125 11.019531 14.703125 10.957031 14.703125 C 10.8125 14.6875 10.8125 14.6875 10.6875 14.5625 C 10.671875 14.40625 10.671875 14.40625 10.6875 14.25 C 10.851562 14.089844 10.914062 14.109375 11.140625 14.109375 Z M 11.140625 14.109375 "/>
<path style=" stroke:none;fill-rule:nonzero;fill:rgb(89.803922%,77.254903%,14.509805%);fill-opacity:1;" d="M 11.140625 9.859375 C 11.207031 9.859375 11.277344 9.859375 11.347656 9.859375 C 11.460938 9.859375 11.460938 9.859375 11.570312 9.859375 C 11.648438 9.859375 11.722656 9.859375 11.800781 9.859375 C 11.960938 9.859375 12.125 9.859375 12.285156 9.859375 C 12.53125 9.859375 12.777344 9.859375 13.023438 9.859375 C 13.179688 9.859375 13.335938 9.859375 13.492188 9.859375 C 13.566406 9.859375 13.636719 9.859375 13.714844 9.859375 C 13.816406 9.859375 13.816406 9.859375 13.921875 9.859375 C 14.011719 9.859375 14.011719 9.859375 14.105469 9.859375 C 14.25 9.875 14.25 9.875 14.375 10 C 14.386719 10.160156 14.386719 10.160156 14.375 10.3125 C 14.269531 10.421875 14.125 10.382812 13.980469 10.382812 C 13.910156 10.382812 13.835938 10.382812 13.765625 10.382812 C 13.6875 10.382812 13.609375 10.382812 13.527344 10.382812 C 13.449219 10.382812 13.371094 10.382812 13.289062 10.382812 C 13.125 10.382812 12.957031 10.382812 12.789062 10.382812 C 12.574219 10.382812 12.359375 10.382812 12.144531 10.382812 C 11.941406 10.382812 11.738281 10.382812 11.535156 10.382812 C 11.457031 10.382812 11.378906 10.382812 11.296875 10.382812 C 11.226562 10.382812 11.15625 10.382812 11.082031 10.382812 C 11.019531 10.382812 10.957031 10.382812 10.890625 10.382812 C 10.75 10.375 10.75 10.375 10.6875 10.3125 C 10.675781 10.160156 10.675781 10.160156 10.6875 10 C 10.851562 9.839844 10.914062 9.859375 11.140625 9.859375 Z M 11.140625 9.859375 "/>
<path style=" stroke:none;fill-rule:nonzero;fill:rgb(89.803922%,77.254903%,14.509805%);fill-opacity:1;" d="M 11.082031 5.617188 C 11.15625 5.617188 11.226562 5.617188 11.296875 5.617188 C 11.375 5.617188 11.453125 5.617188 11.53125 5.617188 C 11.613281 5.617188 11.691406 5.617188 11.773438 5.617188 C 11.9375 5.617188 12.105469 5.617188 12.273438 5.617188 C 12.488281 5.617188 12.703125 5.617188 12.917969 5.617188 C 13.121094 5.617188 13.324219 5.617188 13.53125 5.617188 C 13.605469 5.617188 13.683594 5.617188 13.765625 5.617188 C 13.835938 5.617188 13.90625 5.617188 13.980469 5.617188 C 14.042969 5.617188 14.105469 5.617188 14.171875 5.617188 C 14.3125 5.625 14.3125 5.625 14.375 5.6875 C 14.386719 5.839844 14.386719 5.839844 14.375 6 C 14.214844 6.160156 14.148438 6.140625 13.921875 6.140625 C 13.820312 6.140625 13.820312 6.140625 13.714844 6.140625 C 13.640625 6.140625 13.566406 6.140625 13.488281 6.140625 C 13.414062 6.140625 13.339844 6.140625 13.261719 6.140625 C 13.101562 6.140625 12.9375 6.140625 12.777344 6.140625 C 12.53125 6.140625 12.285156 6.140625 12.039062 6.140625 C 11.882812 6.140625 11.726562 6.140625 11.574219 6.140625 C 11.460938 6.140625 11.460938 6.140625 11.347656 6.140625 C 11.28125 6.140625 11.210938 6.140625 11.140625 6.140625 C 11.078125 6.140625 11.019531 6.140625 10.957031 6.140625 C 10.8125 6.125 10.8125 6.125 10.6875 6 C 10.675781 5.839844 10.675781 5.839844 10.6875 5.6875 C 10.796875 5.578125 10.9375 5.617188 11.082031 5.617188 Z M 11.082031 5.617188 "/>
<path style=" stroke:none;fill-rule:nonzero;fill:rgb(89.803922%,77.64706%,18.431373%);fill-opacity:1;" d="M 10.339844 3.421875 C 10.421875 3.417969 10.421875 3.417969 10.507812 3.417969 C 10.566406 3.417969 10.628906 3.417969 10.691406 3.417969 C 10.75 3.417969 10.8125 3.417969 10.875 3.417969 C 11.007812 3.417969 11.136719 3.417969 11.269531 3.417969 C 11.46875 3.417969 11.667969 3.417969 11.867188 3.414062 C 11.996094 3.414062 12.121094 3.414062 12.246094 3.414062 C 12.308594 3.414062 12.367188 3.414062 12.429688 3.414062 C 12.484375 3.414062 12.539062 3.414062 12.597656 3.414062 C 12.648438 3.414062 12.695312 3.414062 12.746094 3.414062 C 12.910156 3.445312 12.964844 3.492188 13.0625 3.625 C 13.035156 3.902344 13.035156 3.902344 12.9375 4 C 12.847656 4.007812 12.753906 4.007812 12.664062 4.007812 C 12.574219 4.007812 12.574219 4.007812 12.484375 4.011719 C 12.421875 4.011719 12.359375 4.011719 12.292969 4.011719 C 12.226562 4.011719 12.164062 4.011719 12.097656 4.011719 C 11.960938 4.011719 11.820312 4.011719 11.683594 4.011719 C 11.472656 4.011719 11.261719 4.011719 11.050781 4.015625 C 10.917969 4.015625 10.785156 4.015625 10.652344 4.015625 C 10.589844 4.015625 10.527344 4.015625 10.460938 4.015625 C 10.402344 4.015625 10.34375 4.015625 10.28125 4.015625 C 10.230469 4.015625 10.179688 4.015625 10.125 4.015625 C 10 4 10 4 9.875 3.875 C 9.855469 3.71875 9.855469 3.71875 9.875 3.5625 C 10.070312 3.433594 10.117188 3.421875 10.339844 3.421875 Z M 10.339844 3.421875 "/>
<path style=" stroke:none;fill-rule:nonzero;fill:rgb(89.803922%,77.64706%,18.431373%);fill-opacity:1;" d="M 10.273438 11.992188 C 10.363281 11.992188 10.363281 11.992188 10.453125 11.988281 C 10.515625 11.988281 10.578125 11.988281 10.644531 11.988281 C 10.710938 11.988281 10.773438 11.988281 10.839844 11.988281 C 10.976562 11.988281 11.117188 11.988281 11.253906 11.988281 C 11.464844 11.988281 11.675781 11.988281 11.886719 11.984375 C 12.019531 11.984375 12.152344 11.984375 12.285156 11.984375 C 12.347656 11.984375 12.410156 11.984375 12.476562 11.984375 C 12.535156 11.984375 12.59375 11.984375 12.65625 11.984375 C 12.707031 11.984375 12.757812 11.984375 12.8125 11.984375 C 12.9375 12 12.9375 12 13.0625 12.125 C 13.046875 12.316406 13.046875 12.316406 13 12.5 C 12.855469 12.574219 12.769531 12.570312 12.605469 12.574219 C 12.550781 12.574219 12.492188 12.574219 12.4375 12.574219 C 12.347656 12.574219 12.347656 12.574219 12.253906 12.574219 C 12.160156 12.574219 12.160156 12.574219 12.066406 12.578125 C 11.9375 12.578125 11.804688 12.578125 11.675781 12.578125 C 11.472656 12.578125 11.273438 12.582031 11.074219 12.582031 C 10.945312 12.582031 10.820312 12.582031 10.691406 12.582031 C 10.601562 12.585938 10.601562 12.585938 10.507812 12.585938 C 10.453125 12.585938 10.398438 12.585938 10.339844 12.585938 C 10.265625 12.585938 10.265625 12.585938 10.191406 12.585938 C 10.027344 12.554688 9.972656 12.507812 9.875 12.375 C 9.90625 12.042969 9.953125 11.992188 10.273438 11.992188 Z M 10.273438 11.992188 "/>
<path style=" stroke:none;fill-rule:nonzero;fill:rgb(92.54902%,34.117648%,38.431373%);fill-opacity:1;" d="M 4.398438 11.992188 C 4.488281 11.992188 4.488281 11.992188 4.578125 11.988281 C 4.640625 11.988281 4.703125 11.988281 4.769531 11.988281 C 4.835938 11.988281 4.898438 11.988281 4.964844 11.988281 C 5.101562 11.988281 5.242188 11.988281 5.378906 11.988281 C 5.589844 11.988281 5.800781 11.988281 6.011719 11.984375 C 6.144531 11.984375 6.277344 11.984375 6.410156 11.984375 C 6.472656 11.984375 6.535156 11.984375 6.601562 11.984375 C 6.660156 11.984375 6.71875 11.984375 6.78125 11.984375 C 6.832031 11.984375 6.882812 11.984375 6.9375 11.984375 C 7.0625 12 7.0625 12 7.1875 12.125 C 7.207031 12.28125 7.207031 12.28125 7.1875 12.4375 C 6.992188 12.566406 6.945312 12.578125 6.722656 12.578125 C 6.640625 12.582031 6.640625 12.582031 6.554688 12.582031 C 6.496094 12.582031 6.433594 12.582031 6.371094 12.582031 C 6.3125 12.582031 6.25 12.582031 6.1875 12.582031 C 6.054688 12.582031 5.925781 12.582031 5.792969 12.582031 C 5.59375 12.582031 5.394531 12.582031 5.195312 12.585938 C 5.066406 12.585938 4.941406 12.585938 4.816406 12.585938 C 4.726562 12.585938 4.726562 12.585938 4.632812 12.585938 C 4.578125 12.585938 4.523438 12.585938 4.464844 12.585938 C 4.390625 12.585938 4.390625 12.585938 4.316406 12.585938 C 4.152344 12.554688 4.097656 12.507812 4 12.375 C 4.03125 12.042969 4.078125 11.992188 4.398438 11.992188 Z M 4.398438 11.992188 "/>
<path style=" stroke:none;fill-rule:nonzero;fill:rgb(92.54902%,34.117648%,38.431373%);fill-opacity:1;" d="M 4.457031 3.421875 C 4.511719 3.421875 4.566406 3.421875 4.625 3.421875 C 4.714844 3.421875 4.714844 3.421875 4.808594 3.421875 C 4.902344 3.421875 4.902344 3.421875 4.996094 3.421875 C 5.125 3.421875 5.257812 3.421875 5.386719 3.421875 C 5.589844 3.421875 5.789062 3.421875 5.988281 3.421875 C 6.117188 3.421875 6.242188 3.421875 6.371094 3.421875 C 6.460938 3.421875 6.460938 3.421875 6.554688 3.421875 C 6.609375 3.421875 6.664062 3.421875 6.722656 3.421875 C 6.773438 3.421875 6.820312 3.421875 6.871094 3.421875 C 7 3.4375 7 3.4375 7.1875 3.5625 C 7.207031 3.71875 7.207031 3.71875 7.1875 3.875 C 7.035156 4.027344 6.992188 4.015625 6.78125 4.015625 C 6.722656 4.015625 6.664062 4.015625 6.605469 4.015625 C 6.539062 4.015625 6.476562 4.015625 6.410156 4.015625 C 6.347656 4.015625 6.28125 4.015625 6.214844 4.015625 C 6.078125 4.015625 5.941406 4.015625 5.804688 4.015625 C 5.59375 4.015625 5.382812 4.015625 5.171875 4.015625 C 5.042969 4.015625 4.90625 4.015625 4.777344 4.015625 C 4.679688 4.015625 4.679688 4.015625 4.582031 4.015625 C 4.527344 4.015625 4.46875 4.015625 4.40625 4.015625 C 4.328125 4.015625 4.328125 4.015625 4.25 4.015625 C 4.125 4 4.125 4 4 3.875 C 4.03125 3.542969 4.121094 3.421875 4.457031 3.421875 Z M 4.457031 3.421875 "/>
<path style=" stroke:none;fill-rule:nonzero;fill:rgb(89.803922%,77.254903%,14.509805%);fill-opacity:1;" d="M 10.273438 7.742188 C 10.363281 7.742188 10.363281 7.742188 10.453125 7.738281 C 10.515625 7.738281 10.578125 7.738281 10.644531 7.738281 C 10.710938 7.738281 10.773438 7.738281 10.839844 7.738281 C 10.976562 7.738281 11.117188 7.738281 11.253906 7.738281 C 11.464844 7.738281 11.675781 7.738281 11.886719 7.734375 C 12.019531 7.734375 12.152344 7.734375 12.285156 7.734375 C 12.347656 7.734375 12.410156 7.734375 12.476562 7.734375 C 12.535156 7.734375 12.59375 7.734375 12.65625 7.734375 C 12.707031 7.734375 12.757812 7.734375 12.8125 7.734375 C 12.9375 7.75 12.9375 7.75 13.0625 7.875 C 13.027344 8.160156 13.027344 8.160156 12.9375 8.25 C 12.847656 8.257812 12.753906 8.257812 12.664062 8.257812 C 12.574219 8.257812 12.574219 8.257812 12.484375 8.261719 C 12.421875 8.261719 12.359375 8.261719 12.292969 8.261719 C 12.226562 8.261719 12.164062 8.261719 12.097656 8.261719 C 11.960938 8.261719 11.820312 8.261719 11.683594 8.261719 C 11.472656 8.261719 11.261719 8.261719 11.050781 8.265625 C 10.917969 8.265625 10.785156 8.265625 10.652344 8.265625 C 10.589844 8.265625 10.527344 8.265625 10.460938 8.265625 C 10.402344 8.265625 10.34375 8.265625 10.28125 8.265625 C 10.230469 8.265625 10.179688 8.265625 10.125 8.265625 C 10 8.25 10 8.25 9.875 8.125 C 9.914062 7.792969 9.949219 7.742188 10.273438 7.742188 Z M 10.273438 7.742188 "/>
<path style=" stroke:none;fill-rule:nonzero;fill:rgb(92.54902%,30.980393%,35.686275%);fill-opacity:1;" d="M 4.398438 7.742188 C 4.488281 7.742188 4.488281 7.742188 4.578125 7.738281 C 4.640625 7.738281 4.703125 7.738281 4.769531 7.738281 C 4.835938 7.738281 4.898438 7.738281 4.964844 7.738281 C 5.101562 7.738281 5.242188 7.738281 5.378906 7.738281 C 5.589844 7.738281 5.800781 7.738281 6.011719 7.734375 C 6.144531 7.734375 6.277344 7.734375 6.410156 7.734375 C 6.472656 7.734375 6.535156 7.734375 6.601562 7.734375 C 6.660156 7.734375 6.71875 7.734375 6.78125 7.734375 C 6.832031 7.734375 6.882812 7.734375 6.9375 7.734375 C 7.0625 7.75 7.0625 7.75 7.1875 7.875 C 7.152344 8.160156 7.152344 8.160156 7.0625 8.25 C 6.972656 8.257812 6.878906 8.257812 6.789062 8.257812 C 6.699219 8.257812 6.699219 8.257812 6.609375 8.261719 C 6.546875 8.261719 6.484375 8.261719 6.417969 8.261719 C 6.351562 8.261719 6.289062 8.261719 6.222656 8.261719 C 6.085938 8.261719 5.945312 8.261719 5.808594 8.261719 C 5.597656 8.261719 5.386719 8.261719 5.175781 8.265625 C 5.042969 8.265625 4.910156 8.265625 4.777344 8.265625 C 4.714844 8.265625 4.652344 8.265625 4.585938 8.265625 C 4.527344 8.265625 4.46875 8.265625 4.40625 8.265625 C 4.355469 8.265625 4.304688 8.265625 4.25 8.265625 C 4.125 8.25 4.125 8.25 4 8.125 C 4.039062 7.792969 4.074219 7.742188 4.398438 7.742188 Z M 4.398438 7.742188 "/>
<path style=" stroke:none;fill-rule:nonzero;fill:rgb(92.54902%,34.117648%,38.82353%);fill-opacity:1;" d="M 5.273438 14.109375 C 5.316406 14.109375 5.363281 14.109375 5.410156 14.109375 C 5.457031 14.109375 5.503906 14.109375 5.550781 14.109375 C 5.652344 14.109375 5.75 14.109375 5.847656 14.109375 C 6 14.109375 6.152344 14.109375 6.300781 14.109375 C 6.398438 14.109375 6.492188 14.109375 6.589844 14.109375 C 6.636719 14.109375 6.679688 14.109375 6.726562 14.109375 C 7.046875 14.109375 7.046875 14.109375 7.1875 14.25 C 7.203125 14.40625 7.203125 14.40625 7.1875 14.5625 C 7.03125 14.71875 6.941406 14.703125 6.726562 14.707031 C 6.683594 14.703125 6.636719 14.703125 6.589844 14.703125 C 6.519531 14.703125 6.519531 14.703125 6.449219 14.703125 C 6.347656 14.703125 6.25 14.703125 6.152344 14.703125 C 6 14.703125 5.847656 14.703125 5.699219 14.703125 C 5.601562 14.703125 5.507812 14.703125 5.410156 14.703125 C 5.363281 14.703125 5.320312 14.703125 5.273438 14.707031 C 4.953125 14.703125 4.953125 14.703125 4.8125 14.5625 C 4.796875 14.40625 4.796875 14.40625 4.8125 14.25 C 4.96875 14.09375 5.058594 14.109375 5.273438 14.109375 Z M 5.273438 14.109375 "/>
<path style=" stroke:none;fill-rule:nonzero;fill:rgb(23.921569%,80.392158%,57.647061%);fill-opacity:1;" d="M 8.210938 14.109375 C 8.253906 14.109375 8.300781 14.109375 8.347656 14.109375 C 8.394531 14.109375 8.441406 14.109375 8.488281 14.109375 C 8.589844 14.109375 8.6875 14.109375 8.785156 14.109375 C 8.9375 14.109375 9.089844 14.109375 9.238281 14.109375 C 9.335938 14.109375 9.429688 14.109375 9.527344 14.109375 C 9.574219 14.109375 9.617188 14.109375 9.664062 14.109375 C 9.984375 14.109375 9.984375 14.109375 10.125 14.25 C 10.144531 14.40625 10.144531 14.40625 10.125 14.5625 C 9.898438 14.714844 9.734375 14.707031 9.472656 14.703125 C 9.40625 14.703125 9.40625 14.703125 9.335938 14.703125 C 9.238281 14.703125 9.144531 14.703125 9.050781 14.703125 C 8.902344 14.703125 8.757812 14.703125 8.609375 14.703125 C 8.515625 14.703125 8.425781 14.703125 8.332031 14.703125 C 8.265625 14.703125 8.265625 14.703125 8.199219 14.707031 C 7.890625 14.703125 7.890625 14.703125 7.75 14.5625 C 7.734375 14.40625 7.734375 14.40625 7.75 14.25 C 7.90625 14.09375 7.996094 14.109375 8.210938 14.109375 Z M 8.210938 14.109375 "/>
<path style=" stroke:none;fill-rule:nonzero;fill:rgb(92.54902%,31.37255%,36.078432%);fill-opacity:1;" d="M 5.089844 5.617188 C 5.183594 5.617188 5.277344 5.617188 5.371094 5.621094 C 5.421875 5.621094 5.472656 5.621094 5.523438 5.621094 C 5.683594 5.621094 5.84375 5.621094 6.003906 5.621094 C 6.113281 5.621094 6.21875 5.621094 6.328125 5.621094 C 6.59375 5.621094 6.859375 5.625 7.125 5.625 C 7.164062 5.804688 7.164062 5.804688 7.1875 6 C 7.03125 6.15625 6.941406 6.140625 6.726562 6.140625 C 6.683594 6.140625 6.636719 6.140625 6.589844 6.140625 C 6.519531 6.140625 6.519531 6.140625 6.449219 6.140625 C 6.351562 6.140625 6.25 6.140625 6.152344 6.140625 C 6 6.140625 5.847656 6.140625 5.699219 6.140625 C 5.601562 6.140625 5.507812 6.140625 5.410156 6.140625 C 5.363281 6.140625 5.320312 6.140625 5.273438 6.140625 C 4.953125 6.140625 4.953125 6.140625 4.8125 6 C 4.800781 5.839844 4.800781 5.839844 4.8125 5.6875 C 4.875 5.625 4.875 5.625 5.089844 5.617188 Z M 5.089844 5.617188 "/>
<path style=" stroke:none;fill-rule:nonzero;fill:rgb(20.392157%,80.000001%,55.686277%);fill-opacity:1;" d="M 8.210938 9.859375 C 8.253906 9.859375 8.300781 9.859375 8.347656 9.859375 C 8.394531 9.859375 8.441406 9.859375 8.488281 9.859375 C 8.589844 9.859375 8.6875 9.859375 8.785156 9.859375 C 8.9375 9.859375 9.089844 9.859375 9.238281 9.859375 C 9.335938 9.859375 9.429688 9.859375 9.527344 9.859375 C 9.574219 9.859375 9.617188 9.859375 9.664062 9.859375 C 9.984375 9.859375 9.984375 9.859375 10.125 10 C 10.089844 10.285156 10.089844 10.285156 10 10.375 C 9.839844 10.382812 9.679688 10.382812 9.515625 10.382812 C 9.445312 10.382812 9.445312 10.382812 9.371094 10.382812 C 9.269531 10.382812 9.167969 10.382812 9.0625 10.382812 C 8.90625 10.382812 8.75 10.382812 8.59375 10.382812 C 8.492188 10.382812 8.394531 10.382812 8.296875 10.382812 C 8.246094 10.382812 8.199219 10.382812 8.152344 10.382812 C 7.820312 10.382812 7.820312 10.382812 7.75 10.3125 C 7.738281 10.160156 7.738281 10.160156 7.75 10 C 7.90625 9.84375 7.996094 9.859375 8.210938 9.859375 Z M 8.210938 9.859375 "/>
<path style=" stroke:none;fill-rule:nonzero;fill:rgb(20.392157%,80.000001%,55.686277%);fill-opacity:1;" d="M 8.292969 5.613281 C 8.339844 5.613281 8.390625 5.613281 8.4375 5.613281 C 8.539062 5.613281 8.644531 5.613281 8.746094 5.613281 C 8.902344 5.613281 9.058594 5.613281 9.214844 5.609375 C 9.3125 5.609375 9.414062 5.609375 9.511719 5.609375 C 9.558594 5.609375 9.605469 5.609375 9.652344 5.609375 C 9.984375 5.609375 9.984375 5.609375 10.125 5.75 C 10.089844 6.035156 10.089844 6.035156 10 6.125 C 9.84375 6.132812 9.691406 6.136719 9.535156 6.136719 C 9.464844 6.136719 9.464844 6.136719 9.390625 6.136719 C 9.292969 6.136719 9.191406 6.136719 9.09375 6.136719 C 8.941406 6.136719 8.789062 6.136719 8.636719 6.140625 C 8.542969 6.140625 8.445312 6.140625 8.347656 6.140625 C 8.28125 6.140625 8.28125 6.140625 8.210938 6.140625 C 7.890625 6.140625 7.890625 6.140625 7.75 6 C 7.738281 5.839844 7.738281 5.839844 7.75 5.6875 C 7.875 5.5625 8.121094 5.613281 8.292969 5.613281 Z M 8.292969 5.613281 "/>
<path style=" stroke:none;fill-rule:nonzero;fill:rgb(92.54902%,30.980393%,35.686275%);fill-opacity:1;" d="M 5.273438 9.859375 C 5.316406 9.859375 5.363281 9.859375 5.410156 9.859375 C 5.457031 9.859375 5.503906 9.859375 5.550781 9.859375 C 5.652344 9.859375 5.75 9.859375 5.847656 9.859375 C 6 9.859375 6.152344 9.859375 6.300781 9.859375 C 6.398438 9.859375 6.492188 9.859375 6.589844 9.859375 C 6.636719 9.859375 6.679688 9.859375 6.726562 9.859375 C 7.046875 9.859375 7.046875 9.859375 7.1875 10 C 7.152344 10.285156 7.152344 10.285156 7.0625 10.375 C 6.902344 10.378906 6.738281 10.382812 6.578125 10.382812 C 6.53125 10.378906 6.480469 10.378906 6.429688 10.378906 C 6.277344 10.378906 6.121094 10.378906 5.964844 10.378906 C 5.859375 10.378906 5.753906 10.378906 5.648438 10.378906 C 5.390625 10.378906 5.132812 10.375 4.875 10.375 C 4.835938 10.195312 4.835938 10.195312 4.8125 10 C 4.96875 9.84375 5.058594 9.859375 5.273438 9.859375 Z M 5.273438 9.859375 "/>
<path style=" stroke:none;fill-rule:nonzero;fill:rgb(92.54902%,34.117648%,38.82353%);fill-opacity:1;" d="M 5.234375 13.046875 C 5.289062 13.046875 5.347656 13.046875 5.410156 13.046875 C 5.46875 13.046875 5.53125 13.046875 5.59375 13.046875 C 5.65625 13.046875 5.714844 13.046875 5.777344 13.046875 C 5.835938 13.046875 5.894531 13.046875 5.953125 13.046875 C 6.007812 13.046875 6.0625 13.046875 6.117188 13.046875 C 6.25 13.0625 6.25 13.0625 6.375 13.1875 C 6.390625 13.34375 6.390625 13.34375 6.375 13.5 C 6.222656 13.652344 6.179688 13.640625 5.972656 13.640625 C 5.914062 13.640625 5.859375 13.640625 5.804688 13.640625 C 5.746094 13.640625 5.6875 13.640625 5.628906 13.640625 C 5.570312 13.640625 5.515625 13.640625 5.453125 13.640625 C 5.398438 13.640625 5.34375 13.640625 5.289062 13.640625 C 5.238281 13.640625 5.1875 13.640625 5.132812 13.640625 C 5 13.625 5 13.625 4.8125 13.5 C 4.792969 13.34375 4.792969 13.34375 4.8125 13.1875 C 4.96875 13.03125 5.019531 13.046875 5.234375 13.046875 Z M 5.234375 13.046875 "/>
<path style=" stroke:none;fill-rule:nonzero;fill:rgb(23.529412%,80.392158%,57.647061%);fill-opacity:1;" d="M 7.714844 13.050781 C 7.777344 13.050781 7.835938 13.050781 7.902344 13.046875 C 7.960938 13.046875 8.015625 13.046875 8.078125 13.046875 C 8.132812 13.046875 8.183594 13.046875 8.242188 13.046875 C 8.375 13.0625 8.375 13.0625 8.5 13.1875 C 8.515625 13.34375 8.515625 13.34375 8.5 13.5 C 8.320312 13.679688 8.175781 13.644531 7.929688 13.644531 C 7.871094 13.644531 7.8125 13.644531 7.753906 13.644531 C 7.667969 13.644531 7.667969 13.644531 7.578125 13.648438 C 7.496094 13.648438 7.496094 13.648438 7.414062 13.648438 C 7.363281 13.648438 7.3125 13.648438 7.257812 13.648438 C 7.09375 13.621094 7.035156 13.574219 6.9375 13.4375 C 6.984375 12.9375 7.289062 13.050781 7.714844 13.050781 Z M 7.714844 13.050781 "/>
<path style=" stroke:none;fill-rule:nonzero;fill:rgb(23.529412%,80.392158%,57.647061%);fill-opacity:1;" d="M 8.171875 11.984375 C 8.226562 11.984375 8.285156 11.984375 8.347656 11.984375 C 8.40625 11.984375 8.46875 11.984375 8.53125 11.984375 C 8.59375 11.984375 8.652344 11.984375 8.714844 11.984375 C 8.773438 11.984375 8.832031 11.984375 8.890625 11.984375 C 8.945312 11.984375 9 11.984375 9.054688 11.984375 C 9.1875 12 9.1875 12 9.3125 12.125 C 9.332031 12.28125 9.332031 12.28125 9.3125 12.4375 C 9.117188 12.566406 9.074219 12.578125 8.855469 12.578125 C 8.800781 12.578125 8.75 12.578125 8.695312 12.578125 C 8.640625 12.578125 8.585938 12.578125 8.53125 12.578125 C 8.449219 12.578125 8.449219 12.578125 8.367188 12.578125 C 8.316406 12.578125 8.261719 12.578125 8.207031 12.578125 C 8.160156 12.578125 8.113281 12.578125 8.066406 12.578125 C 7.9375 12.5625 7.9375 12.5625 7.75 12.4375 C 7.730469 12.28125 7.730469 12.28125 7.75 12.125 C 7.90625 11.96875 7.957031 11.984375 8.171875 11.984375 Z M 8.171875 11.984375 "/>
<path style=" stroke:none;fill-rule:nonzero;fill:rgb(23.529412%,80.392158%,57.647061%);fill-opacity:1;" d="M 8.210938 3.421875 C 8.261719 3.421875 8.3125 3.421875 8.367188 3.421875 C 8.421875 3.421875 8.476562 3.421875 8.53125 3.421875 C 8.613281 3.421875 8.613281 3.421875 8.695312 3.421875 C 8.746094 3.421875 8.800781 3.421875 8.851562 3.421875 C 8.902344 3.421875 8.949219 3.421875 8.996094 3.421875 C 9.125 3.4375 9.125 3.4375 9.3125 3.5625 C 9.332031 3.71875 9.332031 3.71875 9.3125 3.875 C 9.15625 4.03125 9.105469 4.015625 8.894531 4.015625 C 8.835938 4.015625 8.777344 4.015625 8.714844 4.015625 C 8.65625 4.015625 8.59375 4.015625 8.53125 4.015625 C 8.46875 4.015625 8.410156 4.015625 8.347656 4.015625 C 8.289062 4.015625 8.230469 4.015625 8.171875 4.015625 C 8.117188 4.015625 8.0625 4.015625 8.007812 4.015625 C 7.875 4 7.875 4 7.75 3.875 C 7.730469 3.71875 7.730469 3.71875 7.75 3.5625 C 7.945312 3.433594 7.988281 3.421875 8.210938 3.421875 Z M 8.210938 3.421875 "/>
<path style=" stroke:none;fill-rule:nonzero;fill:rgb(20.784314%,80.000001%,56.078434%);fill-opacity:1;" d="M 7.367188 8.804688 C 7.429688 8.804688 7.492188 8.804688 7.554688 8.804688 C 7.617188 8.804688 7.683594 8.804688 7.75 8.804688 C 7.847656 8.804688 7.847656 8.804688 7.945312 8.804688 C 8.007812 8.804688 8.070312 8.804688 8.132812 8.804688 C 8.191406 8.804688 8.246094 8.804688 8.304688 8.804688 C 8.4375 8.8125 8.4375 8.8125 8.5 8.875 C 8.507812 9.0625 8.507812 9.0625 8.5 9.25 C 8.347656 9.402344 7.957031 9.324219 7.753906 9.324219 C 7.691406 9.324219 7.625 9.324219 7.558594 9.328125 C 7.46875 9.328125 7.46875 9.328125 7.375 9.328125 C 7.289062 9.328125 7.289062 9.328125 7.203125 9.328125 C 7.0625 9.3125 7.0625 9.3125 6.9375 9.1875 C 6.980469 8.839844 7.023438 8.804688 7.367188 8.804688 Z M 7.367188 8.804688 "/>
<path style=" stroke:none;fill-rule:nonzero;fill:rgb(92.54902%,31.37255%,36.078432%);fill-opacity:1;" d="M 5.195312 4.554688 C 5.257812 4.554688 5.320312 4.554688 5.386719 4.554688 C 5.492188 4.554688 5.492188 4.554688 5.59375 4.554688 C 5.660156 4.554688 5.730469 4.554688 5.800781 4.554688 C 5.863281 4.554688 5.929688 4.554688 5.992188 4.554688 C 6.082031 4.554688 6.082031 4.554688 6.175781 4.554688 C 6.3125 4.5625 6.3125 4.5625 6.375 4.625 C 6.386719 4.777344 6.386719 4.777344 6.375 4.9375 C 6.21875 5.09375 6.167969 5.078125 5.957031 5.078125 C 5.898438 5.078125 5.839844 5.078125 5.777344 5.078125 C 5.71875 5.078125 5.65625 5.078125 5.59375 5.078125 C 5.53125 5.078125 5.472656 5.078125 5.410156 5.078125 C 5.351562 5.078125 5.292969 5.078125 5.230469 5.078125 C 5.179688 5.078125 5.125 5.078125 5.070312 5.078125 C 4.9375 5.0625 4.9375 5.0625 4.8125 4.9375 C 4.800781 4.777344 4.800781 4.777344 4.8125 4.625 C 4.917969 4.519531 5.050781 4.554688 5.195312 4.554688 Z M 5.195312 4.554688 "/>
<path style=" stroke:none;fill-rule:nonzero;fill:rgb(92.54902%,31.37255%,36.078432%);fill-opacity:1;" d="M 5.226562 8.804688 C 5.3125 8.804688 5.3125 8.804688 5.402344 8.804688 C 5.496094 8.804688 5.496094 8.804688 5.589844 8.804688 C 5.652344 8.804688 5.710938 8.804688 5.777344 8.804688 C 5.832031 8.804688 5.890625 8.804688 5.953125 8.804688 C 6.035156 8.804688 6.035156 8.804688 6.117188 8.804688 C 6.25 8.8125 6.25 8.8125 6.375 8.875 C 6.378906 9 6.378906 9.125 6.375 9.25 C 6.222656 9.402344 5.832031 9.324219 5.628906 9.324219 C 5.5625 9.324219 5.5 9.324219 5.433594 9.328125 C 5.34375 9.328125 5.34375 9.328125 5.25 9.328125 C 5.164062 9.328125 5.164062 9.328125 5.078125 9.328125 C 4.9375 9.3125 4.9375 9.3125 4.8125 9.1875 C 4.855469 8.847656 4.890625 8.804688 5.226562 8.804688 Z M 5.226562 8.804688 "/>
<path style=" stroke:none;fill-rule:nonzero;fill:rgb(20.392157%,80.000001%,55.686277%);fill-opacity:1;" d="M 7.367188 4.554688 C 7.429688 4.554688 7.492188 4.554688 7.554688 4.554688 C 7.617188 4.554688 7.683594 4.554688 7.75 4.554688 C 7.847656 4.554688 7.847656 4.554688 7.945312 4.554688 C 8.007812 4.554688 8.070312 4.554688 8.132812 4.554688 C 8.191406 4.554688 8.246094 4.554688 8.304688 4.554688 C 8.4375 4.5625 8.4375 4.5625 8.5 4.625 C 8.503906 4.75 8.503906 4.875 8.5 5 C 8.265625 5.117188 7.976562 5.074219 7.71875 5.074219 C 7.65625 5.074219 7.597656 5.074219 7.535156 5.078125 C 7.445312 5.078125 7.445312 5.078125 7.355469 5.078125 C 7.304688 5.078125 7.25 5.078125 7.195312 5.078125 C 7.0625 5.0625 7.0625 5.0625 6.9375 4.9375 C 6.980469 4.589844 7.023438 4.554688 7.367188 4.554688 Z M 7.367188 4.554688 "/>
<path style=" stroke:none;fill-rule:nonzero;fill:rgb(20%,80.000001%,55.686277%);fill-opacity:1;" d="M 8.527344 7.738281 C 8.589844 7.738281 8.648438 7.738281 8.714844 7.734375 C 8.773438 7.734375 8.828125 7.734375 8.890625 7.734375 C 8.945312 7.734375 8.996094 7.734375 9.054688 7.734375 C 9.1875 7.75 9.1875 7.75 9.3125 7.875 C 9.277344 8.160156 9.277344 8.160156 9.1875 8.25 C 8.96875 8.265625 8.753906 8.261719 8.535156 8.261719 C 8.472656 8.261719 8.414062 8.261719 8.347656 8.265625 C 8.292969 8.265625 8.230469 8.265625 8.171875 8.265625 C 8.117188 8.265625 8.0625 8.265625 8.007812 8.265625 C 7.875 8.25 7.875 8.25 7.75 8.125 C 7.8125 7.625 8.09375 7.738281 8.527344 7.738281 Z M 8.527344 7.738281 "/>
<path style=" stroke:none;fill-rule:nonzero;fill:rgb(67.843139%,69.803923%,74.509805%);fill-opacity:1;" d="M 1.867188 14.109375 C 1.910156 14.109375 1.953125 14.109375 2 14.109375 C 2.042969 14.109375 2.085938 14.109375 2.132812 14.109375 C 2.25 14.125 2.25 14.125 2.375 14.25 C 2.390625 14.40625 2.390625 14.40625 2.375 14.5625 C 2.25 14.6875 2.25 14.6875 2.132812 14.703125 C 2.089844 14.703125 2.046875 14.703125 2 14.703125 C 1.957031 14.703125 1.914062 14.703125 1.867188 14.703125 C 1.75 14.6875 1.75 14.6875 1.625 14.5625 C 1.609375 14.40625 1.609375 14.40625 1.625 14.25 C 1.75 14.125 1.75 14.125 1.867188 14.109375 Z M 1.867188 14.109375 "/>
<path style=" stroke:none;fill-rule:nonzero;fill:rgb(67.843139%,69.803923%,74.509805%);fill-opacity:1;" d="M 1.867188 13.046875 C 1.910156 13.046875 1.953125 13.046875 2 13.046875 C 2.042969 13.046875 2.085938 13.046875 2.132812 13.046875 C 2.25 13.0625 2.25 13.0625 2.375 13.1875 C 2.390625 13.34375 2.390625 13.34375 2.375 13.5 C 2.25 13.625 2.25 13.625 2.132812 13.640625 C 2.089844 13.640625 2.046875 13.640625 2 13.640625 C 1.957031 13.640625 1.914062 13.640625 1.867188 13.640625 C 1.75 13.625 1.75 13.625 1.625 13.5 C 1.609375 13.34375 1.609375 13.34375 1.625 13.1875 C 1.75 13.0625 1.75 13.0625 1.867188 13.046875 Z M 1.867188 13.046875 "/>
<path style=" stroke:none;fill-rule:nonzero;fill:rgb(67.450982%,69.411767%,74.509805%);fill-opacity:1;" d="M 1.828125 7.742188 C 1.886719 7.742188 1.941406 7.742188 2 7.742188 C 2.085938 7.742188 2.085938 7.742188 2.171875 7.742188 C 2.3125 7.75 2.3125 7.75 2.375 7.8125 C 2.382812 8 2.382812 8 2.375 8.1875 C 2.3125 8.25 2.3125 8.25 2.171875 8.257812 C 2.113281 8.257812 2.058594 8.257812 2 8.257812 C 1.914062 8.257812 1.914062 8.257812 1.828125 8.257812 C 1.6875 8.25 1.6875 8.25 1.625 8.1875 C 1.617188 8 1.617188 8 1.625 7.8125 C 1.6875 7.75 1.6875 7.75 1.828125 7.742188 Z M 1.828125 7.742188 "/>
<path style=" stroke:none;fill-rule:nonzero;fill:rgb(67.058825%,69.01961%,74.117649%);fill-opacity:1;" d="M 2 8.800781 C 2.066406 8.800781 2.066406 8.800781 2.132812 8.796875 C 2.25 8.8125 2.25 8.8125 2.375 8.9375 C 2.386719 9.097656 2.386719 9.097656 2.375 9.25 C 2.3125 9.3125 2.3125 9.3125 2.171875 9.320312 C 2.113281 9.320312 2.058594 9.320312 2 9.320312 C 1.914062 9.320312 1.914062 9.320312 1.828125 9.320312 C 1.6875 9.3125 1.6875 9.3125 1.625 9.25 C 1.621094 9.125 1.621094 9 1.625 8.875 C 1.765625 8.804688 1.84375 8.800781 2 8.800781 Z M 2 8.800781 "/>
<path style=" stroke:none;fill-rule:nonzero;fill:rgb(67.058825%,69.01961%,73.725492%);fill-opacity:1;" d="M 1.867188 11.984375 C 1.910156 11.984375 1.953125 11.984375 2 11.984375 C 2.042969 11.984375 2.085938 11.984375 2.132812 11.984375 C 2.25 12 2.25 12 2.375 12.125 C 2.386719 12.285156 2.386719 12.285156 2.375 12.4375 C 2.3125 12.5 2.3125 12.5 2.171875 12.507812 C 2.117188 12.507812 2.058594 12.507812 2 12.507812 C 1.914062 12.507812 1.914062 12.507812 1.828125 12.507812 C 1.6875 12.5 1.6875 12.5 1.625 12.4375 C 1.613281 12.285156 1.613281 12.285156 1.625 12.125 C 1.75 12 1.75 12 1.867188 11.984375 Z M 1.867188 11.984375 "/>
<path style=" stroke:none;fill-rule:nonzero;fill:rgb(67.058825%,69.01961%,73.725492%);fill-opacity:1;" d="M 1.867188 10.921875 C 1.910156 10.921875 1.953125 10.921875 2 10.921875 C 2.042969 10.921875 2.085938 10.921875 2.132812 10.921875 C 2.25 10.9375 2.25 10.9375 2.375 11.0625 C 2.386719 11.222656 2.386719 11.222656 2.375 11.375 C 2.3125 11.4375 2.3125 11.4375 2.171875 11.445312 C 2.117188 11.445312 2.058594 11.445312 2 11.445312 C 1.914062 11.445312 1.914062 11.445312 1.828125 11.445312 C 1.6875 11.4375 1.6875 11.4375 1.625 11.375 C 1.613281 11.222656 1.613281 11.222656 1.625 11.0625 C 1.75 10.9375 1.75 10.9375 1.867188 10.921875 Z M 1.867188 10.921875 "/>
<path style=" stroke:none;fill-rule:nonzero;fill:rgb(67.058825%,69.01961%,73.725492%);fill-opacity:1;" d="M 1.867188 9.859375 C 1.910156 9.859375 1.953125 9.859375 2 9.859375 C 2.042969 9.859375 2.085938 9.859375 2.132812 9.859375 C 2.25 9.875 2.25 9.875 2.375 10 C 2.386719 10.160156 2.386719 10.160156 2.375 10.3125 C 2.3125 10.375 2.3125 10.375 2.171875 10.382812 C 2.117188 10.382812 2.058594 10.382812 2 10.382812 C 1.914062 10.382812 1.914062 10.382812 1.828125 10.382812 C 1.6875 10.375 1.6875 10.375 1.625 10.3125 C 1.613281 10.160156 1.613281 10.160156 1.625 10 C 1.75 9.875 1.75 9.875 1.867188 9.859375 Z M 1.867188 9.859375 "/>
<path style=" stroke:none;fill-rule:nonzero;fill:rgb(67.058825%,69.01961%,74.117649%);fill-opacity:1;" d="M 1.828125 6.679688 C 1.886719 6.679688 1.941406 6.679688 2 6.679688 C 2.085938 6.679688 2.085938 6.679688 2.171875 6.679688 C 2.3125 6.6875 2.3125 6.6875 2.375 6.75 C 2.386719 6.902344 2.386719 6.902344 2.375 7.0625 C 2.25 7.1875 2.25 7.1875 2.132812 7.203125 C 2.089844 7.203125 2.046875 7.203125 2 7.203125 C 1.957031 7.203125 1.914062 7.203125 1.867188 7.203125 C 1.75 7.1875 1.75 7.1875 1.625 7.0625 C 1.613281 6.902344 1.613281 6.902344 1.625 6.75 C 1.6875 6.6875 1.6875 6.6875 1.828125 6.679688 Z M 1.828125 6.679688 "/>
<path style=" stroke:none;fill-rule:nonzero;fill:rgb(67.058825%,69.01961%,73.725492%);fill-opacity:1;" d="M 1.828125 5.617188 C 1.886719 5.617188 1.941406 5.617188 2 5.617188 C 2.085938 5.617188 2.085938 5.617188 2.171875 5.617188 C 2.3125 5.625 2.3125 5.625 2.375 5.6875 C 2.386719 5.839844 2.386719 5.839844 2.375 6 C 2.25 6.125 2.25 6.125 2.132812 6.140625 C 2.089844 6.140625 2.046875 6.140625 2 6.140625 C 1.957031 6.140625 1.914062 6.140625 1.867188 6.140625 C 1.75 6.125 1.75 6.125 1.625 6 C 1.613281 5.839844 1.613281 5.839844 1.625 5.6875 C 1.6875 5.625 1.6875 5.625 1.828125 5.617188 Z M 1.828125 5.617188 "/>
<path style=" stroke:none;fill-rule:nonzero;fill:rgb(67.058825%,69.01961%,73.725492%);fill-opacity:1;" d="M 1.828125 4.554688 C 1.886719 4.554688 1.941406 4.554688 2 4.554688 C 2.085938 4.554688 2.085938 4.554688 2.171875 4.554688 C 2.3125 4.5625 2.3125 4.5625 2.375 4.625 C 2.386719 4.777344 2.386719 4.777344 2.375 4.9375 C 2.25 5.0625 2.25 5.0625 2.132812 5.078125 C 2.089844 5.078125 2.046875 5.078125 2 5.078125 C 1.957031 5.078125 1.914062 5.078125 1.867188 5.078125 C 1.75 5.0625 1.75 5.0625 1.625 4.9375 C 1.613281 4.777344 1.613281 4.777344 1.625 4.625 C 1.6875 4.5625 1.6875 4.5625 1.828125 4.554688 Z M 1.828125 4.554688 "/>
<path style=" stroke:none;fill-rule:nonzero;fill:rgb(67.058825%,69.01961%,73.725492%);fill-opacity:1;" d="M 1.828125 3.492188 C 1.886719 3.492188 1.941406 3.492188 2 3.492188 C 2.085938 3.492188 2.085938 3.492188 2.171875 3.492188 C 2.3125 3.5 2.3125 3.5 2.375 3.5625 C 2.386719 3.714844 2.386719 3.714844 2.375 3.875 C 2.25 4 2.25 4 2.132812 4.015625 C 2.089844 4.015625 2.046875 4.015625 2 4.015625 C 1.957031 4.015625 1.914062 4.015625 1.867188 4.015625 C 1.75 4 1.75 4 1.625 3.875 C 1.613281 3.714844 1.613281 3.714844 1.625 3.5625 C 1.6875 3.5 1.6875 3.5 1.828125 3.492188 Z M 1.828125 3.492188 "/>
<path style=" stroke:none;fill-rule:nonzero;fill:rgb(85.882354%,80.000001%,22.745098%);fill-opacity:1;" d="M 2.25 1.0625 C 2.445312 1.085938 2.445312 1.085938 2.625 1.125 C 2.667969 1.269531 2.667969 1.269531 2.6875 1.4375 C 2.617188 1.554688 2.617188 1.554688 2.5 1.625 C 2.332031 1.605469 2.332031 1.605469 2.1875 1.5625 C 2.148438 1.382812 2.148438 1.382812 2.125 1.1875 C 2.167969 1.144531 2.207031 1.105469 2.25 1.0625 Z M 2.25 1.0625 "/>
<path style=" stroke:none;fill-rule:nonzero;fill:rgb(18.82353%,73.725492%,54.11765%);fill-opacity:1;" d="M 1.1875 1.0625 C 1.394531 1.082031 1.476562 1.101562 1.625 1.25 C 1.601562 1.433594 1.570312 1.492188 1.4375 1.625 C 1.273438 1.601562 1.273438 1.601562 1.125 1.5625 C 1.085938 1.382812 1.085938 1.382812 1.0625 1.1875 C 1.105469 1.144531 1.144531 1.105469 1.1875 1.0625 Z M 1.1875 1.0625 "/>
<path style=" stroke:none;fill-rule:nonzero;fill:rgb(85.490197%,29.411766%,36.078432%);fill-opacity:1;" d="M 3.3125 1.0625 C 3.4375 1.082031 3.5625 1.101562 3.6875 1.125 C 3.730469 1.269531 3.730469 1.269531 3.75 1.4375 C 3.675781 1.554688 3.675781 1.554688 3.5625 1.625 C 3.375 1.609375 3.320312 1.570312 3.1875 1.4375 C 3.222656 1.152344 3.222656 1.152344 3.3125 1.0625 Z M 3.3125 1.0625 "/>
</g>
</svg>
