<?xml version="1.0" encoding="UTF-8"?>
<svg xmlns="http://www.w3.org/2000/svg" xmlns:xlink="http://www.w3.org/1999/xlink" width="16" height="16" viewBox="0 0 16 16" version="1.1">
<g id="surface1">
<path style=" stroke:none;fill-rule:nonzero;fill:rgb(94.901961%,34.901962%,23.137255%);fill-opacity:1;" d="M 11.25 0 C 11.578125 0 11.910156 0 12.25 0 C 12.320312 1.46875 11.699219 2.875 11.171875 4.214844 C 10.03125 7.121094 10.375 9.820312 11.5 12.652344 C 11.9375 13.75 12.265625 14.804688 12.25 16 C 11.921875 16 11.589844 16 11.25 16 C 11.242188 15.925781 11.234375 15.847656 11.230469 15.773438 C 11.085938 14.46875 10.617188 13.273438 10.132812 12.0625 C 8.90625 8.964844 9.34375 5.96875 10.5 2.9375 C 10.875 1.957031 11.132812 1.046875 11.25 0 Z M 11.25 0 "/>
<path style=" stroke:none;fill-rule:nonzero;fill:rgb(94.901961%,34.901962%,23.137255%);fill-opacity:1;" d="M 3.75 0 C 4.078125 0 4.410156 0 4.75 0 C 4.757812 0.078125 4.765625 0.15625 4.773438 0.234375 C 4.917969 1.515625 5.375 2.664062 5.84375 3.859375 C 7.0625 7.007812 6.695312 10.042969 5.476562 13.128906 C 5.183594 13.871094 4.925781 14.597656 4.828125 15.394531 C 4.820312 15.453125 4.8125 15.511719 4.804688 15.574219 C 4.785156 15.714844 4.765625 15.859375 4.75 16 C 4.421875 16 4.089844 16 3.75 16 C 3.6875 14.699219 4.179688 13.492188 4.636719 12.296875 C 5.835938 9.160156 5.734375 6.453125 4.5 3.347656 C 4.0625 2.25 3.734375 1.195312 3.75 0 Z M 3.75 0 "/>
<path style=" stroke:none;fill-rule:nonzero;fill:rgb(94.901961%,36.078432%,23.529412%);fill-opacity:1;" d="M 7.5 0 C 7.828125 0 8.160156 0 8.5 0 C 8.5 5.28125 8.5 10.558594 8.5 16 C 8.171875 16 7.839844 16 7.5 16 C 7.5 10.71875 7.5 5.441406 7.5 0 Z M 7.5 0 "/>
<path style=" stroke:none;fill-rule:nonzero;fill:rgb(22.745098%,28.627452%,31.37255%);fill-opacity:1;" d="M 14.296875 4.378906 C 14.507812 4.464844 14.648438 4.621094 14.804688 4.777344 C 14.839844 4.808594 14.875 4.84375 14.910156 4.878906 C 14.984375 4.953125 15.054688 5.023438 15.128906 5.097656 C 15.238281 5.207031 15.351562 5.316406 15.460938 5.425781 C 15.53125 5.496094 15.601562 5.566406 15.671875 5.636719 C 15.707031 5.667969 15.742188 5.703125 15.773438 5.734375 C 15.867188 5.828125 15.867188 5.828125 16 6 C 15.96875 6.285156 15.773438 6.4375 15.574219 6.628906 C 15.539062 6.664062 15.503906 6.699219 15.46875 6.738281 C 15.351562 6.851562 15.234375 6.964844 15.121094 7.078125 C 15.042969 7.15625 14.964844 7.230469 14.886719 7.308594 C 14.695312 7.5 14.503906 7.6875 14.3125 7.875 C 14.097656 7.773438 13.960938 7.664062 13.796875 7.492188 C 13.753906 7.445312 13.707031 7.402344 13.664062 7.355469 C 13.628906 7.320312 13.597656 7.285156 13.5625 7.25 C 13.671875 7.015625 13.8125 6.867188 14 6.6875 C 13.546875 6.65625 13.183594 6.660156 12.8125 6.9375 C 12.476562 7.246094 12.328125 7.535156 12.292969 7.996094 C 12.304688 8.375 12.464844 8.699219 12.714844 8.980469 C 13.085938 9.296875 13.53125 9.351562 14.003906 9.351562 C 14.089844 9.351562 14.089844 9.351562 14.179688 9.355469 C 14.359375 9.355469 14.542969 9.359375 14.722656 9.359375 C 14.847656 9.359375 14.96875 9.363281 15.09375 9.363281 C 15.394531 9.371094 15.699219 9.371094 16 9.375 C 16 9.703125 16 10.035156 16 10.375 C 15.632812 10.382812 15.265625 10.386719 14.894531 10.386719 C 14.769531 10.390625 14.648438 10.390625 14.523438 10.394531 C 12.707031 10.425781 12.707031 10.425781 12 9.75 C 11.496094 9.261719 11.246094 8.726562 11.234375 8.019531 C 11.242188 7.355469 11.460938 6.820312 11.90625 6.328125 C 11.957031 6.28125 12.007812 6.234375 12.0625 6.1875 C 12.132812 6.125 12.132812 6.125 12.203125 6.058594 C 12.640625 5.75 13.082031 5.625 13.609375 5.589844 C 13.71875 5.582031 13.71875 5.582031 13.832031 5.574219 C 13.886719 5.570312 13.941406 5.566406 14 5.5625 C 13.855469 5.417969 13.710938 5.273438 13.5625 5.125 C 13.671875 4.902344 13.761719 4.777344 13.929688 4.605469 C 13.992188 4.539062 13.992188 4.539062 14.058594 4.46875 C 14.1875 4.375 14.1875 4.375 14.296875 4.378906 Z M 14.296875 4.378906 "/>
<path style=" stroke:none;fill-rule:nonzero;fill:rgb(34.509805%,41.960785%,45.490196%);fill-opacity:1;" d="M 1.761719 4.378906 C 1.929688 4.464844 2.042969 4.585938 2.171875 4.722656 C 2.222656 4.773438 2.273438 4.824219 2.324219 4.878906 C 2.359375 4.917969 2.398438 4.960938 2.4375 5 C 2.339844 5.238281 2.183594 5.386719 2 5.5625 C 2.101562 5.570312 2.101562 5.570312 2.207031 5.578125 C 2.953125 5.640625 3.625 5.792969 4.152344 6.371094 C 4.667969 7.058594 4.769531 7.722656 4.6875 8.5625 C 4.550781 9.140625 4.222656 9.625 3.738281 9.972656 C 3.203125 10.292969 2.65625 10.402344 2.039062 10.394531 C 1.949219 10.394531 1.949219 10.394531 1.859375 10.394531 C 1.675781 10.390625 1.488281 10.390625 1.304688 10.386719 C 1.179688 10.386719 1.050781 10.382812 0.925781 10.382812 C 0.617188 10.382812 0.308594 10.378906 0 10.375 C 0 10.046875 0 9.714844 0 9.375 C 0.0742188 9.375 0.148438 9.375 0.226562 9.371094 C 0.507812 9.367188 0.789062 9.363281 1.066406 9.359375 C 1.1875 9.355469 1.308594 9.355469 1.429688 9.351562 C 1.605469 9.351562 1.777344 9.347656 1.953125 9.34375 C 2.007812 9.34375 2.058594 9.34375 2.117188 9.34375 C 2.59375 9.332031 3.03125 9.230469 3.375 8.875 C 3.65625 8.492188 3.6875 8.085938 3.625 7.625 C 3.515625 7.253906 3.316406 7.027344 3 6.8125 C 2.671875 6.65625 2.359375 6.679688 2 6.6875 C 2.144531 6.832031 2.289062 6.976562 2.4375 7.125 C 2.324219 7.355469 2.234375 7.464844 2.054688 7.640625 C 2.007812 7.683594 1.964844 7.730469 1.917969 7.773438 C 1.882812 7.808594 1.847656 7.839844 1.8125 7.875 C 1.558594 7.773438 1.386719 7.59375 1.195312 7.40625 C 1.160156 7.371094 1.125 7.335938 1.089844 7.300781 C 1.015625 7.230469 0.945312 7.160156 0.871094 7.085938 C 0.761719 6.976562 0.648438 6.867188 0.539062 6.757812 C 0.46875 6.6875 0.398438 6.617188 0.328125 6.550781 C 0.292969 6.515625 0.261719 6.484375 0.226562 6.449219 C 0.00390625 6.226562 0.00390625 6.226562 -0.0117188 6.0625 C 0.101562 5.871094 0.246094 5.722656 0.402344 5.570312 C 0.433594 5.535156 0.46875 5.5 0.503906 5.464844 C 0.578125 5.390625 0.648438 5.320312 0.722656 5.246094 C 0.832031 5.136719 0.941406 5.023438 1.050781 4.914062 C 1.121094 4.84375 1.191406 4.773438 1.261719 4.703125 C 1.292969 4.667969 1.328125 4.632812 1.359375 4.601562 C 1.589844 4.375 1.589844 4.375 1.761719 4.378906 Z M 1.761719 4.378906 "/>
<path style=" stroke:none;fill-rule:nonzero;fill:rgb(100%,56.078434%,24.705882%);fill-opacity:1;" d="M 7.5 0 C 7.664062 0 7.828125 0 8 0 C 8 5.28125 8 10.558594 8 16 C 7.835938 16 7.671875 16 7.5 16 C 7.5 10.71875 7.5 5.441406 7.5 0 Z M 7.5 0 "/>
</g>
</svg>
