<?xml version="1.0" encoding="UTF-8"?>
<svg xmlns="http://www.w3.org/2000/svg" xmlns:xlink="http://www.w3.org/1999/xlink" width="16" height="16" viewBox="0 0 16 16" version="1.1">
<g id="surface1">
<path style=" stroke:none;fill-rule:nonzero;fill:rgb(19.607843%,84.313726%,21.176471%);fill-opacity:1;" d="M 12.125 1.0625 C 12.152344 1.03125 12.179688 1 12.207031 0.96875 C 12.335938 0.832031 12.464844 0.699219 12.59375 0.5625 C 12.636719 0.515625 12.679688 0.46875 12.726562 0.417969 C 13.097656 0.03125 13.097656 0.03125 13.390625 0.015625 C 13.625 0.0625 13.625 0.0625 13.773438 0.148438 C 13.925781 0.394531 13.949219 0.636719 13.988281 0.917969 C 14.003906 1.015625 14.003906 1.015625 14.015625 1.113281 C 14.039062 1.269531 14.0625 1.425781 14.082031 1.582031 C 14.125 1.867188 14.164062 2.15625 14.207031 2.441406 C 14.25 2.714844 14.289062 2.992188 14.328125 3.265625 C 14.347656 3.40625 14.371094 3.546875 14.390625 3.683594 C 14.417969 3.882812 14.449219 4.082031 14.476562 4.28125 C 14.484375 4.339844 14.492188 4.398438 14.5 4.460938 C 14.617188 5.273438 14.617188 5.273438 14.460938 5.5625 C 13.9375 5.871094 13.035156 5.585938 12.453125 5.5 C 12.371094 5.488281 12.285156 5.476562 12.199219 5.464844 C 12.023438 5.4375 11.847656 5.414062 11.671875 5.386719 C 11.449219 5.355469 11.226562 5.320312 11 5.289062 C 10.828125 5.265625 10.652344 5.238281 10.480469 5.214844 C 10.355469 5.195312 10.234375 5.179688 10.109375 5.160156 C 10 5.144531 10 5.144531 9.882812 5.128906 C 9.820312 5.117188 9.753906 5.109375 9.6875 5.097656 C 9.445312 5.050781 9.214844 4.996094 9.007812 4.863281 C 8.886719 4.664062 8.898438 4.539062 8.9375 4.3125 C 9.0625 4.125 9.214844 3.96875 9.375 3.8125 C 9.421875 3.765625 9.46875 3.71875 9.515625 3.667969 C 9.632812 3.550781 9.753906 3.429688 9.875 3.3125 C 8.777344 2.765625 7.496094 2.832031 6.355469 3.1875 C 5.566406 3.46875 4.902344 3.910156 4.3125 4.5 C 4.273438 4.535156 4.234375 4.574219 4.195312 4.613281 C 3.363281 5.480469 2.984375 6.675781 2.929688 7.855469 C 2.914062 8.101562 2.890625 8.230469 2.75 8.441406 C 2.496094 8.605469 2.292969 8.59375 2 8.5625 C 1.933594 8.554688 1.871094 8.546875 1.800781 8.542969 C 1.582031 8.515625 1.359375 8.484375 1.140625 8.453125 C 1.066406 8.441406 0.988281 8.433594 0.914062 8.421875 C 0.804688 8.40625 0.804688 8.40625 0.691406 8.390625 C 0.625 8.382812 0.5625 8.375 0.492188 8.363281 C 0.277344 8.300781 0.160156 8.21875 0 8.0625 C -0.03125 7.878906 -0.0429688 7.742188 -0.0351562 7.558594 C -0.0351562 7.507812 -0.03125 7.460938 -0.03125 7.410156 C 0.0351562 5.675781 0.78125 4.066406 1.875 2.75 C 1.917969 2.699219 1.957031 2.648438 2 2.59375 C 3.027344 1.382812 4.492188 0.613281 6 0.1875 C 6.074219 0.167969 6.148438 0.144531 6.226562 0.121094 C 8.289062 -0.359375 10.273438 0.164062 12.125 1.0625 Z M 12.125 1.0625 "/>
<path style=" stroke:none;fill-rule:nonzero;fill:rgb(89.803922%,0%,15.294118%);fill-opacity:1;" d="M 14.421875 7.53125 C 14.550781 7.546875 14.679688 7.5625 14.808594 7.578125 C 14.890625 7.589844 14.972656 7.601562 15.054688 7.613281 C 15.128906 7.621094 15.207031 7.632812 15.28125 7.640625 C 15.527344 7.691406 15.714844 7.765625 15.9375 7.875 C 16.296875 8.59375 15.882812 9.839844 15.65625 10.554688 C 15.3125 11.5625 14.804688 12.429688 14.125 13.25 C 14.082031 13.300781 14.042969 13.351562 14 13.40625 C 12.773438 14.855469 10.867188 15.773438 9 16 C 8.6875 16.019531 8.375 16.023438 8.0625 16.023438 C 8.019531 16.023438 7.976562 16.023438 7.933594 16.023438 C 6.441406 16.019531 5.203125 15.582031 3.875 14.9375 C 3.847656 14.96875 3.820312 14.996094 3.789062 15.027344 C 3.664062 15.164062 3.53125 15.296875 3.402344 15.433594 C 3.359375 15.480469 3.3125 15.527344 3.269531 15.578125 C 2.894531 15.960938 2.894531 15.960938 2.632812 16.003906 C 2.339844 16 2.339844 16 2.1875 15.875 C 2.074219 15.636719 2.027344 15.402344 1.992188 15.140625 C 1.984375 15.101562 1.976562 15.058594 1.972656 15.015625 C 1.953125 14.882812 1.933594 14.746094 1.914062 14.609375 C 1.898438 14.515625 1.886719 14.421875 1.871094 14.328125 C 1.84375 14.128906 1.816406 13.929688 1.785156 13.730469 C 1.75 13.476562 1.710938 13.226562 1.675781 12.972656 C 1.648438 12.777344 1.617188 12.582031 1.589844 12.386719 C 1.578125 12.292969 1.5625 12.199219 1.550781 12.105469 C 1.355469 10.78125 1.355469 10.78125 1.523438 10.460938 C 2.027344 10.195312 2.777344 10.425781 3.320312 10.503906 C 3.414062 10.519531 3.511719 10.53125 3.609375 10.546875 C 3.808594 10.574219 4.011719 10.601562 4.210938 10.632812 C 4.46875 10.667969 4.726562 10.703125 4.984375 10.738281 C 5.179688 10.769531 5.378906 10.796875 5.578125 10.824219 C 5.671875 10.839844 5.769531 10.851562 5.863281 10.863281 C 5.996094 10.882812 6.128906 10.902344 6.261719 10.921875 C 6.371094 10.9375 6.371094 10.9375 6.488281 10.953125 C 6.695312 11 6.828125 11.0625 7 11.1875 C 7.09375 11.375 7.09375 11.476562 7.0625 11.6875 C 6.9375 11.875 6.78125 12.027344 6.625 12.1875 C 6.578125 12.234375 6.53125 12.28125 6.484375 12.332031 C 6.367188 12.449219 6.246094 12.570312 6.125 12.6875 C 7.21875 13.234375 8.488281 13.171875 9.625 12.8125 C 10.429688 12.539062 11.082031 12.09375 11.6875 11.5 C 11.726562 11.464844 11.765625 11.425781 11.804688 11.386719 C 12.625 10.53125 13.007812 9.351562 13.074219 8.1875 C 13.097656 7.882812 13.152344 7.710938 13.375 7.5 C 13.703125 7.371094 14.082031 7.484375 14.421875 7.53125 Z M 14.421875 7.53125 "/>
<path style=" stroke:none;fill-rule:nonzero;fill:rgb(6.27451%,73.333335%,40.000001%);fill-opacity:1;" d="M 8 0 C 9.09375 0 9.09375 0 9.558594 0.101562 C 9.609375 0.113281 9.664062 0.125 9.71875 0.136719 C 10.566406 0.324219 11.34375 0.683594 12.125 1.0625 C 12.152344 1.03125 12.179688 1 12.207031 0.96875 C 12.335938 0.832031 12.464844 0.699219 12.59375 0.5625 C 12.660156 0.492188 12.660156 0.492188 12.726562 0.417969 C 13.097656 0.03125 13.097656 0.03125 13.390625 0.015625 C 13.625 0.0625 13.625 0.0625 13.773438 0.148438 C 13.925781 0.394531 13.949219 0.636719 13.988281 0.917969 C 13.996094 0.984375 14.007812 1.046875 14.015625 1.113281 C 14.039062 1.269531 14.0625 1.425781 14.082031 1.582031 C 14.125 1.867188 14.164062 2.15625 14.207031 2.441406 C 14.25 2.714844 14.289062 2.992188 14.328125 3.265625 C 14.347656 3.40625 14.371094 3.546875 14.390625 3.683594 C 14.417969 3.882812 14.449219 4.082031 14.476562 4.28125 C 14.488281 4.371094 14.488281 4.371094 14.5 4.460938 C 14.617188 5.273438 14.617188 5.273438 14.460938 5.5625 C 13.9375 5.871094 13.035156 5.585938 12.453125 5.5 C 12.371094 5.488281 12.285156 5.476562 12.199219 5.464844 C 12.023438 5.4375 11.847656 5.414062 11.671875 5.386719 C 11.449219 5.355469 11.226562 5.320312 11 5.289062 C 10.828125 5.265625 10.652344 5.238281 10.480469 5.214844 C 10.355469 5.195312 10.234375 5.179688 10.109375 5.160156 C 10.035156 5.148438 9.960938 5.140625 9.882812 5.128906 C 9.820312 5.117188 9.753906 5.109375 9.6875 5.097656 C 9.445312 5.050781 9.214844 4.996094 9.007812 4.863281 C 8.886719 4.664062 8.898438 4.539062 8.9375 4.3125 C 9.0625 4.125 9.214844 3.96875 9.375 3.8125 C 9.421875 3.765625 9.46875 3.71875 9.515625 3.667969 C 9.632812 3.550781 9.753906 3.429688 9.875 3.3125 C 9.289062 3.019531 8.644531 2.945312 8 2.875 C 8 1.925781 8 0.976562 8 0 Z M 8 0 "/>
<path style=" stroke:none;fill-rule:nonzero;fill:rgb(99.215686%,0%,22.745098%);fill-opacity:1;" d="M 3.320312 10.503906 C 3.414062 10.519531 3.511719 10.53125 3.609375 10.546875 C 3.808594 10.574219 4.011719 10.601562 4.210938 10.632812 C 4.46875 10.667969 4.726562 10.703125 4.984375 10.738281 C 5.179688 10.769531 5.378906 10.796875 5.578125 10.824219 C 5.675781 10.839844 5.769531 10.851562 5.863281 10.863281 C 5.996094 10.882812 6.128906 10.902344 6.261719 10.921875 C 6.335938 10.933594 6.410156 10.941406 6.488281 10.953125 C 6.691406 11 6.828125 11.066406 7 11.1875 C 7.09375 11.375 7.09375 11.476562 7.0625 11.6875 C 6.9375 11.875 6.785156 12.027344 6.625 12.1875 C 6.578125 12.234375 6.53125 12.28125 6.484375 12.332031 C 6.367188 12.449219 6.246094 12.570312 6.125 12.6875 C 6.710938 12.980469 7.355469 13.054688 8 13.125 C 8 14.074219 8 15.023438 8 16 C 6.90625 16 6.90625 16 6.441406 15.898438 C 6.390625 15.886719 6.335938 15.875 6.28125 15.863281 C 5.433594 15.675781 4.65625 15.316406 3.875 14.9375 C 3.847656 14.96875 3.820312 14.996094 3.789062 15.027344 C 3.660156 15.164062 3.53125 15.300781 3.402344 15.433594 C 3.359375 15.480469 3.316406 15.527344 3.269531 15.578125 C 2.894531 15.960938 2.894531 15.960938 2.632812 16.003906 C 2.339844 16 2.339844 16 2.1875 15.875 C 2.074219 15.632812 2.03125 15.402344 1.992188 15.140625 C 1.984375 15.101562 1.980469 15.058594 1.972656 15.015625 C 1.953125 14.882812 1.933594 14.746094 1.914062 14.609375 C 1.898438 14.515625 1.886719 14.421875 1.871094 14.328125 C 1.84375 14.128906 1.816406 13.929688 1.785156 13.730469 C 1.75 13.476562 1.710938 13.226562 1.675781 12.972656 C 1.644531 12.777344 1.617188 12.582031 1.589844 12.382812 C 1.578125 12.292969 1.5625 12.199219 1.550781 12.105469 C 1.355469 10.78125 1.355469 10.78125 1.523438 10.460938 C 2.027344 10.195312 2.777344 10.425781 3.320312 10.503906 Z M 3.320312 10.503906 "/>
</g>
</svg>
