<?xml version="1.0" encoding="UTF-8"?>
<svg xmlns="http://www.w3.org/2000/svg" xmlns:xlink="http://www.w3.org/1999/xlink" width="16" height="16" viewBox="0 0 16 16" version="1.1">
<g id="surface1">
<path style=" stroke:none;fill-rule:nonzero;fill:rgb(89.803922%,18.039216%,18.431373%);fill-opacity:1;" d="M 8.167969 -0.0351562 C 8.441406 0.03125 8.582031 0.226562 8.75 0.4375 C 9.046875 0.785156 9.359375 1.125 9.675781 1.457031 C 9.972656 1.769531 10.269531 2.082031 10.558594 2.402344 C 10.632812 2.480469 10.632812 2.480469 10.703125 2.5625 C 10.847656 2.730469 10.875 2.796875 10.898438 3.019531 C 10.875 3.25 10.875 3.25 10.773438 3.433594 C 10.5625 3.5625 10.5625 3.5625 9.6875 3.5625 C 9.707031 4.511719 9.726562 5.460938 9.75 6.4375 C 9.894531 6.292969 10.039062 6.148438 10.1875 6 C 10.351562 5.855469 10.523438 5.726562 10.699219 5.59375 C 10.746094 5.558594 10.789062 5.523438 10.839844 5.488281 C 11.210938 5.207031 11.589844 4.96875 12 4.75 C 11.988281 4.699219 11.972656 4.652344 11.960938 4.601562 C 11.761719 3.863281 11.761719 3.863281 11.8125 3.5625 C 11.960938 3.351562 12.050781 3.261719 12.308594 3.21875 C 12.683594 3.230469 13.011719 3.460938 13.335938 3.636719 C 13.410156 3.675781 13.484375 3.714844 13.558594 3.753906 C 13.710938 3.835938 13.867188 3.917969 14.019531 4 C 14.246094 4.121094 14.472656 4.242188 14.703125 4.359375 C 14.773438 4.394531 14.84375 4.429688 14.917969 4.46875 C 15.054688 4.539062 15.191406 4.605469 15.324219 4.675781 C 15.386719 4.707031 15.449219 4.738281 15.511719 4.773438 C 15.566406 4.800781 15.617188 4.828125 15.675781 4.855469 C 15.808594 4.9375 15.902344 5 16 5.125 C 16.101562 5.550781 15.964844 5.878906 15.75 6.242188 C 15.714844 6.300781 15.679688 6.359375 15.640625 6.417969 C 15.566406 6.542969 15.492188 6.667969 15.417969 6.796875 C 15.378906 6.859375 15.339844 6.921875 15.300781 6.988281 C 15.082031 7.371094 14.886719 7.761719 14.691406 8.152344 C 14.289062 8.945312 14.289062 8.945312 13.980469 9.050781 C 13.601562 9.042969 13.601562 9.042969 13.414062 8.847656 C 13.296875 8.589844 13.203125 8.332031 13.125 8.0625 C 11.820312 8.785156 10.914062 10.210938 10.25 11.5 C 10.195312 11.609375 10.195312 11.609375 10.136719 11.71875 C 9.839844 12.265625 9.839844 12.265625 9.730469 12.867188 C 9.730469 12.925781 9.730469 12.984375 9.730469 13.046875 C 9.730469 13.109375 9.730469 13.171875 9.726562 13.238281 C 9.726562 13.335938 9.726562 13.335938 9.726562 13.4375 C 9.722656 13.644531 9.722656 13.855469 9.71875 14.0625 C 9.714844 14.335938 9.710938 14.613281 9.710938 14.886719 C 9.707031 14.949219 9.707031 15.011719 9.707031 15.078125 C 9.707031 15.136719 9.707031 15.195312 9.707031 15.257812 C 9.703125 15.308594 9.703125 15.359375 9.703125 15.414062 C 9.675781 15.65625 9.609375 15.828125 9.4375 16 C 9.316406 16.015625 9.316406 16.015625 9.164062 16.015625 C 9.105469 16.015625 9.046875 16.019531 8.988281 16.019531 C 8.898438 16.019531 8.898438 16.019531 8.804688 16.019531 C 8.707031 16.019531 8.707031 16.019531 8.613281 16.019531 C 8.476562 16.019531 8.34375 16.019531 8.210938 16.019531 C 8.003906 16.019531 7.800781 16.019531 7.59375 16.023438 C 7.464844 16.023438 7.335938 16.023438 7.207031 16.023438 C 7.144531 16.023438 7.082031 16.023438 7.019531 16.023438 C 6.960938 16.023438 6.90625 16.023438 6.847656 16.023438 C 6.769531 16.023438 6.769531 16.023438 6.695312 16.023438 C 6.527344 15.992188 6.476562 15.945312 6.375 15.8125 C 6.316406 15.636719 6.300781 15.503906 6.289062 15.320312 C 6.179688 13.519531 5.820312 11.832031 4.9375 10.25 C 4.886719 10.15625 4.886719 10.15625 4.832031 10.0625 C 4.375 9.296875 3.652344 8.503906 2.875 8.0625 C 2.855469 8.121094 2.832031 8.175781 2.8125 8.234375 C 2.785156 8.308594 2.753906 8.382812 2.726562 8.460938 C 2.699219 8.535156 2.671875 8.609375 2.644531 8.683594 C 2.5625 8.875 2.5625 8.875 2.4375 9 C 2.242188 9.046875 2.070312 9.042969 1.875 9 C 1.457031 8.644531 1.222656 8 0.972656 7.515625 C 0.882812 7.339844 0.789062 7.167969 0.699219 6.992188 C 0.675781 6.949219 0.65625 6.910156 0.632812 6.867188 C 0.460938 6.539062 0.277344 6.222656 0.0820312 5.910156 C -0.0273438 5.695312 -0.046875 5.5 -0.046875 5.261719 C 0.0742188 4.90625 0.539062 4.746094 0.851562 4.589844 C 0.929688 4.550781 0.929688 4.550781 1.007812 4.511719 C 1.175781 4.425781 1.339844 4.34375 1.507812 4.257812 C 1.726562 4.148438 1.941406 4.035156 2.160156 3.925781 C 2.210938 3.898438 2.265625 3.875 2.320312 3.847656 C 2.652344 3.675781 2.980469 3.5 3.308594 3.3125 C 3.511719 3.214844 3.65625 3.203125 3.875 3.25 C 4.058594 3.378906 4.058594 3.378906 4.1875 3.5625 C 4.253906 3.964844 4.105469 4.363281 4 4.75 C 4.058594 4.785156 4.121094 4.816406 4.179688 4.851562 C 4.957031 5.304688 5.582031 5.835938 6.25 6.4375 C 6.269531 5.488281 6.289062 4.539062 6.3125 3.5625 C 6.023438 3.5625 5.734375 3.5625 5.4375 3.5625 C 5.226562 3.433594 5.226562 3.433594 5.125 3.25 C 5.101562 3.003906 5.097656 2.859375 5.222656 2.644531 C 5.292969 2.566406 5.292969 2.566406 5.363281 2.484375 C 5.414062 2.425781 5.464844 2.367188 5.519531 2.304688 C 5.746094 2.0625 5.976562 1.828125 6.214844 1.59375 C 6.34375 1.46875 6.464844 1.339844 6.582031 1.203125 C 6.617188 1.164062 6.648438 1.125 6.683594 1.085938 C 6.757812 1 6.832031 0.914062 6.90625 0.824219 C 7.015625 0.695312 7.125 0.566406 7.238281 0.4375 C 7.273438 0.394531 7.308594 0.351562 7.34375 0.308594 C 7.601562 0.0195312 7.78125 -0.046875 8.167969 -0.0351562 Z M 8.167969 -0.0351562 "/>
<path style=" stroke:none;fill-rule:nonzero;fill:rgb(99.607843%,76.078433%,29.803923%);fill-opacity:1;" d="M 3.875 3.25 C 4.058594 3.378906 4.058594 3.378906 4.1875 3.5625 C 4.253906 3.964844 4.105469 4.363281 4 4.75 C 4.058594 4.785156 4.121094 4.816406 4.179688 4.851562 C 4.703125 5.15625 5.171875 5.476562 5.625 5.875 C 5.707031 5.945312 5.707031 5.945312 5.789062 6.015625 C 6.085938 6.273438 6.339844 6.53125 6.574219 6.847656 C 6.703125 7.019531 6.84375 7.179688 6.984375 7.339844 C 7.09375 7.476562 7.203125 7.613281 7.3125 7.75 C 7.34375 7.785156 7.371094 7.824219 7.402344 7.863281 C 8.070312 8.71875 8.09375 9.488281 8.066406 10.542969 C 8.066406 10.703125 8.066406 10.859375 8.0625 11.019531 C 8.0625 11.386719 8.054688 11.757812 8.050781 12.128906 C 8.042969 12.550781 8.039062 12.972656 8.035156 13.398438 C 8.027344 14.265625 8.015625 15.132812 8 16 C 7.765625 16.003906 7.527344 16.007812 7.292969 16.011719 C 7.226562 16.011719 7.160156 16.015625 7.089844 16.015625 C 7.027344 16.015625 6.960938 16.015625 6.894531 16.019531 C 6.835938 16.019531 6.777344 16.019531 6.714844 16.019531 C 6.5625 16 6.5625 16 6.453125 15.917969 C 6.3125 15.726562 6.300781 15.546875 6.289062 15.320312 C 6.179688 13.519531 5.820312 11.832031 4.9375 10.25 C 4.886719 10.15625 4.886719 10.15625 4.832031 10.0625 C 4.375 9.296875 3.652344 8.503906 2.875 8.0625 C 2.855469 8.121094 2.832031 8.175781 2.8125 8.234375 C 2.78125 8.308594 2.753906 8.382812 2.726562 8.460938 C 2.699219 8.535156 2.671875 8.609375 2.644531 8.683594 C 2.5625 8.875 2.5625 8.875 2.4375 9 C 2.242188 9.046875 2.074219 9.042969 1.875 9 C 1.457031 8.644531 1.222656 8 0.972656 7.515625 C 0.882812 7.339844 0.789062 7.167969 0.699219 6.992188 C 0.675781 6.953125 0.65625 6.910156 0.632812 6.867188 C 0.460938 6.539062 0.277344 6.222656 0.0820312 5.910156 C -0.0273438 5.695312 -0.046875 5.5 -0.046875 5.261719 C 0.0742188 4.90625 0.539062 4.746094 0.851562 4.589844 C 0.90625 4.5625 0.957031 4.539062 1.011719 4.511719 C 1.175781 4.425781 1.34375 4.34375 1.507812 4.257812 C 1.726562 4.148438 1.941406 4.035156 2.160156 3.925781 C 2.210938 3.898438 2.265625 3.875 2.316406 3.847656 C 2.652344 3.675781 2.980469 3.5 3.308594 3.3125 C 3.511719 3.214844 3.65625 3.203125 3.875 3.25 Z M 3.875 3.25 "/>
<path style=" stroke:none;fill-rule:nonzero;fill:rgb(40.000001%,49.803922%,99.607843%);fill-opacity:1;" d="M 12.421875 3.222656 C 12.753906 3.289062 13.042969 3.476562 13.335938 3.636719 C 13.410156 3.675781 13.484375 3.714844 13.558594 3.753906 C 13.710938 3.835938 13.863281 3.917969 14.019531 4 C 14.246094 4.121094 14.472656 4.242188 14.703125 4.355469 C 14.773438 4.394531 14.84375 4.429688 14.917969 4.46875 C 15.054688 4.539062 15.191406 4.605469 15.328125 4.675781 C 15.386719 4.707031 15.449219 4.738281 15.511719 4.773438 C 15.566406 4.800781 15.621094 4.828125 15.675781 4.855469 C 15.808594 4.9375 15.90625 5 16 5.125 C 16.101562 5.550781 15.964844 5.882812 15.75 6.242188 C 15.714844 6.300781 15.675781 6.359375 15.640625 6.417969 C 15.566406 6.542969 15.492188 6.667969 15.417969 6.796875 C 15.378906 6.859375 15.339844 6.921875 15.300781 6.988281 C 15.082031 7.371094 14.886719 7.761719 14.691406 8.152344 C 14.289062 8.945312 14.289062 8.945312 13.980469 9.050781 C 13.601562 9.042969 13.601562 9.042969 13.414062 8.847656 C 13.296875 8.589844 13.203125 8.332031 13.125 8.0625 C 11.820312 8.789062 10.917969 10.210938 10.25 11.5 C 10.214844 11.570312 10.175781 11.636719 10.140625 11.710938 C 9.953125 12.070312 9.804688 12.421875 9.6875 12.8125 C 9.667969 12.8125 9.644531 12.8125 9.625 12.8125 C 9.613281 12.007812 9.601562 11.203125 9.59375 10.398438 C 9.59375 10.023438 9.589844 9.648438 9.582031 9.277344 C 9.578125 8.914062 9.574219 8.554688 9.570312 8.191406 C 9.570312 8.054688 9.570312 7.917969 9.566406 7.777344 C 9.542969 6.703125 9.542969 6.703125 9.746094 6.355469 C 9.886719 6.214844 10.019531 6.109375 10.1875 6 C 10.273438 5.929688 10.363281 5.855469 10.449219 5.78125 C 10.535156 5.714844 10.621094 5.652344 10.707031 5.585938 C 10.753906 5.550781 10.796875 5.515625 10.84375 5.480469 C 11.214844 5.207031 11.59375 4.964844 12 4.75 C 11.984375 4.699219 11.972656 4.652344 11.957031 4.601562 C 11.761719 3.863281 11.761719 3.863281 11.8125 3.5625 C 11.984375 3.320312 12.121094 3.210938 12.421875 3.222656 Z M 12.421875 3.222656 "/>
<path style=" stroke:none;fill-rule:nonzero;fill:rgb(99.607843%,29.803923%,29.803923%);fill-opacity:1;" d="M 8 0 C 8 2.929688 8 5.859375 8 8.875 C 7.8125 8.636719 7.648438 8.40625 7.488281 8.148438 C 7.230469 7.738281 6.941406 7.371094 6.625 7 C 6.304688 6.609375 6.304688 6.609375 6.304688 6.273438 C 6.304688 6.214844 6.304688 6.152344 6.304688 6.089844 C 6.304688 6.027344 6.304688 5.960938 6.304688 5.894531 C 6.304688 5.828125 6.308594 5.761719 6.308594 5.691406 C 6.308594 5.480469 6.308594 5.265625 6.308594 5.054688 C 6.308594 4.910156 6.308594 4.765625 6.308594 4.621094 C 6.308594 4.269531 6.3125 3.914062 6.3125 3.5625 C 6.25 3.5625 6.191406 3.566406 6.128906 3.566406 C 6.050781 3.566406 5.96875 3.570312 5.886719 3.570312 C 5.769531 3.574219 5.769531 3.574219 5.648438 3.574219 C 5.4375 3.5625 5.4375 3.5625 5.226562 3.433594 C 5.097656 3.203125 5.101562 3.074219 5.125 2.8125 C 5.222656 2.644531 5.222656 2.644531 5.363281 2.484375 C 5.414062 2.425781 5.464844 2.367188 5.519531 2.304688 C 5.746094 2.0625 5.980469 1.828125 6.214844 1.597656 C 6.34375 1.46875 6.464844 1.339844 6.582031 1.203125 C 6.804688 0.945312 7.03125 0.691406 7.257812 0.4375 C 7.3125 0.375 7.3125 0.375 7.371094 0.308594 C 7.425781 0.25 7.425781 0.25 7.480469 0.1875 C 7.53125 0.132812 7.53125 0.132812 7.578125 0.078125 C 7.6875 0 7.6875 0 8 0 Z M 8 0 "/>
<path style=" stroke:none;fill-rule:nonzero;fill:rgb(99.607843%,46.27451%,19.607843%);fill-opacity:1;" d="M 8 8.9375 C 8.589844 9.820312 8.929688 10.917969 9.1875 11.9375 C 9.199219 11.980469 9.207031 12.019531 9.21875 12.0625 C 9.402344 12.800781 9.480469 13.542969 9.546875 14.296875 C 9.550781 14.34375 9.554688 14.390625 9.558594 14.4375 C 9.585938 14.730469 9.609375 15.019531 9.625 15.3125 C 9.628906 15.378906 9.628906 15.378906 9.632812 15.445312 C 9.640625 15.578125 9.640625 15.578125 9.625 15.8125 C 9.5625 15.875 9.5 15.9375 9.4375 16 C 8.964844 16 8.488281 16 8 16 C 8 13.667969 8 11.339844 8 8.9375 Z M 8 8.9375 "/>
<path style=" stroke:none;fill-rule:nonzero;fill:rgb(84.705883%,17.254902%,16.470589%);fill-opacity:1;" d="M 9.5 14.125 C 9.5625 14.125 9.625 14.125 9.6875 14.125 C 9.6875 14.597656 9.6875 15.074219 9.6875 15.5625 C 9.578125 15.339844 9.546875 15.261719 9.535156 15.027344 C 9.535156 14.976562 9.53125 14.921875 9.53125 14.867188 C 9.527344 14.8125 9.527344 14.757812 9.523438 14.703125 C 9.519531 14.648438 9.519531 14.59375 9.515625 14.535156 C 9.511719 14.398438 9.503906 14.261719 9.5 14.125 Z M 9.5 14.125 "/>
</g>
</svg>
