<?xml version="1.0" encoding="UTF-8"?>
<svg xmlns="http://www.w3.org/2000/svg" xmlns:xlink="http://www.w3.org/1999/xlink" width="16" height="16" viewBox="0 0 16 16" version="1.1">
<g id="surface1">
<path style=" stroke:none;fill-rule:nonzero;fill:rgb(0.784314%,0.392157%,0%);fill-opacity:1;" d="M 5.1875 0.25 C 5.332031 0.324219 5.46875 0.398438 5.609375 0.480469 C 6.695312 1.078125 7.875 1.34375 9.101562 1.445312 C 9.164062 1.449219 9.226562 1.453125 9.292969 1.460938 C 9.445312 1.472656 9.597656 1.488281 9.75 1.5 C 9.753906 1.972656 9.757812 2.449219 9.761719 2.921875 C 9.761719 3.140625 9.761719 3.363281 9.765625 3.582031 C 9.765625 3.835938 9.765625 4.089844 9.769531 4.34375 C 9.769531 4.421875 9.769531 4.5 9.769531 4.578125 C 9.769531 6 9.230469 7.300781 8.3125 8.375 C 8.253906 8.453125 8.253906 8.453125 8.195312 8.53125 C 8.046875 8.707031 7.886719 8.839844 7.707031 8.984375 C 7.644531 9.03125 7.585938 9.082031 7.523438 9.132812 C 7.449219 9.191406 7.449219 9.191406 7.375 9.25 C 7.136719 9.488281 7.273438 9.914062 7.25 10.25 C 8.570312 10.230469 9.890625 10.207031 11.25 10.1875 C 11.148438 10.105469 11.042969 10.023438 10.9375 9.9375 C 10.3125 9.207031 10.167969 8.460938 10.234375 7.523438 C 10.3125 6.832031 10.691406 6.257812 11.210938 5.8125 C 11.953125 5.253906 12.71875 5.148438 13.625 5.25 C 14.386719 5.417969 14.992188 5.871094 15.40625 6.523438 C 15.8125 7.242188 15.867188 8.039062 15.707031 8.839844 C 15.523438 9.390625 15.164062 9.792969 14.75 10.1875 C 15.078125 10.207031 15.410156 10.230469 15.75 10.25 C 15.75 11.734375 15.75 13.21875 15.75 14.75 C 15.144531 14.742188 14.542969 14.734375 13.921875 14.730469 C 13.53125 14.726562 13.144531 14.722656 12.757812 14.722656 C 12.148438 14.722656 11.535156 14.71875 10.925781 14.710938 C 10.335938 14.703125 9.746094 14.699219 9.15625 14.703125 C 9.109375 14.703125 9.0625 14.703125 9.015625 14.703125 C 7.597656 14.710938 6.371094 14.832031 5.21875 15.734375 C 5.0625 15.8125 5.0625 15.8125 4.867188 15.769531 C 4.65625 15.675781 4.449219 15.578125 4.242188 15.472656 C 4.203125 15.453125 4.160156 15.429688 4.117188 15.410156 C 4.03125 15.367188 3.949219 15.324219 3.859375 15.28125 C 3.730469 15.214844 3.597656 15.148438 3.464844 15.082031 C 3.382812 15.039062 3.300781 15 3.214844 14.957031 C 3.175781 14.9375 3.136719 14.917969 3.09375 14.898438 C 2.820312 14.757812 2.820312 14.757812 2.75 14.6875 C 2.746094 14.53125 2.746094 14.375 2.746094 14.214844 C 2.746094 14.171875 2.746094 14.125 2.746094 14.078125 C 2.746094 13.96875 2.75 13.859375 2.75 13.75 C 2.996094 13.75 3.246094 13.75 3.5 13.75 C 3.5 13.585938 3.5 13.421875 3.5 13.25 C 3.253906 13.25 3.003906 13.25 2.75 13.25 C 2.75 12.589844 2.75 11.929688 2.75 11.25 C 2.996094 11.25 3.246094 11.25 3.5 11.25 C 3.5 11.085938 3.5 10.921875 3.5 10.75 C 3.253906 10.75 3.003906 10.75 2.75 10.75 C 2.753906 10.652344 2.753906 10.554688 2.757812 10.457031 C 2.785156 9.75 2.785156 9.75 2.554688 9.101562 C 2.398438 8.96875 2.242188 8.855469 2.0625 8.75 C 1.957031 8.648438 1.851562 8.542969 1.75 8.4375 C 1.71875 8.40625 1.683594 8.371094 1.652344 8.339844 C 0.816406 7.449219 0.242188 6.082031 0.242188 4.863281 C 0.242188 4.789062 0.242188 4.714844 0.242188 4.636719 C 0.242188 4.554688 0.242188 4.476562 0.242188 4.394531 C 0.242188 4.308594 0.246094 4.226562 0.246094 4.140625 C 0.246094 3.921875 0.246094 3.703125 0.246094 3.484375 C 0.246094 3.261719 0.246094 3.039062 0.246094 2.816406 C 0.246094 2.375 0.25 1.9375 0.25 1.5 C 0.324219 1.492188 0.324219 1.492188 0.402344 1.484375 C 0.632812 1.460938 0.859375 1.4375 1.089844 1.414062 C 1.167969 1.40625 1.246094 1.398438 1.328125 1.386719 C 2.539062 1.261719 3.738281 0.964844 4.75 0.246094 C 4.925781 0.164062 5.003906 0.1875 5.1875 0.25 Z M 5.1875 0.25 "/>
<path style=" stroke:none;fill-rule:nonzero;fill:rgb(2.352941%,1.960784%,1.176471%);fill-opacity:1;" d="M 5.1875 0.875 C 5.273438 0.914062 5.359375 0.953125 5.441406 0.996094 C 6.039062 1.292969 6.601562 1.53125 7.25 1.6875 C 7.335938 1.714844 7.335938 1.714844 7.425781 1.738281 C 7.832031 1.855469 8.230469 1.902344 8.648438 1.941406 C 8.707031 1.949219 8.765625 1.953125 8.824219 1.960938 C 8.96875 1.972656 9.109375 1.988281 9.25 2 C 9.253906 2.414062 9.253906 2.828125 9.257812 3.242188 C 9.257812 3.378906 9.257812 3.519531 9.257812 3.660156 C 9.261719 3.863281 9.261719 4.066406 9.261719 4.269531 C 9.261719 4.332031 9.265625 4.394531 9.265625 4.457031 C 9.265625 5.078125 9.183594 5.675781 8.953125 6.253906 C 8.929688 6.316406 8.929688 6.316406 8.902344 6.382812 C 8.355469 7.761719 7.351562 8.800781 6.011719 9.429688 C 5.90625 9.476562 5.796875 9.519531 5.6875 9.5625 C 5.636719 9.582031 5.589844 9.605469 5.539062 9.625 C 4.988281 9.835938 4.585938 9.695312 4.066406 9.464844 C 2.589844 8.773438 1.597656 7.679688 1.007812 6.167969 C 0.789062 5.566406 0.730469 4.964844 0.738281 4.324219 C 0.738281 4.257812 0.738281 4.191406 0.738281 4.121094 C 0.738281 3.910156 0.742188 3.699219 0.742188 3.488281 C 0.742188 3.34375 0.742188 3.199219 0.742188 3.054688 C 0.746094 2.703125 0.746094 2.351562 0.75 2 C 0.792969 1.996094 0.832031 1.992188 0.875 1.984375 C 1.070312 1.964844 1.265625 1.941406 1.457031 1.917969 C 1.554688 1.90625 1.554688 1.90625 1.65625 1.894531 C 2.746094 1.761719 3.800781 1.421875 4.761719 0.890625 C 4.960938 0.804688 4.992188 0.808594 5.1875 0.875 Z M 5.1875 0.875 "/>
<path style=" stroke:none;fill-rule:nonzero;fill:rgb(89.411765%,90.588236%,92.156863%);fill-opacity:1;" d="M 7.25 10.75 C 9.890625 10.75 12.53125 10.75 15.25 10.75 C 15.25 11.90625 15.25 13.058594 15.25 14.25 C 12.609375 14.25 9.96875 14.25 7.25 14.25 C 7.25 13.09375 7.25 11.941406 7.25 10.75 Z M 7.25 10.75 "/>
<path style=" stroke:none;fill-rule:nonzero;fill:rgb(98.431373%,50.196081%,42.352942%);fill-opacity:1;" d="M 14.511719 6.296875 C 14.953125 6.707031 15.21875 7.195312 15.261719 7.800781 C 15.273438 8.550781 15.058594 9.113281 14.550781 9.667969 C 14.191406 10.011719 13.75 10.222656 13.25 10.25 C 13.203125 10.253906 13.152344 10.257812 13.105469 10.257812 C 12.40625 10.285156 11.839844 10.019531 11.332031 9.550781 C 10.859375 9.054688 10.730469 8.484375 10.738281 7.820312 C 10.78125 7.15625 11.074219 6.707031 11.554688 6.265625 C 12.433594 5.53125 13.628906 5.585938 14.511719 6.296875 Z M 14.511719 6.296875 "/>
<path style=" stroke:none;fill-rule:nonzero;fill:rgb(98.431373%,90.196079%,64.313728%);fill-opacity:1;" d="M 5.671875 2.296875 C 6.027344 2.445312 6.382812 2.566406 6.75 2.671875 C 6.792969 2.683594 6.835938 2.695312 6.878906 2.710938 C 7.328125 2.832031 7.789062 2.882812 8.25 2.9375 C 8.253906 3.199219 8.253906 3.460938 8.257812 3.722656 C 8.257812 3.8125 8.257812 3.902344 8.257812 3.992188 C 8.269531 4.726562 8.246094 5.441406 7.933594 6.121094 C 7.90625 6.183594 7.90625 6.183594 7.875 6.246094 C 7.382812 7.300781 7.382812 7.300781 7.011719 7.496094 C 6.800781 7.5 6.597656 7.457031 6.390625 7.410156 C 6.347656 7.402344 6.304688 7.390625 6.257812 7.382812 C 6.152344 7.359375 6.042969 7.335938 5.9375 7.3125 C 5.898438 7.132812 5.898438 7.132812 5.875 6.9375 C 5.976562 6.832031 6.082031 6.726562 6.1875 6.625 C 6.257812 6.496094 6.3125 6.363281 6.367188 6.226562 C 6.476562 5.972656 6.601562 5.730469 6.726562 5.488281 C 6.96875 4.988281 7.046875 4.519531 6.867188 3.980469 C 6.628906 3.46875 6.355469 3.160156 5.851562 2.914062 C 5.265625 2.703125 4.582031 2.710938 4.019531 2.972656 C 3.71875 3.148438 3.496094 3.332031 3.3125 3.625 C 3.285156 3.667969 3.261719 3.707031 3.234375 3.75 C 2.992188 4.207031 2.972656 4.710938 3.125 5.203125 C 3.199219 5.390625 3.285156 5.570312 3.375 5.75 C 3.398438 5.796875 3.421875 5.84375 3.445312 5.894531 C 3.484375 5.976562 3.527344 6.058594 3.570312 6.140625 C 3.621094 6.242188 3.667969 6.34375 3.714844 6.449219 C 3.804688 6.636719 3.804688 6.636719 3.984375 6.78125 C 4.054688 6.859375 4.054688 6.859375 4.125 6.9375 C 4.101562 7.136719 4.101562 7.136719 4.0625 7.3125 C 4.007812 7.320312 3.953125 7.328125 3.894531 7.335938 C 3.785156 7.355469 3.785156 7.355469 3.675781 7.371094 C 3.566406 7.386719 3.566406 7.386719 3.457031 7.402344 C 3.285156 7.433594 3.109375 7.464844 2.9375 7.5 C 2.199219 6.589844 1.738281 5.597656 1.742188 4.410156 C 1.742188 4.367188 1.746094 4.324219 1.746094 4.28125 C 1.746094 4.144531 1.746094 4.011719 1.746094 3.878906 C 1.746094 3.789062 1.746094 3.695312 1.746094 3.605469 C 1.746094 3.382812 1.75 3.160156 1.75 2.9375 C 1.824219 2.925781 1.898438 2.917969 1.972656 2.90625 C 2.75 2.796875 3.472656 2.632812 4.195312 2.332031 C 4.238281 2.3125 4.277344 2.296875 4.324219 2.277344 C 4.4375 2.230469 4.554688 2.179688 4.667969 2.128906 C 5.046875 2.007812 5.320312 2.144531 5.671875 2.296875 Z M 5.671875 2.296875 "/>
<path style=" stroke:none;fill-rule:nonzero;fill:rgb(96.078432%,81.960785%,42.745098%);fill-opacity:1;" d="M 5.1875 0.875 C 5.273438 0.914062 5.359375 0.953125 5.441406 0.996094 C 6.039062 1.292969 6.601562 1.53125 7.25 1.6875 C 7.335938 1.714844 7.335938 1.714844 7.425781 1.738281 C 7.832031 1.855469 8.230469 1.902344 8.648438 1.941406 C 8.707031 1.949219 8.765625 1.953125 8.824219 1.960938 C 8.96875 1.972656 9.109375 1.988281 9.25 2 C 9.253906 2.414062 9.253906 2.828125 9.257812 3.242188 C 9.257812 3.378906 9.257812 3.519531 9.257812 3.660156 C 9.261719 3.863281 9.261719 4.066406 9.261719 4.269531 C 9.261719 4.332031 9.265625 4.394531 9.265625 4.457031 C 9.265625 5.078125 9.183594 5.675781 8.953125 6.253906 C 8.929688 6.316406 8.929688 6.316406 8.902344 6.382812 C 8.355469 7.761719 7.351562 8.800781 6.011719 9.429688 C 5.90625 9.476562 5.796875 9.519531 5.6875 9.5625 C 5.636719 9.582031 5.589844 9.605469 5.539062 9.625 C 4.988281 9.835938 4.585938 9.695312 4.066406 9.464844 C 2.589844 8.773438 1.597656 7.679688 1.007812 6.167969 C 0.789062 5.566406 0.730469 4.964844 0.738281 4.324219 C 0.738281 4.257812 0.738281 4.191406 0.738281 4.121094 C 0.738281 3.910156 0.742188 3.699219 0.742188 3.488281 C 0.742188 3.34375 0.742188 3.199219 0.742188 3.054688 C 0.746094 2.703125 0.746094 2.351562 0.75 2 C 0.792969 1.996094 0.832031 1.992188 0.875 1.984375 C 1.070312 1.964844 1.265625 1.941406 1.457031 1.917969 C 1.554688 1.90625 1.554688 1.90625 1.65625 1.894531 C 2.746094 1.761719 3.800781 1.421875 4.761719 0.890625 C 4.960938 0.804688 4.992188 0.808594 5.1875 0.875 Z M 4.441406 1.695312 C 3.417969 2.160156 2.359375 2.371094 1.25 2.5 C 1.246094 2.824219 1.246094 3.148438 1.242188 3.46875 C 1.242188 3.578125 1.242188 3.6875 1.242188 3.796875 C 1.226562 5.402344 1.546875 6.773438 2.699219 7.953125 C 3.300781 8.542969 4.011719 8.976562 4.8125 9.25 C 5.804688 9.234375 6.699219 8.539062 7.375 7.875 C 7.414062 7.835938 7.453125 7.796875 7.492188 7.757812 C 8.578125 6.609375 8.773438 5.148438 8.757812 3.636719 C 8.757812 3.527344 8.757812 3.414062 8.757812 3.304688 C 8.753906 3.035156 8.753906 2.769531 8.75 2.5 C 8.714844 2.496094 8.679688 2.492188 8.644531 2.488281 C 7.46875 2.359375 6.367188 2.125 5.308594 1.582031 C 4.96875 1.429688 4.753906 1.546875 4.441406 1.695312 Z M 4.441406 1.695312 "/>
<path style=" stroke:none;fill-rule:nonzero;fill:rgb(98.039216%,83.529413%,43.529412%);fill-opacity:1;" d="M 6.75 9.625 C 6.75 9.769531 6.75 9.914062 6.75 10.0625 C 6.441406 10.144531 6.132812 10.226562 5.8125 10.3125 C 5.8125 10.929688 5.8125 11.550781 5.8125 12.1875 C 6.121094 12.269531 6.429688 12.351562 6.75 12.4375 C 6.75 13.078125 6.75 13.714844 6.75 14.375 C 6.414062 14.546875 6.414062 14.546875 6.070312 14.71875 C 5.964844 14.773438 5.964844 14.773438 5.855469 14.828125 C 5.800781 14.855469 5.746094 14.882812 5.6875 14.910156 C 5.632812 14.941406 5.574219 14.96875 5.515625 15 C 5.375 15.0625 5.375 15.0625 5.25 15.0625 C 5.25 13.453125 5.25 11.84375 5.25 10.1875 C 5.414062 10.125 5.578125 10.0625 5.75 10 C 5.980469 9.902344 6.210938 9.800781 6.4375 9.699219 C 6.625 9.625 6.625 9.625 6.75 9.625 Z M 6.75 9.625 "/>
<path style=" stroke:none;fill-rule:nonzero;fill:rgb(98.039216%,83.92157%,43.529412%);fill-opacity:1;" d="M 3.25 9.625 C 3.570312 9.726562 3.878906 9.855469 4.1875 9.984375 C 4.371094 10.0625 4.5625 10.125 4.75 10.1875 C 4.75 11.796875 4.75 13.40625 4.75 15.0625 C 4.507812 14.984375 4.3125 14.914062 4.09375 14.800781 C 4.019531 14.765625 4.019531 14.765625 3.941406 14.726562 C 3.890625 14.699219 3.839844 14.675781 3.789062 14.648438 C 3.738281 14.621094 3.683594 14.59375 3.632812 14.570312 C 3.503906 14.503906 3.375 14.441406 3.25 14.375 C 3.25 14.332031 3.25 14.292969 3.25 14.25 C 3.496094 14.25 3.746094 14.25 4 14.25 C 4 13.753906 4 13.261719 4 12.75 C 3.753906 12.75 3.503906 12.75 3.25 12.75 C 3.25 12.421875 3.25 12.089844 3.25 11.75 C 3.496094 11.75 3.746094 11.75 4 11.75 C 4 11.253906 4 10.761719 4 10.25 C 3.753906 10.25 3.503906 10.25 3.25 10.25 C 3.25 10.042969 3.25 9.835938 3.25 9.625 Z M 3.25 9.625 "/>
<path style=" stroke:none;fill-rule:nonzero;fill:rgb(0.392157%,0.392157%,0.392157%);fill-opacity:1;" d="M 12.75 11.25 C 12.914062 11.25 13.078125 11.25 13.25 11.25 C 13.269531 11.4375 13.292969 11.621094 13.3125 11.8125 C 13.375 11.75 13.4375 11.6875 13.5 11.625 C 13.6875 11.640625 13.742188 11.679688 13.875 11.8125 C 13.851562 11.996094 13.820312 12.054688 13.6875 12.1875 C 13.875 12.207031 14.058594 12.230469 14.25 12.25 C 14.25 12.414062 14.25 12.578125 14.25 12.75 C 14.0625 12.769531 13.878906 12.792969 13.6875 12.8125 C 13.75 12.875 13.8125 12.9375 13.875 13 C 13.808594 13.164062 13.773438 13.238281 13.617188 13.328125 C 13.578125 13.34375 13.539062 13.359375 13.5 13.375 C 13.4375 13.3125 13.375 13.25 13.3125 13.1875 C 13.292969 13.375 13.269531 13.558594 13.25 13.75 C 13.085938 13.75 12.921875 13.75 12.75 13.75 C 12.730469 13.5625 12.707031 13.378906 12.6875 13.1875 C 12.59375 13.28125 12.59375 13.28125 12.5 13.375 C 12.335938 13.308594 12.261719 13.273438 12.171875 13.117188 C 12.15625 13.078125 12.140625 13.039062 12.125 13 C 12.1875 12.9375 12.25 12.875 12.3125 12.8125 C 12.125 12.792969 11.941406 12.769531 11.75 12.75 C 11.75 12.585938 11.75 12.421875 11.75 12.25 C 12.027344 12.21875 12.027344 12.21875 12.3125 12.1875 C 12.25 12.125 12.1875 12.0625 12.125 12 C 12.191406 11.835938 12.226562 11.761719 12.382812 11.671875 C 12.421875 11.65625 12.460938 11.640625 12.5 11.625 C 12.5625 11.6875 12.625 11.75 12.6875 11.8125 C 12.707031 11.625 12.730469 11.441406 12.75 11.25 Z M 12.75 11.25 "/>
<path style=" stroke:none;fill-rule:nonzero;fill:rgb(0.392157%,0.392157%,0.392157%);fill-opacity:1;" d="M 9.25 11.25 C 9.414062 11.25 9.578125 11.25 9.75 11.25 C 9.769531 11.4375 9.792969 11.621094 9.8125 11.8125 C 9.875 11.75 9.9375 11.6875 10 11.625 C 10.1875 11.640625 10.242188 11.679688 10.375 11.8125 C 10.351562 11.996094 10.320312 12.054688 10.1875 12.1875 C 10.375 12.207031 10.558594 12.230469 10.75 12.25 C 10.75 12.414062 10.75 12.578125 10.75 12.75 C 10.5625 12.769531 10.378906 12.792969 10.1875 12.8125 C 10.25 12.875 10.3125 12.9375 10.375 13 C 10.308594 13.164062 10.273438 13.238281 10.117188 13.328125 C 10.078125 13.34375 10.039062 13.359375 10 13.375 C 9.9375 13.3125 9.875 13.25 9.8125 13.1875 C 9.792969 13.375 9.769531 13.558594 9.75 13.75 C 9.585938 13.75 9.421875 13.75 9.25 13.75 C 9.230469 13.5625 9.207031 13.378906 9.1875 13.1875 C 9.09375 13.28125 9.09375 13.28125 9 13.375 C 8.835938 13.308594 8.761719 13.273438 8.671875 13.117188 C 8.65625 13.078125 8.640625 13.039062 8.625 13 C 8.6875 12.9375 8.75 12.875 8.8125 12.8125 C 8.625 12.792969 8.441406 12.769531 8.25 12.75 C 8.25 12.585938 8.25 12.421875 8.25 12.25 C 8.527344 12.21875 8.527344 12.21875 8.8125 12.1875 C 8.75 12.125 8.6875 12.0625 8.625 12 C 8.691406 11.835938 8.726562 11.761719 8.882812 11.671875 C 8.921875 11.65625 8.960938 11.640625 9 11.625 C 9.0625 11.6875 9.125 11.75 9.1875 11.8125 C 9.207031 11.625 9.230469 11.441406 9.25 11.25 Z M 9.25 11.25 "/>
<path style=" stroke:none;fill-rule:nonzero;fill:rgb(67.843139%,45.882353%,26.666668%);fill-opacity:1;" d="M 5.625 3.300781 C 6.074219 3.5 6.285156 3.824219 6.5 4.25 C 6.507812 4.351562 6.511719 4.457031 6.511719 4.558594 C 6.511719 4.613281 6.511719 4.667969 6.515625 4.722656 C 6.5 4.875 6.5 4.875 6.375 5.0625 C 6.328125 5.015625 6.28125 4.964844 6.234375 4.914062 C 6.039062 4.75 5.878906 4.722656 5.628906 4.691406 C 5.308594 4.648438 5.117188 4.578125 4.886719 4.351562 C 4.789062 4.21875 4.753906 4.101562 4.75 3.9375 C 4.605469 3.980469 4.460938 4.019531 4.3125 4.0625 C 4.332031 4.207031 4.355469 4.351562 4.375 4.5 C 4.332031 4.523438 4.289062 4.550781 4.246094 4.574219 C 4.1875 4.609375 4.132812 4.640625 4.074219 4.675781 C 4.019531 4.707031 3.960938 4.742188 3.90625 4.773438 C 3.769531 4.859375 3.667969 4.945312 3.5625 5.0625 C 3.4375 4.683594 3.445312 4.3125 3.621094 3.953125 C 4.054688 3.25 4.871094 3.097656 5.625 3.300781 Z M 5.625 3.300781 "/>
<path style=" stroke:none;fill-rule:nonzero;fill:rgb(92.54902%,80.392158%,69.411767%);fill-opacity:1;" d="M 5 5 C 5.226562 5.050781 5.453125 5.09375 5.683594 5.140625 C 5.875 5.1875 5.875 5.1875 6 5.3125 C 6.046875 5.695312 6.042969 6.054688 5.8125 6.375 C 5.5625 6.625 5.339844 6.757812 4.980469 6.769531 C 4.691406 6.765625 4.535156 6.691406 4.3125 6.5 C 4.011719 6.160156 3.96875 5.945312 3.972656 5.496094 C 4 5.300781 4.023438 5.242188 4.167969 5.117188 C 4.636719 4.851562 4.636719 4.851562 5 5 Z M 5 5 "/>
<path style=" stroke:none;fill-rule:nonzero;fill:rgb(2.352941%,1.176471%,0.784314%);fill-opacity:1;" d="M 14.25 6.625 C 14.414062 6.691406 14.488281 6.726562 14.578125 6.882812 C 14.59375 6.921875 14.609375 6.960938 14.625 7 C 13.21875 8.5625 13.21875 8.5625 13.078125 8.714844 C 12.980469 8.828125 12.882812 8.941406 12.785156 9.054688 C 12.738281 9.109375 12.6875 9.167969 12.636719 9.226562 C 12.570312 9.304688 12.570312 9.304688 12.503906 9.386719 C 12.375 9.5 12.375 9.5 12.125 9.5 C 11.984375 9.378906 11.859375 9.257812 11.734375 9.125 C 11.683594 9.070312 11.683594 9.070312 11.628906 9.015625 C 11.542969 8.929688 11.460938 8.839844 11.375 8.75 C 11.46875 8.515625 11.5 8.5 11.75 8.375 C 11.894531 8.519531 12.039062 8.664062 12.1875 8.8125 C 12.734375 8.375 13.1875 7.835938 13.644531 7.308594 C 13.84375 7.078125 14.046875 6.851562 14.25 6.625 Z M 14.25 6.625 "/>
<path style=" stroke:none;fill-rule:nonzero;fill:rgb(67.450982%,82.745099%,47.450981%);fill-opacity:1;" d="M 4.1875 7.8125 C 4.34375 7.96875 4.34375 7.96875 4.5 8.125 C 4.859375 8.246094 5.191406 8.234375 5.53125 8.070312 C 5.707031 7.976562 5.707031 7.976562 5.8125 7.8125 C 5.902344 7.808594 5.992188 7.808594 6.082031 7.804688 C 6.132812 7.804688 6.183594 7.800781 6.234375 7.800781 C 6.375 7.8125 6.375 7.8125 6.5625 7.9375 C 5.480469 8.765625 5.480469 8.765625 4.945312 8.742188 C 4.695312 8.671875 4.476562 8.570312 4.246094 8.453125 C 4.203125 8.433594 4.160156 8.410156 4.113281 8.390625 C 3.839844 8.25 3.644531 8.105469 3.4375 7.875 C 3.527344 7.851562 3.617188 7.828125 3.707031 7.808594 C 3.757812 7.796875 3.808594 7.785156 3.859375 7.769531 C 4 7.75 4 7.75 4.1875 7.8125 Z M 4.1875 7.8125 "/>
<path style=" stroke:none;fill-rule:nonzero;fill:rgb(97.647059%,76.078433%,15.686275%);fill-opacity:1;" d="M 6.75 10.5625 C 6.75 11.015625 6.75 11.46875 6.75 11.9375 C 6.585938 11.894531 6.421875 11.855469 6.25 11.8125 C 6.25 11.441406 6.25 11.070312 6.25 10.6875 C 6.625 10.5625 6.625 10.5625 6.75 10.5625 Z M 6.75 10.5625 "/>
<path style=" stroke:none;fill-rule:nonzero;fill:rgb(91.37255%,79.215688%,68.235296%);fill-opacity:1;" d="M 4.5625 7.25 C 4.851562 7.25 5.140625 7.25 5.4375 7.25 C 5.4375 7.5625 5.4375 7.5625 5.339844 7.675781 C 5.132812 7.777344 4.980469 7.773438 4.75 7.75 C 4.628906 7.675781 4.628906 7.675781 4.5625 7.5625 C 4.5625 7.460938 4.5625 7.355469 4.5625 7.25 Z M 4.5625 7.25 "/>
<path style=" stroke:none;fill-rule:nonzero;fill:rgb(0%,0%,0%);fill-opacity:1;" d="M 5.75 13.75 C 5.914062 13.75 6.078125 13.75 6.25 13.75 C 6.25 13.914062 6.25 14.078125 6.25 14.25 C 6.085938 14.25 5.921875 14.25 5.75 14.25 C 5.75 14.085938 5.75 13.921875 5.75 13.75 Z M 5.75 13.75 "/>
<path style=" stroke:none;fill-rule:nonzero;fill:rgb(0%,0%,0%);fill-opacity:1;" d="M 5.75 12.75 C 5.914062 12.75 6.078125 12.75 6.25 12.75 C 6.25 12.914062 6.25 13.078125 6.25 13.25 C 6.085938 13.25 5.921875 13.25 5.75 13.25 C 5.75 13.085938 5.75 12.921875 5.75 12.75 Z M 5.75 12.75 "/>
</g>
</svg>
