<?xml version="1.0" encoding="UTF-8"?>
<svg xmlns="http://www.w3.org/2000/svg" xmlns:xlink="http://www.w3.org/1999/xlink" width="16" height="16" viewBox="0 0 16 16" version="1.1">
<g id="surface1">
<path style=" stroke:none;fill-rule:nonzero;fill:rgb(0.392157%,0.392157%,0.392157%);fill-opacity:1;" d="M 4.242188 0.421875 C 4.761719 0.730469 5.097656 1.164062 5.25 1.75 C 5.265625 2.007812 5.261719 2.265625 5.261719 2.523438 C 5.261719 2.679688 5.261719 2.832031 5.261719 2.988281 C 5.261719 3.226562 5.261719 3.46875 5.257812 3.710938 C 5.257812 3.945312 5.257812 4.179688 5.261719 4.410156 C 5.257812 4.519531 5.257812 4.519531 5.257812 4.628906 C 5.253906 5 5.253906 5 5.414062 5.320312 C 5.519531 5.410156 5.625 5.492188 5.75 5.5625 C 5.78125 5.535156 5.8125 5.511719 5.847656 5.484375 C 6.699219 4.808594 7.5625 4.664062 8.625 4.75 C 9.460938 4.894531 10.167969 5.355469 10.675781 6.027344 C 11.3125 6.953125 11.367188 7.984375 11.1875 9.0625 C 11.21875 9.039062 11.25 9.011719 11.28125 8.988281 C 11.324219 8.953125 11.367188 8.921875 11.410156 8.886719 C 11.453125 8.855469 11.492188 8.820312 11.535156 8.789062 C 12.097656 8.414062 12.71875 8.417969 13.375 8.5 C 13.917969 8.660156 14.277344 8.949219 14.570312 9.425781 C 14.785156 9.84375 14.789062 10.261719 14.785156 10.722656 C 14.785156 10.855469 14.789062 10.988281 14.789062 11.117188 C 14.792969 11.816406 14.792969 11.816406 14.609375 12.054688 C 14.449219 12.175781 14.375 12.230469 14.183594 12.25 C 13.964844 12.292969 13.941406 12.308594 13.78125 12.488281 C 13.6875 12.683594 13.664062 12.789062 13.6875 13 C 13.765625 13.011719 13.847656 13.027344 13.929688 13.039062 C 14.546875 13.179688 15.007812 13.554688 15.375 14.0625 C 15.726562 14.660156 15.75 15.007812 15.75 15.75 C 13.769531 15.75 11.789062 15.75 9.75 15.75 C 9.75 14.761719 9.894531 14.273438 10.535156 13.582031 C 10.863281 13.269531 11.355469 13 11.8125 13 C 11.835938 12.789062 11.8125 12.683594 11.71875 12.488281 C 11.558594 12.308594 11.535156 12.292969 11.316406 12.25 C 11.09375 12.203125 10.941406 12.144531 10.800781 11.949219 C 10.6875 11.652344 10.734375 11.320312 10.75 11.003906 C 10.75 10.785156 10.734375 10.566406 10.71875 10.347656 C 10.714844 10.269531 10.707031 10.191406 10.703125 10.109375 C 10.695312 10.050781 10.691406 9.996094 10.6875 9.9375 C 10.652344 9.976562 10.621094 10.019531 10.585938 10.0625 C 10.039062 10.695312 9.355469 11.195312 8.492188 11.261719 C 7.242188 11.285156 7.242188 11.285156 6.75 11.0625 C 6.675781 11.03125 6.675781 11.03125 6.597656 11.003906 C 5.8125 10.660156 5.242188 10.015625 4.917969 9.234375 C 4.6875 8.640625 4.75 8.183594 4.75 7.5 C 3.265625 7.5 1.78125 7.5 0.25 7.5 C 0.25 6.589844 0.347656 6.089844 0.9375 5.4375 C 0.980469 5.402344 1.023438 5.363281 1.066406 5.324219 C 1.214844 5.15625 1.21875 5.078125 1.21875 4.851562 C 1.21875 4.785156 1.21875 4.71875 1.21875 4.652344 C 1.21875 4.542969 1.21875 4.542969 1.21875 4.433594 C 1.21875 4.359375 1.21875 4.285156 1.21875 4.207031 C 1.21875 3.890625 1.21875 3.570312 1.21875 3.253906 C 1.21875 3.019531 1.21875 2.785156 1.21875 2.554688 C 1.21875 2.449219 1.21875 2.449219 1.21875 2.339844 C 1.222656 1.738281 1.351562 1.230469 1.769531 0.785156 C 2.429688 0.1875 3.433594 0.03125 4.242188 0.421875 Z M 11.0625 9.125 C 11.125 9.25 11.125 9.25 11.125 9.25 Z M 10.75 9.75 C 10.8125 9.875 10.8125 9.875 10.8125 9.875 Z M 10.75 9.75 "/>
<path style=" stroke:none;fill-rule:nonzero;fill:rgb(0%,0%,0%);fill-opacity:1;" d="M 2.609375 9.820312 C 2.910156 10.003906 3.132812 10.222656 3.25 10.5625 C 3.289062 10.914062 3.277344 11.269531 3.269531 11.621094 C 3.273438 12.070312 3.320312 12.347656 3.601562 12.699219 C 3.824219 12.988281 3.769531 13.375 3.773438 13.722656 C 3.777344 13.820312 3.777344 13.820312 3.78125 13.921875 C 3.785156 14.445312 3.675781 14.867188 3.3125 15.257812 C 2.886719 15.664062 2.460938 15.785156 1.878906 15.78125 C 1.347656 15.761719 0.988281 15.578125 0.628906 15.195312 C 0.25 14.75 0.21875 14.324219 0.21875 13.761719 C 0.21875 13.695312 0.214844 13.632812 0.214844 13.566406 C 0.210938 13.101562 0.308594 12.765625 0.5625 12.375 C 0.601562 12.332031 0.644531 12.292969 0.6875 12.25 C 0.703125 12.082031 0.703125 12.082031 0.699219 11.886719 C 0.699219 11.816406 0.703125 11.742188 0.703125 11.667969 C 0.703125 11.511719 0.703125 11.359375 0.699219 11.207031 C 0.707031 10.703125 0.78125 10.375 1.125 10 C 1.53125 9.65625 2.121094 9.621094 2.609375 9.820312 Z M 1.375 10.625 C 1.253906 10.910156 1.238281 11.152344 1.242188 11.460938 C 1.242188 11.539062 1.246094 11.617188 1.246094 11.695312 C 1.246094 11.753906 1.25 11.816406 1.25 11.875 C 1.296875 11.859375 1.296875 11.859375 1.34375 11.84375 C 1.5625 11.800781 1.777344 11.804688 2 11.804688 C 2.042969 11.804688 2.089844 11.804688 2.132812 11.804688 C 2.347656 11.804688 2.546875 11.808594 2.75 11.875 C 2.796875 11.078125 2.796875 11.078125 2.425781 10.410156 C 2 10.171875 1.691406 10.28125 1.375 10.625 Z M 1.375 10.625 "/>
<path style=" stroke:none;fill-rule:nonzero;fill:rgb(0%,0%,0%);fill-opacity:1;" d="M 14.609375 0.320312 C 14.910156 0.503906 15.132812 0.722656 15.25 1.0625 C 15.289062 1.414062 15.277344 1.769531 15.269531 2.121094 C 15.273438 2.570312 15.320312 2.847656 15.601562 3.199219 C 15.824219 3.488281 15.769531 3.875 15.773438 4.222656 C 15.777344 4.320312 15.777344 4.320312 15.78125 4.421875 C 15.785156 4.945312 15.675781 5.367188 15.3125 5.757812 C 14.886719 6.164062 14.460938 6.285156 13.878906 6.28125 C 13.347656 6.261719 12.988281 6.078125 12.628906 5.695312 C 12.25 5.25 12.21875 4.824219 12.21875 4.261719 C 12.21875 4.195312 12.214844 4.132812 12.214844 4.066406 C 12.210938 3.601562 12.308594 3.265625 12.5625 2.875 C 12.601562 2.832031 12.644531 2.792969 12.6875 2.75 C 12.703125 2.582031 12.703125 2.582031 12.699219 2.386719 C 12.699219 2.316406 12.703125 2.242188 12.703125 2.167969 C 12.703125 2.011719 12.703125 1.859375 12.699219 1.707031 C 12.707031 1.203125 12.78125 0.875 13.125 0.5 C 13.53125 0.15625 14.121094 0.121094 14.609375 0.320312 Z M 13.375 1.125 C 13.253906 1.410156 13.238281 1.652344 13.242188 1.960938 C 13.242188 2.039062 13.246094 2.117188 13.246094 2.195312 C 13.246094 2.253906 13.25 2.3125 13.25 2.375 C 13.296875 2.359375 13.296875 2.359375 13.34375 2.34375 C 13.5625 2.300781 13.777344 2.304688 14 2.304688 C 14.042969 2.304688 14.089844 2.304688 14.132812 2.304688 C 14.347656 2.304688 14.546875 2.308594 14.75 2.375 C 14.796875 1.578125 14.796875 1.578125 14.425781 0.910156 C 14 0.671875 13.691406 0.78125 13.375 1.125 Z M 13.375 1.125 "/>
<path style=" stroke:none;fill-rule:nonzero;fill:rgb(68.627453%,84.313726%,48.235294%);fill-opacity:1;" d="M 2.683594 12.410156 C 2.960938 12.601562 3.144531 12.871094 3.25 13.1875 C 3.324219 14.367188 3.324219 14.367188 3 14.8125 C 2.757812 15.085938 2.480469 15.222656 2.117188 15.265625 C 1.757812 15.285156 1.484375 15.210938 1.1875 15 C 0.898438 14.734375 0.75 14.445312 0.730469 14.054688 C 0.726562 13.957031 0.726562 13.859375 0.726562 13.761719 C 0.722656 13.6875 0.722656 13.6875 0.722656 13.617188 C 0.71875 13.195312 0.828125 12.863281 1.128906 12.558594 C 1.167969 12.53125 1.210938 12.5 1.253906 12.472656 C 1.296875 12.441406 1.339844 12.414062 1.382812 12.382812 C 1.792969 12.140625 2.269531 12.210938 2.683594 12.410156 Z M 2.683594 12.410156 "/>
<path style=" stroke:none;fill-rule:nonzero;fill:rgb(68.627453%,84.313726%,48.235294%);fill-opacity:1;" d="M 14.683594 2.910156 C 14.960938 3.101562 15.144531 3.371094 15.25 3.6875 C 15.324219 4.867188 15.324219 4.867188 15 5.3125 C 14.757812 5.585938 14.480469 5.722656 14.117188 5.765625 C 13.757812 5.785156 13.484375 5.710938 13.1875 5.5 C 12.898438 5.234375 12.75 4.945312 12.730469 4.554688 C 12.726562 4.457031 12.726562 4.359375 12.726562 4.261719 C 12.722656 4.1875 12.722656 4.1875 12.722656 4.117188 C 12.71875 3.695312 12.828125 3.363281 13.128906 3.058594 C 13.167969 3.03125 13.210938 3 13.253906 2.972656 C 13.296875 2.941406 13.339844 2.914062 13.382812 2.882812 C 13.792969 2.640625 14.269531 2.710938 14.683594 2.910156 Z M 14.683594 2.910156 "/>
<path style=" stroke:none;fill-rule:nonzero;fill:rgb(68.235296%,46.27451%,26.666668%);fill-opacity:1;" d="M 13.5625 9.164062 C 13.867188 9.375 14.167969 9.691406 14.25 10.0625 C 14.28125 10.5625 14.28125 10.5625 14.1875 10.75 C 14.125 10.75 14.0625 10.75 14 10.75 C 14 10.667969 14 10.585938 14 10.5 C 13.835938 10.5 13.667969 10.5 13.5 10.5 C 13.5 10.582031 13.5 10.664062 13.5 10.75 C 13.339844 10.726562 13.261719 10.699219 13.144531 10.585938 C 13.039062 10.394531 13.019531 10.21875 13 10 C 12.835938 10 12.667969 10 12.5 10 C 12.589844 10.414062 12.683594 10.847656 13.027344 11.121094 C 13.1875 11.1875 13.332031 11.21875 13.5 11.25 C 13.523438 11.710938 13.527344 12 13.21875 12.359375 C 13.070312 12.484375 12.925781 12.5 12.734375 12.527344 C 12.425781 12.492188 12.261719 12.355469 12.0625 12.125 C 11.976562 11.867188 11.980469 11.621094 11.976562 11.351562 C 11.972656 11.296875 11.972656 11.246094 11.96875 11.191406 C 11.964844 10.902344 11.96875 10.789062 12.15625 10.554688 C 12.207031 10.515625 12.257812 10.476562 12.3125 10.4375 C 12.269531 10.3125 12.230469 10.191406 12.1875 10.0625 C 11.832031 10.226562 11.832031 10.226562 11.628906 10.546875 C 11.605469 10.613281 11.585938 10.679688 11.5625 10.75 C 11.480469 10.75 11.398438 10.75 11.3125 10.75 C 11.1875 10.5 11.210938 10.195312 11.289062 9.929688 C 11.460938 9.539062 11.765625 9.242188 12.148438 9.050781 C 12.605469 8.90625 13.136719 8.941406 13.5625 9.164062 Z M 13.5625 9.164062 "/>
<path style=" stroke:none;fill-rule:nonzero;fill:rgb(98.431373%,50.196081%,42.352942%);fill-opacity:1;" d="M 2.375 5.375 C 2.457031 5.5 2.542969 5.625 2.625 5.75 C 2.839844 5.929688 3.027344 5.972656 3.304688 5.960938 C 3.585938 5.914062 3.835938 5.804688 4.023438 5.585938 C 4.101562 5.476562 4.101562 5.476562 4.1875 5.3125 C 4.566406 5.332031 4.839844 5.515625 5.125 5.75 C 5.207031 5.851562 5.289062 5.957031 5.375 6.0625 C 5.15625 6.527344 5.15625 6.527344 4.9375 7 C 3.554688 7 2.171875 7 0.75 7 C 0.898438 6.328125 1.125 5.898438 1.695312 5.507812 C 2.125 5.246094 2.125 5.246094 2.375 5.375 Z M 2.375 5.375 "/>
<path style=" stroke:none;fill-rule:nonzero;fill:rgb(38.431373%,41.568628%,45.882353%);fill-opacity:1;" d="M 3.878906 0.867188 C 4.28125 1.097656 4.625 1.417969 4.75 1.875 C 4.769531 2.085938 4.765625 2.289062 4.75 2.5 C 4.667969 2.5 4.585938 2.5 4.5 2.5 C 4.5 2.417969 4.5 2.335938 4.5 2.25 C 4.335938 2.25 4.171875 2.25 4 2.25 C 4 2.332031 4 2.414062 4 2.5 C 3.839844 2.476562 3.761719 2.449219 3.644531 2.335938 C 3.539062 2.144531 3.519531 1.96875 3.5 1.75 C 3.355469 1.769531 3.210938 1.792969 3.0625 1.8125 C 3.148438 2.410156 3.148438 2.410156 3.523438 2.859375 C 3.683594 2.9375 3.824219 2.96875 4 3 C 4.023438 3.460938 4.027344 3.75 3.71875 4.109375 C 3.570312 4.234375 3.425781 4.25 3.234375 4.277344 C 2.925781 4.242188 2.761719 4.105469 2.5625 3.875 C 2.476562 3.617188 2.480469 3.371094 2.476562 3.101562 C 2.472656 3.046875 2.472656 2.996094 2.46875 2.941406 C 2.464844 2.652344 2.46875 2.539062 2.65625 2.304688 C 2.710938 2.265625 2.757812 2.226562 2.8125 2.1875 C 2.773438 2.0625 2.730469 1.941406 2.6875 1.8125 C 2.332031 1.976562 2.332031 1.976562 2.128906 2.296875 C 2.105469 2.363281 2.085938 2.429688 2.0625 2.5 C 1.960938 2.5 1.855469 2.5 1.75 2.5 C 1.71875 2.066406 1.734375 1.730469 2 1.375 C 2.53125 0.816406 3.125 0.542969 3.878906 0.867188 Z M 3.878906 0.867188 "/>
<path style=" stroke:none;fill-rule:nonzero;fill:rgb(0%,0%,0%);fill-opacity:1;" d="M 7.75 11.75 C 7.914062 11.75 8.078125 11.75 8.25 11.75 C 8.25 11.851562 8.25 11.851562 8.25 11.957031 C 8.253906 12.046875 8.253906 12.140625 8.257812 12.230469 C 8.257812 12.277344 8.257812 12.320312 8.257812 12.367188 C 8.265625 12.628906 8.265625 12.628906 8.398438 12.847656 C 8.492188 12.921875 8.589844 12.992188 8.6875 13.0625 C 8.804688 13.296875 8.785156 13.558594 8.75 13.8125 C 8.644531 14.007812 8.511719 14.148438 8.3125 14.25 C 8.058594 14.28125 7.796875 14.308594 7.566406 14.183594 C 7.433594 14.074219 7.328125 13.96875 7.25 13.8125 C 6.261719 13.792969 5.269531 13.769531 4.25 13.75 C 4.25 13.585938 4.25 13.421875 4.25 13.25 C 4.304688 13.25 4.304688 13.25 4.363281 13.25 C 4.746094 13.25 5.128906 13.25 5.515625 13.242188 C 5.65625 13.242188 5.800781 13.242188 5.945312 13.242188 C 6.152344 13.242188 6.355469 13.242188 6.5625 13.238281 C 6.660156 13.238281 6.660156 13.238281 6.757812 13.238281 C 7.078125 13.242188 7.078125 13.242188 7.359375 13.101562 C 7.453125 12.992188 7.453125 12.992188 7.5625 12.8125 C 7.605469 12.792969 7.644531 12.769531 7.6875 12.75 C 7.707031 12.582031 7.71875 12.417969 7.726562 12.246094 C 7.730469 12.199219 7.730469 12.152344 7.734375 12.101562 C 7.738281 11.984375 7.746094 11.867188 7.75 11.75 Z M 7.75 11.75 "/>
<path style=" stroke:none;fill-rule:nonzero;fill:rgb(0%,0%,0%);fill-opacity:1;" d="M 8.3125 1.75 C 8.507812 1.855469 8.648438 1.988281 8.75 2.1875 C 9.738281 2.207031 10.730469 2.230469 11.75 2.25 C 11.75 2.414062 11.75 2.578125 11.75 2.75 C 11.695312 2.75 11.695312 2.75 11.636719 2.75 C 11.253906 2.75 10.871094 2.75 10.484375 2.757812 C 10.34375 2.757812 10.199219 2.757812 10.054688 2.757812 C 9.847656 2.757812 9.644531 2.757812 9.4375 2.761719 C 9.339844 2.761719 9.339844 2.761719 9.242188 2.761719 C 8.921875 2.757812 8.921875 2.757812 8.640625 2.898438 C 8.546875 3.007812 8.546875 3.007812 8.4375 3.1875 C 8.394531 3.207031 8.355469 3.230469 8.3125 3.25 C 8.292969 3.417969 8.28125 3.582031 8.273438 3.753906 C 8.269531 3.800781 8.269531 3.847656 8.265625 3.898438 C 8.261719 4.015625 8.253906 4.132812 8.25 4.25 C 8.085938 4.25 7.921875 4.25 7.75 4.25 C 7.75 4.179688 7.75 4.113281 7.75 4.042969 C 7.746094 3.953125 7.746094 3.859375 7.742188 3.769531 C 7.742188 3.722656 7.742188 3.679688 7.742188 3.632812 C 7.734375 3.371094 7.734375 3.371094 7.601562 3.152344 C 7.507812 3.078125 7.410156 3.007812 7.3125 2.9375 C 7.195312 2.703125 7.214844 2.441406 7.25 2.1875 C 7.488281 1.738281 7.84375 1.683594 8.3125 1.75 Z M 8.3125 1.75 "/>
<path style=" stroke:none;fill-rule:nonzero;fill:rgb(92.54902%,80.392158%,69.411767%);fill-opacity:1;" d="M 12.3125 10.25 C 12.375 10.25 12.4375 10.25 12.5 10.25 C 12.523438 10.300781 12.546875 10.355469 12.570312 10.40625 C 12.601562 10.476562 12.636719 10.542969 12.667969 10.613281 C 12.699219 10.679688 12.730469 10.75 12.761719 10.816406 C 12.921875 11.074219 13.074219 11.160156 13.363281 11.230469 C 13.40625 11.238281 13.453125 11.242188 13.5 11.25 C 13.523438 11.710938 13.527344 12 13.21875 12.359375 C 13.070312 12.484375 12.925781 12.5 12.734375 12.527344 C 12.425781 12.492188 12.261719 12.359375 12.0625 12.125 C 11.976562 11.867188 11.980469 11.621094 11.976562 11.351562 C 11.972656 11.296875 11.972656 11.246094 11.96875 11.191406 C 11.964844 10.792969 11.964844 10.792969 12.15625 10.566406 C 12.207031 10.523438 12.261719 10.480469 12.3125 10.4375 C 12.3125 10.375 12.3125 10.3125 12.3125 10.25 Z M 12.3125 10.25 "/>
<path style=" stroke:none;fill-rule:nonzero;fill:rgb(92.54902%,80.392158%,69.411767%);fill-opacity:1;" d="M 2.8125 2 C 2.875 2 2.9375 2 3 2 C 3.023438 2.050781 3.046875 2.105469 3.070312 2.15625 C 3.101562 2.226562 3.136719 2.292969 3.167969 2.363281 C 3.199219 2.429688 3.230469 2.5 3.261719 2.566406 C 3.421875 2.824219 3.574219 2.910156 3.863281 2.980469 C 3.90625 2.988281 3.953125 2.992188 4 3 C 4.023438 3.460938 4.027344 3.75 3.71875 4.109375 C 3.570312 4.234375 3.425781 4.25 3.234375 4.277344 C 2.925781 4.242188 2.761719 4.109375 2.5625 3.875 C 2.476562 3.617188 2.480469 3.371094 2.476562 3.101562 C 2.472656 3.046875 2.472656 2.996094 2.46875 2.941406 C 2.464844 2.542969 2.464844 2.542969 2.65625 2.316406 C 2.707031 2.273438 2.761719 2.230469 2.8125 2.1875 C 2.8125 2.125 2.8125 2.0625 2.8125 2 Z M 2.8125 2 "/>
<path style=" stroke:none;fill-rule:nonzero;fill:rgb(1.568628%,1.960784%,0.784314%);fill-opacity:1;" d="M 2.1875 12.75 C 2.441406 12.863281 2.605469 13.011719 2.75 13.25 C 2.792969 13.511719 2.808594 13.652344 2.671875 13.878906 C 2.578125 13.992188 2.488281 14.09375 2.375 14.1875 C 2.332031 14.1875 2.292969 14.1875 2.25 14.1875 C 2.25 14.375 2.25 14.558594 2.25 14.75 C 2.085938 14.75 1.921875 14.75 1.75 14.75 C 1.75 14.5625 1.75 14.378906 1.75 14.1875 C 1.667969 14.144531 1.585938 14.105469 1.5 14.0625 C 1.304688 13.878906 1.253906 13.773438 1.210938 13.507812 C 1.222656 13.234375 1.347656 13.089844 1.53125 12.898438 C 1.734375 12.714844 1.917969 12.730469 2.1875 12.75 Z M 2.1875 12.75 "/>
<path style=" stroke:none;fill-rule:nonzero;fill:rgb(1.568628%,1.960784%,0.784314%);fill-opacity:1;" d="M 14.1875 3.25 C 14.441406 3.363281 14.605469 3.511719 14.75 3.75 C 14.792969 4.011719 14.808594 4.152344 14.671875 4.378906 C 14.578125 4.492188 14.488281 4.59375 14.375 4.6875 C 14.332031 4.6875 14.292969 4.6875 14.25 4.6875 C 14.25 4.875 14.25 5.058594 14.25 5.25 C 14.085938 5.25 13.921875 5.25 13.75 5.25 C 13.75 5.0625 13.75 4.878906 13.75 4.6875 C 13.667969 4.644531 13.585938 4.605469 13.5 4.5625 C 13.304688 4.378906 13.253906 4.273438 13.210938 4.007812 C 13.222656 3.734375 13.347656 3.589844 13.53125 3.398438 C 13.734375 3.214844 13.917969 3.230469 14.1875 3.25 Z M 14.1875 3.25 "/>
<path style=" stroke:none;fill-rule:nonzero;fill:rgb(40.000001%,81.960785%,93.333334%);fill-opacity:1;" d="M 7.125 6.75 C 7.703125 6.75 8.28125 6.75 8.875 6.75 C 9 7.1875 9 7.1875 9 7.75 C 8.339844 7.75 7.679688 7.75 7 7.75 C 7 7.1875 7 7.1875 7.125 6.75 Z M 7.125 6.75 "/>
<path style=" stroke:none;fill-rule:nonzero;fill:rgb(40.784314%,83.137256%,94.901961%);fill-opacity:1;" d="M 7 8.25 C 7.660156 8.25 8.320312 8.25 9 8.25 C 8.9375 9.0625 8.9375 9.0625 8.875 9.25 C 8.296875 9.25 7.71875 9.25 7.125 9.25 C 7 8.5625 7 8.5625 7 8.25 Z M 7 8.25 "/>
<path style=" stroke:none;fill-rule:nonzero;fill:rgb(96.078432%,81.960785%,42.352942%);fill-opacity:1;" d="M 13.875 13.625 C 14.296875 13.683594 14.589844 13.941406 14.863281 14.257812 C 15.113281 14.605469 15.148438 14.796875 15.25 15.25 C 14.734375 15.25 14.21875 15.25 13.6875 15.25 C 13.757812 14.40625 13.757812 14.40625 13.816406 14.015625 C 13.828125 13.941406 13.839844 13.867188 13.851562 13.789062 C 13.859375 13.734375 13.867188 13.679688 13.875 13.625 Z M 13.875 13.625 "/>
<path style=" stroke:none;fill-rule:nonzero;fill:rgb(95.686275%,81.568629%,42.352942%);fill-opacity:1;" d="M 11.625 13.625 C 11.65625 13.835938 11.6875 14.050781 11.71875 14.261719 C 11.726562 14.320312 11.738281 14.382812 11.746094 14.445312 C 11.753906 14.5 11.761719 14.558594 11.769531 14.621094 C 11.78125 14.699219 11.78125 14.699219 11.796875 14.78125 C 11.8125 14.9375 11.8125 14.9375 11.8125 15.25 C 11.296875 15.25 10.78125 15.25 10.25 15.25 C 10.402344 14.566406 10.628906 14.152344 11.207031 13.753906 C 11.367188 13.652344 11.429688 13.625 11.625 13.625 Z M 11.625 13.625 "/>
<path style=" stroke:none;fill-rule:nonzero;fill:rgb(40.000001%,81.568629%,92.941177%);fill-opacity:1;" d="M 9.4375 6.75 C 9.765625 6.75 10.097656 6.75 10.4375 6.75 C 10.644531 7.125 10.691406 7.289062 10.75 7.75 C 10.335938 7.75 9.925781 7.75 9.5 7.75 C 9.359375 7.472656 9.433594 7.046875 9.4375 6.75 Z M 9.4375 6.75 "/>
<path style=" stroke:none;fill-rule:nonzero;fill:rgb(40.000001%,81.568629%,93.333334%);fill-opacity:1;" d="M 9.5 8.25 C 9.914062 8.25 10.324219 8.25 10.75 8.25 C 10.691406 8.710938 10.644531 8.875 10.4375 9.25 C 10.085938 9.25 9.734375 9.25 9.375 9.25 C 9.417969 8.921875 9.457031 8.589844 9.5 8.25 Z M 9.5 8.25 "/>
<path style=" stroke:none;fill-rule:nonzero;fill:rgb(40.000001%,81.960785%,93.333334%);fill-opacity:1;" d="M 5.25 8.25 C 5.664062 8.25 6.074219 8.25 6.5 8.25 C 6.585938 8.589844 6.566406 8.898438 6.5625 9.25 C 6.234375 9.25 5.902344 9.25 5.5625 9.25 C 5.355469 8.875 5.308594 8.710938 5.25 8.25 Z M 5.25 8.25 "/>
<path style=" stroke:none;fill-rule:nonzero;fill:rgb(40.392157%,82.352942%,94.117647%);fill-opacity:1;" d="M 5.5625 6.75 C 5.890625 6.75 6.222656 6.75 6.5625 6.75 C 6.542969 7.078125 6.519531 7.410156 6.5 7.75 C 6.085938 7.75 5.675781 7.75 5.25 7.75 C 5.308594 7.289062 5.355469 7.125 5.5625 6.75 Z M 5.5625 6.75 "/>
<path style=" stroke:none;fill-rule:nonzero;fill:rgb(40.000001%,81.568629%,93.333334%);fill-opacity:1;" d="M 8.25 5.3125 C 8.480469 5.535156 8.628906 5.828125 8.75 6.125 C 8.75 6.167969 8.75 6.207031 8.75 6.25 C 8.253906 6.25 7.761719 6.25 7.25 6.25 C 7.390625 5.753906 7.390625 5.753906 7.5625 5.539062 C 7.59375 5.496094 7.625 5.457031 7.660156 5.414062 C 7.847656 5.207031 7.996094 5.242188 8.25 5.3125 Z M 8.25 5.3125 "/>
<path style=" stroke:none;fill-rule:nonzero;fill:rgb(40.392157%,82.352942%,93.725491%);fill-opacity:1;" d="M 7.25 9.75 C 7.746094 9.75 8.238281 9.75 8.75 9.75 C 8.445312 10.507812 8.445312 10.507812 8.25 10.6875 C 8.066406 10.753906 8.066406 10.753906 7.875 10.75 C 7.507812 10.570312 7.390625 10.171875 7.25 9.8125 C 7.25 9.792969 7.25 9.769531 7.25 9.75 Z M 7.25 9.75 "/>
<path style=" stroke:none;fill-rule:nonzero;fill:rgb(95.686275%,81.568629%,42.352942%);fill-opacity:1;" d="M 12.6875 14.375 C 12.941406 14.476562 13.109375 14.65625 13.296875 14.847656 C 13.328125 14.878906 13.359375 14.910156 13.394531 14.945312 C 13.625 15.179688 13.625 15.179688 13.625 15.25 C 13.046875 15.25 12.46875 15.25 11.875 15.25 C 12.296875 14.757812 12.296875 14.757812 12.492188 14.566406 C 12.546875 14.511719 12.546875 14.511719 12.605469 14.457031 C 12.632812 14.429688 12.660156 14.402344 12.6875 14.375 Z M 12.6875 14.375 "/>
<path style=" stroke:none;fill-rule:nonzero;fill:rgb(89.803922%,77.64706%,67.058825%);fill-opacity:1;" d="M 3.046875 4.679688 C 3.148438 4.683594 3.148438 4.683594 3.253906 4.683594 C 3.359375 4.683594 3.359375 4.683594 3.464844 4.683594 C 3.515625 4.6875 3.570312 4.6875 3.625 4.6875 C 3.71875 4.859375 3.75 4.925781 3.742188 5.128906 C 3.6875 5.3125 3.6875 5.3125 3.582031 5.429688 C 3.386719 5.523438 3.277344 5.535156 3.0625 5.5 C 2.878906 5.371094 2.878906 5.371094 2.75 5.1875 C 2.765625 4.691406 2.765625 4.691406 3.046875 4.679688 Z M 3.046875 4.679688 "/>
<path style=" stroke:none;fill-rule:nonzero;fill:rgb(38.82353%,41.960785%,45.882353%);fill-opacity:1;" d="M 4.375 4 C 4.5 4 4.621094 4 4.75 4 C 4.75 4.308594 4.75 4.617188 4.75 4.9375 C 4.472656 4.875 4.472656 4.875 4.1875 4.8125 C 4.125 4.546875 4.109375 4.414062 4.222656 4.160156 C 4.273438 4.109375 4.324219 4.054688 4.375 4 Z M 4.375 4 "/>
<path style=" stroke:none;fill-rule:nonzero;fill:rgb(38.82353%,41.568628%,45.882353%);fill-opacity:1;" d="M 1.75 4 C 1.875 4 1.996094 4 2.125 4 C 2.277344 4.160156 2.277344 4.160156 2.375 4.375 C 2.359375 4.617188 2.359375 4.617188 2.3125 4.8125 C 2.125 4.855469 1.941406 4.894531 1.75 4.9375 C 1.75 4.628906 1.75 4.320312 1.75 4 Z M 1.75 4 "/>
<path style=" stroke:none;fill-rule:nonzero;fill:rgb(38.82353%,79.215688%,90.196079%);fill-opacity:1;" d="M 9.25 9.75 C 9.519531 9.75 9.785156 9.75 10.0625 9.75 C 9.933594 10.003906 9.867188 10.070312 9.640625 10.226562 C 9.5625 10.28125 9.5625 10.28125 9.480469 10.339844 C 9.3125 10.4375 9.3125 10.4375 8.9375 10.5625 C 9.039062 10.292969 9.144531 10.027344 9.25 9.75 Z M 9.25 9.75 "/>
<path style=" stroke:none;fill-rule:nonzero;fill:rgb(38.82353%,79.215688%,90.588236%);fill-opacity:1;" d="M 5.9375 9.75 C 6.207031 9.75 6.472656 9.75 6.75 9.75 C 6.851562 10.019531 6.957031 10.285156 7.0625 10.5625 C 6.75 10.457031 6.582031 10.378906 6.324219 10.191406 C 6.265625 10.148438 6.203125 10.105469 6.144531 10.0625 C 6 9.9375 6 9.9375 5.9375 9.75 Z M 5.9375 9.75 "/>
<path style=" stroke:none;fill-rule:nonzero;fill:rgb(39.215687%,79.607844%,90.980393%);fill-opacity:1;" d="M 6.9375 5.4375 C 6.980469 5.457031 7.019531 5.480469 7.0625 5.5 C 6.960938 5.746094 6.855469 5.996094 6.75 6.25 C 6.460938 6.25 6.171875 6.25 5.875 6.25 C 6.085938 5.984375 6.199219 5.871094 6.476562 5.703125 C 6.535156 5.667969 6.597656 5.628906 6.660156 5.589844 C 6.75 5.535156 6.84375 5.484375 6.9375 5.4375 Z M 6.9375 5.4375 "/>
<path style=" stroke:none;fill-rule:nonzero;fill:rgb(39.215687%,80.000001%,91.37255%);fill-opacity:1;" d="M 8.9375 5.4375 C 9.25 5.542969 9.417969 5.621094 9.675781 5.808594 C 9.734375 5.851562 9.796875 5.894531 9.855469 5.9375 C 10 6.0625 10 6.0625 10.0625 6.25 C 9.792969 6.25 9.527344 6.25 9.25 6.25 C 9.148438 5.980469 9.042969 5.714844 8.9375 5.4375 Z M 8.9375 5.4375 "/>
<path style=" stroke:none;fill-rule:nonzero;fill:rgb(89.803922%,77.64706%,67.450982%);fill-opacity:1;" d="M 12.375 12.9375 C 12.621094 12.9375 12.871094 12.9375 13.125 12.9375 C 13.144531 13.039062 13.167969 13.144531 13.1875 13.25 C 13.113281 13.363281 13.113281 13.363281 13.003906 13.457031 C 12.96875 13.488281 12.933594 13.519531 12.898438 13.554688 C 12.867188 13.578125 12.839844 13.601562 12.8125 13.625 C 12.601562 13.535156 12.453125 13.433594 12.3125 13.25 C 12.332031 13.148438 12.355469 13.042969 12.375 12.9375 Z M 12.375 12.9375 "/>
<path style=" stroke:none;fill-rule:nonzero;fill:rgb(93.333334%,47.450981%,40.000001%);fill-opacity:1;" d="M 7.875 13.25 C 8.039062 13.273438 8.039062 13.273438 8.1875 13.3125 C 8.226562 13.460938 8.226562 13.460938 8.25 13.625 C 8.207031 13.667969 8.167969 13.707031 8.125 13.75 C 7.960938 13.726562 7.960938 13.726562 7.8125 13.6875 C 7.773438 13.539062 7.773438 13.539062 7.75 13.375 C 7.792969 13.332031 7.832031 13.292969 7.875 13.25 Z M 7.875 13.25 "/>
<path style=" stroke:none;fill-rule:nonzero;fill:rgb(92.156863%,78.823531%,40.784314%);fill-opacity:1;" d="M 1.875 13.25 C 2.039062 13.273438 2.039062 13.273438 2.1875 13.3125 C 2.226562 13.460938 2.226562 13.460938 2.25 13.625 C 2.207031 13.667969 2.167969 13.707031 2.125 13.75 C 1.960938 13.726562 1.960938 13.726562 1.8125 13.6875 C 1.773438 13.539062 1.773438 13.539062 1.75 13.375 C 1.792969 13.332031 1.832031 13.292969 1.875 13.25 Z M 1.875 13.25 "/>
<path style=" stroke:none;fill-rule:nonzero;fill:rgb(92.156863%,78.823531%,40.784314%);fill-opacity:1;" d="M 13.875 3.75 C 14.039062 3.773438 14.039062 3.773438 14.1875 3.8125 C 14.226562 3.960938 14.226562 3.960938 14.25 4.125 C 14.207031 4.167969 14.167969 4.207031 14.125 4.25 C 13.960938 4.226562 13.960938 4.226562 13.8125 4.1875 C 13.773438 4.039062 13.773438 4.039062 13.75 3.875 C 13.792969 3.832031 13.832031 3.792969 13.875 3.75 Z M 13.875 3.75 "/>
<path style=" stroke:none;fill-rule:nonzero;fill:rgb(93.333334%,47.450981%,40.000001%);fill-opacity:1;" d="M 7.875 2.25 C 8.039062 2.273438 8.039062 2.273438 8.1875 2.3125 C 8.226562 2.460938 8.226562 2.460938 8.25 2.625 C 8.207031 2.667969 8.167969 2.707031 8.125 2.75 C 7.960938 2.726562 7.960938 2.726562 7.8125 2.6875 C 7.773438 2.539062 7.773438 2.539062 7.75 2.375 C 7.792969 2.332031 7.832031 2.292969 7.875 2.25 Z M 7.875 2.25 "/>
<path style=" stroke:none;fill-rule:nonzero;fill:rgb(87.843138%,76.078433%,65.882355%);fill-opacity:1;" d="M 14 11.25 C 14.125 11.3125 14.125 11.3125 14.25 11.375 C 14.230469 11.476562 14.207031 11.582031 14.1875 11.6875 C 14.125 11.707031 14.0625 11.730469 14 11.75 C 14 11.585938 14 11.421875 14 11.25 Z M 14 11.25 "/>
<path style=" stroke:none;fill-rule:nonzero;fill:rgb(87.843138%,76.078433%,65.882355%);fill-opacity:1;" d="M 11.375 11.25 C 11.417969 11.25 11.457031 11.25 11.5 11.25 C 11.5 11.414062 11.5 11.578125 11.5 11.75 C 11.417969 11.707031 11.335938 11.667969 11.25 11.625 C 11.304688 11.320312 11.304688 11.320312 11.375 11.25 Z M 11.375 11.25 "/>
<path style=" stroke:none;fill-rule:nonzero;fill:rgb(87.843138%,76.078433%,65.882355%);fill-opacity:1;" d="M 4.5 3 C 4.625 3.0625 4.625 3.0625 4.75 3.125 C 4.730469 3.226562 4.707031 3.332031 4.6875 3.4375 C 4.625 3.457031 4.5625 3.480469 4.5 3.5 C 4.5 3.335938 4.5 3.171875 4.5 3 Z M 4.5 3 "/>
<path style=" stroke:none;fill-rule:nonzero;fill:rgb(87.843138%,76.078433%,65.882355%);fill-opacity:1;" d="M 1.875 3 C 1.917969 3 1.957031 3 2 3 C 2 3.164062 2 3.328125 2 3.5 C 1.917969 3.457031 1.835938 3.417969 1.75 3.375 C 1.804688 3.070312 1.804688 3.070312 1.875 3 Z M 1.875 3 "/>
<path style=" stroke:none;fill-rule:nonzero;fill:rgb(81.176472%,63.529414%,12.941177%);fill-opacity:1;" d="M 13.3125 13.75 C 13.332031 13.75 13.355469 13.75 13.375 13.75 C 13.375 13.894531 13.375 14.039062 13.375 14.1875 C 13.292969 14.144531 13.210938 14.105469 13.125 14.0625 C 13.242188 13.820312 13.242188 13.820312 13.3125 13.75 Z M 13.3125 13.75 "/>
<path style=" stroke:none;fill-rule:nonzero;fill:rgb(81.568629%,63.529414%,12.941177%);fill-opacity:1;" d="M 12.125 13.75 C 12.207031 13.8125 12.289062 13.875 12.375 13.9375 C 12.332031 14.019531 12.292969 14.101562 12.25 14.1875 C 12.207031 14.1875 12.167969 14.1875 12.125 14.1875 C 12.125 14.042969 12.125 13.898438 12.125 13.75 Z M 12.125 13.75 "/>
</g>
</svg>
