<?xml version="1.0" encoding="UTF-8"?>
<svg xmlns="http://www.w3.org/2000/svg" xmlns:xlink="http://www.w3.org/1999/xlink" width="16" height="16" viewBox="0 0 16 16" version="1.1">
<g id="surface1">
<path style=" stroke:none;fill-rule:nonzero;fill:rgb(0%,83.92157%,74.117649%);fill-opacity:1;" d="M 3.75 0 C 3.992188 0.125 4.101562 0.210938 4.25 0.4375 C 4.382812 0.464844 4.382812 0.464844 4.542969 0.460938 C 4.632812 0.460938 4.632812 0.460938 4.726562 0.464844 C 4.792969 0.464844 4.859375 0.464844 4.925781 0.464844 C 5.027344 0.464844 5.027344 0.464844 5.128906 0.464844 C 5.34375 0.46875 5.5625 0.46875 5.777344 0.46875 C 6.0625 0.46875 6.34375 0.472656 6.628906 0.472656 C 6.726562 0.472656 6.726562 0.472656 6.828125 0.472656 C 6.886719 0.472656 6.949219 0.476562 7.011719 0.476562 C 7.066406 0.476562 7.121094 0.476562 7.175781 0.476562 C 7.34375 0.503906 7.398438 0.550781 7.5 0.6875 C 7.523438 0.898438 7.507812 1.097656 7.5 1.3125 C 7.828125 1.3125 8.160156 1.3125 8.5 1.3125 C 8.496094 1.214844 8.492188 1.113281 8.488281 1.011719 C 8.476562 0.71875 8.476562 0.71875 8.578125 0.585938 C 8.722656 0.472656 8.804688 0.476562 8.984375 0.480469 C 9.046875 0.480469 9.105469 0.480469 9.167969 0.480469 C 9.234375 0.480469 9.296875 0.480469 9.363281 0.480469 C 9.503906 0.480469 9.640625 0.480469 9.777344 0.480469 C 9.996094 0.480469 10.210938 0.480469 10.429688 0.484375 C 10.636719 0.484375 10.847656 0.484375 11.054688 0.480469 C 11.121094 0.484375 11.1875 0.484375 11.253906 0.484375 C 11.578125 0.488281 11.578125 0.488281 11.859375 0.351562 C 11.953125 0.242188 11.953125 0.242188 12.0625 0.0625 C 12.292969 -0.0546875 12.558594 -0.0273438 12.8125 0 C 13.046875 0.109375 13.15625 0.207031 13.308594 0.417969 C 13.398438 0.691406 13.386719 0.910156 13.3125 1.1875 C 13.179688 1.402344 13.054688 1.550781 12.8125 1.625 C 12.410156 1.664062 12.207031 1.605469 11.875 1.375 C 11.8125 1.28125 11.8125 1.28125 11.75 1.1875 C 11.632812 1.15625 11.632812 1.15625 11.496094 1.160156 C 11.441406 1.160156 11.390625 1.15625 11.335938 1.15625 C 11.25 1.15625 11.25 1.15625 11.164062 1.15625 C 11.105469 1.15625 11.046875 1.152344 10.988281 1.152344 C 10.800781 1.148438 10.617188 1.148438 10.429688 1.144531 C 10.304688 1.140625 10.179688 1.140625 10.050781 1.136719 C 9.742188 1.132812 9.433594 1.128906 9.125 1.125 C 9.144531 1.207031 9.167969 1.289062 9.1875 1.375 C 9.246094 1.390625 9.304688 1.402344 9.363281 1.417969 C 10.445312 1.695312 11.328125 2.128906 12.25 2.75 C 12.277344 2.722656 12.300781 2.699219 12.328125 2.671875 C 12.445312 2.550781 12.5625 2.433594 12.679688 2.316406 C 12.742188 2.253906 12.742188 2.253906 12.804688 2.191406 C 12.84375 2.152344 12.882812 2.113281 12.921875 2.074219 C 12.957031 2.035156 12.992188 2 13.03125 1.960938 C 13.308594 1.707031 13.746094 1.796875 14.101562 1.796875 C 14.242188 1.796875 14.382812 1.796875 14.523438 1.792969 C 14.613281 1.792969 14.703125 1.792969 14.792969 1.792969 C 14.875 1.792969 14.957031 1.789062 15.039062 1.789062 C 15.257812 1.8125 15.347656 1.84375 15.5 2 C 15.523438 2.15625 15.523438 2.15625 15.523438 2.335938 C 15.53125 2.585938 15.53125 2.585938 15.648438 2.796875 C 15.761719 2.890625 15.761719 2.890625 15.9375 3 C 16.054688 3.230469 16.027344 3.496094 16 3.75 C 15.890625 3.984375 15.792969 4.09375 15.582031 4.246094 C 15.308594 4.335938 15.089844 4.324219 14.8125 4.25 C 14.597656 4.117188 14.449219 3.992188 14.375 3.75 C 14.335938 3.347656 14.394531 3.144531 14.625 2.8125 C 14.6875 2.769531 14.75 2.730469 14.8125 2.6875 C 14.859375 2.558594 14.859375 2.558594 14.875 2.4375 C 13.988281 2.363281 13.988281 2.363281 13.1875 2.65625 C 13.019531 2.816406 12.878906 2.996094 12.75 3.1875 C 12.800781 3.246094 12.851562 3.304688 12.90625 3.363281 C 14.222656 4.90625 14.835938 6.667969 14.6875 8.6875 C 14.65625 8.933594 14.613281 9.171875 14.5625 9.414062 C 14.507812 9.652344 14.484375 9.832031 14.5625 10.0625 C 14.644531 10.1875 14.644531 10.1875 14.753906 10.300781 C 14.789062 10.339844 14.824219 10.375 14.859375 10.414062 C 14.992188 10.558594 14.992188 10.558594 15.121094 10.660156 C 15.328125 10.832031 15.476562 10.972656 15.542969 11.238281 C 15.558594 11.441406 15.554688 11.644531 15.546875 11.847656 C 15.546875 11.921875 15.546875 12 15.546875 12.074219 C 15.542969 12.308594 15.539062 12.546875 15.53125 12.78125 C 15.527344 12.941406 15.527344 13.101562 15.523438 13.261719 C 15.519531 13.652344 15.511719 14.046875 15.5 14.4375 C 15.574219 14.464844 15.574219 14.464844 15.648438 14.492188 C 15.8125 14.5625 15.8125 14.5625 15.925781 14.6875 C 16.035156 14.960938 16.042969 15.210938 16 15.5 C 15.871094 15.757812 15.765625 15.890625 15.5 16 C 15.234375 16.035156 15.003906 16.03125 14.757812 15.917969 C 14.453125 15.675781 14.453125 15.675781 14.375 15.4375 C 14.347656 15.054688 14.414062 14.804688 14.660156 14.507812 C 14.75 14.4375 14.75 14.4375 14.875 14.4375 C 14.878906 13.992188 14.882812 13.550781 14.878906 13.105469 C 14.878906 12.957031 14.878906 12.804688 14.882812 12.65625 C 14.882812 12.4375 14.882812 12.21875 14.882812 12.003906 C 14.882812 11.902344 14.882812 11.902344 14.886719 11.800781 C 14.878906 11.40625 14.8125 11.210938 14.535156 10.925781 C 14.402344 10.804688 14.285156 10.703125 14.125 10.625 C 14.101562 10.703125 14.101562 10.703125 14.074219 10.785156 C 13.8125 11.523438 13.332031 12.117188 12.8125 12.6875 C 12.777344 12.730469 12.738281 12.773438 12.699219 12.816406 C 11.917969 13.660156 10.769531 14.179688 9.6875 14.5 C 9.769531 14.667969 9.769531 14.667969 9.9375 14.8125 C 10.160156 14.863281 10.382812 14.863281 10.609375 14.863281 C 10.671875 14.863281 10.734375 14.867188 10.796875 14.867188 C 10.945312 14.871094 11.097656 14.875 11.25 14.875 C 11.269531 14.835938 11.285156 14.796875 11.304688 14.757812 C 11.40625 14.566406 11.5 14.484375 11.6875 14.375 C 11.953125 14.332031 12.175781 14.34375 12.425781 14.449219 C 12.792969 14.753906 12.792969 14.753906 12.835938 15.007812 C 12.847656 15.402344 12.757812 15.605469 12.492188 15.894531 C 12.242188 16.042969 12.03125 16.042969 11.75 16 C 11.546875 15.90625 11.390625 15.796875 11.25 15.625 C 11.25 15.582031 11.25 15.542969 11.25 15.5 C 11.207031 15.503906 11.164062 15.503906 11.121094 15.507812 C 10.921875 15.515625 10.726562 15.523438 10.53125 15.527344 C 10.429688 15.53125 10.429688 15.53125 10.328125 15.539062 C 9.976562 15.546875 9.746094 15.539062 9.472656 15.304688 C 9.363281 15.191406 9.261719 15.078125 9.167969 14.953125 C 9.019531 14.773438 8.921875 14.699219 8.695312 14.644531 C 8.46875 14.625 8.25 14.617188 8.023438 14.617188 C 7.945312 14.617188 7.867188 14.617188 7.785156 14.617188 C 7.363281 14.632812 7.054688 14.660156 6.742188 14.953125 C 6.605469 15.109375 6.488281 15.265625 6.375 15.4375 C 6.210938 15.519531 6.09375 15.507812 5.910156 15.507812 C 5.84375 15.503906 5.773438 15.503906 5.707031 15.503906 C 5.636719 15.503906 5.566406 15.503906 5.492188 15.503906 C 5.386719 15.503906 5.386719 15.503906 5.277344 15.503906 C 5.101562 15.503906 4.925781 15.5 4.75 15.5 C 4.730469 15.550781 4.714844 15.597656 4.695312 15.648438 C 4.601562 15.867188 4.53125 15.910156 4.3125 16 C 4.046875 16.035156 3.824219 16.03125 3.574219 15.925781 C 3.207031 15.621094 3.207031 15.621094 3.164062 15.367188 C 3.152344 14.972656 3.242188 14.769531 3.507812 14.480469 C 3.757812 14.332031 3.96875 14.332031 4.25 14.375 C 4.453125 14.46875 4.609375 14.578125 4.75 14.75 C 4.75 14.792969 4.75 14.832031 4.75 14.875 C 4.964844 14.875 5.175781 14.867188 5.390625 14.863281 C 5.453125 14.863281 5.511719 14.863281 5.574219 14.863281 C 5.9375 14.859375 5.9375 14.859375 6.230469 14.652344 C 6.257812 14.601562 6.285156 14.550781 6.3125 14.5 C 6.269531 14.488281 6.226562 14.476562 6.183594 14.464844 C 4.429688 13.921875 2.953125 12.800781 2.082031 11.171875 C 1.875 10.777344 1.875 10.777344 1.875 10.625 C 1.796875 10.695312 1.714844 10.761719 1.636719 10.832031 C 1.59375 10.871094 1.546875 10.910156 1.503906 10.949219 C 1.460938 10.984375 1.417969 11.023438 1.375 11.0625 C 1.34375 11.089844 1.308594 11.117188 1.273438 11.144531 C 1.15625 11.285156 1.164062 11.375 1.160156 11.558594 C 1.160156 11.625 1.160156 11.6875 1.15625 11.75 C 1.15625 11.820312 1.15625 11.886719 1.15625 11.957031 C 1.15625 12.027344 1.15625 12.097656 1.15625 12.167969 C 1.15625 12.316406 1.15625 12.464844 1.15625 12.613281 C 1.15625 12.839844 1.152344 13.066406 1.152344 13.292969 C 1.152344 13.433594 1.152344 13.578125 1.152344 13.722656 C 1.148438 13.789062 1.148438 13.859375 1.148438 13.929688 C 1.140625 14.300781 1.140625 14.300781 1.339844 14.601562 C 1.417969 14.644531 1.417969 14.644531 1.5 14.6875 C 1.667969 14.910156 1.660156 15.171875 1.625 15.4375 C 1.515625 15.695312 1.367188 15.859375 1.125 16 C 0.808594 16.050781 0.570312 16.035156 0.28125 15.890625 C 0.101562 15.726562 0.015625 15.605469 -0.0195312 15.363281 C -0.0195312 14.996094 0.0390625 14.796875 0.285156 14.511719 C 0.375 14.4375 0.375 14.4375 0.5 14.4375 C 0.496094 14.398438 0.496094 14.359375 0.492188 14.316406 C 0.46875 13.894531 0.453125 13.476562 0.441406 13.054688 C 0.4375 12.898438 0.429688 12.742188 0.421875 12.585938 C 0.339844 11.207031 0.339844 11.207031 0.742188 10.730469 C 0.929688 10.542969 1.125 10.378906 1.335938 10.214844 C 1.546875 10.042969 1.546875 10.042969 1.589844 9.761719 C 1.539062 9.554688 1.460938 9.382812 1.375 9.1875 C 1.070312 7.425781 1.480469 5.585938 2.5 4.125 C 2.675781 3.886719 2.871094 3.664062 3.0625 3.4375 C 3.125 3.355469 3.1875 3.273438 3.25 3.1875 C 3.023438 2.851562 2.796875 2.550781 2.390625 2.460938 C 1.96875 2.414062 1.546875 2.417969 1.125 2.4375 C 1.175781 2.703125 1.289062 2.773438 1.5 2.9375 C 1.640625 3.125 1.652344 3.324219 1.644531 3.558594 C 1.597656 3.859375 1.453125 4.066406 1.207031 4.25 C 0.933594 4.332031 0.714844 4.332031 0.4375 4.25 C 0.21875 4.125 0.0820312 3.996094 0 3.75 C -0.0351562 3.453125 -0.0273438 3.242188 0.113281 2.972656 C 0.25 2.8125 0.25 2.8125 0.4375 2.6875 C 0.464844 2.511719 0.464844 2.339844 0.46875 2.164062 C 0.5 2 0.5 2 0.597656 1.898438 C 0.898438 1.730469 1.261719 1.773438 1.59375 1.773438 C 1.734375 1.773438 1.871094 1.769531 2.007812 1.765625 C 2.742188 1.753906 2.742188 1.753906 3.046875 2.015625 C 3.117188 2.09375 3.183594 2.171875 3.25 2.25 C 3.300781 2.300781 3.355469 2.351562 3.40625 2.402344 C 3.449219 2.441406 3.488281 2.484375 3.53125 2.527344 C 3.574219 2.570312 3.613281 2.613281 3.65625 2.65625 C 3.6875 2.6875 3.71875 2.71875 3.75 2.75 C 3.789062 2.722656 3.832031 2.695312 3.875 2.667969 C 4.0625 2.550781 4.25 2.429688 4.4375 2.3125 C 4.523438 2.257812 4.523438 2.257812 4.609375 2.199219 C 5.285156 1.777344 6.042969 1.5625 6.8125 1.375 C 6.832031 1.292969 6.855469 1.210938 6.875 1.125 C 6.507812 1.125 6.140625 1.128906 5.769531 1.132812 C 5.644531 1.136719 5.519531 1.136719 5.394531 1.136719 C 5.214844 1.136719 5.035156 1.140625 4.855469 1.144531 C 4.769531 1.144531 4.769531 1.144531 4.6875 1.140625 C 4.402344 1.148438 4.289062 1.15625 4.0625 1.339844 C 4.023438 1.394531 3.980469 1.445312 3.9375 1.5 C 3.714844 1.65625 3.515625 1.652344 3.25 1.625 C 3 1.535156 2.847656 1.421875 2.6875 1.207031 C 2.605469 0.933594 2.605469 0.714844 2.6875 0.4375 C 2.953125 -0.0078125 3.261719 -0.0546875 3.75 0 Z M 3.75 0 "/>
<path style=" stroke:none;fill-rule:nonzero;fill:rgb(12.941177%,11.764706%,11.764706%);fill-opacity:1;" d="M 3.75 0 C 3.992188 0.125 4.101562 0.210938 4.25 0.4375 C 4.382812 0.464844 4.382812 0.464844 4.542969 0.460938 C 4.632812 0.460938 4.632812 0.460938 4.726562 0.464844 C 4.792969 0.464844 4.859375 0.464844 4.925781 0.464844 C 5.027344 0.464844 5.027344 0.464844 5.128906 0.464844 C 5.34375 0.46875 5.5625 0.46875 5.777344 0.46875 C 6.0625 0.46875 6.34375 0.472656 6.628906 0.472656 C 6.726562 0.472656 6.726562 0.472656 6.828125 0.472656 C 6.886719 0.472656 6.949219 0.476562 7.011719 0.476562 C 7.066406 0.476562 7.121094 0.476562 7.175781 0.476562 C 7.34375 0.503906 7.398438 0.550781 7.5 0.6875 C 7.523438 0.898438 7.507812 1.097656 7.5 1.3125 C 7.828125 1.3125 8.160156 1.3125 8.5 1.3125 C 8.496094 1.214844 8.492188 1.113281 8.488281 1.011719 C 8.476562 0.71875 8.476562 0.71875 8.578125 0.585938 C 8.722656 0.472656 8.804688 0.476562 8.984375 0.480469 C 9.046875 0.480469 9.105469 0.480469 9.167969 0.480469 C 9.234375 0.480469 9.296875 0.480469 9.363281 0.480469 C 9.503906 0.480469 9.640625 0.480469 9.777344 0.480469 C 9.996094 0.480469 10.210938 0.480469 10.429688 0.484375 C 10.636719 0.484375 10.847656 0.484375 11.054688 0.480469 C 11.121094 0.484375 11.1875 0.484375 11.253906 0.484375 C 11.578125 0.488281 11.578125 0.488281 11.859375 0.351562 C 11.953125 0.242188 11.953125 0.242188 12.0625 0.0625 C 12.292969 -0.0546875 12.558594 -0.0273438 12.8125 0 C 13.046875 0.109375 13.15625 0.207031 13.308594 0.417969 C 13.398438 0.691406 13.386719 0.910156 13.3125 1.1875 C 13.179688 1.402344 13.054688 1.550781 12.8125 1.625 C 12.410156 1.664062 12.207031 1.605469 11.875 1.375 C 11.8125 1.28125 11.8125 1.28125 11.75 1.1875 C 11.632812 1.15625 11.632812 1.15625 11.496094 1.160156 C 11.441406 1.160156 11.390625 1.15625 11.335938 1.15625 C 11.25 1.15625 11.25 1.15625 11.164062 1.15625 C 11.105469 1.15625 11.046875 1.152344 10.988281 1.152344 C 10.800781 1.148438 10.617188 1.148438 10.429688 1.144531 C 10.304688 1.140625 10.179688 1.140625 10.050781 1.136719 C 9.742188 1.132812 9.433594 1.128906 9.125 1.125 C 9.144531 1.207031 9.167969 1.289062 9.1875 1.375 C 9.246094 1.390625 9.304688 1.402344 9.363281 1.417969 C 10.445312 1.695312 11.328125 2.128906 12.25 2.75 C 12.277344 2.722656 12.300781 2.699219 12.328125 2.671875 C 12.445312 2.550781 12.5625 2.433594 12.679688 2.316406 C 12.742188 2.253906 12.742188 2.253906 12.804688 2.191406 C 12.84375 2.152344 12.882812 2.113281 12.921875 2.074219 C 12.957031 2.035156 12.992188 2 13.03125 1.960938 C 13.308594 1.707031 13.746094 1.796875 14.101562 1.796875 C 14.242188 1.796875 14.382812 1.796875 14.523438 1.792969 C 14.613281 1.792969 14.703125 1.792969 14.792969 1.792969 C 14.875 1.792969 14.957031 1.789062 15.039062 1.789062 C 15.257812 1.8125 15.347656 1.84375 15.5 2 C 15.523438 2.15625 15.523438 2.15625 15.523438 2.335938 C 15.53125 2.585938 15.53125 2.585938 15.648438 2.796875 C 15.761719 2.890625 15.761719 2.890625 15.9375 3 C 16.054688 3.230469 16.027344 3.496094 16 3.75 C 15.890625 3.984375 15.792969 4.09375 15.582031 4.246094 C 15.308594 4.335938 15.089844 4.324219 14.8125 4.25 C 14.597656 4.117188 14.449219 3.992188 14.375 3.75 C 14.335938 3.347656 14.394531 3.144531 14.625 2.8125 C 14.6875 2.769531 14.75 2.730469 14.8125 2.6875 C 14.859375 2.558594 14.859375 2.558594 14.875 2.4375 C 13.988281 2.363281 13.988281 2.363281 13.1875 2.65625 C 13.019531 2.816406 12.878906 2.996094 12.75 3.1875 C 12.800781 3.246094 12.851562 3.304688 12.90625 3.363281 C 14.222656 4.90625 14.835938 6.667969 14.6875 8.6875 C 14.65625 8.933594 14.613281 9.171875 14.5625 9.414062 C 14.507812 9.652344 14.484375 9.832031 14.5625 10.0625 C 14.644531 10.1875 14.644531 10.1875 14.753906 10.300781 C 14.789062 10.339844 14.824219 10.375 14.859375 10.414062 C 14.992188 10.558594 14.992188 10.558594 15.121094 10.660156 C 15.328125 10.832031 15.476562 10.972656 15.542969 11.238281 C 15.558594 11.441406 15.554688 11.644531 15.546875 11.847656 C 15.546875 11.921875 15.546875 12 15.546875 12.074219 C 15.542969 12.308594 15.539062 12.546875 15.53125 12.78125 C 15.527344 12.941406 15.527344 13.101562 15.523438 13.261719 C 15.519531 13.652344 15.511719 14.046875 15.5 14.4375 C 15.574219 14.464844 15.574219 14.464844 15.648438 14.492188 C 15.8125 14.5625 15.8125 14.5625 15.925781 14.6875 C 16.035156 14.960938 16.042969 15.210938 16 15.5 C 15.871094 15.757812 15.765625 15.890625 15.5 16 C 15.234375 16.035156 15.003906 16.03125 14.757812 15.917969 C 14.453125 15.675781 14.453125 15.675781 14.375 15.4375 C 14.347656 15.054688 14.414062 14.804688 14.660156 14.507812 C 14.75 14.4375 14.75 14.4375 14.875 14.4375 C 14.878906 13.992188 14.882812 13.550781 14.878906 13.105469 C 14.878906 12.957031 14.878906 12.804688 14.882812 12.65625 C 14.882812 12.4375 14.882812 12.21875 14.882812 12.003906 C 14.882812 11.902344 14.882812 11.902344 14.886719 11.800781 C 14.878906 11.40625 14.8125 11.210938 14.535156 10.925781 C 14.402344 10.804688 14.285156 10.703125 14.125 10.625 C 14.101562 10.703125 14.101562 10.703125 14.074219 10.785156 C 13.8125 11.523438 13.332031 12.117188 12.8125 12.6875 C 12.777344 12.730469 12.738281 12.773438 12.699219 12.816406 C 11.917969 13.660156 10.769531 14.179688 9.6875 14.5 C 9.769531 14.667969 9.769531 14.667969 9.9375 14.8125 C 10.160156 14.863281 10.382812 14.863281 10.609375 14.863281 C 10.671875 14.863281 10.734375 14.867188 10.796875 14.867188 C 10.945312 14.871094 11.097656 14.875 11.25 14.875 C 11.269531 14.835938 11.285156 14.796875 11.304688 14.757812 C 11.40625 14.566406 11.5 14.484375 11.6875 14.375 C 11.953125 14.332031 12.175781 14.34375 12.425781 14.449219 C 12.792969 14.753906 12.792969 14.753906 12.835938 15.007812 C 12.847656 15.402344 12.757812 15.605469 12.492188 15.894531 C 12.242188 16.042969 12.03125 16.042969 11.75 16 C 11.546875 15.90625 11.390625 15.796875 11.25 15.625 C 11.25 15.582031 11.25 15.542969 11.25 15.5 C 11.207031 15.503906 11.164062 15.503906 11.121094 15.507812 C 10.921875 15.515625 10.726562 15.523438 10.53125 15.527344 C 10.429688 15.53125 10.429688 15.53125 10.328125 15.539062 C 9.976562 15.546875 9.746094 15.539062 9.472656 15.304688 C 9.363281 15.191406 9.261719 15.078125 9.167969 14.953125 C 9.019531 14.773438 8.921875 14.699219 8.695312 14.644531 C 8.46875 14.625 8.25 14.617188 8.023438 14.617188 C 7.945312 14.617188 7.867188 14.617188 7.785156 14.617188 C 7.363281 14.632812 7.054688 14.660156 6.742188 14.953125 C 6.605469 15.109375 6.488281 15.265625 6.375 15.4375 C 6.210938 15.519531 6.09375 15.507812 5.910156 15.507812 C 5.84375 15.503906 5.773438 15.503906 5.707031 15.503906 C 5.636719 15.503906 5.566406 15.503906 5.492188 15.503906 C 5.386719 15.503906 5.386719 15.503906 5.277344 15.503906 C 5.101562 15.503906 4.925781 15.5 4.75 15.5 C 4.730469 15.550781 4.714844 15.597656 4.695312 15.648438 C 4.601562 15.867188 4.53125 15.910156 4.3125 16 C 4.046875 16.035156 3.824219 16.03125 3.574219 15.925781 C 3.207031 15.621094 3.207031 15.621094 3.164062 15.367188 C 3.152344 14.972656 3.242188 14.769531 3.507812 14.480469 C 3.757812 14.332031 3.96875 14.332031 4.25 14.375 C 4.453125 14.46875 4.609375 14.578125 4.75 14.75 C 4.75 14.792969 4.75 14.832031 4.75 14.875 C 4.964844 14.875 5.175781 14.867188 5.390625 14.863281 C 5.453125 14.863281 5.511719 14.863281 5.574219 14.863281 C 5.9375 14.859375 5.9375 14.859375 6.230469 14.652344 C 6.257812 14.601562 6.285156 14.550781 6.3125 14.5 C 6.269531 14.488281 6.226562 14.476562 6.183594 14.464844 C 4.429688 13.921875 2.953125 12.800781 2.082031 11.171875 C 1.875 10.777344 1.875 10.777344 1.875 10.625 C 1.796875 10.695312 1.714844 10.761719 1.636719 10.832031 C 1.59375 10.871094 1.546875 10.910156 1.503906 10.949219 C 1.460938 10.984375 1.417969 11.023438 1.375 11.0625 C 1.34375 11.089844 1.308594 11.117188 1.273438 11.144531 C 1.15625 11.285156 1.164062 11.375 1.160156 11.558594 C 1.160156 11.625 1.160156 11.6875 1.15625 11.75 C 1.15625 11.820312 1.15625 11.886719 1.15625 11.957031 C 1.15625 12.027344 1.15625 12.097656 1.15625 12.167969 C 1.15625 12.316406 1.15625 12.464844 1.15625 12.613281 C 1.15625 12.839844 1.152344 13.066406 1.152344 13.292969 C 1.152344 13.433594 1.152344 13.578125 1.152344 13.722656 C 1.148438 13.789062 1.148438 13.859375 1.148438 13.929688 C 1.140625 14.300781 1.140625 14.300781 1.339844 14.601562 C 1.417969 14.644531 1.417969 14.644531 1.5 14.6875 C 1.667969 14.910156 1.660156 15.171875 1.625 15.4375 C 1.515625 15.695312 1.367188 15.859375 1.125 16 C 0.808594 16.050781 0.570312 16.035156 0.28125 15.890625 C 0.101562 15.726562 0.015625 15.605469 -0.0195312 15.363281 C -0.0195312 14.996094 0.0390625 14.796875 0.285156 14.511719 C 0.375 14.4375 0.375 14.4375 0.5 14.4375 C 0.496094 14.398438 0.496094 14.359375 0.492188 14.316406 C 0.46875 13.894531 0.453125 13.476562 0.441406 13.054688 C 0.4375 12.898438 0.429688 12.742188 0.421875 12.585938 C 0.339844 11.207031 0.339844 11.207031 0.742188 10.730469 C 0.929688 10.542969 1.125 10.378906 1.335938 10.214844 C 1.546875 10.042969 1.546875 10.042969 1.589844 9.761719 C 1.539062 9.554688 1.460938 9.382812 1.375 9.1875 C 1.070312 7.425781 1.480469 5.585938 2.5 4.125 C 2.675781 3.886719 2.871094 3.664062 3.0625 3.4375 C 3.125 3.355469 3.1875 3.273438 3.25 3.1875 C 3.023438 2.851562 2.796875 2.550781 2.390625 2.460938 C 1.96875 2.414062 1.546875 2.417969 1.125 2.4375 C 1.175781 2.703125 1.289062 2.773438 1.5 2.9375 C 1.640625 3.125 1.652344 3.324219 1.644531 3.558594 C 1.597656 3.859375 1.453125 4.066406 1.207031 4.25 C 0.933594 4.332031 0.714844 4.332031 0.4375 4.25 C 0.21875 4.125 0.0820312 3.996094 0 3.75 C -0.0351562 3.453125 -0.0273438 3.242188 0.113281 2.972656 C 0.25 2.8125 0.25 2.8125 0.4375 2.6875 C 0.464844 2.511719 0.464844 2.339844 0.46875 2.164062 C 0.5 2 0.5 2 0.597656 1.898438 C 0.898438 1.730469 1.261719 1.773438 1.59375 1.773438 C 1.734375 1.773438 1.871094 1.769531 2.007812 1.765625 C 2.742188 1.753906 2.742188 1.753906 3.046875 2.015625 C 3.117188 2.09375 3.183594 2.171875 3.25 2.25 C 3.300781 2.300781 3.355469 2.351562 3.40625 2.402344 C 3.449219 2.441406 3.488281 2.484375 3.53125 2.527344 C 3.574219 2.570312 3.613281 2.613281 3.65625 2.65625 C 3.6875 2.6875 3.71875 2.71875 3.75 2.75 C 3.789062 2.722656 3.832031 2.695312 3.875 2.667969 C 4.0625 2.550781 4.25 2.429688 4.4375 2.3125 C 4.523438 2.257812 4.523438 2.257812 4.609375 2.199219 C 5.285156 1.777344 6.042969 1.5625 6.8125 1.375 C 6.832031 1.292969 6.855469 1.210938 6.875 1.125 C 6.507812 1.125 6.140625 1.128906 5.769531 1.132812 C 5.644531 1.136719 5.519531 1.136719 5.394531 1.136719 C 5.214844 1.136719 5.035156 1.140625 4.855469 1.144531 C 4.769531 1.144531 4.769531 1.144531 4.6875 1.140625 C 4.402344 1.148438 4.289062 1.15625 4.0625 1.339844 C 4.023438 1.394531 3.980469 1.445312 3.9375 1.5 C 3.714844 1.65625 3.515625 1.652344 3.25 1.625 C 3 1.535156 2.847656 1.421875 2.6875 1.207031 C 2.605469 0.933594 2.605469 0.714844 2.6875 0.4375 C 2.953125 -0.0078125 3.261719 -0.0546875 3.75 0 Z M 3.625 3.6875 C 3.578125 3.734375 3.53125 3.78125 3.480469 3.828125 C 2.378906 4.980469 1.828125 6.554688 1.84375 8.132812 C 1.902344 9.847656 2.648438 11.390625 3.886719 12.570312 C 5.214844 13.738281 6.871094 14.238281 8.625 14.125 C 10.308594 13.929688 11.816406 13.070312 12.875 11.75 C 13.511719 10.894531 13.851562 9.972656 14.0625 8.9375 C 14.074219 8.886719 14.085938 8.839844 14.097656 8.789062 C 14.34375 7.246094 13.886719 5.714844 13.019531 4.449219 C 12.804688 4.152344 12.570312 3.882812 12.3125 3.625 C 12.265625 3.578125 12.214844 3.527344 12.167969 3.480469 C 10.921875 2.296875 9.296875 1.824219 7.617188 1.855469 C 6.105469 1.914062 4.6875 2.628906 3.625 3.6875 Z M 3.625 3.6875 "/>
<path style=" stroke:none;fill-rule:nonzero;fill:rgb(82.745099%,0%,14.509805%);fill-opacity:1;" d="M 9.4375 4.4375 C 9.902344 4.796875 10.289062 5.324219 10.367188 5.917969 C 10.371094 5.984375 10.371094 6.054688 10.375 6.125 C 10.429688 6.128906 10.484375 6.136719 10.542969 6.140625 C 10.855469 6.210938 11.011719 6.359375 11.1875 6.625 C 11.199219 6.78125 11.207031 6.925781 11.207031 7.082031 C 11.207031 7.128906 11.207031 7.175781 11.207031 7.222656 C 11.207031 7.375 11.207031 7.53125 11.207031 7.683594 C 11.207031 7.789062 11.210938 7.894531 11.210938 8.003906 C 11.210938 8.226562 11.210938 8.449219 11.210938 8.675781 C 11.210938 8.960938 11.210938 9.246094 11.214844 9.535156 C 11.214844 9.753906 11.214844 9.976562 11.214844 10.195312 C 11.214844 10.300781 11.21875 10.40625 11.21875 10.511719 C 11.21875 10.660156 11.21875 10.808594 11.21875 10.957031 C 11.21875 11 11.21875 11.042969 11.21875 11.085938 C 11.214844 11.398438 11.136719 11.574219 10.9375 11.8125 C 10.679688 12.023438 10.433594 12.027344 10.113281 12.023438 C 10.0625 12.027344 10.011719 12.027344 9.960938 12.027344 C 9.792969 12.027344 9.625 12.027344 9.460938 12.027344 C 9.34375 12.027344 9.226562 12.027344 9.109375 12.027344 C 8.867188 12.027344 8.621094 12.027344 8.378906 12.027344 C 8.066406 12.027344 7.753906 12.027344 7.441406 12.03125 C 7.203125 12.03125 6.960938 12.03125 6.722656 12.03125 C 6.609375 12.03125 6.492188 12.03125 6.378906 12.03125 C 6.214844 12.03125 6.054688 12.03125 5.894531 12.03125 C 5.847656 12.03125 5.800781 12.03125 5.75 12.03125 C 5.429688 12.027344 5.246094 11.957031 5 11.75 C 4.800781 11.503906 4.785156 11.273438 4.785156 10.964844 C 4.785156 10.921875 4.785156 10.875 4.785156 10.824219 C 4.78125 10.671875 4.78125 10.519531 4.78125 10.367188 C 4.78125 10.261719 4.78125 10.15625 4.78125 10.046875 C 4.78125 9.824219 4.78125 9.601562 4.78125 9.378906 C 4.78125 9.09375 4.78125 8.808594 4.777344 8.523438 C 4.777344 8.300781 4.777344 8.082031 4.777344 7.863281 C 4.777344 7.757812 4.773438 7.652344 4.773438 7.546875 C 4.773438 7.398438 4.773438 7.25 4.773438 7.105469 C 4.773438 7.0625 4.773438 7.019531 4.769531 6.972656 C 4.777344 6.625 4.890625 6.484375 5.125 6.25 C 5.316406 6.121094 5.382812 6.125 5.625 6.125 C 5.628906 6.058594 5.628906 5.988281 5.632812 5.917969 C 5.703125 5.382812 6.03125 4.910156 6.414062 4.550781 C 7.347656 3.839844 8.457031 3.824219 9.4375 4.4375 Z M 9.4375 4.4375 "/>
<path style=" stroke:none;fill-rule:nonzero;fill:rgb(46.666667%,71.372551%,90.980393%);fill-opacity:1;" d="M 11.191406 4.046875 C 12.140625 4.832031 12.847656 5.964844 13.046875 7.195312 C 13.175781 8.664062 12.886719 10.027344 11.9375 11.1875 C 11.875 11.265625 11.875 11.265625 11.808594 11.347656 C 10.976562 12.339844 9.78125 12.878906 8.519531 13.046875 C 8.429688 13.054688 8.339844 13.058594 8.25 13.0625 C 8.164062 13.066406 8.164062 13.066406 8.074219 13.074219 C 6.738281 13.125 5.519531 12.566406 4.523438 11.710938 C 3.566406 10.808594 2.984375 9.566406 2.921875 8.246094 C 2.886719 6.8125 3.371094 5.511719 4.355469 4.453125 C 6.207031 2.542969 9.125 2.46875 11.191406 4.046875 Z M 6.097656 4.875 C 5.796875 5.253906 5.652344 5.648438 5.625 6.125 C 5.570312 6.128906 5.515625 6.136719 5.457031 6.140625 C 5.144531 6.210938 4.988281 6.359375 4.8125 6.625 C 4.800781 6.78125 4.792969 6.925781 4.792969 7.082031 C 4.792969 7.128906 4.792969 7.175781 4.792969 7.222656 C 4.792969 7.375 4.792969 7.53125 4.792969 7.683594 C 4.792969 7.789062 4.789062 7.894531 4.789062 8.003906 C 4.789062 8.226562 4.789062 8.449219 4.789062 8.675781 C 4.789062 8.960938 4.789062 9.246094 4.785156 9.535156 C 4.785156 9.753906 4.785156 9.976562 4.785156 10.195312 C 4.785156 10.300781 4.785156 10.40625 4.78125 10.511719 C 4.78125 10.660156 4.78125 10.808594 4.78125 10.957031 C 4.78125 11 4.78125 11.042969 4.78125 11.085938 C 4.785156 11.398438 4.863281 11.574219 5.0625 11.8125 C 5.320312 12.023438 5.566406 12.027344 5.886719 12.023438 C 5.9375 12.027344 5.988281 12.027344 6.039062 12.027344 C 6.207031 12.027344 6.375 12.027344 6.539062 12.027344 C 6.65625 12.027344 6.773438 12.027344 6.890625 12.027344 C 7.132812 12.027344 7.378906 12.027344 7.621094 12.027344 C 7.933594 12.027344 8.246094 12.027344 8.558594 12.03125 C 8.796875 12.03125 9.039062 12.03125 9.277344 12.03125 C 9.394531 12.03125 9.507812 12.03125 9.621094 12.03125 C 9.785156 12.03125 9.945312 12.03125 10.105469 12.03125 C 10.152344 12.03125 10.199219 12.03125 10.25 12.03125 C 10.570312 12.027344 10.753906 11.957031 11 11.75 C 11.199219 11.503906 11.214844 11.273438 11.214844 10.964844 C 11.214844 10.921875 11.214844 10.875 11.214844 10.824219 C 11.21875 10.671875 11.21875 10.519531 11.21875 10.367188 C 11.21875 10.261719 11.21875 10.15625 11.21875 10.046875 C 11.21875 9.824219 11.21875 9.601562 11.21875 9.378906 C 11.21875 9.09375 11.21875 8.808594 11.222656 8.523438 C 11.222656 8.300781 11.222656 8.082031 11.222656 7.863281 C 11.222656 7.757812 11.226562 7.652344 11.226562 7.546875 C 11.226562 7.398438 11.226562 7.25 11.226562 7.105469 C 11.226562 7.0625 11.226562 7.019531 11.226562 6.972656 C 11.222656 6.625 11.109375 6.484375 10.875 6.25 C 10.683594 6.121094 10.617188 6.125 10.375 6.125 C 10.371094 6.058594 10.371094 5.988281 10.367188 5.917969 C 10.296875 5.382812 9.972656 4.910156 9.582031 4.550781 C 8.449219 3.683594 7.058594 3.863281 6.097656 4.875 Z M 6.097656 4.875 "/>
<path style=" stroke:none;fill-rule:nonzero;fill:rgb(13.333334%,11.764706%,12.156863%);fill-opacity:1;" d="M 9.4375 4.4375 C 9.902344 4.796875 10.289062 5.324219 10.367188 5.917969 C 10.371094 5.984375 10.371094 6.054688 10.375 6.125 C 10.429688 6.128906 10.484375 6.136719 10.542969 6.140625 C 10.855469 6.210938 11.011719 6.359375 11.1875 6.625 C 11.199219 6.78125 11.207031 6.925781 11.207031 7.082031 C 11.207031 7.128906 11.207031 7.175781 11.207031 7.222656 C 11.207031 7.375 11.207031 7.53125 11.207031 7.683594 C 11.207031 7.789062 11.210938 7.894531 11.210938 8.003906 C 11.210938 8.226562 11.210938 8.449219 11.210938 8.675781 C 11.210938 8.960938 11.210938 9.246094 11.214844 9.535156 C 11.214844 9.753906 11.214844 9.976562 11.214844 10.195312 C 11.214844 10.300781 11.21875 10.40625 11.21875 10.511719 C 11.21875 10.660156 11.21875 10.808594 11.21875 10.957031 C 11.21875 11 11.21875 11.042969 11.21875 11.085938 C 11.214844 11.398438 11.136719 11.574219 10.9375 11.8125 C 10.679688 12.023438 10.433594 12.027344 10.113281 12.023438 C 10.0625 12.027344 10.011719 12.027344 9.960938 12.027344 C 9.792969 12.027344 9.625 12.027344 9.460938 12.027344 C 9.34375 12.027344 9.226562 12.027344 9.109375 12.027344 C 8.867188 12.027344 8.621094 12.027344 8.378906 12.027344 C 8.066406 12.027344 7.753906 12.027344 7.441406 12.03125 C 7.203125 12.03125 6.960938 12.03125 6.722656 12.03125 C 6.609375 12.03125 6.492188 12.03125 6.378906 12.03125 C 6.214844 12.03125 6.054688 12.03125 5.894531 12.03125 C 5.847656 12.03125 5.800781 12.03125 5.75 12.03125 C 5.429688 12.027344 5.246094 11.957031 5 11.75 C 4.800781 11.503906 4.785156 11.273438 4.785156 10.964844 C 4.785156 10.921875 4.785156 10.875 4.785156 10.824219 C 4.78125 10.671875 4.78125 10.519531 4.78125 10.367188 C 4.78125 10.261719 4.78125 10.15625 4.78125 10.046875 C 4.78125 9.824219 4.78125 9.601562 4.78125 9.378906 C 4.78125 9.09375 4.78125 8.808594 4.777344 8.523438 C 4.777344 8.300781 4.777344 8.082031 4.777344 7.863281 C 4.777344 7.757812 4.773438 7.652344 4.773438 7.546875 C 4.773438 7.398438 4.773438 7.25 4.773438 7.105469 C 4.773438 7.0625 4.773438 7.019531 4.769531 6.972656 C 4.777344 6.625 4.890625 6.484375 5.125 6.25 C 5.316406 6.121094 5.382812 6.125 5.625 6.125 C 5.628906 6.058594 5.628906 5.988281 5.632812 5.917969 C 5.703125 5.382812 6.03125 4.910156 6.414062 4.550781 C 7.347656 3.839844 8.457031 3.824219 9.4375 4.4375 Z M 5.4375 6.6875 C 5.285156 6.914062 5.296875 7.023438 5.296875 7.296875 C 5.296875 7.335938 5.296875 7.378906 5.296875 7.421875 C 5.296875 7.5625 5.296875 7.703125 5.296875 7.84375 C 5.296875 7.941406 5.296875 8.039062 5.296875 8.136719 C 5.296875 8.339844 5.296875 8.542969 5.296875 8.75 C 5.296875 9.011719 5.296875 9.269531 5.296875 9.53125 C 5.296875 9.734375 5.296875 9.933594 5.296875 10.136719 C 5.296875 10.234375 5.296875 10.328125 5.296875 10.425781 C 5.296875 10.5625 5.296875 10.695312 5.296875 10.828125 C 5.296875 10.90625 5.296875 10.984375 5.296875 11.0625 C 5.296875 11.261719 5.296875 11.261719 5.4375 11.4375 C 5.601562 11.457031 5.753906 11.464844 5.921875 11.460938 C 5.96875 11.460938 6.019531 11.460938 6.070312 11.460938 C 6.234375 11.464844 6.402344 11.464844 6.566406 11.460938 C 6.679688 11.460938 6.796875 11.460938 6.910156 11.464844 C 7.148438 11.464844 7.390625 11.464844 7.628906 11.460938 C 7.9375 11.460938 8.246094 11.460938 8.554688 11.460938 C 8.789062 11.464844 9.027344 11.464844 9.261719 11.460938 C 9.375 11.460938 9.492188 11.460938 9.605469 11.464844 C 9.761719 11.464844 9.921875 11.460938 10.078125 11.460938 C 10.152344 11.460938 10.152344 11.460938 10.222656 11.464844 C 10.367188 11.464844 10.367188 11.464844 10.5625 11.4375 C 10.714844 11.210938 10.703125 11.101562 10.703125 10.828125 C 10.703125 10.789062 10.703125 10.746094 10.703125 10.703125 C 10.703125 10.5625 10.703125 10.421875 10.703125 10.28125 C 10.703125 10.183594 10.703125 10.085938 10.703125 9.988281 C 10.703125 9.785156 10.703125 9.582031 10.703125 9.375 C 10.703125 9.113281 10.703125 8.855469 10.703125 8.59375 C 10.703125 8.390625 10.703125 8.191406 10.703125 7.988281 C 10.703125 7.890625 10.703125 7.796875 10.703125 7.699219 C 10.703125 7.5625 10.703125 7.429688 10.703125 7.296875 C 10.703125 7.21875 10.703125 7.140625 10.703125 7.0625 C 10.703125 6.863281 10.703125 6.863281 10.5625 6.6875 C 10.398438 6.667969 10.246094 6.660156 10.078125 6.664062 C 10.03125 6.664062 9.980469 6.664062 9.929688 6.664062 C 9.765625 6.660156 9.597656 6.660156 9.433594 6.664062 C 9.320312 6.664062 9.203125 6.664062 9.089844 6.660156 C 8.851562 6.660156 8.609375 6.660156 8.371094 6.664062 C 8.0625 6.664062 7.753906 6.664062 7.445312 6.664062 C 7.210938 6.660156 6.972656 6.660156 6.738281 6.664062 C 6.625 6.664062 6.507812 6.664062 6.394531 6.660156 C 6.238281 6.660156 6.078125 6.664062 5.921875 6.664062 C 5.875 6.664062 5.824219 6.664062 5.777344 6.660156 C 5.632812 6.660156 5.632812 6.660156 5.4375 6.6875 Z M 5.4375 6.6875 "/>
<path style=" stroke:none;fill-rule:nonzero;fill:rgb(12.941177%,12.941177%,12.941177%);fill-opacity:1;" d="M 11.144531 3.320312 C 12.472656 4.273438 13.320312 5.621094 13.589844 7.234375 C 13.609375 7.386719 13.617188 7.535156 13.625 7.6875 C 13.628906 7.742188 13.632812 7.792969 13.636719 7.847656 C 13.699219 9.246094 13.140625 10.65625 12.226562 11.699219 C 11.191406 12.804688 9.894531 13.515625 8.363281 13.582031 C 6.695312 13.625 5.320312 13.164062 4.082031 12.015625 C 3.117188 11.078125 2.460938 9.792969 2.410156 8.433594 C 2.410156 8.28125 2.410156 8.128906 2.410156 7.976562 C 2.410156 7.855469 2.410156 7.855469 2.410156 7.734375 C 2.421875 7.160156 2.46875 6.664062 2.6875 6.125 C 2.714844 6.0625 2.714844 6.0625 2.738281 5.996094 C 3.355469 4.5 4.4375 3.417969 5.910156 2.765625 C 6.304688 2.621094 6.710938 2.527344 7.125 2.4375 C 7.175781 2.425781 7.226562 2.414062 7.28125 2.402344 C 8.617188 2.179688 10.019531 2.601562 11.144531 3.320312 Z M 4.1875 4.625 C 3.667969 5.230469 3.265625 5.976562 3.0625 6.75 C 3.050781 6.792969 3.035156 6.839844 3.023438 6.882812 C 2.71875 8.117188 2.996094 9.484375 3.613281 10.578125 C 4.449219 11.886719 5.625 12.65625 7.125 13 C 7.179688 13.011719 7.230469 13.023438 7.285156 13.035156 C 8.511719 13.242188 9.886719 12.875 10.894531 12.171875 C 12.035156 11.34375 12.761719 10.191406 13.03125 8.804688 C 13.210938 7.421875 12.902344 6.070312 12.0625 4.9375 C 11.179688 3.855469 9.972656 3.097656 8.5625 2.9375 C 6.875 2.824219 5.359375 3.386719 4.1875 4.625 Z M 4.1875 4.625 "/>
<path style=" stroke:none;fill-rule:nonzero;fill:rgb(14.509805%,12.156863%,11.764706%);fill-opacity:1;" d="M 8.578125 7.03125 C 8.90625 7.21875 9.191406 7.515625 9.3125 7.875 C 9.355469 8.34375 9.34375 8.734375 9.0625 9.125 C 9.03125 9.148438 9 9.175781 8.964844 9.199219 C 8.832031 9.367188 8.851562 9.5 8.847656 9.710938 C 8.84375 9.785156 8.84375 9.863281 8.84375 9.945312 C 8.839844 10.066406 8.839844 10.066406 8.839844 10.191406 C 8.835938 10.351562 8.835938 10.511719 8.832031 10.675781 C 8.832031 10.746094 8.828125 10.816406 8.828125 10.890625 C 8.8125 11.0625 8.8125 11.0625 8.6875 11.1875 C 8.550781 11.203125 8.550781 11.203125 8.378906 11.203125 C 8.316406 11.203125 8.257812 11.203125 8.195312 11.203125 C 8.128906 11.203125 8.066406 11.203125 8 11.203125 C 7.9375 11.203125 7.871094 11.203125 7.804688 11.203125 C 7.714844 11.203125 7.714844 11.203125 7.621094 11.203125 C 7.566406 11.203125 7.507812 11.203125 7.449219 11.203125 C 7.3125 11.1875 7.3125 11.1875 7.1875 11.0625 C 7.171875 10.894531 7.171875 10.894531 7.175781 10.683594 C 7.175781 10.609375 7.171875 10.53125 7.171875 10.453125 C 7.171875 10.292969 7.171875 10.132812 7.175781 9.972656 C 7.167969 9.527344 7.144531 9.242188 6.835938 8.910156 C 6.628906 8.679688 6.664062 8.363281 6.667969 8.070312 C 6.707031 7.695312 6.851562 7.441406 7.136719 7.195312 C 7.589844 6.886719 8.066406 6.8125 8.578125 7.03125 Z M 8.578125 7.03125 "/>
<path style=" stroke:none;fill-rule:nonzero;fill:rgb(46.666667%,71.372551%,91.37255%);fill-opacity:1;" d="M 9 4.8125 C 9.402344 5.085938 9.652344 5.414062 9.8125 5.875 C 9.8125 5.957031 9.8125 6.039062 9.8125 6.125 C 8.617188 6.125 7.421875 6.125 6.1875 6.125 C 6.269531 5.558594 6.496094 5.179688 6.949219 4.828125 C 7.550781 4.425781 8.390625 4.417969 9 4.8125 Z M 9 4.8125 "/>
<path style=" stroke:none;fill-rule:nonzero;fill:rgb(98.823529%,83.92157%,25.490198%);fill-opacity:1;" d="M 8.3125 7.5 C 8.511719 7.601562 8.636719 7.75 8.777344 7.925781 C 8.835938 8.148438 8.828125 8.347656 8.75 8.5625 C 8.648438 8.667969 8.648438 8.667969 8.53125 8.777344 C 8.230469 9.109375 8.25 9.445312 8.253906 9.875 C 8.253906 9.949219 8.25 10.019531 8.25 10.09375 C 8.25 10.269531 8.25 10.449219 8.25 10.625 C 8.085938 10.625 7.921875 10.625 7.75 10.625 C 7.75 10.578125 7.75 10.535156 7.75 10.488281 C 7.75 10.285156 7.75 10.078125 7.746094 9.875 C 7.746094 9.804688 7.746094 9.734375 7.75 9.660156 C 7.742188 9.292969 7.722656 9.058594 7.46875 8.777344 C 7.429688 8.742188 7.390625 8.707031 7.351562 8.667969 C 7.234375 8.546875 7.203125 8.46875 7.175781 8.304688 C 7.1875 8.015625 7.25 7.902344 7.4375 7.6875 C 7.707031 7.445312 7.964844 7.441406 8.3125 7.5 Z M 8.3125 7.5 "/>
<path style=" stroke:none;fill-rule:nonzero;fill:rgb(94.509804%,56.078434%,5.882353%);fill-opacity:1;" d="M 0.6875 3.1875 C 0.851562 3.210938 0.851562 3.210938 1 3.25 C 1.070312 3.546875 1.070312 3.546875 1 3.6875 C 0.875 3.691406 0.75 3.691406 0.625 3.6875 C 0.5625 3.625 0.5625 3.625 0.550781 3.472656 C 0.5625 3.3125 0.5625 3.3125 0.6875 3.1875 Z M 0.6875 3.1875 "/>
<path style=" stroke:none;fill-rule:nonzero;fill:rgb(95.294118%,56.470591%,5.882353%);fill-opacity:1;" d="M 15.257812 3.203125 C 15.375 3.25 15.375 3.25 15.4375 3.3125 C 15.445312 3.46875 15.445312 3.46875 15.4375 3.625 C 15.375 3.6875 15.375 3.6875 15.183594 3.691406 C 15.121094 3.691406 15.0625 3.6875 15 3.6875 C 14.957031 3.542969 14.957031 3.542969 14.9375 3.375 C 15.035156 3.222656 15.074219 3.183594 15.257812 3.203125 Z M 15.257812 3.203125 "/>
<path style=" stroke:none;fill-rule:nonzero;fill:rgb(94.901961%,56.470591%,5.882353%);fill-opacity:1;" d="M 12.527344 0.550781 C 12.6875 0.5625 12.6875 0.5625 12.8125 0.6875 C 12.789062 0.851562 12.789062 0.851562 12.75 1 C 12.453125 1.070312 12.453125 1.070312 12.3125 1 C 12.308594 0.875 12.308594 0.75 12.3125 0.625 C 12.375 0.5625 12.375 0.5625 12.527344 0.550781 Z M 12.527344 0.550781 "/>
<path style=" stroke:none;fill-rule:nonzero;fill:rgb(94.901961%,56.470591%,5.882353%);fill-opacity:1;" d="M 3.464844 0.550781 C 3.625 0.5625 3.625 0.5625 3.75 0.6875 C 3.726562 0.851562 3.726562 0.851562 3.6875 1 C 3.390625 1.070312 3.390625 1.070312 3.25 1 C 3.246094 0.875 3.246094 0.75 3.25 0.625 C 3.3125 0.5625 3.3125 0.5625 3.464844 0.550781 Z M 3.464844 0.550781 "/>
<path style=" stroke:none;fill-rule:nonzero;fill:rgb(98.039216%,58.039218%,5.882353%);fill-opacity:1;" d="M 15.0625 14.9375 C 15.226562 14.960938 15.226562 14.960938 15.375 15 C 15.414062 15.148438 15.414062 15.148438 15.4375 15.3125 C 15.394531 15.355469 15.355469 15.394531 15.3125 15.4375 C 15.148438 15.414062 15.148438 15.414062 15 15.375 C 14.960938 15.226562 14.960938 15.226562 14.9375 15.0625 C 14.980469 15.019531 15.019531 14.980469 15.0625 14.9375 Z M 15.0625 14.9375 "/>
<path style=" stroke:none;fill-rule:nonzero;fill:rgb(98.823529%,58.431375%,5.882353%);fill-opacity:1;" d="M 11.875 14.9375 C 12.039062 14.960938 12.039062 14.960938 12.1875 15 C 12.226562 15.148438 12.226562 15.148438 12.25 15.3125 C 12.207031 15.355469 12.167969 15.394531 12.125 15.4375 C 11.960938 15.414062 11.960938 15.414062 11.8125 15.375 C 11.773438 15.226562 11.773438 15.226562 11.75 15.0625 C 11.792969 15.019531 11.832031 14.980469 11.875 14.9375 Z M 11.875 14.9375 "/>
<path style=" stroke:none;fill-rule:nonzero;fill:rgb(98.431373%,58.431375%,5.882353%);fill-opacity:1;" d="M 3.875 14.9375 C 4.039062 14.960938 4.039062 14.960938 4.1875 15 C 4.226562 15.148438 4.226562 15.148438 4.25 15.3125 C 4.207031 15.355469 4.167969 15.394531 4.125 15.4375 C 3.960938 15.414062 3.960938 15.414062 3.8125 15.375 C 3.773438 15.226562 3.773438 15.226562 3.75 15.0625 C 3.792969 15.019531 3.832031 14.980469 3.875 14.9375 Z M 3.875 14.9375 "/>
<path style=" stroke:none;fill-rule:nonzero;fill:rgb(98.431373%,58.431375%,5.882353%);fill-opacity:1;" d="M 0.6875 14.9375 C 0.851562 14.960938 0.851562 14.960938 1 15 C 1.039062 15.148438 1.039062 15.148438 1.0625 15.3125 C 1.019531 15.355469 0.980469 15.394531 0.9375 15.4375 C 0.773438 15.414062 0.773438 15.414062 0.625 15.375 C 0.585938 15.226562 0.585938 15.226562 0.5625 15.0625 C 0.605469 15.019531 0.644531 14.980469 0.6875 14.9375 Z M 0.6875 14.9375 "/>
</g>
</svg>
