<?xml version="1.0" encoding="UTF-8"?>
<svg xmlns="http://www.w3.org/2000/svg" xmlns:xlink="http://www.w3.org/1999/xlink" width="16" height="16" viewBox="0 0 16 16" version="1.1">
<g id="surface1">
<path style=" stroke:none;fill-rule:nonzero;fill:rgb(6.27451%,12.156863%,17.647059%);fill-opacity:1;" d="M 9.269531 0.28125 C 9.3125 0.28125 9.355469 0.28125 9.402344 0.28125 C 9.546875 0.277344 9.691406 0.28125 9.835938 0.28125 C 9.933594 0.28125 10.035156 0.28125 10.136719 0.28125 C 10.347656 0.28125 10.558594 0.28125 10.769531 0.285156 C 11.039062 0.285156 11.308594 0.285156 11.578125 0.285156 C 11.789062 0.285156 11.996094 0.285156 12.203125 0.285156 C 12.304688 0.285156 12.402344 0.285156 12.5 0.285156 C 12.640625 0.285156 12.78125 0.285156 12.917969 0.289062 C 13 0.289062 13.078125 0.289062 13.160156 0.289062 C 13.394531 0.316406 13.546875 0.375 13.75 0.5 C 13.976562 0.796875 14.007812 1.097656 14.007812 1.464844 C 14.007812 1.53125 14.007812 1.597656 14.007812 1.664062 C 14.007812 1.734375 14.007812 1.808594 14.007812 1.878906 C 14.007812 1.988281 14.007812 1.988281 14.007812 2.101562 C 14.003906 2.335938 14.003906 2.566406 14.003906 2.800781 C 14.003906 2.957031 14.003906 3.117188 14.003906 3.277344 C 14.003906 3.664062 14 4.050781 14 4.4375 C 14.058594 4.433594 14.117188 4.433594 14.175781 4.429688 C 14.4375 4.4375 14.546875 4.519531 14.75 4.6875 C 15.085938 5.046875 15.035156 5.4375 15.027344 5.90625 C 15.027344 5.996094 15.027344 6.082031 15.027344 6.167969 C 15.027344 6.402344 15.027344 6.632812 15.027344 6.867188 C 15.023438 7.113281 15.023438 7.355469 15.023438 7.601562 C 15.023438 8.0625 15.019531 8.523438 15.019531 8.988281 C 15.015625 9.511719 15.011719 10.039062 15.011719 10.566406 C 15.011719 11.648438 15.003906 12.730469 15 13.8125 C 15.070312 13.808594 15.136719 13.808594 15.207031 13.804688 C 15.4375 13.8125 15.4375 13.8125 15.617188 13.953125 C 15.816406 14.214844 15.824219 14.421875 15.824219 14.746094 C 15.824219 14.808594 15.824219 14.875 15.828125 14.9375 C 15.804688 15.210938 15.75 15.371094 15.5625 15.570312 C 15.300781 15.734375 15.085938 15.722656 14.78125 15.71875 C 14.71875 15.71875 14.660156 15.71875 14.597656 15.71875 C 14.394531 15.722656 14.191406 15.71875 13.992188 15.71875 C 13.84375 15.71875 13.699219 15.71875 13.554688 15.722656 C 13.164062 15.722656 12.769531 15.722656 12.375 15.722656 C 11.964844 15.71875 11.550781 15.722656 11.140625 15.722656 C 10.40625 15.722656 9.667969 15.722656 8.933594 15.71875 C 8.265625 15.71875 7.601562 15.71875 6.933594 15.71875 C 6.160156 15.722656 5.382812 15.722656 4.609375 15.722656 C 4.199219 15.71875 3.789062 15.71875 3.378906 15.722656 C 2.996094 15.722656 2.609375 15.722656 2.222656 15.71875 C 2.082031 15.71875 1.941406 15.71875 1.800781 15.71875 C 1.605469 15.722656 1.414062 15.71875 1.21875 15.71875 C 1.164062 15.71875 1.109375 15.71875 1.050781 15.722656 C 0.792969 15.71875 0.660156 15.707031 0.4375 15.570312 C 0.140625 15.257812 0.164062 14.917969 0.171875 14.507812 C 0.191406 14.277344 0.238281 14.125 0.375 13.9375 C 0.589844 13.792969 0.6875 13.800781 0.9375 13.8125 C 0.9375 13.769531 0.9375 13.726562 0.9375 13.679688 C 0.933594 12.617188 0.929688 11.554688 0.929688 10.488281 C 0.925781 9.976562 0.925781 9.460938 0.921875 8.945312 C 0.921875 8.496094 0.921875 8.050781 0.917969 7.601562 C 0.917969 7.363281 0.917969 7.125 0.917969 6.886719 C 0.917969 6.664062 0.917969 6.441406 0.917969 6.21875 C 0.917969 6.097656 0.914062 5.976562 0.914062 5.855469 C 0.914062 5.441406 0.941406 5.121094 1.125 4.75 C 1.398438 4.484375 1.609375 4.429688 1.984375 4.429688 C 2.054688 4.433594 2.125 4.433594 2.195312 4.433594 C 2.269531 4.433594 2.34375 4.433594 2.417969 4.433594 C 2.492188 4.433594 2.566406 4.433594 2.640625 4.433594 C 2.824219 4.433594 3.003906 4.4375 3.1875 4.4375 C 3.1875 4.386719 3.183594 4.339844 3.183594 4.285156 C 3.175781 4.058594 3.171875 3.828125 3.167969 3.601562 C 3.164062 3.523438 3.164062 3.445312 3.160156 3.363281 C 3.152344 2.808594 3.226562 2.367188 3.605469 1.945312 C 3.941406 1.621094 4.3125 1.492188 4.773438 1.472656 C 5.242188 1.488281 5.640625 1.628906 5.992188 1.945312 C 6.4375 2.457031 6.472656 3.007812 6.453125 3.664062 C 6.449219 3.917969 6.441406 4.175781 6.4375 4.4375 C 7.035156 4.4375 7.632812 4.4375 8.25 4.4375 C 8.246094 4.1875 8.246094 3.941406 8.242188 3.683594 C 8.242188 3.445312 8.242188 3.203125 8.238281 2.964844 C 8.238281 2.796875 8.238281 2.628906 8.234375 2.460938 C 8.234375 2.21875 8.230469 1.980469 8.230469 1.738281 C 8.230469 1.664062 8.230469 1.589844 8.230469 1.511719 C 8.230469 0.839844 8.230469 0.839844 8.4375 0.5625 C 8.71875 0.335938 8.90625 0.28125 9.269531 0.28125 Z M 8.8125 1 C 8.792969 1.144531 8.792969 1.144531 8.796875 1.316406 C 8.796875 1.382812 8.796875 1.449219 8.796875 1.519531 C 8.796875 1.589844 8.796875 1.664062 8.796875 1.742188 C 8.796875 1.816406 8.796875 1.894531 8.796875 1.976562 C 8.796875 2.1875 8.796875 2.398438 8.796875 2.609375 C 8.796875 2.832031 8.796875 3.054688 8.796875 3.277344 C 8.796875 3.648438 8.796875 4.019531 8.796875 4.394531 C 8.796875 4.824219 8.796875 5.253906 8.796875 5.6875 C 8.796875 6.054688 8.796875 6.425781 8.796875 6.796875 C 8.796875 7.015625 8.796875 7.238281 8.796875 7.457031 C 8.792969 7.703125 8.796875 7.949219 8.796875 8.195312 C 8.796875 8.269531 8.796875 8.34375 8.796875 8.417969 C 8.796875 8.484375 8.796875 8.554688 8.796875 8.621094 C 8.796875 8.679688 8.796875 8.738281 8.796875 8.796875 C 8.800781 8.949219 8.800781 8.949219 8.9375 9.0625 C 9.125 9.082031 9.125 9.082031 9.351562 9.078125 C 9.394531 9.078125 9.4375 9.082031 9.480469 9.082031 C 9.621094 9.082031 9.761719 9.082031 9.902344 9.082031 C 10 9.082031 10.097656 9.082031 10.195312 9.082031 C 10.398438 9.082031 10.605469 9.082031 10.808594 9.082031 C 11.070312 9.082031 11.335938 9.082031 11.597656 9.085938 C 11.800781 9.085938 12 9.085938 12.203125 9.085938 C 12.300781 9.085938 12.394531 9.085938 12.492188 9.085938 C 12.628906 9.085938 12.761719 9.085938 12.898438 9.085938 C 12.976562 9.085938 13.054688 9.085938 13.132812 9.085938 C 13.191406 9.078125 13.25 9.070312 13.3125 9.0625 C 13.449219 8.855469 13.453125 8.796875 13.453125 8.558594 C 13.453125 8.492188 13.453125 8.425781 13.453125 8.359375 C 13.453125 8.285156 13.453125 8.214844 13.453125 8.140625 C 13.453125 8.0625 13.453125 7.988281 13.453125 7.910156 C 13.453125 7.699219 13.453125 7.492188 13.453125 7.285156 C 13.453125 7.066406 13.453125 6.847656 13.453125 6.632812 C 13.453125 6.265625 13.453125 5.898438 13.453125 5.53125 C 13.453125 5.109375 13.453125 4.6875 13.453125 4.261719 C 13.453125 3.902344 13.453125 3.539062 13.453125 3.175781 C 13.453125 2.957031 13.453125 2.742188 13.453125 2.523438 C 13.453125 2.28125 13.453125 2.039062 13.453125 1.796875 C 13.453125 1.726562 13.453125 1.652344 13.453125 1.578125 C 13.453125 1.511719 13.453125 1.449219 13.453125 1.378906 C 13.453125 1.324219 13.453125 1.265625 13.453125 1.207031 C 13.445312 1.046875 13.445312 1.046875 13.3125 0.875 C 13.117188 0.851562 13.117188 0.851562 12.898438 0.863281 C 12.824219 0.863281 12.75 0.867188 12.671875 0.867188 C 12.585938 0.871094 12.585938 0.871094 12.5 0.875 C 12.492188 0.917969 12.488281 0.960938 12.480469 1.003906 C 12.472656 1.0625 12.464844 1.117188 12.453125 1.175781 C 12.445312 1.230469 12.433594 1.289062 12.425781 1.34375 C 12.359375 1.542969 12.304688 1.585938 12.125 1.6875 C 11.964844 1.703125 11.816406 1.710938 11.65625 1.707031 C 11.589844 1.707031 11.589844 1.707031 11.519531 1.707031 C 11.425781 1.707031 11.328125 1.707031 11.234375 1.703125 C 11.089844 1.703125 10.945312 1.703125 10.800781 1.703125 C 10.707031 1.703125 10.617188 1.699219 10.523438 1.699219 C 10.480469 1.699219 10.4375 1.699219 10.390625 1.699219 C 10.203125 1.695312 10.054688 1.683594 9.875 1.625 C 9.832031 1.378906 9.792969 1.128906 9.75 0.875 C 9.617188 0.871094 9.484375 0.871094 9.351562 0.867188 C 9.277344 0.867188 9.203125 0.863281 9.128906 0.863281 C 8.929688 0.855469 8.929688 0.855469 8.8125 1 Z M 3.917969 2.457031 C 3.660156 2.867188 3.671875 3.277344 3.679688 3.746094 C 3.679688 3.808594 3.679688 3.867188 3.683594 3.929688 C 3.683594 4.078125 3.683594 4.226562 3.6875 4.375 C 3.8125 4.332031 3.933594 4.292969 4.0625 4.25 C 4.0625 4.210938 4.0625 4.175781 4.0625 4.136719 C 4.066406 3.960938 4.074219 3.789062 4.078125 3.617188 C 4.078125 3.527344 4.078125 3.527344 4.082031 3.4375 C 4.09375 3.066406 4.128906 2.84375 4.375 2.5625 C 4.519531 2.488281 4.613281 2.488281 4.773438 2.488281 C 4.84375 2.488281 4.84375 2.488281 4.917969 2.484375 C 5.082031 2.5 5.175781 2.539062 5.3125 2.625 C 5.535156 2.957031 5.515625 3.320312 5.535156 3.707031 C 5.539062 3.757812 5.539062 3.8125 5.542969 3.867188 C 5.550781 3.992188 5.554688 4.121094 5.5625 4.25 C 5.664062 4.292969 5.769531 4.332031 5.875 4.375 C 5.882812 4.136719 5.886719 3.894531 5.890625 3.65625 C 5.894531 3.589844 5.894531 3.523438 5.898438 3.453125 C 5.902344 2.972656 5.851562 2.613281 5.511719 2.257812 C 4.9375 1.90625 4.394531 1.980469 3.917969 2.457031 Z M 4.75 2.9375 C 4.613281 3.046875 4.613281 3.046875 4.609375 3.179688 C 4.613281 3.226562 4.613281 3.273438 4.613281 3.320312 C 4.613281 3.371094 4.613281 3.421875 4.613281 3.472656 C 4.613281 3.527344 4.617188 3.578125 4.617188 3.632812 C 4.617188 3.6875 4.617188 3.738281 4.621094 3.792969 C 4.621094 3.925781 4.621094 4.054688 4.625 4.1875 C 4.75 4.1875 4.871094 4.1875 5 4.1875 C 5 3.816406 5 3.445312 5 3.0625 C 4.917969 3.019531 4.835938 2.980469 4.75 2.9375 Z M 1.585938 5.105469 C 1.480469 5.285156 1.476562 5.394531 1.476562 5.605469 C 1.476562 5.675781 1.476562 5.75 1.476562 5.824219 C 1.476562 5.902344 1.476562 5.980469 1.480469 6.0625 C 1.480469 6.148438 1.480469 6.234375 1.480469 6.320312 C 1.480469 6.550781 1.480469 6.78125 1.480469 7.011719 C 1.480469 7.226562 1.480469 7.441406 1.480469 7.65625 C 1.484375 8.285156 1.484375 8.917969 1.488281 9.546875 C 1.492188 10.953125 1.496094 12.363281 1.5 13.8125 C 5.769531 13.8125 10.039062 13.8125 14.4375 13.8125 C 14.441406 12.394531 14.445312 10.972656 14.449219 9.511719 C 14.449219 9.0625 14.453125 8.613281 14.453125 8.152344 C 14.453125 7.75 14.453125 7.75 14.457031 7.351562 C 14.457031 7.171875 14.457031 6.992188 14.457031 6.8125 C 14.457031 6.585938 14.460938 6.355469 14.457031 6.128906 C 14.457031 6.003906 14.460938 5.882812 14.460938 5.757812 C 14.460938 5.683594 14.460938 5.613281 14.460938 5.539062 C 14.460938 5.472656 14.460938 5.410156 14.460938 5.34375 C 14.449219 5.1875 14.449219 5.1875 14.359375 5.070312 C 14.238281 4.976562 14.238281 4.976562 14 5 C 14 5.070312 14 5.070312 14 5.140625 C 13.992188 5.585938 13.988281 6.027344 13.980469 6.46875 C 13.980469 6.695312 13.976562 6.921875 13.972656 7.152344 C 13.972656 7.371094 13.96875 7.589844 13.964844 7.808594 C 13.964844 7.933594 13.960938 8.058594 13.960938 8.183594 C 13.953125 8.558594 13.945312 8.894531 13.8125 9.25 C 13.792969 9.3125 13.769531 9.375 13.75 9.4375 C 13.472656 9.5625 13.222656 9.578125 12.917969 9.582031 C 12.855469 9.582031 12.855469 9.582031 12.785156 9.582031 C 12.640625 9.582031 12.496094 9.582031 12.355469 9.582031 C 12.253906 9.582031 12.152344 9.585938 12.050781 9.585938 C 11.839844 9.585938 11.628906 9.585938 11.417969 9.585938 C 11.148438 9.585938 10.878906 9.585938 10.609375 9.589844 C 10.402344 9.589844 10.191406 9.589844 9.984375 9.589844 C 9.886719 9.589844 9.785156 9.589844 9.683594 9.59375 C 9.546875 9.59375 9.40625 9.59375 9.269531 9.59375 C 9.1875 9.59375 9.109375 9.59375 9.027344 9.59375 C 8.769531 9.554688 8.636719 9.480469 8.4375 9.3125 C 8.300781 9.078125 8.296875 8.863281 8.292969 8.597656 C 8.292969 8.515625 8.289062 8.4375 8.289062 8.355469 C 8.289062 8.269531 8.289062 8.179688 8.285156 8.09375 C 8.285156 8.003906 8.285156 7.917969 8.28125 7.828125 C 8.28125 7.59375 8.277344 7.359375 8.273438 7.125 C 8.273438 6.886719 8.269531 6.644531 8.265625 6.40625 C 8.261719 5.9375 8.253906 5.46875 8.25 5 C 7.753906 5 7.261719 5 6.75 5 C 6.820312 5.109375 6.886719 5.21875 6.957031 5.332031 C 7.355469 6.019531 7.492188 6.699219 7.300781 7.476562 C 7.191406 7.835938 7.042969 8.210938 6.773438 8.476562 C 6.671875 8.558594 6.671875 8.558594 6.6875 8.6875 C 6.652344 8.703125 6.617188 8.722656 6.578125 8.738281 C 6.4375 8.808594 6.4375 8.808594 6.308594 8.898438 C 5.644531 9.34375 4.941406 9.4375 4.167969 9.304688 C 3.503906 9.148438 2.972656 8.773438 2.605469 8.199219 C 2.242188 7.535156 2.136719 6.847656 2.296875 6.101562 C 2.414062 5.722656 2.570312 5.433594 2.8125 5.125 C 2.8125 5.082031 2.8125 5.042969 2.8125 5 C 2.628906 4.992188 2.445312 4.988281 2.261719 4.984375 C 2.210938 4.980469 2.15625 4.980469 2.105469 4.976562 C 2.027344 4.976562 2.027344 4.976562 1.953125 4.976562 C 1.90625 4.972656 1.859375 4.972656 1.8125 4.972656 C 1.679688 4.988281 1.679688 4.988281 1.585938 5.105469 Z M 1.585938 5.105469 "/>
<path style=" stroke:none;fill-rule:nonzero;fill:rgb(38.431373%,75.686276%,95.294118%);fill-opacity:1;" d="M 6 5 C 6.390625 5.246094 6.671875 5.652344 6.824219 6.085938 C 6.980469 6.785156 6.898438 7.394531 6.546875 8.011719 C 6.242188 8.46875 5.773438 8.730469 5.25 8.875 C 4.550781 8.9375 3.980469 8.867188 3.429688 8.421875 C 3.019531 8.039062 2.730469 7.558594 2.664062 7 C 2.648438 6.34375 2.828125 5.820312 3.25 5.3125 C 3.40625 5.164062 3.566406 5.046875 3.75 4.9375 C 3.792969 4.910156 3.832031 4.886719 3.875 4.859375 C 4.566406 4.492188 5.339844 4.660156 6 5 Z M 6 5 "/>
<path style=" stroke:none;fill-rule:nonzero;fill:rgb(92.156863%,38.82353%,37.64706%);fill-opacity:1;" d="M 0.75 14.3125 C 5.535156 14.3125 10.320312 14.3125 15.25 14.3125 C 15.25 14.582031 15.25 14.847656 15.25 15.125 C 15.132812 15.242188 14.960938 15.195312 14.804688 15.195312 C 14.746094 15.195312 14.691406 15.195312 14.632812 15.195312 C 14.578125 15.195312 14.515625 15.195312 14.457031 15.195312 C 14.257812 15.195312 14.058594 15.195312 13.863281 15.195312 C 13.71875 15.195312 13.578125 15.195312 13.4375 15.195312 C 13.050781 15.195312 12.667969 15.195312 12.28125 15.195312 C 11.878906 15.195312 11.476562 15.195312 11.074219 15.195312 C 10.351562 15.195312 9.632812 15.195312 8.914062 15.195312 C 8.261719 15.195312 7.609375 15.195312 6.957031 15.195312 C 6.199219 15.195312 5.441406 15.195312 4.683594 15.195312 C 4.28125 15.195312 3.878906 15.195312 3.480469 15.195312 C 3.101562 15.195312 2.726562 15.195312 2.347656 15.195312 C 2.210938 15.195312 2.070312 15.195312 1.929688 15.195312 C 1.742188 15.195312 1.554688 15.195312 1.367188 15.195312 C 1.28125 15.195312 1.28125 15.195312 1.195312 15.195312 C 0.820312 15.195312 0.820312 15.195312 0.75 15.125 C 0.75 14.855469 0.75 14.589844 0.75 14.3125 Z M 0.75 14.3125 "/>
<path style=" stroke:none;fill-rule:nonzero;fill:rgb(5.882353%,11.764706%,17.254902%);fill-opacity:1;" d="M 12.3125 3.125 C 12.351562 3.148438 12.390625 3.171875 12.429688 3.199219 C 12.535156 3.273438 12.535156 3.273438 12.6875 3.4375 C 12.714844 3.640625 12.714844 3.640625 12.6875 3.8125 C 12.625 3.875 12.625 3.875 12.453125 3.894531 C 12.203125 3.871094 12.128906 3.785156 11.9375 3.625 C 11.585938 3.433594 11.261719 3.390625 10.875 3.5 C 10.472656 3.667969 10.25 3.921875 10.0625 4.3125 C 10.011719 4.507812 9.988281 4.699219 9.96875 4.898438 C 9.910156 5.355469 9.839844 5.847656 9.5 6.1875 C 9.375 6.191406 9.25 6.191406 9.125 6.1875 C 9.050781 5.941406 9.054688 5.804688 9.171875 5.582031 C 9.324219 5.28125 9.355469 4.988281 9.398438 4.660156 C 9.480469 4.058594 9.632812 3.613281 10.121094 3.222656 C 10.203125 3.167969 10.289062 3.113281 10.375 3.0625 C 10.4375 3.023438 10.5 2.984375 10.566406 2.945312 C 11.121094 2.734375 11.816406 2.808594 12.3125 3.125 Z M 12.3125 3.125 "/>
<path style=" stroke:none;fill-rule:nonzero;fill:rgb(5.882353%,11.764706%,17.254902%);fill-opacity:1;" d="M 11.773438 3.75 C 11.984375 3.878906 12.109375 3.976562 12.25 4.1875 C 12.261719 4.382812 12.261719 4.382812 12.25 4.5625 C 12.1875 4.625 12.1875 4.625 12.015625 4.648438 C 11.8125 4.625 11.8125 4.625 11.660156 4.46875 C 11.507812 4.292969 11.507812 4.292969 11.277344 4.273438 C 11.058594 4.292969 11.058594 4.292969 10.925781 4.441406 C 10.789062 4.660156 10.769531 4.8125 10.75 5.070312 C 10.691406 5.625 10.5625 6.191406 10.1875 6.625 C 10.015625 6.679688 10.015625 6.679688 9.875 6.6875 C 9.773438 6.582031 9.773438 6.582031 9.6875 6.4375 C 9.726562 6.285156 9.792969 6.160156 9.871094 6.023438 C 10.070312 5.628906 10.125 5.234375 10.175781 4.800781 C 10.226562 4.394531 10.347656 4.136719 10.660156 3.855469 C 10.984375 3.632812 11.410156 3.597656 11.773438 3.75 Z M 11.773438 3.75 "/>
<path style=" stroke:none;fill-rule:nonzero;fill:rgb(7.450981%,14.117648%,20%);fill-opacity:1;" d="M 5 6.3125 C 5.265625 6.414062 5.414062 6.507812 5.5625 6.75 C 5.613281 7.023438 5.628906 7.3125 5.496094 7.5625 C 5.386719 7.695312 5.28125 7.796875 5.125 7.875 C 5.105469 8.019531 5.082031 8.167969 5.0625 8.3125 C 5.019531 8.355469 4.980469 8.394531 4.9375 8.4375 C 4.652344 8.402344 4.652344 8.402344 4.5625 8.3125 C 4.558594 8.214844 4.558594 8.214844 4.554688 8.113281 C 4.488281 7.824219 4.394531 7.753906 4.160156 7.585938 C 4 7.449219 4 7.308594 3.980469 7.105469 C 4.007812 6.78125 4.144531 6.613281 4.359375 6.382812 C 4.570312 6.277344 4.769531 6.28125 5 6.3125 Z M 5 6.3125 "/>
<path style=" stroke:none;fill-rule:nonzero;fill:rgb(5.882353%,11.764706%,17.254902%);fill-opacity:1;" d="M 10.3125 10.25 C 10.414062 10.269531 10.519531 10.292969 10.625 10.3125 C 10.644531 10.394531 10.667969 10.476562 10.6875 10.5625 C 10.75 10.519531 10.8125 10.480469 10.875 10.4375 C 11.035156 10.421875 11.035156 10.421875 11.1875 10.4375 C 11.230469 10.480469 11.269531 10.519531 11.3125 10.5625 C 11.304688 10.746094 11.304688 10.746094 11.25 10.9375 C 11.121094 11.054688 11.121094 11.054688 11 11.125 C 11.054688 11.171875 11.105469 11.214844 11.160156 11.261719 C 11.3125 11.4375 11.3125 11.4375 11.304688 11.609375 C 11.25 11.75 11.25 11.75 11.1875 11.8125 C 11.042969 11.792969 10.894531 11.773438 10.75 11.75 C 10.726562 11.792969 10.703125 11.832031 10.675781 11.875 C 10.5625 12 10.5625 12 10.402344 12.027344 C 10.351562 12.019531 10.300781 12.007812 10.25 12 C 10.207031 11.9375 10.167969 11.875 10.125 11.8125 C 9.980469 11.808594 9.832031 11.808594 9.6875 11.8125 C 9.644531 11.769531 9.605469 11.730469 9.5625 11.6875 C 9.574219 11.476562 9.613281 11.390625 9.753906 11.230469 C 9.8125 11.179688 9.8125 11.179688 9.875 11.125 C 9.824219 11.089844 9.773438 11.054688 9.71875 11.019531 C 9.5625 10.875 9.5625 10.875 9.535156 10.710938 C 9.5625 10.5625 9.5625 10.5625 9.6875 10.4375 C 9.859375 10.425781 9.96875 10.421875 10.125 10.5 C 10.1875 10.417969 10.25 10.335938 10.3125 10.25 Z M 10.3125 10.25 "/>
<path style=" stroke:none;fill-rule:nonzero;fill:rgb(5.882353%,11.764706%,17.254902%);fill-opacity:1;" d="M 5.621094 10.265625 C 5.765625 10.320312 5.835938 10.382812 5.9375 10.5 C 5.957031 10.480469 5.980469 10.457031 6 10.4375 C 6.152344 10.425781 6.152344 10.425781 6.3125 10.4375 C 6.4375 10.5625 6.4375 10.5625 6.464844 10.710938 C 6.4375 10.875 6.4375 10.875 6.28125 11.019531 C 6.203125 11.070312 6.203125 11.070312 6.125 11.125 C 6.179688 11.171875 6.230469 11.214844 6.285156 11.261719 C 6.4375 11.4375 6.4375 11.4375 6.429688 11.609375 C 6.375 11.75 6.375 11.75 6.3125 11.8125 C 6.242188 11.808594 6.171875 11.808594 6.097656 11.804688 C 5.988281 11.808594 5.988281 11.808594 5.875 11.8125 C 5.832031 11.875 5.792969 11.9375 5.75 12 C 5.597656 12.027344 5.597656 12.027344 5.4375 12 C 5.324219 11.875 5.324219 11.875 5.25 11.75 C 5.179688 11.761719 5.109375 11.777344 5.039062 11.789062 C 4.964844 11.796875 4.890625 11.804688 4.8125 11.8125 C 4.769531 11.769531 4.730469 11.730469 4.6875 11.6875 C 4.699219 11.476562 4.738281 11.390625 4.878906 11.230469 C 4.9375 11.179688 4.9375 11.179688 5 11.125 C 4.949219 11.078125 4.894531 11.035156 4.839844 10.988281 C 4.6875 10.8125 4.6875 10.8125 4.695312 10.640625 C 4.75 10.5 4.75 10.5 4.8125 10.4375 C 5.042969 10.417969 5.109375 10.429688 5.3125 10.5625 C 5.320312 10.523438 5.328125 10.484375 5.335938 10.441406 C 5.347656 10.398438 5.363281 10.355469 5.375 10.3125 C 5.5 10.25 5.5 10.25 5.621094 10.265625 Z M 5.621094 10.265625 "/>
<path style=" stroke:none;fill-rule:nonzero;fill:rgb(5.882353%,11.764706%,17.647059%);fill-opacity:1;" d="M 12.75 10.25 C 12.921875 10.265625 12.921875 10.265625 13.0625 10.3125 C 13.082031 10.394531 13.105469 10.476562 13.125 10.5625 C 13.1875 10.519531 13.25 10.480469 13.3125 10.4375 C 13.511719 10.460938 13.511719 10.460938 13.6875 10.5 C 13.738281 10.632812 13.738281 10.632812 13.75 10.8125 C 13.660156 10.957031 13.554688 11.0625 13.4375 11.1875 C 13.539062 11.289062 13.644531 11.394531 13.75 11.5 C 13.6875 11.65625 13.6875 11.65625 13.625 11.8125 C 13.5 11.816406 13.375 11.816406 13.25 11.8125 C 13.230469 11.792969 13.207031 11.769531 13.1875 11.75 C 13.164062 11.792969 13.140625 11.832031 13.113281 11.875 C 13 12 13 12 12.832031 12.015625 C 12.785156 12.011719 12.738281 12.003906 12.6875 12 C 12.644531 11.917969 12.605469 11.835938 12.5625 11.75 C 12.519531 11.769531 12.480469 11.792969 12.4375 11.8125 C 12.3125 11.816406 12.1875 11.816406 12.0625 11.8125 C 12.011719 11.644531 12.011719 11.644531 12 11.4375 C 12.152344 11.257812 12.152344 11.257812 12.3125 11.125 C 12.261719 11.089844 12.210938 11.054688 12.15625 11.019531 C 12 10.875 12 10.875 11.972656 10.710938 C 12 10.5625 12 10.5625 12.125 10.4375 C 12.183594 10.449219 12.242188 10.464844 12.304688 10.476562 C 12.371094 10.484375 12.433594 10.492188 12.5 10.5 C 12.585938 10.417969 12.667969 10.335938 12.75 10.25 Z M 12.75 10.25 "/>
<path style=" stroke:none;fill-rule:nonzero;fill:rgb(5.882353%,11.764706%,17.254902%);fill-opacity:1;" d="M 3.375 10.3125 C 3.417969 10.375 3.457031 10.4375 3.5 10.5 C 3.589844 10.480469 3.589844 10.480469 3.679688 10.460938 C 3.746094 10.453125 3.808594 10.445312 3.875 10.4375 C 4 10.5625 4 10.5625 4.027344 10.710938 C 4 10.875 4 10.875 3.84375 11.019531 C 3.765625 11.070312 3.765625 11.070312 3.6875 11.125 C 3.742188 11.167969 3.792969 11.210938 3.847656 11.257812 C 4 11.4375 4 11.4375 3.988281 11.644531 C 3.972656 11.699219 3.953125 11.753906 3.9375 11.8125 C 3.578125 11.820312 3.578125 11.820312 3.4375 11.75 C 3.394531 11.832031 3.355469 11.914062 3.3125 12 C 3.167969 12.015625 3.167969 12.015625 3 12 C 2.886719 11.875 2.886719 11.875 2.8125 11.75 C 2.792969 11.769531 2.769531 11.792969 2.75 11.8125 C 2.625 11.816406 2.5 11.816406 2.375 11.8125 C 2.332031 11.710938 2.292969 11.605469 2.25 11.5 C 2.351562 11.375 2.457031 11.253906 2.5625 11.125 C 2.507812 11.078125 2.457031 11.035156 2.402344 10.988281 C 2.25 10.8125 2.25 10.8125 2.261719 10.636719 C 2.277344 10.59375 2.296875 10.546875 2.3125 10.5 C 2.488281 10.460938 2.488281 10.460938 2.6875 10.4375 C 2.75 10.480469 2.8125 10.519531 2.875 10.5625 C 2.882812 10.523438 2.890625 10.484375 2.898438 10.441406 C 2.910156 10.398438 2.925781 10.355469 2.9375 10.3125 C 3.109375 10.226562 3.195312 10.257812 3.375 10.3125 Z M 3.375 10.3125 "/>
<path style=" stroke:none;fill-rule:nonzero;fill:rgb(5.882353%,11.764706%,17.647059%);fill-opacity:1;" d="M 7.9375 10.25 C 8.101562 10.308594 8.101562 10.308594 8.25 10.375 C 8.25 10.4375 8.25 10.5 8.25 10.5625 C 8.3125 10.519531 8.375 10.480469 8.4375 10.4375 C 8.636719 10.460938 8.636719 10.460938 8.8125 10.5 C 8.863281 10.632812 8.863281 10.632812 8.875 10.8125 C 8.785156 10.957031 8.679688 11.0625 8.5625 11.1875 C 8.617188 11.234375 8.667969 11.28125 8.722656 11.328125 C 8.875 11.5 8.875 11.5 8.867188 11.640625 C 8.8125 11.75 8.8125 11.75 8.75 11.8125 C 8.5625 11.820312 8.5625 11.820312 8.375 11.8125 C 8.355469 11.792969 8.332031 11.769531 8.3125 11.75 C 8.292969 11.8125 8.269531 11.875 8.25 11.9375 C 7.890625 12.007812 7.890625 12.007812 7.75 11.9375 C 7.730469 11.875 7.707031 11.8125 7.6875 11.75 C 7.667969 11.769531 7.644531 11.792969 7.625 11.8125 C 7.441406 11.824219 7.441406 11.824219 7.25 11.8125 C 7.207031 11.769531 7.167969 11.730469 7.125 11.6875 C 7.136719 11.476562 7.175781 11.390625 7.316406 11.230469 C 7.375 11.179688 7.375 11.179688 7.4375 11.125 C 7.382812 11.078125 7.332031 11.035156 7.277344 10.988281 C 7.125 10.8125 7.125 10.8125 7.136719 10.636719 C 7.152344 10.59375 7.171875 10.546875 7.1875 10.5 C 7.363281 10.460938 7.363281 10.460938 7.5625 10.4375 C 7.625 10.480469 7.6875 10.519531 7.75 10.5625 C 7.757812 10.523438 7.765625 10.484375 7.773438 10.441406 C 7.785156 10.398438 7.800781 10.355469 7.8125 10.3125 C 7.855469 10.292969 7.894531 10.269531 7.9375 10.25 Z M 7.9375 10.25 "/>
<path style=" stroke:none;fill-rule:nonzero;fill:rgb(5.882353%,11.764706%,17.647059%);fill-opacity:1;" d="M 12.875 4.304688 C 13.0625 4.3125 13.0625 4.3125 13.125 4.375 C 13.183594 5.210938 13.125 6.109375 12.75 6.875 C 12.597656 6.9375 12.597656 6.9375 12.4375 6.9375 C 12.320312 6.875 12.320312 6.875 12.25 6.75 C 12.257812 6.539062 12.304688 6.347656 12.355469 6.144531 C 12.46875 5.675781 12.539062 5.21875 12.585938 4.738281 C 12.625 4.316406 12.625 4.316406 12.875 4.304688 Z M 12.875 4.304688 "/>
<path style=" stroke:none;fill-rule:nonzero;fill:rgb(5.882353%,11.764706%,17.647059%);fill-opacity:1;" d="M 11.351562 4.578125 C 11.398438 4.59375 11.449219 4.609375 11.5 4.625 C 11.683594 4.996094 11.515625 5.550781 11.398438 5.933594 C 11.277344 6.289062 11.144531 6.621094 10.9375 6.9375 C 10.8125 6.9375 10.691406 6.9375 10.5625 6.9375 C 10.488281 6.804688 10.488281 6.804688 10.4375 6.625 C 10.5 6.441406 10.5 6.441406 10.605469 6.234375 C 10.792969 5.839844 10.882812 5.464844 10.9375 5.03125 C 10.953125 4.917969 10.976562 4.800781 11 4.6875 C 11.1875 4.5625 11.1875 4.5625 11.351562 4.578125 Z M 11.351562 4.578125 "/>
<path style=" stroke:none;fill-rule:nonzero;fill:rgb(5.882353%,11.764706%,17.254902%);fill-opacity:1;" d="M 12.25 5.125 C 12.40625 5.78125 12.074219 6.5 11.75 7.0625 C 11.601562 7.070312 11.601562 7.070312 11.4375 7.0625 C 11.394531 7.019531 11.355469 6.980469 11.3125 6.9375 C 11.335938 6.609375 11.425781 6.308594 11.527344 5.996094 C 11.539062 5.953125 11.554688 5.910156 11.570312 5.867188 C 11.59375 5.785156 11.621094 5.699219 11.648438 5.617188 C 11.683594 5.507812 11.71875 5.394531 11.753906 5.285156 C 11.859375 5.003906 11.992188 5.0625 12.25 5.125 Z M 12.25 5.125 "/>
<path style=" stroke:none;fill-rule:nonzero;fill:rgb(5.882353%,12.156863%,17.254902%);fill-opacity:1;" d="M 10.433594 12.300781 C 10.503906 12.300781 10.574219 12.300781 10.644531 12.296875 C 10.746094 12.296875 10.746094 12.296875 10.847656 12.296875 C 10.941406 12.296875 10.941406 12.296875 11.035156 12.296875 C 11.1875 12.3125 11.1875 12.3125 11.3125 12.4375 C 11.296875 12.628906 11.296875 12.628906 11.25 12.8125 C 11.007812 12.933594 10.707031 12.890625 10.441406 12.890625 C 10.378906 12.890625 10.3125 12.894531 10.25 12.894531 C 10.1875 12.894531 10.128906 12.894531 10.066406 12.894531 C 10.007812 12.894531 9.953125 12.894531 9.894531 12.898438 C 9.75 12.875 9.75 12.875 9.636719 12.789062 C 9.5625 12.6875 9.5625 12.6875 9.578125 12.523438 C 9.6875 12.171875 10.117188 12.300781 10.433594 12.300781 Z M 10.433594 12.300781 "/>
<path style=" stroke:none;fill-rule:nonzero;fill:rgb(5.882353%,12.156863%,17.254902%);fill-opacity:1;" d="M 5.558594 12.300781 C 5.628906 12.300781 5.699219 12.300781 5.769531 12.296875 C 5.871094 12.296875 5.871094 12.296875 5.972656 12.296875 C 6.066406 12.296875 6.066406 12.296875 6.160156 12.296875 C 6.3125 12.3125 6.3125 12.3125 6.4375 12.4375 C 6.421875 12.628906 6.421875 12.628906 6.375 12.8125 C 6.132812 12.933594 5.832031 12.890625 5.566406 12.890625 C 5.503906 12.890625 5.4375 12.894531 5.375 12.894531 C 5.3125 12.894531 5.253906 12.894531 5.191406 12.894531 C 5.132812 12.894531 5.078125 12.894531 5.019531 12.898438 C 4.875 12.875 4.875 12.875 4.761719 12.789062 C 4.6875 12.6875 4.6875 12.6875 4.703125 12.523438 C 4.8125 12.171875 5.242188 12.300781 5.558594 12.300781 Z M 5.558594 12.300781 "/>
<path style=" stroke:none;fill-rule:nonzero;fill:rgb(5.882353%,12.156863%,17.647059%);fill-opacity:1;" d="M 12.664062 12.292969 C 12.734375 12.292969 12.804688 12.292969 12.875 12.292969 C 12.980469 12.292969 12.980469 12.292969 13.085938 12.289062 C 13.1875 12.289062 13.1875 12.289062 13.289062 12.289062 C 13.351562 12.289062 13.410156 12.289062 13.476562 12.289062 C 13.550781 12.300781 13.550781 12.300781 13.625 12.3125 C 13.75 12.5 13.75 12.5 13.734375 12.628906 C 13.6875 12.75 13.6875 12.75 13.5625 12.875 C 13.425781 12.890625 13.425781 12.890625 13.257812 12.890625 C 13.164062 12.890625 13.164062 12.890625 13.070312 12.890625 C 13.007812 12.890625 12.945312 12.890625 12.878906 12.890625 C 12.816406 12.890625 12.75 12.890625 12.6875 12.890625 C 12.625 12.890625 12.566406 12.890625 12.503906 12.890625 C 12.445312 12.890625 12.390625 12.890625 12.332031 12.890625 C 12.1875 12.875 12.1875 12.875 12 12.75 C 11.980469 12.59375 11.980469 12.59375 12 12.4375 C 12.195312 12.242188 12.398438 12.292969 12.664062 12.292969 Z M 12.664062 12.292969 "/>
<path style=" stroke:none;fill-rule:nonzero;fill:rgb(5.882353%,12.156863%,17.647059%);fill-opacity:1;" d="M 3.121094 12.300781 C 3.191406 12.300781 3.261719 12.300781 3.332031 12.296875 C 3.433594 12.296875 3.433594 12.296875 3.535156 12.296875 C 3.628906 12.296875 3.628906 12.296875 3.722656 12.296875 C 3.875 12.3125 3.875 12.3125 4 12.4375 C 4.019531 12.59375 4.019531 12.59375 4 12.75 C 3.71875 12.9375 3.453125 12.894531 3.125 12.894531 C 3.0625 12.894531 3 12.894531 2.933594 12.898438 C 2.84375 12.898438 2.84375 12.898438 2.75 12.898438 C 2.695312 12.898438 2.640625 12.898438 2.582031 12.898438 C 2.4375 12.875 2.4375 12.875 2.324219 12.789062 C 2.25 12.6875 2.25 12.6875 2.265625 12.523438 C 2.375 12.171875 2.804688 12.300781 3.121094 12.300781 Z M 3.121094 12.300781 "/>
<path style=" stroke:none;fill-rule:nonzero;fill:rgb(5.882353%,11.764706%,17.254902%);fill-opacity:1;" d="M 7.996094 12.296875 C 8.066406 12.296875 8.136719 12.292969 8.207031 12.292969 C 8.277344 12.292969 8.34375 12.292969 8.410156 12.292969 C 8.472656 12.292969 8.535156 12.289062 8.597656 12.289062 C 8.648438 12.296875 8.699219 12.304688 8.75 12.3125 C 8.875 12.5 8.875 12.5 8.859375 12.664062 C 8.84375 12.714844 8.828125 12.761719 8.8125 12.8125 C 8.570312 12.933594 8.269531 12.890625 8.003906 12.890625 C 7.941406 12.890625 7.875 12.894531 7.8125 12.894531 C 7.75 12.894531 7.691406 12.894531 7.628906 12.894531 C 7.570312 12.894531 7.515625 12.898438 7.457031 12.898438 C 7.3125 12.875 7.3125 12.875 7.199219 12.789062 C 7.125 12.6875 7.125 12.6875 7.140625 12.523438 C 7.25 12.171875 7.679688 12.296875 7.996094 12.296875 Z M 7.996094 12.296875 "/>
<path style=" stroke:none;fill-rule:nonzero;fill:rgb(36.862746%,72.156864%,90.980393%);fill-opacity:1;" d="M 10.25 0.8125 C 10.828125 0.8125 11.40625 0.8125 12 0.8125 C 12 0.9375 12 1.058594 12 1.1875 C 11.9375 1.25 11.9375 1.25 11.777344 1.257812 C 11.703125 1.257812 11.636719 1.257812 11.5625 1.257812 C 11.484375 1.253906 11.410156 1.253906 11.332031 1.253906 C 11.253906 1.253906 11.171875 1.253906 11.089844 1.253906 C 11.007812 1.253906 10.929688 1.253906 10.847656 1.253906 C 10.648438 1.253906 10.449219 1.25 10.25 1.25 C 10.25 1.105469 10.25 0.960938 10.25 0.8125 Z M 10.25 0.8125 "/>
<path style=" stroke:none;fill-rule:nonzero;fill:rgb(5.882353%,11.764706%,17.647059%);fill-opacity:1;" d="M 11.089844 8.113281 C 11.160156 8.113281 11.234375 8.113281 11.308594 8.109375 C 11.5 8.125 11.5 8.125 11.6875 8.25 C 11.707031 8.40625 11.707031 8.40625 11.6875 8.5625 C 11.53125 8.71875 11.4375 8.707031 11.222656 8.707031 C 11.160156 8.707031 11.160156 8.707031 11.09375 8.707031 C 11.050781 8.707031 11.007812 8.707031 10.964844 8.710938 C 10.839844 8.710938 10.839844 8.710938 10.625 8.6875 C 10.5 8.5 10.5 8.5 10.515625 8.335938 C 10.53125 8.285156 10.546875 8.238281 10.5625 8.1875 C 10.738281 8.097656 10.890625 8.113281 11.089844 8.113281 Z M 11.089844 8.113281 "/>
<path style=" stroke:none;fill-rule:nonzero;fill:rgb(93.725491%,94.117647%,94.509804%);fill-opacity:1;" d="M 4.8125 6.796875 C 5 6.8125 5 6.8125 5.125 6.9375 C 5.148438 7.113281 5.148438 7.214844 5.054688 7.367188 C 4.878906 7.472656 4.753906 7.421875 4.5625 7.375 C 4.523438 7.164062 4.523438 7.164062 4.5 6.9375 C 4.625 6.8125 4.625 6.8125 4.8125 6.796875 Z M 4.8125 6.796875 "/>
</g>
</svg>
