<?xml version="1.0" encoding="UTF-8"?>
<svg xmlns="http://www.w3.org/2000/svg" xmlns:xlink="http://www.w3.org/1999/xlink" width="16" height="16" viewBox="0 0 16 16" version="1.1">
<g id="surface1">
<path style=" stroke:none;fill-rule:nonzero;fill:rgb(42.352942%,49.411765%,84.313726%);fill-opacity:1;" d="M 6.75 1.4375 C 6.886719 1.519531 6.886719 1.519531 7 1.628906 C 7.042969 1.667969 7.082031 1.707031 7.125 1.75 C 7.167969 1.792969 7.207031 1.832031 7.25 1.875 C 7.316406 1.933594 7.316406 1.933594 7.382812 1.992188 C 7.683594 2.265625 7.683594 2.265625 7.699219 2.472656 C 7.625 2.625 7.625 2.625 7.492188 2.800781 C 7.359375 3.03125 7.351562 3.132812 7.398438 3.386719 C 7.460938 3.566406 7.527344 3.644531 7.6875 3.75 C 7.949219 3.824219 8.082031 3.828125 8.335938 3.730469 C 8.503906 3.640625 8.503906 3.640625 8.5625 3.5 C 8.691406 3.476562 8.691406 3.476562 8.875 3.5 C 9.03125 3.617188 9.164062 3.753906 9.296875 3.898438 C 9.332031 3.9375 9.371094 3.972656 9.410156 4.011719 C 9.734375 4.351562 9.734375 4.351562 9.78125 4.636719 C 9.738281 4.976562 9.5625 5.113281 9.3125 5.339844 C 9.269531 5.378906 9.230469 5.417969 9.1875 5.460938 C 9.082031 5.558594 8.980469 5.65625 8.875 5.75 C 8.941406 5.890625 9.011719 6.015625 9.101562 6.140625 C 9.214844 6.367188 9.238281 6.566406 9.1875 6.8125 C 9.078125 7.015625 8.925781 7.152344 8.734375 7.28125 C 8.476562 7.328125 8.242188 7.285156 8 7.1875 C 7.898438 7.105469 7.792969 7.023438 7.6875 6.9375 C 7.359375 7.265625 7.027344 7.597656 6.6875 7.9375 C 6.796875 8.152344 6.851562 8.238281 7.019531 8.390625 C 7.058594 8.429688 7.097656 8.46875 7.136719 8.503906 C 7.21875 8.582031 7.304688 8.660156 7.386719 8.734375 C 7.496094 8.839844 7.597656 8.941406 7.6875 9.0625 C 7.6875 9.242188 7.6875 9.242188 7.625 9.375 C 7.59375 9.402344 7.5625 9.429688 7.53125 9.457031 C 7.402344 9.601562 7.382812 9.746094 7.367188 9.933594 C 7.378906 10.148438 7.488281 10.277344 7.625 10.4375 C 7.828125 10.539062 8.03125 10.539062 8.25 10.5 C 8.359375 10.429688 8.359375 10.429688 8.453125 10.339844 C 8.539062 10.265625 8.539062 10.265625 8.625 10.1875 C 8.9375 10.214844 9.117188 10.457031 9.328125 10.664062 C 9.367188 10.703125 9.410156 10.738281 9.453125 10.777344 C 9.648438 10.972656 9.742188 11.074219 9.789062 11.355469 C 9.746094 11.574219 9.710938 11.65625 9.558594 11.8125 C 9.519531 11.855469 9.480469 11.894531 9.4375 11.9375 C 9.070312 12.300781 9.070312 12.300781 8.957031 12.410156 C 8.859375 12.496094 8.859375 12.496094 8.875 12.625 C 8.957031 12.710938 9.039062 12.792969 9.125 12.875 C 9.226562 13.074219 9.21875 13.28125 9.1875 13.5 C 9.085938 13.695312 9 13.828125 8.828125 13.960938 C 8.496094 14.054688 8.269531 14.042969 7.96875 13.882812 C 7.917969 13.839844 7.867188 13.796875 7.8125 13.75 C 7.8125 13.707031 7.8125 13.667969 7.8125 13.625 C 7.515625 13.875 7.234375 14.132812 6.964844 14.414062 C 6.828125 14.542969 6.746094 14.5625 6.554688 14.59375 C 6.203125 14.546875 6.050781 14.359375 5.8125 14.109375 C 5.746094 14.046875 5.746094 14.046875 5.679688 13.980469 C 5.449219 13.742188 5.449219 13.742188 5.375 13.625 C 5.390625 13.433594 5.433594 13.378906 5.566406 13.234375 C 5.707031 13.035156 5.730469 12.921875 5.714844 12.683594 C 5.664062 12.464844 5.554688 12.375 5.375 12.25 C 5.125 12.179688 5 12.160156 4.761719 12.269531 C 4.621094 12.371094 4.621094 12.371094 4.5 12.5 C 4.253906 12.480469 4.128906 12.410156 3.957031 12.234375 C 3.917969 12.191406 3.875 12.148438 3.832031 12.105469 C 3.785156 12.058594 3.742188 12.015625 3.695312 11.964844 C 3.648438 11.917969 3.605469 11.871094 3.554688 11.824219 C 3.40625 11.671875 3.261719 11.523438 3.113281 11.371094 C 2.964844 11.21875 2.816406 11.070312 2.667969 10.917969 C 2.578125 10.824219 2.484375 10.730469 2.390625 10.636719 C 2.351562 10.59375 2.308594 10.550781 2.265625 10.507812 C 2.210938 10.449219 2.210938 10.449219 2.15625 10.390625 C 2.066406 10.296875 2.066406 10.296875 1.9375 10.3125 C 1.851562 10.394531 1.769531 10.476562 1.6875 10.5625 C 1.472656 10.671875 1.234375 10.648438 1 10.625 C 0.757812 10.519531 0.660156 10.429688 0.5625 10.1875 C 0.523438 9.9375 0.492188 9.671875 0.632812 9.453125 C 0.71875 9.367188 0.71875 9.367188 0.875 9.25 C 0.761719 8.945312 0.5 8.753906 0.261719 8.546875 C 0.0664062 8.367188 0.00390625 8.273438 -0.0507812 8.007812 C -0.0234375 7.660156 0.226562 7.46875 0.46875 7.25 C 0.515625 7.207031 0.558594 7.164062 0.605469 7.121094 C 0.714844 7.015625 0.824219 6.914062 0.9375 6.8125 C 1.074219 6.878906 1.1875 6.9375 1.304688 7.035156 C 1.480469 7.152344 1.601562 7.179688 1.8125 7.1875 C 2.078125 7.105469 2.167969 7.035156 2.3125 6.792969 C 2.386719 6.527344 2.371094 6.433594 2.25 6.1875 C 2.125 6.011719 2.125 6.011719 2 5.875 C 2.085938 5.683594 2.179688 5.554688 2.328125 5.410156 C 2.371094 5.371094 2.414062 5.332031 2.453125 5.289062 C 2.5 5.246094 2.542969 5.203125 2.589844 5.15625 C 2.683594 5.066406 2.777344 4.972656 2.871094 4.882812 C 3.019531 4.738281 3.167969 4.59375 3.316406 4.449219 C 3.460938 4.308594 3.605469 4.167969 3.746094 4.03125 C 3.792969 3.984375 3.835938 3.941406 3.882812 3.898438 C 3.925781 3.859375 3.964844 3.816406 4.007812 3.777344 C 4.042969 3.742188 4.078125 3.707031 4.117188 3.667969 C 4.203125 3.566406 4.203125 3.566406 4.171875 3.429688 C 4.128906 3.304688 4.128906 3.304688 4.03125 3.203125 C 3.898438 3 3.867188 2.800781 3.875 2.5625 C 3.949219 2.34375 4.019531 2.222656 4.195312 2.070312 C 4.449219 1.972656 4.671875 1.949219 4.9375 2 C 5.089844 2.089844 5.1875 2.183594 5.3125 2.3125 C 5.617188 2.199219 5.8125 1.9375 6.019531 1.699219 C 6.25 1.453125 6.398438 1.378906 6.75 1.4375 Z M 6.75 1.4375 "/>
<path style=" stroke:none;fill-rule:nonzero;fill:rgb(5.490196%,81.960785%,69.803923%);fill-opacity:1;" d="M 6.5625 8 C 6.84375 8.230469 7.113281 8.472656 7.375 8.722656 C 7.40625 8.75 7.4375 8.78125 7.46875 8.808594 C 7.558594 8.894531 7.558594 8.894531 7.6875 9.0625 C 7.683594 9.234375 7.683594 9.234375 7.625 9.375 C 7.59375 9.402344 7.5625 9.429688 7.53125 9.457031 C 7.402344 9.601562 7.382812 9.746094 7.367188 9.933594 C 7.378906 10.148438 7.488281 10.277344 7.625 10.4375 C 7.828125 10.539062 8.03125 10.539062 8.25 10.5 C 8.359375 10.429688 8.359375 10.429688 8.453125 10.339844 C 8.511719 10.289062 8.566406 10.238281 8.625 10.1875 C 8.9375 10.214844 9.117188 10.457031 9.328125 10.664062 C 9.390625 10.71875 9.390625 10.71875 9.453125 10.777344 C 9.648438 10.972656 9.742188 11.074219 9.789062 11.355469 C 9.746094 11.574219 9.710938 11.65625 9.558594 11.8125 C 9.519531 11.855469 9.480469 11.894531 9.4375 11.9375 C 9.070312 12.300781 9.070312 12.300781 8.957031 12.410156 C 8.859375 12.496094 8.859375 12.496094 8.875 12.625 C 8.957031 12.710938 9.039062 12.792969 9.125 12.875 C 9.226562 13.074219 9.21875 13.28125 9.1875 13.5 C 9.085938 13.695312 9 13.828125 8.828125 13.960938 C 8.496094 14.054688 8.269531 14.042969 7.96875 13.882812 C 7.917969 13.839844 7.867188 13.796875 7.8125 13.75 C 7.8125 13.707031 7.8125 13.667969 7.8125 13.625 C 7.515625 13.875 7.234375 14.132812 6.964844 14.414062 C 6.828125 14.542969 6.746094 14.5625 6.554688 14.59375 C 6.203125 14.546875 6.050781 14.359375 5.8125 14.109375 C 5.769531 14.066406 5.726562 14.023438 5.679688 13.980469 C 5.449219 13.742188 5.449219 13.742188 5.375 13.625 C 5.390625 13.433594 5.433594 13.378906 5.566406 13.234375 C 5.707031 13.035156 5.730469 12.921875 5.714844 12.683594 C 5.664062 12.464844 5.554688 12.375 5.375 12.25 C 5.125 12.179688 5 12.160156 4.761719 12.269531 C 4.621094 12.371094 4.621094 12.371094 4.5 12.5 C 4.238281 12.484375 4.117188 12.398438 3.9375 12.210938 C 3.894531 12.167969 3.851562 12.125 3.804688 12.078125 C 3.757812 12.03125 3.714844 11.984375 3.667969 11.933594 C 3.621094 11.886719 3.574219 11.839844 3.527344 11.789062 C 3.414062 11.671875 3.300781 11.554688 3.1875 11.4375 C 3.273438 11.242188 3.375 11.113281 3.527344 10.964844 C 3.570312 10.921875 3.609375 10.882812 3.652344 10.839844 C 3.71875 10.777344 3.71875 10.777344 3.785156 10.714844 C 3.871094 10.632812 3.957031 10.546875 4.042969 10.464844 C 4.082031 10.429688 4.121094 10.390625 4.160156 10.351562 C 4.265625 10.246094 4.265625 10.246094 4.3125 10.0625 C 4.273438 10.046875 4.234375 10.03125 4.195312 10.015625 C 4.03125 9.917969 3.996094 9.871094 3.9375 9.6875 C 3.890625 9.269531 3.890625 9.269531 4.003906 9.074219 C 4.113281 8.9375 4.21875 8.828125 4.375 8.75 C 4.679688 8.722656 4.820312 8.71875 5.09375 8.867188 C 5.171875 8.933594 5.171875 8.933594 5.25 9 C 5.25 9.042969 5.25 9.082031 5.25 9.125 C 5.558594 8.964844 5.773438 8.738281 6.011719 8.492188 C 6.089844 8.414062 6.167969 8.332031 6.246094 8.253906 C 6.277344 8.21875 6.3125 8.183594 6.347656 8.148438 C 6.4375 8.0625 6.4375 8.0625 6.5625 8 Z M 6.5625 8 "/>
<path style=" stroke:none;fill-rule:nonzero;fill:rgb(100%,87.843138%,46.27451%);fill-opacity:1;" d="M 12.929688 4.777344 C 13.191406 4.847656 13.347656 5.054688 13.523438 5.25 C 13.597656 5.332031 13.675781 5.414062 13.75 5.496094 C 13.785156 5.53125 13.816406 5.570312 13.851562 5.609375 C 13.933594 5.703125 13.933594 5.703125 14.0625 5.6875 C 14.148438 5.605469 14.230469 5.523438 14.3125 5.4375 C 14.457031 5.363281 14.550781 5.363281 14.710938 5.363281 C 14.78125 5.363281 14.78125 5.363281 14.855469 5.359375 C 15.082031 5.382812 15.210938 5.457031 15.359375 5.625 C 15.472656 5.898438 15.492188 6.148438 15.4375 6.4375 C 15.347656 6.578125 15.261719 6.648438 15.125 6.75 C 15.238281 7.054688 15.5 7.246094 15.738281 7.453125 C 15.933594 7.632812 15.996094 7.726562 16.050781 7.992188 C 16.023438 8.339844 15.773438 8.53125 15.53125 8.75 C 15.488281 8.792969 15.441406 8.835938 15.394531 8.878906 C 15.285156 8.984375 15.175781 9.085938 15.0625 9.1875 C 14.925781 9.121094 14.8125 9.0625 14.695312 8.964844 C 14.519531 8.847656 14.398438 8.820312 14.1875 8.8125 C 13.921875 8.894531 13.832031 8.964844 13.6875 9.207031 C 13.617188 9.472656 13.628906 9.566406 13.75 9.8125 C 13.875 9.988281 13.875 9.988281 14 10.125 C 13.875 10.398438 13.699219 10.582031 13.492188 10.796875 C 13.457031 10.835938 13.425781 10.871094 13.390625 10.910156 C 13.214844 11.09375 13.074219 11.214844 12.8125 11.238281 C 12.484375 11.210938 12.308594 10.984375 12.101562 10.75 C 12.027344 10.667969 11.949219 10.585938 11.875 10.503906 C 11.839844 10.46875 11.808594 10.429688 11.773438 10.394531 C 11.691406 10.296875 11.691406 10.296875 11.5625 10.3125 C 11.476562 10.394531 11.394531 10.476562 11.3125 10.5625 C 11.09375 10.671875 10.863281 10.660156 10.625 10.625 C 10.433594 10.519531 10.289062 10.386719 10.1875 10.1875 C 10.152344 9.851562 10.152344 9.585938 10.375 9.3125 C 10.4375 9.28125 10.4375 9.28125 10.5 9.25 C 10.386719 8.945312 10.125 8.753906 9.886719 8.546875 C 9.691406 8.367188 9.628906 8.273438 9.574219 8.007812 C 9.601562 7.664062 9.839844 7.46875 10.078125 7.246094 C 10.121094 7.203125 10.164062 7.160156 10.207031 7.117188 C 10.445312 6.886719 10.445312 6.886719 10.5625 6.8125 C 10.75 6.828125 10.800781 6.859375 10.929688 7 C 11.101562 7.160156 11.203125 7.183594 11.4375 7.1875 C 11.683594 7.105469 11.785156 7.039062 11.933594 6.824219 C 12.011719 6.589844 12.015625 6.484375 11.9375 6.25 C 11.839844 6.09375 11.738281 5.957031 11.625 5.8125 C 11.769531 5.644531 11.914062 5.476562 12.0625 5.3125 C 12.101562 5.265625 12.144531 5.21875 12.183594 5.167969 C 12.226562 5.125 12.265625 5.078125 12.308594 5.03125 C 12.34375 4.988281 12.382812 4.949219 12.417969 4.90625 C 12.589844 4.796875 12.730469 4.769531 12.929688 4.777344 Z M 12.929688 4.777344 "/>
<path style=" stroke:none;fill-rule:nonzero;fill:rgb(98.823529%,27.450982%,32.941177%);fill-opacity:1;" d="M 3.125 4.625 C 3.457031 4.898438 3.757812 5.191406 4.054688 5.5 C 4.140625 5.585938 4.226562 5.667969 4.3125 5.75 C 4.457031 5.765625 4.457031 5.765625 4.59375 5.597656 C 4.671875 5.519531 4.671875 5.519531 4.75 5.4375 C 4.972656 5.324219 5.203125 5.367188 5.4375 5.4375 C 5.613281 5.554688 5.722656 5.679688 5.8125 5.875 C 5.839844 6.078125 5.820312 6.242188 5.75 6.4375 C 5.589844 6.628906 5.589844 6.628906 5.4375 6.75 C 5.523438 6.945312 5.625 7.078125 5.78125 7.230469 C 5.820312 7.269531 5.863281 7.3125 5.90625 7.355469 C 5.949219 7.398438 5.996094 7.441406 6.039062 7.484375 C 6.082031 7.527344 6.128906 7.570312 6.171875 7.617188 C 6.28125 7.722656 6.390625 7.832031 6.5 7.9375 C 6.363281 8.242188 6.140625 8.441406 5.910156 8.671875 C 5.867188 8.714844 5.824219 8.757812 5.78125 8.804688 C 5.738281 8.84375 5.699219 8.886719 5.65625 8.929688 C 5.617188 8.964844 5.582031 9.003906 5.542969 9.042969 C 5.4375 9.125 5.4375 9.125 5.25 9.125 C 5.164062 9.042969 5.082031 8.960938 5 8.875 C 4.800781 8.773438 4.59375 8.78125 4.375 8.8125 C 4.199219 8.925781 4.09375 9 4 9.1875 C 3.976562 9.523438 3.972656 9.726562 4.1875 10 C 4.230469 10.019531 4.269531 10.042969 4.3125 10.0625 C 4.277344 10.296875 4.179688 10.40625 4.011719 10.570312 C 3.941406 10.640625 3.941406 10.640625 3.867188 10.710938 C 3.816406 10.761719 3.765625 10.808594 3.714844 10.859375 C 3.664062 10.910156 3.613281 10.957031 3.5625 11.007812 C 3.4375 11.132812 3.3125 11.253906 3.1875 11.375 C 2.871094 11.113281 2.582031 10.835938 2.296875 10.539062 C 2.21875 10.460938 2.140625 10.386719 2.0625 10.3125 C 1.921875 10.296875 1.921875 10.296875 1.8125 10.433594 C 1.769531 10.476562 1.730469 10.519531 1.6875 10.5625 C 1.472656 10.671875 1.234375 10.648438 1 10.625 C 0.757812 10.519531 0.660156 10.429688 0.5625 10.1875 C 0.523438 9.9375 0.492188 9.671875 0.632812 9.453125 C 0.71875 9.367188 0.71875 9.367188 0.875 9.25 C 0.761719 8.945312 0.5 8.753906 0.261719 8.546875 C 0.0664062 8.367188 0.00390625 8.273438 -0.0507812 8.007812 C -0.0234375 7.660156 0.226562 7.46875 0.46875 7.25 C 0.515625 7.207031 0.558594 7.164062 0.605469 7.121094 C 0.714844 7.015625 0.824219 6.914062 0.9375 6.8125 C 1.074219 6.878906 1.1875 6.9375 1.304688 7.035156 C 1.480469 7.152344 1.601562 7.179688 1.8125 7.1875 C 2.078125 7.105469 2.167969 7.035156 2.3125 6.792969 C 2.386719 6.527344 2.371094 6.433594 2.25 6.1875 C 2.125 6.011719 2.125 6.011719 2 5.875 C 2.089844 5.671875 2.199219 5.539062 2.355469 5.382812 C 2.402344 5.335938 2.445312 5.292969 2.492188 5.246094 C 2.539062 5.203125 2.585938 5.15625 2.632812 5.109375 C 2.679688 5.0625 2.726562 5.015625 2.777344 4.96875 C 2.890625 4.855469 3.007812 4.738281 3.125 4.625 Z M 3.125 4.625 "/>
<path style=" stroke:none;fill-rule:nonzero;fill:rgb(3.921569%,71.764708%,62.7451%);fill-opacity:1;" d="M 8.75 10.199219 C 8.988281 10.296875 9.148438 10.484375 9.328125 10.664062 C 9.367188 10.703125 9.410156 10.738281 9.449219 10.777344 C 9.648438 10.972656 9.742188 11.074219 9.789062 11.355469 C 9.746094 11.574219 9.710938 11.65625 9.558594 11.8125 C 9.519531 11.855469 9.480469 11.894531 9.4375 11.9375 C 9.070312 12.300781 9.070312 12.300781 8.957031 12.410156 C 8.859375 12.496094 8.859375 12.496094 8.875 12.625 C 8.957031 12.710938 9.039062 12.792969 9.125 12.875 C 9.226562 13.074219 9.21875 13.28125 9.1875 13.5 C 9.085938 13.695312 9 13.824219 8.828125 13.960938 C 8.613281 14.019531 8.410156 14.03125 8.1875 14 C 8.03125 13.90625 8.03125 13.90625 7.9375 13.8125 C 7.96875 13.769531 8 13.730469 8.03125 13.6875 C 8.148438 13.453125 8.179688 13.253906 8.125 13 C 8.054688 12.890625 8.054688 12.890625 7.964844 12.796875 C 7.914062 12.742188 7.863281 12.683594 7.8125 12.625 C 7.828125 12.417969 7.90625 12.320312 8.058594 12.1875 C 8.09375 12.152344 8.132812 12.117188 8.167969 12.082031 C 8.246094 12.011719 8.324219 11.941406 8.402344 11.871094 C 8.628906 11.65625 8.628906 11.65625 8.726562 11.367188 C 8.679688 11.15625 8.617188 11.074219 8.46875 10.925781 C 8.25 10.707031 8.25 10.707031 8.25 10.5 C 8.566406 10.183594 8.566406 10.183594 8.75 10.199219 Z M 8.75 10.199219 "/>
<path style=" stroke:none;fill-rule:nonzero;fill:rgb(31.37255%,40.000001%,81.568629%);fill-opacity:1;" d="M 8.5625 3.5 C 8.691406 3.476562 8.691406 3.476562 8.875 3.5 C 9.03125 3.617188 9.164062 3.753906 9.296875 3.898438 C 9.332031 3.9375 9.371094 3.972656 9.410156 4.011719 C 9.734375 4.351562 9.734375 4.351562 9.78125 4.636719 C 9.738281 4.976562 9.5625 5.113281 9.3125 5.339844 C 9.269531 5.378906 9.230469 5.417969 9.1875 5.460938 C 9.082031 5.558594 8.980469 5.65625 8.875 5.75 C 8.941406 5.890625 9.011719 6.015625 9.101562 6.140625 C 9.214844 6.367188 9.238281 6.566406 9.1875 6.8125 C 9.078125 7.015625 8.925781 7.152344 8.734375 7.28125 C 8.476562 7.328125 8.25 7.257812 8 7.1875 C 8 7 8 7 8.0625 6.894531 C 8.15625 6.679688 8.171875 6.476562 8.125 6.25 C 8.035156 6.101562 7.9375 6 7.8125 5.875 C 7.914062 5.621094 8.09375 5.457031 8.285156 5.273438 C 8.574219 5.003906 8.574219 5.003906 8.722656 4.648438 C 8.671875 4.355469 8.515625 4.238281 8.296875 4.046875 C 8.261719 4.011719 8.222656 3.972656 8.1875 3.9375 C 8.1875 3.894531 8.1875 3.855469 8.1875 3.8125 C 8.292969 3.75 8.394531 3.6875 8.5 3.625 C 8.519531 3.582031 8.542969 3.542969 8.5625 3.5 Z M 8.5625 3.5 "/>
<path style=" stroke:none;fill-rule:nonzero;fill:rgb(100%,81.960785%,36.078432%);fill-opacity:1;" d="M 14.71875 5.359375 C 14.765625 5.359375 14.8125 5.359375 14.859375 5.359375 C 15.082031 5.386719 15.214844 5.457031 15.359375 5.625 C 15.472656 5.894531 15.492188 6.148438 15.4375 6.4375 C 15.347656 6.578125 15.261719 6.648438 15.125 6.75 C 15.238281 7.054688 15.5 7.246094 15.738281 7.453125 C 15.933594 7.632812 15.996094 7.726562 16.050781 7.992188 C 16.023438 8.339844 15.773438 8.53125 15.53125 8.75 C 15.484375 8.792969 15.441406 8.835938 15.394531 8.878906 C 15.285156 8.984375 15.175781 9.085938 15.0625 9.1875 C 14.839844 9.082031 14.640625 8.953125 14.4375 8.8125 C 14.496094 8.742188 14.558594 8.671875 14.617188 8.601562 C 14.652344 8.5625 14.683594 8.523438 14.71875 8.484375 C 14.789062 8.402344 14.863281 8.324219 14.9375 8.25 C 14.976562 8 15 7.84375 14.855469 7.628906 C 14.742188 7.503906 14.625 7.390625 14.5 7.28125 C 14.457031 7.242188 14.417969 7.203125 14.375 7.160156 C 14.269531 7.066406 14.167969 6.96875 14.0625 6.875 C 14.128906 6.734375 14.179688 6.632812 14.289062 6.519531 C 14.421875 6.292969 14.410156 6.070312 14.375 5.8125 C 14.292969 5.625 14.292969 5.625 14.1875 5.5 C 14.371094 5.394531 14.507812 5.359375 14.71875 5.359375 Z M 14.71875 5.359375 "/>
<path style=" stroke:none;fill-rule:nonzero;fill:rgb(97.647059%,16.862746%,23.137255%);fill-opacity:1;" d="M 5.292969 5.390625 C 5.507812 5.460938 5.621094 5.566406 5.75 5.742188 C 5.863281 5.984375 5.839844 6.195312 5.75 6.4375 C 5.589844 6.628906 5.589844 6.628906 5.4375 6.75 C 5.523438 6.945312 5.625 7.078125 5.78125 7.230469 C 5.820312 7.269531 5.863281 7.3125 5.90625 7.355469 C 5.972656 7.417969 5.972656 7.417969 6.039062 7.484375 C 6.082031 7.527344 6.128906 7.570312 6.171875 7.617188 C 6.28125 7.722656 6.390625 7.832031 6.5 7.9375 C 6.363281 8.242188 6.140625 8.441406 5.910156 8.671875 C 5.867188 8.714844 5.824219 8.757812 5.78125 8.804688 C 5.738281 8.84375 5.699219 8.886719 5.65625 8.929688 C 5.617188 8.964844 5.582031 9.003906 5.542969 9.042969 C 5.4375 9.125 5.4375 9.125 5.25 9.125 C 5.164062 9.042969 5.082031 8.960938 5 8.875 C 4.957031 8.855469 4.917969 8.832031 4.875 8.8125 C 4.984375 8.558594 5.144531 8.421875 5.351562 8.242188 C 5.449219 8.128906 5.449219 8.128906 5.445312 7.980469 C 5.316406 7.675781 5.046875 7.480469 4.800781 7.261719 C 4.691406 7.15625 4.589844 7.058594 4.5 6.9375 C 4.5 6.734375 4.527344 6.667969 4.660156 6.515625 C 4.828125 6.25 4.769531 5.921875 4.71875 5.621094 C 4.707031 5.582031 4.699219 5.542969 4.6875 5.5 C 4.917969 5.347656 5.027344 5.355469 5.292969 5.390625 Z M 5.292969 5.390625 "/>
<path style=" stroke:none;fill-rule:nonzero;fill:rgb(31.37255%,40.392157%,81.568629%);fill-opacity:1;" d="M 6.507812 1.402344 C 6.855469 1.453125 7.007812 1.632812 7.25 1.875 C 7.292969 1.914062 7.335938 1.949219 7.382812 1.992188 C 7.683594 2.265625 7.683594 2.265625 7.699219 2.472656 C 7.625 2.625 7.625 2.625 7.492188 2.800781 C 7.332031 3.074219 7.367188 3.195312 7.4375 3.5 C 7.476562 3.5625 7.519531 3.625 7.5625 3.6875 C 7.398438 3.851562 7.304688 3.875 7.070312 3.902344 C 6.804688 3.890625 6.644531 3.796875 6.4375 3.625 C 6.285156 3.394531 6.257812 3.203125 6.3125 2.9375 C 6.382812 2.832031 6.382812 2.832031 6.472656 2.734375 C 6.640625 2.585938 6.640625 2.585938 6.617188 2.445312 C 6.546875 2.273438 6.441406 2.175781 6.308594 2.046875 C 6.238281 1.980469 6.238281 1.980469 6.167969 1.914062 C 6.132812 1.878906 6.097656 1.847656 6.0625 1.8125 C 6.175781 1.570312 6.230469 1.453125 6.507812 1.402344 Z M 6.507812 1.402344 "/>
<path style=" stroke:none;fill-rule:nonzero;fill:rgb(3.921569%,71.372551%,62.352943%);fill-opacity:1;" d="M 6.5625 8 C 6.84375 8.230469 7.113281 8.472656 7.375 8.722656 C 7.40625 8.75 7.4375 8.78125 7.46875 8.808594 C 7.558594 8.894531 7.558594 8.894531 7.6875 9.0625 C 7.683594 9.234375 7.683594 9.234375 7.625 9.375 C 7.59375 9.402344 7.5625 9.429688 7.53125 9.457031 C 7.378906 9.628906 7.375 9.835938 7.375 10.0625 C 7.425781 10.203125 7.425781 10.203125 7.5 10.3125 C 7.5 10.375 7.5 10.4375 7.5 10.5 C 7.269531 10.648438 7.082031 10.660156 6.8125 10.625 C 6.609375 10.492188 6.421875 10.34375 6.3125 10.125 C 6.285156 9.851562 6.296875 9.714844 6.429688 9.472656 C 6.496094 9.394531 6.496094 9.394531 6.5625 9.3125 C 6.605469 9.3125 6.644531 9.3125 6.6875 9.3125 C 6.605469 9.058594 6.496094 8.914062 6.304688 8.730469 C 6.257812 8.6875 6.214844 8.644531 6.167969 8.597656 C 6.132812 8.566406 6.097656 8.535156 6.0625 8.5 C 6.121094 8.429688 6.183594 8.355469 6.242188 8.285156 C 6.277344 8.246094 6.308594 8.207031 6.34375 8.164062 C 6.4375 8.0625 6.4375 8.0625 6.5625 8 Z M 6.5625 8 "/>
<path style=" stroke:none;fill-rule:nonzero;fill:rgb(100%,81.960785%,35.686275%);fill-opacity:1;" d="M 13.5625 8.75 C 13.71875 8.875 13.71875 8.875 13.8125 9 C 13.777344 9.0625 13.746094 9.128906 13.710938 9.195312 C 13.632812 9.375 13.625 9.429688 13.660156 9.632812 C 13.753906 9.820312 13.859375 9.96875 14 10.125 C 13.875 10.398438 13.699219 10.582031 13.492188 10.796875 C 13.457031 10.835938 13.425781 10.871094 13.390625 10.910156 C 13.207031 11.101562 13.070312 11.214844 12.800781 11.230469 C 12.5625 11.1875 12.5625 11.1875 12.3125 10.875 C 12.519531 10.667969 12.726562 10.460938 12.9375 10.25 C 12.832031 10.011719 12.832031 10.011719 12.710938 9.894531 C 12.574219 9.667969 12.574219 9.445312 12.625 9.1875 C 12.84375 8.796875 13.125 8.683594 13.5625 8.75 Z M 13.5625 8.75 "/>
<path style=" stroke:none;fill-rule:nonzero;fill:rgb(97.647059%,16.862746%,22.745098%);fill-opacity:1;" d="M 3.9375 8.75 C 4 8.792969 4.0625 8.832031 4.125 8.875 C 4.105469 8.917969 4.082031 8.957031 4.0625 9 C 3.960938 9.308594 3.945312 9.574219 4.085938 9.871094 C 4.175781 10.007812 4.175781 10.007812 4.3125 10.0625 C 4.277344 10.296875 4.179688 10.40625 4.011719 10.570312 C 3.964844 10.617188 3.917969 10.664062 3.867188 10.710938 C 3.792969 10.785156 3.792969 10.785156 3.714844 10.859375 C 3.664062 10.910156 3.613281 10.957031 3.5625 11.007812 C 3.4375 11.132812 3.3125 11.253906 3.1875 11.375 C 3.113281 11.316406 3.042969 11.257812 2.96875 11.199219 C 2.929688 11.167969 2.886719 11.132812 2.84375 11.101562 C 2.75 11 2.75 11 2.75 10.8125 C 2.875 10.679688 3.011719 10.566406 3.148438 10.445312 C 3.269531 10.320312 3.269531 10.320312 3.238281 10.148438 C 3.195312 9.996094 3.195312 9.996094 3.089844 9.890625 C 2.945312 9.667969 2.953125 9.445312 3 9.1875 C 3.222656 8.792969 3.5 8.699219 3.9375 8.75 Z M 3.9375 8.75 "/>
<path style=" stroke:none;fill-rule:nonzero;fill:rgb(3.921569%,72.156864%,62.7451%);fill-opacity:1;" d="M 6.785156 13.613281 C 6.972656 13.707031 7.140625 13.816406 7.3125 13.9375 C 7.1875 14.21875 7.011719 14.398438 6.75 14.5625 C 6.519531 14.601562 6.519531 14.601562 6.3125 14.5625 C 6.160156 14.4375 6.160156 14.4375 6.0625 14.3125 C 6.195312 14.011719 6.433594 13.640625 6.785156 13.613281 Z M 6.785156 13.613281 "/>
<path style=" stroke:none;fill-rule:nonzero;fill:rgb(32.156864%,40.000001%,80.784315%);fill-opacity:1;" d="M 6.875 6.875 C 6.960938 6.957031 7.042969 7.039062 7.125 7.125 C 7.167969 7.144531 7.207031 7.167969 7.25 7.1875 C 7.21875 7.457031 7.0625 7.582031 6.871094 7.765625 C 6.8125 7.820312 6.757812 7.875 6.695312 7.933594 C 6.652344 7.976562 6.609375 8.019531 6.5625 8.0625 C 6.378906 7.882812 6.210938 7.710938 6.0625 7.5 C 6.160156 7.394531 6.261719 7.292969 6.363281 7.1875 C 6.417969 7.128906 6.476562 7.070312 6.53125 7.011719 C 6.6875 6.875 6.6875 6.875 6.875 6.875 Z M 6.875 6.875 "/>
<path style=" stroke:none;fill-rule:nonzero;fill:rgb(100%,81.960785%,36.078432%);fill-opacity:1;" d="M 12.796875 4.761719 C 13.109375 4.777344 13.269531 4.972656 13.46875 5.191406 C 13.5625 5.3125 13.5625 5.3125 13.5625 5.4375 C 13.460938 5.503906 13.355469 5.566406 13.25 5.625 C 13.207031 5.667969 13.167969 5.707031 13.125 5.75 C 12.871094 5.738281 12.746094 5.578125 12.578125 5.402344 C 12.503906 5.324219 12.503906 5.324219 12.425781 5.246094 C 12.390625 5.207031 12.351562 5.167969 12.3125 5.125 C 12.453125 4.890625 12.523438 4.820312 12.796875 4.761719 Z M 12.796875 4.761719 "/>
<path style=" stroke:none;fill-rule:nonzero;fill:rgb(98.039216%,16.862746%,22.745098%);fill-opacity:1;" d="M 3.125 4.625 C 3.386719 4.84375 3.644531 5.0625 3.875 5.3125 C 3.875 5.355469 3.875 5.394531 3.875 5.4375 C 3.703125 5.605469 3.703125 5.605469 3.5 5.75 C 3.246094 5.742188 3.121094 5.578125 2.953125 5.402344 C 2.878906 5.324219 2.878906 5.324219 2.800781 5.246094 C 2.765625 5.207031 2.726562 5.167969 2.6875 5.125 C 2.75 5.054688 2.808594 4.980469 2.871094 4.910156 C 2.90625 4.871094 2.9375 4.832031 2.972656 4.789062 C 3.023438 4.734375 3.074219 4.675781 3.125 4.625 Z M 3.125 4.625 "/>
</g>
</svg>
