<?xml version="1.0" encoding="UTF-8"?>
<svg xmlns="http://www.w3.org/2000/svg" xmlns:xlink="http://www.w3.org/1999/xlink" width="16" height="16" viewBox="0 0 16 16" version="1.1">
<g id="surface1">
<path style=" stroke:none;fill-rule:nonzero;fill:rgb(99.607843%,99.607843%,99.607843%);fill-opacity:1;" d="M 0.625 0.625 C 5.492188 0.625 10.359375 0.625 15.375 0.625 C 15.375 5.492188 15.375 10.359375 15.375 15.375 C 10.507812 15.375 5.640625 15.375 0.625 15.375 C 0.625 10.507812 0.625 5.640625 0.625 0.625 Z M 0.625 0.625 "/>
<path style=" stroke:none;fill-rule:nonzero;fill:rgb(16.078432%,16.078432%,19.607843%);fill-opacity:1;" d="M 0.625 0.625 C 5.492188 0.625 10.359375 0.625 15.375 0.625 C 15.375 5.492188 15.375 10.359375 15.375 15.375 C 10.507812 15.375 5.640625 15.375 0.625 15.375 C 0.625 10.507812 0.625 5.640625 0.625 0.625 Z M 2 2 C 2 5.960938 2 9.921875 2 14 C 5.960938 14 9.921875 14 14 14 C 14 10.039062 14 6.078125 14 2 C 10.039062 2 6.078125 2 2 2 Z M 2 2 "/>
<path style=" stroke:none;fill-rule:nonzero;fill:rgb(72.549021%,85.09804%,95.686275%);fill-opacity:1;" d="M 2 2 C 5.960938 2 9.921875 2 14 2 C 14 2.433594 14 2.867188 14 3.3125 C 13.707031 3.304688 13.707031 3.304688 13.40625 3.296875 C 12.753906 3.28125 12.105469 3.273438 11.453125 3.269531 C 11.058594 3.265625 10.664062 3.261719 10.269531 3.25 C 8.472656 3.082031 8.472656 3.082031 6.878906 3.671875 C 6.71875 3.847656 6.578125 4.027344 6.4375 4.21875 C 6.207031 4.519531 6.042969 4.710938 5.65625 4.78125 C 5.125 4.84375 4.589844 4.8125 4.054688 4.777344 C 3.824219 4.765625 3.589844 4.757812 3.359375 4.75 C 2.90625 4.738281 2.453125 4.710938 2 4.6875 C 2 3.800781 2 2.914062 2 2 Z M 2 2 "/>
<path style=" stroke:none;fill-rule:nonzero;fill:rgb(16.470589%,16.470589%,20%);fill-opacity:1;" d="M 7.3125 8.6875 C 9.085938 8.6875 10.859375 8.6875 12.6875 8.6875 C 12.6875 9.121094 12.6875 9.554688 12.6875 10 C 10.914062 10 9.140625 10 7.3125 10 C 7.3125 9.566406 7.3125 9.132812 7.3125 8.6875 Z M 7.3125 8.6875 "/>
<path style=" stroke:none;fill-rule:nonzero;fill:rgb(18.82353%,18.82353%,22.352941%);fill-opacity:1;" d="M 7.3125 11.3125 C 8.632812 11.3125 9.953125 11.3125 11.3125 11.3125 C 11.3125 11.765625 11.3125 12.21875 11.3125 12.6875 C 9.992188 12.6875 8.671875 12.6875 7.3125 12.6875 C 7.3125 12.234375 7.3125 11.78125 7.3125 11.3125 Z M 7.3125 11.3125 "/>
<path style=" stroke:none;fill-rule:nonzero;fill:rgb(16.078432%,16.078432%,19.607843%);fill-opacity:1;" d="M 6 6 C 7.320312 6 8.640625 6 10 6 C 10 6.433594 10 6.867188 10 7.3125 C 8.679688 7.3125 7.359375 7.3125 6 7.3125 C 6 6.878906 6 6.445312 6 6 Z M 6 6 "/>
<path style=" stroke:none;fill-rule:nonzero;fill:rgb(2.745098%,52.941179%,94.117647%);fill-opacity:1;" d="M 4.6875 11.3125 C 5.121094 11.3125 5.554688 11.3125 6 11.3125 C 6 11.765625 6 12.21875 6 12.6875 C 5.566406 12.6875 5.132812 12.6875 4.6875 12.6875 C 4.6875 12.234375 4.6875 11.78125 4.6875 11.3125 Z M 4.6875 11.3125 "/>
<path style=" stroke:none;fill-rule:nonzero;fill:rgb(2.745098%,52.941179%,94.117647%);fill-opacity:1;" d="M 3.3125 6 C 3.765625 6 4.21875 6 4.6875 6 C 4.6875 6.433594 4.6875 6.867188 4.6875 7.3125 C 4.234375 7.3125 3.78125 7.3125 3.3125 7.3125 C 3.3125 6.878906 3.3125 6.445312 3.3125 6 Z M 3.3125 6 "/>
<path style=" stroke:none;fill-rule:nonzero;fill:rgb(0%,51.764709%,94.117647%);fill-opacity:1;" d="M 4.6875 8.6875 C 5.121094 8.6875 5.554688 8.6875 6 8.6875 C 6 9.121094 6 9.554688 6 10 C 5.566406 10 5.132812 10 4.6875 10 C 4.6875 9.566406 4.6875 9.132812 4.6875 8.6875 Z M 4.6875 8.6875 "/>
</g>
</svg>
