<?xml version="1.0" encoding="UTF-8"?>
<svg xmlns="http://www.w3.org/2000/svg" xmlns:xlink="http://www.w3.org/1999/xlink" width="16" height="16" viewBox="0 0 16 16" version="1.1">
<g id="surface1">
<path style=" stroke:none;fill-rule:nonzero;fill:rgb(94.509804%,38.039216%,45.882353%);fill-opacity:1;" d="M 1.265625 10.347656 C 1.347656 10.347656 1.425781 10.347656 1.507812 10.34375 C 1.59375 10.34375 1.679688 10.34375 1.765625 10.34375 C 1.855469 10.34375 1.941406 10.34375 2.03125 10.34375 C 2.21875 10.34375 2.402344 10.34375 2.589844 10.34375 C 2.828125 10.34375 3.066406 10.34375 3.304688 10.339844 C 3.484375 10.339844 3.667969 10.339844 3.851562 10.339844 C 3.941406 10.339844 4.027344 10.335938 4.117188 10.335938 C 4.238281 10.335938 4.359375 10.335938 4.484375 10.335938 C 4.554688 10.335938 4.621094 10.335938 4.695312 10.335938 C 4.875 10.375 4.875 10.375 5.023438 10.527344 C 5.125 10.6875 5.15625 10.761719 5.148438 10.949219 C 5.148438 10.992188 5.148438 11.035156 5.148438 11.078125 C 5.144531 11.132812 5.144531 11.183594 5.140625 11.238281 C 5.136719 11.40625 5.128906 11.578125 5.125 11.75 C 5.652344 11.71875 5.652344 11.71875 6.1875 11.6875 C 6.085938 11.585938 5.980469 11.480469 5.875 11.375 C 5.886719 11.230469 5.886719 11.230469 5.9375 11.125 C 6.148438 11.21875 6.292969 11.332031 6.457031 11.492188 C 6.5 11.535156 6.546875 11.578125 6.59375 11.621094 C 6.6875 11.75 6.6875 11.75 6.6875 11.871094 C 6.601562 12.046875 6.480469 12.160156 6.339844 12.296875 C 6.289062 12.347656 6.238281 12.398438 6.183594 12.449219 C 6.144531 12.484375 6.101562 12.523438 6.0625 12.5625 C 5.96875 12.53125 5.96875 12.53125 5.875 12.5 C 5.914062 12.273438 5.949219 12.238281 6.125 12.0625 C 5.792969 12.042969 5.464844 12.019531 5.125 12 C 5.125 12.351562 5.125 12.703125 5.125 13.0625 C 5.824219 13.0625 6.527344 13.0625 7.25 13.0625 C 7.246094 12.890625 7.242188 12.714844 7.242188 12.539062 C 7.238281 12.371094 7.238281 12.203125 7.234375 12.035156 C 7.234375 11.917969 7.234375 11.800781 7.230469 11.683594 C 7.226562 11.515625 7.226562 11.351562 7.226562 11.183594 C 7.222656 11.128906 7.222656 11.078125 7.222656 11.023438 C 7.222656 10.953125 7.222656 10.953125 7.222656 10.875 C 7.222656 10.835938 7.21875 10.792969 7.21875 10.746094 C 7.265625 10.566406 7.359375 10.492188 7.5 10.375 C 7.648438 10.34375 7.648438 10.34375 7.816406 10.34375 C 7.882812 10.34375 7.945312 10.34375 8.011719 10.34375 C 8.082031 10.34375 8.152344 10.34375 8.222656 10.34375 C 8.335938 10.34375 8.335938 10.34375 8.449219 10.34375 C 8.652344 10.34375 8.855469 10.34375 9.054688 10.34375 C 9.269531 10.34375 9.480469 10.34375 9.695312 10.34375 C 10.050781 10.34375 10.40625 10.34375 10.761719 10.34375 C 11.175781 10.347656 11.585938 10.347656 12 10.347656 C 12.394531 10.347656 12.792969 10.347656 13.1875 10.347656 C 13.355469 10.347656 13.523438 10.347656 13.695312 10.347656 C 13.929688 10.347656 14.164062 10.347656 14.398438 10.351562 C 14.46875 10.347656 14.539062 10.347656 14.613281 10.347656 C 14.675781 10.347656 14.742188 10.351562 14.808594 10.351562 C 14.890625 10.351562 14.890625 10.351562 14.976562 10.351562 C 15.15625 10.378906 15.242188 10.4375 15.375 10.5625 C 15.40625 10.679688 15.40625 10.679688 15.402344 10.8125 C 15.402344 10.863281 15.402344 10.914062 15.402344 10.964844 C 15.402344 11.019531 15.402344 11.074219 15.398438 11.128906 C 15.398438 11.183594 15.398438 11.238281 15.398438 11.296875 C 15.398438 11.472656 15.394531 11.648438 15.390625 11.824219 C 15.390625 11.945312 15.386719 12.0625 15.386719 12.183594 C 15.382812 12.476562 15.378906 12.769531 15.375 13.0625 C 15.4375 13.082031 15.5 13.105469 15.5625 13.125 C 15.542969 13.1875 15.519531 13.25 15.5 13.3125 C 10.550781 13.3125 5.601562 13.3125 0.5 13.3125 C 0.5 13.230469 0.5 13.148438 0.5 13.0625 C 0.539062 13.0625 0.582031 13.0625 0.625 13.0625 C 0.625 12.988281 0.621094 12.914062 0.621094 12.835938 C 0.617188 12.558594 0.613281 12.28125 0.609375 12.003906 C 0.609375 11.886719 0.609375 11.765625 0.605469 11.644531 C 0.601562 11.472656 0.601562 11.300781 0.601562 11.128906 C 0.597656 11.074219 0.597656 11.019531 0.597656 10.964844 C 0.597656 10.890625 0.597656 10.890625 0.597656 10.8125 C 0.597656 10.769531 0.59375 10.726562 0.59375 10.679688 C 0.625 10.5625 0.625 10.5625 0.726562 10.453125 C 0.917969 10.351562 1.050781 10.351562 1.265625 10.347656 Z M 1.265625 10.347656 "/>
<path style=" stroke:none;fill-rule:nonzero;fill:rgb(61.176473%,61.176473%,61.56863%);fill-opacity:1;" d="M 7.820312 1.96875 C 7.917969 1.96875 7.917969 1.96875 8.015625 1.96875 C 8.085938 1.96875 8.15625 1.96875 8.230469 1.96875 C 8.34375 1.96875 8.34375 1.96875 8.457031 1.96875 C 8.660156 1.96875 8.867188 1.96875 9.070312 1.96875 C 9.285156 1.96875 9.5 1.96875 9.714844 1.96875 C 10.074219 1.96875 10.433594 1.96875 10.792969 1.96875 C 11.207031 1.972656 11.625 1.972656 12.039062 1.972656 C 12.441406 1.972656 12.839844 1.972656 13.242188 1.972656 C 13.410156 1.972656 13.582031 1.972656 13.75 1.972656 C 13.988281 1.972656 14.226562 1.972656 14.464844 1.976562 C 14.535156 1.972656 14.605469 1.972656 14.679688 1.972656 C 14.742188 1.972656 14.808594 1.976562 14.875 1.976562 C 14.957031 1.976562 14.957031 1.976562 15.046875 1.976562 C 15.214844 2.003906 15.269531 2.050781 15.375 2.1875 C 15.398438 2.304688 15.398438 2.304688 15.398438 2.441406 C 15.402344 2.515625 15.402344 2.515625 15.402344 2.59375 C 15.402344 2.648438 15.402344 2.703125 15.402344 2.761719 C 15.402344 2.816406 15.402344 2.871094 15.402344 2.929688 C 15.402344 3.046875 15.402344 3.167969 15.402344 3.285156 C 15.402344 3.46875 15.40625 3.648438 15.40625 3.832031 C 15.40625 3.945312 15.40625 4.0625 15.40625 4.175781 C 15.40625 4.234375 15.40625 4.285156 15.40625 4.34375 C 15.40625 4.394531 15.40625 4.445312 15.40625 4.496094 C 15.40625 4.542969 15.40625 4.585938 15.40625 4.632812 C 15.359375 4.804688 15.273438 4.84375 15.125 4.9375 C 14.976562 4.960938 14.976562 4.960938 14.808594 4.960938 C 14.742188 4.960938 14.679688 4.964844 14.613281 4.964844 C 14.542969 4.964844 14.472656 4.964844 14.402344 4.964844 C 14.289062 4.964844 14.289062 4.964844 14.175781 4.964844 C 13.972656 4.964844 13.769531 4.964844 13.566406 4.964844 C 13.398438 4.964844 13.230469 4.964844 13.058594 4.964844 C 12.660156 4.964844 12.261719 4.964844 11.863281 4.964844 C 11.449219 4.964844 11.039062 4.964844 10.625 4.96875 C 10.273438 4.96875 9.917969 4.96875 9.566406 4.96875 C 9.351562 4.96875 9.140625 4.96875 8.929688 4.96875 C 8.695312 4.96875 8.460938 4.96875 8.222656 4.96875 C 8.121094 4.96875 8.121094 4.96875 8.011719 4.96875 C 7.949219 4.96875 7.882812 4.96875 7.816406 4.96875 C 7.761719 4.96875 7.707031 4.96875 7.648438 4.96875 C 7.453125 4.925781 7.375 4.839844 7.25 4.6875 C 7.21875 4.566406 7.21875 4.566406 7.21875 4.4375 C 7.21875 4.390625 7.214844 4.34375 7.214844 4.292969 C 7.214844 4.242188 7.214844 4.191406 7.21875 4.140625 C 7.214844 4.085938 7.214844 4.03125 7.214844 3.976562 C 7.214844 3.867188 7.214844 3.753906 7.21875 3.640625 C 7.21875 3.46875 7.21875 3.296875 7.214844 3.125 C 7.214844 3.015625 7.214844 2.90625 7.21875 2.796875 C 7.214844 2.746094 7.214844 2.695312 7.214844 2.644531 C 7.214844 2.59375 7.21875 2.546875 7.21875 2.5 C 7.21875 2.457031 7.21875 2.414062 7.21875 2.371094 C 7.300781 2.0625 7.523438 1.96875 7.820312 1.96875 Z M 7.820312 1.96875 "/>
<path style=" stroke:none;fill-rule:nonzero;fill:rgb(38.039216%,72.156864%,89.019608%);fill-opacity:1;" d="M 7.816406 6.15625 C 7.882812 6.15625 7.945312 6.15625 8.011719 6.15625 C 8.082031 6.15625 8.152344 6.15625 8.222656 6.15625 C 8.335938 6.15625 8.335938 6.15625 8.449219 6.15625 C 8.652344 6.15625 8.855469 6.15625 9.054688 6.15625 C 9.269531 6.15625 9.480469 6.15625 9.695312 6.15625 C 10.050781 6.15625 10.40625 6.15625 10.761719 6.15625 C 11.175781 6.160156 11.585938 6.160156 12 6.160156 C 12.394531 6.160156 12.792969 6.160156 13.1875 6.160156 C 13.355469 6.160156 13.523438 6.160156 13.695312 6.160156 C 13.929688 6.160156 14.164062 6.160156 14.398438 6.164062 C 14.46875 6.160156 14.539062 6.160156 14.613281 6.160156 C 14.675781 6.160156 14.742188 6.164062 14.808594 6.164062 C 14.890625 6.164062 14.890625 6.164062 14.976562 6.164062 C 15.15625 6.191406 15.242188 6.25 15.375 6.375 C 15.40625 6.492188 15.40625 6.492188 15.40625 6.628906 C 15.40625 6.679688 15.410156 6.730469 15.410156 6.78125 C 15.410156 6.835938 15.410156 6.890625 15.410156 6.949219 C 15.410156 7.003906 15.410156 7.058594 15.410156 7.117188 C 15.410156 7.234375 15.410156 7.355469 15.40625 7.472656 C 15.40625 7.65625 15.40625 7.835938 15.410156 8.019531 C 15.410156 8.132812 15.410156 8.25 15.410156 8.363281 C 15.410156 8.421875 15.410156 8.472656 15.410156 8.53125 C 15.410156 8.605469 15.410156 8.605469 15.40625 8.683594 C 15.40625 8.730469 15.40625 8.773438 15.40625 8.820312 C 15.359375 8.992188 15.273438 9.03125 15.125 9.125 C 14.976562 9.148438 14.976562 9.148438 14.808594 9.148438 C 14.742188 9.148438 14.679688 9.152344 14.613281 9.152344 C 14.542969 9.152344 14.472656 9.152344 14.398438 9.152344 C 14.289062 9.152344 14.289062 9.152344 14.175781 9.152344 C 13.972656 9.152344 13.769531 9.152344 13.570312 9.152344 C 13.398438 9.152344 13.230469 9.152344 13.058594 9.152344 C 12.660156 9.152344 12.261719 9.152344 11.863281 9.152344 C 11.449219 9.152344 11.039062 9.152344 10.625 9.15625 C 10.273438 9.15625 9.917969 9.15625 9.566406 9.15625 C 9.351562 9.15625 9.140625 9.15625 8.929688 9.15625 C 8.695312 9.15625 8.460938 9.15625 8.222656 9.15625 C 8.117188 9.15625 8.117188 9.15625 8.011719 9.15625 C 7.949219 9.15625 7.882812 9.15625 7.816406 9.15625 C 7.761719 9.15625 7.707031 9.15625 7.648438 9.15625 C 7.453125 9.113281 7.375 9.027344 7.25 8.875 C 7.21875 8.753906 7.21875 8.753906 7.21875 8.625 C 7.214844 8.578125 7.214844 8.53125 7.214844 8.480469 C 7.214844 8.429688 7.214844 8.378906 7.214844 8.328125 C 7.214844 8.273438 7.214844 8.21875 7.214844 8.164062 C 7.214844 8.054688 7.214844 7.941406 7.21875 7.828125 C 7.21875 7.65625 7.21875 7.484375 7.214844 7.3125 C 7.214844 7.203125 7.214844 7.09375 7.214844 6.984375 C 7.214844 6.933594 7.214844 6.882812 7.214844 6.832031 C 7.214844 6.78125 7.214844 6.734375 7.21875 6.6875 C 7.21875 6.644531 7.21875 6.601562 7.21875 6.558594 C 7.300781 6.25 7.523438 6.15625 7.816406 6.15625 Z M 7.816406 6.15625 "/>
<path style=" stroke:none;fill-rule:nonzero;fill:rgb(94.901961%,38.039216%,45.882353%);fill-opacity:1;" d="M 1.265625 10.347656 C 1.347656 10.347656 1.425781 10.347656 1.507812 10.34375 C 1.59375 10.34375 1.679688 10.34375 1.765625 10.34375 C 1.855469 10.34375 1.941406 10.34375 2.03125 10.34375 C 2.21875 10.34375 2.402344 10.34375 2.589844 10.34375 C 2.828125 10.34375 3.066406 10.34375 3.304688 10.339844 C 3.484375 10.339844 3.667969 10.339844 3.851562 10.339844 C 3.941406 10.339844 4.027344 10.335938 4.117188 10.335938 C 4.238281 10.335938 4.359375 10.335938 4.484375 10.335938 C 4.554688 10.335938 4.621094 10.335938 4.695312 10.335938 C 4.875 10.375 4.875 10.375 5.023438 10.527344 C 5.125 10.6875 5.15625 10.761719 5.148438 10.949219 C 5.148438 10.992188 5.148438 11.035156 5.148438 11.078125 C 5.144531 11.132812 5.144531 11.183594 5.140625 11.238281 C 5.136719 11.40625 5.128906 11.578125 5.125 11.75 C 5.652344 11.71875 5.652344 11.71875 6.1875 11.6875 C 6.085938 11.585938 5.980469 11.480469 5.875 11.375 C 5.886719 11.230469 5.886719 11.230469 5.9375 11.125 C 6.148438 11.21875 6.292969 11.332031 6.457031 11.492188 C 6.5 11.535156 6.546875 11.578125 6.59375 11.621094 C 6.6875 11.75 6.6875 11.75 6.6875 11.871094 C 6.601562 12.046875 6.480469 12.160156 6.339844 12.296875 C 6.289062 12.347656 6.238281 12.398438 6.183594 12.449219 C 6.144531 12.484375 6.101562 12.523438 6.0625 12.5625 C 5.96875 12.53125 5.96875 12.53125 5.875 12.5 C 5.914062 12.273438 5.949219 12.238281 6.125 12.0625 C 5.792969 12.042969 5.464844 12.019531 5.125 12 C 5.125 12.351562 5.125 12.703125 5.125 13.0625 C 5.824219 13.0625 6.527344 13.0625 7.25 13.0625 C 7.246094 12.890625 7.242188 12.714844 7.242188 12.539062 C 7.238281 12.371094 7.238281 12.203125 7.234375 12.035156 C 7.234375 11.917969 7.234375 11.800781 7.230469 11.683594 C 7.226562 11.515625 7.226562 11.351562 7.226562 11.183594 C 7.222656 11.128906 7.222656 11.078125 7.222656 11.023438 C 7.222656 10.953125 7.222656 10.953125 7.222656 10.875 C 7.222656 10.835938 7.21875 10.792969 7.21875 10.746094 C 7.265625 10.566406 7.359375 10.492188 7.5 10.375 C 7.648438 10.34375 7.648438 10.34375 7.816406 10.34375 C 7.882812 10.34375 7.945312 10.34375 8.011719 10.34375 C 8.082031 10.34375 8.152344 10.34375 8.222656 10.34375 C 8.335938 10.34375 8.335938 10.34375 8.449219 10.34375 C 8.652344 10.34375 8.855469 10.34375 9.054688 10.34375 C 9.269531 10.34375 9.480469 10.34375 9.695312 10.34375 C 10.050781 10.34375 10.40625 10.34375 10.761719 10.34375 C 11.175781 10.347656 11.585938 10.347656 12 10.347656 C 12.394531 10.347656 12.792969 10.347656 13.1875 10.347656 C 13.355469 10.347656 13.523438 10.347656 13.695312 10.347656 C 13.929688 10.347656 14.164062 10.347656 14.398438 10.351562 C 14.46875 10.347656 14.539062 10.347656 14.613281 10.347656 C 14.675781 10.347656 14.742188 10.351562 14.808594 10.351562 C 14.890625 10.351562 14.890625 10.351562 14.976562 10.351562 C 15.15625 10.378906 15.242188 10.4375 15.375 10.5625 C 15.40625 10.679688 15.40625 10.679688 15.402344 10.8125 C 15.402344 10.863281 15.402344 10.914062 15.402344 10.964844 C 15.402344 11.019531 15.402344 11.074219 15.398438 11.128906 C 15.398438 11.183594 15.398438 11.238281 15.398438 11.296875 C 15.398438 11.472656 15.394531 11.648438 15.390625 11.824219 C 15.390625 11.945312 15.386719 12.0625 15.386719 12.183594 C 15.382812 12.476562 15.378906 12.769531 15.375 13.0625 C 15.4375 13.082031 15.5 13.105469 15.5625 13.125 C 15.542969 13.1875 15.519531 13.25 15.5 13.3125 C 10.550781 13.3125 5.601562 13.3125 0.5 13.3125 C 0.5 13.230469 0.5 13.148438 0.5 13.0625 C 0.539062 13.0625 0.582031 13.0625 0.625 13.0625 C 0.625 12.988281 0.621094 12.914062 0.621094 12.835938 C 0.617188 12.558594 0.613281 12.28125 0.609375 12.003906 C 0.609375 11.886719 0.609375 11.765625 0.605469 11.644531 C 0.601562 11.472656 0.601562 11.300781 0.601562 11.128906 C 0.597656 11.074219 0.597656 11.019531 0.597656 10.964844 C 0.597656 10.890625 0.597656 10.890625 0.597656 10.8125 C 0.597656 10.769531 0.59375 10.726562 0.59375 10.679688 C 0.625 10.5625 0.625 10.5625 0.726562 10.453125 C 0.917969 10.351562 1.050781 10.351562 1.265625 10.347656 Z M 7.5 10.6875 C 7.492188 10.859375 7.488281 11.023438 7.488281 11.195312 C 7.488281 11.246094 7.488281 11.296875 7.488281 11.347656 C 7.488281 11.457031 7.488281 11.566406 7.488281 11.671875 C 7.488281 11.839844 7.488281 12.003906 7.484375 12.171875 C 7.484375 12.273438 7.484375 12.378906 7.484375 12.484375 C 7.484375 12.535156 7.484375 12.582031 7.484375 12.636719 C 7.472656 12.910156 7.472656 12.910156 7.625 13.125 C 7.761719 13.144531 7.761719 13.144531 7.921875 13.140625 C 7.984375 13.140625 8.046875 13.140625 8.109375 13.140625 C 8.179688 13.140625 8.25 13.140625 8.320312 13.140625 C 8.429688 13.140625 8.429688 13.140625 8.539062 13.140625 C 8.777344 13.140625 9.019531 13.140625 9.257812 13.140625 C 9.425781 13.140625 9.59375 13.140625 9.757812 13.140625 C 10.105469 13.140625 10.457031 13.140625 10.804688 13.140625 C 11.210938 13.140625 11.613281 13.140625 12.015625 13.140625 C 12.363281 13.140625 12.707031 13.140625 13.054688 13.140625 C 13.261719 13.140625 13.46875 13.140625 13.675781 13.140625 C 13.90625 13.140625 14.136719 13.140625 14.367188 13.140625 C 14.4375 13.140625 14.503906 13.140625 14.578125 13.140625 C 14.640625 13.140625 14.703125 13.140625 14.765625 13.140625 C 14.847656 13.140625 14.847656 13.140625 14.929688 13.140625 C 15.074219 13.136719 15.074219 13.136719 15.1875 13 C 15.199219 12.824219 15.203125 12.65625 15.203125 12.484375 C 15.203125 12.433594 15.203125 12.382812 15.203125 12.328125 C 15.203125 12.222656 15.199219 12.113281 15.199219 12.007812 C 15.199219 11.839844 15.199219 11.675781 15.199219 11.507812 C 15.199219 11.40625 15.199219 11.300781 15.199219 11.195312 C 15.199219 11.144531 15.199219 11.09375 15.199219 11.042969 C 15.21875 10.816406 15.21875 10.816406 15.125 10.625 C 15.027344 10.617188 14.929688 10.617188 14.832031 10.617188 C 14.765625 10.617188 14.703125 10.617188 14.636719 10.617188 C 14.566406 10.617188 14.496094 10.617188 14.425781 10.617188 C 14.3125 10.617188 14.3125 10.617188 14.203125 10.617188 C 14 10.617188 13.796875 10.617188 13.59375 10.617188 C 13.382812 10.617188 13.171875 10.617188 12.960938 10.617188 C 12.601562 10.617188 12.246094 10.617188 11.894531 10.617188 C 11.480469 10.617188 11.070312 10.617188 10.660156 10.617188 C 10.304688 10.617188 9.953125 10.617188 9.601562 10.617188 C 9.390625 10.617188 9.179688 10.617188 8.96875 10.617188 C 8.734375 10.617188 8.496094 10.617188 8.261719 10.617188 C 8.15625 10.617188 8.15625 10.617188 8.050781 10.617188 C 7.953125 10.617188 7.953125 10.617188 7.855469 10.617188 C 7.800781 10.617188 7.746094 10.617188 7.6875 10.617188 C 7.5625 10.609375 7.5625 10.609375 7.5 10.6875 Z M 7.5 10.6875 "/>
<path style=" stroke:none;fill-rule:nonzero;fill:rgb(61.56863%,61.56863%,61.56863%);fill-opacity:1;" d="M 1.265625 1.972656 C 1.347656 1.972656 1.425781 1.972656 1.507812 1.96875 C 1.59375 1.96875 1.679688 1.96875 1.765625 1.96875 C 1.855469 1.96875 1.941406 1.96875 2.03125 1.96875 C 2.21875 1.96875 2.402344 1.96875 2.589844 1.96875 C 2.828125 1.96875 3.066406 1.96875 3.304688 1.964844 C 3.484375 1.964844 3.667969 1.964844 3.851562 1.964844 C 3.941406 1.964844 4.027344 1.960938 4.117188 1.960938 C 4.238281 1.960938 4.359375 1.960938 4.484375 1.960938 C 4.554688 1.960938 4.621094 1.960938 4.695312 1.960938 C 4.875 2 4.875 2 5.023438 2.152344 C 5.125 2.3125 5.15625 2.386719 5.148438 2.574219 C 5.148438 2.617188 5.148438 2.660156 5.148438 2.703125 C 5.144531 2.757812 5.144531 2.808594 5.140625 2.863281 C 5.136719 3.03125 5.128906 3.203125 5.125 3.375 C 5.652344 3.34375 5.652344 3.34375 6.1875 3.3125 C 6.085938 3.210938 5.980469 3.105469 5.875 3 C 5.886719 2.855469 5.886719 2.855469 5.9375 2.75 C 6.148438 2.84375 6.292969 2.957031 6.457031 3.117188 C 6.5 3.160156 6.546875 3.203125 6.59375 3.246094 C 6.6875 3.375 6.6875 3.375 6.6875 3.496094 C 6.601562 3.671875 6.480469 3.785156 6.339844 3.921875 C 6.289062 3.972656 6.238281 4.023438 6.183594 4.074219 C 6.144531 4.109375 6.101562 4.148438 6.0625 4.1875 C 5.96875 4.15625 5.96875 4.15625 5.875 4.125 C 5.914062 3.859375 5.972656 3.839844 6.1875 3.625 C 5.835938 3.605469 5.484375 3.582031 5.125 3.5625 C 5.128906 3.640625 5.132812 3.71875 5.132812 3.800781 C 5.136719 3.902344 5.136719 4.007812 5.140625 4.109375 C 5.144531 4.160156 5.144531 4.210938 5.148438 4.265625 C 5.148438 4.339844 5.148438 4.339844 5.148438 4.417969 C 5.152344 4.484375 5.152344 4.484375 5.152344 4.554688 C 5.113281 4.75 5.027344 4.816406 4.875 4.9375 C 4.691406 4.96875 4.691406 4.96875 4.476562 4.96875 C 4.355469 4.96875 4.355469 4.96875 4.230469 4.96875 C 4.144531 4.96875 4.054688 4.96875 3.96875 4.96875 C 3.878906 4.96875 3.789062 4.96875 3.699219 4.96875 C 3.507812 4.96875 3.320312 4.96875 3.132812 4.96875 C 2.886719 4.964844 2.644531 4.964844 2.402344 4.964844 C 2.21875 4.964844 2.03125 4.964844 1.84375 4.964844 C 1.757812 4.964844 1.667969 4.964844 1.578125 4.964844 C 1.453125 4.964844 1.328125 4.964844 1.203125 4.960938 C 1.132812 4.960938 1.0625 4.960938 0.988281 4.960938 C 0.8125 4.9375 0.8125 4.9375 0.695312 4.859375 C 0.609375 4.726562 0.601562 4.652344 0.601562 4.496094 C 0.597656 4.445312 0.597656 4.394531 0.597656 4.34375 C 0.597656 4.289062 0.597656 4.234375 0.597656 4.175781 C 0.597656 4.09375 0.597656 4.09375 0.597656 4.007812 C 0.597656 3.890625 0.597656 3.769531 0.597656 3.652344 C 0.597656 3.46875 0.597656 3.289062 0.59375 3.105469 C 0.59375 2.992188 0.59375 2.875 0.59375 2.761719 C 0.59375 2.703125 0.59375 2.652344 0.589844 2.59375 C 0.59375 2.542969 0.59375 2.492188 0.59375 2.441406 C 0.59375 2.394531 0.59375 2.351562 0.59375 2.304688 C 0.625 2.1875 0.625 2.1875 0.726562 2.078125 C 0.917969 1.976562 1.050781 1.976562 1.265625 1.972656 Z M 1.265625 1.972656 "/>
<path style=" stroke:none;fill-rule:nonzero;fill:rgb(38.431373%,73.333335%,90.196079%);fill-opacity:1;" d="M 1.265625 6.160156 C 1.347656 6.160156 1.425781 6.160156 1.507812 6.15625 C 1.59375 6.15625 1.679688 6.15625 1.765625 6.15625 C 1.855469 6.15625 1.941406 6.15625 2.03125 6.15625 C 2.21875 6.15625 2.402344 6.15625 2.589844 6.15625 C 2.828125 6.15625 3.066406 6.15625 3.304688 6.152344 C 3.484375 6.152344 3.667969 6.152344 3.851562 6.152344 C 3.941406 6.152344 4.027344 6.148438 4.117188 6.148438 C 4.238281 6.148438 4.359375 6.148438 4.484375 6.148438 C 4.554688 6.148438 4.621094 6.148438 4.695312 6.148438 C 4.875 6.1875 4.875 6.1875 5.023438 6.339844 C 5.125 6.5 5.15625 6.574219 5.148438 6.761719 C 5.148438 6.804688 5.148438 6.847656 5.148438 6.890625 C 5.144531 6.945312 5.144531 6.996094 5.140625 7.050781 C 5.136719 7.21875 5.128906 7.390625 5.125 7.5625 C 5.652344 7.53125 5.652344 7.53125 6.1875 7.5 C 6.085938 7.398438 5.980469 7.292969 5.875 7.1875 C 5.886719 7.042969 5.886719 7.042969 5.9375 6.9375 C 6.148438 7.03125 6.292969 7.144531 6.457031 7.304688 C 6.5 7.347656 6.546875 7.390625 6.59375 7.433594 C 6.6875 7.5625 6.6875 7.5625 6.6875 7.683594 C 6.601562 7.859375 6.480469 7.972656 6.339844 8.109375 C 6.289062 8.160156 6.238281 8.210938 6.183594 8.261719 C 6.144531 8.296875 6.101562 8.335938 6.0625 8.375 C 5.96875 8.34375 5.96875 8.34375 5.875 8.3125 C 5.914062 8.046875 5.972656 8.027344 6.1875 7.8125 C 5.835938 7.792969 5.484375 7.769531 5.125 7.75 C 5.132812 8.085938 5.132812 8.085938 5.148438 8.421875 C 5.148438 8.464844 5.148438 8.503906 5.148438 8.550781 C 5.152344 8.59375 5.152344 8.636719 5.152344 8.679688 C 5.109375 8.878906 5.019531 8.980469 4.875 9.125 C 4.695312 9.164062 4.695312 9.164062 4.484375 9.164062 C 4.402344 9.164062 4.324219 9.164062 4.242188 9.164062 C 4.15625 9.164062 4.070312 9.164062 3.984375 9.160156 C 3.894531 9.160156 3.808594 9.160156 3.71875 9.160156 C 3.53125 9.160156 3.347656 9.160156 3.160156 9.160156 C 2.921875 9.15625 2.683594 9.15625 2.445312 9.15625 C 2.265625 9.15625 2.082031 9.15625 1.898438 9.15625 C 1.808594 9.15625 1.722656 9.15625 1.632812 9.15625 C 1.511719 9.15625 1.390625 9.152344 1.265625 9.152344 C 1.164062 9.152344 1.164062 9.152344 1.054688 9.148438 C 0.851562 9.121094 0.765625 9.085938 0.625 8.9375 C 0.59375 8.820312 0.59375 8.820312 0.59375 8.683594 C 0.589844 8.609375 0.589844 8.609375 0.589844 8.53125 C 0.589844 8.476562 0.589844 8.421875 0.589844 8.363281 C 0.589844 8.308594 0.589844 8.253906 0.589844 8.195312 C 0.589844 8.078125 0.589844 7.957031 0.59375 7.839844 C 0.59375 7.65625 0.59375 7.476562 0.589844 7.292969 C 0.589844 7.179688 0.589844 7.0625 0.589844 6.949219 C 0.589844 6.890625 0.589844 6.839844 0.589844 6.78125 C 0.589844 6.730469 0.589844 6.679688 0.59375 6.628906 C 0.59375 6.582031 0.59375 6.539062 0.59375 6.492188 C 0.625 6.375 0.625 6.375 0.726562 6.265625 C 0.917969 6.164062 1.050781 6.164062 1.265625 6.160156 Z M 1.265625 6.160156 "/>
<path style=" stroke:none;fill-rule:nonzero;fill:rgb(27.843139%,21.960784%,47.058824%);fill-opacity:1;" d="M 1.265625 10.347656 C 1.347656 10.347656 1.425781 10.347656 1.507812 10.34375 C 1.59375 10.34375 1.679688 10.34375 1.765625 10.34375 C 1.855469 10.34375 1.941406 10.34375 2.03125 10.34375 C 2.21875 10.34375 2.402344 10.34375 2.589844 10.34375 C 2.828125 10.34375 3.066406 10.34375 3.304688 10.339844 C 3.484375 10.339844 3.667969 10.339844 3.851562 10.339844 C 3.941406 10.339844 4.027344 10.335938 4.117188 10.335938 C 4.238281 10.335938 4.359375 10.335938 4.484375 10.335938 C 4.554688 10.335938 4.621094 10.335938 4.695312 10.335938 C 4.875 10.375 4.875 10.375 5.023438 10.527344 C 5.125 10.6875 5.15625 10.761719 5.148438 10.949219 C 5.148438 10.992188 5.148438 11.035156 5.148438 11.078125 C 5.144531 11.132812 5.144531 11.183594 5.140625 11.238281 C 5.136719 11.40625 5.128906 11.578125 5.125 11.75 C 5.652344 11.71875 5.652344 11.71875 6.1875 11.6875 C 6.085938 11.585938 5.980469 11.480469 5.875 11.375 C 5.886719 11.230469 5.886719 11.230469 5.9375 11.125 C 6.148438 11.21875 6.292969 11.332031 6.457031 11.492188 C 6.5 11.535156 6.546875 11.578125 6.59375 11.621094 C 6.6875 11.75 6.6875 11.75 6.6875 11.871094 C 6.601562 12.046875 6.480469 12.160156 6.339844 12.296875 C 6.289062 12.347656 6.238281 12.398438 6.183594 12.449219 C 6.144531 12.484375 6.101562 12.523438 6.0625 12.5625 C 5.96875 12.53125 5.96875 12.53125 5.875 12.5 C 5.914062 12.273438 5.949219 12.238281 6.125 12.0625 C 5.792969 12.042969 5.464844 12.019531 5.125 12 C 5.125 12.351562 5.125 12.703125 5.125 13.0625 C 5.824219 13.0625 6.527344 13.0625 7.25 13.0625 C 7.246094 12.890625 7.242188 12.714844 7.242188 12.539062 C 7.238281 12.371094 7.238281 12.203125 7.234375 12.035156 C 7.234375 11.917969 7.234375 11.800781 7.230469 11.683594 C 7.226562 11.515625 7.226562 11.351562 7.226562 11.183594 C 7.222656 11.128906 7.222656 11.078125 7.222656 11.023438 C 7.222656 10.953125 7.222656 10.953125 7.222656 10.875 C 7.222656 10.835938 7.21875 10.792969 7.21875 10.746094 C 7.265625 10.566406 7.359375 10.492188 7.5 10.375 C 7.648438 10.34375 7.648438 10.34375 7.816406 10.34375 C 7.882812 10.34375 7.945312 10.34375 8.011719 10.34375 C 8.082031 10.34375 8.152344 10.34375 8.222656 10.34375 C 8.335938 10.34375 8.335938 10.34375 8.449219 10.34375 C 8.652344 10.34375 8.855469 10.34375 9.054688 10.34375 C 9.269531 10.34375 9.480469 10.34375 9.695312 10.34375 C 10.050781 10.34375 10.40625 10.34375 10.761719 10.34375 C 11.175781 10.347656 11.585938 10.347656 12 10.347656 C 12.394531 10.347656 12.792969 10.347656 13.1875 10.347656 C 13.355469 10.347656 13.523438 10.347656 13.695312 10.347656 C 13.929688 10.347656 14.164062 10.347656 14.398438 10.351562 C 14.46875 10.347656 14.539062 10.347656 14.613281 10.347656 C 14.675781 10.347656 14.742188 10.351562 14.808594 10.351562 C 14.890625 10.351562 14.890625 10.351562 14.976562 10.351562 C 15.15625 10.378906 15.242188 10.4375 15.375 10.5625 C 15.40625 10.679688 15.40625 10.679688 15.402344 10.8125 C 15.402344 10.863281 15.402344 10.914062 15.402344 10.964844 C 15.402344 11.019531 15.402344 11.074219 15.398438 11.128906 C 15.398438 11.183594 15.398438 11.238281 15.398438 11.296875 C 15.398438 11.472656 15.394531 11.648438 15.390625 11.824219 C 15.390625 11.945312 15.386719 12.0625 15.386719 12.183594 C 15.382812 12.476562 15.378906 12.769531 15.375 13.0625 C 15.4375 13.082031 15.5 13.105469 15.5625 13.125 C 15.542969 13.1875 15.519531 13.25 15.5 13.3125 C 10.550781 13.3125 5.601562 13.3125 0.5 13.3125 C 0.5 13.230469 0.5 13.148438 0.5 13.0625 C 0.539062 13.0625 0.582031 13.0625 0.625 13.0625 C 0.625 12.988281 0.621094 12.914062 0.621094 12.835938 C 0.617188 12.558594 0.613281 12.28125 0.609375 12.003906 C 0.609375 11.886719 0.609375 11.765625 0.605469 11.644531 C 0.601562 11.472656 0.601562 11.300781 0.601562 11.128906 C 0.597656 11.074219 0.597656 11.019531 0.597656 10.964844 C 0.597656 10.890625 0.597656 10.890625 0.597656 10.8125 C 0.597656 10.769531 0.59375 10.726562 0.59375 10.679688 C 0.625 10.5625 0.625 10.5625 0.726562 10.453125 C 0.917969 10.351562 1.050781 10.351562 1.265625 10.347656 Z M 0.8125 10.6875 C 0.804688 10.859375 0.800781 11.023438 0.800781 11.195312 C 0.800781 11.246094 0.800781 11.296875 0.800781 11.347656 C 0.800781 11.457031 0.800781 11.566406 0.800781 11.671875 C 0.800781 11.839844 0.800781 12.003906 0.796875 12.171875 C 0.796875 12.273438 0.796875 12.378906 0.796875 12.484375 C 0.796875 12.535156 0.796875 12.582031 0.796875 12.636719 C 0.785156 12.910156 0.785156 12.910156 0.9375 13.125 C 1.101562 13.144531 1.101562 13.144531 1.300781 13.140625 C 1.375 13.140625 1.453125 13.140625 1.53125 13.140625 C 1.613281 13.140625 1.695312 13.140625 1.777344 13.140625 C 1.863281 13.140625 1.949219 13.140625 2.035156 13.140625 C 2.210938 13.140625 2.390625 13.140625 2.570312 13.140625 C 2.796875 13.140625 3.027344 13.140625 3.253906 13.140625 C 3.429688 13.140625 3.605469 13.140625 3.78125 13.140625 C 3.90625 13.140625 4.03125 13.140625 4.15625 13.140625 C 4.234375 13.140625 4.308594 13.140625 4.386719 13.140625 C 4.453125 13.140625 4.523438 13.140625 4.589844 13.140625 C 4.761719 13.140625 4.761719 13.140625 4.875 13 C 4.886719 12.824219 4.890625 12.65625 4.890625 12.484375 C 4.890625 12.433594 4.890625 12.382812 4.890625 12.328125 C 4.890625 12.222656 4.886719 12.113281 4.886719 12.007812 C 4.886719 11.839844 4.886719 11.675781 4.886719 11.507812 C 4.886719 11.40625 4.886719 11.300781 4.886719 11.195312 C 4.886719 11.144531 4.886719 11.09375 4.886719 11.042969 C 4.90625 10.816406 4.90625 10.816406 4.8125 10.625 C 4.691406 10.617188 4.566406 10.617188 4.445312 10.617188 C 4.367188 10.617188 4.289062 10.617188 4.207031 10.617188 C 4.121094 10.617188 4.035156 10.617188 3.945312 10.617188 C 3.859375 10.617188 3.769531 10.617188 3.683594 10.617188 C 3.5 10.617188 3.3125 10.617188 3.128906 10.617188 C 2.890625 10.617188 2.652344 10.617188 2.417969 10.617188 C 2.234375 10.617188 2.054688 10.617188 1.871094 10.617188 C 1.785156 10.617188 1.695312 10.617188 1.609375 10.617188 C 1.488281 10.617188 1.363281 10.617188 1.242188 10.617188 C 1.171875 10.617188 1.101562 10.617188 1.03125 10.617188 C 0.878906 10.609375 0.878906 10.609375 0.8125 10.6875 Z M 7.5 10.6875 C 7.492188 10.859375 7.488281 11.023438 7.488281 11.195312 C 7.488281 11.246094 7.488281 11.296875 7.488281 11.347656 C 7.488281 11.457031 7.488281 11.566406 7.488281 11.671875 C 7.488281 11.839844 7.488281 12.003906 7.484375 12.171875 C 7.484375 12.273438 7.484375 12.378906 7.484375 12.484375 C 7.484375 12.535156 7.484375 12.582031 7.484375 12.636719 C 7.472656 12.910156 7.472656 12.910156 7.625 13.125 C 7.761719 13.144531 7.761719 13.144531 7.921875 13.140625 C 7.984375 13.140625 8.046875 13.140625 8.109375 13.140625 C 8.179688 13.140625 8.25 13.140625 8.320312 13.140625 C 8.429688 13.140625 8.429688 13.140625 8.539062 13.140625 C 8.777344 13.140625 9.019531 13.140625 9.257812 13.140625 C 9.425781 13.140625 9.59375 13.140625 9.757812 13.140625 C 10.105469 13.140625 10.457031 13.140625 10.804688 13.140625 C 11.210938 13.140625 11.613281 13.140625 12.015625 13.140625 C 12.363281 13.140625 12.707031 13.140625 13.054688 13.140625 C 13.261719 13.140625 13.46875 13.140625 13.675781 13.140625 C 13.90625 13.140625 14.136719 13.140625 14.367188 13.140625 C 14.4375 13.140625 14.503906 13.140625 14.578125 13.140625 C 14.640625 13.140625 14.703125 13.140625 14.765625 13.140625 C 14.847656 13.140625 14.847656 13.140625 14.929688 13.140625 C 15.074219 13.136719 15.074219 13.136719 15.1875 13 C 15.199219 12.824219 15.203125 12.65625 15.203125 12.484375 C 15.203125 12.433594 15.203125 12.382812 15.203125 12.328125 C 15.203125 12.222656 15.199219 12.113281 15.199219 12.007812 C 15.199219 11.839844 15.199219 11.675781 15.199219 11.507812 C 15.199219 11.40625 15.199219 11.300781 15.199219 11.195312 C 15.199219 11.144531 15.199219 11.09375 15.199219 11.042969 C 15.21875 10.816406 15.21875 10.816406 15.125 10.625 C 15.027344 10.617188 14.929688 10.617188 14.832031 10.617188 C 14.765625 10.617188 14.703125 10.617188 14.636719 10.617188 C 14.566406 10.617188 14.496094 10.617188 14.425781 10.617188 C 14.3125 10.617188 14.3125 10.617188 14.203125 10.617188 C 14 10.617188 13.796875 10.617188 13.59375 10.617188 C 13.382812 10.617188 13.171875 10.617188 12.960938 10.617188 C 12.601562 10.617188 12.246094 10.617188 11.894531 10.617188 C 11.480469 10.617188 11.070312 10.617188 10.660156 10.617188 C 10.304688 10.617188 9.953125 10.617188 9.601562 10.617188 C 9.390625 10.617188 9.179688 10.617188 8.96875 10.617188 C 8.734375 10.617188 8.496094 10.617188 8.261719 10.617188 C 8.15625 10.617188 8.15625 10.617188 8.050781 10.617188 C 7.953125 10.617188 7.953125 10.617188 7.855469 10.617188 C 7.800781 10.617188 7.746094 10.617188 7.6875 10.617188 C 7.5625 10.609375 7.5625 10.609375 7.5 10.6875 Z M 7.5 10.6875 "/>
<path style=" stroke:none;fill-rule:nonzero;fill:rgb(25.098041%,21.568628%,47.450981%);fill-opacity:1;" d="M 1.265625 1.972656 C 1.347656 1.972656 1.425781 1.972656 1.507812 1.96875 C 1.59375 1.96875 1.679688 1.96875 1.765625 1.96875 C 1.855469 1.96875 1.941406 1.96875 2.03125 1.96875 C 2.21875 1.96875 2.402344 1.96875 2.589844 1.96875 C 2.828125 1.96875 3.066406 1.96875 3.304688 1.964844 C 3.484375 1.964844 3.667969 1.964844 3.851562 1.964844 C 3.941406 1.964844 4.027344 1.960938 4.117188 1.960938 C 4.238281 1.960938 4.359375 1.960938 4.484375 1.960938 C 4.554688 1.960938 4.621094 1.960938 4.695312 1.960938 C 4.875 2 4.875 2 5.023438 2.152344 C 5.125 2.3125 5.15625 2.386719 5.148438 2.574219 C 5.148438 2.617188 5.148438 2.660156 5.148438 2.703125 C 5.144531 2.757812 5.144531 2.808594 5.140625 2.863281 C 5.136719 3.03125 5.128906 3.203125 5.125 3.375 C 5.652344 3.34375 5.652344 3.34375 6.1875 3.3125 C 6.085938 3.210938 5.980469 3.105469 5.875 3 C 5.886719 2.855469 5.886719 2.855469 5.9375 2.75 C 6.148438 2.84375 6.292969 2.957031 6.457031 3.117188 C 6.5 3.160156 6.546875 3.203125 6.59375 3.246094 C 6.6875 3.375 6.6875 3.375 6.6875 3.496094 C 6.601562 3.671875 6.480469 3.785156 6.339844 3.921875 C 6.289062 3.972656 6.238281 4.023438 6.183594 4.074219 C 6.144531 4.109375 6.101562 4.148438 6.0625 4.1875 C 5.96875 4.15625 5.96875 4.15625 5.875 4.125 C 5.914062 3.859375 5.972656 3.839844 6.1875 3.625 C 5.835938 3.605469 5.484375 3.582031 5.125 3.5625 C 5.128906 3.640625 5.132812 3.71875 5.132812 3.800781 C 5.136719 3.902344 5.136719 4.007812 5.140625 4.109375 C 5.144531 4.160156 5.144531 4.210938 5.148438 4.265625 C 5.148438 4.339844 5.148438 4.339844 5.148438 4.417969 C 5.152344 4.484375 5.152344 4.484375 5.152344 4.554688 C 5.113281 4.75 5.027344 4.816406 4.875 4.9375 C 4.691406 4.96875 4.691406 4.96875 4.476562 4.96875 C 4.355469 4.96875 4.355469 4.96875 4.230469 4.96875 C 4.144531 4.96875 4.054688 4.96875 3.96875 4.96875 C 3.878906 4.96875 3.789062 4.96875 3.699219 4.96875 C 3.507812 4.96875 3.320312 4.96875 3.132812 4.96875 C 2.886719 4.964844 2.644531 4.964844 2.402344 4.964844 C 2.21875 4.964844 2.03125 4.964844 1.84375 4.964844 C 1.757812 4.964844 1.667969 4.964844 1.578125 4.964844 C 1.453125 4.964844 1.328125 4.964844 1.203125 4.960938 C 1.132812 4.960938 1.0625 4.960938 0.988281 4.960938 C 0.8125 4.9375 0.8125 4.9375 0.695312 4.859375 C 0.609375 4.726562 0.601562 4.652344 0.601562 4.496094 C 0.597656 4.445312 0.597656 4.394531 0.597656 4.34375 C 0.597656 4.289062 0.597656 4.234375 0.597656 4.175781 C 0.597656 4.09375 0.597656 4.09375 0.597656 4.007812 C 0.597656 3.890625 0.597656 3.769531 0.597656 3.652344 C 0.597656 3.46875 0.597656 3.289062 0.59375 3.105469 C 0.59375 2.992188 0.59375 2.875 0.59375 2.761719 C 0.59375 2.703125 0.59375 2.652344 0.589844 2.59375 C 0.59375 2.542969 0.59375 2.492188 0.59375 2.441406 C 0.59375 2.394531 0.59375 2.351562 0.59375 2.304688 C 0.625 2.1875 0.625 2.1875 0.726562 2.078125 C 0.917969 1.976562 1.050781 1.976562 1.265625 1.972656 Z M 1.3125 2.3125 C 1.304688 2.484375 1.304688 2.652344 1.304688 2.824219 C 1.304688 2.875 1.304688 2.925781 1.304688 2.976562 C 1.304688 3.085938 1.304688 3.195312 1.304688 3.300781 C 1.304688 3.46875 1.304688 3.632812 1.304688 3.800781 C 1.304688 3.90625 1.304688 4.011719 1.304688 4.113281 C 1.304688 4.164062 1.304688 4.214844 1.304688 4.265625 C 1.28125 4.496094 1.28125 4.496094 1.375 4.6875 C 1.480469 4.695312 1.589844 4.695312 1.695312 4.695312 C 1.765625 4.695312 1.835938 4.695312 1.90625 4.695312 C 1.980469 4.695312 2.054688 4.695312 2.132812 4.695312 C 2.246094 4.695312 2.246094 4.695312 2.363281 4.695312 C 2.523438 4.695312 2.683594 4.695312 2.84375 4.695312 C 3.09375 4.695312 3.339844 4.695312 3.585938 4.695312 C 3.742188 4.695312 3.898438 4.695312 4.054688 4.695312 C 4.167969 4.695312 4.167969 4.695312 4.28125 4.695312 C 4.351562 4.695312 4.421875 4.695312 4.492188 4.695312 C 4.550781 4.695312 4.613281 4.695312 4.675781 4.695312 C 4.8125 4.703125 4.8125 4.703125 4.875 4.625 C 4.882812 4.453125 4.882812 4.285156 4.882812 4.113281 C 4.882812 4.0625 4.882812 4.011719 4.882812 3.960938 C 4.882812 3.851562 4.882812 3.742188 4.882812 3.636719 C 4.882812 3.46875 4.882812 3.304688 4.882812 3.136719 C 4.882812 3.03125 4.882812 2.925781 4.882812 2.824219 C 4.882812 2.773438 4.882812 2.722656 4.882812 2.671875 C 4.90625 2.441406 4.90625 2.441406 4.8125 2.25 C 4.707031 2.242188 4.597656 2.242188 4.492188 2.242188 C 4.421875 2.242188 4.351562 2.242188 4.28125 2.242188 C 4.171875 2.242188 4.171875 2.242188 4.054688 2.242188 C 3.941406 2.242188 3.941406 2.242188 3.824219 2.242188 C 3.664062 2.242188 3.503906 2.242188 3.34375 2.242188 C 3.09375 2.242188 2.847656 2.242188 2.597656 2.242188 C 2.445312 2.242188 2.289062 2.242188 2.132812 2.242188 C 2.054688 2.242188 1.980469 2.242188 1.90625 2.242188 C 1.835938 2.242188 1.765625 2.242188 1.695312 2.242188 C 1.636719 2.242188 1.574219 2.242188 1.511719 2.242188 C 1.375 2.234375 1.375 2.234375 1.3125 2.3125 Z M 1.3125 2.3125 "/>
<path style=" stroke:none;fill-rule:nonzero;fill:rgb(26.666668%,23.529412%,48.235294%);fill-opacity:1;" d="M 7.820312 1.96875 C 7.917969 1.96875 7.917969 1.96875 8.015625 1.96875 C 8.085938 1.96875 8.15625 1.96875 8.230469 1.96875 C 8.34375 1.96875 8.34375 1.96875 8.457031 1.96875 C 8.660156 1.96875 8.867188 1.96875 9.070312 1.96875 C 9.285156 1.96875 9.5 1.96875 9.714844 1.96875 C 10.074219 1.96875 10.433594 1.96875 10.792969 1.96875 C 11.207031 1.972656 11.625 1.972656 12.039062 1.972656 C 12.441406 1.972656 12.839844 1.972656 13.242188 1.972656 C 13.410156 1.972656 13.582031 1.972656 13.75 1.972656 C 13.988281 1.972656 14.226562 1.972656 14.464844 1.976562 C 14.535156 1.972656 14.605469 1.972656 14.679688 1.972656 C 14.742188 1.972656 14.808594 1.976562 14.875 1.976562 C 14.957031 1.976562 14.957031 1.976562 15.046875 1.976562 C 15.214844 2.003906 15.269531 2.050781 15.375 2.1875 C 15.398438 2.304688 15.398438 2.304688 15.398438 2.441406 C 15.402344 2.515625 15.402344 2.515625 15.402344 2.59375 C 15.402344 2.648438 15.402344 2.703125 15.402344 2.761719 C 15.402344 2.816406 15.402344 2.871094 15.402344 2.929688 C 15.402344 3.046875 15.402344 3.167969 15.402344 3.285156 C 15.402344 3.46875 15.40625 3.648438 15.40625 3.832031 C 15.40625 3.945312 15.40625 4.0625 15.40625 4.175781 C 15.40625 4.234375 15.40625 4.285156 15.40625 4.34375 C 15.40625 4.394531 15.40625 4.445312 15.40625 4.496094 C 15.40625 4.542969 15.40625 4.585938 15.40625 4.632812 C 15.359375 4.804688 15.273438 4.84375 15.125 4.9375 C 14.976562 4.960938 14.976562 4.960938 14.808594 4.960938 C 14.742188 4.960938 14.679688 4.964844 14.613281 4.964844 C 14.542969 4.964844 14.472656 4.964844 14.402344 4.964844 C 14.289062 4.964844 14.289062 4.964844 14.175781 4.964844 C 13.972656 4.964844 13.769531 4.964844 13.566406 4.964844 C 13.398438 4.964844 13.230469 4.964844 13.058594 4.964844 C 12.660156 4.964844 12.261719 4.964844 11.863281 4.964844 C 11.449219 4.964844 11.039062 4.964844 10.625 4.96875 C 10.273438 4.96875 9.917969 4.96875 9.566406 4.96875 C 9.351562 4.96875 9.140625 4.96875 8.929688 4.96875 C 8.695312 4.96875 8.460938 4.96875 8.222656 4.96875 C 8.121094 4.96875 8.121094 4.96875 8.011719 4.96875 C 7.949219 4.96875 7.882812 4.96875 7.816406 4.96875 C 7.761719 4.96875 7.707031 4.96875 7.648438 4.96875 C 7.453125 4.925781 7.375 4.839844 7.25 4.6875 C 7.21875 4.566406 7.21875 4.566406 7.21875 4.4375 C 7.21875 4.390625 7.214844 4.34375 7.214844 4.292969 C 7.214844 4.242188 7.214844 4.191406 7.21875 4.140625 C 7.214844 4.085938 7.214844 4.03125 7.214844 3.976562 C 7.214844 3.867188 7.214844 3.753906 7.21875 3.640625 C 7.21875 3.46875 7.21875 3.296875 7.214844 3.125 C 7.214844 3.015625 7.214844 2.90625 7.21875 2.796875 C 7.214844 2.746094 7.214844 2.695312 7.214844 2.644531 C 7.214844 2.59375 7.21875 2.546875 7.21875 2.5 C 7.21875 2.457031 7.21875 2.414062 7.21875 2.371094 C 7.300781 2.0625 7.523438 1.96875 7.820312 1.96875 Z M 7.5 2.3125 C 7.488281 2.488281 7.484375 2.65625 7.484375 2.828125 C 7.484375 2.878906 7.484375 2.929688 7.484375 2.984375 C 7.484375 3.089844 7.484375 3.199219 7.488281 3.308594 C 7.488281 3.472656 7.488281 3.636719 7.488281 3.804688 C 7.488281 3.90625 7.488281 4.011719 7.488281 4.117188 C 7.488281 4.167969 7.488281 4.21875 7.488281 4.269531 C 7.46875 4.496094 7.46875 4.496094 7.5625 4.6875 C 7.660156 4.695312 7.757812 4.695312 7.855469 4.695312 C 7.953125 4.695312 7.953125 4.695312 8.050781 4.695312 C 8.121094 4.695312 8.191406 4.695312 8.261719 4.695312 C 8.375 4.695312 8.375 4.695312 8.484375 4.695312 C 8.6875 4.695312 8.890625 4.695312 9.09375 4.695312 C 9.304688 4.695312 9.515625 4.695312 9.730469 4.695312 C 10.082031 4.695312 10.4375 4.695312 10.796875 4.695312 C 11.207031 4.695312 11.617188 4.695312 12.03125 4.695312 C 12.382812 4.695312 12.734375 4.695312 13.085938 4.695312 C 13.296875 4.695312 13.507812 4.695312 13.71875 4.695312 C 13.953125 4.695312 14.1875 4.695312 14.425781 4.695312 C 14.53125 4.695312 14.53125 4.695312 14.636719 4.695312 C 14.703125 4.695312 14.765625 4.695312 14.832031 4.695312 C 14.914062 4.695312 14.914062 4.695312 15 4.695312 C 15.125 4.703125 15.125 4.703125 15.1875 4.625 C 15.195312 4.457031 15.199219 4.289062 15.199219 4.117188 C 15.199219 4.066406 15.199219 4.015625 15.199219 3.964844 C 15.199219 3.855469 15.199219 3.746094 15.199219 3.640625 C 15.199219 3.472656 15.199219 3.308594 15.203125 3.140625 C 15.203125 3.039062 15.203125 2.933594 15.203125 2.828125 C 15.203125 2.753906 15.203125 2.753906 15.203125 2.675781 C 15.214844 2.402344 15.214844 2.402344 15.0625 2.1875 C 14.925781 2.167969 14.925781 2.167969 14.765625 2.171875 C 14.703125 2.171875 14.640625 2.171875 14.578125 2.171875 C 14.507812 2.171875 14.4375 2.171875 14.367188 2.171875 C 14.296875 2.171875 14.222656 2.171875 14.148438 2.171875 C 13.90625 2.171875 13.667969 2.171875 13.425781 2.171875 C 13.261719 2.171875 13.09375 2.171875 12.929688 2.171875 C 12.578125 2.171875 12.230469 2.171875 11.882812 2.171875 C 11.480469 2.171875 11.074219 2.171875 10.671875 2.171875 C 10.324219 2.171875 9.980469 2.171875 9.632812 2.171875 C 9.425781 2.171875 9.21875 2.171875 9.011719 2.171875 C 8.78125 2.171875 8.550781 2.171875 8.320312 2.171875 C 8.25 2.171875 8.183594 2.171875 8.109375 2.171875 C 8.046875 2.171875 7.984375 2.171875 7.921875 2.171875 C 7.867188 2.171875 7.8125 2.171875 7.757812 2.171875 C 7.609375 2.175781 7.609375 2.175781 7.5 2.3125 Z M 7.5 2.3125 "/>
<path style=" stroke:none;fill-rule:nonzero;fill:rgb(24.705882%,21.960784%,47.843137%);fill-opacity:1;" d="M 7.816406 6.15625 C 7.882812 6.15625 7.945312 6.15625 8.011719 6.15625 C 8.082031 6.15625 8.152344 6.15625 8.222656 6.15625 C 8.335938 6.15625 8.335938 6.15625 8.449219 6.15625 C 8.652344 6.15625 8.855469 6.15625 9.054688 6.15625 C 9.269531 6.15625 9.480469 6.15625 9.695312 6.15625 C 10.050781 6.15625 10.40625 6.15625 10.761719 6.15625 C 11.175781 6.160156 11.585938 6.160156 12 6.160156 C 12.394531 6.160156 12.792969 6.160156 13.1875 6.160156 C 13.355469 6.160156 13.523438 6.160156 13.695312 6.160156 C 13.929688 6.160156 14.164062 6.160156 14.398438 6.164062 C 14.46875 6.160156 14.539062 6.160156 14.613281 6.160156 C 14.675781 6.160156 14.742188 6.164062 14.808594 6.164062 C 14.890625 6.164062 14.890625 6.164062 14.976562 6.164062 C 15.15625 6.191406 15.242188 6.25 15.375 6.375 C 15.40625 6.492188 15.40625 6.492188 15.40625 6.628906 C 15.40625 6.679688 15.410156 6.730469 15.410156 6.78125 C 15.410156 6.835938 15.410156 6.890625 15.410156 6.949219 C 15.410156 7.003906 15.410156 7.058594 15.410156 7.117188 C 15.410156 7.234375 15.410156 7.355469 15.40625 7.472656 C 15.40625 7.65625 15.40625 7.835938 15.410156 8.019531 C 15.410156 8.132812 15.410156 8.25 15.410156 8.363281 C 15.410156 8.421875 15.410156 8.472656 15.410156 8.53125 C 15.410156 8.605469 15.410156 8.605469 15.40625 8.683594 C 15.40625 8.730469 15.40625 8.773438 15.40625 8.820312 C 15.359375 8.992188 15.273438 9.03125 15.125 9.125 C 14.976562 9.148438 14.976562 9.148438 14.808594 9.148438 C 14.742188 9.148438 14.679688 9.152344 14.613281 9.152344 C 14.542969 9.152344 14.472656 9.152344 14.398438 9.152344 C 14.289062 9.152344 14.289062 9.152344 14.175781 9.152344 C 13.972656 9.152344 13.769531 9.152344 13.570312 9.152344 C 13.398438 9.152344 13.230469 9.152344 13.058594 9.152344 C 12.660156 9.152344 12.261719 9.152344 11.863281 9.152344 C 11.449219 9.152344 11.039062 9.152344 10.625 9.15625 C 10.273438 9.15625 9.917969 9.15625 9.566406 9.15625 C 9.351562 9.15625 9.140625 9.15625 8.929688 9.15625 C 8.695312 9.15625 8.460938 9.15625 8.222656 9.15625 C 8.117188 9.15625 8.117188 9.15625 8.011719 9.15625 C 7.949219 9.15625 7.882812 9.15625 7.816406 9.15625 C 7.761719 9.15625 7.707031 9.15625 7.648438 9.15625 C 7.453125 9.113281 7.375 9.027344 7.25 8.875 C 7.21875 8.753906 7.21875 8.753906 7.21875 8.625 C 7.214844 8.578125 7.214844 8.53125 7.214844 8.480469 C 7.214844 8.429688 7.214844 8.378906 7.214844 8.328125 C 7.214844 8.273438 7.214844 8.21875 7.214844 8.164062 C 7.214844 8.054688 7.214844 7.941406 7.21875 7.828125 C 7.21875 7.65625 7.21875 7.484375 7.214844 7.3125 C 7.214844 7.203125 7.214844 7.09375 7.214844 6.984375 C 7.214844 6.933594 7.214844 6.882812 7.214844 6.832031 C 7.214844 6.78125 7.214844 6.734375 7.21875 6.6875 C 7.21875 6.644531 7.21875 6.601562 7.21875 6.558594 C 7.300781 6.25 7.523438 6.15625 7.816406 6.15625 Z M 7.5 6.5 C 7.488281 6.671875 7.480469 6.839844 7.484375 7.015625 C 7.484375 7.0625 7.484375 7.117188 7.484375 7.167969 C 7.484375 7.277344 7.484375 7.382812 7.484375 7.492188 C 7.484375 7.65625 7.484375 7.820312 7.484375 7.984375 C 7.484375 8.089844 7.484375 8.195312 7.484375 8.296875 C 7.484375 8.347656 7.484375 8.398438 7.484375 8.449219 C 7.472656 8.722656 7.472656 8.722656 7.625 8.9375 C 7.761719 8.957031 7.761719 8.957031 7.921875 8.953125 C 7.984375 8.953125 8.046875 8.953125 8.109375 8.953125 C 8.179688 8.953125 8.25 8.953125 8.320312 8.953125 C 8.429688 8.953125 8.429688 8.953125 8.539062 8.953125 C 8.777344 8.953125 9.019531 8.953125 9.257812 8.953125 C 9.425781 8.953125 9.59375 8.953125 9.757812 8.953125 C 10.105469 8.953125 10.457031 8.953125 10.804688 8.953125 C 11.210938 8.953125 11.613281 8.953125 12.015625 8.953125 C 12.363281 8.953125 12.707031 8.953125 13.054688 8.953125 C 13.261719 8.953125 13.46875 8.953125 13.675781 8.953125 C 13.90625 8.953125 14.136719 8.953125 14.367188 8.953125 C 14.4375 8.953125 14.503906 8.953125 14.578125 8.953125 C 14.640625 8.953125 14.703125 8.953125 14.765625 8.953125 C 14.847656 8.953125 14.847656 8.953125 14.929688 8.953125 C 15.074219 8.949219 15.074219 8.949219 15.1875 8.8125 C 15.199219 8.640625 15.203125 8.472656 15.203125 8.296875 C 15.203125 8.25 15.203125 8.199219 15.203125 8.144531 C 15.203125 8.039062 15.203125 7.929688 15.203125 7.820312 C 15.203125 7.65625 15.203125 7.492188 15.203125 7.328125 C 15.203125 7.222656 15.203125 7.117188 15.203125 7.015625 C 15.203125 6.964844 15.203125 6.914062 15.203125 6.863281 C 15.214844 6.589844 15.214844 6.589844 15.0625 6.375 C 14.925781 6.355469 14.925781 6.355469 14.765625 6.359375 C 14.703125 6.359375 14.640625 6.359375 14.578125 6.359375 C 14.507812 6.359375 14.4375 6.359375 14.367188 6.359375 C 14.296875 6.359375 14.222656 6.359375 14.148438 6.359375 C 13.90625 6.359375 13.667969 6.359375 13.429688 6.359375 C 13.261719 6.359375 13.09375 6.359375 12.929688 6.359375 C 12.578125 6.359375 12.230469 6.359375 11.882812 6.359375 C 11.476562 6.359375 11.074219 6.359375 10.671875 6.359375 C 10.324219 6.359375 9.980469 6.359375 9.632812 6.359375 C 9.425781 6.359375 9.21875 6.359375 9.011719 6.359375 C 8.78125 6.359375 8.550781 6.359375 8.320312 6.359375 C 8.25 6.359375 8.183594 6.359375 8.109375 6.359375 C 8.046875 6.359375 7.984375 6.359375 7.921875 6.359375 C 7.867188 6.359375 7.8125 6.359375 7.757812 6.359375 C 7.613281 6.363281 7.613281 6.363281 7.5 6.5 Z M 7.5 6.5 "/>
<path style=" stroke:none;fill-rule:nonzero;fill:rgb(28.627452%,25.490198%,48.627451%);fill-opacity:1;" d="M 9.640625 3.046875 C 9.722656 3.046875 9.804688 3.046875 9.890625 3.046875 C 9.980469 3.046875 10.070312 3.046875 10.160156 3.046875 C 10.253906 3.046875 10.34375 3.046875 10.4375 3.046875 C 10.628906 3.046875 10.820312 3.046875 11.015625 3.046875 C 11.261719 3.046875 11.511719 3.046875 11.757812 3.046875 C 11.949219 3.046875 12.136719 3.046875 12.328125 3.046875 C 12.417969 3.046875 12.511719 3.046875 12.601562 3.046875 C 12.730469 3.046875 12.855469 3.046875 12.984375 3.046875 C 13.09375 3.046875 13.09375 3.046875 13.203125 3.046875 C 13.375 3.0625 13.375 3.0625 13.5 3.1875 C 13.515625 3.316406 13.515625 3.316406 13.515625 3.46875 C 13.515625 3.542969 13.515625 3.542969 13.515625 3.621094 C 13.5 3.75 13.5 3.75 13.375 3.875 C 13.207031 3.890625 13.207031 3.890625 12.992188 3.890625 C 12.910156 3.890625 12.828125 3.894531 12.746094 3.894531 C 12.65625 3.894531 12.570312 3.894531 12.480469 3.894531 C 12.390625 3.894531 12.300781 3.894531 12.210938 3.894531 C 12.019531 3.894531 11.828125 3.894531 11.640625 3.894531 C 11.398438 3.894531 11.152344 3.894531 10.910156 3.898438 C 10.722656 3.898438 10.535156 3.898438 10.351562 3.898438 C 10.261719 3.898438 10.171875 3.898438 10.082031 3.898438 C 9.957031 3.898438 9.832031 3.898438 9.703125 3.898438 C 9.632812 3.898438 9.5625 3.898438 9.488281 3.898438 C 9.3125 3.875 9.3125 3.875 9.195312 3.789062 C 9.0625 3.597656 9.105469 3.414062 9.125 3.1875 C 9.296875 3.015625 9.398438 3.046875 9.640625 3.046875 Z M 9.640625 3.046875 "/>
<path style=" stroke:none;fill-rule:nonzero;fill:rgb(24.705882%,21.568628%,47.843137%);fill-opacity:1;" d="M 1.265625 6.160156 C 1.347656 6.160156 1.425781 6.160156 1.507812 6.15625 C 1.59375 6.15625 1.679688 6.15625 1.765625 6.15625 C 1.855469 6.15625 1.941406 6.15625 2.03125 6.15625 C 2.21875 6.15625 2.402344 6.15625 2.589844 6.15625 C 2.828125 6.15625 3.066406 6.15625 3.304688 6.152344 C 3.484375 6.152344 3.667969 6.152344 3.851562 6.152344 C 3.941406 6.152344 4.027344 6.148438 4.117188 6.148438 C 4.238281 6.148438 4.359375 6.148438 4.484375 6.148438 C 4.554688 6.148438 4.621094 6.148438 4.695312 6.148438 C 4.875 6.1875 4.875 6.1875 5.023438 6.339844 C 5.125 6.5 5.15625 6.574219 5.148438 6.761719 C 5.148438 6.804688 5.148438 6.847656 5.148438 6.890625 C 5.144531 6.945312 5.144531 6.996094 5.140625 7.050781 C 5.136719 7.21875 5.128906 7.390625 5.125 7.5625 C 5.652344 7.53125 5.652344 7.53125 6.1875 7.5 C 6.085938 7.398438 5.980469 7.292969 5.875 7.1875 C 5.886719 7.042969 5.886719 7.042969 5.9375 6.9375 C 6.148438 7.03125 6.292969 7.144531 6.457031 7.304688 C 6.5 7.347656 6.546875 7.390625 6.59375 7.433594 C 6.6875 7.5625 6.6875 7.5625 6.6875 7.683594 C 6.601562 7.859375 6.480469 7.972656 6.339844 8.109375 C 6.289062 8.160156 6.238281 8.210938 6.183594 8.261719 C 6.144531 8.296875 6.101562 8.335938 6.0625 8.375 C 5.96875 8.34375 5.96875 8.34375 5.875 8.3125 C 5.914062 8.046875 5.972656 8.027344 6.1875 7.8125 C 5.835938 7.792969 5.484375 7.769531 5.125 7.75 C 5.132812 8.085938 5.132812 8.085938 5.148438 8.421875 C 5.148438 8.464844 5.148438 8.503906 5.148438 8.550781 C 5.152344 8.59375 5.152344 8.636719 5.152344 8.679688 C 5.109375 8.878906 5.019531 8.980469 4.875 9.125 C 4.695312 9.164062 4.695312 9.164062 4.484375 9.164062 C 4.402344 9.164062 4.324219 9.164062 4.242188 9.164062 C 4.15625 9.164062 4.070312 9.164062 3.984375 9.160156 C 3.894531 9.160156 3.808594 9.160156 3.71875 9.160156 C 3.53125 9.160156 3.347656 9.160156 3.160156 9.160156 C 2.921875 9.15625 2.683594 9.15625 2.445312 9.15625 C 2.265625 9.15625 2.082031 9.15625 1.898438 9.15625 C 1.808594 9.15625 1.722656 9.15625 1.632812 9.15625 C 1.511719 9.15625 1.390625 9.152344 1.265625 9.152344 C 1.164062 9.152344 1.164062 9.152344 1.054688 9.148438 C 0.851562 9.121094 0.765625 9.085938 0.625 8.9375 C 0.59375 8.820312 0.59375 8.820312 0.59375 8.683594 C 0.589844 8.609375 0.589844 8.609375 0.589844 8.53125 C 0.589844 8.476562 0.589844 8.421875 0.589844 8.363281 C 0.589844 8.308594 0.589844 8.253906 0.589844 8.195312 C 0.589844 8.078125 0.589844 7.957031 0.59375 7.839844 C 0.59375 7.65625 0.59375 7.476562 0.589844 7.292969 C 0.589844 7.179688 0.589844 7.0625 0.589844 6.949219 C 0.589844 6.890625 0.589844 6.839844 0.589844 6.78125 C 0.589844 6.730469 0.589844 6.679688 0.59375 6.628906 C 0.59375 6.582031 0.59375 6.539062 0.59375 6.492188 C 0.625 6.375 0.625 6.375 0.726562 6.265625 C 0.917969 6.164062 1.050781 6.164062 1.265625 6.160156 Z M 0.8125 6.5 C 0.800781 6.671875 0.792969 6.839844 0.796875 7.015625 C 0.796875 7.0625 0.796875 7.117188 0.796875 7.167969 C 0.796875 7.277344 0.796875 7.382812 0.796875 7.492188 C 0.796875 7.65625 0.796875 7.820312 0.796875 7.984375 C 0.796875 8.089844 0.796875 8.195312 0.796875 8.296875 C 0.796875 8.347656 0.796875 8.398438 0.796875 8.449219 C 0.785156 8.722656 0.785156 8.722656 0.9375 8.9375 C 1.101562 8.957031 1.101562 8.957031 1.300781 8.953125 C 1.375 8.953125 1.453125 8.953125 1.53125 8.953125 C 1.613281 8.953125 1.695312 8.953125 1.777344 8.953125 C 1.863281 8.953125 1.949219 8.953125 2.035156 8.953125 C 2.210938 8.953125 2.390625 8.953125 2.570312 8.953125 C 2.796875 8.953125 3.027344 8.953125 3.253906 8.953125 C 3.429688 8.953125 3.605469 8.953125 3.78125 8.953125 C 3.90625 8.953125 4.03125 8.953125 4.15625 8.953125 C 4.234375 8.953125 4.308594 8.953125 4.386719 8.953125 C 4.453125 8.953125 4.523438 8.953125 4.589844 8.953125 C 4.761719 8.953125 4.761719 8.953125 4.875 8.8125 C 4.886719 8.640625 4.890625 8.472656 4.890625 8.296875 C 4.890625 8.25 4.890625 8.195312 4.890625 8.144531 C 4.890625 8.035156 4.890625 7.929688 4.890625 7.820312 C 4.890625 7.65625 4.890625 7.492188 4.890625 7.328125 C 4.890625 7.222656 4.890625 7.117188 4.890625 7.015625 C 4.890625 6.964844 4.890625 6.914062 4.890625 6.863281 C 4.902344 6.589844 4.902344 6.589844 4.75 6.375 C 4.585938 6.355469 4.585938 6.355469 4.386719 6.359375 C 4.3125 6.359375 4.234375 6.359375 4.15625 6.359375 C 4.074219 6.359375 3.992188 6.359375 3.910156 6.359375 C 3.824219 6.359375 3.738281 6.359375 3.652344 6.359375 C 3.476562 6.359375 3.296875 6.359375 3.117188 6.359375 C 2.890625 6.359375 2.660156 6.359375 2.433594 6.359375 C 2.257812 6.359375 2.082031 6.359375 1.90625 6.359375 C 1.78125 6.359375 1.65625 6.359375 1.53125 6.359375 C 1.453125 6.359375 1.378906 6.359375 1.300781 6.359375 C 1.234375 6.359375 1.164062 6.359375 1.097656 6.359375 C 0.925781 6.359375 0.925781 6.359375 0.8125 6.5 Z M 0.8125 6.5 "/>
<path style=" stroke:none;fill-rule:nonzero;fill:rgb(24.313726%,21.176471%,47.058824%);fill-opacity:1;" d="M 2.25 13.75 C 6.046875 13.75 9.839844 13.75 13.75 13.75 C 13.75 13.832031 13.75 13.914062 13.75 14 C 9.953125 14 6.160156 14 2.25 14 C 2.25 13.917969 2.25 13.835938 2.25 13.75 Z M 2.25 13.75 "/>
<path style=" stroke:none;fill-rule:nonzero;fill:rgb(89.019608%,63.137257%,17.254902%);fill-opacity:1;" d="M 9.3125 11.625 C 10.632812 11.625 11.953125 11.625 13.3125 11.625 C 13.3125 11.769531 13.3125 11.914062 13.3125 12.0625 C 11.992188 12.0625 10.671875 12.0625 9.3125 12.0625 C 9.3125 11.917969 9.3125 11.773438 9.3125 11.625 Z M 9.3125 11.625 "/>
<path style=" stroke:none;fill-rule:nonzero;fill:rgb(32.941177%,23.137255%,47.058824%);fill-opacity:1;" d="M 9.703125 11.414062 C 9.785156 11.414062 9.867188 11.414062 9.949219 11.414062 C 10.039062 11.414062 10.125 11.414062 10.214844 11.414062 C 10.304688 11.414062 10.394531 11.414062 10.488281 11.414062 C 10.675781 11.414062 10.867188 11.414062 11.054688 11.417969 C 11.296875 11.417969 11.542969 11.417969 11.785156 11.417969 C 11.972656 11.417969 12.160156 11.417969 12.347656 11.417969 C 12.4375 11.417969 12.523438 11.417969 12.617188 11.417969 C 12.742188 11.417969 12.867188 11.417969 12.992188 11.421875 C 13.097656 11.421875 13.097656 11.421875 13.207031 11.421875 C 13.375 11.4375 13.375 11.4375 13.5 11.5625 C 13.515625 11.695312 13.515625 11.695312 13.515625 11.84375 C 13.515625 11.917969 13.515625 11.917969 13.515625 11.996094 C 13.5 12.125 13.5 12.125 13.375 12.25 C 13.203125 12.265625 13.203125 12.265625 12.984375 12.265625 C 12.902344 12.265625 12.820312 12.265625 12.734375 12.265625 C 12.644531 12.265625 12.554688 12.265625 12.464844 12.265625 C 12.371094 12.265625 12.28125 12.265625 12.1875 12.265625 C 11.996094 12.265625 11.804688 12.265625 11.609375 12.265625 C 11.363281 12.265625 11.113281 12.265625 10.867188 12.265625 C 10.675781 12.265625 10.488281 12.265625 10.296875 12.265625 C 10.207031 12.265625 10.113281 12.265625 10.023438 12.265625 C 9.894531 12.265625 9.769531 12.265625 9.640625 12.265625 C 9.53125 12.265625 9.53125 12.265625 9.421875 12.265625 C 9.25 12.25 9.25 12.25 9.125 12.125 C 9.089844 11.675781 9.089844 11.675781 9.195312 11.523438 C 9.367188 11.398438 9.492188 11.414062 9.703125 11.414062 Z M 9.3125 11.625 C 9.3125 11.769531 9.3125 11.914062 9.3125 12.0625 C 10.632812 12.0625 11.953125 12.0625 13.3125 12.0625 C 13.3125 11.917969 13.3125 11.773438 13.3125 11.625 C 11.992188 11.625 10.671875 11.625 9.3125 11.625 Z M 9.3125 11.625 "/>
<path style=" stroke:none;fill-rule:nonzero;fill:rgb(89.019608%,63.137257%,17.254902%);fill-opacity:1;" d="M 9.3125 7.4375 C 10.632812 7.4375 11.953125 7.4375 13.3125 7.4375 C 13.3125 7.582031 13.3125 7.726562 13.3125 7.875 C 11.992188 7.875 10.671875 7.875 9.3125 7.875 C 9.3125 7.730469 9.3125 7.585938 9.3125 7.4375 Z M 9.3125 7.4375 "/>
<path style=" stroke:none;fill-rule:nonzero;fill:rgb(89.803922%,63.921571%,16.862746%);fill-opacity:1;" d="M 9.3125 3.25 C 10.632812 3.25 11.953125 3.25 13.3125 3.25 C 13.3125 3.394531 13.3125 3.539062 13.3125 3.6875 C 12.800781 3.6875 12.289062 3.691406 11.777344 3.691406 C 11.539062 3.691406 11.300781 3.691406 11.0625 3.691406 C 10.832031 3.691406 10.601562 3.691406 10.375 3.691406 C 10.285156 3.695312 10.199219 3.695312 10.109375 3.695312 C 9.988281 3.695312 9.867188 3.695312 9.742188 3.695312 C 9.671875 3.695312 9.605469 3.695312 9.53125 3.695312 C 9.375 3.6875 9.375 3.6875 9.3125 3.625 C 9.3125 3.5 9.3125 3.378906 9.3125 3.25 Z M 9.3125 3.25 "/>
<path style=" stroke:none;fill-rule:nonzero;fill:rgb(26.274511%,27.058825%,52.156866%);fill-opacity:1;" d="M 9.703125 7.226562 C 9.785156 7.226562 9.867188 7.226562 9.949219 7.226562 C 10.039062 7.226562 10.125 7.226562 10.214844 7.226562 C 10.304688 7.226562 10.394531 7.226562 10.488281 7.226562 C 10.675781 7.226562 10.867188 7.226562 11.054688 7.230469 C 11.296875 7.230469 11.542969 7.230469 11.785156 7.230469 C 11.972656 7.230469 12.160156 7.230469 12.347656 7.230469 C 12.4375 7.230469 12.523438 7.230469 12.617188 7.230469 C 12.742188 7.230469 12.867188 7.230469 12.992188 7.234375 C 13.097656 7.234375 13.097656 7.234375 13.207031 7.234375 C 13.375 7.25 13.375 7.25 13.5 7.375 C 13.515625 7.507812 13.515625 7.507812 13.515625 7.65625 C 13.515625 7.730469 13.515625 7.730469 13.515625 7.808594 C 13.5 7.9375 13.5 7.9375 13.375 8.0625 C 13.207031 8.078125 13.207031 8.078125 12.992188 8.078125 C 12.910156 8.082031 12.828125 8.082031 12.746094 8.082031 C 12.65625 8.082031 12.570312 8.082031 12.480469 8.082031 C 12.390625 8.082031 12.300781 8.082031 12.210938 8.082031 C 12.019531 8.082031 11.828125 8.082031 11.640625 8.082031 C 11.398438 8.082031 11.152344 8.082031 10.910156 8.085938 C 10.722656 8.085938 10.535156 8.085938 10.351562 8.085938 C 10.261719 8.085938 10.171875 8.085938 10.082031 8.085938 C 9.957031 8.085938 9.832031 8.085938 9.703125 8.085938 C 9.632812 8.085938 9.5625 8.085938 9.488281 8.085938 C 9.3125 8.0625 9.3125 8.0625 9.195312 7.980469 C 9.078125 7.800781 9.101562 7.644531 9.125 7.4375 C 9.277344 7.210938 9.445312 7.226562 9.703125 7.226562 Z M 9.3125 7.4375 C 9.3125 7.582031 9.3125 7.726562 9.3125 7.875 C 10.632812 7.875 11.953125 7.875 13.3125 7.875 C 13.3125 7.730469 13.3125 7.585938 13.3125 7.4375 C 11.992188 7.4375 10.671875 7.4375 9.3125 7.4375 Z M 9.3125 7.4375 "/>
<path style=" stroke:none;fill-rule:nonzero;fill:rgb(36.470589%,46.27451%,84.313726%);fill-opacity:1;" d="M 1.097656 6.359375 C 1.199219 6.359375 1.199219 6.359375 1.300781 6.359375 C 1.417969 6.359375 1.417969 6.359375 1.53125 6.359375 C 1.617188 6.359375 1.699219 6.363281 1.785156 6.363281 C 1.871094 6.363281 1.953125 6.363281 2.039062 6.363281 C 2.265625 6.363281 2.488281 6.363281 2.714844 6.367188 C 2.941406 6.367188 3.171875 6.367188 3.402344 6.367188 C 3.851562 6.371094 4.300781 6.371094 4.75 6.375 C 4.75 6.394531 4.75 6.417969 4.75 6.4375 C 3.636719 6.457031 2.523438 6.480469 1.375 6.5 C 1.375 7.261719 1.375 8.027344 1.375 8.8125 C 2.488281 8.832031 3.601562 8.855469 4.75 8.875 C 4.75 8.894531 4.75 8.917969 4.75 8.9375 C 4.253906 8.941406 3.761719 8.941406 3.265625 8.945312 C 3.035156 8.945312 2.804688 8.945312 2.574219 8.945312 C 2.355469 8.949219 2.132812 8.949219 1.910156 8.949219 C 1.824219 8.949219 1.742188 8.949219 1.65625 8.949219 C 1.539062 8.953125 1.417969 8.953125 1.300781 8.953125 C 1.234375 8.953125 1.167969 8.953125 1.097656 8.953125 C 0.9375 8.9375 0.9375 8.9375 0.8125 8.8125 C 0.800781 8.640625 0.792969 8.472656 0.796875 8.296875 C 0.796875 8.25 0.796875 8.195312 0.796875 8.144531 C 0.796875 8.035156 0.796875 7.929688 0.796875 7.820312 C 0.796875 7.65625 0.796875 7.492188 0.796875 7.328125 C 0.796875 7.222656 0.796875 7.117188 0.796875 7.015625 C 0.796875 6.964844 0.796875 6.914062 0.796875 6.863281 C 0.800781 6.386719 0.800781 6.386719 1.097656 6.359375 Z M 1.097656 6.359375 "/>
<path style=" stroke:none;fill-rule:nonzero;fill:rgb(43.529412%,43.137255%,46.666667%);fill-opacity:1;" d="M 1.097656 2.171875 C 1.199219 2.171875 1.199219 2.171875 1.300781 2.171875 C 1.417969 2.171875 1.417969 2.171875 1.53125 2.171875 C 1.617188 2.171875 1.699219 2.175781 1.785156 2.175781 C 1.871094 2.175781 1.953125 2.175781 2.039062 2.175781 C 2.265625 2.175781 2.488281 2.175781 2.714844 2.179688 C 2.941406 2.179688 3.171875 2.179688 3.402344 2.179688 C 3.851562 2.183594 4.300781 2.183594 4.75 2.1875 C 4.75 2.207031 4.75 2.230469 4.75 2.25 C 3.636719 2.269531 2.523438 2.292969 1.375 2.3125 C 1.375 3.074219 1.375 3.839844 1.375 4.625 C 2.488281 4.644531 3.601562 4.667969 4.75 4.6875 C 4.75 4.707031 4.75 4.730469 4.75 4.75 C 4.253906 4.753906 3.761719 4.753906 3.265625 4.757812 C 3.035156 4.757812 2.804688 4.757812 2.574219 4.757812 C 2.355469 4.761719 2.132812 4.761719 1.910156 4.761719 C 1.824219 4.761719 1.742188 4.761719 1.65625 4.761719 C 1.539062 4.765625 1.417969 4.765625 1.300781 4.765625 C 1.234375 4.765625 1.167969 4.765625 1.097656 4.765625 C 0.9375 4.75 0.9375 4.75 0.8125 4.625 C 0.800781 4.453125 0.792969 4.285156 0.796875 4.109375 C 0.796875 4.0625 0.796875 4.007812 0.796875 3.957031 C 0.796875 3.847656 0.796875 3.742188 0.796875 3.632812 C 0.796875 3.46875 0.796875 3.304688 0.796875 3.140625 C 0.796875 3.035156 0.796875 2.929688 0.796875 2.828125 C 0.796875 2.777344 0.796875 2.726562 0.796875 2.675781 C 0.800781 2.199219 0.800781 2.199219 1.097656 2.171875 Z M 1.097656 2.171875 "/>
<path style=" stroke:none;fill-rule:nonzero;fill:rgb(94.509804%,52.549022%,45.882353%);fill-opacity:1;" d="M 14.625 10.625 C 14.789062 10.625 14.953125 10.625 15.125 10.625 C 15.238281 10.738281 15.195312 10.894531 15.195312 11.046875 C 15.195312 11.09375 15.195312 11.144531 15.195312 11.199219 C 15.195312 11.25 15.195312 11.300781 15.195312 11.351562 C 15.195312 11.460938 15.195312 11.570312 15.195312 11.675781 C 15.195312 11.84375 15.195312 12.007812 15.195312 12.175781 C 15.195312 12.28125 15.195312 12.386719 15.195312 12.488281 C 15.195312 12.539062 15.195312 12.589844 15.195312 12.640625 C 15.195312 12.992188 15.195312 12.992188 15.125 13.0625 C 14.960938 13.0625 14.796875 13.0625 14.625 13.0625 C 14.625 12.257812 14.625 11.453125 14.625 10.625 Z M 14.625 10.625 "/>
<path style=" stroke:none;fill-rule:nonzero;fill:rgb(94.509804%,18.82353%,45.882353%);fill-opacity:1;" d="M 0.875 10.625 C 1.039062 10.625 1.203125 10.625 1.375 10.625 C 1.375 11.429688 1.375 12.234375 1.375 13.0625 C 1.210938 13.0625 1.046875 13.0625 0.875 13.0625 C 0.761719 12.949219 0.804688 12.792969 0.804688 12.640625 C 0.804688 12.59375 0.804688 12.542969 0.804688 12.488281 C 0.804688 12.4375 0.804688 12.386719 0.804688 12.335938 C 0.804688 12.226562 0.804688 12.117188 0.804688 12.011719 C 0.804688 11.84375 0.804688 11.679688 0.804688 11.511719 C 0.804688 11.40625 0.804688 11.300781 0.804688 11.199219 C 0.804688 11.148438 0.804688 11.097656 0.804688 11.046875 C 0.804688 10.695312 0.804688 10.695312 0.875 10.625 Z M 0.875 10.625 "/>
<path style=" stroke:none;fill-rule:nonzero;fill:rgb(38.431373%,87.450981%,89.803922%);fill-opacity:1;" d="M 14.625 6.4375 C 14.789062 6.4375 14.953125 6.4375 15.125 6.4375 C 15.238281 6.550781 15.195312 6.707031 15.195312 6.859375 C 15.195312 6.90625 15.195312 6.957031 15.195312 7.011719 C 15.195312 7.0625 15.195312 7.113281 15.195312 7.164062 C 15.195312 7.273438 15.195312 7.382812 15.195312 7.488281 C 15.195312 7.65625 15.195312 7.820312 15.195312 7.988281 C 15.195312 8.09375 15.195312 8.199219 15.195312 8.300781 C 15.195312 8.351562 15.195312 8.402344 15.195312 8.453125 C 15.195312 8.804688 15.195312 8.804688 15.125 8.875 C 14.960938 8.875 14.796875 8.875 14.625 8.875 C 14.625 8.070312 14.625 7.265625 14.625 6.4375 Z M 14.625 6.4375 "/>
<path style=" stroke:none;fill-rule:nonzero;fill:rgb(79.607844%,79.607844%,80.000001%);fill-opacity:1;" d="M 14.625 2.25 C 14.789062 2.25 14.953125 2.25 15.125 2.25 C 15.238281 2.363281 15.195312 2.519531 15.195312 2.671875 C 15.195312 2.71875 15.195312 2.769531 15.195312 2.824219 C 15.195312 2.875 15.195312 2.925781 15.195312 2.976562 C 15.195312 3.085938 15.195312 3.195312 15.195312 3.300781 C 15.195312 3.46875 15.195312 3.632812 15.195312 3.800781 C 15.195312 3.90625 15.195312 4.011719 15.195312 4.113281 C 15.195312 4.164062 15.195312 4.214844 15.195312 4.265625 C 15.195312 4.617188 15.195312 4.617188 15.125 4.6875 C 14.960938 4.6875 14.796875 4.6875 14.625 4.6875 C 14.625 3.882812 14.625 3.078125 14.625 2.25 Z M 14.625 2.25 "/>
<path style=" stroke:none;fill-rule:nonzero;fill:rgb(24.705882%,20.784314%,47.450981%);fill-opacity:1;" d="M 14.1875 13.75 C 14.621094 13.75 15.054688 13.75 15.5 13.75 C 15.5 13.832031 15.5 13.914062 15.5 14 C 15.066406 14 14.632812 14 14.1875 14 C 14.1875 13.917969 14.1875 13.835938 14.1875 13.75 Z M 14.1875 13.75 "/>
<path style=" stroke:none;fill-rule:nonzero;fill:rgb(24.705882%,20.784314%,47.058824%);fill-opacity:1;" d="M 0.5 13.75 C 0.933594 13.75 1.367188 13.75 1.8125 13.75 C 1.8125 13.832031 1.8125 13.914062 1.8125 14 C 1.378906 14 0.945312 14 0.5 14 C 0.5 13.917969 0.5 13.835938 0.5 13.75 Z M 0.5 13.75 "/>
</g>
</svg>
