<?xml version="1.0" encoding="UTF-8"?>
<svg xmlns="http://www.w3.org/2000/svg" xmlns:xlink="http://www.w3.org/1999/xlink" width="16" height="16" viewBox="0 0 16 16" version="1.1">
<g id="surface1">
<path style=" stroke:none;fill-rule:nonzero;fill:rgb(4.705882%,3.921569%,3.137255%);fill-opacity:1;" d="M 12.125 0.625 C 12.5 0.789062 12.652344 1.078125 12.8125 1.4375 C 12.828125 1.5 12.84375 1.566406 12.859375 1.628906 C 12.96875 1.882812 13.09375 1.914062 13.34375 2.015625 C 14.050781 2.339844 14.449219 2.828125 14.789062 3.519531 C 14.984375 4.042969 15.015625 4.558594 15.015625 5.113281 C 15.019531 5.253906 15.019531 5.394531 15.019531 5.535156 C 15.023438 5.753906 15.023438 5.972656 15.023438 6.191406 C 15.023438 6.40625 15.027344 6.617188 15.027344 6.832031 C 15.027344 6.929688 15.027344 6.929688 15.027344 7.027344 C 15.035156 7.570312 15.171875 8.046875 15.5625 8.4375 C 15.703125 8.53125 15.847656 8.609375 16 8.6875 C 16.03125 8.851562 16.03125 8.851562 16 9.0625 C 15.578125 9.574219 14.789062 9.71875 14.171875 9.847656 C 14.09375 9.863281 14.015625 9.882812 13.933594 9.898438 C 13.84375 9.917969 13.84375 9.917969 13.75 9.9375 C 13.75 9.996094 13.75 10.050781 13.75 10.109375 C 13.746094 10.648438 13.742188 11.1875 13.734375 11.722656 C 13.734375 12 13.730469 12.277344 13.726562 12.554688 C 13.726562 12.820312 13.722656 13.085938 13.722656 13.355469 C 13.71875 13.457031 13.71875 13.558594 13.71875 13.660156 C 13.71875 13.800781 13.714844 13.945312 13.714844 14.089844 C 13.714844 14.210938 13.714844 14.210938 13.710938 14.335938 C 13.667969 14.75 13.511719 15.035156 13.1875 15.3125 C 12.957031 15.390625 12.75 15.382812 12.511719 15.382812 C 12.460938 15.382812 12.410156 15.382812 12.355469 15.382812 C 12.1875 15.386719 12.015625 15.386719 11.847656 15.386719 C 11.726562 15.386719 11.605469 15.386719 11.484375 15.386719 C 11.152344 15.386719 10.824219 15.386719 10.492188 15.386719 C 10.285156 15.386719 10.078125 15.386719 9.875 15.386719 C 9.230469 15.390625 8.582031 15.390625 7.9375 15.390625 C 7.191406 15.390625 6.449219 15.390625 5.703125 15.394531 C 5.128906 15.394531 4.550781 15.394531 3.976562 15.394531 C 3.632812 15.394531 3.289062 15.394531 2.945312 15.398438 C 2.621094 15.398438 2.296875 15.398438 1.972656 15.398438 C 1.855469 15.398438 1.734375 15.398438 1.617188 15.398438 C 1.453125 15.398438 1.292969 15.398438 1.132812 15.398438 C 1.082031 15.398438 1.035156 15.398438 0.988281 15.398438 C 0.605469 15.394531 0.417969 15.28125 0.140625 15.03125 C -0.0742188 14.757812 -0.0429688 14.449219 -0.0390625 14.117188 C -0.0390625 14.046875 -0.0390625 13.976562 -0.0390625 13.90625 C -0.0429688 13.675781 -0.0390625 13.445312 -0.0390625 13.21875 C -0.0390625 13.058594 -0.0390625 12.898438 -0.0390625 12.738281 C -0.0390625 12.402344 -0.0390625 12.070312 -0.0390625 11.734375 C -0.0351562 11.347656 -0.0351562 10.960938 -0.0351562 10.574219 C -0.0390625 10.203125 -0.0351562 9.832031 -0.0351562 9.457031 C -0.0351562 9.300781 -0.0351562 9.140625 -0.0351562 8.984375 C -0.0351562 8.761719 -0.0351562 8.542969 -0.03125 8.320312 C -0.0351562 8.257812 -0.0351562 8.191406 -0.0351562 8.125 C -0.03125 7.75 0.00390625 7.535156 0.25 7.25 C 0.363281 7.144531 0.363281 7.144531 0.476562 7.058594 C 0.519531 7.027344 0.5625 6.996094 0.605469 6.960938 C 0.652344 6.929688 0.695312 6.898438 0.742188 6.863281 C 0.878906 6.761719 1.011719 6.664062 1.144531 6.558594 C 1.277344 6.464844 1.402344 6.386719 1.539062 6.304688 C 1.832031 6.125 2.121094 5.949219 2.234375 5.605469 C 2.304688 5.207031 2.285156 4.804688 2.269531 4.398438 C 2.265625 4.277344 2.265625 4.152344 2.265625 4.03125 C 2.261719 3.808594 2.257812 3.585938 2.25 3.363281 C 2.25 3.285156 2.25 3.207031 2.25 3.125 C 2.3125 3.0625 2.3125 3.0625 2.441406 3.058594 C 2.5 3.058594 2.558594 3.058594 2.617188 3.0625 C 2.679688 3.0625 2.746094 3.0625 2.8125 3.0625 C 2.882812 3.0625 2.953125 3.066406 3.027344 3.066406 C 3.175781 3.066406 3.324219 3.066406 3.476562 3.066406 C 3.710938 3.070312 3.945312 3.070312 4.183594 3.074219 C 5.273438 3.125 5.273438 3.125 6.214844 2.660156 C 6.277344 2.597656 6.339844 2.535156 6.402344 2.472656 C 6.5625 2.3125 6.65625 2.234375 6.875 2.1875 C 7 2.242188 7 2.242188 7.121094 2.335938 C 7.1875 2.386719 7.1875 2.386719 7.253906 2.441406 C 7.320312 2.496094 7.320312 2.496094 7.390625 2.550781 C 7.4375 2.585938 7.480469 2.621094 7.53125 2.660156 C 7.84375 2.90625 7.84375 2.90625 7.9375 3 C 8.375 3.058594 8.964844 3.132812 9.351562 2.902344 C 9.457031 2.773438 9.539062 2.640625 9.625 2.5 C 9.863281 2.242188 10.09375 2.109375 10.417969 1.988281 C 10.628906 1.898438 10.726562 1.855469 10.839844 1.652344 C 10.882812 1.53125 10.917969 1.410156 10.953125 1.285156 C 11.03125 1.019531 11.175781 0.875 11.386719 0.699219 C 11.636719 0.59375 11.855469 0.585938 12.125 0.625 Z M 12.125 0.625 "/>
<path style=" stroke:none;fill-rule:nonzero;fill:rgb(99.215686%,38.82353%,43.137255%);fill-opacity:1;" d="M 11.824219 1.984375 C 11.878906 1.984375 11.9375 1.980469 11.992188 1.980469 C 12.75 1.976562 13.371094 2.234375 13.941406 2.738281 C 14.378906 3.203125 14.695312 3.8125 14.695312 4.453125 C 14.695312 4.550781 14.695312 4.550781 14.699219 4.648438 C 14.699219 4.71875 14.699219 4.792969 14.699219 4.863281 C 14.699219 5.011719 14.703125 5.164062 14.703125 5.3125 C 14.707031 5.546875 14.707031 5.785156 14.707031 6.019531 C 14.707031 6.246094 14.710938 6.476562 14.714844 6.703125 C 14.714844 6.773438 14.714844 6.84375 14.714844 6.914062 C 14.722656 7.492188 14.835938 7.972656 15.1875 8.4375 C 15.1875 8.480469 15.1875 8.519531 15.1875 8.5625 C 15.242188 8.585938 15.242188 8.585938 15.296875 8.609375 C 15.457031 8.699219 15.5625 8.804688 15.6875 8.9375 C 15.613281 8.984375 15.539062 9.035156 15.464844 9.082031 C 15.402344 9.121094 15.402344 9.121094 15.339844 9.164062 C 14.976562 9.371094 14.621094 9.480469 14.214844 9.566406 C 14.148438 9.582031 14.148438 9.582031 14.082031 9.597656 C 13.339844 9.757812 12.609375 9.835938 11.851562 9.828125 C 11.773438 9.828125 11.691406 9.828125 11.609375 9.828125 C 10.359375 9.8125 9.160156 9.625 8.0625 9 C 8.0625 8.9375 8.0625 8.875 8.0625 8.8125 C 8.164062 8.714844 8.164062 8.714844 8.296875 8.613281 C 8.554688 8.394531 8.695312 8.1875 8.8125 7.875 C 8.832031 7.824219 8.855469 7.777344 8.875 7.726562 C 8.964844 7.402344 8.957031 7.09375 8.957031 6.761719 C 8.957031 6.613281 8.960938 6.46875 8.960938 6.320312 C 8.964844 6.089844 8.964844 5.859375 8.964844 5.628906 C 8.96875 5.40625 8.96875 5.183594 8.972656 4.960938 C 8.972656 4.890625 8.972656 4.824219 8.972656 4.753906 C 8.980469 3.96875 9.210938 3.339844 9.738281 2.746094 C 10.34375 2.175781 11.015625 1.988281 11.824219 1.984375 Z M 11.824219 1.984375 "/>
<path style=" stroke:none;fill-rule:nonzero;fill:rgb(99.215686%,88.627452%,34.901962%);fill-opacity:1;" d="M 6.75 9.375 C 7.007812 9.480469 7.191406 9.667969 7.390625 9.855469 C 7.464844 9.921875 7.535156 9.992188 7.609375 10.0625 C 7.644531 10.09375 7.679688 10.125 7.714844 10.160156 C 7.871094 10.304688 8.03125 10.441406 8.191406 10.582031 C 8.332031 10.707031 8.472656 10.832031 8.613281 10.960938 C 8.824219 11.152344 9.039062 11.332031 9.261719 11.511719 C 9.640625 11.816406 9.992188 12.152344 10.347656 12.484375 C 10.542969 12.667969 10.742188 12.847656 10.945312 13.023438 C 11.089844 13.148438 11.234375 13.277344 11.375 13.40625 C 11.5625 13.574219 11.75 13.742188 11.9375 13.90625 C 12.765625 14.628906 12.765625 14.628906 13.125 15 C 12.890625 15.152344 12.65625 15.140625 12.386719 15.140625 C 12.3125 15.140625 12.3125 15.140625 12.234375 15.140625 C 12.070312 15.140625 11.902344 15.140625 11.734375 15.140625 C 11.617188 15.140625 11.5 15.140625 11.378906 15.140625 C 11.054688 15.140625 10.730469 15.140625 10.40625 15.140625 C 10.070312 15.140625 9.730469 15.140625 9.390625 15.140625 C 8.824219 15.140625 8.253906 15.140625 7.6875 15.140625 C 7.027344 15.140625 6.371094 15.140625 5.710938 15.140625 C 5.148438 15.140625 4.582031 15.140625 4.019531 15.140625 C 3.683594 15.140625 3.34375 15.140625 3.007812 15.140625 C 2.691406 15.140625 2.375 15.140625 2.058594 15.140625 C 1.941406 15.140625 1.824219 15.140625 1.707031 15.140625 C 1.546875 15.140625 1.390625 15.140625 1.230469 15.140625 C 1.183594 15.140625 1.136719 15.140625 1.089844 15.140625 C 0.859375 15.140625 0.761719 15.132812 0.5625 15 C 0.5625 14.875 0.5625 14.875 0.648438 14.785156 C 0.691406 14.753906 0.730469 14.71875 0.773438 14.683594 C 0.976562 14.511719 1.175781 14.335938 1.375 14.15625 C 1.601562 13.953125 1.828125 13.75 2.058594 13.550781 C 2.207031 13.421875 2.355469 13.289062 2.5 13.15625 C 2.726562 12.953125 2.953125 12.75 3.183594 12.550781 C 3.328125 12.421875 3.472656 12.292969 3.613281 12.164062 C 3.835938 11.964844 4.0625 11.773438 4.292969 11.585938 C 4.53125 11.394531 4.746094 11.199219 4.957031 10.980469 C 5.109375 10.828125 5.265625 10.691406 5.425781 10.554688 C 5.578125 10.421875 5.726562 10.289062 5.875 10.15625 C 6.113281 9.941406 6.351562 9.730469 6.59375 9.519531 C 6.648438 9.472656 6.699219 9.425781 6.75 9.375 Z M 6.75 9.375 "/>
<path style=" stroke:none;fill-rule:nonzero;fill:rgb(97.254902%,96.470588%,96.862745%);fill-opacity:1;" d="M 2.5625 3.375 C 4.6875 3.375 6.8125 3.375 9 3.375 C 8.9375 3.621094 8.875 3.871094 8.8125 4.125 C 8.746094 4.125 8.683594 4.125 8.617188 4.125 C 8.007812 4.132812 7.394531 4.140625 6.785156 4.144531 C 6.472656 4.148438 6.160156 4.152344 5.847656 4.15625 C 5.542969 4.160156 5.242188 4.164062 4.9375 4.164062 C 4.824219 4.167969 4.707031 4.167969 4.59375 4.167969 C 4.429688 4.171875 4.269531 4.171875 4.109375 4.175781 C 4.058594 4.175781 4.011719 4.175781 3.960938 4.175781 C 3.742188 4.160156 3.742188 4.160156 3.5625 4.25 C 3.554688 4.34375 3.554688 4.433594 3.554688 4.527344 C 3.554688 4.582031 3.554688 4.640625 3.554688 4.695312 C 3.554688 4.753906 3.554688 4.8125 3.554688 4.875 C 3.554688 4.933594 3.554688 4.992188 3.554688 5.054688 C 3.554688 5.136719 3.554688 5.136719 3.554688 5.222656 C 3.554688 5.273438 3.554688 5.328125 3.554688 5.378906 C 3.550781 5.5 3.550781 5.5 3.625 5.5625 C 3.785156 5.570312 3.941406 5.574219 4.101562 5.574219 C 4.152344 5.578125 4.203125 5.578125 4.253906 5.578125 C 4.421875 5.578125 4.585938 5.582031 4.753906 5.582031 C 4.867188 5.582031 4.980469 5.585938 5.097656 5.585938 C 5.398438 5.589844 5.703125 5.59375 6.003906 5.59375 C 6.3125 5.597656 6.621094 5.601562 6.929688 5.605469 C 7.539062 5.613281 8.144531 5.617188 8.75 5.625 C 8.753906 5.894531 8.753906 6.164062 8.757812 6.433594 C 8.757812 6.507812 8.761719 6.585938 8.761719 6.664062 C 8.765625 7.339844 8.714844 7.914062 8.25 8.4375 C 8.089844 8.558594 7.929688 8.660156 7.75 8.75 C 7.742188 8.894531 7.742188 8.894531 7.8125 9.0625 C 8.359375 9.5625 9.234375 9.734375 9.9375 9.875 C 9.714844 10.105469 9.480469 10.316406 9.230469 10.519531 C 9.195312 10.546875 9.160156 10.578125 9.125 10.605469 C 9.042969 10.675781 8.957031 10.742188 8.875 10.8125 C 8.699219 10.730469 8.566406 10.644531 8.425781 10.511719 C 8.390625 10.480469 8.355469 10.445312 8.316406 10.410156 C 8.28125 10.375 8.242188 10.339844 8.203125 10.300781 C 8.125 10.226562 8.046875 10.152344 7.96875 10.078125 C 7.929688 10.042969 7.890625 10.007812 7.855469 9.972656 C 7.539062 9.675781 7.207031 9.398438 6.875 9.125 C 6.640625 9.222656 6.480469 9.371094 6.296875 9.542969 C 6.234375 9.597656 6.175781 9.65625 6.113281 9.714844 C 6.054688 9.765625 5.996094 9.820312 5.9375 9.875 C 5.8125 9.988281 5.683594 10.097656 5.558594 10.207031 C 5.472656 10.28125 5.386719 10.359375 5.308594 10.4375 C 5.265625 10.480469 5.21875 10.519531 5.175781 10.5625 C 5.136719 10.601562 5.097656 10.636719 5.058594 10.675781 C 4.9375 10.75 4.9375 10.75 4.796875 10.753906 C 4.546875 10.65625 4.371094 10.496094 4.167969 10.324219 C 4.078125 10.25 3.992188 10.175781 3.902344 10.101562 C 3.835938 10.046875 3.835938 10.046875 3.765625 9.988281 C 3.457031 9.738281 3.132812 9.503906 2.816406 9.265625 C 2.625 9.125 2.625 9.125 2.5625 9.0625 C 2.554688 8.886719 2.554688 8.710938 2.554688 8.53125 C 2.554688 8.449219 2.554688 8.449219 2.554688 8.363281 C 2.554688 8.179688 2.554688 7.996094 2.554688 7.8125 C 2.554688 7.699219 2.554688 7.585938 2.558594 7.472656 C 2.558594 7.054688 2.558594 6.632812 2.558594 6.214844 C 2.558594 5.277344 2.5625 4.339844 2.5625 3.375 Z M 2.5625 3.375 "/>
<path style=" stroke:none;fill-rule:nonzero;fill:rgb(99.215686%,89.019608%,34.901962%);fill-opacity:1;" d="M 0.3125 7.625 C 0.566406 7.734375 0.769531 7.90625 0.980469 8.082031 C 1.324219 8.359375 1.671875 8.632812 2.027344 8.902344 C 2.425781 9.203125 2.816406 9.515625 3.203125 9.832031 C 3.53125 10.101562 3.867188 10.359375 4.207031 10.617188 C 4.359375 10.738281 4.492188 10.859375 4.625 11 C 3.675781 11.890625 3.675781 11.890625 3.304688 12.210938 C 3.164062 12.332031 3.023438 12.460938 2.886719 12.585938 C 2.675781 12.777344 2.460938 12.957031 2.238281 13.136719 C 1.945312 13.375 1.667969 13.625 1.394531 13.882812 C 1.335938 13.9375 1.335938 13.9375 1.273438 13.996094 C 1.105469 14.152344 0.9375 14.3125 0.773438 14.46875 C 0.730469 14.507812 0.6875 14.546875 0.640625 14.589844 C 0.605469 14.625 0.570312 14.65625 0.53125 14.691406 C 0.5 14.710938 0.46875 14.730469 0.4375 14.75 C 0.375 14.730469 0.3125 14.707031 0.25 14.6875 C 0.25 13.785156 0.246094 12.882812 0.246094 11.980469 C 0.246094 11.5625 0.246094 11.140625 0.246094 10.722656 C 0.246094 10.320312 0.246094 9.914062 0.246094 9.511719 C 0.242188 9.355469 0.242188 9.203125 0.242188 9.046875 C 0.242188 8.832031 0.242188 8.617188 0.242188 8.402344 C 0.242188 8.335938 0.242188 8.273438 0.242188 8.207031 C 0.242188 8.148438 0.242188 8.089844 0.242188 8.027344 C 0.242188 7.976562 0.242188 7.925781 0.242188 7.875 C 0.25 7.75 0.25 7.75 0.3125 7.625 Z M 0.3125 7.625 "/>
<path style=" stroke:none;fill-rule:nonzero;fill:rgb(99.215686%,88.627452%,34.901962%);fill-opacity:1;" d="M 10 10.1875 C 10.152344 10.335938 10.285156 10.484375 10.414062 10.652344 C 10.679688 10.96875 11.050781 11.121094 11.4375 11.25 C 12.15625 11.3125 12.609375 11.164062 13.1875 10.75 C 13.25 10.707031 13.3125 10.667969 13.375 10.625 C 13.378906 11.144531 13.378906 11.664062 13.382812 12.183594 C 13.382812 12.425781 13.382812 12.664062 13.382812 12.90625 C 13.386719 13.140625 13.386719 13.371094 13.386719 13.605469 C 13.386719 13.691406 13.386719 13.78125 13.386719 13.871094 C 13.390625 13.996094 13.390625 14.121094 13.390625 14.242188 C 13.390625 14.3125 13.390625 14.386719 13.390625 14.457031 C 13.375 14.625 13.375 14.625 13.25 14.75 C 12.976562 14.511719 12.707031 14.273438 12.4375 14.03125 C 12.210938 13.828125 11.984375 13.625 11.753906 13.425781 C 11.609375 13.296875 11.464844 13.167969 11.324219 13.039062 C 11.113281 12.847656 10.898438 12.667969 10.675781 12.488281 C 10.335938 12.214844 10.019531 11.921875 9.707031 11.621094 C 9.476562 11.40625 9.246094 11.199219 9 11 C 9.292969 10.675781 9.644531 10.4375 10 10.1875 Z M 10 10.1875 "/>
<path style=" stroke:none;fill-rule:nonzero;fill:rgb(96.862745%,96.078432%,96.862745%);fill-opacity:1;" d="M 3.75 4.375 C 5.398438 4.375 7.050781 4.375 8.75 4.375 C 8.75 4.703125 8.75 5.035156 8.75 5.375 C 7.101562 5.375 5.449219 5.375 3.75 5.375 C 3.75 5.046875 3.75 4.714844 3.75 4.375 Z M 3.75 4.375 "/>
<path style=" stroke:none;fill-rule:nonzero;fill:rgb(85.882354%,84.705883%,91.764706%);fill-opacity:1;" d="M 2.5625 3.375 C 2.664062 3.375 2.769531 3.375 2.875 3.375 C 2.875 3.441406 2.871094 3.507812 2.871094 3.574219 C 2.859375 4.195312 2.855469 4.820312 2.855469 5.441406 C 2.851562 5.761719 2.851562 6.082031 2.84375 6.402344 C 2.839844 6.710938 2.835938 7.019531 2.839844 7.328125 C 2.839844 7.445312 2.835938 7.5625 2.832031 7.683594 C 2.800781 8.304688 2.800781 8.304688 3.023438 8.867188 C 3.257812 9.101562 3.527344 9.269531 3.8125 9.4375 C 3.902344 9.507812 3.992188 9.578125 4.082031 9.648438 C 4.117188 9.675781 4.152344 9.703125 4.1875 9.734375 C 4.257812 9.789062 4.328125 9.84375 4.398438 9.898438 C 4.574219 10.039062 4.753906 10.175781 4.9375 10.3125 C 5.183594 10.210938 5.355469 10.042969 5.546875 9.863281 C 5.613281 9.800781 5.679688 9.738281 5.746094 9.675781 C 5.796875 9.632812 5.796875 9.632812 5.84375 9.585938 C 6.003906 9.4375 6.164062 9.296875 6.328125 9.15625 C 6.398438 9.09375 6.46875 9.03125 6.539062 8.964844 C 6.6875 8.828125 6.785156 8.753906 6.988281 8.722656 C 7.25 8.757812 7.375 8.886719 7.554688 9.066406 C 7.621094 9.128906 7.6875 9.195312 7.753906 9.257812 C 7.785156 9.289062 7.816406 9.320312 7.847656 9.351562 C 7.964844 9.460938 8.082031 9.566406 8.203125 9.671875 C 8.242188 9.703125 8.28125 9.738281 8.320312 9.773438 C 8.359375 9.804688 8.398438 9.839844 8.4375 9.875 C 8.53125 9.957031 8.625 10.039062 8.71875 10.121094 C 8.761719 10.15625 8.800781 10.195312 8.84375 10.230469 C 8.875 10.257812 8.90625 10.285156 8.9375 10.3125 C 9.078125 10.246094 9.195312 10.179688 9.320312 10.085938 C 9.4375 10 9.4375 10 9.5625 10 C 9.5625 9.9375 9.5625 9.875 9.5625 9.8125 C 9.6875 9.832031 9.808594 9.855469 9.9375 9.875 C 9.714844 10.105469 9.480469 10.316406 9.230469 10.519531 C 9.195312 10.546875 9.160156 10.578125 9.125 10.605469 C 9.042969 10.675781 8.957031 10.742188 8.875 10.8125 C 8.699219 10.730469 8.566406 10.644531 8.425781 10.511719 C 8.390625 10.480469 8.355469 10.445312 8.316406 10.410156 C 8.28125 10.375 8.242188 10.339844 8.203125 10.300781 C 8.125 10.226562 8.046875 10.152344 7.96875 10.078125 C 7.929688 10.042969 7.890625 10.007812 7.855469 9.972656 C 7.539062 9.675781 7.207031 9.398438 6.875 9.125 C 6.640625 9.222656 6.480469 9.371094 6.296875 9.542969 C 6.234375 9.597656 6.175781 9.65625 6.113281 9.714844 C 6.054688 9.765625 5.996094 9.820312 5.9375 9.875 C 5.8125 9.988281 5.683594 10.097656 5.558594 10.207031 C 5.472656 10.28125 5.386719 10.359375 5.308594 10.4375 C 5.265625 10.480469 5.21875 10.519531 5.175781 10.5625 C 5.136719 10.601562 5.097656 10.636719 5.058594 10.675781 C 4.9375 10.75 4.9375 10.75 4.796875 10.753906 C 4.546875 10.65625 4.371094 10.496094 4.167969 10.324219 C 4.078125 10.25 3.992188 10.175781 3.902344 10.101562 C 3.835938 10.046875 3.835938 10.046875 3.765625 9.988281 C 3.457031 9.738281 3.132812 9.503906 2.816406 9.265625 C 2.625 9.125 2.625 9.125 2.5625 9.0625 C 2.554688 8.886719 2.554688 8.710938 2.554688 8.53125 C 2.554688 8.476562 2.554688 8.421875 2.554688 8.363281 C 2.554688 8.179688 2.554688 7.996094 2.554688 7.8125 C 2.554688 7.683594 2.558594 7.558594 2.558594 7.429688 C 2.558594 7.09375 2.558594 6.757812 2.558594 6.421875 C 2.558594 6.078125 2.558594 5.734375 2.558594 5.394531 C 2.558594 4.71875 2.5625 4.046875 2.5625 3.375 Z M 2.5625 3.375 "/>
<path style=" stroke:none;fill-rule:nonzero;fill:rgb(96.078432%,78.823531%,34.117648%);fill-opacity:1;" d="M 1.3125 14.25 C 1.332031 14.292969 1.355469 14.332031 1.375 14.375 C 1.332031 14.355469 1.292969 14.332031 1.25 14.3125 C 1.269531 14.292969 1.292969 14.269531 1.3125 14.25 Z M 1.125 14.375 C 1.167969 14.394531 1.207031 14.417969 1.25 14.4375 C 1.167969 14.539062 1.085938 14.644531 1 14.75 C 1.0625 14.75 1.121094 14.75 1.1875 14.75 C 2.675781 14.742188 4.167969 14.738281 5.660156 14.738281 C 6.378906 14.734375 7.101562 14.734375 7.824219 14.730469 C 8.453125 14.730469 9.078125 14.726562 9.707031 14.726562 C 10.042969 14.726562 10.375 14.726562 10.707031 14.722656 C 11.019531 14.722656 11.332031 14.722656 11.644531 14.722656 C 11.761719 14.722656 11.875 14.722656 11.992188 14.71875 C 12.148438 14.71875 12.304688 14.71875 12.460938 14.71875 C 12.507812 14.71875 12.554688 14.71875 12.601562 14.71875 C 12.726562 14.71875 12.726562 14.71875 12.9375 14.75 C 13.0625 14.875 13.0625 14.875 13.125 15 C 12.890625 15.152344 12.65625 15.140625 12.386719 15.140625 C 12.335938 15.140625 12.285156 15.140625 12.234375 15.140625 C 12.070312 15.140625 11.902344 15.140625 11.734375 15.140625 C 11.617188 15.140625 11.5 15.140625 11.378906 15.140625 C 11.054688 15.140625 10.730469 15.140625 10.40625 15.140625 C 10.070312 15.140625 9.730469 15.140625 9.390625 15.140625 C 8.824219 15.140625 8.253906 15.140625 7.6875 15.140625 C 7.027344 15.140625 6.371094 15.140625 5.710938 15.140625 C 5.148438 15.140625 4.582031 15.140625 4.019531 15.140625 C 3.683594 15.140625 3.34375 15.140625 3.007812 15.140625 C 2.691406 15.140625 2.375 15.140625 2.058594 15.140625 C 1.941406 15.140625 1.824219 15.140625 1.707031 15.140625 C 1.546875 15.140625 1.390625 15.140625 1.230469 15.140625 C 1.160156 15.140625 1.160156 15.140625 1.089844 15.140625 C 0.859375 15.140625 0.761719 15.132812 0.5625 15 C 0.5625 14.957031 0.5625 14.917969 0.5625 14.875 C 0.667969 14.769531 0.667969 14.769531 0.808594 14.652344 C 0.875 14.59375 0.875 14.59375 0.945312 14.535156 C 0.984375 14.503906 1.023438 14.46875 1.0625 14.4375 C 1.082031 14.417969 1.105469 14.394531 1.125 14.375 Z M 1.125 14.375 "/>
<path style=" stroke:none;fill-rule:nonzero;fill:rgb(96.078432%,27.058825%,32.156864%);fill-opacity:1;" d="M 10.125 2.4375 C 10.167969 2.457031 10.207031 2.480469 10.25 2.5 C 10.1875 2.542969 10.121094 2.585938 10.054688 2.632812 C 9.675781 2.953125 9.472656 3.523438 9.375 4 C 9.367188 4.101562 9.367188 4.207031 9.363281 4.308594 C 9.363281 4.402344 9.363281 4.402344 9.363281 4.496094 C 9.363281 4.5625 9.363281 4.628906 9.363281 4.695312 C 9.359375 4.835938 9.359375 4.976562 9.355469 5.117188 C 9.355469 5.339844 9.351562 5.5625 9.351562 5.78125 C 9.347656 5.996094 9.34375 6.210938 9.34375 6.425781 C 9.34375 6.492188 9.34375 6.554688 9.34375 6.625 C 9.328125 7.433594 9.15625 8.007812 8.601562 8.59375 C 8.566406 8.625 8.535156 8.65625 8.5 8.6875 C 9.546875 9.300781 10.824219 9.398438 12.015625 9.394531 C 12.058594 9.394531 12.097656 9.394531 12.144531 9.394531 C 13.273438 9.386719 14.46875 9.265625 15.5 8.75 C 15.5625 8.8125 15.625 8.875 15.6875 8.9375 C 15.613281 8.984375 15.539062 9.035156 15.464844 9.082031 C 15.402344 9.121094 15.402344 9.121094 15.339844 9.164062 C 14.976562 9.371094 14.621094 9.480469 14.214844 9.566406 C 14.148438 9.582031 14.148438 9.582031 14.082031 9.597656 C 13.339844 9.757812 12.609375 9.835938 11.851562 9.828125 C 11.773438 9.828125 11.691406 9.828125 11.609375 9.828125 C 10.359375 9.8125 9.160156 9.625 8.0625 9 C 8.0625 8.9375 8.0625 8.875 8.0625 8.8125 C 8.164062 8.714844 8.164062 8.714844 8.296875 8.613281 C 8.554688 8.394531 8.695312 8.1875 8.8125 7.875 C 8.832031 7.824219 8.855469 7.777344 8.875 7.726562 C 8.964844 7.402344 8.957031 7.09375 8.957031 6.761719 C 8.957031 6.613281 8.960938 6.46875 8.960938 6.320312 C 8.964844 6.089844 8.964844 5.859375 8.964844 5.628906 C 8.96875 5.40625 8.96875 5.183594 8.972656 4.960938 C 8.972656 4.890625 8.972656 4.824219 8.972656 4.753906 C 8.984375 3.972656 9.203125 3.296875 9.765625 2.734375 C 9.882812 2.632812 10 2.53125 10.125 2.4375 Z M 10.125 2.4375 "/>
<path style=" stroke:none;fill-rule:nonzero;fill:rgb(98.039216%,80.392158%,34.901962%);fill-opacity:1;" d="M 0.3125 7.625 C 0.554688 7.734375 0.554688 7.734375 0.625 7.875 C 0.628906 7.960938 0.632812 8.046875 0.628906 8.132812 C 0.628906 8.1875 0.628906 8.238281 0.628906 8.296875 C 0.628906 8.355469 0.628906 8.414062 0.625 8.472656 C 0.625 8.535156 0.625 8.597656 0.625 8.664062 C 0.621094 8.871094 0.621094 9.074219 0.617188 9.28125 C 0.617188 9.425781 0.613281 9.566406 0.613281 9.710938 C 0.609375 10.085938 0.605469 10.460938 0.601562 10.839844 C 0.59375 11.222656 0.59375 11.605469 0.585938 11.988281 C 0.578125 12.742188 0.570312 13.496094 0.5625 14.25 C 0.660156 14.171875 0.761719 14.09375 0.859375 14.011719 C 0.914062 13.96875 0.96875 13.925781 1.027344 13.878906 C 1.238281 13.707031 1.4375 13.527344 1.632812 13.339844 C 1.707031 13.269531 1.785156 13.199219 1.859375 13.128906 C 1.894531 13.09375 1.929688 13.0625 1.964844 13.027344 C 2.121094 12.882812 2.28125 12.742188 2.441406 12.605469 C 2.589844 12.476562 2.730469 12.347656 2.875 12.21875 C 3.101562 12.015625 3.328125 11.8125 3.558594 11.613281 C 3.65625 11.527344 3.753906 11.4375 3.847656 11.351562 C 3.929688 11.273438 3.929688 11.273438 4.015625 11.195312 C 4.066406 11.148438 4.117188 11.101562 4.167969 11.050781 C 4.308594 10.941406 4.390625 10.898438 4.5625 10.875 C 4.5625 11.0625 4.5625 11.0625 4.488281 11.152344 C 4.457031 11.183594 4.421875 11.210938 4.390625 11.242188 C 4.351562 11.277344 4.316406 11.3125 4.277344 11.34375 C 4.238281 11.382812 4.199219 11.417969 4.15625 11.453125 C 4.117188 11.488281 4.074219 11.527344 4.035156 11.5625 C 3.792969 11.78125 3.550781 11.996094 3.308594 12.207031 C 3.164062 12.332031 3.027344 12.460938 2.886719 12.585938 C 2.675781 12.777344 2.460938 12.957031 2.238281 13.136719 C 1.945312 13.375 1.667969 13.625 1.394531 13.882812 C 1.335938 13.9375 1.335938 13.9375 1.273438 13.996094 C 1.105469 14.152344 0.9375 14.3125 0.773438 14.46875 C 0.730469 14.507812 0.6875 14.546875 0.640625 14.589844 C 0.605469 14.625 0.570312 14.65625 0.53125 14.691406 C 0.5 14.710938 0.46875 14.730469 0.4375 14.75 C 0.375 14.730469 0.3125 14.707031 0.25 14.6875 C 0.25 13.785156 0.246094 12.882812 0.246094 11.980469 C 0.246094 11.5625 0.246094 11.140625 0.246094 10.722656 C 0.246094 10.320312 0.246094 9.914062 0.246094 9.511719 C 0.242188 9.355469 0.242188 9.203125 0.242188 9.046875 C 0.242188 8.832031 0.242188 8.617188 0.242188 8.402344 C 0.242188 8.335938 0.242188 8.273438 0.242188 8.207031 C 0.242188 8.148438 0.242188 8.089844 0.242188 8.027344 C 0.242188 7.976562 0.242188 7.925781 0.242188 7.875 C 0.25 7.75 0.25 7.75 0.3125 7.625 Z M 0.3125 7.625 "/>
<path style=" stroke:none;fill-rule:nonzero;fill:rgb(98.039216%,80.392158%,34.901962%);fill-opacity:1;" d="M 9.625 10.4375 C 9.667969 10.457031 9.707031 10.480469 9.75 10.5 C 9.667969 10.601562 9.585938 10.707031 9.5 10.8125 C 9.929688 11.203125 9.929688 11.203125 10.367188 11.585938 C 10.546875 11.742188 10.71875 11.898438 10.890625 12.058594 C 11.167969 12.3125 11.445312 12.5625 11.738281 12.796875 C 11.972656 12.984375 12.1875 13.179688 12.394531 13.394531 C 12.617188 13.621094 12.859375 13.835938 13.113281 14.019531 C 13.300781 14.15625 13.371094 14.21875 13.40625 14.449219 C 13.375 14.625 13.375 14.625 13.25 14.75 C 12.976562 14.511719 12.707031 14.273438 12.4375 14.03125 C 12.210938 13.828125 11.984375 13.625 11.753906 13.425781 C 11.609375 13.296875 11.464844 13.167969 11.324219 13.039062 C 11.113281 12.847656 10.898438 12.667969 10.675781 12.488281 C 10.335938 12.214844 10.019531 11.921875 9.707031 11.621094 C 9.476562 11.40625 9.246094 11.199219 9 11 C 9.199219 10.796875 9.398438 10.609375 9.625 10.4375 Z M 9.625 10.4375 "/>
<path style=" stroke:none;fill-rule:nonzero;fill:rgb(75.686276%,74.901962%,80.784315%);fill-opacity:1;" d="M 3.75 4.375 C 5.398438 4.375 7.050781 4.375 8.75 4.375 C 8.75 4.703125 8.75 5.035156 8.75 5.375 C 7.101562 5.375 5.449219 5.375 3.75 5.375 C 3.75 5.046875 3.75 4.714844 3.75 4.375 Z M 4.125 4.4375 C 4.125 4.625 4.125 4.808594 4.125 5 C 5.628906 5 7.136719 5 8.6875 5 C 8.6875 4.8125 8.6875 4.628906 8.6875 4.4375 C 7.183594 4.4375 5.675781 4.4375 4.125 4.4375 Z M 4.125 4.4375 "/>
<path style=" stroke:none;fill-rule:nonzero;fill:rgb(95.294118%,27.058825%,32.156864%);fill-opacity:1;" d="M 10.25 9.9375 C 10.289062 9.941406 10.328125 9.945312 10.367188 9.949219 C 10.871094 10.003906 11.371094 10.007812 11.878906 10.007812 C 11.960938 10.007812 12.042969 10.007812 12.125 10.007812 C 12.566406 10.007812 13 9.992188 13.4375 9.9375 C 13.355469 10.308594 13.164062 10.519531 12.875 10.75 C 12.410156 11.039062 11.964844 11.125 11.421875 11.039062 C 10.992188 10.925781 10.660156 10.648438 10.375 10.3125 C 10.292969 10.105469 10.292969 10.105469 10.25 9.9375 Z M 10.25 9.9375 "/>
<path style=" stroke:none;fill-rule:nonzero;fill:rgb(98.823529%,88.235295%,34.901962%);fill-opacity:1;" d="M 2.25 6.125 C 2.25 6.992188 2.25 7.859375 2.25 8.75 C 1.9375 8.570312 1.707031 8.425781 1.441406 8.195312 C 1.183594 7.976562 0.921875 7.765625 0.644531 7.574219 C 0.617188 7.546875 0.589844 7.523438 0.5625 7.5 C 0.5625 7.457031 0.5625 7.417969 0.5625 7.375 C 0.652344 7.292969 0.652344 7.292969 0.773438 7.199219 C 0.820312 7.167969 0.867188 7.132812 0.910156 7.097656 C 0.960938 7.0625 1.007812 7.027344 1.058594 6.988281 C 1.15625 6.914062 1.253906 6.839844 1.351562 6.769531 C 1.398438 6.734375 1.445312 6.699219 1.496094 6.660156 C 1.699219 6.507812 1.898438 6.351562 2.09375 6.191406 C 2.1875 6.125 2.1875 6.125 2.25 6.125 Z M 2.25 6.125 "/>
<path style=" stroke:none;fill-rule:nonzero;fill:rgb(80.784315%,80.000001%,86.666667%);fill-opacity:1;" d="M 4.003906 6.859375 C 4.070312 6.859375 4.136719 6.859375 4.203125 6.859375 C 4.3125 6.859375 4.3125 6.859375 4.421875 6.859375 C 4.53125 6.859375 4.53125 6.859375 4.640625 6.859375 C 4.796875 6.859375 4.949219 6.859375 5.105469 6.859375 C 5.34375 6.859375 5.578125 6.859375 5.816406 6.859375 C 5.96875 6.859375 6.117188 6.859375 6.265625 6.859375 C 6.339844 6.859375 6.410156 6.859375 6.484375 6.859375 C 6.582031 6.859375 6.582031 6.859375 6.683594 6.859375 C 6.742188 6.859375 6.800781 6.859375 6.859375 6.859375 C 7 6.875 7 6.875 7.125 7 C 7.121094 7.152344 7.121094 7.152344 7.0625 7.3125 C 6.765625 7.574219 6.410156 7.523438 6.039062 7.519531 C 5.96875 7.519531 5.902344 7.519531 5.828125 7.519531 C 5.683594 7.519531 5.539062 7.519531 5.394531 7.515625 C 5.171875 7.515625 4.949219 7.515625 4.726562 7.515625 C 4.585938 7.515625 4.445312 7.511719 4.304688 7.511719 C 4.203125 7.511719 4.203125 7.511719 4.101562 7.511719 C 4.007812 7.511719 4.007812 7.511719 3.914062 7.511719 C 3.859375 7.507812 3.804688 7.507812 3.75 7.507812 C 3.625 7.5 3.625 7.5 3.5625 7.4375 C 3.550781 7.222656 3.550781 7.222656 3.5625 7 C 3.722656 6.839844 3.78125 6.859375 4.003906 6.859375 Z M 4.003906 6.859375 "/>
<path style=" stroke:none;fill-rule:nonzero;fill:rgb(87.450981%,86.274511%,92.941177%);fill-opacity:1;" d="M 4.242188 3.730469 C 4.292969 3.730469 4.339844 3.730469 4.394531 3.730469 C 4.558594 3.730469 4.722656 3.730469 4.890625 3.730469 C 5.003906 3.730469 5.117188 3.734375 5.234375 3.734375 C 5.535156 3.734375 5.835938 3.734375 6.136719 3.738281 C 6.445312 3.738281 6.753906 3.738281 7.0625 3.742188 C 7.667969 3.742188 8.269531 3.746094 8.875 3.75 C 8.855469 3.875 8.832031 3.996094 8.8125 4.125 C 8.746094 4.125 8.683594 4.125 8.617188 4.125 C 8.007812 4.132812 7.398438 4.140625 6.789062 4.144531 C 6.476562 4.148438 6.164062 4.152344 5.851562 4.15625 C 5.546875 4.160156 5.246094 4.164062 4.945312 4.164062 C 4.828125 4.167969 4.714844 4.167969 4.597656 4.167969 C 4.4375 4.171875 4.277344 4.171875 4.117188 4.175781 C 4.042969 4.175781 4.042969 4.175781 3.96875 4.175781 C 3.726562 4.175781 3.726562 4.175781 3.5 4.25 C 3.519531 4.09375 3.542969 3.96875 3.628906 3.835938 C 3.820312 3.703125 4.019531 3.726562 4.242188 3.730469 Z M 4.242188 3.730469 "/>
<path style=" stroke:none;fill-rule:nonzero;fill:rgb(99.215686%,38.82353%,43.137255%);fill-opacity:1;" d="M 13.3125 10 C 13.046875 10.382812 12.765625 10.578125 12.3125 10.6875 C 11.816406 10.761719 11.464844 10.667969 11.0625 10.375 C 10.902344 10.234375 10.902344 10.234375 10.8125 10.125 C 10.8125 10.105469 10.8125 10.082031 10.8125 10.0625 C 11.089844 10.054688 11.363281 10.042969 11.640625 10.035156 C 11.734375 10.03125 11.828125 10.03125 11.921875 10.027344 C 12.054688 10.023438 12.191406 10.019531 12.328125 10.015625 C 12.40625 10.011719 12.488281 10.007812 12.570312 10.003906 C 12.820312 10 13.066406 10 13.3125 10 Z M 13.3125 10 "/>
<path style=" stroke:none;fill-rule:nonzero;fill:rgb(83.529413%,82.352942%,89.411765%);fill-opacity:1;" d="M 3.839844 6.046875 C 3.929688 6.046875 3.929688 6.046875 4.027344 6.046875 C 4.09375 6.046875 4.160156 6.046875 4.226562 6.046875 C 4.300781 6.050781 4.367188 6.050781 4.441406 6.050781 C 4.546875 6.050781 4.546875 6.050781 4.65625 6.050781 C 5.179688 6.054688 5.179688 6.054688 5.25 6.125 C 5.261719 6.308594 5.261719 6.308594 5.25 6.5 C 5.082031 6.667969 4.957031 6.683594 4.726562 6.695312 C 4.644531 6.695312 4.644531 6.695312 4.5625 6.695312 C 4.503906 6.695312 4.445312 6.691406 4.386719 6.691406 C 4.324219 6.691406 4.265625 6.691406 4.203125 6.691406 C 4.109375 6.691406 4.109375 6.691406 4.015625 6.691406 C 3.867188 6.691406 3.714844 6.6875 3.5625 6.6875 C 3.550781 6.308594 3.550781 6.308594 3.5625 6.1875 C 3.6875 6.0625 3.6875 6.0625 3.839844 6.046875 Z M 3.839844 6.046875 "/>
<path style=" stroke:none;fill-rule:nonzero;fill:rgb(95.294118%,26.666668%,32.156864%);fill-opacity:1;" d="M 12.125 0.9375 C 12.367188 1.179688 12.5625 1.402344 12.5625 1.75 C 12.089844 1.75 11.613281 1.75 11.125 1.75 C 11.195312 1.398438 11.308594 1.199219 11.550781 0.941406 C 11.765625 0.835938 11.898438 0.871094 12.125 0.9375 Z M 12.125 0.9375 "/>
<path style=" stroke:none;fill-rule:nonzero;fill:rgb(97.254902%,79.607844%,34.509805%);fill-opacity:1;" d="M 1.1875 6.875 C 1.230469 6.894531 1.269531 6.917969 1.3125 6.9375 C 1.210938 7.0625 1.105469 7.183594 1 7.3125 C 1.054688 7.339844 1.054688 7.339844 1.113281 7.363281 C 1.242188 7.433594 1.347656 7.503906 1.460938 7.59375 C 1.519531 7.640625 1.519531 7.640625 1.578125 7.6875 C 1.617188 7.71875 1.65625 7.75 1.695312 7.78125 C 1.734375 7.8125 1.773438 7.84375 1.816406 7.875 C 1.96875 7.996094 2.113281 8.113281 2.25 8.25 C 2.265625 8.417969 2.253906 8.582031 2.25 8.75 C 1.910156 8.578125 1.632812 8.359375 1.34375 8.113281 C 1.117188 7.921875 0.886719 7.742188 0.644531 7.574219 C 0.617188 7.546875 0.589844 7.523438 0.5625 7.5 C 0.5625 7.457031 0.5625 7.417969 0.5625 7.375 C 0.664062 7.285156 0.769531 7.199219 0.875 7.117188 C 0.933594 7.070312 0.992188 7.027344 1.050781 6.980469 C 1.09375 6.945312 1.140625 6.910156 1.1875 6.875 Z M 1.1875 6.875 "/>
<path style=" stroke:none;fill-rule:nonzero;fill:rgb(11.372549%,11.372549%,11.764706%);fill-opacity:1;" d="M 3.5625 7.25 C 4.636719 7.25 5.707031 7.25 6.8125 7.25 C 6.792969 7.332031 6.769531 7.414062 6.75 7.5 C 5.71875 7.5 4.6875 7.5 3.625 7.5 C 3.605469 7.417969 3.582031 7.335938 3.5625 7.25 Z M 3.5625 7.25 "/>
<path style=" stroke:none;fill-rule:nonzero;fill:rgb(92.941177%,76.862746%,32.941177%);fill-opacity:1;" d="M 6.871094 2.570312 C 7.035156 2.640625 7.15625 2.734375 7.296875 2.84375 C 7.347656 2.882812 7.398438 2.921875 7.449219 2.960938 C 7.484375 2.996094 7.523438 3.027344 7.5625 3.0625 C 7.5625 3.082031 7.5625 3.105469 7.5625 3.125 C 7.066406 3.125 6.574219 3.125 6.0625 3.125 C 6.359375 2.828125 6.359375 2.828125 6.53125 2.699219 C 6.566406 2.671875 6.601562 2.644531 6.640625 2.617188 C 6.75 2.5625 6.75 2.5625 6.871094 2.570312 Z M 6.871094 2.570312 "/>
<path style=" stroke:none;fill-rule:nonzero;fill:rgb(8.235294%,8.235294%,8.235294%);fill-opacity:1;" d="M 3.5625 6.4375 C 4.015625 6.4375 4.46875 6.4375 4.9375 6.4375 C 4.917969 6.519531 4.894531 6.601562 4.875 6.6875 C 4.441406 6.6875 4.007812 6.6875 3.5625 6.6875 C 3.5625 6.605469 3.5625 6.523438 3.5625 6.4375 Z M 3.5625 6.4375 "/>
<path style=" stroke:none;fill-rule:nonzero;fill:rgb(95.294118%,36.470589%,40.784314%);fill-opacity:1;" d="M 11.6875 0.875 C 12.082031 0.90625 12.082031 0.90625 12.277344 1.054688 C 12.375 1.1875 12.375 1.1875 12.375 1.375 C 12.085938 1.375 11.796875 1.375 11.5 1.375 C 11.5625 1.210938 11.625 1.046875 11.6875 0.875 Z M 11.6875 0.875 "/>
<path style=" stroke:none;fill-rule:nonzero;fill:rgb(82.352942%,81.176472%,87.843138%);fill-opacity:1;" d="M 8.625 7.625 C 8.644531 7.667969 8.667969 7.707031 8.6875 7.75 C 8.488281 8.226562 8.195312 8.507812 7.75 8.75 C 7.730469 8.6875 7.707031 8.625 7.6875 8.5625 C 7.824219 8.414062 7.949219 8.304688 8.121094 8.199219 C 8.355469 8.03125 8.46875 7.863281 8.625 7.625 Z M 8.625 7.625 "/>
<path style=" stroke:none;fill-rule:nonzero;fill:rgb(97.647059%,33.725491%,38.431373%);fill-opacity:1;" d="M 10.3125 2.3125 C 10.355469 2.3125 10.394531 2.3125 10.4375 2.3125 C 10.34375 2.527344 10.222656 2.664062 10.054688 2.828125 C 10.007812 2.871094 9.964844 2.917969 9.917969 2.960938 C 9.882812 2.996094 9.847656 3.027344 9.8125 3.0625 C 9.792969 3 9.769531 2.9375 9.75 2.875 C 9.78125 2.851562 9.808594 2.824219 9.839844 2.800781 C 9.878906 2.765625 9.921875 2.734375 9.960938 2.699219 C 10 2.667969 10.039062 2.632812 10.078125 2.601562 C 10.203125 2.496094 10.203125 2.496094 10.3125 2.3125 Z M 10.3125 2.3125 "/>
</g>
</svg>
