<?xml version="1.0" encoding="UTF-8"?>
<svg xmlns="http://www.w3.org/2000/svg" xmlns:xlink="http://www.w3.org/1999/xlink" width="16" height="16" viewBox="0 0 16 16" version="1.1">
<g id="surface1">
<path style=" stroke:none;fill-rule:nonzero;fill:rgb(64.705884%,83.529413%,96.862745%);fill-opacity:1;" d="M 9.4375 0.1875 C 11.542969 0.1875 13.644531 0.1875 15.8125 0.1875 C 15.8125 0.875 15.816406 1.566406 15.816406 2.277344 C 15.816406 2.496094 15.816406 2.714844 15.816406 2.9375 C 15.816406 3.109375 15.820312 3.28125 15.820312 3.453125 C 15.820312 3.496094 15.820312 3.542969 15.820312 3.589844 C 15.820312 3.71875 15.820312 3.851562 15.820312 3.984375 C 15.820312 4.058594 15.820312 4.132812 15.820312 4.207031 C 15.8125 4.375 15.8125 4.375 15.75 4.4375 C 15.566406 4.441406 15.382812 4.445312 15.195312 4.445312 C 15.113281 4.445312 15.113281 4.445312 15.03125 4.441406 C 14.851562 4.441406 14.671875 4.441406 14.496094 4.441406 C 14.375 4.441406 14.253906 4.441406 14.136719 4.441406 C 13.839844 4.441406 13.546875 4.4375 13.25 4.4375 C 13.28125 4.683594 13.28125 4.683594 13.3125 4.9375 C 13.539062 5.019531 13.765625 5.101562 14 5.1875 C 14 5.289062 14 5.394531 14 5.5 C 13.980469 5.519531 13.957031 5.542969 13.9375 5.5625 C 13.703125 5.539062 13.46875 5.503906 13.234375 5.464844 C 12.722656 5.375 12.316406 5.394531 11.8125 5.5 C 11.625 5.523438 11.4375 5.542969 11.25 5.5625 C 11.210938 5.449219 11.210938 5.449219 11.1875 5.3125 C 11.332031 5.09375 11.386719 5.085938 11.632812 5.019531 C 11.691406 5.003906 11.746094 4.988281 11.804688 4.972656 C 11.847656 4.960938 11.890625 4.949219 11.9375 4.9375 C 11.957031 4.773438 11.980469 4.609375 12 4.4375 C 11.925781 4.4375 11.851562 4.4375 11.773438 4.4375 C 11.496094 4.441406 11.21875 4.441406 10.9375 4.445312 C 10.816406 4.445312 10.699219 4.445312 10.578125 4.445312 C 10.40625 4.449219 10.230469 4.449219 10.058594 4.449219 C 10.003906 4.449219 9.953125 4.453125 9.894531 4.453125 C 9.765625 4.453125 9.632812 4.445312 9.5 4.4375 C 9.375 4.3125 9.375 4.3125 9.359375 4.144531 C 9.359375 4.039062 9.359375 4.039062 9.359375 3.933594 C 9.359375 3.851562 9.359375 3.773438 9.359375 3.691406 C 9.359375 3.605469 9.359375 3.515625 9.359375 3.429688 C 9.359375 3.339844 9.359375 3.25 9.359375 3.160156 C 9.359375 2.976562 9.359375 2.789062 9.363281 2.601562 C 9.363281 2.359375 9.363281 2.121094 9.363281 1.878906 C 9.363281 1.695312 9.363281 1.511719 9.363281 1.328125 C 9.363281 1.238281 9.363281 1.152344 9.363281 1.0625 C 9.363281 0.9375 9.363281 0.816406 9.367188 0.691406 C 9.367188 0.621094 9.367188 0.550781 9.367188 0.480469 C 9.375 0.3125 9.375 0.3125 9.4375 0.1875 Z M 9.4375 0.1875 "/>
<path style=" stroke:none;fill-rule:nonzero;fill:rgb(63.921571%,82.352942%,95.294118%);fill-opacity:1;" d="M 0.660156 10.429688 C 0.71875 10.429688 0.777344 10.429688 0.835938 10.429688 C 0.929688 10.429688 0.929688 10.429688 1.023438 10.429688 C 1.226562 10.429688 1.433594 10.429688 1.636719 10.429688 C 1.777344 10.429688 1.917969 10.429688 2.0625 10.429688 C 2.433594 10.429688 2.808594 10.433594 3.179688 10.433594 C 3.5625 10.433594 3.941406 10.433594 4.320312 10.433594 C 5.070312 10.433594 5.816406 10.4375 6.5625 10.4375 C 6.648438 10.609375 6.632812 10.75 6.632812 10.941406 C 6.632812 11.023438 6.632812 11.101562 6.632812 11.183594 C 6.632812 11.269531 6.632812 11.359375 6.632812 11.445312 C 6.632812 11.535156 6.632812 11.625 6.632812 11.710938 C 6.632812 11.898438 6.632812 12.085938 6.632812 12.273438 C 6.632812 12.515625 6.632812 12.753906 6.632812 12.992188 C 6.632812 13.179688 6.632812 13.363281 6.632812 13.546875 C 6.632812 13.636719 6.632812 13.722656 6.632812 13.8125 C 6.632812 13.9375 6.632812 14.058594 6.632812 14.183594 C 6.632812 14.253906 6.632812 14.324219 6.632812 14.398438 C 6.625 14.5625 6.625 14.5625 6.5625 14.6875 C 5.71875 14.6875 4.871094 14.6875 4 14.6875 C 4 14.871094 4 15.058594 4 15.25 C 4.117188 15.261719 4.117188 15.261719 4.234375 15.273438 C 4.59375 15.320312 4.59375 15.320312 4.75 15.4375 C 4.800781 15.5625 4.800781 15.5625 4.8125 15.6875 C 4.792969 15.726562 4.773438 15.769531 4.75 15.8125 C 4.53125 15.820312 4.351562 15.828125 4.144531 15.75 C 3.890625 15.671875 3.671875 15.667969 3.410156 15.671875 C 3.363281 15.671875 3.320312 15.671875 3.273438 15.671875 C 2.972656 15.671875 2.726562 15.722656 2.4375 15.8125 C 2.292969 15.816406 2.144531 15.820312 2 15.8125 C 2 15.6875 2 15.566406 2 15.4375 C 2.246094 15.355469 2.496094 15.273438 2.75 15.1875 C 2.769531 15.023438 2.792969 14.855469 2.8125 14.6875 C 1.945312 14.6875 1.082031 14.6875 0.1875 14.6875 C 0.183594 13.644531 0.183594 13.644531 0.183594 13.203125 C 0.183594 12.898438 0.183594 12.597656 0.183594 12.292969 C 0.183594 12.050781 0.179688 11.804688 0.179688 11.5625 C 0.179688 11.46875 0.179688 11.375 0.179688 11.28125 C 0.179688 11.152344 0.179688 11.023438 0.179688 10.890625 C 0.179688 10.816406 0.179688 10.742188 0.179688 10.667969 C 0.195312 10.34375 0.382812 10.429688 0.660156 10.429688 Z M 0.660156 10.429688 "/>
<path style=" stroke:none;fill-rule:nonzero;fill:rgb(0%,0%,0%);fill-opacity:1;" d="M 8.3125 1.5 C 8.625 1.519531 8.773438 1.605469 8.992188 1.828125 C 9.042969 1.875 9.089844 1.925781 9.140625 1.972656 C 9.25 2.125 9.25 2.125 9.285156 2.277344 C 9.234375 2.511719 9.09375 2.644531 8.925781 2.804688 C 8.894531 2.835938 8.867188 2.867188 8.835938 2.902344 C 8.742188 2.992188 8.742188 2.992188 8.5625 3.125 C 8.382812 3.113281 8.382812 3.113281 8.25 3.0625 C 8.238281 2.917969 8.238281 2.917969 8.25 2.75 C 8.34375 2.644531 8.34375 2.644531 8.4375 2.5625 C 7.804688 2.558594 7.171875 2.558594 6.539062 2.554688 C 6.246094 2.554688 5.949219 2.554688 5.65625 2.554688 C 5.371094 2.550781 5.089844 2.550781 4.804688 2.550781 C 4.695312 2.550781 4.589844 2.550781 4.480469 2.550781 C 3.480469 2.542969 2.703125 2.597656 1.941406 3.296875 C 1.746094 3.507812 1.621094 3.742188 1.5 4 C 1.53125 4.03125 1.5625 4.0625 1.59375 4.09375 C 1.785156 4.296875 1.921875 4.449219 2.007812 4.71875 C 1.996094 5.078125 1.902344 5.367188 1.644531 5.625 C 1.574219 5.6875 1.574219 5.6875 1.5 5.75 C 1.847656 6.40625 2.21875 6.78125 2.910156 7.058594 C 3.289062 7.175781 3.671875 7.171875 4.0625 7.167969 C 4.152344 7.167969 4.242188 7.167969 4.328125 7.171875 C 4.511719 7.171875 4.695312 7.171875 4.875 7.167969 C 5.109375 7.167969 5.34375 7.167969 5.578125 7.171875 C 5.761719 7.171875 5.941406 7.171875 6.121094 7.171875 C 6.207031 7.171875 6.292969 7.171875 6.378906 7.175781 C 6.832031 7.203125 6.832031 7.203125 7.230469 7.042969 C 7.308594 6.933594 7.308594 6.933594 7.375 6.75 C 7.570312 6.558594 7.71875 6.53125 7.988281 6.527344 C 8.324219 6.535156 8.5 6.601562 8.738281 6.832031 C 8.820312 6.949219 8.84375 7.046875 8.875 7.1875 C 8.917969 7.1875 8.960938 7.1875 9.003906 7.1875 C 9.414062 7.183594 9.820312 7.183594 10.230469 7.179688 C 10.4375 7.179688 10.648438 7.179688 10.859375 7.179688 C 11.101562 7.175781 11.34375 7.175781 11.585938 7.175781 C 11.660156 7.175781 11.734375 7.171875 11.808594 7.171875 C 12.679688 7.171875 13.414062 7.292969 14.125 7.8125 C 14.175781 7.847656 14.226562 7.878906 14.277344 7.914062 C 14.636719 8.246094 14.90625 8.640625 15 9.125 C 15.054688 9.128906 15.109375 9.136719 15.167969 9.140625 C 15.40625 9.195312 15.515625 9.269531 15.6875 9.4375 C 15.867188 9.730469 15.867188 10.042969 15.8125 10.375 C 15.71875 10.566406 15.613281 10.691406 15.4375 10.8125 C 15.195312 10.871094 15.195312 10.871094 15 10.875 C 14.992188 10.90625 14.984375 10.941406 14.976562 10.976562 C 14.800781 11.605469 14.394531 12.054688 13.851562 12.40625 C 13.28125 12.722656 12.714844 12.824219 12.066406 12.816406 C 11.96875 12.816406 11.871094 12.816406 11.769531 12.816406 C 11.71875 12.816406 11.667969 12.816406 11.613281 12.816406 C 11.339844 12.816406 11.066406 12.816406 10.789062 12.820312 C 10.441406 12.820312 10.09375 12.820312 9.742188 12.820312 C 9.460938 12.816406 9.175781 12.816406 8.894531 12.820312 C 8.785156 12.820312 8.679688 12.820312 8.574219 12.820312 C 7.996094 12.792969 7.996094 12.792969 7.46875 12.972656 C 7.347656 13.089844 7.347656 13.089844 7.265625 13.210938 C 7.1875 13.3125 7.1875 13.3125 6.976562 13.375 C 6.921875 13.375 6.867188 13.375 6.8125 13.375 C 6.75 13.3125 6.75 13.3125 6.722656 13.175781 C 6.761719 12.914062 6.929688 12.792969 7.125 12.625 C 7.054688 12.464844 6.996094 12.375 6.867188 12.253906 C 6.75 12.125 6.75 12.125 6.734375 11.953125 C 6.738281 11.90625 6.746094 11.859375 6.75 11.8125 C 6.890625 11.765625 6.890625 11.765625 7.0625 11.75 C 7.175781 11.863281 7.175781 11.863281 7.292969 12.023438 C 7.550781 12.296875 7.761719 12.367188 8.125 12.378906 C 8.328125 12.382812 8.523438 12.375 8.722656 12.371094 C 8.832031 12.371094 8.9375 12.371094 9.046875 12.371094 C 9.269531 12.371094 9.492188 12.367188 9.714844 12.363281 C 10 12.355469 10.285156 12.355469 10.570312 12.351562 C 10.84375 12.351562 11.117188 12.347656 11.390625 12.34375 C 11.445312 12.34375 11.496094 12.34375 11.546875 12.34375 C 12.433594 12.332031 13.304688 12.3125 13.988281 11.671875 C 14.207031 11.433594 14.359375 11.164062 14.5 10.875 C 14.472656 10.851562 14.449219 10.824219 14.421875 10.800781 C 14.386719 10.765625 14.351562 10.734375 14.316406 10.699219 C 14.28125 10.667969 14.25 10.632812 14.214844 10.601562 C 14.023438 10.382812 14.042969 10.117188 14.042969 9.84375 C 14.082031 9.527344 14.285156 9.335938 14.5 9.125 C 14.179688 8.519531 13.785156 8.050781 13.125 7.8125 C 12.597656 7.691406 12.074219 7.667969 11.535156 7.660156 C 11.460938 7.660156 11.382812 7.660156 11.304688 7.65625 C 11.0625 7.65625 10.820312 7.652344 10.578125 7.648438 C 10.414062 7.644531 10.246094 7.644531 10.082031 7.640625 C 9.679688 7.636719 9.277344 7.628906 8.875 7.625 C 8.859375 7.683594 8.839844 7.742188 8.820312 7.800781 C 8.75 8.003906 8.675781 8.125 8.503906 8.253906 C 8.222656 8.382812 7.921875 8.363281 7.625 8.3125 C 7.441406 8.230469 7.382812 8.160156 7.25 8 C 7.203125 7.875 7.164062 7.75 7.125 7.625 C 7.074219 7.625 7.027344 7.625 6.976562 7.625 C 6.507812 7.632812 6.042969 7.636719 5.574219 7.636719 C 5.335938 7.640625 5.09375 7.640625 4.855469 7.644531 C 4.621094 7.648438 4.390625 7.648438 4.15625 7.648438 C 4.070312 7.648438 3.980469 7.648438 3.894531 7.652344 C 2.96875 7.664062 2.316406 7.46875 1.640625 6.839844 C 1 6.144531 1 6.144531 1 5.75 C 0.945312 5.746094 0.890625 5.738281 0.832031 5.734375 C 0.59375 5.679688 0.484375 5.605469 0.3125 5.4375 C 0.132812 5.144531 0.132812 4.832031 0.1875 4.5 C 0.28125 4.308594 0.386719 4.183594 0.5625 4.0625 C 0.804688 4.003906 0.804688 4.003906 1 4 C 1.011719 3.941406 1.019531 3.882812 1.03125 3.824219 C 1.21875 3.179688 1.746094 2.703125 2.3125 2.375 C 2.84375 2.128906 3.355469 2.054688 3.941406 2.050781 C 4.011719 2.046875 4.011719 2.046875 4.085938 2.046875 C 4.246094 2.046875 4.402344 2.042969 4.558594 2.042969 C 4.671875 2.042969 4.78125 2.039062 4.890625 2.039062 C 5.179688 2.035156 5.46875 2.03125 5.757812 2.03125 C 6.050781 2.027344 6.347656 2.023438 6.640625 2.019531 C 7.21875 2.011719 7.796875 2.007812 8.375 2 C 8.3125 1.9375 8.3125 1.9375 8.25 1.875 C 8.238281 1.714844 8.238281 1.714844 8.25 1.5625 C 8.269531 1.542969 8.292969 1.519531 8.3125 1.5 Z M 8.3125 1.5 "/>
<path style=" stroke:none;fill-rule:nonzero;fill:rgb(0.784314%,1.176471%,1.176471%);fill-opacity:1;" d="M 9.4375 0.1875 C 11.542969 0.1875 13.644531 0.1875 15.8125 0.1875 C 15.8125 0.875 15.816406 1.566406 15.816406 2.277344 C 15.816406 2.496094 15.816406 2.714844 15.816406 2.9375 C 15.816406 3.109375 15.820312 3.28125 15.820312 3.453125 C 15.820312 3.496094 15.820312 3.542969 15.820312 3.589844 C 15.820312 3.71875 15.820312 3.851562 15.820312 3.984375 C 15.820312 4.058594 15.820312 4.132812 15.820312 4.207031 C 15.8125 4.375 15.8125 4.375 15.75 4.4375 C 15.566406 4.441406 15.382812 4.445312 15.195312 4.445312 C 15.113281 4.445312 15.113281 4.445312 15.03125 4.441406 C 14.851562 4.441406 14.671875 4.441406 14.496094 4.441406 C 14.375 4.441406 14.253906 4.441406 14.136719 4.441406 C 13.839844 4.441406 13.546875 4.4375 13.25 4.4375 C 13.28125 4.683594 13.28125 4.683594 13.3125 4.9375 C 13.539062 5.019531 13.765625 5.101562 14 5.1875 C 14 5.289062 14 5.394531 14 5.5 C 13.980469 5.519531 13.957031 5.542969 13.9375 5.5625 C 13.703125 5.539062 13.46875 5.503906 13.234375 5.464844 C 12.722656 5.375 12.316406 5.394531 11.8125 5.5 C 11.625 5.523438 11.4375 5.542969 11.25 5.5625 C 11.210938 5.449219 11.210938 5.449219 11.1875 5.3125 C 11.332031 5.09375 11.386719 5.085938 11.632812 5.019531 C 11.691406 5.003906 11.746094 4.988281 11.804688 4.972656 C 11.847656 4.960938 11.890625 4.949219 11.9375 4.9375 C 11.957031 4.773438 11.980469 4.609375 12 4.4375 C 11.925781 4.4375 11.851562 4.4375 11.773438 4.4375 C 11.496094 4.441406 11.21875 4.441406 10.9375 4.445312 C 10.816406 4.445312 10.699219 4.445312 10.578125 4.445312 C 10.40625 4.449219 10.230469 4.449219 10.058594 4.449219 C 10.003906 4.449219 9.953125 4.453125 9.894531 4.453125 C 9.765625 4.453125 9.632812 4.445312 9.5 4.4375 C 9.375 4.3125 9.375 4.3125 9.359375 4.144531 C 9.359375 4.039062 9.359375 4.039062 9.359375 3.933594 C 9.359375 3.851562 9.359375 3.773438 9.359375 3.691406 C 9.359375 3.605469 9.359375 3.515625 9.359375 3.429688 C 9.359375 3.339844 9.359375 3.25 9.359375 3.160156 C 9.359375 2.976562 9.359375 2.789062 9.363281 2.601562 C 9.363281 2.359375 9.363281 2.121094 9.363281 1.878906 C 9.363281 1.695312 9.363281 1.511719 9.363281 1.328125 C 9.363281 1.238281 9.363281 1.152344 9.363281 1.0625 C 9.363281 0.9375 9.363281 0.816406 9.367188 0.691406 C 9.367188 0.621094 9.367188 0.550781 9.367188 0.480469 C 9.375 0.3125 9.375 0.3125 9.4375 0.1875 Z M 9.8125 0.5625 C 9.8125 1.449219 9.8125 2.335938 9.8125 3.25 C 11.667969 3.25 13.523438 3.25 15.4375 3.25 C 15.4375 2.363281 15.4375 1.476562 15.4375 0.5625 C 13.582031 0.5625 11.726562 0.5625 9.8125 0.5625 Z M 9.8125 0.5625 "/>
<path style=" stroke:none;fill-rule:nonzero;fill:rgb(0.392157%,0.392157%,0.784314%);fill-opacity:1;" d="M 0.660156 10.429688 C 0.71875 10.429688 0.777344 10.429688 0.835938 10.429688 C 0.929688 10.429688 0.929688 10.429688 1.023438 10.429688 C 1.226562 10.429688 1.433594 10.429688 1.636719 10.429688 C 1.777344 10.429688 1.917969 10.429688 2.0625 10.429688 C 2.433594 10.429688 2.808594 10.433594 3.179688 10.433594 C 3.5625 10.433594 3.941406 10.433594 4.320312 10.433594 C 5.070312 10.433594 5.816406 10.4375 6.5625 10.4375 C 6.648438 10.609375 6.632812 10.75 6.632812 10.941406 C 6.632812 11.023438 6.632812 11.101562 6.632812 11.183594 C 6.632812 11.269531 6.632812 11.359375 6.632812 11.445312 C 6.632812 11.535156 6.632812 11.625 6.632812 11.710938 C 6.632812 11.898438 6.632812 12.085938 6.632812 12.273438 C 6.632812 12.515625 6.632812 12.753906 6.632812 12.992188 C 6.632812 13.179688 6.632812 13.363281 6.632812 13.546875 C 6.632812 13.636719 6.632812 13.722656 6.632812 13.8125 C 6.632812 13.9375 6.632812 14.058594 6.632812 14.183594 C 6.632812 14.253906 6.632812 14.324219 6.632812 14.398438 C 6.625 14.5625 6.625 14.5625 6.5625 14.6875 C 5.71875 14.6875 4.871094 14.6875 4 14.6875 C 4 14.871094 4 15.058594 4 15.25 C 4.117188 15.261719 4.117188 15.261719 4.234375 15.273438 C 4.59375 15.320312 4.59375 15.320312 4.75 15.4375 C 4.800781 15.5625 4.800781 15.5625 4.8125 15.6875 C 4.792969 15.726562 4.773438 15.769531 4.75 15.8125 C 4.53125 15.820312 4.351562 15.828125 4.144531 15.75 C 3.890625 15.671875 3.671875 15.667969 3.410156 15.671875 C 3.363281 15.671875 3.320312 15.671875 3.273438 15.671875 C 2.972656 15.671875 2.726562 15.722656 2.4375 15.8125 C 2.292969 15.816406 2.144531 15.820312 2 15.8125 C 2 15.6875 2 15.566406 2 15.4375 C 2.246094 15.355469 2.496094 15.273438 2.75 15.1875 C 2.769531 15.023438 2.792969 14.855469 2.8125 14.6875 C 1.945312 14.6875 1.082031 14.6875 0.1875 14.6875 C 0.183594 13.644531 0.183594 13.644531 0.183594 13.203125 C 0.183594 12.898438 0.183594 12.597656 0.183594 12.292969 C 0.183594 12.050781 0.179688 11.804688 0.179688 11.5625 C 0.179688 11.46875 0.179688 11.375 0.179688 11.28125 C 0.179688 11.152344 0.179688 11.023438 0.179688 10.890625 C 0.179688 10.816406 0.179688 10.742188 0.179688 10.667969 C 0.195312 10.34375 0.382812 10.429688 0.660156 10.429688 Z M 0.5625 10.8125 C 0.5625 11.71875 0.5625 12.628906 0.5625 13.5625 C 2.417969 13.5625 4.273438 13.5625 6.1875 13.5625 C 6.1875 12.65625 6.1875 11.746094 6.1875 10.8125 C 4.332031 10.8125 2.476562 10.8125 0.5625 10.8125 Z M 0.5625 10.8125 "/>
<path style=" stroke:none;fill-rule:nonzero;fill:rgb(27.058825%,37.64706%,49.411765%);fill-opacity:1;" d="M 9.8125 3.625 C 11.667969 3.625 13.523438 3.625 15.4375 3.625 C 15.4375 3.769531 15.4375 3.914062 15.4375 4.0625 C 13.582031 4.0625 11.726562 4.0625 9.8125 4.0625 C 9.8125 3.917969 9.8125 3.773438 9.8125 3.625 Z M 9.8125 3.625 "/>
<path style=" stroke:none;fill-rule:nonzero;fill:rgb(0%,0%,0%);fill-opacity:1;" d="M 3.1875 3.75 C 3.320312 3.726562 3.320312 3.726562 3.5 3.75 C 3.648438 3.859375 3.769531 3.988281 3.894531 4.125 C 3.945312 4.179688 3.945312 4.179688 4 4.234375 C 4.082031 4.320312 4.167969 4.410156 4.25 4.5 C 4.472656 4.3125 4.6875 4.128906 4.882812 3.914062 C 5.0625 3.75 5.0625 3.75 5.242188 3.726562 C 5.308594 3.738281 5.308594 3.738281 5.375 3.75 C 5.429688 3.882812 5.429688 3.882812 5.4375 4.0625 C 5.335938 4.214844 5.203125 4.332031 5.066406 4.457031 C 5.011719 4.507812 5.011719 4.507812 4.957031 4.5625 C 4.867188 4.644531 4.777344 4.730469 4.6875 4.8125 C 4.8125 5.125 5.070312 5.3125 5.3125 5.535156 C 5.4375 5.6875 5.4375 5.6875 5.425781 5.832031 C 5.375 5.9375 5.375 5.9375 5.242188 5.992188 C 5.0625 6 5.0625 6 4.964844 5.933594 C 4.863281 5.835938 4.765625 5.734375 4.667969 5.628906 C 4.617188 5.574219 4.617188 5.574219 4.5625 5.519531 C 4.480469 5.429688 4.394531 5.339844 4.3125 5.25 C 4.089844 5.4375 3.875 5.621094 3.679688 5.839844 C 3.5 6 3.5 6 3.320312 5.992188 C 3.253906 5.964844 3.253906 5.964844 3.1875 5.9375 C 3.144531 5.824219 3.144531 5.824219 3.125 5.6875 C 3.246094 5.542969 3.359375 5.421875 3.496094 5.296875 C 3.53125 5.261719 3.566406 5.226562 3.605469 5.191406 C 3.695312 5.105469 3.785156 5.023438 3.875 4.9375 C 3.75 4.625 3.496094 4.441406 3.25 4.222656 C 3.125 4.0625 3.125 4.0625 3.136719 3.886719 C 3.152344 3.839844 3.171875 3.796875 3.1875 3.75 Z M 3.1875 3.75 "/>
<path style=" stroke:none;fill-rule:nonzero;fill:rgb(0%,0%,0%);fill-opacity:1;" d="M 10.6875 8.875 C 10.921875 8.878906 11.003906 8.941406 11.179688 9.09375 C 11.242188 9.15625 11.304688 9.21875 11.363281 9.285156 C 11.394531 9.316406 11.425781 9.351562 11.457031 9.382812 C 11.535156 9.464844 11.609375 9.542969 11.6875 9.625 C 11.910156 9.4375 12.125 9.253906 12.320312 9.039062 C 12.5 8.875 12.5 8.875 12.679688 8.851562 C 12.746094 8.863281 12.746094 8.863281 12.8125 8.875 C 12.867188 9.007812 12.867188 9.007812 12.875 9.1875 C 12.773438 9.339844 12.640625 9.457031 12.503906 9.582031 C 12.449219 9.632812 12.449219 9.632812 12.394531 9.6875 C 12.304688 9.769531 12.214844 9.855469 12.125 9.9375 C 12.25 10.25 12.503906 10.433594 12.75 10.652344 C 12.875 10.8125 12.875 10.8125 12.863281 10.988281 C 12.835938 11.054688 12.835938 11.054688 12.8125 11.125 C 12.679688 11.148438 12.679688 11.148438 12.5 11.125 C 12.351562 11.015625 12.230469 10.886719 12.105469 10.75 C 12.070312 10.714844 12.035156 10.679688 12 10.640625 C 11.917969 10.554688 11.832031 10.464844 11.75 10.375 C 11.527344 10.5625 11.3125 10.746094 11.117188 10.964844 C 10.9375 11.125 10.9375 11.125 10.757812 11.117188 C 10.691406 11.089844 10.691406 11.089844 10.625 11.0625 C 10.59375 10.96875 10.59375 10.96875 10.5625 10.875 C 10.640625 10.757812 10.640625 10.757812 10.757812 10.632812 C 10.796875 10.589844 10.839844 10.546875 10.878906 10.5 C 11.023438 10.351562 11.164062 10.207031 11.3125 10.0625 C 11.191406 9.773438 10.976562 9.597656 10.75 9.390625 C 10.625 9.25 10.570312 9.183594 10.5625 9 C 10.605469 8.957031 10.644531 8.917969 10.6875 8.875 Z M 10.6875 8.875 "/>
<path style=" stroke:none;fill-rule:nonzero;fill:rgb(30.19608%,41.568628%,54.509807%);fill-opacity:1;" d="M 0.5625 13.9375 C 2.417969 13.9375 4.273438 13.9375 6.1875 13.9375 C 6.1875 14.0625 6.1875 14.183594 6.1875 14.3125 C 4.332031 14.3125 2.476562 14.3125 0.5625 14.3125 C 0.5625 14.1875 0.5625 14.066406 0.5625 13.9375 Z M 0.5625 13.9375 "/>
<path style=" stroke:none;fill-rule:nonzero;fill:rgb(88.235295%,76.862746%,40.784314%);fill-opacity:1;" d="M 8 6.898438 C 8.253906 6.953125 8.347656 7.042969 8.5 7.25 C 8.539062 7.4375 8.539062 7.4375 8.5 7.625 C 8.347656 7.832031 8.253906 7.921875 8 7.976562 C 7.746094 7.921875 7.652344 7.832031 7.5 7.625 C 7.460938 7.4375 7.460938 7.4375 7.5 7.25 C 7.652344 7.042969 7.746094 6.953125 8 6.898438 Z M 8 6.898438 "/>
<path style=" stroke:none;fill-rule:nonzero;fill:rgb(88.627452%,77.254903%,41.176471%);fill-opacity:1;" d="M 1.0625 4.335938 C 1.316406 4.390625 1.410156 4.480469 1.5625 4.6875 C 1.601562 4.875 1.601562 4.875 1.5625 5.0625 C 1.410156 5.269531 1.316406 5.359375 1.0625 5.414062 C 0.808594 5.359375 0.714844 5.269531 0.5625 5.0625 C 0.523438 4.875 0.523438 4.875 0.5625 4.6875 C 0.714844 4.480469 0.808594 4.390625 1.0625 4.335938 Z M 1.0625 4.335938 "/>
<path style=" stroke:none;fill-rule:nonzero;fill:rgb(89.019608%,77.254903%,41.176471%);fill-opacity:1;" d="M 14.9375 9.460938 C 15.191406 9.515625 15.285156 9.605469 15.4375 9.8125 C 15.476562 10 15.476562 10 15.4375 10.1875 C 15.285156 10.394531 15.191406 10.484375 14.9375 10.539062 C 14.683594 10.484375 14.589844 10.394531 14.4375 10.1875 C 14.398438 10 14.398438 10 14.4375 9.8125 C 14.589844 9.605469 14.683594 9.515625 14.9375 9.460938 Z M 14.9375 9.460938 "/>
<path style=" stroke:none;fill-rule:nonzero;fill:rgb(26.666668%,36.078432%,48.627451%);fill-opacity:1;" d="M 3.1875 14.6875 C 3.3125 14.6875 3.433594 14.6875 3.5625 14.6875 C 3.5625 14.851562 3.5625 15.015625 3.5625 15.1875 C 3.4375 15.1875 3.316406 15.1875 3.1875 15.1875 C 3.1875 15.023438 3.1875 14.859375 3.1875 14.6875 Z M 3.1875 14.6875 "/>
<path style=" stroke:none;fill-rule:nonzero;fill:rgb(26.666668%,36.470589%,48.627451%);fill-opacity:1;" d="M 12.4375 4.4375 C 12.5625 4.4375 12.683594 4.4375 12.8125 4.4375 C 12.8125 4.601562 12.8125 4.765625 12.8125 4.9375 C 12.6875 4.9375 12.566406 4.9375 12.4375 4.9375 C 12.4375 4.773438 12.4375 4.609375 12.4375 4.4375 Z M 12.4375 4.4375 "/>
</g>
</svg>
