<?xml version="1.0" encoding="UTF-8"?>
<svg xmlns="http://www.w3.org/2000/svg" xmlns:xlink="http://www.w3.org/1999/xlink" width="16" height="16" viewBox="0 0 16 16" version="1.1">
<g id="surface1">
<path style=" stroke:none;fill-rule:nonzero;fill:rgb(10.588235%,13.333334%,12.54902%);fill-opacity:1;" d="M 3.59375 0.742188 C 3.675781 0.742188 3.753906 0.742188 3.839844 0.742188 C 3.925781 0.742188 4.015625 0.742188 4.105469 0.742188 C 4.199219 0.742188 4.292969 0.742188 4.386719 0.742188 C 4.640625 0.738281 4.894531 0.738281 5.152344 0.738281 C 5.308594 0.738281 5.46875 0.738281 5.628906 0.738281 C 6.183594 0.738281 6.742188 0.738281 7.296875 0.738281 C 7.816406 0.738281 8.332031 0.738281 8.851562 0.738281 C 9.292969 0.734375 9.742188 0.734375 10.183594 0.734375 C 10.449219 0.734375 10.714844 0.734375 10.980469 0.734375 C 11.230469 0.734375 11.480469 0.734375 11.730469 0.734375 C 11.824219 0.734375 11.914062 0.734375 12.003906 0.734375 C 12.734375 0.730469 13.316406 0.742188 13.875 1.25 C 14.289062 1.664062 14.390625 2.089844 14.394531 2.667969 C 14.394531 2.839844 14.390625 3.015625 14.386719 3.191406 C 14.386719 3.28125 14.386719 3.371094 14.382812 3.464844 C 14.382812 3.683594 14.378906 3.90625 14.375 4.125 C 14.433594 4.121094 14.496094 4.121094 14.554688 4.117188 C 14.632812 4.113281 14.710938 4.113281 14.792969 4.109375 C 14.871094 4.105469 14.949219 4.105469 15.027344 4.101562 C 15.289062 4.128906 15.382812 4.183594 15.5625 4.375 C 15.667969 4.59375 15.703125 4.773438 15.703125 5.015625 C 15.707031 5.078125 15.707031 5.144531 15.707031 5.207031 C 15.707031 5.3125 15.707031 5.3125 15.707031 5.417969 C 15.707031 5.488281 15.707031 5.558594 15.707031 5.628906 C 15.707031 5.78125 15.707031 5.929688 15.707031 6.078125 C 15.707031 6.308594 15.707031 6.535156 15.710938 6.765625 C 15.710938 6.910156 15.710938 7.054688 15.710938 7.199219 C 15.710938 7.269531 15.710938 7.335938 15.710938 7.40625 C 15.710938 7.808594 15.695312 8.117188 15.398438 8.414062 C 15.191406 8.535156 15.03125 8.519531 14.796875 8.511719 C 14.71875 8.511719 14.640625 8.507812 14.558594 8.507812 C 14.496094 8.503906 14.4375 8.503906 14.375 8.5 C 14.375 8.578125 14.375 8.578125 14.375 8.660156 C 14.378906 9.160156 14.382812 9.660156 14.386719 10.15625 C 14.386719 10.414062 14.386719 10.671875 14.390625 10.925781 C 14.390625 11.175781 14.390625 11.421875 14.394531 11.671875 C 14.394531 11.765625 14.394531 11.859375 14.394531 11.953125 C 14.402344 12.585938 14.40625 13.183594 13.960938 13.675781 C 13.921875 13.71875 13.886719 13.765625 13.84375 13.808594 C 13.382812 14.183594 12.921875 14.222656 12.34375 14.214844 C 12.269531 14.214844 12.191406 14.214844 12.113281 14.214844 C 11.90625 14.214844 11.699219 14.214844 11.492188 14.214844 C 11.273438 14.210938 11.054688 14.210938 10.839844 14.210938 C 10.425781 14.210938 10.015625 14.207031 9.605469 14.207031 C 9.136719 14.203125 8.667969 14.203125 8.199219 14.199219 C 7.238281 14.199219 6.273438 14.191406 5.3125 14.1875 C 5.292969 14.226562 5.277344 14.265625 5.257812 14.304688 C 5.027344 14.734375 4.433594 15 3.988281 15.144531 C 3.152344 15.347656 2.386719 15.230469 1.640625 14.8125 C 1.015625 14.425781 0.609375 13.835938 0.402344 13.128906 C 0.234375 12.324219 0.371094 11.519531 0.800781 10.828125 C 1.003906 10.542969 1.246094 10.222656 1.5625 10.0625 C 1.582031 9.546875 1.605469 9.03125 1.625 8.5 C 1.417969 8.507812 1.417969 8.507812 1.207031 8.515625 C 0.945312 8.527344 0.796875 8.527344 0.574219 8.394531 C 0.347656 8.15625 0.296875 7.929688 0.296875 7.609375 C 0.292969 7.515625 0.292969 7.515625 0.292969 7.417969 C 0.292969 7.347656 0.292969 7.28125 0.292969 7.210938 C 0.292969 7.136719 0.292969 7.066406 0.292969 6.996094 C 0.292969 6.84375 0.292969 6.695312 0.292969 6.546875 C 0.292969 6.316406 0.292969 6.089844 0.289062 5.859375 C 0.289062 5.714844 0.289062 5.570312 0.289062 5.425781 C 0.289062 5.355469 0.289062 5.289062 0.289062 5.21875 C 0.289062 4.804688 0.316406 4.511719 0.609375 4.195312 C 0.808594 4.09375 0.980469 4.105469 1.203125 4.113281 C 1.28125 4.113281 1.359375 4.117188 1.441406 4.117188 C 1.503906 4.121094 1.5625 4.121094 1.625 4.125 C 1.625 4.070312 1.621094 4.011719 1.621094 3.957031 C 1.617188 3.746094 1.617188 3.539062 1.613281 3.328125 C 1.613281 3.238281 1.613281 3.148438 1.609375 3.058594 C 1.597656 2.304688 1.636719 1.75 2.175781 1.183594 C 2.59375 0.8125 3.042969 0.742188 3.59375 0.742188 Z M 3.59375 0.742188 "/>
<path style=" stroke:none;fill-rule:nonzero;fill:rgb(88.627452%,89.803922%,98.823529%);fill-opacity:1;" d="M 2 8.5 C 5.960938 8.5 9.921875 8.5 14 8.5 C 14 13.023438 14 13.023438 13.640625 13.4375 C 13.605469 13.46875 13.570312 13.496094 13.535156 13.523438 C 13.5 13.550781 13.464844 13.582031 13.429688 13.609375 C 13.1875 13.769531 12.96875 13.828125 12.683594 13.828125 C 12.621094 13.828125 12.558594 13.828125 12.492188 13.828125 C 12.425781 13.828125 12.359375 13.828125 12.289062 13.828125 C 12.179688 13.828125 12.179688 13.828125 12.070312 13.828125 C 11.832031 13.828125 11.59375 13.824219 11.355469 13.824219 C 11.191406 13.824219 11.027344 13.824219 10.859375 13.824219 C 10.472656 13.824219 10.082031 13.824219 9.691406 13.820312 C 9.25 13.820312 8.804688 13.820312 8.363281 13.820312 C 7.449219 13.816406 6.539062 13.816406 5.625 13.8125 C 5.636719 13.773438 5.652344 13.738281 5.664062 13.699219 C 5.679688 13.648438 5.699219 13.597656 5.714844 13.546875 C 5.730469 13.496094 5.75 13.449219 5.765625 13.398438 C 5.875 13.050781 5.886719 12.742188 5.886719 12.378906 C 5.886719 12.296875 5.886719 12.296875 5.890625 12.210938 C 5.890625 11.917969 5.867188 11.707031 5.75 11.4375 C 5.796875 11.109375 6.0625 10.933594 6.292969 10.71875 C 6.492188 10.53125 6.609375 10.410156 6.625 10.125 C 6.589844 10.109375 6.554688 10.09375 6.519531 10.078125 C 6.355469 9.988281 6.222656 9.886719 6.078125 9.773438 C 6.027344 9.734375 5.976562 9.695312 5.925781 9.652344 C 5.890625 9.625 5.851562 9.59375 5.8125 9.5625 C 5.582031 9.65625 5.457031 9.789062 5.296875 9.976562 C 5.253906 10.027344 5.207031 10.078125 5.164062 10.132812 C 5.128906 10.171875 5.097656 10.210938 5.0625 10.25 C 4.796875 10.148438 4.550781 10.023438 4.300781 9.890625 C 3.902344 9.714844 3.527344 9.667969 3.097656 9.667969 C 3.03125 9.667969 3.03125 9.667969 2.964844 9.664062 C 2.585938 9.664062 2.386719 9.746094 2 9.875 C 2 9.421875 2 8.96875 2 8.5 Z M 2 8.5 "/>
<path style=" stroke:none;fill-rule:nonzero;fill:rgb(98.431373%,81.176472%,30.588236%);fill-opacity:1;" d="M 4.6875 4.5 C 6.046875 4.496094 7.402344 4.492188 8.761719 4.488281 C 9.390625 4.488281 10.019531 4.488281 10.652344 4.484375 C 11.199219 4.484375 11.75 4.484375 12.300781 4.484375 C 12.589844 4.480469 12.882812 4.480469 13.171875 4.480469 C 13.445312 4.480469 13.71875 4.480469 13.992188 4.480469 C 14.09375 4.480469 14.195312 4.476562 14.296875 4.476562 C 14.433594 4.476562 14.570312 4.476562 14.707031 4.476562 C 14.820312 4.476562 14.820312 4.476562 14.9375 4.476562 C 15.125 4.5 15.125 4.5 15.242188 4.585938 C 15.339844 4.730469 15.335938 4.832031 15.335938 5.003906 C 15.335938 5.070312 15.339844 5.132812 15.339844 5.199219 C 15.339844 5.304688 15.339844 5.304688 15.335938 5.410156 C 15.335938 5.515625 15.335938 5.515625 15.339844 5.625 C 15.339844 5.777344 15.335938 5.929688 15.335938 6.078125 C 15.335938 6.3125 15.335938 6.542969 15.339844 6.773438 C 15.339844 6.921875 15.335938 7.066406 15.335938 7.214844 C 15.335938 7.285156 15.339844 7.355469 15.339844 7.425781 C 15.335938 7.523438 15.335938 7.523438 15.335938 7.621094 C 15.335938 7.675781 15.335938 7.734375 15.335938 7.792969 C 15.304688 7.972656 15.273438 8.015625 15.125 8.125 C 14.9375 8.148438 14.9375 8.148438 14.707031 8.148438 C 14.640625 8.148438 14.640625 8.148438 14.578125 8.148438 C 14.433594 8.148438 14.289062 8.148438 14.144531 8.144531 C 14.042969 8.144531 13.941406 8.144531 13.835938 8.144531 C 13.558594 8.144531 13.277344 8.144531 13 8.144531 C 12.707031 8.144531 12.414062 8.140625 12.121094 8.140625 C 11.570312 8.140625 11.015625 8.140625 10.464844 8.140625 C 9.832031 8.136719 9.203125 8.136719 8.574219 8.132812 C 7.277344 8.132812 5.984375 8.128906 4.6875 8.125 C 4.6875 6.929688 4.6875 5.734375 4.6875 4.5 Z M 4.6875 4.5 "/>
<path style=" stroke:none;fill-rule:nonzero;fill:rgb(1.568628%,70.588237%,63.921571%);fill-opacity:1;" d="M 3.273438 1.179688 C 3.335938 1.179688 3.335938 1.179688 3.398438 1.179688 C 3.539062 1.175781 3.679688 1.175781 3.820312 1.175781 C 3.917969 1.175781 4.019531 1.175781 4.117188 1.175781 C 4.390625 1.175781 4.660156 1.175781 4.933594 1.175781 C 5.101562 1.175781 5.273438 1.175781 5.441406 1.175781 C 5.972656 1.171875 6.503906 1.171875 7.03125 1.171875 C 7.644531 1.171875 8.257812 1.171875 8.871094 1.167969 C 9.34375 1.167969 9.816406 1.167969 10.292969 1.167969 C 10.574219 1.167969 10.855469 1.167969 11.140625 1.164062 C 11.40625 1.164062 11.671875 1.164062 11.9375 1.164062 C 12.035156 1.164062 12.132812 1.164062 12.230469 1.164062 C 12.363281 1.164062 12.496094 1.164062 12.632812 1.164062 C 12.707031 1.164062 12.78125 1.164062 12.855469 1.164062 C 13.285156 1.214844 13.519531 1.433594 13.78125 1.75 C 14.058594 2.121094 14 2.300781 14 2.8125 C 10.039062 2.8125 6.078125 2.8125 2 2.8125 C 2 1.941406 2 1.941406 2.375 1.5625 C 2.6875 1.28125 2.84375 1.179688 3.273438 1.179688 Z M 3.273438 1.179688 "/>
<path style=" stroke:none;fill-rule:nonzero;fill:rgb(1.568628%,69.803923%,63.137257%);fill-opacity:1;" d="M 4.507812 10.328125 C 4.59375 10.378906 4.671875 10.441406 4.75 10.5 C 4.535156 10.800781 4.316406 11.070312 4.050781 11.324219 C 3.890625 11.484375 3.75 11.652344 3.605469 11.824219 C 3.496094 11.941406 3.378906 12.03125 3.25 12.125 C 3.167969 12.035156 3.082031 11.941406 3 11.851562 C 2.953125 11.800781 2.90625 11.75 2.859375 11.699219 C 2.75 11.5625 2.75 11.5625 2.75 11.4375 C 2.527344 11.40625 2.453125 11.425781 2.269531 11.5625 C 2.214844 11.617188 2.160156 11.675781 2.101562 11.730469 C 2.046875 11.785156 1.988281 11.839844 1.933594 11.894531 C 1.796875 12.050781 1.796875 12.050781 1.808594 12.21875 C 1.894531 12.421875 2.011719 12.546875 2.164062 12.707031 C 2.21875 12.765625 2.277344 12.828125 2.335938 12.886719 C 2.390625 12.945312 2.445312 13.003906 2.5 13.0625 C 2.582031 13.15625 2.664062 13.246094 2.746094 13.339844 C 2.777344 13.378906 2.8125 13.414062 2.847656 13.453125 C 2.941406 13.570312 3.035156 13.691406 3.125 13.8125 C 3.429688 13.804688 3.5625 13.648438 3.761719 13.4375 C 3.910156 13.273438 4.058594 13.105469 4.203125 12.9375 C 4.34375 12.777344 4.492188 12.632812 4.640625 12.488281 C 4.757812 12.367188 4.867188 12.242188 4.976562 12.113281 C 5.136719 11.925781 5.300781 11.769531 5.5 11.625 C 5.726562 12.25 5.667969 12.828125 5.410156 13.433594 C 5.164062 13.914062 4.835938 14.285156 4.375 14.5625 C 4.332031 14.589844 4.289062 14.613281 4.246094 14.640625 C 3.71875 14.902344 2.996094 14.929688 2.429688 14.777344 C 1.675781 14.5 1.222656 14.007812 0.882812 13.296875 C 0.679688 12.800781 0.664062 12.160156 0.792969 11.636719 C 0.851562 11.5 0.917969 11.378906 1 11.25 C 1.023438 11.203125 1.050781 11.15625 1.074219 11.109375 C 1.417969 10.523438 1.976562 10.164062 2.625 9.976562 C 3.316406 9.832031 3.898438 9.980469 4.507812 10.328125 Z M 4.507812 10.328125 "/>
<path style=" stroke:none;fill-rule:nonzero;fill:rgb(98.431373%,25.098041%,27.843139%);fill-opacity:1;" d="M 1.210938 4.480469 C 1.316406 4.480469 1.316406 4.480469 1.421875 4.480469 C 1.496094 4.480469 1.570312 4.480469 1.644531 4.480469 C 1.746094 4.480469 1.746094 4.480469 1.847656 4.484375 C 2.101562 4.484375 2.355469 4.484375 2.605469 4.488281 C 3.449219 4.496094 3.449219 4.496094 4.3125 4.5 C 4.3125 5.695312 4.3125 6.890625 4.3125 8.125 C 3.75 8.128906 3.1875 8.132812 2.605469 8.136719 C 2.339844 8.140625 2.339844 8.140625 2.066406 8.140625 C 1.925781 8.140625 1.785156 8.144531 1.644531 8.144531 C 1.535156 8.144531 1.535156 8.144531 1.421875 8.144531 C 1.320312 8.144531 1.320312 8.144531 1.210938 8.144531 C 1.121094 8.148438 1.121094 8.148438 1.027344 8.148438 C 0.875 8.125 0.875 8.125 0.761719 8.050781 C 0.664062 7.898438 0.664062 7.800781 0.664062 7.621094 C 0.664062 7.554688 0.660156 7.492188 0.660156 7.425781 C 0.660156 7.355469 0.664062 7.285156 0.664062 7.214844 C 0.664062 7.144531 0.664062 7.070312 0.660156 7 C 0.660156 6.847656 0.664062 6.695312 0.664062 6.546875 C 0.664062 6.3125 0.664062 6.082031 0.660156 5.851562 C 0.660156 5.703125 0.664062 5.558594 0.664062 5.410156 C 0.664062 5.339844 0.660156 5.269531 0.660156 5.199219 C 0.660156 5.136719 0.664062 5.070312 0.664062 5.003906 C 0.664062 4.949219 0.664062 4.890625 0.664062 4.832031 C 0.6875 4.6875 0.6875 4.6875 0.761719 4.574219 C 0.917969 4.472656 1.027344 4.476562 1.210938 4.480469 Z M 1.210938 4.480469 "/>
<path style=" stroke:none;fill-rule:nonzero;fill:rgb(89.411765%,90.588236%,99.607843%);fill-opacity:1;" d="M 2 3.1875 C 5.960938 3.1875 9.921875 3.1875 14 3.1875 C 14 3.496094 14 3.804688 14 4.125 C 10.039062 4.125 6.078125 4.125 2 4.125 C 2 3.816406 2 3.507812 2 3.1875 Z M 2 3.1875 "/>
<path style=" stroke:none;fill-rule:nonzero;fill:rgb(13.333334%,11.372549%,11.764706%);fill-opacity:1;" d="M 2.945312 5.183594 C 3.214844 5.335938 3.382812 5.59375 3.5 5.875 C 3.539062 6.226562 3.511719 6.546875 3.375 6.875 C 3.453125 6.945312 3.453125 6.945312 3.535156 7.015625 C 3.585938 7.074219 3.636719 7.128906 3.6875 7.1875 C 3.675781 7.332031 3.675781 7.332031 3.625 7.4375 C 3.332031 7.398438 3.332031 7.398438 3.222656 7.273438 C 3.191406 7.246094 3.160156 7.21875 3.125 7.1875 C 3 7.195312 3 7.195312 2.867188 7.242188 C 2.476562 7.34375 2.160156 7.328125 1.796875 7.148438 C 1.53125 6.917969 1.339844 6.742188 1.285156 6.378906 C 1.269531 5.996094 1.292969 5.730469 1.5625 5.4375 C 2 5.042969 2.390625 4.957031 2.945312 5.183594 Z M 2.945312 5.183594 "/>
<path style=" stroke:none;fill-rule:nonzero;fill:rgb(96.862745%,96.862745%,96.862745%);fill-opacity:1;" d="M 5.75 9.9375 C 5.9375 10.046875 5.9375 10.046875 6.125 10.1875 C 6.125 10.4375 6.125 10.4375 6.03125 10.554688 C 5.988281 10.59375 5.945312 10.632812 5.902344 10.671875 C 5.726562 10.839844 5.558594 11.007812 5.402344 11.191406 C 5.230469 11.390625 5.046875 11.578125 4.859375 11.765625 C 4.746094 11.878906 4.640625 12 4.535156 12.121094 C 4.34375 12.339844 4.144531 12.546875 3.9375 12.75 C 3.769531 12.917969 3.621094 13.097656 3.472656 13.28125 C 3.375 13.375 3.375 13.375 3.1875 13.375 C 3.027344 13.246094 2.890625 13.089844 2.75 12.9375 C 2.710938 12.894531 2.671875 12.851562 2.628906 12.808594 C 2.433594 12.59375 2.269531 12.410156 2.1875 12.125 C 2.375 11.96875 2.375 11.96875 2.5625 11.8125 C 2.769531 12.039062 2.976562 12.265625 3.1875 12.5 C 3.457031 12.433594 3.519531 12.378906 3.707031 12.183594 C 3.757812 12.132812 3.808594 12.082031 3.859375 12.027344 C 4.011719 11.863281 4.15625 11.695312 4.304688 11.527344 C 4.488281 11.316406 4.683594 11.109375 4.875 10.90625 C 5.171875 10.589844 5.46875 10.269531 5.75 9.9375 Z M 5.75 9.9375 "/>
<path style=" stroke:none;fill-rule:nonzero;fill:rgb(17.254902%,19.215687%,17.254902%);fill-opacity:1;" d="M 10.5625 5.25 C 10.726562 5.25 10.890625 5.25 11.0625 5.25 C 11.074219 5.320312 11.089844 5.394531 11.101562 5.464844 C 11.117188 5.558594 11.136719 5.652344 11.152344 5.746094 C 11.160156 5.792969 11.167969 5.839844 11.179688 5.890625 C 11.203125 6.121094 11.203125 6.121094 11.3125 6.3125 C 11.375 6.105469 11.4375 5.898438 11.5 5.6875 C 11.625 5.6875 11.746094 5.6875 11.875 5.6875 C 11.9375 5.875 12 6.058594 12.0625 6.25 C 12.082031 6.25 12.105469 6.25 12.125 6.25 C 12.1875 5.921875 12.25 5.589844 12.3125 5.25 C 12.476562 5.25 12.640625 5.25 12.8125 5.25 C 12.769531 5.535156 12.726562 5.816406 12.683594 6.101562 C 12.667969 6.199219 12.652344 6.292969 12.636719 6.390625 C 12.617188 6.53125 12.59375 6.667969 12.574219 6.804688 C 12.566406 6.851562 12.5625 6.894531 12.554688 6.9375 C 12.507812 7.242188 12.507812 7.242188 12.4375 7.3125 C 12.3125 7.316406 12.1875 7.316406 12.0625 7.3125 C 11.914062 7.003906 11.785156 6.722656 11.75 6.375 C 11.707031 6.375 11.667969 6.375 11.625 6.375 C 11.613281 6.429688 11.613281 6.429688 11.605469 6.484375 C 11.542969 6.789062 11.464844 7.039062 11.3125 7.3125 C 11.1875 7.3125 11.066406 7.3125 10.9375 7.3125 C 10.800781 6.894531 10.742188 6.46875 10.679688 6.035156 C 10.664062 5.921875 10.664062 5.921875 10.644531 5.804688 C 10.617188 5.621094 10.589844 5.4375 10.5625 5.25 Z M 10.5625 5.25 "/>
<path style=" stroke:none;fill-rule:nonzero;fill:rgb(16.862746%,18.82353%,17.254902%);fill-opacity:1;" d="M 5.625 5.25 C 5.789062 5.25 5.953125 5.25 6.125 5.25 C 6.136719 5.328125 6.152344 5.402344 6.164062 5.480469 C 6.179688 5.578125 6.199219 5.679688 6.214844 5.777344 C 6.222656 5.828125 6.230469 5.878906 6.242188 5.929688 C 6.261719 6.171875 6.261719 6.171875 6.375 6.375 C 6.386719 6.332031 6.402344 6.285156 6.414062 6.242188 C 6.429688 6.183594 6.449219 6.125 6.464844 6.066406 C 6.480469 6.007812 6.5 5.953125 6.515625 5.894531 C 6.5625 5.75 6.5625 5.75 6.625 5.6875 C 6.730469 5.683594 6.832031 5.683594 6.9375 5.6875 C 6.96875 5.765625 7 5.847656 7.03125 5.925781 C 7.046875 5.96875 7.066406 6.015625 7.082031 6.058594 C 7.125 6.1875 7.125 6.1875 7.125 6.375 C 7.167969 6.375 7.207031 6.375 7.25 6.375 C 7.253906 6.300781 7.253906 6.300781 7.261719 6.222656 C 7.3125 5.566406 7.3125 5.566406 7.375 5.25 C 7.539062 5.25 7.703125 5.25 7.875 5.25 C 7.601562 7.210938 7.601562 7.210938 7.5 7.3125 C 7.375 7.316406 7.25 7.316406 7.125 7.3125 C 7.109375 7.269531 7.09375 7.226562 7.074219 7.183594 C 7.050781 7.128906 7.03125 7.074219 7.007812 7.015625 C 6.984375 6.960938 6.964844 6.90625 6.941406 6.847656 C 6.882812 6.707031 6.816406 6.574219 6.75 6.4375 C 6.648438 6.726562 6.542969 7.015625 6.4375 7.3125 C 6.292969 7.3125 6.148438 7.3125 6 7.3125 C 5.84375 6.628906 5.730469 5.941406 5.625 5.25 Z M 5.625 5.25 "/>
<path style=" stroke:none;fill-rule:nonzero;fill:rgb(16.470589%,18.82353%,17.254902%);fill-opacity:1;" d="M 8.125 5.25 C 8.269531 5.25 8.414062 5.25 8.5625 5.25 C 8.644531 5.640625 8.726562 6.035156 8.8125 6.4375 C 8.84375 6.324219 8.871094 6.214844 8.902344 6.097656 C 8.992188 5.757812 8.992188 5.757812 9.0625 5.6875 C 9.164062 5.6875 9.269531 5.6875 9.375 5.6875 C 9.457031 5.894531 9.539062 6.101562 9.625 6.3125 C 9.644531 6.230469 9.660156 6.148438 9.679688 6.0625 C 9.738281 5.789062 9.804688 5.519531 9.875 5.25 C 10.019531 5.25 10.164062 5.25 10.3125 5.25 C 10.285156 5.949219 10.140625 6.628906 10 7.3125 C 9.855469 7.3125 9.710938 7.3125 9.5625 7.3125 C 9.460938 7.023438 9.355469 6.734375 9.25 6.4375 C 9.054688 6.871094 9.054688 6.871094 8.875 7.3125 C 8.75 7.3125 8.628906 7.3125 8.5 7.3125 C 8.410156 7.101562 8.347656 6.90625 8.308594 6.683594 C 8.296875 6.621094 8.285156 6.5625 8.273438 6.5 C 8.257812 6.410156 8.257812 6.410156 8.242188 6.316406 C 8.230469 6.253906 8.21875 6.195312 8.207031 6.132812 C 8.15625 5.835938 8.109375 5.554688 8.125 5.25 Z M 8.125 5.25 "/>
<path style=" stroke:none;fill-rule:nonzero;fill:rgb(7.843138%,14.901961%,14.509805%);fill-opacity:1;" d="M 7.503906 1.796875 C 7.558594 1.796875 7.609375 1.796875 7.664062 1.796875 C 7.722656 1.796875 7.777344 1.796875 7.835938 1.796875 C 8.019531 1.796875 8.207031 1.796875 8.390625 1.796875 C 8.519531 1.796875 8.648438 1.796875 8.777344 1.796875 C 9.046875 1.796875 9.316406 1.796875 9.585938 1.800781 C 9.929688 1.800781 10.277344 1.800781 10.621094 1.800781 C 10.886719 1.800781 11.152344 1.800781 11.417969 1.800781 C 11.546875 1.800781 11.671875 1.800781 11.800781 1.800781 C 11.980469 1.800781 12.15625 1.800781 12.335938 1.804688 C 12.386719 1.804688 12.441406 1.804688 12.496094 1.804688 C 12.859375 1.804688 12.859375 1.804688 13 1.875 C 12.945312 2.117188 12.945312 2.117188 12.875 2.1875 C 12.695312 2.195312 12.519531 2.195312 12.339844 2.195312 C 12.285156 2.195312 12.226562 2.195312 12.171875 2.195312 C 11.984375 2.195312 11.796875 2.195312 11.609375 2.195312 C 11.480469 2.195312 11.351562 2.191406 11.226562 2.191406 C 10.882812 2.191406 10.546875 2.191406 10.207031 2.191406 C 9.859375 2.191406 9.511719 2.191406 9.164062 2.191406 C 8.484375 2.191406 7.804688 2.1875 7.125 2.1875 C 7.082031 2.105469 7.042969 2.023438 7 1.9375 C 7.164062 1.773438 7.28125 1.796875 7.503906 1.796875 Z M 7.503906 1.796875 "/>
<path style=" stroke:none;fill-rule:nonzero;fill:rgb(14.117648%,16.470589%,16.862746%);fill-opacity:1;" d="M 8.375 9.679688 C 8.441406 9.679688 8.441406 9.679688 8.507812 9.679688 C 8.578125 9.679688 8.578125 9.679688 8.652344 9.675781 C 8.804688 9.675781 8.960938 9.675781 9.117188 9.675781 C 9.222656 9.675781 9.332031 9.675781 9.4375 9.675781 C 9.664062 9.675781 9.890625 9.675781 10.117188 9.675781 C 10.40625 9.675781 10.695312 9.675781 10.984375 9.675781 C 11.207031 9.671875 11.429688 9.671875 11.652344 9.671875 C 11.757812 9.671875 11.867188 9.671875 11.972656 9.671875 C 12.121094 9.671875 12.269531 9.671875 12.417969 9.671875 C 12.464844 9.671875 12.507812 9.671875 12.554688 9.671875 C 12.859375 9.671875 12.859375 9.671875 13 9.8125 C 13 9.875 13 9.9375 13 10 C 12.8125 10.09375 12.625 10.070312 12.417969 10.070312 C 12.347656 10.070312 12.347656 10.070312 12.277344 10.070312 C 12.121094 10.070312 11.964844 10.070312 11.808594 10.066406 C 11.703125 10.066406 11.59375 10.066406 11.488281 10.066406 C 11.203125 10.066406 10.917969 10.066406 10.636719 10.066406 C 10.347656 10.066406 10.058594 10.066406 9.765625 10.066406 C 9.199219 10.066406 8.628906 10.0625 8.0625 10.0625 C 8.039062 9.957031 8.019531 9.855469 8 9.75 C 8.105469 9.644531 8.234375 9.679688 8.375 9.679688 Z M 8.375 9.679688 "/>
<path style=" stroke:none;fill-rule:nonzero;fill:rgb(98.039216%,25.098041%,27.843139%);fill-opacity:1;" d="M 2.5625 5.4375 C 2.828125 5.539062 2.976562 5.636719 3.125 5.875 C 3.179688 6.171875 3.167969 6.421875 3.019531 6.6875 C 2.8125 6.867188 2.652344 6.925781 2.378906 6.960938 C 2.132812 6.929688 2.003906 6.839844 1.8125 6.6875 C 1.636719 6.421875 1.640625 6.1875 1.6875 5.875 C 1.898438 5.484375 2.140625 5.410156 2.5625 5.4375 Z M 2.5625 5.4375 "/>
<path style=" stroke:none;fill-rule:nonzero;fill:rgb(8.627451%,10.980392%,10.980392%);fill-opacity:1;" d="M 8.238281 11.992188 C 8.316406 11.992188 8.394531 11.992188 8.476562 11.992188 C 8.519531 11.992188 8.5625 11.992188 8.609375 11.992188 C 8.75 11.992188 8.894531 11.992188 9.039062 11.992188 C 9.136719 11.992188 9.238281 11.996094 9.335938 11.996094 C 9.601562 11.996094 9.863281 11.996094 10.125 11.996094 C 10.390625 11.996094 10.660156 11.996094 10.925781 11.996094 C 11.449219 11.996094 11.976562 12 12.5 12 C 12.535156 12.121094 12.535156 12.121094 12.5625 12.25 C 12.5 12.3125 12.5 12.3125 12.324219 12.320312 C 12.207031 12.320312 12.207031 12.320312 12.085938 12.320312 C 12.042969 12.320312 12 12.320312 11.953125 12.320312 C 11.808594 12.320312 11.667969 12.320312 11.523438 12.320312 C 11.421875 12.320312 11.324219 12.316406 11.226562 12.316406 C 10.960938 12.316406 10.699219 12.316406 10.4375 12.316406 C 10.171875 12.316406 9.902344 12.316406 9.636719 12.316406 C 9.113281 12.316406 8.585938 12.3125 8.0625 12.3125 C 8.027344 12.191406 8.027344 12.191406 8 12.0625 C 8.0625 12 8.0625 12 8.238281 11.992188 Z M 8.238281 11.992188 "/>
<path style=" stroke:none;fill-rule:nonzero;fill:rgb(8.627451%,10.980392%,10.980392%);fill-opacity:1;" d="M 8 10.875 C 9.175781 10.875 10.351562 10.875 11.5625 10.875 C 11.59375 11 11.59375 11 11.625 11.125 C 11.5625 11.1875 11.5625 11.1875 11.421875 11.195312 C 11.359375 11.195312 11.296875 11.195312 11.234375 11.195312 C 11.164062 11.195312 11.09375 11.195312 11.023438 11.195312 C 10.90625 11.195312 10.90625 11.195312 10.789062 11.195312 C 10.714844 11.195312 10.636719 11.191406 10.554688 11.191406 C 10.347656 11.191406 10.140625 11.191406 9.9375 11.191406 C 9.726562 11.191406 9.515625 11.191406 9.304688 11.191406 C 8.890625 11.191406 8.476562 11.1875 8.0625 11.1875 C 8.042969 11.085938 8.019531 10.980469 8 10.875 Z M 8 10.875 "/>
<path style=" stroke:none;fill-rule:nonzero;fill:rgb(21.176471%,21.960784%,17.647059%);fill-opacity:1;" d="M 13 6.8125 C 13.144531 6.808594 13.292969 6.808594 13.4375 6.8125 C 13.5 6.875 13.5 6.875 13.503906 7.097656 C 13.503906 7.167969 13.5 7.238281 13.5 7.3125 C 13.335938 7.3125 13.171875 7.3125 13 7.3125 C 13 7.148438 13 6.984375 13 6.8125 Z M 13 6.8125 "/>
<path style=" stroke:none;fill-rule:nonzero;fill:rgb(20%,21.176471%,17.647059%);fill-opacity:1;" d="M 14.0625 6.804688 C 14.25 6.8125 14.25 6.8125 14.3125 6.875 C 14.316406 7.019531 14.316406 7.167969 14.3125 7.3125 C 14.148438 7.3125 13.984375 7.3125 13.8125 7.3125 C 13.808594 7.167969 13.808594 7.019531 13.8125 6.875 C 13.875 6.8125 13.875 6.8125 14.0625 6.804688 Z M 14.0625 6.804688 "/>
<path style=" stroke:none;fill-rule:nonzero;fill:rgb(7.450981%,18.82353%,18.039216%);fill-opacity:1;" d="M 4.6875 1.8125 C 4.816406 1.839844 4.816406 1.839844 4.9375 1.875 C 4.917969 1.957031 4.894531 2.039062 4.875 2.125 C 4.792969 2.125 4.710938 2.125 4.625 2.125 C 4.625 1.875 4.625 1.875 4.6875 1.8125 Z M 4.6875 1.8125 "/>
<path style=" stroke:none;fill-rule:nonzero;fill:rgb(7.843138%,14.901961%,14.117648%);fill-opacity:1;" d="M 3.1875 1.8125 C 3.3125 1.84375 3.3125 1.84375 3.4375 1.875 C 3.4375 1.957031 3.4375 2.039062 3.4375 2.125 C 3.335938 2.125 3.230469 2.125 3.125 2.125 C 3.144531 2.023438 3.167969 1.917969 3.1875 1.8125 Z M 3.1875 1.8125 "/>
<path style=" stroke:none;fill-rule:nonzero;fill:rgb(7.843138%,14.117648%,13.725491%);fill-opacity:1;" d="M 3.9375 1.8125 C 4.0625 1.84375 4.0625 1.84375 4.1875 1.875 C 4.167969 1.957031 4.144531 2.039062 4.125 2.125 C 4.042969 2.125 3.960938 2.125 3.875 2.125 C 3.894531 2.023438 3.917969 1.917969 3.9375 1.8125 Z M 3.9375 1.8125 "/>
</g>
</svg>
