<?xml version="1.0" encoding="UTF-8"?>
<svg xmlns="http://www.w3.org/2000/svg" xmlns:xlink="http://www.w3.org/1999/xlink" width="16" height="16" viewBox="0 0 16 16" version="1.1">
<g id="surface1">
<path style=" stroke:none;fill-rule:nonzero;fill:rgb(0.784314%,0.392157%,0%);fill-opacity:1;" d="M 4.875 3.75 C 5.253906 3.960938 5.550781 4.273438 5.859375 4.574219 C 5.914062 4.625 5.96875 4.675781 6.023438 4.726562 C 6.300781 5.003906 6.496094 5.222656 6.574219 5.613281 C 6.535156 6.085938 6.121094 6.417969 5.804688 6.738281 C 5.710938 6.832031 5.621094 6.925781 5.527344 7.023438 C 5.035156 7.53125 5.035156 7.53125 4.699219 7.589844 C 4.148438 7.578125 3.777344 7.046875 3.421875 6.683594 C 3.335938 6.597656 3.335938 6.597656 3.25 6.511719 C 2.828125 6.089844 2.828125 6.089844 2.6875 5.875 C 2.097656 6.027344 1.664062 6.238281 1.3125 6.75 C 1.050781 7.222656 0.984375 7.6875 1.09375 8.214844 C 1.25 8.742188 1.515625 9.058594 1.96875 9.359375 C 2.332031 9.542969 2.6875 9.582031 3.082031 9.589844 C 3.132812 9.589844 3.179688 9.589844 3.230469 9.59375 C 3.378906 9.59375 3.53125 9.597656 3.683594 9.601562 C 3.785156 9.605469 3.890625 9.605469 3.992188 9.609375 C 4.246094 9.613281 4.5 9.621094 4.75 9.625 C 4.738281 9.574219 4.726562 9.527344 4.714844 9.476562 C 4.6875 9.3125 4.6875 9.3125 4.757812 9.195312 C 4.875 9.125 4.875 9.125 5.019531 9.121094 C 5.1875 9.1875 5.1875 9.1875 5.332031 9.375 C 5.578125 9.628906 5.855469 9.609375 6.195312 9.617188 C 6.3125 9.617188 6.3125 9.617188 6.429688 9.617188 C 6.507812 9.617188 6.585938 9.621094 6.667969 9.621094 C 6.863281 9.625 7.054688 9.625 7.25 9.625 C 7.257812 9.585938 7.265625 9.550781 7.273438 9.511719 C 7.28125 9.460938 7.292969 9.410156 7.304688 9.359375 C 7.3125 9.308594 7.324219 9.257812 7.335938 9.207031 C 7.445312 8.800781 7.71875 8.578125 8.070312 8.371094 C 8.460938 8.171875 8.953125 8.179688 9.367188 8.304688 C 9.78125 8.496094 10.0625 8.757812 10.273438 9.164062 C 10.3125 9.3125 10.3125 9.3125 10.3125 9.625 C 10.582031 9.605469 10.847656 9.582031 11.125 9.5625 C 11.125 9.460938 11.125 9.355469 11.125 9.25 C 11.167969 9.207031 11.207031 9.167969 11.25 9.125 C 11.390625 9.125 11.390625 9.125 11.5625 9.1875 C 11.609375 9.25 11.660156 9.3125 11.710938 9.375 C 11.898438 9.574219 12.046875 9.59375 12.320312 9.605469 C 12.46875 9.605469 12.613281 9.605469 12.761719 9.601562 C 13.601562 9.59375 14.25 9.71875 14.875 10.3125 C 15.371094 10.84375 15.570312 11.46875 15.5625 12.1875 C 15.519531 12.84375 15.242188 13.453125 14.757812 13.902344 C 14.382812 14.179688 13.902344 14.449219 13.425781 14.441406 C 13.347656 14.441406 13.269531 14.4375 13.1875 14.4375 C 13.164062 14.488281 13.164062 14.488281 13.140625 14.542969 C 13.042969 14.71875 12.925781 14.839844 12.78125 14.984375 C 12.699219 15.066406 12.699219 15.066406 12.613281 15.152344 C 12.554688 15.207031 12.496094 15.265625 12.4375 15.324219 C 12.378906 15.382812 12.320312 15.441406 12.261719 15.5 C 11.75 16.007812 11.75 16.007812 11.398438 16.03125 C 11.347656 16.035156 11.296875 16.039062 11.242188 16.046875 C 10.953125 15.972656 10.773438 15.769531 10.5625 15.5625 C 10.519531 15.519531 10.476562 15.476562 10.429688 15.433594 C 10.296875 15.304688 10.164062 15.175781 10.035156 15.042969 C 9.96875 14.976562 9.96875 14.976562 9.898438 14.90625 C 9.855469 14.863281 9.8125 14.820312 9.769531 14.777344 C 9.730469 14.738281 9.691406 14.703125 9.652344 14.660156 C 9.5625 14.5625 9.5625 14.5625 9.5 14.4375 C 9.109375 14.417969 8.714844 14.394531 8.3125 14.375 C 8.332031 14.5 8.355469 14.621094 8.375 14.75 C 8.25 14.875 8.25 14.875 8.105469 14.898438 C 7.878906 14.867188 7.796875 14.777344 7.636719 14.617188 C 7.585938 14.570312 7.539062 14.519531 7.488281 14.472656 C 7.347656 14.273438 7.332031 14.175781 7.375 13.9375 C 7.488281 13.777344 7.488281 13.777344 7.636719 13.632812 C 7.683594 13.582031 7.734375 13.535156 7.785156 13.484375 C 7.960938 13.359375 8.039062 13.339844 8.25 13.375 C 8.292969 13.417969 8.332031 13.457031 8.375 13.5 C 8.351562 13.695312 8.351562 13.695312 8.3125 13.875 C 8.5 13.878906 8.691406 13.878906 8.878906 13.875 C 8.933594 13.875 8.984375 13.878906 9.039062 13.878906 C 9.269531 13.875 9.4375 13.863281 9.617188 13.714844 C 9.730469 13.585938 9.835938 13.449219 9.9375 13.3125 C 10.097656 13.132812 10.265625 12.960938 10.433594 12.789062 C 10.476562 12.746094 10.515625 12.699219 10.558594 12.65625 C 10.839844 12.371094 11.035156 12.222656 11.4375 12.1875 C 11.878906 12.285156 12.15625 12.621094 12.464844 12.9375 C 12.554688 13.027344 12.644531 13.117188 12.738281 13.207031 C 13.21875 13.695312 13.21875 13.695312 13.25 13.9375 C 13.921875 13.738281 14.359375 13.5625 14.734375 12.953125 C 14.976562 12.511719 15.015625 12.007812 14.898438 11.523438 C 14.710938 11.003906 14.417969 10.632812 13.929688 10.378906 C 13.507812 10.179688 13.09375 10.167969 12.632812 10.15625 C 12.542969 10.152344 12.542969 10.152344 12.449219 10.144531 C 12.105469 10.136719 12.105469 10.136719 11.804688 10.285156 C 11.6875 10.40625 11.6875 10.40625 11.589844 10.53125 C 11.558594 10.5625 11.53125 10.59375 11.5 10.625 C 11.320312 10.625 11.320312 10.625 11.1875 10.5625 C 11.167969 10.542969 11.144531 10.519531 11.125 10.5 C 11.125 10.398438 11.125 10.292969 11.125 10.1875 C 10.722656 10.15625 10.722656 10.15625 10.3125 10.125 C 10.289062 10.207031 10.269531 10.292969 10.246094 10.378906 C 10.109375 10.789062 9.855469 11.019531 9.496094 11.246094 C 9.035156 11.410156 8.472656 11.386719 8.03125 11.1875 C 7.742188 11.019531 7.523438 10.800781 7.375 10.5 C 7.351562 10.375 7.332031 10.25 7.3125 10.125 C 7.03125 10.121094 6.746094 10.125 6.464844 10.128906 C 6.386719 10.128906 6.304688 10.128906 6.222656 10.125 C 5.707031 10.128906 5.707031 10.128906 5.296875 10.40625 C 5.269531 10.449219 5.238281 10.488281 5.207031 10.527344 C 5.125 10.625 5.125 10.625 4.941406 10.652344 C 4.898438 10.644531 4.855469 10.632812 4.8125 10.625 C 4.746094 10.476562 4.746094 10.476562 4.6875 10.3125 C 4.707031 10.269531 4.730469 10.230469 4.75 10.1875 C 4.679688 10.1875 4.609375 10.1875 4.539062 10.1875 C 4.277344 10.1875 4.011719 10.183594 3.75 10.179688 C 3.636719 10.175781 3.523438 10.175781 3.410156 10.175781 C 2.488281 10.171875 1.765625 10.078125 1.074219 9.40625 C 0.59375 8.859375 0.414062 8.257812 0.441406 7.539062 C 0.515625 6.839844 0.792969 6.285156 1.3125 5.8125 C 1.691406 5.507812 2.152344 5.328125 2.636719 5.300781 C 2.875 5.230469 2.957031 5.101562 3.113281 4.914062 C 3.285156 4.707031 3.472656 4.515625 3.664062 4.324219 C 3.699219 4.289062 3.734375 4.253906 3.769531 4.21875 C 4.085938 3.898438 4.394531 3.640625 4.875 3.75 Z M 4.875 3.75 "/>
<path style=" stroke:none;fill-rule:nonzero;fill:rgb(0%,0%,0.392157%);fill-opacity:1;" d="M 8.277344 0.09375 C 8.726562 0.367188 8.921875 0.691406 9.0625 1.1875 C 9.742188 1.167969 10.421875 1.144531 11.125 1.125 C 11.125 1 11.125 0.878906 11.125 0.75 C 11.1875 0.6875 11.1875 0.6875 11.351562 0.65625 C 11.597656 0.691406 11.601562 0.71875 11.742188 0.90625 C 11.949219 1.121094 12.089844 1.15625 12.386719 1.171875 C 12.53125 1.171875 12.679688 1.167969 12.824219 1.164062 C 13.558594 1.148438 14.210938 1.238281 14.773438 1.757812 C 15.308594 2.277344 15.550781 2.878906 15.566406 3.621094 C 15.539062 4.265625 15.324219 4.863281 14.871094 5.328125 C 14.496094 5.671875 14.171875 5.828125 13.679688 5.929688 C 13.3125 6.011719 13.089844 6.089844 12.871094 6.402344 C 12.699219 6.628906 12.5 6.824219 12.300781 7.023438 C 12.261719 7.0625 12.226562 7.101562 12.183594 7.140625 C 12.148438 7.175781 12.113281 7.214844 12.074219 7.25 C 12.042969 7.285156 12.011719 7.316406 11.976562 7.351562 C 11.75 7.542969 11.558594 7.578125 11.261719 7.589844 C 10.8125 7.496094 10.480469 7.058594 10.171875 6.746094 C 10.121094 6.695312 10.070312 6.644531 10.015625 6.59375 C 9.640625 6.214844 9.640625 6.214844 9.5 6 C 9.347656 5.972656 9.347656 5.972656 9.171875 5.980469 C 9.109375 5.984375 9.042969 5.984375 8.976562 5.984375 C 8.910156 5.984375 8.84375 5.988281 8.773438 5.988281 C 8.707031 5.988281 8.636719 5.988281 8.566406 5.992188 C 8.398438 5.992188 8.230469 5.996094 8.0625 6 C 8.042969 6.125 8.019531 6.246094 8 6.375 C 7.859375 6.417969 7.859375 6.417969 7.6875 6.4375 C 7.550781 6.351562 7.550781 6.351562 7.425781 6.230469 C 7.382812 6.191406 7.339844 6.152344 7.296875 6.109375 C 7.0625 5.875 7.0625 5.875 7.039062 5.699219 C 7.070312 5.449219 7.144531 5.371094 7.324219 5.195312 C 7.398438 5.121094 7.398438 5.121094 7.472656 5.046875 C 7.648438 4.921875 7.726562 4.902344 7.9375 4.9375 C 8.0625 5.0625 8.0625 5.0625 8.0625 5.3125 C 8.558594 5.332031 9.050781 5.355469 9.5625 5.375 C 9.605469 5.292969 9.644531 5.210938 9.6875 5.125 C 9.859375 4.925781 10.042969 4.738281 10.226562 4.546875 C 10.285156 4.488281 10.34375 4.425781 10.402344 4.363281 C 10.949219 3.785156 10.949219 3.785156 11.300781 3.726562 C 11.851562 3.734375 12.21875 4.265625 12.578125 4.628906 C 12.664062 4.714844 12.664062 4.714844 12.75 4.800781 C 13.167969 5.222656 13.167969 5.222656 13.3125 5.4375 C 13.882812 5.304688 14.363281 5.070312 14.6875 4.5625 C 14.964844 4.035156 15.03125 3.527344 14.863281 2.953125 C 14.667969 2.445312 14.363281 2.125 13.875 1.875 C 13.484375 1.730469 13.105469 1.71875 12.691406 1.714844 C 12.625 1.710938 12.558594 1.707031 12.492188 1.707031 C 12.132812 1.699219 11.925781 1.722656 11.65625 1.976562 C 11.621094 2.015625 11.582031 2.058594 11.542969 2.097656 C 11.507812 2.128906 11.472656 2.15625 11.4375 2.1875 C 11.300781 2.171875 11.222656 2.160156 11.125 2.0625 C 11.125 1.960938 11.125 1.855469 11.125 1.75 C 10.445312 1.730469 9.761719 1.707031 9.0625 1.6875 C 9.042969 1.851562 9.019531 2.015625 9 2.1875 C 8.816406 2.570312 8.5 2.8125 8.125 3 C 7.734375 3.128906 7.230469 3.140625 6.851562 2.964844 C 6.476562 2.738281 6.160156 2.441406 6.027344 2.015625 C 5.914062 1.441406 6.003906 0.972656 6.316406 0.488281 C 6.804688 -0.0390625 7.617188 -0.191406 8.277344 0.09375 Z M 8.277344 0.09375 "/>
<path style=" stroke:none;fill-rule:nonzero;fill:rgb(0%,80.784315%,97.647059%);fill-opacity:1;" d="M 1.460938 12.730469 C 1.523438 12.730469 1.523438 12.730469 1.589844 12.730469 C 1.722656 12.734375 1.859375 12.734375 1.992188 12.738281 C 2.082031 12.738281 2.175781 12.738281 2.265625 12.742188 C 2.492188 12.742188 2.714844 12.746094 2.9375 12.75 C 2.980469 12.832031 3.019531 12.914062 3.0625 13 C 3.207031 13 3.351562 13 3.5 13 C 3.542969 12.917969 3.582031 12.835938 3.625 12.75 C 3.964844 12.746094 4.304688 12.742188 4.644531 12.738281 C 4.761719 12.738281 4.878906 12.738281 4.992188 12.734375 C 5.160156 12.734375 5.324219 12.730469 5.492188 12.730469 C 5.570312 12.730469 5.570312 12.730469 5.648438 12.730469 C 5.957031 12.730469 6.175781 12.757812 6.4375 12.9375 C 6.71875 13.285156 6.65625 13.695312 6.652344 14.121094 C 6.652344 14.199219 6.65625 14.277344 6.65625 14.359375 C 6.65625 15.003906 6.65625 15.003906 6.519531 15.234375 C 6.238281 15.511719 5.945312 15.519531 5.566406 15.515625 C 5.492188 15.519531 5.492188 15.519531 5.417969 15.519531 C 5.257812 15.519531 5.097656 15.519531 4.933594 15.519531 C 4.824219 15.519531 4.710938 15.519531 4.597656 15.519531 C 4.363281 15.519531 4.128906 15.519531 3.894531 15.519531 C 3.589844 15.519531 3.292969 15.519531 2.988281 15.523438 C 2.757812 15.523438 2.527344 15.523438 2.292969 15.523438 C 2.183594 15.523438 2.074219 15.523438 1.960938 15.523438 C 1.804688 15.523438 1.652344 15.523438 1.496094 15.523438 C 1.449219 15.523438 1.402344 15.523438 1.355469 15.523438 C 1.019531 15.519531 0.832031 15.433594 0.578125 15.222656 C 0.347656 14.9375 0.421875 14.480469 0.421875 14.136719 C 0.421875 14.070312 0.417969 14.003906 0.417969 13.933594 C 0.417969 13.558594 0.417969 13.261719 0.625 12.9375 C 0.910156 12.757812 1.125 12.726562 1.460938 12.730469 Z M 1.460938 12.730469 "/>
<path style=" stroke:none;fill-rule:nonzero;fill:rgb(1.176471%,0.784314%,0%);fill-opacity:1;" d="M 1.390625 -0.0117188 C 1.4375 -0.0117188 1.484375 -0.0117188 1.53125 -0.0078125 C 1.644531 -0.0078125 1.761719 -0.00390625 1.875 0 C 1.894531 0.0625 1.917969 0.125 1.9375 0.1875 C 2.082031 0.171875 2.230469 0.148438 2.375 0.125 C 2.394531 0.0820312 2.417969 0.0429688 2.4375 0 C 3.121094 -0.0507812 3.121094 -0.0507812 3.386719 0.148438 C 3.632812 0.503906 3.566406 0.824219 3.5625 1.25 C 3.871094 1.25 4.179688 1.25 4.5 1.25 C 4.46875 1.125 4.46875 1.125 4.4375 1 C 4.558594 0.859375 4.558594 0.859375 4.6875 0.75 C 5.007812 0.835938 5.242188 1.050781 5.4375 1.3125 C 5.496094 1.46875 5.496094 1.46875 5.5 1.625 C 5.414062 1.761719 5.414062 1.761719 5.292969 1.886719 C 5.253906 1.929688 5.214844 1.972656 5.171875 2.015625 C 4.9375 2.25 4.9375 2.25 4.742188 2.257812 C 4.683594 2.253906 4.625 2.253906 4.5625 2.25 C 4.496094 2.101562 4.496094 2.101562 4.4375 1.9375 C 4.457031 1.894531 4.480469 1.855469 4.5 1.8125 C 4.191406 1.8125 3.882812 1.8125 3.5625 1.8125 C 3.570312 2.003906 3.570312 2.003906 3.582031 2.195312 C 3.582031 2.65625 3.582031 2.65625 3.414062 2.859375 C 3.15625 3.082031 2.960938 3.074219 2.632812 3.078125 C 2.558594 3.078125 2.558594 3.078125 2.484375 3.078125 C 2.378906 3.078125 2.273438 3.082031 2.171875 3.082031 C 2.011719 3.082031 1.855469 3.085938 1.695312 3.085938 C 1.59375 3.089844 1.496094 3.089844 1.394531 3.089844 C 1.347656 3.089844 1.296875 3.089844 1.25 3.09375 C 1.027344 3.089844 0.886719 3.070312 0.695312 2.957031 C 0.355469 2.585938 0.417969 2.140625 0.417969 1.667969 C 0.417969 1.535156 0.417969 1.402344 0.414062 1.269531 C 0.414062 1.183594 0.414062 1.097656 0.414062 1.011719 C 0.414062 0.933594 0.414062 0.859375 0.414062 0.777344 C 0.445312 0.492188 0.539062 0.285156 0.730469 0.0703125 C 0.945312 -0.0351562 1.15625 -0.0195312 1.390625 -0.0117188 Z M 1.390625 -0.0117188 "/>
<path style=" stroke:none;fill-rule:nonzero;fill:rgb(0%,0%,0%);fill-opacity:1;" d="M 1.460938 12.730469 C 1.523438 12.730469 1.523438 12.730469 1.589844 12.730469 C 1.722656 12.734375 1.859375 12.734375 1.992188 12.738281 C 2.082031 12.738281 2.175781 12.738281 2.265625 12.742188 C 2.492188 12.742188 2.714844 12.746094 2.9375 12.75 C 3.007812 12.859375 3.007812 12.859375 3.0625 13 C 3.007812 13.140625 3.007812 13.140625 2.9375 13.25 C 2.882812 13.25 2.824219 13.253906 2.765625 13.253906 C 2.558594 13.261719 2.347656 13.265625 2.140625 13.273438 C 2.050781 13.277344 1.957031 13.277344 1.867188 13.28125 C 1.738281 13.285156 1.609375 13.289062 1.480469 13.292969 C 1.402344 13.292969 1.324219 13.296875 1.242188 13.300781 C 1.070312 13.292969 1.070312 13.292969 1 13.375 C 0.992188 13.484375 0.992188 13.597656 0.992188 13.707031 C 0.992188 13.773438 0.992188 13.839844 0.992188 13.910156 C 0.992188 13.980469 0.992188 14.050781 0.992188 14.125 C 0.992188 14.195312 0.992188 14.265625 0.992188 14.339844 C 0.992188 14.441406 0.992188 14.441406 0.992188 14.542969 C 0.992188 14.605469 0.992188 14.667969 0.992188 14.730469 C 0.984375 14.871094 0.984375 14.871094 1.0625 14.9375 C 1.214844 14.945312 1.367188 14.945312 1.523438 14.945312 C 1.570312 14.945312 1.617188 14.945312 1.667969 14.945312 C 1.828125 14.945312 1.988281 14.945312 2.148438 14.945312 C 2.257812 14.945312 2.367188 14.945312 2.476562 14.945312 C 2.710938 14.945312 2.941406 14.945312 3.171875 14.945312 C 3.472656 14.945312 3.769531 14.945312 4.066406 14.945312 C 4.292969 14.945312 4.523438 14.945312 4.75 14.945312 C 4.859375 14.945312 4.972656 14.945312 5.082031 14.945312 C 5.234375 14.945312 5.386719 14.945312 5.539062 14.945312 C 5.609375 14.945312 5.609375 14.945312 5.679688 14.945312 C 5.886719 14.964844 5.886719 14.964844 6.0625 14.875 C 6.070312 14.765625 6.070312 14.652344 6.070312 14.542969 C 6.070312 14.476562 6.070312 14.410156 6.070312 14.339844 C 6.070312 14.269531 6.070312 14.199219 6.070312 14.125 C 6.070312 14.054688 6.070312 13.984375 6.070312 13.910156 C 6.070312 13.84375 6.070312 13.777344 6.070312 13.707031 C 6.070312 13.613281 6.070312 13.613281 6.070312 13.519531 C 6.078125 13.378906 6.078125 13.378906 6 13.3125 C 5.824219 13.304688 5.652344 13.300781 5.480469 13.296875 C 5.371094 13.292969 5.261719 13.292969 5.15625 13.292969 C 4.984375 13.289062 4.816406 13.285156 4.644531 13.28125 C 4.480469 13.28125 4.320312 13.277344 4.15625 13.273438 C 4.105469 13.273438 4.050781 13.273438 4 13.273438 C 3.640625 13.265625 3.640625 13.265625 3.5 13.125 C 3.535156 12.839844 3.535156 12.839844 3.625 12.75 C 3.800781 12.742188 3.976562 12.738281 4.152344 12.738281 C 4.230469 12.738281 4.230469 12.738281 4.3125 12.734375 C 4.425781 12.734375 4.539062 12.734375 4.652344 12.734375 C 4.824219 12.734375 4.996094 12.730469 5.167969 12.730469 C 5.277344 12.730469 5.386719 12.730469 5.496094 12.730469 C 5.570312 12.730469 5.570312 12.730469 5.648438 12.726562 C 5.957031 12.730469 6.175781 12.757812 6.4375 12.9375 C 6.71875 13.285156 6.65625 13.695312 6.652344 14.121094 C 6.652344 14.199219 6.65625 14.277344 6.65625 14.359375 C 6.65625 15.003906 6.65625 15.003906 6.519531 15.234375 C 6.238281 15.511719 5.945312 15.519531 5.566406 15.515625 C 5.492188 15.519531 5.492188 15.519531 5.417969 15.519531 C 5.257812 15.519531 5.097656 15.519531 4.933594 15.519531 C 4.824219 15.519531 4.710938 15.519531 4.597656 15.519531 C 4.363281 15.519531 4.128906 15.519531 3.894531 15.519531 C 3.589844 15.519531 3.292969 15.519531 2.988281 15.523438 C 2.757812 15.523438 2.527344 15.523438 2.292969 15.523438 C 2.183594 15.523438 2.074219 15.523438 1.960938 15.523438 C 1.804688 15.523438 1.652344 15.523438 1.496094 15.523438 C 1.449219 15.523438 1.402344 15.523438 1.355469 15.523438 C 1.019531 15.519531 0.832031 15.433594 0.578125 15.222656 C 0.347656 14.9375 0.421875 14.480469 0.421875 14.136719 C 0.421875 14.070312 0.417969 14.003906 0.417969 13.933594 C 0.417969 13.558594 0.417969 13.261719 0.625 12.9375 C 0.910156 12.757812 1.125 12.726562 1.460938 12.730469 Z M 1.460938 12.730469 "/>
<path style=" stroke:none;fill-rule:nonzero;fill:rgb(98.039216%,80.392158%,34.901962%);fill-opacity:1;" d="M 1.9375 0.1875 C 2.101562 0.1875 2.265625 0.1875 2.4375 0.1875 C 2.449219 0.226562 2.460938 0.265625 2.472656 0.308594 C 2.558594 0.464844 2.558594 0.464844 2.785156 0.480469 C 2.855469 0.488281 2.925781 0.492188 3 0.5 C 3.121094 0.621094 3.070312 0.832031 3.070312 0.988281 C 3.070312 1.03125 3.070312 1.074219 3.070312 1.121094 C 3.070312 1.210938 3.070312 1.300781 3.070312 1.390625 C 3.070312 1.53125 3.070312 1.671875 3.070312 1.808594 C 3.070312 1.898438 3.070312 1.984375 3.070312 2.074219 C 3.070312 2.152344 3.070312 2.234375 3.070312 2.316406 C 3.0625 2.5 3.0625 2.5 3 2.5625 C 2.726562 2.578125 2.449219 2.574219 2.175781 2.574219 C 2.035156 2.574219 1.898438 2.574219 1.757812 2.578125 C 1.671875 2.578125 1.582031 2.578125 1.496094 2.578125 C 1.417969 2.578125 1.335938 2.578125 1.253906 2.578125 C 1.0625 2.5625 1.0625 2.5625 0.9375 2.4375 C 0.921875 2.25 0.921875 2.25 0.921875 2.015625 C 0.921875 1.976562 0.921875 1.933594 0.921875 1.890625 C 0.921875 1.804688 0.921875 1.71875 0.925781 1.628906 C 0.925781 1.496094 0.925781 1.363281 0.925781 1.226562 C 0.929688 0.570312 0.929688 0.570312 1 0.5 C 1.125 0.488281 1.246094 0.476562 1.371094 0.46875 C 1.632812 0.457031 1.632812 0.457031 1.875 0.375 C 1.894531 0.3125 1.917969 0.25 1.9375 0.1875 Z M 1.9375 0.1875 "/>
<path style=" stroke:none;fill-rule:nonzero;fill:rgb(98.823529%,49.803922%,52.549022%);fill-opacity:1;" d="M 11.40625 4.25 C 11.722656 4.378906 11.941406 4.652344 12.175781 4.890625 C 12.230469 4.945312 12.285156 5 12.34375 5.054688 C 12.394531 5.105469 12.449219 5.15625 12.5 5.210938 C 12.550781 5.261719 12.597656 5.308594 12.644531 5.355469 C 12.75 5.5 12.75 5.5 12.78125 5.65625 C 12.710938 5.996094 12.382812 6.226562 12.144531 6.460938 C 12.058594 6.550781 12.058594 6.550781 11.972656 6.640625 C 11.917969 6.695312 11.859375 6.75 11.804688 6.804688 C 11.753906 6.855469 11.703125 6.90625 11.648438 6.960938 C 11.5 7.0625 11.5 7.0625 11.34375 7.0625 C 11.027344 6.933594 10.808594 6.660156 10.574219 6.421875 C 10.519531 6.367188 10.464844 6.3125 10.40625 6.257812 C 10.355469 6.207031 10.300781 6.15625 10.25 6.101562 C 10.175781 6.03125 10.175781 6.03125 10.105469 5.957031 C 10 5.8125 10 5.8125 9.96875 5.65625 C 10.035156 5.316406 10.367188 5.085938 10.605469 4.851562 C 10.664062 4.792969 10.71875 4.734375 10.777344 4.671875 C 10.832031 4.617188 10.890625 4.5625 10.945312 4.507812 C 10.996094 4.457031 11.046875 4.40625 11.097656 4.351562 C 11.25 4.25 11.25 4.25 11.40625 4.25 Z M 11.40625 4.25 "/>
<path style=" stroke:none;fill-rule:nonzero;fill:rgb(58.039218%,84.313726%,47.450981%);fill-opacity:1;" d="M 4.65625 4.25 C 4.972656 4.378906 5.191406 4.652344 5.425781 4.890625 C 5.480469 4.945312 5.535156 5 5.59375 5.054688 C 5.644531 5.105469 5.699219 5.15625 5.75 5.210938 C 5.800781 5.261719 5.847656 5.308594 5.894531 5.355469 C 6 5.5 6 5.5 6.03125 5.65625 C 5.960938 5.996094 5.632812 6.226562 5.394531 6.460938 C 5.308594 6.550781 5.308594 6.550781 5.222656 6.640625 C 5.167969 6.695312 5.109375 6.75 5.054688 6.804688 C 5.003906 6.855469 4.953125 6.90625 4.898438 6.960938 C 4.75 7.0625 4.75 7.0625 4.59375 7.0625 C 4.277344 6.933594 4.058594 6.660156 3.824219 6.421875 C 3.769531 6.367188 3.714844 6.3125 3.65625 6.257812 C 3.605469 6.207031 3.550781 6.15625 3.5 6.101562 C 3.425781 6.03125 3.425781 6.03125 3.355469 5.957031 C 3.25 5.8125 3.25 5.8125 3.21875 5.65625 C 3.285156 5.316406 3.617188 5.085938 3.855469 4.851562 C 3.914062 4.792969 3.96875 4.734375 4.027344 4.671875 C 4.082031 4.617188 4.140625 4.5625 4.195312 4.507812 C 4.246094 4.457031 4.296875 4.40625 4.347656 4.351562 C 4.5 4.25 4.5 4.25 4.65625 4.25 Z M 4.65625 4.25 "/>
<path style=" stroke:none;fill-rule:nonzero;fill:rgb(98.823529%,49.803922%,52.549022%);fill-opacity:1;" d="M 11.40625 12.75 C 11.722656 12.878906 11.941406 13.152344 12.179688 13.390625 C 12.234375 13.445312 12.289062 13.5 12.347656 13.554688 C 12.402344 13.605469 12.453125 13.660156 12.507812 13.710938 C 12.578125 13.785156 12.578125 13.785156 12.652344 13.855469 C 12.75 14 12.75 14 12.75 14.15625 C 12.621094 14.472656 12.347656 14.691406 12.109375 14.929688 C 12.054688 14.984375 12 15.042969 11.945312 15.097656 C 11.867188 15.175781 11.867188 15.175781 11.789062 15.257812 C 11.714844 15.328125 11.714844 15.328125 11.644531 15.402344 C 11.5 15.5 11.5 15.5 11.34375 15.5 C 11.027344 15.375 10.808594 15.097656 10.570312 14.859375 C 10.515625 14.804688 10.460938 14.753906 10.402344 14.695312 C 10.347656 14.644531 10.296875 14.59375 10.242188 14.539062 C 10.195312 14.488281 10.148438 14.441406 10.097656 14.394531 C 10 14.25 10 14.25 10 14.09375 C 10.128906 13.777344 10.402344 13.558594 10.640625 13.320312 C 10.695312 13.265625 10.746094 13.207031 10.804688 13.152344 C 10.882812 13.074219 10.882812 13.074219 10.960938 12.992188 C 11.007812 12.945312 11.058594 12.894531 11.105469 12.847656 C 11.25 12.75 11.25 12.75 11.40625 12.75 Z M 11.40625 12.75 "/>
<path style=" stroke:none;fill-rule:nonzero;fill:rgb(98.431373%,80.392158%,34.901962%);fill-opacity:1;" d="M 9.257812 8.792969 C 9.527344 8.933594 9.691406 9.101562 9.8125 9.375 C 9.859375 9.714844 9.871094 10.0625 9.714844 10.375 C 9.492188 10.648438 9.304688 10.785156 8.957031 10.835938 C 8.585938 10.851562 8.347656 10.820312 8.0625 10.5625 C 7.78125 10.242188 7.71875 10.042969 7.722656 9.617188 C 7.777344 9.257812 8.003906 9.050781 8.261719 8.8125 C 8.582031 8.699219 8.933594 8.6875 9.257812 8.792969 Z M 9.257812 8.792969 "/>
<path style=" stroke:none;fill-rule:nonzero;fill:rgb(0%,80.784315%,97.254902%);fill-opacity:1;" d="M 8.007812 0.542969 C 8.277344 0.683594 8.429688 0.855469 8.5625 1.125 C 8.636719 1.410156 8.640625 1.628906 8.5625 1.917969 C 8.378906 2.222656 8.152344 2.449219 7.8125 2.5625 C 7.46875 2.609375 7.199219 2.605469 6.910156 2.402344 C 6.652344 2.179688 6.527344 1.953125 6.480469 1.609375 C 6.460938 1.269531 6.523438 1.078125 6.75 0.8125 C 7.125 0.480469 7.515625 0.386719 8.007812 0.542969 Z M 8.007812 0.542969 "/>
<path style=" stroke:none;fill-rule:nonzero;fill:rgb(0%,70.980394%,92.156863%);fill-opacity:1;" d="M 3.6875 13.25 C 4.015625 13.246094 4.34375 13.246094 4.667969 13.242188 C 4.78125 13.242188 4.890625 13.242188 5.003906 13.242188 C 5.164062 13.238281 5.320312 13.238281 5.480469 13.238281 C 5.558594 13.238281 5.558594 13.238281 5.632812 13.234375 C 5.753906 13.234375 5.878906 13.242188 6 13.25 C 6.164062 13.414062 6.140625 13.484375 6.140625 13.710938 C 6.140625 13.8125 6.140625 13.8125 6.140625 13.914062 C 6.140625 13.984375 6.140625 14.054688 6.140625 14.125 C 6.140625 14.230469 6.140625 14.230469 6.140625 14.335938 C 6.140625 14.402344 6.140625 14.46875 6.140625 14.539062 C 6.140625 14.601562 6.140625 14.660156 6.140625 14.726562 C 6.125 14.875 6.125 14.875 6 15 C 5.84375 15.011719 5.691406 15.015625 5.535156 15.015625 C 5.488281 15.015625 5.4375 15.015625 5.390625 15.015625 C 5.230469 15.015625 5.070312 15.015625 4.910156 15.015625 C 4.800781 15.015625 4.691406 15.015625 4.582031 15.015625 C 4.351562 15.015625 4.121094 15.015625 3.886719 15.015625 C 3.589844 15.015625 3.292969 15.015625 2.996094 15.015625 C 2.769531 15.015625 2.542969 15.015625 2.3125 15.015625 C 2.203125 15.015625 2.09375 15.015625 1.984375 15.015625 C 1.832031 15.015625 1.679688 15.015625 1.527344 15.015625 C 1.484375 15.015625 1.4375 15.015625 1.390625 15.015625 C 1.078125 15.015625 1.078125 15.015625 0.9375 14.875 C 0.921875 14.722656 0.921875 14.722656 0.925781 14.535156 C 0.925781 14.46875 0.925781 14.398438 0.925781 14.332031 C 0.925781 14.261719 0.929688 14.191406 0.929688 14.117188 C 0.929688 14.046875 0.929688 13.976562 0.929688 13.902344 C 0.933594 13.726562 0.933594 13.550781 0.9375 13.375 C 0.957031 13.375 0.980469 13.375 1 13.375 C 1 13.789062 1 14.199219 1 14.625 C 1.535156 14.621094 2.066406 14.617188 2.601562 14.613281 C 2.847656 14.609375 3.097656 14.609375 3.34375 14.609375 C 3.582031 14.605469 3.820312 14.605469 4.0625 14.601562 C 4.152344 14.601562 4.242188 14.601562 4.335938 14.601562 C 4.460938 14.601562 4.589844 14.597656 4.71875 14.597656 C 4.789062 14.597656 4.863281 14.59375 4.9375 14.59375 C 5.164062 14.554688 5.238281 14.496094 5.375 14.3125 C 5.402344 14.132812 5.417969 13.976562 5.421875 13.796875 C 5.425781 13.636719 5.433594 13.476562 5.4375 13.3125 C 4.859375 13.3125 4.28125 13.3125 3.6875 13.3125 C 3.6875 13.292969 3.6875 13.269531 3.6875 13.25 Z M 3.6875 13.25 "/>
<path style=" stroke:none;fill-rule:nonzero;fill:rgb(95.686275%,38.431373%,42.352942%);fill-opacity:1;" d="M 11.40625 4.25 C 11.722656 4.375 11.9375 4.652344 12.175781 4.890625 C 12.230469 4.945312 12.285156 4.996094 12.34375 5.054688 C 12.394531 5.105469 12.449219 5.15625 12.5 5.210938 C 12.546875 5.261719 12.597656 5.308594 12.644531 5.355469 C 12.75 5.5 12.75 5.5 12.78125 5.65625 C 12.714844 5.996094 12.382812 6.226562 12.144531 6.460938 C 12.058594 6.550781 12.058594 6.550781 11.972656 6.636719 C 11.917969 6.695312 11.859375 6.75 11.804688 6.804688 C 11.753906 6.855469 11.703125 6.90625 11.648438 6.960938 C 11.5 7.0625 11.5 7.0625 11.332031 7.054688 C 11.101562 6.96875 11.019531 6.820312 10.875 6.625 C 10.902344 6.601562 10.933594 6.574219 10.960938 6.550781 C 11.21875 6.332031 11.472656 6.105469 11.71875 5.871094 C 11.773438 5.820312 11.824219 5.773438 11.878906 5.71875 C 12.015625 5.570312 12.015625 5.570312 12.03125 5.371094 C 11.996094 5.160156 11.945312 5.082031 11.800781 4.929688 C 11.765625 4.890625 11.726562 4.847656 11.6875 4.808594 C 11.550781 4.675781 11.398438 4.558594 11.25 4.4375 C 10.859375 4.828125 10.464844 5.222656 10.0625 5.625 C 10.0625 5.28125 10.40625 5.0625 10.636719 4.828125 C 10.691406 4.773438 10.746094 4.714844 10.800781 4.65625 C 10.851562 4.605469 10.90625 4.550781 10.960938 4.496094 C 11.007812 4.449219 11.054688 4.398438 11.105469 4.347656 C 11.25 4.25 11.25 4.25 11.40625 4.25 Z M 11.40625 4.25 "/>
<path style=" stroke:none;fill-rule:nonzero;fill:rgb(49.019608%,80.000001%,36.862746%);fill-opacity:1;" d="M 4.5 4.25 C 4.921875 4.296875 5.140625 4.601562 5.425781 4.890625 C 5.480469 4.945312 5.535156 5 5.59375 5.054688 C 5.644531 5.105469 5.699219 5.15625 5.75 5.210938 C 5.796875 5.257812 5.847656 5.308594 5.894531 5.355469 C 6 5.5 6 5.5 6.03125 5.65625 C 5.964844 5.996094 5.632812 6.226562 5.394531 6.460938 C 5.335938 6.519531 5.28125 6.578125 5.222656 6.640625 C 5.167969 6.695312 5.109375 6.75 5.054688 6.804688 C 5.003906 6.855469 4.953125 6.90625 4.898438 6.960938 C 4.75 7.0625 4.75 7.0625 4.582031 7.050781 C 4.351562 6.96875 4.269531 6.820312 4.125 6.625 C 4.152344 6.601562 4.183594 6.578125 4.210938 6.550781 C 4.351562 6.433594 4.488281 6.308594 4.625 6.1875 C 4.683594 6.136719 4.738281 6.085938 4.796875 6.035156 C 4.882812 5.957031 4.882812 5.957031 4.96875 5.875 C 5.023438 5.828125 5.074219 5.777344 5.128906 5.726562 C 5.289062 5.507812 5.292969 5.390625 5.25 5.125 C 5.136719 4.949219 5.136719 4.949219 4.980469 4.800781 C 4.808594 4.625 4.644531 4.453125 4.5 4.25 Z M 4.5 4.25 "/>
<path style=" stroke:none;fill-rule:nonzero;fill:rgb(99.215686%,38.82353%,43.137255%);fill-opacity:1;" d="M 11.25 12.75 C 11.671875 12.796875 11.894531 13.101562 12.179688 13.390625 C 12.234375 13.445312 12.292969 13.5 12.347656 13.554688 C 12.402344 13.605469 12.453125 13.65625 12.507812 13.710938 C 12.578125 13.785156 12.578125 13.785156 12.652344 13.855469 C 12.75 14 12.75 14 12.75 14.15625 C 12.625 14.472656 12.347656 14.691406 12.109375 14.929688 C 12.054688 14.984375 12 15.042969 11.945312 15.097656 C 11.867188 15.175781 11.867188 15.175781 11.789062 15.257812 C 11.714844 15.328125 11.714844 15.328125 11.644531 15.402344 C 11.5 15.5 11.5 15.5 11.335938 15.492188 C 11.136719 15.417969 11.058594 15.296875 10.9375 15.125 C 10.96875 15.09375 10.996094 15.066406 11.027344 15.035156 C 11.164062 14.902344 11.296875 14.765625 11.433594 14.632812 C 11.480469 14.585938 11.527344 14.539062 11.578125 14.492188 C 11.644531 14.425781 11.644531 14.425781 11.710938 14.355469 C 11.773438 14.292969 11.773438 14.292969 11.839844 14.230469 C 11.964844 14.097656 11.996094 14.015625 12.03125 13.835938 C 11.984375 13.515625 11.78125 13.351562 11.5625 13.125 C 11.5 13.050781 11.4375 12.980469 11.378906 12.90625 C 11.316406 12.828125 11.316406 12.828125 11.25 12.75 Z M 11.25 12.75 "/>
<path style=" stroke:none;fill-rule:nonzero;fill:rgb(99.215686%,75.686276%,26.274511%);fill-opacity:1;" d="M 2.375 0.1875 C 2.402344 0.226562 2.425781 0.269531 2.453125 0.308594 C 2.609375 0.496094 2.765625 0.476562 3 0.5 C 3.121094 0.621094 3.070312 0.832031 3.070312 0.988281 C 3.070312 1.03125 3.070312 1.074219 3.070312 1.121094 C 3.070312 1.210938 3.070312 1.300781 3.070312 1.390625 C 3.070312 1.53125 3.070312 1.671875 3.070312 1.808594 C 3.070312 1.898438 3.070312 1.984375 3.070312 2.074219 C 3.070312 2.152344 3.070312 2.234375 3.070312 2.316406 C 3.0625 2.5 3.0625 2.5 3 2.5625 C 2.855469 2.566406 2.714844 2.570312 2.570312 2.570312 C 2.503906 2.570312 2.503906 2.570312 2.441406 2.566406 C 2.300781 2.566406 2.164062 2.566406 2.027344 2.566406 C 1.933594 2.566406 1.839844 2.566406 1.75 2.566406 C 1.519531 2.566406 1.292969 2.5625 1.0625 2.5625 C 1.0625 2.542969 1.0625 2.519531 1.0625 2.5 C 1.175781 2.496094 1.175781 2.496094 1.289062 2.496094 C 1.386719 2.492188 1.484375 2.488281 1.582031 2.484375 C 1.632812 2.484375 1.679688 2.484375 1.730469 2.480469 C 1.777344 2.480469 1.824219 2.476562 1.875 2.476562 C 1.917969 2.472656 1.960938 2.472656 2.007812 2.472656 C 2.132812 2.445312 2.132812 2.445312 2.234375 2.339844 C 2.34375 2.128906 2.339844 1.960938 2.34375 1.726562 C 2.34375 1.679688 2.347656 1.636719 2.347656 1.59375 C 2.351562 1.453125 2.351562 1.3125 2.355469 1.171875 C 2.359375 1.078125 2.359375 0.980469 2.363281 0.886719 C 2.367188 0.652344 2.371094 0.421875 2.375 0.1875 Z M 2.375 0.1875 "/>
<path style=" stroke:none;fill-rule:nonzero;fill:rgb(0%,73.725492%,95.686275%);fill-opacity:1;" d="M 7.6875 0.5 C 7.992188 0.527344 8.160156 0.589844 8.375 0.8125 C 8.558594 1.066406 8.648438 1.289062 8.621094 1.605469 C 8.546875 2.03125 8.335938 2.246094 8 2.5 C 7.816406 2.5625 7.6875 2.574219 7.5 2.578125 C 7.445312 2.578125 7.390625 2.582031 7.335938 2.582031 C 7.160156 2.558594 7.109375 2.511719 7 2.375 C 7.097656 2.347656 7.097656 2.347656 7.195312 2.316406 C 7.511719 2.175781 7.683594 1.945312 7.8125 1.625 C 7.867188 1.226562 7.859375 0.871094 7.6875 0.5 Z M 7.6875 0.5 "/>
<path style=" stroke:none;fill-rule:nonzero;fill:rgb(98.431373%,75.294119%,26.274511%);fill-opacity:1;" d="M 9 8.75 C 9.394531 8.851562 9.589844 9.042969 9.8125 9.375 C 9.855469 9.710938 9.871094 10.066406 9.714844 10.375 C 9.488281 10.652344 9.300781 10.792969 8.949219 10.832031 C 8.773438 10.835938 8.609375 10.835938 8.4375 10.8125 C 8.394531 10.769531 8.355469 10.730469 8.3125 10.6875 C 8.34375 10.664062 8.378906 10.644531 8.414062 10.621094 C 8.699219 10.421875 8.964844 10.226562 9.0625 9.875 C 9.09375 9.492188 9.085938 9.125 9 8.75 Z M 9 8.75 "/>
</g>
</svg>
