<?xml version="1.0" encoding="UTF-8"?>
<svg xmlns="http://www.w3.org/2000/svg" xmlns:xlink="http://www.w3.org/1999/xlink" width="32" height="32" viewBox="0 0 32 32" version="1.1">
<g id="surface1">
<path style=" stroke:none;fill-rule:nonzero;fill:rgb(94.901961%,38.82353%,43.137255%);fill-opacity:1;" d="M 18 0 C 18.804688 0.351562 19.183594 1.058594 19.523438 1.839844 C 19.671875 2.222656 19.808594 2.605469 19.945312 2.992188 C 19.992188 3.128906 20.042969 3.269531 20.09375 3.410156 C 20.476562 4.507812 20.796875 5.605469 21 6.75 C 21.023438 6.867188 21.042969 6.984375 21.066406 7.105469 C 21.246094 8.152344 21.28125 9.167969 21.265625 10.226562 C 21.265625 10.386719 21.265625 10.546875 21.261719 10.710938 C 21.257812 11.097656 21.253906 11.484375 21.25 11.875 C 21.394531 11.898438 21.394531 11.898438 21.542969 11.921875 C 22.738281 12.117188 22.738281 12.117188 23.257812 12.230469 C 25.148438 12.628906 27.171875 12.695312 29.074219 12.308594 C 29.722656 12.183594 30.285156 12.175781 30.90625 12.390625 C 31.359375 12.699219 31.757812 13.054688 31.953125 13.585938 C 32.019531 14.007812 32.023438 14.425781 32.023438 14.851562 C 32.027344 14.949219 32.027344 15.042969 32.027344 15.140625 C 32.058594 19.183594 32.058594 19.183594 31.625 20.875 C 31.601562 20.976562 31.574219 21.078125 31.546875 21.179688 C 30.558594 24.96875 28.671875 28.375 25.242188 30.4375 C 23.332031 31.53125 20.972656 32.34375 18.75 32 C 16.414062 31.300781 14.25 28.921875 13.125 26.875 C 11.875 24.46875 11.875 24.46875 11.875 23.375 C 11.730469 23.367188 11.585938 23.359375 11.4375 23.351562 C 8.363281 22.996094 5.476562 21.125 3.5 18.820312 C 1.253906 15.953125 -0.015625 12.140625 -0.0195312 8.503906 C -0.0195312 8.402344 -0.0195312 8.296875 -0.0234375 8.191406 C -0.0234375 7.972656 -0.0234375 7.753906 -0.0234375 7.535156 C -0.0234375 7.203125 -0.0273438 6.875 -0.0273438 6.542969 C -0.0390625 3.621094 -0.0390625 3.621094 0.75 2.75 C 1.375 2.3125 1.859375 2.210938 2.625 2.25 C 2.914062 2.300781 3.199219 2.363281 3.484375 2.429688 C 4.160156 2.578125 4.808594 2.714844 5.5 2.75 C 5.648438 2.757812 5.796875 2.765625 5.949219 2.773438 C 9.332031 2.894531 12.953125 2.164062 15.847656 0.359375 C 16.574219 -0.0859375 17.167969 -0.109375 18 0 Z M 18 0 "/>
<path style=" stroke:none;fill-rule:nonzero;fill:rgb(58.823532%,69.01961%,99.215686%);fill-opacity:1;" d="M 17.359375 0.984375 C 17.859375 1.164062 18.121094 1.378906 18.371094 1.855469 C 18.5 2.140625 18.621094 2.433594 18.734375 2.726562 C 18.777344 2.835938 18.820312 2.945312 18.863281 3.058594 C 19.925781 5.84375 20.308594 8.542969 20.25 11.5 C 19.59375 11.429688 19.105469 11.210938 18.53125 10.914062 C 18.441406 10.871094 18.355469 10.824219 18.265625 10.78125 C 17.761719 10.523438 17.289062 10.246094 16.820312 9.9375 C 16.34375 9.644531 15.972656 9.539062 15.414062 9.539062 C 14.855469 9.707031 14.410156 10.007812 14.085938 10.496094 C 13.933594 10.78125 13.800781 11.070312 13.671875 11.367188 C 13.601562 11.527344 13.601562 11.527344 13.527344 11.6875 C 12.964844 12.957031 12.503906 14.238281 12.195312 15.59375 C 12.125 15.875 12.125 15.875 12 16 C 10.265625 16.164062 8.667969 16.117188 7.167969 15.164062 C 6.878906 14.964844 6.878906 14.964844 6.523438 15.039062 C 6.433594 15.066406 6.34375 15.09375 6.25 15.125 C 6.210938 15.722656 6.304688 16.066406 6.601562 16.585938 C 6.699219 16.761719 6.699219 16.761719 6.800781 16.9375 C 6.972656 17.210938 7.148438 17.402344 7.375 17.625 C 7.375 17.707031 7.375 17.789062 7.375 17.875 C 7.445312 17.910156 7.519531 17.941406 7.59375 17.976562 C 7.875 18.125 8.125 18.296875 8.382812 18.484375 C 9.4375 19.191406 10.351562 19.375 11.625 19.5 C 11.664062 20.40625 11.707031 21.316406 11.75 22.25 C 10.285156 22.101562 10.285156 22.101562 9.53125 21.804688 C 9.445312 21.773438 9.363281 21.738281 9.273438 21.703125 C 6.371094 20.535156 4.324219 18.503906 2.875 15.75 C 2.8125 15.636719 2.753906 15.527344 2.691406 15.410156 C 2.074219 14.226562 1.6875 13 1.414062 11.695312 C 1.386719 11.566406 1.359375 11.441406 1.332031 11.3125 C 1.15625 10.453125 1.011719 9.625 1 8.75 C 1 8.652344 0.996094 8.554688 0.996094 8.453125 C 0.933594 4.277344 0.933594 4.277344 1.5 3.5 C 2.113281 3.195312 2.808594 3.40625 3.4375 3.558594 C 7.4375 4.414062 12.476562 3.667969 16 1.523438 C 16.105469 1.453125 16.210938 1.382812 16.320312 1.3125 C 16.730469 1.054688 16.855469 1 17.359375 0.984375 Z M 17.359375 0.984375 "/>
<path style=" stroke:none;fill-rule:nonzero;fill:rgb(22.745098%,12.54902%,20.392157%);fill-opacity:1;" d="M 18 0 C 18.804688 0.351562 19.183594 1.058594 19.523438 1.839844 C 19.671875 2.222656 19.808594 2.605469 19.945312 2.992188 C 19.992188 3.128906 20.042969 3.269531 20.09375 3.410156 C 20.476562 4.507812 20.796875 5.605469 21 6.75 C 21.023438 6.867188 21.042969 6.984375 21.066406 7.105469 C 21.246094 8.152344 21.28125 9.167969 21.265625 10.226562 C 21.265625 10.386719 21.265625 10.546875 21.261719 10.710938 C 21.257812 11.097656 21.253906 11.484375 21.25 11.875 C 21.394531 11.898438 21.394531 11.898438 21.542969 11.921875 C 22.738281 12.117188 22.738281 12.117188 23.257812 12.230469 C 25.148438 12.628906 27.171875 12.695312 29.074219 12.308594 C 29.722656 12.183594 30.285156 12.175781 30.90625 12.390625 C 31.359375 12.699219 31.757812 13.054688 31.953125 13.585938 C 32.019531 14.007812 32.023438 14.425781 32.023438 14.851562 C 32.027344 14.949219 32.027344 15.042969 32.027344 15.140625 C 32.058594 19.183594 32.058594 19.183594 31.625 20.875 C 31.601562 20.976562 31.574219 21.078125 31.546875 21.179688 C 30.558594 24.96875 28.671875 28.375 25.242188 30.4375 C 23.332031 31.53125 20.972656 32.34375 18.75 32 C 16.414062 31.300781 14.25 28.921875 13.125 26.875 C 11.875 24.46875 11.875 24.46875 11.875 23.375 C 11.730469 23.367188 11.585938 23.359375 11.4375 23.351562 C 8.363281 22.996094 5.476562 21.125 3.5 18.820312 C 1.253906 15.953125 -0.015625 12.140625 -0.0195312 8.503906 C -0.0195312 8.402344 -0.0195312 8.296875 -0.0234375 8.191406 C -0.0234375 7.972656 -0.0234375 7.753906 -0.0234375 7.535156 C -0.0234375 7.203125 -0.0273438 6.875 -0.0273438 6.542969 C -0.0390625 3.621094 -0.0390625 3.621094 0.75 2.75 C 1.375 2.3125 1.859375 2.210938 2.625 2.25 C 2.914062 2.300781 3.199219 2.363281 3.484375 2.429688 C 4.160156 2.578125 4.808594 2.714844 5.5 2.75 C 5.648438 2.757812 5.796875 2.765625 5.949219 2.773438 C 9.332031 2.894531 12.953125 2.164062 15.847656 0.359375 C 16.574219 -0.0859375 17.167969 -0.109375 18 0 Z M 15.976562 1.507812 C 13.195312 3.128906 10.070312 3.773438 6.867188 3.773438 C 6.707031 3.773438 6.546875 3.773438 6.378906 3.773438 C 5.1875 3.765625 4.015625 3.726562 2.855469 3.429688 C 2.472656 3.335938 2.140625 3.339844 1.75 3.375 C 1.453125 3.609375 1.292969 3.789062 1.125 4.125 C 0.582031 8.773438 1.160156 13.890625 4.054688 17.71875 C 4.203125 17.898438 4.351562 18.074219 4.5 18.25 C 4.582031 18.351562 4.667969 18.453125 4.753906 18.554688 C 6.351562 20.433594 8.617188 21.664062 11 22.25 C 11.246094 22.25 11.496094 22.25 11.75 22.25 C 11.707031 21.34375 11.667969 20.433594 11.625 19.5 C 11.371094 19.476562 11.121094 19.453125 10.859375 19.429688 C 9.621094 19.253906 8.507812 18.78125 7.625 17.875 C 7.542969 17.875 7.460938 17.875 7.375 17.875 C 7.339844 17.804688 7.308594 17.734375 7.273438 17.664062 C 7.109375 17.347656 6.929688 17.042969 6.742188 16.734375 C 6.378906 16.136719 6.234375 15.832031 6.25 15.125 C 6.65625 14.996094 6.835938 14.984375 7.238281 15.140625 C 7.363281 15.210938 7.488281 15.28125 7.617188 15.351562 C 8.660156 15.917969 9.433594 16.035156 10.609375 16.015625 C 10.742188 16.015625 10.875 16.015625 11.015625 16.011719 C 11.34375 16.007812 11.671875 16.003906 12 16 C 12.230469 15.402344 12.429688 14.824219 12.585938 14.203125 C 12.792969 13.464844 13.058594 12.777344 13.367188 12.078125 C 13.40625 11.984375 13.449219 11.894531 13.488281 11.796875 C 14.175781 10.289062 14.175781 10.289062 14.78125 9.75 C 15.339844 9.546875 15.9375 9.511719 16.503906 9.71875 C 16.753906 9.847656 16.988281 9.988281 17.226562 10.140625 C 17.398438 10.242188 17.574219 10.347656 17.746094 10.449219 C 17.832031 10.5 17.917969 10.550781 18.003906 10.605469 C 18.359375 10.816406 18.722656 11.007812 19.09375 11.195312 C 19.265625 11.285156 19.265625 11.285156 19.445312 11.375 C 19.773438 11.53125 19.773438 11.53125 20.25 11.5 C 20.351562 8.265625 19.800781 5.203125 18.546875 2.210938 C 18.515625 2.128906 18.480469 2.050781 18.445312 1.964844 C 18.222656 1.464844 18.007812 1.210938 17.5 1 C 16.890625 0.886719 16.476562 1.199219 15.976562 1.507812 Z M 15.117188 10.6875 C 14.796875 11.101562 14.589844 11.535156 14.375 12.007812 C 14.332031 12.105469 14.289062 12.199219 14.242188 12.296875 C 13.730469 13.429688 13.347656 14.554688 13.039062 15.757812 C 13.011719 15.859375 12.984375 15.964844 12.957031 16.070312 C 12.105469 19.515625 12.433594 23.421875 14.164062 26.539062 C 15.300781 28.378906 16.757812 29.695312 18.625 30.75 C 18.703125 30.800781 18.785156 30.851562 18.863281 30.902344 C 20.183594 31.390625 22.183594 30.691406 23.378906 30.15625 C 26.695312 28.601562 28.867188 25.882812 30.109375 22.472656 C 30.714844 20.429688 31.023438 18.421875 31.03125 16.292969 C 31.03125 16.03125 31.035156 15.765625 31.039062 15.503906 C 31.039062 15.332031 31.039062 15.164062 31.042969 14.992188 C 31.042969 14.765625 31.042969 14.765625 31.046875 14.535156 C 30.992188 14.050781 30.84375 13.71875 30.5 13.375 C 29.808594 13.308594 29.136719 13.386719 28.453125 13.5 C 26.53125 13.789062 24.644531 13.660156 22.75 13.25 C 22.648438 13.226562 22.546875 13.207031 22.4375 13.183594 C 20.386719 12.730469 18.597656 12.0625 16.804688 10.953125 C 16.707031 10.890625 16.613281 10.835938 16.515625 10.773438 C 16.429688 10.722656 16.347656 10.667969 16.257812 10.613281 C 15.828125 10.425781 15.5 10.410156 15.117188 10.6875 Z M 15.117188 10.6875 "/>
<path style=" stroke:none;fill-rule:nonzero;fill:rgb(90.588236%,32.156864%,36.470589%);fill-opacity:1;" d="M 16 10.5 C 15.914062 11.09375 15.6875 11.613281 15.460938 12.164062 C 15.042969 13.214844 14.722656 14.265625 14.5 15.375 C 14.476562 15.480469 14.457031 15.585938 14.433594 15.699219 C 14.234375 16.761719 14.199219 17.8125 14.203125 18.890625 C 14.203125 19.027344 14.203125 19.027344 14.203125 19.167969 C 14.210938 21.605469 14.726562 23.707031 15.875 25.875 C 16.089844 25.597656 16.285156 25.320312 16.46875 25.023438 C 17.136719 24.078125 17.867188 23.445312 19 23.125 C 20.363281 22.945312 21.476562 23.183594 22.636719 23.914062 C 23.347656 24.460938 23.84375 25.28125 24.125 26.125 C 24.136719 26.421875 24.140625 26.71875 24.140625 27.015625 C 24.140625 27.253906 24.140625 27.253906 24.140625 27.492188 C 24.125 27.875 24.125 27.875 24 28 C 23.71875 28.054688 23.71875 28.054688 23.375 28 C 23.226562 27.824219 23.078125 27.648438 22.9375 27.464844 C 22.207031 26.625 21.015625 26.0625 19.921875 25.957031 C 18.621094 25.925781 17.648438 26.160156 16.5 26.75 C 17.945312 28.421875 19.695312 30.269531 22 30.5 C 21.53125 30.96875 20.761719 30.921875 20.125 31 C 20.03125 31.015625 19.9375 31.027344 19.84375 31.042969 C 18.605469 31.148438 17.425781 30.074219 16.515625 29.335938 C 14.964844 28.035156 13.949219 26.386719 13.25 24.5 C 13.210938 24.40625 13.175781 24.3125 13.136719 24.21875 C 11.738281 20.464844 12.671875 15.773438 14.265625 12.242188 C 15.085938 10.476562 15.085938 10.476562 16 10.5 Z M 16 10.5 "/>
<path style=" stroke:none;fill-rule:nonzero;fill:rgb(49.803922%,62.352943%,98.431373%);fill-opacity:1;" d="M 2.125 3.375 C 2.121094 3.546875 2.121094 3.546875 2.121094 3.71875 C 2.070312 8.84375 2.621094 13.894531 6.375 17.75 C 6.484375 17.867188 6.484375 17.867188 6.597656 17.988281 C 7.917969 19.386719 9.714844 20.230469 11.5 20.875 C 11.5 20.421875 11.5 19.96875 11.5 19.5 C 11.542969 19.5 11.582031 19.5 11.625 19.5 C 11.667969 20.40625 11.707031 21.316406 11.75 22.25 C 10.289062 22.105469 10.289062 22.105469 9.53125 21.804688 C 9.445312 21.769531 9.359375 21.738281 9.273438 21.703125 C 6.371094 20.535156 4.324219 18.503906 2.875 15.75 C 2.816406 15.636719 2.753906 15.523438 2.691406 15.410156 C 2.074219 14.226562 1.6875 13 1.414062 11.695312 C 1.386719 11.570312 1.359375 11.441406 1.332031 11.308594 C 1.15625 10.453125 1.015625 9.625 1 8.75 C 1 8.652344 0.996094 8.554688 0.996094 8.453125 C 0.933594 4.273438 0.933594 4.273438 1.5 3.5 C 1.75 3.375 1.75 3.375 2.125 3.375 Z M 2.125 3.375 "/>
<path style=" stroke:none;fill-rule:nonzero;fill:rgb(23.921569%,13.333334%,20.784314%);fill-opacity:1;" d="M 22.375 23.75 C 23.234375 24.292969 23.804688 25.167969 24.125 26.125 C 24.136719 26.421875 24.140625 26.71875 24.140625 27.015625 C 24.140625 27.253906 24.140625 27.253906 24.140625 27.492188 C 24.125 27.875 24.125 27.875 24 28 C 23.71875 28.054688 23.71875 28.054688 23.375 28 C 23.226562 27.824219 23.078125 27.648438 22.9375 27.464844 C 22.207031 26.625 21.015625 26.0625 19.921875 25.957031 C 18.878906 25.933594 17.917969 26.015625 16.988281 26.515625 C 16.664062 26.664062 16.460938 26.59375 16.125 26.5 C 16.03125 26.160156 15.976562 25.945312 16.089844 25.601562 C 17.453125 23.21875 19.890625 22.335938 22.375 23.75 Z M 22.375 23.75 "/>
<path style=" stroke:none;fill-rule:nonzero;fill:rgb(23.137255%,14.117648%,22.745098%);fill-opacity:1;" d="M 8.785156 8.363281 C 8.855469 8.410156 8.925781 8.453125 9 8.5 C 9 8.746094 9 8.996094 9 9.25 C 8.734375 9.335938 8.734375 9.335938 8.375 9.375 C 8.203125 9.285156 8.203125 9.285156 8.03125 9.195312 C 7.347656 8.867188 6.753906 8.917969 6.039062 9.148438 C 5.710938 9.328125 5.503906 9.472656 5.234375 9.71875 C 4.875 10 4.875 10 4.515625 9.976562 C 4.425781 9.941406 4.339844 9.910156 4.25 9.875 C 4.15625 9.59375 4.15625 9.59375 4.125 9.25 C 5.289062 7.722656 7.160156 7.433594 8.785156 8.363281 Z M 8.785156 8.363281 "/>
<path style=" stroke:none;fill-rule:nonzero;fill:rgb(23.529412%,14.509805%,22.745098%);fill-opacity:1;" d="M 16.550781 7.050781 C 16.875 7.25 16.875 7.25 17 7.570312 C 17 7.722656 17 7.722656 17 7.875 C 16.917969 7.957031 16.835938 8.039062 16.75 8.125 C 16.320312 8.09375 15.957031 8.035156 15.5625 7.867188 C 14.984375 7.648438 14.511719 7.703125 13.929688 7.898438 C 13.585938 8.078125 13.386719 8.214844 13.109375 8.46875 C 12.75 8.75 12.75 8.75 12.390625 8.726562 C 12.300781 8.695312 12.214844 8.660156 12.125 8.625 C 12.03125 8.34375 12.03125 8.34375 12 8 C 13.234375 6.378906 14.808594 6.410156 16.550781 7.050781 Z M 16.550781 7.050781 "/>
<path style=" stroke:none;fill-rule:nonzero;fill:rgb(24.705882%,12.941177%,20.392157%);fill-opacity:1;" d="M 16.125 15.625 C 16.78125 15.640625 17.09375 15.894531 17.546875 16.328125 C 17.949219 16.667969 18.371094 16.648438 18.878906 16.644531 C 19.199219 16.617188 19.453125 16.5 19.75 16.375 C 20.164062 16.359375 20.164062 16.359375 20.5 16.375 C 20.5625 16.746094 20.5625 16.746094 20.625 17.125 C 19.691406 17.683594 18.976562 17.859375 17.875 17.75 C 17.070312 17.515625 16.472656 16.941406 15.875 16.375 C 15.984375 15.765625 15.984375 15.765625 16.125 15.625 Z M 16.125 15.625 "/>
<path style=" stroke:none;fill-rule:nonzero;fill:rgb(25.098041%,13.333334%,20.392157%);fill-opacity:1;" d="M 23.5 17.125 C 23.84375 17.085938 23.84375 17.085938 24.25 17.125 C 24.421875 17.328125 24.585938 17.539062 24.75 17.75 C 25.449219 18.160156 25.984375 18.160156 26.75 18 C 26.875 17.957031 26.996094 17.917969 27.125 17.875 C 27.417969 17.871094 27.707031 17.871094 28 17.875 C 28.0625 18.183594 28.0625 18.183594 28.125 18.5 C 27.429688 19.109375 26.605469 19.332031 25.699219 19.300781 C 24.796875 19.160156 24.046875 18.679688 23.488281 17.964844 C 23.375 17.75 23.375 17.75 23.390625 17.382812 C 23.425781 17.296875 23.460938 17.210938 23.5 17.125 Z M 23.5 17.125 "/>
<path style=" stroke:none;fill-rule:nonzero;fill:rgb(87.843138%,53.333336%,9.019608%);fill-opacity:1;" d="M 7.625 16.5 C 7.875 16.5625 8.125 16.625 8.375 16.6875 C 9.109375 16.867188 9.816406 16.925781 10.570312 16.953125 C 10.742188 16.960938 10.742188 16.960938 10.917969 16.96875 C 11.195312 16.980469 11.472656 16.988281 11.75 17 C 11.75 17.496094 11.75 17.988281 11.75 18.5 C 10.546875 18.589844 9.597656 18.335938 8.632812 17.589844 C 7.804688 16.859375 7.804688 16.859375 7.625 16.5 Z M 7.625 16.5 "/>
<path style=" stroke:none;fill-rule:nonzero;fill:rgb(96.470588%,87.450981%,86.666667%);fill-opacity:1;" d="M 21.648438 24.457031 C 22.210938 24.871094 22.75 25.28125 22.875 26 C 22.714844 25.921875 22.714844 25.921875 22.554688 25.84375 C 22.34375 25.742188 22.34375 25.742188 22.125 25.640625 C 21.984375 25.574219 21.847656 25.507812 21.703125 25.4375 C 20.777344 25.054688 19.988281 24.964844 19 24.984375 C 18.890625 24.984375 18.78125 24.984375 18.671875 24.988281 C 18.40625 24.992188 18.140625 24.996094 17.875 25 C 18.828125 23.984375 20.421875 23.738281 21.648438 24.457031 Z M 21.648438 24.457031 "/>
<path style=" stroke:none;fill-rule:nonzero;fill:rgb(94.117647%,58.823532%,12.941177%);fill-opacity:1;" d="M 8.625 16.875 C 9.65625 16.917969 10.6875 16.957031 11.75 17 C 11.75 17.289062 11.75 17.578125 11.75 17.875 C 10.878906 18.125 9.988281 17.734375 9.199219 17.355469 C 9.003906 17.242188 8.8125 17.121094 8.625 17 C 8.625 16.957031 8.625 16.917969 8.625 16.875 Z M 8.625 16.875 "/>
</g>
</svg>
