<?xml version="1.0" encoding="UTF-8"?>
<svg xmlns="http://www.w3.org/2000/svg" xmlns:xlink="http://www.w3.org/1999/xlink" width="32" height="32" viewBox="0 0 32 32" version="1.1">
<g id="surface1">
<path style=" stroke:none;fill-rule:nonzero;fill:rgb(21.568628%,27.843139%,30.980393%);fill-opacity:1;" d="M 20.96875 3.59375 C 21.625 4.207031 22.214844 4.929688 22.519531 5.777344 C 22.726562 6.175781 22.726562 6.175781 23.230469 6.234375 C 23.421875 6.25 23.617188 6.257812 23.8125 6.265625 C 25.59375 6.398438 27.144531 7.015625 28.390625 8.34375 C 29.773438 10 30.160156 11.722656 30.027344 13.835938 C 29.875 15.429688 29.046875 16.8125 27.898438 17.902344 C 27.355469 18.34375 26.75 18.6875 26.125 19 C 26.125 19.121094 26.125 19.242188 26.125 19.363281 C 26.117188 20.5 26.109375 21.640625 26.101562 22.773438 C 26.097656 23.359375 26.09375 23.945312 26.089844 24.527344 C 26.089844 25.09375 26.085938 25.65625 26.078125 26.21875 C 26.078125 26.433594 26.078125 26.648438 26.078125 26.863281 C 26.078125 27.167969 26.074219 27.46875 26.070312 27.769531 C 26.070312 27.902344 26.070312 27.902344 26.070312 28.039062 C 26.054688 28.832031 25.753906 29.253906 25.199219 29.792969 C 24.503906 30.113281 23.828125 30.070312 23.070312 30.066406 C 22.898438 30.066406 22.726562 30.066406 22.554688 30.066406 C 22.09375 30.070312 21.628906 30.070312 21.164062 30.066406 C 20.679688 30.066406 20.191406 30.066406 19.707031 30.066406 C 18.890625 30.070312 18.074219 30.066406 17.257812 30.066406 C 16.316406 30.0625 15.371094 30.0625 14.429688 30.066406 C 13.617188 30.070312 12.808594 30.070312 12 30.066406 C 11.515625 30.066406 11.03125 30.066406 10.546875 30.070312 C 10.09375 30.070312 9.636719 30.070312 9.183594 30.066406 C 8.9375 30.066406 8.691406 30.066406 8.445312 30.066406 C 7.070312 30.054688 7.070312 30.054688 6.5 29.5 C 6.023438 28.941406 5.925781 28.484375 5.929688 27.769531 C 5.929688 27.675781 5.929688 27.578125 5.925781 27.480469 C 5.921875 27.167969 5.921875 26.855469 5.921875 26.542969 C 5.921875 26.328125 5.921875 26.109375 5.917969 25.890625 C 5.914062 25.320312 5.910156 24.75 5.90625 24.179688 C 5.90625 23.59375 5.898438 23.011719 5.894531 22.429688 C 5.886719 21.285156 5.878906 20.140625 5.875 19 C 5.757812 18.9375 5.757812 18.9375 5.640625 18.871094 C 5.539062 18.816406 5.4375 18.761719 5.335938 18.703125 C 5.234375 18.648438 5.132812 18.59375 5.03125 18.539062 C 3.609375 17.714844 2.609375 16.300781 2.125 14.75 C 1.6875 13.089844 1.90625 11.132812 2.691406 9.632812 C 3.433594 8.390625 4.34375 7.539062 5.625 6.875 C 5.761719 6.800781 5.761719 6.800781 5.898438 6.726562 C 6.53125 6.429688 7.082031 6.355469 7.769531 6.324219 C 8.738281 6.308594 8.738281 6.308594 9.535156 5.84375 C 9.71875 5.492188 9.71875 5.492188 9.855469 5.117188 C 10.367188 3.8125 11.746094 2.96875 12.960938 2.398438 C 15.671875 1.238281 18.699219 1.691406 20.96875 3.59375 Z M 11.355469 5.40625 C 11.164062 5.695312 11.050781 5.914062 10.933594 6.234375 C 10.523438 7.289062 10.523438 7.289062 10.125 7.625 C 9.382812 7.859375 8.570312 7.769531 7.800781 7.746094 C 6.558594 7.757812 5.621094 8.546875 4.757812 9.351562 C 3.765625 10.378906 3.328125 11.75 3.347656 13.15625 C 3.464844 14.683594 4.183594 15.871094 5.257812 16.925781 C 5.496094 17.121094 5.722656 17.242188 6 17.375 C 6 17.300781 6 17.226562 6 17.148438 C 6.007812 16.363281 6.015625 15.582031 6.027344 14.796875 C 6.03125 14.507812 6.03125 14.214844 6.035156 13.921875 C 6.035156 13.503906 6.042969 13.082031 6.046875 12.664062 C 6.046875 12.53125 6.046875 12.402344 6.046875 12.269531 C 6.0625 11.539062 6.109375 11.0625 6.625 10.5 C 7.09375 10.164062 7.414062 10.078125 7.984375 10.078125 C 8.132812 10.074219 8.277344 10.074219 8.429688 10.074219 C 8.589844 10.074219 8.75 10.074219 8.914062 10.074219 C 9.085938 10.074219 9.257812 10.074219 9.429688 10.074219 C 9.894531 10.070312 10.359375 10.070312 10.824219 10.070312 C 11.210938 10.070312 11.597656 10.070312 11.984375 10.070312 C 12.902344 10.066406 13.816406 10.066406 14.734375 10.070312 C 15.675781 10.070312 16.621094 10.070312 17.5625 10.066406 C 18.375 10.0625 19.1875 10.0625 19.996094 10.0625 C 20.480469 10.0625 20.964844 10.0625 21.449219 10.0625 C 21.902344 10.058594 22.359375 10.058594 22.816406 10.0625 C 23.0625 10.0625 23.308594 10.058594 23.550781 10.058594 C 24.898438 10.070312 24.898438 10.070312 25.5 10.625 C 26.019531 11.203125 25.933594 11.917969 25.9375 12.652344 C 25.941406 12.785156 25.945312 12.921875 25.945312 13.058594 C 25.953125 13.492188 25.957031 13.921875 25.960938 14.351562 C 25.964844 14.644531 25.96875 14.9375 25.972656 15.230469 C 25.984375 15.945312 25.992188 16.660156 26 17.375 C 27.3125 16.507812 28.101562 15.523438 28.546875 13.984375 C 28.773438 12.570312 28.550781 11.257812 27.789062 10.023438 C 26.988281 8.929688 25.851562 8.019531 24.5 7.75 C 24.304688 7.753906 24.109375 7.761719 23.914062 7.777344 C 22.140625 7.847656 22.140625 7.847656 21.671875 7.453125 C 21.347656 7.007812 21.164062 6.496094 20.972656 5.980469 C 20.484375 4.816406 19.222656 4.058594 18.113281 3.585938 C 15.625 2.71875 13.082031 3.433594 11.355469 5.40625 Z M 7.375 15.125 C 7.375 18.136719 7.375 21.148438 7.375 24.25 C 9.808594 24.25 12.242188 24.25 14.75 24.25 C 14.914062 23.921875 15.078125 23.589844 15.25 23.25 C 15.90625 22.621094 16.355469 22.339844 17.261719 22.351562 C 17.476562 22.351562 17.476562 22.351562 17.699219 22.351562 C 17.851562 22.355469 18 22.359375 18.15625 22.359375 C 18.386719 22.359375 18.386719 22.359375 18.617188 22.363281 C 18.996094 22.367188 19.371094 22.371094 19.75 22.375 C 19.785156 22.457031 19.816406 22.539062 19.851562 22.621094 C 19.902344 22.703125 19.949219 22.789062 20 22.875 C 20.378906 22.957031 20.378906 22.957031 20.8125 22.960938 C 21.609375 22.992188 21.609375 22.992188 21.875 23.125 C 21.898438 23.546875 21.898438 23.546875 21.875 24 C 21.449219 24.285156 21.230469 24.296875 20.726562 24.328125 C 20.523438 24.34375 20.523438 24.34375 20.316406 24.355469 C 20.210938 24.363281 20.109375 24.367188 20 24.375 C 20 24.746094 20 25.117188 20 25.5 C 20.15625 25.507812 20.15625 25.507812 20.316406 25.519531 C 20.519531 25.53125 20.519531 25.53125 20.726562 25.546875 C 20.859375 25.554688 20.996094 25.5625 21.136719 25.574219 C 21.5 25.625 21.5 25.625 21.875 25.875 C 21.898438 26.328125 21.898438 26.328125 21.875 26.75 C 21.421875 26.976562 20.871094 26.914062 20.371094 26.929688 C 20.25 26.953125 20.125 26.976562 20 27 C 19.847656 27.246094 19.847656 27.246094 19.75 27.5 C 19.25 27.515625 18.75 27.523438 18.25 27.53125 C 18.109375 27.535156 17.96875 27.539062 17.824219 27.542969 C 16.886719 27.554688 16.140625 27.480469 15.433594 26.824219 C 15.09375 26.4375 14.945312 26.109375 14.75 25.625 C 12.316406 25.625 9.882812 25.625 7.375 25.625 C 7.375 26.449219 7.375 27.273438 7.375 28.125 C 7.890625 28.664062 7.890625 28.664062 8.546875 28.6875 C 8.683594 28.691406 8.824219 28.691406 8.960938 28.691406 C 9.113281 28.691406 9.261719 28.691406 9.414062 28.691406 C 9.652344 28.691406 9.652344 28.691406 9.894531 28.691406 C 10.328125 28.695312 10.757812 28.695312 11.191406 28.691406 C 11.640625 28.691406 12.097656 28.691406 12.546875 28.691406 C 13.308594 28.695312 14.066406 28.691406 14.828125 28.691406 C 15.707031 28.6875 16.585938 28.6875 17.464844 28.691406 C 18.21875 28.695312 18.972656 28.695312 19.726562 28.691406 C 20.175781 28.691406 20.628906 28.691406 21.078125 28.695312 C 21.578125 28.695312 22.082031 28.691406 22.585938 28.691406 C 22.734375 28.691406 22.882812 28.691406 23.039062 28.691406 C 23.171875 28.691406 23.308594 28.691406 23.453125 28.6875 C 23.570312 28.6875 23.6875 28.6875 23.8125 28.6875 C 24.226562 28.605469 24.371094 28.457031 24.625 28.125 C 24.699219 27.859375 24.699219 27.859375 24.683594 27.570312 C 24.6875 27.460938 24.6875 27.351562 24.6875 27.238281 C 24.683594 27.117188 24.683594 27 24.679688 26.875 C 24.679688 26.679688 24.679688 26.679688 24.683594 26.484375 C 24.679688 26.066406 24.675781 25.648438 24.671875 25.234375 C 24.671875 24.976562 24.671875 24.71875 24.671875 24.460938 C 24.671875 23.503906 24.664062 22.546875 24.65625 21.59375 C 24.644531 19.457031 24.636719 17.324219 24.625 15.125 C 18.933594 15.125 13.238281 15.125 7.375 15.125 Z M 7.375 15.125 "/>
<path style=" stroke:none;fill-rule:nonzero;fill:rgb(34.117648%,62.352943%,83.529413%);fill-opacity:1;" d="M 8.289062 11.34375 C 8.429688 11.34375 8.570312 11.34375 8.714844 11.339844 C 8.949219 11.34375 8.949219 11.34375 9.1875 11.34375 C 9.351562 11.34375 9.511719 11.34375 9.679688 11.339844 C 10.128906 11.339844 10.578125 11.339844 11.023438 11.34375 C 11.492188 11.34375 11.960938 11.34375 12.429688 11.339844 C 13.214844 11.339844 14 11.339844 14.785156 11.34375 C 15.695312 11.34375 16.605469 11.34375 17.515625 11.34375 C 18.296875 11.339844 19.074219 11.339844 19.855469 11.339844 C 20.320312 11.34375 20.789062 11.34375 21.253906 11.339844 C 21.773438 11.339844 22.292969 11.339844 22.8125 11.34375 C 22.96875 11.34375 23.125 11.34375 23.285156 11.339844 C 23.425781 11.34375 23.566406 11.34375 23.710938 11.34375 C 23.835938 11.34375 23.957031 11.34375 24.082031 11.34375 C 24.375 11.375 24.375 11.375 24.625 11.625 C 24.625 12.324219 24.625 13.027344 24.625 13.75 C 18.933594 13.75 13.242188 13.75 7.375 13.75 C 7.375 11.34375 7.375 11.34375 8.289062 11.34375 Z M 8.289062 11.34375 "/>
<path style=" stroke:none;fill-rule:nonzero;fill:rgb(21.176471%,27.843139%,30.980393%);fill-opacity:1;" d="M 13.625 16.625 C 14.34375 17.289062 14.558594 18.148438 14.851562 19.0625 C 14.925781 19.289062 14.925781 19.289062 15.003906 19.519531 C 15.421875 20.792969 15.421875 20.792969 15.375 21.5 C 15.242188 21.742188 15.242188 21.742188 15 21.875 C 14.5625 21.890625 14.5625 21.890625 14.125 21.75 C 13.871094 21.308594 13.75 21.007812 13.75 20.5 C 13.046875 20.5 12.347656 20.5 11.625 20.5 C 11.582031 20.746094 11.542969 20.996094 11.5 21.25 C 11.308594 21.71875 11.308594 21.71875 11 21.875 C 10.625 21.898438 10.625 21.898438 10.25 21.875 C 10 21.625 10 21.625 9.953125 21.210938 C 9.972656 20.429688 10.265625 19.714844 10.523438 18.984375 C 10.570312 18.839844 10.621094 18.695312 10.671875 18.546875 C 10.933594 17.792969 11.164062 17.179688 11.75 16.625 C 12.382812 16.335938 13.003906 16.285156 13.625 16.625 Z M 12.625 17.875 C 12.351562 18.292969 12.195312 18.628906 12.125 19.125 C 12.453125 19.125 12.785156 19.125 13.125 19.125 C 13.089844 18.941406 13.050781 18.753906 13.015625 18.570312 C 12.984375 18.417969 12.984375 18.417969 12.953125 18.257812 C 12.925781 18.171875 12.902344 18.085938 12.875 18 C 12.792969 17.957031 12.710938 17.917969 12.625 17.875 Z M 12.625 17.875 "/>
<path style=" stroke:none;fill-rule:nonzero;fill:rgb(21.176471%,27.450982%,30.588236%);fill-opacity:1;" d="M 19.011719 16.617188 C 19.484375 16.878906 19.761719 17.269531 20 17.75 C 20.0625 18.441406 20.09375 19.050781 19.796875 19.6875 C 19.046875 20.472656 19.046875 20.472656 18.394531 20.53125 C 18.054688 20.53125 17.714844 20.519531 17.375 20.5 C 17.382812 20.65625 17.390625 20.8125 17.398438 20.976562 C 17.394531 21.460938 17.394531 21.460938 17.234375 21.75 C 16.890625 21.933594 16.628906 21.914062 16.25 21.875 C 15.871094 21.496094 15.957031 21.054688 15.953125 20.546875 C 15.953125 20.441406 15.953125 20.332031 15.949219 20.222656 C 15.949219 19.996094 15.949219 19.769531 15.945312 19.542969 C 15.945312 19.199219 15.9375 18.851562 15.933594 18.503906 C 15.929688 18.285156 15.929688 18.0625 15.929688 17.84375 C 15.925781 17.738281 15.925781 17.636719 15.921875 17.527344 C 15.925781 17.238281 15.925781 17.238281 16 16.75 C 16.796875 16.066406 18.085938 16.265625 19.011719 16.617188 Z M 17.375 17.875 C 17.375 18.289062 17.375 18.699219 17.375 19.125 C 17.730469 19.167969 17.730469 19.167969 18.125 19.125 C 18.421875 18.890625 18.421875 18.890625 18.625 18.625 C 18.488281 18.21875 18.488281 18.21875 18.25 17.875 C 17.957031 17.871094 17.667969 17.871094 17.375 17.875 Z M 17.375 17.875 "/>
<path style=" stroke:none;fill-rule:nonzero;fill:rgb(21.176471%,27.450982%,30.588236%);fill-opacity:1;" d="M 21.59375 16.46875 C 21.875 16.625 21.875 16.625 22 16.75 C 22.015625 17.109375 22.019531 17.460938 22.019531 17.820312 C 22.019531 17.925781 22.019531 18.035156 22.023438 18.144531 C 22.023438 18.371094 22.023438 18.601562 22.023438 18.828125 C 22.023438 19.175781 22.027344 19.527344 22.027344 19.875 C 22.027344 20.097656 22.027344 20.316406 22.027344 20.539062 C 22.03125 20.644531 22.03125 20.75 22.03125 20.855469 C 22.027344 21.597656 22.027344 21.597656 21.75 21.875 C 21.089844 21.945312 21.089844 21.945312 20.792969 21.714844 C 20.503906 21.34375 20.566406 20.890625 20.566406 20.4375 C 20.566406 20.332031 20.566406 20.230469 20.5625 20.121094 C 20.5625 19.902344 20.5625 19.683594 20.5625 19.460938 C 20.5625 19.125 20.558594 18.789062 20.550781 18.453125 C 20.550781 18.238281 20.550781 18.027344 20.550781 17.8125 C 20.546875 17.710938 20.546875 17.609375 20.546875 17.507812 C 20.546875 17.222656 20.546875 17.222656 20.625 16.75 C 20.988281 16.429688 21.117188 16.339844 21.59375 16.46875 Z M 21.59375 16.46875 "/>
<path style=" stroke:none;fill-rule:nonzero;fill:rgb(33.725491%,62.352943%,83.529413%);fill-opacity:1;" d="M 18.625 23.625 C 18.625 24.492188 18.625 25.359375 18.625 26.25 C 16.851562 26.332031 16.851562 26.332031 16.398438 26.007812 C 16.042969 25.511719 15.914062 25.109375 16 24.5 C 16.589844 23.390625 17.511719 23.613281 18.625 23.625 Z M 18.625 23.625 "/>
<path style=" stroke:none;fill-rule:nonzero;fill:rgb(89.411765%,91.764706%,93.333334%);fill-opacity:1;" d="M 12.242188 11.835938 C 12.625 11.875 12.625 11.875 12.867188 12.015625 C 13 12.25 13 12.25 12.984375 12.632812 C 12.875 13 12.875 13 12.5 13.25 C 12.109375 13.21875 12.109375 13.21875 11.75 13.125 C 11.578125 12.78125 11.601562 12.507812 11.625 12.125 C 11.875 11.875 11.875 11.875 12.242188 11.835938 Z M 12.242188 11.835938 "/>
<path style=" stroke:none;fill-rule:nonzero;fill:rgb(89.803922%,91.764706%,93.333334%);fill-opacity:1;" d="M 9.5 11.84375 C 9.875 11.875 9.875 11.875 10.125 12.125 C 10.167969 12.515625 10.191406 12.769531 9.976562 13.109375 C 9.664062 13.300781 9.484375 13.3125 9.125 13.25 C 8.890625 13.039062 8.890625 13.039062 8.75 12.75 C 8.789062 12.183594 8.898438 11.894531 9.5 11.84375 Z M 9.5 11.84375 "/>
<path style=" stroke:none;fill-rule:nonzero;fill:rgb(90.980393%,92.54902%,93.725491%);fill-opacity:1;" d="M 14.75 11.875 C 15.203125 11.921875 15.203125 11.921875 15.625 12 C 15.667969 12.289062 15.707031 12.578125 15.75 12.875 C 15.539062 13.070312 15.539062 13.070312 15.25 13.25 C 14.921875 13.234375 14.921875 13.234375 14.625 13.125 C 14.375 12.75 14.375 12.75 14.40625 12.429688 C 14.5 12.125 14.5 12.125 14.75 11.875 Z M 14.75 11.875 "/>
</g>
</svg>
