<?xml version="1.0" encoding="UTF-8"?>
<svg xmlns="http://www.w3.org/2000/svg" xmlns:xlink="http://www.w3.org/1999/xlink" width="32" height="32" viewBox="0 0 32 32" version="1.1">
<g id="surface1">
<path style=" stroke:none;fill-rule:nonzero;fill:rgb(0%,0%,0%);fill-opacity:1;" d="M 13.78125 10.773438 C 14.777344 11.792969 15.875 13.132812 15.875 14.625 C 16.03125 14.625 16.1875 14.621094 16.347656 14.621094 C 17.824219 14.609375 19.296875 14.597656 20.773438 14.59375 C 21.53125 14.589844 22.292969 14.585938 23.050781 14.578125 C 23.78125 14.570312 24.515625 14.566406 25.246094 14.566406 C 25.523438 14.566406 25.804688 14.5625 26.082031 14.558594 C 26.472656 14.554688 26.863281 14.554688 27.257812 14.554688 C 27.371094 14.550781 27.484375 14.550781 27.605469 14.546875 C 28.148438 14.550781 28.511719 14.578125 28.945312 14.925781 C 29.359375 15.367188 29.421875 15.628906 29.421875 16.238281 C 29.339844 16.703125 29.082031 16.925781 28.75 17.25 C 28.417969 17.414062 28.164062 17.390625 27.792969 17.386719 C 27.582031 17.386719 27.582031 17.386719 27.367188 17.386719 C 27.21875 17.382812 27.074219 17.382812 26.921875 17.382812 C 26.773438 17.382812 26.625 17.382812 26.472656 17.382812 C 26.109375 17.378906 25.742188 17.378906 25.375 17.375 C 25.378906 17.464844 25.382812 17.554688 25.386719 17.648438 C 25.398438 18.0625 25.40625 18.476562 25.414062 18.890625 C 25.421875 19.105469 25.421875 19.105469 25.429688 19.324219 C 25.449219 20.511719 25.449219 20.511719 25.078125 20.96875 C 24.628906 21.355469 24.359375 21.425781 23.765625 21.417969 C 23.296875 21.339844 23.074219 21.082031 22.75 20.75 C 22.582031 20.417969 22.609375 20.164062 22.613281 19.792969 C 22.613281 19.652344 22.613281 19.511719 22.613281 19.367188 C 22.613281 19.21875 22.617188 19.074219 22.617188 18.921875 C 22.617188 18.773438 22.617188 18.625 22.617188 18.472656 C 22.621094 18.105469 22.621094 17.742188 22.625 17.375 C 22.210938 17.375 21.800781 17.375 21.375 17.375 C 21.378906 17.464844 21.382812 17.554688 21.386719 17.648438 C 21.398438 18.0625 21.40625 18.476562 21.414062 18.890625 C 21.421875 19.105469 21.421875 19.105469 21.429688 19.324219 C 21.449219 20.511719 21.449219 20.511719 21.078125 20.96875 C 20.628906 21.355469 20.359375 21.425781 19.765625 21.417969 C 19.296875 21.339844 19.074219 21.082031 18.75 20.75 C 18.582031 20.417969 18.609375 20.164062 18.613281 19.792969 C 18.613281 19.582031 18.613281 19.582031 18.613281 19.367188 C 18.613281 19.148438 18.613281 19.148438 18.617188 18.921875 C 18.617188 18.773438 18.617188 18.625 18.617188 18.472656 C 18.621094 18.105469 18.621094 17.742188 18.625 17.375 C 17.71875 17.375 16.808594 17.375 15.875 17.375 C 15.832031 17.664062 15.792969 17.953125 15.75 18.25 C 15.027344 20.101562 13.84375 21.371094 12.054688 22.234375 C 10.273438 22.984375 8.425781 22.898438 6.625 22.25 C 4.976562 21.511719 3.796875 20.296875 3.097656 18.636719 C 2.421875 16.84375 2.386719 14.921875 3.152344 13.144531 C 3.980469 11.5 5.324219 10.226562 7.0625 9.597656 C 9.515625 8.832031 11.679688 9.359375 13.78125 10.773438 Z M 13.78125 10.773438 "/>
<path style=" stroke:none;fill-rule:nonzero;fill:rgb(96.862745%,6.666667%,15.294118%);fill-opacity:1;" d="M 11.625 12.625 C 12.519531 13.296875 13.15625 14.269531 13.375 15.375 C 13.480469 16.425781 13.273438 17.414062 12.65625 18.28125 C 11.863281 19.242188 10.996094 19.894531 9.726562 20.046875 C 8.511719 20.089844 7.609375 19.824219 6.65625 19.0625 C 5.765625 18.203125 5.304688 17.242188 5.28125 16 C 5.304688 14.757812 5.765625 13.796875 6.65625 12.9375 C 8.164062 11.734375 9.960938 11.644531 11.625 12.625 Z M 11.625 12.625 "/>
</g>
</svg>
