<?xml version="1.0" encoding="UTF-8"?>
<svg xmlns="http://www.w3.org/2000/svg" xmlns:xlink="http://www.w3.org/1999/xlink" width="32" height="32" viewBox="0 0 32 32" version="1.1">
<g id="surface1">
<path style=" stroke:none;fill-rule:nonzero;fill:rgb(98.823529%,27.450982%,32.941177%);fill-opacity:1;" d="M 4.578125 0.851562 C 4.703125 0.851562 4.703125 0.851562 4.828125 0.851562 C 5.097656 0.847656 5.371094 0.847656 5.640625 0.84375 C 5.734375 0.84375 5.828125 0.84375 5.921875 0.84375 C 6.417969 0.839844 6.910156 0.839844 7.402344 0.835938 C 7.910156 0.835938 8.417969 0.832031 8.925781 0.828125 C 9.316406 0.824219 9.707031 0.824219 10.101562 0.824219 C 10.289062 0.820312 10.472656 0.820312 10.660156 0.816406 C 11.910156 0.804688 12.882812 0.933594 13.96875 1.578125 C 14.734375 2.386719 15.140625 3.246094 15.148438 4.351562 C 15.148438 4.4375 15.148438 4.523438 15.148438 4.613281 C 15.152344 4.898438 15.152344 5.179688 15.15625 5.464844 C 15.15625 5.5625 15.15625 5.660156 15.15625 5.761719 C 15.160156 6.277344 15.160156 6.796875 15.164062 7.3125 C 15.164062 7.84375 15.167969 8.375 15.171875 8.90625 C 15.175781 9.316406 15.175781 9.726562 15.175781 10.136719 C 15.175781 10.335938 15.179688 10.53125 15.179688 10.726562 C 15.199219 12.128906 15.074219 13.234375 14.089844 14.3125 C 13.382812 14.929688 12.570312 15.140625 11.652344 15.148438 C 11.566406 15.148438 11.480469 15.152344 11.390625 15.152344 C 11.109375 15.15625 10.824219 15.15625 10.539062 15.160156 C 10.441406 15.160156 10.34375 15.160156 10.242188 15.160156 C 9.726562 15.164062 9.210938 15.167969 8.695312 15.167969 C 8.269531 15.171875 7.84375 15.175781 7.417969 15.179688 C 6.902344 15.183594 6.390625 15.1875 5.875 15.1875 C 5.679688 15.191406 5.484375 15.191406 5.289062 15.195312 C 3.902344 15.214844 2.84375 15.054688 1.765625 14.109375 C 0.792969 13.042969 0.800781 11.660156 0.8125 10.296875 C 0.8125 10.109375 0.8125 9.925781 0.8125 9.738281 C 0.8125 9.351562 0.8125 8.964844 0.816406 8.578125 C 0.820312 8.082031 0.820312 7.589844 0.820312 7.09375 C 0.816406 6.710938 0.820312 6.332031 0.820312 5.945312 C 0.820312 5.765625 0.820312 5.582031 0.820312 5.402344 C 0.816406 3.921875 0.933594 2.84375 1.976562 1.742188 C 2.75 1.054688 3.5625 0.863281 4.578125 0.851562 Z M 4.578125 0.851562 "/>
<path style=" stroke:none;fill-rule:nonzero;fill:rgb(99.607843%,69.411767%,15.686275%);fill-opacity:1;" d="M 20.390625 16.835938 C 20.476562 16.835938 20.5625 16.835938 20.652344 16.832031 C 20.933594 16.832031 21.214844 16.828125 21.496094 16.828125 C 21.695312 16.828125 21.894531 16.828125 22.089844 16.824219 C 22.503906 16.824219 22.917969 16.820312 23.332031 16.820312 C 23.859375 16.820312 24.386719 16.816406 24.914062 16.808594 C 25.324219 16.808594 25.734375 16.808594 26.140625 16.804688 C 26.335938 16.804688 26.53125 16.804688 26.722656 16.800781 C 28.050781 16.785156 29.046875 16.921875 30.101562 17.789062 C 30.820312 18.671875 31.136719 19.320312 31.148438 20.464844 C 31.148438 20.550781 31.148438 20.632812 31.148438 20.71875 C 31.152344 20.996094 31.152344 21.273438 31.15625 21.546875 C 31.15625 21.644531 31.15625 21.738281 31.15625 21.835938 C 31.160156 22.335938 31.160156 22.839844 31.160156 23.339844 C 31.164062 23.855469 31.167969 24.371094 31.171875 24.886719 C 31.175781 25.285156 31.175781 25.683594 31.175781 26.082031 C 31.175781 26.269531 31.179688 26.460938 31.179688 26.652344 C 31.199219 28.128906 31.015625 29.179688 29.992188 30.285156 C 29.238281 30.957031 28.40625 31.140625 27.421875 31.148438 C 27.339844 31.148438 27.257812 31.148438 27.171875 31.148438 C 26.902344 31.152344 26.628906 31.152344 26.359375 31.152344 C 26.265625 31.15625 26.171875 31.15625 26.078125 31.15625 C 25.582031 31.160156 25.089844 31.160156 24.597656 31.160156 C 24.089844 31.164062 23.582031 31.167969 23.074219 31.171875 C 22.683594 31.175781 22.292969 31.175781 21.898438 31.175781 C 21.710938 31.179688 21.523438 31.179688 21.339844 31.183594 C 20.117188 31.195312 19.078125 31.121094 18.050781 30.398438 C 17.941406 30.28125 17.941406 30.28125 17.828125 30.164062 C 17.753906 30.089844 17.675781 30.011719 17.597656 29.933594 C 16.816406 28.847656 16.796875 27.773438 16.800781 26.472656 C 16.800781 26.277344 16.796875 26.082031 16.796875 25.882812 C 16.796875 25.472656 16.796875 25.0625 16.796875 24.652344 C 16.796875 24.128906 16.792969 23.609375 16.789062 23.085938 C 16.785156 22.679688 16.785156 22.273438 16.785156 21.867188 C 16.785156 21.675781 16.78125 21.484375 16.78125 21.289062 C 16.765625 20.058594 16.890625 19.039062 17.625 18 C 18.453125 17.183594 19.222656 16.847656 20.390625 16.835938 Z M 20.390625 16.835938 "/>
<path style=" stroke:none;fill-rule:nonzero;fill:rgb(0%,89.019608%,60.000002%);fill-opacity:1;" d="M 27.703125 2.65625 C 29.066406 3.660156 30.050781 5.070312 30.375 6.75 C 30.589844 8.910156 30.175781 10.640625 28.835938 12.375 C 27.734375 13.667969 26.15625 14.320312 24.5 14.484375 C 22.546875 14.570312 20.988281 13.996094 19.5 12.75 C 18.203125 11.558594 17.605469 9.910156 17.507812 8.179688 C 17.480469 6.378906 18.15625 4.703125 19.375 3.375 C 21.746094 1.300781 25.023438 0.941406 27.703125 2.65625 Z M 27.703125 2.65625 "/>
<path style=" stroke:none;fill-rule:nonzero;fill:rgb(37.254903%,71.372551%,99.607843%);fill-opacity:1;" d="M 9.289062 17.671875 C 10.28125 18.285156 10.835938 19.585938 11.382812 20.578125 C 11.523438 20.832031 11.664062 21.085938 11.804688 21.335938 C 11.914062 21.53125 11.914062 21.53125 12.027344 21.726562 C 12.398438 22.386719 12.78125 23.042969 13.164062 23.695312 C 13.308594 23.945312 13.457031 24.195312 13.601562 24.441406 C 13.667969 24.558594 13.738281 24.675781 13.808594 24.796875 C 14.074219 25.25 14.339844 25.707031 14.601562 26.164062 C 14.675781 26.296875 14.753906 26.425781 14.832031 26.5625 C 15.210938 27.269531 15.179688 27.964844 15.125 28.75 C 14.910156 29.429688 14.457031 29.855469 13.875 30.25 C 13.332031 30.523438 12.824219 30.535156 12.230469 30.535156 C 12.082031 30.539062 12.082031 30.539062 11.925781 30.539062 C 11.59375 30.539062 11.261719 30.542969 10.929688 30.542969 C 10.695312 30.542969 10.460938 30.542969 10.230469 30.542969 C 9.742188 30.546875 9.257812 30.546875 8.773438 30.546875 C 8.148438 30.546875 7.527344 30.550781 6.90625 30.554688 C 6.429688 30.558594 5.949219 30.558594 5.46875 30.558594 C 5.238281 30.558594 5.011719 30.558594 4.78125 30.5625 C 4.460938 30.5625 4.140625 30.5625 3.816406 30.5625 C 3.722656 30.5625 3.628906 30.5625 3.535156 30.5625 C 2.738281 30.554688 2.066406 30.3125 1.492188 29.746094 C 1.40625 29.621094 1.40625 29.621094 1.320312 29.492188 C 1.230469 29.367188 1.230469 29.367188 1.140625 29.238281 C 0.789062 28.640625 0.761719 28.042969 0.875 27.375 C 1.363281 26.140625 2.082031 25 2.761719 23.863281 C 3.125 23.253906 3.476562 22.640625 3.832031 22.023438 C 4.148438 21.46875 4.472656 20.914062 4.792969 20.359375 C 4.917969 20.140625 5.042969 19.925781 5.167969 19.707031 C 6.085938 18.109375 7.296875 16.839844 9.289062 17.671875 Z M 9.289062 17.671875 "/>
<path style=" stroke:none;fill-rule:nonzero;fill:rgb(89.803922%,25.098041%,30.19608%);fill-opacity:1;" d="M 4.621094 0.839844 C 4.703125 0.835938 4.785156 0.835938 4.871094 0.835938 C 5.140625 0.832031 5.410156 0.832031 5.679688 0.832031 C 5.867188 0.832031 6.054688 0.832031 6.246094 0.828125 C 6.640625 0.828125 7.035156 0.828125 7.433594 0.828125 C 7.9375 0.828125 8.441406 0.824219 8.945312 0.820312 C 9.335938 0.820312 9.726562 0.816406 10.113281 0.816406 C 10.300781 0.816406 10.484375 0.816406 10.671875 0.816406 C 11.917969 0.800781 12.886719 0.9375 13.96875 1.578125 C 14.734375 2.386719 15.140625 3.246094 15.148438 4.351562 C 15.148438 4.4375 15.148438 4.523438 15.148438 4.609375 C 15.152344 4.894531 15.152344 5.179688 15.15625 5.464844 C 15.15625 5.5625 15.15625 5.660156 15.15625 5.761719 C 15.160156 6.277344 15.160156 6.796875 15.164062 7.3125 C 15.164062 7.84375 15.167969 8.375 15.171875 8.90625 C 15.175781 9.316406 15.175781 9.726562 15.175781 10.140625 C 15.175781 10.332031 15.179688 10.53125 15.179688 10.726562 C 15.199219 12.152344 15.066406 13.230469 14.066406 14.320312 C 13.8125 14.5625 13.570312 14.734375 13.25 14.875 C 13.066406 14.8125 13.066406 14.8125 12.875 14.75 C 12.925781 14.648438 12.925781 14.648438 12.980469 14.546875 C 13.023438 14.453125 13.070312 14.367188 13.117188 14.273438 C 13.164062 14.183594 13.207031 14.097656 13.253906 14.003906 C 13.492188 13.503906 13.515625 13.109375 13.523438 12.558594 C 13.523438 12.476562 13.523438 12.394531 13.523438 12.308594 C 13.527344 12.035156 13.527344 11.765625 13.53125 11.492188 C 13.53125 11.398438 13.53125 11.304688 13.53125 11.207031 C 13.535156 10.714844 13.535156 10.21875 13.539062 9.722656 C 13.539062 9.214844 13.542969 8.707031 13.546875 8.195312 C 13.550781 7.804688 13.550781 7.410156 13.550781 7.015625 C 13.550781 6.828125 13.554688 6.640625 13.554688 6.453125 C 13.574219 4.96875 13.378906 3.941406 12.351562 2.832031 C 11.640625 2.179688 10.839844 2.109375 9.921875 2.109375 C 9.839844 2.109375 9.757812 2.109375 9.675781 2.109375 C 9.410156 2.109375 9.144531 2.109375 8.878906 2.109375 C 8.695312 2.109375 8.507812 2.109375 8.324219 2.109375 C 7.933594 2.109375 7.546875 2.109375 7.160156 2.109375 C 6.664062 2.109375 6.167969 2.109375 5.671875 2.109375 C 5.289062 2.109375 4.90625 2.109375 4.523438 2.109375 C 4.339844 2.109375 4.15625 2.109375 3.972656 2.109375 C 3.71875 2.109375 3.460938 2.109375 3.203125 2.109375 C 3.058594 2.109375 2.914062 2.109375 2.765625 2.109375 C 2.410156 2.125 2.09375 2.167969 1.75 2.25 C 1.933594 1.695312 2.375 1.390625 2.875 1.125 C 3.472656 0.929688 3.992188 0.84375 4.621094 0.839844 Z M 4.621094 0.839844 "/>
<path style=" stroke:none;fill-rule:nonzero;fill:rgb(90.588236%,62.7451%,14.509805%);fill-opacity:1;" d="M 20.347656 16.851562 C 20.433594 16.851562 20.519531 16.847656 20.609375 16.847656 C 20.894531 16.84375 21.175781 16.84375 21.460938 16.839844 C 21.558594 16.839844 21.65625 16.839844 21.757812 16.839844 C 22.273438 16.835938 22.789062 16.832031 23.304688 16.832031 C 23.730469 16.828125 24.15625 16.824219 24.582031 16.820312 C 25.097656 16.816406 25.613281 16.8125 26.125 16.8125 C 26.320312 16.808594 26.519531 16.808594 26.710938 16.804688 C 28.042969 16.785156 29.039062 16.917969 30.101562 17.789062 C 30.820312 18.671875 31.136719 19.320312 31.148438 20.46875 C 31.148438 20.550781 31.148438 20.632812 31.148438 20.722656 C 31.152344 20.996094 31.152344 21.273438 31.15625 21.546875 C 31.15625 21.644531 31.15625 21.738281 31.15625 21.835938 C 31.160156 22.335938 31.160156 22.839844 31.160156 23.339844 C 31.164062 23.855469 31.167969 24.371094 31.171875 24.886719 C 31.175781 25.285156 31.175781 25.683594 31.175781 26.082031 C 31.175781 26.269531 31.179688 26.460938 31.179688 26.652344 C 31.199219 28.152344 31.007812 29.171875 29.96875 30.292969 C 29.644531 30.601562 29.339844 30.875 28.875 30.875 C 28.910156 30.792969 28.941406 30.714844 28.976562 30.632812 C 29.023438 30.507812 29.074219 30.378906 29.125 30.25 C 29.15625 30.179688 29.1875 30.105469 29.21875 30.03125 C 29.578125 29.125 29.554688 28.21875 29.554688 27.253906 C 29.554688 27.074219 29.554688 26.894531 29.554688 26.714844 C 29.558594 26.335938 29.554688 25.960938 29.554688 25.582031 C 29.554688 25.105469 29.554688 24.625 29.558594 24.144531 C 29.5625 23.773438 29.5625 23.402344 29.5625 23.03125 C 29.5625 22.851562 29.5625 22.675781 29.5625 22.5 C 29.574219 21.070312 29.394531 19.898438 28.375 18.835938 C 27.335938 17.964844 26.03125 18.058594 24.757812 18.074219 C 24.554688 18.078125 24.351562 18.078125 24.148438 18.078125 C 23.617188 18.078125 23.089844 18.085938 22.558594 18.089844 C 22.015625 18.097656 21.476562 18.097656 20.933594 18.101562 C 19.871094 18.105469 18.8125 18.113281 17.75 18.125 C 17.953125 17.675781 18.113281 17.519531 18.554688 17.289062 C 18.652344 17.238281 18.75 17.183594 18.851562 17.132812 C 19.371094 16.882812 19.777344 16.855469 20.347656 16.851562 Z M 20.347656 16.851562 "/>
<path style=" stroke:none;fill-rule:nonzero;fill:rgb(33.725491%,64.705884%,90.588236%);fill-opacity:1;" d="M 9.289062 17.671875 C 10.28125 18.28125 10.835938 19.585938 11.382812 20.578125 C 11.523438 20.832031 11.664062 21.085938 11.804688 21.335938 C 11.878906 21.464844 11.953125 21.59375 12.027344 21.726562 C 12.398438 22.386719 12.78125 23.042969 13.164062 23.695312 C 13.308594 23.945312 13.457031 24.195312 13.601562 24.441406 C 13.667969 24.558594 13.738281 24.675781 13.808594 24.796875 C 14.074219 25.25 14.339844 25.707031 14.601562 26.164062 C 14.675781 26.296875 14.753906 26.425781 14.832031 26.5625 C 15.210938 27.269531 15.179688 27.964844 15.125 28.75 C 14.910156 29.429688 14.460938 29.859375 13.875 30.25 C 13.507812 30.359375 13.507812 30.359375 13.25 30.375 C 13.292969 30.273438 13.332031 30.167969 13.375 30.0625 C 13.703125 28.910156 13.367188 28.070312 12.824219 27.046875 C 12.625 26.695312 12.417969 26.347656 12.210938 26 C 12.054688 25.734375 11.898438 25.472656 11.742188 25.207031 C 11.621094 25.003906 11.621094 25.003906 11.496094 24.796875 C 11.164062 24.226562 10.835938 23.65625 10.507812 23.085938 C 10.132812 22.433594 9.753906 21.777344 9.375 21.125 C 9.320312 21.03125 9.265625 20.933594 9.207031 20.835938 C 8.484375 19.523438 8.484375 19.523438 7.25 18.75 C 7.015625 18.722656 6.777344 18.699219 6.539062 18.679688 C 6.414062 18.667969 6.289062 18.65625 6.164062 18.648438 C 6.066406 18.640625 5.972656 18.632812 5.875 18.625 C 5.984375 18.484375 6.097656 18.34375 6.210938 18.203125 C 6.273438 18.125 6.335938 18.046875 6.398438 17.964844 C 7.117188 17.277344 8.410156 17.308594 9.289062 17.671875 Z M 9.289062 17.671875 "/>
<path style=" stroke:none;fill-rule:nonzero;fill:rgb(0%,80.784315%,54.509807%);fill-opacity:1;" d="M 27.398438 2.460938 C 28.816406 3.367188 29.792969 4.695312 30.289062 6.300781 C 30.664062 8.25 30.386719 10.050781 29.3125 11.726562 C 28.738281 12.566406 28.089844 13.074219 27.25 13.625 C 27.125 13.5625 27.125 13.5625 27 13.5 C 27.054688 13.433594 27.113281 13.371094 27.167969 13.300781 C 28.445312 11.75 28.914062 10.121094 28.75 8.125 C 28.402344 6.421875 27.570312 4.882812 26.132812 3.863281 C 24.976562 3.164062 23.96875 2.808594 22.617188 2.835938 C 22.511719 2.835938 22.40625 2.835938 22.296875 2.835938 C 21.34375 2.84375 20.523438 3.058594 19.625 3.375 C 19.996094 2.835938 20.394531 2.5625 20.976562 2.289062 C 21.125 2.214844 21.273438 2.144531 21.425781 2.070312 C 23.386719 1.226562 25.550781 1.449219 27.398438 2.460938 Z M 27.398438 2.460938 "/>
</g>
</svg>
