<?xml version="1.0" encoding="UTF-8"?>
<svg xmlns="http://www.w3.org/2000/svg" xmlns:xlink="http://www.w3.org/1999/xlink" width="32" height="32" viewBox="0 0 32 32" version="1.1">
<g id="surface1">
<path style=" stroke:none;fill-rule:nonzero;fill:rgb(4.313726%,41.176471%,75.686276%);fill-opacity:1;" d="M 14.011719 0.820312 C 14.167969 0.820312 14.328125 0.820312 14.488281 0.816406 C 14.820312 0.816406 15.152344 0.816406 15.484375 0.820312 C 15.90625 0.820312 16.328125 0.816406 16.753906 0.816406 C 17.160156 0.8125 17.566406 0.8125 17.972656 0.8125 C 18.121094 0.8125 18.273438 0.8125 18.429688 0.808594 C 19.390625 0.816406 20.121094 0.910156 20.855469 1.589844 C 20.898438 1.65625 20.945312 1.726562 20.992188 1.796875 C 21.0625 1.898438 21.0625 1.898438 21.136719 2.003906 C 21.5 2.792969 21.398438 3.757812 21.398438 4.609375 C 21.398438 4.753906 21.402344 4.894531 21.402344 5.042969 C 21.40625 6.007812 21.398438 6.839844 20.851562 7.664062 C 20.144531 8.339844 19.515625 8.417969 18.570312 8.410156 C 18.445312 8.40625 18.324219 8.402344 18.195312 8.398438 C 18.066406 8.398438 17.941406 8.394531 17.808594 8.394531 C 17.5 8.386719 17.1875 8.382812 16.875 8.375 C 16.875 9.160156 16.875 9.941406 16.875 10.75 C 17.246094 10.75 17.617188 10.75 18 10.75 C 18.589844 10.890625 19.015625 11.203125 19.375 11.6875 C 19.625 12.25 19.625 12.25 19.625 13.75 C 20.902344 13.75 22.183594 13.75 23.5 13.75 C 23.5 13.296875 23.5 12.84375 23.5 12.375 C 23.714844 11.703125 24.167969 11.257812 24.75 10.875 C 25.429688 10.648438 26.179688 10.71875 26.890625 10.714844 C 27.066406 10.710938 27.242188 10.710938 27.421875 10.707031 C 28.429688 10.683594 29.261719 10.667969 30.125 11.25 C 30.910156 12.035156 30.910156 12.921875 30.914062 13.972656 C 30.914062 14.058594 30.914062 14.140625 30.914062 14.226562 C 30.914062 14.484375 30.917969 14.738281 30.921875 14.992188 C 30.921875 16.871094 30.921875 16.871094 30.285156 17.632812 C 30.210938 17.691406 30.140625 17.746094 30.0625 17.804688 C 29.988281 17.863281 29.914062 17.921875 29.839844 17.984375 C 29.484375 18.214844 29.160156 18.269531 28.75 18.289062 C 28.605469 18.296875 28.605469 18.296875 28.460938 18.304688 C 28.363281 18.3125 28.265625 18.316406 28.164062 18.320312 C 28.066406 18.324219 27.964844 18.332031 27.863281 18.335938 C 27.617188 18.347656 27.371094 18.363281 27.125 18.375 C 26.847656 18.980469 26.570312 19.589844 26.292969 20.195312 C 26.195312 20.402344 26.101562 20.609375 26.007812 20.816406 C 25.871094 21.113281 25.734375 21.410156 25.597656 21.707031 C 25.558594 21.796875 25.515625 21.890625 25.472656 21.984375 C 25.222656 22.527344 24.984375 23.074219 24.75 23.625 C 24.875 23.628906 24.996094 23.628906 25.125 23.632812 C 25.765625 23.722656 26.214844 24.144531 26.625 24.625 C 26.890625 25.148438 26.914062 25.636719 26.914062 26.214844 C 26.914062 26.304688 26.914062 26.398438 26.914062 26.492188 C 26.914062 26.6875 26.914062 26.878906 26.914062 27.070312 C 26.914062 27.367188 26.917969 27.660156 26.921875 27.953125 C 26.921875 28.140625 26.921875 28.332031 26.921875 28.519531 C 26.921875 28.605469 26.921875 28.691406 26.921875 28.785156 C 26.917969 29.46875 26.753906 29.976562 26.285156 30.484375 C 26.210938 30.542969 26.140625 30.601562 26.0625 30.664062 C 25.988281 30.726562 25.914062 30.785156 25.839844 30.847656 C 25.195312 31.300781 24.320312 31.160156 23.566406 31.160156 C 23.382812 31.164062 23.199219 31.164062 23.015625 31.167969 C 21.105469 31.207031 21.105469 31.207031 20.25 30.625 C 19.832031 30.207031 19.636719 29.824219 19.5 29.25 C 19.5 28.917969 19.5 28.589844 19.5 28.25 C 17.191406 28.25 14.878906 28.25 12.5 28.25 C 12.5 28.578125 12.5 28.910156 12.5 29.25 C 12.394531 29.804688 12.191406 30.234375 11.765625 30.609375 C 10.886719 31.207031 10.0625 31.167969 9.035156 31.164062 C 8.757812 31.164062 8.484375 31.167969 8.207031 31.167969 C 8.03125 31.171875 7.855469 31.171875 7.675781 31.171875 C 7.515625 31.171875 7.359375 31.171875 7.191406 31.171875 C 6.507812 31.097656 6.019531 30.84375 5.585938 30.3125 C 5.523438 30.238281 5.464844 30.164062 5.398438 30.089844 C 5.070312 29.613281 5.101562 29.113281 5.101562 28.558594 C 5.097656 28.46875 5.097656 28.375 5.097656 28.28125 C 5.097656 28.085938 5.09375 27.890625 5.09375 27.695312 C 5.09375 27.402344 5.089844 27.105469 5.085938 26.808594 C 5.085938 26.617188 5.085938 26.429688 5.082031 26.238281 C 5.082031 26.152344 5.082031 26.0625 5.078125 25.972656 C 5.082031 25.289062 5.25 24.792969 5.691406 24.273438 C 5.761719 24.214844 5.828125 24.15625 5.898438 24.09375 C 5.964844 24.035156 6.03125 23.972656 6.097656 23.910156 C 6.503906 23.675781 6.921875 23.609375 7.375 23.5 C 7.316406 23.347656 7.253906 23.199219 7.191406 23.042969 C 6.96875 22.488281 6.742188 21.933594 6.519531 21.378906 C 6.421875 21.136719 6.328125 20.894531 6.230469 20.65625 C 6.089844 20.308594 5.953125 19.964844 5.8125 19.617188 C 5.769531 19.507812 5.726562 19.402344 5.679688 19.289062 C 5.640625 19.191406 5.601562 19.089844 5.558594 18.988281 C 5.523438 18.898438 5.488281 18.8125 5.453125 18.71875 C 5.375 18.5 5.375 18.5 5.375 18.25 C 5.300781 18.253906 5.226562 18.253906 5.148438 18.257812 C 4.804688 18.269531 4.460938 18.273438 4.117188 18.28125 C 4 18.285156 3.882812 18.289062 3.761719 18.292969 C 2.972656 18.304688 2.515625 18.214844 1.875 17.75 C 1.039062 16.890625 1.082031 15.90625 1.085938 14.769531 C 1.085938 14.515625 1.082031 14.261719 1.078125 14.007812 C 1.078125 12.097656 1.078125 12.097656 1.667969 11.4375 C 2.535156 10.660156 3.433594 10.707031 4.53125 10.710938 C 4.796875 10.710938 5.0625 10.707031 5.328125 10.703125 C 5.496094 10.703125 5.667969 10.703125 5.839844 10.703125 C 5.992188 10.703125 6.144531 10.703125 6.304688 10.703125 C 6.90625 10.765625 7.40625 10.933594 7.871094 11.339844 C 7.929688 11.414062 7.984375 11.488281 8.046875 11.5625 C 8.109375 11.636719 8.167969 11.710938 8.230469 11.785156 C 8.664062 12.425781 8.5 12.894531 8.5 13.75 C 9.777344 13.75 11.058594 13.75 12.375 13.75 C 12.375 13.253906 12.375 12.757812 12.375 12.25 C 12.695312 11.535156 13 11.175781 13.695312 10.824219 C 14 10.75 14 10.75 15.125 10.75 C 15.125 9.964844 15.125 9.183594 15.125 8.375 C 14.84375 8.382812 14.84375 8.382812 14.558594 8.390625 C 14.308594 8.398438 14.0625 8.402344 13.8125 8.40625 C 13.628906 8.410156 13.628906 8.410156 13.441406 8.417969 C 12.476562 8.433594 11.789062 8.265625 11.078125 7.59375 C 10.535156 6.675781 10.585938 5.660156 10.59375 4.625 C 10.59375 4.410156 10.59375 4.410156 10.589844 4.195312 C 10.59375 3.238281 10.609375 2.40625 11.148438 1.585938 C 12 0.769531 12.886719 0.816406 14.011719 0.820312 Z M 8.5 15.5 C 8.417969 15.996094 8.335938 16.488281 8.25 17 C 7.691406 17.78125 7.691406 17.78125 7.25 18 C 7.566406 19.210938 8.054688 20.359375 8.523438 21.515625 C 8.605469 21.722656 8.6875 21.925781 8.769531 22.128906 C 8.972656 22.628906 9.171875 23.128906 9.375 23.625 C 9.46875 23.632812 9.5625 23.636719 9.65625 23.644531 C 9.777344 23.65625 9.902344 23.664062 10.027344 23.675781 C 10.148438 23.683594 10.269531 23.691406 10.394531 23.703125 C 11.089844 23.796875 11.566406 24.058594 12.046875 24.5625 C 12.25 25 12.25 25 12.5 26.5 C 14.808594 26.5 17.121094 26.5 19.5 26.5 C 19.582031 26.003906 19.664062 25.507812 19.75 25 C 20.023438 24.410156 20.351562 24.109375 20.933594 23.851562 C 21.304688 23.730469 21.644531 23.699219 22.035156 23.675781 C 22.167969 23.664062 22.304688 23.65625 22.441406 23.644531 C 22.59375 23.632812 22.59375 23.632812 22.75 23.625 C 22.96875 23.160156 23.1875 22.691406 23.402344 22.226562 C 23.476562 22.066406 23.550781 21.910156 23.625 21.753906 C 24.027344 20.890625 24.425781 20.023438 24.804688 19.148438 C 24.863281 19.007812 24.925781 18.863281 24.992188 18.71875 C 25.140625 18.398438 25.140625 18.398438 25.125 18.125 C 25.015625 18.078125 24.902344 18.03125 24.789062 17.984375 C 24.289062 17.699219 24.058594 17.488281 23.75 17 C 23.625 16.257812 23.625 16.257812 23.5 15.5 C 22.222656 15.5 20.941406 15.5 19.625 15.5 C 19.542969 16.035156 19.460938 16.570312 19.375 17.125 C 18.808594 17.832031 18.445312 18.074219 17.546875 18.175781 C 16.617188 18.183594 16.617188 18.183594 16.28125 18.179688 C 16.007812 18.179688 15.738281 18.183594 15.46875 18.1875 C 14.527344 18.191406 13.792969 18.167969 13 17.625 C 12.425781 16.890625 12.476562 16.507812 12.375 15.5 C 11.097656 15.5 9.816406 15.5 8.5 15.5 Z M 8.5 15.5 "/>
<path style=" stroke:none;fill-rule:nonzero;fill:rgb(82.745099%,12.54902%,19.607843%);fill-opacity:1;" d="M 26.886719 10.714844 C 27.066406 10.710938 27.242188 10.710938 27.421875 10.707031 C 28.433594 10.683594 29.261719 10.667969 30.125 11.25 C 30.910156 12.035156 30.910156 12.921875 30.914062 13.976562 C 30.914062 14.058594 30.914062 14.144531 30.914062 14.230469 C 30.914062 14.484375 30.917969 14.738281 30.917969 14.992188 C 30.921875 16.871094 30.921875 16.871094 30.285156 17.632812 C 30.210938 17.6875 30.136719 17.746094 30.0625 17.804688 C 29.988281 17.863281 29.914062 17.921875 29.839844 17.984375 C 29.484375 18.214844 29.160156 18.269531 28.75 18.289062 C 28.652344 18.292969 28.558594 18.300781 28.460938 18.304688 C 28.363281 18.3125 28.265625 18.316406 28.164062 18.320312 C 28.015625 18.328125 28.015625 18.328125 27.863281 18.335938 C 27.617188 18.347656 27.371094 18.363281 27.125 18.375 C 26.847656 18.980469 26.570312 19.589844 26.289062 20.195312 C 26.195312 20.402344 26.101562 20.609375 26.007812 20.8125 C 25.871094 21.113281 25.734375 21.410156 25.601562 21.707031 C 25.558594 21.796875 25.515625 21.890625 25.472656 21.984375 C 25.222656 22.527344 24.984375 23.074219 24.75 23.625 C 24.875 23.628906 24.996094 23.628906 25.125 23.632812 C 25.765625 23.722656 26.214844 24.144531 26.625 24.625 C 26.890625 25.148438 26.914062 25.636719 26.914062 26.214844 C 26.914062 26.351562 26.914062 26.351562 26.914062 26.492188 C 26.914062 26.6875 26.914062 26.878906 26.914062 27.070312 C 26.914062 27.367188 26.917969 27.660156 26.917969 27.953125 C 26.921875 28.140625 26.921875 28.332031 26.921875 28.519531 C 26.921875 28.605469 26.921875 28.691406 26.921875 28.78125 C 26.917969 29.46875 26.753906 29.976562 26.285156 30.484375 C 26.210938 30.542969 26.136719 30.601562 26.0625 30.664062 C 25.988281 30.726562 25.914062 30.785156 25.839844 30.851562 C 25.195312 31.300781 24.320312 31.15625 23.566406 31.160156 C 23.382812 31.164062 23.199219 31.164062 23.011719 31.167969 C 21.105469 31.207031 21.105469 31.207031 20.25 30.625 C 19.464844 29.839844 19.464844 28.953125 19.460938 27.898438 C 19.460938 27.816406 19.460938 27.730469 19.460938 27.644531 C 19.460938 27.390625 19.457031 27.136719 19.453125 26.882812 C 19.453125 24.972656 19.453125 24.972656 20.042969 24.3125 C 20.664062 23.753906 21.21875 23.59375 22.039062 23.609375 C 22.171875 23.613281 22.304688 23.613281 22.445312 23.617188 C 22.542969 23.621094 22.644531 23.621094 22.75 23.625 C 22.78125 23.523438 22.8125 23.421875 22.84375 23.320312 C 23.03125 22.785156 23.257812 22.277344 23.488281 21.761719 C 23.535156 21.65625 23.582031 21.554688 23.632812 21.445312 C 23.78125 21.117188 23.929688 20.785156 24.078125 20.453125 C 24.179688 20.226562 24.28125 20 24.382812 19.777344 C 24.628906 19.226562 24.878906 18.675781 25.125 18.125 C 24.976562 18.101562 24.976562 18.101562 24.828125 18.074219 C 24.417969 17.980469 24.296875 17.835938 24.03125 17.515625 C 23.957031 17.429688 23.882812 17.339844 23.808594 17.25 C 23.449219 16.757812 23.476562 16.265625 23.476562 15.6875 C 23.472656 15.59375 23.472656 15.5 23.472656 15.40625 C 23.472656 15.210938 23.472656 15.015625 23.46875 14.820312 C 23.46875 14.527344 23.464844 14.230469 23.460938 13.933594 C 23.460938 13.746094 23.460938 13.554688 23.457031 13.363281 C 23.457031 13.277344 23.457031 13.1875 23.453125 13.097656 C 23.457031 12.410156 23.621094 11.90625 24.085938 11.390625 C 24.160156 11.332031 24.230469 11.273438 24.304688 11.210938 C 24.414062 11.121094 24.414062 11.121094 24.523438 11.023438 C 25.199219 10.578125 26.109375 10.71875 26.886719 10.714844 Z M 26.886719 10.714844 "/>
<path style=" stroke:none;fill-rule:nonzero;fill:rgb(83.137256%,12.54902%,19.607843%);fill-opacity:1;" d="M 14.011719 0.820312 C 14.246094 0.820312 14.246094 0.820312 14.488281 0.816406 C 14.820312 0.816406 15.152344 0.816406 15.484375 0.820312 C 15.90625 0.820312 16.328125 0.816406 16.753906 0.816406 C 17.160156 0.8125 17.566406 0.8125 17.972656 0.8125 C 18.121094 0.8125 18.273438 0.8125 18.429688 0.808594 C 19.390625 0.816406 20.121094 0.910156 20.855469 1.589844 C 20.921875 1.691406 20.921875 1.691406 20.992188 1.796875 C 21.039062 1.863281 21.085938 1.933594 21.136719 2.003906 C 21.5 2.792969 21.398438 3.757812 21.398438 4.609375 C 21.398438 4.753906 21.402344 4.894531 21.402344 5.042969 C 21.40625 6.007812 21.398438 6.839844 20.851562 7.664062 C 20.144531 8.339844 19.515625 8.417969 18.570312 8.410156 C 18.445312 8.40625 18.324219 8.402344 18.195312 8.398438 C 18.066406 8.398438 17.941406 8.394531 17.808594 8.394531 C 17.5 8.386719 17.1875 8.382812 16.875 8.375 C 16.875 9.160156 16.875 9.941406 16.875 10.75 C 16.296875 10.75 15.71875 10.75 15.125 10.75 C 15.125 9.964844 15.125 9.183594 15.125 8.375 C 14.84375 8.382812 14.84375 8.382812 14.558594 8.390625 C 14.308594 8.398438 14.0625 8.402344 13.8125 8.40625 C 13.628906 8.410156 13.628906 8.410156 13.441406 8.417969 C 12.476562 8.433594 11.789062 8.265625 11.078125 7.59375 C 10.535156 6.675781 10.585938 5.660156 10.59375 4.625 C 10.59375 4.484375 10.589844 4.339844 10.589844 4.195312 C 10.59375 3.238281 10.609375 2.40625 11.148438 1.585938 C 12 0.769531 12.886719 0.816406 14.011719 0.820312 Z M 14.011719 0.820312 "/>
<path style=" stroke:none;fill-rule:nonzero;fill:rgb(4.705882%,41.960785%,76.47059%);fill-opacity:1;" d="M 15.730469 10.683594 C 16 10.6875 16.269531 10.683594 16.539062 10.679688 C 17.601562 10.679688 18.421875 10.71875 19.234375 11.464844 C 19.765625 12.304688 19.625 12.605469 19.625 13.75 C 20.945312 13.75 22.265625 13.75 23.625 13.75 C 23.625 14.328125 23.625 14.90625 23.625 15.5 C 22.304688 15.5 20.984375 15.5 19.625 15.5 C 19.625 15.914062 19.625 16.324219 19.625 16.75 C 19.339844 17.429688 19.019531 17.769531 18.375 18.125 C 17.714844 18.34375 17.007812 18.285156 16.316406 18.289062 C 16.132812 18.289062 15.949219 18.292969 15.761719 18.292969 C 13.851562 18.332031 13.851562 18.332031 13 17.75 C 12.28125 16.996094 12.375 16.621094 12.375 15.5 C 11.097656 15.5 9.816406 15.5 8.5 15.5 C 8.5 14.921875 8.5 14.34375 8.5 13.75 C 9.777344 13.75 11.058594 13.75 12.375 13.75 C 12.375 13.253906 12.375 12.761719 12.375 12.25 C 12.691406 11.539062 12.945312 11.191406 13.664062 10.851562 C 14.335938 10.648438 15.035156 10.675781 15.730469 10.683594 Z M 15.730469 10.683594 "/>
<path style=" stroke:none;fill-rule:nonzero;fill:rgb(96.862745%,60.000002%,26.666668%);fill-opacity:1;" d="M 4.53125 10.710938 C 4.792969 10.710938 5.0625 10.707031 5.324219 10.703125 C 5.496094 10.703125 5.667969 10.703125 5.839844 10.703125 C 5.992188 10.703125 6.144531 10.703125 6.304688 10.703125 C 6.90625 10.765625 7.40625 10.933594 7.871094 11.339844 C 7.929688 11.414062 7.988281 11.488281 8.046875 11.5625 C 8.105469 11.636719 8.167969 11.710938 8.230469 11.785156 C 8.554688 12.265625 8.523438 12.761719 8.527344 13.316406 C 8.527344 13.40625 8.527344 13.5 8.527344 13.59375 C 8.527344 13.789062 8.53125 13.984375 8.53125 14.179688 C 8.53125 14.472656 8.535156 14.769531 8.539062 15.066406 C 8.539062 15.257812 8.539062 15.445312 8.539062 15.636719 C 8.542969 15.722656 8.542969 15.808594 8.546875 15.902344 C 8.542969 16.589844 8.378906 17.09375 7.914062 17.609375 C 7.84375 17.667969 7.769531 17.726562 7.695312 17.789062 C 7.585938 17.878906 7.585938 17.878906 7.476562 17.976562 C 6.789062 18.429688 5.847656 18.28125 5.050781 18.285156 C 4.867188 18.289062 4.683594 18.289062 4.496094 18.292969 C 4.230469 18.300781 3.960938 18.300781 3.695312 18.304688 C 3.453125 18.304688 3.453125 18.304688 3.207031 18.308594 C 2.527344 18.222656 2.070312 17.949219 1.585938 17.453125 C 1.042969 16.605469 1.082031 15.746094 1.085938 14.773438 C 1.085938 14.515625 1.082031 14.261719 1.078125 14.007812 C 1.078125 12.097656 1.078125 12.097656 1.667969 11.4375 C 2.535156 10.660156 3.433594 10.707031 4.53125 10.710938 Z M 4.53125 10.710938 "/>
<path style=" stroke:none;fill-rule:nonzero;fill:rgb(96.862745%,60.000002%,26.666668%);fill-opacity:1;" d="M 26.886719 10.714844 C 27.066406 10.710938 27.242188 10.710938 27.421875 10.707031 C 28.433594 10.683594 29.261719 10.667969 30.125 11.25 C 30.910156 12.035156 30.910156 12.921875 30.914062 13.976562 C 30.914062 14.101562 30.914062 14.101562 30.914062 14.230469 C 30.914062 14.484375 30.917969 14.738281 30.917969 14.992188 C 30.921875 16.871094 30.921875 16.871094 30.285156 17.632812 C 30.210938 17.6875 30.136719 17.746094 30.0625 17.804688 C 29.988281 17.863281 29.914062 17.921875 29.839844 17.984375 C 29.363281 18.296875 28.882812 18.273438 28.335938 18.277344 C 28.25 18.277344 28.160156 18.277344 28.066406 18.277344 C 27.878906 18.28125 27.691406 18.28125 27.5 18.28125 C 27.214844 18.28125 26.925781 18.285156 26.636719 18.289062 C 26.453125 18.289062 26.269531 18.289062 26.085938 18.289062 C 26.003906 18.292969 25.917969 18.292969 25.828125 18.296875 C 25.148438 18.292969 24.644531 18.125 24.140625 17.660156 C 24.082031 17.585938 24.023438 17.511719 23.960938 17.4375 C 23.898438 17.363281 23.839844 17.289062 23.773438 17.214844 C 23.445312 16.738281 23.476562 16.238281 23.476562 15.6875 C 23.472656 15.59375 23.472656 15.5 23.472656 15.40625 C 23.472656 15.210938 23.472656 15.015625 23.46875 14.820312 C 23.46875 14.527344 23.464844 14.230469 23.460938 13.933594 C 23.460938 13.746094 23.460938 13.554688 23.457031 13.363281 C 23.457031 13.277344 23.457031 13.1875 23.453125 13.097656 C 23.457031 12.410156 23.621094 11.90625 24.085938 11.390625 C 24.160156 11.332031 24.230469 11.273438 24.304688 11.210938 C 24.378906 11.148438 24.449219 11.089844 24.523438 11.023438 C 25.199219 10.578125 26.109375 10.71875 26.886719 10.714844 Z M 26.886719 10.714844 "/>
<path style=" stroke:none;fill-rule:nonzero;fill:rgb(90.980393%,15.686275%,22.745098%);fill-opacity:1;" d="M 14.242188 0.851562 C 14.414062 0.855469 14.582031 0.855469 14.753906 0.855469 C 15.167969 0.863281 15.585938 0.867188 16 0.875 C 16 1.742188 16 2.609375 16 3.5 C 15.03125 3.546875 15.03125 3.546875 14.726562 3.558594 C 14.265625 3.585938 13.886719 3.609375 13.5 3.875 C 13.257812 4.199219 13.25 4.351562 13.28125 4.757812 C 13.359375 5.144531 13.359375 5.144531 13.625 5.5 C 13.949219 5.609375 14.167969 5.648438 14.5 5.664062 C 14.585938 5.667969 14.671875 5.675781 14.757812 5.679688 C 14.867188 5.683594 14.976562 5.691406 15.085938 5.695312 C 15.429688 5.710938 15.773438 5.730469 16.125 5.75 C 16.125 6.574219 16.125 7.398438 16.125 8.25 C 15.316406 8.351562 14.558594 8.40625 13.75 8.414062 C 13.632812 8.417969 13.511719 8.421875 13.390625 8.425781 C 12.449219 8.433594 11.769531 8.25 11.078125 7.59375 C 10.535156 6.675781 10.585938 5.660156 10.59375 4.625 C 10.59375 4.484375 10.59375 4.339844 10.589844 4.195312 C 10.59375 3.238281 10.605469 2.40625 11.148438 1.585938 C 12.058594 0.714844 13.046875 0.828125 14.242188 0.851562 Z M 14.242188 0.851562 "/>
<path style=" stroke:none;fill-rule:nonzero;fill:rgb(5.882353%,54.11765%,87.843138%);fill-opacity:1;" d="M 16 10.875 C 16 11.699219 16 12.523438 16 13.375 C 15.628906 13.417969 15.257812 13.457031 14.875 13.5 C 14.480469 13.675781 14.480469 13.675781 14.25 14 C 14.152344 14.542969 14.183594 14.777344 14.492188 15.234375 C 14.953125 15.597656 14.953125 15.597656 16 15.625 C 16 16.492188 16 17.359375 16 18.25 C 13.804688 18.324219 13.804688 18.324219 13 17.75 C 12.28125 16.996094 12.375 16.621094 12.375 15.5 C 11.097656 15.5 9.816406 15.5 8.5 15.5 C 8.5 14.921875 8.5 14.34375 8.5 13.75 C 9.777344 13.75 11.058594 13.75 12.375 13.75 C 12.375 13.253906 12.375 12.761719 12.375 12.25 C 12.691406 11.535156 13.003906 11.136719 13.726562 10.828125 C 14.492188 10.609375 15.226562 10.765625 16 10.875 Z M 16 10.875 "/>
<path style=" stroke:none;fill-rule:nonzero;fill:rgb(98.039216%,72.941178%,32.549021%);fill-opacity:1;" d="M 27.125 10.75 C 27.125 13.183594 27.125 15.617188 27.125 18.125 C 24.75 18.125 24.75 18.125 24.117188 17.726562 C 23.550781 17.113281 23.460938 16.46875 23.460938 15.660156 C 23.460938 15.570312 23.460938 15.476562 23.460938 15.382812 C 23.460938 15.191406 23.460938 14.996094 23.460938 14.804688 C 23.460938 14.507812 23.457031 14.214844 23.453125 13.921875 C 23.453125 13.734375 23.453125 13.542969 23.453125 13.355469 C 23.453125 13.269531 23.453125 13.179688 23.453125 13.09375 C 23.457031 12.40625 23.625 11.902344 24.085938 11.390625 C 24.15625 11.332031 24.230469 11.273438 24.304688 11.210938 C 24.375 11.148438 24.449219 11.089844 24.523438 11.023438 C 25.28125 10.523438 26.28125 10.75 27.125 10.75 Z M 27.125 10.75 "/>
<path style=" stroke:none;fill-rule:nonzero;fill:rgb(98.039216%,72.941178%,32.156864%);fill-opacity:1;" d="M 3.785156 10.726562 C 3.910156 10.726562 3.910156 10.726562 4.042969 10.726562 C 4.3125 10.726562 4.582031 10.730469 4.851562 10.734375 C 5.035156 10.734375 5.21875 10.738281 5.402344 10.738281 C 5.851562 10.742188 6.300781 10.746094 6.75 10.75 C 6.75 10.792969 6.75 10.832031 6.75 10.875 C 6.132812 10.875 5.511719 10.875 4.875 10.875 C 4.875 11.699219 4.875 12.527344 4.875 13.375 C 4.503906 13.417969 4.132812 13.457031 3.75 13.5 C 3.25 13.6875 3.25 13.6875 3.125 14 C 3.0625 14.683594 3.0625 14.683594 3.296875 15.304688 C 3.804688 15.609375 4.285156 15.59375 4.875 15.625 C 4.875 16.449219 4.875 17.277344 4.875 18.125 C 5.039062 18.167969 5.203125 18.207031 5.375 18.25 C 4.957031 18.265625 4.535156 18.273438 4.117188 18.28125 C 4 18.285156 3.882812 18.289062 3.761719 18.292969 C 2.972656 18.304688 2.515625 18.214844 1.875 17.75 C 1.039062 16.890625 1.082031 15.90625 1.085938 14.769531 C 1.085938 14.515625 1.082031 14.261719 1.078125 14.007812 C 1.078125 12.097656 1.078125 12.097656 1.667969 11.4375 C 2.332031 10.84375 2.914062 10.71875 3.785156 10.726562 Z M 3.785156 10.726562 "/>
<path style=" stroke:none;fill-rule:nonzero;fill:rgb(90.980393%,15.686275%,22.352941%);fill-opacity:1;" d="M 22.007812 23.601562 C 22.199219 23.601562 22.199219 23.601562 22.394531 23.605469 C 22.75 23.625 22.75 23.625 23.25 23.75 C 23.25 24.574219 23.25 25.398438 23.25 26.25 C 22.878906 26.292969 22.507812 26.332031 22.125 26.375 C 21.625 26.5625 21.625 26.5625 21.5 26.875 C 21.414062 27.585938 21.414062 27.585938 21.742188 28.179688 C 22.109375 28.367188 22.3125 28.414062 22.710938 28.449219 C 22.8125 28.460938 22.914062 28.46875 23.019531 28.480469 C 23.09375 28.488281 23.171875 28.492188 23.25 28.5 C 23.253906 28.914062 23.253906 29.328125 23.257812 29.742188 C 23.257812 29.859375 23.261719 29.980469 23.261719 30.101562 C 23.261719 30.269531 23.261719 30.269531 23.261719 30.441406 C 23.261719 30.597656 23.261719 30.597656 23.265625 30.757812 C 23.25 31 23.25 31 23.125 31.125 C 21.078125 31.28125 21.078125 31.28125 20.25 30.625 C 19.464844 29.839844 19.464844 28.953125 19.460938 27.898438 C 19.460938 27.816406 19.460938 27.734375 19.460938 27.648438 C 19.460938 27.390625 19.457031 27.136719 19.457031 26.882812 C 19.453125 24.972656 19.453125 24.972656 20.042969 24.3125 C 20.648438 23.769531 21.207031 23.589844 22.007812 23.601562 Z M 22.007812 23.601562 "/>
<path style=" stroke:none;fill-rule:nonzero;fill:rgb(6.27451%,54.509807%,88.235295%);fill-opacity:1;" d="M 7.773438 23.679688 C 8.257812 23.714844 8.257812 23.714844 8.75 23.75 C 8.75 24.574219 8.75 25.398438 8.75 26.25 C 8.378906 26.289062 8.007812 26.332031 7.625 26.375 C 7.191406 26.683594 7.03125 26.851562 6.921875 27.375 C 7.03125 27.894531 7.191406 28.066406 7.625 28.375 C 7.996094 28.414062 8.367188 28.457031 8.75 28.5 C 8.75 29.367188 8.75 30.230469 8.75 31.125 C 8.4375 31.132812 8.121094 31.140625 7.796875 31.148438 C 7.652344 31.152344 7.652344 31.152344 7.5 31.160156 C 6.800781 31.167969 6.296875 31.023438 5.765625 30.535156 C 5.707031 30.460938 5.648438 30.386719 5.585938 30.3125 C 5.523438 30.238281 5.464844 30.164062 5.398438 30.089844 C 5.070312 29.613281 5.101562 29.113281 5.101562 28.558594 C 5.097656 28.46875 5.097656 28.375 5.097656 28.28125 C 5.097656 28.085938 5.097656 27.890625 5.09375 27.695312 C 5.09375 27.402344 5.089844 27.105469 5.085938 26.808594 C 5.085938 26.617188 5.085938 26.429688 5.082031 26.238281 C 5.082031 26.152344 5.082031 26.0625 5.078125 25.972656 C 5.082031 25.285156 5.246094 24.777344 5.714844 24.265625 C 5.789062 24.207031 5.863281 24.148438 5.9375 24.085938 C 6.011719 24.023438 6.085938 23.964844 6.160156 23.898438 C 6.671875 23.542969 7.183594 23.632812 7.773438 23.679688 Z M 7.773438 23.679688 "/>
<path style=" stroke:none;fill-rule:nonzero;fill:rgb(26.666668%,26.666668%,26.666668%);fill-opacity:1;" d="M 12.375 26.5 C 14.765625 26.5 17.160156 26.5 19.625 26.5 C 19.625 27.078125 19.625 27.65625 19.625 28.25 C 17.234375 28.25 14.839844 28.25 12.375 28.25 C 12.375 27.671875 12.375 27.09375 12.375 26.5 Z M 12.375 26.5 "/>
<path style=" stroke:none;fill-rule:nonzero;fill:rgb(26.666668%,26.666668%,26.666668%);fill-opacity:1;" d="M 25.574219 18.238281 C 25.761719 18.238281 25.945312 18.242188 26.132812 18.242188 C 26.226562 18.242188 26.320312 18.242188 26.417969 18.242188 C 26.65625 18.246094 26.890625 18.246094 27.125 18.25 C 26.347656 20.046875 25.558594 21.839844 24.75 23.625 C 24.089844 23.625 23.429688 23.625 22.75 23.625 C 23.03125 22.78125 23.03125 22.78125 23.210938 22.378906 C 23.25 22.289062 23.289062 22.199219 23.328125 22.105469 C 23.371094 22.011719 23.414062 21.917969 23.457031 21.820312 C 23.5 21.722656 23.542969 21.625 23.589844 21.523438 C 23.683594 21.316406 23.773438 21.109375 23.867188 20.902344 C 24.007812 20.585938 24.148438 20.265625 24.289062 19.949219 C 24.378906 19.746094 24.46875 19.546875 24.558594 19.34375 C 24.601562 19.25 24.644531 19.152344 24.6875 19.054688 C 25.046875 18.25 25.046875 18.25 25.574219 18.238281 Z M 25.574219 18.238281 "/>
<path style=" stroke:none;fill-rule:nonzero;fill:rgb(27.058825%,27.058825%,27.058825%);fill-opacity:1;" d="M 7.375 18.25 C 7.597656 18.589844 7.730469 18.964844 7.875 19.34375 C 7.917969 19.453125 7.960938 19.5625 8.003906 19.675781 C 8.097656 19.910156 8.1875 20.140625 8.277344 20.375 C 8.414062 20.734375 8.554688 21.089844 8.695312 21.445312 C 8.78125 21.671875 8.871094 21.898438 8.960938 22.125 C 9 22.230469 9.042969 22.335938 9.085938 22.449219 C 9.125 22.546875 9.164062 22.648438 9.203125 22.75 C 9.234375 22.835938 9.269531 22.925781 9.304688 23.015625 C 9.375 23.25 9.375 23.25 9.375 23.625 C 8.757812 23.625 8.136719 23.625 7.5 23.625 C 7.03125 22.613281 6.601562 21.59375 6.1875 20.558594 C 6.085938 20.300781 5.980469 20.046875 5.878906 19.789062 C 5.8125 19.625 5.746094 19.460938 5.679688 19.296875 C 5.621094 19.148438 5.5625 19.003906 5.503906 18.851562 C 5.375 18.5 5.375 18.5 5.375 18.25 C 5.589844 18.226562 5.808594 18.203125 6.023438 18.179688 C 6.144531 18.167969 6.265625 18.152344 6.390625 18.140625 C 7.042969 18.113281 7.042969 18.113281 7.375 18.25 Z M 7.375 18.25 "/>
<path style=" stroke:none;fill-rule:nonzero;fill:rgb(97.254902%,59.607846%,26.274511%);fill-opacity:1;" d="M 4.851562 13.335938 C 5.003906 13.332031 5.003906 13.332031 5.15625 13.324219 C 5.671875 13.320312 5.929688 13.332031 6.375 13.613281 C 6.671875 13.925781 6.742188 14.046875 6.789062 14.476562 C 6.742188 14.96875 6.59375 15.15625 6.25 15.5 C 5.75 15.664062 5.289062 15.664062 4.765625 15.671875 C 4.617188 15.679688 4.617188 15.679688 4.460938 15.6875 C 3.917969 15.695312 3.691406 15.675781 3.246094 15.339844 C 2.875 14.828125 2.910156 14.617188 3 14 C 3.523438 13.320312 4.046875 13.347656 4.851562 13.335938 Z M 4.851562 13.335938 "/>
<path style=" stroke:none;fill-rule:nonzero;fill:rgb(82.745099%,12.156863%,19.607843%);fill-opacity:1;" d="M 23.164062 26.21875 C 23.257812 26.214844 23.355469 26.214844 23.453125 26.210938 C 24.03125 26.207031 24.398438 26.253906 24.875 26.625 C 25.136719 26.957031 25.125 27.132812 25.117188 27.5625 C 24.972656 28.105469 24.851562 28.210938 24.375 28.5 C 24 28.574219 23.640625 28.574219 23.257812 28.570312 C 23.160156 28.574219 23.0625 28.578125 22.960938 28.578125 C 22.445312 28.578125 22.097656 28.535156 21.683594 28.214844 C 21.375 27.875 21.375 27.875 21.285156 27.613281 C 21.304688 27.179688 21.339844 26.917969 21.609375 26.570312 C 22.117188 26.199219 22.554688 26.222656 23.164062 26.21875 Z M 23.164062 26.21875 "/>
<path style=" stroke:none;fill-rule:nonzero;fill:rgb(26.666668%,26.666668%,26.666668%);fill-opacity:1;" d="M 19.625 13.75 C 20.945312 13.75 22.265625 13.75 23.625 13.75 C 23.625 14.328125 23.625 14.90625 23.625 15.5 C 22.304688 15.5 20.984375 15.5 19.625 15.5 C 19.625 14.921875 19.625 14.34375 19.625 13.75 Z M 19.625 13.75 "/>
<path style=" stroke:none;fill-rule:nonzero;fill:rgb(26.666668%,26.666668%,26.666668%);fill-opacity:1;" d="M 8.5 13.75 C 9.777344 13.75 11.058594 13.75 12.375 13.75 C 12.375 14.328125 12.375 14.90625 12.375 15.5 C 11.097656 15.5 9.816406 15.5 8.5 15.5 C 8.5 14.921875 8.5 14.34375 8.5 13.75 Z M 8.5 13.75 "/>
<path style=" stroke:none;fill-rule:nonzero;fill:rgb(82.745099%,12.156863%,19.607843%);fill-opacity:1;" d="M 15.078125 3.492188 C 15.421875 3.496094 15.769531 3.496094 16.125 3.5 C 16.125 4.242188 16.125 4.984375 16.125 5.75 C 15.785156 5.757812 15.449219 5.765625 15.101562 5.773438 C 14.996094 5.777344 14.890625 5.78125 14.78125 5.785156 C 14.210938 5.789062 13.839844 5.75 13.375 5.375 C 13.175781 5.03125 13.121094 4.824219 13.140625 4.429688 C 13.484375 3.472656 14.195312 3.484375 15.078125 3.492188 Z M 15.078125 3.492188 "/>
<path style=" stroke:none;fill-rule:nonzero;fill:rgb(72.941178%,6.27451%,21.176471%);fill-opacity:1;" d="M 16.125 3.5 C 16.441406 3.488281 16.757812 3.472656 17.085938 3.460938 C 17.183594 3.453125 17.285156 3.449219 17.386719 3.445312 C 17.90625 3.433594 18.074219 3.457031 18.496094 3.808594 C 18.578125 3.914062 18.664062 4.015625 18.75 4.125 C 18.792969 4.167969 18.832031 4.207031 18.875 4.25 C 18.832031 4.8125 18.78125 5.21875 18.375 5.625 C 17.921875 5.777344 17.507812 5.765625 17.039062 5.757812 C 16.585938 5.753906 16.585938 5.753906 16.125 5.75 C 16.125 5.007812 16.125 4.265625 16.125 3.5 Z M 16.125 3.5 "/>
<path style=" stroke:none;fill-rule:nonzero;fill:rgb(26.666668%,26.666668%,26.666668%);fill-opacity:1;" d="M 15.125 8.375 C 15.703125 8.375 16.28125 8.375 16.875 8.375 C 16.875 9.160156 16.875 9.941406 16.875 10.75 C 16.296875 10.75 15.71875 10.75 15.125 10.75 C 15.125 9.964844 15.125 9.183594 15.125 8.375 Z M 15.125 8.375 "/>
<path style=" stroke:none;fill-rule:nonzero;fill:rgb(85.09804%,40.000001%,16.862746%);fill-opacity:1;" d="M 27.125 13.375 C 28.414062 13.375 28.414062 13.375 28.875 13.75 C 29.078125 14.15625 29.070312 14.5625 29 15 C 28.765625 15.375 28.765625 15.375 28.375 15.625 C 27.945312 15.675781 27.5625 15.652344 27.125 15.625 C 27.125 14.882812 27.125 14.140625 27.125 13.375 Z M 27.125 13.375 "/>
<path style=" stroke:none;fill-rule:nonzero;fill:rgb(4.705882%,42.352942%,76.47059%);fill-opacity:1;" d="M 8.75 26.25 C 8.75 26.992188 8.75 27.734375 8.75 28.5 C 7.625 28.5 7.625 28.5 7.25 28.265625 C 6.953125 27.949219 6.882812 27.828125 6.835938 27.398438 C 6.882812 26.910156 7.035156 26.722656 7.375 26.375 C 7.625 26.25 7.625 26.25 8.75 26.25 Z M 8.75 26.25 "/>
<path style=" stroke:none;fill-rule:nonzero;fill:rgb(97.647059%,60.392159%,26.666668%);fill-opacity:1;" d="M 27.125 13.375 C 27.125 14.117188 27.125 14.859375 27.125 15.625 C 26 15.625 26 15.625 25.625 15.390625 C 25.328125 15.074219 25.257812 14.953125 25.210938 14.523438 C 25.257812 14.035156 25.410156 13.847656 25.75 13.5 C 26 13.375 26 13.375 27.125 13.375 Z M 27.125 13.375 "/>
<path style=" stroke:none;fill-rule:nonzero;fill:rgb(3.137255%,35.686275%,71.372551%);fill-opacity:1;" d="M 16 13.375 C 17.125 13.375 17.125 13.375 17.5 13.609375 C 17.796875 13.925781 17.867188 14.046875 17.914062 14.476562 C 17.867188 14.964844 17.714844 15.152344 17.375 15.5 C 17.125 15.625 17.125 15.625 16 15.625 C 16 14.882812 16 14.140625 16 13.375 Z M 16 13.375 "/>
<path style=" stroke:none;fill-rule:nonzero;fill:rgb(85.09804%,39.607844%,16.470589%);fill-opacity:1;" d="M 4.875 13.375 C 6 13.375 6 13.375 6.375 13.609375 C 6.671875 13.925781 6.742188 14.046875 6.789062 14.476562 C 6.742188 14.96875 6.597656 15.152344 6.25 15.5 C 5.875 15.625 5.875 15.625 4.875 15.625 C 4.875 14.882812 4.875 14.140625 4.875 13.375 Z M 4.875 13.375 "/>
<path style=" stroke:none;fill-rule:nonzero;fill:rgb(72.941178%,6.27451%,21.176471%);fill-opacity:1;" d="M 23.25 26.25 C 24.421875 26.25 24.421875 26.25 24.875 26.625 C 25.136719 26.957031 25.125 27.132812 25.117188 27.5625 C 25 28 25 28 24.75 28.304688 C 24.375 28.5 24.375 28.5 23.25 28.5 C 23.25 27.757812 23.25 27.015625 23.25 26.25 Z M 23.25 26.25 "/>
<path style=" stroke:none;fill-rule:nonzero;fill:rgb(98.823529%,38.039216%,34.117648%);fill-opacity:1;" d="M 12.125 3 C 12.453125 3.328125 12.410156 3.5625 12.414062 4.007812 C 12.414062 4.105469 12.414062 4.203125 12.414062 4.304688 C 12.417969 4.402344 12.417969 4.5 12.421875 4.597656 C 12.421875 5.316406 12.421875 5.316406 12.203125 5.59375 C 12 5.75 12 5.75 11.679688 5.726562 C 11.375 5.625 11.375 5.625 11.125 5.375 C 11.097656 5.039062 11.085938 4.71875 11.085938 4.382812 C 11.082031 4.292969 11.082031 4.199219 11.078125 4.105469 C 11.078125 3.441406 11.078125 3.441406 11.296875 3.128906 C 11.585938 2.949219 11.789062 2.957031 12.125 3 Z M 12.125 3 "/>
<path style=" stroke:none;fill-rule:nonzero;fill:rgb(28.235295%,70.19608%,98.823529%);fill-opacity:1;" d="M 6.867188 24.210938 C 7.195312 24.222656 7.347656 24.234375 7.632812 24.398438 C 7.75 24.625 7.75 24.625 7.726562 24.945312 C 7.625 25.25 7.625 25.25 7.375 25.5 C 6.496094 25.570312 6.496094 25.570312 6.117188 25.351562 C 6 25.125 6 25.125 6.023438 24.804688 C 6.195312 24.285156 6.316406 24.253906 6.867188 24.210938 Z M 6.867188 24.210938 "/>
<path style=" stroke:none;fill-rule:nonzero;fill:rgb(20%,18.039216%,18.039216%);fill-opacity:1;" d="M 18.875 26.5 C 19.121094 26.5 19.371094 26.5 19.625 26.5 C 19.625 27.078125 19.625 27.65625 19.625 28.25 C 19.378906 28.25 19.128906 28.25 18.875 28.25 C 18.875 27.671875 18.875 27.09375 18.875 26.5 Z M 18.875 26.5 "/>
<path style=" stroke:none;fill-rule:nonzero;fill:rgb(17.254902%,19.607843%,21.176471%);fill-opacity:1;" d="M 12.375 26.5 C 12.621094 26.5 12.871094 26.5 13.125 26.5 C 13.125 27.078125 13.125 27.65625 13.125 28.25 C 12.878906 28.25 12.628906 28.25 12.375 28.25 C 12.375 27.671875 12.375 27.09375 12.375 26.5 Z M 12.375 26.5 "/>
<path style=" stroke:none;fill-rule:nonzero;fill:rgb(24.313726%,21.960784%,18.82353%);fill-opacity:1;" d="M 22.875 13.75 C 23.121094 13.75 23.371094 13.75 23.625 13.75 C 23.625 14.328125 23.625 14.90625 23.625 15.5 C 23.378906 15.5 23.128906 15.5 22.875 15.5 C 22.875 14.921875 22.875 14.34375 22.875 13.75 Z M 22.875 13.75 "/>
<path style=" stroke:none;fill-rule:nonzero;fill:rgb(18.039216%,18.039216%,18.039216%);fill-opacity:1;" d="M 19.625 13.75 C 19.871094 13.75 20.121094 13.75 20.375 13.75 C 20.375 14.328125 20.375 14.90625 20.375 15.5 C 20.128906 15.5 19.878906 15.5 19.625 15.5 C 19.625 14.921875 19.625 14.34375 19.625 13.75 Z M 19.625 13.75 "/>
<path style=" stroke:none;fill-rule:nonzero;fill:rgb(18.039216%,18.039216%,18.039216%);fill-opacity:1;" d="M 11.625 13.75 C 11.871094 13.75 12.121094 13.75 12.375 13.75 C 12.375 14.328125 12.375 14.90625 12.375 15.5 C 12.128906 15.5 11.878906 15.5 11.625 15.5 C 11.625 14.921875 11.625 14.34375 11.625 13.75 Z M 11.625 13.75 "/>
<path style=" stroke:none;fill-rule:nonzero;fill:rgb(17.647059%,17.647059%,17.647059%);fill-opacity:1;" d="M 23 23 C 23.617188 23 24.238281 23 24.875 23 C 24.832031 23.207031 24.792969 23.414062 24.75 23.625 C 24.089844 23.625 23.429688 23.625 22.75 23.625 C 22.832031 23.417969 22.914062 23.210938 23 23 Z M 23 23 "/>
<path style=" stroke:none;fill-rule:nonzero;fill:rgb(17.647059%,17.647059%,17.647059%);fill-opacity:1;" d="M 7.25 23 C 7.910156 23 8.570312 23 9.25 23 C 9.292969 23.207031 9.332031 23.414062 9.375 23.625 C 8.757812 23.625 8.136719 23.625 7.5 23.625 C 7.417969 23.417969 7.335938 23.210938 7.25 23 Z M 7.25 23 "/>
<path style=" stroke:none;fill-rule:nonzero;fill:rgb(17.647059%,17.647059%,17.647059%);fill-opacity:1;" d="M 25.125 18.25 C 25.785156 18.25 26.445312 18.25 27.125 18.25 C 27.042969 18.457031 26.960938 18.664062 26.875 18.875 C 26.257812 18.875 25.636719 18.875 25 18.875 C 25.042969 18.667969 25.082031 18.460938 25.125 18.25 Z M 25.125 18.25 "/>
<path style=" stroke:none;fill-rule:nonzero;fill:rgb(18.039216%,18.039216%,18.039216%);fill-opacity:1;" d="M 7.375 18.25 C 7.375 18.414062 7.375 18.578125 7.375 18.75 C 6.980469 18.867188 6.628906 18.890625 6.21875 18.882812 C 6.109375 18.882812 5.996094 18.878906 5.882812 18.878906 C 5.796875 18.878906 5.710938 18.875 5.625 18.875 C 5.542969 18.667969 5.460938 18.460938 5.375 18.25 C 5.589844 18.226562 5.808594 18.203125 6.023438 18.179688 C 6.144531 18.167969 6.265625 18.152344 6.390625 18.140625 C 6.742188 18.125 7.03125 18.164062 7.375 18.25 Z M 7.375 18.25 "/>
<path style=" stroke:none;fill-rule:nonzero;fill:rgb(17.647059%,17.647059%,17.647059%);fill-opacity:1;" d="M 8.5 13.75 C 8.707031 13.75 8.914062 13.75 9.125 13.75 C 9.125 14.328125 9.125 14.90625 9.125 15.5 C 8.917969 15.5 8.710938 15.5 8.5 15.5 C 8.5 14.921875 8.5 14.34375 8.5 13.75 Z M 8.5 13.75 "/>
<path style=" stroke:none;fill-rule:nonzero;fill:rgb(17.647059%,17.647059%,17.647059%);fill-opacity:1;" d="M 15.125 10.125 C 15.703125 10.125 16.28125 10.125 16.875 10.125 C 16.875 10.332031 16.875 10.539062 16.875 10.75 C 16.296875 10.75 15.71875 10.75 15.125 10.75 C 15.125 10.542969 15.125 10.335938 15.125 10.125 Z M 15.125 10.125 "/>
<path style=" stroke:none;fill-rule:nonzero;fill:rgb(17.647059%,17.647059%,17.647059%);fill-opacity:1;" d="M 15.125 8.375 C 15.703125 8.375 16.28125 8.375 16.875 8.375 C 16.875 8.582031 16.875 8.789062 16.875 9 C 16.296875 9 15.71875 9 15.125 9 C 15.125 8.792969 15.125 8.585938 15.125 8.375 Z M 15.125 8.375 "/>
</g>
</svg>
