<?xml version="1.0" encoding="UTF-8"?>
<svg xmlns="http://www.w3.org/2000/svg" xmlns:xlink="http://www.w3.org/1999/xlink" width="32" height="32" viewBox="0 0 32 32" version="1.1">
<g id="surface1">
<path style=" stroke:none;fill-rule:nonzero;fill:rgb(43.921569%,74.509805%,89.411765%);fill-opacity:1;" d="M 15.046875 7.558594 C 15.199219 7.558594 15.355469 7.558594 15.511719 7.554688 C 15.753906 7.558594 15.753906 7.558594 16 7.5625 C 16.160156 7.5625 16.320312 7.558594 16.488281 7.554688 C 16.640625 7.558594 16.792969 7.558594 16.953125 7.558594 C 17.164062 7.558594 17.164062 7.558594 17.378906 7.558594 C 17.828125 7.636719 17.980469 7.765625 18.25 8.125 C 18.269531 8.472656 18.269531 8.472656 18.242188 8.851562 C 18.242188 9.253906 18.242188 9.253906 18.375 9.625 C 18.875 10.023438 19.414062 10.253906 20 10.5 C 20.125 10.582031 20.25 10.664062 20.375 10.75 C 20.457031 10.703125 20.535156 10.652344 20.617188 10.605469 C 20.78125 10.511719 20.78125 10.511719 20.945312 10.421875 C 21.050781 10.359375 21.15625 10.300781 21.265625 10.238281 C 21.78125 10.074219 22.015625 10.140625 22.5 10.375 C 22.777344 10.699219 22.96875 11.054688 23.164062 11.429688 C 23.269531 11.621094 23.375 11.816406 23.484375 12.007812 C 23.550781 12.136719 23.550781 12.136719 23.621094 12.265625 C 23.738281 12.476562 23.867188 12.675781 24 12.875 C 24.097656 13.75 24.097656 13.75 23.726562 14.226562 C 23.375 14.5 23.375 14.5 23.046875 14.636719 C 22.707031 14.910156 22.699219 14.964844 22.648438 15.378906 C 22.640625 15.578125 22.640625 15.777344 22.640625 15.976562 C 22.640625 16.078125 22.640625 16.179688 22.640625 16.285156 C 22.660156 16.777344 22.683594 17.042969 23 17.429688 C 23.285156 17.613281 23.5625 17.742188 23.875 17.875 C 24.082031 18.289062 24.070312 18.679688 24 19.125 C 23.8125 19.585938 23.566406 20 23.304688 20.421875 C 23.242188 20.535156 23.175781 20.648438 23.109375 20.761719 C 22.796875 21.28125 22.605469 21.574219 22.054688 21.847656 C 21.554688 21.878906 21.371094 21.792969 20.953125 21.53125 C 20.609375 21.339844 20.609375 21.339844 20.25 21.25 C 19.890625 21.378906 19.664062 21.546875 19.375 21.792969 C 19.125 22 19.125 22 18.6875 22.140625 C 18.339844 22.34375 18.339844 22.34375 18.320312 22.714844 C 18.304688 22.980469 18.296875 23.246094 18.300781 23.511719 C 18.234375 23.976562 18.117188 24.089844 17.75 24.375 C 17.378906 24.441406 17.378906 24.441406 16.953125 24.441406 C 16.800781 24.441406 16.644531 24.441406 16.488281 24.445312 C 16.324219 24.441406 16.164062 24.441406 16 24.4375 C 15.757812 24.441406 15.757812 24.441406 15.511719 24.445312 C 15.359375 24.441406 15.207031 24.441406 15.046875 24.441406 C 14.835938 24.441406 14.835938 24.441406 14.621094 24.441406 C 14.171875 24.359375 14.019531 24.234375 13.75 23.875 C 13.730469 23.527344 13.730469 23.527344 13.757812 23.148438 C 13.757812 22.746094 13.757812 22.746094 13.625 22.375 C 13.125 21.976562 12.585938 21.746094 12 21.5 C 11.8125 21.375 11.8125 21.375 11.625 21.25 C 11.542969 21.296875 11.464844 21.347656 11.382812 21.394531 C 11.273438 21.457031 11.164062 21.515625 11.054688 21.578125 C 10.949219 21.636719 10.84375 21.699219 10.734375 21.761719 C 10.21875 21.921875 9.984375 21.855469 9.5 21.625 C 9.222656 21.300781 9.03125 20.945312 8.835938 20.570312 C 8.730469 20.378906 8.625 20.183594 8.515625 19.992188 C 8.472656 19.90625 8.425781 19.824219 8.378906 19.734375 C 8.261719 19.523438 8.132812 19.324219 8 19.125 C 7.902344 18.253906 7.902344 18.253906 8.273438 17.773438 C 8.625 17.5 8.625 17.5 8.953125 17.363281 C 9.292969 17.089844 9.300781 17.035156 9.351562 16.621094 C 9.359375 16.421875 9.359375 16.222656 9.359375 16.023438 C 9.359375 15.921875 9.359375 15.820312 9.359375 15.714844 C 9.339844 15.222656 9.316406 14.957031 9 14.570312 C 8.714844 14.386719 8.4375 14.257812 8.125 14.125 C 7.917969 13.714844 7.929688 13.320312 8 12.875 C 8.1875 12.414062 8.433594 12 8.695312 11.578125 C 8.792969 11.410156 8.792969 11.410156 8.890625 11.238281 C 9.203125 10.71875 9.394531 10.425781 9.945312 10.152344 C 10.445312 10.121094 10.628906 10.203125 11.046875 10.46875 C 11.390625 10.660156 11.390625 10.660156 11.75 10.75 C 12.109375 10.621094 12.335938 10.453125 12.625 10.207031 C 12.875 10 12.875 10 13.3125 9.859375 C 13.660156 9.65625 13.660156 9.65625 13.679688 9.285156 C 13.695312 9.019531 13.703125 8.753906 13.699219 8.488281 C 13.808594 7.695312 14.320312 7.5625 15.046875 7.558594 Z M 15.046875 7.558594 "/>
<path style=" stroke:none;fill-rule:nonzero;fill:rgb(92.941177%,74.509805%,12.54902%);fill-opacity:1;" d="M 25.296875 0.1875 C 25.429688 0.1875 25.5625 0.183594 25.703125 0.183594 C 25.917969 0.1875 25.917969 0.1875 26.136719 0.1875 C 26.359375 0.1875 26.359375 0.1875 26.585938 0.1875 C 26.898438 0.1875 27.214844 0.1875 27.527344 0.191406 C 28.007812 0.195312 28.488281 0.195312 28.964844 0.191406 C 29.273438 0.195312 29.574219 0.195312 29.878906 0.195312 C 30.023438 0.195312 30.167969 0.195312 30.316406 0.195312 C 30.449219 0.195312 30.582031 0.199219 30.71875 0.199219 C 30.898438 0.199219 30.898438 0.199219 31.078125 0.199219 C 31.429688 0.257812 31.539062 0.339844 31.75 0.625 C 31.871094 0.984375 31.890625 1.21875 31.894531 1.59375 C 31.898438 1.714844 31.898438 1.835938 31.898438 1.960938 C 31.898438 2.089844 31.902344 2.222656 31.902344 2.355469 C 31.902344 2.488281 31.902344 2.621094 31.902344 2.761719 C 31.902344 3.042969 31.902344 3.328125 31.90625 3.609375 C 31.90625 4.042969 31.910156 4.476562 31.914062 4.910156 C 31.914062 5.1875 31.914062 5.460938 31.914062 5.738281 C 31.917969 5.867188 31.917969 5.996094 31.921875 6.128906 C 31.917969 7.261719 31.917969 7.261719 31.5 7.75 C 31.1875 7.90625 30.972656 7.894531 30.621094 7.898438 C 30.492188 7.898438 30.359375 7.898438 30.222656 7.902344 C 30.082031 7.902344 29.941406 7.902344 29.792969 7.90625 C 29.648438 7.90625 29.503906 7.90625 29.351562 7.90625 C 29.042969 7.910156 28.738281 7.910156 28.429688 7.914062 C 27.957031 7.914062 27.484375 7.917969 27.011719 7.925781 C 26.714844 7.925781 26.414062 7.925781 26.113281 7.929688 C 25.972656 7.929688 25.832031 7.933594 25.683594 7.933594 C 25.554688 7.933594 25.421875 7.933594 25.285156 7.933594 C 25.171875 7.933594 25.054688 7.933594 24.933594 7.9375 C 24.519531 7.855469 24.375 7.710938 24.125 7.375 C 24.0625 7.066406 24.0625 7.066406 24.058594 6.71875 C 24.058594 6.585938 24.058594 6.457031 24.054688 6.320312 C 24.058594 6.179688 24.058594 6.039062 24.058594 5.894531 C 24.058594 5.75 24.058594 5.605469 24.058594 5.453125 C 24.058594 5.148438 24.058594 4.839844 24.058594 4.535156 C 24.0625 4.066406 24.058594 3.59375 24.058594 3.125 C 24.058594 2.824219 24.058594 2.527344 24.058594 2.230469 C 24.058594 2.089844 24.058594 1.949219 24.054688 1.804688 C 24.058594 1.671875 24.058594 1.542969 24.058594 1.40625 C 24.058594 1.292969 24.0625 1.175781 24.0625 1.058594 C 24.203125 0.367188 24.640625 0.1875 25.296875 0.1875 Z M 25.296875 0.1875 "/>
<path style=" stroke:none;fill-rule:nonzero;fill:rgb(97.647059%,36.078432%,23.529412%);fill-opacity:1;" d="M 26.320312 24.066406 C 26.410156 24.066406 26.503906 24.0625 26.597656 24.0625 C 26.792969 24.0625 26.988281 24.0625 27.183594 24.0625 C 27.484375 24.0625 27.78125 24.058594 28.078125 24.050781 C 28.269531 24.050781 28.457031 24.050781 28.648438 24.050781 C 28.78125 24.046875 28.78125 24.046875 28.914062 24.046875 C 29.390625 24.050781 29.601562 24.109375 29.976562 24.410156 C 30.207031 24.695312 30.398438 24.957031 30.570312 25.277344 C 30.652344 25.421875 30.652344 25.421875 30.730469 25.566406 C 30.8125 25.714844 30.8125 25.714844 30.890625 25.867188 C 30.945312 25.964844 31 26.0625 31.054688 26.164062 C 31.15625 26.355469 31.261719 26.546875 31.363281 26.738281 C 31.480469 26.960938 31.605469 27.179688 31.734375 27.398438 C 31.910156 27.835938 31.859375 28.042969 31.75 28.5 C 31.578125 28.855469 31.578125 28.855469 31.363281 29.21875 C 31.285156 29.351562 31.210938 29.484375 31.128906 29.621094 C 31.046875 29.757812 30.96875 29.890625 30.882812 30.03125 C 30.800781 30.167969 30.71875 30.304688 30.636719 30.449219 C 30.039062 31.460938 30.039062 31.460938 29.75 31.75 C 29.425781 31.777344 29.113281 31.792969 28.785156 31.792969 C 28.691406 31.792969 28.59375 31.792969 28.496094 31.792969 C 28.292969 31.796875 28.09375 31.796875 27.890625 31.796875 C 27.582031 31.796875 27.269531 31.800781 26.960938 31.804688 C 26.765625 31.804688 26.566406 31.808594 26.371094 31.808594 C 26.234375 31.808594 26.234375 31.808594 26.09375 31.8125 C 25.675781 31.808594 25.425781 31.789062 25.089844 31.535156 C 24.6875 30.996094 24.363281 30.421875 24.03125 29.835938 C 23.957031 29.707031 23.878906 29.582031 23.804688 29.449219 C 23.730469 29.324219 23.660156 29.199219 23.589844 29.070312 C 23.523438 28.957031 23.457031 28.847656 23.390625 28.730469 C 23.164062 28.15625 23.164062 27.703125 23.40625 27.132812 C 23.476562 27.011719 23.546875 26.894531 23.621094 26.769531 C 23.695312 26.640625 23.773438 26.511719 23.855469 26.375 C 23.9375 26.242188 24.015625 26.105469 24.101562 25.96875 C 24.183594 25.832031 24.261719 25.695312 24.34375 25.554688 C 25.234375 24.066406 25.234375 24.066406 26.320312 24.066406 Z M 26.320312 24.066406 "/>
<path style=" stroke:none;fill-rule:nonzero;fill:rgb(92.156863%,92.156863%,92.156863%);fill-opacity:1;" d="M 18.125 12.625 C 18.984375 13.195312 19.554688 14.023438 19.875 15 C 19.988281 16.15625 19.878906 17.078125 19.375 18.125 C 19.3125 18.34375 19.3125 18.34375 19.25 18.570312 C 19.207031 18.671875 19.167969 18.769531 19.125 18.875 C 18.859375 18.984375 18.859375 18.984375 18.625 19 C 18.582031 19.164062 18.542969 19.328125 18.5 19.5 C 17.148438 19.882812 15.628906 20.230469 14.304688 19.601562 C 14.117188 19.488281 13.929688 19.375 13.75 19.25 C 13.675781 19.203125 13.605469 19.152344 13.527344 19.105469 C 12.789062 18.554688 12.367188 17.746094 12.125 16.875 C 11.972656 15.589844 12.121094 14.566406 12.875 13.5 C 14.199219 11.96875 16.355469 11.585938 18.125 12.625 Z M 18.125 12.625 "/>
<path style=" stroke:none;fill-rule:nonzero;fill:rgb(92.54902%,74.117649%,12.54902%);fill-opacity:1;" d="M 5.890625 24.453125 C 6.195312 24.675781 6.242188 24.902344 6.375 25.25 C 6.753906 25.421875 6.753906 25.421875 7.125 25.5 C 7.121094 25.597656 7.121094 25.691406 7.117188 25.789062 C 7.109375 26.136719 7.109375 26.136719 7.25 26.5 C 7.503906 26.59375 7.503906 26.59375 7.75 26.625 C 8.050781 27.640625 7.984375 28.757812 7.542969 29.714844 C 6.949219 30.730469 6.140625 31.429688 5 31.75 C 3.667969 31.898438 2.621094 31.792969 1.5 31 C 0.746094 30.359375 0.230469 29.359375 0.125 28.375 C 0.0429688 27.316406 0.339844 26.332031 1 25.5 C 2.324219 24.035156 4.066406 23.722656 5.890625 24.453125 Z M 5.890625 24.453125 "/>
<path style=" stroke:none;fill-rule:nonzero;fill:rgb(97.647059%,36.078432%,23.921569%);fill-opacity:1;" d="M 4.375 0.179688 C 4.84375 0.265625 5.023438 0.429688 5.375 0.75 C 5.609375 1.09375 5.609375 1.09375 5.828125 1.488281 C 5.890625 1.597656 5.890625 1.597656 5.953125 1.707031 C 6.082031 1.9375 6.207031 2.167969 6.335938 2.398438 C 6.46875 2.636719 6.601562 2.875 6.734375 3.113281 C 6.824219 3.269531 6.914062 3.429688 7 3.585938 C 7.253906 4.039062 7.511719 4.484375 7.785156 4.921875 C 7.84375 5.019531 7.902344 5.113281 7.960938 5.210938 C 8.066406 5.382812 8.171875 5.550781 8.28125 5.71875 C 8.605469 6.25 8.726562 6.632812 8.625 7.25 C 8.417969 7.570312 8.324219 7.695312 8 7.875 C 7.464844 7.964844 6.9375 7.953125 6.398438 7.945312 C 6.164062 7.945312 6.164062 7.945312 5.925781 7.945312 C 5.59375 7.941406 5.265625 7.941406 4.9375 7.9375 C 4.515625 7.929688 4.09375 7.929688 3.671875 7.929688 C 3.265625 7.925781 2.863281 7.925781 2.460938 7.921875 C 2.308594 7.921875 2.15625 7.917969 2.003906 7.917969 C 1.859375 7.917969 1.722656 7.914062 1.578125 7.914062 C 1.390625 7.910156 1.390625 7.910156 1.203125 7.910156 C 0.863281 7.875 0.660156 7.808594 0.375 7.625 C 0.0859375 7.128906 0.117188 6.800781 0.25 6.25 C 0.414062 5.9375 0.578125 5.644531 0.765625 5.34375 C 0.878906 5.15625 0.992188 4.972656 1.105469 4.785156 C 1.167969 4.683594 1.230469 4.578125 1.292969 4.472656 C 1.527344 4.078125 1.753906 3.683594 1.976562 3.285156 C 2.0625 3.136719 2.144531 2.992188 2.226562 2.847656 C 2.390625 2.558594 2.554688 2.265625 2.714844 1.976562 C 2.792969 1.84375 2.867188 1.710938 2.949219 1.570312 C 3.046875 1.394531 3.046875 1.394531 3.152344 1.210938 C 3.480469 0.714844 3.773438 0.292969 4.375 0.179688 Z M 4.375 0.179688 "/>
<path style=" stroke:none;fill-rule:nonzero;fill:rgb(0.392157%,0.784314%,1.176471%);fill-opacity:1;" d="M 15.046875 7.558594 C 15.199219 7.558594 15.355469 7.558594 15.511719 7.554688 C 15.753906 7.558594 15.753906 7.558594 16 7.5625 C 16.160156 7.5625 16.320312 7.558594 16.488281 7.554688 C 16.640625 7.558594 16.792969 7.558594 16.953125 7.558594 C 17.164062 7.558594 17.164062 7.558594 17.378906 7.558594 C 17.828125 7.636719 17.980469 7.765625 18.25 8.125 C 18.269531 8.472656 18.269531 8.472656 18.242188 8.851562 C 18.242188 9.253906 18.242188 9.253906 18.375 9.625 C 18.875 10.023438 19.414062 10.253906 20 10.5 C 20.125 10.582031 20.25 10.664062 20.375 10.75 C 20.457031 10.703125 20.535156 10.652344 20.617188 10.605469 C 20.78125 10.511719 20.78125 10.511719 20.945312 10.421875 C 21.050781 10.359375 21.15625 10.300781 21.265625 10.238281 C 21.78125 10.074219 22.015625 10.140625 22.5 10.375 C 22.777344 10.699219 22.96875 11.054688 23.164062 11.429688 C 23.269531 11.621094 23.375 11.816406 23.484375 12.007812 C 23.550781 12.136719 23.550781 12.136719 23.621094 12.265625 C 23.738281 12.476562 23.867188 12.675781 24 12.875 C 24.097656 13.75 24.097656 13.75 23.726562 14.226562 C 23.375 14.5 23.375 14.5 23.046875 14.636719 C 22.707031 14.910156 22.699219 14.964844 22.648438 15.378906 C 22.640625 15.578125 22.640625 15.777344 22.640625 15.976562 C 22.640625 16.078125 22.640625 16.179688 22.640625 16.285156 C 22.660156 16.777344 22.683594 17.042969 23 17.429688 C 23.285156 17.613281 23.5625 17.742188 23.875 17.875 C 24.082031 18.289062 24.070312 18.679688 24 19.125 C 23.8125 19.585938 23.566406 20 23.304688 20.421875 C 23.242188 20.535156 23.175781 20.648438 23.109375 20.761719 C 22.796875 21.28125 22.605469 21.574219 22.054688 21.847656 C 21.554688 21.878906 21.371094 21.792969 20.953125 21.53125 C 20.609375 21.339844 20.609375 21.339844 20.25 21.25 C 19.890625 21.378906 19.664062 21.546875 19.375 21.792969 C 19.125 22 19.125 22 18.6875 22.140625 C 18.339844 22.34375 18.339844 22.34375 18.320312 22.714844 C 18.304688 22.980469 18.296875 23.246094 18.300781 23.511719 C 18.234375 23.976562 18.117188 24.089844 17.75 24.375 C 17.378906 24.441406 17.378906 24.441406 16.953125 24.441406 C 16.800781 24.441406 16.644531 24.441406 16.488281 24.445312 C 16.324219 24.441406 16.164062 24.441406 16 24.4375 C 15.757812 24.441406 15.757812 24.441406 15.511719 24.445312 C 15.359375 24.441406 15.207031 24.441406 15.046875 24.441406 C 14.835938 24.441406 14.835938 24.441406 14.621094 24.441406 C 14.171875 24.359375 14.019531 24.234375 13.75 23.875 C 13.730469 23.527344 13.730469 23.527344 13.757812 23.148438 C 13.757812 22.746094 13.757812 22.746094 13.625 22.375 C 13.125 21.976562 12.585938 21.746094 12 21.5 C 11.8125 21.375 11.8125 21.375 11.625 21.25 C 11.542969 21.296875 11.464844 21.347656 11.382812 21.394531 C 11.273438 21.457031 11.164062 21.515625 11.054688 21.578125 C 10.949219 21.636719 10.84375 21.699219 10.734375 21.761719 C 10.21875 21.921875 9.984375 21.855469 9.5 21.625 C 9.222656 21.300781 9.03125 20.945312 8.835938 20.570312 C 8.730469 20.378906 8.625 20.183594 8.515625 19.992188 C 8.472656 19.90625 8.425781 19.824219 8.378906 19.734375 C 8.261719 19.523438 8.132812 19.324219 8 19.125 C 7.902344 18.253906 7.902344 18.253906 8.273438 17.773438 C 8.625 17.5 8.625 17.5 8.953125 17.363281 C 9.292969 17.089844 9.300781 17.035156 9.351562 16.621094 C 9.359375 16.421875 9.359375 16.222656 9.359375 16.023438 C 9.359375 15.921875 9.359375 15.820312 9.359375 15.714844 C 9.339844 15.222656 9.316406 14.957031 9 14.570312 C 8.714844 14.386719 8.4375 14.257812 8.125 14.125 C 7.917969 13.714844 7.929688 13.320312 8 12.875 C 8.1875 12.414062 8.433594 12 8.695312 11.578125 C 8.792969 11.410156 8.792969 11.410156 8.890625 11.238281 C 9.203125 10.71875 9.394531 10.425781 9.945312 10.152344 C 10.445312 10.121094 10.628906 10.203125 11.046875 10.46875 C 11.390625 10.660156 11.390625 10.660156 11.75 10.75 C 12.109375 10.621094 12.335938 10.453125 12.625 10.207031 C 12.875 10 12.875 10 13.3125 9.859375 C 13.660156 9.65625 13.660156 9.65625 13.679688 9.285156 C 13.695312 9.019531 13.703125 8.753906 13.699219 8.488281 C 13.808594 7.695312 14.320312 7.5625 15.046875 7.558594 Z M 14.375 8.375 C 14.382812 8.496094 14.390625 8.613281 14.398438 8.738281 C 14.414062 9.25 14.402344 9.636719 14.25 10.125 C 13.828125 10.453125 13.433594 10.636719 12.9375 10.820312 C 12.507812 10.996094 12.226562 11.203125 11.875 11.5 C 11.441406 11.5 11.078125 11.207031 10.722656 10.980469 C 10.464844 10.839844 10.464844 10.839844 10 10.875 C 9.800781 11.085938 9.800781 11.085938 9.644531 11.378906 C 9.585938 11.480469 9.523438 11.585938 9.460938 11.695312 C 9.367188 11.859375 9.367188 11.859375 9.273438 12.03125 C 9.175781 12.195312 9.175781 12.195312 9.078125 12.363281 C 8.738281 12.90625 8.738281 12.90625 8.632812 13.515625 C 8.804688 13.855469 9.03125 13.910156 9.375 14.0625 C 9.769531 14.289062 9.960938 14.398438 10.125 14.828125 C 10.171875 15.222656 10.179688 15.59375 10.164062 15.992188 C 10.160156 16.128906 10.160156 16.261719 10.15625 16.402344 C 10.121094 17.03125 10.085938 17.390625 9.6875 17.890625 C 9.335938 18.109375 9.023438 18.261719 8.625 18.375 C 8.6875 19.042969 9.042969 19.542969 9.382812 20.101562 C 9.441406 20.199219 9.5 20.296875 9.5625 20.398438 C 9.707031 20.640625 9.851562 20.882812 10 21.125 C 10.417969 21.058594 10.714844 20.96875 11.0625 20.734375 C 11.5 20.5 11.5 20.5 11.828125 20.5 C 12.125 20.625 12.125 20.625 12.40625 20.863281 C 12.773438 21.140625 13.101562 21.261719 13.53125 21.421875 C 13.929688 21.609375 13.929688 21.609375 14.25 21.875 C 14.414062 22.46875 14.398438 23.015625 14.375 23.625 C 14.589844 23.839844 14.871094 23.765625 15.164062 23.765625 C 15.296875 23.765625 15.433594 23.765625 15.570312 23.765625 C 15.714844 23.765625 15.855469 23.765625 16 23.765625 C 16.140625 23.765625 16.28125 23.765625 16.429688 23.765625 C 16.5625 23.765625 16.695312 23.765625 16.835938 23.765625 C 16.960938 23.765625 17.085938 23.765625 17.210938 23.765625 C 17.496094 23.78125 17.496094 23.78125 17.625 23.625 C 17.617188 23.503906 17.609375 23.386719 17.601562 23.261719 C 17.585938 22.753906 17.597656 22.363281 17.75 21.875 C 18.171875 21.546875 18.566406 21.367188 19.0625 21.179688 C 19.492188 21.003906 19.773438 20.796875 20.125 20.5 C 20.558594 20.5 20.921875 20.792969 21.277344 21.019531 C 21.535156 21.160156 21.535156 21.160156 22 21.125 C 22.199219 20.914062 22.199219 20.914062 22.355469 20.625 C 22.414062 20.519531 22.476562 20.414062 22.539062 20.304688 C 22.601562 20.195312 22.664062 20.082031 22.726562 19.96875 C 22.789062 19.859375 22.855469 19.75 22.921875 19.636719 C 23.261719 19.097656 23.261719 19.097656 23.367188 18.484375 C 23.195312 18.144531 22.96875 18.089844 22.625 17.9375 C 22.230469 17.710938 22.039062 17.601562 21.875 17.171875 C 21.828125 16.777344 21.820312 16.40625 21.835938 16.007812 C 21.839844 15.804688 21.839844 15.804688 21.84375 15.597656 C 21.878906 14.96875 21.914062 14.609375 22.3125 14.109375 C 22.664062 13.890625 22.976562 13.738281 23.375 13.625 C 23.3125 12.960938 22.957031 12.457031 22.617188 11.898438 C 22.527344 11.75 22.527344 11.75 22.4375 11.601562 C 22.292969 11.355469 22.148438 11.117188 22 10.875 C 21.582031 10.941406 21.285156 11.03125 20.9375 11.265625 C 20.5 11.5 20.5 11.5 20.171875 11.5 C 19.808594 11.347656 19.558594 11.125 19.25 10.875 C 18.839844 10.648438 18.421875 10.429688 17.972656 10.292969 C 17.75 10.125 17.75 10.125 17.679688 9.722656 C 17.671875 9.484375 17.671875 9.484375 17.664062 9.242188 C 17.695312 8.707031 17.695312 8.707031 17.5 8.25 C 17.28125 8.238281 17.058594 8.234375 16.835938 8.234375 C 16.703125 8.234375 16.566406 8.234375 16.429688 8.230469 C 16.285156 8.234375 16.144531 8.234375 16 8.234375 C 15.859375 8.234375 15.71875 8.234375 15.570312 8.230469 C 15.4375 8.234375 15.304688 8.234375 15.164062 8.234375 C 15.039062 8.234375 14.914062 8.234375 14.789062 8.234375 C 14.503906 8.21875 14.503906 8.21875 14.375 8.375 Z M 14.375 8.375 "/>
<path style=" stroke:none;fill-rule:nonzero;fill:rgb(1.568628%,1.568628%,1.568628%);fill-opacity:1;" d="M 4.1875 9.378906 C 4.585938 9.53125 4.730469 9.714844 4.984375 10.054688 C 5.070312 10.167969 5.152344 10.28125 5.242188 10.394531 C 5.328125 10.511719 5.414062 10.628906 5.5 10.75 C 5.585938 10.859375 5.671875 10.96875 5.757812 11.085938 C 5.839844 11.191406 5.917969 11.296875 6 11.40625 C 6.109375 11.550781 6.109375 11.550781 6.21875 11.695312 C 6.414062 12.074219 6.414062 12.332031 6.375 12.75 C 6.25 12.984375 6.25 12.984375 6 13.125 C 5.664062 13.144531 5.335938 13.128906 5 13.125 C 5 13.234375 5.003906 13.34375 5.003906 13.457031 C 5.007812 14.496094 5.015625 15.53125 5.019531 16.570312 C 5.019531 17.105469 5.023438 17.636719 5.027344 18.171875 C 5.03125 18.6875 5.035156 19.199219 5.035156 19.714844 C 5.035156 19.910156 5.039062 20.105469 5.039062 20.304688 C 5.042969 20.578125 5.042969 20.851562 5.042969 21.128906 C 5.042969 21.285156 5.042969 21.441406 5.042969 21.601562 C 4.996094 22.03125 4.929688 22.203125 4.625 22.5 C 4.175781 22.648438 3.964844 22.664062 3.53125 22.46875 C 3.25 22.25 3.25 22.25 3 21.875 C 2.96875 21.5 2.96875 21.5 2.972656 21.03125 C 2.972656 20.945312 2.972656 20.859375 2.972656 20.769531 C 2.972656 20.488281 2.972656 20.207031 2.976562 19.925781 C 2.976562 19.726562 2.976562 19.53125 2.976562 19.335938 C 2.976562 18.824219 2.980469 18.308594 2.980469 17.792969 C 2.984375 17.269531 2.984375 16.742188 2.988281 16.21875 C 2.992188 15.1875 2.996094 14.15625 3 13.125 C 2.863281 13.128906 2.726562 13.136719 2.585938 13.140625 C 2.125 13.125 2.125 13.125 1.75 12.875 C 1.632812 12.601562 1.632812 12.601562 1.625 12.25 C 1.945312 11.628906 2.324219 11.082031 2.75 10.53125 C 2.804688 10.460938 2.855469 10.390625 2.910156 10.316406 C 3.640625 9.371094 3.640625 9.371094 4.1875 9.378906 Z M 4.1875 9.378906 "/>
<path style=" stroke:none;fill-rule:nonzero;fill:rgb(0.784314%,0.784314%,0.784314%);fill-opacity:1;" d="M 20 1.75 C 20.386719 1.953125 20.730469 2.203125 21.078125 2.460938 C 21.171875 2.527344 21.265625 2.59375 21.363281 2.660156 C 22.320312 3.355469 22.320312 3.355469 22.625 3.875 C 22.628906 4.296875 22.550781 4.445312 22.257812 4.75 C 22.15625 4.828125 22.050781 4.902344 21.945312 4.984375 C 21.832031 5.070312 21.71875 5.152344 21.605469 5.242188 C 21.488281 5.328125 21.371094 5.414062 21.25 5.5 C 21.085938 5.628906 21.085938 5.628906 20.914062 5.757812 C 20.808594 5.839844 20.703125 5.917969 20.59375 6 C 20.449219 6.109375 20.449219 6.109375 20.300781 6.21875 C 19.925781 6.414062 19.667969 6.414062 19.25 6.375 C 19.015625 6.25 19.015625 6.25 18.875 6 C 18.855469 5.667969 18.867188 5.335938 18.875 5 C 18.707031 5 18.707031 5 18.535156 5.003906 C 17.484375 5.011719 16.425781 5.015625 15.375 5.019531 C 14.832031 5.019531 14.289062 5.023438 13.75 5.027344 C 13.226562 5.03125 12.703125 5.035156 12.179688 5.035156 C 11.980469 5.035156 11.78125 5.039062 11.582031 5.039062 C 11.300781 5.042969 11.023438 5.042969 10.742188 5.042969 C 10.585938 5.042969 10.425781 5.042969 10.261719 5.046875 C 9.875 5 9.875 5 9.640625 4.832031 C 9.421875 4.511719 9.390625 4.257812 9.375 3.875 C 9.523438 3.527344 9.644531 3.320312 9.960938 3.109375 C 10.351562 2.960938 10.683594 2.96875 11.097656 2.972656 C 11.183594 2.972656 11.265625 2.972656 11.355469 2.972656 C 11.632812 2.972656 11.910156 2.972656 12.183594 2.976562 C 12.378906 2.976562 12.570312 2.976562 12.765625 2.976562 C 13.269531 2.976562 13.777344 2.980469 14.28125 2.984375 C 14.800781 2.984375 15.316406 2.984375 15.832031 2.988281 C 16.847656 2.988281 17.859375 2.996094 18.875 3 C 18.871094 2.859375 18.867188 2.722656 18.867188 2.578125 C 18.875 2.125 18.875 2.125 19.015625 1.882812 C 19.375 1.679688 19.585938 1.699219 20 1.75 Z M 20 1.75 "/>
<path style=" stroke:none;fill-rule:nonzero;fill:rgb(0.784314%,0.784314%,0.784314%);fill-opacity:1;" d="M 12.75 25.625 C 12.984375 25.75 12.984375 25.75 13.125 26 C 13.144531 26.332031 13.132812 26.664062 13.125 27 C 13.292969 27 13.292969 27 13.464844 26.996094 C 14.515625 26.988281 15.574219 26.984375 16.625 26.980469 C 17.167969 26.980469 17.710938 26.976562 18.25 26.972656 C 18.773438 26.96875 19.296875 26.964844 19.820312 26.964844 C 20.019531 26.964844 20.21875 26.960938 20.417969 26.960938 C 20.699219 26.957031 20.976562 26.957031 21.257812 26.957031 C 21.414062 26.957031 21.574219 26.957031 21.738281 26.953125 C 22.125 27 22.125 27 22.359375 27.167969 C 22.578125 27.488281 22.609375 27.742188 22.625 28.125 C 22.476562 28.472656 22.355469 28.679688 22.039062 28.890625 C 21.648438 29.039062 21.316406 29.03125 20.902344 29.027344 C 20.773438 29.027344 20.773438 29.027344 20.644531 29.027344 C 20.367188 29.027344 20.089844 29.027344 19.816406 29.023438 C 19.621094 29.023438 19.429688 29.023438 19.234375 29.023438 C 18.730469 29.023438 18.222656 29.019531 17.71875 29.015625 C 17.199219 29.015625 16.683594 29.015625 16.167969 29.011719 C 15.152344 29.011719 14.140625 29.003906 13.125 29 C 13.128906 29.140625 13.132812 29.277344 13.132812 29.421875 C 13.125 29.875 13.125 29.875 12.984375 30.117188 C 12.625 30.320312 12.414062 30.300781 12 30.25 C 11.613281 30.046875 11.269531 29.796875 10.921875 29.539062 C 10.78125 29.441406 10.78125 29.441406 10.636719 29.339844 C 9.679688 28.644531 9.679688 28.644531 9.375 28.125 C 9.371094 27.703125 9.449219 27.554688 9.742188 27.25 C 9.84375 27.171875 9.949219 27.097656 10.054688 27.015625 C 10.167969 26.929688 10.28125 26.847656 10.394531 26.757812 C 10.511719 26.671875 10.628906 26.585938 10.75 26.5 C 10.914062 26.371094 10.914062 26.371094 11.085938 26.242188 C 11.191406 26.160156 11.296875 26.082031 11.40625 26 C 11.550781 25.890625 11.550781 25.890625 11.699219 25.78125 C 12.074219 25.585938 12.332031 25.585938 12.75 25.625 Z M 12.75 25.625 "/>
<path style=" stroke:none;fill-rule:nonzero;fill:rgb(1.176471%,1.176471%,1.176471%);fill-opacity:1;" d="M 28.5 9.5 C 28.816406 9.777344 28.980469 9.996094 29.042969 10.417969 C 29.058594 10.765625 29.054688 11.109375 29.046875 11.460938 C 29.046875 11.582031 29.046875 11.703125 29.046875 11.824219 C 29.035156 12.714844 29.035156 12.714844 28.75 13 C 28.671875 13.257812 28.671875 13.257812 28.625 13.5 C 28.8125 13.5625 28.8125 13.5625 29 13.625 C 28.914062 14.019531 28.78125 14.378906 28.625 14.75 C 28.8125 14.8125 28.8125 14.8125 29 14.875 C 29 16.195312 29 17.515625 29 18.875 C 29.289062 18.875 29.578125 18.875 29.875 18.875 C 30.25 19.125 30.25 19.125 30.367188 19.398438 C 30.382812 20.164062 29.703125 20.882812 29.25 21.46875 C 29.171875 21.574219 29.171875 21.574219 29.089844 21.683594 C 28.523438 22.417969 28.523438 22.417969 28.125 22.625 C 27.710938 22.617188 27.550781 22.546875 27.25 22.257812 C 27.171875 22.15625 27.097656 22.050781 27.015625 21.945312 C 26.929688 21.832031 26.847656 21.71875 26.757812 21.605469 C 26.671875 21.488281 26.585938 21.371094 26.5 21.25 C 26.414062 21.140625 26.328125 21.027344 26.242188 20.914062 C 26.160156 20.808594 26.082031 20.703125 26 20.59375 C 25.925781 20.496094 25.855469 20.402344 25.78125 20.300781 C 25.585938 19.925781 25.585938 19.667969 25.625 19.25 C 25.75 19.015625 25.75 19.015625 26 18.875 C 26.332031 18.855469 26.664062 18.867188 27 18.875 C 27 18.710938 27 18.710938 26.996094 18.542969 C 26.988281 17.503906 26.984375 16.464844 26.980469 15.429688 C 26.980469 14.894531 26.976562 14.363281 26.972656 13.828125 C 26.96875 13.316406 26.964844 12.800781 26.964844 12.285156 C 26.964844 12.089844 26.960938 11.890625 26.960938 11.695312 C 26.957031 11.421875 26.957031 11.144531 26.957031 10.871094 C 26.957031 10.636719 26.957031 10.636719 26.953125 10.398438 C 27.003906 9.96875 27.070312 9.796875 27.375 9.5 C 27.828125 9.351562 28.046875 9.371094 28.5 9.5 Z M 28.5 9.5 "/>
<path style=" stroke:none;fill-rule:nonzero;fill:rgb(0.392157%,0.392157%,0%);fill-opacity:1;" d="M 25.296875 0.1875 C 25.429688 0.1875 25.5625 0.183594 25.703125 0.183594 C 25.917969 0.1875 25.917969 0.1875 26.136719 0.1875 C 26.359375 0.1875 26.359375 0.1875 26.585938 0.1875 C 26.898438 0.1875 27.214844 0.1875 27.527344 0.191406 C 28.007812 0.195312 28.488281 0.195312 28.964844 0.191406 C 29.273438 0.195312 29.574219 0.195312 29.878906 0.195312 C 30.023438 0.195312 30.167969 0.195312 30.316406 0.195312 C 30.449219 0.195312 30.582031 0.199219 30.71875 0.199219 C 30.898438 0.199219 30.898438 0.199219 31.078125 0.199219 C 31.429688 0.257812 31.539062 0.339844 31.75 0.625 C 31.871094 0.984375 31.890625 1.21875 31.894531 1.59375 C 31.898438 1.714844 31.898438 1.835938 31.898438 1.960938 C 31.898438 2.089844 31.902344 2.222656 31.902344 2.355469 C 31.902344 2.488281 31.902344 2.621094 31.902344 2.761719 C 31.902344 3.042969 31.902344 3.328125 31.90625 3.609375 C 31.90625 4.042969 31.910156 4.476562 31.914062 4.910156 C 31.914062 5.1875 31.914062 5.460938 31.914062 5.738281 C 31.917969 5.867188 31.917969 5.996094 31.921875 6.128906 C 31.917969 7.261719 31.917969 7.261719 31.5 7.75 C 31.1875 7.90625 30.972656 7.894531 30.621094 7.898438 C 30.492188 7.898438 30.359375 7.898438 30.222656 7.902344 C 30.082031 7.902344 29.941406 7.902344 29.792969 7.90625 C 29.648438 7.90625 29.503906 7.90625 29.351562 7.90625 C 29.042969 7.910156 28.738281 7.910156 28.429688 7.914062 C 27.957031 7.914062 27.484375 7.917969 27.011719 7.925781 C 26.714844 7.925781 26.414062 7.925781 26.113281 7.929688 C 25.972656 7.929688 25.832031 7.933594 25.683594 7.933594 C 25.554688 7.933594 25.421875 7.933594 25.285156 7.933594 C 25.171875 7.933594 25.054688 7.933594 24.933594 7.9375 C 24.519531 7.855469 24.375 7.710938 24.125 7.375 C 24.0625 7.066406 24.0625 7.066406 24.058594 6.71875 C 24.058594 6.585938 24.058594 6.457031 24.054688 6.320312 C 24.058594 6.179688 24.058594 6.039062 24.058594 5.894531 C 24.058594 5.75 24.058594 5.605469 24.058594 5.453125 C 24.058594 5.148438 24.058594 4.839844 24.058594 4.535156 C 24.0625 4.066406 24.058594 3.59375 24.058594 3.125 C 24.058594 2.824219 24.058594 2.527344 24.058594 2.230469 C 24.058594 2.089844 24.058594 1.949219 24.054688 1.804688 C 24.058594 1.671875 24.058594 1.542969 24.058594 1.40625 C 24.058594 1.292969 24.0625 1.175781 24.0625 1.058594 C 24.203125 0.367188 24.640625 0.1875 25.296875 0.1875 Z M 24.75 1 C 24.738281 1.1875 24.734375 1.375 24.734375 1.5625 C 24.734375 1.679688 24.734375 1.800781 24.734375 1.921875 C 24.734375 2.050781 24.734375 2.183594 24.734375 2.316406 C 24.734375 2.449219 24.734375 2.582031 24.734375 2.71875 C 24.734375 2.996094 24.734375 3.277344 24.734375 3.558594 C 24.734375 3.988281 24.734375 4.421875 24.734375 4.851562 C 24.734375 5.125 24.734375 5.394531 24.734375 5.667969 C 24.734375 5.796875 24.734375 5.925781 24.734375 6.058594 C 24.734375 6.179688 24.734375 6.300781 24.734375 6.421875 C 24.734375 6.527344 24.734375 6.632812 24.734375 6.742188 C 24.734375 7.007812 24.734375 7.007812 24.875 7.25 C 25.746094 7.253906 26.617188 7.253906 27.484375 7.257812 C 27.78125 7.257812 28.078125 7.257812 28.375 7.261719 C 28.796875 7.261719 29.222656 7.261719 29.648438 7.261719 C 29.78125 7.261719 29.914062 7.261719 30.050781 7.265625 C 30.175781 7.265625 30.296875 7.265625 30.421875 7.265625 C 30.53125 7.265625 30.640625 7.265625 30.753906 7.265625 C 31 7.277344 31 7.277344 31.125 7.125 C 31.136719 6.933594 31.140625 6.742188 31.140625 6.550781 C 31.140625 6.367188 31.140625 6.367188 31.144531 6.179688 C 31.140625 6.046875 31.140625 5.914062 31.140625 5.777344 C 31.140625 5.640625 31.140625 5.507812 31.140625 5.367188 C 31.140625 5.078125 31.140625 4.792969 31.140625 4.507812 C 31.140625 4.066406 31.140625 3.625 31.140625 3.183594 C 31.140625 2.902344 31.140625 2.625 31.140625 2.347656 C 31.140625 2.214844 31.140625 2.082031 31.144531 1.945312 C 31.140625 1.824219 31.140625 1.699219 31.140625 1.574219 C 31.140625 1.464844 31.140625 1.359375 31.140625 1.246094 C 31.152344 1 31.152344 1 31 0.875 C 30.808594 0.863281 30.617188 0.859375 30.425781 0.859375 C 30.304688 0.859375 30.183594 0.859375 30.054688 0.855469 C 29.921875 0.855469 29.789062 0.859375 29.652344 0.859375 C 29.515625 0.859375 29.382812 0.859375 29.242188 0.859375 C 28.953125 0.859375 28.667969 0.859375 28.378906 0.859375 C 27.9375 0.859375 27.496094 0.859375 27.058594 0.855469 C 26.777344 0.859375 26.5 0.859375 26.222656 0.859375 C 26.089844 0.859375 25.957031 0.855469 25.820312 0.855469 C 25.636719 0.859375 25.636719 0.859375 25.449219 0.859375 C 25.285156 0.859375 25.285156 0.859375 25.121094 0.859375 C 24.875 0.847656 24.875 0.847656 24.75 1 Z M 24.75 1 "/>
<path style=" stroke:none;fill-rule:nonzero;fill:rgb(3.137255%,1.176471%,0.392157%);fill-opacity:1;" d="M 4.375 0.179688 C 4.84375 0.265625 5.023438 0.429688 5.375 0.75 C 5.609375 1.09375 5.609375 1.09375 5.828125 1.488281 C 5.890625 1.597656 5.890625 1.597656 5.953125 1.707031 C 6.082031 1.9375 6.207031 2.167969 6.335938 2.398438 C 6.46875 2.636719 6.601562 2.875 6.734375 3.113281 C 6.824219 3.269531 6.914062 3.429688 7 3.585938 C 7.253906 4.039062 7.511719 4.484375 7.785156 4.921875 C 7.84375 5.019531 7.902344 5.113281 7.960938 5.210938 C 8.066406 5.382812 8.171875 5.550781 8.28125 5.71875 C 8.605469 6.25 8.726562 6.632812 8.625 7.25 C 8.417969 7.570312 8.324219 7.695312 8 7.875 C 7.464844 7.964844 6.9375 7.953125 6.398438 7.945312 C 6.164062 7.945312 6.164062 7.945312 5.925781 7.945312 C 5.59375 7.941406 5.265625 7.941406 4.9375 7.9375 C 4.515625 7.929688 4.09375 7.929688 3.671875 7.929688 C 3.265625 7.925781 2.863281 7.925781 2.460938 7.921875 C 2.308594 7.921875 2.15625 7.917969 2.003906 7.917969 C 1.859375 7.917969 1.722656 7.914062 1.578125 7.914062 C 1.390625 7.910156 1.390625 7.910156 1.203125 7.910156 C 0.863281 7.875 0.660156 7.808594 0.375 7.625 C 0.0859375 7.128906 0.117188 6.800781 0.25 6.25 C 0.414062 5.9375 0.578125 5.644531 0.765625 5.34375 C 0.878906 5.15625 0.992188 4.972656 1.105469 4.785156 C 1.167969 4.683594 1.230469 4.578125 1.292969 4.472656 C 1.527344 4.078125 1.753906 3.683594 1.976562 3.285156 C 2.0625 3.136719 2.144531 2.992188 2.226562 2.847656 C 2.390625 2.558594 2.554688 2.265625 2.714844 1.976562 C 2.792969 1.84375 2.867188 1.710938 2.949219 1.570312 C 3.046875 1.394531 3.046875 1.394531 3.152344 1.210938 C 3.480469 0.714844 3.773438 0.292969 4.375 0.179688 Z M 4.125 1 C 4.070312 1.09375 4.015625 1.191406 3.960938 1.289062 C 3.753906 1.648438 3.546875 2.011719 3.339844 2.375 C 3.203125 2.617188 3.066406 2.859375 2.929688 3.101562 C 2.527344 3.800781 2.128906 4.5 1.710938 5.1875 C 1.652344 5.285156 1.589844 5.382812 1.53125 5.480469 C 1.425781 5.65625 1.316406 5.828125 1.207031 6.003906 C 1.046875 6.257812 1.046875 6.257812 0.875 6.625 C 0.917969 6.789062 0.957031 6.953125 1 7.125 C 3.269531 7.125 5.539062 7.125 7.875 7.125 C 8.042969 6.757812 8.042969 6.757812 7.875 6.453125 C 7.808594 6.339844 7.742188 6.222656 7.671875 6.105469 C 7.601562 5.976562 7.527344 5.847656 7.453125 5.714844 C 7.371094 5.574219 7.292969 5.4375 7.210938 5.296875 C 7.132812 5.15625 7.050781 5.015625 6.96875 4.871094 C 6.730469 4.457031 6.492188 4.039062 6.25 3.625 C 6.183594 3.511719 6.117188 3.394531 6.050781 3.277344 C 5.421875 2.078125 5.421875 2.078125 4.625 1 C 4.460938 1 4.296875 1 4.125 1 Z M 4.125 1 "/>
<path style=" stroke:none;fill-rule:nonzero;fill:rgb(1.176471%,0.392157%,0%);fill-opacity:1;" d="M 26.320312 24.066406 C 26.410156 24.066406 26.503906 24.0625 26.597656 24.0625 C 26.792969 24.0625 26.988281 24.0625 27.183594 24.0625 C 27.484375 24.0625 27.78125 24.058594 28.078125 24.050781 C 28.269531 24.050781 28.457031 24.050781 28.648438 24.050781 C 28.78125 24.046875 28.78125 24.046875 28.914062 24.046875 C 29.390625 24.050781 29.601562 24.109375 29.976562 24.410156 C 30.207031 24.695312 30.398438 24.957031 30.570312 25.277344 C 30.652344 25.421875 30.652344 25.421875 30.730469 25.566406 C 30.8125 25.714844 30.8125 25.714844 30.890625 25.867188 C 30.945312 25.964844 31 26.0625 31.054688 26.164062 C 31.15625 26.355469 31.261719 26.546875 31.363281 26.738281 C 31.480469 26.960938 31.605469 27.179688 31.734375 27.398438 C 31.910156 27.835938 31.859375 28.042969 31.75 28.5 C 31.578125 28.855469 31.578125 28.855469 31.363281 29.21875 C 31.285156 29.351562 31.210938 29.484375 31.128906 29.621094 C 31.046875 29.757812 30.96875 29.890625 30.882812 30.03125 C 30.800781 30.167969 30.71875 30.304688 30.636719 30.449219 C 30.039062 31.460938 30.039062 31.460938 29.75 31.75 C 29.425781 31.777344 29.113281 31.792969 28.785156 31.792969 C 28.691406 31.792969 28.59375 31.792969 28.496094 31.792969 C 28.292969 31.796875 28.09375 31.796875 27.890625 31.796875 C 27.582031 31.796875 27.269531 31.800781 26.960938 31.804688 C 26.765625 31.804688 26.566406 31.808594 26.371094 31.808594 C 26.234375 31.808594 26.234375 31.808594 26.09375 31.8125 C 25.675781 31.808594 25.425781 31.789062 25.089844 31.535156 C 24.6875 30.996094 24.363281 30.421875 24.03125 29.835938 C 23.957031 29.707031 23.878906 29.582031 23.804688 29.449219 C 23.730469 29.324219 23.660156 29.199219 23.589844 29.070312 C 23.523438 28.957031 23.457031 28.847656 23.390625 28.730469 C 23.164062 28.15625 23.164062 27.703125 23.40625 27.132812 C 23.476562 27.011719 23.546875 26.894531 23.621094 26.769531 C 23.695312 26.640625 23.773438 26.511719 23.855469 26.375 C 23.9375 26.242188 24.015625 26.105469 24.101562 25.96875 C 24.183594 25.832031 24.261719 25.695312 24.34375 25.554688 C 25.234375 24.066406 25.234375 24.066406 26.320312 24.066406 Z M 25.296875 25.257812 C 25.195312 25.460938 25.09375 25.667969 25 25.875 C 24.894531 26.042969 24.785156 26.210938 24.675781 26.378906 C 24.578125 26.535156 24.480469 26.695312 24.382812 26.851562 C 24.332031 26.929688 24.28125 27.011719 24.226562 27.09375 C 23.949219 27.511719 23.949219 27.511719 23.90625 27.992188 C 24.007812 28.269531 24.128906 28.511719 24.273438 28.769531 C 24.328125 28.867188 24.378906 28.960938 24.4375 29.0625 C 24.496094 29.164062 24.550781 29.265625 24.609375 29.367188 C 24.664062 29.464844 24.71875 29.566406 24.78125 29.671875 C 24.933594 29.949219 25.089844 30.222656 25.25 30.5 C 25.328125 30.667969 25.328125 30.667969 25.40625 30.835938 C 25.605469 31.15625 25.605469 31.15625 25.984375 31.238281 C 26.464844 31.285156 26.941406 31.324219 27.421875 31.335938 C 27.507812 31.339844 27.59375 31.339844 27.679688 31.34375 C 28.417969 31.355469 29.105469 31.335938 29.707031 30.863281 C 30.394531 30.027344 31.03125 28.847656 31.125 27.75 C 30.996094 27.40625 30.996094 27.40625 30.785156 27.0625 C 30.675781 26.875 30.675781 26.875 30.5625 26.679688 C 30.488281 26.546875 30.40625 26.417969 30.328125 26.28125 C 30.25 26.148438 30.175781 26.015625 30.09375 25.878906 C 29.78125 25.28125 29.78125 25.28125 29.375 24.75 C 28.871094 24.703125 28.363281 24.6875 27.859375 24.679688 C 27.6875 24.675781 27.519531 24.667969 27.347656 24.65625 C 26.160156 24.5625 26.160156 24.5625 25.296875 25.257812 Z M 25.296875 25.257812 "/>
<path style=" stroke:none;fill-rule:nonzero;fill:rgb(2.745098%,3.529412%,4.313726%);fill-opacity:1;" d="M 18.789062 12.316406 C 19.644531 13 20.214844 13.949219 20.5 15 C 20.632812 16.316406 20.5 17.320312 19.875 18.5 C 19.667969 18.457031 19.460938 18.417969 19.25 18.375 C 19.417969 17.875 19.582031 17.375 19.75 16.875 C 19.851562 15.691406 19.800781 14.761719 19.125 13.75 C 19.050781 13.632812 18.976562 13.515625 18.898438 13.398438 C 18.078125 12.578125 17.121094 12.214844 15.96875 12.195312 C 15.078125 12.207031 14.484375 12.382812 13.75 12.875 C 13.617188 12.960938 13.480469 13.042969 13.34375 13.132812 C 12.679688 13.742188 12.304688 14.589844 12.1875 15.472656 C 12.152344 16.664062 12.367188 17.539062 13.015625 18.53125 C 14.050781 19.523438 15 19.773438 16.394531 19.761719 C 16.9375 19.75 17.460938 19.699219 18 19.625 C 18 19.789062 18 19.953125 18 20.125 C 16.96875 20.640625 15.75 20.667969 14.632812 20.417969 C 13.179688 19.890625 12.347656 18.886719 11.640625 17.5625 C 11.261719 16.394531 11.324219 15.027344 11.867188 13.929688 C 12.476562 12.859375 13.328125 12.046875 14.5 11.625 C 16.023438 11.242188 17.480469 11.445312 18.789062 12.316406 Z M 18.789062 12.316406 "/>
<path style=" stroke:none;fill-rule:nonzero;fill:rgb(1.176471%,0.784314%,0%);fill-opacity:1;" d="M 5.902344 24.480469 C 6.125 24.625 6.125 24.625 6.25 25 C 6.167969 25.082031 6.085938 25.164062 6 25.25 C 5.636719 25.210938 5.316406 25.105469 4.96875 24.992188 C 3.976562 24.742188 3.304688 24.824219 2.402344 25.324219 C 1.707031 25.765625 1.242188 26.339844 1 27.125 C 0.871094 28.089844 0.976562 28.921875 1.5 29.75 C 2.042969 30.390625 2.714844 30.941406 3.570312 31.035156 C 4.632812 31.070312 5.410156 30.875 6.230469 30.179688 C 6.847656 29.527344 7.140625 28.738281 7.15625 27.84375 C 7.136719 27.390625 7.136719 27.390625 7.046875 27.015625 C 7.023438 26.882812 7.023438 26.882812 7 26.75 C 7.082031 26.667969 7.164062 26.585938 7.25 26.5 C 7.515625 26.546875 7.515625 26.546875 7.75 26.625 C 8.050781 27.640625 7.980469 28.757812 7.539062 29.714844 C 6.949219 30.730469 6.140625 31.429688 5 31.75 C 3.667969 31.898438 2.621094 31.792969 1.5 31 C 0.746094 30.359375 0.226562 29.359375 0.125 28.375 C 0.0429688 27.316406 0.34375 26.332031 1 25.5 C 2.324219 24.035156 4.085938 23.707031 5.902344 24.480469 Z M 5.902344 24.480469 "/>
<path style=" stroke:none;fill-rule:nonzero;fill:rgb(89.019608%,89.019608%,89.019608%);fill-opacity:1;" d="M 27.75 10.125 C 27.914062 10.167969 28.078125 10.207031 28.25 10.25 C 28.292969 11.074219 28.332031 11.898438 28.375 12.75 C 28.457031 12.792969 28.539062 12.832031 28.625 12.875 C 28.625 13.082031 28.625 13.289062 28.625 13.5 C 28.75 13.542969 28.871094 13.582031 29 13.625 C 28.90625 14.105469 28.726562 14.648438 28.375 15 C 28.363281 15.324219 28.359375 15.644531 28.363281 15.96875 C 28.363281 16.113281 28.363281 16.113281 28.363281 16.261719 C 28.363281 16.574219 28.363281 16.886719 28.367188 17.195312 C 28.367188 17.40625 28.367188 17.617188 28.367188 17.828125 C 28.371094 18.34375 28.371094 18.859375 28.375 19.375 C 28.789062 19.417969 29.199219 19.457031 29.625 19.5 C 29.433594 20.074219 29.125 20.503906 28.757812 20.976562 C 28.703125 21.050781 28.648438 21.125 28.589844 21.203125 C 28.445312 21.390625 28.285156 21.574219 28.125 21.75 C 28 21.75 27.878906 21.75 27.75 21.75 C 27.519531 21.472656 27.3125 21.203125 27.109375 20.90625 C 27.023438 20.789062 27.023438 20.789062 26.9375 20.667969 C 26.648438 20.257812 26.5 20 26.375 19.5 C 26.789062 19.5 27.199219 19.5 27.625 19.5 C 27.625 19.386719 27.625 19.269531 27.625 19.148438 C 27.621094 18.0625 27.621094 16.976562 27.617188 15.890625 C 27.617188 15.328125 27.617188 14.769531 27.613281 14.210938 C 27.613281 13.671875 27.613281 13.132812 27.613281 12.59375 C 27.613281 12.390625 27.613281 12.183594 27.609375 11.976562 C 27.609375 11.6875 27.609375 11.402344 27.609375 11.113281 C 27.609375 10.949219 27.609375 10.785156 27.609375 10.617188 C 27.625 10.25 27.625 10.25 27.75 10.125 Z M 27.75 10.125 "/>
<path style=" stroke:none;fill-rule:nonzero;fill:rgb(89.803922%,89.803922%,89.803922%);fill-opacity:1;" d="M 19.5 2.375 C 20.007812 2.628906 20.445312 2.917969 20.90625 3.242188 C 21.027344 3.324219 21.027344 3.324219 21.152344 3.410156 C 21.359375 3.554688 21.554688 3.714844 21.75 3.875 C 21.75 4.25 21.75 4.25 21.570312 4.429688 C 21.488281 4.492188 21.40625 4.550781 21.320312 4.613281 C 21.234375 4.679688 21.140625 4.746094 21.050781 4.816406 C 20.957031 4.886719 20.863281 4.953125 20.765625 5.023438 C 20.671875 5.09375 20.578125 5.164062 20.484375 5.234375 C 19.785156 5.75 19.785156 5.75 19.5 5.75 C 19.457031 5.335938 19.417969 4.925781 19.375 4.5 C 16.363281 4.457031 13.351562 4.417969 10.25 4.375 C 10.207031 4.210938 10.167969 4.046875 10.125 3.875 C 10.363281 3.636719 10.785156 3.730469 11.101562 3.722656 C 11.234375 3.722656 11.234375 3.722656 11.371094 3.71875 C 11.667969 3.714844 11.960938 3.714844 12.257812 3.710938 C 12.460938 3.707031 12.667969 3.703125 12.871094 3.703125 C 13.410156 3.695312 13.949219 3.691406 14.488281 3.683594 C 15.039062 3.675781 15.585938 3.671875 16.136719 3.664062 C 17.214844 3.648438 18.296875 3.636719 19.375 3.625 C 19.417969 3.210938 19.457031 2.800781 19.5 2.375 Z M 19.5 2.375 "/>
<path style=" stroke:none;fill-rule:nonzero;fill:rgb(89.803922%,89.803922%,89.803922%);fill-opacity:1;" d="M 12.25 26.25 C 12.332031 26.25 12.414062 26.25 12.5 26.25 C 12.542969 26.664062 12.582031 27.074219 12.625 27.5 C 15.636719 27.542969 18.648438 27.582031 21.75 27.625 C 21.8125 27.871094 21.8125 27.871094 21.875 28.125 C 21.636719 28.363281 21.214844 28.269531 20.898438 28.277344 C 20.765625 28.277344 20.765625 28.277344 20.628906 28.28125 C 20.332031 28.285156 20.039062 28.285156 19.742188 28.289062 C 19.539062 28.292969 19.332031 28.296875 19.128906 28.296875 C 18.589844 28.304688 18.050781 28.308594 17.511719 28.316406 C 16.960938 28.324219 16.414062 28.328125 15.863281 28.335938 C 14.785156 28.351562 13.703125 28.363281 12.625 28.375 C 12.582031 28.789062 12.542969 29.199219 12.5 29.625 C 11.992188 29.371094 11.554688 29.082031 11.09375 28.757812 C 11.011719 28.703125 10.929688 28.648438 10.847656 28.589844 C 10.640625 28.445312 10.445312 28.285156 10.25 28.125 C 10.25 28 10.25 27.878906 10.25 27.75 C 10.421875 27.582031 10.421875 27.582031 10.65625 27.417969 C 10.738281 27.355469 10.824219 27.296875 10.910156 27.234375 C 11 27.171875 11.089844 27.109375 11.179688 27.046875 C 11.355469 26.921875 11.527344 26.796875 11.703125 26.675781 C 11.78125 26.621094 11.859375 26.566406 11.9375 26.511719 C 12.121094 26.386719 12.121094 26.386719 12.25 26.25 Z M 12.25 26.25 "/>
<path style=" stroke:none;fill-rule:nonzero;fill:rgb(89.411765%,89.411765%,89.411765%);fill-opacity:1;" d="M 4 10.125 C 4.640625 10.703125 5.167969 11.390625 5.625 12.125 C 5.625 12.25 5.625 12.371094 5.625 12.5 C 5.210938 12.5 4.800781 12.5 4.375 12.5 C 4.375 15.550781 4.375 18.605469 4.375 21.75 C 4.128906 21.8125 4.128906 21.8125 3.875 21.875 C 3.636719 21.636719 3.730469 21.214844 3.722656 20.898438 C 3.722656 20.808594 3.722656 20.71875 3.71875 20.628906 C 3.714844 20.332031 3.714844 20.039062 3.710938 19.742188 C 3.707031 19.539062 3.703125 19.332031 3.703125 19.128906 C 3.695312 18.589844 3.691406 18.050781 3.683594 17.511719 C 3.675781 16.960938 3.671875 16.414062 3.664062 15.863281 C 3.648438 14.785156 3.636719 13.703125 3.625 12.625 C 3.210938 12.582031 2.800781 12.542969 2.375 12.5 C 2.566406 11.921875 2.882812 11.503906 3.257812 11.03125 C 3.316406 10.957031 3.371094 10.882812 3.433594 10.808594 C 3.847656 10.277344 3.847656 10.277344 4 10.125 Z M 4 10.125 "/>
<path style=" stroke:none;fill-rule:nonzero;fill:rgb(3.921569%,5.882353%,5.098039%);fill-opacity:1;" d="M 17.75 14.375 C 18.046875 14.5 18.046875 14.5 18.25 14.75 C 18.34375 15.261719 18.375 15.554688 18.09375 15.996094 C 17.863281 16.261719 17.625 16.507812 17.375 16.75 C 17.277344 16.851562 17.183594 16.953125 17.082031 17.054688 C 16.183594 17.984375 16.183594 17.984375 15.75 18.125 C 14.925781 18.101562 14.546875 17.660156 14.003906 17.089844 C 13.757812 16.761719 13.660156 16.605469 13.640625 16.203125 C 13.75 15.75 13.75 15.75 13.945312 15.429688 C 14.382812 15.171875 14.640625 15.253906 15.125 15.375 C 15.292969 15.453125 15.460938 15.539062 15.625 15.625 C 15.742188 15.503906 15.742188 15.503906 15.863281 15.382812 C 15.964844 15.28125 16.066406 15.175781 16.171875 15.070312 C 16.273438 14.96875 16.375 14.863281 16.480469 14.757812 C 16.902344 14.355469 17.167969 14.328125 17.75 14.375 Z M 17.75 14.375 "/>
<path style=" stroke:none;fill-rule:nonzero;fill:rgb(65.882355%,65.882355%,65.882355%);fill-opacity:1;" d="M 17.855469 12.464844 C 18.457031 12.820312 19.007812 13.273438 19.375 13.875 C 19.375 13.957031 19.375 14.039062 19.375 14.125 C 19.035156 13.980469 18.828125 13.832031 18.554688 13.578125 C 17.6875 12.847656 16.617188 12.664062 15.507812 12.699219 C 14.320312 12.851562 13.386719 13.617188 12.5 14.375 C 12.859375 13.269531 13.632812 12.765625 14.625 12.25 C 15.632812 11.914062 16.898438 12.015625 17.855469 12.464844 Z M 17.855469 12.464844 "/>
<path style=" stroke:none;fill-rule:nonzero;fill:rgb(96.862745%,88.627452%,65.098041%);fill-opacity:1;" d="M 2.65625 26.03125 C 2.730469 26.0625 2.800781 26.09375 2.875 26.125 C 2.820312 26.496094 2.722656 26.664062 2.492188 26.96875 C 2.203125 27.453125 2.144531 27.828125 2.25 28.375 C 2.363281 28.644531 2.492188 28.890625 2.640625 29.140625 C 2.75 29.375 2.75 29.375 2.75 29.875 C 2.46875 29.867188 2.46875 29.867188 2.125 29.75 C 1.53125 28.992188 1.417969 28.1875 1.5 27.25 C 1.695312 26.730469 2.007812 25.957031 2.65625 26.03125 Z M 2.65625 26.03125 "/>
<path style=" stroke:none;fill-rule:nonzero;fill:rgb(6.666667%,70.588237%,40.392157%);fill-opacity:1;" d="M 17.625 15 C 17.597656 15.707031 17.128906 16.078125 16.65625 16.546875 C 16.578125 16.628906 16.5 16.710938 16.421875 16.796875 C 15.84375 17.371094 15.84375 17.371094 15.40625 17.386719 C 14.964844 17.171875 14.648438 16.90625 14.375 16.5 C 14.390625 16.140625 14.390625 16.140625 14.5 15.875 C 14.808594 16.019531 15.007812 16.132812 15.25 16.375 C 15.695312 16.363281 15.859375 16.265625 16.191406 15.964844 C 16.296875 15.851562 16.398438 15.734375 16.507812 15.617188 C 17.070312 15 17.070312 15 17.625 15 Z M 17.625 15 "/>
<path style=" stroke:none;fill-rule:nonzero;fill:rgb(99.607843%,76.47059%,72.549021%);fill-opacity:1;" d="M 26.125 25.375 C 26.25 25.417969 26.371094 25.457031 26.5 25.5 C 26.421875 26.265625 26.089844 26.753906 25.675781 27.386719 C 25.476562 27.800781 25.484375 27.945312 25.625 28.375 C 25.667969 28.582031 25.707031 28.792969 25.75 29 C 25.585938 29.042969 25.421875 29.082031 25.25 29.125 C 25.140625 28.972656 25.035156 28.820312 24.929688 28.664062 C 24.871094 28.578125 24.8125 28.492188 24.75 28.40625 C 24.582031 28.03125 24.617188 27.890625 24.75 27.5 C 24.917969 27.167969 25.109375 26.855469 25.304688 26.539062 C 25.355469 26.453125 25.40625 26.371094 25.457031 26.28125 C 25.660156 25.953125 25.847656 25.652344 26.125 25.375 Z M 26.125 25.375 "/>
<path style=" stroke:none;fill-rule:nonzero;fill:rgb(96.862745%,88.627452%,64.313728%);fill-opacity:1;" d="M 25.5 1.5 C 25.746094 1.5625 25.746094 1.5625 26 1.625 C 26 2.699219 26 3.769531 26 4.875 C 25.835938 4.917969 25.671875 4.957031 25.5 5 C 25.277344 4.777344 25.359375 4.457031 25.359375 4.15625 C 25.359375 4.011719 25.359375 3.863281 25.359375 3.714844 C 25.359375 3.5625 25.359375 3.40625 25.359375 3.25 C 25.359375 3.097656 25.359375 2.945312 25.359375 2.785156 C 25.359375 2.640625 25.359375 2.492188 25.359375 2.34375 C 25.359375 2.207031 25.359375 2.074219 25.359375 1.933594 C 25.375 1.625 25.375 1.625 25.5 1.5 Z M 25.5 1.5 "/>
<path style=" stroke:none;fill-rule:nonzero;fill:rgb(99.607843%,76.862746%,73.333335%);fill-opacity:1;" d="M 4.125 2.25 C 4.332031 2.292969 4.539062 2.332031 4.75 2.375 C 4.5625 3.054688 4.238281 3.585938 3.859375 4.171875 C 3.800781 4.265625 3.742188 4.355469 3.683594 4.453125 C 3.539062 4.675781 3.394531 4.898438 3.25 5.125 C 3.085938 5.082031 2.921875 5.042969 2.75 5 C 2.8125 4.335938 3.167969 3.832031 3.507812 3.273438 C 3.566406 3.175781 3.625 3.078125 3.6875 2.976562 C 3.832031 2.734375 3.980469 2.492188 4.125 2.25 Z M 4.125 2.25 "/>
<path style=" stroke:none;fill-rule:nonzero;fill:rgb(96.862745%,88.235295%,63.921571%);fill-opacity:1;" d="M 3.882812 29.867188 C 4.0625 29.871094 4.0625 29.871094 4.25 29.875 C 4.320312 30.117188 4.320312 30.117188 4.375 30.375 C 4.25 30.5 4.25 30.5 3.867188 30.507812 C 3.746094 30.503906 3.625 30.503906 3.5 30.5 C 3.429688 30.257812 3.429688 30.257812 3.375 30 C 3.5 29.875 3.5 29.875 3.882812 29.867188 Z M 3.882812 29.867188 "/>
<path style=" stroke:none;fill-rule:nonzero;fill:rgb(96.862745%,87.843138%,62.352943%);fill-opacity:1;" d="M 25.5 5.625 C 25.757812 5.679688 25.757812 5.679688 26 5.75 C 26 5.996094 26 6.246094 26 6.5 C 25.757812 6.570312 25.757812 6.570312 25.5 6.625 C 25.375 6.5 25.375 6.5 25.359375 6.125 C 25.375 5.75 25.375 5.75 25.5 5.625 Z M 25.5 5.625 "/>
<path style=" stroke:none;fill-rule:nonzero;fill:rgb(99.607843%,76.47059%,72.941178%);fill-opacity:1;" d="M 2.25 5.625 C 2.515625 5.671875 2.515625 5.671875 2.75 5.75 C 2.707031 5.957031 2.667969 6.164062 2.625 6.375 C 2.417969 6.417969 2.210938 6.457031 2 6.5 C 1.984375 6.203125 1.984375 6.203125 2 5.875 C 2.082031 5.792969 2.164062 5.710938 2.25 5.625 Z M 2.25 5.625 "/>
<path style=" stroke:none;fill-rule:nonzero;fill:rgb(99.607843%,76.862746%,72.941178%);fill-opacity:1;" d="M 25.75 29.625 C 26.058594 29.6875 26.058594 29.6875 26.375 29.75 C 26.417969 29.957031 26.457031 30.164062 26.5 30.375 C 26.335938 30.417969 26.171875 30.457031 26 30.5 C 25.75 30.125 25.75 30.125 25.75 29.625 Z M 25.75 29.625 "/>
<path style=" stroke:none;fill-rule:nonzero;fill:rgb(5.882353%,5.098039%,0.392157%);fill-opacity:1;" d="M 6.5 25.375 C 6.808594 25.4375 6.808594 25.4375 7.125 25.5 C 7.125 25.664062 7.125 25.828125 7.125 26 C 6.882812 26.070312 6.882812 26.070312 6.625 26.125 C 6.5 26 6.5 26 6.492188 25.679688 C 6.496094 25.578125 6.496094 25.480469 6.5 25.375 Z M 6.5 25.375 "/>
<path style=" stroke:none;fill-rule:nonzero;fill:rgb(3.921569%,3.921569%,3.921569%);fill-opacity:1;" d="M 28.5 13.5 C 28.664062 13.542969 28.828125 13.582031 29 13.625 C 28.953125 13.867188 28.953125 13.867188 28.875 14.125 C 28.75 14.1875 28.75 14.1875 28.625 14.25 C 28.5 14.167969 28.378906 14.085938 28.25 14 C 28.332031 13.835938 28.414062 13.671875 28.5 13.5 Z M 28.5 13.5 "/>
<path style=" stroke:none;fill-rule:nonzero;fill:rgb(3.529412%,4.313726%,5.098039%);fill-opacity:1;" d="M 18.625 18.875 C 18.75 18.917969 18.871094 18.957031 19 19 C 19 19.164062 19 19.328125 19 19.5 C 18.835938 19.457031 18.671875 19.417969 18.5 19.375 C 18.542969 19.210938 18.582031 19.046875 18.625 18.875 Z M 18.625 18.875 "/>
</g>
</svg>
