<?xml version="1.0" encoding="UTF-8"?>
<svg xmlns="http://www.w3.org/2000/svg" xmlns:xlink="http://www.w3.org/1999/xlink" width="32" height="32" viewBox="0 0 32 32" version="1.1">
<g id="surface1">
<path style=" stroke:none;fill-rule:nonzero;fill:rgb(0%,80.784315%,80.392158%);fill-opacity:1;" d="M 3.738281 4.933594 C 3.847656 4.933594 3.957031 4.933594 4.070312 4.933594 C 4.433594 4.929688 4.796875 4.929688 5.160156 4.929688 C 5.425781 4.929688 5.6875 4.929688 5.949219 4.925781 C 6.65625 4.921875 7.367188 4.921875 8.078125 4.925781 C 8.671875 4.925781 9.265625 4.921875 9.859375 4.921875 C 11.257812 4.917969 12.65625 4.917969 14.058594 4.921875 C 15.5 4.921875 16.945312 4.917969 18.386719 4.914062 C 19.628906 4.910156 20.867188 4.910156 22.109375 4.910156 C 22.847656 4.910156 23.589844 4.910156 24.328125 4.90625 C 25.027344 4.902344 25.71875 4.902344 26.417969 4.90625 C 26.671875 4.90625 26.929688 4.90625 27.183594 4.902344 C 29.5625 4.886719 29.5625 4.886719 30.308594 5.535156 C 31.117188 6.4375 31.074219 7.25 31.066406 8.425781 C 31.070312 8.609375 31.070312 8.792969 31.070312 8.976562 C 31.074219 9.472656 31.074219 9.96875 31.074219 10.460938 C 31.074219 10.878906 31.078125 11.292969 31.078125 11.707031 C 31.082031 12.683594 31.082031 13.664062 31.078125 14.640625 C 31.078125 15.648438 31.082031 16.652344 31.085938 17.660156 C 31.089844 18.527344 31.09375 19.394531 31.089844 20.261719 C 31.089844 20.777344 31.089844 21.292969 31.09375 21.808594 C 31.097656 22.296875 31.097656 22.78125 31.09375 23.269531 C 31.09375 23.445312 31.09375 23.625 31.09375 23.800781 C 31.105469 24.757812 31.0625 25.476562 30.496094 26.269531 C 29.789062 26.933594 29.199219 27.074219 28.261719 27.066406 C 28.097656 27.066406 28.097656 27.066406 27.929688 27.070312 C 27.566406 27.070312 27.203125 27.070312 26.839844 27.070312 C 26.574219 27.070312 26.3125 27.070312 26.050781 27.074219 C 25.34375 27.074219 24.632812 27.074219 23.921875 27.074219 C 23.328125 27.074219 22.734375 27.074219 22.140625 27.078125 C 20.742188 27.078125 19.34375 27.078125 17.941406 27.078125 C 16.5 27.078125 15.054688 27.082031 13.613281 27.085938 C 12.371094 27.089844 11.132812 27.09375 9.890625 27.089844 C 9.152344 27.089844 8.410156 27.089844 7.671875 27.09375 C 6.972656 27.097656 6.277344 27.097656 5.582031 27.09375 C 5.328125 27.09375 5.070312 27.09375 4.816406 27.097656 C 2.4375 27.113281 2.4375 27.113281 1.691406 26.464844 C 0.882812 25.5625 0.925781 24.753906 0.933594 23.574219 C 0.929688 23.390625 0.929688 23.207031 0.925781 23.023438 C 0.925781 22.527344 0.925781 22.03125 0.925781 21.539062 C 0.925781 21.121094 0.921875 20.707031 0.921875 20.292969 C 0.917969 19.316406 0.917969 18.339844 0.921875 17.359375 C 0.921875 16.351562 0.917969 15.347656 0.914062 14.339844 C 0.910156 13.472656 0.90625 12.605469 0.910156 11.738281 C 0.910156 11.222656 0.910156 10.707031 0.90625 10.191406 C 0.902344 9.703125 0.902344 9.21875 0.90625 8.730469 C 0.90625 8.554688 0.90625 8.375 0.90625 8.199219 C 0.894531 7.242188 0.9375 6.523438 1.503906 5.730469 C 2.210938 5.070312 2.800781 4.925781 3.738281 4.933594 Z M 3.738281 4.933594 "/>
<path style=" stroke:none;fill-rule:nonzero;fill:rgb(0%,2.745098%,30.588236%);fill-opacity:1;" d="M 3.738281 4.933594 C 3.847656 4.933594 3.957031 4.933594 4.070312 4.933594 C 4.433594 4.929688 4.796875 4.929688 5.160156 4.929688 C 5.425781 4.929688 5.6875 4.929688 5.949219 4.925781 C 6.65625 4.921875 7.367188 4.921875 8.078125 4.925781 C 8.671875 4.925781 9.265625 4.921875 9.859375 4.921875 C 11.257812 4.917969 12.65625 4.917969 14.058594 4.921875 C 15.5 4.921875 16.945312 4.917969 18.386719 4.914062 C 19.628906 4.910156 20.867188 4.910156 22.109375 4.910156 C 22.847656 4.910156 23.589844 4.910156 24.328125 4.90625 C 25.027344 4.902344 25.71875 4.902344 26.417969 4.90625 C 26.671875 4.90625 26.929688 4.90625 27.183594 4.902344 C 29.5625 4.886719 29.5625 4.886719 30.308594 5.535156 C 31.117188 6.4375 31.074219 7.25 31.066406 8.425781 C 31.070312 8.609375 31.070312 8.792969 31.070312 8.976562 C 31.074219 9.472656 31.074219 9.96875 31.074219 10.460938 C 31.074219 10.878906 31.078125 11.292969 31.078125 11.707031 C 31.082031 12.683594 31.082031 13.664062 31.078125 14.640625 C 31.078125 15.648438 31.082031 16.652344 31.085938 17.660156 C 31.089844 18.527344 31.09375 19.394531 31.089844 20.261719 C 31.089844 20.777344 31.089844 21.292969 31.09375 21.808594 C 31.097656 22.296875 31.097656 22.78125 31.09375 23.269531 C 31.09375 23.445312 31.09375 23.625 31.09375 23.800781 C 31.105469 24.757812 31.0625 25.476562 30.496094 26.269531 C 29.789062 26.933594 29.199219 27.074219 28.261719 27.066406 C 28.097656 27.066406 28.097656 27.066406 27.929688 27.070312 C 27.566406 27.070312 27.203125 27.070312 26.839844 27.070312 C 26.574219 27.070312 26.3125 27.070312 26.050781 27.074219 C 25.34375 27.074219 24.632812 27.074219 23.921875 27.074219 C 23.328125 27.074219 22.734375 27.074219 22.140625 27.078125 C 20.742188 27.078125 19.34375 27.078125 17.941406 27.078125 C 16.5 27.078125 15.054688 27.082031 13.613281 27.085938 C 12.371094 27.089844 11.132812 27.09375 9.890625 27.089844 C 9.152344 27.089844 8.410156 27.089844 7.671875 27.09375 C 6.972656 27.097656 6.277344 27.097656 5.582031 27.09375 C 5.328125 27.09375 5.070312 27.09375 4.816406 27.097656 C 2.4375 27.113281 2.4375 27.113281 1.691406 26.464844 C 0.882812 25.5625 0.925781 24.753906 0.933594 23.574219 C 0.929688 23.390625 0.929688 23.207031 0.925781 23.023438 C 0.925781 22.527344 0.925781 22.03125 0.925781 21.539062 C 0.925781 21.121094 0.921875 20.707031 0.921875 20.292969 C 0.917969 19.316406 0.917969 18.339844 0.921875 17.359375 C 0.921875 16.351562 0.917969 15.347656 0.914062 14.339844 C 0.910156 13.472656 0.90625 12.605469 0.910156 11.738281 C 0.910156 11.222656 0.910156 10.707031 0.90625 10.191406 C 0.902344 9.703125 0.902344 9.21875 0.90625 8.730469 C 0.90625 8.554688 0.90625 8.375 0.90625 8.199219 C 0.894531 7.242188 0.9375 6.523438 1.503906 5.730469 C 2.210938 5.070312 2.800781 4.925781 3.738281 4.933594 Z M 2 10 C 1.992188 12.441406 1.984375 14.882812 1.976562 17.398438 C 1.972656 18.167969 1.96875 18.941406 1.964844 19.734375 C 1.964844 20.425781 1.964844 20.425781 1.964844 21.117188 C 1.964844 21.425781 1.960938 21.730469 1.960938 22.039062 C 1.957031 22.507812 1.957031 22.972656 1.957031 23.4375 C 1.957031 23.574219 1.953125 23.710938 1.953125 23.855469 C 1.957031 24.699219 2.027344 25.148438 2.636719 25.761719 C 3.109375 26.070312 3.507812 26.070312 4.054688 26.0625 C 4.210938 26.0625 4.210938 26.0625 4.375 26.066406 C 4.726562 26.066406 5.082031 26.066406 5.4375 26.0625 C 5.691406 26.0625 5.945312 26.0625 6.199219 26.066406 C 6.886719 26.066406 7.578125 26.066406 8.269531 26.0625 C 8.988281 26.0625 9.710938 26.0625 10.433594 26.0625 C 11.644531 26.0625 12.855469 26.0625 14.066406 26.058594 C 15.46875 26.054688 16.871094 26.054688 18.273438 26.054688 C 19.621094 26.058594 20.96875 26.058594 22.3125 26.054688 C 22.886719 26.054688 23.460938 26.054688 24.035156 26.054688 C 24.710938 26.054688 25.386719 26.054688 26.0625 26.050781 C 26.3125 26.050781 26.558594 26.050781 26.808594 26.050781 C 27.144531 26.050781 27.484375 26.050781 27.820312 26.046875 C 27.96875 26.050781 27.96875 26.050781 28.121094 26.050781 C 28.8125 26.042969 29.199219 25.882812 29.71875 25.4375 C 30.019531 25.074219 30.015625 24.714844 30.015625 24.265625 C 30.015625 24.140625 30.015625 24.015625 30.015625 23.886719 C 30.015625 23.746094 30.015625 23.609375 30.015625 23.46875 C 30.015625 23.320312 30.015625 23.171875 30.015625 23.019531 C 30.015625 22.542969 30.011719 22.0625 30.011719 21.585938 C 30.011719 21.289062 30.011719 20.996094 30.011719 20.699219 C 30.011719 19.605469 30.007812 18.511719 30.007812 17.414062 C 30.003906 14.96875 30.003906 12.519531 30 10 C 20.757812 10 11.519531 10 2 10 Z M 2 10 "/>
<path style=" stroke:none;fill-rule:nonzero;fill:rgb(98.823529%,82.745099%,27.843139%);fill-opacity:1;" d="M 9.375 12.25 C 9.75 12.679688 9.75 12.679688 9.75 13 C 10.574219 13 11.398438 13 12.25 13 C 12.332031 12.835938 12.414062 12.671875 12.5 12.5 C 12.582031 12.375 12.664062 12.253906 12.75 12.125 C 13.121094 12.25 13.492188 12.371094 13.875 12.5 C 13.839844 12.777344 13.839844 12.777344 13.804688 13.0625 C 13.800781 13.511719 13.828125 13.691406 14.117188 14.042969 C 14.316406 14.214844 14.519531 14.378906 14.730469 14.539062 C 15 14.75 15 14.75 15.25 15.125 C 15.554688 15.171875 15.554688 15.171875 15.890625 15.148438 C 16.003906 15.144531 16.117188 15.140625 16.234375 15.140625 C 16.324219 15.132812 16.410156 15.128906 16.5 15.125 C 16.625 15.496094 16.746094 15.867188 16.875 16.25 C 16.28125 16.75 16.28125 16.75 16 16.75 C 16 17.132812 16.007812 17.515625 16.015625 17.898438 C 16.015625 18.007812 16.015625 18.113281 16.015625 18.226562 C 16.023438 18.828125 16.023438 18.828125 16.296875 19.339844 C 16.523438 19.535156 16.523438 19.535156 16.875 19.75 C 16.75 20.121094 16.628906 20.492188 16.5 20.875 C 16.3125 20.855469 16.125 20.832031 15.929688 20.8125 C 15.511719 20.808594 15.320312 20.820312 14.988281 21.085938 C 14.84375 21.257812 14.703125 21.4375 14.570312 21.621094 C 14.375 21.875 14.375 21.875 14.101562 22.054688 C 13.84375 22.234375 13.84375 22.234375 13.828125 22.558594 C 13.832031 22.671875 13.835938 22.785156 13.84375 22.898438 C 13.847656 23.011719 13.851562 23.125 13.859375 23.238281 C 13.863281 23.328125 13.867188 23.410156 13.875 23.5 C 13.503906 23.625 13.132812 23.746094 12.75 23.875 C 12.25 23.28125 12.25 23.28125 12.25 23 C 11.425781 23 10.601562 23 9.75 23 C 9.667969 23.164062 9.585938 23.328125 9.5 23.5 C 9.417969 23.625 9.335938 23.746094 9.25 23.875 C 8.878906 23.75 8.507812 23.628906 8.125 23.5 C 8.15625 23.21875 8.15625 23.21875 8.1875 22.929688 C 8.191406 22.511719 8.179688 22.320312 7.914062 21.988281 C 7.742188 21.84375 7.5625 21.703125 7.378906 21.570312 C 7.125 21.375 7.125 21.375 6.945312 21.101562 C 6.765625 20.84375 6.765625 20.84375 6.441406 20.828125 C 6.328125 20.832031 6.214844 20.835938 6.101562 20.84375 C 5.988281 20.847656 5.875 20.851562 5.761719 20.859375 C 5.671875 20.863281 5.589844 20.867188 5.5 20.875 C 5.375 20.503906 5.253906 20.132812 5.125 19.75 C 5.71875 19.25 5.71875 19.25 6 19.25 C 6 18.425781 6 17.601562 6 16.75 C 5.835938 16.667969 5.671875 16.585938 5.5 16.5 C 5.375 16.417969 5.253906 16.335938 5.125 16.25 C 5.25 15.878906 5.371094 15.507812 5.5 15.125 C 5.683594 15.148438 5.871094 15.171875 6.0625 15.195312 C 6.511719 15.199219 6.691406 15.171875 7.042969 14.882812 C 7.214844 14.683594 7.378906 14.480469 7.539062 14.269531 C 7.75 14 7.75 14 8.125 13.75 C 8.171875 13.445312 8.171875 13.445312 8.148438 13.109375 C 8.144531 12.996094 8.140625 12.882812 8.140625 12.765625 C 8.132812 12.675781 8.128906 12.589844 8.125 12.5 C 8.953125 12.109375 8.953125 12.109375 9.375 12.25 Z M 9.375 12.25 "/>
<path style=" stroke:none;fill-rule:nonzero;fill:rgb(0%,64.313728%,66.666669%);fill-opacity:1;" d="M 4.007812 5.984375 C 4.113281 5.984375 4.21875 5.980469 4.328125 5.980469 C 4.683594 5.980469 5.039062 5.980469 5.394531 5.980469 C 5.648438 5.980469 5.902344 5.980469 6.15625 5.976562 C 6.847656 5.976562 7.539062 5.976562 8.230469 5.976562 C 8.660156 5.976562 9.09375 5.972656 9.523438 5.972656 C 10.875 5.972656 12.222656 5.972656 13.574219 5.96875 C 15.132812 5.96875 16.691406 5.96875 18.25 5.964844 C 19.457031 5.960938 20.660156 5.960938 21.867188 5.960938 C 22.585938 5.960938 23.304688 5.957031 24.023438 5.957031 C 24.703125 5.953125 25.378906 5.953125 26.054688 5.953125 C 26.304688 5.953125 26.554688 5.953125 26.800781 5.953125 C 27.140625 5.953125 27.480469 5.953125 27.820312 5.953125 C 27.917969 5.953125 28.015625 5.953125 28.117188 5.953125 C 28.6875 5.957031 29.054688 6.015625 29.5 6.375 C 30 7 30 7 30 9 C 20.757812 9 11.519531 9 2 9 C 2 7 2 7 2.359375 6.445312 C 2.878906 5.964844 3.324219 5.980469 4.007812 5.984375 Z M 4.007812 5.984375 "/>
<path style=" stroke:none;fill-rule:nonzero;fill:rgb(1.568628%,4.705882%,30.980393%);fill-opacity:1;" d="M 9.375 10.875 C 9.765625 11.246094 10.007812 11.511719 10.25 12 C 10.746094 12 11.238281 12 11.75 12 C 11.832031 11.835938 11.914062 11.671875 12 11.5 C 12.203125 11.289062 12.410156 11.078125 12.625 10.875 C 12.976562 11.015625 13.328125 11.160156 13.679688 11.304688 C 13.828125 11.367188 13.828125 11.367188 13.984375 11.425781 C 14.078125 11.46875 14.175781 11.507812 14.273438 11.546875 C 14.359375 11.582031 14.449219 11.617188 14.542969 11.65625 C 14.75 11.75 14.75 11.75 14.875 11.875 C 14.863281 12.089844 14.851562 12.308594 14.835938 12.523438 C 14.835938 13.003906 14.839844 13.328125 15.15625 13.703125 C 15.546875 14.035156 15.886719 14.035156 16.390625 14.046875 C 17.070312 14.074219 17.070312 14.074219 17.316406 14.304688 C 17.453125 14.574219 17.539062 14.835938 17.625 15.125 C 17.71875 15.375 17.8125 15.625 17.90625 15.875 C 17.980469 16.082031 18.050781 16.292969 18.125 16.5 C 17.984375 16.625 17.84375 16.75 17.703125 16.875 C 17.625 16.945312 17.546875 17.015625 17.464844 17.085938 C 17.25 17.25 17.25 17.25 17 17.25 C 17 17.746094 17 18.238281 17 18.75 C 17.246094 18.875 17.246094 18.875 17.5 19 C 17.710938 19.203125 17.921875 19.410156 18.125 19.625 C 17.984375 19.976562 17.839844 20.328125 17.695312 20.679688 C 17.632812 20.828125 17.632812 20.828125 17.574219 20.984375 C 17.53125 21.078125 17.492188 21.175781 17.453125 21.273438 C 17.417969 21.359375 17.382812 21.449219 17.34375 21.542969 C 17.25 21.75 17.25 21.75 17.125 21.875 C 16.910156 21.859375 16.699219 21.84375 16.484375 21.828125 C 15.949219 21.828125 15.636719 21.871094 15.226562 22.226562 C 14.789062 22.734375 14.800781 23.207031 14.84375 23.855469 C 14.859375 23.988281 14.859375 23.988281 14.875 24.125 C 14.621094 24.246094 14.363281 24.363281 14.109375 24.484375 C 13.96875 24.550781 13.824219 24.617188 13.679688 24.6875 C 13.289062 24.859375 12.90625 25 12.5 25.125 C 12.375 24.984375 12.25 24.84375 12.125 24.703125 C 12.054688 24.625 11.984375 24.546875 11.914062 24.464844 C 11.75 24.25 11.75 24.25 11.75 24 C 11.253906 24 10.761719 24 10.25 24 C 10.167969 24.164062 10.085938 24.328125 10 24.5 C 9.796875 24.710938 9.589844 24.921875 9.375 25.125 C 9.023438 24.984375 8.671875 24.839844 8.320312 24.695312 C 8.21875 24.65625 8.121094 24.613281 8.015625 24.574219 C 7.921875 24.53125 7.824219 24.492188 7.726562 24.453125 C 7.640625 24.417969 7.550781 24.382812 7.457031 24.34375 C 7.25 24.25 7.25 24.25 7.125 24.125 C 7.113281 23.886719 7.109375 23.652344 7.101562 23.414062 C 7.046875 22.730469 7.046875 22.730469 6.703125 22.15625 C 6.238281 21.765625 5.730469 21.816406 5.148438 21.847656 C 5.015625 21.859375 5.015625 21.859375 4.875 21.875 C 4.753906 21.621094 4.636719 21.363281 4.515625 21.109375 C 4.449219 20.96875 4.382812 20.824219 4.3125 20.679688 C 4.140625 20.289062 4 19.90625 3.875 19.5 C 4.015625 19.375 4.15625 19.25 4.296875 19.125 C 4.375 19.054688 4.453125 18.984375 4.535156 18.914062 C 4.75 18.75 4.75 18.75 5 18.75 C 5 18.253906 5 17.761719 5 17.25 C 4.835938 17.167969 4.671875 17.085938 4.5 17 C 4.289062 16.796875 4.078125 16.589844 3.875 16.375 C 4.015625 16.023438 4.160156 15.671875 4.304688 15.320312 C 4.34375 15.21875 4.386719 15.121094 4.425781 15.015625 C 4.46875 14.921875 4.507812 14.824219 4.546875 14.726562 C 4.582031 14.640625 4.617188 14.550781 4.65625 14.457031 C 4.75 14.25 4.75 14.25 4.875 14.125 C 5.089844 14.140625 5.300781 14.15625 5.515625 14.171875 C 6.050781 14.171875 6.363281 14.128906 6.773438 13.773438 C 7.210938 13.265625 7.199219 12.792969 7.15625 12.144531 C 7.144531 12.054688 7.136719 11.964844 7.125 11.875 C 7.859375 11.492188 8.601562 11.171875 9.375 10.875 Z M 8.125 12.5 C 8.136719 12.578125 8.152344 12.65625 8.164062 12.738281 C 8.214844 13.277344 8.238281 13.613281 7.882812 14.042969 C 7.683594 14.214844 7.480469 14.378906 7.269531 14.539062 C 6.972656 14.75 6.972656 14.75 6.75 15.125 C 6.453125 15.160156 6.453125 15.160156 6.109375 15.148438 C 5.996094 15.144531 5.882812 15.140625 5.765625 15.140625 C 5.675781 15.132812 5.589844 15.128906 5.5 15.125 C 5.316406 15.679688 5.316406 15.679688 5.125 16.25 C 5.511719 16.621094 5.511719 16.621094 6 16.75 C 6 17.574219 6 18.398438 6 19.25 C 5.835938 19.332031 5.671875 19.414062 5.5 19.5 C 5.375 19.582031 5.253906 19.664062 5.125 19.75 C 5.25 20.121094 5.371094 20.492188 5.5 20.875 C 5.683594 20.851562 5.871094 20.828125 6.0625 20.804688 C 6.511719 20.800781 6.691406 20.828125 7.042969 21.117188 C 7.214844 21.316406 7.378906 21.519531 7.539062 21.730469 C 7.75 22.027344 7.75 22.027344 8.125 22.25 C 8.160156 22.546875 8.160156 22.546875 8.148438 22.890625 C 8.144531 23.003906 8.140625 23.117188 8.140625 23.234375 C 8.132812 23.324219 8.128906 23.410156 8.125 23.5 C 8.496094 23.625 8.867188 23.746094 9.25 23.875 C 9.621094 23.488281 9.621094 23.488281 9.75 23 C 10.574219 23 11.398438 23 12.25 23 C 12.332031 23.164062 12.414062 23.328125 12.5 23.5 C 12.625 23.6875 12.625 23.6875 12.75 23.875 C 13.121094 23.75 13.492188 23.628906 13.875 23.5 C 13.855469 23.3125 13.832031 23.125 13.8125 22.929688 C 13.808594 22.511719 13.820312 22.320312 14.085938 21.988281 C 14.257812 21.84375 14.4375 21.703125 14.621094 21.570312 C 14.890625 21.386719 14.890625 21.386719 15.054688 21.101562 C 15.25 20.875 15.25 20.875 15.558594 20.828125 C 15.671875 20.832031 15.785156 20.835938 15.898438 20.84375 C 16.011719 20.847656 16.125 20.851562 16.238281 20.859375 C 16.328125 20.863281 16.410156 20.867188 16.5 20.875 C 16.625 20.503906 16.746094 20.132812 16.875 19.75 C 16.753906 19.671875 16.632812 19.59375 16.507812 19.515625 C 16.25 19.300781 16.140625 19.175781 16.050781 18.851562 C 16.023438 18.53125 16.015625 18.21875 16.015625 17.898438 C 16.011719 17.789062 16.011719 17.675781 16.007812 17.5625 C 16.003906 17.292969 16 17.019531 16 16.75 C 16.074219 16.714844 16.148438 16.675781 16.226562 16.640625 C 16.523438 16.492188 16.523438 16.492188 16.875 16.25 C 16.75 15.878906 16.628906 15.507812 16.5 15.125 C 16.3125 15.148438 16.128906 15.171875 15.9375 15.195312 C 15.488281 15.199219 15.308594 15.171875 14.957031 14.882812 C 14.785156 14.683594 14.621094 14.480469 14.460938 14.269531 C 14.25 13.972656 14.25 13.972656 13.875 13.75 C 13.839844 13.453125 13.839844 13.453125 13.851562 13.109375 C 13.855469 12.9375 13.855469 12.9375 13.859375 12.765625 C 13.867188 12.675781 13.871094 12.589844 13.875 12.5 C 13.503906 12.375 13.132812 12.253906 12.75 12.125 C 12.378906 12.511719 12.378906 12.511719 12.25 13 C 11.425781 13 10.601562 13 9.75 13 C 9.667969 12.835938 9.585938 12.671875 9.5 12.5 C 9.417969 12.375 9.335938 12.253906 9.25 12.125 C 8.835938 12.125 8.496094 12.335938 8.125 12.5 Z M 8.125 12.5 "/>
<path style=" stroke:none;fill-rule:nonzero;fill:rgb(0%,64.313728%,66.666669%);fill-opacity:1;" d="M 2 10 C 2.988281 10 3.980469 10 5 10 C 5 11.320312 5 12.640625 5 14 C 5.183594 14.0625 5.183594 14.0625 5.375 14.125 C 5.257812 14.140625 5.257812 14.140625 5.140625 14.15625 C 4.859375 14.226562 4.859375 14.226562 4.738281 14.457031 C 4.703125 14.546875 4.671875 14.636719 4.636719 14.726562 C 4.578125 14.871094 4.578125 14.871094 4.519531 15.015625 C 4.484375 15.117188 4.445312 15.21875 4.40625 15.320312 C 4.347656 15.472656 4.347656 15.472656 4.285156 15.625 C 4.1875 15.875 4.09375 16.125 4 16.375 C 4.324219 16.707031 4.613281 16.992188 5 17.25 C 5.113281 17.761719 5.109375 18.238281 5 18.75 C 4.707031 19.09375 4.390625 19.285156 4 19.5 C 4.132812 19.871094 4.269531 20.238281 4.40625 20.609375 C 4.445312 20.714844 4.480469 20.820312 4.519531 20.929688 C 4.558594 21.027344 4.597656 21.128906 4.636719 21.234375 C 4.667969 21.328125 4.703125 21.417969 4.738281 21.515625 C 4.90625 21.804688 5.066406 21.878906 5.375 22 C 5.25 22 5.128906 22 5 22 C 5.011719 22.460938 5.023438 22.921875 5.039062 23.382812 C 5.042969 23.511719 5.046875 23.640625 5.046875 23.777344 C 5.074219 24.527344 5.148438 25.082031 5.5 25.75 C 5.5625 25.875 5.5625 25.875 5.625 26 C 5.207031 26.023438 4.785156 26.035156 4.367188 26.046875 C 4.25 26.054688 4.132812 26.058594 4.011719 26.066406 C 3.382812 26.078125 2.980469 26.054688 2.484375 25.644531 C 2.152344 25.324219 2.011719 25.070312 1.984375 24.597656 C 1.984375 24.488281 1.984375 24.378906 1.984375 24.265625 C 1.984375 24.140625 1.984375 24.015625 1.984375 23.882812 C 1.984375 23.746094 1.984375 23.609375 1.984375 23.46875 C 1.984375 23.320312 1.984375 23.175781 1.984375 23.027344 C 1.984375 22.546875 1.984375 22.066406 1.988281 21.585938 C 1.988281 21.25 1.988281 20.917969 1.988281 20.585938 C 1.988281 19.796875 1.988281 19.011719 1.992188 18.222656 C 1.992188 17.328125 1.992188 16.429688 1.992188 15.53125 C 1.996094 13.6875 1.996094 11.84375 2 10 Z M 2 10 "/>
<path style=" stroke:none;fill-rule:nonzero;fill:rgb(1.960784%,4.313726%,30.19608%);fill-opacity:1;" d="M 12.449219 15.316406 C 13.175781 15.761719 13.738281 16.433594 14 17.25 C 14.117188 18.183594 13.976562 18.988281 13.441406 19.765625 C 12.867188 20.472656 12.304688 20.925781 11.386719 21.046875 C 10.570312 21.082031 9.90625 21.007812 9.25 20.5 C 8.46875 19.773438 7.992188 19.03125 7.945312 17.945312 C 7.976562 17.113281 8.1875 16.578125 8.761719 15.976562 C 9.886719 14.929688 11.015625 14.683594 12.449219 15.316406 Z M 12.449219 15.316406 "/>
<path style=" stroke:none;fill-rule:nonzero;fill:rgb(0%,2.745098%,30.588236%);fill-opacity:1;" d="M 22.8125 20.96875 C 22.921875 20.96875 23.035156 20.964844 23.148438 20.964844 C 23.265625 20.96875 23.378906 20.96875 23.5 20.96875 C 23.617188 20.96875 23.734375 20.96875 23.851562 20.964844 C 24.015625 20.96875 24.015625 20.96875 24.1875 20.96875 C 24.289062 20.96875 24.390625 20.96875 24.496094 20.96875 C 24.75 21 24.75 21 25 21.25 C 25 21.664062 25 22.074219 25 22.5 C 25.988281 22.5 26.980469 22.5 28 22.5 C 28 22.832031 28 23.160156 28 23.5 C 27.011719 23.5 26.019531 23.5 25 23.5 C 25 23.914062 25 24.324219 25 24.75 C 24.695312 25.058594 24.609375 25.03125 24.1875 25.03125 C 24.078125 25.03125 23.964844 25.035156 23.851562 25.035156 C 23.734375 25.03125 23.621094 25.03125 23.5 25.03125 C 23.382812 25.03125 23.265625 25.03125 23.148438 25.035156 C 22.984375 25.035156 22.984375 25.035156 22.8125 25.03125 C 22.710938 25.03125 22.609375 25.03125 22.503906 25.03125 C 22.25 25 22.25 25 22 24.75 C 22 24.339844 22 23.925781 22 23.5 C 21.011719 23.5 20.019531 23.5 19 23.5 C 19 23.171875 19 22.839844 19 22.5 C 19.988281 22.5 20.980469 22.5 22 22.5 C 22 22.089844 22 21.675781 22 21.25 C 22.304688 20.945312 22.390625 20.96875 22.8125 20.96875 Z M 22.8125 20.96875 "/>
<path style=" stroke:none;fill-rule:nonzero;fill:rgb(0%,2.745098%,30.588236%);fill-opacity:1;" d="M 20.8125 15.96875 C 20.921875 15.96875 21.035156 15.964844 21.148438 15.964844 C 21.265625 15.96875 21.378906 15.96875 21.5 15.96875 C 21.671875 15.96875 21.671875 15.96875 21.851562 15.964844 C 22.015625 15.96875 22.015625 15.96875 22.1875 15.96875 C 22.289062 15.96875 22.390625 15.96875 22.496094 15.96875 C 22.75 16 22.75 16 23 16.25 C 23 16.664062 23 17.074219 23 17.5 C 24.648438 17.5 26.300781 17.5 28 17.5 C 28 17.832031 28 18.160156 28 18.5 C 26.351562 18.5 24.699219 18.5 23 18.5 C 23 18.914062 23 19.324219 23 19.75 C 22.695312 20.058594 22.609375 20.03125 22.1875 20.03125 C 22.078125 20.03125 21.964844 20.035156 21.851562 20.035156 C 21.734375 20.03125 21.621094 20.03125 21.5 20.03125 C 21.382812 20.03125 21.265625 20.03125 21.148438 20.035156 C 20.984375 20.035156 20.984375 20.035156 20.8125 20.03125 C 20.710938 20.03125 20.609375 20.03125 20.503906 20.03125 C 20.25 20 20.25 20 20 19.75 C 19.976562 19.453125 19.976562 19.453125 19.984375 19.109375 C 19.984375 18.996094 19.988281 18.882812 19.992188 18.765625 C 19.992188 18.675781 19.996094 18.589844 20 18.5 C 19.671875 18.5 19.339844 18.5 19 18.5 C 19 18.171875 19 17.839844 19 17.5 C 19.328125 17.5 19.660156 17.5 20 17.5 C 19.996094 17.414062 19.992188 17.324219 19.992188 17.234375 C 19.988281 17.0625 19.988281 17.0625 19.984375 16.890625 C 19.980469 16.777344 19.980469 16.664062 19.976562 16.546875 C 20.019531 15.984375 20.324219 15.96875 20.8125 15.96875 Z M 20.8125 15.96875 "/>
<path style=" stroke:none;fill-rule:nonzero;fill:rgb(0%,2.745098%,30.588236%);fill-opacity:1;" d="M 23.8125 10.96875 C 23.921875 10.96875 24.035156 10.964844 24.148438 10.964844 C 24.265625 10.96875 24.378906 10.96875 24.5 10.96875 C 24.617188 10.96875 24.734375 10.96875 24.851562 10.964844 C 25.015625 10.96875 25.015625 10.96875 25.1875 10.96875 C 25.289062 10.96875 25.390625 10.96875 25.496094 10.96875 C 25.75 11 25.75 11 26 11.25 C 26.035156 11.667969 26.011719 12.078125 26 12.5 C 26.660156 12.5 27.320312 12.5 28 12.5 C 28 12.832031 28 13.160156 28 13.5 C 27.339844 13.5 26.679688 13.5 26 13.5 C 26.003906 13.699219 26.011719 13.902344 26.015625 14.109375 C 26.023438 14.453125 26.023438 14.453125 26 14.75 C 25.695312 15.058594 25.609375 15.03125 25.1875 15.03125 C 25.078125 15.03125 24.964844 15.035156 24.851562 15.035156 C 24.734375 15.03125 24.621094 15.03125 24.5 15.03125 C 24.382812 15.03125 24.265625 15.03125 24.148438 15.035156 C 23.984375 15.035156 23.984375 15.035156 23.8125 15.03125 C 23.710938 15.03125 23.609375 15.03125 23.503906 15.03125 C 23.25 15 23.25 15 23 14.75 C 23 14.339844 23 13.925781 23 13.5 C 21.679688 13.5 20.359375 13.5 19 13.5 C 19 13.171875 19 12.839844 19 12.5 C 20.320312 12.5 21.640625 12.5 23 12.5 C 23 12.089844 23 11.675781 23 11.25 C 23.304688 10.945312 23.390625 10.96875 23.8125 10.96875 Z M 23.8125 10.96875 "/>
<path style=" stroke:none;fill-rule:nonzero;fill:rgb(0%,79.215688%,79.215688%);fill-opacity:1;" d="M 11.5 16 C 12.207031 16.246094 12.664062 16.703125 13 17.375 C 13.066406 17.992188 13.070312 18.484375 12.789062 19.046875 C 12.394531 19.496094 11.972656 19.960938 11.355469 20.03125 C 10.621094 20.050781 10.195312 20.003906 9.625 19.5 C 9.085938 18.902344 8.953125 18.445312 8.964844 17.660156 C 9.039062 17.0625 9.394531 16.71875 9.828125 16.335938 C 10.386719 15.941406 10.832031 15.9375 11.5 16 Z M 11.5 16 "/>
<path style=" stroke:none;fill-rule:nonzero;fill:rgb(0%,2.745098%,30.588236%);fill-opacity:1;" d="M 16 7 C 19.960938 7 23.921875 7 28 7 C 28 7.328125 28 7.660156 28 8 C 24.039062 8 20.078125 8 16 8 C 16 7.671875 16 7.339844 16 7 Z M 16 7 "/>
<path style=" stroke:none;fill-rule:nonzero;fill:rgb(0%,48.627451%,57.254905%);fill-opacity:1;" d="M 3.597656 5.988281 C 3.714844 5.988281 3.832031 5.988281 3.953125 5.988281 C 4.078125 5.992188 4.199219 5.992188 4.328125 5.992188 C 4.453125 5.992188 4.574219 5.992188 4.703125 5.992188 C 5.011719 5.996094 5.320312 5.996094 5.625 6 C 5.542969 6.121094 5.464844 6.242188 5.382812 6.367188 C 5.074219 6.902344 5.042969 7.382812 5.03125 7.992188 C 5.019531 8.324219 5.011719 8.65625 5 9 C 4.011719 9 3.019531 9 2 9 C 1.898438 6.972656 1.898438 6.972656 2.359375 6.445312 C 2.769531 6.066406 3.042969 5.984375 3.597656 5.988281 Z M 3.597656 5.988281 "/>
<path style=" stroke:none;fill-rule:nonzero;fill:rgb(100%,83.92157%,28.235295%);fill-opacity:1;" d="M 23 22 C 23.328125 22 23.660156 22 24 22 C 24 22.660156 24 23.320312 24 24 C 23.671875 24 23.339844 24 23 24 C 23 23.339844 23 22.679688 23 22 Z M 23 22 "/>
<path style=" stroke:none;fill-rule:nonzero;fill:rgb(100%,83.92157%,28.235295%);fill-opacity:1;" d="M 21 17 C 21.328125 17 21.660156 17 22 17 C 22 17.660156 22 18.320312 22 19 C 21.671875 19 21.339844 19 21 19 C 21 18.339844 21 17.679688 21 17 Z M 21 17 "/>
<path style=" stroke:none;fill-rule:nonzero;fill:rgb(100%,83.92157%,28.235295%);fill-opacity:1;" d="M 24 12 C 24.328125 12 24.660156 12 25 12 C 25 12.660156 25 13.320312 25 14 C 24.671875 14 24.339844 14 24 14 C 24 13.339844 24 12.679688 24 12 Z M 24 12 "/>
<path style=" stroke:none;fill-rule:nonzero;fill:rgb(96.078432%,68.235296%,3.137255%);fill-opacity:1;" d="M 13.125 15.875 C 13.703125 16.023438 13.925781 16.308594 14.246094 16.78125 C 14.585938 17.363281 14.566406 17.972656 14.5 18.625 C 14.269531 19.417969 13.773438 19.890625 13.125 20.375 C 13.042969 20.332031 12.960938 20.292969 12.875 20.25 C 12.953125 20.171875 12.953125 20.171875 13.03125 20.089844 C 13.734375 19.320312 13.933594 18.597656 13.917969 17.5625 C 13.828125 16.910156 13.484375 16.410156 13.125 15.875 Z M 13.125 15.875 "/>
<path style=" stroke:none;fill-rule:nonzero;fill:rgb(98.039216%,70.19608%,3.137255%);fill-opacity:1;" d="M 5.625 16.5 C 5.894531 16.546875 6.097656 16.609375 6.328125 16.753906 C 6.601562 17.144531 6.539062 17.566406 6.523438 18.023438 C 6.519531 18.117188 6.519531 18.210938 6.519531 18.308594 C 6.515625 18.539062 6.507812 18.769531 6.5 19 C 6.253906 19.125 6.253906 19.125 6 19.25 C 6 18.425781 6 17.601562 6 16.75 C 5.875 16.707031 5.753906 16.667969 5.625 16.625 C 5.625 16.582031 5.625 16.542969 5.625 16.5 Z M 5.625 16.5 "/>
<path style=" stroke:none;fill-rule:nonzero;fill:rgb(100%,70.19608%,0%);fill-opacity:1;" d="M 23 22 C 23.164062 22 23.328125 22 23.5 22 C 23.5 22.660156 23.5 23.320312 23.5 24 C 23.335938 24 23.171875 24 23 24 C 23 23.339844 23 22.679688 23 22 Z M 23 22 "/>
<path style=" stroke:none;fill-rule:nonzero;fill:rgb(100%,70.19608%,0%);fill-opacity:1;" d="M 21 17 C 21.164062 17 21.328125 17 21.5 17 C 21.5 17.660156 21.5 18.320312 21.5 19 C 21.335938 19 21.171875 19 21 19 C 21 18.339844 21 17.679688 21 17 Z M 21 17 "/>
<path style=" stroke:none;fill-rule:nonzero;fill:rgb(100%,70.19608%,0%);fill-opacity:1;" d="M 24 12 C 24.164062 12 24.328125 12 24.5 12 C 24.5 12.660156 24.5 13.320312 24.5 14 C 24.335938 14 24.171875 14 24 14 C 24 13.339844 24 12.679688 24 12 Z M 24 12 "/>
<path style=" stroke:none;fill-rule:nonzero;fill:rgb(0%,2.745098%,30.588236%);fill-opacity:1;" d="M 8 7 C 8.328125 7 8.660156 7 9 7 C 9 7.328125 9 7.660156 9 8 C 8.671875 8 8.339844 8 8 8 C 8 7.671875 8 7.339844 8 7 Z M 8 7 "/>
<path style=" stroke:none;fill-rule:nonzero;fill:rgb(0%,2.745098%,30.588236%);fill-opacity:1;" d="M 6 7 C 6.328125 7 6.660156 7 7 7 C 7 7.328125 7 7.660156 7 8 C 6.671875 8 6.339844 8 6 8 C 6 7.671875 6 7.339844 6 7 Z M 6 7 "/>
<path style=" stroke:none;fill-rule:nonzero;fill:rgb(0%,2.745098%,30.588236%);fill-opacity:1;" d="M 4 7 C 4.328125 7 4.660156 7 5 7 C 5 7.328125 5 7.660156 5 8 C 4.671875 8 4.339844 8 4 8 C 4 7.671875 4 7.339844 4 7 Z M 4 7 "/>
<path style=" stroke:none;fill-rule:nonzero;fill:rgb(97.647059%,69.411767%,1.960784%);fill-opacity:1;" d="M 7.125 21.25 C 7.75 21.339844 8.097656 21.746094 8.523438 22.179688 C 8.78125 22.542969 8.808594 22.699219 8.757812 23.132812 C 8.691406 23.417969 8.691406 23.417969 8.625 23.625 C 8.460938 23.582031 8.296875 23.542969 8.125 23.5 C 8.136719 23.421875 8.148438 23.339844 8.160156 23.257812 C 8.222656 22.566406 8.222656 22.566406 7.902344 21.976562 C 7.648438 21.765625 7.390625 21.570312 7.125 21.375 C 7.125 21.332031 7.125 21.292969 7.125 21.25 Z M 7.125 21.25 "/>
<path style=" stroke:none;fill-rule:nonzero;fill:rgb(94.509804%,68.627453%,5.882353%);fill-opacity:1;" d="M 6 19.25 C 5.957031 19.3125 5.914062 19.375 5.867188 19.4375 C 5.691406 19.902344 5.792969 20.261719 5.875 20.75 C 5.75 20.792969 5.628906 20.832031 5.5 20.875 C 5.375 20.503906 5.253906 20.132812 5.125 19.75 C 5.71875 19.25 5.71875 19.25 6 19.25 Z M 6 19.25 "/>
<path style=" stroke:none;fill-rule:nonzero;fill:rgb(96.470588%,68.627453%,2.352941%);fill-opacity:1;" d="M 8.625 12.375 C 8.65625 12.554688 8.683594 12.734375 8.710938 12.914062 C 8.726562 13.015625 8.742188 13.113281 8.757812 13.21875 C 8.75 13.5 8.75 13.5 8.566406 13.722656 C 8.503906 13.773438 8.441406 13.824219 8.375 13.875 C 8.292969 13.832031 8.210938 13.792969 8.125 13.75 C 8.125 13.335938 8.125 12.925781 8.125 12.5 C 8.375 12.375 8.375 12.375 8.625 12.375 Z M 8.625 12.375 "/>
<path style=" stroke:none;fill-rule:nonzero;fill:rgb(93.333334%,65.882355%,2.352941%);fill-opacity:1;" d="M 5.5 15.125 C 5.625 15.167969 5.746094 15.207031 5.875 15.25 C 5.75 15.621094 5.628906 15.992188 5.5 16.375 C 5.375 16.332031 5.253906 16.292969 5.125 16.25 C 5.25 15.878906 5.371094 15.507812 5.5 15.125 Z M 5.5 15.125 "/>
<path style=" stroke:none;fill-rule:nonzero;fill:rgb(89.019608%,64.313728%,6.27451%);fill-opacity:1;" d="M 7.125 21.25 C 7.542969 21.324219 7.742188 21.449219 8.03125 21.757812 C 8.128906 21.859375 8.128906 21.859375 8.230469 21.964844 C 8.300781 22.042969 8.300781 22.042969 8.375 22.125 C 8.332031 22.25 8.292969 22.371094 8.25 22.5 C 7.84375 22.105469 7.472656 21.699219 7.125 21.25 Z M 7.125 21.25 "/>
</g>
</svg>
