<?xml version="1.0" encoding="UTF-8"?>
<svg xmlns="http://www.w3.org/2000/svg" xmlns:xlink="http://www.w3.org/1999/xlink" width="32" height="32" viewBox="0 0 32 32" version="1.1">
<g id="surface1">
<path style=" stroke:none;fill-rule:nonzero;fill:rgb(99.607843%,28.627452%,28.627452%);fill-opacity:1;" d="M 0 1 C 1.816406 1 3.628906 1 5.5 1 C 5.871094 2.339844 6.230469 3.640625 6.5 5 C 6.621094 4.960938 6.746094 4.917969 6.871094 4.878906 C 7.398438 4.726562 7.894531 4.710938 8.4375 4.71875 C 8.574219 4.71875 8.574219 4.71875 8.710938 4.714844 C 9.308594 4.71875 9.804688 4.8125 10.375 5 C 10.421875 4.785156 10.421875 4.785156 10.464844 4.570312 C 10.507812 4.375 10.550781 4.179688 10.59375 3.984375 C 10.613281 3.890625 10.632812 3.796875 10.652344 3.703125 C 10.855469 2.785156 11.113281 1.910156 11.375 1 C 13.191406 1 15.003906 1 16.875 1 C 16.875 1.617188 16.875 2.238281 16.875 2.875 C 15.597656 2.875 14.316406 2.875 13 2.875 C 12.8125 3.703125 12.8125 3.703125 12.628906 4.535156 C 12.554688 4.875 12.476562 5.210938 12.390625 5.546875 C 12.230469 6.167969 12.230469 6.167969 12.367188 6.773438 C 12.476562 6.945312 12.589844 7.109375 12.710938 7.273438 C 13.003906 7.679688 13.113281 8.140625 13.136719 8.640625 C 13.167969 9.398438 13.40625 9.761719 13.894531 10.335938 C 15.234375 12.015625 15 13.871094 15 16 C 19.371094 16 23.746094 16 28.25 16 C 28.292969 16.90625 28.332031 17.816406 28.375 18.75 C 28.582031 18.542969 28.789062 18.335938 29 18.125 C 29.585938 17.734375 30.191406 17.800781 30.875 17.875 C 31.449219 18.144531 31.730469 18.429688 32 19 C 32.035156 19.359375 32.050781 19.695312 32.050781 20.058594 C 32.050781 20.214844 32.050781 20.214844 32.050781 20.375 C 32.054688 20.722656 32.054688 21.066406 32.054688 21.414062 C 32.054688 21.65625 32.054688 21.894531 32.054688 22.136719 C 32.058594 22.640625 32.058594 23.148438 32.054688 23.652344 C 32.054688 24.296875 32.054688 24.945312 32.058594 25.59375 C 32.0625 26.089844 32.0625 26.585938 32.0625 27.085938 C 32.0625 27.324219 32.0625 27.5625 32.0625 27.800781 C 32.066406 28.136719 32.066406 28.46875 32.0625 28.800781 C 32.0625 28.898438 32.066406 28.996094 32.066406 29.097656 C 32.058594 29.746094 31.921875 30.109375 31.5 30.625 C 30.847656 31.132812 30.167969 31.097656 29.375 31 C 28.796875 30.726562 28.53125 30.4375 28.25 29.875 C 28.199219 29.503906 28.199219 29.503906 28.195312 29.09375 C 28.195312 28.9375 28.191406 28.78125 28.1875 28.621094 C 28.1875 28.453125 28.1875 28.285156 28.1875 28.117188 C 28.183594 27.945312 28.179688 27.773438 28.179688 27.601562 C 28.171875 27.144531 28.171875 26.691406 28.167969 26.238281 C 28.164062 25.777344 28.15625 25.3125 28.152344 24.847656 C 28.140625 23.941406 28.132812 23.035156 28.125 22.125 C 28.066406 22.261719 28.011719 22.398438 27.953125 22.539062 C 27.464844 23.699219 26.628906 24.582031 25.5 25.125 C 24.75 25.394531 24.054688 25.414062 23.261719 25.414062 C 23.132812 25.414062 23.003906 25.414062 22.871094 25.414062 C 22.597656 25.414062 22.324219 25.414062 22.050781 25.414062 C 21.636719 25.414062 21.21875 25.417969 20.800781 25.421875 C 20.535156 25.421875 20.269531 25.421875 20.003906 25.421875 C 19.882812 25.421875 19.757812 25.421875 19.632812 25.421875 C 18.257812 25.414062 17.148438 24.898438 16.15625 23.953125 C 15.644531 23.417969 15.289062 22.855469 15.125 22.125 C 15.125 22.214844 15.121094 22.304688 15.121094 22.394531 C 15.113281 22.804688 15.105469 23.214844 15.09375 23.625 C 15.09375 23.765625 15.089844 23.90625 15.089844 24.050781 C 15.058594 25.03125 14.929688 25.75 14.28125 26.503906 C 14.210938 26.558594 14.140625 26.613281 14.070312 26.671875 C 13.964844 26.757812 13.964844 26.757812 13.859375 26.847656 C 13.375 27.164062 12.941406 27.28125 12.363281 27.273438 C 12.191406 27.273438 12.191406 27.273438 12.011719 27.273438 C 11.832031 27.269531 11.832031 27.269531 11.648438 27.265625 C 11.527344 27.265625 11.402344 27.265625 11.277344 27.261719 C 10.976562 27.257812 10.675781 27.253906 10.375 27.25 C 10.378906 27.414062 10.382812 27.574219 10.390625 27.742188 C 10.390625 27.957031 10.394531 28.175781 10.398438 28.390625 C 10.402344 28.496094 10.40625 28.605469 10.40625 28.714844 C 10.414062 29.367188 10.367188 29.8125 10 30.375 C 9.351562 30.957031 8.953125 31.042969 8.097656 31.035156 C 7.492188 30.972656 7.160156 30.683594 6.773438 30.242188 C 6.53125 29.847656 6.484375 29.523438 6.488281 29.070312 C 6.488281 28.960938 6.488281 28.859375 6.488281 28.746094 C 6.488281 28.582031 6.488281 28.582031 6.492188 28.414062 C 6.492188 28.300781 6.492188 28.191406 6.492188 28.078125 C 6.496094 27.800781 6.496094 27.523438 6.5 27.25 C 6.425781 27.253906 6.351562 27.253906 6.273438 27.257812 C 5.933594 27.269531 5.589844 27.273438 5.25 27.28125 C 5.132812 27.285156 5.015625 27.289062 4.894531 27.292969 C 3.976562 27.304688 3.324219 27.136719 2.621094 26.53125 C 2.566406 26.460938 2.511719 26.390625 2.453125 26.320312 C 2.394531 26.25 2.335938 26.179688 2.277344 26.109375 C 1.839844 25.441406 1.839844 24.835938 1.839844 24.0625 C 1.839844 23.945312 1.839844 23.824219 1.839844 23.703125 C 1.835938 23.308594 1.835938 22.917969 1.835938 22.527344 C 1.835938 22.253906 1.835938 21.980469 1.835938 21.703125 C 1.835938 21.132812 1.835938 20.558594 1.835938 19.984375 C 1.835938 19.25 1.832031 18.519531 1.832031 17.785156 C 1.828125 17.21875 1.828125 16.65625 1.828125 16.089844 C 1.828125 15.820312 1.828125 15.550781 1.828125 15.28125 C 1.828125 14.902344 1.828125 14.523438 1.828125 14.140625 C 1.828125 14.03125 1.828125 13.921875 1.824219 13.808594 C 1.835938 12.402344 2.335938 10.898438 3.34375 9.882812 C 3.707031 9.386719 3.738281 8.964844 3.816406 8.363281 C 3.910156 7.777344 4.101562 7.308594 4.476562 6.84375 C 4.730469 6.261719 4.515625 5.726562 4.375 5.125 C 4.3125 4.832031 4.246094 4.542969 4.183594 4.253906 C 4.082031 3.792969 3.980469 3.332031 3.875 2.875 C 2.597656 2.875 1.316406 2.875 0 2.875 C 0 2.257812 0 1.636719 0 1 Z M 0 1 "/>
<path style=" stroke:none;fill-rule:nonzero;fill:rgb(99.607843%,82.745099%,0.392157%);fill-opacity:1;" d="M 0 1 C 1.816406 1 3.628906 1 5.5 1 C 5.871094 2.339844 6.230469 3.640625 6.5 5 C 6.621094 4.960938 6.746094 4.917969 6.871094 4.878906 C 7.398438 4.726562 7.894531 4.710938 8.4375 4.71875 C 8.574219 4.71875 8.574219 4.71875 8.710938 4.714844 C 9.308594 4.71875 9.804688 4.8125 10.375 5 C 10.421875 4.785156 10.421875 4.785156 10.464844 4.570312 C 10.507812 4.375 10.550781 4.179688 10.59375 3.984375 C 10.613281 3.890625 10.632812 3.796875 10.652344 3.703125 C 10.855469 2.785156 11.113281 1.910156 11.375 1 C 13.191406 1 15.003906 1 16.875 1 C 16.875 1.617188 16.875 2.238281 16.875 2.875 C 15.597656 2.875 14.316406 2.875 13 2.875 C 12.8125 3.703125 12.8125 3.703125 12.628906 4.535156 C 12.554688 4.875 12.476562 5.210938 12.390625 5.546875 C 12.230469 6.167969 12.230469 6.167969 12.367188 6.773438 C 12.523438 7.03125 12.523438 7.03125 12.703125 7.242188 C 13.304688 8.148438 13.207031 9.339844 13.125 10.375 C 12.800781 11.683594 11.96875 12.730469 10.875 13.5 C 9.644531 14.113281 8.429688 14.363281 7.078125 14.015625 C 6.25 13.695312 5.613281 13.261719 5 12.625 C 4.890625 12.515625 4.777344 12.402344 4.664062 12.289062 C 3.746094 11.101562 3.609375 9.816406 3.75 8.375 C 3.847656 7.925781 4 7.550781 4.269531 7.171875 C 4.582031 6.71875 4.660156 6.445312 4.5625 5.898438 C 4.503906 5.640625 4.441406 5.382812 4.375 5.125 C 4.308594 4.835938 4.246094 4.542969 4.183594 4.253906 C 4.082031 3.792969 3.980469 3.332031 3.875 2.875 C 2.597656 2.875 1.316406 2.875 0 2.875 C 0 2.257812 0 1.636719 0 1 Z M 0 1 "/>
<path style=" stroke:none;fill-rule:nonzero;fill:rgb(99.215686%,41.960785%,41.960785%);fill-opacity:1;" d="M 3.625 9.5 C 3.667969 9.5 3.707031 9.5 3.75 9.5 C 3.792969 9.734375 3.792969 9.734375 3.835938 9.96875 C 4.144531 11.316406 4.628906 12.398438 5.75 13.25 C 6.617188 13.765625 7.359375 13.921875 8.375 14.125 C 8.375 15.363281 8.375 16.601562 8.375 17.875 C 8.046875 18 7.714844 18.121094 7.375 18.25 C 6.902344 18.609375 6.777344 18.800781 6.695312 19.386719 C 6.664062 19.882812 6.660156 20.378906 6.660156 20.878906 C 6.660156 21.0625 6.65625 21.246094 6.65625 21.429688 C 6.652344 21.910156 6.648438 22.394531 6.648438 22.875 C 6.648438 23.367188 6.644531 23.859375 6.640625 24.355469 C 6.632812 25.320312 6.625 26.285156 6.625 27.25 C 6.1875 27.265625 5.75 27.273438 5.3125 27.28125 C 5.191406 27.285156 5.066406 27.289062 4.941406 27.292969 C 4.003906 27.304688 3.351562 27.160156 2.621094 26.53125 C 2.566406 26.460938 2.511719 26.390625 2.453125 26.320312 C 2.394531 26.25 2.335938 26.179688 2.277344 26.109375 C 1.839844 25.441406 1.839844 24.835938 1.839844 24.0625 C 1.839844 23.945312 1.839844 23.824219 1.839844 23.703125 C 1.835938 23.308594 1.835938 22.917969 1.835938 22.527344 C 1.835938 22.253906 1.835938 21.980469 1.835938 21.703125 C 1.835938 21.132812 1.835938 20.558594 1.835938 19.984375 C 1.835938 19.25 1.832031 18.519531 1.832031 17.785156 C 1.828125 17.21875 1.828125 16.65625 1.828125 16.089844 C 1.828125 15.820312 1.828125 15.550781 1.828125 15.28125 C 1.828125 14.902344 1.828125 14.523438 1.828125 14.140625 C 1.828125 14.03125 1.828125 13.921875 1.824219 13.808594 C 1.839844 12.195312 2.515625 10.671875 3.625 9.5 Z M 3.625 9.5 "/>
<path style=" stroke:none;fill-rule:nonzero;fill:rgb(65.882355%,82.745099%,84.705883%);fill-opacity:1;" d="M 15 16 C 19.371094 16 23.746094 16 28.25 16 C 28.25 17.238281 28.25 18.476562 28.25 19.75 C 23.878906 19.75 19.503906 19.75 15 19.75 C 15 18.511719 15 17.273438 15 16 Z M 15 16 "/>
<path style=" stroke:none;fill-rule:nonzero;fill:rgb(26.666668%,26.666668%,26.666668%);fill-opacity:1;" d="M 30.875 17.875 C 31.449219 18.144531 31.730469 18.429688 32 19 C 32.035156 19.359375 32.050781 19.695312 32.050781 20.058594 C 32.050781 20.164062 32.050781 20.265625 32.050781 20.375 C 32.054688 20.722656 32.054688 21.066406 32.054688 21.414062 C 32.054688 21.65625 32.054688 21.894531 32.054688 22.136719 C 32.058594 22.640625 32.058594 23.148438 32.054688 23.652344 C 32.054688 24.296875 32.054688 24.945312 32.058594 25.59375 C 32.0625 26.089844 32.0625 26.585938 32.0625 27.085938 C 32.0625 27.324219 32.0625 27.5625 32.0625 27.800781 C 32.066406 28.136719 32.066406 28.46875 32.0625 28.800781 C 32.0625 28.898438 32.066406 28.996094 32.066406 29.097656 C 32.058594 29.746094 31.921875 30.109375 31.5 30.625 C 30.847656 31.132812 30.167969 31.097656 29.375 31 C 28.800781 30.730469 28.519531 30.445312 28.25 29.875 C 28.214844 29.515625 28.199219 29.179688 28.199219 28.816406 C 28.199219 28.710938 28.199219 28.609375 28.199219 28.5 C 28.195312 28.152344 28.195312 27.808594 28.195312 27.460938 C 28.195312 27.21875 28.195312 26.980469 28.195312 26.738281 C 28.191406 26.234375 28.191406 25.726562 28.195312 25.222656 C 28.195312 24.578125 28.195312 23.929688 28.191406 23.28125 C 28.1875 22.785156 28.1875 22.289062 28.1875 21.789062 C 28.1875 21.550781 28.1875 21.3125 28.1875 21.074219 C 28.183594 20.738281 28.183594 20.40625 28.1875 20.074219 C 28.183594 19.925781 28.183594 19.925781 28.183594 19.777344 C 28.191406 19.128906 28.328125 18.765625 28.75 18.25 C 29.402344 17.742188 30.082031 17.777344 30.875 17.875 Z M 30.875 17.875 "/>
<path style=" stroke:none;fill-rule:nonzero;fill:rgb(27.843139%,27.058825%,27.058825%);fill-opacity:1;" d="M 9 17.875 C 9.664062 18.210938 10.136719 18.660156 10.375 19.375 C 10.390625 19.699219 10.394531 20.019531 10.394531 20.347656 C 10.394531 20.445312 10.394531 20.542969 10.398438 20.644531 C 10.398438 20.972656 10.398438 21.300781 10.398438 21.628906 C 10.402344 21.855469 10.402344 22.082031 10.402344 22.308594 C 10.402344 22.789062 10.40625 23.265625 10.40625 23.742188 C 10.40625 24.351562 10.410156 24.960938 10.414062 25.574219 C 10.414062 26.042969 10.414062 26.515625 10.414062 26.984375 C 10.417969 27.207031 10.417969 27.433594 10.417969 27.660156 C 10.421875 27.972656 10.421875 28.289062 10.421875 28.605469 C 10.421875 28.699219 10.421875 28.789062 10.421875 28.886719 C 10.417969 29.476562 10.3125 29.875 10 30.375 C 9.351562 30.957031 8.953125 31.042969 8.097656 31.035156 C 7.492188 30.972656 7.160156 30.683594 6.773438 30.242188 C 6.460938 29.734375 6.484375 29.253906 6.492188 28.675781 C 6.492188 28.460938 6.492188 28.246094 6.496094 28.03125 C 6.496094 27.90625 6.496094 27.785156 6.496094 27.660156 C 6.5 27.203125 6.5 26.75 6.5 26.296875 C 6.5 25.488281 6.503906 24.679688 6.511719 23.875 C 6.515625 23.402344 6.515625 22.929688 6.515625 22.460938 C 6.515625 21.996094 6.515625 21.535156 6.523438 21.070312 C 6.523438 20.894531 6.523438 20.722656 6.523438 20.546875 C 6.511719 19.03125 6.511719 19.03125 6.976562 18.464844 C 7.570312 17.878906 8.191406 17.761719 9 17.875 Z M 9 17.875 "/>
<path style=" stroke:none;fill-rule:nonzero;fill:rgb(98.823529%,74.509805%,0.392157%);fill-opacity:1;" d="M 11.375 1 C 13.191406 1 15.003906 1 16.875 1 C 16.875 1.617188 16.875 2.238281 16.875 2.875 C 15.597656 2.875 14.316406 2.875 13 2.875 C 12.8125 3.703125 12.8125 3.703125 12.628906 4.535156 C 12.554688 4.875 12.476562 5.210938 12.390625 5.546875 C 12.230469 6.167969 12.230469 6.167969 12.367188 6.773438 C 12.523438 7.03125 12.523438 7.03125 12.703125 7.242188 C 13.304688 8.148438 13.207031 9.339844 13.125 10.375 C 12.800781 11.683594 11.96875 12.730469 10.875 13.5 C 10.039062 13.917969 9.355469 14.144531 8.414062 14.132812 C 8.328125 14.132812 8.238281 14.132812 8.148438 14.132812 C 7.933594 14.128906 7.714844 14.128906 7.5 14.125 C 7.5 14.082031 7.5 14.042969 7.5 14 C 7.828125 14 8.160156 14 8.5 14 C 8.5 13.421875 8.5 12.84375 8.5 12.25 C 8.808594 12.164062 9.117188 12.078125 9.425781 11.992188 C 9.757812 11.871094 9.972656 11.714844 10.25 11.5 C 10.332031 11.5 10.414062 11.5 10.5 11.5 C 10.585938 11.335938 10.667969 11.167969 10.75 11 C 10.816406 10.875 10.882812 10.746094 10.953125 10.617188 C 11.238281 9.933594 11.269531 9.148438 11.015625 8.453125 C 10.929688 8.285156 10.84375 8.117188 10.746094 7.957031 C 10.625 7.75 10.625 7.75 10.5 7.375 C 10.289062 7.238281 10.289062 7.238281 10 7.125 C 9.859375 7.058594 9.714844 6.996094 9.570312 6.929688 C 9.105469 6.726562 9.105469 6.726562 8.5 6.625 C 8.5 6.007812 8.5 5.386719 8.5 4.75 C 9.191406 4.726562 9.707031 4.792969 10.375 5 C 10.40625 4.859375 10.433594 4.714844 10.464844 4.570312 C 10.507812 4.375 10.550781 4.179688 10.59375 3.984375 C 10.625 3.84375 10.625 3.84375 10.652344 3.703125 C 10.855469 2.785156 11.113281 1.910156 11.375 1 Z M 11.375 1 "/>
<path style=" stroke:none;fill-rule:nonzero;fill:rgb(77.64706%,88.235295%,89.411765%);fill-opacity:1;" d="M 9.671875 6.835938 C 10.441406 7.289062 10.980469 7.898438 11.25 8.75 C 11.378906 9.648438 11.269531 10.378906 10.75 11.125 C 10.226562 11.761719 9.613281 12.179688 8.789062 12.296875 C 8.003906 12.328125 7.382812 12.226562 6.75 11.75 C 5.996094 11.050781 5.628906 10.425781 5.578125 9.390625 C 5.597656 8.609375 5.820312 8.070312 6.359375 7.503906 C 7.300781 6.636719 8.449219 6.261719 9.671875 6.835938 Z M 9.671875 6.835938 "/>
<path style=" stroke:none;fill-rule:nonzero;fill:rgb(35.294119%,35.294119%,35.294119%);fill-opacity:1;" d="M 8.375 17.875 C 8.375 22.207031 8.375 26.539062 8.375 31 C 7.339844 30.851562 7.339844 30.851562 6.75 30.25 C 6.472656 29.726562 6.46875 29.238281 6.484375 28.664062 C 6.484375 28.449219 6.488281 28.234375 6.488281 28.019531 C 6.492188 27.898438 6.492188 27.78125 6.496094 27.65625 C 6.5 27.117188 6.5 26.578125 6.5 26.042969 C 6.5 25.320312 6.503906 24.597656 6.511719 23.875 C 6.515625 23.402344 6.515625 22.929688 6.515625 22.460938 C 6.515625 21.996094 6.515625 21.535156 6.523438 21.070312 C 6.523438 20.894531 6.523438 20.722656 6.523438 20.546875 C 6.511719 19.03125 6.511719 19.03125 6.976562 18.464844 C 7.414062 18.035156 7.753906 17.875 8.375 17.875 Z M 8.375 17.875 "/>
<path style=" stroke:none;fill-rule:nonzero;fill:rgb(35.294119%,35.294119%,34.901962%);fill-opacity:1;" d="M 0 1 C 1.816406 1 3.628906 1 5.5 1 C 6.5 4.601562 6.5 4.601562 6.5 5.25 C 6.308594 5.414062 6.308594 5.414062 6.046875 5.554688 C 5.5625 5.820312 5.167969 6.140625 4.75 6.5 C 4.625 6.023438 4.5 5.546875 4.375 5.070312 C 4.3125 4.828125 4.25 4.589844 4.1875 4.347656 C 4.144531 4.195312 4.109375 4.042969 4.066406 3.886719 C 4.03125 3.746094 3.992188 3.609375 3.953125 3.464844 C 3.875 3.125 3.875 3.125 3.875 2.875 C 2.597656 2.875 1.316406 2.875 0 2.875 C 0 2.257812 0 1.636719 0 1 Z M 0 1 "/>
<path style=" stroke:none;fill-rule:nonzero;fill:rgb(26.666668%,26.666668%,26.274511%);fill-opacity:1;" d="M 11.375 1 C 13.191406 1 15.003906 1 16.875 1 C 16.875 1.617188 16.875 2.238281 16.875 2.875 C 15.597656 2.875 14.316406 2.875 13 2.875 C 12.925781 3.21875 12.851562 3.566406 12.773438 3.921875 C 12.589844 4.75 12.390625 5.570312 12.125 6.375 C 12.042969 6.375 11.960938 6.375 11.875 6.375 C 11.667969 6.167969 11.457031 5.957031 11.25 5.75 C 10.964844 5.53125 10.671875 5.328125 10.375 5.125 C 10.515625 4.214844 10.722656 3.324219 10.945312 2.429688 C 10.972656 2.316406 11 2.207031 11.03125 2.089844 C 11.234375 1.28125 11.234375 1.28125 11.375 1 Z M 11.375 1 "/>
<path style=" stroke:none;fill-rule:nonzero;fill:rgb(87.058824%,92.156863%,92.54902%);fill-opacity:1;" d="M 8.5 6.625 C 8.5 7.242188 8.5 7.863281 8.5 8.5 C 8.171875 8.5 7.839844 8.5 7.5 8.5 C 7.5 9.117188 7.5 9.738281 7.5 10.375 C 7.828125 10.375 8.160156 10.375 8.5 10.375 C 8.5 10.992188 8.5 11.613281 8.5 12.25 C 7.484375 12.1875 6.921875 11.96875 6.21875 11.203125 C 5.683594 10.539062 5.5625 9.902344 5.585938 9.066406 C 5.695312 8.164062 6.195312 7.609375 6.882812 7.050781 C 7.460938 6.632812 7.761719 6.625 8.5 6.625 Z M 8.5 6.625 "/>
<path style=" stroke:none;fill-rule:nonzero;fill:rgb(65.882355%,82.745099%,84.705883%);fill-opacity:1;" d="M 8.5 8.5 C 8.789062 8.5 9.078125 8.5 9.375 8.5 C 9.375 9.117188 9.375 9.738281 9.375 10.375 C 9.085938 10.375 8.796875 10.375 8.5 10.375 C 8.5 9.757812 8.5 9.136719 8.5 8.5 Z M 8.5 8.5 "/>
</g>
</svg>
