<?xml version="1.0" encoding="UTF-8"?>
<svg xmlns="http://www.w3.org/2000/svg" xmlns:xlink="http://www.w3.org/1999/xlink" width="32" height="32" viewBox="0 0 32 32" version="1.1">
<g id="surface1">
<path style=" stroke:none;fill-rule:nonzero;fill:rgb(17.647059%,21.176471%,37.254903%);fill-opacity:1;" d="M 16.699219 1.71875 C 16.839844 1.71875 16.976562 1.714844 17.121094 1.714844 C 17.265625 1.71875 17.410156 1.71875 17.5625 1.71875 C 17.707031 1.71875 17.855469 1.71875 18.003906 1.714844 C 18.144531 1.714844 18.28125 1.71875 18.425781 1.71875 C 18.554688 1.71875 18.683594 1.71875 18.8125 1.71875 C 19.125 1.75 19.125 1.75 19.375 2 C 19.390625 2.453125 19.390625 2.453125 19.375 2.875 C 19.550781 2.941406 19.730469 3.007812 19.90625 3.070312 C 20.054688 3.125 20.054688 3.125 20.207031 3.179688 C 20.53125 3.257812 20.6875 3.242188 21 3.125 C 21.125 3.042969 21.246094 2.960938 21.375 2.875 C 22.117188 2.929688 22.484375 3.390625 22.984375 3.890625 C 23.070312 3.972656 23.160156 4.054688 23.25 4.136719 C 23.871094 4.753906 23.871094 4.753906 23.882812 5.351562 C 23.75 5.75 23.75 5.75 23.5 6.125 C 23.578125 6.445312 23.578125 6.445312 23.734375 6.773438 C 23.808594 6.941406 23.808594 6.941406 23.882812 7.113281 C 23.921875 7.199219 23.960938 7.285156 24 7.375 C 24.140625 7.394531 24.285156 7.410156 24.429688 7.429688 C 24.875 7.5 24.875 7.5 25 7.625 C 25.011719 7.863281 25.015625 8.105469 25.015625 8.34375 C 25.015625 8.488281 25.015625 8.636719 25.015625 8.785156 C 25.015625 8.9375 25.015625 9.09375 25.015625 9.25 C 25.015625 9.402344 25.015625 9.558594 25.015625 9.714844 C 25.015625 9.859375 25.015625 10.003906 25.015625 10.15625 C 25.015625 10.289062 25.015625 10.425781 25.015625 10.5625 C 25 10.875 25 10.875 24.875 11 C 24.585938 11.046875 24.292969 11.089844 24 11.125 C 23.90625 11.34375 23.816406 11.5625 23.726562 11.78125 C 23.652344 11.964844 23.652344 11.964844 23.574219 12.152344 C 23.550781 12.265625 23.523438 12.378906 23.5 12.5 C 23.671875 12.757812 23.671875 12.757812 23.875 13 C 23.921875 13.367188 23.921875 13.554688 23.714844 13.867188 C 23.636719 13.941406 23.5625 14.015625 23.488281 14.09375 C 23.40625 14.175781 23.324219 14.253906 23.238281 14.339844 C 23.152344 14.425781 23.066406 14.507812 22.976562 14.59375 C 22.894531 14.679688 22.808594 14.765625 22.722656 14.851562 C 21.992188 15.570312 21.992188 15.570312 21.375 15.625 C 21.296875 15.5625 21.214844 15.5 21.132812 15.4375 C 20.875 15.207031 20.875 15.207031 20.496094 15.296875 C 20.363281 15.335938 20.230469 15.375 20.09375 15.414062 C 19.960938 15.453125 19.824219 15.492188 19.683594 15.53125 C 19.582031 15.5625 19.480469 15.59375 19.375 15.625 C 19.378906 15.765625 19.386719 15.902344 19.390625 16.046875 C 19.375 16.5 19.375 16.5 19.125 16.75 C 18.8125 16.78125 18.8125 16.78125 18.425781 16.78125 C 18.285156 16.78125 18.148438 16.785156 18.003906 16.785156 C 17.859375 16.78125 17.714844 16.78125 17.5625 16.78125 C 17.417969 16.78125 17.269531 16.78125 17.121094 16.785156 C 16.980469 16.785156 16.84375 16.78125 16.699219 16.78125 C 16.570312 16.78125 16.441406 16.78125 16.3125 16.78125 C 16 16.75 16 16.75 15.75 16.5 C 15.734375 16.046875 15.734375 16.046875 15.75 15.625 C 15.511719 15.550781 15.273438 15.480469 15.03125 15.414062 C 14.898438 15.375 14.765625 15.335938 14.625 15.296875 C 14.25 15.207031 14.25 15.207031 13.992188 15.4375 C 13.910156 15.5 13.832031 15.5625 13.75 15.625 C 13.003906 15.5625 12.652344 15.109375 12.148438 14.601562 C 12.0625 14.519531 11.976562 14.4375 11.886719 14.351562 C 11.273438 13.738281 11.273438 13.738281 11.171875 13.21875 C 11.25 12.875 11.25 12.875 11.453125 12.621094 C 11.507812 12.539062 11.566406 12.457031 11.625 12.375 C 11.5625 12.042969 11.5625 12.042969 11.398438 11.71875 C 11.347656 11.605469 11.300781 11.496094 11.246094 11.378906 C 11.207031 11.296875 11.167969 11.210938 11.125 11.125 C 10.984375 11.113281 10.847656 11.097656 10.703125 11.085938 C 10.554688 11.058594 10.402344 11.03125 10.25 11 C 9.976562 10.59375 9.96875 10.472656 9.964844 10 C 9.964844 9.878906 9.964844 9.757812 9.964844 9.632812 C 9.964844 9.507812 9.96875 9.378906 9.96875 9.25 C 9.96875 9.125 9.964844 8.996094 9.964844 8.867188 C 9.964844 8.746094 9.964844 8.625 9.964844 8.5 C 9.964844 8.390625 9.96875 8.277344 9.96875 8.164062 C 10 7.875 10 7.875 10.25 7.5 C 10.703125 7.414062 10.703125 7.414062 11.125 7.375 C 11.289062 6.921875 11.457031 6.46875 11.625 6 C 11.5 5.875 11.378906 5.753906 11.25 5.625 C 11.171875 5.289062 11.171875 5.289062 11.25 4.875 C 11.511719 4.507812 11.824219 4.207031 12.148438 3.898438 C 12.234375 3.8125 12.316406 3.726562 12.402344 3.640625 C 13.132812 2.929688 13.132812 2.929688 13.75 2.875 C 13.828125 2.9375 13.90625 3 13.992188 3.066406 C 14.25 3.292969 14.25 3.292969 14.625 3.203125 C 14.761719 3.164062 14.894531 3.125 15.03125 3.085938 C 15.164062 3.046875 15.300781 3.007812 15.4375 2.96875 C 15.542969 2.9375 15.644531 2.90625 15.75 2.875 C 15.746094 2.734375 15.738281 2.597656 15.734375 2.453125 C 15.761719 1.714844 16.039062 1.71875 16.699219 1.71875 Z M 14.5 6.375 C 13.726562 7.300781 13.289062 8.335938 13.332031 9.550781 C 13.5 10.816406 14.117188 11.871094 15.109375 12.664062 C 16.226562 13.4375 17.351562 13.546875 18.699219 13.320312 C 19.820312 13.003906 20.617188 12.242188 21.226562 11.277344 C 21.761719 10.285156 21.902344 9.121094 21.605469 8.027344 C 21.117188 6.75 20.328125 5.933594 19.113281 5.34375 C 17.464844 4.683594 15.730469 5.179688 14.5 6.375 Z M 14.5 6.375 "/>
<path style=" stroke:none;fill-rule:nonzero;fill:rgb(17.647059%,21.176471%,37.254903%);fill-opacity:1;" d="M 17.5 17.25 C 17.699219 17.300781 17.699219 17.300781 17.898438 17.355469 C 18.03125 17.394531 18.167969 17.4375 18.304688 17.476562 C 18.492188 17.53125 18.492188 17.53125 18.6875 17.589844 C 19 17.75 19 17.75 19.171875 18.058594 C 19.261719 18.417969 19.226562 18.644531 19.125 19 C 19.203125 19.035156 19.28125 19.074219 19.359375 19.109375 C 19.625 19.25 19.625 19.25 19.875 19.5 C 20.152344 19.53125 20.152344 19.53125 20.453125 19.515625 C 20.554688 19.515625 20.65625 19.511719 20.761719 19.507812 C 20.878906 19.503906 20.878906 19.503906 21 19.5 C 21.191406 19.839844 21.375 20.179688 21.5625 20.523438 C 21.617188 20.621094 21.671875 20.714844 21.726562 20.816406 C 22.242188 21.773438 22.242188 21.773438 22.125 22.25 C 21.957031 22.375 21.792969 22.5 21.625 22.625 C 21.539062 22.9375 21.539062 22.9375 21.53125 23.273438 C 21.519531 23.441406 21.519531 23.441406 21.511719 23.613281 C 21.507812 23.703125 21.503906 23.785156 21.5 23.875 C 21.746094 23.957031 21.996094 24.039062 22.25 24.125 C 22.285156 24.816406 22.179688 25.335938 21.953125 25.976562 C 21.925781 26.058594 21.898438 26.144531 21.867188 26.230469 C 21.742188 26.597656 21.652344 26.847656 21.375 27.125 C 20.707031 27.167969 20.707031 27.167969 20.375 27 C 20.339844 27.074219 20.308594 27.144531 20.273438 27.21875 C 20.125 27.5 20.125 27.5 19.914062 27.726562 C 19.671875 28.128906 19.78125 28.429688 19.875 28.875 C 19.320312 29.242188 18.761719 29.574219 18.164062 29.867188 C 18.050781 29.921875 17.941406 29.976562 17.828125 30.035156 C 17.5 30.125 17.5 30.125 17.152344 30.03125 C 16.875 29.875 16.875 29.875 16.773438 29.609375 C 16.761719 29.492188 16.761719 29.492188 16.75 29.375 C 16.625 29.417969 16.503906 29.457031 16.375 29.5 C 16.203125 29.507812 16.027344 29.511719 15.851562 29.507812 C 15.695312 29.503906 15.539062 29.503906 15.375 29.5 C 15.332031 29.707031 15.292969 29.914062 15.25 30.125 C 14.546875 30.316406 14.066406 30.160156 13.40625 29.921875 C 13.308594 29.890625 13.214844 29.859375 13.117188 29.828125 C 12.425781 29.582031 12.425781 29.582031 12.183594 29.191406 C 12.125 28.875 12.125 28.875 12.125 28.375 C 11.878906 28.003906 11.878906 28.003906 11.5 27.75 C 11.207031 27.785156 10.917969 27.828125 10.625 27.875 C 10.15625 27.511719 9.914062 27.03125 9.65625 26.507812 C 9.617188 26.429688 9.578125 26.355469 9.535156 26.277344 C 9.316406 25.832031 9.203125 25.496094 9.25 25 C 9.457031 24.917969 9.664062 24.835938 9.875 24.75 C 9.875 24.296875 9.875 23.84375 9.875 23.375 C 9.628906 23.292969 9.378906 23.210938 9.125 23.125 C 9.078125 22.398438 9.222656 21.875 9.492188 21.203125 C 9.527344 21.113281 9.5625 21.023438 9.597656 20.929688 C 9.855469 20.269531 9.855469 20.269531 10 20.125 C 10.335938 20.148438 10.667969 20.203125 11 20.25 C 11.035156 20.175781 11.066406 20.105469 11.101562 20.03125 C 11.25 19.75 11.25 19.75 11.460938 19.523438 C 11.703125 19.121094 11.578125 18.824219 11.5 18.375 C 11.835938 18.183594 12.175781 18 12.515625 17.8125 C 12.609375 17.757812 12.707031 17.703125 12.804688 17.648438 C 13.347656 17.355469 13.734375 17.175781 14.375 17.25 C 14.457031 17.457031 14.539062 17.664062 14.625 17.875 C 15.078125 17.832031 15.53125 17.792969 16 17.75 C 16.042969 17.542969 16.082031 17.335938 16.125 17.125 C 16.566406 16.90625 17.042969 17.128906 17.5 17.25 Z M 13.183594 21.503906 C 12.488281 22.429688 12.359375 23.359375 12.5 24.5 C 12.800781 25.503906 13.519531 26.085938 14.378906 26.621094 C 15.0625 26.976562 15.847656 26.984375 16.578125 26.785156 C 17.226562 26.546875 17.675781 26.292969 18.125 25.75 C 18.214844 25.648438 18.304688 25.546875 18.398438 25.445312 C 18.953125 24.660156 18.96875 23.808594 18.875 22.875 C 18.660156 22.046875 18.199219 21.371094 17.5 20.875 C 15.976562 20.105469 14.375 20.171875 13.183594 21.503906 Z M 13.183594 21.503906 "/>
<path style=" stroke:none;fill-rule:nonzero;fill:rgb(17.647059%,21.176471%,37.254903%);fill-opacity:1;" d="M 5.1875 9.96875 C 5.296875 9.96875 5.410156 9.964844 5.523438 9.964844 C 5.640625 9.96875 5.753906 9.96875 5.875 9.96875 C 5.992188 9.96875 6.109375 9.96875 6.226562 9.964844 C 6.390625 9.96875 6.390625 9.96875 6.5625 9.96875 C 6.664062 9.96875 6.765625 9.96875 6.871094 9.96875 C 7.125 10 7.125 10 7.375 10.25 C 7.390625 10.578125 7.390625 10.578125 7.375 10.875 C 7.617188 10.910156 7.617188 10.910156 7.867188 10.945312 C 7.957031 10.957031 8.050781 10.972656 8.144531 10.984375 C 8.257812 10.992188 8.257812 10.992188 8.375 11 C 8.417969 10.960938 8.457031 10.917969 8.5 10.875 C 8.863281 10.816406 9.132812 10.800781 9.453125 11.003906 C 9.664062 11.1875 9.855469 11.375 10.046875 11.578125 C 10.113281 11.644531 10.183594 11.707031 10.253906 11.777344 C 10.59375 12.121094 10.738281 12.289062 10.796875 12.785156 C 10.75 13.125 10.75 13.125 10.679688 13.382812 C 10.609375 13.699219 10.671875 13.9375 10.75 14.25 C 10.898438 14.242188 10.898438 14.242188 11.046875 14.234375 C 11.375 14.25 11.375 14.25 11.625 14.5 C 11.65625 14.753906 11.65625 14.753906 11.660156 15.0625 C 11.660156 15.230469 11.660156 15.230469 11.660156 15.398438 C 11.660156 15.515625 11.65625 15.628906 11.65625 15.75 C 11.65625 15.925781 11.65625 15.925781 11.660156 16.101562 C 11.660156 16.214844 11.660156 16.324219 11.660156 16.4375 C 11.65625 16.539062 11.65625 16.640625 11.65625 16.746094 C 11.625 17 11.625 17 11.375 17.25 C 11.046875 17.265625 11.046875 17.265625 10.75 17.25 C 10.726562 17.410156 10.703125 17.574219 10.679688 17.742188 C 10.667969 17.832031 10.652344 17.925781 10.640625 18.019531 C 10.636719 18.09375 10.628906 18.171875 10.625 18.25 C 10.667969 18.292969 10.707031 18.332031 10.75 18.375 C 10.808594 18.742188 10.828125 19.007812 10.617188 19.328125 C 10.433594 19.535156 10.242188 19.730469 10.039062 19.921875 C 9.972656 19.992188 9.90625 20.058594 9.839844 20.128906 C 9.539062 20.421875 9.328125 20.613281 8.910156 20.683594 C 8.625 20.625 8.625 20.625 8.25 20.375 C 7.792969 20.476562 7.792969 20.476562 7.375 20.625 C 7.378906 20.722656 7.386719 20.820312 7.390625 20.921875 C 7.375 21.25 7.375 21.25 7.125 21.5 C 6.871094 21.53125 6.871094 21.53125 6.5625 21.53125 C 6.453125 21.53125 6.339844 21.535156 6.226562 21.535156 C 6.109375 21.53125 5.996094 21.53125 5.875 21.53125 C 5.757812 21.53125 5.640625 21.53125 5.523438 21.535156 C 5.359375 21.535156 5.359375 21.535156 5.1875 21.53125 C 5.085938 21.53125 4.984375 21.53125 4.878906 21.53125 C 4.625 21.5 4.625 21.5 4.375 21.25 C 4.359375 20.921875 4.359375 20.921875 4.375 20.625 C 4.085938 20.542969 3.796875 20.460938 3.5 20.375 C 3.375 20.5 3.375 20.5 3.25 20.625 C 2.878906 20.6875 2.621094 20.703125 2.296875 20.5 C 2.082031 20.316406 1.890625 20.128906 1.695312 19.929688 C 1.625 19.867188 1.558594 19.800781 1.484375 19.734375 C 1.289062 19.539062 1.136719 19.367188 1 19.125 C 1.011719 18.6875 1.054688 18.390625 1.25 18 C 1.171875 17.75 1.089844 17.496094 1 17.25 C 0.851562 17.257812 0.851562 17.257812 0.703125 17.265625 C 0.375 17.25 0.375 17.25 0.125 17 C 0.09375 16.746094 0.09375 16.746094 0.0898438 16.4375 C 0.0898438 16.328125 0.0898438 16.214844 0.0898438 16.101562 C 0.09375 15.929688 0.09375 15.929688 0.09375 15.75 C 0.09375 15.632812 0.0898438 15.519531 0.0898438 15.398438 C 0.0898438 15.289062 0.0898438 15.175781 0.0898438 15.0625 C 0.09375 14.960938 0.09375 14.859375 0.09375 14.753906 C 0.125 14.5 0.125 14.5 0.375 14.25 C 0.703125 14.234375 0.703125 14.234375 1 14.25 C 1.046875 14.089844 1.09375 13.929688 1.140625 13.765625 C 1.167969 13.675781 1.191406 13.585938 1.21875 13.492188 C 1.230469 13.414062 1.238281 13.332031 1.25 13.25 C 1.167969 13.167969 1.085938 13.085938 1 13 C 0.941406 12.722656 0.941406 12.722656 1 12.375 C 1.226562 12.082031 1.441406 11.84375 1.703125 11.585938 C 1.769531 11.515625 1.832031 11.449219 1.902344 11.378906 C 2.246094 11.03125 2.410156 10.886719 2.910156 10.828125 C 3.25 10.875 3.25 10.875 3.507812 10.945312 C 3.824219 11.015625 4.0625 10.953125 4.375 10.875 C 4.371094 10.777344 4.363281 10.679688 4.359375 10.578125 C 4.386719 9.992188 4.675781 9.96875 5.1875 9.96875 Z M 3.5 14.125 C 3.035156 14.867188 3.023438 15.648438 3.125 16.5 C 3.34375 17.273438 3.832031 17.816406 4.5 18.25 C 5.253906 18.613281 6.113281 18.640625 6.917969 18.417969 C 7.714844 18.0625 8.261719 17.4375 8.617188 16.648438 C 8.839844 15.953125 8.796875 15.261719 8.503906 14.59375 C 7.976562 13.6875 7.257812 13.148438 6.25 12.875 C 5.171875 12.710938 4.1875 13.351562 3.5 14.125 Z M 3.5 14.125 "/>
<path style=" stroke:none;fill-rule:nonzero;fill:rgb(100%,40.784314%,34.901962%);fill-opacity:1;" d="M 26.671875 14.269531 C 27.019531 14.382812 27.308594 14.523438 27.625 14.703125 C 27.742188 14.769531 27.859375 14.835938 27.980469 14.90625 C 28.105469 14.980469 28.230469 15.050781 28.359375 15.125 C 28.488281 15.199219 28.613281 15.269531 28.746094 15.347656 C 31.625 17 31.625 17 31.875 17.25 C 31.910156 17.546875 31.910156 17.546875 31.875 17.875 C 31.6875 18.066406 31.6875 18.066406 31.414062 18.230469 C 31.3125 18.292969 31.210938 18.355469 31.105469 18.417969 C 30.988281 18.488281 30.871094 18.554688 30.75 18.625 C 30.621094 18.699219 30.496094 18.777344 30.363281 18.855469 C 29.941406 19.101562 29.519531 19.34375 29.09375 19.585938 C 28.808594 19.75 28.519531 19.914062 28.230469 20.078125 C 28.105469 20.152344 27.980469 20.222656 27.851562 20.296875 C 27.621094 20.429688 27.390625 20.570312 27.164062 20.710938 C 26.824219 20.902344 26.632812 20.9375 26.25 20.875 C 25.984375 20.476562 25.96875 20.371094 25.984375 19.914062 C 25.988281 19.8125 25.988281 19.710938 25.992188 19.605469 C 25.996094 19.53125 25.996094 19.453125 26 19.375 C 25.890625 19.378906 25.785156 19.378906 25.671875 19.382812 C 25.273438 19.386719 24.871094 19.390625 24.472656 19.394531 C 24.296875 19.398438 24.125 19.398438 23.953125 19.402344 C 23.703125 19.40625 23.453125 19.410156 23.203125 19.410156 C 23.054688 19.414062 22.90625 19.417969 22.75 19.417969 C 22.375 19.375 22.375 19.375 22.136719 19.226562 C 21.949219 18.917969 21.953125 18.703125 21.953125 18.34375 C 21.953125 18.152344 21.953125 18.152344 21.953125 17.957031 C 21.957031 17.824219 21.960938 17.691406 21.960938 17.554688 C 21.960938 17.421875 21.960938 17.289062 21.960938 17.152344 C 21.96875 16.160156 21.96875 16.160156 22.25 15.875 C 22.625 15.847656 22.625 15.847656 23.09375 15.851562 C 23.21875 15.851562 23.21875 15.851562 23.34375 15.851562 C 23.609375 15.855469 23.875 15.855469 24.140625 15.859375 C 24.320312 15.859375 24.5 15.863281 24.679688 15.863281 C 25.121094 15.867188 25.558594 15.871094 26 15.875 C 25.996094 15.789062 25.992188 15.703125 25.988281 15.613281 C 25.984375 15.503906 25.980469 15.390625 25.976562 15.273438 C 25.96875 15.105469 25.96875 15.105469 25.964844 14.933594 C 26 14.625 26 14.625 26.148438 14.386719 C 26.375 14.25 26.375 14.25 26.671875 14.269531 Z M 26.671875 14.269531 "/>
<path style=" stroke:none;fill-rule:nonzero;fill:rgb(17.647059%,21.176471%,37.254903%);fill-opacity:1;" d="M 19.347656 6.421875 C 20.179688 7.027344 20.675781 7.738281 20.875 8.75 C 20.980469 9.699219 20.746094 10.605469 20.1875 11.390625 C 19.574219 12.054688 18.882812 12.4375 17.980469 12.546875 C 16.90625 12.585938 16.117188 12.402344 15.28125 11.71875 C 14.554688 10.832031 14.199219 10.117188 14.214844 8.964844 C 14.308594 8.050781 14.695312 7.296875 15.378906 6.683594 C 16.566406 5.796875 18.050781 5.671875 19.347656 6.421875 Z M 19.347656 6.421875 "/>
<path style=" stroke:none;fill-rule:nonzero;fill:rgb(17.647059%,21.176471%,37.254903%);fill-opacity:1;" d="M 17 21.625 C 17.523438 21.972656 17.796875 22.277344 18 22.875 C 18.105469 23.804688 18.078125 24.5 17.5 25.25 C 16.953125 25.765625 16.457031 26.007812 15.710938 26.046875 C 15.007812 26.027344 14.441406 25.800781 13.929688 25.3125 C 13.355469 24.65625 13.332031 24.089844 13.339844 23.253906 C 13.402344 22.566406 13.679688 22.191406 14.171875 21.710938 C 15.125 21.097656 16.003906 21.109375 17 21.625 Z M 17 21.625 "/>
<path style=" stroke:none;fill-rule:nonzero;fill:rgb(17.647059%,21.176471%,37.254903%);fill-opacity:1;" d="M 7.03125 14.070312 C 7.535156 14.519531 7.847656 14.976562 7.894531 15.664062 C 7.851562 16.308594 7.675781 16.75 7.25 17.25 C 6.667969 17.667969 6.203125 17.710938 5.503906 17.695312 C 4.886719 17.582031 4.515625 17.222656 4.125 16.75 C 3.863281 16.226562 3.945312 15.570312 4 15 C 4.308594 14.347656 4.695312 14.054688 5.351562 13.78125 C 5.976562 13.710938 6.472656 13.800781 7.03125 14.070312 Z M 7.03125 14.070312 "/>
</g>
</svg>
