<?xml version="1.0" encoding="UTF-8"?>
<svg xmlns="http://www.w3.org/2000/svg" xmlns:xlink="http://www.w3.org/1999/xlink" width="32" height="32" viewBox="0 0 32 32" version="1.1">
<g id="surface1">
<path style=" stroke:none;fill-rule:nonzero;fill:rgb(96.862745%,36.078432%,38.431373%);fill-opacity:1;" d="M 24.445312 1.96875 C 25.96875 3.121094 27.023438 4.6875 27.300781 6.601562 C 27.542969 8.894531 26.925781 10.722656 25.5 12.5 C 25.023438 13.023438 24.53125 13.527344 24.027344 14.023438 C 23.886719 14.167969 23.746094 14.308594 23.605469 14.449219 C 23.3125 14.746094 23.019531 15.039062 22.722656 15.332031 C 22.347656 15.707031 21.976562 16.082031 21.605469 16.457031 C 21.3125 16.75 21.023438 17.039062 20.730469 17.332031 C 20.59375 17.46875 20.457031 17.609375 20.320312 17.746094 C 18.648438 19.429688 16.824219 20.589844 14.398438 20.664062 C 13.570312 20.652344 12.796875 20.464844 12 20.25 C 12 19.425781 12.617188 19.019531 13.171875 18.457031 C 13.957031 17.710938 14.550781 17.542969 15.625 17.5 C 17.464844 16.96875 19 14.789062 20.332031 13.46875 C 20.589844 13.214844 20.847656 12.957031 21.109375 12.703125 C 21.429688 12.394531 21.742188 12.082031 22.058594 11.765625 C 22.234375 11.59375 22.410156 11.421875 22.589844 11.25 C 23.585938 10.246094 24.292969 9.160156 24.40625 7.726562 C 24.328125 6.539062 23.886719 5.476562 23.015625 4.652344 C 21.921875 3.78125 20.886719 3.613281 19.5 3.75 C 17.898438 4.089844 16.753906 5.597656 15.640625 6.703125 C 15.582031 6.765625 15.519531 6.824219 15.457031 6.886719 C 15.132812 7.210938 14.804688 7.53125 14.484375 7.855469 C 14.152344 8.183594 13.820312 8.515625 13.484375 8.839844 C 13.226562 9.097656 12.96875 9.355469 12.710938 9.613281 C 12.589844 9.734375 12.464844 9.855469 12.34375 9.976562 C 11.121094 11.144531 11.121094 11.144531 10.585938 12.691406 C 10.59375 12.902344 10.59375 12.902344 10.601562 13.117188 C 10.46875 14.574219 9.164062 15.46875 8.125 16.375 C 7.875 16.25 7.875 16.25 7.769531 16.023438 C 7.203125 14.183594 7.324219 12.148438 8.160156 10.417969 C 8.925781 9.042969 10.152344 7.953125 11.25 6.847656 C 11.3125 6.78125 11.375 6.71875 11.441406 6.652344 C 11.777344 6.316406 12.113281 5.976562 12.449219 5.640625 C 12.789062 5.296875 13.132812 4.949219 13.472656 4.605469 C 13.742188 4.332031 14.007812 4.066406 14.273438 3.796875 C 14.402344 3.671875 14.527344 3.542969 14.652344 3.414062 C 15.632812 2.417969 16.679688 1.484375 18.046875 1.078125 C 18.167969 1.042969 18.285156 1.003906 18.410156 0.964844 C 20.503906 0.40625 22.652344 0.746094 24.445312 1.96875 Z M 24.445312 1.96875 "/>
<path style=" stroke:none;fill-rule:nonzero;fill:rgb(96.078432%,27.450982%,44.313726%);fill-opacity:1;" d="M 20 11.75 C 20 12.574219 19.382812 12.980469 18.828125 13.542969 C 18.183594 14.15625 17.699219 14.472656 16.78125 14.453125 C 15.421875 14.605469 14.492188 15.660156 13.578125 16.582031 C 13.433594 16.726562 13.289062 16.871094 13.144531 17.015625 C 12.84375 17.316406 12.542969 17.617188 12.242188 17.921875 C 11.859375 18.304688 11.472656 18.6875 11.089844 19.066406 C 10.789062 19.363281 10.488281 19.664062 10.195312 19.960938 C 10.050781 20.101562 9.910156 20.242188 9.765625 20.382812 C 8.640625 21.496094 7.722656 22.636719 7.59375 24.273438 C 7.671875 25.460938 8.113281 26.523438 8.984375 27.347656 C 10.078125 28.21875 11.113281 28.386719 12.5 28.25 C 14.515625 27.824219 16.097656 25.566406 17.511719 24.167969 C 17.773438 23.902344 18.039062 23.640625 18.304688 23.382812 C 18.632812 23.066406 18.953125 22.746094 19.277344 22.421875 C 19.457031 22.246094 19.640625 22.070312 19.820312 21.890625 C 20.75 20.960938 21.53125 19.96875 21.539062 18.609375 C 21.570312 17.820312 21.878906 17.476562 22.4375 16.945312 C 22.542969 16.847656 22.648438 16.753906 22.757812 16.65625 C 22.863281 16.554688 22.972656 16.453125 23.082031 16.351562 C 23.34375 16.105469 23.609375 15.863281 23.875 15.625 C 24.125 15.75 24.125 15.75 24.230469 15.976562 C 24.796875 17.816406 24.675781 19.851562 23.839844 21.582031 C 23.078125 22.957031 21.847656 24.046875 20.75 25.152344 C 20.6875 25.21875 20.625 25.28125 20.558594 25.347656 C 20.222656 25.683594 19.886719 26.023438 19.550781 26.359375 C 19.207031 26.703125 18.867188 27.050781 18.527344 27.394531 C 18.261719 27.667969 17.992188 27.933594 17.726562 28.203125 C 17.597656 28.328125 17.472656 28.457031 17.347656 28.585938 C 16.367188 29.582031 15.320312 30.515625 13.953125 30.921875 C 13.832031 30.957031 13.714844 30.996094 13.589844 31.035156 C 11.765625 31.519531 9.84375 31.332031 8.179688 30.4375 C 6.488281 29.394531 5.523438 28.042969 4.84375 26.203125 C 4.4375 24.246094 4.613281 22.269531 5.703125 20.558594 C 6.378906 19.609375 7.148438 18.792969 7.972656 17.976562 C 8.113281 17.832031 8.253906 17.691406 8.394531 17.550781 C 8.6875 17.253906 8.984375 16.960938 9.277344 16.667969 C 9.652344 16.292969 10.023438 15.917969 10.394531 15.542969 C 10.6875 15.25 10.976562 14.960938 11.269531 14.667969 C 11.40625 14.53125 11.546875 14.390625 11.679688 14.253906 C 14.085938 11.824219 16.625 10.820312 20 11.75 Z M 20 11.75 "/>
</g>
</svg>
