<?xml version="1.0" encoding="UTF-8"?>
<svg xmlns="http://www.w3.org/2000/svg" xmlns:xlink="http://www.w3.org/1999/xlink" width="32" height="32" viewBox="0 0 32 32" version="1.1">
<g id="surface1">
<path style=" stroke:none;fill-rule:nonzero;fill:rgb(16.862746%,73.333335%,91.37255%);fill-opacity:1;" d="M 3.71875 12.449219 C 3.839844 12.449219 3.839844 12.449219 3.964844 12.449219 C 4.140625 12.449219 4.3125 12.449219 4.484375 12.453125 C 4.75 12.453125 5.011719 12.453125 5.277344 12.449219 C 5.445312 12.449219 5.613281 12.449219 5.78125 12.449219 C 5.933594 12.449219 6.085938 12.453125 6.242188 12.453125 C 6.625 12.5 6.625 12.5 6.863281 12.667969 C 7.082031 13.003906 7.035156 13.316406 7.023438 13.710938 C 7.019531 13.933594 7.019531 13.933594 7.015625 14.15625 C 7.007812 14.269531 7.003906 14.382812 7 14.5 C 7.328125 14.5 7.660156 14.5 8 14.5 C 7.992188 14.332031 7.992188 14.332031 7.984375 14.15625 C 7.984375 14.011719 7.980469 13.863281 7.976562 13.710938 C 7.972656 13.5625 7.96875 13.417969 7.964844 13.269531 C 8 12.875 8 12.875 8.136719 12.667969 C 8.492188 12.417969 8.789062 12.453125 9.21875 12.449219 C 9.339844 12.449219 9.339844 12.449219 9.464844 12.449219 C 9.640625 12.449219 9.8125 12.449219 9.984375 12.453125 C 10.25 12.453125 10.511719 12.453125 10.777344 12.449219 C 10.945312 12.449219 11.113281 12.449219 11.28125 12.449219 C 11.433594 12.449219 11.585938 12.453125 11.742188 12.453125 C 12.125 12.5 12.125 12.5 12.363281 12.667969 C 12.582031 13.003906 12.535156 13.316406 12.523438 13.710938 C 12.519531 13.933594 12.519531 13.933594 12.515625 14.15625 C 12.507812 14.269531 12.503906 14.382812 12.5 14.5 C 12.996094 14.5 13.488281 14.5 14 14.5 C 13.992188 14.332031 13.992188 14.332031 13.984375 14.15625 C 13.984375 14.011719 13.980469 13.863281 13.976562 13.710938 C 13.972656 13.5625 13.96875 13.417969 13.964844 13.269531 C 14 12.875 14 12.875 14.136719 12.667969 C 14.492188 12.417969 14.789062 12.453125 15.21875 12.449219 C 15.339844 12.449219 15.339844 12.449219 15.464844 12.449219 C 15.640625 12.449219 15.8125 12.449219 15.984375 12.453125 C 16.25 12.453125 16.511719 12.453125 16.777344 12.449219 C 16.945312 12.449219 17.113281 12.449219 17.28125 12.449219 C 17.433594 12.449219 17.585938 12.453125 17.742188 12.453125 C 18.125 12.5 18.125 12.5 18.363281 12.667969 C 18.582031 13.003906 18.535156 13.316406 18.523438 13.710938 C 18.519531 13.933594 18.519531 13.933594 18.515625 14.15625 C 18.507812 14.269531 18.503906 14.382812 18.5 14.5 C 18.601562 14.492188 18.703125 14.488281 18.808594 14.484375 C 18.945312 14.476562 19.078125 14.472656 19.21875 14.46875 C 19.351562 14.460938 19.484375 14.457031 19.621094 14.453125 C 20.097656 14.511719 20.207031 14.628906 20.5 15 C 20.5625 15.339844 20.5625 15.339844 20.566406 15.738281 C 20.566406 15.886719 20.566406 16.035156 20.570312 16.1875 C 20.570312 16.347656 20.566406 16.507812 20.566406 16.671875 C 20.566406 16.835938 20.566406 17 20.566406 17.171875 C 20.570312 17.519531 20.566406 17.867188 20.566406 18.214844 C 20.5625 18.660156 20.5625 19.105469 20.566406 19.550781 C 20.570312 19.976562 20.566406 20.402344 20.566406 20.828125 C 20.566406 20.988281 20.570312 21.148438 20.570312 21.3125 C 20.566406 21.535156 20.566406 21.535156 20.566406 21.761719 C 20.5625 21.894531 20.5625 22.023438 20.5625 22.160156 C 20.480469 22.597656 20.351562 22.722656 20 23 C 19.636719 23.0625 19.636719 23.0625 19.203125 23.0625 C 18.957031 23.066406 18.957031 23.066406 18.707031 23.066406 C 18.523438 23.066406 18.34375 23.066406 18.160156 23.066406 C 17.96875 23.066406 17.777344 23.066406 17.585938 23.066406 C 17.066406 23.070312 16.546875 23.070312 16.027344 23.066406 C 15.484375 23.066406 14.941406 23.066406 14.398438 23.066406 C 13.484375 23.070312 12.570312 23.066406 11.660156 23.066406 C 10.601562 23.0625 9.546875 23.0625 8.492188 23.066406 C 7.585938 23.070312 6.679688 23.070312 5.773438 23.066406 C 5.230469 23.066406 4.691406 23.066406 4.148438 23.066406 C 3.640625 23.070312 3.132812 23.070312 2.621094 23.066406 C 2.433594 23.066406 2.25 23.066406 2.0625 23.066406 C 1.804688 23.066406 1.550781 23.066406 1.296875 23.0625 C 1.152344 23.0625 1.011719 23.0625 0.863281 23.0625 C 0.417969 22.988281 0.269531 22.855469 0 22.5 C -0.0625 22.160156 -0.0625 22.160156 -0.0664062 21.761719 C -0.0664062 21.613281 -0.0664062 21.464844 -0.0703125 21.3125 C -0.0664062 21.074219 -0.0664062 21.074219 -0.0664062 20.828125 C -0.0664062 20.664062 -0.0664062 20.5 -0.0664062 20.328125 C -0.0703125 19.980469 -0.0664062 19.632812 -0.0664062 19.285156 C -0.0625 18.839844 -0.0625 18.394531 -0.0664062 17.949219 C -0.0703125 17.523438 -0.0664062 17.097656 -0.0664062 16.671875 C -0.0664062 16.511719 -0.0703125 16.351562 -0.0703125 16.1875 C -0.0664062 16.039062 -0.0664062 15.890625 -0.0664062 15.738281 C -0.0625 15.605469 -0.0625 15.476562 -0.0625 15.339844 C 0.015625 14.910156 0.152344 14.761719 0.5 14.5 C 0.859375 14.464844 1.171875 14.453125 1.53125 14.46875 C 1.671875 14.472656 1.671875 14.472656 1.8125 14.476562 C 2.042969 14.480469 2.269531 14.488281 2.5 14.5 C 2.492188 14.332031 2.492188 14.332031 2.484375 14.15625 C 2.484375 14.011719 2.480469 13.863281 2.476562 13.710938 C 2.472656 13.5625 2.46875 13.417969 2.464844 13.269531 C 2.5 12.875 2.5 12.875 2.636719 12.667969 C 2.992188 12.417969 3.289062 12.453125 3.71875 12.449219 Z M 3.71875 12.449219 "/>
<path style=" stroke:none;fill-rule:nonzero;fill:rgb(96.470588%,49.019608%,62.352943%);fill-opacity:1;" d="M 18.5 0 C 18.972656 0.222656 19.40625 0.503906 19.84375 0.789062 C 20.019531 0.898438 20.019531 0.898438 20.203125 1.015625 C 21.25 1.683594 21.25 1.683594 21.5 2 C 21.488281 2.769531 21.289062 3.234375 20.875 3.875 C 21.171875 4.109375 21.382812 4.253906 21.75 4.375 C 21.800781 4.238281 21.800781 4.238281 21.851562 4.101562 C 22.234375 3.195312 22.234375 3.195312 22.625 3 C 23.394531 2.921875 23.808594 3.113281 24.429688 3.515625 C 24.511719 3.566406 24.59375 3.617188 24.675781 3.671875 C 26.015625 4.515625 26.015625 4.515625 26.5 5 C 26.453125 5.671875 26.359375 6.050781 26 6.625 C 26.082031 7.015625 26.082031 7.015625 26.382812 7.148438 C 26.460938 7.183594 26.542969 7.214844 26.625 7.25 C 26.675781 7.171875 26.726562 7.089844 26.78125 7.007812 C 26.847656 6.90625 26.914062 6.800781 26.984375 6.695312 C 27.050781 6.59375 27.117188 6.488281 27.1875 6.382812 C 27.375 6.125 27.375 6.125 27.625 6 C 28.394531 5.921875 28.808594 6.113281 29.429688 6.515625 C 29.550781 6.59375 29.550781 6.59375 29.675781 6.671875 C 31.015625 7.515625 31.015625 7.515625 31.5 8 C 31.453125 8.679688 31.34375 9.152344 31 9.75 C 31.074219 9.792969 31.144531 9.835938 31.21875 9.878906 C 31.3125 9.941406 31.40625 10 31.5 10.0625 C 31.59375 10.121094 31.6875 10.179688 31.78125 10.238281 C 32.042969 10.550781 32.097656 10.78125 32.074219 11.1875 C 31.902344 11.914062 31.460938 12.546875 31.078125 13.179688 C 30.984375 13.335938 30.894531 13.492188 30.800781 13.648438 C 30.621094 13.957031 30.4375 14.265625 30.253906 14.574219 C 30.035156 14.945312 29.816406 15.316406 29.601562 15.6875 C 29.492188 15.878906 29.382812 16.066406 29.273438 16.257812 C 29.226562 16.34375 29.175781 16.425781 29.125 16.515625 C 28.582031 17.445312 28.582031 17.445312 28.140625 17.5625 C 27.222656 17.589844 26.617188 17.203125 25.859375 16.726562 C 25.59375 16.566406 25.324219 16.402344 25.058594 16.242188 C 24.921875 16.160156 24.789062 16.078125 24.648438 15.992188 C 24.046875 15.625 23.429688 15.28125 22.8125 14.9375 C 21.832031 14.386719 20.859375 13.828125 19.890625 13.257812 C 18.871094 12.660156 17.84375 12.074219 16.8125 11.5 C 15.746094 10.90625 14.679688 10.300781 13.625 9.6875 C 13.441406 9.582031 13.441406 9.582031 13.257812 9.472656 C 11.375 8.375 11.375 8.375 11 8 C 10.828125 6.949219 11.398438 6.1875 11.921875 5.320312 C 12.015625 5.164062 12.105469 5.007812 12.199219 4.851562 C 12.378906 4.542969 12.5625 4.234375 12.746094 3.925781 C 12.964844 3.554688 13.179688 3.183594 13.394531 2.8125 C 13.449219 2.714844 13.503906 2.613281 13.5625 2.515625 C 13.664062 2.339844 13.765625 2.164062 13.863281 1.984375 C 14.109375 1.566406 14.320312 1.238281 14.75 1 C 15.441406 0.933594 15.796875 0.964844 16.375 1.375 C 16.457031 1.375 16.539062 1.375 16.625 1.375 C 16.816406 1.097656 16.816406 1.097656 17 0.757812 C 17.382812 0.0742188 17.695312 -0.160156 18.5 0 Z M 18.5 0 "/>
<path style=" stroke:none;fill-rule:nonzero;fill:rgb(99.607843%,85.490197%,30.980393%);fill-opacity:1;" d="M 26.71875 21.449219 C 26.839844 21.449219 26.839844 21.449219 26.964844 21.449219 C 27.140625 21.449219 27.3125 21.449219 27.484375 21.453125 C 27.75 21.453125 28.011719 21.453125 28.277344 21.449219 C 28.445312 21.449219 28.613281 21.449219 28.78125 21.449219 C 28.933594 21.449219 29.085938 21.453125 29.242188 21.453125 C 29.625 21.5 29.625 21.5 29.863281 21.667969 C 30.082031 22.003906 30.035156 22.316406 30.023438 22.710938 C 30.019531 22.933594 30.019531 22.933594 30.015625 23.15625 C 30.007812 23.269531 30.003906 23.382812 30 23.5 C 30.101562 23.492188 30.203125 23.488281 30.308594 23.484375 C 30.445312 23.476562 30.578125 23.472656 30.71875 23.46875 C 30.851562 23.460938 30.984375 23.457031 31.121094 23.453125 C 31.597656 23.511719 31.707031 23.628906 32 24 C 32.0625 24.339844 32.0625 24.339844 32.066406 24.738281 C 32.066406 24.886719 32.066406 25.035156 32.070312 25.1875 C 32.070312 25.347656 32.066406 25.507812 32.066406 25.671875 C 32.066406 25.835938 32.066406 26 32.066406 26.171875 C 32.070312 26.519531 32.066406 26.867188 32.066406 27.214844 C 32.0625 27.660156 32.0625 28.105469 32.066406 28.550781 C 32.070312 28.976562 32.066406 29.402344 32.066406 29.828125 C 32.066406 29.988281 32.070312 30.148438 32.070312 30.3125 C 32.066406 30.535156 32.066406 30.535156 32.066406 30.761719 C 32.0625 30.894531 32.0625 31.023438 32.0625 31.160156 C 31.980469 31.597656 31.851562 31.722656 31.5 32 C 31.136719 32.0625 31.136719 32.0625 30.703125 32.0625 C 30.457031 32.066406 30.457031 32.066406 30.207031 32.066406 C 30.023438 32.066406 29.84375 32.066406 29.660156 32.066406 C 29.46875 32.066406 29.277344 32.066406 29.085938 32.066406 C 28.566406 32.070312 28.046875 32.070312 27.527344 32.066406 C 26.984375 32.066406 26.441406 32.066406 25.898438 32.066406 C 24.984375 32.070312 24.070312 32.066406 23.160156 32.066406 C 22.101562 32.0625 21.046875 32.0625 19.992188 32.066406 C 19.085938 32.070312 18.179688 32.070312 17.273438 32.066406 C 16.730469 32.066406 16.191406 32.066406 15.648438 32.066406 C 15.140625 32.070312 14.632812 32.070312 14.121094 32.066406 C 13.933594 32.066406 13.75 32.066406 13.5625 32.066406 C 13.304688 32.066406 13.050781 32.066406 12.796875 32.0625 C 12.652344 32.0625 12.511719 32.0625 12.363281 32.0625 C 11.917969 31.988281 11.769531 31.855469 11.5 31.5 C 11.4375 31.160156 11.4375 31.160156 11.433594 30.761719 C 11.433594 30.613281 11.433594 30.464844 11.429688 30.3125 C 11.433594 30.074219 11.433594 30.074219 11.433594 29.828125 C 11.433594 29.664062 11.433594 29.5 11.433594 29.328125 C 11.429688 28.980469 11.433594 28.632812 11.433594 28.285156 C 11.4375 27.839844 11.4375 27.394531 11.433594 26.949219 C 11.429688 26.523438 11.433594 26.097656 11.433594 25.671875 C 11.433594 25.511719 11.429688 25.351562 11.429688 25.1875 C 11.433594 25.039062 11.433594 24.890625 11.433594 24.738281 C 11.4375 24.605469 11.4375 24.476562 11.4375 24.339844 C 11.5 24 11.5 24 11.671875 23.707031 C 12.191406 23.378906 12.695312 23.433594 13.296875 23.441406 C 13.425781 23.441406 13.558594 23.441406 13.695312 23.441406 C 14.132812 23.445312 14.566406 23.449219 15.003906 23.453125 C 15.304688 23.453125 15.605469 23.453125 15.90625 23.453125 C 16.703125 23.457031 17.496094 23.460938 18.292969 23.464844 C 19.105469 23.46875 19.914062 23.472656 20.726562 23.476562 C 22.316406 23.480469 23.910156 23.488281 25.5 23.5 C 25.492188 23.332031 25.492188 23.332031 25.484375 23.15625 C 25.484375 23.011719 25.480469 22.863281 25.476562 22.710938 C 25.472656 22.5625 25.46875 22.417969 25.464844 22.269531 C 25.5 21.875 25.5 21.875 25.664062 21.636719 C 26.003906 21.414062 26.320312 21.453125 26.71875 21.449219 Z M 26.71875 21.449219 "/>
<path style=" stroke:none;fill-rule:nonzero;fill:rgb(98.431373%,67.843139%,29.019609%);fill-opacity:1;" d="M 1.421875 23.433594 C 1.511719 23.433594 1.605469 23.433594 1.699219 23.433594 C 2.003906 23.429688 2.304688 23.429688 2.609375 23.433594 C 2.820312 23.433594 3.03125 23.433594 3.242188 23.429688 C 3.683594 23.429688 4.128906 23.433594 4.570312 23.433594 C 5.136719 23.4375 5.703125 23.4375 6.269531 23.433594 C 6.703125 23.429688 7.140625 23.429688 7.574219 23.433594 C 7.785156 23.433594 7.996094 23.433594 8.203125 23.429688 C 8.496094 23.429688 8.789062 23.433594 9.078125 23.433594 C 9.164062 23.433594 9.253906 23.433594 9.339844 23.433594 C 9.738281 23.4375 9.972656 23.480469 10.304688 23.707031 C 10.550781 24.078125 10.5625 24.296875 10.566406 24.738281 C 10.566406 24.886719 10.570312 25.035156 10.570312 25.1875 C 10.570312 25.347656 10.566406 25.507812 10.566406 25.671875 C 10.566406 25.917969 10.566406 25.917969 10.570312 26.171875 C 10.570312 26.519531 10.566406 26.867188 10.566406 27.214844 C 10.5625 27.660156 10.5625 28.105469 10.566406 28.550781 C 10.570312 28.976562 10.566406 29.402344 10.566406 29.828125 C 10.566406 29.988281 10.570312 30.148438 10.570312 30.3125 C 10.570312 30.460938 10.566406 30.609375 10.566406 30.761719 C 10.566406 30.894531 10.5625 31.023438 10.5625 31.160156 C 10.5 31.5 10.5 31.5 10.304688 31.792969 C 9.898438 32.070312 9.550781 32.070312 9.078125 32.066406 C 8.988281 32.066406 8.894531 32.066406 8.800781 32.066406 C 8.496094 32.070312 8.195312 32.066406 7.890625 32.066406 C 7.679688 32.066406 7.46875 32.066406 7.257812 32.066406 C 6.816406 32.070312 6.375 32.066406 5.929688 32.066406 C 5.363281 32.0625 4.796875 32.0625 4.230469 32.066406 C 3.796875 32.070312 3.359375 32.066406 2.921875 32.066406 C 2.714844 32.066406 2.507812 32.066406 2.296875 32.066406 C 2.003906 32.070312 1.714844 32.066406 1.421875 32.066406 C 1.292969 32.066406 1.292969 32.066406 1.160156 32.066406 C 0.757812 32.058594 0.527344 32.019531 0.195312 31.792969 C -0.0507812 31.425781 -0.0625 31.207031 -0.0625 30.761719 C -0.0664062 30.613281 -0.0664062 30.464844 -0.0703125 30.3125 C -0.0664062 30.074219 -0.0664062 30.074219 -0.0664062 29.828125 C -0.0664062 29.664062 -0.0664062 29.5 -0.0664062 29.328125 C -0.0703125 28.980469 -0.0664062 28.632812 -0.0664062 28.285156 C -0.0625 27.839844 -0.0625 27.394531 -0.0664062 26.949219 C -0.0703125 26.523438 -0.0664062 26.097656 -0.0664062 25.671875 C -0.0664062 25.511719 -0.0664062 25.351562 -0.0703125 25.1875 C -0.0664062 25.039062 -0.0664062 24.890625 -0.0625 24.738281 C -0.0625 24.605469 -0.0625 24.476562 -0.0625 24.339844 C 0 24 0 24 0.195312 23.707031 C 0.601562 23.429688 0.945312 23.429688 1.421875 23.433594 Z M 1.421875 23.433594 "/>
<path style=" stroke:none;fill-rule:nonzero;fill:rgb(1.176471%,0.392157%,0.784314%);fill-opacity:1;" d="M 18.5 0 C 18.972656 0.222656 19.40625 0.503906 19.84375 0.789062 C 20.019531 0.898438 20.019531 0.898438 20.203125 1.015625 C 21.25 1.683594 21.25 1.683594 21.5 2 C 21.488281 2.769531 21.289062 3.234375 20.875 3.875 C 21.171875 4.109375 21.382812 4.253906 21.75 4.375 C 21.800781 4.238281 21.800781 4.238281 21.851562 4.101562 C 22.234375 3.195312 22.234375 3.195312 22.625 3 C 23.394531 2.921875 23.808594 3.113281 24.429688 3.515625 C 24.511719 3.566406 24.59375 3.617188 24.675781 3.671875 C 26.015625 4.515625 26.015625 4.515625 26.5 5 C 26.453125 5.671875 26.359375 6.050781 26 6.625 C 26.082031 7.015625 26.082031 7.015625 26.382812 7.148438 C 26.460938 7.183594 26.542969 7.214844 26.625 7.25 C 26.675781 7.171875 26.726562 7.089844 26.78125 7.007812 C 26.847656 6.90625 26.914062 6.800781 26.984375 6.695312 C 27.050781 6.59375 27.117188 6.488281 27.1875 6.382812 C 27.375 6.125 27.375 6.125 27.625 6 C 28.394531 5.921875 28.808594 6.113281 29.429688 6.515625 C 29.550781 6.59375 29.550781 6.59375 29.675781 6.671875 C 31.015625 7.515625 31.015625 7.515625 31.5 8 C 31.453125 8.679688 31.34375 9.152344 31 9.75 C 31.074219 9.792969 31.144531 9.835938 31.21875 9.878906 C 31.3125 9.941406 31.40625 10 31.5 10.0625 C 31.59375 10.121094 31.6875 10.179688 31.78125 10.238281 C 32.042969 10.550781 32.097656 10.78125 32.074219 11.1875 C 31.902344 11.914062 31.460938 12.546875 31.078125 13.179688 C 30.984375 13.335938 30.894531 13.492188 30.800781 13.648438 C 30.621094 13.957031 30.4375 14.265625 30.253906 14.574219 C 30.035156 14.945312 29.816406 15.316406 29.601562 15.6875 C 29.492188 15.878906 29.382812 16.066406 29.273438 16.257812 C 29.226562 16.34375 29.175781 16.425781 29.125 16.515625 C 28.582031 17.445312 28.582031 17.445312 28.140625 17.5625 C 27.222656 17.589844 26.617188 17.203125 25.859375 16.726562 C 25.59375 16.566406 25.324219 16.402344 25.058594 16.242188 C 24.921875 16.160156 24.789062 16.078125 24.648438 15.992188 C 24.046875 15.625 23.429688 15.28125 22.8125 14.9375 C 21.832031 14.386719 20.859375 13.828125 19.890625 13.257812 C 18.871094 12.660156 17.84375 12.074219 16.8125 11.5 C 15.746094 10.90625 14.679688 10.300781 13.625 9.6875 C 13.441406 9.582031 13.441406 9.582031 13.257812 9.472656 C 11.375 8.375 11.375 8.375 11 8 C 10.828125 6.949219 11.398438 6.1875 11.921875 5.320312 C 12.015625 5.164062 12.105469 5.007812 12.199219 4.851562 C 12.378906 4.542969 12.5625 4.234375 12.746094 3.925781 C 12.964844 3.554688 13.179688 3.183594 13.394531 2.8125 C 13.449219 2.714844 13.503906 2.613281 13.5625 2.515625 C 13.664062 2.339844 13.765625 2.164062 13.863281 1.984375 C 14.109375 1.566406 14.320312 1.238281 14.75 1 C 15.441406 0.933594 15.796875 0.964844 16.375 1.375 C 16.457031 1.375 16.539062 1.375 16.625 1.375 C 16.816406 1.097656 16.816406 1.097656 17 0.757812 C 17.382812 0.0742188 17.695312 -0.160156 18.5 0 Z M 15.125 2.125 C 14.917969 2.378906 14.917969 2.378906 14.71875 2.734375 C 14.65625 2.835938 14.65625 2.835938 14.597656 2.941406 C 14.4375 3.210938 14.28125 3.480469 14.125 3.75 C 14.050781 3.878906 13.976562 4.007812 13.898438 4.136719 C 13.480469 4.855469 13.0625 5.578125 12.648438 6.296875 C 12.578125 6.421875 12.507812 6.542969 12.433594 6.671875 C 12.28125 6.945312 12.136719 7.21875 12 7.5 C 12.085938 7.550781 12.175781 7.601562 12.265625 7.652344 C 12.6875 7.890625 13.109375 8.132812 13.53125 8.375 C 13.609375 8.421875 13.6875 8.464844 13.769531 8.511719 C 14.015625 8.648438 14.257812 8.789062 14.503906 8.929688 C 14.625 9 14.625 9 14.753906 9.074219 C 15.355469 9.417969 15.355469 9.417969 15.953125 9.757812 C 16.023438 9.800781 16.097656 9.839844 16.171875 9.882812 C 16.675781 10.171875 17.179688 10.460938 17.6875 10.75 C 17.757812 10.792969 17.832031 10.832031 17.90625 10.875 C 18.234375 11.0625 18.234375 11.0625 18.5625 11.25 C 18.636719 11.292969 18.707031 11.332031 18.78125 11.375 C 19.4375 11.75 19.4375 11.75 19.65625 11.875 C 19.800781 11.957031 19.949219 12.042969 20.09375 12.125 C 20.457031 12.332031 20.820312 12.539062 21.183594 12.746094 C 21.859375 13.132812 22.53125 13.519531 23.207031 13.902344 C 23.519531 14.082031 23.835938 14.261719 24.148438 14.441406 C 24.367188 14.566406 24.582031 14.691406 24.800781 14.8125 C 24.9375 14.890625 25.070312 14.96875 25.210938 15.046875 C 25.339844 15.121094 25.472656 15.195312 25.605469 15.273438 C 25.878906 15.429688 26.148438 15.589844 26.417969 15.757812 C 26.550781 15.839844 26.683594 15.921875 26.820312 16.003906 C 27 16.113281 27 16.113281 27.179688 16.230469 C 27.480469 16.390625 27.480469 16.390625 27.765625 16.378906 C 28.117188 16.1875 28.230469 15.929688 28.421875 15.582031 C 28.542969 15.378906 28.542969 15.378906 28.660156 15.164062 C 28.742188 15.015625 28.824219 14.867188 28.90625 14.71875 C 29.03125 14.496094 29.15625 14.269531 29.285156 14.046875 C 29.40625 13.828125 29.527344 13.609375 29.652344 13.390625 C 29.988281 12.800781 30.355469 12.230469 30.734375 11.664062 C 30.894531 11.390625 30.894531 11.390625 30.859375 11.132812 C 30.703125 10.765625 30.492188 10.679688 30.148438 10.484375 C 30.019531 10.414062 29.894531 10.339844 29.761719 10.265625 C 29.621094 10.1875 29.480469 10.109375 29.335938 10.03125 C 29.1875 9.949219 29.042969 9.863281 28.894531 9.78125 C 28.585938 9.609375 28.277344 9.433594 27.96875 9.261719 C 27.375 8.929688 26.785156 8.59375 26.199219 8.253906 C 25.761719 8.003906 25.324219 7.753906 24.882812 7.503906 C 24.296875 7.171875 23.710938 6.835938 23.125 6.5 C 23.050781 6.457031 22.980469 6.417969 22.90625 6.375 C 22.6875 6.25 22.46875 6.125 22.25 6 C 21.429688 5.53125 20.613281 5.0625 19.792969 4.597656 C 19.480469 4.417969 19.164062 4.238281 18.851562 4.058594 C 18.632812 3.933594 18.417969 3.808594 18.199219 3.6875 C 18.0625 3.609375 17.929688 3.53125 17.789062 3.453125 C 17.660156 3.378906 17.527344 3.304688 17.394531 3.226562 C 17.121094 3.070312 16.847656 2.910156 16.578125 2.746094 C 16.445312 2.667969 16.308594 2.585938 16.171875 2.503906 C 16.050781 2.429688 15.929688 2.359375 15.808594 2.285156 C 15.503906 2.097656 15.503906 2.097656 15.125 2.125 Z M 15.125 2.125 "/>
<path style=" stroke:none;fill-rule:nonzero;fill:rgb(0%,0%,0%);fill-opacity:1;" d="M 3.71875 12.449219 C 3.839844 12.449219 3.839844 12.449219 3.964844 12.449219 C 4.140625 12.449219 4.3125 12.449219 4.484375 12.453125 C 4.75 12.453125 5.011719 12.453125 5.277344 12.449219 C 5.445312 12.449219 5.613281 12.449219 5.78125 12.449219 C 5.933594 12.449219 6.085938 12.453125 6.242188 12.453125 C 6.625 12.5 6.625 12.5 6.863281 12.667969 C 7.082031 13.003906 7.035156 13.316406 7.023438 13.710938 C 7.019531 13.933594 7.019531 13.933594 7.015625 14.15625 C 7.007812 14.269531 7.003906 14.382812 7 14.5 C 7.328125 14.5 7.660156 14.5 8 14.5 C 7.992188 14.332031 7.992188 14.332031 7.984375 14.15625 C 7.984375 14.011719 7.980469 13.863281 7.976562 13.710938 C 7.972656 13.5625 7.96875 13.417969 7.964844 13.269531 C 8 12.875 8 12.875 8.136719 12.667969 C 8.492188 12.417969 8.789062 12.453125 9.21875 12.449219 C 9.339844 12.449219 9.339844 12.449219 9.464844 12.449219 C 9.640625 12.449219 9.8125 12.449219 9.984375 12.453125 C 10.25 12.453125 10.511719 12.453125 10.777344 12.449219 C 10.945312 12.449219 11.113281 12.449219 11.28125 12.449219 C 11.433594 12.449219 11.585938 12.453125 11.742188 12.453125 C 12.125 12.5 12.125 12.5 12.363281 12.667969 C 12.582031 13.003906 12.535156 13.316406 12.523438 13.710938 C 12.519531 13.933594 12.519531 13.933594 12.515625 14.15625 C 12.507812 14.269531 12.503906 14.382812 12.5 14.5 C 12.996094 14.5 13.488281 14.5 14 14.5 C 13.992188 14.332031 13.992188 14.332031 13.984375 14.15625 C 13.984375 14.011719 13.980469 13.863281 13.976562 13.710938 C 13.972656 13.5625 13.96875 13.417969 13.964844 13.269531 C 14 12.875 14 12.875 14.136719 12.667969 C 14.492188 12.417969 14.789062 12.453125 15.21875 12.449219 C 15.339844 12.449219 15.339844 12.449219 15.464844 12.449219 C 15.640625 12.449219 15.8125 12.449219 15.984375 12.453125 C 16.25 12.453125 16.511719 12.453125 16.777344 12.449219 C 16.945312 12.449219 17.113281 12.449219 17.28125 12.449219 C 17.433594 12.449219 17.585938 12.453125 17.742188 12.453125 C 18.125 12.5 18.125 12.5 18.363281 12.667969 C 18.582031 13.003906 18.535156 13.316406 18.523438 13.710938 C 18.519531 13.933594 18.519531 13.933594 18.515625 14.15625 C 18.507812 14.269531 18.503906 14.382812 18.5 14.5 C 18.601562 14.492188 18.703125 14.488281 18.808594 14.484375 C 18.945312 14.476562 19.078125 14.472656 19.21875 14.46875 C 19.351562 14.460938 19.484375 14.457031 19.621094 14.453125 C 20.097656 14.511719 20.207031 14.628906 20.5 15 C 20.5625 15.339844 20.5625 15.339844 20.566406 15.738281 C 20.566406 15.886719 20.566406 16.035156 20.570312 16.1875 C 20.570312 16.347656 20.566406 16.507812 20.566406 16.671875 C 20.566406 16.835938 20.566406 17 20.566406 17.171875 C 20.570312 17.519531 20.566406 17.867188 20.566406 18.214844 C 20.5625 18.660156 20.5625 19.105469 20.566406 19.550781 C 20.570312 19.976562 20.566406 20.402344 20.566406 20.828125 C 20.566406 20.988281 20.570312 21.148438 20.570312 21.3125 C 20.566406 21.535156 20.566406 21.535156 20.566406 21.761719 C 20.5625 21.894531 20.5625 22.023438 20.5625 22.160156 C 20.480469 22.597656 20.351562 22.722656 20 23 C 19.636719 23.0625 19.636719 23.0625 19.203125 23.0625 C 18.957031 23.066406 18.957031 23.066406 18.707031 23.066406 C 18.523438 23.066406 18.34375 23.066406 18.160156 23.066406 C 17.96875 23.066406 17.777344 23.066406 17.585938 23.066406 C 17.066406 23.070312 16.546875 23.070312 16.027344 23.066406 C 15.484375 23.066406 14.941406 23.066406 14.398438 23.066406 C 13.484375 23.070312 12.570312 23.066406 11.660156 23.066406 C 10.601562 23.0625 9.546875 23.0625 8.492188 23.066406 C 7.585938 23.070312 6.679688 23.070312 5.773438 23.066406 C 5.230469 23.066406 4.691406 23.066406 4.148438 23.066406 C 3.640625 23.070312 3.132812 23.070312 2.621094 23.066406 C 2.433594 23.066406 2.25 23.066406 2.0625 23.066406 C 1.804688 23.066406 1.550781 23.066406 1.296875 23.0625 C 1.152344 23.0625 1.011719 23.0625 0.863281 23.0625 C 0.417969 22.988281 0.269531 22.855469 0 22.5 C -0.0625 22.160156 -0.0625 22.160156 -0.0664062 21.761719 C -0.0664062 21.613281 -0.0664062 21.464844 -0.0703125 21.3125 C -0.0664062 21.074219 -0.0664062 21.074219 -0.0664062 20.828125 C -0.0664062 20.664062 -0.0664062 20.5 -0.0664062 20.328125 C -0.0703125 19.980469 -0.0664062 19.632812 -0.0664062 19.285156 C -0.0625 18.839844 -0.0625 18.394531 -0.0664062 17.949219 C -0.0703125 17.523438 -0.0664062 17.097656 -0.0664062 16.671875 C -0.0664062 16.511719 -0.0703125 16.351562 -0.0703125 16.1875 C -0.0664062 16.039062 -0.0664062 15.890625 -0.0664062 15.738281 C -0.0625 15.605469 -0.0625 15.476562 -0.0625 15.339844 C 0.015625 14.910156 0.152344 14.761719 0.5 14.5 C 0.859375 14.464844 1.171875 14.453125 1.53125 14.46875 C 1.671875 14.472656 1.671875 14.472656 1.8125 14.476562 C 2.042969 14.480469 2.269531 14.488281 2.5 14.5 C 2.492188 14.332031 2.492188 14.332031 2.484375 14.15625 C 2.484375 14.011719 2.480469 13.863281 2.476562 13.710938 C 2.472656 13.5625 2.46875 13.417969 2.464844 13.269531 C 2.5 12.875 2.5 12.875 2.636719 12.667969 C 2.992188 12.417969 3.289062 12.453125 3.71875 12.449219 Z M 1 15.5 C 1 17.644531 1 19.789062 1 22 C 7.105469 22 13.210938 22 19.5 22 C 19.5 19.855469 19.5 17.710938 19.5 15.5 C 13.394531 15.5 7.289062 15.5 1 15.5 Z M 1 15.5 "/>
<path style=" stroke:none;fill-rule:nonzero;fill:rgb(0%,0%,0%);fill-opacity:1;" d="M 26.71875 21.449219 C 26.839844 21.449219 26.839844 21.449219 26.964844 21.449219 C 27.140625 21.449219 27.3125 21.449219 27.484375 21.453125 C 27.75 21.453125 28.011719 21.453125 28.277344 21.449219 C 28.445312 21.449219 28.613281 21.449219 28.78125 21.449219 C 28.933594 21.449219 29.085938 21.453125 29.242188 21.453125 C 29.625 21.5 29.625 21.5 29.863281 21.667969 C 30.082031 22.003906 30.035156 22.316406 30.023438 22.710938 C 30.019531 22.933594 30.019531 22.933594 30.015625 23.15625 C 30.007812 23.269531 30.003906 23.382812 30 23.5 C 30.101562 23.492188 30.203125 23.488281 30.308594 23.484375 C 30.445312 23.476562 30.578125 23.472656 30.71875 23.46875 C 30.851562 23.460938 30.984375 23.457031 31.121094 23.453125 C 31.597656 23.511719 31.707031 23.628906 32 24 C 32.0625 24.339844 32.0625 24.339844 32.066406 24.738281 C 32.066406 24.886719 32.066406 25.035156 32.070312 25.1875 C 32.070312 25.347656 32.066406 25.507812 32.066406 25.671875 C 32.066406 25.835938 32.066406 26 32.066406 26.171875 C 32.070312 26.519531 32.066406 26.867188 32.066406 27.214844 C 32.0625 27.660156 32.0625 28.105469 32.066406 28.550781 C 32.070312 28.976562 32.066406 29.402344 32.066406 29.828125 C 32.066406 29.988281 32.070312 30.148438 32.070312 30.3125 C 32.066406 30.535156 32.066406 30.535156 32.066406 30.761719 C 32.0625 30.894531 32.0625 31.023438 32.0625 31.160156 C 31.980469 31.597656 31.851562 31.722656 31.5 32 C 31.136719 32.0625 31.136719 32.0625 30.703125 32.0625 C 30.457031 32.066406 30.457031 32.066406 30.207031 32.066406 C 30.023438 32.066406 29.84375 32.066406 29.660156 32.066406 C 29.46875 32.066406 29.277344 32.066406 29.085938 32.066406 C 28.566406 32.070312 28.046875 32.070312 27.527344 32.066406 C 26.984375 32.066406 26.441406 32.066406 25.898438 32.066406 C 24.984375 32.070312 24.070312 32.066406 23.160156 32.066406 C 22.101562 32.0625 21.046875 32.0625 19.992188 32.066406 C 19.085938 32.070312 18.179688 32.070312 17.273438 32.066406 C 16.730469 32.066406 16.191406 32.066406 15.648438 32.066406 C 15.140625 32.070312 14.632812 32.070312 14.121094 32.066406 C 13.933594 32.066406 13.75 32.066406 13.5625 32.066406 C 13.304688 32.066406 13.050781 32.066406 12.796875 32.0625 C 12.652344 32.0625 12.511719 32.0625 12.363281 32.0625 C 11.917969 31.988281 11.769531 31.855469 11.5 31.5 C 11.4375 31.160156 11.4375 31.160156 11.433594 30.761719 C 11.433594 30.613281 11.433594 30.464844 11.429688 30.3125 C 11.433594 30.074219 11.433594 30.074219 11.433594 29.828125 C 11.433594 29.664062 11.433594 29.5 11.433594 29.328125 C 11.429688 28.980469 11.433594 28.632812 11.433594 28.285156 C 11.4375 27.839844 11.4375 27.394531 11.433594 26.949219 C 11.429688 26.523438 11.433594 26.097656 11.433594 25.671875 C 11.433594 25.511719 11.429688 25.351562 11.429688 25.1875 C 11.433594 25.039062 11.433594 24.890625 11.433594 24.738281 C 11.4375 24.605469 11.4375 24.476562 11.4375 24.339844 C 11.5 24 11.5 24 11.671875 23.707031 C 12.191406 23.378906 12.695312 23.433594 13.296875 23.441406 C 13.425781 23.441406 13.558594 23.441406 13.695312 23.441406 C 14.132812 23.445312 14.566406 23.449219 15.003906 23.453125 C 15.304688 23.453125 15.605469 23.453125 15.90625 23.453125 C 16.703125 23.457031 17.496094 23.460938 18.292969 23.464844 C 19.105469 23.46875 19.914062 23.472656 20.726562 23.476562 C 22.316406 23.480469 23.910156 23.488281 25.5 23.5 C 25.492188 23.332031 25.492188 23.332031 25.484375 23.15625 C 25.484375 23.011719 25.480469 22.863281 25.476562 22.710938 C 25.472656 22.5625 25.46875 22.417969 25.464844 22.269531 C 25.5 21.875 25.5 21.875 25.664062 21.636719 C 26.003906 21.414062 26.320312 21.453125 26.71875 21.449219 Z M 12.5 24.5 C 12.5 26.644531 12.5 28.789062 12.5 31 C 18.605469 31 24.710938 31 31 31 C 31 28.855469 31 26.710938 31 24.5 C 24.894531 24.5 18.789062 24.5 12.5 24.5 Z M 12.5 24.5 "/>
<path style=" stroke:none;fill-rule:nonzero;fill:rgb(0%,0%,0%);fill-opacity:1;" d="M 1.421875 23.433594 C 1.511719 23.433594 1.605469 23.433594 1.699219 23.433594 C 2.003906 23.429688 2.304688 23.429688 2.609375 23.433594 C 2.820312 23.433594 3.03125 23.433594 3.242188 23.429688 C 3.683594 23.429688 4.128906 23.433594 4.570312 23.433594 C 5.136719 23.4375 5.703125 23.4375 6.269531 23.433594 C 6.703125 23.429688 7.140625 23.429688 7.574219 23.433594 C 7.785156 23.433594 7.996094 23.433594 8.203125 23.429688 C 8.496094 23.429688 8.789062 23.433594 9.078125 23.433594 C 9.164062 23.433594 9.253906 23.433594 9.339844 23.433594 C 9.738281 23.4375 9.972656 23.480469 10.304688 23.707031 C 10.550781 24.078125 10.5625 24.296875 10.566406 24.738281 C 10.566406 24.886719 10.570312 25.035156 10.570312 25.1875 C 10.570312 25.347656 10.566406 25.507812 10.566406 25.671875 C 10.566406 25.917969 10.566406 25.917969 10.570312 26.171875 C 10.570312 26.519531 10.566406 26.867188 10.566406 27.214844 C 10.5625 27.660156 10.5625 28.105469 10.566406 28.550781 C 10.570312 28.976562 10.566406 29.402344 10.566406 29.828125 C 10.566406 29.988281 10.570312 30.148438 10.570312 30.3125 C 10.570312 30.460938 10.566406 30.609375 10.566406 30.761719 C 10.566406 30.894531 10.5625 31.023438 10.5625 31.160156 C 10.5 31.5 10.5 31.5 10.304688 31.792969 C 9.898438 32.070312 9.550781 32.070312 9.078125 32.066406 C 8.988281 32.066406 8.894531 32.066406 8.800781 32.066406 C 8.496094 32.070312 8.195312 32.066406 7.890625 32.066406 C 7.679688 32.066406 7.46875 32.066406 7.257812 32.066406 C 6.816406 32.070312 6.375 32.066406 5.929688 32.066406 C 5.363281 32.0625 4.796875 32.0625 4.230469 32.066406 C 3.796875 32.070312 3.359375 32.066406 2.921875 32.066406 C 2.714844 32.066406 2.507812 32.066406 2.296875 32.066406 C 2.003906 32.070312 1.714844 32.066406 1.421875 32.066406 C 1.292969 32.066406 1.292969 32.066406 1.160156 32.066406 C 0.757812 32.058594 0.527344 32.019531 0.195312 31.792969 C -0.0507812 31.425781 -0.0625 31.207031 -0.0625 30.761719 C -0.0664062 30.613281 -0.0664062 30.464844 -0.0703125 30.3125 C -0.0664062 30.074219 -0.0664062 30.074219 -0.0664062 29.828125 C -0.0664062 29.664062 -0.0664062 29.5 -0.0664062 29.328125 C -0.0703125 28.980469 -0.0664062 28.632812 -0.0664062 28.285156 C -0.0625 27.839844 -0.0625 27.394531 -0.0664062 26.949219 C -0.0703125 26.523438 -0.0664062 26.097656 -0.0664062 25.671875 C -0.0664062 25.511719 -0.0664062 25.351562 -0.0703125 25.1875 C -0.0664062 25.039062 -0.0664062 24.890625 -0.0625 24.738281 C -0.0625 24.605469 -0.0625 24.476562 -0.0625 24.339844 C 0 24 0 24 0.195312 23.707031 C 0.601562 23.429688 0.945312 23.429688 1.421875 23.433594 Z M 1 24.5 C 1 26.644531 1 28.789062 1 31 C 3.804688 31 6.609375 31 9.5 31 C 9.5 28.855469 9.5 26.710938 9.5 24.5 C 6.695312 24.5 3.890625 24.5 1 24.5 Z M 1 24.5 "/>
<path style=" stroke:none;fill-rule:nonzero;fill:rgb(88.627452%,31.37255%,48.235294%);fill-opacity:1;" d="M 18 1.125 C 18.546875 1.324219 19.035156 1.597656 19.539062 1.890625 C 19.621094 1.9375 19.699219 1.984375 19.785156 2.03125 C 19.980469 2.144531 20.175781 2.261719 20.375 2.375 C 20.222656 2.761719 20.066406 3.132812 19.875 3.5 C 19.328125 3.300781 18.839844 3.027344 18.335938 2.734375 C 18.253906 2.6875 18.175781 2.640625 18.089844 2.59375 C 17.894531 2.480469 17.699219 2.363281 17.5 2.25 C 17.652344 1.863281 17.808594 1.492188 18 1.125 Z M 18 1.125 "/>
<path style=" stroke:none;fill-rule:nonzero;fill:rgb(89.019608%,31.37255%,48.235294%);fill-opacity:1;" d="M 23 4.125 C 23.546875 4.324219 24.035156 4.597656 24.539062 4.890625 C 24.621094 4.9375 24.699219 4.984375 24.785156 5.03125 C 24.980469 5.144531 25.175781 5.261719 25.375 5.375 C 25.226562 5.804688 25.078125 6.066406 24.75 6.375 C 24.417969 6.199219 24.085938 6.023438 23.757812 5.84375 C 23.664062 5.792969 23.570312 5.746094 23.472656 5.695312 C 23.382812 5.644531 23.292969 5.59375 23.199219 5.546875 C 23.117188 5.5 23.035156 5.457031 22.949219 5.410156 C 22.75 5.25 22.75 5.25 22.648438 5.003906 C 22.613281 4.628906 22.792969 4.425781 23 4.125 Z M 23 4.125 "/>
<path style=" stroke:none;fill-rule:nonzero;fill:rgb(88.627452%,31.37255%,48.235294%);fill-opacity:1;" d="M 28 7.125 C 28.546875 7.324219 29.035156 7.597656 29.539062 7.890625 C 29.621094 7.9375 29.699219 7.984375 29.785156 8.03125 C 29.980469 8.144531 30.175781 8.261719 30.375 8.375 C 30.140625 8.96875 30.140625 8.96875 30 9.25 C 29.402344 9.078125 28.910156 8.816406 28.390625 8.484375 C 28.316406 8.4375 28.242188 8.390625 28.167969 8.34375 C 27.984375 8.230469 27.804688 8.113281 27.625 8 C 27.859375 7.40625 27.859375 7.40625 28 7.125 Z M 28 7.125 "/>
<path style=" stroke:none;fill-rule:nonzero;fill:rgb(98.431373%,67.843139%,29.019609%);fill-opacity:1;" d="M 26.5 22.5 C 27.324219 22.5 28.148438 22.5 29 22.5 C 29 22.828125 29 23.160156 29 23.5 C 28.175781 23.5 27.351562 23.5 26.5 23.5 C 26.5 23.171875 26.5 22.839844 26.5 22.5 Z M 26.5 22.5 "/>
<path style=" stroke:none;fill-rule:nonzero;fill:rgb(16.470589%,55.686277%,90.196079%);fill-opacity:1;" d="M 15 13.5 C 15.824219 13.5 16.648438 13.5 17.5 13.5 C 17.5 13.828125 17.5 14.160156 17.5 14.5 C 16.675781 14.5 15.851562 14.5 15 14.5 C 15 14.171875 15 13.839844 15 13.5 Z M 15 13.5 "/>
<path style=" stroke:none;fill-rule:nonzero;fill:rgb(16.470589%,55.686277%,90.196079%);fill-opacity:1;" d="M 9 13.5 C 9.824219 13.5 10.648438 13.5 11.5 13.5 C 11.5 13.828125 11.5 14.160156 11.5 14.5 C 10.675781 14.5 9.851562 14.5 9 14.5 C 9 14.171875 9 13.839844 9 13.5 Z M 9 13.5 "/>
<path style=" stroke:none;fill-rule:nonzero;fill:rgb(16.470589%,55.686277%,90.196079%);fill-opacity:1;" d="M 3.5 13.5 C 4.324219 13.5 5.148438 13.5 6 13.5 C 6 13.828125 6 14.160156 6 14.5 C 5.175781 14.5 4.351562 14.5 3.5 14.5 C 3.5 14.171875 3.5 13.839844 3.5 13.5 Z M 3.5 13.5 "/>
</g>
</svg>
