<?xml version="1.0" encoding="UTF-8"?>
<svg xmlns="http://www.w3.org/2000/svg" xmlns:xlink="http://www.w3.org/1999/xlink" width="32" height="32" viewBox="0 0 32 32" version="1.1">
<g id="surface1">
<path style=" stroke:none;fill-rule:nonzero;fill:rgb(0.392157%,0.392157%,0.392157%);fill-opacity:1;" d="M 16.054688 -0.046875 C 16.160156 -0.046875 16.265625 -0.0507812 16.375 -0.0507812 C 16.972656 -0.046875 17.402344 -0.03125 17.875 0.375 C 18.21875 0.824219 18.296875 1.191406 18.351562 1.75 C 18.425781 2.261719 18.472656 2.5625 18.882812 2.890625 C 19.003906 2.96875 19.125 3.046875 19.25 3.125 C 19.289062 3.207031 19.332031 3.289062 19.375 3.375 C 19.476562 3.375 19.582031 3.375 19.6875 3.375 C 20.664062 3.382812 21.640625 3.394531 22.617188 3.40625 C 23.121094 3.410156 23.621094 3.414062 24.125 3.417969 C 24.609375 3.421875 25.09375 3.425781 25.578125 3.433594 C 25.761719 3.433594 25.949219 3.4375 26.132812 3.4375 C 26.390625 3.4375 26.652344 3.441406 26.910156 3.445312 C 27.058594 3.445312 27.203125 3.449219 27.355469 3.449219 C 27.792969 3.503906 28.027344 3.613281 28.375 3.875 C 28.734375 4.425781 28.796875 4.859375 28.796875 5.507812 C 28.796875 5.632812 28.796875 5.632812 28.796875 5.757812 C 28.792969 5.929688 28.792969 6.097656 28.792969 6.269531 C 28.789062 6.53125 28.789062 6.792969 28.789062 7.058594 C 28.785156 8.339844 28.785156 8.339844 28.5 8.625 C 28.179688 8.648438 28.179688 8.648438 27.875 8.625 C 27.648438 8.398438 27.726562 8.039062 27.722656 7.734375 C 27.71875 7.578125 27.714844 7.421875 27.714844 7.261719 C 27.707031 6.933594 27.699219 6.601562 27.695312 6.269531 C 27.691406 6.035156 27.691406 6.035156 27.683594 5.796875 C 27.683594 5.65625 27.679688 5.511719 27.675781 5.363281 C 27.652344 5.007812 27.652344 5.007812 27.480469 4.792969 C 27.152344 4.554688 26.902344 4.574219 26.496094 4.566406 C 26.339844 4.5625 26.1875 4.5625 26.027344 4.558594 C 25.855469 4.554688 25.6875 4.554688 25.515625 4.554688 C 25.34375 4.550781 25.167969 4.550781 24.996094 4.546875 C 24.628906 4.542969 24.261719 4.542969 23.898438 4.542969 C 23.429688 4.539062 22.964844 4.53125 22.496094 4.523438 C 22.136719 4.515625 21.777344 4.515625 21.417969 4.515625 C 21.246094 4.515625 21.074219 4.511719 20.902344 4.507812 C 19.933594 4.457031 19.933594 4.457031 19.097656 4.855469 C 18.910156 5.105469 18.757812 5.34375 18.625 5.625 C 19.054688 6.332031 19.492188 7.007812 20.023438 7.640625 C 21.082031 8.929688 21.234375 10.257812 21.125 11.875 C 20.925781 13.140625 20.25 14.261719 19.257812 15.066406 C 18.859375 15.347656 18.449219 15.5625 18 15.75 C 17.886719 15.800781 17.773438 15.847656 17.65625 15.898438 C 15.878906 16.34375 14.3125 16.0625 12.75 15.125 C 12.5 14.875 12.5 14.875 12.382812 14.453125 C 12.261719 14.035156 12.144531 13.828125 11.875 13.5 C 11.875 13.417969 11.875 13.335938 11.875 13.25 C 11.78125 13.246094 11.683594 13.246094 11.585938 13.242188 C 11.25 13.125 11.25 13.125 11.03125 12.734375 C 10.539062 11.367188 10.664062 9.867188 11.273438 8.558594 C 11.679688 7.847656 12.183594 7.203125 12.695312 6.570312 C 13 6.1875 13.222656 5.839844 13.375 5.375 C 13.296875 5.347656 13.222656 5.316406 13.140625 5.289062 C 12.796875 5.078125 12.757812 4.871094 12.625 4.5 C 11.605469 4.507812 10.585938 4.515625 9.566406 4.53125 C 9.089844 4.535156 8.617188 4.539062 8.144531 4.542969 C 7.6875 4.546875 7.226562 4.550781 6.769531 4.558594 C 6.597656 4.558594 6.421875 4.5625 6.25 4.5625 C 6.003906 4.5625 5.757812 4.566406 5.515625 4.570312 C 5.308594 4.574219 5.308594 4.574219 5.09375 4.574219 C 4.757812 4.601562 4.757812 4.601562 4.519531 4.761719 C 4.296875 5.128906 4.324219 5.445312 4.320312 5.867188 C 4.320312 5.957031 4.320312 6.042969 4.316406 6.132812 C 4.3125 6.425781 4.3125 6.714844 4.3125 7.003906 C 4.308594 7.207031 4.308594 7.40625 4.304688 7.609375 C 4.296875 8.136719 4.292969 8.667969 4.289062 9.199219 C 4.289062 9.738281 4.28125 10.277344 4.277344 10.820312 C 4.265625 11.878906 4.257812 12.9375 4.25 14 C 4.328125 14.015625 4.40625 14.03125 4.484375 14.050781 C 4.585938 14.070312 4.6875 14.09375 4.792969 14.117188 C 4.890625 14.136719 4.992188 14.15625 5.097656 14.179688 C 5.945312 14.390625 6.613281 15.019531 7.097656 15.726562 C 7.675781 16.769531 7.777344 17.855469 7.492188 19 C 7.164062 19.980469 6.542969 20.710938 5.671875 21.253906 C 5.214844 21.441406 4.734375 21.527344 4.25 21.625 C 4.257812 22.242188 4.269531 22.855469 4.28125 23.472656 C 4.289062 23.683594 4.289062 23.894531 4.292969 24.101562 C 4.296875 24.40625 4.304688 24.707031 4.3125 25.007812 C 4.3125 25.101562 4.3125 25.195312 4.3125 25.289062 C 4.328125 25.796875 4.328125 25.796875 4.539062 26.246094 C 4.914062 26.472656 5.34375 26.449219 5.773438 26.460938 C 5.867188 26.464844 5.960938 26.46875 6.058594 26.472656 C 6.289062 26.484375 6.519531 26.492188 6.75 26.5 C 6.746094 26.355469 6.738281 26.207031 6.730469 26.058594 C 6.726562 25.863281 6.722656 25.671875 6.71875 25.476562 C 6.714844 25.378906 6.710938 25.285156 6.707031 25.1875 C 6.699219 24.714844 6.726562 24.425781 6.9375 23.996094 C 7.371094 23.65625 7.753906 23.679688 8.28125 23.710938 C 8.421875 23.714844 8.421875 23.714844 8.5625 23.71875 C 8.792969 23.726562 9.019531 23.738281 9.25 23.75 C 9.253906 23.675781 9.253906 23.601562 9.257812 23.527344 C 9.289062 22.972656 9.320312 22.695312 9.671875 22.25 C 10.113281 21.910156 10.433594 21.859375 10.972656 21.855469 C 11.15625 21.851562 11.15625 21.851562 11.34375 21.851562 C 11.472656 21.851562 11.601562 21.851562 11.738281 21.847656 C 11.871094 21.847656 12.007812 21.847656 12.144531 21.847656 C 12.429688 21.847656 12.714844 21.84375 13 21.84375 C 13.4375 21.84375 13.871094 21.839844 14.308594 21.835938 C 14.585938 21.835938 14.859375 21.835938 15.136719 21.835938 C 15.265625 21.832031 15.398438 21.832031 15.535156 21.828125 C 15.714844 21.828125 15.714844 21.828125 15.902344 21.832031 C 16.007812 21.828125 16.113281 21.828125 16.226562 21.828125 C 16.5625 21.886719 16.652344 22 16.875 22.25 C 17.160156 22.320312 17.160156 22.320312 17.460938 22.335938 C 17.613281 22.347656 17.613281 22.347656 17.765625 22.359375 C 17.84375 22.367188 17.921875 22.371094 18 22.375 C 18.082031 22.210938 18.164062 22.046875 18.25 21.875 C 19.074219 21.867188 19.894531 21.859375 20.71875 21.855469 C 21 21.851562 21.277344 21.847656 21.558594 21.847656 C 21.960938 21.84375 22.363281 21.839844 22.765625 21.839844 C 22.953125 21.835938 22.953125 21.835938 23.144531 21.832031 C 23.804688 21.832031 24.320312 21.839844 24.875 22.25 C 25.230469 22.78125 25.296875 23.203125 25.289062 23.839844 C 25.285156 23.996094 25.285156 24.148438 25.285156 24.3125 C 25.28125 24.46875 25.277344 24.632812 25.273438 24.796875 C 25.273438 24.960938 25.269531 25.125 25.269531 25.292969 C 25.261719 25.695312 25.257812 26.097656 25.25 26.5 C 25.574219 26.488281 25.902344 26.476562 26.226562 26.460938 C 26.320312 26.457031 26.410156 26.457031 26.507812 26.453125 C 27.007812 26.433594 27.007812 26.433594 27.464844 26.246094 C 27.71875 25.859375 27.683594 25.453125 27.6875 25.007812 C 27.691406 24.910156 27.695312 24.8125 27.695312 24.714844 C 27.703125 24.40625 27.707031 24.097656 27.710938 23.789062 C 27.714844 23.578125 27.71875 23.371094 27.722656 23.160156 C 27.734375 22.648438 27.742188 22.136719 27.75 21.625 C 27.675781 21.609375 27.601562 21.597656 27.523438 21.582031 C 26.390625 21.351562 25.566406 20.867188 24.902344 19.898438 C 24.363281 18.925781 24.203125 17.859375 24.457031 16.777344 C 24.835938 15.585938 25.488281 14.835938 26.574219 14.238281 C 26.960938 14.09375 27.339844 14.046875 27.75 14 C 27.746094 13.917969 27.746094 13.832031 27.742188 13.75 C 27.730469 13.367188 27.726562 12.988281 27.71875 12.609375 C 27.714844 12.476562 27.710938 12.347656 27.707031 12.214844 C 27.695312 11.453125 27.703125 10.953125 28.25 10.375 C 28.585938 10.085938 28.941406 9.832031 29.304688 9.578125 C 29.398438 9.507812 29.492188 9.441406 29.589844 9.371094 C 29.679688 9.308594 29.773438 9.242188 29.867188 9.175781 C 29.992188 9.089844 29.992188 9.089844 30.117188 9 C 30.4375 8.84375 30.648438 8.835938 31 8.875 C 31.25 9.125 31.25 9.125 31.265625 9.46875 C 31.058594 10.066406 30.65625 10.261719 30.132812 10.585938 C 29.949219 10.703125 29.765625 10.820312 29.582031 10.9375 C 29.5 10.988281 29.417969 11.039062 29.335938 11.09375 C 29.042969 11.3125 28.890625 11.523438 28.835938 11.886719 C 28.832031 11.984375 28.828125 12.082031 28.824219 12.179688 C 28.820312 12.285156 28.8125 12.394531 28.808594 12.5 C 28.804688 12.613281 28.800781 12.722656 28.796875 12.835938 C 28.789062 13.003906 28.789062 13.003906 28.78125 13.175781 C 28.769531 13.449219 28.757812 13.722656 28.75 14 C 28.824219 14.015625 28.898438 14.027344 28.976562 14.042969 C 30.082031 14.265625 30.722656 14.78125 31.460938 15.625 C 31.914062 16.316406 32.066406 16.917969 32.046875 17.742188 C 32.046875 17.832031 32.042969 17.917969 32.042969 18.007812 C 32.003906 19.230469 31.636719 19.839844 30.800781 20.722656 C 30.164062 21.308594 29.589844 21.492188 28.75 21.625 C 28.753906 21.84375 28.753906 21.84375 28.757812 22.0625 C 28.761719 22.597656 28.765625 23.136719 28.769531 23.671875 C 28.773438 23.90625 28.773438 24.136719 28.777344 24.371094 C 28.785156 24.703125 28.785156 25.039062 28.789062 25.375 C 28.789062 25.476562 28.789062 25.578125 28.792969 25.6875 C 28.792969 26.273438 28.75 26.648438 28.375 27.125 C 27.808594 27.625 27.175781 27.542969 26.460938 27.523438 C 26.34375 27.523438 26.226562 27.519531 26.109375 27.519531 C 25.820312 27.515625 25.535156 27.507812 25.25 27.5 C 25.253906 27.601562 25.253906 27.703125 25.257812 27.808594 C 25.261719 28.273438 25.269531 28.738281 25.273438 29.203125 C 25.277344 29.363281 25.28125 29.523438 25.285156 29.6875 C 25.285156 29.921875 25.285156 29.921875 25.289062 30.160156 C 25.289062 30.375 25.289062 30.375 25.292969 30.59375 C 25.242188 31.058594 25.121094 31.351562 24.875 31.75 C 24.476562 32.015625 24.371094 32.03125 23.910156 32.035156 C 23.789062 32.035156 23.664062 32.035156 23.539062 32.039062 C 23.40625 32.039062 23.273438 32.039062 23.136719 32.039062 C 22.996094 32.039062 22.855469 32.039062 22.710938 32.042969 C 22.246094 32.042969 21.78125 32.046875 21.3125 32.046875 C 20.992188 32.046875 20.667969 32.046875 20.34375 32.050781 C 19.664062 32.050781 18.988281 32.054688 18.3125 32.054688 C 17.527344 32.054688 16.746094 32.058594 15.960938 32.0625 C 15.207031 32.066406 14.453125 32.070312 13.699219 32.070312 C 13.382812 32.070312 13.0625 32.070312 12.738281 32.074219 C 12.292969 32.078125 11.84375 32.078125 11.394531 32.074219 C 11.195312 32.078125 11.195312 32.078125 10.992188 32.082031 C 10.09375 32.070312 10.09375 32.070312 9.605469 31.703125 C 9.367188 31.363281 9.292969 31.183594 9.273438 30.773438 C 9.265625 30.625 9.265625 30.625 9.257812 30.472656 C 9.253906 30.402344 9.253906 30.324219 9.25 30.25 C 9.058594 30.261719 9.058594 30.261719 8.863281 30.273438 C 8.691406 30.277344 8.523438 30.28125 8.351562 30.289062 C 8.226562 30.296875 8.226562 30.296875 8.097656 30.304688 C 7.632812 30.316406 7.390625 30.261719 7.003906 30.003906 C 6.660156 29.492188 6.679688 29.125 6.710938 28.523438 C 6.714844 28.425781 6.71875 28.328125 6.71875 28.222656 C 6.726562 27.984375 6.738281 27.742188 6.75 27.5 C 6.640625 27.503906 6.640625 27.503906 6.53125 27.503906 C 6.199219 27.515625 5.871094 27.519531 5.539062 27.523438 C 5.425781 27.527344 5.3125 27.53125 5.195312 27.53125 C 4.101562 27.542969 4.101562 27.542969 3.625 27.125 C 3.179688 26.558594 3.199219 26.0625 3.214844 25.375 C 3.214844 25.265625 3.214844 25.15625 3.214844 25.046875 C 3.21875 24.707031 3.222656 24.363281 3.226562 24.023438 C 3.226562 23.792969 3.230469 23.558594 3.230469 23.328125 C 3.234375 22.757812 3.242188 22.191406 3.25 21.625 C 3.09375 21.589844 2.9375 21.550781 2.777344 21.511719 C 1.613281 21.234375 0.871094 20.515625 0.226562 19.523438 C -0.195312 18.625 -0.164062 17.3125 0.109375 16.375 C 0.566406 15.386719 1.265625 14.6875 2.238281 14.214844 C 2.570312 14.101562 2.902344 14.054688 3.25 14 C 3.25 13.882812 3.25 13.769531 3.246094 13.648438 C 3.238281 12.558594 3.234375 11.464844 3.230469 10.371094 C 3.226562 9.8125 3.226562 9.25 3.222656 8.6875 C 3.21875 8.144531 3.214844 7.601562 3.214844 7.0625 C 3.214844 6.851562 3.210938 6.648438 3.210938 6.441406 C 3.207031 6.152344 3.207031 5.859375 3.207031 5.570312 C 3.207031 5.40625 3.207031 5.242188 3.203125 5.070312 C 3.269531 4.449219 3.417969 4.042969 3.910156 3.644531 C 4.324219 3.46875 4.636719 3.453125 5.089844 3.457031 C 5.171875 3.457031 5.253906 3.457031 5.335938 3.457031 C 5.605469 3.457031 5.875 3.460938 6.144531 3.464844 C 6.328125 3.464844 6.515625 3.464844 6.703125 3.464844 C 7.195312 3.46875 7.683594 3.46875 8.175781 3.472656 C 8.675781 3.476562 9.175781 3.480469 9.679688 3.480469 C 10.660156 3.484375 11.644531 3.492188 12.625 3.5 C 12.65625 3.402344 12.691406 3.300781 12.722656 3.199219 C 12.875 2.875 12.875 2.875 13.320312 2.664062 C 13.5625 2.554688 13.5625 2.554688 13.75 2.375 C 13.824219 2.058594 13.835938 1.761719 13.847656 1.433594 C 13.898438 0.886719 14.203125 0.558594 14.570312 0.171875 C 15.046875 -0.09375 15.515625 -0.0546875 16.054688 -0.046875 Z M 16.054688 -0.046875 "/>
<path style=" stroke:none;fill-rule:nonzero;fill:rgb(21.176471%,36.470589%,48.627451%);fill-opacity:1;" d="M 16.75 22.375 C 16.953125 22.363281 17.15625 22.359375 17.359375 22.351562 C 17.472656 22.347656 17.585938 22.34375 17.703125 22.339844 C 17.851562 22.355469 17.851562 22.355469 18 22.375 C 18.082031 22.5 18.164062 22.621094 18.25 22.75 C 18.503906 22.808594 18.503906 22.808594 18.800781 22.800781 C 18.972656 22.800781 18.972656 22.800781 19.148438 22.804688 C 19.273438 22.804688 19.394531 22.804688 19.523438 22.804688 C 19.648438 22.804688 19.777344 22.808594 19.90625 22.808594 C 20.3125 22.816406 20.71875 22.816406 21.125 22.820312 C 21.53125 22.824219 21.9375 22.828125 22.34375 22.832031 C 22.59375 22.835938 22.847656 22.835938 23.101562 22.835938 C 23.214844 22.839844 23.328125 22.839844 23.449219 22.839844 C 23.546875 22.839844 23.648438 22.84375 23.753906 22.84375 C 24 22.875 24 22.875 24.25 23.125 C 24.28125 23.449219 24.28125 23.449219 24.28125 23.859375 C 24.285156 24.015625 24.285156 24.171875 24.285156 24.328125 C 24.285156 24.496094 24.285156 24.667969 24.285156 24.835938 C 24.285156 25.007812 24.285156 25.179688 24.285156 25.355469 C 24.285156 25.714844 24.285156 26.078125 24.28125 26.441406 C 24.28125 26.90625 24.28125 27.371094 24.285156 27.835938 C 24.285156 28.191406 24.285156 28.550781 24.285156 28.90625 C 24.285156 29.078125 24.285156 29.25 24.285156 29.421875 C 24.285156 29.660156 24.285156 29.898438 24.28125 30.140625 C 24.28125 30.273438 24.28125 30.414062 24.28125 30.550781 C 24.25 30.875 24.25 30.875 24 31.125 C 23.757812 31.15625 23.757812 31.15625 23.457031 31.15625 C 23.289062 31.15625 23.289062 31.15625 23.113281 31.160156 C 22.988281 31.160156 22.863281 31.15625 22.734375 31.15625 C 22.605469 31.15625 22.472656 31.160156 22.339844 31.160156 C 21.902344 31.160156 21.46875 31.160156 21.03125 31.160156 C 20.730469 31.160156 20.425781 31.160156 20.125 31.160156 C 19.492188 31.160156 18.859375 31.160156 18.226562 31.15625 C 17.414062 31.15625 16.601562 31.15625 15.789062 31.160156 C 15.164062 31.160156 14.542969 31.160156 13.917969 31.160156 C 13.617188 31.160156 13.320312 31.160156 13.019531 31.160156 C 12.601562 31.160156 12.183594 31.160156 11.765625 31.15625 C 11.578125 31.15625 11.578125 31.15625 11.386719 31.160156 C 11.269531 31.160156 11.15625 31.15625 11.042969 31.15625 C 10.941406 31.15625 10.84375 31.15625 10.742188 31.15625 C 10.5 31.125 10.5 31.125 10.25 30.875 C 10.21875 30.550781 10.21875 30.550781 10.21875 30.140625 C 10.214844 29.984375 10.214844 29.828125 10.214844 29.671875 C 10.214844 29.503906 10.214844 29.332031 10.214844 29.164062 C 10.214844 28.992188 10.214844 28.820312 10.214844 28.644531 C 10.214844 28.285156 10.214844 27.921875 10.21875 27.558594 C 10.21875 27.09375 10.21875 26.628906 10.214844 26.164062 C 10.214844 25.808594 10.214844 25.449219 10.214844 25.09375 C 10.214844 24.921875 10.214844 24.75 10.214844 24.578125 C 10.214844 24.339844 10.214844 24.101562 10.21875 23.859375 C 10.21875 23.726562 10.21875 23.585938 10.21875 23.449219 C 10.25 23.125 10.25 23.125 10.5 22.875 C 10.761719 22.839844 10.761719 22.839844 11.089844 22.835938 C 11.273438 22.832031 11.273438 22.832031 11.460938 22.828125 C 11.660156 22.824219 11.660156 22.824219 11.863281 22.824219 C 12.066406 22.820312 12.066406 22.820312 12.273438 22.816406 C 12.710938 22.808594 13.144531 22.800781 13.578125 22.796875 C 13.871094 22.792969 14.167969 22.789062 14.460938 22.78125 C 15.179688 22.769531 15.902344 22.761719 16.625 22.75 C 16.667969 22.625 16.707031 22.503906 16.75 22.375 Z M 16.75 22.375 "/>
<path style=" stroke:none;fill-rule:nonzero;fill:rgb(98.823529%,83.529413%,43.921569%);fill-opacity:1;" d="M 14.375 5.625 C 14.746094 5.625 15.117188 5.625 15.5 5.625 C 15.519531 6.183594 15.53125 6.746094 15.542969 7.304688 C 15.546875 7.496094 15.550781 7.6875 15.554688 7.878906 C 15.566406 8.152344 15.570312 8.425781 15.574219 8.703125 C 15.578125 8.785156 15.582031 8.871094 15.585938 8.957031 C 15.585938 9.203125 15.585938 9.203125 15.5 9.625 C 15.136719 9.910156 15.136719 9.910156 14.75 10.125 C 14.378906 10.683594 14.421875 11.222656 14.5 11.875 C 14.753906 12.316406 15.011719 12.597656 15.5 12.75 C 16.148438 12.808594 16.582031 12.746094 17.125 12.375 C 17.460938 11.890625 17.574219 11.449219 17.554688 10.871094 C 17.425781 10.285156 16.980469 9.945312 16.5 9.625 C 16.464844 9.316406 16.457031 9.035156 16.464844 8.726562 C 16.464844 8.636719 16.464844 8.546875 16.464844 8.457031 C 16.46875 8.175781 16.472656 7.890625 16.476562 7.609375 C 16.480469 7.417969 16.480469 7.226562 16.480469 7.035156 C 16.484375 6.566406 16.492188 6.09375 16.5 5.625 C 16.828125 5.625 17.160156 5.625 17.5 5.625 C 17.539062 5.703125 17.578125 5.78125 17.617188 5.863281 C 17.996094 6.609375 18.429688 7.246094 18.953125 7.890625 C 19.96875 9.15625 20.296875 10.078125 20.125 11.75 C 19.898438 12.828125 19.378906 13.65625 18.492188 14.316406 C 18.25 14.476562 18.007812 14.617188 17.75 14.75 C 17.660156 14.796875 17.570312 14.839844 17.476562 14.886719 C 16.507812 15.195312 15.238281 15.175781 14.289062 14.832031 C 13.898438 14.625 13.898438 14.625 13.566406 14.414062 C 13.1875 14.21875 12.921875 14.246094 12.5 14.25 C 12.03125 13.859375 12.03125 13.859375 11.875 13.5 C 11.867188 13.191406 11.902344 12.921875 11.960938 12.617188 C 12.023438 12.367188 12.023438 12.367188 11.875 12.125 C 11.671875 10.226562 12.015625 9.089844 13.195312 7.617188 C 13.285156 7.503906 13.285156 7.503906 13.378906 7.390625 C 13.828125 6.832031 14.128906 6.300781 14.375 5.625 Z M 14.375 5.625 "/>
<path style=" stroke:none;fill-rule:nonzero;fill:rgb(93.725491%,47.450981%,47.843137%);fill-opacity:1;" d="M 29.777344 15.332031 C 30.308594 15.730469 30.757812 16.253906 31 16.875 C 31.105469 17.738281 31.160156 18.628906 30.6875 19.390625 C 30.226562 19.972656 29.652344 20.296875 29 20.625 C 28.074219 20.710938 27.261719 20.703125 26.5 20.125 C 25.789062 19.472656 25.367188 18.734375 25.320312 17.757812 C 25.355469 16.839844 25.695312 16.257812 26.359375 15.640625 C 27.335938 14.855469 28.667969 14.691406 29.777344 15.332031 Z M 29.777344 15.332031 "/>
<path style=" stroke:none;fill-rule:nonzero;fill:rgb(15.686275%,28.235295%,37.254903%);fill-opacity:1;" d="M 18.375 22.875 C 19.171875 22.867188 19.96875 22.863281 20.765625 22.859375 C 21.035156 22.859375 21.304688 22.859375 21.578125 22.855469 C 21.96875 22.851562 22.355469 22.851562 22.746094 22.851562 C 22.867188 22.847656 22.988281 22.847656 23.113281 22.847656 C 23.226562 22.847656 23.339844 22.847656 23.453125 22.847656 C 23.554688 22.847656 23.652344 22.84375 23.757812 22.84375 C 24 22.875 24 22.875 24.25 23.125 C 24.28125 23.449219 24.28125 23.449219 24.28125 23.859375 C 24.285156 24.015625 24.285156 24.171875 24.285156 24.328125 C 24.285156 24.496094 24.285156 24.667969 24.285156 24.835938 C 24.285156 25.007812 24.285156 25.179688 24.285156 25.355469 C 24.285156 25.714844 24.285156 26.078125 24.28125 26.441406 C 24.28125 26.90625 24.28125 27.371094 24.285156 27.835938 C 24.285156 28.191406 24.285156 28.550781 24.285156 28.90625 C 24.285156 29.078125 24.285156 29.25 24.285156 29.421875 C 24.285156 29.660156 24.285156 29.898438 24.28125 30.140625 C 24.28125 30.273438 24.28125 30.414062 24.28125 30.550781 C 24.25 30.875 24.25 30.875 24 31.125 C 23.757812 31.15625 23.757812 31.15625 23.457031 31.15625 C 23.289062 31.15625 23.289062 31.15625 23.113281 31.160156 C 22.988281 31.160156 22.863281 31.15625 22.734375 31.15625 C 22.605469 31.15625 22.472656 31.160156 22.339844 31.160156 C 21.902344 31.160156 21.46875 31.160156 21.03125 31.160156 C 20.730469 31.160156 20.425781 31.160156 20.125 31.160156 C 19.492188 31.160156 18.859375 31.160156 18.226562 31.15625 C 17.414062 31.15625 16.601562 31.15625 15.789062 31.160156 C 15.164062 31.160156 14.542969 31.160156 13.917969 31.160156 C 13.617188 31.160156 13.320312 31.160156 13.019531 31.160156 C 12.601562 31.160156 12.183594 31.160156 11.765625 31.15625 C 11.578125 31.15625 11.578125 31.15625 11.386719 31.160156 C 11.269531 31.160156 11.15625 31.15625 11.042969 31.15625 C 10.941406 31.15625 10.84375 31.15625 10.742188 31.15625 C 10.5 31.125 10.5 31.125 10.25 30.875 C 10.21875 30.550781 10.21875 30.550781 10.222656 30.136719 C 10.222656 29.980469 10.222656 29.824219 10.222656 29.664062 C 10.222656 29.496094 10.222656 29.324219 10.226562 29.15625 C 10.226562 28.980469 10.226562 28.808594 10.226562 28.636719 C 10.226562 28.179688 10.230469 27.722656 10.234375 27.265625 C 10.234375 26.800781 10.234375 26.332031 10.238281 25.867188 C 10.238281 24.953125 10.246094 24.039062 10.25 23.125 C 10.292969 23.125 10.332031 23.125 10.375 23.125 C 10.375 25.394531 10.375 27.664062 10.375 30 C 14.625 30 18.871094 30 23.25 30 C 23.25 27.691406 23.25 25.378906 23.25 23 C 21.640625 23 20.03125 23 18.375 23 C 18.375 22.957031 18.375 22.917969 18.375 22.875 Z M 18.375 22.875 "/>
<path style=" stroke:none;fill-rule:nonzero;fill:rgb(29.803923%,76.862746%,66.666669%);fill-opacity:1;" d="M 3.875 15 C 4.457031 15.414062 4.878906 15.957031 5.125 16.625 C 5.148438 16.984375 5.148438 16.984375 5.125 17.25 C 4.835938 17.25 4.546875 17.25 4.25 17.25 C 4.207031 16.960938 4.167969 16.671875 4.125 16.375 C 3.863281 16.304688 3.644531 16.25 3.375 16.25 C 3.375 16.621094 3.375 16.992188 3.375 17.375 C 3.003906 17.417969 2.632812 17.457031 2.25 17.5 C 2.292969 17.707031 2.332031 17.914062 2.375 18.125 C 2.664062 18.167969 2.953125 18.207031 3.25 18.25 C 3.265625 18.390625 3.28125 18.527344 3.296875 18.671875 C 3.332031 19.128906 3.332031 19.128906 3.625 19.375 C 3.890625 19.335938 3.890625 19.335938 4.125 19.25 C 4.167969 18.960938 4.207031 18.671875 4.25 18.375 C 4.539062 18.375 4.828125 18.375 5.125 18.375 C 5.046875 19.207031 4.675781 19.730469 4.09375 20.304688 C 3.730469 20.601562 3.632812 20.625 3.132812 20.65625 C 2.347656 20.480469 1.734375 19.945312 1.25 19.320312 C 0.828125 18.570312 0.875 17.703125 1 16.875 C 1.324219 16.0625 1.890625 15.570312 2.625 15.125 C 3.09375 14.96875 3.382812 14.933594 3.875 15 Z M 3.875 15 "/>
<path style=" stroke:none;fill-rule:nonzero;fill:rgb(14.901961%,70.980394%,60.000002%);fill-opacity:1;" d="M 3.875 15 C 4.832031 15.066406 5.378906 15.332031 6.03125 16.054688 C 6.546875 16.691406 6.691406 17.222656 6.671875 18.039062 C 6.546875 18.953125 6.0625 19.683594 5.335938 20.234375 C 4.761719 20.617188 4.3125 20.652344 3.625 20.625 C 3.71875 20.535156 3.808594 20.445312 3.90625 20.351562 C 4.523438 19.71875 4.84375 19.207031 5.125 18.375 C 4.835938 18.375 4.546875 18.375 4.25 18.375 C 4.253906 18.515625 4.261719 18.652344 4.265625 18.796875 C 4.25 19.25 4.25 19.25 4 19.5 C 3.632812 19.453125 3.515625 19.390625 3.25 19.125 C 3.234375 18.671875 3.234375 18.671875 3.25 18.25 C 3.042969 18.257812 3.042969 18.257812 2.828125 18.265625 C 2.375 18.25 2.375 18.25 2.125 18 C 2.171875 17.671875 2.171875 17.671875 2.25 17.375 C 2.621094 17.375 2.992188 17.375 3.375 17.375 C 3.375 17.003906 3.375 16.632812 3.375 16.25 C 3.671875 16.171875 3.671875 16.171875 4 16.125 C 4.25 16.375 4.25 16.375 4.265625 16.828125 C 4.261719 16.96875 4.253906 17.105469 4.25 17.25 C 4.539062 17.25 4.828125 17.25 5.125 17.25 C 4.929688 16.441406 4.628906 15.917969 4.054688 15.316406 C 3.875 15.125 3.875 15.125 3.875 15 Z M 3.875 15 "/>
<path style=" stroke:none;fill-rule:nonzero;fill:rgb(86.666667%,37.64706%,41.568628%);fill-opacity:1;" d="M 28.375 15 C 29.167969 15.066406 29.800781 15.261719 30.34375 15.871094 C 31.054688 16.804688 31.121094 17.589844 31 18.75 C 30.636719 19.722656 29.890625 20.179688 29 20.625 C 28.707031 20.628906 28.417969 20.628906 28.125 20.625 C 28.214844 20.542969 28.304688 20.460938 28.398438 20.375 C 29.011719 19.761719 29.367188 19.070312 29.625 18.25 C 29.539062 18.25 29.453125 18.25 29.363281 18.253906 C 28.972656 18.253906 28.585938 18.257812 28.195312 18.257812 C 28.058594 18.257812 27.921875 18.261719 27.78125 18.261719 C 27.652344 18.261719 27.523438 18.261719 27.390625 18.261719 C 27.269531 18.261719 27.152344 18.265625 27.027344 18.265625 C 26.75 18.25 26.75 18.25 26.625 18.125 C 26.601562 17.820312 26.601562 17.820312 26.625 17.5 C 26.875 17.25 26.875 17.25 27.15625 17.222656 C 27.269531 17.222656 27.382812 17.222656 27.5 17.226562 C 27.625 17.226562 27.746094 17.226562 27.875 17.226562 C 28.066406 17.230469 28.066406 17.230469 28.265625 17.234375 C 28.394531 17.234375 28.527344 17.234375 28.660156 17.238281 C 28.980469 17.242188 29.304688 17.246094 29.625 17.25 C 29.570312 17.089844 29.511719 16.933594 29.453125 16.773438 C 29.421875 16.6875 29.390625 16.597656 29.355469 16.507812 C 29.125 15.949219 28.742188 15.476562 28.375 15 Z M 28.375 15 "/>
<path style=" stroke:none;fill-rule:nonzero;fill:rgb(97.254902%,96.470588%,96.862745%);fill-opacity:1;" d="M 7.75 24.625 C 8.285156 24.625 8.824219 24.625 9.375 24.625 C 9.375 26.152344 9.375 27.675781 9.375 29.25 C 8.839844 29.25 8.300781 29.25 7.75 29.25 C 7.75 27.722656 7.75 26.199219 7.75 24.625 Z M 7.75 24.625 "/>
<path style=" stroke:none;fill-rule:nonzero;fill:rgb(0.392157%,0.784314%,1.176471%);fill-opacity:1;" d="M 17.625 23.875 C 18.085938 23.960938 18.085938 23.960938 18.25 24.125 C 18.3125 24.558594 18.261719 24.734375 18.03125 25.109375 C 17.9375 25.234375 17.84375 25.351562 17.75 25.476562 C 17.65625 25.597656 17.5625 25.71875 17.46875 25.847656 C 17.394531 25.9375 17.324219 26.03125 17.25 26.125 C 17.390625 26.140625 17.527344 26.15625 17.671875 26.171875 C 18.125 26.25 18.125 26.25 18.375 26.5 C 18.359375 27.261719 18.085938 27.699219 17.640625 28.28125 C 17.585938 28.359375 17.527344 28.433594 17.472656 28.511719 C 16.910156 29.269531 16.910156 29.269531 16.625 29.5 C 16.351562 29.460938 16.351562 29.460938 16.125 29.375 C 16.027344 29.117188 16.027344 29.117188 16 28.75 C 16.171875 28.441406 16.34375 28.179688 16.554688 27.898438 C 16.609375 27.824219 16.664062 27.75 16.71875 27.671875 C 16.851562 27.488281 16.988281 27.304688 17.125 27.125 C 16.886719 27.132812 16.886719 27.132812 16.640625 27.140625 C 16.367188 27.148438 16.367188 27.148438 16.125 27.125 C 16.042969 27.042969 15.960938 26.960938 15.875 26.875 C 15.875 26.113281 16.316406 25.609375 16.75 25.023438 C 16.820312 24.925781 16.890625 24.828125 16.960938 24.730469 C 17.464844 24.035156 17.464844 24.035156 17.625 23.875 Z M 17.625 23.875 "/>
<path style=" stroke:none;fill-rule:nonzero;fill:rgb(96.078432%,71.372551%,33.725491%);fill-opacity:1;" d="M 16.75 5.625 C 16.996094 5.625 17.246094 5.625 17.5 5.625 C 17.539062 5.703125 17.578125 5.78125 17.617188 5.863281 C 17.996094 6.609375 18.429688 7.246094 18.953125 7.890625 C 19.96875 9.15625 20.296875 10.078125 20.125 11.75 C 19.894531 12.835938 19.375 13.675781 18.472656 14.324219 C 18.234375 14.476562 17.996094 14.617188 17.75 14.75 C 17.75 14.625 17.75 14.503906 17.75 14.375 C 17.835938 14.296875 17.925781 14.214844 18.015625 14.132812 C 18.78125 13.417969 19.191406 12.304688 19.28125 11.285156 C 19.320312 9.664062 18.734375 8.625 17.75 7.375 C 16.925781 6.332031 16.925781 6.332031 16.75 5.625 Z M 16.75 5.625 "/>
<path style=" stroke:none;fill-rule:nonzero;fill:rgb(97.254902%,96.470588%,96.862745%);fill-opacity:1;" d="M 14.523438 3.339844 C 14.609375 3.339844 14.699219 3.339844 14.789062 3.339844 C 14.925781 3.339844 14.925781 3.339844 15.0625 3.339844 C 15.253906 3.339844 15.445312 3.339844 15.636719 3.34375 C 15.925781 3.34375 16.21875 3.34375 16.511719 3.339844 C 16.699219 3.339844 16.882812 3.339844 17.070312 3.339844 C 17.15625 3.339844 17.246094 3.339844 17.335938 3.339844 C 17.792969 3.34375 17.984375 3.363281 18.375 3.625 C 18.421875 4 18.421875 4 18.375 4.375 C 17.925781 4.675781 17.59375 4.664062 17.074219 4.664062 C 16.9375 4.664062 16.9375 4.664062 16.800781 4.664062 C 16.609375 4.664062 16.421875 4.664062 16.230469 4.664062 C 15.9375 4.664062 15.648438 4.667969 15.355469 4.671875 C 15.171875 4.671875 14.988281 4.671875 14.800781 4.671875 C 14.671875 4.671875 14.671875 4.671875 14.535156 4.675781 C 14.175781 4.671875 13.929688 4.664062 13.628906 4.457031 C 13.5 4.25 13.5 4.25 13.523438 3.929688 C 13.714844 3.359375 13.960938 3.34375 14.523438 3.339844 Z M 14.523438 3.339844 "/>
<path style=" stroke:none;fill-rule:nonzero;fill:rgb(0.784314%,2.352941%,1.960784%);fill-opacity:1;" d="M 4.125 16.25 C 4.25 16.375 4.25 16.375 4.261719 16.605469 C 4.257812 16.863281 4.253906 17.117188 4.25 17.375 C 4.414062 17.371094 4.574219 17.371094 4.742188 17.367188 C 4.910156 17.363281 5.082031 17.367188 5.25 17.375 C 5.375 17.5 5.375 17.5 5.390625 17.8125 C 5.375 18.125 5.375 18.125 5.25 18.25 C 4.917969 18.265625 4.585938 18.253906 4.25 18.25 C 4.253906 18.410156 4.261719 18.570312 4.265625 18.734375 C 4.273438 19.007812 4.273438 19.007812 4.25 19.25 C 4.167969 19.332031 4.085938 19.414062 4 19.5 C 3.632812 19.453125 3.515625 19.390625 3.25 19.125 C 3.234375 18.671875 3.234375 18.671875 3.25 18.25 C 3.042969 18.257812 3.042969 18.257812 2.828125 18.265625 C 2.375 18.25 2.375 18.25 2.125 18 C 2.171875 17.671875 2.171875 17.671875 2.25 17.375 C 2.621094 17.375 2.992188 17.375 3.375 17.375 C 3.375 17.003906 3.375 16.632812 3.375 16.25 C 3.6875 16.09375 3.800781 16.144531 4.125 16.25 Z M 4.125 16.25 "/>
<path style=" stroke:none;fill-rule:nonzero;fill:rgb(21.176471%,36.470589%,48.627451%);fill-opacity:1;" d="M 16.75 0.875 C 17.148438 1.125 17.148438 1.125 17.375 1.5 C 17.375 1.828125 17.375 2.160156 17.375 2.5 C 16.550781 2.5 15.726562 2.5 14.875 2.5 C 14.875 1.375 14.875 1.375 15.039062 1.054688 C 15.59375 0.757812 16.140625 0.773438 16.75 0.875 Z M 16.75 0.875 "/>
<path style=" stroke:none;fill-rule:nonzero;fill:rgb(0.392157%,0%,0%);fill-opacity:1;" d="M 28.179688 17.351562 C 28.382812 17.347656 28.382812 17.347656 28.585938 17.347656 C 28.714844 17.347656 28.84375 17.347656 28.976562 17.347656 C 29.152344 17.34375 29.152344 17.34375 29.335938 17.34375 C 29.625 17.375 29.625 17.375 29.875 17.625 C 29.808594 18.066406 29.808594 18.066406 29.625 18.25 C 29.414062 18.261719 29.199219 18.265625 28.988281 18.265625 C 28.859375 18.265625 28.730469 18.265625 28.597656 18.265625 C 28.394531 18.265625 28.394531 18.265625 28.1875 18.265625 C 28.050781 18.265625 27.914062 18.265625 27.777344 18.265625 C 27.648438 18.265625 27.519531 18.265625 27.386719 18.265625 C 27.265625 18.265625 27.148438 18.265625 27.027344 18.265625 C 26.75 18.25 26.75 18.25 26.625 18.125 C 26.609375 17.8125 26.609375 17.8125 26.625 17.5 C 26.933594 17.191406 27.761719 17.351562 28.179688 17.351562 Z M 28.179688 17.351562 "/>
<path style=" stroke:none;fill-rule:nonzero;fill:rgb(83.92157%,83.137256%,85.490197%);fill-opacity:1;" d="M 7.75 24.625 C 8.285156 24.625 8.824219 24.625 9.375 24.625 C 9.375 26.152344 9.375 27.675781 9.375 29.25 C 8.839844 29.25 8.300781 29.25 7.75 29.25 C 7.75 28.921875 7.75 28.589844 7.75 28.25 C 8.246094 28.25 8.738281 28.25 9.25 28.25 C 9.25 27.09375 9.25 25.941406 9.25 24.75 C 8.753906 24.75 8.261719 24.75 7.75 24.75 C 7.75 24.707031 7.75 24.667969 7.75 24.625 Z M 7.75 24.625 "/>
<path style=" stroke:none;fill-rule:nonzero;fill:rgb(94.901961%,94.117647%,94.509804%);fill-opacity:1;" d="M 16.5 10.625 C 16.625 10.75 16.625 10.75 16.648438 11.179688 C 16.625 11.625 16.625 11.625 16.375 11.875 C 15.984375 11.917969 15.730469 11.941406 15.390625 11.726562 C 15.199219 11.417969 15.195312 11.230469 15.25 10.875 C 15.550781 10.34375 15.96875 10.507812 16.5 10.625 Z M 16.5 10.625 "/>
<path style=" stroke:none;fill-rule:nonzero;fill:rgb(14.117648%,25.490198%,33.725491%);fill-opacity:1;" d="M 15.375 0.875 C 16.597656 0.777344 16.597656 0.777344 17.148438 1.125 C 17.375 1.5 17.375 1.5 17.375 2.5 C 16.550781 2.5 15.726562 2.5 14.875 2.5 C 14.875 2.457031 14.875 2.417969 14.875 2.375 C 15.410156 2.375 15.949219 2.375 16.5 2.375 C 16.457031 1.921875 16.417969 1.46875 16.375 1 C 16.046875 1 15.714844 1 15.375 1 C 15.375 0.957031 15.375 0.917969 15.375 0.875 Z M 15.375 0.875 "/>
<path style=" stroke:none;fill-rule:nonzero;fill:rgb(84.313726%,83.92157%,85.882354%);fill-opacity:1;" d="M 14.523438 3.339844 C 14.609375 3.339844 14.699219 3.339844 14.789062 3.339844 C 14.925781 3.339844 14.925781 3.339844 15.0625 3.339844 C 15.253906 3.339844 15.445312 3.339844 15.636719 3.34375 C 15.925781 3.34375 16.21875 3.34375 16.511719 3.339844 C 16.699219 3.339844 16.882812 3.339844 17.070312 3.339844 C 17.15625 3.339844 17.246094 3.339844 17.335938 3.339844 C 17.792969 3.34375 17.984375 3.363281 18.375 3.625 C 18.421875 4 18.421875 4 18.375 4.375 C 18 4.625 18 4.625 17.5 4.625 C 17.5 4.253906 17.5 3.882812 17.5 3.5 C 16.925781 3.503906 16.355469 3.511719 15.78125 3.523438 C 15.617188 3.523438 15.457031 3.523438 15.289062 3.523438 C 15.132812 3.527344 14.976562 3.53125 14.8125 3.535156 C 14.671875 3.539062 14.527344 3.539062 14.378906 3.542969 C 13.894531 3.648438 13.765625 3.84375 13.5 4.25 C 13.613281 3.519531 13.769531 3.347656 14.523438 3.339844 Z M 14.523438 3.339844 "/>
</g>
</svg>
