<?xml version="1.0" encoding="UTF-8"?>
<svg xmlns="http://www.w3.org/2000/svg" xmlns:xlink="http://www.w3.org/1999/xlink" width="32" height="32" viewBox="0 0 32 32" version="1.1">
<g id="surface1">
<path style=" stroke:none;fill-rule:nonzero;fill:rgb(100%,75.294119%,5.882353%);fill-opacity:1;" d="M 19.449219 16.980469 C 19.574219 16.980469 19.574219 16.980469 19.699219 16.976562 C 19.972656 16.976562 20.246094 16.976562 20.523438 16.976562 C 20.710938 16.972656 20.902344 16.972656 21.09375 16.972656 C 21.496094 16.972656 21.894531 16.96875 22.296875 16.96875 C 22.808594 16.96875 23.320312 16.964844 23.832031 16.960938 C 24.230469 16.960938 24.625 16.960938 25.019531 16.960938 C 25.207031 16.957031 25.394531 16.957031 25.585938 16.957031 C 25.851562 16.953125 26.113281 16.953125 26.378906 16.953125 C 26.53125 16.953125 26.679688 16.953125 26.835938 16.953125 C 27.5 17.027344 27.988281 17.292969 28.414062 17.804688 C 28.507812 17.914062 28.507812 17.914062 28.601562 18.023438 C 28.914062 18.5 28.890625 19 28.898438 19.558594 C 28.898438 19.804688 28.898438 19.804688 28.902344 20.058594 C 28.902344 20.238281 28.902344 20.417969 28.90625 20.597656 C 28.90625 20.6875 28.90625 20.777344 28.90625 20.871094 C 28.910156 21.351562 28.910156 21.832031 28.914062 22.3125 C 28.914062 22.804688 28.917969 23.296875 28.921875 23.792969 C 28.925781 24.175781 28.925781 24.554688 28.925781 24.9375 C 28.925781 25.121094 28.929688 25.300781 28.929688 25.484375 C 28.945312 26.476562 28.941406 27.277344 28.375 28.125 C 27.746094 28.738281 27.164062 28.90625 26.296875 28.910156 C 26.136719 28.910156 25.96875 28.910156 25.800781 28.914062 C 25.621094 28.914062 25.441406 28.914062 25.261719 28.914062 C 25.078125 28.914062 24.894531 28.914062 24.707031 28.914062 C 24.320312 28.914062 23.933594 28.914062 23.546875 28.914062 C 23.054688 28.914062 22.558594 28.917969 22.066406 28.917969 C 21.683594 28.921875 21.300781 28.921875 20.921875 28.917969 C 20.738281 28.917969 20.554688 28.921875 20.375 28.921875 C 18.371094 28.933594 18.371094 28.933594 17.628906 28.285156 C 17.570312 28.210938 17.511719 28.136719 17.453125 28.0625 C 17.363281 27.953125 17.363281 27.953125 17.269531 27.839844 C 16.960938 27.386719 16.980469 26.960938 16.980469 26.425781 C 16.980469 26.34375 16.980469 26.261719 16.976562 26.175781 C 16.976562 25.902344 16.976562 25.628906 16.976562 25.355469 C 16.972656 25.164062 16.972656 24.972656 16.972656 24.78125 C 16.972656 24.378906 16.96875 23.980469 16.96875 23.578125 C 16.96875 23.066406 16.964844 22.554688 16.960938 22.042969 C 16.960938 21.644531 16.960938 21.25 16.960938 20.855469 C 16.957031 20.667969 16.957031 20.480469 16.957031 20.289062 C 16.953125 20.023438 16.953125 19.761719 16.953125 19.496094 C 16.953125 19.347656 16.953125 19.195312 16.953125 19.039062 C 17.027344 18.371094 17.292969 17.882812 17.8125 17.460938 C 17.886719 17.398438 17.960938 17.339844 18.035156 17.273438 C 18.488281 16.957031 18.914062 16.980469 19.449219 16.980469 Z M 19.449219 16.980469 "/>
<path style=" stroke:none;fill-rule:nonzero;fill:rgb(89.803922%,23.529412%,21.176471%);fill-opacity:1;" d="M 5.574219 16.980469 C 5.699219 16.980469 5.699219 16.980469 5.824219 16.976562 C 6.097656 16.976562 6.371094 16.976562 6.648438 16.976562 C 6.835938 16.972656 7.027344 16.972656 7.21875 16.972656 C 7.621094 16.972656 8.019531 16.96875 8.421875 16.96875 C 8.933594 16.96875 9.445312 16.964844 9.957031 16.960938 C 10.355469 16.960938 10.75 16.960938 11.144531 16.960938 C 11.332031 16.957031 11.519531 16.957031 11.710938 16.957031 C 11.976562 16.953125 12.238281 16.953125 12.503906 16.953125 C 12.65625 16.953125 12.804688 16.953125 12.960938 16.953125 C 13.628906 17.027344 14.117188 17.292969 14.539062 17.8125 C 14.632812 17.921875 14.632812 17.921875 14.726562 18.035156 C 15.042969 18.488281 15.015625 18.914062 15.019531 19.449219 C 15.019531 19.574219 15.019531 19.574219 15.023438 19.699219 C 15.023438 19.972656 15.023438 20.246094 15.023438 20.523438 C 15.027344 20.714844 15.027344 20.902344 15.027344 21.09375 C 15.027344 21.496094 15.03125 21.894531 15.03125 22.296875 C 15.03125 22.808594 15.035156 23.324219 15.039062 23.832031 C 15.039062 24.230469 15.039062 24.625 15.039062 25.019531 C 15.042969 25.207031 15.042969 25.394531 15.042969 25.585938 C 15.046875 25.851562 15.042969 26.113281 15.042969 26.378906 C 15.042969 26.605469 15.042969 26.605469 15.046875 26.835938 C 14.972656 27.5 14.707031 27.988281 14.195312 28.414062 C 14.125 28.476562 14.050781 28.539062 13.976562 28.601562 C 13.5 28.914062 13 28.890625 12.441406 28.898438 C 12.277344 28.898438 12.109375 28.898438 11.941406 28.902344 C 11.761719 28.902344 11.582031 28.902344 11.40625 28.90625 C 11.269531 28.90625 11.269531 28.90625 11.128906 28.90625 C 10.648438 28.910156 10.167969 28.910156 9.6875 28.914062 C 9.195312 28.914062 8.699219 28.917969 8.207031 28.921875 C 7.824219 28.925781 7.445312 28.925781 7.0625 28.925781 C 6.878906 28.925781 6.699219 28.929688 6.515625 28.929688 C 5.523438 28.945312 4.722656 28.941406 3.875 28.375 C 3.261719 27.746094 3.09375 27.164062 3.089844 26.296875 C 3.089844 26.136719 3.089844 25.96875 3.085938 25.800781 C 3.085938 25.621094 3.085938 25.441406 3.085938 25.261719 C 3.085938 25.078125 3.085938 24.894531 3.085938 24.707031 C 3.085938 24.320312 3.085938 23.933594 3.085938 23.546875 C 3.085938 23.054688 3.082031 22.558594 3.082031 22.066406 C 3.078125 21.683594 3.078125 21.300781 3.078125 20.921875 C 3.078125 20.738281 3.078125 20.554688 3.078125 20.375 C 3.066406 18.371094 3.066406 18.371094 3.714844 17.628906 C 3.789062 17.570312 3.863281 17.511719 3.9375 17.453125 C 4.011719 17.390625 4.085938 17.332031 4.160156 17.269531 C 4.617188 16.960938 5.039062 16.980469 5.574219 16.980469 Z M 5.574219 16.980469 "/>
<path style=" stroke:none;fill-rule:nonzero;fill:rgb(17.254902%,67.058825%,88.235295%);fill-opacity:1;" d="M 5.699219 3.089844 C 5.867188 3.089844 6.03125 3.089844 6.199219 3.085938 C 6.378906 3.085938 6.558594 3.085938 6.738281 3.085938 C 6.921875 3.085938 7.105469 3.085938 7.292969 3.085938 C 7.679688 3.085938 8.066406 3.085938 8.453125 3.085938 C 8.945312 3.085938 9.441406 3.085938 9.933594 3.082031 C 10.316406 3.078125 10.695312 3.078125 11.078125 3.078125 C 11.261719 3.078125 11.445312 3.078125 11.625 3.078125 C 13.628906 3.066406 13.628906 3.066406 14.371094 3.714844 C 14.457031 3.824219 14.457031 3.824219 14.546875 3.9375 C 14.605469 4.011719 14.667969 4.085938 14.730469 4.160156 C 15.039062 4.617188 15.015625 5.039062 15.019531 5.570312 C 15.019531 5.695312 15.019531 5.695312 15.023438 5.824219 C 15.023438 6.097656 15.023438 6.375 15.027344 6.648438 C 15.027344 6.839844 15.027344 7.03125 15.027344 7.21875 C 15.027344 7.621094 15.03125 8.023438 15.03125 8.421875 C 15.03125 8.933594 15.035156 9.445312 15.039062 9.960938 C 15.039062 10.355469 15.039062 10.75 15.039062 11.144531 C 15.039062 11.332031 15.042969 11.519531 15.042969 11.710938 C 15.046875 11.972656 15.046875 12.238281 15.042969 12.503906 C 15.042969 12.730469 15.042969 12.730469 15.046875 12.960938 C 14.972656 13.628906 14.707031 14.117188 14.1875 14.539062 C 14.078125 14.628906 14.078125 14.628906 13.964844 14.726562 C 13.511719 15.039062 13.085938 15.015625 12.550781 15.019531 C 12.46875 15.019531 12.386719 15.023438 12.300781 15.023438 C 12.027344 15.023438 11.753906 15.023438 11.476562 15.027344 C 11.289062 15.027344 11.097656 15.027344 10.90625 15.027344 C 10.503906 15.03125 10.101562 15.03125 9.703125 15.03125 C 9.191406 15.03125 8.679688 15.03125 8.164062 15.035156 C 7.769531 15.039062 7.375 15.039062 6.980469 15.039062 C 6.792969 15.039062 6.601562 15.042969 6.414062 15.042969 C 6.152344 15.046875 5.886719 15.046875 5.621094 15.042969 C 5.472656 15.042969 5.320312 15.046875 5.164062 15.046875 C 4.5 14.972656 4.011719 14.710938 3.585938 14.195312 C 3.523438 14.125 3.464844 14.050781 3.398438 13.976562 C 3.085938 13.5 3.105469 13 3.101562 12.441406 C 3.101562 12.277344 3.101562 12.113281 3.097656 11.941406 C 3.097656 11.761719 3.097656 11.582031 3.09375 11.40625 C 3.09375 11.3125 3.09375 11.222656 3.09375 11.128906 C 3.089844 10.648438 3.089844 10.167969 3.089844 9.6875 C 3.085938 9.195312 3.082031 8.699219 3.078125 8.207031 C 3.074219 7.824219 3.074219 7.445312 3.070312 7.0625 C 3.070312 6.878906 3.070312 6.699219 3.070312 6.515625 C 3.054688 5.523438 3.058594 4.722656 3.625 3.875 C 4.253906 3.261719 4.835938 3.09375 5.699219 3.089844 Z M 5.699219 3.089844 "/>
<path style=" stroke:none;fill-rule:nonzero;fill:rgb(48.627451%,70.19608%,25.882354%);fill-opacity:1;" d="M 19.558594 3.101562 C 19.804688 3.101562 19.804688 3.101562 20.058594 3.097656 C 20.238281 3.097656 20.414062 3.097656 20.597656 3.09375 C 20.6875 3.09375 20.777344 3.09375 20.871094 3.09375 C 21.351562 3.089844 21.832031 3.089844 22.3125 3.085938 C 22.804688 3.085938 23.296875 3.082031 23.792969 3.078125 C 24.175781 3.074219 24.554688 3.074219 24.9375 3.074219 C 25.121094 3.070312 25.300781 3.070312 25.484375 3.066406 C 26.476562 3.054688 27.277344 3.058594 28.125 3.625 C 28.738281 4.253906 28.90625 4.835938 28.910156 5.699219 C 28.910156 5.867188 28.914062 6.03125 28.914062 6.199219 C 28.914062 6.378906 28.914062 6.558594 28.914062 6.738281 C 28.914062 6.921875 28.914062 7.105469 28.914062 7.292969 C 28.914062 7.679688 28.914062 8.066406 28.914062 8.453125 C 28.914062 8.945312 28.914062 9.441406 28.917969 9.933594 C 28.921875 10.316406 28.921875 10.699219 28.917969 11.078125 C 28.921875 11.261719 28.921875 11.441406 28.921875 11.625 C 28.933594 13.628906 28.933594 13.628906 28.285156 14.371094 C 28.175781 14.457031 28.175781 14.457031 28.0625 14.546875 C 27.988281 14.605469 27.914062 14.667969 27.839844 14.730469 C 27.382812 15.039062 26.960938 15.015625 26.425781 15.019531 C 26.34375 15.019531 26.261719 15.023438 26.175781 15.023438 C 25.902344 15.023438 25.628906 15.023438 25.351562 15.023438 C 25.164062 15.027344 24.972656 15.027344 24.78125 15.027344 C 24.378906 15.027344 23.976562 15.027344 23.578125 15.03125 C 23.066406 15.03125 22.554688 15.035156 22.039062 15.039062 C 21.644531 15.039062 21.25 15.039062 20.855469 15.039062 C 20.667969 15.039062 20.476562 15.042969 20.289062 15.042969 C 20.027344 15.046875 19.761719 15.046875 19.496094 15.042969 C 19.347656 15.046875 19.195312 15.046875 19.039062 15.046875 C 18.371094 14.972656 17.882812 14.707031 17.460938 14.1875 C 17.398438 14.113281 17.339844 14.039062 17.273438 13.964844 C 16.960938 13.511719 16.984375 13.085938 16.980469 12.554688 C 16.980469 12.46875 16.976562 12.386719 16.976562 12.300781 C 16.976562 12.027344 16.976562 11.753906 16.976562 11.476562 C 16.972656 11.285156 16.972656 11.09375 16.972656 10.90625 C 16.972656 10.503906 16.972656 10.105469 16.96875 9.703125 C 16.96875 9.191406 16.964844 8.679688 16.960938 8.164062 C 16.960938 7.773438 16.960938 7.375 16.960938 6.980469 C 16.960938 6.792969 16.957031 6.605469 16.957031 6.414062 C 16.953125 6.148438 16.953125 5.886719 16.957031 5.621094 C 16.953125 5.46875 16.953125 5.320312 16.953125 5.164062 C 17.027344 4.5 17.289062 4.011719 17.804688 3.585938 C 17.878906 3.523438 17.949219 3.460938 18.023438 3.398438 C 18.5 3.085938 19 3.109375 19.558594 3.101562 Z M 19.558594 3.101562 "/>
<path style=" stroke:none;fill-rule:nonzero;fill:rgb(98.431373%,95.686275%,87.058824%);fill-opacity:1;" d="M 19.125 19.25 C 21.601562 19.25 24.074219 19.25 26.625 19.25 C 26.625 21.726562 26.625 24.199219 26.625 26.75 C 25.410156 26.753906 24.195312 26.753906 22.945312 26.757812 C 22.5625 26.757812 22.175781 26.761719 21.78125 26.761719 C 21.480469 26.761719 21.175781 26.761719 20.875 26.761719 C 20.71875 26.761719 20.558594 26.765625 20.394531 26.765625 C 20.246094 26.765625 20.09375 26.765625 19.941406 26.765625 C 19.746094 26.765625 19.746094 26.765625 19.546875 26.765625 C 19.25 26.75 19.25 26.75 19.125 26.625 C 19.113281 26.394531 19.109375 26.164062 19.109375 25.933594 C 19.109375 25.785156 19.109375 25.632812 19.109375 25.480469 C 19.109375 25.242188 19.109375 25.242188 19.113281 25 C 19.113281 24.855469 19.113281 24.710938 19.113281 24.558594 C 19.113281 24.015625 19.113281 23.472656 19.117188 22.929688 C 19.121094 21.714844 19.121094 20.5 19.125 19.25 Z M 19.125 19.25 "/>
<path style=" stroke:none;fill-rule:nonzero;fill:rgb(92.941177%,95.294118%,90.196079%);fill-opacity:1;" d="M 19.125 5.375 C 21.601562 5.375 24.074219 5.375 26.625 5.375 C 26.625 7.851562 26.625 10.324219 26.625 12.875 C 25.410156 12.878906 24.195312 12.878906 22.945312 12.882812 C 22.5625 12.882812 22.175781 12.886719 21.78125 12.886719 C 21.480469 12.886719 21.175781 12.886719 20.875 12.886719 C 20.71875 12.886719 20.558594 12.890625 20.394531 12.890625 C 20.246094 12.890625 20.09375 12.890625 19.941406 12.890625 C 19.746094 12.890625 19.746094 12.890625 19.546875 12.890625 C 19.25 12.875 19.25 12.875 19.125 12.75 C 19.113281 12.519531 19.109375 12.289062 19.109375 12.058594 C 19.109375 11.910156 19.109375 11.757812 19.109375 11.605469 C 19.109375 11.367188 19.109375 11.367188 19.113281 11.125 C 19.113281 10.980469 19.113281 10.835938 19.113281 10.683594 C 19.113281 10.140625 19.113281 9.597656 19.117188 9.054688 C 19.121094 7.839844 19.121094 6.625 19.125 5.375 Z M 19.125 5.375 "/>
<path style=" stroke:none;fill-rule:nonzero;fill:rgb(87.058824%,94.117647%,97.647059%);fill-opacity:1;" d="M 5.25 5.375 C 7.726562 5.375 10.199219 5.375 12.75 5.375 C 12.75 7.851562 12.75 10.324219 12.75 12.875 C 11.535156 12.878906 10.320312 12.878906 9.070312 12.882812 C 8.6875 12.882812 8.300781 12.886719 7.90625 12.886719 C 7.605469 12.886719 7.300781 12.886719 7 12.886719 C 6.84375 12.886719 6.683594 12.890625 6.519531 12.890625 C 6.371094 12.890625 6.21875 12.890625 6.066406 12.890625 C 5.871094 12.890625 5.871094 12.890625 5.671875 12.890625 C 5.375 12.875 5.375 12.875 5.25 12.75 C 5.238281 12.519531 5.234375 12.289062 5.234375 12.058594 C 5.234375 11.910156 5.234375 11.757812 5.234375 11.605469 C 5.234375 11.367188 5.234375 11.367188 5.238281 11.125 C 5.238281 10.980469 5.238281 10.835938 5.238281 10.683594 C 5.238281 10.140625 5.238281 9.597656 5.242188 9.054688 C 5.246094 7.839844 5.246094 6.625 5.25 5.375 Z M 5.25 5.375 "/>
<path style=" stroke:none;fill-rule:nonzero;fill:rgb(97.647059%,90.588236%,91.764706%);fill-opacity:1;" d="M 5.375 19.25 C 7.808594 19.25 10.242188 19.25 12.75 19.25 C 12.75 21.683594 12.75 24.117188 12.75 26.625 C 10.316406 26.625 7.882812 26.625 5.375 26.625 C 5.375 24.191406 5.375 21.757812 5.375 19.25 Z M 5.375 19.25 "/>
<path style=" stroke:none;fill-rule:nonzero;fill:rgb(100%,91.37255%,67.058825%);fill-opacity:1;" d="M 19.125 19.25 C 19.578125 19.25 20.03125 19.25 20.5 19.25 C 20.5 21.269531 20.5 23.292969 20.5 25.375 C 22.519531 25.375 24.542969 25.375 26.625 25.375 C 26.625 25.828125 26.625 26.28125 26.625 26.75 C 25.664062 26.753906 24.707031 26.753906 23.746094 26.757812 C 23.300781 26.757812 22.855469 26.757812 22.410156 26.761719 C 21.898438 26.761719 21.386719 26.761719 20.875 26.761719 C 20.636719 26.765625 20.636719 26.765625 20.390625 26.765625 C 20.167969 26.765625 20.167969 26.765625 19.941406 26.765625 C 19.746094 26.765625 19.746094 26.765625 19.546875 26.765625 C 19.25 26.75 19.25 26.75 19.125 26.625 C 19.113281 26.394531 19.109375 26.164062 19.109375 25.933594 C 19.109375 25.785156 19.109375 25.640625 19.109375 25.484375 C 19.109375 25.328125 19.113281 25.164062 19.113281 25 C 19.113281 24.835938 19.113281 24.671875 19.113281 24.503906 C 19.113281 24.070312 19.113281 23.632812 19.117188 23.199219 C 19.117188 22.753906 19.117188 22.308594 19.117188 21.863281 C 19.121094 20.992188 19.121094 20.121094 19.125 19.25 Z M 19.125 19.25 "/>
<path style=" stroke:none;fill-rule:nonzero;fill:rgb(84.313726%,90.980393%,76.078433%);fill-opacity:1;" d="M 19.125 5.375 C 19.578125 5.375 20.03125 5.375 20.5 5.375 C 20.5 7.394531 20.5 9.417969 20.5 11.5 C 22.519531 11.5 24.542969 11.5 26.625 11.5 C 26.625 11.953125 26.625 12.40625 26.625 12.875 C 25.664062 12.878906 24.707031 12.878906 23.746094 12.882812 C 23.300781 12.882812 22.855469 12.882812 22.410156 12.886719 C 21.898438 12.886719 21.386719 12.886719 20.875 12.886719 C 20.636719 12.890625 20.636719 12.890625 20.390625 12.890625 C 20.167969 12.890625 20.167969 12.890625 19.941406 12.890625 C 19.746094 12.890625 19.746094 12.890625 19.546875 12.890625 C 19.25 12.875 19.25 12.875 19.125 12.75 C 19.113281 12.519531 19.109375 12.289062 19.109375 12.058594 C 19.109375 11.910156 19.109375 11.765625 19.109375 11.609375 C 19.109375 11.453125 19.113281 11.289062 19.113281 11.125 C 19.113281 10.960938 19.113281 10.796875 19.113281 10.628906 C 19.113281 10.195312 19.113281 9.757812 19.117188 9.324219 C 19.117188 8.878906 19.117188 8.433594 19.117188 7.988281 C 19.121094 7.117188 19.121094 6.246094 19.125 5.375 Z M 19.125 5.375 "/>
<path style=" stroke:none;fill-rule:nonzero;fill:rgb(68.235296%,87.843138%,97.254902%);fill-opacity:1;" d="M 5.25 5.375 C 5.703125 5.375 6.15625 5.375 6.625 5.375 C 6.625 7.394531 6.625 9.417969 6.625 11.5 C 8.644531 11.5 10.667969 11.5 12.75 11.5 C 12.75 11.953125 12.75 12.40625 12.75 12.875 C 11.789062 12.878906 10.832031 12.878906 9.871094 12.882812 C 9.425781 12.882812 8.980469 12.882812 8.535156 12.886719 C 8.023438 12.886719 7.511719 12.886719 7 12.886719 C 6.761719 12.890625 6.761719 12.890625 6.515625 12.890625 C 6.292969 12.890625 6.292969 12.890625 6.066406 12.890625 C 5.871094 12.890625 5.871094 12.890625 5.671875 12.890625 C 5.375 12.875 5.375 12.875 5.25 12.75 C 5.238281 12.519531 5.234375 12.289062 5.234375 12.058594 C 5.234375 11.910156 5.234375 11.765625 5.234375 11.609375 C 5.234375 11.453125 5.238281 11.289062 5.238281 11.125 C 5.238281 10.960938 5.238281 10.796875 5.238281 10.628906 C 5.238281 10.195312 5.238281 9.757812 5.242188 9.324219 C 5.242188 8.878906 5.242188 8.433594 5.242188 7.988281 C 5.246094 7.117188 5.246094 6.246094 5.25 5.375 Z M 5.25 5.375 "/>
<path style=" stroke:none;fill-rule:nonzero;fill:rgb(97.647059%,80.000001%,82.352942%);fill-opacity:1;" d="M 5.375 19.25 C 5.789062 19.25 6.199219 19.25 6.625 19.25 C 6.625 21.269531 6.625 23.292969 6.625 25.375 C 8.644531 25.375 10.667969 25.375 12.75 25.375 C 12.75 25.789062 12.75 26.199219 12.75 26.625 C 10.316406 26.625 7.882812 26.625 5.375 26.625 C 5.375 24.191406 5.375 21.757812 5.375 19.25 Z M 5.375 19.25 "/>
<path style=" stroke:none;fill-rule:nonzero;fill:rgb(30.19608%,37.64706%,41.568628%);fill-opacity:1;" d="M 6.875 20.75 C 8.320312 20.75 9.761719 20.75 11.25 20.75 C 11.25 21.285156 11.25 21.824219 11.25 22.375 C 9.804688 22.375 8.363281 22.375 6.875 22.375 C 6.875 21.839844 6.875 21.300781 6.875 20.75 Z M 6.875 20.75 "/>
<path style=" stroke:none;fill-rule:nonzero;fill:rgb(29.803923%,38.039216%,41.960785%);fill-opacity:1;" d="M 6.875 9.625 C 8.320312 9.625 9.761719 9.625 11.25 9.625 C 11.25 10.160156 11.25 10.699219 11.25 11.25 C 9.804688 11.25 8.363281 11.25 6.875 11.25 C 6.875 10.714844 6.875 10.175781 6.875 9.625 Z M 6.875 9.625 "/>
<path style=" stroke:none;fill-rule:nonzero;fill:rgb(27.058825%,35.294119%,39.215687%);fill-opacity:1;" d="M 20.75 23.5 C 22.152344 23.5 23.554688 23.5 25 23.5 C 25 23.996094 25 24.488281 25 25 C 23.597656 25.042969 22.195312 25.082031 20.75 25.125 C 20.75 24.589844 20.75 24.050781 20.75 23.5 Z M 20.75 23.5 "/>
<path style=" stroke:none;fill-rule:nonzero;fill:rgb(27.058825%,35.294119%,39.215687%);fill-opacity:1;" d="M 20.75 6.875 C 22.152344 6.917969 23.554688 6.957031 25 7 C 25 7.496094 25 7.988281 25 8.5 C 23.597656 8.5 22.195312 8.5 20.75 8.5 C 20.75 7.964844 20.75 7.425781 20.75 6.875 Z M 20.75 6.875 "/>
<path style=" stroke:none;fill-rule:nonzero;fill:rgb(33.333334%,40.392157%,43.137255%);fill-opacity:1;" d="M 20.75 20.75 C 21.492188 20.75 22.234375 20.75 23 20.75 C 23 21.285156 23 21.824219 23 22.375 C 22.257812 22.375 21.515625 22.375 20.75 22.375 C 20.75 21.839844 20.75 21.300781 20.75 20.75 Z M 20.75 20.75 "/>
<path style=" stroke:none;fill-rule:nonzero;fill:rgb(32.941177%,40.392157%,43.529412%);fill-opacity:1;" d="M 20.75 9.625 C 21.492188 9.625 22.234375 9.625 23 9.625 C 23 10.160156 23 10.699219 23 11.25 C 22.257812 11.25 21.515625 11.25 20.75 11.25 C 20.75 10.714844 20.75 10.175781 20.75 9.625 Z M 20.75 9.625 "/>
<path style=" stroke:none;fill-rule:nonzero;fill:rgb(19.215687%,23.529412%,26.274511%);fill-opacity:1;" d="M 6.875 23.5 C 7.578125 23.5 8.277344 23.5 9 23.5 C 9 23.996094 9 24.488281 9 25 C 8.28125 25.105469 7.601562 25.136719 6.875 25.125 C 6.875 24.589844 6.875 24.050781 6.875 23.5 Z M 6.875 23.5 "/>
<path style=" stroke:none;fill-rule:nonzero;fill:rgb(18.82353%,23.921569%,26.274511%);fill-opacity:1;" d="M 6.875 6.875 C 7.601562 6.863281 8.28125 6.894531 9 7 C 9 7.496094 9 7.988281 9 8.5 C 8.296875 8.5 7.597656 8.5 6.875 8.5 C 6.875 7.964844 6.875 7.425781 6.875 6.875 Z M 6.875 6.875 "/>
<path style=" stroke:none;fill-rule:nonzero;fill:rgb(18.431373%,23.137255%,25.098041%);fill-opacity:1;" d="M 20.75 23.5 C 21.203125 23.5 21.65625 23.5 22.125 23.5 C 22.125 24.035156 22.125 24.574219 22.125 25.125 C 21.671875 25.125 21.21875 25.125 20.75 25.125 C 20.75 24.589844 20.75 24.050781 20.75 23.5 Z M 20.75 23.5 "/>
<path style=" stroke:none;fill-rule:nonzero;fill:rgb(18.431373%,22.745098%,25.098041%);fill-opacity:1;" d="M 6.875 20.75 C 7.328125 20.75 7.78125 20.75 8.25 20.75 C 8.25 21.285156 8.25 21.824219 8.25 22.375 C 7.796875 22.375 7.34375 22.375 6.875 22.375 C 6.875 21.839844 6.875 21.300781 6.875 20.75 Z M 6.875 20.75 "/>
<path style=" stroke:none;fill-rule:nonzero;fill:rgb(18.039216%,22.745098%,25.490198%);fill-opacity:1;" d="M 6.875 9.625 C 7.328125 9.625 7.78125 9.625 8.25 9.625 C 8.25 10.160156 8.25 10.699219 8.25 11.25 C 7.796875 11.25 7.34375 11.25 6.875 11.25 C 6.875 10.714844 6.875 10.175781 6.875 9.625 Z M 6.875 9.625 "/>
<path style=" stroke:none;fill-rule:nonzero;fill:rgb(18.039216%,23.137255%,25.098041%);fill-opacity:1;" d="M 20.75 6.875 C 21.203125 6.875 21.65625 6.875 22.125 6.875 C 22.125 7.410156 22.125 7.949219 22.125 8.5 C 21.671875 8.5 21.21875 8.5 20.75 8.5 C 20.75 7.964844 20.75 7.425781 20.75 6.875 Z M 20.75 6.875 "/>
<path style=" stroke:none;fill-rule:nonzero;fill:rgb(18.431373%,23.137255%,25.098041%);fill-opacity:1;" d="M 20.75 20.75 C 21.121094 20.75 21.492188 20.75 21.875 20.75 C 21.875 21.285156 21.875 21.824219 21.875 22.375 C 21.503906 22.375 21.132812 22.375 20.75 22.375 C 20.75 21.839844 20.75 21.300781 20.75 20.75 Z M 20.75 20.75 "/>
<path style=" stroke:none;fill-rule:nonzero;fill:rgb(18.039216%,23.137255%,25.490198%);fill-opacity:1;" d="M 20.75 9.625 C 21.121094 9.625 21.492188 9.625 21.875 9.625 C 21.875 10.160156 21.875 10.699219 21.875 11.25 C 21.503906 11.25 21.132812 11.25 20.75 11.25 C 20.75 10.714844 20.75 10.175781 20.75 9.625 Z M 20.75 9.625 "/>
<path style=" stroke:none;fill-rule:nonzero;fill:rgb(27.058825%,35.294119%,39.215687%);fill-opacity:1;" d="M 8 23.5 C 8.328125 23.5 8.660156 23.5 9 23.5 C 9 23.996094 9 24.488281 9 25 C 8.671875 25 8.339844 25 8 25 C 8 24.503906 8 24.011719 8 23.5 Z M 8 23.5 "/>
<path style=" stroke:none;fill-rule:nonzero;fill:rgb(27.058825%,35.294119%,39.215687%);fill-opacity:1;" d="M 8 7 C 8.328125 7 8.660156 7 9 7 C 9 7.496094 9 7.988281 9 8.5 C 8.671875 8.5 8.339844 8.5 8 8.5 C 8 8.003906 8 7.511719 8 7 Z M 8 7 "/>
</g>
</svg>
