<?xml version="1.0" encoding="UTF-8"?>
<svg xmlns="http://www.w3.org/2000/svg" xmlns:xlink="http://www.w3.org/1999/xlink" width="32" height="32" viewBox="0 0 32 32" version="1.1">
<g id="surface1">
<path style=" stroke:none;fill-rule:nonzero;fill:rgb(84.313726%,34.901962%,29.019609%);fill-opacity:1;" d="M 2.132812 17.351562 C 2.25 17.351562 2.363281 17.351562 2.484375 17.351562 C 2.867188 17.347656 3.25 17.347656 3.632812 17.34375 C 3.765625 17.34375 3.898438 17.34375 4.03125 17.34375 C 4.726562 17.339844 5.417969 17.339844 6.113281 17.335938 C 6.832031 17.335938 7.546875 17.332031 8.261719 17.328125 C 8.816406 17.324219 9.367188 17.324219 9.917969 17.324219 C 10.179688 17.320312 10.445312 17.320312 10.710938 17.316406 C 11.078125 17.316406 11.449219 17.316406 11.820312 17.316406 C 11.980469 17.3125 11.980469 17.3125 12.148438 17.3125 C 12.824219 17.316406 13.214844 17.421875 13.75 17.875 C 14.003906 18.257812 14.03125 18.332031 14.035156 18.761719 C 14.035156 18.863281 14.035156 18.96875 14.039062 19.074219 C 14.035156 19.1875 14.035156 19.300781 14.035156 19.417969 C 14.039062 19.539062 14.039062 19.65625 14.039062 19.78125 C 14.039062 20.179688 14.042969 20.574219 14.042969 20.972656 C 14.042969 21.246094 14.042969 21.523438 14.042969 21.796875 C 14.046875 22.375 14.046875 22.953125 14.046875 23.53125 C 14.046875 24.273438 14.050781 25.011719 14.054688 25.753906 C 14.058594 26.320312 14.058594 26.890625 14.058594 27.460938 C 14.058594 27.734375 14.058594 28.003906 14.0625 28.277344 C 14.0625 28.660156 14.0625 29.042969 14.0625 29.425781 C 14.0625 29.535156 14.0625 29.648438 14.066406 29.765625 C 14.058594 30.273438 14.042969 30.554688 13.777344 30.996094 C 13.367188 31.367188 13.042969 31.53125 12.488281 31.53125 C 12.335938 31.535156 12.335938 31.535156 12.183594 31.535156 C 12.019531 31.535156 12.019531 31.535156 11.851562 31.535156 C 11.734375 31.535156 11.621094 31.535156 11.5 31.535156 C 11.117188 31.539062 10.730469 31.539062 10.347656 31.539062 C 10.082031 31.539062 9.816406 31.539062 9.546875 31.539062 C 8.988281 31.539062 8.429688 31.539062 7.871094 31.539062 C 7.152344 31.539062 6.4375 31.539062 5.71875 31.542969 C 5.167969 31.546875 4.617188 31.546875 4.066406 31.546875 C 3.800781 31.546875 3.539062 31.546875 3.273438 31.546875 C 2.902344 31.550781 2.535156 31.546875 2.164062 31.546875 C 2 31.546875 2 31.546875 1.832031 31.550781 C 1.105469 31.542969 0.703125 31.421875 0.152344 30.925781 C -0.0898438 30.445312 -0.0546875 29.972656 -0.0546875 29.445312 C -0.0546875 29.324219 -0.0546875 29.207031 -0.0546875 29.082031 C -0.0585938 28.6875 -0.0585938 28.289062 -0.0585938 27.894531 C -0.0585938 27.621094 -0.0585938 27.34375 -0.0625 27.070312 C -0.0625 26.492188 -0.0625 25.917969 -0.0625 25.339844 C -0.0625 24.601562 -0.0664062 23.863281 -0.0703125 23.125 C -0.0742188 22.558594 -0.0742188 21.992188 -0.0742188 21.421875 C -0.0742188 21.148438 -0.0742188 20.878906 -0.078125 20.605469 C -0.0820312 20.226562 -0.078125 19.84375 -0.078125 19.460938 C -0.078125 19.351562 -0.0820312 19.238281 -0.0820312 19.121094 C -0.0742188 18.589844 -0.0429688 18.234375 0.292969 17.804688 C 0.855469 17.285156 1.40625 17.355469 2.132812 17.351562 Z M 2.132812 17.351562 "/>
<path style=" stroke:none;fill-rule:nonzero;fill:rgb(49.411765%,66.666669%,85.490197%);fill-opacity:1;" d="M 19.429688 -0.0507812 C 19.609375 -0.0546875 19.609375 -0.0546875 19.792969 -0.0546875 C 20.1875 -0.0585938 20.585938 -0.0585938 20.980469 -0.0585938 C 21.253906 -0.0585938 21.53125 -0.0585938 21.804688 -0.0625 C 22.378906 -0.0625 22.957031 -0.0625 23.535156 -0.0625 C 24.273438 -0.0625 25.011719 -0.0664062 25.75 -0.0703125 C 26.316406 -0.0742188 26.882812 -0.0742188 27.453125 -0.0742188 C 27.722656 -0.0742188 27.996094 -0.0742188 28.269531 -0.078125 C 28.648438 -0.078125 29.03125 -0.078125 29.410156 -0.078125 C 29.523438 -0.078125 29.636719 -0.078125 29.753906 -0.0820312 C 30.285156 -0.0742188 30.640625 -0.0429688 31.066406 0.292969 C 31.589844 0.855469 31.519531 1.40625 31.523438 2.132812 C 31.523438 2.246094 31.523438 2.363281 31.523438 2.484375 C 31.527344 2.867188 31.527344 3.25 31.53125 3.636719 C 31.53125 3.765625 31.53125 3.898438 31.53125 4.03125 C 31.535156 4.726562 31.535156 5.421875 31.535156 6.113281 C 31.539062 6.832031 31.542969 7.546875 31.546875 8.265625 C 31.550781 8.816406 31.550781 9.367188 31.550781 9.917969 C 31.554688 10.179688 31.554688 10.445312 31.558594 10.710938 C 31.558594 11.078125 31.558594 11.449219 31.558594 11.820312 C 31.5625 11.929688 31.5625 12.039062 31.5625 12.148438 C 31.558594 12.828125 31.453125 13.214844 31 13.75 C 30.617188 14.003906 30.542969 14.03125 30.113281 14.035156 C 29.957031 14.035156 29.957031 14.035156 29.800781 14.035156 C 29.628906 14.035156 29.628906 14.035156 29.457031 14.035156 C 29.335938 14.039062 29.21875 14.039062 29.09375 14.039062 C 28.695312 14.042969 28.300781 14.042969 27.902344 14.042969 C 27.628906 14.042969 27.351562 14.042969 27.078125 14.046875 C 26.5 14.046875 25.921875 14.046875 25.34375 14.046875 C 24.601562 14.046875 23.863281 14.050781 23.121094 14.054688 C 22.554688 14.054688 21.984375 14.058594 21.414062 14.058594 C 21.140625 14.058594 20.871094 14.058594 20.597656 14.058594 C 20.214844 14.0625 19.832031 14.0625 19.449219 14.0625 C 19.339844 14.0625 19.226562 14.0625 19.109375 14.066406 C 18.601562 14.058594 18.320312 14.042969 17.878906 13.777344 C 17.503906 13.367188 17.34375 13.042969 17.34375 12.488281 C 17.34375 12.386719 17.339844 12.289062 17.339844 12.183594 C 17.339844 12.074219 17.339844 11.964844 17.339844 11.851562 C 17.339844 11.734375 17.339844 11.617188 17.339844 11.5 C 17.335938 11.117188 17.335938 10.734375 17.335938 10.347656 C 17.335938 10.082031 17.335938 9.816406 17.335938 9.546875 C 17.335938 8.988281 17.335938 8.429688 17.335938 7.871094 C 17.335938 7.152344 17.335938 6.4375 17.332031 5.71875 C 17.328125 5.167969 17.328125 4.617188 17.328125 4.066406 C 17.328125 3.800781 17.328125 3.539062 17.328125 3.273438 C 17.324219 2.902344 17.328125 2.535156 17.328125 2.164062 C 17.328125 2.054688 17.328125 1.945312 17.324219 1.832031 C 17.332031 1.105469 17.453125 0.703125 17.949219 0.152344 C 18.429688 -0.0898438 18.902344 -0.0546875 19.429688 -0.0507812 Z M 19.429688 -0.0507812 "/>
<path style=" stroke:none;fill-rule:nonzero;fill:rgb(93.725491%,80.784315%,28.627452%);fill-opacity:1;" d="M 1.25 -0.0195312 C 1.355469 -0.0195312 1.460938 -0.0234375 1.566406 -0.0234375 C 1.683594 -0.0234375 1.796875 -0.0234375 1.914062 -0.0234375 C 2.035156 -0.0273438 2.15625 -0.0273438 2.28125 -0.0273438 C 2.683594 -0.03125 3.085938 -0.03125 3.488281 -0.0351562 C 3.691406 -0.0351562 3.691406 -0.0351562 3.902344 -0.0351562 C 4.625 -0.0390625 5.351562 -0.0429688 6.074219 -0.0429688 C 6.824219 -0.046875 7.574219 -0.0507812 8.320312 -0.0585938 C 8.898438 -0.0625 9.472656 -0.0625 10.046875 -0.0625 C 10.324219 -0.0664062 10.601562 -0.0664062 10.875 -0.0703125 C 11.261719 -0.0742188 11.648438 -0.0742188 12.035156 -0.0742188 C 12.207031 -0.0742188 12.207031 -0.0742188 12.382812 -0.078125 C 12.945312 -0.0742188 13.175781 -0.0585938 13.628906 0.300781 C 14.058594 0.867188 14.019531 1.328125 14.023438 2.015625 C 14.027344 2.191406 14.027344 2.191406 14.027344 2.375 C 14.03125 2.765625 14.03125 3.160156 14.035156 3.554688 C 14.035156 3.6875 14.035156 3.820312 14.035156 3.957031 C 14.039062 4.667969 14.042969 5.378906 14.042969 6.085938 C 14.046875 6.820312 14.050781 7.550781 14.058594 8.285156 C 14.0625 8.847656 14.0625 9.410156 14.0625 9.972656 C 14.066406 10.246094 14.066406 10.515625 14.070312 10.785156 C 14.074219 11.164062 14.074219 11.539062 14.074219 11.917969 C 14.074219 12.03125 14.078125 12.140625 14.078125 12.257812 C 14.074219 12.792969 14.042969 13.140625 13.699219 13.566406 C 13.15625 14.085938 12.703125 14.019531 11.984375 14.023438 C 11.867188 14.023438 11.746094 14.023438 11.625 14.023438 C 11.234375 14.027344 10.839844 14.027344 10.445312 14.03125 C 10.246094 14.03125 10.246094 14.03125 10.042969 14.03125 C 9.332031 14.035156 8.621094 14.035156 7.914062 14.035156 C 7.179688 14.039062 6.449219 14.042969 5.714844 14.046875 C 5.152344 14.050781 4.589844 14.050781 4.027344 14.050781 C 3.753906 14.054688 3.484375 14.054688 3.214844 14.058594 C 2.835938 14.058594 2.460938 14.058594 2.082031 14.058594 C 1.96875 14.0625 1.859375 14.0625 1.742188 14.0625 C 1.042969 14.058594 0.660156 13.957031 0.125 13.5 C -0.015625 13.21875 -0.015625 13.0625 -0.0195312 12.75 C -0.0195312 12.644531 -0.0195312 12.539062 -0.0195312 12.433594 C -0.0195312 12.316406 -0.0234375 12.203125 -0.0234375 12.085938 C -0.0234375 11.964844 -0.0234375 11.84375 -0.0234375 11.71875 C -0.0273438 11.316406 -0.0273438 10.914062 -0.03125 10.511719 C -0.03125 10.375 -0.03125 10.238281 -0.03125 10.097656 C -0.0351562 9.375 -0.0351562 8.648438 -0.0351562 7.925781 C -0.0390625 7.175781 -0.0429688 6.425781 -0.046875 5.679688 C -0.0507812 5.101562 -0.0507812 4.527344 -0.0507812 3.953125 C -0.0546875 3.675781 -0.0546875 3.398438 -0.0585938 3.125 C -0.0585938 2.738281 -0.0585938 2.351562 -0.0585938 1.964844 C -0.0625 1.851562 -0.0625 1.734375 -0.0625 1.617188 C -0.0585938 1.097656 -0.0429688 0.820312 0.238281 0.371094 C 0.59375 0.0390625 0.777344 -0.015625 1.25 -0.0195312 Z M 1.25 -0.0195312 "/>
<path style=" stroke:none;fill-rule:nonzero;fill:rgb(13.725491%,63.529414%,29.803923%);fill-opacity:1;" d="M 24 16.875 C 24.4375 16.828125 24.4375 16.828125 24.875 16.875 C 25.148438 17.289062 25.15625 17.410156 25.152344 17.890625 C 25.152344 18.019531 25.152344 18.148438 25.152344 18.285156 C 25.152344 18.421875 25.152344 18.5625 25.148438 18.707031 C 25.148438 18.851562 25.148438 18.996094 25.148438 19.144531 C 25.148438 19.605469 25.144531 20.0625 25.140625 20.523438 C 25.140625 20.835938 25.140625 21.144531 25.136719 21.457031 C 25.136719 22.222656 25.128906 22.984375 25.125 23.75 C 25.246094 23.75 25.246094 23.75 25.367188 23.75 C 26.207031 23.742188 27.042969 23.738281 27.882812 23.734375 C 28.195312 23.734375 28.507812 23.734375 28.820312 23.730469 C 29.269531 23.726562 29.71875 23.726562 30.167969 23.726562 C 30.375 23.722656 30.375 23.722656 30.589844 23.722656 C 30.722656 23.722656 30.851562 23.722656 30.984375 23.722656 C 31.15625 23.722656 31.15625 23.722656 31.332031 23.71875 C 31.625 23.75 31.625 23.75 32 24 C 32.046875 24.4375 32.046875 24.4375 32 24.875 C 31.585938 25.148438 31.464844 25.15625 30.984375 25.152344 C 30.855469 25.152344 30.726562 25.152344 30.589844 25.152344 C 30.453125 25.152344 30.3125 25.152344 30.167969 25.148438 C 30.023438 25.148438 29.878906 25.148438 29.730469 25.148438 C 29.269531 25.148438 28.8125 25.144531 28.351562 25.140625 C 28.039062 25.140625 27.730469 25.140625 27.417969 25.136719 C 26.652344 25.136719 25.890625 25.128906 25.125 25.125 C 25.125 25.203125 25.125 25.285156 25.125 25.367188 C 25.132812 26.207031 25.136719 27.042969 25.140625 27.882812 C 25.140625 28.195312 25.140625 28.507812 25.144531 28.820312 C 25.148438 29.269531 25.148438 29.71875 25.148438 30.167969 C 25.152344 30.304688 25.152344 30.449219 25.152344 30.589844 C 25.152344 30.722656 25.152344 30.851562 25.152344 30.984375 C 25.152344 31.101562 25.15625 31.214844 25.15625 31.332031 C 25.125 31.625 25.125 31.625 24.875 32 C 24.4375 32.046875 24.4375 32.046875 24 32 C 23.726562 31.585938 23.71875 31.464844 23.722656 30.984375 C 23.722656 30.855469 23.722656 30.726562 23.722656 30.589844 C 23.722656 30.453125 23.722656 30.3125 23.726562 30.167969 C 23.726562 30.023438 23.726562 29.878906 23.726562 29.730469 C 23.726562 29.269531 23.730469 28.8125 23.734375 28.351562 C 23.734375 28.039062 23.734375 27.730469 23.738281 27.417969 C 23.738281 26.652344 23.746094 25.890625 23.75 25.125 C 23.671875 25.125 23.589844 25.125 23.507812 25.125 C 22.667969 25.132812 21.832031 25.136719 20.992188 25.140625 C 20.679688 25.140625 20.367188 25.140625 20.054688 25.144531 C 19.605469 25.148438 19.15625 25.148438 18.707031 25.148438 C 18.5 25.152344 18.5 25.152344 18.285156 25.152344 C 18.152344 25.152344 18.023438 25.152344 17.890625 25.152344 C 17.773438 25.152344 17.660156 25.15625 17.542969 25.15625 C 17.25 25.125 17.25 25.125 16.875 24.875 C 16.738281 24.558594 16.730469 24.425781 16.851562 24.101562 C 17 23.875 17 23.875 17.25 23.75 C 17.457031 23.738281 17.667969 23.734375 17.875 23.734375 C 18.070312 23.734375 18.070312 23.734375 18.269531 23.734375 C 18.410156 23.734375 18.550781 23.738281 18.695312 23.738281 C 18.839844 23.738281 18.984375 23.738281 19.132812 23.738281 C 19.59375 23.738281 20.054688 23.738281 20.515625 23.742188 C 20.828125 23.742188 21.140625 23.742188 21.453125 23.742188 C 22.21875 23.746094 22.984375 23.746094 23.75 23.75 C 23.75 23.671875 23.75 23.589844 23.75 23.507812 C 23.742188 22.667969 23.738281 21.832031 23.734375 20.992188 C 23.734375 20.679688 23.734375 20.367188 23.730469 20.054688 C 23.726562 19.605469 23.726562 19.15625 23.726562 18.707031 C 23.722656 18.570312 23.722656 18.425781 23.722656 18.285156 C 23.722656 18.089844 23.722656 18.089844 23.722656 17.890625 C 23.722656 17.773438 23.71875 17.660156 23.71875 17.542969 C 23.75 17.25 23.75 17.25 24 16.875 Z M 24 16.875 "/>
</g>
</svg>
