<?xml version="1.0" encoding="UTF-8"?>
<svg xmlns="http://www.w3.org/2000/svg" xmlns:xlink="http://www.w3.org/1999/xlink" width="32" height="32" viewBox="0 0 32 32" version="1.1">
<g id="surface1">
<path style=" stroke:none;fill-rule:nonzero;fill:rgb(99.215686%,25.882354%,36.078432%);fill-opacity:1;" d="M 21.523438 0.480469 C 21.675781 0.480469 21.675781 0.480469 21.832031 0.480469 C 22.171875 0.480469 22.511719 0.480469 22.851562 0.480469 C 23.085938 0.476562 23.324219 0.476562 23.558594 0.476562 C 24.054688 0.476562 24.546875 0.476562 25.042969 0.476562 C 25.675781 0.476562 26.308594 0.476562 26.945312 0.472656 C 27.429688 0.472656 27.917969 0.472656 28.40625 0.472656 C 28.640625 0.472656 28.875 0.46875 29.105469 0.46875 C 29.433594 0.46875 29.757812 0.46875 30.085938 0.46875 C 30.183594 0.46875 30.28125 0.46875 30.378906 0.46875 C 31.039062 0.472656 31.523438 0.523438 32 1 C 32.042969 1.257812 32.042969 1.257812 32.046875 1.554688 C 32.050781 1.652344 32.054688 1.75 32.058594 1.851562 C 32 2.125 32 2.125 31.808594 2.328125 C 31.378906 2.566406 30.988281 2.539062 30.511719 2.519531 C 30.308594 2.515625 30.101562 2.511719 29.898438 2.507812 C 29.789062 2.503906 29.679688 2.5 29.566406 2.5 C 28.988281 2.484375 28.40625 2.480469 27.828125 2.472656 C 27.089844 2.464844 26.355469 2.453125 25.617188 2.433594 C 22.570312 2.203125 22.570312 2.203125 19.882812 3.34375 C 19.230469 4.03125 18.804688 4.625 18.757812 5.589844 C 18.761719 5.875 18.761719 5.875 18.835938 6.3125 C 18.882812 6.832031 18.769531 7.0625 18.5 7.5 C 18.402344 7.65625 18.402344 7.65625 18.304688 7.820312 C 17.847656 8.277344 17.371094 8.566406 16.75 8.75 C 16.476562 8.722656 16.207031 8.6875 15.9375 8.648438 C 15.238281 8.613281 14.945312 8.75 14.417969 9.214844 C 13.753906 9.855469 13.140625 10.539062 12.542969 11.242188 C 11.789062 12.125 10.949219 12.929688 10.117188 13.746094 C 9.914062 13.941406 9.714844 14.144531 9.511719 14.34375 C 9.449219 14.402344 9.386719 14.464844 9.324219 14.527344 C 9.039062 14.808594 8.878906 14.988281 8.75 15.375 C 11.597656 15.375 14.441406 15.375 17.375 15.375 C 17.457031 15.128906 17.539062 14.878906 17.625 14.625 C 18.125 13.988281 18.835938 13.632812 19.625 13.5 C 20.5625 13.457031 21.277344 13.644531 22 14.25 C 22.351562 14.621094 22.515625 14.882812 22.625 15.375 C 22.726562 15.367188 22.824219 15.355469 22.929688 15.347656 C 24.074219 15.289062 24.761719 15.542969 25.726562 16.140625 C 25.859375 16.21875 25.992188 16.296875 26.128906 16.378906 C 26.40625 16.542969 26.683594 16.707031 26.957031 16.875 C 27.371094 17.121094 27.785156 17.363281 28.199219 17.605469 C 28.816406 17.960938 29.429688 18.316406 30.042969 18.679688 C 30.269531 18.8125 30.496094 18.945312 30.726562 19.078125 C 30.835938 19.144531 30.949219 19.210938 31.0625 19.277344 C 31.164062 19.335938 31.261719 19.394531 31.363281 19.453125 C 31.617188 19.621094 31.8125 19.761719 32 20 C 32.09375 20.847656 32.09375 20.847656 31.804688 21.3125 C 31.394531 21.566406 31.085938 21.59375 30.625 21.5 C 30.109375 21.265625 29.632812 20.972656 29.148438 20.679688 C 28.933594 20.550781 28.71875 20.425781 28.503906 20.296875 C 28.28125 20.164062 28.054688 20.03125 27.832031 19.898438 C 27.375 19.625 26.914062 19.355469 26.453125 19.09375 C 26.378906 19.050781 26.304688 19.007812 26.226562 18.960938 C 26.078125 18.878906 25.933594 18.792969 25.785156 18.710938 C 25.445312 18.511719 25.101562 18.316406 24.757812 18.117188 C 24.644531 18.054688 24.53125 17.988281 24.414062 17.921875 C 24.1875 17.789062 23.96875 17.644531 23.75 17.5 C 23.464844 17.441406 23.464844 17.441406 23.164062 17.421875 C 23.0625 17.414062 22.960938 17.402344 22.859375 17.394531 C 22.742188 17.382812 22.742188 17.382812 22.625 17.375 C 22.621094 17.503906 22.621094 17.503906 22.617188 17.632812 C 22.394531 18.332031 21.835938 18.746094 21.226562 19.117188 C 20.398438 19.347656 19.511719 19.414062 18.710938 19.0625 C 18.101562 18.707031 17.566406 18.132812 17.25 17.5 C 13.042969 17.4375 13.042969 17.4375 8.75 17.375 C 8.625 17.746094 8.625 17.746094 8.5 18.125 C 8.265625 18.386719 8.265625 18.386719 8 18.601562 C 7.914062 18.675781 7.824219 18.75 7.734375 18.824219 C 7.5 19 7.5 19 7.25 19.125 C 7.054688 20.074219 6.941406 20.996094 7.46875 21.855469 C 7.757812 22.222656 8.0625 22.558594 8.390625 22.890625 C 8.496094 23 8.601562 23.109375 8.707031 23.21875 C 9.476562 23.9375 10.0625 24.121094 11.109375 24.117188 C 11.785156 24.128906 12.238281 24.375 12.71875 24.835938 C 13.191406 25.359375 13.511719 25.832031 13.578125 26.546875 C 13.59375 26.683594 13.59375 26.683594 13.605469 26.824219 C 13.625 27.125 13.625 27.125 13.570312 27.476562 C 13.660156 28.113281 14.097656 28.421875 14.554688 28.84375 C 14.730469 29.007812 14.902344 29.175781 15.078125 29.34375 C 15.15625 29.414062 15.234375 29.488281 15.3125 29.5625 C 15.601562 29.855469 15.625 30 15.664062 30.421875 C 15.625 30.875 15.625 30.875 15.40625 31.171875 C 15.121094 31.378906 14.972656 31.480469 14.625 31.5 C 13.949219 31.328125 13.550781 30.84375 13.085938 30.359375 C 13.003906 30.277344 12.925781 30.195312 12.839844 30.109375 C 12.644531 29.90625 12.445312 29.703125 12.25 29.5 C 12.140625 29.539062 12.035156 29.582031 11.925781 29.621094 C 11.097656 29.871094 10.121094 29.914062 9.320312 29.554688 C 8.621094 29.136719 8.121094 28.527344 7.875 27.75 C 7.84375 27.359375 7.84375 27.359375 7.84375 26.945312 C 7.84375 26.742188 7.84375 26.742188 7.84375 26.53125 C 7.875 26.109375 7.984375 25.773438 8.125 25.375 C 8.039062 25.289062 7.953125 25.203125 7.863281 25.117188 C 7.542969 24.796875 7.222656 24.480469 6.902344 24.160156 C 6.765625 24.023438 6.625 23.882812 6.488281 23.746094 C 6.289062 23.550781 6.089844 23.351562 5.890625 23.152344 C 5.828125 23.09375 5.765625 23.03125 5.703125 22.96875 C 5.128906 22.394531 5.128906 22.394531 5.117188 21.945312 C 5.121094 21.820312 5.121094 21.695312 5.125 21.566406 C 5.125 21.433594 5.125 21.292969 5.125 21.15625 C 5.125 20.867188 5.128906 20.578125 5.136719 20.289062 C 5.132812 19.875 5.117188 19.523438 5 19.125 C 4.734375 18.863281 4.476562 18.714844 4.148438 18.542969 C 3.835938 18.351562 3.777344 18.230469 3.644531 17.894531 C 3.421875 17.476562 3.421875 17.476562 3.078125 17.425781 C 2.695312 17.402344 2.320312 17.402344 1.9375 17.414062 C 1.679688 17.417969 1.417969 17.421875 1.160156 17.421875 C 1.046875 17.421875 0.929688 17.425781 0.8125 17.429688 C 0.402344 17.359375 0.257812 17.191406 0 16.875 C -0.0703125 16.625 -0.0703125 16.625 -0.0703125 16.375 C -0.0742188 16.292969 -0.0742188 16.210938 -0.078125 16.125 C 0.0546875 15.703125 0.242188 15.589844 0.625 15.375 C 1.207031 15.300781 1.796875 15.324219 2.382812 15.335938 C 2.726562 15.332031 3.039062 15.324219 3.375 15.25 C 3.699219 14.910156 3.699219 14.910156 3.875 14.5 C 4.242188 14.113281 4.597656 13.855469 5.125 13.75 C 5.125 13.613281 5.121094 13.476562 5.121094 13.335938 C 5.109375 12.046875 5.101562 10.761719 5.101562 9.472656 C 5.097656 8.8125 5.09375 8.148438 5.085938 7.488281 C 5.082031 6.847656 5.078125 6.210938 5.078125 5.570312 C 5.078125 5.328125 5.074219 5.085938 5.070312 4.839844 C 5.070312 4.5 5.070312 4.15625 5.070312 3.816406 C 5.066406 3.714844 5.066406 3.613281 5.0625 3.511719 C 5.066406 3.0625 5.085938 2.804688 5.359375 2.441406 C 5.675781 2.214844 5.859375 2.132812 6.25 2.125 C 6.6875 2.328125 6.855469 2.46875 7.125 2.875 C 7.152344 3.222656 7.164062 3.558594 7.164062 3.90625 C 7.164062 4.007812 7.167969 4.113281 7.167969 4.222656 C 7.171875 4.570312 7.175781 4.914062 7.175781 5.261719 C 7.179688 5.503906 7.179688 5.746094 7.183594 5.984375 C 7.191406 6.617188 7.195312 7.25 7.199219 7.882812 C 7.203125 8.53125 7.210938 9.175781 7.21875 9.820312 C 7.230469 11.089844 7.242188 12.355469 7.25 13.625 C 7.75 13.128906 8.25 12.628906 8.75 12.128906 C 8.921875 11.960938 9.089844 11.792969 9.257812 11.625 C 10.460938 10.445312 10.460938 10.445312 11.582031 9.191406 C 11.773438 8.976562 11.980469 8.789062 12.199219 8.605469 C 13.050781 7.921875 13.050781 7.921875 13.414062 6.949219 C 13.34375 6.53125 13.34375 6.53125 13.226562 6.125 C 13.046875 5.460938 13.199219 4.945312 13.523438 4.351562 C 14.035156 3.589844 14.648438 3.28125 15.5 3 C 16.042969 2.980469 16.429688 2.980469 16.953125 3.140625 C 17.351562 3.191406 17.476562 3.144531 17.808594 2.902344 C 18.144531 2.578125 18.464844 2.238281 18.78125 1.890625 C 19 1.65625 19.21875 1.421875 19.441406 1.1875 C 19.535156 1.082031 19.632812 0.980469 19.730469 0.871094 C 20.25 0.398438 20.851562 0.480469 21.523438 0.480469 Z M 21.523438 0.480469 "/>
<path style=" stroke:none;fill-rule:nonzero;fill:rgb(99.607843%,80.392158%,0.784314%);fill-opacity:1;" d="M 21.523438 0.480469 C 21.625 0.480469 21.726562 0.480469 21.832031 0.480469 C 22.171875 0.480469 22.511719 0.480469 22.851562 0.480469 C 23.085938 0.476562 23.324219 0.476562 23.558594 0.476562 C 24.054688 0.476562 24.546875 0.476562 25.042969 0.476562 C 25.675781 0.476562 26.308594 0.476562 26.945312 0.472656 C 27.429688 0.472656 27.917969 0.472656 28.40625 0.472656 C 28.640625 0.472656 28.875 0.46875 29.105469 0.46875 C 29.433594 0.46875 29.757812 0.46875 30.085938 0.46875 C 30.183594 0.46875 30.28125 0.46875 30.378906 0.46875 C 31.039062 0.472656 31.523438 0.523438 32 1 C 32.042969 1.257812 32.042969 1.257812 32.046875 1.554688 C 32.050781 1.652344 32.054688 1.75 32.058594 1.851562 C 32 2.125 32 2.125 31.808594 2.328125 C 31.378906 2.566406 30.988281 2.539062 30.511719 2.519531 C 30.308594 2.515625 30.101562 2.511719 29.898438 2.507812 C 29.789062 2.503906 29.679688 2.5 29.566406 2.5 C 28.988281 2.484375 28.40625 2.480469 27.828125 2.472656 C 27.089844 2.464844 26.355469 2.453125 25.617188 2.433594 C 22.570312 2.203125 22.570312 2.203125 19.882812 3.34375 C 19.230469 4.03125 18.804688 4.625 18.757812 5.589844 C 18.761719 5.875 18.761719 5.875 18.835938 6.3125 C 18.882812 6.832031 18.769531 7.0625 18.5 7.5 C 18.402344 7.65625 18.402344 7.65625 18.304688 7.820312 C 17.847656 8.277344 17.371094 8.566406 16.75 8.75 C 16.476562 8.722656 16.207031 8.6875 15.9375 8.648438 C 15.238281 8.613281 14.945312 8.75 14.417969 9.214844 C 13.757812 9.855469 13.144531 10.539062 12.542969 11.242188 C 11.894531 12 11.195312 12.703125 10.488281 13.410156 C 10.269531 13.625 10.054688 13.84375 9.839844 14.0625 C 9.703125 14.199219 9.566406 14.339844 9.425781 14.476562 C 9.363281 14.542969 9.296875 14.605469 9.230469 14.675781 C 8.777344 15.125 8.777344 15.125 8.5 15.125 C 8.429688 15.011719 8.355469 14.898438 8.28125 14.78125 C 7.964844 14.324219 7.71875 14.152344 7.25 13.875 C 7.453125 13.351562 7.839844 13.007812 8.230469 12.625 C 8.304688 12.550781 8.378906 12.480469 8.453125 12.40625 C 8.683594 12.175781 8.914062 11.945312 9.148438 11.71875 C 9.453125 11.417969 9.757812 11.121094 10.058594 10.816406 C 10.167969 10.710938 10.167969 10.710938 10.28125 10.597656 C 10.730469 10.152344 11.152344 9.691406 11.558594 9.210938 C 11.761719 8.988281 11.972656 8.796875 12.199219 8.605469 C 13.050781 7.921875 13.050781 7.921875 13.414062 6.949219 C 13.34375 6.53125 13.34375 6.53125 13.226562 6.125 C 13.046875 5.460938 13.199219 4.945312 13.523438 4.351562 C 14.035156 3.589844 14.648438 3.28125 15.5 3 C 16.042969 2.980469 16.429688 2.980469 16.953125 3.140625 C 17.351562 3.191406 17.476562 3.144531 17.808594 2.902344 C 18.144531 2.578125 18.464844 2.238281 18.78125 1.890625 C 19 1.65625 19.21875 1.421875 19.441406 1.1875 C 19.535156 1.082031 19.632812 0.980469 19.730469 0.871094 C 20.25 0.398438 20.851562 0.480469 21.523438 0.480469 Z M 21.523438 0.480469 "/>
<path style=" stroke:none;fill-rule:nonzero;fill:rgb(0.392157%,25.882354%,61.56863%);fill-opacity:1;" d="M 21.792969 14.074219 C 22.25 14.460938 22.5 14.796875 22.625 15.375 C 22.777344 15.363281 22.777344 15.363281 22.929688 15.347656 C 24.074219 15.289062 24.761719 15.542969 25.726562 16.140625 C 25.859375 16.21875 25.992188 16.296875 26.128906 16.378906 C 26.40625 16.542969 26.683594 16.707031 26.957031 16.875 C 27.371094 17.121094 27.785156 17.363281 28.199219 17.605469 C 28.816406 17.960938 29.429688 18.316406 30.042969 18.679688 C 30.269531 18.8125 30.496094 18.945312 30.726562 19.078125 C 30.835938 19.144531 30.949219 19.210938 31.0625 19.277344 C 31.160156 19.335938 31.261719 19.394531 31.363281 19.453125 C 31.617188 19.621094 31.8125 19.761719 32 20 C 32.09375 20.847656 32.09375 20.847656 31.804688 21.3125 C 31.394531 21.5625 31.089844 21.59375 30.625 21.5 C 30.109375 21.265625 29.632812 20.972656 29.148438 20.679688 C 28.933594 20.550781 28.71875 20.425781 28.503906 20.296875 C 28.277344 20.164062 28.054688 20.03125 27.832031 19.898438 C 27.375 19.625 26.914062 19.355469 26.453125 19.09375 C 26.339844 19.027344 26.339844 19.027344 26.226562 18.960938 C 26.078125 18.878906 25.933594 18.792969 25.785156 18.710938 C 25.441406 18.511719 25.101562 18.316406 24.757812 18.117188 C 24.644531 18.054688 24.53125 17.988281 24.414062 17.921875 C 24.1875 17.785156 23.96875 17.644531 23.75 17.5 C 23.464844 17.441406 23.464844 17.441406 23.164062 17.421875 C 23.0625 17.410156 22.960938 17.402344 22.859375 17.394531 C 22.78125 17.386719 22.703125 17.378906 22.625 17.375 C 22.621094 17.460938 22.621094 17.546875 22.617188 17.632812 C 22.394531 18.332031 21.835938 18.746094 21.226562 19.117188 C 20.398438 19.347656 19.515625 19.414062 18.710938 19.0625 C 18.101562 18.707031 17.566406 18.132812 17.25 17.5 C 13.042969 17.4375 13.042969 17.4375 8.75 17.375 C 8.75 16.714844 8.75 16.054688 8.75 15.375 C 11.597656 15.375 14.441406 15.375 17.375 15.375 C 17.457031 15.125 17.539062 14.878906 17.625 14.625 C 18.640625 13.335938 20.484375 13.144531 21.792969 14.074219 Z M 21.792969 14.074219 "/>
<path style=" stroke:none;fill-rule:nonzero;fill:rgb(99.607843%,25.490198%,35.686275%);fill-opacity:1;" d="M 5.125 19.125 C 5.785156 19.125 6.445312 19.125 7.125 19.125 C 7.09375 19.339844 7.09375 19.339844 7.066406 19.554688 C 6.984375 20.605469 7.085938 21.367188 7.753906 22.210938 C 7.964844 22.441406 8.179688 22.667969 8.398438 22.890625 C 8.503906 23 8.605469 23.109375 8.714844 23.21875 C 9.480469 23.941406 10.0625 24.121094 11.109375 24.117188 C 11.78125 24.132812 12.238281 24.375 12.71875 24.835938 C 13.1875 25.359375 13.511719 25.832031 13.578125 26.546875 C 13.585938 26.636719 13.597656 26.730469 13.605469 26.824219 C 13.625 27.125 13.625 27.125 13.570312 27.476562 C 13.65625 28.113281 14.097656 28.421875 14.554688 28.84375 C 14.730469 29.011719 14.902344 29.175781 15.078125 29.339844 C 15.195312 29.449219 15.195312 29.449219 15.3125 29.5625 C 15.605469 29.855469 15.625 30 15.664062 30.421875 C 15.625 30.875 15.625 30.875 15.40625 31.171875 C 15.121094 31.378906 14.972656 31.480469 14.625 31.5 C 13.949219 31.328125 13.550781 30.84375 13.085938 30.359375 C 13.003906 30.277344 12.925781 30.195312 12.839844 30.109375 C 12.644531 29.90625 12.445312 29.703125 12.25 29.5 C 12.140625 29.539062 12.035156 29.578125 11.925781 29.621094 C 11.097656 29.871094 10.121094 29.914062 9.320312 29.554688 C 8.617188 29.136719 8.121094 28.527344 7.875 27.75 C 7.839844 27.359375 7.839844 27.359375 7.84375 26.945312 C 7.84375 26.808594 7.84375 26.671875 7.839844 26.53125 C 7.875 26.109375 7.984375 25.773438 8.125 25.375 C 7.996094 25.246094 7.996094 25.246094 7.863281 25.113281 C 7.542969 24.796875 7.222656 24.480469 6.902344 24.160156 C 6.765625 24.023438 6.625 23.886719 6.488281 23.746094 C 6.289062 23.550781 6.089844 23.351562 5.890625 23.152344 C 5.828125 23.089844 5.765625 23.03125 5.703125 22.964844 C 5.132812 22.394531 5.132812 22.394531 5.109375 21.933594 C 5.109375 21.804688 5.113281 21.675781 5.113281 21.542969 C 5.113281 21.402344 5.113281 21.261719 5.113281 21.117188 C 5.113281 20.96875 5.117188 20.824219 5.117188 20.671875 C 5.117188 20.523438 5.117188 20.375 5.117188 20.222656 C 5.121094 19.859375 5.121094 19.492188 5.125 19.125 Z M 5.125 19.125 "/>
<path style=" stroke:none;fill-rule:nonzero;fill:rgb(99.607843%,86.666667%,27.058825%);fill-opacity:1;" d="M 16 3 C 16.0625 3.988281 16.0625 3.988281 16.125 5 C 16.371094 5.0625 16.371094 5.0625 16.625 5.125 C 16.84375 5.273438 16.84375 5.273438 17 5.5 C 17.0625 5.859375 17.0625 5.859375 17 6.25 C 16.703125 6.609375 16.703125 6.609375 16.375 6.875 C 16.292969 6.875 16.210938 6.875 16.125 6.875 C 16.082031 7.492188 16.042969 8.113281 16 8.75 C 15.859375 8.726562 15.714844 8.707031 15.570312 8.683594 C 15.046875 8.683594 14.820312 8.855469 14.441406 9.207031 C 14.246094 9.40625 14.054688 9.609375 13.867188 9.8125 C 13.769531 9.910156 13.675781 10.011719 13.578125 10.113281 C 13.152344 10.554688 12.742188 11.007812 12.34375 11.472656 C 11.757812 12.148438 11.121094 12.777344 10.488281 13.410156 C 10.269531 13.628906 10.054688 13.84375 9.839844 14.0625 C 9.703125 14.203125 9.566406 14.339844 9.425781 14.476562 C 9.363281 14.542969 9.296875 14.609375 9.234375 14.671875 C 8.777344 15.125 8.777344 15.125 8.5 15.125 C 8.425781 15.011719 8.355469 14.898438 8.28125 14.78125 C 7.964844 14.324219 7.71875 14.152344 7.25 13.875 C 7.453125 13.351562 7.839844 13.007812 8.234375 12.621094 C 8.304688 12.550781 8.378906 12.480469 8.453125 12.40625 C 8.683594 12.175781 8.917969 11.949219 9.148438 11.71875 C 9.453125 11.417969 9.757812 11.117188 10.058594 10.820312 C 10.132812 10.746094 10.207031 10.671875 10.28125 10.601562 C 10.730469 10.152344 11.152344 9.695312 11.558594 9.210938 C 11.761719 8.988281 11.972656 8.796875 12.199219 8.605469 C 13.050781 7.921875 13.050781 7.921875 13.414062 6.949219 C 13.339844 6.53125 13.339844 6.53125 13.222656 6.125 C 13.046875 5.457031 13.199219 4.945312 13.523438 4.351562 C 14.101562 3.492188 14.957031 3 16 3 Z M 16 3 "/>
<path style=" stroke:none;fill-rule:nonzero;fill:rgb(100%,9.803922%,23.529412%);fill-opacity:1;" d="M 6.75 2.375 C 7.089844 2.695312 7.125 2.875 7.171875 3.347656 C 7.171875 3.542969 7.171875 3.734375 7.167969 3.929688 C 7.167969 4.089844 7.167969 4.089844 7.167969 4.25 C 7.167969 4.601562 7.164062 4.953125 7.160156 5.300781 C 7.160156 5.546875 7.160156 5.789062 7.160156 6.03125 C 7.160156 6.671875 7.15625 7.3125 7.152344 7.949219 C 7.148438 8.605469 7.144531 9.257812 7.144531 9.910156 C 7.140625 11.1875 7.132812 12.46875 7.125 13.75 C 6.464844 13.75 5.804688 13.75 5.125 13.75 C 5.113281 12.324219 5.105469 10.898438 5.097656 9.472656 C 5.097656 8.8125 5.09375 8.148438 5.085938 7.488281 C 5.082031 6.847656 5.078125 6.210938 5.078125 5.570312 C 5.078125 5.328125 5.074219 5.082031 5.074219 4.839844 C 5.070312 4.5 5.066406 4.15625 5.070312 3.816406 C 5.066406 3.714844 5.066406 3.613281 5.0625 3.511719 C 5.066406 3.0625 5.085938 2.804688 5.355469 2.441406 C 5.886719 2.066406 6.171875 2.121094 6.75 2.375 Z M 6.75 2.375 "/>
<path style=" stroke:none;fill-rule:nonzero;fill:rgb(0%,43.921569%,99.215686%);fill-opacity:1;" d="M 22.625 15.375 C 23.914062 15.289062 24.636719 15.464844 25.726562 16.140625 C 25.859375 16.21875 25.992188 16.296875 26.128906 16.378906 C 26.40625 16.542969 26.683594 16.707031 26.957031 16.875 C 27.371094 17.121094 27.785156 17.363281 28.199219 17.605469 C 28.816406 17.960938 29.429688 18.316406 30.042969 18.679688 C 30.269531 18.8125 30.496094 18.945312 30.726562 19.078125 C 30.835938 19.144531 30.949219 19.210938 31.0625 19.277344 C 31.164062 19.335938 31.261719 19.394531 31.363281 19.453125 C 31.617188 19.621094 31.8125 19.761719 32 20 C 32.09375 20.847656 32.09375 20.847656 31.804688 21.3125 C 31.394531 21.566406 31.085938 21.597656 30.625 21.5 C 30.109375 21.265625 29.632812 20.972656 29.148438 20.679688 C 28.933594 20.550781 28.71875 20.425781 28.503906 20.296875 C 28.28125 20.164062 28.054688 20.03125 27.832031 19.894531 C 27.375 19.625 26.914062 19.359375 26.453125 19.089844 C 26.378906 19.046875 26.304688 19.007812 26.226562 18.960938 C 26.078125 18.878906 25.933594 18.792969 25.785156 18.710938 C 25.441406 18.511719 25.101562 18.316406 24.757812 18.117188 C 24.644531 18.054688 24.53125 17.988281 24.414062 17.921875 C 24.1875 17.789062 23.96875 17.644531 23.75 17.5 C 23.375 17.429688 23.003906 17.40625 22.625 17.375 C 22.625 16.714844 22.625 16.054688 22.625 15.375 Z M 22.625 15.375 "/>
<path style=" stroke:none;fill-rule:nonzero;fill:rgb(0%,67.058825%,90.980393%);fill-opacity:1;" d="M 8.75 15.375 C 11.597656 15.375 14.441406 15.375 17.375 15.375 C 17.332031 16.035156 17.292969 16.695312 17.25 17.375 C 14.445312 17.375 11.640625 17.375 8.75 17.375 C 8.75 16.714844 8.75 16.054688 8.75 15.375 Z M 8.75 15.375 "/>
<path style=" stroke:none;fill-rule:nonzero;fill:rgb(98.823529%,74.901962%,0.784314%);fill-opacity:1;" d="M 16 3 C 16.0625 3.988281 16.0625 3.988281 16.125 5 C 16.289062 5.042969 16.453125 5.082031 16.625 5.125 C 16.84375 5.273438 16.84375 5.273438 17 5.5 C 17.0625 5.859375 17.0625 5.859375 17 6.25 C 16.703125 6.609375 16.703125 6.609375 16.375 6.875 C 16.292969 6.875 16.210938 6.875 16.125 6.875 C 16.082031 7.492188 16.042969 8.113281 16 8.75 C 14.929688 8.597656 14.414062 8.253906 13.632812 7.539062 C 13.179688 6.8125 13.046875 6.007812 13.1875 5.164062 C 13.386719 4.460938 13.765625 3.859375 14.382812 3.457031 C 14.925781 3.179688 15.382812 3 16 3 Z M 16 3 "/>
<path style=" stroke:none;fill-rule:nonzero;fill:rgb(100%,9.803922%,23.921569%);fill-opacity:1;" d="M 5.125 19.125 C 5.785156 19.125 6.445312 19.125 7.125 19.125 C 7.105469 19.265625 7.082031 19.40625 7.058594 19.550781 C 6.988281 20.417969 6.996094 21.140625 7.515625 21.871094 C 8.238281 22.6875 9.042969 23.417969 9.875 24.125 C 9.777344 24.203125 9.679688 24.28125 9.578125 24.359375 C 9.304688 24.578125 9.039062 24.800781 8.773438 25.03125 C 8.699219 25.097656 8.621094 25.160156 8.546875 25.230469 C 8.460938 25.300781 8.460938 25.300781 8.375 25.375 C 7.90625 25.179688 7.609375 24.890625 7.257812 24.535156 C 7.140625 24.417969 7.023438 24.300781 6.902344 24.183594 C 6.84375 24.121094 6.785156 24.0625 6.722656 24 C 6.539062 23.8125 6.355469 23.628906 6.171875 23.441406 C 5.132812 22.398438 5.132812 22.398438 5.109375 21.933594 C 5.109375 21.804688 5.113281 21.675781 5.113281 21.542969 C 5.113281 21.402344 5.113281 21.261719 5.113281 21.117188 C 5.113281 20.96875 5.117188 20.824219 5.117188 20.671875 C 5.117188 20.523438 5.117188 20.375 5.117188 20.222656 C 5.121094 19.859375 5.121094 19.492188 5.125 19.125 Z M 5.125 19.125 "/>
<path style=" stroke:none;fill-rule:nonzero;fill:rgb(99.607843%,57.647061%,0%);fill-opacity:1;" d="M 16 3 C 16.953125 3.109375 16.953125 3.109375 17.375 3.25 C 17.375 3.332031 17.375 3.414062 17.375 3.5 C 17.46875 3.53125 17.566406 3.558594 17.664062 3.589844 C 18.058594 3.777344 18.179688 3.945312 18.40625 4.3125 C 18.46875 4.410156 18.53125 4.511719 18.597656 4.613281 C 18.996094 5.289062 18.925781 5.980469 18.875 6.75 C 18.71875 7.1875 18.71875 7.1875 18.5 7.5 C 18.402344 7.660156 18.402344 7.660156 18.304688 7.820312 C 17.753906 8.371094 17.074219 8.722656 16.296875 8.789062 C 16.199219 8.777344 16.101562 8.765625 16 8.75 C 15.988281 8.105469 16.019531 7.511719 16.125 6.875 C 16.332031 6.792969 16.539062 6.710938 16.75 6.625 C 16.78125 6.445312 16.808594 6.265625 16.835938 6.085938 C 16.851562 5.984375 16.867188 5.886719 16.882812 5.78125 C 16.902344 5.492188 16.902344 5.492188 16.714844 5.285156 C 16.488281 5.101562 16.488281 5.101562 16.125 5 C 16.082031 4.339844 16.042969 3.679688 16 3 Z M 16 3 "/>
<path style=" stroke:none;fill-rule:nonzero;fill:rgb(100%,9.803922%,23.921569%);fill-opacity:1;" d="M 13.375 27.75 C 15.292969 29.332031 15.292969 29.332031 15.625 30 C 15.699219 30.777344 15.699219 30.777344 15.40625 31.171875 C 15.121094 31.378906 14.972656 31.480469 14.625 31.5 C 13.949219 31.328125 13.550781 30.84375 13.085938 30.359375 C 13.003906 30.277344 12.925781 30.195312 12.839844 30.109375 C 12.644531 29.90625 12.445312 29.703125 12.25 29.5 C 12.476562 29.015625 12.785156 28.660156 13.125 28.25 C 13.210938 28.085938 13.296875 27.917969 13.375 27.75 Z M 13.375 27.75 "/>
<path style=" stroke:none;fill-rule:nonzero;fill:rgb(0%,67.058825%,90.980393%);fill-opacity:1;" d="M 2.039062 15.34375 C 2.230469 15.347656 2.230469 15.347656 2.429688 15.351562 C 2.742188 15.355469 3.058594 15.363281 3.375 15.375 C 3.375 16.035156 3.375 16.695312 3.375 17.375 C 2.90625 17.390625 2.4375 17.398438 1.96875 17.40625 C 1.835938 17.410156 1.703125 17.414062 1.566406 17.417969 C 1.4375 17.421875 1.308594 17.421875 1.179688 17.421875 C 1.058594 17.425781 0.941406 17.429688 0.820312 17.429688 C 0.40625 17.359375 0.261719 17.199219 0 16.875 C -0.0703125 16.625 -0.0703125 16.625 -0.0703125 16.375 C -0.0742188 16.292969 -0.0742188 16.210938 -0.078125 16.125 C 0.222656 15.164062 1.226562 15.316406 2.039062 15.34375 Z M 2.039062 15.34375 "/>
<path style=" stroke:none;fill-rule:nonzero;fill:rgb(96.470588%,90.196079%,89.019608%);fill-opacity:1;" d="M 6.5 15.5 C 6.804688 15.703125 6.804688 15.703125 7 16 C 7.070312 16.367188 7.070312 16.367188 7 16.75 C 6.714844 17.125 6.527344 17.335938 6.0625 17.453125 C 5.59375 17.335938 5.40625 17.140625 5.125 16.75 C 5.125 16.308594 5.167969 16.015625 5.390625 15.632812 C 5.773438 15.417969 6.070312 15.449219 6.5 15.5 Z M 6.5 15.5 "/>
<path style=" stroke:none;fill-rule:nonzero;fill:rgb(96.470588%,90.980393%,89.411765%);fill-opacity:1;" d="M 11.25 26.125 C 11.492188 26.273438 11.492188 26.273438 11.625 26.5 C 11.714844 27.007812 11.664062 27.191406 11.367188 27.617188 C 11 27.875 11 27.875 10.546875 27.882812 C 10.125 27.75 10.125 27.75 9.875 27.546875 C 9.691406 27.109375 9.753906 26.828125 9.875 26.375 C 10.273438 25.882812 10.671875 25.976562 11.25 26.125 Z M 11.25 26.125 "/>
<path style=" stroke:none;fill-rule:nonzero;fill:rgb(90.588236%,86.274511%,85.490197%);fill-opacity:1;" d="M 20.375 15.5 C 20.671875 15.695312 20.671875 15.695312 20.875 16 C 20.945312 16.4375 20.945312 16.4375 20.875 16.875 C 20.609375 17.1875 20.609375 17.1875 20.25 17.375 C 19.855469 17.367188 19.609375 17.3125 19.265625 17.117188 C 19.035156 16.71875 19.042969 16.320312 19.125 15.875 C 19.472656 15.445312 19.84375 15.421875 20.375 15.5 Z M 20.375 15.5 "/>
<path style=" stroke:none;fill-rule:nonzero;fill:rgb(96.078432%,92.54902%,89.019608%);fill-opacity:1;" d="M 16.5 5 C 16.804688 5.203125 16.804688 5.203125 17 5.5 C 17.078125 5.953125 17.058594 6.160156 16.804688 6.546875 C 16.382812 6.828125 16.121094 6.820312 15.625 6.75 C 15.320312 6.546875 15.320312 6.546875 15.125 6.25 C 15.046875 5.796875 15.066406 5.589844 15.320312 5.203125 C 15.742188 4.921875 16.003906 4.929688 16.5 5 Z M 16.5 5 "/>
<path style=" stroke:none;fill-rule:nonzero;fill:rgb(0%,44.705883%,98.431373%);fill-opacity:1;" d="M 16 15.375 C 16.453125 15.375 16.90625 15.375 17.375 15.375 C 17.332031 16.035156 17.292969 16.695312 17.25 17.375 C 16.835938 17.375 16.425781 17.375 16 17.375 C 16 16.714844 16 16.054688 16 15.375 Z M 16 15.375 "/>
<path style=" stroke:none;fill-rule:nonzero;fill:rgb(93.333334%,87.058824%,82.745099%);fill-opacity:1;" d="M 16.125 5 C 16.765625 5.160156 16.765625 5.160156 17 5.5 C 17.054688 5.867188 17.054688 5.867188 17 6.25 C 16.773438 6.546875 16.773438 6.546875 16.5 6.75 C 16.375 6.75 16.253906 6.75 16.125 6.75 C 16.125 6.171875 16.125 5.59375 16.125 5 Z M 16.125 5 "/>
</g>
</svg>
