<?xml version="1.0" encoding="UTF-8"?>
<svg xmlns="http://www.w3.org/2000/svg" xmlns:xlink="http://www.w3.org/1999/xlink" width="32" height="32" viewBox="0 0 32 32" version="1.1">
<g id="surface1">
<path style=" stroke:none;fill-rule:nonzero;fill:rgb(96.470588%,96.862745%,97.254902%);fill-opacity:1;" d="M 3.707031 0.589844 C 3.816406 0.589844 3.925781 0.589844 4.039062 0.589844 C 4.40625 0.585938 4.769531 0.589844 5.136719 0.589844 C 5.398438 0.585938 5.660156 0.585938 5.921875 0.585938 C 6.632812 0.585938 7.34375 0.582031 8.054688 0.582031 C 8.652344 0.582031 9.246094 0.582031 9.839844 0.582031 C 11.242188 0.578125 12.644531 0.578125 14.046875 0.578125 C 15.492188 0.578125 16.9375 0.578125 18.382812 0.574219 C 19.625 0.570312 20.867188 0.566406 22.109375 0.566406 C 22.851562 0.566406 23.59375 0.566406 24.332031 0.5625 C 25.03125 0.5625 25.730469 0.5625 26.425781 0.5625 C 26.683594 0.5625 26.9375 0.5625 27.195312 0.5625 C 27.542969 0.558594 27.894531 0.5625 28.242188 0.5625 C 28.394531 0.5625 28.394531 0.5625 28.550781 0.558594 C 29.363281 0.570312 30.007812 0.808594 30.628906 1.34375 C 30.710938 1.449219 30.710938 1.449219 30.796875 1.554688 C 30.882812 1.660156 30.882812 1.660156 30.972656 1.765625 C 31.363281 2.363281 31.410156 2.910156 31.410156 3.609375 C 31.410156 3.707031 31.410156 3.804688 31.410156 3.90625 C 31.410156 4.238281 31.410156 4.566406 31.410156 4.894531 C 31.410156 5.128906 31.414062 5.367188 31.414062 5.601562 C 31.417969 6.242188 31.417969 6.886719 31.417969 7.527344 C 31.417969 7.929688 31.417969 8.328125 31.417969 8.730469 C 31.421875 10.128906 31.421875 11.527344 31.421875 12.925781 C 31.421875 14.226562 31.425781 15.53125 31.425781 16.835938 C 31.429688 17.953125 31.433594 19.070312 31.433594 20.191406 C 31.433594 20.859375 31.433594 21.527344 31.433594 22.195312 C 31.4375 22.824219 31.4375 23.453125 31.4375 24.082031 C 31.4375 24.3125 31.4375 24.542969 31.4375 24.773438 C 31.441406 25.085938 31.4375 25.402344 31.4375 25.71875 C 31.4375 25.808594 31.4375 25.898438 31.441406 25.992188 C 31.429688 26.847656 31.128906 27.492188 30.53125 28.101562 C 29.65625 28.6875 28.808594 28.90625 27.75 28.75 C 27.414062 28.515625 27.414062 28.515625 27.25 28.25 C 27.25 28.167969 27.25 28.085938 27.25 28 C 26.960938 28.042969 26.671875 28.082031 26.375 28.125 C 26.4375 28.230469 26.5 28.335938 26.5625 28.445312 C 26.804688 29.003906 26.863281 29.425781 26.660156 30.011719 C 26.410156 30.558594 26.144531 30.917969 25.625 31.25 C 25.082031 31.429688 24.566406 31.4375 24 31.375 C 23.375 31.0625 22.9375 30.625 22.625 30 C 22.621094 29.582031 22.632812 29.164062 22.644531 28.746094 C 22.664062 28.359375 22.664062 28.359375 22.375 28.125 C 22.042969 28.054688 21.714844 28.03125 21.375 28 C 21.363281 28.128906 21.355469 28.257812 21.34375 28.390625 C 21.21875 29.027344 20.996094 29.441406 20.46875 29.832031 C 20.054688 30.03125 19.769531 30.050781 19.308594 30.054688 C 19.148438 30.054688 18.988281 30.054688 18.820312 30.058594 C 18.644531 30.058594 18.464844 30.058594 18.289062 30.058594 C 18.109375 30.058594 17.925781 30.058594 17.742188 30.0625 C 17.363281 30.0625 16.984375 30.0625 16.601562 30.0625 C 16.113281 30.0625 15.628906 30.066406 15.140625 30.070312 C 14.765625 30.074219 14.390625 30.074219 14.015625 30.074219 C 13.835938 30.074219 13.65625 30.074219 13.476562 30.078125 C 11.902344 30.09375 11.902344 30.09375 11.335938 29.707031 C 10.886719 29.261719 10.644531 28.902344 10.601562 28.265625 C 10.609375 28.179688 10.617188 28.089844 10.625 28 C 9.925781 28.023438 9.925781 28.023438 9.375 28.375 C 9.371094 28.636719 9.375 28.898438 9.390625 29.15625 C 9.398438 29.84375 9.367188 30.230469 8.875 30.75 C 8.246094 31.304688 7.890625 31.414062 7.066406 31.402344 C 6.472656 31.351562 6.121094 31.128906 5.71875 30.703125 C 5.304688 30.085938 5.183594 29.621094 5.25 28.875 C 5.355469 28.566406 5.480469 28.292969 5.625 28 C 5.335938 28 5.046875 28 4.75 28 C 4.695312 28.148438 4.695312 28.148438 4.640625 28.304688 C 4.5 28.625 4.5 28.625 4.25 28.75 C 3.296875 28.851562 2.457031 28.746094 1.625 28.25 C 1.003906 27.710938 0.652344 27.128906 0.59375 26.300781 C 0.589844 26.121094 0.589844 25.945312 0.589844 25.765625 C 0.589844 25.667969 0.589844 25.570312 0.589844 25.46875 C 0.585938 25.140625 0.589844 24.808594 0.589844 24.480469 C 0.585938 24.242188 0.585938 24.007812 0.585938 23.773438 C 0.582031 23.128906 0.582031 22.488281 0.582031 21.847656 C 0.582031 21.449219 0.582031 21.046875 0.582031 20.644531 C 0.578125 19.246094 0.578125 17.847656 0.578125 16.449219 C 0.578125 15.148438 0.578125 13.84375 0.574219 12.542969 C 0.570312 11.421875 0.566406 10.304688 0.566406 9.183594 C 0.566406 8.515625 0.566406 7.847656 0.5625 7.179688 C 0.5625 6.550781 0.5625 5.921875 0.5625 5.292969 C 0.5625 5.0625 0.5625 4.832031 0.5625 4.601562 C 0.558594 4.289062 0.5625 3.972656 0.5625 3.65625 C 0.5625 3.566406 0.558594 3.476562 0.558594 3.382812 C 0.570312 2.601562 0.832031 1.960938 1.34375 1.371094 C 1.414062 1.316406 1.484375 1.261719 1.554688 1.203125 C 1.625 1.144531 1.695312 1.085938 1.765625 1.027344 C 2.390625 0.617188 2.976562 0.589844 3.707031 0.589844 Z M 3.707031 0.589844 "/>
<path style=" stroke:none;fill-rule:nonzero;fill:rgb(25.882354%,25.882354%,25.882354%);fill-opacity:1;" d="M 3.707031 0.589844 C 3.816406 0.589844 3.925781 0.589844 4.039062 0.589844 C 4.40625 0.585938 4.769531 0.589844 5.136719 0.589844 C 5.398438 0.585938 5.660156 0.585938 5.921875 0.585938 C 6.632812 0.585938 7.34375 0.582031 8.054688 0.582031 C 8.652344 0.582031 9.246094 0.582031 9.839844 0.582031 C 11.242188 0.578125 12.644531 0.578125 14.046875 0.578125 C 15.492188 0.578125 16.9375 0.578125 18.382812 0.574219 C 19.625 0.570312 20.867188 0.566406 22.109375 0.566406 C 22.851562 0.566406 23.59375 0.566406 24.332031 0.5625 C 25.03125 0.5625 25.730469 0.5625 26.425781 0.5625 C 26.683594 0.5625 26.9375 0.5625 27.195312 0.5625 C 27.542969 0.558594 27.894531 0.5625 28.242188 0.5625 C 28.394531 0.5625 28.394531 0.5625 28.550781 0.558594 C 29.363281 0.570312 30.007812 0.808594 30.628906 1.34375 C 30.710938 1.449219 30.710938 1.449219 30.796875 1.554688 C 30.882812 1.660156 30.882812 1.660156 30.972656 1.765625 C 31.363281 2.363281 31.410156 2.910156 31.410156 3.609375 C 31.410156 3.707031 31.410156 3.804688 31.410156 3.90625 C 31.410156 4.238281 31.410156 4.566406 31.410156 4.894531 C 31.410156 5.128906 31.414062 5.367188 31.414062 5.601562 C 31.417969 6.242188 31.417969 6.886719 31.417969 7.527344 C 31.417969 7.929688 31.417969 8.328125 31.417969 8.730469 C 31.421875 10.128906 31.421875 11.527344 31.421875 12.925781 C 31.421875 14.226562 31.425781 15.53125 31.425781 16.835938 C 31.429688 17.953125 31.433594 19.070312 31.433594 20.191406 C 31.433594 20.859375 31.433594 21.527344 31.433594 22.195312 C 31.4375 22.824219 31.4375 23.453125 31.4375 24.082031 C 31.4375 24.3125 31.4375 24.542969 31.4375 24.773438 C 31.441406 25.085938 31.4375 25.402344 31.4375 25.71875 C 31.4375 25.808594 31.4375 25.898438 31.441406 25.992188 C 31.429688 26.847656 31.128906 27.492188 30.53125 28.101562 C 29.660156 28.6875 28.804688 28.910156 27.75 28.75 C 27.414062 28.5 27.414062 28.5 27.25 28.25 C 27.484375 27.515625 27.484375 27.515625 27.625 27.375 C 27.84375 27.355469 28.0625 27.339844 28.28125 27.328125 C 28.820312 27.28125 29.199219 27.234375 29.625 26.875 C 29.925781 26.421875 29.90625 26.214844 29.910156 25.675781 C 29.910156 25.59375 29.910156 25.507812 29.910156 25.421875 C 29.914062 25.140625 29.914062 24.859375 29.914062 24.574219 C 29.917969 24.371094 29.917969 24.164062 29.917969 23.960938 C 29.921875 23.410156 29.925781 22.859375 29.925781 22.308594 C 29.925781 21.792969 29.929688 21.273438 29.933594 20.757812 C 29.941406 19.246094 29.949219 17.738281 29.953125 16.226562 C 29.96875 12.851562 29.984375 9.476562 30 6 C 20.761719 6 11.519531 6 2 6 C 2.007812 9.367188 2.015625 12.738281 2.023438 16.210938 C 2.023438 17.273438 2.023438 18.339844 2.027344 19.4375 C 2.03125 20.390625 2.03125 20.390625 2.035156 21.34375 C 2.035156 21.769531 2.035156 22.191406 2.035156 22.617188 C 2.035156 23.160156 2.035156 23.703125 2.042969 24.242188 C 2.042969 24.441406 2.042969 24.640625 2.039062 24.839844 C 2.039062 25.109375 2.042969 25.378906 2.046875 25.648438 C 2.046875 25.796875 2.046875 25.949219 2.046875 26.101562 C 2.148438 26.613281 2.355469 26.796875 2.75 27.125 C 3.070312 27.285156 3.324219 27.269531 3.679688 27.28125 C 4.335938 27.335938 4.335938 27.335938 4.664062 27.65625 C 4.769531 28.078125 4.71875 28.253906 4.5 28.625 C 3.917969 28.914062 3.148438 28.8125 2.53125 28.667969 C 1.683594 28.367188 1.144531 27.917969 0.742188 27.109375 C 0.59375 26.65625 0.589844 26.234375 0.589844 25.765625 C 0.589844 25.667969 0.589844 25.570312 0.589844 25.46875 C 0.585938 25.140625 0.589844 24.808594 0.589844 24.480469 C 0.585938 24.242188 0.585938 24.007812 0.585938 23.773438 C 0.582031 23.128906 0.582031 22.488281 0.582031 21.847656 C 0.582031 21.449219 0.582031 21.046875 0.582031 20.644531 C 0.578125 19.246094 0.578125 17.847656 0.578125 16.449219 C 0.578125 15.148438 0.578125 13.84375 0.574219 12.542969 C 0.570312 11.421875 0.566406 10.304688 0.566406 9.183594 C 0.566406 8.515625 0.566406 7.847656 0.5625 7.179688 C 0.5625 6.550781 0.5625 5.921875 0.5625 5.292969 C 0.5625 5.0625 0.5625 4.832031 0.5625 4.601562 C 0.558594 4.289062 0.5625 3.972656 0.5625 3.65625 C 0.5625 3.566406 0.558594 3.476562 0.558594 3.382812 C 0.570312 2.601562 0.832031 1.960938 1.34375 1.371094 C 1.414062 1.316406 1.484375 1.261719 1.554688 1.203125 C 1.625 1.144531 1.695312 1.085938 1.765625 1.027344 C 2.390625 0.617188 2.976562 0.589844 3.707031 0.589844 Z M 3.707031 0.589844 "/>
<path style=" stroke:none;fill-rule:nonzero;fill:rgb(26.274511%,26.274511%,26.274511%);fill-opacity:1;" d="M 18.273438 16.125 C 19.023438 16.828125 19.378906 17.671875 19.421875 18.679688 C 19.429688 19.328125 19.410156 19.976562 19.375 20.625 C 19.472656 20.640625 19.570312 20.660156 19.667969 20.679688 C 20.273438 20.808594 20.742188 21.140625 21.132812 21.621094 C 21.296875 21.976562 21.277344 22.269531 21.265625 22.652344 C 21.265625 22.789062 21.261719 22.921875 21.257812 23.0625 C 21.257812 23.167969 21.253906 23.269531 21.25 23.375 C 21.824219 23.375 22.394531 23.367188 22.96875 23.359375 C 23.132812 23.359375 23.292969 23.359375 23.460938 23.359375 C 23.902344 23.351562 24.316406 23.335938 24.75 23.25 C 25.101562 22.910156 25.101562 22.910156 25.25 22.5 C 25.824219 22.070312 26.261719 21.917969 26.980469 21.953125 C 27.683594 22.078125 28.105469 22.570312 28.5 23.125 C 28.730469 23.589844 28.679688 24.117188 28.625 24.625 C 28.347656 25.175781 28.007812 25.523438 27.5 25.875 C 26.957031 26.054688 26.425781 26.105469 25.882812 25.914062 C 25.453125 25.691406 25.285156 25.578125 25.082031 25.113281 C 24.675781 24.671875 24.542969 24.6875 23.964844 24.648438 C 23.652344 24.640625 23.34375 24.640625 23.03125 24.640625 C 22.871094 24.636719 22.714844 24.636719 22.550781 24.632812 C 22.160156 24.628906 21.765625 24.625 21.375 24.625 C 21.375 25.285156 21.375 25.945312 21.375 26.625 C 21.605469 26.609375 21.832031 26.59375 22.070312 26.578125 C 22.800781 26.574219 22.800781 26.574219 23.117188 26.792969 C 23.214844 26.894531 23.214844 26.894531 23.3125 27 C 23.589844 27.292969 23.695312 27.371094 24.105469 27.40625 C 24.367188 27.394531 24.628906 27.382812 24.890625 27.371094 C 25.445312 27.378906 25.6875 27.539062 26.125 27.875 C 26.546875 28.328125 26.726562 28.652344 26.789062 29.273438 C 26.726562 30.015625 26.46875 30.542969 25.929688 31.054688 C 25.320312 31.445312 24.703125 31.453125 24 31.375 C 23.378906 31.0625 22.9375 30.625 22.625 30 C 22.621094 29.582031 22.632812 29.164062 22.644531 28.746094 C 22.664062 28.359375 22.664062 28.359375 22.375 28.125 C 22.042969 28.054688 21.714844 28.03125 21.375 28 C 21.363281 28.128906 21.355469 28.257812 21.34375 28.390625 C 21.222656 29.027344 21 29.441406 20.472656 29.832031 C 20.058594 30.035156 19.769531 30.046875 19.3125 30.050781 C 19.066406 30.054688 19.066406 30.054688 18.820312 30.058594 C 18.640625 30.058594 18.464844 30.058594 18.289062 30.058594 C 18.109375 30.058594 17.925781 30.058594 17.746094 30.0625 C 17.363281 30.0625 16.980469 30.0625 16.601562 30.0625 C 16.113281 30.0625 15.628906 30.066406 15.140625 30.070312 C 14.765625 30.074219 14.390625 30.074219 14.015625 30.074219 C 13.835938 30.074219 13.65625 30.074219 13.476562 30.078125 C 11.902344 30.09375 11.902344 30.09375 11.335938 29.707031 C 10.886719 29.261719 10.644531 28.902344 10.601562 28.265625 C 10.613281 28.132812 10.613281 28.132812 10.625 28 C 9.925781 28.023438 9.925781 28.023438 9.375 28.375 C 9.371094 28.636719 9.378906 28.894531 9.390625 29.15625 C 9.402344 29.84375 9.367188 30.230469 8.875 30.75 C 8.246094 31.304688 7.890625 31.414062 7.066406 31.402344 C 6.472656 31.351562 6.125 31.128906 5.71875 30.703125 C 5.308594 30.085938 5.1875 29.621094 5.25 28.875 C 5.4375 28.191406 5.710938 27.828125 6.3125 27.480469 C 6.828125 27.308594 7.332031 27.378906 7.871094 27.402344 C 8.390625 27.363281 8.546875 27.160156 8.886719 26.792969 C 9.386719 26.441406 10.042969 26.585938 10.625 26.625 C 10.625 25.964844 10.625 25.304688 10.625 24.625 C 10.074219 24.621094 9.527344 24.625 8.976562 24.632812 C 8.820312 24.632812 8.664062 24.628906 8.503906 24.628906 C 7.707031 24.613281 7.707031 24.613281 7.015625 24.945312 C 6.824219 25.203125 6.824219 25.203125 6.625 25.625 C 6.039062 26.039062 5.449219 26.113281 4.75 26 C 4.085938 25.664062 3.613281 25.214844 3.375 24.5 C 3.320312 23.378906 3.320312 23.378906 3.625 22.875 C 4.125 22.378906 4.542969 21.984375 5.265625 21.953125 C 5.917969 21.960938 6.394531 22.183594 6.875 22.625 C 6.925781 22.730469 6.976562 22.835938 7.027344 22.945312 C 7.226562 23.285156 7.226562 23.285156 7.613281 23.332031 C 7.757812 23.335938 7.902344 23.335938 8.050781 23.339844 C 8.289062 23.34375 8.289062 23.34375 8.527344 23.347656 C 8.773438 23.351562 8.773438 23.351562 9.023438 23.351562 C 9.191406 23.355469 9.355469 23.359375 9.523438 23.359375 C 9.933594 23.367188 10.339844 23.371094 10.75 23.375 C 10.746094 23.273438 10.742188 23.171875 10.734375 23.066406 C 10.730469 22.867188 10.730469 22.867188 10.726562 22.660156 C 10.71875 22.460938 10.71875 22.460938 10.710938 22.261719 C 10.765625 21.710938 11.003906 21.4375 11.390625 21.0625 C 11.804688 20.734375 12.101562 20.625 12.625 20.625 C 12.621094 20.554688 12.617188 20.480469 12.613281 20.40625 C 12.539062 18.8125 12.476562 17.519531 13.589844 16.257812 C 15 14.933594 16.738281 15.164062 18.273438 16.125 Z M 18.273438 16.125 "/>
<path style=" stroke:none;fill-rule:nonzero;fill:rgb(74.509805%,77.64706%,77.64706%);fill-opacity:1;" d="M 13.078125 21.953125 C 13.222656 21.949219 13.363281 21.949219 13.511719 21.949219 C 13.746094 21.949219 13.746094 21.949219 13.984375 21.949219 C 14.222656 21.949219 14.222656 21.949219 14.46875 21.949219 C 14.804688 21.949219 15.140625 21.949219 15.480469 21.953125 C 15.914062 21.953125 16.34375 21.953125 16.777344 21.949219 C 17.191406 21.949219 17.601562 21.949219 18.015625 21.949219 C 18.171875 21.949219 18.328125 21.949219 18.488281 21.949219 C 18.703125 21.949219 18.703125 21.949219 18.921875 21.953125 C 19.050781 21.953125 19.175781 21.953125 19.308594 21.953125 C 19.625 22 19.625 22 19.851562 22.152344 C 20.039062 22.4375 20.046875 22.613281 20.046875 22.953125 C 20.050781 23.066406 20.050781 23.183594 20.050781 23.304688 C 20.050781 23.429688 20.050781 23.554688 20.050781 23.683594 C 20.050781 23.8125 20.050781 23.941406 20.050781 24.074219 C 20.050781 24.347656 20.050781 24.621094 20.046875 24.894531 C 20.046875 25.3125 20.046875 25.730469 20.050781 26.144531 C 20.050781 26.410156 20.050781 26.675781 20.050781 26.941406 C 20.050781 27.066406 20.050781 27.191406 20.050781 27.320312 C 20.050781 27.496094 20.050781 27.496094 20.046875 27.675781 C 20.046875 27.777344 20.046875 27.878906 20.046875 27.984375 C 20 28.25 20 28.25 19.855469 28.46875 C 19.53125 28.6875 19.296875 28.671875 18.910156 28.675781 C 18.761719 28.675781 18.617188 28.675781 18.464844 28.675781 C 18.304688 28.675781 18.148438 28.675781 17.984375 28.675781 C 17.738281 28.675781 17.738281 28.675781 17.492188 28.675781 C 17.148438 28.675781 16.804688 28.675781 16.460938 28.675781 C 16.019531 28.671875 15.578125 28.671875 15.136719 28.675781 C 14.714844 28.675781 14.292969 28.675781 13.875 28.675781 C 13.636719 28.675781 13.636719 28.675781 13.394531 28.675781 C 13.246094 28.675781 13.101562 28.675781 12.949219 28.675781 C 12.820312 28.671875 12.691406 28.671875 12.558594 28.671875 C 12.457031 28.65625 12.355469 28.640625 12.25 28.625 C 11.984375 28.226562 11.96875 28.128906 11.964844 27.675781 C 11.964844 27.558594 11.964844 27.441406 11.960938 27.320312 C 11.960938 27.195312 11.960938 27.070312 11.960938 26.941406 C 11.960938 26.8125 11.960938 26.683594 11.960938 26.550781 C 11.960938 26.277344 11.960938 26.003906 11.960938 25.734375 C 11.960938 25.3125 11.957031 24.894531 11.953125 24.476562 C 11.953125 24.210938 11.953125 23.949219 11.953125 23.683594 C 11.953125 23.558594 11.953125 23.433594 11.949219 23.304688 C 11.953125 23.1875 11.953125 23.070312 11.953125 22.953125 C 11.953125 22.847656 11.953125 22.746094 11.953125 22.640625 C 12 22.375 12 22.375 12.148438 22.152344 C 12.464844 21.9375 12.695312 21.953125 13.078125 21.953125 Z M 13.078125 21.953125 "/>
<path style=" stroke:none;fill-rule:nonzero;fill:rgb(96.862745%,97.254902%,97.254902%);fill-opacity:1;" d="M 20.125 2 C 21.269531 1.992188 22.417969 1.984375 23.5625 1.980469 C 24.097656 1.980469 24.628906 1.976562 25.160156 1.972656 C 25.675781 1.96875 26.1875 1.964844 26.703125 1.964844 C 26.898438 1.964844 27.09375 1.960938 27.289062 1.960938 C 27.566406 1.957031 27.839844 1.957031 28.113281 1.957031 C 28.269531 1.957031 28.425781 1.957031 28.585938 1.953125 C 29.042969 2.003906 29.265625 2.097656 29.625 2.375 C 30 2.875 30 2.875 30 4.625 C 26.863281 4.625 23.730469 4.625 20.5 4.625 C 20.375 3.757812 20.253906 2.890625 20.125 2 Z M 20.125 2 "/>
<path style=" stroke:none;fill-rule:nonzero;fill:rgb(40.000001%,34.901962%,99.607843%);fill-opacity:1;" d="M 20.828125 7.335938 C 21.066406 7.335938 21.066406 7.335938 21.304688 7.335938 C 21.539062 7.332031 21.539062 7.332031 21.78125 7.328125 C 21.929688 7.328125 22.078125 7.328125 22.234375 7.328125 C 22.371094 7.328125 22.507812 7.328125 22.652344 7.328125 C 23 7.375 23 7.375 23.238281 7.542969 C 23.375 7.75 23.375 7.75 23.351562 8.070312 C 23.25 8.375 23.25 8.375 23 8.625 C 22.753906 8.652344 22.753906 8.652344 22.457031 8.648438 C 22.351562 8.648438 22.242188 8.648438 22.132812 8.648438 C 21.96875 8.644531 21.96875 8.644531 21.796875 8.640625 C 21.683594 8.640625 21.570312 8.636719 21.457031 8.636719 C 21.179688 8.632812 20.902344 8.628906 20.625 8.625 C 20.625 9.078125 20.625 9.53125 20.625 10 C 20.78125 9.996094 20.9375 9.992188 21.101562 9.988281 C 21.304688 9.984375 21.511719 9.980469 21.71875 9.976562 C 21.820312 9.972656 21.925781 9.96875 22.03125 9.96875 C 22.132812 9.964844 22.230469 9.964844 22.332031 9.964844 C 22.425781 9.960938 22.515625 9.960938 22.613281 9.957031 C 22.964844 10.015625 23.125 10.117188 23.375 10.375 C 23.441406 10.695312 23.441406 10.695312 23.441406 11.078125 C 23.441406 11.285156 23.441406 11.285156 23.445312 11.496094 C 23.441406 11.636719 23.441406 11.78125 23.4375 11.929688 C 23.441406 12.074219 23.441406 12.214844 23.445312 12.363281 C 23.441406 12.5 23.441406 12.636719 23.441406 12.78125 C 23.441406 12.90625 23.441406 13.03125 23.441406 13.164062 C 23.355469 13.597656 23.234375 13.742188 22.875 14 C 22.539062 14.0625 22.539062 14.0625 22.15625 14.0625 C 21.949219 14.0625 21.949219 14.0625 21.738281 14.0625 C 21.597656 14.058594 21.453125 14.058594 21.304688 14.054688 C 21.160156 14.054688 21.015625 14.054688 20.871094 14.058594 C 19.816406 14.050781 19.816406 14.050781 19.546875 13.847656 C 19.324219 13.558594 19.328125 13.394531 19.328125 13.035156 C 19.328125 12.914062 19.328125 12.796875 19.324219 12.675781 C 19.328125 12.546875 19.328125 12.417969 19.328125 12.285156 C 19.328125 12.152344 19.328125 12.019531 19.328125 11.882812 C 19.328125 11.605469 19.332031 11.324219 19.332031 11.046875 C 19.335938 10.617188 19.335938 10.191406 19.335938 9.761719 C 19.335938 9.492188 19.335938 9.21875 19.335938 8.949219 C 19.335938 8.757812 19.335938 8.757812 19.335938 8.558594 C 19.339844 8.441406 19.339844 8.320312 19.339844 8.199219 C 19.339844 8.09375 19.34375 7.988281 19.34375 7.878906 C 19.4375 7.132812 20.257812 7.339844 20.828125 7.335938 Z M 20.828125 7.335938 "/>
<path style=" stroke:none;fill-rule:nonzero;fill:rgb(74.117649%,77.254903%,77.254903%);fill-opacity:1;" d="M 10.875 2 C 11.863281 1.992188 12.851562 1.984375 13.835938 1.980469 C 14.296875 1.980469 14.753906 1.976562 15.214844 1.972656 C 15.65625 1.96875 16.097656 1.964844 16.542969 1.964844 C 16.792969 1.964844 17.042969 1.960938 17.296875 1.957031 C 17.523438 1.957031 17.523438 1.957031 17.757812 1.957031 C 17.960938 1.957031 17.960938 1.957031 18.164062 1.953125 C 18.5 2 18.5 2 18.730469 2.171875 C 18.929688 2.449219 18.96875 2.695312 19.023438 3.03125 C 19.042969 3.144531 19.0625 3.261719 19.082031 3.378906 C 19.128906 3.792969 19.125 4.207031 19.125 4.625 C 16.527344 4.625 13.925781 4.625 11.25 4.625 C 10.875 2.5 10.875 2.5 10.875 2 Z M 10.875 2 "/>
<path style=" stroke:none;fill-rule:nonzero;fill:rgb(74.117649%,77.254903%,77.254903%);fill-opacity:1;" d="M 3.472656 1.980469 C 3.59375 1.980469 3.71875 1.976562 3.847656 1.976562 C 3.980469 1.976562 4.113281 1.976562 4.253906 1.976562 C 4.390625 1.972656 4.527344 1.972656 4.667969 1.972656 C 4.960938 1.972656 5.253906 1.96875 5.542969 1.96875 C 5.988281 1.96875 6.4375 1.964844 6.882812 1.960938 C 7.164062 1.960938 7.449219 1.960938 7.730469 1.957031 C 7.863281 1.957031 7.996094 1.957031 8.136719 1.953125 C 8.261719 1.953125 8.386719 1.953125 8.511719 1.953125 C 8.675781 1.953125 8.675781 1.953125 8.84375 1.953125 C 9.1875 2.011719 9.292969 2.097656 9.5 2.375 C 9.585938 2.691406 9.65625 2.992188 9.710938 3.3125 C 9.726562 3.398438 9.742188 3.480469 9.761719 3.570312 C 9.824219 3.925781 9.875 4.261719 9.875 4.625 C 7.277344 4.625 4.675781 4.625 2 4.625 C 2 2.875 2 2.875 2.296875 2.398438 C 2.730469 2.039062 2.921875 1.984375 3.472656 1.980469 Z M 3.472656 1.980469 "/>
<path style=" stroke:none;fill-rule:nonzero;fill:rgb(40.392157%,35.294119%,99.607843%);fill-opacity:1;" d="M 14.25 7.375 C 14.597656 7.328125 14.597656 7.328125 15.03125 7.328125 C 15.1875 7.328125 15.34375 7.328125 15.503906 7.328125 C 15.75 7.332031 15.75 7.332031 16 7.335938 C 16.164062 7.335938 16.328125 7.335938 16.496094 7.335938 C 17.714844 7.339844 17.714844 7.339844 18 7.625 C 17.925781 8.449219 17.925781 8.449219 17.75 8.625 C 17.574219 8.636719 17.394531 8.640625 17.21875 8.636719 C 17.109375 8.636719 17.003906 8.636719 16.894531 8.636719 C 16.78125 8.636719 16.671875 8.632812 16.554688 8.632812 C 16.441406 8.632812 16.328125 8.632812 16.214844 8.632812 C 15.933594 8.628906 15.65625 8.628906 15.375 8.625 C 15.375 9.078125 15.375 9.53125 15.375 10 C 15.53125 9.996094 15.691406 9.992188 15.855469 9.984375 C 16.0625 9.984375 16.269531 9.980469 16.476562 9.976562 C 16.582031 9.972656 16.683594 9.96875 16.792969 9.96875 C 16.941406 9.964844 16.941406 9.964844 17.097656 9.964844 C 17.1875 9.960938 17.28125 9.960938 17.375 9.957031 C 17.625 10 17.625 10 17.84375 10.144531 C 18.066406 10.472656 18.046875 10.714844 18.050781 11.109375 C 18.050781 11.324219 18.050781 11.324219 18.050781 11.546875 C 18.050781 11.695312 18.046875 11.84375 18.046875 12 C 18.046875 12.148438 18.050781 12.300781 18.050781 12.453125 C 18.050781 12.597656 18.050781 12.742188 18.050781 12.890625 C 18.050781 13.023438 18.046875 13.152344 18.046875 13.289062 C 18 13.625 18 13.625 17.855469 13.855469 C 17.527344 14.0625 17.277344 14.046875 16.890625 14.050781 C 16.746094 14.050781 16.605469 14.050781 16.453125 14.050781 C 16.304688 14.050781 16.15625 14.046875 16 14.046875 C 15.851562 14.046875 15.699219 14.050781 15.546875 14.050781 C 15.328125 14.050781 15.328125 14.050781 15.109375 14.050781 C 14.976562 14.050781 14.847656 14.046875 14.710938 14.046875 C 14.375 14 14.375 14 14.144531 13.828125 C 13.9375 13.535156 13.949219 13.351562 14 13 C 14.195312 12.746094 14.304688 12.636719 14.625 12.582031 C 14.714844 12.585938 14.808594 12.585938 14.902344 12.589844 C 15.003906 12.589844 15.105469 12.589844 15.207031 12.59375 C 15.3125 12.59375 15.417969 12.597656 15.523438 12.601562 C 15.679688 12.605469 15.679688 12.605469 15.84375 12.605469 C 16.105469 12.609375 16.363281 12.617188 16.625 12.625 C 16.625 12.210938 16.625 11.800781 16.625 11.375 C 16.386719 11.382812 16.386719 11.382812 16.144531 11.390625 C 15.9375 11.398438 15.730469 11.402344 15.523438 11.40625 C 15.367188 11.414062 15.367188 11.414062 15.207031 11.417969 C 15.058594 11.421875 15.058594 11.421875 14.902344 11.421875 C 14.8125 11.425781 14.71875 11.429688 14.625 11.429688 C 14.375 11.375 14.375 11.375 14.15625 11.167969 C 13.960938 10.804688 13.953125 10.566406 13.953125 10.15625 C 13.953125 10.015625 13.953125 9.878906 13.953125 9.738281 C 13.957031 9.59375 13.957031 9.453125 13.960938 9.304688 C 13.960938 9.160156 13.960938 9.015625 13.960938 8.871094 C 13.964844 7.800781 13.964844 7.800781 14.25 7.375 Z M 14.25 7.375 "/>
<path style=" stroke:none;fill-rule:nonzero;fill:rgb(40.392157%,35.294119%,99.607843%);fill-opacity:1;" d="M 9.753906 7.34375 C 9.902344 7.34375 10.054688 7.339844 10.207031 7.339844 C 10.367188 7.34375 10.523438 7.34375 10.6875 7.34375 C 10.84375 7.34375 11.003906 7.34375 11.164062 7.339844 C 11.316406 7.339844 11.464844 7.34375 11.621094 7.34375 C 11.761719 7.34375 11.898438 7.34375 12.039062 7.34375 C 12.375 7.375 12.375 7.375 12.625 7.625 C 12.683594 8.183594 12.664062 8.746094 12.664062 9.304688 C 12.667969 9.460938 12.667969 9.617188 12.671875 9.78125 C 12.671875 9.929688 12.671875 10.078125 12.671875 10.234375 C 12.671875 10.371094 12.671875 10.507812 12.671875 10.652344 C 12.625 11 12.625 11 12.46875 11.234375 C 12.199219 11.410156 12.042969 11.417969 11.722656 11.410156 C 11.621094 11.410156 11.519531 11.410156 11.417969 11.40625 C 11.3125 11.40625 11.207031 11.402344 11.101562 11.398438 C 10.941406 11.394531 10.941406 11.394531 10.78125 11.394531 C 10.519531 11.390625 10.261719 11.382812 10 11.375 C 10 11.789062 10 12.199219 10 12.625 C 10.15625 12.621094 10.316406 12.617188 10.480469 12.613281 C 10.6875 12.609375 10.894531 12.605469 11.101562 12.601562 C 11.207031 12.597656 11.308594 12.59375 11.417969 12.59375 C 11.566406 12.589844 11.566406 12.589844 11.722656 12.589844 C 11.8125 12.585938 11.90625 12.585938 12 12.582031 C 12.324219 12.636719 12.429688 12.742188 12.625 13 C 12.671875 13.382812 12.671875 13.382812 12.625 13.75 C 12.015625 14.15625 11.339844 14.046875 10.625 14.046875 C 10.398438 14.050781 10.398438 14.050781 10.171875 14.054688 C 10.027344 14.058594 9.882812 14.058594 9.734375 14.058594 C 9.535156 14.058594 9.535156 14.058594 9.335938 14.0625 C 9 14 9 14 8.769531 13.792969 C 8.589844 13.433594 8.578125 13.179688 8.574219 12.78125 C 8.574219 12.644531 8.574219 12.503906 8.574219 12.363281 C 8.578125 12.148438 8.578125 12.148438 8.578125 11.929688 C 8.578125 11.785156 8.574219 11.640625 8.574219 11.496094 C 8.574219 11.355469 8.574219 11.21875 8.574219 11.078125 C 8.574219 10.953125 8.578125 10.824219 8.578125 10.695312 C 8.625 10.375 8.625 10.375 8.78125 10.144531 C 9.058594 9.960938 9.222656 9.957031 9.554688 9.964844 C 9.664062 9.964844 9.769531 9.964844 9.878906 9.96875 C 10.042969 9.972656 10.042969 9.972656 10.210938 9.976562 C 10.324219 9.976562 10.433594 9.980469 10.550781 9.980469 C 10.824219 9.984375 11.101562 9.992188 11.375 10 C 11.375 9.546875 11.375 9.09375 11.375 8.625 C 11.207031 8.628906 11.042969 8.632812 10.867188 8.636719 C 10.648438 8.640625 10.429688 8.644531 10.210938 8.648438 C 10.101562 8.652344 9.988281 8.65625 9.878906 8.65625 C 9.71875 8.660156 9.71875 8.660156 9.554688 8.660156 C 9.457031 8.664062 9.363281 8.664062 9.261719 8.667969 C 8.933594 8.613281 8.820312 8.515625 8.625 8.25 C 8.683594 7.441406 9 7.34375 9.753906 7.34375 Z M 9.753906 7.34375 "/>
<path style=" stroke:none;fill-rule:nonzero;fill:rgb(96.470588%,96.862745%,96.862745%);fill-opacity:1;" d="M 16.628906 16.703125 C 17.328125 16.996094 17.707031 17.429688 18 18.125 C 18.070312 18.566406 18.058594 18.992188 18.039062 19.4375 C 18.027344 19.828125 18.011719 20.222656 18 20.625 C 16.679688 20.625 15.359375 20.625 14 20.625 C 13.988281 20.230469 13.980469 19.835938 13.96875 19.429688 C 13.964844 19.308594 13.960938 19.183594 13.953125 19.058594 C 13.945312 18.300781 14.050781 17.863281 14.5 17.25 C 15.125 16.664062 15.792969 16.445312 16.628906 16.703125 Z M 16.628906 16.703125 "/>
<path style=" stroke:none;fill-rule:nonzero;fill:rgb(96.470588%,96.862745%,96.862745%);fill-opacity:1;" d="M 16.5 23.375 C 16.925781 23.632812 17.234375 23.890625 17.375 24.375 C 17.34375 24.804688 17.296875 25.152344 17.109375 25.542969 C 16.964844 25.976562 17.046875 26.226562 17.171875 26.664062 C 17.238281 26.898438 17.304688 27.132812 17.375 27.375 C 16.46875 27.375 15.558594 27.375 14.625 27.375 C 14.730469 26.929688 14.835938 26.488281 14.941406 26.046875 C 15.046875 25.609375 15.046875 25.609375 14.75 25.25 C 14.65625 24.675781 14.671875 24.246094 14.984375 23.75 C 15.445312 23.320312 15.890625 23.289062 16.5 23.375 Z M 16.5 23.375 "/>
<path style=" stroke:none;fill-rule:nonzero;fill:rgb(95.294118%,95.686275%,97.647059%);fill-opacity:1;" d="M 20.625 11.375 C 21.078125 11.375 21.53125 11.375 22 11.375 C 22 11.789062 22 12.199219 22 12.625 C 21.546875 12.625 21.09375 12.625 20.625 12.625 C 20.625 12.210938 20.625 11.800781 20.625 11.375 Z M 20.625 11.375 "/>
<path style=" stroke:none;fill-rule:nonzero;fill:rgb(70.19608%,72.941178%,72.941178%);fill-opacity:1;" d="M 24.757812 28.640625 C 25.125 28.75 25.125 28.75 25.375 29.125 C 25.335938 29.539062 25.300781 29.699219 25 30 C 24.644531 30.046875 24.453125 30.050781 24.148438 29.851562 C 23.945312 29.542969 23.945312 29.359375 24 29 C 24.222656 28.628906 24.324219 28.625 24.757812 28.640625 Z M 24.757812 28.640625 "/>
<path style=" stroke:none;fill-rule:nonzero;fill:rgb(70.19608%,72.941178%,72.941178%);fill-opacity:1;" d="M 7.445312 28.65625 C 7.75 28.75 7.75 28.75 8 29 C 8.046875 29.355469 8.050781 29.546875 7.851562 29.851562 C 7.542969 30.054688 7.363281 30.054688 7 30 C 6.765625 29.859375 6.765625 29.859375 6.625 29.625 C 6.640625 29.242188 6.640625 29.242188 6.75 28.875 C 7.125 28.625 7.125 28.625 7.445312 28.65625 Z M 7.445312 28.65625 "/>
<path style=" stroke:none;fill-rule:nonzero;fill:rgb(71.764708%,74.901962%,74.901962%);fill-opacity:1;" d="M 26.25 23.375 C 26.648438 23.324219 26.894531 23.3125 27.242188 23.523438 C 27.375 23.75 27.375 23.75 27.351562 24.070312 C 27.25 24.375 27.25 24.375 27 24.625 C 26.546875 24.578125 26.546875 24.578125 26.125 24.5 C 26.046875 24.148438 26.046875 24.148438 26 23.75 C 26.082031 23.625 26.164062 23.503906 26.25 23.375 Z M 26.25 23.375 "/>
<path style=" stroke:none;fill-rule:nonzero;fill:rgb(72.156864%,75.294119%,75.294119%);fill-opacity:1;" d="M 5 23.375 C 5.453125 23.421875 5.453125 23.421875 5.875 23.5 C 6.042969 24.179688 6.042969 24.179688 5.859375 24.484375 C 5.546875 24.671875 5.359375 24.679688 5 24.625 C 4.765625 24.476562 4.765625 24.476562 4.625 24.25 C 4.65625 23.832031 4.703125 23.671875 5 23.375 Z M 5 23.375 "/>
</g>
</svg>
