<?xml version="1.0" encoding="UTF-8"?>
<svg xmlns="http://www.w3.org/2000/svg" xmlns:xlink="http://www.w3.org/1999/xlink" width="32" height="32" viewBox="0 0 32 32" version="1.1">
<g id="surface1">
<path style=" stroke:none;fill-rule:nonzero;fill:rgb(98.823529%,98.431373%,98.823529%);fill-opacity:1;" d="M 0 0 C 10.558594 0 21.121094 0 32 0 C 32 10.558594 32 21.121094 32 32 C 21.441406 32 10.878906 32 0 32 C 0 21.441406 0 10.878906 0 0 Z M 0 0 "/>
<path style=" stroke:none;fill-rule:nonzero;fill:rgb(95.686275%,73.725492%,11.764706%);fill-opacity:1;" d="M 3.5 2.75 C 11.75 2.75 20 2.75 28.5 2.75 C 28.5 5.183594 28.5 7.617188 28.5 10.125 C 20.25 10.125 12 10.125 3.5 10.125 C 3.5 7.691406 3.5 5.257812 3.5 2.75 Z M 3.5 2.75 "/>
<path style=" stroke:none;fill-rule:nonzero;fill:rgb(4.313726%,12.941177%,20.784314%);fill-opacity:1;" d="M 0 0 C 10.558594 0 21.121094 0 32 0 C 32 10.558594 32 21.121094 32 32 C 21.441406 32 10.878906 32 0 32 C 0 21.441406 0 10.878906 0 0 Z M 1.875 1.125 C 1.875 10.941406 1.875 20.761719 1.875 30.875 C 11.199219 30.875 20.519531 30.875 30.125 30.875 C 30.125 21.058594 30.125 11.238281 30.125 1.125 C 20.800781 1.125 11.480469 1.125 1.875 1.125 Z M 1.875 1.125 "/>
<path style=" stroke:none;fill-rule:nonzero;fill:rgb(70.588237%,74.901962%,81.960785%);fill-opacity:1;" d="M 3.5 12.375 C 11.75 12.375 20 12.375 28.5 12.375 C 28.5 14.765625 28.5 17.160156 28.5 19.625 C 20.25 19.625 12 19.625 3.5 19.625 C 3.5 17.234375 3.5 14.839844 3.5 12.375 Z M 3.5 12.375 "/>
<path style=" stroke:none;fill-rule:nonzero;fill:rgb(88.627452%,17.254902%,29.411766%);fill-opacity:1;" d="M 17.125 21.875 C 20.878906 21.875 24.632812 21.875 28.5 21.875 C 28.5 24.308594 28.5 26.742188 28.5 29.25 C 24.746094 29.25 20.992188 29.25 17.125 29.25 C 17.125 26.816406 17.125 24.382812 17.125 21.875 Z M 17.125 21.875 "/>
<path style=" stroke:none;fill-rule:nonzero;fill:rgb(4.705882%,15.294118%,26.274511%);fill-opacity:1;" d="M 3.5 21.875 C 7.253906 21.875 11.007812 21.875 14.875 21.875 C 14.875 24.308594 14.875 26.742188 14.875 29.25 C 11.121094 29.25 7.367188 29.25 3.5 29.25 C 3.5 26.816406 3.5 24.382812 3.5 21.875 Z M 3.5 21.875 "/>
<path style=" stroke:none;fill-rule:nonzero;fill:rgb(0%,0%,0%);fill-opacity:1;" d="M 31 0 C 31.328125 0 31.660156 0 32 0 C 32 10.558594 32 21.121094 32 32 C 31.671875 32 31.339844 32 31 32 C 31.0625 31.875 31.0625 31.875 31.125 31.75 C 31.136719 31.578125 31.140625 31.402344 31.140625 31.226562 C 31.140625 31.117188 31.140625 31.007812 31.140625 30.894531 C 31.140625 30.773438 31.140625 30.652344 31.140625 30.527344 C 31.140625 30.398438 31.140625 30.269531 31.140625 30.136719 C 31.140625 29.703125 31.140625 29.265625 31.140625 28.832031 C 31.140625 28.523438 31.140625 28.214844 31.140625 27.902344 C 31.140625 27.148438 31.140625 26.390625 31.140625 25.636719 C 31.140625 25.019531 31.140625 24.40625 31.140625 23.792969 C 31.140625 23.703125 31.140625 23.617188 31.140625 23.527344 C 31.140625 23.351562 31.140625 23.171875 31.140625 22.996094 C 31.140625 21.332031 31.140625 19.667969 31.140625 18 C 31.140625 16.574219 31.140625 15.140625 31.140625 13.714844 C 31.140625 12.054688 31.140625 10.394531 31.140625 8.738281 C 31.140625 8.5625 31.140625 8.386719 31.140625 8.207031 C 31.140625 8.078125 31.140625 8.078125 31.140625 7.945312 C 31.140625 7.328125 31.140625 6.714844 31.140625 6.101562 C 31.140625 5.277344 31.140625 4.453125 31.140625 3.625 C 31.140625 3.320312 31.140625 3.015625 31.140625 2.714844 C 31.140625 2.300781 31.140625 1.886719 31.140625 1.472656 C 31.140625 1.351562 31.140625 1.230469 31.140625 1.105469 C 31.140625 0.996094 31.140625 0.886719 31.140625 0.773438 C 31.140625 0.675781 31.140625 0.582031 31.140625 0.484375 C 31.140625 0.238281 31.140625 0.238281 31 0 Z M 31 0 "/>
<path style=" stroke:none;fill-rule:nonzero;fill:rgb(0%,0%,0%);fill-opacity:1;" d="M 0 0 C 0.328125 0 0.660156 0 1 0 C 0.957031 0.0820312 0.917969 0.164062 0.875 0.25 C 0.863281 0.421875 0.859375 0.597656 0.859375 0.773438 C 0.859375 0.882812 0.859375 0.992188 0.859375 1.105469 C 0.859375 1.226562 0.859375 1.347656 0.859375 1.472656 C 0.859375 1.601562 0.859375 1.730469 0.859375 1.863281 C 0.859375 2.296875 0.859375 2.734375 0.859375 3.167969 C 0.859375 3.476562 0.859375 3.785156 0.859375 4.097656 C 0.859375 4.851562 0.859375 5.609375 0.859375 6.363281 C 0.859375 6.980469 0.859375 7.59375 0.859375 8.207031 C 0.859375 8.296875 0.859375 8.382812 0.859375 8.472656 C 0.859375 8.648438 0.859375 8.828125 0.859375 9.003906 C 0.859375 10.667969 0.859375 12.332031 0.859375 14 C 0.859375 15.425781 0.859375 16.859375 0.859375 18.285156 C 0.859375 19.945312 0.859375 21.605469 0.859375 23.261719 C 0.859375 23.4375 0.859375 23.613281 0.859375 23.792969 C 0.859375 23.878906 0.859375 23.964844 0.859375 24.054688 C 0.859375 24.671875 0.859375 25.285156 0.859375 25.898438 C 0.859375 26.722656 0.859375 27.546875 0.859375 28.375 C 0.859375 28.679688 0.859375 28.984375 0.859375 29.285156 C 0.859375 29.699219 0.859375 30.113281 0.859375 30.527344 C 0.859375 30.648438 0.859375 30.769531 0.859375 30.894531 C 0.859375 31.003906 0.859375 31.113281 0.859375 31.226562 C 0.859375 31.324219 0.859375 31.417969 0.859375 31.515625 C 0.859375 31.761719 0.859375 31.761719 1 32 C 0.671875 32 0.339844 32 0 32 C 0 21.441406 0 10.878906 0 0 Z M 0 0 "/>
</g>
</svg>
