<?xml version="1.0" encoding="UTF-8"?>
<svg xmlns="http://www.w3.org/2000/svg" xmlns:xlink="http://www.w3.org/1999/xlink" width="32" height="32" viewBox="0 0 32 32" version="1.1">
<g id="surface1">
<path style=" stroke:none;fill-rule:nonzero;fill:rgb(81.568629%,1.176471%,31.764707%);fill-opacity:1;" d="M 4.859375 -0.0625 C 4.96875 -0.0664062 5.082031 -0.0664062 5.195312 -0.0664062 C 5.5625 -0.0664062 5.933594 -0.0664062 6.300781 -0.0664062 C 6.566406 -0.0664062 6.832031 -0.0664062 7.097656 -0.0664062 C 7.816406 -0.0703125 8.535156 -0.0703125 9.253906 -0.0664062 C 10.007812 -0.0664062 10.757812 -0.0664062 11.511719 -0.0664062 C 12.773438 -0.0703125 14.039062 -0.0664062 15.300781 -0.0664062 C 16.761719 -0.0625 18.222656 -0.0625 19.683594 -0.0664062 C 20.9375 -0.0703125 22.191406 -0.0703125 23.445312 -0.0664062 C 24.195312 -0.0664062 24.945312 -0.0664062 25.695312 -0.0703125 C 26.398438 -0.0703125 27.101562 -0.0703125 27.804688 -0.0664062 C 28.066406 -0.0664062 28.324219 -0.0664062 28.582031 -0.0664062 C 28.933594 -0.0664062 29.285156 -0.0664062 29.640625 -0.0625 C 29.742188 -0.0664062 29.84375 -0.0664062 29.949219 -0.0664062 C 30.609375 -0.0585938 30.976562 0.0703125 31.5 0.5 C 32.179688 1.269531 32.074219 2.335938 32.066406 3.296875 C 32.066406 3.472656 32.066406 3.644531 32.066406 3.820312 C 32.070312 4.179688 32.066406 4.542969 32.066406 4.90625 C 32.0625 5.367188 32.0625 5.832031 32.066406 6.296875 C 32.070312 6.652344 32.066406 7.011719 32.066406 7.367188 C 32.066406 7.539062 32.066406 7.710938 32.066406 7.882812 C 32.070312 8.121094 32.066406 8.359375 32.066406 8.597656 C 32.0625 8.734375 32.0625 8.867188 32.0625 9.007812 C 31.984375 9.464844 31.824219 9.675781 31.5 10 C 31.144531 10.070312 31.144531 10.070312 30.738281 10.0625 C 30.609375 10.058594 30.480469 10.058594 30.34375 10.054688 C 30.097656 10.046875 30.097656 10.046875 29.84375 10.039062 C 29.316406 10.027344 28.792969 10.011719 28.25 10 C 28.25 12.023438 28.25 14.042969 28.25 16.125 C 28.457031 16.207031 28.664062 16.289062 28.875 16.375 C 29.09375 16.496094 29.3125 16.617188 29.527344 16.746094 C 29.648438 16.816406 29.769531 16.890625 29.894531 16.960938 C 30.019531 17.035156 30.144531 17.113281 30.273438 17.1875 C 30.398438 17.261719 30.527344 17.335938 30.65625 17.414062 C 31.59375 17.96875 31.59375 17.96875 31.875 18.25 C 32.019531 19.230469 31.597656 19.859375 31.109375 20.6875 C 31.03125 20.828125 30.953125 20.964844 30.875 21.109375 C 30.492188 21.785156 30.101562 22.425781 29.625 23.035156 C 28.148438 25.023438 28.199219 26.941406 28.25 29.339844 C 28.25 29.46875 28.253906 29.597656 28.257812 29.730469 C 28.261719 29.976562 28.269531 30.222656 28.28125 30.464844 C 28.285156 30.578125 28.289062 30.6875 28.289062 30.800781 C 28.296875 30.945312 28.296875 30.945312 28.300781 31.09375 C 28.222656 31.515625 28.058594 31.703125 27.75 32 C 27.394531 32.0625 27.109375 32.085938 26.753906 32.078125 C 26.652344 32.078125 26.550781 32.082031 26.449219 32.082031 C 26.109375 32.085938 25.769531 32.082031 25.429688 32.078125 C 25.1875 32.078125 24.941406 32.082031 24.699219 32.082031 C 24.039062 32.085938 23.378906 32.082031 22.71875 32.082031 C 22.027344 32.078125 21.335938 32.078125 20.644531 32.078125 C 19.484375 32.082031 18.324219 32.078125 17.164062 32.074219 C 15.824219 32.070312 14.480469 32.070312 13.140625 32.074219 C 11.847656 32.074219 10.558594 32.074219 9.269531 32.070312 C 8.71875 32.070312 8.171875 32.070312 7.621094 32.070312 C 6.972656 32.074219 6.328125 32.070312 5.679688 32.066406 C 5.441406 32.066406 5.207031 32.066406 4.96875 32.066406 C 4.644531 32.070312 4.320312 32.066406 3.996094 32.0625 C 3.902344 32.066406 3.808594 32.066406 3.710938 32.066406 C 3.292969 32.058594 3.039062 32.027344 2.691406 31.789062 C 2.457031 31.4375 2.441406 31.246094 2.449219 30.828125 C 2.449219 30.691406 2.453125 30.554688 2.453125 30.414062 C 2.457031 30.261719 2.460938 30.113281 2.464844 29.960938 C 2.464844 29.71875 2.46875 29.476562 2.472656 29.234375 C 2.476562 28.972656 2.480469 28.710938 2.484375 28.453125 C 2.496094 27.910156 2.5 27.367188 2.503906 26.824219 C 2.503906 26.636719 2.503906 26.449219 2.503906 26.265625 C 2.507812 26.171875 2.507812 26.078125 2.507812 25.980469 C 2.515625 24.714844 2.527344 23.453125 2.550781 22.1875 C 2.566406 21.335938 2.578125 20.480469 2.578125 19.628906 C 2.578125 19.175781 2.582031 18.726562 2.59375 18.273438 C 2.734375 16.476562 2.734375 16.476562 2.175781 14.855469 C 1.699219 14.433594 1.179688 14.195312 0.589844 13.972656 C 0.285156 13.835938 0.144531 13.671875 0 13.375 C 0.0195312 12.699219 0.230469 12.238281 0.566406 11.660156 C 0.609375 11.585938 0.652344 11.511719 0.699219 11.433594 C 0.835938 11.195312 0.976562 10.957031 1.117188 10.71875 C 1.210938 10.558594 1.304688 10.398438 1.398438 10.234375 C 2.050781 9.113281 2.050781 9.113281 2.375 8.625 C 2.414062 8.292969 2.414062 8.292969 2.40625 7.917969 C 2.40625 7.699219 2.40625 7.699219 2.410156 7.476562 C 2.410156 7.320312 2.410156 7.164062 2.410156 7 C 2.410156 6.753906 2.414062 6.507812 2.414062 6.261719 C 2.421875 5.652344 2.421875 5.046875 2.421875 4.4375 C 2.421875 4.09375 2.425781 3.753906 2.425781 3.414062 C 2.429688 3.09375 2.429688 2.773438 2.429688 2.449219 C 2.445312 1.070312 2.445312 1.070312 3 0.5 C 3.632812 -0.015625 4.078125 -0.0703125 4.859375 -0.0625 Z M 4.859375 -0.0625 "/>
<path style=" stroke:none;fill-rule:nonzero;fill:rgb(99.607843%,95.686275%,95.686275%);fill-opacity:1;" d="M 2.5 15.125 C 2.953125 15.226562 3.296875 15.398438 3.699219 15.632812 C 3.910156 15.753906 3.910156 15.753906 4.121094 15.875 C 4.273438 15.964844 4.425781 16.050781 4.578125 16.140625 C 4.734375 16.230469 4.894531 16.324219 5.050781 16.414062 C 5.457031 16.644531 5.859375 16.878906 6.265625 17.113281 C 6.625 17.320312 6.980469 17.527344 7.339844 17.734375 C 7.871094 18.039062 8.402344 18.347656 8.933594 18.652344 C 9.433594 18.945312 9.9375 19.230469 10.4375 19.515625 C 10.742188 19.691406 11.046875 19.863281 11.351562 20.039062 C 11.566406 20.160156 11.78125 20.285156 12 20.40625 C 12.128906 20.480469 12.257812 20.554688 12.390625 20.632812 C 12.507812 20.695312 12.621094 20.761719 12.738281 20.828125 C 13 21 13 21 13.125 21.25 C 13.007812 21.25 13.007812 21.25 12.890625 21.25 C 12.085938 21.257812 11.285156 21.265625 10.484375 21.277344 C 10.183594 21.28125 9.882812 21.28125 9.582031 21.285156 C 9.152344 21.285156 8.722656 21.292969 8.292969 21.296875 C 8.089844 21.296875 8.089844 21.296875 7.886719 21.296875 C 7.761719 21.300781 7.636719 21.304688 7.503906 21.304688 C 7.394531 21.308594 7.285156 21.308594 7.171875 21.308594 C 6.773438 21.398438 6.621094 21.554688 6.375 21.875 C 6.363281 22.328125 6.363281 22.328125 6.5 22.75 C 6.96875 23.0625 7.195312 23.023438 7.757812 23.007812 C 7.941406 23.003906 8.128906 23 8.3125 22.996094 C 8.414062 22.992188 8.511719 22.992188 8.613281 22.988281 C 9.140625 22.976562 9.671875 22.972656 10.203125 22.96875 C 10.875 22.960938 11.546875 22.953125 12.214844 22.933594 C 15.214844 22.847656 17.273438 23.097656 19.75 24.867188 C 20.375 25.296875 21.035156 25.664062 21.695312 26.039062 C 22.402344 26.449219 23.109375 26.863281 23.808594 27.289062 C 23.917969 27.355469 24.023438 27.417969 24.136719 27.484375 C 24.335938 27.605469 24.535156 27.726562 24.730469 27.851562 C 25.289062 28.183594 25.707031 28.375 26.375 28.25 C 26.875 27.789062 27.1875 27.113281 27.523438 26.523438 C 27.632812 26.328125 27.746094 26.136719 27.859375 25.941406 C 27.90625 25.859375 27.953125 25.773438 28.003906 25.683594 C 28.042969 25.625 28.082031 25.5625 28.125 25.5 C 28.167969 25.5 28.207031 25.5 28.25 25.5 C 28.261719 26.324219 28.269531 27.148438 28.277344 27.976562 C 28.28125 28.257812 28.285156 28.539062 28.289062 28.816406 C 28.292969 29.222656 28.296875 29.625 28.296875 30.027344 C 28.300781 30.152344 28.304688 30.277344 28.304688 30.410156 C 28.304688 30.527344 28.304688 30.644531 28.304688 30.765625 C 28.308594 30.867188 28.308594 30.972656 28.308594 31.078125 C 28.222656 31.507812 28.066406 31.695312 27.75 32 C 27.394531 32.0625 27.109375 32.082031 26.753906 32.078125 C 26.652344 32.078125 26.550781 32.078125 26.449219 32.082031 C 26.109375 32.082031 25.769531 32.082031 25.429688 32.078125 C 25.1875 32.078125 24.941406 32.078125 24.699219 32.082031 C 24.039062 32.082031 23.378906 32.082031 22.71875 32.078125 C 22.027344 32.078125 21.335938 32.078125 20.644531 32.078125 C 19.484375 32.078125 18.324219 32.078125 17.164062 32.074219 C 15.824219 32.070312 14.480469 32.070312 13.140625 32.074219 C 11.851562 32.074219 10.558594 32.074219 9.269531 32.070312 C 8.71875 32.070312 8.171875 32.070312 7.621094 32.074219 C 6.976562 32.074219 6.328125 32.070312 5.679688 32.066406 C 5.445312 32.066406 5.203125 32.066406 4.96875 32.066406 C 4.644531 32.070312 4.320312 32.066406 3.996094 32.0625 C 3.902344 32.066406 3.808594 32.066406 3.710938 32.066406 C 3.292969 32.0625 3.039062 32.027344 2.691406 31.789062 C 2.457031 31.4375 2.4375 31.238281 2.441406 30.820312 C 2.4375 30.679688 2.4375 30.542969 2.4375 30.398438 C 2.441406 30.246094 2.441406 30.097656 2.445312 29.941406 C 2.445312 29.78125 2.441406 29.621094 2.441406 29.457031 C 2.441406 29.015625 2.445312 28.578125 2.449219 28.140625 C 2.453125 27.683594 2.453125 27.226562 2.453125 26.769531 C 2.453125 25.902344 2.457031 25.039062 2.464844 24.171875 C 2.46875 23.183594 2.472656 22.199219 2.476562 21.210938 C 2.480469 19.183594 2.488281 17.152344 2.5 15.125 Z M 2.5 15.125 "/>
<path style=" stroke:none;fill-rule:nonzero;fill:rgb(87.450981%,86.666667%,95.686275%);fill-opacity:1;" d="M 4.859375 -0.0625 C 4.96875 -0.0664062 5.082031 -0.0664062 5.195312 -0.0664062 C 5.5625 -0.0664062 5.933594 -0.0664062 6.300781 -0.0664062 C 6.566406 -0.0664062 6.832031 -0.0664062 7.097656 -0.0664062 C 7.816406 -0.0703125 8.535156 -0.0703125 9.253906 -0.0664062 C 10.007812 -0.0664062 10.757812 -0.0664062 11.511719 -0.0664062 C 12.773438 -0.0703125 14.039062 -0.0664062 15.300781 -0.0664062 C 16.761719 -0.0625 18.222656 -0.0625 19.683594 -0.0664062 C 20.9375 -0.0703125 22.191406 -0.0703125 23.445312 -0.0664062 C 24.195312 -0.0664062 24.945312 -0.0664062 25.695312 -0.0703125 C 26.398438 -0.0703125 27.101562 -0.0703125 27.804688 -0.0664062 C 28.066406 -0.0664062 28.324219 -0.0664062 28.582031 -0.0664062 C 28.933594 -0.0664062 29.285156 -0.0664062 29.640625 -0.0625 C 29.742188 -0.0664062 29.84375 -0.0664062 29.949219 -0.0664062 C 30.609375 -0.0585938 30.976562 0.0703125 31.5 0.5 C 32.179688 1.269531 32.074219 2.335938 32.066406 3.296875 C 32.066406 3.472656 32.066406 3.644531 32.066406 3.820312 C 32.070312 4.179688 32.066406 4.542969 32.066406 4.90625 C 32.0625 5.367188 32.0625 5.832031 32.066406 6.296875 C 32.070312 6.652344 32.066406 7.011719 32.066406 7.367188 C 32.066406 7.539062 32.066406 7.710938 32.066406 7.882812 C 32.070312 8.121094 32.066406 8.359375 32.066406 8.597656 C 32.0625 8.734375 32.0625 8.867188 32.0625 9.007812 C 31.984375 9.464844 31.824219 9.675781 31.5 10 C 31.144531 10.070312 31.144531 10.070312 30.738281 10.0625 C 30.609375 10.058594 30.480469 10.058594 30.34375 10.054688 C 30.097656 10.046875 30.097656 10.046875 29.84375 10.039062 C 29.316406 10.027344 28.792969 10.011719 28.25 10 C 28.25 12.023438 28.25 14.042969 28.25 16.125 C 26.84375 15.421875 26.84375 15.421875 26.34375 15.125 C 26.230469 15.058594 26.117188 14.992188 26 14.925781 C 25.882812 14.855469 25.761719 14.785156 25.640625 14.710938 C 24.488281 14.035156 23.332031 13.367188 22.171875 12.703125 C 22.03125 12.621094 21.890625 12.542969 21.746094 12.460938 C 21.472656 12.304688 21.199219 12.148438 20.925781 11.992188 C 20.199219 11.578125 19.476562 11.164062 18.75 10.75 C 18.75 10.710938 18.75 10.667969 18.75 10.625 C 18.902344 10.621094 19.054688 10.617188 19.214844 10.617188 C 19.78125 10.605469 20.351562 10.589844 20.917969 10.578125 C 21.164062 10.574219 21.410156 10.566406 21.65625 10.5625 C 22.011719 10.554688 22.363281 10.546875 22.71875 10.539062 C 22.828125 10.539062 22.9375 10.535156 23.050781 10.53125 C 23.152344 10.53125 23.257812 10.527344 23.363281 10.523438 C 23.453125 10.523438 23.542969 10.523438 23.636719 10.519531 C 23.902344 10.507812 23.902344 10.507812 24.25 10.375 C 24.25 9.921875 24.25 9.46875 24.25 9 C 23.832031 8.859375 23.53125 8.867188 23.085938 8.875 C 22.84375 8.882812 22.84375 8.882812 22.59375 8.886719 C 22.507812 8.890625 22.421875 8.890625 22.332031 8.890625 C 21.761719 8.902344 21.195312 8.902344 20.625 8.90625 C 20.128906 8.910156 19.636719 8.914062 19.140625 8.929688 C 16.441406 8.996094 14.410156 8.820312 12.25 7 C 12.25 6.960938 12.25 6.917969 12.25 6.875 C 12.394531 6.875 12.539062 6.871094 12.6875 6.871094 C 14.050781 6.859375 15.414062 6.847656 16.777344 6.832031 C 17.480469 6.824219 18.179688 6.820312 18.878906 6.8125 C 19.554688 6.804688 20.230469 6.800781 20.90625 6.792969 C 21.167969 6.789062 21.425781 6.789062 21.683594 6.785156 C 22.042969 6.78125 22.402344 6.777344 22.765625 6.773438 C 22.871094 6.773438 22.980469 6.773438 23.089844 6.773438 C 23.507812 6.769531 23.851562 6.757812 24.25 6.625 C 24.25 6.171875 24.25 5.71875 24.25 5.25 C 23.882812 5.128906 23.652344 5.113281 23.269531 5.113281 C 23.148438 5.117188 23.023438 5.117188 22.894531 5.117188 C 22.757812 5.117188 22.621094 5.121094 22.480469 5.121094 C 22.183594 5.121094 21.886719 5.125 21.585938 5.125 C 21.347656 5.128906 21.347656 5.128906 21.105469 5.128906 C 20.609375 5.132812 20.113281 5.136719 19.613281 5.136719 C 19.53125 5.136719 19.445312 5.136719 19.359375 5.136719 C 19.011719 5.136719 18.664062 5.136719 18.316406 5.136719 C 17.335938 5.136719 16.351562 5.140625 15.371094 5.148438 C 14.589844 5.15625 13.808594 5.160156 13.027344 5.15625 C 12.613281 5.15625 12.203125 5.15625 11.789062 5.164062 C 9.84375 5.191406 8.457031 5.066406 6.84375 3.921875 C 6.425781 3.628906 6.144531 3.542969 5.625 3.625 C 5.410156 3.773438 5.410156 3.773438 5.269531 4.011719 C 5.175781 4.148438 5.175781 4.148438 5.082031 4.289062 C 4.652344 4.988281 4.25 5.699219 3.851562 6.414062 C 3.71875 6.652344 3.585938 6.894531 3.449219 7.132812 C 3.328125 7.347656 3.207031 7.5625 3.089844 7.777344 C 2.90625 8.070312 2.746094 8.265625 2.5 8.5 C 2.488281 7.566406 2.480469 6.636719 2.472656 5.703125 C 2.472656 5.269531 2.46875 4.835938 2.460938 4.402344 C 2.457031 3.90625 2.453125 3.40625 2.453125 2.910156 C 2.449219 2.753906 2.445312 2.601562 2.445312 2.441406 C 2.441406 1.074219 2.441406 1.074219 3 0.5 C 3.632812 -0.015625 4.078125 -0.0703125 4.859375 -0.0625 Z M 4.859375 -0.0625 "/>
<path style=" stroke:none;fill-rule:nonzero;fill:rgb(99.607843%,25.882354%,36.470589%);fill-opacity:1;" d="M 6.25 5.75 C 6.6875 5.835938 7.023438 6.007812 7.40625 6.226562 C 7.535156 6.296875 7.664062 6.371094 7.796875 6.445312 C 7.933594 6.523438 8.070312 6.601562 8.210938 6.679688 C 8.351562 6.761719 8.492188 6.839844 8.640625 6.921875 C 9.488281 7.402344 10.335938 7.890625 11.175781 8.386719 C 11.976562 8.863281 12.785156 9.332031 13.59375 9.796875 C 13.730469 9.875 13.871094 9.957031 14.011719 10.039062 C 14.683594 10.425781 15.359375 10.8125 16.035156 11.195312 C 16.15625 11.265625 16.277344 11.332031 16.398438 11.402344 C 16.628906 11.53125 16.855469 11.660156 17.085938 11.789062 C 17.1875 11.847656 17.285156 11.90625 17.390625 11.964844 C 17.480469 12.011719 17.566406 12.0625 17.65625 12.113281 C 17.875 12.25 17.875 12.25 18.125 12.5 C 18.042969 12.5 17.960938 12.5 17.875 12.5 C 17.839844 12.589844 17.800781 12.679688 17.765625 12.773438 C 17.636719 13.097656 17.503906 13.425781 17.375 13.75 C 17.5625 13.8125 17.5625 13.8125 17.75 13.875 C 17.882812 14.902344 17.429688 15.550781 16.90625 16.40625 C 16.828125 16.542969 16.746094 16.675781 16.667969 16.8125 C 15.960938 17.992188 15.960938 17.992188 15.5 18.375 C 15.03125 18.40625 15.03125 18.40625 14.625 18.375 C 14.417969 18.789062 14.210938 19.199219 14 19.625 C 13.84375 19.515625 13.6875 19.410156 13.527344 19.300781 C 12.847656 18.847656 12.144531 18.453125 11.429688 18.0625 C 10.242188 17.402344 9.0625 16.730469 7.890625 16.042969 C 7.222656 15.648438 6.550781 15.261719 5.878906 14.875 C 5.804688 14.832031 5.734375 14.792969 5.65625 14.746094 C 5.304688 14.546875 4.953125 14.34375 4.601562 14.144531 C 3.839844 13.707031 3.097656 13.25 2.375 12.75 C 2.542969 12.308594 2.738281 11.898438 2.972656 11.484375 C 3.039062 11.363281 3.109375 11.238281 3.179688 11.109375 C 3.253906 10.980469 3.328125 10.847656 3.40625 10.710938 C 3.484375 10.574219 3.558594 10.4375 3.640625 10.296875 C 4.402344 8.941406 5.1875 7.597656 5.976562 6.253906 C 6.074219 6.089844 6.164062 5.921875 6.25 5.75 Z M 6.25 5.75 "/>
<path style=" stroke:none;fill-rule:nonzero;fill:rgb(99.607843%,41.960785%,41.960785%);fill-opacity:1;" d="M 5.945312 3.449219 C 6.460938 3.511719 6.691406 3.6875 7.105469 3.980469 C 8.746094 5.121094 10.339844 5.054688 12.273438 5.019531 C 12.605469 5.019531 12.941406 5.015625 13.277344 5.019531 C 14.0625 5.015625 14.84375 5.011719 15.628906 5 C 17.039062 4.984375 18.445312 4.980469 19.855469 4.976562 C 20.429688 4.972656 21 4.96875 21.574219 4.960938 C 21.871094 4.957031 22.167969 4.957031 22.46875 4.953125 C 22.671875 4.949219 22.671875 4.949219 22.878906 4.945312 C 23.789062 4.945312 23.789062 4.945312 24.210938 5.226562 C 24.453125 5.632812 24.441406 5.910156 24.375 6.375 C 24.1875 6.648438 24.1875 6.648438 23.875 6.875 C 23.492188 6.925781 23.15625 6.945312 22.773438 6.945312 C 22.664062 6.945312 22.550781 6.945312 22.4375 6.949219 C 22.070312 6.949219 21.703125 6.949219 21.339844 6.949219 C 21.082031 6.953125 20.828125 6.953125 20.574219 6.957031 C 19.90625 6.960938 19.238281 6.964844 18.566406 6.96875 C 17.882812 6.96875 17.203125 6.976562 16.519531 6.980469 C 15.179688 6.988281 13.839844 6.996094 12.5 7 C 14.710938 8.789062 16.703125 8.839844 19.40625 8.765625 C 20.191406 8.746094 20.976562 8.738281 21.757812 8.734375 C 22.03125 8.730469 22.300781 8.722656 22.574219 8.714844 C 22.738281 8.714844 22.902344 8.710938 23.070312 8.707031 C 23.214844 8.703125 23.359375 8.699219 23.503906 8.695312 C 23.875 8.75 23.875 8.75 24.171875 8.976562 C 24.46875 9.375 24.445312 9.640625 24.375 10.125 C 24.167969 10.429688 24.007812 10.597656 23.640625 10.671875 C 23.347656 10.695312 23.054688 10.699219 22.757812 10.699219 C 22.652344 10.703125 22.542969 10.703125 22.433594 10.707031 C 22.09375 10.714844 21.75 10.714844 21.40625 10.71875 C 21.171875 10.722656 20.941406 10.726562 20.707031 10.730469 C 20.140625 10.738281 19.570312 10.746094 19 10.75 C 18.566406 11.554688 18.566406 11.554688 18.125 12.375 C 17.574219 12.191406 17.191406 12.039062 16.707031 11.757812 C 16.578125 11.683594 16.449219 11.609375 16.320312 11.53125 C 16.113281 11.410156 16.113281 11.410156 15.90625 11.289062 C 15.761719 11.203125 15.617188 11.121094 15.472656 11.035156 C 15.171875 10.859375 14.871094 10.6875 14.570312 10.511719 C 13.882812 10.109375 13.191406 9.710938 12.5 9.3125 C 11.738281 8.875 10.976562 8.433594 10.21875 7.996094 C 10 7.867188 9.777344 7.738281 9.558594 7.613281 C 9.285156 7.453125 9.011719 7.296875 8.734375 7.136719 C 7.914062 6.664062 7.085938 6.199219 6.25 5.75 C 6.222656 5.847656 6.199219 5.941406 6.175781 6.039062 C 5.929688 6.691406 5.574219 7.261719 5.21875 7.859375 C 5.140625 7.988281 5.066406 8.121094 4.988281 8.253906 C 4.574219 8.953125 4.15625 9.652344 3.742188 10.351562 C 3.660156 10.488281 3.578125 10.625 3.496094 10.761719 C 3.339844 11.027344 3.183594 11.289062 3.023438 11.550781 C 2.953125 11.671875 2.882812 11.789062 2.808594 11.914062 C 2.746094 12.015625 2.683594 12.121094 2.617188 12.230469 C 2.457031 12.511719 2.457031 12.511719 2.625 12.875 C 2.863281 13.050781 2.863281 13.050781 3.160156 13.207031 C 3.332031 13.300781 3.332031 13.300781 3.503906 13.394531 C 3.691406 13.5 3.691406 13.5 3.882812 13.601562 C 4.148438 13.75 4.414062 13.894531 4.679688 14.042969 C 4.816406 14.117188 4.953125 14.195312 5.09375 14.273438 C 5.71875 14.625 6.339844 14.988281 6.960938 15.351562 C 8.074219 16.007812 9.195312 16.648438 10.320312 17.289062 C 11.515625 17.96875 12.703125 18.65625 13.875 19.375 C 13.679688 19.996094 13.421875 20.550781 13.125 21.125 C 12.230469 20.691406 11.371094 20.21875 10.515625 19.710938 C 9.304688 19 8.089844 18.300781 6.871094 17.605469 C 5.789062 16.992188 4.71875 16.367188 3.664062 15.714844 C 3.121094 15.382812 2.585938 15.121094 2 14.875 C 1.714844 14.71875 1.433594 14.550781 1.15625 14.382812 C 0.949219 14.257812 0.949219 14.257812 0.738281 14.128906 C 0.171875 13.730469 0.171875 13.730469 0 13.375 C 0.046875 12.714844 0.21875 12.257812 0.546875 11.6875 C 0.589844 11.613281 0.632812 11.542969 0.675781 11.464844 C 0.8125 11.230469 0.949219 11 1.085938 10.765625 C 1.175781 10.609375 1.265625 10.457031 1.355469 10.300781 C 1.722656 9.664062 2.09375 9.035156 2.507812 8.429688 C 3.078125 7.589844 3.558594 6.695312 4.054688 5.8125 C 5.347656 3.542969 5.347656 3.542969 5.945312 3.449219 Z M 5.945312 3.449219 "/>
<path style=" stroke:none;fill-rule:nonzero;fill:rgb(99.607843%,25.098041%,36.078432%);fill-opacity:1;" d="M 18.875 10.875 C 19.351562 10.949219 19.691406 11.082031 20.101562 11.328125 C 20.21875 11.398438 20.335938 11.46875 20.457031 11.539062 C 20.644531 11.652344 20.644531 11.652344 20.835938 11.765625 C 21.105469 11.925781 21.378906 12.085938 21.648438 12.246094 C 21.789062 12.328125 21.925781 12.410156 22.074219 12.496094 C 22.765625 12.90625 23.464844 13.308594 24.164062 13.710938 C 24.4375 13.867188 24.707031 14.023438 24.980469 14.179688 C 25.109375 14.253906 25.238281 14.328125 25.371094 14.40625 C 25.726562 14.609375 26.082031 14.816406 26.433594 15.023438 C 27.625 15.714844 27.625 15.714844 28.828125 16.382812 C 29.4375 16.710938 30.035156 17.058594 30.632812 17.40625 C 30.726562 17.460938 30.820312 17.515625 30.917969 17.570312 C 31.050781 17.648438 31.050781 17.648438 31.183594 17.730469 C 31.261719 17.773438 31.34375 17.820312 31.421875 17.867188 C 31.625 18 31.625 18 31.875 18.25 C 32.019531 19.226562 31.605469 19.855469 31.117188 20.679688 C 31.039062 20.816406 30.960938 20.953125 30.878906 21.09375 C 30.628906 21.519531 30.378906 21.949219 30.125 22.375 C 30.046875 22.511719 29.964844 22.644531 29.882812 22.785156 C 29.417969 23.570312 28.949219 24.347656 28.476562 25.128906 C 28.253906 25.496094 28.03125 25.867188 27.8125 26.238281 C 27.742188 26.355469 27.675781 26.46875 27.605469 26.589844 C 27.476562 26.804688 27.347656 27.019531 27.222656 27.238281 C 27.164062 27.332031 27.109375 27.425781 27.046875 27.527344 C 27 27.609375 26.953125 27.691406 26.898438 27.777344 C 26.636719 28.171875 26.480469 28.355469 26.007812 28.449219 C 25.265625 28.414062 24.640625 27.929688 24.023438 27.554688 C 23.878906 27.46875 23.734375 27.382812 23.59375 27.300781 C 23.292969 27.121094 22.996094 26.945312 22.699219 26.765625 C 21.992188 26.347656 21.28125 25.941406 20.570312 25.53125 C 20.324219 25.390625 20.078125 25.246094 19.828125 25.105469 C 19.695312 25.03125 19.566406 24.957031 19.429688 24.882812 C 19.109375 24.703125 18.832031 24.496094 18.546875 24.265625 C 16.609375 22.800781 14.289062 23.085938 11.980469 23.132812 C 11.085938 23.152344 10.195312 23.160156 9.300781 23.164062 C 8.992188 23.164062 8.679688 23.171875 8.371094 23.179688 C 8.183594 23.179688 7.992188 23.183594 7.804688 23.183594 C 7.554688 23.191406 7.554688 23.191406 7.304688 23.195312 C 6.761719 23.105469 6.578125 22.933594 6.25 22.5 C 6.242188 22.046875 6.242188 22.046875 6.375 21.625 C 6.742188 21.269531 7 21.203125 7.503906 21.207031 C 7.628906 21.207031 7.757812 21.207031 7.886719 21.207031 C 8.085938 21.210938 8.085938 21.210938 8.292969 21.214844 C 8.429688 21.214844 8.566406 21.214844 8.707031 21.214844 C 9.148438 21.21875 9.589844 21.222656 10.03125 21.226562 C 10.328125 21.230469 10.628906 21.230469 10.925781 21.230469 C 11.660156 21.234375 12.390625 21.242188 13.125 21.25 C 13.144531 21.132812 13.160156 21.015625 13.179688 20.890625 C 13.273438 20.367188 13.453125 20.066406 13.75 19.625 C 14.125 19.5 14.125 19.5 14.441406 19.640625 C 14.566406 19.714844 14.691406 19.789062 14.820312 19.863281 C 14.960938 19.945312 15.105469 20.027344 15.25 20.109375 C 15.402344 20.203125 15.558594 20.292969 15.710938 20.382812 C 15.871094 20.476562 16.027344 20.566406 16.1875 20.660156 C 16.59375 20.894531 16.996094 21.128906 17.398438 21.367188 C 17.734375 21.5625 18.066406 21.757812 18.402344 21.953125 C 18.761719 22.164062 19.125 22.375 19.484375 22.585938 C 20.625 23.253906 21.773438 23.910156 22.921875 24.5625 C 23.667969 24.984375 24.40625 25.417969 25.136719 25.867188 C 25.367188 26.019531 25.367188 26.019531 25.625 26 C 25.675781 25.910156 25.726562 25.824219 25.777344 25.730469 C 27.015625 23.566406 28.253906 21.40625 29.5 19.25 C 29.074219 18.894531 28.644531 18.601562 28.164062 18.328125 C 28.023438 18.25 27.882812 18.171875 27.742188 18.089844 C 27.628906 18.027344 27.628906 18.027344 27.515625 17.964844 C 27.203125 17.789062 26.890625 17.609375 26.578125 17.433594 C 26.414062 17.339844 26.253906 17.25 26.089844 17.15625 C 25.304688 16.710938 24.519531 16.257812 23.734375 15.804688 C 23.46875 15.652344 23.203125 15.496094 22.9375 15.34375 C 22.804688 15.269531 22.671875 15.191406 22.539062 15.113281 C 22.175781 14.90625 21.816406 14.695312 21.453125 14.488281 C 21.15625 14.316406 20.855469 14.144531 20.558594 13.976562 C 20.351562 13.855469 20.140625 13.734375 19.929688 13.613281 C 19.316406 13.261719 18.707031 12.90625 18.125 12.5 C 18.183594 11.855469 18.523438 11.398438 18.875 10.875 Z M 18.875 10.875 "/>
<path style=" stroke:none;fill-rule:nonzero;fill:rgb(87.450981%,86.666667%,95.686275%);fill-opacity:1;" d="M 15.375 23.125 C 16.78125 23.125 16.78125 23.125 17.40625 23.5 C 17.546875 23.582031 17.683594 23.664062 17.828125 23.746094 C 17.972656 23.835938 18.121094 23.925781 18.265625 24.015625 C 18.421875 24.109375 18.574219 24.199219 18.730469 24.289062 C 19.042969 24.476562 19.359375 24.664062 19.671875 24.851562 C 20.339844 25.253906 21.019531 25.644531 21.695312 26.039062 C 22.402344 26.449219 23.109375 26.863281 23.808594 27.289062 C 23.917969 27.355469 24.023438 27.417969 24.136719 27.484375 C 24.335938 27.605469 24.535156 27.726562 24.730469 27.851562 C 25.289062 28.183594 25.707031 28.375 26.375 28.25 C 26.875 27.789062 27.1875 27.113281 27.523438 26.523438 C 27.632812 26.328125 27.746094 26.136719 27.859375 25.941406 C 27.90625 25.859375 27.953125 25.773438 28.003906 25.683594 C 28.0625 25.59375 28.0625 25.59375 28.125 25.5 C 28.167969 25.5 28.207031 25.5 28.25 25.5 C 28.261719 26.324219 28.269531 27.148438 28.277344 27.976562 C 28.28125 28.257812 28.285156 28.539062 28.289062 28.816406 C 28.292969 29.222656 28.296875 29.625 28.296875 30.027344 C 28.300781 30.152344 28.304688 30.277344 28.304688 30.410156 C 28.304688 30.585938 28.304688 30.585938 28.304688 30.765625 C 28.308594 30.867188 28.308594 30.972656 28.308594 31.078125 C 28.222656 31.519531 28.09375 31.703125 27.75 32 C 27.351562 32.089844 26.964844 32.078125 26.558594 32.070312 C 26.375 32.070312 26.375 32.070312 26.191406 32.070312 C 25.792969 32.070312 25.394531 32.066406 24.992188 32.0625 C 24.71875 32.058594 24.441406 32.058594 24.164062 32.058594 C 23.433594 32.054688 22.707031 32.050781 21.980469 32.042969 C 21.105469 32.035156 20.230469 32.03125 19.359375 32.027344 C 18.03125 32.023438 16.703125 32.011719 15.375 32 C 15.375 29.070312 15.375 26.140625 15.375 23.125 Z M 15.375 23.125 "/>
<path style=" stroke:none;fill-rule:nonzero;fill:rgb(100%,95.686275%,95.686275%);fill-opacity:1;" d="M 4.902344 -0.0585938 C 5.015625 -0.0585938 5.128906 -0.0585938 5.246094 -0.0585938 C 5.621094 -0.0585938 5.992188 -0.0546875 6.367188 -0.0507812 C 6.625 -0.046875 6.886719 -0.046875 7.144531 -0.046875 C 7.828125 -0.0429688 8.507812 -0.0390625 9.191406 -0.0351562 C 9.886719 -0.0273438 10.582031 -0.0273438 11.28125 -0.0234375 C 12.644531 -0.0195312 14.011719 -0.0117188 15.375 0 C 15.375 1.648438 15.375 3.300781 15.375 5 C 14.476562 5.03125 13.574219 5.058594 12.675781 5.074219 C 12.371094 5.082031 12.066406 5.09375 11.761719 5.101562 C 9.816406 5.179688 8.457031 5.066406 6.847656 3.921875 C 6.511719 3.691406 6.371094 3.625 5.957031 3.558594 C 5.574219 3.636719 5.484375 3.691406 5.265625 4.011719 C 5.175781 4.152344 5.175781 4.152344 5.078125 4.289062 C 4.652344 4.988281 4.25 5.699219 3.851562 6.414062 C 3.71875 6.652344 3.585938 6.890625 3.449219 7.128906 C 3.328125 7.347656 3.210938 7.5625 3.089844 7.777344 C 2.910156 8.070312 2.746094 8.265625 2.5 8.5 C 2.488281 7.566406 2.480469 6.636719 2.472656 5.703125 C 2.472656 5.269531 2.46875 4.835938 2.460938 4.40625 C 2.457031 3.90625 2.453125 3.40625 2.449219 2.910156 C 2.449219 2.753906 2.445312 2.597656 2.445312 2.441406 C 2.445312 1.074219 2.445312 1.074219 3 0.5 C 3.640625 -0.0273438 4.105469 -0.0703125 4.902344 -0.0585938 Z M 4.902344 -0.0585938 "/>
<path style=" stroke:none;fill-rule:nonzero;fill:rgb(82.352942%,81.568629%,94.901961%);fill-opacity:1;" d="M 31.164062 0.1875 C 31.839844 0.816406 32.027344 1.425781 32.066406 2.328125 C 32.066406 2.652344 32.070312 2.972656 32.066406 3.296875 C 32.066406 3.472656 32.066406 3.644531 32.066406 3.820312 C 32.070312 4.179688 32.066406 4.542969 32.066406 4.90625 C 32.0625 5.367188 32.0625 5.832031 32.066406 6.296875 C 32.070312 6.652344 32.066406 7.011719 32.066406 7.367188 C 32.066406 7.539062 32.066406 7.710938 32.066406 7.882812 C 32.070312 8.121094 32.066406 8.359375 32.066406 8.597656 C 32.0625 8.800781 32.0625 8.800781 32.0625 9.007812 C 31.984375 9.476562 31.851562 9.679688 31.5 10 C 31.132812 10.070312 31.132812 10.070312 30.710938 10.0625 C 30.5625 10.058594 30.410156 10.058594 30.257812 10.054688 C 30.097656 10.050781 29.941406 10.046875 29.78125 10.039062 C 29.621094 10.035156 29.464844 10.035156 29.300781 10.03125 C 28.90625 10.023438 28.515625 10.011719 28.125 10 C 28.117188 8.921875 28.109375 7.847656 28.105469 6.769531 C 28.105469 6.269531 28.101562 5.769531 28.097656 5.269531 C 28.09375 4.785156 28.089844 4.300781 28.089844 3.820312 C 28.089844 3.636719 28.085938 3.453125 28.085938 3.269531 C 28.082031 3.011719 28.082031 2.75 28.082031 2.492188 C 28.082031 2.347656 28.082031 2.199219 28.082031 2.046875 C 28.140625 1.476562 28.304688 0.976562 28.6875 0.53125 C 29.46875 -0.0585938 30.253906 -0.222656 31.164062 0.1875 Z M 31.164062 0.1875 "/>
<path style=" stroke:none;fill-rule:nonzero;fill:rgb(27.058825%,23.921569%,51.372552%);fill-opacity:1;" d="M 9 5 C 10.929688 4.988281 12.859375 4.980469 14.792969 4.972656 C 15.6875 4.972656 16.585938 4.96875 17.484375 4.960938 C 18.265625 4.957031 19.046875 4.953125 19.828125 4.953125 C 20.238281 4.953125 20.652344 4.949219 21.066406 4.949219 C 21.527344 4.945312 21.992188 4.941406 22.453125 4.945312 C 22.589844 4.941406 22.726562 4.941406 22.867188 4.9375 C 22.996094 4.9375 23.121094 4.9375 23.25 4.941406 C 23.359375 4.941406 23.46875 4.9375 23.582031 4.9375 C 23.976562 5.019531 24.128906 5.183594 24.375 5.5 C 24.441406 5.972656 24.460938 6.246094 24.191406 6.648438 C 23.738281 6.972656 23.3125 6.953125 22.777344 6.960938 C 22.609375 6.964844 22.609375 6.964844 22.4375 6.96875 C 22.070312 6.976562 21.703125 6.980469 21.332031 6.984375 C 21.207031 6.988281 21.078125 6.988281 20.949219 6.988281 C 20.277344 7 19.601562 7.003906 18.929688 7.007812 C 18.375 7.011719 17.824219 7.019531 17.273438 7.035156 C 11.453125 7.175781 11.453125 7.175781 9.179688 5.296875 C 9.121094 5.242188 9.0625 5.183594 9 5.125 C 9 5.082031 9 5.042969 9 5 Z M 9 5 "/>
<path style=" stroke:none;fill-rule:nonzero;fill:rgb(87.058824%,85.09804%,94.509804%);fill-opacity:1;" d="M 24.746094 17.917969 C 25.585938 18.191406 26.246094 18.792969 26.75 19.5 C 27.007812 20.273438 26.953125 20.921875 26.601562 21.65625 C 26.335938 22.140625 26.050781 22.515625 25.625 22.875 C 25.539062 22.949219 25.453125 23.019531 25.367188 23.09375 C 24.820312 23.445312 24.128906 23.492188 23.5 23.375 C 22.824219 23.066406 22.167969 22.753906 21.75 22.125 C 21.785156 21.53125 21.988281 21.113281 22.285156 20.597656 C 22.324219 20.527344 22.363281 20.460938 22.40625 20.386719 C 22.492188 20.238281 22.578125 20.089844 22.664062 19.945312 C 22.796875 19.71875 22.925781 19.492188 23.054688 19.265625 C 23.925781 17.769531 23.925781 17.769531 24.746094 17.917969 Z M 24.746094 17.917969 "/>
<path style=" stroke:none;fill-rule:nonzero;fill:rgb(100%,94.117647%,94.509804%);fill-opacity:1;" d="M 7.167969 7.828125 C 7.585938 7.886719 7.839844 8.042969 8.195312 8.273438 C 8.3125 8.347656 8.425781 8.421875 8.546875 8.496094 C 9.238281 9.027344 9.566406 9.589844 9.6875 10.445312 C 9.664062 11.273438 9.210938 12.109375 8.679688 12.726562 C 8.023438 13.300781 7.339844 13.445312 6.492188 13.433594 C 5.859375 13.335938 5.375 13.007812 4.875 12.625 C 4.796875 12.574219 4.722656 12.519531 4.644531 12.464844 C 4.5 12.25 4.5 12.25 4.527344 11.847656 C 4.628906 11.355469 4.773438 11.042969 5.035156 10.621094 C 5.117188 10.484375 5.199219 10.347656 5.285156 10.207031 C 5.371094 10.066406 5.457031 9.925781 5.546875 9.78125 C 5.632812 9.636719 5.71875 9.496094 5.804688 9.351562 C 6.6875 7.90625 6.6875 7.90625 7.167969 7.828125 Z M 7.167969 7.828125 "/>
<path style=" stroke:none;fill-rule:nonzero;fill:rgb(99.607843%,94.509804%,94.509804%);fill-opacity:1;" d="M 14.8125 12.320312 C 15.25 12.375 15.25 12.375 15.460938 12.574219 C 15.679688 12.980469 15.683594 13.3125 15.703125 13.773438 C 15.675781 14.300781 15.675781 14.300781 15.875 14.75 C 15.917969 14.679688 15.960938 14.609375 16.007812 14.535156 C 16.0625 14.445312 16.121094 14.351562 16.179688 14.257812 C 16.234375 14.167969 16.292969 14.074219 16.351562 13.980469 C 16.5 13.75 16.5 13.75 16.625 13.625 C 17.128906 13.589844 17.320312 13.585938 17.75 13.875 C 17.933594 14.882812 17.417969 15.570312 16.90625 16.40625 C 16.828125 16.539062 16.746094 16.675781 16.667969 16.8125 C 15.957031 17.996094 15.957031 17.996094 15.5 18.375 C 15.046875 18.367188 15.046875 18.367188 14.625 18.25 C 14.320312 17.792969 14.292969 17.382812 14.234375 16.851562 C 14.222656 16.757812 14.210938 16.664062 14.203125 16.566406 C 14.175781 16.335938 14.148438 16.105469 14.125 15.875 C 14.078125 15.957031 14.035156 16.035156 13.988281 16.117188 C 13.476562 16.957031 13.476562 16.957031 12.984375 17.164062 C 12.625 17.125 12.625 17.125 12.320312 16.9375 C 12.105469 16.589844 12.09375 16.425781 12.160156 16.03125 C 12.367188 15.378906 12.757812 14.800781 13.109375 14.21875 C 13.1875 14.082031 13.269531 13.945312 13.351562 13.804688 C 14.1875 12.398438 14.1875 12.398438 14.8125 12.320312 Z M 14.8125 12.320312 "/>
<path style=" stroke:none;fill-rule:nonzero;fill:rgb(37.64706%,33.333334%,68.627453%);fill-opacity:1;" d="M 7.480469 21.179688 C 7.601562 21.175781 7.722656 21.167969 7.847656 21.164062 C 7.976562 21.160156 8.105469 21.15625 8.242188 21.152344 C 8.375 21.148438 8.511719 21.144531 8.652344 21.136719 C 9.089844 21.128906 9.53125 21.121094 9.96875 21.117188 C 10.117188 21.117188 10.265625 21.113281 10.417969 21.113281 C 12.710938 21.097656 14.410156 21.28125 16.203125 22.824219 C 16.375 23 16.375 23 16.375 23.125 C 15.148438 23.140625 13.917969 23.152344 12.691406 23.15625 C 12.121094 23.160156 11.550781 23.164062 10.980469 23.171875 C 10.429688 23.179688 9.878906 23.183594 9.328125 23.183594 C 9.121094 23.1875 8.910156 23.1875 8.699219 23.191406 C 8.40625 23.195312 8.113281 23.195312 7.816406 23.195312 C 7.730469 23.199219 7.644531 23.199219 7.554688 23.203125 C 7.082031 23.195312 6.882812 23.132812 6.503906 22.835938 C 6.25 22.5 6.25 22.5 6.242188 22.046875 C 6.453125 21.382812 6.804688 21.207031 7.480469 21.179688 Z M 7.480469 21.179688 "/>
<path style=" stroke:none;fill-rule:nonzero;fill:rgb(37.64706%,33.725491%,68.627453%);fill-opacity:1;" d="M 7.609375 24.949219 C 7.832031 24.945312 7.832031 24.945312 8.058594 24.945312 C 8.296875 24.945312 8.296875 24.945312 8.542969 24.945312 C 8.707031 24.945312 8.871094 24.945312 9.039062 24.941406 C 9.386719 24.941406 9.734375 24.941406 10.082031 24.945312 C 10.527344 24.945312 10.972656 24.941406 11.414062 24.941406 C 11.839844 24.9375 12.265625 24.9375 12.691406 24.9375 C 12.851562 24.9375 13.007812 24.9375 13.175781 24.933594 C 13.320312 24.933594 13.46875 24.9375 13.625 24.9375 C 13.753906 24.9375 13.882812 24.9375 14.019531 24.9375 C 14.46875 25.015625 14.679688 25.175781 15 25.5 C 15.078125 25.9375 15.078125 25.9375 15 26.375 C 14.554688 26.824219 14.25 26.9375 13.625 26.941406 C 13.476562 26.941406 13.328125 26.945312 13.175781 26.949219 C 13.019531 26.945312 12.859375 26.945312 12.695312 26.945312 C 12.53125 26.945312 12.367188 26.945312 12.199219 26.949219 C 11.851562 26.949219 11.503906 26.949219 11.15625 26.945312 C 10.714844 26.945312 10.273438 26.949219 9.828125 26.953125 C 9.402344 26.957031 8.980469 26.953125 8.554688 26.953125 C 8.394531 26.957031 8.238281 26.957031 8.074219 26.957031 C 6.847656 26.945312 6.847656 26.945312 6.457031 26.585938 C 6.25 26.25 6.25 26.25 6.242188 25.796875 C 6.476562 25.058594 6.875 24.953125 7.609375 24.949219 Z M 7.609375 24.949219 "/>
<path style=" stroke:none;fill-rule:nonzero;fill:rgb(87.058824%,84.705883%,94.509804%);fill-opacity:1;" d="M 21.109375 15.863281 C 21.558594 16.019531 21.949219 16.210938 22.359375 16.453125 C 22.433594 16.492188 22.507812 16.53125 22.585938 16.574219 C 22.796875 16.699219 22.796875 16.699219 23.125 17 C 23.179688 17.441406 23.210938 17.730469 22.984375 18.117188 C 22.632812 18.316406 22.398438 18.296875 22 18.25 C 21.578125 18.0625 21.578125 18.0625 21.25 17.875 C 21.460938 18.09375 21.632812 18.253906 21.898438 18.40625 C 22.125 18.625 22.125 18.625 22.1875 19.0625 C 22.125 19.5 22.125 19.5 21.921875 19.75 C 21.523438 19.917969 21.289062 19.863281 20.875 19.75 C 20.578125 19.617188 20.578125 19.617188 20.375 19.5 C 20.335938 19.582031 20.292969 19.664062 20.25 19.75 C 20.394531 19.804688 20.394531 19.804688 20.539062 19.859375 C 20.875 20 20.875 20 21.25 20.25 C 21.296875 20.675781 21.328125 20.988281 21.109375 21.367188 C 20.765625 21.5625 20.515625 21.535156 20.125 21.5 C 19.765625 21.324219 19.765625 21.324219 19.414062 21.085938 C 19.296875 21.007812 19.179688 20.933594 19.0625 20.855469 C 18.535156 20.46875 18.535156 20.46875 18.375 20.25 C 18.3125 19.707031 18.460938 19.398438 18.734375 18.933594 C 18.8125 18.804688 18.886719 18.671875 18.964844 18.539062 C 19.046875 18.40625 19.128906 18.269531 19.210938 18.132812 C 19.289062 18 19.367188 17.863281 19.449219 17.726562 C 20.539062 15.882812 20.539062 15.882812 21.109375 15.863281 Z M 21.109375 15.863281 "/>
<path style=" stroke:none;fill-rule:nonzero;fill:rgb(100%,94.509804%,94.509804%);fill-opacity:1;" d="M 11.359375 10.308594 C 11.828125 10.386719 12.128906 10.546875 12.53125 10.796875 C 12.726562 10.914062 12.726562 10.914062 12.921875 11.035156 C 13.25 11.25 13.25 11.25 13.5 11.5 C 13.546875 11.929688 13.546875 11.929688 13.5 12.375 C 13.296875 12.625 13.296875 12.625 13 12.75 C 12.5 12.71875 12.082031 12.574219 11.625 12.375 C 11.722656 12.453125 11.820312 12.53125 11.921875 12.609375 C 12.25 12.875 12.25 12.875 12.5 13.125 C 12.441406 13.933594 12.441406 13.933594 12.125 14.25 C 11.519531 14.316406 11.148438 14.175781 10.625 13.875 C 10.851562 14.113281 11.054688 14.285156 11.335938 14.46875 C 11.625 14.75 11.625 14.75 11.679688 15.203125 C 11.625 15.625 11.625 15.625 11.375 15.875 C 10.550781 16.035156 10.015625 15.644531 9.320312 15.226562 C 9 15 9 15 8.75 14.625 C 8.679688 14.082031 8.839844 13.769531 9.113281 13.304688 C 9.191406 13.175781 9.269531 13.042969 9.347656 12.910156 C 9.429688 12.773438 9.511719 12.640625 9.59375 12.5 C 9.671875 12.363281 9.753906 12.230469 9.832031 12.089844 C 10.832031 10.40625 10.832031 10.40625 11.359375 10.308594 Z M 11.359375 10.308594 "/>
<path style=" stroke:none;fill-rule:nonzero;fill:rgb(27.450982%,23.921569%,51.372552%);fill-opacity:1;" d="M 15.5 8.75 C 16.582031 8.738281 17.667969 8.730469 18.75 8.722656 C 19.253906 8.722656 19.757812 8.71875 20.257812 8.710938 C 20.746094 8.707031 21.230469 8.703125 21.714844 8.703125 C 21.902344 8.703125 22.085938 8.699219 22.269531 8.699219 C 22.53125 8.695312 22.789062 8.691406 23.050781 8.695312 C 23.199219 8.691406 23.34375 8.691406 23.496094 8.691406 C 23.953125 8.761719 24.101562 8.878906 24.375 9.25 C 24.441406 9.722656 24.460938 9.996094 24.191406 10.394531 C 23.730469 10.730469 23.316406 10.71875 22.757812 10.734375 C 22.644531 10.738281 22.535156 10.742188 22.421875 10.746094 C 22.0625 10.757812 21.703125 10.761719 21.34375 10.765625 C 21.222656 10.765625 21.101562 10.769531 20.976562 10.769531 C 18.804688 10.78125 17.152344 10.394531 15.5 8.875 C 15.5 8.832031 15.5 8.792969 15.5 8.75 Z M 15.5 8.75 "/>
<path style=" stroke:none;fill-rule:nonzero;fill:rgb(37.64706%,33.333334%,68.235296%);fill-opacity:1;" d="M 9 5 C 11.105469 5 13.207031 5 15.375 5 C 15.375 5.617188 15.375 6.238281 15.375 6.875 C 12.816406 7.125 11.050781 6.738281 9 5.125 C 9 5.082031 9 5.042969 9 5 Z M 9 5 "/>
<path style=" stroke:none;fill-rule:nonzero;fill:rgb(87.058824%,84.313726%,94.117647%);fill-opacity:1;" d="M 19.054688 14.695312 C 19.375 14.75 19.375 14.75 19.671875 14.953125 C 19.875 15.25 19.875 15.25 19.851562 15.59375 C 19.738281 16.046875 19.570312 16.375 19.335938 16.773438 C 19.296875 16.84375 19.253906 16.917969 19.210938 16.988281 C 19.128906 17.136719 19.039062 17.285156 18.953125 17.429688 C 18.820312 17.65625 18.6875 17.882812 18.558594 18.109375 C 17.914062 19.210938 17.914062 19.210938 17.625 19.5 C 16.878906 19.566406 16.878906 19.566406 16.5 19.367188 C 16.300781 18.976562 16.414062 18.671875 16.5 18.25 C 16.679688 17.871094 16.679688 17.871094 16.910156 17.492188 C 16.992188 17.359375 17.074219 17.222656 17.160156 17.082031 C 17.246094 16.941406 17.332031 16.800781 17.421875 16.65625 C 17.507812 16.511719 17.59375 16.367188 17.683594 16.226562 C 18.5625 14.785156 18.5625 14.785156 19.054688 14.695312 Z M 19.054688 14.695312 "/>
<path style=" stroke:none;fill-rule:nonzero;fill:rgb(87.450981%,85.490197%,94.509804%);fill-opacity:1;" d="M 17.25 13.625 C 17.414062 13.707031 17.578125 13.789062 17.75 13.875 C 17.882812 14.902344 17.429688 15.550781 16.90625 16.40625 C 16.828125 16.542969 16.746094 16.675781 16.667969 16.8125 C 15.953125 18.003906 15.953125 18.003906 15.5 18.375 C 15.03125 18.34375 15.03125 18.34375 14.625 18.25 C 14.679688 18.15625 14.730469 18.0625 14.785156 17.96875 C 15.613281 16.523438 16.429688 15.074219 17.25 13.625 Z M 17.25 13.625 "/>
<path style=" stroke:none;fill-rule:nonzero;fill:rgb(100%,94.901961%,94.901961%);fill-opacity:1;" d="M 12.25 6.875 C 13.28125 6.875 14.3125 6.875 15.375 6.875 C 15.375 7.492188 15.375 8.113281 15.375 8.75 C 15.113281 8.601562 14.855469 8.453125 14.585938 8.296875 C 13.8125 7.855469 13.035156 7.421875 12.25 7 C 12.25 6.957031 12.25 6.917969 12.25 6.875 Z M 12.25 6.875 "/>
<path style=" stroke:none;fill-rule:nonzero;fill:rgb(81.568629%,4.313726%,34.117648%);fill-opacity:1;" d="M 24.625 19.75 C 25.109375 19.984375 25.109375 19.984375 25.25 20.125 C 25.308594 20.617188 25.265625 20.84375 25.023438 21.28125 C 24.75 21.625 24.75 21.625 24.375 21.875 C 24.046875 21.84375 24.046875 21.84375 23.75 21.75 C 23.707031 21.667969 23.667969 21.585938 23.625 21.5 C 23.78125 21.195312 23.941406 20.902344 24.117188 20.609375 C 24.191406 20.484375 24.191406 20.484375 24.265625 20.359375 C 24.382812 20.15625 24.503906 19.953125 24.625 19.75 Z M 24.625 19.75 "/>
<path style=" stroke:none;fill-rule:nonzero;fill:rgb(100%,28.235295%,38.82353%);fill-opacity:1;" d="M 7.375 9.75 C 7.859375 9.984375 7.859375 9.984375 8 10.125 C 8.058594 10.617188 8.015625 10.84375 7.773438 11.28125 C 7.5 11.625 7.5 11.625 7.125 11.875 C 6.726562 11.828125 6.726562 11.828125 6.375 11.75 C 6.554688 11.277344 6.769531 10.839844 7.015625 10.398438 C 7.082031 10.277344 7.148438 10.15625 7.21875 10.027344 C 7.269531 9.9375 7.324219 9.84375 7.375 9.75 Z M 7.375 9.75 "/>
<path style=" stroke:none;fill-rule:nonzero;fill:rgb(30.588236%,24.705882%,51.764709%);fill-opacity:1;" d="M 15.375 22.5 C 15.871094 22.746094 15.871094 22.746094 16.375 23 C 16.375 23.042969 16.375 23.082031 16.375 23.125 C 16.046875 23.125 15.714844 23.125 15.375 23.125 C 15.375 22.917969 15.375 22.710938 15.375 22.5 Z M 15.375 22.5 "/>
<path style=" stroke:none;fill-rule:nonzero;fill:rgb(81.960785%,8.627451%,37.254903%);fill-opacity:1;" d="M 21.25 17.875 C 21.558594 17.9375 21.558594 17.9375 21.875 18 C 21.917969 18.164062 21.957031 18.328125 22 18.5 C 21.753906 18.375 21.503906 18.253906 21.25 18.125 C 21.25 18.042969 21.25 17.960938 21.25 17.875 Z M 21.25 17.875 "/>
</g>
</svg>
