<?xml version="1.0" encoding="UTF-8"?>
<svg xmlns="http://www.w3.org/2000/svg" xmlns:xlink="http://www.w3.org/1999/xlink" width="32" height="32" viewBox="0 0 32 32" version="1.1">
<g id="surface1">
<path style=" stroke:none;fill-rule:nonzero;fill:rgb(1.568628%,1.568628%,1.568628%);fill-opacity:1;" d="M 23.625 2 C 23.667969 2.207031 23.707031 2.414062 23.75 2.625 C 23.886719 2.621094 24.019531 2.621094 24.160156 2.617188 C 24.664062 2.613281 25.167969 2.609375 25.671875 2.605469 C 25.890625 2.601562 26.105469 2.601562 26.324219 2.597656 C 26.636719 2.59375 26.953125 2.589844 27.265625 2.589844 C 27.410156 2.585938 27.410156 2.585938 27.554688 2.582031 C 28.242188 2.582031 28.75 2.714844 29.375 3 C 29.984375 3.625 30.15625 4.117188 30.160156 4.980469 C 30.160156 5.066406 30.160156 5.152344 30.160156 5.242188 C 30.160156 5.527344 30.160156 5.816406 30.160156 6.105469 C 30.164062 6.3125 30.164062 6.519531 30.164062 6.726562 C 30.167969 7.285156 30.167969 7.847656 30.167969 8.410156 C 30.167969 8.757812 30.167969 9.109375 30.167969 9.460938 C 30.171875 10.683594 30.171875 11.910156 30.171875 13.132812 C 30.171875 14.273438 30.171875 15.414062 30.175781 16.554688 C 30.179688 17.535156 30.183594 18.515625 30.183594 19.492188 C 30.183594 20.078125 30.183594 20.664062 30.183594 21.246094 C 30.1875 21.796875 30.1875 22.347656 30.1875 22.898438 C 30.1875 23.101562 30.1875 23.300781 30.1875 23.503906 C 30.203125 25.414062 30.203125 25.414062 29.625 26.25 C 28.878906 26.871094 28.128906 26.816406 27.1875 26.796875 C 27.039062 26.796875 26.890625 26.796875 26.738281 26.796875 C 26.265625 26.792969 25.792969 26.789062 25.320312 26.78125 C 25 26.777344 24.675781 26.777344 24.355469 26.773438 C 23.570312 26.769531 22.785156 26.761719 22 26.75 C 21.96875 26.835938 21.9375 26.921875 21.902344 27.007812 C 21.726562 27.429688 21.515625 27.824219 21.296875 28.226562 C 21.257812 28.300781 21.214844 28.375 21.171875 28.453125 C 21.074219 28.636719 20.976562 28.816406 20.875 29 C 20.722656 29 20.574219 29 20.417969 29 C 18.992188 29 17.566406 29.003906 16.140625 29.011719 C 15.410156 29.015625 14.675781 29.015625 13.945312 29.015625 C 13.234375 29.015625 12.527344 29.015625 11.820312 29.023438 C 11.550781 29.023438 11.28125 29.023438 11.011719 29.023438 C 10.632812 29.019531 10.257812 29.023438 9.878906 29.027344 C 9.765625 29.027344 9.65625 29.023438 9.542969 29.023438 C 8.789062 29.039062 8.34375 29.242188 7.742188 29.699219 C 7.027344 30.21875 6.101562 30.214844 5.25 30.125 C 4.050781 29.839844 3.113281 29.308594 2.453125 28.257812 C 1.878906 27.210938 1.703125 26.199219 1.949219 25.023438 C 2.28125 23.949219 2.980469 23.003906 3.96875 22.4375 C 5.042969 21.988281 6.273438 21.84375 7.375 22.25 C 7.539062 22.375 7.703125 22.503906 7.867188 22.632812 C 8.816406 23.210938 9.902344 23.085938 10.980469 23.066406 C 11.378906 23.0625 11.777344 23.058594 12.175781 23.058594 C 13.3125 23.054688 14.449219 23.042969 15.582031 23.027344 C 16.277344 23.019531 16.972656 23.015625 17.671875 23.015625 C 17.933594 23.015625 18.199219 23.011719 18.464844 23.007812 C 20.519531 22.960938 20.519531 22.960938 21.066406 23.347656 C 21.269531 23.644531 21.386719 23.910156 21.5 24.25 C 21.597656 24.441406 21.695312 24.632812 21.796875 24.820312 C 21.898438 25.03125 21.898438 25.03125 22 25.25 C 22.902344 25.261719 23.804688 25.265625 24.710938 25.269531 C 25.015625 25.273438 25.324219 25.273438 25.632812 25.277344 C 26.074219 25.28125 26.515625 25.285156 26.957031 25.285156 C 27.09375 25.289062 27.234375 25.289062 27.375 25.292969 C 27.566406 25.292969 27.566406 25.292969 27.761719 25.292969 C 27.875 25.292969 27.984375 25.292969 28.101562 25.296875 C 28.191406 25.28125 28.28125 25.265625 28.375 25.25 C 28.675781 24.800781 28.65625 24.597656 28.65625 24.0625 C 28.65625 23.980469 28.65625 23.898438 28.65625 23.8125 C 28.660156 23.535156 28.660156 23.257812 28.65625 22.980469 C 28.65625 22.78125 28.660156 22.582031 28.660156 22.382812 C 28.660156 21.839844 28.660156 21.300781 28.660156 20.761719 C 28.65625 20.195312 28.660156 19.628906 28.660156 19.0625 C 28.660156 18.113281 28.660156 17.164062 28.65625 16.214844 C 28.65625 15.117188 28.65625 14.019531 28.65625 12.921875 C 28.660156 11.976562 28.660156 11.035156 28.660156 10.09375 C 28.660156 9.53125 28.660156 8.964844 28.660156 8.402344 C 28.660156 7.875 28.660156 7.34375 28.65625 6.816406 C 28.65625 6.621094 28.65625 6.425781 28.660156 6.230469 C 28.660156 5.964844 28.65625 5.703125 28.65625 5.4375 C 28.65625 5.289062 28.65625 5.140625 28.65625 4.984375 C 28.652344 4.601562 28.652344 4.601562 28.375 4.25 C 28.019531 4.207031 27.695312 4.1875 27.339844 4.1875 C 27.234375 4.183594 27.132812 4.179688 27.027344 4.179688 C 26.703125 4.171875 26.375 4.167969 26.046875 4.164062 C 25.824219 4.160156 25.605469 4.15625 25.382812 4.152344 C 24.835938 4.140625 24.292969 4.132812 23.75 4.125 C 23.667969 4.371094 23.585938 4.621094 23.5 4.875 C 22.84375 4.8125 22.351562 4.65625 21.765625 4.351562 C 21.625 4.28125 21.484375 4.207031 21.335938 4.136719 C 21 3.875 21 3.875 20.890625 3.46875 C 20.886719 3.355469 20.878906 3.242188 20.875 3.125 C 21.277344 2.765625 21.714844 2.484375 22.179688 2.210938 C 22.292969 2.144531 22.40625 2.078125 22.523438 2.007812 C 22.945312 1.847656 23.191406 1.890625 23.625 2 Z M 23.625 2 "/>
<path style=" stroke:none;fill-rule:nonzero;fill:rgb(97.254902%,74.117649%,29.019609%);fill-opacity:1;" d="M 8.5 14 C 8.5625 14.0625 8.5625 14.0625 8.625 14.125 C 8.996094 14.136719 9.367188 14.136719 9.738281 14.132812 C 9.984375 14.132812 10.226562 14.128906 10.46875 14.128906 C 10.597656 14.128906 10.726562 14.128906 10.859375 14.128906 C 11.542969 14.125 12.226562 14.125 12.910156 14.125 C 13.78125 14.125 14.648438 14.125 15.519531 14.117188 C 16.222656 14.113281 16.921875 14.113281 17.625 14.117188 C 17.894531 14.117188 18.160156 14.113281 18.429688 14.109375 C 18.804688 14.109375 19.179688 14.109375 19.554688 14.113281 C 19.664062 14.109375 19.773438 14.105469 19.890625 14.105469 C 20.210938 14.109375 20.449219 14.128906 20.75 14.25 C 21.074219 14.589844 21.285156 14.960938 21.5 15.375 C 21.589844 15.523438 21.679688 15.671875 21.769531 15.820312 C 21.84375 15.949219 21.917969 16.082031 21.992188 16.21875 C 22.066406 16.351562 22.144531 16.484375 22.222656 16.621094 C 22.398438 17.054688 22.375 17.183594 22.25 17.625 C 22.109375 17.925781 22.109375 17.925781 21.9375 18.234375 C 21.875 18.34375 21.8125 18.453125 21.75 18.570312 C 21.652344 18.738281 21.652344 18.738281 21.554688 18.914062 C 21.457031 19.089844 21.457031 19.089844 21.359375 19.265625 C 21.199219 19.554688 21.035156 19.839844 20.875 20.125 C 20.722656 20.125 20.574219 20.125 20.417969 20.125 C 18.992188 20.125 17.566406 20.128906 16.140625 20.136719 C 15.410156 20.140625 14.675781 20.140625 13.945312 20.140625 C 13.234375 20.140625 12.527344 20.140625 11.820312 20.148438 C 11.550781 20.148438 11.28125 20.148438 11.011719 20.148438 C 10.632812 20.144531 10.257812 20.148438 9.878906 20.152344 C 9.765625 20.152344 9.65625 20.148438 9.542969 20.148438 C 8.789062 20.164062 8.347656 20.363281 7.75 20.824219 C 7.046875 21.324219 6.082031 21.347656 5.25 21.25 C 4.050781 20.957031 3.117188 20.4375 2.453125 19.382812 C 1.882812 18.335938 1.691406 17.3125 1.957031 16.140625 C 2.222656 15.3125 2.613281 14.71875 3.25 14.125 C 3.316406 14.0625 3.382812 14 3.449219 13.9375 C 5.003906 12.660156 6.917969 13.070312 8.5 14 Z M 8.5 14 "/>
<path style=" stroke:none;fill-rule:nonzero;fill:rgb(92.156863%,39.607844%,38.039216%);fill-opacity:1;" d="M 7.59375 4.675781 C 8.609375 5.46875 9.757812 5.339844 10.980469 5.320312 C 11.378906 5.3125 11.777344 5.308594 12.179688 5.308594 C 13.3125 5.304688 14.445312 5.292969 15.582031 5.277344 C 16.277344 5.269531 16.972656 5.265625 17.667969 5.265625 C 17.933594 5.265625 18.199219 5.261719 18.464844 5.257812 C 20.53125 5.210938 20.53125 5.210938 21.074219 5.617188 C 21.269531 5.910156 21.386719 6.167969 21.5 6.5 C 21.585938 6.648438 21.675781 6.796875 21.769531 6.945312 C 21.84375 7.074219 21.917969 7.207031 21.992188 7.34375 C 22.066406 7.476562 22.144531 7.609375 22.222656 7.75 C 22.398438 8.179688 22.371094 8.3125 22.25 8.75 C 22.109375 9.050781 22.109375 9.050781 21.9375 9.355469 C 21.875 9.46875 21.8125 9.578125 21.75 9.695312 C 21.652344 9.863281 21.652344 9.863281 21.554688 10.039062 C 21.457031 10.214844 21.457031 10.214844 21.359375 10.390625 C 21.199219 10.679688 21.035156 10.964844 20.875 11.25 C 20.722656 11.25 20.574219 11.25 20.417969 11.25 C 18.992188 11.25 17.566406 11.253906 16.140625 11.261719 C 15.410156 11.261719 14.675781 11.265625 13.945312 11.265625 C 13.234375 11.261719 12.527344 11.265625 11.820312 11.273438 C 11.550781 11.273438 11.28125 11.273438 11.011719 11.273438 C 10.632812 11.269531 10.253906 11.273438 9.875 11.277344 C 9.765625 11.277344 9.65625 11.273438 9.542969 11.273438 C 8.789062 11.289062 8.347656 11.488281 7.75 11.949219 C 7.042969 12.449219 6.082031 12.472656 5.25 12.375 C 4.050781 12.082031 3.117188 11.5625 2.453125 10.507812 C 1.878906 9.460938 1.691406 8.4375 1.957031 7.265625 C 2.332031 6.105469 3.0625 5.230469 4.125 4.625 C 5.101562 4.21875 6.695312 3.960938 7.59375 4.675781 Z M 7.59375 4.675781 "/>
<path style=" stroke:none;fill-rule:nonzero;fill:rgb(90.588236%,90.588236%,90.588236%);fill-opacity:1;" d="M 9.125 23.625 C 10.585938 23.578125 12.046875 23.539062 13.511719 23.515625 C 14.1875 23.503906 14.867188 23.488281 15.546875 23.464844 C 16.203125 23.441406 16.855469 23.429688 17.511719 23.421875 C 17.761719 23.421875 18.011719 23.410156 18.261719 23.398438 C 20.144531 23.316406 20.144531 23.316406 20.734375 23.828125 C 21.300781 24.511719 21.757812 25.296875 21.742188 26.195312 C 21.507812 27.050781 21.207031 27.917969 20.5 28.5 C 19.6875 28.828125 18.757812 28.71875 17.902344 28.683594 C 17.648438 28.679688 17.394531 28.675781 17.140625 28.675781 C 16.476562 28.667969 15.8125 28.648438 15.148438 28.628906 C 14.472656 28.609375 13.792969 28.601562 13.113281 28.589844 C 11.785156 28.570312 10.453125 28.539062 9.125 28.5 C 9.167969 28.382812 9.214844 28.265625 9.257812 28.144531 C 9.316406 27.988281 9.375 27.832031 9.433594 27.671875 C 9.488281 27.519531 9.546875 27.367188 9.605469 27.207031 C 9.976562 26.03125 9.765625 25.089844 9.25 24 C 9.207031 23.875 9.167969 23.753906 9.125 23.625 Z M 9.125 23.625 "/>
<path style=" stroke:none;fill-rule:nonzero;fill:rgb(90.588236%,90.588236%,90.588236%);fill-opacity:1;" d="M 9.125 14.75 C 10.585938 14.703125 12.046875 14.664062 13.511719 14.640625 C 14.1875 14.628906 14.867188 14.613281 15.546875 14.589844 C 16.203125 14.566406 16.855469 14.554688 17.511719 14.546875 C 17.761719 14.546875 18.011719 14.535156 18.261719 14.523438 C 20.144531 14.441406 20.144531 14.441406 20.734375 14.953125 C 21.300781 15.636719 21.757812 16.421875 21.742188 17.320312 C 21.507812 18.175781 21.207031 19.042969 20.5 19.625 C 19.6875 19.953125 18.757812 19.84375 17.902344 19.808594 C 17.648438 19.804688 17.394531 19.800781 17.140625 19.800781 C 16.476562 19.792969 15.8125 19.773438 15.148438 19.753906 C 14.472656 19.734375 13.792969 19.726562 13.113281 19.714844 C 11.785156 19.695312 10.453125 19.664062 9.125 19.625 C 9.167969 19.507812 9.214844 19.390625 9.257812 19.269531 C 9.316406 19.113281 9.375 18.957031 9.433594 18.796875 C 9.488281 18.644531 9.546875 18.492188 9.605469 18.332031 C 9.976562 17.15625 9.765625 16.214844 9.25 15.125 C 9.207031 15 9.167969 14.878906 9.125 14.75 Z M 9.125 14.75 "/>
<path style=" stroke:none;fill-rule:nonzero;fill:rgb(90.588236%,90.588236%,90.588236%);fill-opacity:1;" d="M 9.125 5.875 C 10.585938 5.828125 12.046875 5.789062 13.511719 5.765625 C 14.1875 5.753906 14.867188 5.738281 15.546875 5.714844 C 16.203125 5.691406 16.855469 5.679688 17.511719 5.671875 C 17.761719 5.671875 18.011719 5.660156 18.261719 5.648438 C 20.144531 5.566406 20.144531 5.566406 20.734375 6.078125 C 21.300781 6.761719 21.757812 7.546875 21.742188 8.445312 C 21.507812 9.300781 21.207031 10.167969 20.5 10.75 C 19.6875 11.078125 18.757812 10.96875 17.902344 10.933594 C 17.648438 10.929688 17.394531 10.925781 17.140625 10.925781 C 16.476562 10.917969 15.8125 10.898438 15.148438 10.878906 C 14.472656 10.859375 13.792969 10.851562 13.113281 10.839844 C 11.785156 10.820312 10.453125 10.789062 9.125 10.75 C 9.167969 10.632812 9.214844 10.515625 9.257812 10.394531 C 9.316406 10.238281 9.375 10.082031 9.433594 9.921875 C 9.488281 9.769531 9.546875 9.617188 9.605469 9.457031 C 9.976562 8.28125 9.765625 7.339844 9.25 6.25 C 9.207031 6.125 9.167969 6.003906 9.125 5.875 Z M 9.125 5.875 "/>
<path style=" stroke:none;fill-rule:nonzero;fill:rgb(55.686277%,78.039217%,39.215687%);fill-opacity:1;" d="M 7.53125 22.863281 C 8.453125 23.4375 9.136719 24.199219 9.453125 25.253906 C 9.671875 26.367188 9.324219 27.421875 8.71875 28.359375 C 8.210938 29.011719 7.425781 29.457031 6.625 29.625 C 5.457031 29.769531 4.601562 29.527344 3.625 28.875 C 3.3125 28.613281 3.089844 28.34375 2.875 28 C 2.824219 27.917969 2.773438 27.835938 2.71875 27.75 C 2.296875 26.953125 2.25 26.140625 2.375 25.25 C 2.703125 24.207031 3.390625 23.394531 4.3125 22.820312 C 5.234375 22.402344 6.609375 22.433594 7.53125 22.863281 Z M 7.53125 22.863281 "/>
<path style=" stroke:none;fill-rule:nonzero;fill:rgb(3.137255%,3.137255%,2.352941%);fill-opacity:1;" d="M 8.5 14 C 8.5625 14.0625 8.5625 14.0625 8.625 14.125 C 8.996094 14.136719 9.367188 14.136719 9.738281 14.132812 C 9.984375 14.132812 10.226562 14.128906 10.46875 14.128906 C 10.597656 14.128906 10.726562 14.128906 10.859375 14.128906 C 11.542969 14.125 12.226562 14.125 12.910156 14.125 C 13.78125 14.125 14.648438 14.125 15.519531 14.117188 C 16.222656 14.113281 16.921875 14.113281 17.625 14.117188 C 17.894531 14.117188 18.160156 14.113281 18.429688 14.109375 C 18.804688 14.109375 19.179688 14.109375 19.554688 14.113281 C 19.664062 14.109375 19.773438 14.105469 19.890625 14.105469 C 20.210938 14.109375 20.449219 14.128906 20.75 14.25 C 21.074219 14.589844 21.285156 14.960938 21.5 15.375 C 21.589844 15.523438 21.679688 15.671875 21.769531 15.820312 C 21.84375 15.949219 21.917969 16.082031 21.992188 16.21875 C 22.066406 16.351562 22.144531 16.484375 22.222656 16.621094 C 22.398438 17.054688 22.375 17.183594 22.25 17.625 C 22.109375 17.925781 22.109375 17.925781 21.9375 18.234375 C 21.875 18.34375 21.8125 18.453125 21.75 18.570312 C 21.652344 18.738281 21.652344 18.738281 21.554688 18.914062 C 21.457031 19.089844 21.457031 19.089844 21.359375 19.265625 C 21.199219 19.554688 21.035156 19.839844 20.875 20.125 C 20.722656 20.125 20.574219 20.125 20.417969 20.125 C 18.992188 20.125 17.566406 20.128906 16.140625 20.136719 C 15.410156 20.140625 14.675781 20.140625 13.945312 20.140625 C 13.234375 20.140625 12.527344 20.140625 11.820312 20.148438 C 11.550781 20.148438 11.28125 20.148438 11.011719 20.148438 C 10.632812 20.144531 10.257812 20.148438 9.878906 20.152344 C 9.765625 20.152344 9.65625 20.148438 9.542969 20.148438 C 8.789062 20.164062 8.347656 20.363281 7.75 20.824219 C 7.046875 21.324219 6.082031 21.347656 5.25 21.25 C 4.050781 20.957031 3.117188 20.4375 2.453125 19.382812 C 1.882812 18.335938 1.691406 17.3125 1.957031 16.140625 C 2.222656 15.3125 2.613281 14.71875 3.25 14.125 C 3.316406 14.0625 3.382812 14 3.449219 13.9375 C 5.003906 12.660156 6.917969 13.070312 8.5 14 Z M 3.875 14.25 C 3.796875 14.3125 3.722656 14.371094 3.644531 14.433594 C 2.9375 15.070312 2.46875 15.820312 2.308594 16.765625 C 2.25 17.914062 2.585938 18.859375 3.328125 19.742188 C 4 20.367188 4.820312 20.769531 5.742188 20.804688 C 6.800781 20.753906 7.632812 20.484375 8.40625 19.746094 C 9.257812 18.792969 9.453125 17.890625 9.425781 16.636719 C 9.367188 15.707031 8.855469 15.058594 8.1875 14.445312 C 7.484375 13.867188 6.84375 13.683594 5.953125 13.695312 C 5.859375 13.695312 5.765625 13.699219 5.667969 13.699219 C 4.96875 13.71875 4.429688 13.800781 3.875 14.25 Z M 9.125 14.75 C 9.265625 15.113281 9.417969 15.464844 9.578125 15.820312 C 10.015625 17.019531 9.734375 18.117188 9.25 19.25 C 9.207031 19.375 9.167969 19.496094 9.125 19.625 C 10.585938 19.671875 12.046875 19.710938 13.511719 19.734375 C 14.1875 19.746094 14.867188 19.761719 15.546875 19.785156 C 16.203125 19.808594 16.855469 19.820312 17.511719 19.828125 C 17.761719 19.828125 18.011719 19.839844 18.261719 19.851562 C 19.582031 19.949219 19.582031 19.949219 20.734375 19.417969 C 21.253906 18.765625 21.65625 18.011719 21.808594 17.1875 C 21.640625 16.289062 21.183594 15.363281 20.5 14.75 C 19.691406 14.386719 18.753906 14.503906 17.890625 14.542969 C 17.636719 14.546875 17.382812 14.550781 17.128906 14.550781 C 16.464844 14.558594 15.804688 14.578125 15.140625 14.605469 C 14.464844 14.625 13.785156 14.636719 13.109375 14.644531 C 11.78125 14.667969 10.453125 14.703125 9.125 14.75 Z M 9.125 14.75 "/>
<path style=" stroke:none;fill-rule:nonzero;fill:rgb(3.137255%,2.745098%,2.352941%);fill-opacity:1;" d="M 7.59375 4.675781 C 8.609375 5.46875 9.757812 5.339844 10.980469 5.320312 C 11.378906 5.3125 11.777344 5.308594 12.179688 5.308594 C 13.3125 5.304688 14.445312 5.292969 15.582031 5.277344 C 16.277344 5.269531 16.972656 5.265625 17.667969 5.265625 C 17.933594 5.265625 18.199219 5.261719 18.464844 5.257812 C 20.53125 5.210938 20.53125 5.210938 21.074219 5.617188 C 21.269531 5.910156 21.386719 6.167969 21.5 6.5 C 21.585938 6.648438 21.675781 6.796875 21.769531 6.945312 C 21.84375 7.074219 21.917969 7.207031 21.992188 7.34375 C 22.066406 7.476562 22.144531 7.609375 22.222656 7.75 C 22.398438 8.179688 22.371094 8.3125 22.25 8.75 C 22.109375 9.050781 22.109375 9.050781 21.9375 9.355469 C 21.875 9.46875 21.8125 9.578125 21.75 9.695312 C 21.652344 9.863281 21.652344 9.863281 21.554688 10.039062 C 21.457031 10.214844 21.457031 10.214844 21.359375 10.390625 C 21.199219 10.679688 21.035156 10.964844 20.875 11.25 C 20.722656 11.25 20.574219 11.25 20.417969 11.25 C 18.992188 11.25 17.566406 11.253906 16.140625 11.261719 C 15.410156 11.261719 14.675781 11.265625 13.945312 11.265625 C 13.234375 11.261719 12.527344 11.265625 11.820312 11.273438 C 11.550781 11.273438 11.28125 11.273438 11.011719 11.273438 C 10.632812 11.269531 10.253906 11.273438 9.875 11.277344 C 9.765625 11.277344 9.65625 11.273438 9.542969 11.273438 C 8.789062 11.289062 8.347656 11.488281 7.75 11.949219 C 7.042969 12.449219 6.082031 12.472656 5.25 12.375 C 4.050781 12.082031 3.117188 11.5625 2.453125 10.507812 C 1.878906 9.460938 1.691406 8.4375 1.957031 7.265625 C 2.332031 6.105469 3.0625 5.230469 4.125 4.625 C 5.101562 4.21875 6.695312 3.960938 7.59375 4.675781 Z M 3.25 6 C 3.117188 6.148438 3.117188 6.148438 2.984375 6.296875 C 2.339844 7.195312 2.222656 8.03125 2.375 9.125 C 2.777344 10.328125 3.410156 11.089844 4.523438 11.671875 C 5.394531 12.023438 6.34375 12.027344 7.21875 11.679688 C 8.128906 11.207031 8.84375 10.570312 9.269531 9.625 C 9.539062 8.675781 9.578125 7.515625 9.125 6.617188 C 8.597656 5.832031 7.875 5.230469 7 4.875 C 6.648438 4.820312 6.308594 4.816406 5.953125 4.820312 C 5.8125 4.820312 5.8125 4.820312 5.667969 4.824219 C 4.605469 4.855469 3.964844 5.1875 3.25 6 Z M 9.125 5.875 C 9.269531 6.238281 9.417969 6.589844 9.578125 6.945312 C 10.019531 8.144531 9.734375 9.242188 9.25 10.375 C 9.210938 10.5 9.167969 10.621094 9.125 10.75 C 10.585938 10.800781 12.046875 10.835938 13.507812 10.859375 C 14.1875 10.871094 14.867188 10.886719 15.546875 10.910156 C 16.203125 10.933594 16.855469 10.945312 17.511719 10.949219 C 17.761719 10.957031 18.011719 10.964844 18.261719 10.976562 C 19.582031 11.074219 19.582031 11.074219 20.734375 10.542969 C 21.253906 9.890625 21.65625 9.136719 21.808594 8.3125 C 21.640625 7.414062 21.183594 6.488281 20.5 5.875 C 19.691406 5.511719 18.75 5.628906 17.890625 5.667969 C 17.636719 5.671875 17.382812 5.675781 17.128906 5.675781 C 16.464844 5.683594 15.804688 5.707031 15.140625 5.730469 C 14.464844 5.75 13.785156 5.761719 13.109375 5.769531 C 11.777344 5.792969 10.453125 5.828125 9.125 5.875 Z M 9.125 5.875 "/>
<path style=" stroke:none;fill-rule:nonzero;fill:rgb(60.000002%,80.000001%,45.09804%);fill-opacity:1;" d="M 7.375 22.875 C 7.382812 23.179688 7.386719 23.484375 7.390625 23.789062 C 7.390625 23.875 7.394531 23.960938 7.398438 24.050781 C 7.402344 24.519531 7.390625 24.722656 7.125 25.125 C 7.09375 25.003906 7.0625 24.882812 7.03125 24.757812 C 6.921875 24.371094 6.921875 24.371094 6.671875 24.265625 C 6.574219 24.261719 6.476562 24.253906 6.375 24.25 C 6.210938 24.238281 6.050781 24.222656 5.882812 24.210938 C 5.476562 24.214844 5.367188 24.253906 5 24.476562 C 4.707031 24.734375 4.707031 24.734375 4.75 25.125 C 4.914062 25.167969 5.078125 25.207031 5.25 25.25 C 5.332031 25.042969 5.414062 24.835938 5.5 24.625 C 5.796875 24.609375 5.796875 24.609375 6.125 24.625 C 6.207031 24.707031 6.289062 24.789062 6.375 24.875 C 6.328125 25.203125 6.328125 25.203125 6.25 25.5 C 5.53125 25.75 5.53125 25.75 5.25 25.75 C 5.292969 25.875 5.332031 25.996094 5.375 26.125 C 5.515625 26.140625 5.652344 26.15625 5.796875 26.171875 C 6.25 26.25 6.25 26.25 6.5 26.5 C 6.53125 26.875 6.53125 26.875 6.5 27.25 C 6.25 27.5 6.25 27.5 5.890625 27.5625 C 5.5 27.5 5.5 27.5 5.21875 27.125 C 5.144531 27 5.074219 26.878906 5 26.75 C 4.917969 26.75 4.835938 26.75 4.75 26.75 C 4.707031 26.996094 4.667969 27.246094 4.625 27.5 C 4.042969 27.695312 3.433594 27.648438 2.828125 27.601562 C 2.625 27.5 2.625 27.5 2.492188 27.230469 C 2.207031 26.359375 2.246094 25.40625 2.632812 24.578125 C 3.09375 23.785156 3.714844 23.09375 4.5625 22.707031 C 5.453125 22.476562 6.539062 22.476562 7.375 22.875 Z M 7.375 22.875 "/>
<path style=" stroke:none;fill-rule:nonzero;fill:rgb(94.117647%,45.882353%,44.313726%);fill-opacity:1;" d="M 5.9375 4.851562 C 6.082031 4.847656 6.082031 4.847656 6.230469 4.847656 C 6.71875 4.84375 6.960938 4.847656 7.375 5.125 C 7.53125 6.167969 7.421875 7.210938 6.875 8.125 C 6.75 8.1875 6.75 8.1875 6.625 8.25 C 6.582031 7.714844 6.542969 7.179688 6.5 6.625 C 6.335938 6.585938 6.171875 6.542969 6 6.5 C 5.929688 6.59375 5.859375 6.691406 5.789062 6.789062 C 5.503906 7.121094 5.265625 7.304688 4.875 7.5 C 4.792969 7.5 4.710938 7.5 4.625 7.5 C 4.667969 7.625 4.707031 7.746094 4.75 7.875 C 5.09375 7.808594 5.417969 7.738281 5.75 7.625 C 5.75 8.160156 5.75 8.699219 5.75 9.25 C 4.792969 9.730469 4.003906 9.898438 2.9375 9.859375 C 2.625 9.75 2.625 9.75 2.484375 9.480469 C 2.210938 8.59375 2.25 7.648438 2.648438 6.8125 C 3.410156 5.488281 4.4375 4.851562 5.9375 4.851562 Z M 5.9375 4.851562 "/>
<path style=" stroke:none;fill-rule:nonzero;fill:rgb(97.254902%,76.47059%,36.078432%);fill-opacity:1;" d="M 7 13.75 C 7.125 13.832031 7.246094 13.914062 7.375 14 C 7.402344 14.328125 7.410156 14.625 7.398438 14.953125 C 7.394531 15.085938 7.394531 15.085938 7.394531 15.222656 C 7.390625 15.4375 7.382812 15.65625 7.375 15.875 C 7 15.875 7 15.875 6.804688 15.695312 C 6.746094 15.632812 6.6875 15.566406 6.625 15.5 C 6.222656 15.296875 5.808594 15.316406 5.375 15.375 C 4.996094 15.558594 4.996094 15.558594 4.75 15.875 C 4.640625 16.265625 4.640625 16.265625 4.625 16.625 C 4.789062 16.625 4.953125 16.625 5.125 16.625 C 5.160156 16.527344 5.199219 16.429688 5.234375 16.328125 C 5.375 16 5.375 16 5.625 15.75 C 6.039062 15.792969 6.203125 15.828125 6.5 16.125 C 6.503906 16.511719 6.460938 16.769531 6.214844 17.074219 C 6.003906 17.277344 5.785156 17.46875 5.5625 17.65625 C 5.023438 18.082031 5.023438 18.082031 4.625 18.625 C 4.03125 18.855469 3.21875 18.84375 2.625 18.625 C 2.21875 17.832031 2.222656 16.859375 2.484375 16.023438 C 2.816406 15.304688 3.257812 14.742188 3.875 14.25 C 3.941406 14.195312 4.011719 14.140625 4.078125 14.085938 C 4.914062 13.546875 6.046875 13.664062 7 13.75 Z M 7 13.75 "/>
<path style=" stroke:none;fill-rule:nonzero;fill:rgb(21.960784%,25.098041%,26.274511%);fill-opacity:1;" d="M 23.625 3.125 C 24.304688 3.113281 24.984375 3.105469 25.667969 3.097656 C 25.898438 3.09375 26.128906 3.089844 26.359375 3.085938 C 26.695312 3.082031 27.027344 3.078125 27.359375 3.078125 C 27.460938 3.074219 27.566406 3.070312 27.671875 3.070312 C 28.339844 3.066406 28.730469 3.167969 29.25 3.625 C 29.621094 4.128906 29.671875 4.492188 29.671875 5.113281 C 29.671875 5.238281 29.671875 5.238281 29.675781 5.371094 C 29.675781 5.65625 29.675781 5.941406 29.671875 6.226562 C 29.671875 6.429688 29.675781 6.636719 29.675781 6.839844 C 29.675781 7.394531 29.675781 7.949219 29.675781 8.503906 C 29.675781 9.085938 29.675781 9.667969 29.675781 10.246094 C 29.675781 11.222656 29.675781 12.199219 29.671875 13.175781 C 29.671875 14.300781 29.671875 15.429688 29.675781 16.558594 C 29.675781 17.527344 29.675781 18.496094 29.675781 19.464844 C 29.675781 20.042969 29.675781 20.621094 29.675781 21.199219 C 29.675781 21.742188 29.675781 22.285156 29.671875 22.828125 C 29.671875 23.03125 29.671875 23.230469 29.675781 23.429688 C 29.675781 23.703125 29.675781 23.972656 29.671875 24.246094 C 29.671875 24.398438 29.671875 24.550781 29.671875 24.707031 C 29.609375 25.28125 29.425781 25.707031 29.003906 26.109375 C 28.402344 26.332031 27.808594 26.296875 27.171875 26.285156 C 27.027344 26.285156 26.890625 26.285156 26.742188 26.285156 C 26.296875 26.28125 25.847656 26.277344 25.398438 26.273438 C 25.09375 26.269531 24.789062 26.269531 24.484375 26.269531 C 23.738281 26.265625 22.996094 26.257812 22.25 26.25 C 22.25 26.125 22.25 26.003906 22.25 25.875 C 22.324219 25.875 22.402344 25.871094 22.480469 25.871094 C 23.265625 25.859375 24.050781 25.847656 24.839844 25.835938 C 25.132812 25.828125 25.425781 25.828125 25.71875 25.824219 C 26.140625 25.816406 26.5625 25.808594 26.984375 25.800781 C 27.117188 25.800781 27.25 25.796875 27.386719 25.796875 C 27.570312 25.792969 27.570312 25.792969 27.757812 25.789062 C 27.917969 25.789062 27.917969 25.789062 28.082031 25.785156 C 28.40625 25.746094 28.605469 25.683594 28.875 25.5 C 29.164062 25.0625 29.15625 24.675781 29.160156 24.160156 C 29.160156 24.078125 29.160156 23.992188 29.160156 23.90625 C 29.164062 23.625 29.164062 23.339844 29.164062 23.058594 C 29.164062 22.859375 29.164062 22.65625 29.167969 22.453125 C 29.167969 21.902344 29.171875 21.355469 29.171875 20.804688 C 29.171875 20.460938 29.171875 20.117188 29.171875 19.777344 C 29.175781 18.578125 29.175781 17.382812 29.179688 16.183594 C 29.179688 15.070312 29.183594 13.953125 29.1875 12.835938 C 29.191406 11.878906 29.195312 10.921875 29.195312 9.960938 C 29.195312 9.390625 29.195312 8.816406 29.199219 8.246094 C 29.203125 7.707031 29.203125 7.167969 29.199219 6.632812 C 29.199219 6.433594 29.203125 6.234375 29.203125 6.039062 C 29.203125 5.769531 29.203125 5.5 29.203125 5.230469 C 29.203125 5.003906 29.203125 5.003906 29.203125 4.773438 C 29.101562 4.261719 28.898438 4.074219 28.5 3.75 C 28.242188 3.65625 28.242188 3.65625 27.980469 3.667969 C 27.882812 3.664062 27.785156 3.664062 27.6875 3.660156 C 27.582031 3.660156 27.480469 3.660156 27.371094 3.660156 C 27.265625 3.660156 27.15625 3.65625 27.046875 3.65625 C 26.707031 3.648438 26.363281 3.648438 26.023438 3.648438 C 25.792969 3.644531 25.558594 3.640625 25.328125 3.640625 C 24.761719 3.632812 24.191406 3.628906 23.625 3.625 C 23.625 3.460938 23.625 3.296875 23.625 3.125 Z M 23.625 3.125 "/>
<path style=" stroke:none;fill-rule:nonzero;fill:rgb(50.588238%,74.901962%,32.156864%);fill-opacity:1;" d="M 8.5 23.75 C 9.195312 24.296875 9.453125 25.140625 9.5625 25.992188 C 9.503906 26.96875 9.066406 28.050781 8.375 28.75 C 7.5 29.429688 6.640625 29.695312 5.53125 29.683594 C 4.824219 29.582031 4.21875 29.265625 3.625 28.875 C 3.582031 28.792969 3.542969 28.710938 3.5 28.625 C 3.609375 28.644531 3.714844 28.664062 3.824219 28.683594 C 5.027344 28.867188 6.160156 28.890625 7.167969 28.164062 C 7.933594 27.527344 8.429688 26.859375 8.625 25.875 C 8.660156 25.160156 8.652344 24.453125 8.5 23.75 Z M 8.5 23.75 "/>
<path style=" stroke:none;fill-rule:nonzero;fill:rgb(97.254902%,71.372551%,21.568628%);fill-opacity:1;" d="M 8.5 14.875 C 9.054688 15.371094 9.339844 15.847656 9.433594 16.589844 C 9.4375 16.757812 9.4375 16.925781 9.4375 17.09375 C 9.4375 17.179688 9.4375 17.269531 9.433594 17.359375 C 9.398438 18.390625 9.019531 19.113281 8.328125 19.867188 C 7.769531 20.382812 7.136719 20.660156 6.375 20.75 C 6.289062 20.761719 6.203125 20.773438 6.109375 20.785156 C 5.15625 20.851562 4.425781 20.507812 3.625 20 C 3.582031 19.917969 3.542969 19.835938 3.5 19.75 C 3.585938 19.769531 3.671875 19.789062 3.761719 19.808594 C 5.058594 20.042969 6.140625 19.933594 7.242188 19.21875 C 7.984375 18.660156 8.335938 17.863281 8.625 17 C 8.664062 16.285156 8.652344 15.578125 8.5 14.875 Z M 8.5 14.875 "/>
<path style=" stroke:none;fill-rule:nonzero;fill:rgb(92.156863%,33.725491%,31.764707%);fill-opacity:1;" d="M 8.5 6 C 9.054688 6.496094 9.339844 6.972656 9.433594 7.714844 C 9.464844 8.933594 9.339844 9.847656 8.492188 10.785156 C 7.589844 11.648438 6.773438 11.964844 5.523438 11.9375 C 4.824219 11.828125 4.214844 11.511719 3.625 11.125 C 3.582031 11.042969 3.542969 10.960938 3.5 10.875 C 3.59375 10.90625 3.59375 10.90625 3.691406 10.933594 C 4.78125 11.164062 6.015625 11.15625 6.984375 10.578125 C 7.765625 9.984375 8.382812 9.210938 8.625 8.25 C 8.6875 7.484375 8.671875 6.75 8.5 6 Z M 8.5 6 "/>
<path style=" stroke:none;fill-rule:nonzero;fill:rgb(0%,0.392157%,0.392157%);fill-opacity:1;" d="M 23.359375 15.742188 C 24.09375 15.871094 24.792969 16.300781 25.375 16.75 C 25.542969 17.09375 25.542969 17.09375 25.625 17.375 C 25.234375 17.804688 24.828125 18.074219 24.320312 18.351562 C 24.183594 18.429688 24.042969 18.507812 23.898438 18.589844 C 23.472656 18.761719 23.300781 18.777344 22.875 18.625 C 22.585938 18.335938 22.726562 17.644531 22.726562 17.257812 C 22.726562 17.140625 22.722656 17.023438 22.722656 16.90625 C 22.722656 16.792969 22.722656 16.683594 22.71875 16.566406 C 22.71875 16.414062 22.71875 16.414062 22.71875 16.257812 C 22.773438 15.816406 22.933594 15.75 23.359375 15.742188 Z M 23.359375 15.742188 "/>
<path style=" stroke:none;fill-rule:nonzero;fill:rgb(0%,0.392157%,0.392157%);fill-opacity:1;" d="M 23.359375 6.867188 C 24.09375 6.996094 24.792969 7.425781 25.375 7.875 C 25.542969 8.21875 25.542969 8.21875 25.625 8.5 C 25.234375 8.929688 24.828125 9.199219 24.320312 9.476562 C 24.183594 9.554688 24.042969 9.632812 23.898438 9.714844 C 23.472656 9.886719 23.300781 9.902344 22.875 9.75 C 22.585938 9.460938 22.726562 8.769531 22.726562 8.382812 C 22.726562 8.265625 22.722656 8.148438 22.722656 8.03125 C 22.722656 7.917969 22.722656 7.808594 22.71875 7.691406 C 22.71875 7.539062 22.71875 7.539062 22.71875 7.382812 C 22.773438 6.941406 22.933594 6.875 23.359375 6.867188 Z M 23.359375 6.867188 "/>
<path style=" stroke:none;fill-rule:nonzero;fill:rgb(5.098039%,3.921569%,1.568628%);fill-opacity:1;" d="M 6.375 15.25 C 6.824219 15.453125 6.972656 15.585938 7.25 16 C 7.265625 16.753906 6.976562 17.125 6.484375 17.648438 C 6.210938 17.914062 5.929688 18.152344 5.625 18.375 C 6.121094 18.417969 6.613281 18.457031 7.125 18.5 C 7.167969 18.664062 7.207031 18.828125 7.25 19 C 7.125 19.125 7.125 19.125 6.882812 19.140625 C 6.777344 19.140625 6.671875 19.136719 6.566406 19.136719 C 6.453125 19.136719 6.339844 19.136719 6.226562 19.136719 C 6.109375 19.136719 5.988281 19.132812 5.867188 19.132812 C 5.75 19.132812 5.628906 19.132812 5.507812 19.132812 C 5.214844 19.128906 4.917969 19.128906 4.625 19.125 C 4.570312 18.453125 4.570312 18.453125 4.820312 18.101562 C 4.910156 18.019531 4.996094 17.941406 5.085938 17.859375 C 5.175781 17.773438 5.265625 17.6875 5.359375 17.601562 C 5.625 17.375 5.625 17.375 5.992188 17.109375 C 6.285156 16.886719 6.285156 16.886719 6.367188 16.484375 C 6.371094 16.367188 6.371094 16.246094 6.375 16.125 C 6.292969 16.042969 6.210938 15.960938 6.125 15.875 C 5.8125 15.867188 5.8125 15.867188 5.5 16 C 5.375 16.207031 5.25 16.417969 5.125 16.625 C 4.960938 16.625 4.796875 16.625 4.625 16.625 C 4.578125 16.289062 4.578125 16.289062 4.625 15.875 C 5.175781 15.242188 5.550781 15.144531 6.375 15.25 Z M 6.375 15.25 "/>
<path style=" stroke:none;fill-rule:nonzero;fill:rgb(3.137255%,4.705882%,2.352941%);fill-opacity:1;" d="M 6.375 24.125 C 6.726562 24.25 6.832031 24.292969 7 24.625 C 7.027344 25.40625 7.027344 25.40625 6.914062 25.78125 C 6.902344 25.855469 6.890625 25.925781 6.875 26 C 6.933594 26.054688 6.992188 26.109375 7.054688 26.164062 C 7.25 26.375 7.25 26.375 7.304688 26.796875 C 7.242188 27.316406 7.113281 27.511719 6.75 27.875 C 6.285156 28.109375 5.757812 28.070312 5.25 28 C 4.859375 27.726562 4.859375 27.726562 4.625 27.375 C 4.585938 27.023438 4.585938 27.023438 4.625 26.75 C 4.789062 26.75 4.953125 26.75 5.125 26.75 C 5.179688 26.851562 5.238281 26.957031 5.296875 27.0625 C 5.363281 27.164062 5.429688 27.269531 5.5 27.375 C 5.886719 27.4375 5.886719 27.4375 6.25 27.375 C 6.417969 27.234375 6.417969 27.234375 6.390625 26.875 C 6.417969 26.515625 6.417969 26.515625 6.25 26.375 C 5.957031 26.328125 5.667969 26.289062 5.375 26.25 C 5.332031 26.085938 5.292969 25.921875 5.25 25.75 C 5.578125 25.625 5.910156 25.503906 6.25 25.375 C 6.207031 25.167969 6.167969 24.960938 6.125 24.75 C 5.917969 24.75 5.710938 24.75 5.5 24.75 C 5.417969 24.914062 5.335938 25.078125 5.25 25.25 C 5.042969 25.207031 4.835938 25.167969 4.625 25.125 C 4.664062 24.757812 4.753906 24.621094 5.007812 24.34375 C 5.515625 24.042969 5.789062 24.070312 6.375 24.125 Z M 6.375 24.125 "/>
<path style=" stroke:none;fill-rule:nonzero;fill:rgb(0%,0%,0%);fill-opacity:1;" d="M 10 26.75 C 13.050781 26.75 16.105469 26.75 19.25 26.75 C 19.207031 26.875 19.167969 26.996094 19.125 27.125 C 16.113281 27.125 13.101562 27.125 10 27.125 C 10 27 10 26.878906 10 26.75 Z M 10 26.75 "/>
<path style=" stroke:none;fill-rule:nonzero;fill:rgb(0.392157%,0.392157%,0.392157%);fill-opacity:1;" d="M 10 17.875 C 13.050781 17.875 16.105469 17.875 19.25 17.875 C 19.207031 18 19.167969 18.121094 19.125 18.25 C 16.113281 18.25 13.101562 18.25 10 18.25 C 10 18.125 10 18.003906 10 17.875 Z M 10 17.875 "/>
<path style=" stroke:none;fill-rule:nonzero;fill:rgb(0%,0%,0%);fill-opacity:1;" d="M 10 9 C 13.050781 9 16.105469 9 19.25 9 C 19.207031 9.125 19.167969 9.246094 19.125 9.375 C 16.113281 9.375 13.101562 9.375 10 9.375 C 10 9.25 10 9.128906 10 9 Z M 10 9 "/>
<path style=" stroke:none;fill-rule:nonzero;fill:rgb(14.117648%,14.117648%,14.117648%);fill-opacity:1;" d="M 10.125 25 C 12.230469 25 14.332031 25 16.5 25 C 16.5 25.164062 16.5 25.328125 16.5 25.5 C 14.355469 25.5 12.210938 25.5 10 25.5 C 10.042969 25.335938 10.082031 25.171875 10.125 25 Z M 10.125 25 "/>
<path style=" stroke:none;fill-rule:nonzero;fill:rgb(12.54902%,12.54902%,12.54902%);fill-opacity:1;" d="M 10.125 16.125 C 12.230469 16.125 14.332031 16.125 16.5 16.125 C 16.5 16.289062 16.5 16.453125 16.5 16.625 C 14.355469 16.625 12.210938 16.625 10 16.625 C 10.042969 16.460938 10.082031 16.296875 10.125 16.125 Z M 10.125 16.125 "/>
<path style=" stroke:none;fill-rule:nonzero;fill:rgb(12.54902%,12.54902%,12.54902%);fill-opacity:1;" d="M 10.125 7.25 C 12.230469 7.25 14.332031 7.25 16.5 7.25 C 16.5 7.414062 16.5 7.578125 16.5 7.75 C 14.394531 7.75 12.292969 7.75 10.125 7.75 C 10.125 7.585938 10.125 7.421875 10.125 7.25 Z M 10.125 7.25 "/>
<path style=" stroke:none;fill-rule:nonzero;fill:rgb(1.568628%,0.784314%,0.784314%);fill-opacity:1;" d="M 6 6.375 C 6.164062 6.417969 6.328125 6.457031 6.5 6.5 C 6.5 7.695312 6.5 8.890625 6.5 10.125 C 6.292969 10.167969 6.085938 10.207031 5.875 10.25 C 5.875 9.34375 5.875 8.433594 5.875 7.5 C 5.503906 7.746094 5.503906 7.746094 5.125 8 C 4.828125 7.96875 4.828125 7.96875 4.625 7.875 C 4.625 7.75 4.625 7.628906 4.625 7.5 C 4.863281 7.3125 4.863281 7.3125 5.171875 7.125 C 5.5625 6.886719 5.738281 6.765625 6 6.375 Z M 6 6.375 "/>
<path style=" stroke:none;fill-rule:nonzero;fill:rgb(20.392157%,22.352941%,18.82353%);fill-opacity:1;" d="M 8.125 23 C 8.125 23.125 8.125 23.246094 8.125 23.375 C 7.914062 23.25 7.703125 23.121094 7.488281 22.996094 C 6.65625 22.574219 5.460938 22.613281 4.566406 22.824219 C 3.703125 23.203125 3.105469 24 2.625 24.78125 C 2.28125 26.070312 2.480469 27.101562 3.125 28.25 C 3 28.25 2.878906 28.25 2.75 28.25 C 2.171875 27.152344 2.085938 26.035156 2.304688 24.816406 C 2.628906 23.789062 3.433594 23.101562 4.359375 22.613281 C 5.625 22.070312 6.992188 22.269531 8.125 23 Z M 8.125 23 "/>
<path style=" stroke:none;fill-rule:nonzero;fill:rgb(20.784314%,23.529412%,24.705882%);fill-opacity:1;" d="M 23.25 2.375 C 23.25 3.035156 23.25 3.695312 23.25 4.375 C 22.730469 4.203125 22.351562 4.0625 21.890625 3.796875 C 21.792969 3.742188 21.695312 3.683594 21.59375 3.628906 C 21.523438 3.585938 21.449219 3.542969 21.375 3.5 C 21.375 3.417969 21.375 3.335938 21.375 3.25 C 21.640625 3.105469 21.90625 2.957031 22.171875 2.8125 C 22.285156 2.75 22.285156 2.75 22.398438 2.6875 C 22.972656 2.375 22.972656 2.375 23.25 2.375 Z M 23.25 2.375 "/>
<path style=" stroke:none;fill-rule:nonzero;fill:rgb(21.960784%,25.098041%,26.274511%);fill-opacity:1;" d="M 23.25 16.25 C 23.765625 16.421875 24.109375 16.535156 24.546875 16.8125 C 24.632812 16.863281 24.71875 16.917969 24.808594 16.972656 C 24.871094 17.023438 24.933594 17.074219 25 17.125 C 25 17.207031 25 17.289062 25 17.375 C 24.132812 17.808594 24.132812 17.808594 23.25 18.25 C 23.25 17.589844 23.25 16.929688 23.25 16.25 Z M 23.25 16.25 "/>
<path style=" stroke:none;fill-rule:nonzero;fill:rgb(23.529412%,21.960784%,18.82353%);fill-opacity:1;" d="M 8.125 14.125 C 8.125 14.207031 8.125 14.289062 8.125 14.375 C 7.527344 14.140625 7.527344 14.140625 7.292969 13.992188 C 6.515625 13.679688 5.363281 13.765625 4.546875 13.949219 C 3.699219 14.320312 3.097656 15.136719 2.625 15.90625 C 2.40625 16.734375 2.375 17.671875 2.625 18.5 C 2.542969 18.5 2.460938 18.5 2.375 18.5 C 2.082031 17.625 2.089844 16.316406 2.488281 15.472656 C 3.0625 14.546875 3.8125 13.890625 4.859375 13.546875 C 6.074219 13.328125 7.085938 13.457031 8.125 14.125 Z M 8.125 14.125 "/>
<path style=" stroke:none;fill-rule:nonzero;fill:rgb(21.960784%,25.098041%,26.274511%);fill-opacity:1;" d="M 23.25 7.375 C 23.765625 7.546875 24.109375 7.660156 24.546875 7.9375 C 24.632812 7.988281 24.71875 8.042969 24.808594 8.097656 C 24.871094 8.148438 24.933594 8.199219 25 8.25 C 25 8.332031 25 8.414062 25 8.5 C 24.132812 8.933594 24.132812 8.933594 23.25 9.375 C 23.25 8.714844 23.25 8.054688 23.25 7.375 Z M 23.25 7.375 "/>
<path style=" stroke:none;fill-rule:nonzero;fill:rgb(23.529412%,19.215687%,19.215687%);fill-opacity:1;" d="M 5.984375 4.59375 C 6.132812 4.589844 6.28125 4.585938 6.4375 4.582031 C 6.914062 4.628906 7.214844 4.761719 7.625 5 C 7.585938 5.082031 7.542969 5.164062 7.5 5.25 C 7.40625 5.191406 7.40625 5.191406 7.3125 5.128906 C 6.871094 4.949219 6.441406 4.953125 5.96875 4.953125 C 5.824219 4.953125 5.824219 4.953125 5.679688 4.953125 C 4.953125 4.96875 4.488281 5.089844 3.875 5.5 C 3.789062 5.535156 3.703125 5.574219 3.617188 5.609375 C 3.3125 5.785156 3.257812 5.933594 3.125 6.25 C 3.046875 6.382812 3.046875 6.382812 2.964844 6.515625 C 2.429688 7.445312 2.335938 8.371094 2.566406 9.421875 C 2.585938 9.488281 2.605469 9.554688 2.625 9.625 C 2.542969 9.625 2.460938 9.625 2.375 9.625 C 2.082031 8.75 2.09375 7.441406 2.488281 6.597656 C 3.0625 5.667969 3.8125 5.019531 4.855469 4.671875 C 5.234375 4.605469 5.601562 4.597656 5.984375 4.59375 Z M 5.984375 4.59375 "/>
<path style=" stroke:none;fill-rule:nonzero;fill:rgb(54.509807%,76.47059%,38.431373%);fill-opacity:1;" d="M 6.25 26.5 C 6.332031 26.5 6.414062 26.5 6.5 26.5 C 6.515625 26.859375 6.515625 26.859375 6.5 27.25 C 6.25 27.5 6.25 27.5 5.875 27.539062 C 5.75 27.527344 5.628906 27.515625 5.5 27.5 C 5.417969 27.375 5.335938 27.253906 5.25 27.125 C 5.472656 27 5.699219 26.871094 5.921875 26.746094 C 6.121094 26.636719 6.121094 26.636719 6.25 26.5 Z M 6.25 26.5 "/>
<path style=" stroke:none;fill-rule:nonzero;fill:rgb(27.058825%,24.705882%,19.607843%);fill-opacity:1;" d="M 3.75 14.125 C 3.875 14.167969 3.996094 14.207031 4.125 14.25 C 4.019531 14.339844 4.019531 14.339844 3.914062 14.433594 C 3.824219 14.511719 3.734375 14.589844 3.640625 14.671875 C 3.550781 14.75 3.460938 14.828125 3.367188 14.910156 C 3.199219 15.058594 3.035156 15.214844 2.875 15.375 C 2.894531 15.042969 2.941406 14.820312 3.164062 14.566406 C 3.359375 14.390625 3.359375 14.390625 3.75 14.125 Z M 3.75 14.125 "/>
<path style=" stroke:none;fill-rule:nonzero;fill:rgb(12.54902%,14.117648%,11.372549%);fill-opacity:1;" d="M 7.125 22.5 C 7.621094 22.746094 7.621094 22.746094 8.125 23 C 8.125 23.125 8.125 23.246094 8.125 23.375 C 7.957031 23.277344 7.792969 23.175781 7.625 23.078125 C 7.53125 23.023438 7.441406 22.96875 7.34375 22.910156 C 7.269531 22.859375 7.199219 22.804688 7.125 22.75 C 7.125 22.667969 7.125 22.585938 7.125 22.5 Z M 7.125 22.5 "/>
<path style=" stroke:none;fill-rule:nonzero;fill:rgb(16.470589%,14.509805%,10.980392%);fill-opacity:1;" d="M 7.125 13.625 C 7.621094 13.871094 7.621094 13.871094 8.125 14.125 C 8.125 14.207031 8.125 14.289062 8.125 14.375 C 7.753906 14.234375 7.457031 14.097656 7.125 13.875 C 7.125 13.792969 7.125 13.710938 7.125 13.625 Z M 7.125 13.625 "/>
</g>
</svg>
