<?xml version="1.0" encoding="UTF-8"?>
<svg xmlns="http://www.w3.org/2000/svg" xmlns:xlink="http://www.w3.org/1999/xlink" width="32" height="32" viewBox="0 0 32 32" version="1.1">
<g id="surface1">
<path style=" stroke:none;fill-rule:nonzero;fill:rgb(99.607843%,32.156864%,89.803922%);fill-opacity:1;" d="M 11.21875 3.570312 C 12.347656 4.449219 13.109375 5.585938 13.375 7 C 13.484375 8.144531 13.417969 9.121094 12.960938 10.191406 C 12.847656 10.488281 12.847656 10.488281 12.945312 10.71875 C 13.210938 11.132812 13.550781 11.457031 13.898438 11.804688 C 13.980469 11.882812 14.058594 11.960938 14.140625 12.042969 C 14.402344 12.304688 14.664062 12.566406 14.925781 12.828125 C 15.109375 13.007812 15.289062 13.1875 15.472656 13.371094 C 15.949219 13.847656 16.429688 14.324219 16.910156 14.800781 C 17.398438 15.285156 17.886719 15.773438 18.375 16.261719 C 19.332031 17.214844 20.292969 18.171875 21.25 19.125 C 21.335938 19.097656 21.417969 19.074219 21.507812 19.046875 C 21.617188 19.015625 21.730469 18.980469 21.84375 18.945312 C 21.953125 18.910156 22.0625 18.878906 22.175781 18.84375 C 23.605469 18.425781 25.152344 18.460938 26.5 19.125 C 27.875 19.910156 28.851562 21.054688 29.296875 22.585938 C 29.613281 24.257812 29.382812 25.792969 28.429688 27.21875 C 27.503906 28.402344 26.355469 29.105469 24.875 29.375 C 23.175781 29.546875 21.792969 29.21875 20.441406 28.164062 C 19.355469 27.171875 18.71875 25.980469 18.578125 24.511719 C 18.535156 23.542969 18.652344 22.710938 19.039062 21.804688 C 19.152344 21.511719 19.152344 21.511719 19.054688 21.28125 C 18.789062 20.867188 18.449219 20.542969 18.101562 20.199219 C 18.019531 20.117188 17.941406 20.039062 17.859375 19.957031 C 17.597656 19.695312 17.335938 19.433594 17.074219 19.175781 C 16.890625 18.992188 16.710938 18.8125 16.527344 18.628906 C 16.050781 18.152344 15.570312 17.675781 15.089844 17.199219 C 14.601562 16.710938 14.113281 16.226562 13.625 15.738281 C 12.667969 14.785156 11.707031 13.828125 10.75 12.875 C 10.667969 12.898438 10.582031 12.925781 10.5 12.953125 C 10.390625 12.988281 10.277344 13.019531 10.164062 13.054688 C 10.054688 13.085938 9.945312 13.121094 9.835938 13.15625 C 8.390625 13.5625 6.859375 13.535156 5.5 12.875 C 4.125 12.089844 3.148438 10.945312 2.703125 9.414062 C 2.386719 7.742188 2.617188 6.207031 3.570312 4.78125 C 5.453125 2.367188 8.6875 1.878906 11.21875 3.570312 Z M 6 6.25 C 5.515625 6.925781 5.339844 7.542969 5.375 8.375 C 5.550781 9.203125 5.953125 9.785156 6.640625 10.28125 C 7.265625 10.609375 7.960938 10.710938 8.65625 10.566406 C 9.4375 10.296875 10.007812 9.878906 10.402344 9.132812 C 10.660156 8.457031 10.710938 7.773438 10.476562 7.085938 C 10.136719 6.328125 9.664062 5.804688 8.875 5.5 C 7.769531 5.234375 6.816406 5.433594 6 6.25 Z M 22 22.25 C 21.515625 22.925781 21.339844 23.542969 21.375 24.375 C 21.550781 25.203125 21.953125 25.785156 22.640625 26.28125 C 23.265625 26.609375 23.960938 26.710938 24.65625 26.566406 C 25.4375 26.296875 26.007812 25.878906 26.402344 25.132812 C 26.660156 24.457031 26.710938 23.773438 26.476562 23.085938 C 26.136719 22.328125 25.664062 21.804688 24.875 21.5 C 23.769531 21.234375 22.816406 21.433594 22 22.25 Z M 22 22.25 "/>
<path style=" stroke:none;fill-rule:nonzero;fill:rgb(99.607843%,32.156864%,89.803922%);fill-opacity:1;" d="M 27.21875 19.570312 C 28.347656 20.449219 29.109375 21.585938 29.375 23 C 29.542969 24.722656 29.25 26.167969 28.164062 27.554688 C 27.136719 28.683594 25.921875 29.269531 24.40625 29.421875 C 22.71875 29.476562 21.378906 29.019531 20.125 27.875 C 18.957031 26.597656 18.503906 25.203125 18.574219 23.492188 C 18.65625 22.691406 18.890625 21.964844 19.25 21.25 C 19.332031 21.25 19.414062 21.25 19.5 21.25 C 19.535156 21.175781 19.566406 21.101562 19.601562 21.027344 C 19.921875 20.429688 20.417969 19.851562 21 19.5 C 21.082031 19.5 21.164062 19.5 21.25 19.5 C 21.25 19.417969 21.25 19.335938 21.25 19.25 C 21.449219 19.167969 21.644531 19.085938 21.84375 19.007812 C 21.953125 18.960938 22.0625 18.917969 22.175781 18.871094 C 23.863281 18.234375 25.75 18.589844 27.21875 19.570312 Z M 22 22.25 C 21.515625 22.925781 21.339844 23.542969 21.375 24.375 C 21.550781 25.203125 21.953125 25.785156 22.640625 26.28125 C 23.265625 26.609375 23.960938 26.710938 24.65625 26.566406 C 25.4375 26.296875 26.007812 25.878906 26.402344 25.132812 C 26.660156 24.457031 26.710938 23.773438 26.476562 23.085938 C 26.136719 22.328125 25.664062 21.804688 24.875 21.5 C 23.769531 21.234375 22.816406 21.433594 22 22.25 Z M 22 22.25 "/>
<path style=" stroke:none;fill-rule:nonzero;fill:rgb(96.470588%,83.137256%,24.313726%);fill-opacity:1;" d="M 12.5 10.75 C 13.089844 10.859375 13.40625 11.226562 13.8125 11.640625 C 13.894531 11.71875 13.976562 11.800781 14.058594 11.882812 C 14.324219 12.148438 14.589844 12.414062 14.855469 12.679688 C 15.039062 12.863281 15.222656 13.046875 15.40625 13.230469 C 15.792969 13.617188 16.175781 14.003906 16.5625 14.390625 C 17.054688 14.886719 17.550781 15.378906 18.046875 15.875 C 18.429688 16.253906 18.808594 16.632812 19.1875 17.015625 C 19.371094 17.195312 19.554688 17.378906 19.738281 17.5625 C 19.992188 17.816406 20.246094 18.070312 20.5 18.328125 C 20.578125 18.402344 20.652344 18.480469 20.734375 18.554688 C 21.25 19.082031 21.25 19.082031 21.25 19.5 C 21.027344 19.699219 21.027344 19.699219 20.726562 19.90625 C 20.1875 20.304688 19.855469 20.6875 19.5 21.25 C 19.109375 21.175781 18.902344 21.074219 18.621094 20.792969 C 18.550781 20.722656 18.480469 20.652344 18.40625 20.578125 C 18.328125 20.5 18.253906 20.421875 18.175781 20.34375 C 18.09375 20.261719 18.011719 20.179688 17.925781 20.09375 C 17.65625 19.824219 17.386719 19.550781 17.117188 19.28125 C 16.933594 19.09375 16.746094 18.90625 16.558594 18.71875 C 16.066406 18.222656 15.574219 17.730469 15.082031 17.234375 C 14.582031 16.730469 14.078125 16.226562 13.578125 15.722656 C 12.59375 14.730469 11.609375 13.742188 10.625 12.75 C 10.953125 12.417969 11.269531 12.109375 11.632812 11.820312 C 12.019531 11.480469 12.234375 11.1875 12.5 10.75 Z M 12.5 10.75 "/>
</g>
</svg>
