<?xml version="1.0" encoding="UTF-8"?>
<svg xmlns="http://www.w3.org/2000/svg" xmlns:xlink="http://www.w3.org/1999/xlink" width="32" height="32" viewBox="0 0 32 32" version="1.1">
<g id="surface1">
<path style=" stroke:none;fill-rule:nonzero;fill:rgb(54.509807%,80.000001%,89.803922%);fill-opacity:1;" d="M 2.699219 3.4375 C 2.816406 3.433594 2.9375 3.433594 3.058594 3.433594 C 3.453125 3.429688 3.847656 3.433594 4.246094 3.433594 C 4.53125 3.433594 4.8125 3.433594 5.097656 3.429688 C 5.871094 3.425781 6.640625 3.429688 7.410156 3.429688 C 8.054688 3.429688 8.699219 3.429688 9.34375 3.425781 C 10.949219 3.425781 12.554688 3.425781 14.160156 3.429688 C 15.554688 3.429688 16.949219 3.429688 18.34375 3.425781 C 19.773438 3.421875 21.207031 3.417969 22.640625 3.421875 C 23.441406 3.421875 24.246094 3.421875 25.050781 3.417969 C 25.804688 3.417969 26.5625 3.417969 27.316406 3.421875 C 27.59375 3.421875 27.871094 3.421875 28.148438 3.417969 C 28.527344 3.417969 28.90625 3.417969 29.285156 3.421875 C 29.449219 3.417969 29.449219 3.417969 29.617188 3.417969 C 30.382812 3.429688 30.921875 3.609375 31.5 4.125 C 31.964844 4.675781 32.0625 5.222656 32.0625 5.933594 C 32.066406 6.023438 32.066406 6.113281 32.066406 6.207031 C 32.070312 6.503906 32.066406 6.804688 32.066406 7.101562 C 32.066406 7.316406 32.066406 7.53125 32.070312 7.75 C 32.074219 8.332031 32.070312 8.914062 32.070312 9.5 C 32.070312 9.984375 32.070312 10.472656 32.070312 10.960938 C 32.074219 12.109375 32.074219 13.261719 32.070312 14.410156 C 32.070312 15.59375 32.070312 16.78125 32.074219 17.96875 C 32.078125 18.984375 32.082031 20.003906 32.078125 21.023438 C 32.078125 21.628906 32.078125 22.238281 32.082031 22.847656 C 32.082031 23.417969 32.082031 23.992188 32.078125 24.5625 C 32.078125 24.773438 32.078125 24.980469 32.082031 25.191406 C 32.09375 27.085938 32.09375 27.085938 31.59375 27.808594 C 30.851562 28.460938 30.257812 28.574219 29.300781 28.5625 C 29.183594 28.566406 29.0625 28.566406 28.941406 28.566406 C 28.546875 28.570312 28.152344 28.566406 27.753906 28.566406 C 27.46875 28.566406 27.1875 28.566406 26.902344 28.570312 C 26.128906 28.574219 25.359375 28.570312 24.589844 28.570312 C 23.945312 28.570312 23.300781 28.570312 22.65625 28.570312 C 21.050781 28.574219 19.445312 28.574219 17.839844 28.570312 C 16.445312 28.570312 15.050781 28.570312 13.65625 28.574219 C 12.226562 28.578125 10.792969 28.582031 9.359375 28.578125 C 8.558594 28.578125 7.753906 28.578125 6.949219 28.582031 C 6.195312 28.582031 5.4375 28.582031 4.683594 28.578125 C 4.40625 28.578125 4.128906 28.578125 3.851562 28.582031 C 3.472656 28.582031 3.09375 28.582031 2.714844 28.578125 C 2.605469 28.578125 2.496094 28.582031 2.382812 28.582031 C 1.617188 28.570312 1.078125 28.390625 0.5 27.875 C 0.0351562 27.320312 -0.0625 26.777344 -0.0625 26.066406 C -0.0664062 25.976562 -0.0664062 25.886719 -0.0664062 25.792969 C -0.0703125 25.496094 -0.0664062 25.195312 -0.0664062 24.898438 C -0.0664062 24.683594 -0.0664062 24.46875 -0.0703125 24.25 C -0.0742188 23.667969 -0.0703125 23.085938 -0.0703125 22.5 C -0.0703125 22.015625 -0.0703125 21.527344 -0.0742188 21.039062 C -0.0742188 19.890625 -0.0742188 18.738281 -0.0703125 17.589844 C -0.0703125 16.40625 -0.0703125 15.21875 -0.0742188 14.03125 C -0.078125 13.015625 -0.0820312 11.996094 -0.078125 10.976562 C -0.078125 10.371094 -0.078125 9.761719 -0.0820312 9.152344 C -0.0820312 8.582031 -0.0820312 8.007812 -0.078125 7.4375 C -0.078125 7.226562 -0.078125 7.019531 -0.0820312 6.808594 C -0.09375 4.914062 -0.09375 4.914062 0.40625 4.191406 C 1.148438 3.539062 1.742188 3.425781 2.699219 3.4375 Z M 2.699219 3.4375 "/>
<path style=" stroke:none;fill-rule:nonzero;fill:rgb(79.607844%,88.627452%,91.37255%);fill-opacity:1;" d="M 3.914062 9.953125 C 4.023438 9.953125 4.128906 9.949219 4.238281 9.949219 C 4.601562 9.949219 4.960938 9.949219 5.320312 9.949219 C 5.578125 9.949219 5.835938 9.949219 6.09375 9.949219 C 6.796875 9.949219 7.5 9.949219 8.203125 9.949219 C 8.933594 9.949219 9.667969 9.949219 10.402344 9.949219 C 11.632812 9.949219 12.867188 9.949219 14.097656 9.949219 C 15.523438 9.953125 16.949219 9.953125 18.375 9.949219 C 19.597656 9.949219 20.820312 9.949219 22.042969 9.949219 C 22.773438 9.949219 23.503906 9.949219 24.234375 9.949219 C 24.921875 9.949219 25.609375 9.949219 26.296875 9.949219 C 26.550781 9.949219 26.800781 9.949219 27.054688 9.949219 C 27.398438 9.949219 27.742188 9.949219 28.085938 9.953125 C 28.238281 9.949219 28.238281 9.949219 28.390625 9.949219 C 29.0625 9.957031 29.0625 9.957031 29.375 10.167969 C 29.566406 10.484375 29.542969 10.753906 29.535156 11.121094 C 29.535156 11.265625 29.535156 11.414062 29.53125 11.5625 C 29.53125 11.714844 29.527344 11.867188 29.523438 12.023438 C 29.523438 12.175781 29.519531 12.328125 29.519531 12.488281 C 29.515625 12.867188 29.507812 13.246094 29.5 13.625 C 29.042969 13.433594 28.75 13.15625 28.402344 12.804688 C 28.292969 12.691406 28.179688 12.578125 28.066406 12.464844 C 27.953125 12.347656 27.835938 12.230469 27.71875 12.109375 C 27.601562 11.988281 27.484375 11.871094 27.363281 11.75 C 27.074219 11.460938 26.789062 11.167969 26.5 10.875 C 26.191406 11 26.191406 11 25.875 11.125 C 25.945312 11.609375 26.160156 11.828125 26.503906 12.167969 C 26.605469 12.265625 26.707031 12.367188 26.808594 12.46875 C 26.917969 12.574219 27.023438 12.675781 27.132812 12.78125 C 27.238281 12.886719 27.347656 12.992188 27.457031 13.101562 C 27.71875 13.359375 27.984375 13.617188 28.25 13.875 C 28.066406 14.292969 27.835938 14.570312 27.511719 14.886719 C 27.414062 14.980469 27.320312 15.078125 27.222656 15.175781 C 27.121094 15.269531 27.023438 15.367188 26.921875 15.46875 C 26.820312 15.566406 26.722656 15.667969 26.617188 15.769531 C 26.371094 16.011719 26.121094 16.257812 25.875 16.5 C 26 16.746094 26 16.746094 26.125 17 C 26.625 17.050781 26.625 17.050781 26.917969 16.757812 C 27.023438 16.648438 27.128906 16.539062 27.238281 16.425781 C 27.324219 16.339844 27.324219 16.339844 27.410156 16.25 C 27.59375 16.0625 27.773438 15.875 27.953125 15.6875 C 28.132812 15.5 28.316406 15.3125 28.496094 15.125 C 28.660156 14.957031 28.824219 14.785156 28.988281 14.617188 C 29.25 14.375 29.25 14.375 29.5 14.375 C 29.507812 15.835938 29.515625 17.296875 29.519531 18.757812 C 29.523438 19.433594 29.523438 20.113281 29.527344 20.789062 C 29.53125 21.445312 29.535156 22.097656 29.535156 22.753906 C 29.535156 23.003906 29.539062 23.253906 29.539062 23.503906 C 29.542969 23.851562 29.542969 24.199219 29.542969 24.550781 C 29.542969 24.652344 29.546875 24.757812 29.546875 24.863281 C 29.542969 25.574219 29.542969 25.574219 29.308594 25.84375 C 29.21875 25.917969 29.21875 25.917969 29.125 26 C 29 25.957031 28.878906 25.917969 28.75 25.875 C 28.792969 25.832031 28.832031 25.792969 28.875 25.75 C 28.886719 25.492188 28.890625 25.234375 28.890625 24.976562 C 28.890625 24.742188 28.890625 24.742188 28.890625 24.5 C 28.890625 24.417969 28.890625 24.335938 28.890625 24.253906 C 28.890625 24 28.890625 23.75 28.890625 23.5 C 28.890625 23.34375 28.890625 23.183594 28.890625 23.023438 C 28.890625 22.804688 28.890625 22.804688 28.890625 22.582031 C 28.914062 22.261719 28.914062 22.261719 28.75 22.125 C 28.519531 22.113281 28.285156 22.109375 28.054688 22.109375 C 27.902344 22.109375 27.75 22.109375 27.59375 22.109375 C 27.425781 22.109375 27.253906 22.109375 27.085938 22.109375 C 26.90625 22.109375 26.730469 22.109375 26.554688 22.109375 C 26.070312 22.105469 25.589844 22.105469 25.105469 22.109375 C 24.601562 22.109375 24.097656 22.109375 23.59375 22.109375 C 22.75 22.105469 21.902344 22.109375 21.054688 22.109375 C 20.078125 22.109375 19.097656 22.109375 18.117188 22.109375 C 17.277344 22.105469 16.4375 22.105469 15.597656 22.109375 C 15.097656 22.109375 14.59375 22.109375 14.09375 22.105469 C 13.621094 22.105469 13.148438 22.105469 12.675781 22.109375 C 12.503906 22.109375 12.328125 22.109375 12.15625 22.109375 C 11.921875 22.109375 11.683594 22.109375 11.449219 22.109375 C 11.316406 22.109375 11.183594 22.109375 11.046875 22.109375 C 10.753906 22.089844 10.753906 22.089844 10.625 22.25 C 10.613281 22.527344 10.613281 22.804688 10.613281 23.082031 C 10.613281 23.167969 10.613281 23.25 10.613281 23.332031 C 10.613281 23.601562 10.617188 23.867188 10.617188 24.132812 C 10.617188 24.3125 10.617188 24.492188 10.617188 24.671875 C 10.621094 25.113281 10.621094 25.558594 10.625 26 C 10.378906 26 10.128906 26 9.875 26 C 9.875 25.886719 9.875 25.773438 9.875 25.65625 C 9.878906 25.238281 9.878906 24.824219 9.882812 24.40625 C 9.882812 24.222656 9.882812 24.042969 9.882812 23.859375 C 9.886719 23.601562 9.886719 23.34375 9.886719 23.082031 C 9.886719 22.925781 9.890625 22.769531 9.890625 22.609375 C 9.917969 22.261719 9.917969 22.261719 9.75 22.125 C 9.546875 22.113281 9.34375 22.109375 9.140625 22.109375 C 9.011719 22.109375 8.882812 22.109375 8.746094 22.105469 C 8.605469 22.105469 8.464844 22.109375 8.320312 22.109375 C 8.175781 22.109375 8.03125 22.109375 7.882812 22.109375 C 7.582031 22.105469 7.273438 22.109375 6.96875 22.109375 C 6.5 22.109375 6.035156 22.109375 5.566406 22.105469 C 5.269531 22.105469 4.976562 22.109375 4.679688 22.109375 C 4.46875 22.109375 4.46875 22.109375 4.25 22.105469 C 4.121094 22.109375 3.992188 22.109375 3.859375 22.109375 C 3.742188 22.109375 3.628906 22.109375 3.511719 22.109375 C 3.25 22.097656 3.25 22.097656 3.125 22.25 C 3.113281 22.507812 3.109375 22.761719 3.109375 23.019531 C 3.109375 23.175781 3.109375 23.332031 3.109375 23.492188 C 3.109375 23.65625 3.109375 23.824219 3.109375 23.992188 C 3.109375 24.15625 3.109375 24.320312 3.109375 24.488281 C 3.109375 24.644531 3.109375 24.804688 3.109375 24.964844 C 3.109375 25.109375 3.109375 25.253906 3.109375 25.402344 C 3.101562 25.746094 3.101562 25.746094 3.25 26 C 2.890625 25.929688 2.769531 25.890625 2.5 25.625 C 2.476562 25.265625 2.46875 24.921875 2.472656 24.5625 C 2.472656 24.453125 2.472656 24.34375 2.472656 24.230469 C 2.472656 23.867188 2.472656 23.503906 2.476562 23.140625 C 2.476562 22.886719 2.476562 22.636719 2.476562 22.382812 C 2.476562 21.71875 2.480469 21.054688 2.484375 20.390625 C 2.484375 19.714844 2.488281 19.039062 2.488281 18.363281 C 2.492188 17.03125 2.492188 15.703125 2.5 14.375 C 2.953125 14.585938 3.230469 14.835938 3.578125 15.199219 C 3.6875 15.3125 3.796875 15.425781 3.90625 15.542969 C 4.136719 15.78125 4.363281 16.019531 4.589844 16.261719 C 4.699219 16.371094 4.808594 16.484375 4.921875 16.597656 C 5.019531 16.703125 5.117188 16.804688 5.222656 16.914062 C 5.480469 17.160156 5.480469 17.160156 5.785156 17.09375 C 6.019531 17.019531 6.019531 17.019531 6.09375 16.785156 C 6.160156 16.480469 6.160156 16.480469 5.921875 16.226562 C 5.820312 16.128906 5.71875 16.03125 5.617188 15.929688 C 5.457031 15.773438 5.457031 15.773438 5.292969 15.613281 C 5.179688 15.503906 5.0625 15.394531 4.945312 15.28125 C 4.832031 15.167969 4.71875 15.058594 4.601562 14.945312 C 4.316406 14.667969 4.035156 14.398438 3.75 14.125 C 3.929688 13.703125 4.160156 13.441406 4.492188 13.128906 C 4.589844 13.039062 4.683594 12.945312 4.78125 12.851562 C 4.984375 12.65625 5.1875 12.464844 5.394531 12.273438 C 5.488281 12.183594 5.582031 12.089844 5.679688 11.996094 C 5.769531 11.914062 5.859375 11.828125 5.949219 11.742188 C 6.160156 11.511719 6.160156 11.511719 6.089844 11.21875 C 6.019531 10.980469 6.019531 10.980469 5.789062 10.902344 C 5.472656 10.839844 5.472656 10.839844 5.195312 11.113281 C 5.085938 11.230469 4.972656 11.34375 4.859375 11.464844 C 4.800781 11.527344 4.738281 11.585938 4.679688 11.648438 C 4.488281 11.847656 4.296875 12.042969 4.109375 12.242188 C 3.917969 12.441406 3.730469 12.636719 3.539062 12.832031 C 3.367188 13.011719 3.195312 13.191406 3.023438 13.371094 C 2.75 13.625 2.75 13.625 2.5 13.625 C 2.488281 13.089844 2.484375 12.558594 2.476562 12.023438 C 2.472656 11.871094 2.46875 11.71875 2.464844 11.5625 C 2.464844 11.417969 2.464844 11.273438 2.460938 11.121094 C 2.460938 10.988281 2.460938 10.855469 2.457031 10.714844 C 2.5 10.375 2.5 10.375 2.625 10.167969 C 3.023438 9.898438 3.449219 9.949219 3.914062 9.953125 Z M 3.914062 9.953125 "/>
<path style=" stroke:none;fill-rule:nonzero;fill:rgb(0%,0%,0%);fill-opacity:1;" d="M 2.699219 3.4375 C 2.816406 3.433594 2.9375 3.433594 3.058594 3.433594 C 3.453125 3.429688 3.847656 3.433594 4.246094 3.433594 C 4.53125 3.433594 4.8125 3.433594 5.097656 3.429688 C 5.871094 3.425781 6.640625 3.429688 7.410156 3.429688 C 8.054688 3.429688 8.699219 3.429688 9.34375 3.425781 C 10.949219 3.425781 12.554688 3.425781 14.160156 3.429688 C 15.554688 3.429688 16.949219 3.429688 18.34375 3.425781 C 19.773438 3.421875 21.207031 3.417969 22.640625 3.421875 C 23.441406 3.421875 24.246094 3.421875 25.050781 3.417969 C 25.804688 3.417969 26.5625 3.417969 27.316406 3.421875 C 27.59375 3.421875 27.871094 3.421875 28.148438 3.417969 C 28.527344 3.417969 28.90625 3.417969 29.285156 3.421875 C 29.449219 3.417969 29.449219 3.417969 29.617188 3.417969 C 30.382812 3.429688 30.921875 3.609375 31.5 4.125 C 31.964844 4.675781 32.0625 5.222656 32.0625 5.933594 C 32.066406 6.023438 32.066406 6.113281 32.066406 6.207031 C 32.070312 6.503906 32.066406 6.804688 32.066406 7.101562 C 32.066406 7.316406 32.066406 7.53125 32.070312 7.75 C 32.074219 8.332031 32.070312 8.914062 32.070312 9.5 C 32.070312 9.984375 32.070312 10.472656 32.070312 10.960938 C 32.074219 12.109375 32.074219 13.261719 32.070312 14.410156 C 32.070312 15.59375 32.070312 16.78125 32.074219 17.96875 C 32.078125 18.984375 32.082031 20.003906 32.078125 21.023438 C 32.078125 21.628906 32.078125 22.238281 32.082031 22.847656 C 32.082031 23.417969 32.082031 23.992188 32.078125 24.5625 C 32.078125 24.773438 32.078125 24.980469 32.082031 25.191406 C 32.09375 27.085938 32.09375 27.085938 31.59375 27.808594 C 30.851562 28.460938 30.257812 28.574219 29.300781 28.5625 C 29.183594 28.566406 29.0625 28.566406 28.941406 28.566406 C 28.546875 28.570312 28.152344 28.566406 27.753906 28.566406 C 27.46875 28.566406 27.1875 28.566406 26.902344 28.570312 C 26.128906 28.574219 25.359375 28.570312 24.589844 28.570312 C 23.945312 28.570312 23.300781 28.570312 22.65625 28.570312 C 21.050781 28.574219 19.445312 28.574219 17.839844 28.570312 C 16.445312 28.570312 15.050781 28.570312 13.65625 28.574219 C 12.226562 28.578125 10.792969 28.582031 9.359375 28.578125 C 8.558594 28.578125 7.753906 28.578125 6.949219 28.582031 C 6.195312 28.582031 5.4375 28.582031 4.683594 28.578125 C 4.40625 28.578125 4.128906 28.578125 3.851562 28.582031 C 3.472656 28.582031 3.09375 28.582031 2.714844 28.578125 C 2.605469 28.578125 2.496094 28.582031 2.382812 28.582031 C 1.617188 28.570312 1.078125 28.390625 0.5 27.875 C 0.0351562 27.320312 -0.0625 26.777344 -0.0625 26.066406 C -0.0664062 25.976562 -0.0664062 25.886719 -0.0664062 25.792969 C -0.0703125 25.496094 -0.0664062 25.195312 -0.0664062 24.898438 C -0.0664062 24.683594 -0.0664062 24.46875 -0.0703125 24.25 C -0.0742188 23.667969 -0.0703125 23.085938 -0.0703125 22.5 C -0.0703125 22.015625 -0.0703125 21.527344 -0.0742188 21.039062 C -0.0742188 19.890625 -0.0742188 18.738281 -0.0703125 17.589844 C -0.0703125 16.40625 -0.0703125 15.21875 -0.0742188 14.03125 C -0.078125 13.015625 -0.0820312 11.996094 -0.078125 10.976562 C -0.078125 10.371094 -0.078125 9.761719 -0.0820312 9.152344 C -0.0820312 8.582031 -0.0820312 8.007812 -0.078125 7.4375 C -0.078125 7.226562 -0.078125 7.019531 -0.0820312 6.808594 C -0.09375 4.914062 -0.09375 4.914062 0.40625 4.191406 C 1.148438 3.539062 1.742188 3.425781 2.699219 3.4375 Z M 1.125 5.125 C 0.769531 5.835938 1 6.707031 1 7.5 C 9.25 7.5 17.5 7.5 26 7.5 C 26 7.828125 26 8.160156 26 8.5 C 17.75 8.5 9.5 8.5 1 8.5 C 0.992188 11.457031 0.984375 14.414062 0.976562 17.460938 C 0.972656 18.394531 0.96875 19.328125 0.964844 20.292969 C 0.964844 21.128906 0.964844 21.128906 0.964844 21.964844 C 0.964844 22.335938 0.960938 22.710938 0.960938 23.082031 C 0.957031 23.558594 0.957031 24.035156 0.957031 24.511719 C 0.957031 24.683594 0.957031 24.859375 0.957031 25.035156 C 0.953125 25.269531 0.953125 25.503906 0.953125 25.742188 C 0.953125 25.875 0.953125 26.003906 0.953125 26.140625 C 1.019531 26.660156 1.230469 26.964844 1.578125 27.347656 C 2.039062 27.585938 2.488281 27.550781 3 27.546875 C 3.171875 27.546875 3.171875 27.546875 3.347656 27.550781 C 3.730469 27.550781 4.117188 27.550781 4.503906 27.546875 C 4.78125 27.550781 5.054688 27.550781 5.332031 27.550781 C 6.082031 27.550781 6.832031 27.550781 7.585938 27.550781 C 8.371094 27.550781 9.15625 27.550781 9.9375 27.550781 C 11.34375 27.550781 12.746094 27.550781 14.148438 27.546875 C 15.421875 27.546875 16.691406 27.546875 17.964844 27.550781 C 19.441406 27.550781 20.917969 27.550781 22.394531 27.550781 C 23.175781 27.550781 23.957031 27.550781 24.742188 27.550781 C 25.476562 27.550781 26.210938 27.550781 26.945312 27.550781 C 27.214844 27.546875 27.484375 27.550781 27.753906 27.550781 C 28.125 27.550781 28.492188 27.550781 28.859375 27.546875 C 29.023438 27.550781 29.023438 27.550781 29.1875 27.550781 C 29.765625 27.542969 30.164062 27.515625 30.625 27.125 C 30.984375 26.660156 31.046875 26.320312 31.046875 25.742188 C 31.046875 25.589844 31.046875 25.4375 31.046875 25.28125 C 31.046875 25.113281 31.042969 24.945312 31.042969 24.777344 C 31.042969 24.597656 31.042969 24.421875 31.042969 24.246094 C 31.042969 23.761719 31.039062 23.28125 31.039062 22.800781 C 31.035156 22.300781 31.035156 21.796875 31.035156 21.292969 C 31.035156 20.34375 31.03125 19.390625 31.027344 18.4375 C 31.023438 17.355469 31.019531 16.269531 31.019531 15.1875 C 31.015625 12.957031 31.007812 10.730469 31 8.5 C 30.007812 8.5 29.019531 8.5 28 8.5 C 28 8.167969 28 7.839844 28 7.5 C 28.988281 7.5 29.980469 7.5 31 7.5 C 31.019531 6.996094 31.019531 6.996094 31.039062 6.484375 C 31.042969 6.378906 31.050781 6.277344 31.054688 6.167969 C 31.066406 5.664062 31.03125 5.339844 30.707031 4.9375 C 30.152344 4.414062 29.617188 4.480469 28.890625 4.480469 C 28.777344 4.480469 28.664062 4.480469 28.542969 4.480469 C 28.160156 4.476562 27.773438 4.476562 27.386719 4.476562 C 27.113281 4.472656 26.835938 4.472656 26.558594 4.472656 C 25.652344 4.46875 24.746094 4.46875 23.835938 4.464844 C 23.527344 4.464844 23.214844 4.464844 22.902344 4.464844 C 21.601562 4.460938 20.304688 4.457031 19.007812 4.457031 C 18.671875 4.457031 18.332031 4.457031 17.996094 4.457031 C 17.871094 4.457031 17.871094 4.457031 17.742188 4.457031 C 16.386719 4.453125 15.03125 4.449219 13.675781 4.445312 C 12.28125 4.4375 10.890625 4.4375 9.496094 4.4375 C 8.714844 4.4375 7.933594 4.433594 7.152344 4.429688 C 6.414062 4.425781 5.679688 4.425781 4.945312 4.425781 C 4.675781 4.425781 4.40625 4.425781 4.136719 4.425781 C 3.765625 4.421875 3.398438 4.421875 3.03125 4.425781 C 2.921875 4.421875 2.816406 4.421875 2.707031 4.417969 C 1.96875 4.429688 1.640625 4.589844 1.125 5.125 Z M 1.125 5.125 "/>
<path style=" stroke:none;fill-rule:nonzero;fill:rgb(85.882354%,85.882354%,85.882354%);fill-opacity:1;" d="M 2.96875 4.484375 C 3.082031 4.484375 3.199219 4.480469 3.316406 4.480469 C 3.703125 4.480469 4.089844 4.480469 4.476562 4.480469 C 4.75 4.480469 5.027344 4.480469 5.304688 4.476562 C 6.054688 4.476562 6.808594 4.476562 7.558594 4.476562 C 8.027344 4.476562 8.496094 4.472656 8.96875 4.472656 C 10.265625 4.472656 11.566406 4.472656 12.863281 4.46875 C 12.988281 4.46875 12.988281 4.46875 13.117188 4.46875 C 13.199219 4.46875 13.285156 4.46875 13.367188 4.46875 C 13.539062 4.46875 13.707031 4.46875 13.875 4.46875 C 14 4.46875 14 4.46875 14.128906 4.46875 C 15.488281 4.46875 16.847656 4.46875 18.203125 4.464844 C 19.597656 4.460938 20.992188 4.460938 22.386719 4.460938 C 23.167969 4.460938 23.949219 4.457031 24.730469 4.457031 C 25.46875 4.453125 26.203125 4.453125 26.941406 4.453125 C 27.210938 4.453125 27.480469 4.453125 27.753906 4.453125 C 28.121094 4.453125 28.488281 4.453125 28.859375 4.453125 C 28.964844 4.453125 29.074219 4.453125 29.183594 4.453125 C 29.898438 4.457031 30.3125 4.589844 30.851562 5.078125 C 31.082031 5.535156 31.039062 5.96875 31.023438 6.46875 C 31.015625 6.808594 31.007812 7.148438 31 7.5 C 30.011719 7.5 29.019531 7.5 28 7.5 C 28 7.664062 28 7.828125 28 8 C 27.339844 8 26.679688 8 26 8 C 26 7.835938 26 7.671875 26 7.5 C 17.75 7.5 9.5 7.5 1 7.5 C 1 5.375 1 5.375 1.625 4.625 C 2.042969 4.417969 2.511719 4.484375 2.96875 4.484375 Z M 2.96875 4.484375 "/>
<path style=" stroke:none;fill-rule:nonzero;fill:rgb(0%,0%,0%);fill-opacity:1;" d="M 3.949219 18.464844 C 4.046875 18.464844 4.144531 18.46875 4.246094 18.46875 C 4.402344 18.46875 4.402344 18.46875 4.5625 18.464844 C 4.914062 18.464844 5.265625 18.464844 5.613281 18.46875 C 5.867188 18.46875 6.117188 18.464844 6.367188 18.464844 C 7.050781 18.464844 7.734375 18.464844 8.417969 18.464844 C 9.128906 18.464844 9.84375 18.464844 10.554688 18.464844 C 11.753906 18.464844 12.953125 18.464844 14.148438 18.46875 C 15.535156 18.46875 16.921875 18.46875 18.308594 18.464844 C 19.5 18.464844 20.6875 18.464844 21.875 18.464844 C 22.585938 18.464844 23.296875 18.464844 24.007812 18.464844 C 24.675781 18.464844 25.34375 18.464844 26.011719 18.464844 C 26.257812 18.46875 26.503906 18.46875 26.75 18.464844 C 27.085938 18.464844 27.417969 18.464844 27.753906 18.46875 C 27.851562 18.46875 27.949219 18.464844 28.050781 18.464844 C 28.722656 18.472656 28.722656 18.472656 29 18.75 C 29.03125 19.003906 29.03125 19.003906 29.035156 19.3125 C 29.035156 19.421875 29.035156 19.535156 29.035156 19.648438 C 29.035156 19.765625 29.03125 19.878906 29.03125 20 C 29.03125 20.117188 29.035156 20.230469 29.035156 20.351562 C 29.035156 20.460938 29.035156 20.574219 29.035156 20.6875 C 29.035156 20.789062 29.03125 20.890625 29.03125 20.996094 C 29 21.25 29 21.25 28.75 21.5 C 28.414062 21.523438 28.089844 21.535156 27.753906 21.53125 C 27.597656 21.53125 27.597656 21.53125 27.4375 21.53125 C 27.085938 21.535156 26.734375 21.53125 26.386719 21.53125 C 26.132812 21.53125 25.882812 21.53125 25.632812 21.535156 C 24.949219 21.535156 24.265625 21.535156 23.582031 21.535156 C 22.871094 21.53125 22.15625 21.535156 21.445312 21.535156 C 20.246094 21.535156 19.046875 21.535156 17.851562 21.53125 C 16.464844 21.53125 15.078125 21.53125 13.691406 21.53125 C 12.5 21.535156 11.3125 21.535156 10.125 21.535156 C 9.414062 21.53125 8.703125 21.53125 7.992188 21.535156 C 7.324219 21.535156 6.65625 21.535156 5.988281 21.53125 C 5.742188 21.53125 5.496094 21.53125 5.25 21.53125 C 4.914062 21.535156 4.582031 21.53125 4.246094 21.53125 C 4.148438 21.53125 4.050781 21.53125 3.949219 21.53125 C 3.277344 21.527344 3.277344 21.527344 3 21.25 C 2.96875 20.996094 2.96875 20.996094 2.96875 20.6875 C 2.964844 20.578125 2.964844 20.464844 2.964844 20.351562 C 2.96875 20.179688 2.96875 20.179688 2.96875 20 C 2.96875 19.882812 2.96875 19.769531 2.964844 19.648438 C 2.964844 19.539062 2.964844 19.425781 2.96875 19.3125 C 2.96875 19.210938 2.96875 19.109375 2.96875 19.003906 C 3.042969 18.414062 3.449219 18.46875 3.949219 18.464844 Z M 3.949219 18.464844 "/>
<path style=" stroke:none;fill-rule:nonzero;fill:rgb(0%,0%,0%);fill-opacity:1;" d="M 11.460938 21.96875 C 11.6875 21.96875 11.6875 21.96875 11.921875 21.964844 C 12.089844 21.96875 12.257812 21.96875 12.425781 21.96875 C 12.605469 21.96875 12.78125 21.96875 12.957031 21.964844 C 13.4375 21.964844 13.921875 21.964844 14.402344 21.96875 C 14.90625 21.96875 15.40625 21.96875 15.910156 21.964844 C 16.753906 21.964844 17.601562 21.964844 18.445312 21.96875 C 19.421875 21.96875 20.402344 21.96875 21.378906 21.96875 C 22.214844 21.964844 23.054688 21.964844 23.894531 21.964844 C 24.394531 21.96875 24.898438 21.96875 25.398438 21.964844 C 25.871094 21.964844 26.339844 21.964844 26.808594 21.96875 C 26.984375 21.96875 27.15625 21.96875 27.332031 21.96875 C 27.566406 21.964844 27.804688 21.96875 28.039062 21.96875 C 28.171875 21.96875 28.304688 21.96875 28.4375 21.96875 C 28.75 22 28.75 22 29 22.25 C 29.03125 22.597656 29.03125 22.597656 29.03125 23.03125 C 29.03125 23.1875 29.035156 23.34375 29.035156 23.503906 C 29.03125 23.667969 29.03125 23.832031 29.03125 24 C 29.03125 24.164062 29.03125 24.328125 29.035156 24.496094 C 29.035156 24.652344 29.03125 24.808594 29.03125 24.96875 C 29.03125 25.113281 29.03125 25.253906 29.03125 25.40625 C 29 25.75 29 25.75 28.75 26 C 28.4375 26.03125 28.4375 26.03125 28.039062 26.03125 C 27.8125 26.035156 27.8125 26.035156 27.578125 26.035156 C 27.410156 26.035156 27.242188 26.035156 27.074219 26.03125 C 26.898438 26.035156 26.71875 26.035156 26.542969 26.035156 C 26.058594 26.035156 25.578125 26.035156 25.097656 26.035156 C 24.59375 26.035156 24.089844 26.035156 23.589844 26.035156 C 22.746094 26.035156 21.898438 26.035156 21.054688 26.03125 C 20.078125 26.03125 19.097656 26.03125 18.121094 26.035156 C 17.28125 26.035156 16.445312 26.035156 15.605469 26.035156 C 15.105469 26.035156 14.601562 26.035156 14.101562 26.035156 C 13.632812 26.035156 13.160156 26.035156 12.6875 26.035156 C 12.515625 26.03125 12.34375 26.03125 12.167969 26.035156 C 11.933594 26.035156 11.699219 26.035156 11.460938 26.03125 C 11.328125 26.03125 11.199219 26.03125 11.0625 26.03125 C 10.75 26 10.75 26 10.5 25.75 C 10.46875 25.40625 10.46875 25.40625 10.464844 24.96875 C 10.464844 24.8125 10.464844 24.65625 10.464844 24.496094 C 10.464844 24.332031 10.46875 24.167969 10.46875 24 C 10.46875 23.835938 10.464844 23.671875 10.464844 23.503906 C 10.464844 23.347656 10.464844 23.191406 10.464844 23.03125 C 10.464844 22.886719 10.46875 22.742188 10.46875 22.597656 C 10.53125 21.929688 10.882812 21.96875 11.460938 21.96875 Z M 11.460938 21.96875 "/>
<path style=" stroke:none;fill-rule:nonzero;fill:rgb(100%,79.607844%,34.901962%);fill-opacity:1;" d="M 11.5 23 C 16.945312 23 22.390625 23 28 23 C 28 23.660156 28 24.320312 28 25 C 22.554688 25 17.109375 25 11.5 25 C 11.5 24.339844 11.5 23.679688 11.5 23 Z M 11.5 23 "/>
<path style=" stroke:none;fill-rule:nonzero;fill:rgb(0%,0%,0%);fill-opacity:1;" d="M 3.871094 21.96875 C 4.066406 21.964844 4.066406 21.964844 4.261719 21.964844 C 4.472656 21.964844 4.472656 21.964844 4.6875 21.964844 C 4.832031 21.964844 4.972656 21.964844 5.121094 21.964844 C 5.425781 21.964844 5.730469 21.964844 6.03125 21.96875 C 6.5 21.96875 6.964844 21.96875 7.429688 21.964844 C 7.722656 21.964844 8.019531 21.964844 8.3125 21.964844 C 8.453125 21.964844 8.59375 21.964844 8.738281 21.964844 C 8.867188 21.964844 8.996094 21.964844 9.128906 21.96875 C 9.300781 21.96875 9.300781 21.96875 9.476562 21.96875 C 9.75 22 9.75 22 10 22.25 C 10.03125 22.59375 10.03125 22.59375 10.035156 23.03125 C 10.035156 23.265625 10.035156 23.265625 10.035156 23.503906 C 10.035156 23.667969 10.03125 23.832031 10.03125 24 C 10.03125 24.246094 10.03125 24.246094 10.035156 24.496094 C 10.035156 24.652344 10.035156 24.808594 10.035156 24.96875 C 10.03125 25.113281 10.03125 25.257812 10.03125 25.402344 C 10 25.75 10 25.75 9.75 26 C 9.476562 26.03125 9.476562 26.03125 9.128906 26.03125 C 9 26.03125 8.871094 26.035156 8.738281 26.035156 C 8.527344 26.035156 8.527344 26.035156 8.3125 26.03125 C 8.097656 26.035156 8.097656 26.035156 7.878906 26.035156 C 7.574219 26.035156 7.269531 26.035156 6.96875 26.03125 C 6.503906 26.03125 6.035156 26.03125 5.570312 26.035156 C 5.277344 26.035156 4.980469 26.035156 4.6875 26.03125 C 4.546875 26.035156 4.40625 26.035156 4.261719 26.035156 C 4.070312 26.035156 4.070312 26.035156 3.871094 26.03125 C 3.757812 26.03125 3.640625 26.03125 3.523438 26.03125 C 3.25 26 3.25 26 3 25.75 C 2.96875 25.402344 2.96875 25.402344 2.96875 24.96875 C 2.964844 24.8125 2.964844 24.65625 2.964844 24.496094 C 2.96875 24.332031 2.96875 24.167969 2.96875 24 C 2.96875 23.835938 2.96875 23.671875 2.964844 23.503906 C 2.964844 23.347656 2.964844 23.191406 2.96875 23.03125 C 2.96875 22.886719 2.96875 22.742188 2.96875 22.59375 C 3.027344 21.972656 3.320312 21.96875 3.871094 21.96875 Z M 3.871094 21.96875 "/>
<path style=" stroke:none;fill-rule:nonzero;fill:rgb(100%,88.235295%,40.784314%);fill-opacity:1;" d="M 4 19.5 C 11.921875 19.5 19.839844 19.5 28 19.5 C 28 19.828125 28 20.160156 28 20.5 C 20.078125 20.5 12.160156 20.5 4 20.5 C 4 20.171875 4 19.839844 4 19.5 Z M 4 19.5 "/>
<path style=" stroke:none;fill-rule:nonzero;fill:rgb(0%,0%,0%);fill-opacity:1;" d="M 21.53125 11.46875 C 21.765625 11.46875 21.765625 11.46875 22.003906 11.464844 C 22.25 11.46875 22.25 11.46875 22.5 11.46875 C 22.664062 11.46875 22.828125 11.46875 22.996094 11.464844 C 23.152344 11.464844 23.308594 11.46875 23.46875 11.46875 C 23.613281 11.46875 23.757812 11.46875 23.902344 11.46875 C 24.25 11.5 24.25 11.5 24.5 11.75 C 24.53125 12.003906 24.53125 12.003906 24.535156 12.3125 C 24.535156 12.480469 24.535156 12.480469 24.535156 12.648438 C 24.535156 12.765625 24.53125 12.878906 24.53125 13 C 24.53125 13.175781 24.53125 13.175781 24.535156 13.351562 C 24.535156 13.464844 24.535156 13.574219 24.535156 13.6875 C 24.53125 13.789062 24.53125 13.890625 24.53125 13.996094 C 24.5 14.25 24.5 14.25 24.25 14.5 C 23.96875 14.527344 23.96875 14.527344 23.625 14.523438 C 23.5 14.523438 23.378906 14.523438 23.25 14.523438 C 23.058594 14.519531 23.058594 14.519531 22.859375 14.515625 C 22.730469 14.515625 22.597656 14.511719 22.464844 14.511719 C 22.144531 14.507812 21.820312 14.503906 21.5 14.5 C 21.5 15.160156 21.5 15.820312 21.5 16.5 C 21.171875 16.5 20.839844 16.5 20.5 16.5 C 20.492188 15.828125 20.488281 15.15625 20.484375 14.484375 C 20.484375 14.253906 20.484375 14.027344 20.480469 13.796875 C 20.476562 13.46875 20.476562 13.140625 20.476562 12.8125 C 20.472656 12.710938 20.472656 12.609375 20.472656 12.503906 C 20.472656 12.25 20.484375 12 20.5 11.75 C 20.84375 11.40625 21.046875 11.46875 21.53125 11.46875 Z M 21.53125 11.46875 "/>
<path style=" stroke:none;fill-rule:nonzero;fill:rgb(0%,0%,0%);fill-opacity:1;" d="M 7.5 11.5 C 7.828125 11.5 8.160156 11.5 8.5 11.5 C 8.5 12.160156 8.5 12.820312 8.5 13.5 C 9.160156 13.5 9.820312 13.5 10.5 13.5 C 10.5 12.839844 10.5 12.179688 10.5 11.5 C 10.828125 11.5 11.160156 11.5 11.5 11.5 C 11.5 13.148438 11.5 14.800781 11.5 16.5 C 11.171875 16.5 10.839844 16.5 10.5 16.5 C 10.5 15.839844 10.5 15.179688 10.5 14.5 C 9.839844 14.5 9.179688 14.5 8.5 14.5 C 8.5 15.160156 8.5 15.820312 8.5 16.5 C 8.171875 16.5 7.839844 16.5 7.5 16.5 C 7.5 14.851562 7.5 13.199219 7.5 11.5 Z M 7.5 11.5 "/>
<path style=" stroke:none;fill-rule:nonzero;fill:rgb(94.901961%,60.000002%,9.803922%);fill-opacity:1;" d="M 4 23 C 5.648438 23 7.300781 23 9 23 C 9 23.660156 9 24.320312 9 25 C 7.351562 25 5.699219 25 4 25 C 4 24.339844 4 23.679688 4 23 Z M 4 23 "/>
<path style=" stroke:none;fill-rule:nonzero;fill:rgb(1.568628%,1.568628%,1.568628%);fill-opacity:1;" d="M 5.777344 10.757812 C 6 10.875 6 10.875 6.25 11.125 C 6.21875 11.605469 5.953125 11.839844 5.621094 12.164062 C 5.519531 12.265625 5.417969 12.367188 5.3125 12.46875 C 5.15625 12.625 5.15625 12.625 4.992188 12.78125 C 4.832031 12.9375 4.832031 12.9375 4.667969 13.101562 C 4.40625 13.359375 4.140625 13.617188 3.875 13.875 C 4.054688 14.296875 4.285156 14.558594 4.617188 14.871094 C 4.714844 14.964844 4.808594 15.054688 4.910156 15.148438 C 5.113281 15.34375 5.3125 15.535156 5.519531 15.726562 C 5.660156 15.863281 5.660156 15.863281 5.804688 16.003906 C 5.894531 16.085938 5.984375 16.171875 6.074219 16.257812 C 6.25 16.5 6.25 16.5 6.230469 16.765625 C 6.125 17 6.125 17 5.875 17.25 C 5.351562 17.230469 5.042969 16.851562 4.691406 16.507812 C 4.628906 16.445312 4.566406 16.382812 4.5 16.316406 C 4.367188 16.1875 4.234375 16.054688 4.101562 15.921875 C 3.898438 15.71875 3.691406 15.519531 3.488281 15.320312 C 3.359375 15.191406 3.226562 15.066406 3.097656 14.9375 C 3.039062 14.875 2.976562 14.816406 2.910156 14.757812 C 2.644531 14.484375 2.503906 14.324219 2.488281 13.9375 C 2.667969 13.527344 2.933594 13.242188 3.25 12.929688 C 3.34375 12.835938 3.34375 12.835938 3.4375 12.738281 C 3.570312 12.605469 3.703125 12.476562 3.835938 12.34375 C 4.039062 12.140625 4.238281 11.9375 4.441406 11.730469 C 4.570312 11.601562 4.699219 11.472656 4.828125 11.34375 C 4.886719 11.285156 4.945312 11.222656 5.007812 11.160156 C 5.429688 10.746094 5.429688 10.746094 5.777344 10.757812 Z M 5.777344 10.757812 "/>
<path style=" stroke:none;fill-rule:nonzero;fill:rgb(1.176471%,1.176471%,1.176471%);fill-opacity:1;" d="M 26.25 10.75 C 26.949219 11.042969 27.441406 11.636719 27.96875 12.160156 C 28.164062 12.351562 28.359375 12.539062 28.558594 12.730469 C 28.679688 12.851562 28.804688 12.972656 28.929688 13.097656 C 29.042969 13.207031 29.152344 13.316406 29.269531 13.429688 C 29.5 13.75 29.5 13.75 29.515625 14.058594 C 29.328125 14.476562 29.058594 14.753906 28.734375 15.066406 C 28.671875 15.128906 28.605469 15.191406 28.542969 15.257812 C 28.339844 15.453125 28.132812 15.652344 27.929688 15.851562 C 27.792969 15.988281 27.652344 16.121094 27.515625 16.257812 C 27.179688 16.589844 26.839844 16.921875 26.5 17.25 C 26.027344 17.0625 26 17 25.75 16.5 C 26.535156 15.714844 27.316406 14.933594 28.125 14.125 C 27.894531 13.667969 27.742188 13.46875 27.382812 13.128906 C 27.285156 13.039062 27.191406 12.945312 27.089844 12.851562 C 26.890625 12.65625 26.6875 12.464844 26.484375 12.273438 C 26.386719 12.183594 26.292969 12.089844 26.195312 11.996094 C 26.0625 11.871094 26.0625 11.871094 25.925781 11.742188 C 25.75 11.5 25.75 11.5 25.761719 11.234375 C 25.875 11 25.875 11 26.25 10.75 Z M 26.25 10.75 "/>
<path style=" stroke:none;fill-rule:nonzero;fill:rgb(0%,0%,0%);fill-opacity:1;" d="M 16.5 11.5 C 17.488281 11.5 18.480469 11.5 19.5 11.5 C 19.5 11.828125 19.5 12.160156 19.5 12.5 C 19.171875 12.5 18.839844 12.5 18.5 12.5 C 18.5 13.820312 18.5 15.140625 18.5 16.5 C 18.171875 16.5 17.839844 16.5 17.5 16.5 C 17.5 15.179688 17.5 13.859375 17.5 12.5 C 17.171875 12.5 16.839844 12.5 16.5 12.5 C 16.5 12.171875 16.5 11.839844 16.5 11.5 Z M 16.5 11.5 "/>
<path style=" stroke:none;fill-rule:nonzero;fill:rgb(0%,0%,0%);fill-opacity:1;" d="M 12.5 11.5 C 13.488281 11.5 14.480469 11.5 15.5 11.5 C 15.5 11.828125 15.5 12.160156 15.5 12.5 C 15.171875 12.5 14.839844 12.5 14.5 12.5 C 14.5 13.820312 14.5 15.140625 14.5 16.5 C 14.171875 16.5 13.839844 16.5 13.5 16.5 C 13.5 15.179688 13.5 13.859375 13.5 12.5 C 13.171875 12.5 12.839844 12.5 12.5 12.5 C 12.5 12.171875 12.5 11.839844 12.5 11.5 Z M 12.5 11.5 "/>
<path style=" stroke:none;fill-rule:nonzero;fill:rgb(80.000001%,89.019608%,91.764706%);fill-opacity:1;" d="M 21.5 12.5 C 22.160156 12.5 22.820312 12.5 23.5 12.5 C 23.5 12.828125 23.5 13.160156 23.5 13.5 C 22.839844 13.5 22.179688 13.5 21.5 13.5 C 21.5 13.171875 21.5 12.839844 21.5 12.5 Z M 21.5 12.5 "/>
<path style=" stroke:none;fill-rule:nonzero;fill:rgb(0%,0%,0%);fill-opacity:1;" d="M 6 5.5 C 6.328125 5.5 6.660156 5.5 7 5.5 C 7 5.828125 7 6.160156 7 6.5 C 6.671875 6.5 6.339844 6.5 6 6.5 C 6 6.171875 6 5.839844 6 5.5 Z M 6 5.5 "/>
<path style=" stroke:none;fill-rule:nonzero;fill:rgb(0%,0%,0%);fill-opacity:1;" d="M 4 5.5 C 4.328125 5.5 4.660156 5.5 5 5.5 C 5 5.828125 5 6.160156 5 6.5 C 4.671875 6.5 4.339844 6.5 4 6.5 C 4 6.171875 4 5.839844 4 5.5 Z M 4 5.5 "/>
<path style=" stroke:none;fill-rule:nonzero;fill:rgb(0%,0%,0%);fill-opacity:1;" d="M 2 5.5 C 2.328125 5.5 2.660156 5.5 3 5.5 C 3 5.828125 3 6.160156 3 6.5 C 2.671875 6.5 2.339844 6.5 2 6.5 C 2 6.171875 2 5.839844 2 5.5 Z M 2 5.5 "/>
</g>
</svg>
