<?xml version="1.0" encoding="UTF-8"?>
<svg xmlns="http://www.w3.org/2000/svg" xmlns:xlink="http://www.w3.org/1999/xlink" width="32" height="32" viewBox="0 0 32 32" version="1.1">
<g id="surface1">
<path style=" stroke:none;fill-rule:nonzero;fill:rgb(83.529413%,91.37255%,98.431373%);fill-opacity:1;" d="M 14.941406 1.097656 C 15.070312 1.097656 15.199219 1.097656 15.332031 1.101562 C 15.472656 1.101562 15.613281 1.101562 15.757812 1.101562 C 15.90625 1.105469 16.050781 1.105469 16.203125 1.109375 C 16.425781 1.113281 16.425781 1.113281 16.652344 1.113281 C 17.019531 1.117188 17.382812 1.121094 17.75 1.125 C 17.957031 1.539062 17.886719 2 17.882812 2.453125 C 17.882812 2.554688 17.882812 2.652344 17.882812 2.757812 C 17.878906 3.003906 17.878906 3.253906 17.875 3.5 C 18.003906 3.515625 18.132812 3.527344 18.261719 3.546875 C 18.722656 3.621094 19.105469 3.734375 19.539062 3.90625 C 19.679688 3.960938 19.820312 4.015625 19.960938 4.074219 C 20.445312 4.28125 20.902344 4.523438 21.359375 4.785156 C 21.621094 4.902344 21.621094 4.902344 21.878906 4.800781 C 22.261719 4.527344 22.539062 4.175781 22.839844 3.824219 C 23.125 3.625 23.125 3.625 23.53125 3.632812 C 24.097656 3.773438 24.398438 4.039062 24.792969 4.445312 C 24.863281 4.515625 24.933594 4.585938 25.007812 4.660156 C 25.152344 4.808594 25.300781 4.957031 25.449219 5.105469 C 25.671875 5.335938 25.898438 5.558594 26.125 5.785156 C 26.269531 5.929688 26.414062 6.074219 26.558594 6.21875 C 26.625 6.285156 26.691406 6.355469 26.761719 6.421875 C 27.171875 6.84375 27.371094 7.15625 27.375 7.75 C 27.152344 8.039062 26.960938 8.246094 26.695312 8.484375 C 26.628906 8.546875 26.5625 8.609375 26.496094 8.671875 C 26.332031 8.824219 26.167969 8.976562 26 9.125 C 26.03125 9.191406 26.0625 9.253906 26.097656 9.324219 C 26.246094 9.625 26.394531 9.929688 26.539062 10.234375 C 26.589844 10.335938 26.640625 10.441406 26.691406 10.546875 C 27.5 12.226562 27.5 12.226562 27.5 13.125 C 28.242188 13.125 28.984375 13.125 29.75 13.125 C 29.894531 13.414062 29.890625 13.574219 29.890625 13.894531 C 29.890625 14 29.890625 14.109375 29.894531 14.21875 C 29.890625 14.394531 29.890625 14.394531 29.890625 14.570312 C 29.890625 14.6875 29.890625 14.808594 29.890625 14.929688 C 29.890625 15.179688 29.890625 15.433594 29.890625 15.683594 C 29.890625 16.070312 29.890625 16.457031 29.890625 16.839844 C 29.890625 17.085938 29.890625 17.328125 29.890625 17.570312 C 29.890625 17.6875 29.890625 17.804688 29.894531 17.921875 C 29.890625 18.082031 29.890625 18.082031 29.890625 18.246094 C 29.890625 18.339844 29.890625 18.433594 29.890625 18.53125 C 29.875 18.75 29.875 18.75 29.75 18.875 C 29.582031 18.886719 29.414062 18.886719 29.246094 18.886719 C 29.144531 18.886719 29.042969 18.886719 28.9375 18.886719 C 28.832031 18.886719 28.726562 18.882812 28.617188 18.882812 C 28.511719 18.882812 28.402344 18.882812 28.292969 18.882812 C 28.027344 18.878906 27.765625 18.878906 27.5 18.875 C 27.492188 18.949219 27.480469 19.023438 27.46875 19.105469 C 27.273438 20.441406 26.605469 21.679688 26 22.875 C 26.101562 22.964844 26.203125 23.054688 26.304688 23.148438 C 26.433594 23.273438 26.566406 23.394531 26.695312 23.515625 C 26.761719 23.574219 26.828125 23.632812 26.898438 23.695312 C 27.085938 23.875 27.085938 23.875 27.375 24.25 C 27.371094 24.84375 27.171875 25.152344 26.761719 25.578125 C 26.695312 25.644531 26.628906 25.710938 26.558594 25.78125 C 26.488281 25.851562 26.417969 25.921875 26.34375 25.992188 C 26.199219 26.144531 26.050781 26.292969 25.898438 26.4375 C 25.671875 26.664062 25.449219 26.890625 25.226562 27.121094 C 25.082031 27.265625 24.9375 27.410156 24.792969 27.554688 C 24.726562 27.621094 24.660156 27.6875 24.589844 27.757812 C 24.125 28.210938 23.773438 28.371094 23.125 28.375 C 22.765625 28.113281 22.765625 28.113281 22.445312 27.757812 C 22.335938 27.640625 22.230469 27.523438 22.117188 27.402344 C 22.039062 27.3125 21.957031 27.21875 21.875 27.125 C 21.339844 27.292969 20.84375 27.5 20.335938 27.742188 C 18.710938 28.5 18.710938 28.5 17.875 28.5 C 17.875 28.648438 17.878906 28.800781 17.878906 28.957031 C 17.878906 29.152344 17.882812 29.351562 17.882812 29.546875 C 17.882812 29.648438 17.886719 29.746094 17.886719 29.847656 C 17.890625 30.597656 17.890625 30.597656 17.75 30.875 C 17.234375 30.882812 16.71875 30.886719 16.203125 30.890625 C 16.054688 30.894531 15.910156 30.894531 15.757812 30.898438 C 15.546875 30.898438 15.546875 30.898438 15.332031 30.898438 C 15.203125 30.898438 15.074219 30.902344 14.941406 30.902344 C 14.625 30.875 14.625 30.875 14.375 30.625 C 14.34375 30.359375 14.34375 30.359375 14.34375 30.027344 C 14.339844 29.90625 14.339844 29.78125 14.339844 29.652344 C 14.339844 29.519531 14.339844 29.386719 14.339844 29.246094 C 14.339844 29.109375 14.339844 28.972656 14.339844 28.832031 C 14.339844 28.539062 14.339844 28.246094 14.34375 27.957031 C 14.34375 27.511719 14.34375 27.0625 14.339844 26.617188 C 14.339844 26.335938 14.339844 26.054688 14.339844 25.769531 C 14.339844 25.636719 14.339844 25.5 14.339844 25.363281 C 14.339844 25.238281 14.339844 25.117188 14.34375 24.988281 C 14.34375 24.878906 14.34375 24.769531 14.34375 24.65625 C 14.375 24.375 14.375 24.375 14.625 24 C 14.996094 23.925781 15.351562 23.871094 15.726562 23.828125 C 17.984375 23.511719 19.894531 22.585938 21.289062 20.742188 C 22.652344 18.816406 23.09375 16.664062 22.699219 14.328125 C 22.25 12.28125 20.957031 10.46875 19.210938 9.316406 C 17.882812 8.558594 16.535156 8.234375 15.027344 8.082031 C 14.625 8 14.625 8 14.375 7.625 C 14.34375 7.34375 14.34375 7.34375 14.34375 7.011719 C 14.339844 6.886719 14.339844 6.765625 14.339844 6.636719 C 14.339844 6.5 14.339844 6.367188 14.339844 6.230469 C 14.339844 6.09375 14.339844 5.957031 14.339844 5.8125 C 14.339844 5.523438 14.339844 5.230469 14.34375 4.941406 C 14.34375 4.492188 14.34375 4.046875 14.339844 3.601562 C 14.339844 3.316406 14.339844 3.035156 14.339844 2.753906 C 14.339844 2.550781 14.339844 2.550781 14.339844 2.347656 C 14.339844 2.222656 14.339844 2.097656 14.34375 1.972656 C 14.34375 1.863281 14.34375 1.753906 14.34375 1.640625 C 14.394531 1.226562 14.535156 1.132812 14.941406 1.097656 Z M 14.941406 1.097656 "/>
<path style=" stroke:none;fill-rule:nonzero;fill:rgb(0.784314%,0.784314%,0%);fill-opacity:1;" d="M 13.625 3.25 C 13.980469 3.605469 13.917969 3.960938 13.921875 4.441406 C 13.921875 4.535156 13.921875 4.628906 13.925781 4.722656 C 13.925781 4.921875 13.925781 5.117188 13.929688 5.3125 C 13.929688 5.617188 13.9375 5.917969 13.941406 6.21875 C 13.945312 6.410156 13.945312 6.601562 13.945312 6.792969 C 13.949219 6.882812 13.949219 6.972656 13.953125 7.066406 C 13.949219 7.320312 13.949219 7.320312 13.875 7.75 C 13.472656 8.078125 13.042969 8.203125 12.546875 8.351562 C 11.867188 8.566406 11.296875 8.859375 10.695312 9.242188 C 10.28125 9.414062 10.050781 9.371094 9.625 9.25 C 9.335938 9.070312 9.125 8.859375 8.875 8.625 C 8.460938 9.039062 8.050781 9.449219 7.625 9.875 C 7.84375 10.367188 7.84375 10.367188 8.148438 10.679688 C 8.375 11 8.375 11 8.351562 11.28125 C 8.226562 11.707031 8.035156 12.070312 7.828125 12.460938 C 7.5 13.089844 7.246094 13.699219 7.078125 14.390625 C 7 14.625 7 14.625 6.75 14.875 C 6.289062 14.910156 5.835938 14.886719 5.375 14.875 C 5.375 15.617188 5.375 16.359375 5.375 17.125 C 5.59375 17.113281 5.8125 17.097656 6.039062 17.085938 C 6.414062 17.0625 6.414062 17.0625 6.75 17.125 C 7.074219 17.527344 7.207031 17.960938 7.351562 18.453125 C 7.566406 19.136719 7.863281 19.710938 8.242188 20.316406 C 8.40625 20.695312 8.386719 20.863281 8.25 21.25 C 7.929688 21.601562 7.929688 21.601562 7.625 21.875 C 7.808594 22.304688 8.054688 22.582031 8.390625 22.90625 C 8.480469 22.996094 8.570312 23.082031 8.664062 23.171875 C 8.734375 23.238281 8.804688 23.304688 8.875 23.375 C 8.96875 23.292969 8.96875 23.292969 9.066406 23.207031 C 9.152344 23.136719 9.238281 23.066406 9.328125 22.992188 C 9.453125 22.886719 9.453125 22.886719 9.582031 22.777344 C 9.988281 22.566406 10.1875 22.625 10.625 22.75 C 10.910156 22.882812 11.191406 23.023438 11.46875 23.171875 C 12.09375 23.5 12.703125 23.753906 13.390625 23.921875 C 13.625 24 13.625 24 13.875 24.25 C 13.898438 24.570312 13.910156 24.875 13.910156 25.195312 C 13.910156 25.289062 13.910156 25.382812 13.910156 25.480469 C 13.910156 25.675781 13.910156 25.875 13.90625 26.070312 C 13.90625 26.375 13.90625 26.675781 13.910156 26.980469 C 13.910156 27.171875 13.910156 27.363281 13.910156 27.554688 C 13.910156 27.644531 13.910156 27.734375 13.910156 27.828125 C 13.902344 28.472656 13.902344 28.472656 13.625 28.75 C 10.910156 28.972656 8.082031 27.152344 6.109375 25.476562 C 3.742188 23.253906 2.203125 20.121094 2.082031 16.859375 C 2.058594 15.21875 2.136719 13.695312 2.625 12.125 C 2.667969 11.984375 2.710938 11.84375 2.757812 11.695312 C 3.921875 8.382812 6.292969 5.855469 9.421875 4.289062 C 10.703125 3.707031 12.199219 3.148438 13.625 3.25 Z M 13.625 3.25 "/>
<path style=" stroke:none;fill-rule:nonzero;fill:rgb(1.176471%,1.176471%,1.176471%);fill-opacity:1;" d="M 14.941406 1.097656 C 15.070312 1.097656 15.199219 1.097656 15.332031 1.101562 C 15.472656 1.101562 15.613281 1.101562 15.757812 1.101562 C 15.90625 1.105469 16.050781 1.105469 16.203125 1.109375 C 16.425781 1.113281 16.425781 1.113281 16.652344 1.113281 C 17.019531 1.117188 17.382812 1.121094 17.75 1.125 C 17.957031 1.539062 17.886719 2 17.882812 2.453125 C 17.882812 2.554688 17.882812 2.652344 17.882812 2.757812 C 17.878906 3.003906 17.878906 3.253906 17.875 3.5 C 18.003906 3.515625 18.132812 3.527344 18.261719 3.546875 C 18.722656 3.621094 19.105469 3.734375 19.539062 3.90625 C 19.679688 3.960938 19.820312 4.015625 19.960938 4.074219 C 20.445312 4.28125 20.902344 4.523438 21.359375 4.785156 C 21.621094 4.902344 21.621094 4.902344 21.878906 4.800781 C 22.261719 4.527344 22.539062 4.175781 22.839844 3.824219 C 23.125 3.625 23.125 3.625 23.53125 3.632812 C 24.097656 3.773438 24.398438 4.039062 24.792969 4.445312 C 24.863281 4.515625 24.933594 4.585938 25.007812 4.660156 C 25.152344 4.808594 25.300781 4.957031 25.449219 5.105469 C 25.671875 5.335938 25.898438 5.558594 26.125 5.785156 C 26.269531 5.929688 26.414062 6.074219 26.558594 6.21875 C 26.625 6.285156 26.691406 6.355469 26.761719 6.421875 C 27.171875 6.84375 27.371094 7.15625 27.375 7.75 C 27.152344 8.039062 26.960938 8.246094 26.695312 8.484375 C 26.628906 8.546875 26.5625 8.609375 26.496094 8.671875 C 26.332031 8.824219 26.167969 8.976562 26 9.125 C 26.03125 9.191406 26.0625 9.253906 26.097656 9.324219 C 26.246094 9.625 26.394531 9.929688 26.539062 10.234375 C 26.589844 10.335938 26.640625 10.441406 26.691406 10.546875 C 27.5 12.226562 27.5 12.226562 27.5 13.125 C 28.242188 13.125 28.984375 13.125 29.75 13.125 C 29.894531 13.414062 29.890625 13.574219 29.890625 13.894531 C 29.890625 14 29.890625 14.109375 29.894531 14.21875 C 29.890625 14.394531 29.890625 14.394531 29.890625 14.570312 C 29.890625 14.6875 29.890625 14.808594 29.890625 14.929688 C 29.890625 15.179688 29.890625 15.433594 29.890625 15.683594 C 29.890625 16.070312 29.890625 16.457031 29.890625 16.839844 C 29.890625 17.085938 29.890625 17.328125 29.890625 17.570312 C 29.890625 17.6875 29.890625 17.804688 29.894531 17.921875 C 29.890625 18.082031 29.890625 18.082031 29.890625 18.246094 C 29.890625 18.339844 29.890625 18.433594 29.890625 18.53125 C 29.875 18.75 29.875 18.75 29.75 18.875 C 29.582031 18.886719 29.414062 18.886719 29.246094 18.886719 C 29.144531 18.886719 29.042969 18.886719 28.9375 18.886719 C 28.832031 18.886719 28.726562 18.882812 28.617188 18.882812 C 28.511719 18.882812 28.402344 18.882812 28.292969 18.882812 C 28.027344 18.878906 27.765625 18.878906 27.5 18.875 C 27.492188 18.949219 27.480469 19.023438 27.46875 19.105469 C 27.273438 20.441406 26.605469 21.679688 26 22.875 C 26.101562 22.964844 26.203125 23.054688 26.304688 23.148438 C 26.433594 23.273438 26.566406 23.394531 26.695312 23.515625 C 26.761719 23.574219 26.828125 23.632812 26.898438 23.695312 C 27.085938 23.875 27.085938 23.875 27.375 24.25 C 27.371094 24.84375 27.171875 25.152344 26.761719 25.578125 C 26.695312 25.644531 26.628906 25.710938 26.558594 25.78125 C 26.488281 25.851562 26.417969 25.921875 26.34375 25.992188 C 26.199219 26.144531 26.050781 26.292969 25.898438 26.4375 C 25.671875 26.664062 25.449219 26.890625 25.226562 27.121094 C 25.082031 27.265625 24.9375 27.410156 24.792969 27.554688 C 24.726562 27.621094 24.660156 27.6875 24.589844 27.757812 C 24.125 28.210938 23.773438 28.371094 23.125 28.375 C 22.765625 28.113281 22.765625 28.113281 22.445312 27.757812 C 22.335938 27.640625 22.230469 27.523438 22.117188 27.402344 C 22.039062 27.3125 21.957031 27.21875 21.875 27.125 C 21.339844 27.292969 20.84375 27.5 20.335938 27.742188 C 18.710938 28.5 18.710938 28.5 17.875 28.5 C 17.875 28.648438 17.878906 28.800781 17.878906 28.957031 C 17.878906 29.152344 17.882812 29.351562 17.882812 29.546875 C 17.882812 29.648438 17.886719 29.746094 17.886719 29.847656 C 17.890625 30.597656 17.890625 30.597656 17.75 30.875 C 17.234375 30.882812 16.71875 30.886719 16.203125 30.890625 C 16.054688 30.894531 15.910156 30.894531 15.757812 30.898438 C 15.546875 30.898438 15.546875 30.898438 15.332031 30.898438 C 15.203125 30.898438 15.074219 30.902344 14.941406 30.902344 C 14.625 30.875 14.625 30.875 14.375 30.625 C 14.34375 30.359375 14.34375 30.359375 14.34375 30.027344 C 14.339844 29.90625 14.339844 29.78125 14.339844 29.652344 C 14.339844 29.519531 14.339844 29.386719 14.339844 29.246094 C 14.339844 29.109375 14.339844 28.972656 14.339844 28.832031 C 14.339844 28.539062 14.339844 28.246094 14.34375 27.957031 C 14.34375 27.511719 14.34375 27.0625 14.339844 26.617188 C 14.339844 26.335938 14.339844 26.054688 14.339844 25.769531 C 14.339844 25.636719 14.339844 25.5 14.339844 25.363281 C 14.339844 25.238281 14.339844 25.117188 14.34375 24.988281 C 14.34375 24.878906 14.34375 24.769531 14.34375 24.65625 C 14.375 24.375 14.375 24.375 14.625 24 C 14.996094 23.925781 15.351562 23.871094 15.726562 23.828125 C 17.984375 23.511719 19.894531 22.585938 21.289062 20.742188 C 22.652344 18.816406 23.09375 16.664062 22.699219 14.328125 C 22.25 12.28125 20.957031 10.46875 19.210938 9.316406 C 17.882812 8.558594 16.535156 8.234375 15.027344 8.082031 C 14.625 8 14.625 8 14.375 7.625 C 14.34375 7.34375 14.34375 7.34375 14.34375 7.011719 C 14.339844 6.886719 14.339844 6.765625 14.339844 6.636719 C 14.339844 6.5 14.339844 6.367188 14.339844 6.230469 C 14.339844 6.09375 14.339844 5.957031 14.339844 5.8125 C 14.339844 5.523438 14.339844 5.230469 14.34375 4.941406 C 14.34375 4.492188 14.34375 4.046875 14.339844 3.601562 C 14.339844 3.316406 14.339844 3.035156 14.339844 2.753906 C 14.339844 2.550781 14.339844 2.550781 14.339844 2.347656 C 14.339844 2.222656 14.339844 2.097656 14.34375 1.972656 C 14.34375 1.863281 14.34375 1.753906 14.34375 1.640625 C 14.394531 1.226562 14.535156 1.132812 14.941406 1.097656 Z M 15.5 2.125 C 15.5 3.734375 15.5 5.34375 15.5 7 C 16.160156 7.125 16.820312 7.246094 17.5 7.375 C 19.925781 8.175781 21.808594 9.734375 23 12 C 23.964844 14.113281 24.242188 16.421875 23.546875 18.664062 C 22.511719 21.433594 20.816406 23.140625 18.125 24.375 C 17.5 24.625 17.5 24.625 15.5 25 C 15.5 26.609375 15.5 28.21875 15.5 29.875 C 15.953125 29.875 16.40625 29.875 16.875 29.875 C 16.917969 29.175781 16.957031 28.472656 17 27.75 C 17.464844 27.625 17.464844 27.625 17.9375 27.5 C 19.203125 27.144531 20.402344 26.605469 21.5 25.875 C 21.800781 25.824219 21.800781 25.824219 22.125 25.875 C 22.414062 26.125 22.414062 26.125 22.695312 26.445312 C 22.960938 26.765625 22.960938 26.765625 23.25 27 C 23.730469 26.964844 23.964844 26.703125 24.292969 26.371094 C 24.390625 26.269531 24.492188 26.167969 24.59375 26.0625 C 24.695312 25.957031 24.800781 25.851562 24.90625 25.742188 C 25.011719 25.636719 25.117188 25.527344 25.222656 25.417969 C 25.484375 25.15625 25.742188 24.890625 26 24.625 C 25.765625 24.128906 25.472656 23.855469 25.058594 23.496094 C 24.796875 23.144531 24.816406 22.929688 24.875 22.5 C 25.0625 22.140625 25.0625 22.140625 25.320312 21.75 C 26.039062 20.59375 26.375 19.296875 26.75 18 C 27.800781 17.9375 27.800781 17.9375 28.875 17.875 C 28.875 16.636719 28.875 15.398438 28.875 14.125 C 28.175781 14.085938 27.472656 14.042969 26.75 14 C 26.707031 13.839844 26.664062 13.683594 26.621094 13.519531 C 26.0625 11.355469 26.0625 11.355469 24.875 9.5 C 24.816406 9.019531 24.820312 8.820312 25.121094 8.429688 C 25.226562 8.335938 25.332031 8.238281 25.4375 8.140625 C 25.59375 7.992188 25.59375 7.992188 25.753906 7.84375 C 25.835938 7.773438 25.917969 7.699219 26 7.625 C 25.710938 6.96875 25.199219 6.523438 24.703125 6.023438 C 24.558594 5.871094 24.558594 5.871094 24.410156 5.71875 C 24.320312 5.625 24.226562 5.53125 24.128906 5.433594 C 24.046875 5.347656 23.960938 5.261719 23.871094 5.171875 C 23.640625 4.96875 23.640625 4.96875 23.359375 5.019531 C 22.941406 5.207031 22.683594 5.574219 22.386719 5.910156 C 22.125 6.125 22.125 6.125 21.816406 6.175781 C 21.449219 6.117188 21.257812 6.003906 20.953125 5.796875 C 19.742188 5.035156 18.382812 4.589844 17 4.25 C 16.960938 3.550781 16.917969 2.847656 16.875 2.125 C 16.421875 2.125 15.96875 2.125 15.5 2.125 Z M 15.5 2.125 "/>
<path style=" stroke:none;fill-rule:nonzero;fill:rgb(97.254902%,67.843139%,15.294118%);fill-opacity:1;" d="M 12.875 4.375 C 12.875 5.28125 12.875 6.191406 12.875 7.125 C 12.648438 7.199219 12.421875 7.269531 12.1875 7.34375 C 11.703125 7.503906 11.257812 7.671875 10.8125 7.921875 C 10.375 8.125 10.375 8.125 10.121094 8.035156 C 9.890625 7.882812 9.699219 7.730469 9.5 7.539062 C 9.171875 7.222656 9.171875 7.222656 8.886719 7.261719 C 8.289062 7.519531 7.851562 8.078125 7.398438 8.53125 C 7.285156 8.640625 7.171875 8.746094 7.058594 8.859375 C 6.953125 8.960938 6.847656 9.066406 6.738281 9.171875 C 6.640625 9.269531 6.546875 9.363281 6.445312 9.460938 C 6.214844 9.738281 6.214844 9.738281 6.269531 10.085938 C 6.386719 10.40625 6.507812 10.558594 6.757812 10.789062 C 6.878906 10.898438 7 11.011719 7.125 11.125 C 6.890625 11.714844 6.648438 12.296875 6.402344 12.882812 C 6.265625 13.210938 6.132812 13.542969 6 13.875 C 5.902344 13.882812 5.804688 13.890625 5.703125 13.898438 C 5.578125 13.910156 5.453125 13.917969 5.320312 13.929688 C 5.195312 13.941406 5.066406 13.949219 4.9375 13.960938 C 4.632812 13.964844 4.632812 13.964844 4.5 14.125 C 4.488281 14.402344 4.484375 14.675781 4.484375 14.953125 C 4.484375 15.035156 4.484375 15.117188 4.484375 15.203125 C 4.484375 15.378906 4.484375 15.554688 4.484375 15.730469 C 4.484375 16 4.484375 16.265625 4.484375 16.539062 C 4.484375 16.707031 4.484375 16.878906 4.484375 17.046875 C 4.484375 17.203125 4.484375 17.359375 4.484375 17.519531 C 4.457031 17.863281 4.457031 17.863281 4.625 18 C 4.878906 18.027344 5.128906 18.050781 5.382812 18.070312 C 5.589844 18.085938 5.589844 18.085938 5.800781 18.101562 C 5.90625 18.109375 6.015625 18.117188 6.125 18.125 C 6.144531 18.203125 6.164062 18.277344 6.183594 18.355469 C 6.386719 19.078125 6.648438 19.699219 7.027344 20.347656 C 7.125 20.625 7.125 20.625 7.039062 20.890625 C 6.875 21.125 6.875 21.125 6.539062 21.429688 C 6.214844 21.714844 6.214844 21.714844 6.265625 22.046875 C 6.476562 22.671875 7 23.082031 7.460938 23.539062 C 7.5625 23.644531 7.660156 23.746094 7.765625 23.855469 C 7.863281 23.953125 7.960938 24.050781 8.0625 24.15625 C 8.152344 24.246094 8.242188 24.335938 8.335938 24.429688 C 8.707031 24.679688 8.933594 24.671875 9.375 24.625 C 9.617188 24.46875 9.617188 24.46875 9.796875 24.25 C 9.90625 24.125 10.015625 24.003906 10.125 23.875 C 10.777344 24.082031 11.394531 24.339844 12.023438 24.609375 C 12.394531 24.765625 12.394531 24.765625 12.875 24.875 C 12.875 25.78125 12.875 26.691406 12.875 27.625 C 10.398438 27.285156 8.398438 26.097656 6.625 24.375 C 6.496094 24.261719 6.496094 24.261719 6.367188 24.144531 C 4.578125 22.492188 3.769531 20.191406 3.25 17.875 C 3.226562 17.789062 3.203125 17.703125 3.175781 17.617188 C 2.632812 14.996094 3.5 12.265625 4.75 10 C 4.8125 9.882812 4.875 9.761719 4.9375 9.640625 C 6.335938 7.191406 8.894531 5.410156 11.558594 4.621094 C 12.515625 4.375 12.515625 4.375 12.875 4.375 Z M 12.875 4.375 "/>
<path style=" stroke:none;fill-rule:nonzero;fill:rgb(0%,0%,0%);fill-opacity:1;" d="M 15.078125 11.40625 C 15.375 11.5 15.375 11.5 15.5 11.625 C 15.515625 11.878906 15.523438 12.136719 15.527344 12.390625 C 15.53125 12.546875 15.53125 12.703125 15.535156 12.859375 C 15.542969 13.191406 15.550781 13.523438 15.554688 13.855469 C 15.558594 14.011719 15.5625 14.167969 15.566406 14.328125 C 15.566406 14.472656 15.570312 14.613281 15.574219 14.761719 C 15.632812 15.167969 15.707031 15.234375 16 15.5 C 16.09375 16.34375 16.09375 16.34375 15.8125 16.8125 C 15.382812 17.070312 14.988281 17.105469 14.5 17 C 14.429688 16.9375 14.359375 16.878906 14.285156 16.8125 C 13.851562 16.527344 13.421875 16.558594 12.914062 16.546875 C 11.886719 16.515625 11.886719 16.515625 11.75 16.375 C 11.734375 16 11.734375 16 11.75 15.625 C 12.035156 15.339844 12.820312 15.449219 13.230469 15.433594 C 13.796875 15.433594 13.796875 15.433594 14.25 15.125 C 14.289062 14.777344 14.289062 14.777344 14.289062 14.375 C 14.292969 14.226562 14.292969 14.078125 14.296875 13.921875 C 14.300781 13.605469 14.308594 13.289062 14.308594 12.96875 C 14.3125 12.820312 14.316406 12.671875 14.320312 12.515625 C 14.320312 12.378906 14.324219 12.238281 14.324219 12.097656 C 14.375 11.75 14.375 11.75 14.546875 11.511719 C 14.75 11.375 14.75 11.375 15.078125 11.40625 Z M 15.078125 11.40625 "/>
<path style=" stroke:none;fill-rule:nonzero;fill:rgb(0%,0%,0%);fill-opacity:1;" d="M 14.625 9 C 15.015625 8.976562 15.015625 8.976562 15.375 9 C 15.523438 9.292969 15.519531 9.484375 15.523438 9.8125 C 15.523438 9.910156 15.527344 10.011719 15.527344 10.113281 C 15.5 10.375 15.5 10.375 15.25 10.625 C 14.867188 10.59375 14.867188 10.59375 14.5 10.5 C 14.3125 10.121094 14.351562 9.792969 14.375 9.375 C 14.457031 9.25 14.539062 9.128906 14.625 9 Z M 14.625 9 "/>
<path style=" stroke:none;fill-rule:nonzero;fill:rgb(0%,0%,0%);fill-opacity:1;" d="M 15.078125 21.40625 C 15.375 21.5 15.375 21.5 15.5 21.625 C 15.519531 21.875 15.519531 21.875 15.523438 22.179688 C 15.527344 22.28125 15.527344 22.378906 15.53125 22.484375 C 15.5 22.75 15.5 22.75 15.25 23 C 14.9375 23.039062 14.9375 23.039062 14.625 23 C 14.316406 22.539062 14.328125 22.296875 14.375 21.75 C 14.585938 21.394531 14.667969 21.367188 15.078125 21.40625 Z M 15.078125 21.40625 "/>
<path style=" stroke:none;fill-rule:nonzero;fill:rgb(0%,0%,0%);fill-opacity:1;" d="M 8.4375 15.488281 C 8.625 15.492188 8.625 15.492188 8.820312 15.492188 C 8.945312 15.492188 9.074219 15.492188 9.203125 15.496094 C 9.351562 15.496094 9.351562 15.496094 9.5 15.5 C 9.640625 16.21875 9.640625 16.21875 9.5 16.5 C 9.273438 16.503906 9.046875 16.503906 8.820312 16.507812 C 8.695312 16.507812 8.566406 16.511719 8.4375 16.511719 C 8.125 16.5 8.125 16.5 8 16.375 C 7.984375 16 7.984375 16 8 15.625 C 8.125 15.5 8.125 15.5 8.4375 15.488281 Z M 8.4375 15.488281 "/>
<path style=" stroke:none;fill-rule:nonzero;fill:rgb(0%,0%,0%);fill-opacity:1;" d="M 20.5 15.5 C 20.953125 15.5 21.40625 15.5 21.875 15.5 C 21.953125 15.859375 21.953125 15.859375 22 16.25 C 21.75 16.5 21.75 16.5 21.457031 16.527344 C 21.34375 16.527344 21.234375 16.523438 21.117188 16.523438 C 21.003906 16.523438 20.890625 16.519531 20.777344 16.519531 C 20.5 16.5 20.5 16.5 20.375 16.375 C 20.410156 16.082031 20.453125 15.792969 20.5 15.5 Z M 20.5 15.5 "/>
</g>
</svg>
