<?xml version="1.0" encoding="UTF-8"?>
<svg xmlns="http://www.w3.org/2000/svg" xmlns:xlink="http://www.w3.org/1999/xlink" width="32" height="32" viewBox="0 0 32 32" version="1.1">
<g id="surface1">
<path style=" stroke:none;fill-rule:nonzero;fill:rgb(34.901962%,65.490198%,99.607843%);fill-opacity:1;" d="M 22.5 0.375 C 22.632812 0.398438 22.765625 0.417969 22.902344 0.441406 C 24.359375 0.6875 25.800781 0.988281 27.226562 1.382812 C 27.386719 1.425781 27.386719 1.425781 27.550781 1.472656 C 27.652344 1.5 27.75 1.527344 27.855469 1.558594 C 27.941406 1.582031 28.027344 1.609375 28.113281 1.632812 C 28.484375 1.796875 28.714844 1.960938 29 2.25 C 29.0625 2.601562 29.085938 2.878906 29.078125 3.230469 C 29.082031 3.332031 29.082031 3.429688 29.082031 3.53125 C 29.085938 3.867188 29.085938 4.199219 29.082031 4.535156 C 29.082031 4.773438 29.085938 5.011719 29.085938 5.253906 C 29.089844 5.902344 29.089844 6.550781 29.085938 7.203125 C 29.085938 7.746094 29.089844 8.289062 29.089844 8.828125 C 29.089844 10.109375 29.089844 11.386719 29.089844 12.667969 C 29.085938 13.988281 29.085938 15.308594 29.09375 16.628906 C 29.097656 17.761719 29.097656 18.894531 29.097656 20.027344 C 29.09375 20.707031 29.09375 21.382812 29.097656 22.058594 C 29.101562 22.695312 29.101562 23.332031 29.097656 23.96875 C 29.09375 24.203125 29.097656 24.4375 29.097656 24.671875 C 29.101562 24.988281 29.097656 25.308594 29.09375 25.628906 C 29.097656 25.765625 29.097656 25.765625 29.101562 25.910156 C 29.09375 26.261719 29.070312 26.542969 28.839844 26.816406 C 28.441406 27.15625 27.996094 27.410156 27.53125 27.648438 C 27.394531 27.71875 27.257812 27.792969 27.117188 27.863281 C 26.972656 27.9375 26.828125 28.011719 26.679688 28.085938 C 26.527344 28.164062 26.375 28.242188 26.222656 28.320312 C 25.773438 28.546875 25.324219 28.773438 24.875 29 C 24.753906 29.0625 24.632812 29.121094 24.507812 29.183594 C 17.234375 32.8125 17.234375 32.8125 13.5 31.671875 C 13.332031 31.613281 13.167969 31.558594 13 31.5 C 12.90625 31.46875 12.8125 31.433594 12.714844 31.402344 C 9.589844 30.308594 6.097656 28.921875 3.375 27 C 3.308594 26.953125 3.242188 26.910156 3.175781 26.863281 C 2.902344 26.492188 2.949219 26.101562 2.953125 25.65625 C 2.949219 25.558594 2.949219 25.457031 2.949219 25.355469 C 2.945312 25.019531 2.949219 24.6875 2.949219 24.351562 C 2.945312 24.113281 2.945312 23.875 2.945312 23.636719 C 2.941406 22.984375 2.941406 22.332031 2.941406 21.679688 C 2.941406 21.140625 2.941406 20.59375 2.9375 20.050781 C 2.9375 18.769531 2.9375 17.492188 2.9375 16.210938 C 2.9375 14.886719 2.933594 13.566406 2.929688 12.242188 C 2.925781 11.109375 2.925781 9.972656 2.925781 8.839844 C 2.925781 8.160156 2.925781 7.484375 2.921875 6.804688 C 2.921875 6.167969 2.921875 5.53125 2.921875 4.894531 C 2.921875 4.660156 2.921875 4.425781 2.921875 4.191406 C 2.917969 3.871094 2.921875 3.550781 2.921875 3.234375 C 2.921875 3.140625 2.917969 3.046875 2.917969 2.953125 C 2.925781 2.476562 2.960938 2.289062 3.300781 1.945312 C 3.585938 1.773438 3.828125 1.652344 4.144531 1.558594 C 4.296875 1.515625 4.296875 1.515625 4.449219 1.472656 C 4.554688 1.441406 4.664062 1.414062 4.773438 1.382812 C 4.886719 1.351562 5.003906 1.320312 5.121094 1.289062 C 6.566406 0.898438 8.027344 0.621094 9.5 0.375 C 9.617188 0.355469 9.734375 0.332031 9.855469 0.3125 C 13.890625 -0.378906 18.476562 -0.335938 22.5 0.375 Z M 22.5 0.375 "/>
<path style=" stroke:none;fill-rule:nonzero;fill:rgb(19.215687%,38.039216%,58.823532%);fill-opacity:1;" d="M 16 0 C 19.828125 -0.0625 23.53125 0.359375 27.226562 1.382812 C 27.332031 1.414062 27.441406 1.441406 27.550781 1.472656 C 27.652344 1.5 27.75 1.527344 27.855469 1.558594 C 27.941406 1.582031 28.027344 1.609375 28.113281 1.632812 C 28.484375 1.796875 28.714844 1.960938 29 2.25 C 29.0625 2.601562 29.085938 2.878906 29.078125 3.230469 C 29.082031 3.332031 29.082031 3.429688 29.082031 3.53125 C 29.085938 3.867188 29.085938 4.199219 29.082031 4.535156 C 29.082031 4.773438 29.085938 5.011719 29.085938 5.253906 C 29.089844 5.902344 29.089844 6.550781 29.085938 7.203125 C 29.085938 7.746094 29.089844 8.289062 29.089844 8.828125 C 29.089844 10.109375 29.089844 11.386719 29.089844 12.667969 C 29.085938 13.988281 29.085938 15.308594 29.09375 16.628906 C 29.097656 17.761719 29.097656 18.894531 29.097656 20.027344 C 29.09375 20.707031 29.09375 21.382812 29.097656 22.058594 C 29.101562 22.695312 29.101562 23.332031 29.097656 23.96875 C 29.09375 24.203125 29.097656 24.4375 29.097656 24.671875 C 29.101562 24.988281 29.097656 25.308594 29.09375 25.628906 C 29.097656 25.71875 29.097656 25.8125 29.101562 25.910156 C 29.09375 26.261719 29.070312 26.542969 28.839844 26.816406 C 28.441406 27.15625 27.996094 27.410156 27.53125 27.648438 C 27.394531 27.71875 27.257812 27.792969 27.117188 27.863281 C 26.902344 27.972656 26.902344 27.972656 26.679688 28.085938 C 26.527344 28.164062 26.375 28.242188 26.222656 28.320312 C 25.773438 28.546875 25.324219 28.773438 24.875 29 C 24.753906 29.0625 24.632812 29.121094 24.507812 29.183594 C 22.347656 30.261719 20.089844 31.265625 17.75 31.875 C 17.65625 31.898438 17.5625 31.921875 17.464844 31.949219 C 16.984375 32.019531 16.488281 32 16 32 C 16 29.523438 16 27.050781 16 24.5 C 19.398438 24.476562 19.398438 24.476562 20.46875 24.472656 C 20.75 24.472656 21.03125 24.46875 21.308594 24.464844 C 21.527344 24.464844 21.527344 24.464844 21.75 24.464844 C 21.890625 24.460938 22.027344 24.460938 22.171875 24.457031 C 22.355469 24.457031 22.355469 24.457031 22.539062 24.453125 C 23.023438 24.339844 23.203125 24.148438 23.5 23.75 C 23.5625 23.394531 23.585938 23.113281 23.578125 22.757812 C 23.578125 22.660156 23.582031 22.5625 23.582031 22.460938 C 23.582031 22.136719 23.582031 21.816406 23.578125 21.492188 C 23.578125 21.265625 23.578125 21.042969 23.578125 20.816406 C 23.578125 20.347656 23.578125 19.875 23.574219 19.40625 C 23.570312 18.800781 23.570312 18.199219 23.574219 17.59375 C 23.574219 17.128906 23.574219 16.667969 23.570312 16.203125 C 23.570312 15.980469 23.570312 15.757812 23.574219 15.535156 C 23.574219 15.222656 23.570312 14.914062 23.566406 14.601562 C 23.566406 14.511719 23.570312 14.417969 23.570312 14.324219 C 23.5625 13.890625 23.53125 13.664062 23.261719 13.320312 C 22.976562 13.109375 22.835938 13.058594 22.484375 13.046875 C 22.34375 13.042969 22.34375 13.042969 22.203125 13.035156 C 22.105469 13.035156 22.007812 13.03125 21.90625 13.03125 C 21.757812 13.027344 21.757812 13.027344 21.605469 13.019531 C 21.363281 13.011719 21.117188 13.003906 20.875 13 C 20.875 12.898438 20.875 12.796875 20.875 12.691406 C 20.871094 12.308594 20.863281 11.925781 20.855469 11.539062 C 20.851562 11.296875 20.851562 11.050781 20.847656 10.804688 C 20.8125 9.203125 20.429688 7.914062 19.289062 6.761719 C 18.257812 5.824219 17.496094 5.75 16 5.375 C 16 3.601562 16 1.828125 16 0 Z M 16 0 "/>
<path style=" stroke:none;fill-rule:nonzero;fill:rgb(99.215686%,50.196081%,21.176471%);fill-opacity:1;" d="M 10.347656 12.917969 C 10.484375 12.917969 10.617188 12.917969 10.757812 12.914062 C 11.203125 12.914062 11.652344 12.914062 12.101562 12.917969 C 12.414062 12.917969 12.726562 12.914062 13.035156 12.914062 C 13.773438 12.914062 14.507812 12.917969 15.246094 12.917969 C 15.832031 12.921875 16.417969 12.921875 17.007812 12.917969 C 17.816406 12.914062 18.625 12.914062 19.433594 12.917969 C 19.742188 12.917969 20.050781 12.917969 20.359375 12.914062 C 20.792969 12.914062 21.222656 12.914062 21.652344 12.917969 C 21.78125 12.917969 21.910156 12.917969 22.042969 12.914062 C 22.605469 12.925781 22.914062 12.941406 23.390625 13.253906 C 23.683594 13.714844 23.710938 14.085938 23.703125 14.617188 C 23.703125 14.710938 23.707031 14.8125 23.707031 14.910156 C 23.707031 15.234375 23.707031 15.554688 23.703125 15.878906 C 23.703125 16.105469 23.703125 16.328125 23.703125 16.554688 C 23.703125 17.023438 23.703125 17.492188 23.699219 17.964844 C 23.695312 18.566406 23.695312 19.167969 23.699219 19.769531 C 23.699219 20.234375 23.699219 20.699219 23.695312 21.160156 C 23.695312 21.382812 23.695312 21.605469 23.699219 21.828125 C 23.699219 22.140625 23.695312 22.449219 23.691406 22.757812 C 23.691406 22.851562 23.695312 22.941406 23.695312 23.035156 C 23.683594 23.640625 23.554688 23.949219 23.125 24.375 C 22.832031 24.523438 22.65625 24.515625 22.328125 24.515625 C 22.15625 24.515625 22.15625 24.515625 21.980469 24.519531 C 21.855469 24.515625 21.726562 24.515625 21.597656 24.515625 C 21.398438 24.515625 21.398438 24.515625 21.195312 24.515625 C 20.75 24.519531 20.308594 24.515625 19.867188 24.515625 C 19.640625 24.515625 19.640625 24.515625 19.410156 24.515625 C 18.523438 24.511719 17.640625 24.507812 16.757812 24.503906 C 16.164062 24.5 15.574219 24.5 14.984375 24.496094 C 14.160156 24.496094 13.335938 24.488281 12.515625 24.480469 C 12.199219 24.476562 11.882812 24.476562 11.566406 24.476562 C 11.125 24.472656 10.683594 24.46875 10.242188 24.460938 C 10.109375 24.464844 9.976562 24.464844 9.84375 24.464844 C 9.660156 24.460938 9.660156 24.460938 9.476562 24.457031 C 9.371094 24.457031 9.265625 24.457031 9.160156 24.457031 C 8.726562 24.332031 8.601562 24.132812 8.375 23.75 C 8.328125 23.402344 8.304688 23.105469 8.308594 22.757812 C 8.304688 22.613281 8.304688 22.613281 8.304688 22.460938 C 8.300781 22.140625 8.300781 21.816406 8.304688 21.496094 C 8.304688 21.273438 8.300781 21.046875 8.300781 20.820312 C 8.300781 20.351562 8.300781 19.882812 8.300781 19.410156 C 8.304688 18.808594 8.300781 18.207031 8.296875 17.605469 C 8.296875 17.140625 8.296875 16.675781 8.296875 16.210938 C 8.296875 15.992188 8.296875 15.769531 8.292969 15.546875 C 8.292969 15.238281 8.292969 14.925781 8.296875 14.617188 C 8.296875 14.523438 8.292969 14.433594 8.292969 14.335938 C 8.300781 13.894531 8.371094 13.632812 8.609375 13.253906 C 9.179688 12.882812 9.675781 12.914062 10.347656 12.917969 Z M 10.347656 12.917969 "/>
<path style=" stroke:none;fill-rule:nonzero;fill:rgb(99.215686%,73.725492%,35.294119%);fill-opacity:1;" d="M 9.714844 12.929688 C 9.855469 12.929688 9.992188 12.929688 10.136719 12.929688 C 10.289062 12.933594 10.4375 12.933594 10.59375 12.9375 C 10.746094 12.941406 10.902344 12.941406 11.0625 12.941406 C 11.46875 12.945312 11.878906 12.949219 12.289062 12.957031 C 12.707031 12.964844 13.125 12.964844 13.542969 12.96875 C 14.359375 12.976562 15.179688 12.988281 16 13 C 16 14.113281 16 15.226562 16 16.375 C 16.082031 16.417969 16.164062 16.457031 16.25 16.5 C 16.039062 16.558594 16.039062 16.558594 15.820312 16.617188 C 15.402344 16.703125 15.402344 16.703125 15.25 16.875 C 15.21875 17.386719 15.222656 17.898438 15.21875 18.414062 C 15.21875 18.671875 15.214844 18.929688 15.210938 19.183594 C 15.210938 19.347656 15.210938 19.507812 15.207031 19.675781 C 15.207031 19.824219 15.207031 19.972656 15.207031 20.125 C 15.21875 20.496094 15.21875 20.496094 15.417969 20.730469 C 15.640625 20.898438 15.640625 20.898438 16 21 C 16 22.113281 16 23.226562 16 24.375 C 15.078125 24.386719 14.160156 24.398438 13.242188 24.40625 C 12.8125 24.410156 12.386719 24.414062 11.957031 24.421875 C 11.464844 24.429688 10.972656 24.433594 10.480469 24.4375 C 10.328125 24.4375 10.175781 24.441406 10.019531 24.445312 C 9.804688 24.445312 9.804688 24.445312 9.585938 24.445312 C 9.460938 24.449219 9.335938 24.449219 9.207031 24.449219 C 8.875 24.375 8.875 24.375 8.585938 24.121094 C 8.324219 23.660156 8.304688 23.273438 8.308594 22.757812 C 8.308594 22.613281 8.308594 22.613281 8.304688 22.460938 C 8.300781 22.140625 8.304688 21.820312 8.304688 21.496094 C 8.304688 21.273438 8.300781 21.046875 8.300781 20.824219 C 8.300781 20.351562 8.300781 19.882812 8.304688 19.410156 C 8.304688 18.808594 8.300781 18.207031 8.296875 17.605469 C 8.292969 17.140625 8.292969 16.675781 8.296875 16.210938 C 8.296875 15.992188 8.296875 15.769531 8.292969 15.546875 C 8.292969 15.238281 8.292969 14.925781 8.296875 14.617188 C 8.292969 14.523438 8.292969 14.433594 8.292969 14.335938 C 8.300781 13.867188 8.363281 13.640625 8.648438 13.253906 C 9.046875 12.964844 9.226562 12.925781 9.714844 12.929688 Z M 9.714844 12.929688 "/>
<path style=" stroke:none;fill-rule:nonzero;fill:rgb(72.549021%,73.725492%,77.64706%);fill-opacity:1;" d="M 19.339844 6.671875 C 20.132812 7.390625 20.617188 8.34375 20.875 9.375 C 20.875 10.570312 20.875 11.765625 20.875 13 C 17.65625 13 14.441406 13 11.125 13 C 11.125 8.308594 11.125 8.308594 12.609375 6.753906 C 14.59375 4.917969 17.285156 5.007812 19.339844 6.671875 Z M 19.339844 6.671875 "/>
<path style=" stroke:none;fill-rule:nonzero;fill:rgb(93.333334%,94.117647%,96.078432%);fill-opacity:1;" d="M 16 5.5 C 16 6.53125 16 7.5625 16 8.625 C 15.710938 8.707031 15.421875 8.789062 15.125 8.875 C 14.738281 9.203125 14.535156 9.394531 14.375 9.875 C 14.355469 10.113281 14.34375 10.355469 14.335938 10.59375 C 14.332031 10.722656 14.328125 10.847656 14.320312 10.976562 C 14.3125 11.214844 14.3125 11.214844 14.304688 11.460938 C 14.285156 11.96875 14.269531 12.476562 14.25 13 C 13.21875 13 12.1875 13 11.125 13 C 11.109375 12.445312 11.101562 11.890625 11.09375 11.335938 C 11.089844 11.179688 11.085938 11.023438 11.082031 10.863281 C 11.0625 9.265625 11.492188 7.925781 12.609375 6.753906 C 13.671875 5.773438 14.566406 5.5 16 5.5 Z M 16 5.5 "/>
<path style=" stroke:none;fill-rule:nonzero;fill:rgb(35.686275%,65.882355%,99.607843%);fill-opacity:1;" d="M 16.851562 8.773438 C 17.289062 9.136719 17.59375 9.429688 17.679688 10.007812 C 17.679688 10.214844 17.679688 10.214844 17.675781 10.425781 C 17.671875 10.558594 17.671875 10.695312 17.671875 10.835938 C 17.664062 11.089844 17.664062 11.089844 17.65625 11.351562 C 17.644531 11.894531 17.636719 12.441406 17.625 13 C 16.511719 13 15.398438 13 14.25 13 C 14.242188 12.503906 14.230469 12.003906 14.21875 11.492188 C 14.214844 11.335938 14.210938 11.183594 14.207031 11.023438 C 14.195312 10.191406 14.246094 9.667969 14.75 9 C 15.34375 8.472656 16.144531 8.472656 16.851562 8.773438 Z M 16.851562 8.773438 "/>
<path style=" stroke:none;fill-rule:nonzero;fill:rgb(21.960784%,39.215687%,58.823532%);fill-opacity:1;" d="M 16.246094 16.425781 C 16.644531 16.542969 16.773438 16.785156 17 17.125 C 17.0625 17.484375 17.0625 17.484375 17.066406 17.875 C 17.066406 18.015625 17.066406 18.160156 17.066406 18.304688 C 17.066406 18.453125 17.0625 18.597656 17.0625 18.75 C 17.0625 18.898438 17.066406 19.042969 17.066406 19.195312 C 17.066406 19.335938 17.066406 19.480469 17.066406 19.625 C 17.066406 19.753906 17.066406 19.882812 17.0625 20.015625 C 16.984375 20.46875 16.824219 20.679688 16.5 21 C 16.0625 21.070312 16.0625 21.070312 15.625 21 C 15.253906 20.722656 15.136719 20.578125 15.0625 20.117188 C 15.0625 19.96875 15.0625 19.824219 15.0625 19.671875 C 15.0625 19.511719 15.0625 19.351562 15.0625 19.1875 C 15.0625 19.0625 15.0625 19.0625 15.066406 18.933594 C 15.070312 18.679688 15.070312 18.425781 15.066406 18.171875 C 15.074219 16.945312 15.074219 16.945312 15.285156 16.640625 C 15.589844 16.441406 15.890625 16.441406 16.246094 16.425781 Z M 16.246094 16.425781 "/>
<path style=" stroke:none;fill-rule:nonzero;fill:rgb(19.215687%,38.039216%,58.823532%);fill-opacity:1;" d="M 16 8.625 C 17.0625 8.777344 17.0625 8.777344 17.484375 9.324219 C 17.785156 9.964844 17.699219 10.675781 17.671875 11.367188 C 17.667969 11.523438 17.664062 11.679688 17.660156 11.84375 C 17.652344 12.230469 17.640625 12.613281 17.625 13 C 17.089844 13 16.550781 13 16 13 C 16 11.554688 16 10.113281 16 8.625 Z M 16 8.625 "/>
<path style=" stroke:none;fill-rule:nonzero;fill:rgb(35.294119%,65.490198%,99.215686%);fill-opacity:1;" d="M 16 16.5 C 16 17.984375 16 19.46875 16 21 C 15.792969 20.957031 15.585938 20.917969 15.375 20.875 C 14.980469 20.28125 15.082031 19.640625 15.085938 18.945312 C 15.085938 18.6875 15.082031 18.433594 15.078125 18.179688 C 15.078125 18.015625 15.078125 17.859375 15.078125 17.691406 C 15.078125 17.542969 15.078125 17.394531 15.078125 17.246094 C 15.125 16.875 15.125 16.875 15.285156 16.636719 C 15.5 16.5 15.5 16.5 16 16.5 Z M 16 16.5 "/>
</g>
</svg>
