<?xml version="1.0" encoding="UTF-8"?>
<svg xmlns="http://www.w3.org/2000/svg" xmlns:xlink="http://www.w3.org/1999/xlink" width="32" height="32" viewBox="0 0 32 32" version="1.1">
<g id="surface1">
<path style=" stroke:none;fill-rule:nonzero;fill:rgb(1.960784%,1.568628%,1.176471%);fill-opacity:1;" d="M 8.71875 -0.0195312 C 8.84375 -0.0195312 8.972656 -0.0195312 9.097656 -0.0195312 C 9.238281 -0.0195312 9.375 -0.0234375 9.519531 -0.0234375 C 9.664062 -0.0234375 9.808594 -0.0234375 9.957031 -0.0234375 C 10.441406 -0.0273438 10.921875 -0.0273438 11.40625 -0.03125 C 11.566406 -0.03125 11.734375 -0.03125 11.902344 -0.03125 C 12.683594 -0.0351562 13.460938 -0.0351562 14.242188 -0.0390625 C 15.140625 -0.0390625 16.042969 -0.0390625 16.941406 -0.046875 C 17.636719 -0.0507812 18.332031 -0.0507812 19.03125 -0.0507812 C 19.445312 -0.0507812 19.859375 -0.0546875 20.277344 -0.0585938 C 20.738281 -0.0585938 21.203125 -0.0585938 21.667969 -0.0585938 C 21.875 -0.0625 21.875 -0.0625 22.082031 -0.0625 C 22.964844 -0.0585938 23.429688 0.0859375 24.089844 0.695312 C 24.144531 0.761719 24.199219 0.824219 24.257812 0.886719 C 24.320312 0.960938 24.386719 1.03125 24.453125 1.105469 C 24.523438 1.183594 24.59375 1.257812 24.660156 1.335938 C 24.816406 1.5 24.96875 1.664062 25.121094 1.828125 C 25.355469 2.082031 25.59375 2.335938 25.824219 2.59375 C 26.890625 3.8125 26.890625 3.8125 28.386719 4.265625 C 28.667969 4.269531 28.945312 4.253906 29.226562 4.238281 C 29.816406 4.214844 30.265625 4.425781 30.75 4.75 C 31.28125 5.296875 31.304688 5.773438 31.292969 6.5 C 31.289062 6.679688 31.289062 6.679688 31.28125 6.859375 C 31.28125 6.980469 31.277344 7.101562 31.273438 7.230469 C 31.269531 7.527344 31.261719 7.828125 31.25 8.125 C 31.125 8.167969 31.003906 8.207031 30.875 8.25 C 30.875 8.664062 30.875 9.074219 30.875 9.5 C 31 9.542969 31.121094 9.582031 31.25 9.625 C 31.257812 12.367188 31.265625 15.113281 31.269531 17.855469 C 31.273438 19.128906 31.273438 20.402344 31.277344 21.679688 C 31.28125 22.789062 31.285156 23.898438 31.285156 25.007812 C 31.285156 25.59375 31.285156 26.183594 31.289062 26.773438 C 31.292969 27.324219 31.292969 27.878906 31.292969 28.429688 C 31.292969 28.632812 31.292969 28.835938 31.292969 29.039062 C 31.296875 29.316406 31.296875 29.59375 31.292969 29.871094 C 31.296875 30.027344 31.296875 30.183594 31.296875 30.34375 C 31.226562 30.949219 30.96875 31.269531 30.574219 31.722656 C 29.984375 32.183594 29.25 32.082031 28.535156 32.070312 C 28.378906 32.070312 28.21875 32.070312 28.050781 32.070312 C 27.617188 32.070312 27.179688 32.066406 26.742188 32.0625 C 26.285156 32.058594 25.828125 32.058594 25.371094 32.058594 C 24.507812 32.054688 23.640625 32.050781 22.777344 32.046875 C 21.792969 32.039062 20.808594 32.035156 19.824219 32.03125 C 17.800781 32.023438 15.773438 32.015625 13.75 32 C 13.707031 31.875 13.667969 31.753906 13.625 31.625 C 13.210938 31.625 12.800781 31.625 12.375 31.625 C 12.332031 31.75 12.292969 31.871094 12.25 32 C 11.285156 32.011719 10.320312 32.019531 9.355469 32.023438 C 8.90625 32.027344 8.460938 32.03125 8.011719 32.039062 C 7.578125 32.042969 7.144531 32.046875 6.710938 32.046875 C 6.46875 32.050781 6.222656 32.054688 5.976562 32.054688 C 4.597656 32.054688 4.597656 32.054688 4 31.5 C 3.554688 30.992188 3.484375 30.578125 3.492188 29.914062 C 3.492188 29.789062 3.496094 29.664062 3.496094 29.539062 C 3.496094 29.441406 3.5 29.347656 3.5 29.25 C 3.421875 29.253906 3.34375 29.257812 3.261719 29.261719 C 2.558594 29.285156 1.847656 29.289062 1.25 28.875 C 0.605469 28.171875 0.675781 27.4375 0.683594 26.519531 C 0.683594 26.363281 0.683594 26.210938 0.683594 26.050781 C 0.683594 25.636719 0.683594 25.226562 0.6875 24.8125 C 0.6875 24.5625 0.6875 24.3125 0.683594 24.058594 C 0.683594 23.574219 0.683594 23.089844 0.683594 22.605469 C 0.683594 22.457031 0.683594 22.304688 0.679688 22.152344 C 0.691406 21.359375 0.703125 20.84375 1.25 20.25 C 1.753906 19.871094 2.167969 19.859375 2.777344 19.867188 C 2.980469 19.867188 2.980469 19.867188 3.1875 19.871094 C 3.289062 19.871094 3.394531 19.871094 3.5 19.875 C 3.5 19.804688 3.5 19.730469 3.5 19.65625 C 3.488281 17.886719 3.480469 16.117188 3.472656 14.347656 C 3.472656 13.492188 3.46875 12.636719 3.460938 11.777344 C 3.457031 10.953125 3.453125 10.128906 3.453125 9.300781 C 3.453125 8.988281 3.449219 8.671875 3.445312 8.355469 C 3.441406 7.914062 3.441406 7.472656 3.441406 7.03125 C 3.441406 6.835938 3.441406 6.835938 3.4375 6.636719 C 3.441406 5.855469 3.542969 5.390625 4 4.75 C 4.554688 4.210938 5.265625 4.210938 6 4.21875 C 6.292969 4.226562 6.582031 4.238281 6.875 4.25 C 6.875 4.167969 6.871094 4.085938 6.871094 3.996094 C 6.859375 3.617188 6.855469 3.238281 6.851562 2.859375 C 6.847656 2.730469 6.847656 2.597656 6.84375 2.460938 C 6.835938 1.757812 6.835938 1.226562 7.25 0.625 C 7.753906 0.171875 8.050781 -0.015625 8.71875 -0.0195312 Z M 8.71875 -0.0195312 "/>
<path style=" stroke:none;fill-rule:nonzero;fill:rgb(98.823529%,87.058824%,45.882353%);fill-opacity:1;" d="M 20.429688 14.207031 C 20.535156 14.207031 20.640625 14.207031 20.75 14.207031 C 21.101562 14.207031 21.453125 14.210938 21.800781 14.214844 C 22.046875 14.214844 22.289062 14.214844 22.53125 14.214844 C 23.171875 14.214844 23.8125 14.21875 24.449219 14.222656 C 25.105469 14.230469 25.757812 14.230469 26.410156 14.230469 C 27.6875 14.234375 28.96875 14.242188 30.25 14.25 C 30.265625 16.359375 30.273438 18.464844 30.28125 20.574219 C 30.285156 21.550781 30.289062 22.53125 30.296875 23.511719 C 30.304688 24.363281 30.308594 25.214844 30.308594 26.070312 C 30.308594 26.519531 30.3125 26.972656 30.316406 27.425781 C 30.320312 27.929688 30.320312 28.433594 30.320312 28.9375 C 30.324219 29.164062 30.324219 29.164062 30.328125 29.390625 C 30.324219 29.980469 30.3125 30.382812 30.027344 30.90625 C 29.402344 31.246094 28.8125 31.210938 28.113281 31.203125 C 27.957031 31.203125 27.804688 31.203125 27.648438 31.203125 C 27.316406 31.203125 26.984375 31.203125 26.648438 31.203125 C 26.125 31.199219 25.597656 31.203125 25.074219 31.203125 C 24.144531 31.207031 23.222656 31.207031 22.296875 31.203125 C 20.898438 31.203125 19.503906 31.203125 18.109375 31.207031 C 17.585938 31.207031 17.066406 31.207031 16.542969 31.203125 C 16.140625 31.203125 15.738281 31.203125 15.339844 31.207031 C 15.195312 31.203125 15.046875 31.203125 14.898438 31.203125 C 14.765625 31.203125 14.636719 31.203125 14.5 31.203125 C 14.382812 31.203125 14.269531 31.203125 14.148438 31.203125 C 14.058594 31.21875 13.96875 31.234375 13.875 31.25 C 13.792969 31.375 13.710938 31.496094 13.625 31.625 C 13.328125 31.660156 13.328125 31.660156 12.984375 31.648438 C 12.871094 31.644531 12.757812 31.640625 12.640625 31.640625 C 12.550781 31.632812 12.464844 31.628906 12.375 31.625 C 12.332031 31.5 12.292969 31.378906 12.25 31.25 C 12.164062 31.25 12.074219 31.25 11.984375 31.25 C 11.152344 31.246094 10.324219 31.242188 9.496094 31.234375 C 9.070312 31.230469 8.640625 31.226562 8.214844 31.226562 C 7.726562 31.226562 7.234375 31.21875 6.746094 31.214844 C 6.59375 31.214844 6.4375 31.214844 6.28125 31.214844 C 5.671875 31.203125 5.25 31.195312 4.710938 30.890625 C 4.480469 30.460938 4.476562 30.265625 4.484375 29.789062 C 4.488281 29.664062 4.488281 29.539062 4.492188 29.414062 C 4.496094 29.269531 4.496094 29.269531 4.5 29.125 C 4.640625 29.125 4.640625 29.125 4.785156 29.125 C 7.058594 29.117188 9.332031 29.109375 11.605469 29.09375 C 12.707031 29.089844 13.804688 29.085938 14.90625 29.082031 C 15.863281 29.078125 16.824219 29.074219 17.78125 29.070312 C 18.289062 29.066406 18.796875 29.0625 19.304688 29.0625 C 19.78125 29.0625 20.261719 29.058594 20.738281 29.054688 C 20.914062 29.054688 21.085938 29.054688 21.265625 29.054688 C 21.503906 29.054688 21.742188 29.050781 21.984375 29.050781 C 22.117188 29.046875 22.25 29.046875 22.386719 29.046875 C 22.953125 28.972656 23.273438 28.730469 23.660156 28.320312 C 23.972656 27.675781 23.945312 27.089844 23.941406 26.382812 C 23.941406 26.238281 23.941406 26.09375 23.941406 25.949219 C 23.945312 25.644531 23.941406 25.339844 23.941406 25.035156 C 23.9375 24.574219 23.941406 24.109375 23.945312 23.644531 C 23.941406 23.351562 23.941406 23.054688 23.941406 22.757812 C 23.941406 22.621094 23.945312 22.484375 23.945312 22.339844 C 23.933594 21.539062 23.871094 21.019531 23.375 20.375 C 22.960938 20.101562 22.609375 20.09375 22.117188 20.089844 C 21.960938 20.089844 21.804688 20.085938 21.644531 20.085938 C 21.476562 20.085938 21.304688 20.085938 21.132812 20.085938 C 20.949219 20.082031 20.769531 20.082031 20.585938 20.082031 C 20.097656 20.078125 19.605469 20.078125 19.113281 20.074219 C 18.601562 20.074219 18.085938 20.070312 17.574219 20.066406 C 16.601562 20.058594 15.628906 20.054688 14.65625 20.050781 C 13.546875 20.046875 12.441406 20.039062 11.332031 20.035156 C 9.054688 20.019531 6.777344 20.011719 4.5 20 C 4.5 19.214844 4.5 18.433594 4.5 17.625 C 4.847656 17.625 5.195312 17.625 5.550781 17.625 C 6.699219 17.621094 7.847656 17.617188 8.996094 17.609375 C 9.691406 17.605469 10.386719 17.601562 11.082031 17.601562 C 11.753906 17.601562 12.425781 17.597656 13.097656 17.589844 C 13.355469 17.589844 13.609375 17.589844 13.867188 17.589844 C 14.226562 17.589844 14.585938 17.585938 14.945312 17.582031 C 15.050781 17.582031 15.15625 17.585938 15.261719 17.585938 C 16.171875 17.570312 16.785156 17.226562 17.414062 16.578125 C 17.488281 16.476562 17.5625 16.375 17.640625 16.273438 C 17.722656 16.164062 17.804688 16.058594 17.890625 15.945312 C 18.039062 15.742188 18.1875 15.539062 18.335938 15.335938 C 18.433594 15.203125 18.433594 15.203125 18.53125 15.070312 C 18.585938 14.992188 18.640625 14.917969 18.699219 14.835938 C 19.207031 14.230469 19.664062 14.199219 20.429688 14.207031 Z M 20.429688 14.207031 "/>
<path style=" stroke:none;fill-rule:nonzero;fill:rgb(90.588236%,95.294118%,98.823529%);fill-opacity:1;" d="M 8.972656 0.941406 C 9.089844 0.9375 9.210938 0.9375 9.332031 0.9375 C 9.464844 0.941406 9.59375 0.941406 9.730469 0.945312 C 9.933594 0.945312 9.933594 0.945312 10.144531 0.945312 C 10.601562 0.945312 11.058594 0.949219 11.515625 0.949219 C 11.832031 0.953125 12.144531 0.953125 12.460938 0.953125 C 13.207031 0.953125 13.957031 0.957031 14.703125 0.964844 C 15.550781 0.96875 16.402344 0.972656 17.253906 0.976562 C 19.003906 0.980469 20.75 0.988281 22.5 1 C 22.5 1.082031 22.5 1.164062 22.5 1.25 C 22.503906 1.625 22.515625 2 22.523438 2.375 C 22.523438 2.503906 22.523438 2.632812 22.523438 2.765625 C 22.550781 3.597656 22.65625 4.253906 23.25 4.875 C 24.335938 5.417969 25.660156 5.199219 26.875 5.25 C 26.875 7.929688 26.875 10.613281 26.875 13.375 C 26.175781 13.375 25.472656 13.375 24.75 13.375 C 24.746094 13.089844 24.746094 13.089844 24.738281 12.792969 C 24.734375 12.542969 24.726562 12.292969 24.71875 12.039062 C 24.714844 11.914062 24.714844 11.789062 24.714844 11.65625 C 24.695312 11.136719 24.660156 10.714844 24.460938 10.230469 C 23.894531 9.84375 23.292969 9.910156 22.625 9.921875 C 22.488281 9.917969 22.351562 9.917969 22.210938 9.914062 C 21.453125 9.914062 21.453125 9.914062 20.789062 10.230469 C 20.542969 10.824219 20.539062 11.398438 20.53125 12.039062 C 20.523438 12.230469 20.523438 12.230469 20.519531 12.425781 C 20.511719 12.742188 20.503906 13.058594 20.5 13.375 C 20.171875 13.375 19.839844 13.375 19.5 13.375 C 19.5 13.222656 19.496094 13.070312 19.496094 12.914062 C 19.492188 12.347656 19.484375 11.78125 19.472656 11.210938 C 19.46875 10.96875 19.46875 10.722656 19.464844 10.476562 C 19.464844 10.125 19.457031 9.773438 19.453125 9.417969 C 19.453125 9.308594 19.453125 9.199219 19.449219 9.089844 C 19.4375 8.609375 19.429688 8.332031 19.160156 7.929688 C 18.628906 7.59375 18.058594 7.671875 17.445312 7.679688 C 17.316406 7.675781 17.1875 7.671875 17.050781 7.671875 C 16.863281 7.671875 16.863281 7.671875 16.671875 7.671875 C 16.558594 7.671875 16.445312 7.671875 16.328125 7.671875 C 15.855469 7.785156 15.667969 7.992188 15.375 8.375 C 15.289062 8.773438 15.289062 8.773438 15.3125 9.199219 C 15.316406 9.355469 15.316406 9.511719 15.320312 9.671875 C 15.324219 9.835938 15.332031 9.996094 15.335938 10.164062 C 15.339844 10.410156 15.339844 10.410156 15.34375 10.660156 C 15.351562 11.066406 15.363281 11.46875 15.375 11.875 C 15.746094 11.75 15.746094 11.75 16.125 11.625 C 16.167969 10.59375 16.207031 9.5625 16.25 8.5 C 16.617188 8.496094 16.988281 8.496094 17.367188 8.492188 C 17.484375 8.492188 17.601562 8.488281 17.71875 8.488281 C 17.8125 8.488281 17.902344 8.488281 17.996094 8.488281 C 18.089844 8.488281 18.183594 8.484375 18.277344 8.484375 C 18.5 8.5 18.5 8.5 18.625 8.625 C 18.660156 9.347656 18.664062 10.066406 18.667969 10.789062 C 18.671875 11.035156 18.675781 11.277344 18.679688 11.519531 C 18.6875 11.871094 18.6875 12.222656 18.691406 12.574219 C 18.695312 12.734375 18.695312 12.734375 18.699219 12.902344 C 18.699219 13.445312 18.691406 13.671875 18.332031 14.105469 C 18.222656 14.195312 18.113281 14.285156 18 14.375 C 17.867188 14.539062 17.742188 14.703125 17.621094 14.875 C 17.523438 15.007812 17.523438 15.007812 17.425781 15.140625 C 17.289062 15.324219 17.15625 15.511719 17.023438 15.695312 C 16.960938 15.78125 16.894531 15.871094 16.832031 15.960938 C 16.742188 16.078125 16.742188 16.078125 16.65625 16.199219 C 16.605469 16.257812 16.550781 16.316406 16.5 16.375 C 16.417969 16.375 16.335938 16.375 16.25 16.375 C 16.207031 15.425781 16.167969 14.476562 16.125 13.5 C 15.917969 13.457031 15.710938 13.417969 15.5 13.375 C 15.28125 13.59375 15.347656 13.898438 15.335938 14.195312 C 15.328125 14.40625 15.328125 14.40625 15.320312 14.621094 C 15.316406 14.769531 15.308594 14.917969 15.304688 15.070312 C 15.296875 15.292969 15.296875 15.292969 15.289062 15.519531 C 15.273438 15.886719 15.261719 16.257812 15.25 16.625 C 14.921875 16.625 14.589844 16.625 14.25 16.625 C 14.25 16.492188 14.25 16.355469 14.25 16.21875 C 14.246094 14.960938 14.242188 13.703125 14.234375 12.445312 C 14.230469 11.796875 14.226562 11.152344 14.226562 10.507812 C 14.226562 9.882812 14.222656 9.257812 14.214844 8.632812 C 14.214844 8.394531 14.214844 8.15625 14.214844 7.917969 C 14.214844 7.585938 14.210938 7.253906 14.207031 6.917969 C 14.207031 6.769531 14.207031 6.769531 14.210938 6.621094 C 14.199219 6.132812 14.167969 5.921875 13.828125 5.5625 C 13.273438 5.246094 12.746094 5.296875 12.125 5.304688 C 12 5.300781 11.878906 5.296875 11.75 5.296875 C 11.632812 5.296875 11.515625 5.296875 11.390625 5.296875 C 11.28125 5.296875 11.175781 5.296875 11.0625 5.296875 C 10.597656 5.414062 10.421875 5.628906 10.125 6 C 10.0625 6.371094 10.039062 6.671875 10.042969 7.046875 C 10.039062 7.203125 10.039062 7.203125 10.039062 7.359375 C 10.035156 7.703125 10.035156 8.042969 10.035156 8.386719 C 10.035156 8.621094 10.03125 8.859375 10.03125 9.097656 C 10.027344 9.722656 10.023438 10.34375 10.023438 10.96875 C 10.023438 11.605469 10.019531 12.242188 10.015625 12.878906 C 10.007812 14.128906 10.003906 15.375 10 16.625 C 9.300781 16.625 8.597656 16.625 7.875 16.625 C 7.863281 14.660156 7.855469 12.699219 7.847656 10.734375 C 7.847656 9.824219 7.84375 8.910156 7.835938 8 C 7.832031 7.203125 7.828125 6.410156 7.828125 5.617188 C 7.828125 5.195312 7.828125 4.773438 7.824219 4.355469 C 7.820312 3.886719 7.816406 3.414062 7.816406 2.945312 C 7.816406 2.804688 7.816406 2.667969 7.8125 2.523438 C 7.8125 2.394531 7.8125 2.265625 7.816406 2.136719 C 7.8125 2.023438 7.8125 1.914062 7.8125 1.796875 C 7.945312 1.160156 8.355469 0.9375 8.972656 0.941406 Z M 8.972656 0.941406 "/>
<path style=" stroke:none;fill-rule:nonzero;fill:rgb(59.215689%,89.019608%,97.647059%);fill-opacity:1;" d="M 2.945312 20.828125 C 3.070312 20.824219 3.070312 20.824219 3.199219 20.824219 C 3.480469 20.824219 3.761719 20.824219 4.042969 20.824219 C 4.246094 20.824219 4.445312 20.824219 4.648438 20.824219 C 5.195312 20.824219 5.742188 20.824219 6.289062 20.824219 C 6.863281 20.824219 7.433594 20.824219 8.007812 20.824219 C 8.96875 20.824219 9.929688 20.824219 10.890625 20.824219 C 12.003906 20.828125 13.117188 20.828125 14.226562 20.824219 C 15.183594 20.824219 16.136719 20.824219 17.089844 20.824219 C 17.660156 20.824219 18.230469 20.824219 18.800781 20.824219 C 19.335938 20.824219 19.871094 20.824219 20.410156 20.824219 C 20.605469 20.824219 20.800781 20.824219 21 20.824219 C 21.265625 20.824219 21.535156 20.824219 21.804688 20.828125 C 21.953125 20.828125 22.105469 20.828125 22.257812 20.828125 C 22.625 20.875 22.625 20.875 22.859375 21.046875 C 23.054688 21.332031 23.046875 21.539062 23.050781 21.882812 C 23.054688 22.074219 23.054688 22.074219 23.054688 22.269531 C 23.054688 22.410156 23.054688 22.546875 23.054688 22.691406 C 23.054688 22.832031 23.054688 22.976562 23.054688 23.121094 C 23.058594 23.425781 23.058594 23.726562 23.054688 24.027344 C 23.054688 24.488281 23.058594 24.953125 23.0625 25.414062 C 23.0625 25.707031 23.0625 26 23.0625 26.292969 C 23.0625 26.429688 23.066406 26.570312 23.066406 26.710938 C 23.066406 26.839844 23.0625 26.96875 23.0625 27.101562 C 23.0625 27.214844 23.0625 27.328125 23.0625 27.445312 C 22.976562 27.859375 22.832031 27.988281 22.5 28.25 C 22.121094 28.3125 22.121094 28.3125 21.667969 28.3125 C 21.585938 28.3125 21.503906 28.3125 21.414062 28.316406 C 21.136719 28.316406 20.859375 28.316406 20.578125 28.3125 C 20.378906 28.3125 20.179688 28.3125 19.976562 28.316406 C 19.433594 28.316406 18.890625 28.316406 18.347656 28.3125 C 17.777344 28.3125 17.210938 28.3125 16.640625 28.3125 C 15.6875 28.3125 14.730469 28.3125 13.777344 28.308594 C 12.671875 28.304688 11.566406 28.304688 10.464844 28.304688 C 9.402344 28.308594 8.339844 28.308594 7.28125 28.304688 C 6.828125 28.304688 6.375 28.304688 5.921875 28.304688 C 5.390625 28.304688 4.859375 28.304688 4.324219 28.300781 C 4.128906 28.300781 3.933594 28.300781 3.738281 28.300781 C 3.472656 28.300781 3.207031 28.300781 2.941406 28.296875 C 2.789062 28.296875 2.640625 28.296875 2.488281 28.296875 C 2.125 28.25 2.125 28.25 1.890625 28.078125 C 1.691406 27.789062 1.703125 27.578125 1.703125 27.230469 C 1.699219 27.097656 1.699219 26.96875 1.699219 26.832031 C 1.699219 26.691406 1.699219 26.546875 1.699219 26.402344 C 1.699219 26.257812 1.699219 26.109375 1.699219 25.960938 C 1.699219 25.652344 1.699219 25.34375 1.699219 25.039062 C 1.703125 24.566406 1.699219 24.09375 1.699219 23.621094 C 1.699219 23.320312 1.699219 23.019531 1.699219 22.722656 C 1.699219 22.582031 1.699219 22.4375 1.699219 22.292969 C 1.699219 22.160156 1.699219 22.03125 1.703125 21.894531 C 1.703125 21.777344 1.703125 21.664062 1.703125 21.542969 C 1.820312 20.824219 2.300781 20.828125 2.945312 20.828125 Z M 2.945312 20.828125 "/>
<path style=" stroke:none;fill-rule:nonzero;fill:rgb(96.078432%,67.450982%,20.784314%);fill-opacity:1;" d="M 5.125 5.25 C 5.742188 5.25 6.363281 5.25 7 5.25 C 7 9.003906 7 12.757812 7 16.625 C 6.175781 16.625 5.351562 16.625 4.5 16.625 C 4.484375 15.234375 4.476562 13.84375 4.46875 12.453125 C 4.464844 11.804688 4.460938 11.160156 4.453125 10.515625 C 4.445312 9.890625 4.441406 9.269531 4.441406 8.644531 C 4.441406 8.40625 4.4375 8.171875 4.433594 7.933594 C 4.429688 7.597656 4.429688 7.265625 4.429688 6.933594 C 4.425781 6.835938 4.425781 6.734375 4.421875 6.636719 C 4.429688 5.875 4.527344 5.847656 5.125 5.25 Z M 5.125 5.25 "/>
<path style=" stroke:none;fill-rule:nonzero;fill:rgb(1.960784%,2.745098%,3.137255%);fill-opacity:1;" d="M 12.164062 21.875 C 12.773438 22.214844 13.148438 22.652344 13.5 23.25 C 13.546875 23.328125 13.59375 23.410156 13.640625 23.488281 C 13.929688 24.183594 13.828125 25.03125 13.5625 25.71875 C 13.210938 26.414062 12.652344 26.925781 11.960938 27.269531 C 11.191406 27.511719 10.285156 27.539062 9.53125 27.238281 C 8.882812 26.828125 8.296875 26.269531 8.050781 25.523438 C 7.902344 24.710938 7.828125 23.800781 8.257812 23.070312 C 9.234375 21.765625 10.601562 21.171875 12.164062 21.875 Z M 12.164062 21.875 "/>
<path style=" stroke:none;fill-rule:nonzero;fill:rgb(26.666668%,77.254903%,53.333336%);fill-opacity:1;" d="M 11.886719 6.109375 C 11.984375 6.109375 12.085938 6.109375 12.1875 6.109375 C 12.289062 6.109375 12.386719 6.109375 12.492188 6.109375 C 13.234375 6.109375 13.234375 6.109375 13.375 6.25 C 13.386719 6.574219 13.390625 6.894531 13.390625 7.214844 C 13.390625 7.316406 13.390625 7.417969 13.390625 7.523438 C 13.390625 7.859375 13.386719 8.195312 13.386719 8.53125 C 13.386719 8.765625 13.386719 8.996094 13.386719 9.230469 C 13.386719 9.839844 13.386719 10.457031 13.382812 11.066406 C 13.382812 11.691406 13.382812 12.316406 13.382812 12.941406 C 13.378906 14.171875 13.378906 15.398438 13.375 16.625 C 12.589844 16.625 11.808594 16.625 11 16.625 C 10.996094 15.273438 10.996094 13.925781 10.992188 12.574219 C 10.992188 11.945312 10.992188 11.320312 10.992188 10.691406 C 10.988281 10.089844 10.988281 9.484375 10.988281 8.878906 C 10.988281 8.648438 10.988281 8.414062 10.988281 8.183594 C 10.988281 7.863281 10.984375 7.539062 10.984375 7.214844 C 10.984375 7.121094 10.984375 7.023438 10.984375 6.925781 C 10.988281 6.089844 11.058594 6.109375 11.886719 6.109375 Z M 11.886719 6.109375 "/>
<path style=" stroke:none;fill-rule:nonzero;fill:rgb(94.509804%,78.039217%,34.509805%);fill-opacity:1;" d="M 19.375 14.25 C 22.964844 14.25 26.550781 14.25 30.25 14.25 C 30.273438 18.300781 30.273438 18.300781 30.28125 19.996094 C 30.285156 21.167969 30.289062 22.339844 30.296875 23.511719 C 30.304688 24.363281 30.308594 25.214844 30.308594 26.070312 C 30.308594 26.519531 30.3125 26.972656 30.316406 27.425781 C 30.320312 27.929688 30.320312 28.433594 30.320312 28.9375 C 30.324219 29.164062 30.324219 29.164062 30.328125 29.390625 C 30.324219 29.980469 30.3125 30.382812 30.027344 30.90625 C 29.402344 31.246094 28.820312 31.207031 28.121094 31.195312 C 27.890625 31.195312 27.890625 31.195312 27.65625 31.195312 C 27.238281 31.195312 26.824219 31.191406 26.40625 31.1875 C 25.96875 31.183594 25.535156 31.183594 25.097656 31.183594 C 24.273438 31.179688 23.445312 31.175781 22.621094 31.171875 C 21.679688 31.164062 20.738281 31.160156 19.800781 31.15625 C 17.867188 31.148438 15.933594 31.140625 14 31.125 C 14 31.082031 14 31.042969 14 31 C 21.363281 30.9375 21.363281 30.9375 28.875 30.875 C 29.035156 30.558594 29.015625 30.332031 29.019531 29.976562 C 29.019531 29.839844 29.023438 29.703125 29.023438 29.5625 C 29.023438 29.410156 29.023438 29.261719 29.027344 29.105469 C 29.027344 28.945312 29.027344 28.789062 29.03125 28.625 C 29.03125 28.1875 29.035156 27.753906 29.039062 27.320312 C 29.042969 26.863281 29.042969 26.410156 29.046875 25.953125 C 29.054688 25.09375 29.058594 24.230469 29.066406 23.371094 C 29.074219 22.203125 29.078125 21.042969 29.089844 19.878906 C 29.101562 18.042969 29.113281 16.207031 29.125 14.375 C 25.90625 14.375 22.691406 14.375 19.375 14.375 C 19.375 14.332031 19.375 14.292969 19.375 14.25 Z M 19.375 14.25 "/>
<path style=" stroke:none;fill-rule:nonzero;fill:rgb(98.823529%,69.01961%,21.176471%);fill-opacity:1;" d="M 27.875 5.25 C 29.625 5.25 29.625 5.25 30.25 5.75 C 30.332031 6.015625 30.332031 6.015625 30.339844 6.292969 C 30.34375 6.390625 30.347656 6.492188 30.347656 6.59375 C 30.351562 6.699219 30.351562 6.800781 30.351562 6.90625 C 30.355469 7.011719 30.359375 7.117188 30.359375 7.226562 C 30.367188 7.484375 30.371094 7.742188 30.375 8 C 30.539062 8.082031 30.703125 8.164062 30.875 8.25 C 30.875 8.664062 30.875 9.074219 30.875 9.5 C 30.710938 9.582031 30.546875 9.664062 30.375 9.75 C 30.332031 10.90625 30.292969 12.058594 30.25 13.25 C 29.464844 13.25 28.683594 13.25 27.875 13.25 C 27.875 10.609375 27.875 7.96875 27.875 5.25 Z M 27.875 5.25 "/>
<path style=" stroke:none;fill-rule:nonzero;fill:rgb(67.450982%,51.764709%,76.078433%);fill-opacity:1;" d="M 16.25 8.5 C 16.617188 8.496094 16.988281 8.496094 17.367188 8.492188 C 17.484375 8.492188 17.601562 8.488281 17.71875 8.488281 C 17.8125 8.488281 17.902344 8.488281 17.996094 8.488281 C 18.089844 8.488281 18.183594 8.484375 18.277344 8.484375 C 18.5 8.5 18.5 8.5 18.625 8.625 C 18.660156 9.347656 18.664062 10.066406 18.667969 10.789062 C 18.671875 11.035156 18.671875 11.277344 18.679688 11.519531 C 18.6875 11.871094 18.6875 12.222656 18.691406 12.574219 C 18.695312 12.679688 18.695312 12.789062 18.699219 12.902344 C 18.699219 13.445312 18.691406 13.671875 18.332031 14.105469 C 18.222656 14.195312 18.113281 14.285156 18 14.375 C 17.867188 14.539062 17.742188 14.703125 17.621094 14.875 C 17.554688 14.960938 17.488281 15.050781 17.421875 15.140625 C 17.292969 15.324219 17.15625 15.511719 17.023438 15.695312 C 16.960938 15.78125 16.894531 15.871094 16.828125 15.960938 C 16.773438 16.039062 16.714844 16.117188 16.65625 16.203125 C 16.578125 16.289062 16.578125 16.289062 16.5 16.375 C 16.417969 16.375 16.335938 16.375 16.25 16.375 C 16.25 16.289062 16.246094 16.203125 16.246094 16.117188 C 16.238281 15.730469 16.230469 15.347656 16.21875 14.960938 C 16.21875 14.828125 16.214844 14.691406 16.214844 14.554688 C 16.207031 14.425781 16.203125 14.296875 16.203125 14.164062 C 16.199219 14.046875 16.195312 13.929688 16.195312 13.804688 C 16.105469 13.414062 15.953125 13.34375 15.625 13.125 C 15.578125 12.816406 15.578125 12.816406 15.59375 12.476562 C 15.597656 12.363281 15.601562 12.25 15.609375 12.136719 C 15.613281 12.046875 15.617188 11.964844 15.625 11.875 C 15.789062 11.792969 15.953125 11.710938 16.125 11.625 C 16.167969 10.59375 16.207031 9.5625 16.25 8.5 Z M 16.25 8.5 "/>
<path style=" stroke:none;fill-rule:nonzero;fill:rgb(99.607843%,76.078433%,26.274511%);fill-opacity:1;" d="M 5.75 5.375 C 5.75 9.085938 5.75 12.800781 5.75 16.625 C 5.335938 16.625 4.925781 16.625 4.5 16.625 C 4.492188 15.234375 4.484375 13.839844 4.480469 12.445312 C 4.480469 11.796875 4.476562 11.152344 4.472656 10.503906 C 4.46875 9.882812 4.464844 9.257812 4.464844 8.632812 C 4.464844 8.394531 4.460938 8.15625 4.460938 7.917969 C 4.457031 7.585938 4.457031 7.253906 4.457031 6.917969 C 4.457031 6.820312 4.453125 6.722656 4.453125 6.621094 C 4.453125 6.230469 4.480469 5.917969 4.636719 5.558594 C 4.875 5.375 4.875 5.375 5.75 5.375 Z M 5.75 5.375 "/>
<path style=" stroke:none;fill-rule:nonzero;fill:rgb(1.568628%,2.745098%,2.745098%);fill-opacity:1;" d="M 20 22 C 20.25 22.25 20.25 22.25 20.265625 22.578125 C 20.261719 22.675781 20.253906 22.773438 20.25 22.875 C 19.6875 23.03125 19.6875 23.03125 19.394531 22.878906 C 19.0625 22.71875 18.808594 22.710938 18.4375 22.710938 C 18.320312 22.707031 18.203125 22.707031 18.082031 22.703125 C 17.699219 22.757812 17.542969 22.882812 17.25 23.125 C 17.167969 23.125 17.085938 23.125 17 23.125 C 16.960938 23.222656 16.921875 23.320312 16.882812 23.421875 C 16.75 23.75 16.75 23.75 16.625 24 C 16.542969 24.507812 16.535156 24.949219 16.773438 25.414062 C 17.09375 25.851562 17.359375 26.171875 17.875 26.375 C 18.566406 26.429688 19.046875 26.421875 19.625 26 C 19.828125 25.679688 19.984375 25.351562 20.125 25 C 19.992188 25.003906 19.992188 25.003906 19.859375 25.007812 C 19.746094 25.011719 19.632812 25.015625 19.515625 25.015625 C 19.347656 25.019531 19.347656 25.019531 19.171875 25.023438 C 18.875 25 18.875 25 18.625 24.75 C 18.691406 24.308594 18.691406 24.308594 18.875 24.125 C 19.210938 24.113281 19.539062 24.109375 19.875 24.109375 C 19.96875 24.109375 20.0625 24.109375 20.160156 24.109375 C 20.859375 24.109375 20.859375 24.109375 21 24.25 C 21.101562 25.078125 21.058594 25.726562 20.5625 26.410156 C 20.078125 26.964844 19.628906 27.335938 18.871094 27.414062 C 17.96875 27.445312 17.328125 27.421875 16.605469 26.859375 C 15.964844 26.210938 15.609375 25.515625 15.59375 24.601562 C 15.609375 23.789062 15.691406 23.210938 16.253906 22.601562 C 17.417969 21.519531 18.550781 21.328125 20 22 Z M 20 22 "/>
<path style=" stroke:none;fill-rule:nonzero;fill:rgb(38.431373%,80.392158%,91.764706%);fill-opacity:1;" d="M 21.25 20.875 C 21.472656 20.863281 21.691406 20.859375 21.914062 20.851562 C 22.039062 20.847656 22.160156 20.84375 22.289062 20.839844 C 22.625 20.875 22.625 20.875 22.828125 21.023438 C 23.054688 21.324219 23.046875 21.511719 23.050781 21.882812 C 23.050781 22.074219 23.050781 22.074219 23.054688 22.269531 C 23.054688 22.410156 23.054688 22.546875 23.054688 22.691406 C 23.054688 22.832031 23.054688 22.976562 23.054688 23.121094 C 23.058594 23.425781 23.054688 23.726562 23.054688 24.027344 C 23.054688 24.488281 23.058594 24.953125 23.0625 25.414062 C 23.0625 25.707031 23.0625 26 23.0625 26.292969 C 23.0625 26.429688 23.066406 26.570312 23.066406 26.710938 C 23.066406 26.839844 23.0625 26.96875 23.0625 27.101562 C 23.0625 27.214844 23.0625 27.328125 23.0625 27.445312 C 22.976562 27.859375 22.828125 27.988281 22.5 28.25 C 22.121094 28.3125 22.121094 28.3125 21.667969 28.308594 C 21.542969 28.3125 21.542969 28.3125 21.414062 28.3125 C 21.132812 28.3125 20.851562 28.308594 20.574219 28.304688 C 20.371094 28.304688 20.171875 28.304688 19.96875 28.308594 C 19.425781 28.308594 18.878906 28.304688 18.335938 28.300781 C 17.765625 28.296875 17.195312 28.296875 16.625 28.296875 C 15.546875 28.296875 14.46875 28.292969 13.390625 28.285156 C 12.160156 28.28125 10.933594 28.277344 9.703125 28.273438 C 7.175781 28.269531 4.652344 28.261719 2.125 28.25 C 2.125 28.207031 2.125 28.167969 2.125 28.125 C 2.222656 28.125 2.324219 28.125 2.421875 28.125 C 4.816406 28.109375 7.207031 28.097656 9.597656 28.082031 C 10.757812 28.078125 11.914062 28.070312 13.070312 28.0625 C 14.078125 28.058594 15.085938 28.050781 16.09375 28.046875 C 16.628906 28.042969 17.160156 28.039062 17.695312 28.035156 C 18.199219 28.035156 18.699219 28.03125 19.203125 28.027344 C 19.386719 28.027344 19.570312 28.023438 19.753906 28.023438 C 20.007812 28.023438 20.257812 28.019531 20.507812 28.019531 C 20.648438 28.019531 20.792969 28.019531 20.9375 28.015625 C 21.242188 28.035156 21.242188 28.035156 21.375 27.875 C 21.386719 27.671875 21.390625 27.464844 21.390625 27.257812 C 21.390625 27.0625 21.390625 27.0625 21.390625 26.859375 C 21.390625 26.71875 21.390625 26.574219 21.390625 26.425781 C 21.390625 26.28125 21.390625 26.136719 21.390625 25.984375 C 21.390625 25.675781 21.390625 25.363281 21.390625 25.054688 C 21.390625 24.582031 21.390625 24.105469 21.390625 23.632812 C 21.390625 23.332031 21.390625 23.03125 21.390625 22.730469 C 21.390625 22.515625 21.390625 22.515625 21.390625 22.296875 C 21.390625 22.167969 21.390625 22.035156 21.390625 21.898438 C 21.390625 21.78125 21.390625 21.667969 21.390625 21.546875 C 21.386719 21.230469 21.386719 21.230469 21.25 20.875 Z M 21.25 20.875 "/>
<path style=" stroke:none;fill-rule:nonzero;fill:rgb(58.823532%,88.627452%,97.254902%);fill-opacity:1;" d="M 11.5 22.625 C 11.929688 22.835938 11.929688 22.835938 12.25 23.125 C 12.347656 23.207031 12.445312 23.289062 12.546875 23.375 C 12.875 23.976562 12.839844 24.578125 12.75 25.25 C 12.472656 25.820312 12.128906 26.226562 11.53125 26.460938 C 10.875 26.550781 10.433594 26.59375 9.84375 26.289062 C 9.386719 25.90625 9.066406 25.570312 8.875 25 C 8.8125 24.230469 8.882812 23.734375 9.375 23.125 C 10.003906 22.527344 10.671875 22.503906 11.5 22.625 Z M 11.5 22.625 "/>
<path style=" stroke:none;fill-rule:nonzero;fill:rgb(42.745098%,83.137256%,62.7451%);fill-opacity:1;" d="M 11 6.25 C 11.371094 6.25 11.742188 6.25 12.125 6.25 C 12.125 9.671875 12.125 13.097656 12.125 16.625 C 11.753906 16.625 11.382812 16.625 11 16.625 C 11 13.203125 11 9.777344 11 6.25 Z M 11 6.25 "/>
<path style=" stroke:none;fill-rule:nonzero;fill:rgb(99.607843%,76.078433%,26.274511%);fill-opacity:1;" d="M 27.875 5.375 C 28.203125 5.375 28.535156 5.375 28.875 5.375 C 29.164062 5.808594 29.15625 5.96875 29.152344 6.480469 C 29.152344 6.707031 29.152344 6.707031 29.152344 6.9375 C 29.152344 7.097656 29.152344 7.261719 29.148438 7.425781 C 29.148438 7.59375 29.148438 7.761719 29.148438 7.929688 C 29.148438 8.371094 29.144531 8.8125 29.140625 9.253906 C 29.140625 9.703125 29.140625 10.152344 29.136719 10.601562 C 29.136719 11.484375 29.128906 12.367188 29.125 13.25 C 28.710938 13.25 28.300781 13.25 27.875 13.25 C 27.875 10.652344 27.875 8.050781 27.875 5.375 Z M 27.875 5.375 "/>
<path style=" stroke:none;fill-rule:nonzero;fill:rgb(77.64706%,92.156863%,97.647059%);fill-opacity:1;" d="M 24.25 5.25 C 25.117188 5.25 25.984375 5.25 26.875 5.25 C 26.875 7.929688 26.875 10.613281 26.875 13.375 C 26.171875 13.375 25.472656 13.375 24.75 13.375 C 24.75 12.589844 24.75 11.808594 24.75 11 C 24.792969 11 24.832031 11 24.875 11 C 24.875 11.742188 24.875 12.484375 24.875 13.25 C 25.164062 13.25 25.453125 13.25 25.75 13.25 C 25.75 10.652344 25.75 8.050781 25.75 5.375 C 25.253906 5.375 24.761719 5.375 24.25 5.375 C 24.25 5.332031 24.25 5.292969 24.25 5.25 Z M 24.25 5.25 "/>
<path style=" stroke:none;fill-rule:nonzero;fill:rgb(5.882353%,5.098039%,2.745098%);fill-opacity:1;" d="M 21.109375 15.480469 C 21.265625 15.480469 21.421875 15.480469 21.582031 15.480469 C 21.753906 15.480469 21.929688 15.480469 22.101562 15.480469 C 22.277344 15.476562 22.453125 15.476562 22.628906 15.476562 C 22.996094 15.476562 23.367188 15.476562 23.734375 15.476562 C 24.207031 15.476562 24.683594 15.476562 25.15625 15.472656 C 25.519531 15.472656 25.882812 15.472656 26.246094 15.472656 C 26.417969 15.472656 26.59375 15.46875 26.769531 15.46875 C 27.011719 15.46875 27.257812 15.46875 27.5 15.46875 C 27.640625 15.46875 27.777344 15.46875 27.921875 15.46875 C 28.25 15.5 28.25 15.5 28.5 15.75 C 28.429688 16.320312 28.429688 16.320312 28.25 16.5 C 28.003906 16.511719 27.761719 16.515625 27.515625 16.519531 C 27.359375 16.519531 27.203125 16.519531 27.042969 16.519531 C 26.871094 16.519531 26.695312 16.519531 26.523438 16.519531 C 26.347656 16.523438 26.171875 16.523438 25.996094 16.523438 C 25.628906 16.523438 25.257812 16.523438 24.890625 16.523438 C 24.417969 16.523438 23.941406 16.523438 23.46875 16.527344 C 23.105469 16.527344 22.742188 16.527344 22.378906 16.527344 C 22.207031 16.53125 22.03125 16.53125 21.855469 16.53125 C 21.613281 16.53125 21.367188 16.53125 21.125 16.53125 C 20.914062 16.53125 20.914062 16.53125 20.703125 16.53125 C 20.375 16.5 20.375 16.5 20.125 16.25 C 20.21875 15.480469 20.363281 15.484375 21.109375 15.480469 Z M 21.109375 15.480469 "/>
<path style=" stroke:none;fill-rule:nonzero;fill:rgb(78.823531%,58.823532%,89.803922%);fill-opacity:1;" d="M 16.25 8.625 C 16.621094 8.625 16.992188 8.625 17.375 8.625 C 17.390625 9.378906 17.402344 10.132812 17.410156 10.886719 C 17.414062 11.144531 17.417969 11.398438 17.421875 11.65625 C 17.429688 12.023438 17.433594 12.394531 17.4375 12.765625 C 17.4375 12.878906 17.441406 12.992188 17.445312 13.109375 C 17.445312 13.675781 17.441406 13.917969 17.078125 14.371094 C 16.96875 14.453125 16.859375 14.539062 16.75 14.625 C 16.65625 14.71875 16.558594 14.816406 16.460938 14.914062 C 16.390625 14.984375 16.320312 15.054688 16.25 15.125 C 16.246094 15.011719 16.242188 14.898438 16.238281 14.78125 C 16.234375 14.636719 16.226562 14.488281 16.21875 14.335938 C 16.210938 14.191406 16.207031 14.042969 16.203125 13.890625 C 16.109375 13.421875 16 13.390625 15.625 13.125 C 15.578125 12.816406 15.578125 12.816406 15.59375 12.476562 C 15.597656 12.363281 15.601562 12.25 15.609375 12.136719 C 15.613281 12.046875 15.617188 11.964844 15.625 11.875 C 15.789062 11.792969 15.953125 11.710938 16.125 11.625 C 16.167969 10.636719 16.207031 9.644531 16.25 8.625 Z M 16.25 8.625 "/>
<path style=" stroke:none;fill-rule:nonzero;fill:rgb(3.529412%,5.490196%,6.27451%);fill-opacity:1;" d="M 3.875 21.625 C 4.445312 21.695312 4.445312 21.695312 4.625 21.875 C 4.636719 22.21875 4.640625 22.554688 4.636719 22.898438 C 4.636719 23 4.636719 23.105469 4.636719 23.210938 C 4.636719 23.539062 4.636719 23.867188 4.632812 24.195312 C 4.632812 24.417969 4.632812 24.640625 4.632812 24.863281 C 4.628906 25.40625 4.628906 25.953125 4.625 26.5 C 4.769531 26.496094 4.769531 26.496094 4.917969 26.492188 C 5.042969 26.488281 5.167969 26.484375 5.296875 26.484375 C 5.421875 26.480469 5.546875 26.480469 5.675781 26.476562 C 6 26.5 6 26.5 6.25 26.75 C 6.179688 27.320312 6.179688 27.320312 6 27.5 C 5.671875 27.519531 5.347656 27.527344 5.015625 27.53125 C 4.921875 27.535156 4.832031 27.535156 4.738281 27.539062 C 4.058594 27.542969 4.058594 27.542969 3.785156 27.34375 C 3.585938 27.074219 3.578125 26.933594 3.578125 26.605469 C 3.578125 26.5 3.578125 26.394531 3.578125 26.289062 C 3.578125 26.175781 3.578125 26.0625 3.578125 25.949219 C 3.578125 25.832031 3.578125 25.71875 3.578125 25.597656 C 3.578125 25.355469 3.582031 25.109375 3.582031 24.867188 C 3.585938 24.492188 3.585938 24.117188 3.585938 23.746094 C 3.585938 23.507812 3.585938 23.269531 3.585938 23.035156 C 3.585938 22.921875 3.585938 22.808594 3.585938 22.695312 C 3.589844 22.589844 3.589844 22.484375 3.589844 22.378906 C 3.589844 22.289062 3.589844 22.195312 3.59375 22.101562 C 3.625 21.875 3.625 21.875 3.875 21.625 Z M 3.875 21.625 "/>
<path style=" stroke:none;fill-rule:nonzero;fill:rgb(84.705883%,23.921569%,30.19608%);fill-opacity:1;" d="M 22 10.734375 C 22.101562 10.734375 22.203125 10.734375 22.304688 10.734375 C 22.410156 10.734375 22.515625 10.734375 22.625 10.734375 C 22.785156 10.734375 22.785156 10.734375 22.945312 10.734375 C 23.046875 10.734375 23.144531 10.734375 23.25 10.734375 C 23.34375 10.734375 23.4375 10.734375 23.53125 10.734375 C 23.75 10.75 23.75 10.75 23.875 10.875 C 23.886719 11.0625 23.890625 11.246094 23.886719 11.433594 C 23.886719 11.535156 23.886719 11.636719 23.886719 11.742188 C 23.886719 11.871094 23.882812 12 23.882812 12.132812 C 23.878906 12.542969 23.878906 12.953125 23.875 13.375 C 23.050781 13.375 22.226562 13.375 21.375 13.375 C 21.371094 12.964844 21.371094 12.554688 21.367188 12.132812 C 21.367188 12.003906 21.363281 11.875 21.363281 11.742188 C 21.363281 11.589844 21.363281 11.589844 21.363281 11.433594 C 21.363281 11.328125 21.359375 11.226562 21.359375 11.117188 C 21.386719 10.671875 21.609375 10.734375 22 10.734375 Z M 22 10.734375 "/>
<path style=" stroke:none;fill-rule:nonzero;fill:rgb(6.27451%,6.666667%,6.666667%);fill-opacity:1;" d="M 11.582031 2.601562 C 11.714844 2.601562 11.714844 2.601562 11.847656 2.601562 C 12.117188 2.601562 12.382812 2.597656 12.652344 2.597656 C 12.820312 2.597656 12.992188 2.597656 13.160156 2.597656 C 13.3125 2.59375 13.46875 2.59375 13.628906 2.59375 C 14 2.625 14 2.625 14.25 2.875 C 14.179688 3.445312 14.179688 3.445312 14 3.625 C 13.46875 3.652344 12.933594 3.648438 12.402344 3.648438 C 12.132812 3.648438 11.867188 3.652344 11.597656 3.652344 C 11.429688 3.652344 11.257812 3.65625 11.089844 3.65625 C 10.933594 3.65625 10.78125 3.65625 10.621094 3.65625 C 10.25 3.625 10.25 3.625 10 3.375 C 10.121094 2.367188 10.710938 2.605469 11.582031 2.601562 Z M 11.582031 2.601562 "/>
<path style=" stroke:none;fill-rule:nonzero;fill:rgb(35.686275%,78.431374%,89.803922%);fill-opacity:1;" d="M 23.5 1.625 C 24.128906 2.152344 24.722656 2.703125 25.304688 3.28125 C 25.382812 3.359375 25.464844 3.4375 25.546875 3.515625 C 25.660156 3.628906 25.660156 3.628906 25.773438 3.742188 C 25.839844 3.8125 25.910156 3.878906 25.980469 3.949219 C 26.125 4.125 26.125 4.125 26.125 4.375 C 25.78125 4.390625 25.4375 4.398438 25.09375 4.40625 C 24.949219 4.414062 24.949219 4.414062 24.796875 4.417969 C 24.355469 4.425781 24.078125 4.417969 23.683594 4.195312 C 23.40625 3.710938 23.445312 3.265625 23.46875 2.71875 C 23.472656 2.613281 23.472656 2.507812 23.476562 2.398438 C 23.480469 2.140625 23.488281 1.882812 23.5 1.625 Z M 23.5 1.625 "/>
<path style=" stroke:none;fill-rule:nonzero;fill:rgb(98.431373%,37.254903%,47.843137%);fill-opacity:1;" d="M 21.5 10.875 C 21.871094 10.875 22.242188 10.875 22.625 10.875 C 22.625 11.660156 22.625 12.441406 22.625 13.25 C 22.253906 13.25 21.882812 13.25 21.5 13.25 C 21.5 12.464844 21.5 11.683594 21.5 10.875 Z M 21.5 10.875 "/>
<path style=" stroke:none;fill-rule:nonzero;fill:rgb(58.431375%,89.019608%,97.647059%);fill-opacity:1;" d="M 23.5 2.625 C 24.109375 3.117188 24.632812 3.640625 25.125 4.25 C 24.925781 4.261719 24.722656 4.265625 24.523438 4.273438 C 24.410156 4.277344 24.300781 4.28125 24.183594 4.285156 C 23.875 4.25 23.875 4.25 23.648438 4.101562 C 23.449219 3.796875 23.460938 3.589844 23.476562 3.226562 C 23.480469 3.113281 23.484375 3 23.484375 2.886719 C 23.492188 2.796875 23.496094 2.714844 23.5 2.625 Z M 23.5 2.625 "/>
</g>
</svg>
