<?xml version="1.0" encoding="UTF-8"?>
<svg xmlns="http://www.w3.org/2000/svg" xmlns:xlink="http://www.w3.org/1999/xlink" width="32" height="32" viewBox="0 0 32 32" version="1.1">
<g id="surface1">
<path style=" stroke:none;fill-rule:nonzero;fill:rgb(81.568629%,86.666667%,87.450981%);fill-opacity:1;" d="M 14.625 8.875 C 15.53125 8.875 16.441406 8.875 17.375 8.875 C 17.46875 9.347656 17.515625 9.695312 17.507812 10.164062 C 17.507812 10.273438 17.503906 10.386719 17.503906 10.5 C 17.503906 10.582031 17.5 10.664062 17.5 10.75 C 17.8125 10.8125 17.8125 10.8125 18.125 10.875 C 18.222656 10.90625 18.320312 10.941406 18.417969 10.972656 C 18.765625 11.035156 18.765625 11.035156 19.085938 10.792969 C 19.195312 10.699219 19.300781 10.605469 19.414062 10.507812 C 19.578125 10.367188 19.578125 10.367188 19.75 10.222656 C 19.871094 10.113281 19.871094 10.113281 20 10 C 20.707031 10.585938 21.355469 11.21875 22 11.875 C 21.789062 12.246094 21.578125 12.566406 21.28125 12.875 C 20.964844 13.214844 20.964844 13.214844 21.015625 13.570312 C 21.050781 13.671875 21.085938 13.769531 21.125 13.875 C 21.167969 14.082031 21.207031 14.292969 21.25 14.5 C 21.375 14.496094 21.375 14.496094 21.5 14.496094 C 21.609375 14.496094 21.722656 14.492188 21.835938 14.492188 C 22 14.488281 22 14.488281 22.164062 14.488281 C 22.5 14.5 22.5 14.5 23.125 14.625 C 23.125 15.53125 23.125 16.441406 23.125 17.375 C 22.652344 17.46875 22.304688 17.515625 21.835938 17.507812 C 21.671875 17.507812 21.671875 17.507812 21.5 17.503906 C 21.417969 17.503906 21.335938 17.5 21.25 17.5 C 21.234375 17.589844 21.214844 17.679688 21.195312 17.773438 C 21.125 18.125 21.125 18.125 21.027344 18.421875 C 20.964844 18.765625 20.964844 18.765625 21.207031 19.058594 C 21.300781 19.152344 21.394531 19.25 21.492188 19.351562 C 21.632812 19.5 21.632812 19.5 21.777344 19.652344 C 21.851562 19.726562 21.921875 19.796875 22 19.875 C 21.789062 20.40625 21.410156 20.765625 21.015625 21.164062 C 20.949219 21.234375 20.882812 21.304688 20.816406 21.378906 C 20.617188 21.578125 20.617188 21.578125 20.25 21.875 C 19.78125 21.820312 19.609375 21.625 19.296875 21.28125 C 19.046875 21.03125 19.046875 21.03125 18.75 20.875 C 18.292969 20.910156 17.914062 21.054688 17.5 21.25 C 17.5 21.332031 17.503906 21.417969 17.503906 21.5 C 17.503906 21.609375 17.507812 21.722656 17.507812 21.835938 C 17.507812 21.945312 17.511719 22.054688 17.511719 22.164062 C 17.5 22.5 17.5 22.5 17.375 23.125 C 16.46875 23.125 15.558594 23.125 14.625 23.125 C 14.53125 22.652344 14.484375 22.304688 14.492188 21.835938 C 14.492188 21.726562 14.496094 21.613281 14.496094 21.5 C 14.496094 21.417969 14.5 21.335938 14.5 21.25 C 14.363281 21.222656 14.363281 21.222656 14.226562 21.195312 C 13.875 21.125 13.875 21.125 13.582031 21.027344 C 13.234375 20.964844 13.234375 20.964844 12.914062 21.207031 C 12.753906 21.347656 12.753906 21.347656 12.585938 21.492188 C 12.421875 21.632812 12.421875 21.632812 12.25 21.777344 C 12.167969 21.851562 12.085938 21.921875 12 22 C 11.292969 21.414062 10.644531 20.78125 10 20.125 C 10.210938 19.753906 10.421875 19.433594 10.71875 19.125 C 11.035156 18.785156 11.035156 18.785156 10.984375 18.429688 C 10.949219 18.328125 10.914062 18.230469 10.875 18.125 C 10.8125 17.8125 10.8125 17.8125 10.75 17.5 C 10.667969 17.5 10.582031 17.503906 10.5 17.503906 C 10.332031 17.507812 10.332031 17.507812 10.164062 17.507812 C 10.054688 17.507812 9.945312 17.511719 9.835938 17.511719 C 9.5 17.5 9.5 17.5 8.875 17.375 C 8.875 16.46875 8.875 15.558594 8.875 14.625 C 9.492188 14.582031 10.113281 14.542969 10.75 14.5 C 10.960938 13.882812 10.960938 13.882812 11 13.25 C 10.726562 12.808594 10.386719 12.46875 10 12.125 C 10.210938 11.59375 10.589844 11.234375 10.984375 10.835938 C 11.050781 10.765625 11.117188 10.695312 11.183594 10.621094 C 11.382812 10.421875 11.382812 10.421875 11.75 10.125 C 12.21875 10.179688 12.390625 10.375 12.703125 10.71875 C 12.953125 10.96875 12.953125 10.96875 13.25 11.125 C 13.707031 11.089844 14.085938 10.945312 14.5 10.75 C 14.5 10.667969 14.496094 10.582031 14.496094 10.5 C 14.496094 10.390625 14.492188 10.277344 14.492188 10.164062 C 14.492188 10.054688 14.488281 9.945312 14.488281 9.835938 C 14.5 9.5 14.5 9.5 14.625 8.875 Z M 14.625 8.875 "/>
<path style=" stroke:none;fill-rule:nonzero;fill:rgb(56.470591%,55.686277%,76.47059%);fill-opacity:1;" d="M 2.59375 -0.03125 C 2.746094 -0.0351562 2.894531 -0.0390625 3.050781 -0.0429688 C 3.851562 0.03125 4.363281 0.394531 4.875 1 C 5.40625 1.761719 5.453125 2.464844 5.375 3.375 C 5.3125 3.546875 5.3125 3.546875 5.253906 3.71875 C 5.246094 4.527344 5.945312 5.046875 6.480469 5.597656 C 7.433594 6.484375 8.28125 6.59375 9.546875 6.570312 C 9.863281 6.554688 10.183594 6.527344 10.5 6.5 C 10.5 6.996094 10.5 7.488281 10.5 8 C 7.425781 8.425781 7.425781 8.425781 6.445312 7.726562 C 5.664062 7.085938 5.015625 6.292969 4.40625 5.488281 C 4.136719 5.203125 4.136719 5.203125 3.734375 5.273438 C 3.617188 5.308594 3.496094 5.339844 3.375 5.375 C 2.367188 5.480469 1.582031 5.351562 0.75 4.75 C 0.0351562 4 -0.046875 3.28125 -0.0351562 2.289062 C 0.0234375 1.582031 0.222656 1.125 0.746094 0.652344 C 1.390625 0.15625 1.769531 -0.0195312 2.59375 -0.03125 Z M 1.625 1.875 C 1.359375 2.207031 1.375 2.375 1.382812 2.804688 C 1.527344 3.347656 1.664062 3.550781 2.125 3.875 C 2.476562 3.957031 2.773438 3.953125 3.125 3.875 C 3.476562 3.652344 3.6875 3.496094 3.875 3.125 C 3.953125 2.390625 3.953125 2.390625 3.617188 1.757812 C 2.859375 1.226562 2.320312 1.277344 1.625 1.875 Z M 1.625 1.875 "/>
<path style=" stroke:none;fill-rule:nonzero;fill:rgb(95.686275%,45.490196%,69.411767%);fill-opacity:1;" d="M 21.5 24 C 24.574219 23.574219 24.574219 23.574219 25.554688 24.273438 C 26.335938 24.914062 26.984375 25.707031 27.59375 26.511719 C 27.863281 26.796875 27.863281 26.796875 28.265625 26.726562 C 28.382812 26.691406 28.503906 26.660156 28.625 26.625 C 29.632812 26.519531 30.417969 26.648438 31.25 27.25 C 31.964844 28 32.046875 28.71875 32.035156 29.710938 C 31.976562 30.414062 31.777344 30.871094 31.257812 31.347656 C 30.371094 32.039062 29.609375 32.074219 28.5 32 C 27.738281 31.742188 27.234375 31.234375 26.835938 30.546875 C 26.507812 29.847656 26.488281 29.007812 26.746094 28.28125 C 26.753906 27.472656 26.054688 26.953125 25.519531 26.402344 C 24.566406 25.515625 23.71875 25.40625 22.453125 25.429688 C 22.136719 25.445312 21.816406 25.472656 21.5 25.5 C 21.5 25.003906 21.5 24.511719 21.5 24 Z M 28.25 28.625 C 28.046875 29.027344 28.050781 29.4375 28.125 29.875 C 28.441406 30.324219 28.65625 30.46875 29.179688 30.632812 C 29.734375 30.621094 29.957031 30.484375 30.375 30.125 C 30.640625 29.792969 30.625 29.625 30.617188 29.195312 C 30.472656 28.652344 30.335938 28.449219 29.875 28.125 C 29.1875 27.964844 28.746094 28.113281 28.25 28.625 Z M 28.25 28.625 "/>
<path style=" stroke:none;fill-rule:nonzero;fill:rgb(81.960785%,87.058824%,87.843138%);fill-opacity:1;" d="M 30.679688 0.1875 C 31.285156 0.542969 31.691406 1.132812 32 1.75 C 32.019531 2.03125 32.027344 2.3125 32.03125 2.59375 C 32.035156 2.746094 32.039062 2.894531 32.039062 3.050781 C 31.96875 3.851562 31.601562 4.363281 31 4.875 C 30.238281 5.40625 29.535156 5.453125 28.625 5.375 C 28.507812 5.339844 28.386719 5.308594 28.261719 5.273438 C 27.863281 5.203125 27.863281 5.203125 27.59375 5.488281 C 27.460938 5.664062 27.460938 5.664062 27.328125 5.839844 C 25.53125 8.011719 25.53125 8.011719 24.390625 8.164062 C 23.421875 8.234375 22.460938 8.132812 21.5 8 C 21.5 7.503906 21.5 7.011719 21.5 6.5 C 21.691406 6.515625 21.882812 6.535156 22.078125 6.550781 C 23.238281 6.609375 24.257812 6.640625 25.203125 5.890625 C 25.777344 5.359375 26.363281 4.808594 26.75 4.125 C 26.769531 3.722656 26.769531 3.722656 26.625 3.375 C 26.519531 2.367188 26.648438 1.582031 27.25 0.75 C 28.148438 -0.105469 29.535156 -0.316406 30.679688 0.1875 Z M 28.375 1.75 C 28.070312 2.210938 28.039062 2.589844 28.125 3.125 C 28.351562 3.476562 28.503906 3.6875 28.875 3.875 C 29.609375 3.953125 29.609375 3.953125 30.242188 3.617188 C 30.554688 3.171875 30.632812 2.917969 30.625 2.375 C 30.417969 1.972656 30.25 1.710938 29.875 1.453125 C 29.273438 1.265625 28.890625 1.445312 28.375 1.75 Z M 28.375 1.75 "/>
<path style=" stroke:none;fill-rule:nonzero;fill:rgb(22.745098%,70.19608%,75.294119%);fill-opacity:1;" d="M 10.5 24 C 10.5 24.496094 10.5 24.988281 10.5 25.5 C 10.308594 25.484375 10.117188 25.464844 9.921875 25.449219 C 8.761719 25.390625 7.742188 25.359375 6.796875 26.109375 C 6.222656 26.640625 5.640625 27.191406 5.25 27.875 C 5.230469 28.277344 5.230469 28.277344 5.375 28.625 C 5.453125 29.535156 5.40625 30.238281 4.875 31 C 4.375 31.59375 3.914062 31.957031 3.125 32.039062 C 2.28125 32.070312 1.546875 32.050781 0.875 31.5 C 0.109375 30.664062 -0.0390625 30.019531 -0.0273438 28.894531 C 0.015625 28.246094 0.242188 27.910156 0.648438 27.421875 C 1.417969 26.773438 2.027344 26.566406 3.035156 26.59375 C 3.375 26.625 3.375 26.625 3.738281 26.726562 C 4.136719 26.796875 4.136719 26.796875 4.40625 26.511719 C 4.492188 26.394531 4.582031 26.28125 4.671875 26.160156 C 6.480469 23.976562 7.632812 23.601562 10.5 24 Z M 1.757812 28.382812 C 1.445312 28.828125 1.363281 29.082031 1.375 29.625 C 1.574219 30.015625 1.757812 30.28125 2.101562 30.554688 C 2.527344 30.664062 2.828125 30.609375 3.25 30.5 C 3.609375 30.25 3.828125 30.070312 3.929688 29.632812 C 3.957031 29.152344 3.902344 28.921875 3.640625 28.507812 C 3.273438 28.152344 3.171875 28.128906 2.648438 28.078125 C 2.222656 28.085938 2.128906 28.121094 1.757812 28.382812 Z M 1.757812 28.382812 "/>
<path style=" stroke:none;fill-rule:nonzero;fill:rgb(28.235295%,46.27451%,53.333336%);fill-opacity:1;" d="M 17.3125 13.335938 C 18.003906 13.753906 18.617188 14.34375 18.875 15.125 C 18.996094 16.09375 18.957031 16.945312 18.375 17.75 C 17.828125 18.417969 17.222656 18.804688 16.367188 18.933594 C 15.363281 18.984375 14.636719 18.796875 13.875 18.125 C 13.21875 17.320312 13.0625 16.578125 13.078125 15.554688 C 13.171875 14.730469 13.539062 14.179688 14.144531 13.632812 C 15.089844 12.972656 16.253906 12.851562 17.3125 13.335938 Z M 17.3125 13.335938 "/>
<path style=" stroke:none;fill-rule:nonzero;fill:rgb(18.039216%,66.666669%,80.392158%);fill-opacity:1;" d="M 30.734375 13.582031 C 31.308594 13.945312 31.753906 14.492188 32 15.125 C 32.109375 16.046875 32.140625 16.910156 31.5625 17.671875 C 30.925781 18.363281 30.355469 18.703125 29.40625 18.796875 C 28.664062 18.773438 27.949219 18.527344 27.382812 18.042969 C 26.972656 17.589844 26.875 17.382812 26.75 16.75 C 26.089844 16.75 25.429688 16.75 24.75 16.75 C 24.75 16.253906 24.75 15.761719 24.75 15.25 C 25.410156 15.25 26.070312 15.25 26.75 15.25 C 26.789062 15.042969 26.832031 14.835938 26.875 14.625 C 27.265625 13.929688 27.820312 13.585938 28.5625 13.332031 C 29.355469 13.125 30 13.226562 30.734375 13.582031 Z M 30.734375 13.582031 "/>
<path style=" stroke:none;fill-rule:nonzero;fill:rgb(98.039216%,81.176472%,29.411766%);fill-opacity:1;" d="M 4.375 13.75 C 4.921875 14.214844 5.109375 14.535156 5.25 15.25 C 5.910156 15.25 6.570312 15.25 7.25 15.25 C 7.25 15.746094 7.25 16.238281 7.25 16.75 C 6.589844 16.75 5.929688 16.75 5.25 16.75 C 5.1875 17.058594 5.1875 17.058594 5.125 17.375 C 4.734375 18.070312 4.175781 18.414062 3.4375 18.667969 C 2.644531 18.875 2.003906 18.773438 1.265625 18.417969 C 0.691406 18.054688 0.25 17.507812 0 16.875 C -0.109375 15.953125 -0.140625 15.089844 0.4375 14.328125 C 1.570312 13.101562 2.933594 12.925781 4.375 13.75 Z M 4.375 13.75 "/>
<path style=" stroke:none;fill-rule:nonzero;fill:rgb(27.450982%,45.490196%,52.941179%);fill-opacity:1;" d="M 26.875 4 C 26.957031 4 27.039062 4 27.125 4 C 27.335938 4.246094 27.542969 4.496094 27.75 4.75 C 27.832031 4.792969 27.914062 4.832031 28 4.875 C 27.445312 6.105469 26.292969 7.316406 25.125 8 C 23.929688 8.304688 22.710938 8.160156 21.5 8 C 21.5 7.503906 21.5 7.011719 21.5 6.5 C 21.6875 6.519531 21.878906 6.539062 22.074219 6.554688 C 23.269531 6.621094 24.269531 6.652344 25.21875 5.835938 C 25.742188 5.328125 26.21875 4.785156 26.675781 4.214844 C 26.742188 4.144531 26.808594 4.074219 26.875 4 Z M 26.875 4 "/>
<path style=" stroke:none;fill-rule:nonzero;fill:rgb(27.450982%,45.490196%,52.941179%);fill-opacity:1;" d="M 21.5 24 C 24.527344 23.558594 24.527344 23.558594 25.578125 24.277344 C 26.496094 24.996094 27.328125 25.921875 28 26.875 C 28 26.957031 28 27.039062 28 27.125 C 27.78125 27.339844 27.78125 27.339844 27.5 27.578125 C 27.359375 27.695312 27.359375 27.695312 27.21875 27.816406 C 27.144531 27.878906 27.074219 27.9375 27 28 C 26.554688 27.640625 26.15625 27.300781 25.808594 26.84375 C 25.203125 26.082031 24.726562 25.609375 23.726562 25.492188 C 22.984375 25.449219 22.246094 25.460938 21.5 25.5 C 21.5 25.003906 21.5 24.511719 21.5 24 Z M 21.5 24 "/>
<path style=" stroke:none;fill-rule:nonzero;fill:rgb(27.450982%,45.490196%,52.941179%);fill-opacity:1;" d="M 4.875 4 C 5.292969 4.175781 5.507812 4.378906 5.785156 4.734375 C 6.820312 5.992188 6.820312 5.992188 8.308594 6.542969 C 9.042969 6.589844 9.765625 6.558594 10.5 6.5 C 10.5 6.996094 10.5 7.488281 10.5 8 C 7.464844 8.445312 7.464844 8.445312 6.421875 7.71875 C 5.496094 6.980469 4.726562 6.050781 4 5.125 C 4.050781 5.066406 4.105469 5.003906 4.160156 4.941406 C 4.230469 4.863281 4.296875 4.785156 4.367188 4.703125 C 4.433594 4.625 4.503906 4.546875 4.574219 4.464844 C 4.757812 4.253906 4.757812 4.253906 4.875 4 Z M 4.875 4 "/>
<path style=" stroke:none;fill-rule:nonzero;fill:rgb(27.450982%,45.490196%,52.941179%);fill-opacity:1;" d="M 10.5 24 C 10.5 24.496094 10.5 24.988281 10.5 25.5 C 10.3125 25.480469 10.121094 25.460938 9.925781 25.445312 C 8.726562 25.378906 7.730469 25.355469 6.773438 26.164062 C 6.179688 26.734375 5.636719 27.351562 5.125 28 C 4.984375 27.882812 4.84375 27.765625 4.703125 27.648438 C 4.625 27.582031 4.546875 27.515625 4.464844 27.453125 C 4.25 27.25 4.25 27.25 4 26.875 C 5.960938 24.367188 7.246094 23.523438 10.5 24 Z M 10.5 24 "/>
<path style=" stroke:none;fill-rule:nonzero;fill:rgb(98.039216%,98.431373%,98.823529%);fill-opacity:1;" d="M 16.375 14.375 C 17.410156 14.960938 17.410156 14.960938 17.582031 15.507812 C 17.648438 16.027344 17.660156 16.304688 17.429688 16.789062 C 16.707031 17.582031 16.707031 17.582031 16.101562 17.660156 C 15.660156 17.644531 15.363281 17.59375 15.015625 17.304688 C 14.601562 16.828125 14.339844 16.484375 14.382812 15.84375 C 14.453125 15.28125 14.640625 15.011719 15.054688 14.636719 C 15.476562 14.34375 15.878906 14.328125 16.375 14.375 Z M 16.375 14.375 "/>
<path style=" stroke:none;fill-rule:nonzero;fill:rgb(99.607843%,99.215686%,97.647059%);fill-opacity:1;" d="M 3.25 14.75 C 3.609375 15.0625 3.609375 15.0625 3.875 15.375 C 3.917969 15.417969 3.957031 15.457031 4 15.5 C 4.074219 16.378906 4.074219 16.378906 3.78125 16.859375 C 3.335938 17.277344 3.335938 17.277344 3 17.375 C 2.335938 17.351562 1.976562 17.210938 1.5 16.75 C 1.296875 16.347656 1.300781 15.9375 1.375 15.5 C 1.828125 14.683594 2.367188 14.539062 3.25 14.75 Z M 3.25 14.75 "/>
<path style=" stroke:none;fill-rule:nonzero;fill:rgb(97.254902%,98.823529%,99.215686%);fill-opacity:1;" d="M 29.875 14.75 C 30.214844 14.976562 30.441406 15.132812 30.625 15.5 C 30.699219 16.382812 30.699219 16.382812 30.40625 16.859375 C 29.976562 17.265625 29.796875 17.378906 29.195312 17.367188 C 28.671875 17.230469 28.472656 17.03125 28.125 16.625 C 28.082031 16.582031 28.042969 16.542969 28 16.5 C 27.925781 15.621094 27.925781 15.621094 28.21875 15.140625 C 28.78125 14.609375 29.109375 14.5625 29.875 14.75 Z M 29.875 14.75 "/>
<path style=" stroke:none;fill-rule:nonzero;fill:rgb(27.058825%,45.490196%,52.941179%);fill-opacity:1;" d="M 24.75 15.25 C 25.410156 15.25 26.070312 15.25 26.75 15.25 C 26.75 15.746094 26.75 16.238281 26.75 16.75 C 26.089844 16.75 25.429688 16.75 24.75 16.75 C 24.75 16.253906 24.75 15.761719 24.75 15.25 Z M 24.75 15.25 "/>
<path style=" stroke:none;fill-rule:nonzero;fill:rgb(27.450982%,45.490196%,52.549022%);fill-opacity:1;" d="M 5.25 15.25 C 5.910156 15.25 6.570312 15.25 7.25 15.25 C 7.25 15.746094 7.25 16.238281 7.25 16.75 C 6.589844 16.75 5.929688 16.75 5.25 16.75 C 5.25 16.253906 5.25 15.761719 5.25 15.25 Z M 5.25 15.25 "/>
</g>
</svg>
