<?xml version="1.0" encoding="UTF-8"?>
<svg xmlns="http://www.w3.org/2000/svg" xmlns:xlink="http://www.w3.org/1999/xlink" width="32" height="32" viewBox="0 0 32 32" version="1.1">
<g id="surface1">
<path style=" stroke:none;fill-rule:nonzero;fill:rgb(99.215686%,65.490198%,13.725491%);fill-opacity:1;" d="M 11.375 2.25 C 11.679688 2.234375 11.984375 2.222656 12.289062 2.210938 C 12.417969 2.203125 12.417969 2.203125 12.550781 2.195312 C 12.804688 2.1875 12.804688 2.1875 13.25 2.25 C 13.480469 2.519531 13.480469 2.519531 13.625 2.875 C 13.671875 2.992188 13.722656 3.109375 13.769531 3.226562 C 13.8125 3.347656 13.855469 3.464844 13.898438 3.585938 C 13.941406 3.703125 13.984375 3.824219 14.027344 3.945312 C 14.125 4.25 14.125 4.25 14.125 4.5 C 14.25 4.527344 14.371094 4.550781 14.5 4.578125 C 14.917969 4.691406 15.140625 4.863281 15.453125 5.15625 C 15.796875 5.433594 15.945312 5.5 16.394531 5.492188 C 16.808594 5.421875 17.214844 5.34375 17.625 5.25 C 18.109375 5.140625 18.109375 5.140625 18.5 5.25 C 18.878906 5.710938 19.175781 6.1875 19.375 6.75 C 19.234375 7.4375 18.679688 7.90625 18.226562 8.410156 C 17.925781 8.773438 17.925781 8.773438 18.125 9.375 C 18.742188 9.375 19.363281 9.375 20 9.375 C 20.074219 8.980469 20.074219 8.980469 20.148438 8.578125 C 20.4375 7.257812 20.90625 6.210938 22 5.375 C 23.371094 4.566406 24.683594 4.242188 26.269531 4.585938 C 27.535156 5.011719 28.636719 5.859375 29.285156 7.042969 C 29.921875 8.421875 29.910156 9.824219 29.433594 11.257812 C 29.265625 11.589844 29.109375 11.789062 28.867188 12.066406 C 28.414062 12.671875 28.398438 13.171875 28.414062 13.910156 C 28.414062 14.035156 28.414062 14.15625 28.414062 14.285156 C 28.414062 14.695312 28.421875 15.105469 28.425781 15.511719 C 28.429688 15.796875 28.429688 16.078125 28.429688 16.363281 C 28.433594 17.109375 28.441406 17.859375 28.449219 18.605469 C 28.457031 19.367188 28.460938 20.128906 28.464844 20.890625 C 28.472656 22.386719 28.484375 23.878906 28.5 25.375 C 28.636719 25.371094 28.773438 25.363281 28.914062 25.359375 C 29.375 25.375 29.375 25.375 29.75 25.625 C 29.785156 25.933594 29.796875 26.210938 29.792969 26.519531 C 29.792969 26.609375 29.789062 26.695312 29.789062 26.789062 C 29.789062 26.972656 29.789062 27.160156 29.785156 27.347656 C 29.78125 27.632812 29.78125 27.917969 29.777344 28.203125 C 29.777344 28.386719 29.777344 28.566406 29.773438 28.746094 C 29.773438 28.832031 29.773438 28.917969 29.773438 29.007812 C 29.765625 29.609375 29.765625 29.609375 29.625 29.75 C 29.273438 29.761719 28.925781 29.765625 28.578125 29.765625 C 28.410156 29.765625 28.410156 29.765625 28.238281 29.765625 C 27.863281 29.765625 27.488281 29.765625 27.109375 29.765625 C 26.84375 29.765625 26.574219 29.765625 26.304688 29.765625 C 25.574219 29.765625 24.84375 29.765625 24.113281 29.765625 C 23.351562 29.765625 22.585938 29.765625 21.824219 29.765625 C 20.542969 29.765625 19.261719 29.765625 17.980469 29.765625 C 16.496094 29.765625 15.011719 29.765625 13.527344 29.765625 C 12.257812 29.765625 10.984375 29.765625 9.710938 29.765625 C 8.953125 29.765625 8.191406 29.765625 7.429688 29.765625 C 6.714844 29.765625 6 29.765625 5.285156 29.765625 C 5.023438 29.765625 4.761719 29.765625 4.496094 29.765625 C 4.140625 29.765625 3.78125 29.765625 3.421875 29.765625 C 3.320312 29.765625 3.210938 29.765625 3.105469 29.765625 C 2.390625 29.765625 2.390625 29.765625 2.25 29.625 C 2.234375 29.332031 2.226562 29.042969 2.226562 28.746094 C 2.222656 28.613281 2.222656 28.613281 2.222656 28.480469 C 2.222656 28.292969 2.21875 28.105469 2.21875 27.921875 C 2.21875 27.636719 2.214844 27.347656 2.210938 27.0625 C 2.210938 26.882812 2.210938 26.703125 2.207031 26.519531 C 2.207031 26.433594 2.207031 26.347656 2.203125 26.261719 C 2.203125 26.019531 2.203125 26.019531 2.25 25.625 C 2.703125 25.320312 2.964844 25.355469 3.5 25.375 C 3.5 25.292969 3.5 25.210938 3.5 25.128906 C 3.507812 23.164062 3.515625 21.195312 3.53125 19.226562 C 3.535156 18.277344 3.539062 17.324219 3.542969 16.371094 C 3.546875 15.542969 3.550781 14.714844 3.554688 13.886719 C 3.558594 13.445312 3.5625 13.007812 3.5625 12.570312 C 3.5625 12.078125 3.566406 11.589844 3.570312 11.097656 C 3.570312 10.953125 3.570312 10.804688 3.570312 10.65625 C 3.574219 10.523438 3.574219 10.390625 3.574219 10.253906 C 3.578125 10.136719 3.578125 10.019531 3.578125 9.902344 C 3.601562 9.765625 3.601562 9.765625 3.625 9.625 C 4.03125 9.355469 4.140625 9.34375 4.609375 9.351562 C 4.726562 9.351562 4.84375 9.351562 4.964844 9.351562 C 5.085938 9.355469 5.210938 9.359375 5.335938 9.359375 C 5.460938 9.359375 5.582031 9.359375 5.710938 9.363281 C 6.015625 9.367188 6.320312 9.371094 6.625 9.375 C 6.6875 8.859375 6.660156 8.671875 6.347656 8.246094 C 6.171875 8.050781 5.988281 7.863281 5.808594 7.675781 C 5.375 7.203125 5.375 7.203125 5.375 6.808594 C 5.515625 6.460938 5.683594 6.152344 5.882812 5.835938 C 5.953125 5.726562 6.019531 5.613281 6.089844 5.5 C 6.140625 5.417969 6.195312 5.335938 6.25 5.25 C 6.480469 5.265625 6.714844 5.285156 6.945312 5.304688 C 7.082031 5.316406 7.222656 5.324219 7.363281 5.335938 C 7.75 5.375 7.75 5.375 8.195312 5.5 C 8.816406 5.5 9.171875 5.1875 9.667969 4.832031 C 10 4.625 10.238281 4.546875 10.625 4.5 C 10.636719 4.429688 10.648438 4.363281 10.664062 4.292969 C 10.808594 3.558594 11.046875 2.921875 11.375 2.25 Z M 11.375 2.25 "/>
<path style=" stroke:none;fill-rule:nonzero;fill:rgb(92.156863%,91.764706%,98.431373%);fill-opacity:1;" d="M 4.375 10.125 C 5.199219 10.125 6.023438 10.125 6.875 10.125 C 6.875 11.125 6.875 11.125 6.632812 11.472656 C 6.53125 11.574219 6.425781 11.671875 6.320312 11.773438 C 5.777344 12.292969 5.777344 12.292969 5.625 13 C 5.742188 13.3125 5.742188 13.3125 5.929688 13.601562 C 5.988281 13.699219 6.046875 13.796875 6.109375 13.902344 C 6.15625 13.976562 6.203125 14.046875 6.25 14.125 C 6.320312 14.117188 6.386719 14.109375 6.457031 14.101562 C 8.835938 13.832031 8.835938 13.832031 9.851562 14.640625 C 9.941406 14.71875 10.03125 14.796875 10.125 14.875 C 10.289062 14.957031 10.289062 14.957031 10.453125 15.046875 C 10.84375 15.316406 10.898438 15.542969 11.03125 15.992188 C 11.070312 16.121094 11.109375 16.253906 11.148438 16.386719 C 11.230469 16.671875 11.304688 16.960938 11.375 17.25 C 11.582031 17.25 11.789062 17.25 12 17.25 C 12 19.105469 12 20.960938 12 22.875 C 10.886719 22.875 9.773438 22.875 8.625 22.875 C 8.542969 22.585938 8.460938 22.296875 8.375 22 C 8.136719 21.820312 8.136719 21.820312 7.875 21.75 C 7.792969 21.707031 7.710938 21.667969 7.625 21.625 C 7.015625 21.558594 6.53125 21.53125 6 21.851562 C 5.574219 22.320312 5.453125 22.605469 5.46875 23.242188 C 5.53125 23.746094 5.75 24.105469 6.078125 24.484375 C 6.546875 24.707031 6.988281 24.703125 7.5 24.625 C 7.949219 24.398438 8.191406 24.273438 8.378906 23.796875 C 8.625 23.5 8.625 23.5 8.878906 23.445312 C 9.230469 23.425781 9.570312 23.429688 9.921875 23.4375 C 10.046875 23.441406 10.171875 23.441406 10.304688 23.441406 C 10.710938 23.445312 11.117188 23.453125 11.523438 23.460938 C 11.796875 23.464844 12.074219 23.46875 12.347656 23.46875 C 13.023438 23.476562 13.699219 23.484375 14.375 23.5 C 14.496094 23.722656 14.621094 23.945312 14.742188 24.167969 C 14.925781 24.453125 15.042969 24.542969 15.375 24.625 C 16.011719 24.667969 16.542969 24.664062 17.125 24.375 C 17.296875 24.070312 17.296875 24.070312 17.375 23.75 C 17.417969 23.667969 17.457031 23.585938 17.5 23.5 C 18.308594 23.480469 19.117188 23.46875 19.929688 23.457031 C 20.203125 23.453125 20.480469 23.449219 20.753906 23.445312 C 21.152344 23.433594 21.546875 23.429688 21.945312 23.425781 C 22.066406 23.421875 22.191406 23.417969 22.316406 23.414062 C 22.644531 23.414062 22.929688 23.421875 23.25 23.5 C 23.566406 23.863281 23.566406 23.863281 23.75 24.25 C 24.113281 24.597656 24.363281 24.679688 24.867188 24.679688 C 25.300781 24.664062 25.484375 24.632812 25.875 24.414062 C 26.324219 23.894531 26.433594 23.417969 26.414062 22.742188 C 26.351562 22.347656 26.160156 22.144531 25.875 21.875 C 25.34375 21.5625 24.851562 21.523438 24.25 21.625 C 23.679688 21.917969 23.488281 22.277344 23.25 22.875 C 21.351562 22.875 19.453125 22.875 17.5 22.875 C 17.375 22.585938 17.253906 22.296875 17.125 22 C 16.738281 21.636719 16.390625 21.59375 15.875 21.570312 C 15.449219 21.585938 15.261719 21.621094 14.875 21.828125 C 14.558594 22.164062 14.558594 22.164062 14.375 22.875 C 13.839844 22.875 13.300781 22.875 12.75 22.875 C 12.75 21.019531 12.75 19.164062 12.75 17.25 C 12.957031 17.167969 13.164062 17.085938 13.375 17 C 13.515625 16.726562 13.515625 16.726562 13.578125 16.40625 C 13.738281 15.730469 13.871094 15.164062 14.480469 14.769531 C 14.613281 14.710938 14.746094 14.652344 14.882812 14.59375 C 15.421875 14.359375 15.421875 14.359375 15.875 14 C 16.222656 14 16.222656 14 16.648438 14.039062 C 16.792969 14.050781 16.9375 14.066406 17.089844 14.078125 C 17.519531 14.128906 17.949219 14.179688 18.375 14.25 C 18.503906 14.054688 18.632812 13.855469 18.757812 13.65625 C 18.828125 13.546875 18.898438 13.4375 18.972656 13.324219 C 19.144531 13.019531 19.144531 13.019531 19.121094 12.75 C 18.886719 12.261719 18.480469 11.890625 18.117188 11.492188 C 17.875 11.125 17.875 11.125 17.875 10.25 C 18.699219 10.25 19.523438 10.25 20.375 10.25 C 20.460938 10.472656 20.546875 10.699219 20.632812 10.929688 C 21.171875 12.210938 21.855469 13.027344 23.125 13.625 C 24.339844 14.109375 25.6875 14 26.875 13.5 C 27.121094 13.417969 27.371094 13.335938 27.625 13.25 C 27.625 17.292969 27.625 21.335938 27.625 25.5 C 25.191406 25.5 22.757812 25.5 20.25 25.5 C 20.25 26.242188 20.25 26.984375 20.25 27.75 C 20.019531 27.980469 19.660156 27.890625 19.355469 27.890625 C 19.191406 27.890625 19.027344 27.890625 18.855469 27.890625 C 18.675781 27.890625 18.492188 27.890625 18.3125 27.890625 C 18.128906 27.890625 17.945312 27.890625 17.757812 27.890625 C 17.371094 27.890625 16.984375 27.890625 16.597656 27.890625 C 16.101562 27.890625 15.601562 27.890625 15.105469 27.890625 C 14.726562 27.890625 14.34375 27.890625 13.960938 27.890625 C 13.777344 27.890625 13.597656 27.890625 13.414062 27.890625 C 13.15625 27.890625 12.898438 27.890625 12.644531 27.890625 C 12.425781 27.890625 12.425781 27.890625 12.203125 27.890625 C 11.875 27.875 11.875 27.875 11.75 27.75 C 11.75 27.007812 11.75 26.265625 11.75 25.5 C 9.316406 25.5 6.882812 25.5 4.375 25.5 C 4.375 20.425781 4.375 15.351562 4.375 10.125 Z M 4.375 10.125 "/>
<path style=" stroke:none;fill-rule:nonzero;fill:rgb(14.901961%,45.09804%,54.509807%);fill-opacity:1;" d="M 4.601562 9.347656 C 4.71875 9.347656 4.835938 9.347656 4.953125 9.347656 C 5.074219 9.347656 5.195312 9.351562 5.320312 9.351562 C 5.441406 9.351562 5.5625 9.351562 5.6875 9.351562 C 6.589844 9.359375 6.589844 9.359375 6.875 9.5 C 6.875 9.707031 6.875 9.914062 6.875 10.125 C 6.050781 10.125 5.222656 10.125 4.375 10.125 C 4.375 15.199219 4.375 20.273438 4.375 25.5 C 6.808594 25.5 9.242188 25.5 11.75 25.5 C 11.8125 26.613281 11.8125 26.613281 11.875 27.75 C 14.597656 27.75 17.320312 27.75 20.125 27.75 C 20.164062 27.007812 20.207031 26.265625 20.25 25.5 C 22.683594 25.5 25.117188 25.5 27.625 25.5 C 27.621094 24.609375 27.613281 23.722656 27.605469 22.804688 C 27.605469 22.242188 27.601562 21.679688 27.601562 21.121094 C 27.597656 20.226562 27.59375 19.332031 27.585938 18.441406 C 27.582031 17.722656 27.578125 17 27.578125 16.28125 C 27.578125 16.007812 27.574219 15.730469 27.570312 15.457031 C 27.566406 15.074219 27.566406 14.6875 27.566406 14.304688 C 27.566406 14.1875 27.566406 14.074219 27.5625 13.957031 C 27.566406 13.1875 27.566406 13.1875 27.863281 12.863281 C 28.125 12.75 28.125 12.75 28.375 12.75 C 28.414062 16.917969 28.457031 21.082031 28.5 25.375 C 28.789062 25.375 29.078125 25.375 29.375 25.375 C 29.5 25.457031 29.621094 25.539062 29.75 25.625 C 29.785156 25.933594 29.796875 26.210938 29.789062 26.519531 C 29.789062 26.609375 29.789062 26.695312 29.789062 26.789062 C 29.789062 26.972656 29.789062 27.160156 29.785156 27.347656 C 29.78125 27.632812 29.78125 27.917969 29.78125 28.203125 C 29.777344 28.386719 29.777344 28.566406 29.777344 28.746094 C 29.773438 28.832031 29.773438 28.917969 29.773438 29.007812 C 29.765625 29.609375 29.765625 29.609375 29.625 29.75 C 29.273438 29.761719 28.925781 29.765625 28.574219 29.765625 C 28.410156 29.765625 28.410156 29.765625 28.238281 29.765625 C 27.863281 29.765625 27.488281 29.765625 27.109375 29.765625 C 26.84375 29.765625 26.574219 29.765625 26.308594 29.765625 C 25.574219 29.765625 24.84375 29.765625 24.113281 29.765625 C 23.351562 29.765625 22.589844 29.765625 21.824219 29.765625 C 20.542969 29.765625 19.261719 29.765625 17.980469 29.765625 C 16.496094 29.765625 15.011719 29.765625 13.527344 29.765625 C 12.253906 29.765625 10.984375 29.765625 9.714844 29.765625 C 8.953125 29.765625 8.191406 29.765625 7.429688 29.765625 C 6.714844 29.765625 6 29.765625 5.285156 29.765625 C 5.023438 29.765625 4.757812 29.765625 4.496094 29.765625 C 4.140625 29.765625 3.78125 29.765625 3.421875 29.765625 C 3.316406 29.765625 3.210938 29.765625 3.101562 29.765625 C 2.390625 29.765625 2.390625 29.765625 2.25 29.625 C 2.234375 29.332031 2.226562 29.042969 2.222656 28.746094 C 2.222656 28.613281 2.222656 28.613281 2.222656 28.480469 C 2.222656 28.292969 2.222656 28.109375 2.21875 27.921875 C 2.21875 27.636719 2.214844 27.347656 2.210938 27.0625 C 2.210938 26.882812 2.210938 26.703125 2.210938 26.519531 C 2.207031 26.433594 2.207031 26.347656 2.203125 26.261719 C 2.207031 26.019531 2.207031 26.019531 2.25 25.625 C 2.707031 25.320312 2.964844 25.355469 3.5 25.375 C 3.5 25.292969 3.5 25.214844 3.5 25.128906 C 3.507812 23.164062 3.519531 21.195312 3.53125 19.226562 C 3.535156 18.277344 3.539062 17.324219 3.542969 16.371094 C 3.546875 15.542969 3.550781 14.714844 3.554688 13.886719 C 3.558594 13.445312 3.5625 13.007812 3.5625 12.570312 C 3.5625 12.078125 3.566406 11.589844 3.570312 11.097656 C 3.570312 10.953125 3.570312 10.804688 3.570312 10.65625 C 3.570312 10.523438 3.574219 10.390625 3.574219 10.253906 C 3.574219 10.136719 3.574219 10.019531 3.578125 9.902344 C 3.59375 9.808594 3.609375 9.71875 3.625 9.625 C 4.027344 9.355469 4.136719 9.34375 4.601562 9.347656 Z M 4.601562 9.347656 "/>
<path style=" stroke:none;fill-rule:nonzero;fill:rgb(99.607843%,25.490198%,11.372549%);fill-opacity:1;" d="M 27.78125 5.34375 C 28.816406 6.1875 29.535156 7.160156 29.75 8.5 C 29.871094 9.96875 29.636719 11.335938 28.664062 12.484375 C 27.433594 13.605469 25.984375 14.066406 24.339844 14.039062 C 23.160156 13.941406 22.152344 13.359375 21.382812 12.46875 C 20.851562 11.761719 20.582031 11.105469 20.375 10.25 C 19.550781 10.25 18.726562 10.25 17.875 10.25 C 17.875 10.003906 17.875 9.753906 17.875 9.5 C 18.257812 9.308594 18.660156 9.363281 19.078125 9.367188 C 19.210938 9.367188 19.210938 9.367188 19.347656 9.367188 C 19.5625 9.371094 19.78125 9.371094 20 9.375 C 20.019531 9.265625 20.039062 9.152344 20.058594 9.035156 C 20.347656 7.546875 20.757812 6.324219 22 5.375 C 23.859375 4.277344 25.9375 4.050781 27.78125 5.34375 Z M 27.78125 5.34375 "/>
<path style=" stroke:none;fill-rule:nonzero;fill:rgb(97.647059%,83.92157%,61.176473%);fill-opacity:1;" d="M 15.851562 15.609375 C 15.957031 15.609375 16.0625 15.609375 16.167969 15.609375 C 16.335938 15.609375 16.335938 15.609375 16.5 15.609375 C 16.867188 15.609375 17.230469 15.609375 17.59375 15.609375 C 17.84375 15.609375 18.097656 15.609375 18.347656 15.609375 C 18.875 15.609375 19.40625 15.609375 19.933594 15.609375 C 20.613281 15.609375 21.292969 15.609375 21.96875 15.609375 C 22.492188 15.609375 23.011719 15.609375 23.53125 15.609375 C 23.78125 15.609375 24.03125 15.609375 24.28125 15.609375 C 24.632812 15.609375 24.980469 15.609375 25.332031 15.609375 C 25.488281 15.609375 25.488281 15.609375 25.648438 15.609375 C 26.359375 15.609375 26.359375 15.609375 26.5 15.75 C 26.511719 16.0625 26.515625 16.375 26.515625 16.6875 C 26.515625 16.78125 26.515625 16.875 26.515625 16.972656 C 26.515625 17.171875 26.515625 17.371094 26.515625 17.566406 C 26.515625 17.875 26.515625 18.179688 26.515625 18.484375 C 26.515625 18.675781 26.515625 18.871094 26.515625 19.0625 C 26.515625 19.15625 26.515625 19.246094 26.515625 19.339844 C 26.515625 19.984375 26.515625 19.984375 26.375 20.125 C 26.03125 20.136719 25.6875 20.144531 25.34375 20.144531 C 25.234375 20.144531 25.125 20.144531 25.015625 20.144531 C 24.65625 20.144531 24.296875 20.144531 23.9375 20.144531 C 23.6875 20.148438 23.441406 20.148438 23.191406 20.148438 C 22.671875 20.148438 22.148438 20.148438 21.625 20.148438 C 20.957031 20.148438 20.285156 20.148438 19.617188 20.152344 C 19.101562 20.152344 18.589844 20.152344 18.074219 20.152344 C 17.828125 20.15625 17.582031 20.15625 17.332031 20.15625 C 16.988281 20.15625 16.644531 20.15625 16.296875 20.15625 C 16.195312 20.15625 16.09375 20.15625 15.984375 20.15625 C 15.277344 20.152344 15.277344 20.152344 15 19.875 C 14.976562 19.5625 14.96875 19.265625 14.96875 18.953125 C 14.972656 18.863281 14.972656 18.769531 14.972656 18.675781 C 14.972656 18.484375 14.972656 18.292969 14.972656 18.101562 C 14.976562 17.804688 14.976562 17.511719 14.976562 17.214844 C 14.976562 17.027344 14.976562 16.84375 14.980469 16.65625 C 14.980469 16.566406 14.980469 16.476562 14.980469 16.386719 C 14.988281 15.59375 15.070312 15.609375 15.851562 15.609375 Z M 15.851562 15.609375 "/>
<path style=" stroke:none;fill-rule:nonzero;fill:rgb(99.215686%,25.490198%,11.764706%);fill-opacity:1;" d="M 12 17.25 C 12.207031 17.25 12.414062 17.25 12.625 17.25 C 12.625 19.105469 12.625 20.960938 12.625 22.875 C 13.203125 22.875 13.78125 22.875 14.375 22.875 C 14.417969 22.628906 14.457031 22.378906 14.5 22.125 C 14.835938 21.726562 15.039062 21.542969 15.546875 21.441406 C 16.21875 21.402344 16.671875 21.523438 17.214844 21.914062 C 17.375 22.125 17.375 22.125 17.5 22.875 C 19.398438 22.875 21.296875 22.875 23.25 22.875 C 23.292969 22.667969 23.332031 22.460938 23.375 22.25 C 23.671875 21.839844 24.035156 21.550781 24.53125 21.433594 C 25.199219 21.40625 25.609375 21.558594 26.125 22 C 26.480469 22.332031 26.5 22.488281 26.546875 22.984375 C 26.519531 23.632812 26.292969 24.058594 25.867188 24.546875 C 25.328125 24.84375 24.851562 24.875 24.25 24.75 C 23.753906 24.464844 23.433594 24.171875 23.25 23.625 C 21.351562 23.582031 19.453125 23.542969 17.5 23.5 C 17.417969 23.707031 17.335938 23.914062 17.25 24.125 C 16.957031 24.464844 16.804688 24.609375 16.375 24.75 C 15.710938 24.792969 15.28125 24.816406 14.75 24.375 C 14.375 23.84375 14.375 23.84375 14.375 23.5 C 13.5625 23.503906 12.75 23.507812 11.9375 23.519531 C 11.664062 23.523438 11.386719 23.523438 11.109375 23.523438 C 10.710938 23.523438 10.316406 23.53125 9.921875 23.535156 C 9.796875 23.535156 9.671875 23.535156 9.542969 23.535156 C 9.226562 23.542969 8.933594 23.550781 8.625 23.625 C 8.363281 23.910156 8.363281 23.910156 8.25 24.25 C 7.734375 24.703125 7.320312 24.839844 6.648438 24.804688 C 6.164062 24.707031 5.957031 24.488281 5.625 24.125 C 5.328125 23.628906 5.25 23.0625 5.375 22.5 C 5.636719 22.085938 5.933594 21.722656 6.375 21.5 C 7.007812 21.429688 7.488281 21.429688 8.0625 21.726562 C 8.375 22 8.375 22 8.625 22.375 C 8.625 22.539062 8.625 22.703125 8.625 22.875 C 9.738281 22.875 10.851562 22.875 12 22.875 C 12 21.019531 12 19.164062 12 17.25 Z M 12 17.25 "/>
<path style=" stroke:none;fill-rule:nonzero;fill:rgb(100%,99.215686%,98.431373%);fill-opacity:1;" d="M 12.171875 6.839844 C 13.027344 6.785156 13.671875 7.015625 14.375 7.5 C 14.949219 8.019531 15.316406 8.5625 15.421875 9.34375 C 15.445312 10.390625 15.25 11.1875 14.542969 11.980469 C 13.8125 12.652344 13.054688 12.945312 12.0625 12.910156 C 11.207031 12.8125 10.5 12.464844 9.953125 11.785156 C 9.28125 10.878906 9.273438 9.972656 9.375 8.875 C 9.515625 8.464844 9.703125 8.1875 10 7.875 C 10.101562 7.765625 10.101562 7.765625 10.199219 7.65625 C 10.804688 7.078125 11.359375 6.9375 12.171875 6.839844 Z M 12.171875 6.839844 "/>
<path style=" stroke:none;fill-rule:nonzero;fill:rgb(99.607843%,99.607843%,99.607843%);fill-opacity:1;" d="M 11.875 25.5 C 14.597656 25.5 17.320312 25.5 20.125 25.5 C 20.125 26.285156 20.125 27.066406 20.125 27.875 C 17.402344 27.875 14.679688 27.875 11.875 27.875 C 11.875 27.089844 11.875 26.308594 11.875 25.5 Z M 11.875 25.5 "/>
<path style=" stroke:none;fill-rule:nonzero;fill:rgb(100%,59.215689%,14.509805%);fill-opacity:1;" d="M 14.609375 6.910156 C 15.3125 7.453125 15.722656 8.164062 16 9 C 16.113281 10.328125 15.9375 11.246094 15.09375 12.28125 C 14.449219 12.976562 13.746094 13.445312 12.792969 13.53125 C 11.585938 13.558594 10.59375 13.308594 9.691406 12.472656 C 8.863281 11.515625 8.695312 10.5625 8.707031 9.328125 C 8.796875 8.359375 9.226562 7.726562 9.921875 7.070312 C 11.363281 5.882812 13.085938 5.867188 14.609375 6.910156 Z M 9.875 8 C 9.28125 8.714844 9.300781 9.394531 9.328125 10.308594 C 9.390625 10.894531 9.515625 11.164062 9.875 11.625 C 9.949219 11.738281 10.023438 11.847656 10.101562 11.960938 C 10.710938 12.605469 11.449219 12.886719 12.328125 12.921875 C 13.167969 12.910156 13.855469 12.601562 14.480469 12.042969 C 15.214844 11.242188 15.449219 10.441406 15.417969 9.367188 C 15.328125 8.605469 15.019531 8.101562 14.460938 7.585938 C 12.957031 6.417969 11.136719 6.644531 9.875 8 Z M 9.875 8 "/>
<path style=" stroke:none;fill-rule:nonzero;fill:rgb(12.54902%,40.392157%,48.627451%);fill-opacity:1;" d="M 4.601562 9.347656 C 4.71875 9.347656 4.835938 9.347656 4.953125 9.347656 C 5.074219 9.347656 5.195312 9.351562 5.320312 9.351562 C 5.441406 9.351562 5.5625 9.351562 5.6875 9.351562 C 6.589844 9.359375 6.589844 9.359375 6.875 9.5 C 6.875 9.707031 6.875 9.914062 6.875 10.125 C 6.050781 10.167969 5.222656 10.207031 4.375 10.25 C 4.332031 15.28125 4.292969 20.316406 4.25 25.5 C 4.042969 25.5 3.835938 25.5 3.625 25.5 C 3.617188 23.433594 3.609375 21.367188 3.605469 19.304688 C 3.601562 18.34375 3.601562 17.386719 3.597656 16.425781 C 3.59375 15.589844 3.589844 14.753906 3.589844 13.921875 C 3.589844 13.476562 3.589844 13.035156 3.585938 12.589844 C 3.582031 12.097656 3.582031 11.605469 3.582031 11.109375 C 3.582031 10.964844 3.578125 10.816406 3.578125 10.664062 C 3.578125 10.53125 3.578125 10.394531 3.578125 10.257812 C 3.578125 10.140625 3.578125 10.023438 3.578125 9.902344 C 3.59375 9.8125 3.609375 9.71875 3.625 9.625 C 4.027344 9.355469 4.136719 9.34375 4.601562 9.347656 Z M 4.601562 9.347656 "/>
<path style=" stroke:none;fill-rule:nonzero;fill:rgb(99.607843%,25.882354%,12.156863%);fill-opacity:1;" d="M 7.625 21.5 C 8.109375 21.75 8.324219 21.925781 8.625 22.375 C 8.699219 22.933594 8.691406 23.457031 8.484375 23.984375 C 8.117188 24.398438 7.785156 24.695312 7.226562 24.800781 C 6.714844 24.832031 6.359375 24.796875 5.945312 24.476562 C 5.453125 23.9375 5.304688 23.496094 5.316406 22.757812 C 5.425781 22.273438 5.765625 21.949219 6.125 21.625 C 6.589844 21.394531 7.117188 21.441406 7.625 21.5 Z M 7.625 21.5 "/>
<path style=" stroke:none;fill-rule:nonzero;fill:rgb(99.607843%,25.882354%,12.156863%);fill-opacity:1;" d="M 25.375 21.5 C 25.855469 21.75 26.257812 22.011719 26.5 22.5 C 26.566406 23.203125 26.523438 23.644531 26.125 24.25 C 25.84375 24.574219 25.636719 24.722656 25.210938 24.804688 C 24.605469 24.847656 24.21875 24.792969 23.742188 24.398438 C 23.335938 24.011719 23.226562 23.644531 23.195312 23.09375 C 23.199219 22.496094 23.40625 22.210938 23.8125 21.789062 C 24.269531 21.390625 24.796875 21.429688 25.375 21.5 Z M 25.375 21.5 "/>
<path style=" stroke:none;fill-rule:nonzero;fill:rgb(12.54902%,40.392157%,48.627451%);fill-opacity:1;" d="M 28.375 12.75 C 28.375 16.957031 28.375 21.164062 28.375 25.5 C 28.167969 25.5 27.960938 25.5 27.75 25.5 C 27.722656 23.890625 27.699219 22.285156 27.675781 20.679688 C 27.664062 19.933594 27.652344 19.1875 27.640625 18.441406 C 27.628906 17.722656 27.617188 17 27.609375 16.28125 C 27.605469 16.007812 27.601562 15.730469 27.59375 15.457031 C 27.585938 15.074219 27.582031 14.6875 27.578125 14.304688 C 27.578125 14.1875 27.574219 14.074219 27.570312 13.957031 C 27.566406 13.1875 27.566406 13.1875 27.863281 12.863281 C 28.125 12.75 28.125 12.75 28.375 12.75 Z M 28.375 12.75 "/>
<path style=" stroke:none;fill-rule:nonzero;fill:rgb(23.529412%,22.745098%,22.745098%);fill-opacity:1;" d="M 12 17.25 C 12.207031 17.25 12.414062 17.25 12.625 17.25 C 12.625 19.105469 12.625 20.960938 12.625 22.875 C 13.160156 22.875 13.699219 22.875 14.25 22.875 C 14.25 23.082031 14.25 23.289062 14.25 23.5 C 12.394531 23.5 10.539062 23.5 8.625 23.5 C 8.625 23.292969 8.625 23.085938 8.625 22.875 C 9.738281 22.875 10.851562 22.875 12 22.875 C 12 21.019531 12 19.164062 12 17.25 Z M 12 17.25 "/>
<path style=" stroke:none;fill-rule:nonzero;fill:rgb(16.470589%,43.137255%,50.980395%);fill-opacity:1;" d="M 11.25 25.625 C 11.414062 25.625 11.578125 25.625 11.75 25.625 C 11.792969 26.328125 11.832031 27.027344 11.875 27.75 C 14.597656 27.75 17.320312 27.75 20.125 27.75 C 20.167969 27.046875 20.207031 26.347656 20.25 25.625 C 20.414062 25.625 20.578125 25.625 20.75 25.625 C 20.765625 25.988281 20.773438 26.355469 20.78125 26.71875 C 20.785156 26.820312 20.789062 26.925781 20.792969 27.03125 C 20.796875 27.179688 20.796875 27.179688 20.796875 27.332031 C 20.800781 27.472656 20.800781 27.472656 20.804688 27.609375 C 20.722656 27.996094 20.554688 28.132812 20.25 28.375 C 19.863281 28.4375 19.863281 28.4375 19.40625 28.441406 C 19.28125 28.445312 19.28125 28.445312 19.152344 28.445312 C 18.878906 28.449219 18.605469 28.449219 18.328125 28.445312 C 18.136719 28.445312 17.945312 28.449219 17.753906 28.449219 C 17.351562 28.449219 16.949219 28.449219 16.546875 28.449219 C 16.03125 28.445312 15.519531 28.449219 15.003906 28.453125 C 14.609375 28.453125 14.210938 28.453125 13.816406 28.453125 C 13.625 28.453125 13.4375 28.453125 13.246094 28.457031 C 12.980469 28.457031 12.714844 28.457031 12.453125 28.453125 C 12.300781 28.453125 12.148438 28.453125 11.992188 28.453125 C 11.625 28.375 11.625 28.375 11.390625 28.074219 C 11.253906 27.757812 11.203125 27.5625 11.214844 27.222656 C 11.214844 27.128906 11.214844 27.035156 11.21875 26.941406 C 11.222656 26.796875 11.222656 26.796875 11.226562 26.648438 C 11.230469 26.550781 11.230469 26.453125 11.230469 26.351562 C 11.234375 26.109375 11.242188 25.867188 11.25 25.625 Z M 11.25 25.625 "/>
<path style=" stroke:none;fill-rule:nonzero;fill:rgb(24.705882%,23.529412%,22.352941%);fill-opacity:1;" d="M 16.625 18.25 C 19.347656 18.25 22.070312 18.25 24.875 18.25 C 24.832031 18.457031 24.792969 18.664062 24.75 18.875 C 22.109375 18.875 19.46875 18.875 16.75 18.875 C 16.707031 18.667969 16.667969 18.460938 16.625 18.25 Z M 16.625 18.25 "/>
<path style=" stroke:none;fill-rule:nonzero;fill:rgb(24.313726%,23.529412%,21.960784%);fill-opacity:1;" d="M 16.625 17 C 19.347656 17 22.070312 17 24.875 17 C 24.832031 17.207031 24.792969 17.414062 24.75 17.625 C 22.109375 17.625 19.46875 17.625 16.75 17.625 C 16.707031 17.417969 16.667969 17.210938 16.625 17 Z M 16.625 17 "/>
<path style=" stroke:none;fill-rule:nonzero;fill:rgb(100%,96.470588%,96.078432%);fill-opacity:1;" d="M 24.875 7.75 C 25.492188 7.75 26.113281 7.75 26.75 7.75 C 26.75 8.410156 26.75 9.070312 26.75 9.75 C 26.296875 9.75 25.84375 9.75 25.375 9.75 C 25.375 10.121094 25.375 10.492188 25.375 10.875 C 25.210938 10.875 25.046875 10.875 24.875 10.875 C 24.875 9.84375 24.875 8.8125 24.875 7.75 Z M 24.875 7.75 "/>
<path style=" stroke:none;fill-rule:nonzero;fill:rgb(100%,92.941177%,91.764706%);fill-opacity:1;" d="M 23 7.75 C 23.210938 7.785156 23.417969 7.828125 23.625 7.875 C 23.65625 7.976562 23.6875 8.074219 23.722656 8.175781 C 23.988281 9.007812 23.988281 9.007812 24.34375 9.804688 C 24.511719 10.148438 24.535156 10.371094 24.5 10.75 C 24.335938 10.792969 24.171875 10.832031 24 10.875 C 23.917969 10.628906 23.835938 10.378906 23.75 10.125 C 23.421875 10.125 23.089844 10.125 22.75 10.125 C 22.667969 10.371094 22.585938 10.621094 22.5 10.875 C 22.335938 10.832031 22.171875 10.792969 22 10.75 C 22.074219 10.0625 22.25 9.472656 22.5 8.828125 C 22.535156 8.738281 22.570312 8.648438 22.605469 8.554688 C 22.855469 7.894531 22.855469 7.894531 23 7.75 Z M 23 7.75 "/>
<path style=" stroke:none;fill-rule:nonzero;fill:rgb(23.921569%,23.529412%,23.529412%);fill-opacity:1;" d="M 17.625 22.875 C 19.480469 22.875 21.335938 22.875 23.25 22.875 C 23.25 23.082031 23.25 23.289062 23.25 23.5 C 21.394531 23.5 19.539062 23.5 17.625 23.5 C 17.625 23.292969 17.625 23.085938 17.625 22.875 Z M 17.625 22.875 "/>
<path style=" stroke:none;fill-rule:nonzero;fill:rgb(20.392157%,43.921569%,51.372552%);fill-opacity:1;" d="M 19.0625 9.359375 C 19.148438 9.359375 19.234375 9.359375 19.324219 9.359375 C 19.96875 9.359375 19.96875 9.359375 20.25 9.5 C 20.292969 9.75 20.332031 9.996094 20.375 10.25 C 19.550781 10.25 18.726562 10.25 17.875 10.25 C 17.875 10 17.875 9.753906 17.875 9.5 C 18.253906 9.3125 18.648438 9.355469 19.0625 9.359375 Z M 19.0625 9.359375 "/>
<path style=" stroke:none;fill-rule:nonzero;fill:rgb(100%,93.725491%,92.941177%);fill-opacity:1;" d="M 27.375 7.75 C 27.539062 7.75 27.703125 7.75 27.875 7.75 C 27.875 8.78125 27.875 9.8125 27.875 10.875 C 27.667969 10.832031 27.460938 10.792969 27.25 10.75 C 27.246094 10.273438 27.242188 9.796875 27.242188 9.320312 C 27.242188 9.183594 27.238281 9.046875 27.238281 8.90625 C 27.238281 8.777344 27.238281 8.648438 27.238281 8.515625 C 27.238281 8.394531 27.234375 8.277344 27.234375 8.152344 C 27.25 7.875 27.25 7.875 27.375 7.75 Z M 27.375 7.75 "/>
<path style=" stroke:none;fill-rule:nonzero;fill:rgb(100%,25.882354%,12.156863%);fill-opacity:1;" d="M 25.5 8.375 C 25.707031 8.375 25.914062 8.375 26.125 8.375 C 26.125 8.621094 26.125 8.871094 26.125 9.125 C 25.917969 9.125 25.710938 9.125 25.5 9.125 C 25.5 8.878906 25.5 8.628906 25.5 8.375 Z M 25.5 8.375 "/>
</g>
</svg>
