<?xml version="1.0" encoding="UTF-8"?>
<svg xmlns="http://www.w3.org/2000/svg" xmlns:xlink="http://www.w3.org/1999/xlink" width="32" height="32" viewBox="0 0 32 32" version="1.1">
<g id="surface1">
<path style=" stroke:none;fill-rule:nonzero;fill:rgb(1.568628%,1.568628%,1.568628%);fill-opacity:1;" d="M 22.625 0 C 23.699219 0 24.769531 0 25.875 0 C 25.917969 0.453125 25.957031 0.90625 26 1.375 C 26.523438 1.210938 26.523438 1.210938 27.015625 0.976562 C 27.25 0.875 27.25 0.875 27.46875 0.886719 C 27.890625 1.054688 28.160156 1.371094 28.46875 1.695312 C 28.53125 1.761719 28.59375 1.824219 28.660156 1.890625 C 28.816406 2.050781 28.972656 2.214844 29.125 2.375 C 28.816406 3.179688 28.816406 3.179688 28.5 4 C 28.996094 4.042969 29.488281 4.082031 30 4.125 C 30 5.15625 30 6.1875 30 7.25 C 29.546875 7.292969 29.09375 7.332031 28.625 7.375 C 28.710938 7.980469 28.710938 7.980469 28.960938 8.382812 C 29.125 8.75 29.125 8.75 29.039062 9 C 28.863281 9.269531 28.675781 9.4375 28.429688 9.640625 C 27.984375 10.078125 27.894531 10.386719 27.882812 11.003906 C 27.882812 11.113281 27.886719 11.222656 27.886719 11.335938 C 27.886719 11.453125 27.882812 11.574219 27.882812 11.695312 C 27.878906 12.085938 27.882812 12.472656 27.882812 12.863281 C 27.882812 13.136719 27.882812 13.40625 27.882812 13.679688 C 27.878906 14.246094 27.882812 14.816406 27.886719 15.382812 C 27.890625 16.109375 27.886719 16.839844 27.882812 17.566406 C 27.878906 18.128906 27.882812 18.6875 27.882812 19.25 C 27.882812 19.515625 27.882812 19.785156 27.882812 20.054688 C 27.878906 20.429688 27.882812 20.804688 27.886719 21.179688 C 27.886719 21.289062 27.882812 21.398438 27.882812 21.515625 C 27.890625 21.960938 27.898438 22.257812 28.195312 22.605469 C 28.421875 22.808594 28.421875 22.808594 28.664062 22.972656 C 28.941406 23.171875 29.105469 23.40625 29.289062 23.695312 C 29.347656 23.785156 29.40625 23.875 29.46875 23.96875 C 29.746094 24.464844 29.875 24.796875 29.875 25.375 C 29.957031 25.378906 30.039062 25.386719 30.125 25.390625 C 30.832031 25.597656 31.429688 26.054688 31.8125 26.6875 C 32.15625 27.488281 32.144531 28.480469 31.914062 29.3125 C 31.550781 30.117188 30.921875 30.589844 30.113281 30.921875 C 29.71875 31.050781 29.335938 31.042969 28.921875 31.039062 C 28.742188 31.039062 28.5625 31.039062 28.378906 31.042969 C 28.101562 31.039062 27.820312 31.039062 27.539062 31.035156 C 26.121094 30.996094 26.121094 30.996094 24.933594 31.703125 C 24.5625 32.054688 24.144531 32.015625 23.664062 32.019531 C 23.515625 32.019531 23.367188 32.019531 23.210938 32.019531 C 23.050781 32.019531 22.886719 32.019531 22.71875 32.023438 C 22.546875 32.023438 22.371094 32.023438 22.199219 32.023438 C 21.628906 32.027344 21.058594 32.027344 20.492188 32.03125 C 20.296875 32.03125 20.097656 32.03125 19.902344 32.03125 C 18.980469 32.035156 18.058594 32.035156 17.136719 32.035156 C 16.074219 32.039062 15.011719 32.042969 13.945312 32.046875 C 13.125 32.050781 12.300781 32.050781 11.480469 32.050781 C 10.988281 32.050781 10.496094 32.054688 10.007812 32.054688 C 9.542969 32.058594 9.082031 32.058594 8.621094 32.058594 C 8.371094 32.058594 8.121094 32.0625 7.871094 32.0625 C 6.980469 32.058594 6.378906 31.992188 5.625 31.5 C 5.5625 31.433594 5.496094 31.367188 5.429688 31.296875 C 5.160156 31.039062 4.9375 31.078125 4.570312 31.078125 C 4.367188 31.074219 4.367188 31.074219 4.160156 31.074219 C 3.878906 31.070312 3.597656 31.070312 3.316406 31.070312 C 2.355469 31.054688 1.496094 30.960938 0.765625 30.28125 C 0.0273438 29.484375 -0.0585938 28.746094 -0.0390625 27.679688 C 0.0234375 26.96875 0.214844 26.519531 0.734375 26.027344 C 1.171875 25.675781 1.546875 25.410156 2.125 25.375 C 2.136719 25.273438 2.144531 25.167969 2.15625 25.0625 C 2.355469 24.140625 2.832031 23.410156 3.5 22.75 C 3.585938 22.699219 3.671875 22.652344 3.757812 22.601562 C 4.035156 22.390625 4.035156 22.390625 4.0625 22.023438 C 4.0625 21.878906 4.0625 21.734375 4.0625 21.582031 C 4.0625 21.464844 4.0625 21.464844 4.0625 21.339844 C 4.0625 21.070312 4.0625 20.800781 4.058594 20.527344 C 4.058594 20.335938 4.058594 20.140625 4.058594 19.949219 C 4.058594 19.53125 4.058594 19.113281 4.058594 18.695312 C 4.054688 18.039062 4.054688 17.378906 4.054688 16.71875 C 4.058594 15.078125 4.054688 13.441406 4.054688 11.800781 C 4.050781 10.527344 4.050781 9.253906 4.050781 7.984375 C 4.054688 7.328125 4.050781 6.671875 4.046875 6.015625 C 4.046875 5.605469 4.046875 5.199219 4.050781 4.789062 C 4.050781 4.601562 4.050781 4.410156 4.046875 4.222656 C 4.046875 3.964844 4.046875 3.707031 4.046875 3.449219 C 4.046875 3.300781 4.046875 3.160156 4.046875 3.007812 C 4.148438 2.5 4.339844 2.3125 4.75 2 C 5.058594 1.921875 5.058594 1.921875 5.390625 1.925781 C 5.519531 1.925781 5.644531 1.925781 5.777344 1.925781 C 5.914062 1.925781 6.050781 1.929688 6.195312 1.933594 C 6.414062 1.933594 6.414062 1.933594 6.636719 1.933594 C 6.953125 1.933594 7.269531 1.9375 7.585938 1.941406 C 8.089844 1.945312 8.589844 1.949219 9.09375 1.949219 C 10.429688 1.949219 11.765625 1.957031 13.101562 1.96875 C 13.980469 1.976562 14.859375 1.980469 15.738281 1.976562 C 16.152344 1.976562 16.570312 1.980469 16.988281 1.984375 C 17.453125 1.992188 17.917969 1.992188 18.382812 1.988281 C 18.519531 1.992188 18.65625 1.996094 18.796875 2 C 19.539062 1.996094 19.539062 1.996094 20.167969 1.640625 C 20.429688 1.367188 20.429688 1.367188 20.648438 1.078125 C 20.722656 1.011719 20.796875 0.945312 20.875 0.875 C 21.394531 0.90625 21.792969 1.140625 22.25 1.375 C 22.332031 1.375 22.414062 1.375 22.5 1.375 C 22.542969 0.921875 22.582031 0.46875 22.625 0 Z M 23.125 4.625 C 22.835938 5.046875 22.75 5.296875 22.75 5.8125 C 22.90625 6.359375 23.105469 6.59375 23.5 7 C 23.898438 7.199219 24.316406 7.171875 24.75 7.125 C 25.183594 6.953125 25.34375 6.796875 25.609375 6.414062 C 25.785156 5.898438 25.804688 5.515625 25.625 5 C 25.332031 4.632812 25.332031 4.632812 25 4.375 C 24.957031 4.332031 24.917969 4.292969 24.875 4.25 C 24.214844 4.179688 23.640625 4.167969 23.125 4.625 Z M 23.125 4.625 "/>
<path style=" stroke:none;fill-rule:nonzero;fill:rgb(87.843138%,89.019608%,90.588236%);fill-opacity:1;" d="M 16.8125 22.757812 C 17.066406 22.960938 17.257812 23.132812 17.453125 23.394531 C 17.914062 23.75 18.371094 23.683594 18.9375 23.679688 C 20.203125 23.710938 21.269531 23.898438 22.242188 24.773438 C 22.796875 25.394531 23.21875 26.117188 23.289062 26.953125 C 23.277344 27.050781 23.265625 27.148438 23.25 27.25 C 23.335938 27.261719 23.425781 27.273438 23.515625 27.289062 C 24.304688 27.476562 24.8125 27.808594 25.25 28.5 C 25.382812 29.199219 25.273438 29.78125 24.875 30.375 C 24.328125 30.882812 23.929688 31.015625 23.195312 31.019531 C 23.050781 31.019531 22.910156 31.019531 22.765625 31.023438 C 22.609375 31.023438 22.453125 31.023438 22.296875 31.023438 C 22.132812 31.023438 21.96875 31.023438 21.800781 31.023438 C 21.257812 31.027344 20.714844 31.027344 20.171875 31.03125 C 19.984375 31.03125 19.800781 31.03125 19.613281 31.03125 C 18.734375 31.035156 17.859375 31.035156 16.980469 31.035156 C 15.96875 31.039062 14.957031 31.042969 13.945312 31.046875 C 13.160156 31.050781 12.378906 31.050781 11.59375 31.050781 C 11.128906 31.054688 10.660156 31.054688 10.191406 31.054688 C 9.671875 31.058594 9.148438 31.058594 8.628906 31.058594 C 8.472656 31.058594 8.320312 31.0625 8.160156 31.0625 C 7.359375 31.058594 6.855469 31.042969 6.25 30.5 C 6.152344 30.414062 6.054688 30.332031 5.953125 30.242188 C 5.640625 29.675781 5.65625 29.132812 5.75 28.5 C 6.019531 27.9375 6.308594 27.632812 6.875 27.375 C 7.125 27.332031 7.375 27.289062 7.625 27.25 C 7.652344 27.121094 7.675781 26.996094 7.703125 26.867188 C 8.074219 25.167969 8.710938 23.707031 10.164062 22.667969 C 12.234375 21.339844 14.796875 21.308594 16.8125 22.757812 Z M 16.8125 22.757812 "/>
<path style=" stroke:none;fill-rule:nonzero;fill:rgb(90.980393%,78.823531%,68.235296%);fill-opacity:1;" d="M 5.125 6.125 C 9.578125 6.125 14.035156 6.125 18.625 6.125 C 18.625 6.496094 18.625 6.867188 18.625 7.25 C 19.078125 7.25 19.53125 7.25 20 7.25 C 20.125 7.75 20.125 7.75 20.007812 8.03125 C 19.964844 8.105469 19.921875 8.175781 19.875 8.25 C 19.71875 8.25 19.5625 8.253906 19.398438 8.253906 C 19.195312 8.261719 18.988281 8.265625 18.78125 8.273438 C 18.625 8.273438 18.625 8.273438 18.46875 8.277344 C 18.367188 8.277344 18.269531 8.28125 18.167969 8.285156 C 18.074219 8.289062 17.984375 8.289062 17.890625 8.292969 C 17.480469 8.421875 17.347656 8.640625 17.125 9 C 17.046875 9.386719 17.046875 9.386719 17.046875 9.796875 C 17.046875 9.949219 17.042969 10.101562 17.035156 10.253906 C 17.035156 10.410156 17.03125 10.566406 17.03125 10.726562 C 17.027344 10.964844 17.027344 10.964844 17.019531 11.207031 C 17.011719 11.59375 17.003906 11.984375 17 12.375 C 16.785156 12.378906 16.785156 12.378906 16.570312 12.386719 C 13.976562 12.46875 11.691406 13.242188 9.855469 15.15625 C 8.585938 16.640625 8.003906 18.3125 7.859375 20.242188 C 7.847656 20.375 7.835938 20.507812 7.828125 20.644531 C 7.800781 20.972656 7.773438 21.296875 7.75 21.625 C 7.429688 21.667969 7.109375 21.707031 6.789062 21.75 C 6.699219 21.761719 6.609375 21.773438 6.515625 21.785156 C 6.425781 21.796875 6.339844 21.808594 6.25 21.820312 C 6.167969 21.832031 6.085938 21.839844 6.003906 21.851562 C 5.710938 21.878906 5.417969 21.875 5.125 21.875 C 5.125 16.675781 5.125 11.480469 5.125 6.125 Z M 5.125 6.125 "/>
<path style=" stroke:none;fill-rule:nonzero;fill:rgb(95.686275%,81.960785%,42.352942%);fill-opacity:1;" d="M 23.75 1 C 24.078125 1 24.410156 1 24.75 1 C 24.773438 1.089844 24.796875 1.175781 24.820312 1.269531 C 24.851562 1.382812 24.882812 1.5 24.914062 1.617188 C 24.945312 1.730469 24.976562 1.847656 25.007812 1.964844 C 25.046875 2.058594 25.085938 2.152344 25.125 2.25 C 25.761719 2.460938 26.464844 2.441406 27.117188 2.289062 C 27.203125 2.277344 27.289062 2.265625 27.375 2.25 C 27.601562 2.429688 27.601562 2.429688 27.75 2.625 C 27.707031 2.730469 27.667969 2.835938 27.625 2.945312 C 27.457031 3.523438 27.460938 4.007812 27.554688 4.601562 C 27.796875 4.941406 27.929688 4.949219 28.328125 5.039062 C 28.597656 5.082031 28.597656 5.082031 28.875 5.125 C 28.875 5.496094 28.875 5.867188 28.875 6.25 C 28.742188 6.28125 28.609375 6.3125 28.46875 6.34375 C 27.984375 6.503906 27.777344 6.578125 27.5 7 C 27.4375 7.65625 27.503906 8.132812 27.75 8.75 C 27.601562 8.945312 27.601562 8.945312 27.375 9.125 C 27.042969 9.09375 26.800781 9.023438 26.5 8.875 C 26.09375 8.839844 25.800781 8.859375 25.414062 8.992188 C 24.984375 9.375 24.890625 9.832031 24.75 10.375 C 24.421875 10.375 24.089844 10.375 23.75 10.375 C 23.730469 10.296875 23.710938 10.222656 23.691406 10.140625 C 23.507812 9.496094 23.507812 9.496094 23.085938 8.992188 C 22.695312 8.855469 22.414062 8.832031 22 8.875 C 21.867188 8.941406 21.867188 8.941406 21.734375 9.007812 C 21.5 9.125 21.5 9.125 21.234375 9.109375 C 21 9 21 9 20.828125 8.773438 C 20.726562 8.414062 20.835938 8.332031 21 8 C 21.085938 7.261719 21.085938 7.261719 20.734375 6.632812 C 20.347656 6.355469 20.097656 6.28125 19.625 6.25 C 19.625 5.878906 19.625 5.507812 19.625 5.125 C 19.703125 5.105469 19.78125 5.082031 19.863281 5.058594 C 19.964844 5.03125 20.066406 5 20.171875 4.96875 C 20.273438 4.941406 20.375 4.910156 20.480469 4.882812 C 20.765625 4.769531 20.765625 4.769531 20.910156 4.515625 C 21.097656 3.957031 21.058594 3.421875 20.875 2.875 C 20.832031 2.792969 20.792969 2.710938 20.75 2.625 C 20.898438 2.429688 20.898438 2.429688 21.125 2.25 C 21.382812 2.289062 21.382812 2.289062 21.75 2.375 C 22.566406 2.457031 22.566406 2.457031 23.3125 2.179688 C 23.546875 1.800781 23.648438 1.433594 23.75 1 Z M 23.125 4.625 C 22.835938 5.046875 22.75 5.296875 22.75 5.8125 C 22.90625 6.359375 23.105469 6.59375 23.5 7 C 23.898438 7.199219 24.316406 7.171875 24.75 7.125 C 25.183594 6.953125 25.34375 6.796875 25.609375 6.414062 C 25.785156 5.898438 25.804688 5.515625 25.625 5 C 25.332031 4.632812 25.332031 4.632812 25 4.375 C 24.957031 4.332031 24.917969 4.292969 24.875 4.25 C 24.214844 4.179688 23.640625 4.167969 23.125 4.625 Z M 23.125 4.625 "/>
<path style=" stroke:none;fill-rule:nonzero;fill:rgb(78.823531%,80.784315%,83.92157%);fill-opacity:1;" d="M 24 22.75 C 25.453125 22.683594 26.59375 22.703125 27.789062 23.640625 C 28.359375 24.179688 28.804688 24.859375 28.914062 25.648438 C 28.914062 25.890625 28.914062 25.890625 28.875 26.25 C 28.949219 26.261719 29.019531 26.269531 29.09375 26.28125 C 29.824219 26.414062 30.234375 26.585938 30.75 27.125 C 31.054688 27.605469 31.027344 28.050781 30.953125 28.597656 C 30.804688 29.125 30.488281 29.46875 30.03125 29.769531 C 29.65625 29.910156 29.335938 29.902344 28.933594 29.898438 C 28.703125 29.898438 28.703125 29.898438 28.460938 29.898438 C 28.21875 29.894531 28.21875 29.894531 27.96875 29.890625 C 27.804688 29.890625 27.640625 29.890625 27.46875 29.886719 C 27.0625 29.882812 26.65625 29.878906 26.25 29.875 C 26.242188 29.765625 26.238281 29.652344 26.234375 29.539062 C 26.21875 29.320312 26.21875 29.320312 26.203125 29.097656 C 26.195312 28.953125 26.1875 28.808594 26.179688 28.660156 C 26.082031 27.917969 25.726562 27.464844 25.195312 26.960938 C 24.878906 26.734375 24.878906 26.734375 24.492188 26.609375 C 24 26.296875 23.914062 25.960938 23.734375 25.421875 C 23.628906 25.097656 23.628906 25.097656 23.375 24.75 C 23.40625 24.003906 23.679688 23.410156 24 22.75 Z M 24 22.75 "/>
<path style=" stroke:none;fill-rule:nonzero;fill:rgb(97.647059%,49.803922%,41.960785%);fill-opacity:1;" d="M 18 9.25 C 19.808594 9.128906 19.808594 9.128906 20.355469 9.472656 C 20.597656 9.71875 20.804688 9.964844 21 10.25 C 21.105469 10.210938 21.210938 10.171875 21.320312 10.132812 C 21.757812 9.996094 22.171875 9.921875 22.625 9.875 C 22.75 10 22.75 10 22.761719 10.3125 C 22.757812 10.667969 22.753906 11.019531 22.75 11.375 C 23.410156 11.375 24.070312 11.375 24.75 11.375 C 24.75 13.765625 24.75 16.160156 24.75 18.625 C 24.503906 18.625 24.253906 18.625 24 18.625 C 23.957031 18.515625 23.957031 18.515625 23.917969 18.398438 C 23.050781 16.140625 21.78125 14.304688 19.523438 13.265625 C 19.308594 13.175781 19.089844 13.085938 18.875 13 C 18.585938 12.875 18.296875 12.753906 18 12.625 C 18 11.511719 18 10.398438 18 9.25 Z M 18 9.25 "/>
<path style=" stroke:none;fill-rule:nonzero;fill:rgb(3.529412%,2.352941%,1.960784%);fill-opacity:1;" d="M 7.589844 7.183594 C 7.671875 7.183594 7.753906 7.179688 7.839844 7.179688 C 8.113281 7.175781 8.390625 7.179688 8.664062 7.179688 C 8.855469 7.179688 9.046875 7.179688 9.238281 7.175781 C 9.636719 7.175781 10.039062 7.175781 10.4375 7.179688 C 10.949219 7.179688 11.464844 7.175781 11.976562 7.171875 C 12.371094 7.167969 12.765625 7.171875 13.160156 7.171875 C 13.347656 7.171875 13.539062 7.171875 13.726562 7.167969 C 13.992188 7.167969 14.257812 7.167969 14.519531 7.171875 C 14.746094 7.171875 14.746094 7.171875 14.976562 7.171875 C 15.492188 7.273438 15.675781 7.46875 16 7.875 C 16.074219 8.269531 16.074219 8.269531 16.0625 8.6875 C 16.0625 8.824219 16.058594 8.964844 16.058594 9.105469 C 15.996094 9.535156 15.886719 9.777344 15.625 10.125 C 15.179688 10.421875 14.988281 10.40625 14.460938 10.410156 C 14.214844 10.410156 14.214844 10.410156 13.964844 10.414062 C 13.789062 10.414062 13.609375 10.414062 13.429688 10.410156 C 13.246094 10.414062 13.066406 10.414062 12.882812 10.414062 C 12.5 10.414062 12.113281 10.414062 11.730469 10.414062 C 11.238281 10.414062 10.75 10.414062 10.257812 10.417969 C 9.882812 10.421875 9.503906 10.421875 9.125 10.421875 C 8.945312 10.421875 8.761719 10.421875 8.582031 10.421875 C 8.328125 10.421875 8.074219 10.421875 7.824219 10.421875 C 7.679688 10.421875 7.535156 10.421875 7.386719 10.421875 C 6.957031 10.371094 6.71875 10.257812 6.375 10 C 6.179688 9.609375 6.214844 9.195312 6.210938 8.765625 C 6.207031 8.675781 6.203125 8.585938 6.199219 8.492188 C 6.195312 8.078125 6.203125 7.8125 6.449219 7.472656 C 6.847656 7.175781 7.09375 7.1875 7.589844 7.183594 Z M 7.589844 7.183594 "/>
<path style=" stroke:none;fill-rule:nonzero;fill:rgb(78.823531%,80.784315%,83.92157%);fill-opacity:1;" d="M 6.929688 22.726562 C 7.085938 22.730469 7.085938 22.730469 7.242188 22.730469 C 7.496094 22.738281 7.746094 22.742188 8 22.75 C 8.113281 23.058594 8.15625 23.285156 8.046875 23.597656 C 7.917969 23.851562 7.789062 24.101562 7.648438 24.351562 C 7.363281 24.871094 7.121094 25.335938 7 25.917969 C 6.875 26.375 6.875 26.375 6.632812 26.578125 C 6.535156 26.617188 6.441406 26.65625 6.34375 26.695312 C 5.644531 27.027344 5.195312 27.46875 4.859375 28.167969 C 4.742188 28.527344 4.699219 28.847656 4.671875 29.226562 C 4.664062 29.347656 4.652344 29.46875 4.644531 29.597656 C 4.636719 29.6875 4.632812 29.78125 4.625 29.875 C 4.226562 29.898438 3.828125 29.910156 3.429688 29.921875 C 3.316406 29.929688 3.207031 29.933594 3.089844 29.941406 C 2.476562 29.953125 2.097656 29.917969 1.617188 29.515625 C 1.15625 29.066406 1.023438 28.710938 0.953125 28.070312 C 1.023438 27.402344 1.324219 27.054688 1.78125 26.585938 C 2.242188 26.304688 2.589844 26.285156 3.125 26.25 C 3.113281 26.132812 3.101562 26.011719 3.085938 25.890625 C 3.09375 25.09375 3.488281 24.417969 4.011719 23.835938 C 4.9375 22.972656 5.683594 22.6875 6.929688 22.726562 Z M 6.929688 22.726562 "/>
<path style=" stroke:none;fill-rule:nonzero;fill:rgb(69.803923%,85.882354%,49.411765%);fill-opacity:1;" d="M 5.125 3.125 C 9.992188 3.125 14.859375 3.125 19.875 3.125 C 20.125 3.625 20.125 3.625 20 4.125 C 19.546875 4.125 19.09375 4.125 18.625 4.125 C 18.625 4.453125 18.625 4.785156 18.625 5.125 C 16.234375 5.125 13.839844 5.125 11.375 5.125 C 11.375 4.796875 11.375 4.464844 11.375 4.125 C 11.003906 4.125 10.632812 4.125 10.25 4.125 C 10.25 4.453125 10.25 4.785156 10.25 5.125 C 9.921875 5.125 9.589844 5.125 9.25 5.125 C 9.25 4.796875 9.25 4.464844 9.25 4.125 C 8.921875 4.125 8.589844 4.125 8.25 4.125 C 8.25 4.453125 8.25 4.785156 8.25 5.125 C 7.921875 5.125 7.589844 5.125 7.25 5.125 C 7.25 4.796875 7.25 4.464844 7.25 4.125 C 6.878906 4.125 6.507812 4.125 6.125 4.125 C 6.125 4.453125 6.125 4.785156 6.125 5.125 C 5.796875 5.125 5.464844 5.125 5.125 5.125 C 5.125 4.464844 5.125 3.804688 5.125 3.125 Z M 5.125 3.125 "/>
<path style=" stroke:none;fill-rule:nonzero;fill:rgb(40.392157%,82.352942%,94.117647%);fill-opacity:1;" d="M 13.125 18.625 C 15.023438 18.625 16.921875 18.625 18.875 18.625 C 19.15625 19.609375 19.15625 19.609375 19.160156 20.042969 C 19.160156 20.183594 19.160156 20.183594 19.160156 20.328125 C 19.160156 20.421875 19.15625 20.519531 19.15625 20.617188 C 19.15625 20.761719 19.15625 20.761719 19.160156 20.90625 C 19.15625 21.558594 19.054688 22.121094 18.875 22.75 C 18.316406 22.796875 18.316406 22.796875 18.023438 22.585938 C 17.953125 22.511719 17.878906 22.4375 17.804688 22.359375 C 16.484375 21.136719 14.75 20.738281 13 20.625 C 12.996094 20.363281 12.992188 20.097656 12.992188 19.835938 C 12.992188 19.691406 12.988281 19.542969 12.988281 19.390625 C 13 19 13 19 13.125 18.625 Z M 13.125 18.625 "/>
<path style=" stroke:none;fill-rule:nonzero;fill:rgb(88.235295%,76.47059%,66.274512%);fill-opacity:1;" d="M 25.875 9.875 C 26.714844 9.964844 26.714844 9.964844 26.875 10.125 C 26.886719 10.488281 26.890625 10.851562 26.890625 11.21875 C 26.890625 11.332031 26.890625 11.449219 26.890625 11.566406 C 26.890625 11.945312 26.890625 12.328125 26.886719 12.707031 C 26.886719 12.972656 26.886719 13.234375 26.886719 13.496094 C 26.886719 14.191406 26.886719 14.886719 26.882812 15.578125 C 26.882812 16.289062 26.882812 16.996094 26.882812 17.703125 C 26.878906 19.09375 26.878906 20.484375 26.875 21.875 C 26.796875 21.867188 26.722656 21.859375 26.644531 21.847656 C 26.492188 21.832031 26.492188 21.832031 26.339844 21.816406 C 26.191406 21.796875 26.191406 21.796875 26.039062 21.78125 C 25.671875 21.742188 25.300781 21.710938 24.929688 21.679688 C 24.703125 21.660156 24.480469 21.644531 24.25 21.625 C 24.25 20.964844 24.25 20.304688 24.25 19.625 C 24.519531 19.574219 24.519531 19.574219 24.796875 19.523438 C 25.101562 19.472656 25.101562 19.472656 25.375 19.375 C 25.683594 18.914062 25.660156 18.683594 25.664062 18.132812 C 25.664062 18.046875 25.664062 17.957031 25.667969 17.867188 C 25.667969 17.578125 25.671875 17.289062 25.671875 17 C 25.675781 16.796875 25.675781 16.597656 25.679688 16.394531 C 25.683594 15.867188 25.6875 15.339844 25.691406 14.808594 C 25.699219 13.960938 25.707031 13.113281 25.714844 12.265625 C 25.71875 11.96875 25.722656 11.671875 25.722656 11.375 C 25.726562 11.195312 25.726562 11.015625 25.730469 10.835938 C 25.730469 10.597656 25.730469 10.597656 25.734375 10.355469 C 25.75 10 25.75 10 25.875 9.875 Z M 25.875 9.875 "/>
<path style=" stroke:none;fill-rule:nonzero;fill:rgb(1.960784%,1.960784%,1.960784%);fill-opacity:1;" d="M 10.351562 25.804688 C 10.449219 25.804688 10.546875 25.800781 10.648438 25.800781 C 11.363281 25.808594 11.789062 25.964844 12.375 26.375 C 12.824219 26.910156 12.953125 27.414062 12.914062 28.109375 C 12.796875 28.90625 12.363281 29.292969 11.75 29.75 C 11.34375 29.953125 10.898438 29.902344 10.453125 29.90625 C 10.355469 29.910156 10.261719 29.910156 10.160156 29.914062 C 9.730469 29.917969 9.449219 29.914062 9.066406 29.707031 C 8.601562 29.203125 8.71875 28.472656 8.710938 27.828125 C 8.707031 27.710938 8.703125 27.59375 8.699219 27.46875 C 8.695312 26.949219 8.710938 26.585938 8.933594 26.109375 C 9.398438 25.765625 9.789062 25.789062 10.351562 25.804688 Z M 10.351562 25.804688 "/>
<path style=" stroke:none;fill-rule:nonzero;fill:rgb(1.568628%,1.568628%,0.784314%);fill-opacity:1;" d="M 25.296875 3.242188 C 25.953125 3.621094 26.414062 4.128906 26.789062 4.789062 C 26.992188 5.589844 26.953125 6.289062 26.542969 7.019531 C 26.132812 7.585938 25.566406 8.085938 24.875 8.25 C 23.921875 8.347656 23.261719 8.148438 22.46875 7.585938 C 21.875 7.007812 21.695312 6.460938 21.679688 5.640625 C 21.695312 4.925781 21.785156 4.480469 22.273438 3.953125 C 22.347656 3.886719 22.421875 3.820312 22.5 3.75 C 22.574219 3.683594 22.644531 3.617188 22.71875 3.550781 C 23.46875 2.984375 24.421875 2.898438 25.296875 3.242188 Z M 23.125 4.625 C 22.835938 5.050781 22.75 5.296875 22.75 5.8125 C 22.90625 6.359375 23.105469 6.59375 23.5 7 C 23.898438 7.199219 24.316406 7.171875 24.75 7.125 C 25.183594 6.953125 25.34375 6.796875 25.609375 6.414062 C 25.785156 5.898438 25.800781 5.515625 25.625 5 C 25.332031 4.632812 25.332031 4.632812 25 4.375 C 24.957031 4.335938 24.917969 4.292969 24.875 4.25 C 24.214844 4.179688 23.644531 4.167969 23.125 4.625 Z M 23.125 4.625 "/>
<path style=" stroke:none;fill-rule:nonzero;fill:rgb(40.392157%,82.745099%,94.117647%);fill-opacity:1;" d="M 20 18.625 C 20.988281 18.625 21.980469 18.625 23 18.625 C 23.398438 20.417969 23.332031 21.925781 22.625 23.625 C 22.050781 23.503906 21.53125 23.253906 20.996094 23.019531 C 20.589844 22.851562 20.589844 22.851562 20 22.75 C 20 21.390625 20 20.027344 20 18.625 Z M 20 18.625 "/>
<path style=" stroke:none;fill-rule:nonzero;fill:rgb(4.313726%,4.313726%,4.313726%);fill-opacity:1;" d="M 17 25.75 C 17.371094 25.75 17.742188 25.75 18.125 25.75 C 18.136719 26.277344 18.140625 26.808594 18.148438 27.335938 C 18.152344 27.484375 18.15625 27.636719 18.15625 27.789062 C 18.160156 27.933594 18.160156 28.078125 18.160156 28.226562 C 18.164062 28.359375 18.164062 28.492188 18.167969 28.632812 C 18.105469 29.171875 17.878906 29.496094 17.5 29.875 C 17.246094 29.921875 17.246094 29.921875 16.953125 29.929688 C 16.808594 29.9375 16.808594 29.9375 16.660156 29.945312 C 16.222656 29.835938 16.113281 29.632812 15.875 29.25 C 15.714844 28.867188 15.589844 28.480469 15.46875 28.085938 C 15.355469 27.726562 15.242188 27.367188 15.125 27 C 15.082031 27.949219 15.042969 28.898438 15 29.875 C 14.671875 29.875 14.339844 29.875 14 29.875 C 13.984375 29.300781 13.976562 28.730469 13.96875 28.15625 C 13.964844 27.992188 13.960938 27.832031 13.957031 27.664062 C 13.953125 27.507812 13.953125 27.351562 13.953125 27.191406 C 13.949219 27.046875 13.945312 26.902344 13.945312 26.753906 C 14.011719 26.296875 14.140625 26.152344 14.5 25.875 C 14.777344 25.808594 14.777344 25.808594 15.0625 25.8125 C 15.15625 25.8125 15.25 25.808594 15.347656 25.808594 C 15.75 25.90625 15.875 26.042969 16.125 26.375 C 16.289062 26.753906 16.410156 27.140625 16.53125 27.53125 C 16.644531 27.890625 16.757812 28.253906 16.875 28.625 C 16.917969 27.675781 16.957031 26.726562 17 25.75 Z M 17 25.75 "/>
<path style=" stroke:none;fill-rule:nonzero;fill:rgb(40.392157%,82.352942%,94.117647%);fill-opacity:1;" d="M 15.875 13.75 C 16.414062 13.945312 16.707031 14.359375 17.046875 14.796875 C 17.109375 14.875 17.167969 14.953125 17.230469 15.03125 C 18.5 16.703125 18.5 16.703125 18.5 17.5 C 16.851562 17.5 15.199219 17.5 13.5 17.5 C 13.777344 16.664062 13.925781 16.226562 14.40625 15.554688 C 14.453125 15.484375 14.503906 15.417969 14.554688 15.347656 C 14.960938 14.785156 15.398438 14.257812 15.875 13.75 Z M 15.875 13.75 "/>
<path style=" stroke:none;fill-rule:nonzero;fill:rgb(3.921569%,3.921569%,3.921569%);fill-opacity:1;" d="M 20.515625 25.738281 C 20.617188 25.738281 20.71875 25.738281 20.820312 25.738281 C 20.980469 25.742188 20.980469 25.742188 21.140625 25.742188 C 21.300781 25.742188 21.300781 25.742188 21.460938 25.742188 C 21.726562 25.746094 21.988281 25.746094 22.25 25.75 C 22.25 26.121094 22.25 26.492188 22.25 26.875 C 21.261719 26.9375 21.261719 26.9375 20.25 27 C 20.820312 27.320312 20.820312 27.320312 21.390625 27.636719 C 21.988281 27.972656 21.988281 27.972656 22.125 28.25 C 22.210938 29.125 22.210938 29.125 21.886719 29.59375 C 21.34375 29.988281 20.925781 29.945312 20.273438 29.914062 C 20.164062 29.910156 20.054688 29.910156 19.9375 29.90625 C 19.667969 29.898438 19.398438 29.886719 19.125 29.875 C 19.125 29.546875 19.125 29.214844 19.125 28.875 C 19.785156 28.875 20.445312 28.875 21.125 28.875 C 21.125 28.792969 21.125 28.710938 21.125 28.625 C 21.023438 28.597656 20.917969 28.566406 20.8125 28.539062 C 20.132812 28.285156 19.53125 27.984375 19.125 27.375 C 19.070312 26.953125 19.070312 26.953125 19.125 26.5 C 19.558594 25.976562 19.84375 25.734375 20.515625 25.738281 Z M 20.515625 25.738281 "/>
<path style=" stroke:none;fill-rule:nonzero;fill:rgb(40.000001%,81.960785%,93.333334%);fill-opacity:1;" d="M 9 18.625 C 9.988281 18.625 10.980469 18.625 12 18.625 C 11.957031 19.367188 11.917969 20.109375 11.875 20.875 C 11.652344 20.960938 11.425781 21.050781 11.195312 21.140625 C 10.566406 21.402344 10.027344 21.703125 9.480469 22.109375 C 9.25 22.25 9.25 22.25 8.875 22.25 C 8.640625 21 8.722656 19.867188 9 18.625 Z M 9 18.625 "/>
<path style=" stroke:none;fill-rule:nonzero;fill:rgb(40.000001%,81.960785%,93.725491%);fill-opacity:1;" d="M 14.625 13.625 C 14.582031 13.675781 14.539062 13.730469 14.496094 13.78125 C 13.601562 14.921875 12.960938 16.179688 12.375 17.5 C 11.425781 17.5 10.476562 17.5 9.5 17.5 C 10.417969 15.664062 11.765625 14.503906 13.660156 13.726562 C 14 13.625 14.269531 13.605469 14.625 13.625 Z M 14.625 13.625 "/>
<path style=" stroke:none;fill-rule:nonzero;fill:rgb(40.392157%,82.352942%,93.725491%);fill-opacity:1;" d="M 17.375 13.625 C 19.21875 13.75 20.585938 14.871094 21.777344 16.191406 C 22.070312 16.59375 22.277344 17.054688 22.5 17.5 C 21.550781 17.5 20.601562 17.5 19.625 17.5 C 19.402344 17.039062 19.402344 17.039062 19.171875 16.570312 C 18.789062 15.796875 18.378906 15.078125 17.875 14.375 C 17.773438 14.226562 17.675781 14.078125 17.578125 13.929688 C 17.476562 13.777344 17.476562 13.777344 17.375 13.625 Z M 17.375 13.625 "/>
<path style=" stroke:none;fill-rule:nonzero;fill:rgb(98.431373%,50.196081%,42.352942%);fill-opacity:1;" d="M 7.25 8.25 C 9.808594 8.25 12.363281 8.25 15 8.25 C 15 8.578125 15 8.910156 15 9.25 C 12.441406 9.25 9.886719 9.25 7.25 9.25 C 7.25 8.921875 7.25 8.589844 7.25 8.25 Z M 7.25 8.25 "/>
<path style=" stroke:none;fill-rule:nonzero;fill:rgb(0%,0%,0%);fill-opacity:1;" d="M 6.25 11.375 C 7.941406 11.375 9.632812 11.375 11.375 11.375 C 11.375 11.703125 11.375 12.035156 11.375 12.375 C 9.683594 12.375 7.992188 12.375 6.25 12.375 C 6.25 12.046875 6.25 11.714844 6.25 11.375 Z M 6.25 11.375 "/>
<path style=" stroke:none;fill-rule:nonzero;fill:rgb(85.882354%,87.058824%,88.627452%);fill-opacity:1;" d="M 9.75 26.875 C 11.132812 26.796875 11.132812 26.796875 11.65625 27.140625 C 11.917969 27.570312 11.976562 27.757812 11.875 28.25 C 11.65625 28.609375 11.65625 28.609375 11.25 28.875 C 10.738281 28.925781 10.265625 28.902344 9.75 28.875 C 9.75 28.214844 9.75 27.554688 9.75 26.875 Z M 9.75 26.875 "/>
<path style=" stroke:none;fill-rule:nonzero;fill:rgb(11.764706%,9.803922%,8.627451%);fill-opacity:1;" d="M 6.125 13.375 C 7.199219 13.375 8.269531 13.375 9.375 13.375 C 9.375 13.746094 9.375 14.117188 9.375 14.5 C 8.300781 14.5 7.230469 14.5 6.125 14.5 C 6.125 14.128906 6.125 13.757812 6.125 13.375 Z M 6.125 13.375 "/>
<path style=" stroke:none;fill-rule:nonzero;fill:rgb(0%,0%,0%);fill-opacity:1;" d="M 6.25 15.5 C 6.910156 15.5 7.570312 15.5 8.25 15.5 C 8.25 15.828125 8.25 16.160156 8.25 16.5 C 7.589844 16.5 6.929688 16.5 6.25 16.5 C 6.25 16.171875 6.25 15.839844 6.25 15.5 Z M 6.25 15.5 "/>
</g>
</svg>
