<?xml version="1.0" encoding="UTF-8"?>
<svg xmlns="http://www.w3.org/2000/svg" xmlns:xlink="http://www.w3.org/1999/xlink" width="32" height="32" viewBox="0 0 32 32" version="1.1">
<g id="surface1">
<path style=" stroke:none;fill-rule:nonzero;fill:rgb(77.254903%,92.54902%,94.117647%);fill-opacity:1;" d="M 11 0 C 11.28125 -0.046875 11.28125 -0.046875 11.636719 -0.046875 C 11.773438 -0.0507812 11.90625 -0.0507812 12.046875 -0.0546875 C 12.269531 -0.0507812 12.269531 -0.0507812 12.496094 -0.0507812 C 12.730469 -0.0546875 12.730469 -0.0546875 12.96875 -0.0546875 C 13.398438 -0.0585938 13.828125 -0.0585938 14.257812 -0.0585938 C 14.613281 -0.0585938 14.972656 -0.0585938 15.332031 -0.0625 C 16.175781 -0.0625 17.019531 -0.0625 17.867188 -0.0625 C 18.738281 -0.0625 19.609375 -0.0664062 20.480469 -0.0703125 C 21.230469 -0.0742188 21.976562 -0.0742188 22.726562 -0.0742188 C 23.171875 -0.0742188 23.621094 -0.0742188 24.066406 -0.078125 C 24.566406 -0.0820312 25.066406 -0.078125 25.5625 -0.078125 C 25.710938 -0.078125 25.859375 -0.078125 26.011719 -0.0820312 C 27.128906 -0.0703125 27.128906 -0.0703125 27.589844 0.300781 C 27.9375 0.695312 28.015625 0.867188 28.015625 1.375 C 28.015625 1.480469 28.019531 1.585938 28.019531 1.695312 C 28.019531 1.8125 28.019531 1.929688 28.019531 2.046875 C 28.019531 2.234375 28.019531 2.234375 28.019531 2.421875 C 28.023438 2.835938 28.023438 3.253906 28.023438 3.667969 C 28.023438 3.964844 28.027344 4.261719 28.027344 4.558594 C 28.03125 5.453125 28.03125 6.34375 28.035156 7.238281 C 28.035156 7.488281 28.035156 7.742188 28.035156 7.992188 C 28.039062 9.558594 28.042969 11.125 28.042969 12.6875 C 28.042969 13.050781 28.042969 13.414062 28.042969 13.777344 C 28.042969 13.867188 28.042969 13.957031 28.042969 14.050781 C 28.046875 15.511719 28.050781 16.96875 28.054688 18.429688 C 28.058594 19.929688 28.0625 21.425781 28.0625 22.925781 C 28.0625 23.765625 28.066406 24.609375 28.070312 25.453125 C 28.074219 26.242188 28.074219 27.035156 28.074219 27.828125 C 28.074219 28.117188 28.074219 28.40625 28.078125 28.699219 C 28.078125 29.09375 28.078125 29.492188 28.078125 29.886719 C 28.078125 30.003906 28.078125 30.117188 28.082031 30.238281 C 28.074219 30.78125 28.046875 31.140625 27.699219 31.570312 C 27.199219 32.042969 26.933594 32.015625 26.253906 32.019531 C 26.164062 32.019531 26.074219 32.019531 25.980469 32.019531 C 25.675781 32.023438 25.371094 32.023438 25.066406 32.023438 C 24.847656 32.023438 24.628906 32.027344 24.414062 32.027344 C 23.695312 32.03125 22.976562 32.03125 22.261719 32.035156 C 22.011719 32.035156 21.765625 32.035156 21.519531 32.035156 C 20.492188 32.039062 19.464844 32.042969 18.441406 32.042969 C 16.96875 32.046875 15.496094 32.046875 14.023438 32.054688 C 12.988281 32.0625 11.957031 32.0625 10.921875 32.0625 C 10.304688 32.0625 9.683594 32.066406 9.066406 32.070312 C 8.484375 32.074219 7.902344 32.074219 7.324219 32.074219 C 7.109375 32.074219 6.894531 32.074219 6.683594 32.078125 C 6.390625 32.078125 6.101562 32.078125 5.808594 32.078125 C 5.5625 32.078125 5.5625 32.078125 5.3125 32.078125 C 4.738281 31.976562 4.535156 31.785156 4.125 31.375 C 3.941406 31.003906 3.980469 30.625 3.980469 30.21875 C 3.980469 30.125 3.976562 30.027344 3.976562 29.929688 C 3.976562 29.613281 3.972656 29.296875 3.972656 28.976562 C 3.96875 28.75 3.96875 28.519531 3.96875 28.292969 C 3.960938 27.542969 3.960938 26.796875 3.957031 26.046875 C 3.957031 25.917969 3.957031 25.789062 3.953125 25.660156 C 3.953125 24.457031 3.949219 23.257812 3.945312 22.054688 C 3.941406 20.519531 3.933594 18.980469 3.921875 17.445312 C 3.917969 16.363281 3.914062 15.28125 3.914062 14.203125 C 3.910156 13.554688 3.910156 12.910156 3.902344 12.265625 C 3.898438 11.660156 3.898438 11.050781 3.898438 10.445312 C 3.898438 10.21875 3.898438 9.996094 3.894531 9.773438 C 3.871094 8.089844 3.871094 8.089844 4.1875 7.558594 C 4.40625 7.339844 4.621094 7.175781 4.875 7 C 5.011719 6.855469 5.144531 6.707031 5.273438 6.554688 C 5.347656 6.472656 5.417969 6.386719 5.492188 6.300781 C 5.691406 6.070312 5.890625 5.835938 6.085938 5.605469 C 6.785156 4.78125 7.496094 3.976562 8.230469 3.183594 C 8.632812 2.753906 9.023438 2.316406 9.410156 1.871094 C 9.769531 1.457031 10.140625 1.054688 10.511719 0.648438 C 10.765625 0.367188 10.765625 0.367188 11 0 Z M 11 0 "/>
<path style=" stroke:none;fill-rule:nonzero;fill:rgb(17.647059%,26.274511%,33.725491%);fill-opacity:1;" d="M 11 0 C 11.28125 -0.046875 11.28125 -0.046875 11.636719 -0.046875 C 11.773438 -0.0507812 11.90625 -0.0507812 12.046875 -0.0546875 C 12.269531 -0.0507812 12.269531 -0.0507812 12.496094 -0.0507812 C 12.730469 -0.0546875 12.730469 -0.0546875 12.96875 -0.0546875 C 13.398438 -0.0585938 13.828125 -0.0585938 14.257812 -0.0585938 C 14.613281 -0.0585938 14.972656 -0.0585938 15.332031 -0.0625 C 16.175781 -0.0625 17.019531 -0.0625 17.867188 -0.0625 C 18.738281 -0.0625 19.609375 -0.0664062 20.480469 -0.0703125 C 21.230469 -0.0742188 21.976562 -0.0742188 22.726562 -0.0742188 C 23.171875 -0.0742188 23.621094 -0.0742188 24.066406 -0.078125 C 24.566406 -0.0820312 25.066406 -0.078125 25.5625 -0.078125 C 25.710938 -0.078125 25.859375 -0.078125 26.011719 -0.0820312 C 27.128906 -0.0703125 27.128906 -0.0703125 27.589844 0.300781 C 27.9375 0.695312 28.015625 0.867188 28.015625 1.375 C 28.015625 1.480469 28.019531 1.585938 28.019531 1.695312 C 28.019531 1.8125 28.019531 1.929688 28.019531 2.046875 C 28.019531 2.234375 28.019531 2.234375 28.019531 2.421875 C 28.023438 2.835938 28.023438 3.253906 28.023438 3.667969 C 28.023438 3.964844 28.027344 4.261719 28.027344 4.558594 C 28.03125 5.453125 28.03125 6.34375 28.035156 7.238281 C 28.035156 7.488281 28.035156 7.742188 28.035156 7.992188 C 28.039062 9.558594 28.042969 11.125 28.042969 12.6875 C 28.042969 13.050781 28.042969 13.414062 28.042969 13.777344 C 28.042969 13.867188 28.042969 13.957031 28.042969 14.050781 C 28.046875 15.511719 28.050781 16.96875 28.054688 18.429688 C 28.058594 19.929688 28.0625 21.425781 28.0625 22.925781 C 28.0625 23.765625 28.066406 24.609375 28.070312 25.453125 C 28.074219 26.242188 28.074219 27.035156 28.074219 27.828125 C 28.074219 28.117188 28.074219 28.40625 28.078125 28.699219 C 28.078125 29.09375 28.078125 29.492188 28.078125 29.886719 C 28.078125 30.003906 28.078125 30.117188 28.082031 30.238281 C 28.074219 30.78125 28.046875 31.140625 27.699219 31.570312 C 27.199219 32.042969 26.933594 32.015625 26.253906 32.019531 C 26.164062 32.019531 26.074219 32.019531 25.980469 32.019531 C 25.675781 32.023438 25.371094 32.023438 25.066406 32.023438 C 24.847656 32.023438 24.628906 32.027344 24.414062 32.027344 C 23.695312 32.03125 22.976562 32.03125 22.261719 32.035156 C 22.011719 32.035156 21.765625 32.035156 21.519531 32.035156 C 20.492188 32.039062 19.464844 32.042969 18.441406 32.042969 C 16.96875 32.046875 15.496094 32.046875 14.023438 32.054688 C 12.988281 32.0625 11.957031 32.0625 10.921875 32.0625 C 10.304688 32.0625 9.683594 32.066406 9.066406 32.070312 C 8.484375 32.074219 7.902344 32.074219 7.324219 32.074219 C 7.109375 32.074219 6.894531 32.074219 6.683594 32.078125 C 6.390625 32.078125 6.101562 32.078125 5.808594 32.078125 C 5.5625 32.078125 5.5625 32.078125 5.3125 32.078125 C 4.738281 31.976562 4.535156 31.785156 4.125 31.375 C 3.941406 31.003906 3.980469 30.625 3.980469 30.21875 C 3.980469 30.125 3.976562 30.027344 3.976562 29.929688 C 3.976562 29.613281 3.972656 29.296875 3.972656 28.976562 C 3.96875 28.75 3.96875 28.519531 3.96875 28.292969 C 3.960938 27.542969 3.960938 26.796875 3.957031 26.046875 C 3.957031 25.917969 3.957031 25.789062 3.953125 25.660156 C 3.953125 24.457031 3.949219 23.257812 3.945312 22.054688 C 3.941406 20.519531 3.933594 18.980469 3.921875 17.445312 C 3.917969 16.363281 3.914062 15.28125 3.914062 14.203125 C 3.910156 13.554688 3.910156 12.910156 3.902344 12.265625 C 3.898438 11.660156 3.898438 11.050781 3.898438 10.445312 C 3.898438 10.21875 3.898438 9.996094 3.894531 9.773438 C 3.871094 8.089844 3.871094 8.089844 4.1875 7.558594 C 4.40625 7.339844 4.621094 7.175781 4.875 7 C 5.011719 6.855469 5.144531 6.707031 5.273438 6.554688 C 5.347656 6.472656 5.417969 6.386719 5.492188 6.300781 C 5.691406 6.070312 5.890625 5.835938 6.085938 5.605469 C 6.785156 4.78125 7.496094 3.976562 8.230469 3.183594 C 8.632812 2.753906 9.023438 2.316406 9.410156 1.871094 C 9.769531 1.457031 10.140625 1.054688 10.511719 0.648438 C 10.765625 0.367188 10.765625 0.367188 11 0 Z M 12 1 C 12 1.082031 12 1.167969 11.996094 1.25 C 11.988281 2.113281 11.980469 2.980469 11.96875 3.84375 C 11.960938 4.164062 11.960938 4.488281 11.957031 4.808594 C 11.953125 5.273438 11.945312 5.734375 11.9375 6.199219 C 11.9375 6.417969 11.9375 6.417969 11.9375 6.636719 C 11.914062 7.960938 11.914062 7.960938 11.5 8.5 C 10.859375 8.96875 10.183594 8.933594 9.417969 8.9375 C 9.230469 8.941406 9.230469 8.941406 9.035156 8.945312 C 8.632812 8.953125 8.230469 8.957031 7.828125 8.960938 C 7.554688 8.964844 7.28125 8.96875 7.007812 8.972656 C 6.339844 8.984375 5.667969 8.992188 5 9 C 4.992188 11.832031 4.988281 14.664062 4.988281 17.496094 C 4.984375 18.808594 4.984375 20.125 4.980469 21.4375 C 4.980469 22.582031 4.976562 23.730469 4.976562 24.875 C 4.976562 25.480469 4.976562 26.089844 4.972656 26.695312 C 4.972656 27.265625 4.972656 27.835938 4.972656 28.40625 C 4.972656 28.617188 4.972656 28.828125 4.96875 29.039062 C 4.96875 29.324219 4.96875 29.609375 4.96875 29.894531 C 4.96875 30.054688 4.96875 30.214844 4.96875 30.378906 C 4.960938 30.765625 4.960938 30.765625 5.25 31 C 5.632812 31.039062 5.632812 31.039062 6.09375 31.03125 C 6.226562 31.03125 6.226562 31.03125 6.359375 31.03125 C 6.65625 31.035156 6.953125 31.035156 7.246094 31.03125 C 7.460938 31.03125 7.671875 31.035156 7.882812 31.035156 C 8.457031 31.035156 9.035156 31.035156 9.609375 31.035156 C 10.210938 31.03125 10.8125 31.035156 11.414062 31.035156 C 12.421875 31.035156 13.429688 31.035156 14.441406 31.03125 C 15.609375 31.03125 16.777344 31.03125 17.945312 31.03125 C 18.949219 31.035156 19.949219 31.035156 20.953125 31.035156 C 21.550781 31.035156 22.148438 31.035156 22.75 31.035156 C 23.3125 31.035156 23.875 31.035156 24.4375 31.03125 C 24.644531 31.03125 24.851562 31.03125 25.058594 31.035156 C 25.339844 31.035156 25.625 31.03125 25.90625 31.03125 C 26.0625 31.03125 26.222656 31.03125 26.382812 31.03125 C 26.765625 31.039062 26.765625 31.039062 27 30.75 C 27.023438 30.363281 27.035156 29.988281 27.03125 29.601562 C 27.03125 29.480469 27.03125 29.359375 27.03125 29.234375 C 27.035156 28.828125 27.035156 28.421875 27.03125 28.015625 C 27.03125 27.726562 27.035156 27.4375 27.035156 27.144531 C 27.035156 26.355469 27.035156 25.566406 27.035156 24.777344 C 27.03125 24.035156 27.035156 23.292969 27.035156 22.550781 C 27.035156 20.992188 27.035156 19.433594 27.03125 17.875 C 27.03125 16.535156 27.03125 15.199219 27.03125 13.859375 C 27.035156 12.304688 27.035156 10.753906 27.035156 9.199219 C 27.035156 8.378906 27.035156 7.554688 27.035156 6.734375 C 27.035156 5.957031 27.035156 5.1875 27.03125 4.414062 C 27.03125 4.128906 27.03125 3.84375 27.035156 3.558594 C 27.035156 3.171875 27.03125 2.785156 27.03125 2.398438 C 27.03125 2.285156 27.03125 2.171875 27.035156 2.054688 C 27.058594 1.464844 27.058594 1.464844 26.75 1 C 26.480469 0.960938 26.480469 0.960938 26.160156 0.96875 C 25.972656 0.96875 25.972656 0.96875 25.78125 0.96875 C 25.578125 0.96875 25.578125 0.96875 25.367188 0.972656 C 25.152344 0.972656 25.152344 0.972656 24.929688 0.972656 C 24.453125 0.972656 23.976562 0.972656 23.5 0.976562 C 23.167969 0.976562 22.839844 0.976562 22.507812 0.976562 C 21.726562 0.976562 20.945312 0.980469 20.164062 0.984375 C 19.273438 0.984375 18.382812 0.984375 17.492188 0.988281 C 15.660156 0.988281 13.832031 0.996094 12 1 Z M 12 1 "/>
<path style=" stroke:none;fill-rule:nonzero;fill:rgb(17.647059%,26.274511%,33.725491%);fill-opacity:1;" d="M 9.621094 24.171875 C 9.773438 24.171875 9.921875 24.171875 10.078125 24.171875 C 10.492188 24.167969 10.90625 24.171875 11.324219 24.175781 C 11.757812 24.175781 12.191406 24.175781 12.625 24.175781 C 13.355469 24.175781 14.085938 24.179688 14.8125 24.183594 C 15.65625 24.1875 16.496094 24.1875 17.339844 24.1875 C 18.152344 24.1875 18.960938 24.1875 19.773438 24.191406 C 20.117188 24.191406 20.464844 24.191406 20.808594 24.191406 C 21.292969 24.191406 21.773438 24.195312 22.253906 24.199219 C 22.398438 24.195312 22.539062 24.195312 22.6875 24.195312 C 22.886719 24.199219 22.886719 24.199219 23.085938 24.199219 C 23.199219 24.199219 23.3125 24.203125 23.429688 24.203125 C 23.820312 24.261719 24.058594 24.398438 24.375 24.625 C 24.609375 25.09375 24.527344 25.652344 24.53125 26.164062 C 24.535156 26.34375 24.535156 26.34375 24.539062 26.523438 C 24.546875 27.648438 24.546875 27.648438 24.125 28.125 C 23.75 28.25 23.503906 28.265625 23.117188 28.269531 C 22.984375 28.269531 22.851562 28.269531 22.71875 28.269531 C 22.574219 28.269531 22.429688 28.269531 22.28125 28.269531 C 22.054688 28.269531 22.054688 28.269531 21.820312 28.273438 C 21.40625 28.273438 20.988281 28.273438 20.574219 28.277344 C 20.3125 28.277344 20.054688 28.277344 19.792969 28.277344 C 18.980469 28.277344 18.167969 28.28125 17.355469 28.28125 C 16.414062 28.28125 15.476562 28.28125 14.539062 28.285156 C 13.8125 28.289062 13.085938 28.289062 12.359375 28.289062 C 11.925781 28.289062 11.492188 28.292969 11.058594 28.292969 C 10.578125 28.296875 10.09375 28.296875 9.609375 28.292969 C 9.464844 28.296875 9.324219 28.296875 9.175781 28.296875 C 8.976562 28.296875 8.976562 28.296875 8.773438 28.296875 C 8.660156 28.296875 8.546875 28.296875 8.429688 28.296875 C 8.0625 28.242188 7.894531 28.128906 7.625 27.875 C 7.441406 27.320312 7.460938 26.78125 7.453125 26.203125 C 7.449219 26.085938 7.445312 25.96875 7.4375 25.84375 C 7.4375 25.730469 7.4375 25.617188 7.433594 25.496094 C 7.429688 25.394531 7.429688 25.289062 7.425781 25.179688 C 7.507812 24.835938 7.640625 24.628906 7.898438 24.382812 C 8.410156 24.082031 9.042969 24.167969 9.621094 24.171875 Z M 9.621094 24.171875 "/>
<path style=" stroke:none;fill-rule:nonzero;fill:rgb(17.647059%,26.274511%,33.725491%);fill-opacity:1;" d="M 9.621094 12.171875 C 9.773438 12.171875 9.921875 12.171875 10.078125 12.171875 C 10.492188 12.167969 10.90625 12.171875 11.324219 12.175781 C 11.757812 12.175781 12.191406 12.175781 12.625 12.175781 C 13.355469 12.175781 14.085938 12.179688 14.8125 12.183594 C 15.65625 12.1875 16.496094 12.1875 17.339844 12.1875 C 18.152344 12.1875 18.960938 12.1875 19.773438 12.191406 C 20.117188 12.191406 20.464844 12.191406 20.808594 12.191406 C 21.292969 12.191406 21.773438 12.195312 22.253906 12.199219 C 22.398438 12.195312 22.539062 12.195312 22.6875 12.195312 C 22.886719 12.199219 22.886719 12.199219 23.085938 12.199219 C 23.199219 12.199219 23.3125 12.203125 23.429688 12.203125 C 23.820312 12.261719 24.058594 12.398438 24.375 12.625 C 24.609375 13.09375 24.527344 13.652344 24.53125 14.164062 C 24.535156 14.34375 24.535156 14.34375 24.539062 14.523438 C 24.546875 15.683594 24.546875 15.683594 24.125 16.125 C 23.917969 16.167969 23.710938 16.207031 23.5 16.25 C 23.5 15.261719 23.5 14.269531 23.5 13.25 C 22.734375 13.253906 21.96875 13.257812 21.207031 13.269531 C 20.945312 13.273438 20.683594 13.273438 20.425781 13.273438 C 20.050781 13.277344 19.675781 13.28125 19.300781 13.285156 C 19.183594 13.285156 19.070312 13.285156 18.953125 13.285156 C 18.164062 13.304688 17.605469 13.476562 17 14 C 16.632812 14.554688 16.613281 14.949219 16.679688 15.59375 C 16.699219 15.777344 16.699219 15.777344 16.71875 15.96875 C 16.730469 16.058594 16.738281 16.152344 16.75 16.25 C 15.632812 16.257812 14.519531 16.265625 13.402344 16.269531 C 12.882812 16.273438 12.367188 16.273438 11.847656 16.277344 C 11.347656 16.28125 10.847656 16.285156 10.347656 16.285156 C 10.15625 16.285156 9.964844 16.289062 9.773438 16.289062 C 9.507812 16.292969 9.242188 16.292969 8.972656 16.292969 C 8.746094 16.292969 8.746094 16.292969 8.511719 16.296875 C 8.089844 16.246094 7.921875 16.175781 7.625 15.875 C 7.441406 15.320312 7.460938 14.78125 7.453125 14.203125 C 7.449219 14.085938 7.445312 13.96875 7.4375 13.84375 C 7.4375 13.730469 7.4375 13.617188 7.433594 13.496094 C 7.429688 13.394531 7.429688 13.289062 7.425781 13.179688 C 7.507812 12.835938 7.640625 12.628906 7.898438 12.382812 C 8.410156 12.082031 9.042969 12.167969 9.621094 12.171875 Z M 9.621094 12.171875 "/>
<path style=" stroke:none;fill-rule:nonzero;fill:rgb(17.647059%,26.274511%,33.725491%);fill-opacity:1;" d="M 9.054688 18.179688 C 9.148438 18.179688 9.238281 18.179688 9.335938 18.179688 C 9.636719 18.179688 9.933594 18.183594 10.238281 18.1875 C 10.445312 18.191406 10.65625 18.191406 10.867188 18.191406 C 11.414062 18.195312 11.964844 18.199219 12.515625 18.207031 C 13.074219 18.214844 13.636719 18.214844 14.199219 18.21875 C 15.300781 18.226562 16.398438 18.238281 17.5 18.25 C 17.625 18.582031 17.746094 18.910156 17.875 19.25 C 14.78125 19.25 11.6875 19.25 8.5 19.25 C 8.5 19.910156 8.5 20.570312 8.5 21.25 C 13.449219 21.25 18.398438 21.25 23.5 21.25 C 23.5 20.589844 23.5 19.929688 23.5 19.25 C 23.375 19.1875 23.375 19.1875 23.25 19.125 C 23.414062 18.878906 23.582031 18.628906 23.75 18.375 C 23.984375 18.414062 23.984375 18.414062 24.25 18.5 C 24.613281 19.042969 24.542969 19.53125 24.539062 20.171875 C 24.542969 20.289062 24.542969 20.40625 24.546875 20.53125 C 24.546875 21.644531 24.546875 21.644531 24.125 22.125 C 23.75 22.25 23.503906 22.265625 23.117188 22.269531 C 22.984375 22.269531 22.851562 22.269531 22.71875 22.269531 C 22.574219 22.269531 22.429688 22.269531 22.28125 22.269531 C 22.054688 22.273438 22.054688 22.273438 21.820312 22.273438 C 21.40625 22.273438 20.988281 22.273438 20.574219 22.273438 C 20.3125 22.273438 20.054688 22.273438 19.792969 22.277344 C 18.980469 22.277344 18.167969 22.277344 17.355469 22.28125 C 16.414062 22.28125 15.476562 22.28125 14.539062 22.285156 C 13.8125 22.289062 13.085938 22.289062 12.359375 22.289062 C 11.925781 22.289062 11.492188 22.292969 11.058594 22.292969 C 10.578125 22.296875 10.09375 22.296875 9.609375 22.292969 C 9.464844 22.296875 9.324219 22.296875 9.175781 22.296875 C 8.976562 22.296875 8.976562 22.296875 8.773438 22.296875 C 8.660156 22.296875 8.546875 22.296875 8.429688 22.296875 C 8.0625 22.242188 7.894531 22.132812 7.625 21.875 C 7.441406 21.324219 7.460938 20.78125 7.453125 20.203125 C 7.449219 20.085938 7.445312 19.964844 7.4375 19.84375 C 7.4375 19.730469 7.4375 19.617188 7.433594 19.496094 C 7.429688 19.394531 7.429688 19.289062 7.425781 19.179688 C 7.628906 18.335938 8.28125 18.160156 9.054688 18.179688 Z M 9.054688 18.179688 "/>
<path style=" stroke:none;fill-rule:nonzero;fill:rgb(57.647061%,52.941179%,63.529414%);fill-opacity:1;" d="M 8.5 25.25 C 13.449219 25.25 18.398438 25.25 23.5 25.25 C 23.5 25.910156 23.5 26.570312 23.5 27.25 C 18.550781 27.25 13.601562 27.25 8.5 27.25 C 8.5 26.589844 8.5 25.929688 8.5 25.25 Z M 8.5 25.25 "/>
<path style=" stroke:none;fill-rule:nonzero;fill:rgb(99.607843%,85.882354%,50.196081%);fill-opacity:1;" d="M 8.5 19.25 C 9.722656 19.234375 10.949219 19.226562 12.171875 19.21875 C 12.738281 19.214844 13.308594 19.210938 13.875 19.203125 C 14.421875 19.195312 14.972656 19.191406 15.519531 19.191406 C 15.730469 19.191406 15.9375 19.1875 16.148438 19.183594 C 16.441406 19.179688 16.734375 19.179688 17.027344 19.179688 C 17.113281 19.175781 17.199219 19.175781 17.289062 19.171875 C 17.902344 19.179688 18.226562 19.359375 18.679688 19.734375 C 18.980469 19.949219 19.230469 19.929688 19.585938 19.898438 C 20.074219 19.859375 20.320312 19.890625 20.75 20.125 C 21.269531 20.230469 21.707031 20.214844 22.179688 19.960938 C 22.371094 19.828125 22.558594 19.695312 22.746094 19.550781 C 23 19.375 23 19.375 23.5 19.25 C 23.5 19.910156 23.5 20.570312 23.5 21.25 C 18.550781 21.25 13.601562 21.25 8.5 21.25 C 8.5 20.589844 8.5 19.929688 8.5 19.25 Z M 8.5 19.25 "/>
<path style=" stroke:none;fill-rule:nonzero;fill:rgb(19.215687%,27.843139%,35.294119%);fill-opacity:1;" d="M 19.332031 14.300781 C 19.707031 14.371094 20.078125 14.449219 20.453125 14.53125 C 20.582031 14.554688 20.707031 14.582031 20.839844 14.609375 C 22.082031 14.875 22.082031 14.875 22.5 15.375 C 22.542969 15.679688 22.542969 15.679688 22.507812 16 C 22.460938 16.503906 22.460938 16.503906 22.75 16.90625 C 22.832031 16.976562 22.914062 17.050781 23 17.125 C 23.085938 17.46875 23.085938 17.46875 23 17.875 C 22.625 18.414062 22.175781 18.886719 21.625 19.25 C 21.109375 19.328125 20.910156 19.269531 20.453125 19 C 20.34375 18.917969 20.238281 18.835938 20.125 18.75 C 20 18.832031 19.878906 18.914062 19.75 19 C 18.984375 18.960938 18.984375 18.960938 18.675781 18.722656 C 18.304688 18.253906 18.167969 17.644531 17.976562 17.085938 C 17.929688 16.957031 17.882812 16.828125 17.835938 16.695312 C 17.792969 16.570312 17.75 16.441406 17.707031 16.3125 C 17.667969 16.199219 17.625 16.085938 17.585938 15.96875 C 17.488281 15.585938 17.46875 15.269531 17.5 14.875 C 18.023438 14.144531 18.515625 14.175781 19.332031 14.300781 Z M 19.332031 14.300781 "/>
<path style=" stroke:none;fill-rule:nonzero;fill:rgb(98.431373%,47.058824%,36.862746%);fill-opacity:1;" d="M 8.5 13.25 C 11.636719 13.25 14.769531 13.25 18 13.25 C 17.734375 13.453125 17.460938 13.648438 17.179688 13.828125 C 16.757812 14.195312 16.757812 14.195312 16.5 15.25 C 13.859375 15.25 11.21875 15.25 8.5 15.25 C 8.5 14.589844 8.5 13.929688 8.5 13.25 Z M 8.5 13.25 "/>
<path style=" stroke:none;fill-rule:nonzero;fill:rgb(87.843138%,91.764706%,95.294118%);fill-opacity:1;" d="M 10.875 1.875 C 10.917969 1.875 10.957031 1.875 11 1.875 C 11.007812 2.707031 11.011719 3.539062 11.015625 4.371094 C 11.015625 4.65625 11.015625 4.9375 11.019531 5.222656 C 11.023438 5.628906 11.023438 6.035156 11.023438 6.441406 C 11.027344 6.566406 11.027344 6.695312 11.027344 6.828125 C 11.027344 7.003906 11.027344 7.003906 11.027344 7.183594 C 11.027344 7.285156 11.03125 7.390625 11.03125 7.496094 C 11 7.75 11 7.75 10.75 8 C 10.363281 8.023438 9.988281 8.027344 9.605469 8.023438 C 9.433594 8.023438 9.433594 8.023438 9.261719 8.023438 C 8.898438 8.023438 8.535156 8.019531 8.171875 8.015625 C 7.925781 8.015625 7.679688 8.015625 7.433594 8.011719 C 6.832031 8.011719 6.230469 8.003906 5.625 8 C 5.742188 7.839844 5.859375 7.683594 5.976562 7.523438 C 6.042969 7.4375 6.109375 7.347656 6.175781 7.257812 C 6.460938 6.886719 6.777344 6.550781 7.101562 6.210938 C 7.566406 5.714844 8.011719 5.21875 8.4375 4.6875 C 8.929688 4.074219 9.453125 3.5 9.992188 2.925781 C 10.308594 2.589844 10.597656 2.246094 10.875 1.875 Z M 10.875 1.875 "/>
<path style=" stroke:none;fill-rule:nonzero;fill:rgb(63.529414%,76.862746%,78.039217%);fill-opacity:1;" d="M 5 30.25 C 5.125 30.3125 5.125 30.3125 5.25 30.375 C 5.53125 30.386719 5.8125 30.390625 6.09375 30.390625 C 6.226562 30.390625 6.226562 30.390625 6.359375 30.390625 C 6.65625 30.390625 6.953125 30.390625 7.246094 30.390625 C 7.460938 30.390625 7.671875 30.390625 7.882812 30.390625 C 8.457031 30.390625 9.035156 30.390625 9.609375 30.390625 C 10.210938 30.390625 10.8125 30.390625 11.414062 30.390625 C 12.421875 30.390625 13.429688 30.390625 14.441406 30.390625 C 15.609375 30.390625 16.777344 30.390625 17.945312 30.390625 C 18.949219 30.390625 19.949219 30.390625 20.953125 30.390625 C 21.550781 30.390625 22.148438 30.390625 22.75 30.390625 C 23.3125 30.390625 23.875 30.390625 24.4375 30.390625 C 24.644531 30.390625 24.851562 30.390625 25.058594 30.390625 C 25.339844 30.390625 25.625 30.390625 25.90625 30.390625 C 26.0625 30.390625 26.222656 30.390625 26.382812 30.390625 C 26.742188 30.398438 26.742188 30.398438 27 30.25 C 26.890625 30.859375 26.890625 30.859375 26.75 31 C 26.472656 31.011719 26.199219 31.015625 25.921875 31.015625 C 25.789062 31.015625 25.789062 31.015625 25.65625 31.015625 C 25.359375 31.019531 25.0625 31.019531 24.765625 31.019531 C 24.554688 31.019531 24.34375 31.019531 24.132812 31.019531 C 23.554688 31.019531 22.980469 31.019531 22.402344 31.019531 C 21.921875 31.019531 21.445312 31.019531 20.964844 31.023438 C 19.832031 31.023438 18.699219 31.023438 17.570312 31.023438 C 16.398438 31.023438 15.230469 31.023438 14.058594 31.027344 C 13.058594 31.027344 12.054688 31.027344 11.050781 31.027344 C 10.453125 31.027344 9.855469 31.027344 9.253906 31.03125 C 8.691406 31.03125 8.128906 31.03125 7.5625 31.03125 C 7.355469 31.03125 7.148438 31.03125 6.941406 31.03125 C 6.660156 31.03125 6.378906 31.03125 6.09375 31.03125 C 5.9375 31.03125 5.777344 31.03125 5.617188 31.03125 C 5.25 31 5.25 31 5 30.75 C 5 30.585938 5 30.421875 5 30.25 Z M 5 30.25 "/>
<path style=" stroke:none;fill-rule:nonzero;fill:rgb(47.450981%,43.921569%,52.156866%);fill-opacity:1;" d="M 8.5 26.75 C 13.449219 26.75 18.398438 26.75 23.5 26.75 C 23.5 26.914062 23.5 27.078125 23.5 27.25 C 18.550781 27.25 13.601562 27.25 8.5 27.25 C 8.5 27.085938 8.5 26.921875 8.5 26.75 Z M 8.5 26.75 "/>
<path style=" stroke:none;fill-rule:nonzero;fill:rgb(63.529414%,58.431375%,69.803923%);fill-opacity:1;" d="M 8.5 25.25 C 13.449219 25.25 18.398438 25.25 23.5 25.25 C 23.5 25.414062 23.5 25.578125 23.5 25.75 C 18.550781 25.75 13.601562 25.75 8.5 25.75 C 8.5 25.585938 8.5 25.421875 8.5 25.25 Z M 8.5 25.25 "/>
<path style=" stroke:none;fill-rule:nonzero;fill:rgb(85.490197%,72.941178%,43.137255%);fill-opacity:1;" d="M 8.5 20.75 C 13.449219 20.75 18.398438 20.75 23.5 20.75 C 23.5 20.914062 23.5 21.078125 23.5 21.25 C 18.550781 21.25 13.601562 21.25 8.5 21.25 C 8.5 21.085938 8.5 20.921875 8.5 20.75 Z M 8.5 20.75 "/>
<path style=" stroke:none;fill-rule:nonzero;fill:rgb(85.490197%,89.803922%,93.333334%);fill-opacity:1;" d="M 18.5 15.25 C 19.507812 15.386719 20.507812 15.535156 21.5 15.75 C 21.5 15.832031 21.5 15.914062 21.5 16 C 21.253906 16.125 21.003906 16.246094 20.75 16.375 C 21.164062 16.746094 21.574219 17.117188 22 17.5 C 21.792969 17.746094 21.585938 17.996094 21.375 18.25 C 20.796875 17.921875 20.277344 17.527344 19.75 17.125 C 19.734375 17.226562 19.71875 17.328125 19.703125 17.429688 C 19.675781 17.535156 19.652344 17.640625 19.625 17.75 C 19.542969 17.792969 19.460938 17.832031 19.375 17.875 C 19.253906 17.554688 19.128906 17.234375 19.007812 16.914062 C 18.972656 16.824219 18.9375 16.734375 18.902344 16.640625 C 18.726562 16.179688 18.578125 15.738281 18.5 15.25 Z M 18.5 15.25 "/>
<path style=" stroke:none;fill-rule:nonzero;fill:rgb(98.431373%,89.411765%,66.274512%);fill-opacity:1;" d="M 8.5 19.25 C 9.730469 19.238281 10.960938 19.230469 12.191406 19.222656 C 12.761719 19.222656 13.332031 19.21875 13.902344 19.210938 C 14.453125 19.207031 15.007812 19.203125 15.554688 19.203125 C 15.765625 19.203125 15.976562 19.199219 16.1875 19.199219 C 16.484375 19.195312 16.777344 19.191406 17.070312 19.195312 C 17.203125 19.191406 17.203125 19.191406 17.335938 19.1875 C 17.972656 19.195312 18.007812 19.257812 18.5 19.75 C 15.199219 19.75 11.898438 19.75 8.5 19.75 C 8.5 19.585938 8.5 19.421875 8.5 19.25 Z M 8.5 19.25 "/>
<path style=" stroke:none;fill-rule:nonzero;fill:rgb(98.039216%,58.431375%,50.980395%);fill-opacity:1;" d="M 8.5 13.25 C 11.636719 13.25 14.769531 13.25 18 13.25 C 17.320312 13.761719 17.015625 13.90625 16.164062 13.890625 C 16.039062 13.890625 16.039062 13.890625 15.910156 13.890625 C 15.640625 13.882812 15.363281 13.878906 15.089844 13.871094 C 14.902344 13.867188 14.710938 13.867188 14.523438 13.863281 C 14.023438 13.855469 13.523438 13.84375 13.023438 13.832031 C 12.515625 13.824219 12.007812 13.816406 11.496094 13.804688 C 10.496094 13.789062 9.5 13.769531 8.5 13.75 C 8.5 13.585938 8.5 13.421875 8.5 13.25 Z M 8.5 13.25 "/>
<path style=" stroke:none;fill-rule:nonzero;fill:rgb(81.960785%,38.431373%,30.980393%);fill-opacity:1;" d="M 8.5 14.75 C 11.140625 14.75 13.78125 14.75 16.5 14.75 C 16.5 14.914062 16.5 15.078125 16.5 15.25 C 13.859375 15.25 11.21875 15.25 8.5 15.25 C 8.5 15.085938 8.5 14.921875 8.5 14.75 Z M 8.5 14.75 "/>
<path style=" stroke:none;fill-rule:nonzero;fill:rgb(97.254902%,59.607846%,52.156866%);fill-opacity:1;" d="M 19 13.25 C 20.484375 13.25 21.96875 13.25 23.5 13.25 C 23.5 13.910156 23.5 14.570312 23.5 15.25 C 23.335938 15.042969 23.171875 14.835938 23 14.625 C 22.230469 13.894531 21.203125 13.804688 20.195312 13.609375 C 20.078125 13.585938 19.964844 13.5625 19.847656 13.539062 C 19.5625 13.484375 19.28125 13.429688 19 13.375 C 19 13.332031 19 13.292969 19 13.25 Z M 19 13.25 "/>
<path style=" stroke:none;fill-rule:nonzero;fill:rgb(74.901962%,78.039217%,80.784315%);fill-opacity:1;" d="M 10.875 7.25 C 10.953125 7.484375 10.953125 7.484375 11 7.75 C 10.75 8 10.75 8 10.25 8.027344 C 10.035156 8.027344 9.820312 8.027344 9.605469 8.023438 C 9.433594 8.023438 9.433594 8.023438 9.261719 8.023438 C 8.898438 8.023438 8.535156 8.019531 8.171875 8.015625 C 7.925781 8.015625 7.679688 8.015625 7.433594 8.011719 C 6.832031 8.011719 6.230469 8.003906 5.625 8 C 5.746094 7.753906 5.746094 7.753906 6 7.5 C 6.371094 7.449219 6.699219 7.425781 7.070312 7.429688 C 7.175781 7.425781 7.28125 7.425781 7.390625 7.421875 C 7.722656 7.417969 8.054688 7.417969 8.390625 7.414062 C 8.726562 7.410156 9.0625 7.40625 9.394531 7.402344 C 9.605469 7.398438 9.8125 7.394531 10.019531 7.394531 C 10.484375 7.4375 10.484375 7.4375 10.875 7.25 Z M 10.875 7.25 "/>
<path style=" stroke:none;fill-rule:nonzero;fill:rgb(97.647059%,49.019608%,39.215687%);fill-opacity:1;" d="M 21.75 13.75 C 22.328125 13.75 22.90625 13.75 23.5 13.75 C 23.5 14.246094 23.5 14.738281 23.5 15.25 C 23.429688 15.15625 23.359375 15.066406 23.289062 14.96875 C 22.839844 14.4375 22.410156 14.101562 21.75 13.875 C 21.75 13.832031 21.75 13.792969 21.75 13.75 Z M 21.75 13.75 "/>
</g>
</svg>
