<?xml version="1.0" encoding="UTF-8"?>
<svg xmlns="http://www.w3.org/2000/svg" xmlns:xlink="http://www.w3.org/1999/xlink" width="32" height="32" viewBox="0 0 32 32" version="1.1">
<g id="surface1">
<path style=" stroke:none;fill-rule:nonzero;fill:rgb(1.568628%,2.352941%,2.352941%);fill-opacity:1;" d="M 29.695312 1.144531 C 30.632812 1.851562 31.398438 2.832031 31.625 4 C 31.828125 6.375 30.828125 7.957031 29.375 9.75 C 29.476562 9.78125 29.578125 9.8125 29.683594 9.84375 C 31.03125 10.265625 31.03125 10.265625 31.5 10.75 C 31.703125 11.15625 31.683594 11.429688 31.625 11.875 C 30.894531 12.890625 29.523438 13.011719 28.382812 13.207031 C 28.253906 13.226562 28.253906 13.226562 28.125 13.25 C 28.207031 13.332031 28.289062 13.414062 28.375 13.5 C 28.898438 15.542969 28.84375 18.5625 27.875 20.5 C 27.554688 20.796875 27.445312 20.875 27 20.875 C 27.042969 20.96875 27.085938 21.0625 27.132812 21.160156 C 27.765625 22.582031 27.910156 23.640625 27.375 25.125 C 26.925781 26.121094 26.347656 27.003906 25.6875 27.871094 C 25.488281 28.089844 25.488281 28.089844 25.5 28.25 C 25.582031 28.269531 25.664062 28.292969 25.746094 28.316406 C 26.40625 28.496094 26.976562 28.667969 27.5 29.125 C 27.710938 29.535156 27.777344 29.753906 27.679688 30.203125 C 27.269531 30.882812 26.625 31.179688 25.875 31.375 C 23.816406 31.765625 21.183594 31.972656 19.25 31 C 18.875 30.671875 18.875 30.671875 18.625 30.375 C 18.585938 30.332031 18.542969 30.292969 18.5 30.25 C 18.433594 29.769531 18.480469 29.539062 18.71875 29.109375 C 19.207031 28.570312 19.949219 28.433594 20.625 28.25 C 20.625 27.859375 20.371094 27.664062 20.125 27.375 C 20.105469 27.472656 20.085938 27.566406 20.0625 27.664062 C 19.835938 28.070312 19.617188 28.160156 19.179688 28.296875 C 15.992188 29.117188 12.558594 28.609375 9.714844 26.96875 C 7.21875 25.359375 5.261719 23.175781 4.277344 20.347656 C 4.230469 19.96875 4.441406 19.695312 4.625 19.375 C 4.480469 19.378906 4.335938 19.382812 4.1875 19.382812 C 2.992188 19.382812 1.53125 19.214844 0.625 18.375 C 0.308594 17.898438 0.289062 17.6875 0.375 17.125 C 0.796875 16.589844 1.335938 16.269531 2 16.125 C 2.207031 16.121094 2.417969 16.121094 2.625 16.125 C 2.582031 16.058594 2.535156 15.996094 2.492188 15.925781 C 2.359375 15.730469 2.226562 15.535156 2.097656 15.335938 C 1.949219 15.113281 1.800781 14.890625 1.652344 14.671875 C 0.621094 13.121094 0.0820312 11.757812 0.449219 9.871094 C 0.796875 8.730469 1.648438 7.761719 2.644531 7.121094 C 3.71875 6.5625 4.96875 6.410156 6.140625 6.734375 C 6.375 6.820312 6.605469 6.90625 6.832031 7.003906 C 7.097656 7.113281 7.347656 7.1875 7.625 7.25 C 7.65625 7.15625 7.683594 7.0625 7.714844 6.96875 C 8.324219 5.65625 10.3125 4.839844 11.601562 4.34375 C 14.792969 3.191406 18.121094 3.363281 21.25 4.625 C 21.355469 4.667969 21.464844 4.710938 21.574219 4.753906 C 21.976562 4.933594 22.210938 5.039062 22.402344 5.453125 C 22.449219 5.601562 22.449219 5.601562 22.5 5.75 C 22.496094 5.648438 22.488281 5.546875 22.484375 5.445312 C 22.433594 3.980469 22.753906 2.839844 23.75 1.75 C 25.3125 0.09375 27.828125 -0.0507812 29.695312 1.144531 Z M 29.695312 1.144531 "/>
<path style=" stroke:none;fill-rule:nonzero;fill:rgb(1.960784%,1.568628%,1.568628%);fill-opacity:1;" d="M 29.695312 1.144531 C 30.632812 1.851562 31.398438 2.832031 31.625 4 C 31.828125 6.375 30.828125 7.957031 29.375 9.75 C 29.527344 9.796875 29.527344 9.796875 29.683594 9.84375 C 31.03125 10.265625 31.03125 10.265625 31.5 10.75 C 31.703125 11.15625 31.683594 11.429688 31.625 11.875 C 30.894531 12.890625 29.523438 13.011719 28.382812 13.207031 C 28.296875 13.222656 28.210938 13.234375 28.125 13.25 C 28.207031 13.332031 28.289062 13.414062 28.375 13.5 C 28.898438 15.542969 28.84375 18.5625 27.875 20.5 C 27.554688 20.796875 27.445312 20.875 27 20.875 C 27.042969 20.96875 27.085938 21.0625 27.132812 21.160156 C 27.765625 22.582031 27.910156 23.640625 27.375 25.125 C 26.925781 26.121094 26.347656 27.003906 25.6875 27.871094 C 25.488281 28.089844 25.488281 28.089844 25.5 28.25 C 25.582031 28.269531 25.664062 28.292969 25.746094 28.316406 C 26.40625 28.496094 26.976562 28.667969 27.5 29.125 C 27.710938 29.535156 27.777344 29.753906 27.679688 30.203125 C 27.269531 30.882812 26.625 31.179688 25.875 31.375 C 23.816406 31.765625 21.183594 31.972656 19.25 31 C 18.875 30.671875 18.875 30.671875 18.625 30.375 C 18.585938 30.332031 18.542969 30.292969 18.5 30.25 C 18.433594 29.769531 18.480469 29.539062 18.71875 29.109375 C 19.207031 28.570312 19.949219 28.433594 20.625 28.25 C 20.625 27.921875 20.523438 27.855469 20.3125 27.609375 C 19.921875 27.101562 19.628906 26.5625 19.34375 25.992188 C 19.300781 25.910156 19.257812 25.824219 19.214844 25.738281 C 18.613281 24.511719 18.335938 23.234375 18.78125 21.90625 C 19.375 20.546875 20.277344 19.703125 21.625 19.125 C 21.984375 19.003906 22.210938 18.988281 22.585938 18.992188 C 22.6875 18.992188 22.789062 18.996094 22.890625 18.996094 C 23.007812 18.996094 23.007812 18.996094 23.125 19 C 22.988281 18.324219 22.988281 18.324219 22.5 17.875 C 22.085938 17.84375 21.675781 17.828125 21.257812 17.824219 C 20.507812 17.800781 20.066406 17.558594 19.523438 17.027344 C 19.464844 16.957031 19.402344 16.886719 19.34375 16.8125 C 19.285156 16.742188 19.222656 16.671875 19.160156 16.597656 C 18.773438 16.0625 18.703125 15.710938 18.789062 15.0625 C 18.917969 14.589844 19.183594 14.226562 19.449219 13.820312 C 19.636719 13.480469 19.695312 13.21875 19.75 12.835938 C 19.816406 12.40625 19.886719 12.160156 20.210938 11.859375 C 20.703125 11.578125 20.941406 11.570312 21.5 11.625 C 21.601562 11.632812 21.703125 11.644531 21.804688 11.65625 C 22.078125 11.683594 22.351562 11.714844 22.625 11.75 C 22.625 11.585938 22.625 11.417969 22.625 11.25 C 22.519531 11.257812 22.417969 11.265625 22.308594 11.273438 C 22.175781 11.277344 22.039062 11.285156 21.898438 11.289062 C 21.761719 11.296875 21.628906 11.304688 21.488281 11.3125 C 21.125 11.25 21.125 11.25 20.898438 10.964844 C 20.566406 10.199219 20.4375 9.300781 20.710938 8.492188 C 21.152344 7.757812 21.980469 7.425781 22.75 7.125 C 22.875 7.125 22.996094 7.125 23.125 7.125 C 23.058594 7.003906 23.058594 7.003906 22.988281 6.882812 C 22.449219 5.832031 22.316406 4.910156 22.585938 3.75 C 22.957031 2.628906 23.628906 1.65625 24.625 1 C 26.324219 0.164062 28.074219 0.109375 29.695312 1.144531 Z M 29.695312 1.144531 "/>
<path style=" stroke:none;fill-rule:nonzero;fill:rgb(52.941179%,77.254903%,97.647059%);fill-opacity:1;" d="M 21.375 6 C 21.625 6.003906 21.875 6.003906 22.125 6 C 22.289062 6 22.453125 6 22.625 6 C 22.972656 6.347656 23.042969 6.652344 23.125 7.125 C 23.023438 7.164062 22.921875 7.203125 22.820312 7.238281 C 21.863281 7.613281 21.320312 7.890625 20.75 8.75 C 20.640625 9.621094 20.765625 10.332031 21.125 11.125 C 21.621094 11.167969 22.113281 11.207031 22.625 11.25 C 22.667969 11.457031 22.707031 11.664062 22.75 11.875 C 21.921875 11.890625 21.921875 11.890625 21.5 11.75 C 21.027344 11.707031 20.714844 11.707031 20.28125 11.90625 C 19.90625 12.363281 19.847656 12.800781 19.726562 13.371094 C 19.628906 13.738281 19.511719 13.964844 19.296875 14.273438 C 18.949219 14.785156 18.800781 15.253906 18.875 15.875 C 19.175781 16.640625 19.765625 17.257812 20.5 17.625 C 20.914062 17.644531 21.328125 17.664062 21.746094 17.667969 C 22.1875 17.683594 22.484375 17.742188 22.875 17.957031 C 23.125 18.25 23.125 18.25 23.164062 18.65625 C 23.144531 18.828125 23.144531 18.828125 23.125 19 C 23.027344 19.011719 22.929688 19.023438 22.832031 19.039062 C 22.011719 19.15625 21.320312 19.292969 20.625 19.75 C 20.542969 19.804688 20.457031 19.859375 20.371094 19.914062 C 19.445312 20.621094 18.859375 21.6875 18.679688 22.828125 C 18.640625 24.050781 18.960938 25.035156 19.585938 26.070312 C 19.929688 26.652344 19.984375 27.207031 20 27.875 C 18.289062 29.035156 15.460938 28.800781 13.519531 28.433594 C 10.238281 27.734375 7.417969 25.730469 5.542969 22.96875 C 5.066406 22.230469 4.703125 21.4375 4.375 20.625 C 4.339844 20.542969 4.304688 20.460938 4.265625 20.375 C 4.238281 19.953125 4.445312 19.628906 4.625 19.25 C 4.78125 19.234375 4.9375 19.21875 5.101562 19.203125 C 7.359375 19.085938 7.359375 19.085938 9.25 18 C 9.3125 17.636719 9.3125 17.636719 9.25 17.25 C 8.871094 16.761719 8.414062 16.589844 7.84375 16.40625 C 7.761719 16.378906 7.679688 16.351562 7.597656 16.324219 C 7.398438 16.253906 7.199219 16.191406 7 16.125 C 7.125 15.875 7.25 15.625 7.375 15.375 C 7.835938 15.457031 8.167969 15.65625 8.5625 15.90625 C 8.679688 15.980469 8.796875 16.050781 8.917969 16.128906 C 9.335938 16.441406 9.640625 16.78125 9.875 17.25 C 9.886719 17.476562 9.898438 17.703125 9.90625 17.933594 C 9.929688 19.175781 9.929688 19.175781 10.5 20.25 C 10.726562 20.453125 10.957031 20.652344 11.1875 20.851562 C 11.894531 21.46875 12.15625 21.972656 12.375 22.875 C 12.414062 23.039062 12.457031 23.199219 12.496094 23.363281 C 12.5625 23.621094 12.625 23.882812 12.6875 24.140625 C 12.992188 25.390625 12.992188 25.390625 13.664062 26.460938 C 14.132812 26.6875 14.382812 26.652344 14.875 26.5 C 15.582031 25.875 15.859375 24.851562 15.96875 23.945312 C 16.105469 23.089844 16.589844 22.53125 17.125 21.875 C 17.265625 21.695312 17.402344 21.511719 17.539062 21.328125 C 17.597656 21.25 17.65625 21.171875 17.71875 21.089844 C 18.402344 20.148438 18.5 19.277344 18.375 18.125 C 18.152344 17.734375 18.152344 17.734375 17.75 17.5 C 17.667969 17.4375 17.585938 17.378906 17.503906 17.316406 C 16.835938 16.835938 16.148438 16.519531 15.375 16.25 C 15.292969 16.21875 15.214844 16.1875 15.128906 16.152344 C 14.5 15.917969 13.976562 15.851562 13.304688 15.867188 C 11.925781 15.898438 11.925781 15.898438 11.394531 15.449219 C 11.082031 14.964844 10.875 14.582031 10.875 14 C 11.015625 13.96875 11.152344 13.941406 11.296875 13.910156 C 11.476562 13.867188 11.660156 13.824219 11.84375 13.78125 C 11.933594 13.761719 12.027344 13.742188 12.121094 13.722656 C 12.671875 13.589844 13.019531 13.46875 13.375 13 C 13.425781 12.859375 13.480469 12.722656 13.53125 12.578125 C 13.851562 11.761719 14.738281 11.339844 15.5 11 C 15.925781 10.878906 16.359375 10.792969 16.792969 10.703125 C 17.183594 10.617188 17.453125 10.546875 17.742188 10.265625 C 18.007812 9.742188 18.023438 9.273438 18.03125 8.6875 C 18.035156 8.546875 18.039062 8.40625 18.042969 8.261719 C 17.996094 7.828125 17.949219 7.667969 17.625 7.375 C 17.234375 7.234375 17.234375 7.234375 16.789062 7.140625 C 16.210938 6.992188 15.8125 6.875 15.375 6.46875 C 14.816406 5.992188 14.238281 6.050781 13.535156 6.082031 C 13.082031 6.128906 12.679688 6.238281 12.25 6.375 C 11.871094 6.414062 11.5 6.441406 11.125 6.375 C 10.902344 6.183594 10.902344 6.183594 10.75 6 C 11.003906 5.878906 11.261719 5.761719 11.515625 5.640625 C 11.65625 5.574219 11.800781 5.507812 11.945312 5.4375 C 14.976562 4.109375 18.484375 4.554688 21.375 6 Z M 21.375 6 "/>
<path style=" stroke:none;fill-rule:nonzero;fill:rgb(41.568628%,94.509804%,74.901962%);fill-opacity:1;" d="M 9.734375 6.820312 C 10.125 6.875 10.125 6.875 10.539062 7.0625 C 11.273438 7.363281 11.917969 7.3125 12.679688 7.125 C 13.378906 6.960938 14.121094 6.789062 14.777344 7.15625 C 14.957031 7.289062 15.140625 7.421875 15.320312 7.558594 C 15.867188 7.902344 16.496094 8.003906 17.125 8.125 C 17.148438 8.726562 17.144531 9.207031 16.875 9.75 C 16.488281 9.90625 16.488281 9.90625 16.007812 10 C 14.863281 10.253906 13.75 10.675781 13 11.625 C 12.90625 11.820312 12.8125 12.015625 12.71875 12.210938 C 12.453125 12.714844 12.453125 12.714844 12.117188 12.867188 C 11.828125 12.929688 11.542969 12.96875 11.25 13 C 10.667969 13.140625 10.667969 13.140625 10.132812 13.398438 C 9.914062 13.773438 9.90625 14.085938 10 14.5 C 10.210938 14.984375 10.460938 15.433594 10.75 15.875 C 10.835938 16.011719 10.921875 16.148438 11.007812 16.289062 C 11.535156 16.773438 11.945312 16.695312 12.632812 16.671875 C 13.664062 16.675781 14.527344 16.8125 15.484375 17.203125 C 15.632812 17.261719 15.632812 17.261719 15.789062 17.324219 C 16.488281 17.628906 17.132812 18.03125 17.625 18.625 C 17.71875 19.789062 16.929688 20.691406 16.242188 21.5625 C 15.507812 22.492188 15.140625 23.292969 14.9375 24.453125 C 14.847656 24.875 14.6875 25.234375 14.5 25.625 C 14.375 25.625 14.253906 25.625 14.125 25.625 C 13.660156 24.699219 13.445312 23.785156 13.253906 22.773438 C 13.035156 21.722656 12.703125 20.765625 11.789062 20.132812 C 11.691406 20.0625 11.597656 19.996094 11.5 19.925781 C 11.417969 19.867188 11.335938 19.808594 11.25 19.75 C 10.953125 19.453125 10.964844 19.367188 10.9375 18.960938 C 10.929688 18.851562 10.921875 18.742188 10.914062 18.632812 C 10.898438 18.40625 10.882812 18.179688 10.871094 17.953125 C 10.804688 17.109375 10.628906 16.546875 10.050781 15.902344 C 9.472656 15.4375 8.875 15.023438 8.25 14.625 C 8.324219 14.15625 8.457031 13.800781 8.679688 13.382812 C 9.28125 12.25 9.488281 11.054688 9.164062 9.789062 C 8.808594 8.933594 8.257812 8.15625 7.5 7.625 C 7.539062 7.5 7.582031 7.378906 7.625 7.25 C 7.695312 7.292969 7.765625 7.335938 7.835938 7.382812 C 8.207031 7.535156 8.371094 7.503906 8.75 7.375 C 8.851562 7.289062 8.949219 7.207031 9.054688 7.117188 C 9.375 6.875 9.375 6.875 9.734375 6.820312 Z M 9.734375 6.820312 "/>
<path style=" stroke:none;fill-rule:nonzero;fill:rgb(41.568628%,94.901961%,74.901962%);fill-opacity:1;" d="M 21.269531 12.746094 C 21.449219 12.75 21.625 12.753906 21.800781 12.761719 C 21.945312 12.765625 21.945312 12.765625 22.089844 12.769531 C 22.292969 12.773438 22.496094 12.78125 22.695312 12.785156 C 23 12.796875 23.304688 12.804688 23.605469 12.8125 C 24.097656 12.828125 24.59375 12.84375 25.085938 12.863281 C 25.277344 12.871094 25.46875 12.878906 25.660156 12.886719 C 25.929688 12.894531 26.199219 12.90625 26.46875 12.917969 C 26.621094 12.925781 26.777344 12.929688 26.933594 12.9375 C 27.449219 13.011719 27.792969 13.136719 28.25 13.375 C 29.246094 15.320312 28.542969 18.273438 27.992188 20.265625 C 27.839844 20.574219 27.671875 20.703125 27.375 20.875 C 26.644531 20.789062 26.300781 20.46875 25.78125 19.972656 C 25.457031 19.714844 25.152344 19.605469 24.765625 19.46875 C 24.410156 19.324219 24.410156 19.324219 24.125 19.125 C 23.992188 18.769531 23.953125 18.453125 23.921875 18.074219 C 23.898438 17.714844 23.898438 17.714844 23.585938 17.367188 C 22.957031 16.914062 22.472656 16.851562 21.703125 16.84375 C 21.015625 16.8125 20.492188 16.75 20.007812 16.226562 C 19.824219 15.910156 19.773438 15.617188 19.804688 15.257812 C 19.910156 14.875 20.117188 14.585938 20.34375 14.261719 C 20.566406 13.890625 20.632812 13.519531 20.707031 13.097656 C 20.785156 12.703125 20.847656 12.75 21.269531 12.746094 Z M 21.269531 12.746094 "/>
<path style=" stroke:none;fill-rule:nonzero;fill:rgb(3.921569%,2.352941%,2.745098%);fill-opacity:1;" d="M 5.976562 7.828125 C 6.945312 8.167969 7.652344 8.832031 8.1875 9.703125 C 8.566406 10.578125 8.527344 11.550781 8.226562 12.441406 C 7.691406 13.585938 6.941406 14.546875 6.125 15.5 C 6.070312 15.566406 6.015625 15.628906 5.957031 15.699219 C 5.320312 16.445312 5.320312 16.445312 5 16.75 C 4.917969 16.75 4.835938 16.75 4.75 16.75 C 4.40625 16.378906 4.101562 15.976562 3.789062 15.582031 C 3.625 15.375 3.460938 15.175781 3.300781 14.972656 C 2.164062 13.5625 1.371094 12.234375 1.5 10.375 C 1.652344 9.617188 2.046875 9.011719 2.625 8.5 C 2.988281 8.265625 3.359375 8.0625 3.75 7.875 C 4.382812 7.558594 5.304688 7.679688 5.976562 7.828125 Z M 5.976562 7.828125 "/>
<path style=" stroke:none;fill-rule:nonzero;fill:rgb(4.313726%,2.745098%,2.745098%);fill-opacity:1;" d="M 24.6875 20.320312 C 25.582031 20.828125 26.09375 21.433594 26.5 22.375 C 26.71875 23.890625 26.28125 25.078125 25.421875 26.304688 C 24.902344 26.984375 24.347656 27.632812 23.789062 28.28125 C 23.492188 28.621094 23.492188 28.621094 23.25 29 C 22.714844 28.800781 22.398438 28.394531 22.039062 27.96875 C 21.972656 27.890625 21.90625 27.816406 21.839844 27.734375 C 21.1875 26.953125 20.648438 26.121094 20.125 25.25 C 20.054688 25.140625 19.984375 25.03125 19.914062 24.917969 C 19.5 24.179688 19.53125 23.324219 19.625 22.5 C 19.964844 21.488281 20.589844 20.792969 21.5 20.25 C 22.511719 19.757812 23.6875 19.851562 24.6875 20.320312 Z M 24.6875 20.320312 "/>
<path style=" stroke:none;fill-rule:nonzero;fill:rgb(4.313726%,2.745098%,2.745098%);fill-opacity:1;" d="M 28.875 2 C 29.609375 2.539062 30.207031 3.121094 30.5 4 C 30.734375 6.3125 29.445312 7.882812 28.066406 9.578125 C 27.976562 9.683594 27.976562 9.683594 27.882812 9.796875 C 27.824219 9.867188 27.765625 9.9375 27.707031 10.011719 C 27.5625 10.179688 27.40625 10.34375 27.25 10.5 C 27.125 10.5 27.003906 10.5 26.875 10.5 C 26.636719 10.257812 26.636719 10.257812 26.367188 9.914062 C 26.265625 9.789062 26.167969 9.664062 26.066406 9.53125 C 25.988281 9.429688 25.988281 9.429688 25.910156 9.328125 C 25.753906 9.128906 25.589844 8.929688 25.429688 8.734375 C 24.382812 7.445312 23.453125 6.136719 23.558594 4.398438 C 23.730469 3.382812 24.296875 2.730469 25.078125 2.082031 C 26.246094 1.265625 27.671875 1.261719 28.875 2 Z M 28.875 2 "/>
<path style=" stroke:none;fill-rule:nonzero;fill:rgb(0.392157%,0.784314%,1.176471%);fill-opacity:1;" d="M 4.5 19.625 C 5.273438 19.75 5.273438 19.75 5.527344 20.066406 C 5.660156 20.3125 5.773438 20.5625 5.882812 20.820312 C 5.96875 21.003906 6.050781 21.1875 6.136719 21.367188 C 6.199219 21.5 6.199219 21.5 6.261719 21.636719 C 6.738281 22.640625 7.480469 23.457031 8.25 24.25 C 8.34375 24.34375 8.433594 24.441406 8.53125 24.539062 C 10.542969 26.484375 13.261719 27.394531 16.015625 27.40625 C 16.214844 27.410156 16.214844 27.410156 16.417969 27.414062 C 17.253906 27.417969 17.980469 27.320312 18.78125 27.082031 C 19.15625 26.992188 19.488281 26.976562 19.875 27 C 20 27.125 20 27.125 20.046875 27.484375 C 20.023438 27.675781 20.023438 27.675781 20 27.875 C 18.582031 28.957031 15.992188 28.761719 14.3125 28.566406 C 11.015625 28.097656 8.027344 26.28125 6.011719 23.632812 C 5.285156 22.640625 4.4375 21.363281 4.25 20.125 C 4.367188 19.84375 4.367188 19.84375 4.5 19.625 Z M 4.5 19.625 "/>
<path style=" stroke:none;fill-rule:nonzero;fill:rgb(93.725491%,36.862746%,40.784314%);fill-opacity:1;" d="M 5.976562 7.828125 C 6.945312 8.167969 7.652344 8.832031 8.1875 9.703125 C 8.566406 10.578125 8.527344 11.550781 8.226562 12.441406 C 7.691406 13.585938 6.941406 14.546875 6.125 15.5 C 6.070312 15.566406 6.015625 15.628906 5.957031 15.699219 C 5.320312 16.445312 5.320312 16.445312 5 16.75 C 4.917969 16.75 4.835938 16.75 4.75 16.75 C 4.40625 16.378906 4.101562 15.976562 3.789062 15.582031 C 3.625 15.375 3.460938 15.175781 3.300781 14.972656 C 2.164062 13.5625 1.371094 12.234375 1.5 10.375 C 1.652344 9.617188 2.046875 9.011719 2.625 8.5 C 2.988281 8.265625 3.359375 8.0625 3.75 7.875 C 4.382812 7.558594 5.304688 7.679688 5.976562 7.828125 Z M 2.429688 9.515625 C 1.878906 10.292969 1.90625 11.199219 2 12.125 C 2.28125 12.925781 2.953125 13.515625 3.625 14 C 4.390625 14.253906 5.429688 14.28125 6.199219 14.011719 C 6.960938 13.554688 7.585938 12.839844 7.875 12 C 7.988281 11.078125 7.964844 10.285156 7.453125 9.492188 C 6.847656 8.769531 6.128906 8.332031 5.191406 8.210938 C 4.011719 8.132812 3.15625 8.589844 2.429688 9.515625 Z M 2.429688 9.515625 "/>
<path style=" stroke:none;fill-rule:nonzero;fill:rgb(93.725491%,36.470589%,40.784314%);fill-opacity:1;" d="M 28.875 2 C 29.609375 2.539062 30.207031 3.121094 30.5 4 C 30.734375 6.3125 29.445312 7.882812 28.066406 9.578125 C 27.976562 9.683594 27.976562 9.683594 27.882812 9.796875 C 27.824219 9.867188 27.765625 9.9375 27.707031 10.011719 C 27.5625 10.179688 27.40625 10.34375 27.25 10.5 C 27.125 10.5 27.003906 10.5 26.875 10.5 C 26.636719 10.257812 26.636719 10.257812 26.367188 9.914062 C 26.265625 9.789062 26.167969 9.664062 26.066406 9.53125 C 25.988281 9.429688 25.988281 9.429688 25.910156 9.328125 C 25.753906 9.128906 25.589844 8.929688 25.429688 8.734375 C 24.382812 7.445312 23.453125 6.136719 23.558594 4.398438 C 23.730469 3.382812 24.296875 2.730469 25.078125 2.082031 C 26.246094 1.265625 27.671875 1.261719 28.875 2 Z M 24.6875 3.148438 C 24.105469 3.847656 24.058594 4.460938 24.078125 5.351562 C 24.140625 5.90625 24.3125 6.292969 24.625 6.75 C 24.691406 6.859375 24.757812 6.972656 24.828125 7.085938 C 25.453125 7.695312 26.1875 8.035156 27.0625 8.078125 C 27.910156 8.03125 28.644531 7.746094 29.234375 7.128906 C 29.425781 6.882812 29.59375 6.640625 29.75 6.375 C 29.796875 6.300781 29.84375 6.222656 29.890625 6.144531 C 30.175781 5.4375 30.113281 4.511719 29.898438 3.785156 C 29.535156 3.046875 28.972656 2.628906 28.25 2.25 C 26.886719 1.796875 25.640625 2.117188 24.6875 3.148438 Z M 24.6875 3.148438 "/>
<path style=" stroke:none;fill-rule:nonzero;fill:rgb(94.117647%,36.862746%,41.176471%);fill-opacity:1;" d="M 24.6875 20.320312 C 25.582031 20.828125 26.09375 21.433594 26.5 22.375 C 26.71875 23.890625 26.28125 25.078125 25.421875 26.304688 C 24.902344 26.984375 24.347656 27.632812 23.789062 28.28125 C 23.492188 28.621094 23.492188 28.621094 23.25 29 C 22.714844 28.800781 22.398438 28.394531 22.039062 27.96875 C 21.972656 27.890625 21.90625 27.816406 21.839844 27.734375 C 21.1875 26.953125 20.648438 26.121094 20.125 25.25 C 20.054688 25.140625 19.984375 25.03125 19.914062 24.917969 C 19.5 24.179688 19.53125 23.324219 19.625 22.5 C 19.964844 21.488281 20.589844 20.792969 21.5 20.25 C 22.511719 19.757812 23.6875 19.851562 24.6875 20.320312 Z M 20.761719 21.542969 C 20.152344 22.433594 20.050781 23.046875 20.125 24.125 C 20.371094 24.996094 20.949219 25.738281 21.722656 26.210938 C 22.515625 26.53125 23.507812 26.546875 24.316406 26.265625 C 25.03125 25.847656 25.699219 25.152344 26 24.375 C 26.105469 23.429688 26.167969 22.480469 25.558594 21.695312 C 24.820312 20.914062 24.105469 20.492188 23.023438 20.429688 C 22.074219 20.457031 21.363281 20.804688 20.761719 21.542969 Z M 20.761719 21.542969 "/>
<path style=" stroke:none;fill-rule:nonzero;fill:rgb(90.588236%,91.764706%,92.54902%);fill-opacity:1;" d="M 5.5 9.25 C 6.164062 9.585938 6.636719 10.035156 6.875 10.75 C 6.976562 11.410156 6.929688 11.878906 6.539062 12.429688 C 6.160156 12.914062 5.773438 13.082031 5.167969 13.175781 C 4.546875 13.199219 4.113281 13.191406 3.617188 12.789062 C 3.113281 12.269531 2.988281 11.847656 2.953125 11.132812 C 2.96875 10.535156 3.082031 10.199219 3.5 9.75 C 4.144531 9.269531 4.699219 9.105469 5.5 9.25 Z M 5.5 9.25 "/>
<path style=" stroke:none;fill-rule:nonzero;fill:rgb(90.196079%,91.37255%,92.156863%);fill-opacity:1;" d="M 27.75 3.125 C 28.1875 3.335938 28.1875 3.335938 28.5 3.625 C 28.597656 3.707031 28.695312 3.789062 28.796875 3.875 C 29.128906 4.484375 29.132812 5.074219 29 5.75 C 28.703125 6.273438 28.328125 6.625 27.820312 6.9375 C 27.148438 7.070312 26.699219 7.101562 26.09375 6.789062 C 25.570312 6.347656 25.175781 5.945312 25.09375 5.242188 C 25.074219 4.550781 25.15625 4.167969 25.625 3.625 C 25.707031 3.527344 25.789062 3.429688 25.875 3.328125 C 26.480469 3 27.078125 3.035156 27.75 3.125 Z M 27.75 3.125 "/>
<path style=" stroke:none;fill-rule:nonzero;fill:rgb(90.588236%,91.764706%,92.54902%);fill-opacity:1;" d="M 23.75 21.5 C 24.3125 21.792969 24.769531 22.144531 25 22.75 C 25.09375 23.488281 25.054688 24.125 24.625 24.75 C 24 25.328125 23.507812 25.414062 22.679688 25.402344 C 22.269531 25.367188 22.058594 25.269531 21.75 25 C 21.238281 24.316406 21.007812 23.734375 21.125 22.875 C 21.683594 21.800781 22.554688 21.292969 23.75 21.5 Z M 23.75 21.5 "/>
<path style=" stroke:none;fill-rule:nonzero;fill:rgb(0%,1.176471%,0.784314%);fill-opacity:1;" d="M 27.5 13.25 C 27.8125 13.210938 27.8125 13.210938 28.125 13.25 C 28.757812 13.882812 28.644531 15.25 28.664062 16.09375 C 28.660156 17.484375 28.5 19.25 27.875 20.5 C 27.632812 20.726562 27.632812 20.726562 27.375 20.875 C 27.03125 20.773438 27.03125 20.773438 26.75 20.625 C 26.800781 19.917969 26.933594 19.292969 27.132812 18.609375 C 27.53125 17.164062 27.523438 15.539062 27.296875 14.0625 C 27.25 13.625 27.25 13.625 27.5 13.25 Z M 27.5 13.25 "/>
<path style=" stroke:none;fill-rule:nonzero;fill:rgb(0.784314%,85.882354%,58.039218%);fill-opacity:1;" d="M 26.25 13 C 26.621094 13 26.992188 13 27.375 13 C 27.5 13.496094 27.46875 13.652344 27.375 14.125 C 27.414062 14.292969 27.457031 14.457031 27.5 14.625 C 27.648438 16.378906 27.472656 17.964844 26.945312 19.636719 C 26.851562 19.960938 26.796875 20.289062 26.75 20.625 C 26.273438 20.429688 25.976562 20.121094 25.625 19.75 C 25.707031 19.75 25.789062 19.75 25.875 19.75 C 25.960938 19.375 26.042969 19 26.125 18.625 C 26.148438 18.523438 26.171875 18.421875 26.191406 18.320312 C 26.375 17.410156 26.410156 16.539062 26.398438 15.617188 C 26.398438 15.476562 26.398438 15.335938 26.398438 15.191406 C 26.425781 14.511719 26.425781 14.511719 26.25 13.875 C 26.246094 13.582031 26.246094 13.292969 26.25 13 Z M 26.25 13 "/>
<path style=" stroke:none;fill-rule:nonzero;fill:rgb(39.215687%,92.156863%,72.549021%);fill-opacity:1;" d="M 23.75 8 C 24.007812 8.285156 24.007812 8.285156 24.265625 8.65625 C 24.351562 8.777344 24.4375 8.898438 24.523438 9.023438 C 24.703125 9.304688 24.859375 9.574219 25 9.875 C 23.886719 10.292969 22.796875 10.265625 21.625 10.25 C 21.578125 9.824219 21.5625 9.421875 21.625 9 C 22.179688 8.363281 22.898438 8 23.75 8 Z M 23.75 8 "/>
<path style=" stroke:none;fill-rule:nonzero;fill:rgb(56.862748%,52.941179%,56.862748%);fill-opacity:1;" d="M 3.875 17.125 C 4.152344 17.332031 4.347656 17.546875 4.558594 17.820312 C 4.621094 17.878906 4.683594 17.9375 4.75 18 C 5.066406 17.984375 5.199219 17.925781 5.417969 17.699219 C 5.496094 17.597656 5.496094 17.597656 5.578125 17.492188 C 5.816406 17.238281 5.949219 17.136719 6.292969 17.0625 C 7.019531 17.046875 7.589844 17.207031 8.25 17.5 C 8.25 17.582031 8.25 17.664062 8.25 17.75 C 8.050781 17.808594 7.855469 17.871094 7.65625 17.929688 C 7.546875 17.960938 7.4375 17.996094 7.324219 18.03125 C 7.214844 18.0625 7.109375 18.09375 7 18.125 C 6.925781 18.148438 6.851562 18.167969 6.773438 18.191406 C 6.171875 18.320312 5.542969 18.277344 4.929688 18.28125 C 4.71875 18.285156 4.71875 18.285156 4.5 18.289062 C 3.5 18.292969 2.535156 18.203125 1.625 17.75 C 1.667969 17.625 1.707031 17.503906 1.75 17.375 C 2.398438 17.050781 3.167969 16.984375 3.875 17.125 Z M 3.875 17.125 "/>
<path style=" stroke:none;fill-rule:nonzero;fill:rgb(57.254905%,53.333336%,57.254905%);fill-opacity:1;" d="M 25.179688 29.304688 C 25.617188 29.402344 25.976562 29.550781 26.375 29.75 C 25.867188 30.371094 25.003906 30.414062 24.25 30.5 C 22.867188 30.597656 21.304688 30.664062 20 30.125 C 19.917969 30 19.835938 29.878906 19.75 29.75 C 20.527344 29.398438 21.269531 29.203125 22.125 29.375 C 22.394531 29.597656 22.542969 29.839844 22.75 30.125 C 23.148438 30.246094 23.148438 30.246094 23.5 30.25 C 23.53125 30.179688 23.5625 30.105469 23.59375 30.03125 C 24.019531 29.265625 24.339844 29.183594 25.179688 29.304688 Z M 25.179688 29.304688 "/>
<path style=" stroke:none;fill-rule:nonzero;fill:rgb(58.823532%,54.509807%,58.823532%);fill-opacity:1;" d="M 26 10.875 C 26.234375 11.082031 26.402344 11.296875 26.589844 11.550781 C 26.746094 11.777344 26.746094 11.777344 27.0625 11.859375 C 27.433594 11.730469 27.472656 11.621094 27.6875 11.304688 C 27.875 11.0625 27.875 11.0625 28.125 10.875 C 28.914062 10.796875 29.652344 10.929688 30.375 11.25 C 30.375 11.332031 30.375 11.414062 30.375 11.5 C 30.199219 11.558594 30.019531 11.621094 29.84375 11.679688 C 29.746094 11.710938 29.644531 11.746094 29.546875 11.78125 C 28.734375 12.039062 27.972656 12.027344 27.125 12.03125 C 26.90625 12.035156 26.90625 12.035156 26.683594 12.039062 C 25.726562 12.042969 24.765625 12 23.875 11.625 C 23.832031 11.5 23.792969 11.378906 23.75 11.25 C 24.480469 10.925781 25.199219 10.679688 26 10.875 Z M 26 10.875 "/>
<path style=" stroke:none;fill-rule:nonzero;fill:rgb(61.56863%,57.254905%,61.56863%);fill-opacity:1;" d="M 22.125 29.375 C 22.445312 29.597656 22.546875 29.777344 22.75 30.125 C 22.75 30.207031 22.75 30.289062 22.75 30.375 C 21.703125 30.414062 20.847656 30.402344 19.875 30 C 19.875 29.875 19.875 29.753906 19.875 29.625 C 20.609375 29.363281 21.351562 29.234375 22.125 29.375 Z M 22.125 29.375 "/>
<path style=" stroke:none;fill-rule:nonzero;fill:rgb(61.960787%,57.647061%,61.960787%);fill-opacity:1;" d="M 7.25 17.125 C 7.605469 17.226562 7.914062 17.351562 8.25 17.5 C 8.25 17.582031 8.25 17.664062 8.25 17.75 C 7.335938 18.207031 6.246094 18.140625 5.25 18.125 C 5.726562 17.148438 6.1875 16.988281 7.25 17.125 Z M 7.25 17.125 "/>
<path style=" stroke:none;fill-rule:nonzero;fill:rgb(62.352943%,58.039218%,62.352943%);fill-opacity:1;" d="M 28.921875 10.898438 C 29.0625 10.910156 29.203125 10.921875 29.347656 10.933594 C 29.722656 10.996094 30.027344 11.09375 30.375 11.25 C 30.375 11.332031 30.375 11.414062 30.375 11.5 C 29.402344 11.902344 28.542969 11.914062 27.5 11.875 C 27.796875 11.027344 28.003906 10.808594 28.921875 10.898438 Z M 28.921875 10.898438 "/>
<path style=" stroke:none;fill-rule:nonzero;fill:rgb(48.235294%,70.19608%,88.627452%);fill-opacity:1;" d="M 7.375 15.375 C 7.835938 15.457031 8.167969 15.65625 8.5625 15.90625 C 8.679688 15.980469 8.796875 16.050781 8.917969 16.128906 C 9.335938 16.441406 9.640625 16.78125 9.875 17.25 C 9.890625 17.582031 9.878906 17.914062 9.875 18.25 C 9.832031 18.25 9.792969 18.25 9.75 18.25 C 9.75 17.960938 9.75 17.671875 9.75 17.375 C 9.667969 17.375 9.585938 17.375 9.5 17.375 C 9.457031 17.539062 9.417969 17.703125 9.375 17.875 C 9.355469 17.742188 9.332031 17.605469 9.3125 17.46875 C 9.226562 17.171875 9.167969 17.035156 8.925781 16.84375 C 8.3125 16.53125 7.65625 16.324219 7 16.125 C 7.125 15.875 7.25 15.625 7.375 15.375 Z M 7.375 15.375 "/>
<path style=" stroke:none;fill-rule:nonzero;fill:rgb(35.686275%,61.56863%,83.137256%);fill-opacity:1;" d="M 19.625 26.375 C 19.875 26.625 19.875 26.625 19.875 27 C 17.921875 27.558594 15.757812 27.800781 13.75 27.375 C 13.75 27.332031 13.75 27.292969 13.75 27.25 C 13.855469 27.25 13.960938 27.253906 14.074219 27.253906 C 14.46875 27.257812 14.867188 27.261719 15.265625 27.265625 C 15.4375 27.265625 15.609375 27.265625 15.777344 27.269531 C 16.027344 27.273438 16.273438 27.273438 16.519531 27.273438 C 16.742188 27.277344 16.742188 27.277344 16.972656 27.277344 C 17.371094 27.25 17.640625 27.167969 18 27 C 18.28125 26.90625 18.566406 26.8125 18.851562 26.722656 C 19.121094 26.625 19.371094 26.507812 19.625 26.375 Z M 19.625 26.375 "/>
<path style=" stroke:none;fill-rule:nonzero;fill:rgb(36.078432%,67.843139%,93.725491%);fill-opacity:1;" d="M 22.515625 5.9375 C 22.84375 6.199219 22.964844 6.492188 23.125 6.875 C 23.125 6.957031 23.125 7.039062 23.125 7.125 C 22.914062 7.226562 22.914062 7.226562 22.625 7.25 C 22.246094 6.933594 22.03125 6.722656 21.875 6.25 C 21.792969 6.207031 21.710938 6.167969 21.625 6.125 C 22.164062 5.855469 22.164062 5.855469 22.515625 5.9375 Z M 22.515625 5.9375 "/>
<path style=" stroke:none;fill-rule:nonzero;fill:rgb(47.450981%,69.411767%,87.450981%);fill-opacity:1;" d="M 21.375 11.25 C 21.789062 11.25 22.199219 11.25 22.625 11.25 C 22.667969 11.457031 22.707031 11.664062 22.75 11.875 C 21.820312 11.910156 21.820312 11.910156 21.375 11.625 C 21.375 11.5 21.375 11.378906 21.375 11.25 Z M 21.375 11.25 "/>
<path style=" stroke:none;fill-rule:nonzero;fill:rgb(85.09804%,33.333334%,36.862746%);fill-opacity:1;" d="M 21.125 20.5 C 21.207031 20.542969 21.289062 20.582031 21.375 20.625 C 21.003906 20.996094 20.632812 21.367188 20.25 21.75 C 20.25 21.375 20.25 21.375 20.546875 21.054688 C 20.65625 20.953125 20.765625 20.855469 20.875 20.75 C 20.957031 20.667969 21.039062 20.585938 21.125 20.5 Z M 21.125 20.5 "/>
<path style=" stroke:none;fill-rule:nonzero;fill:rgb(76.078433%,76.862746%,77.64706%);fill-opacity:1;" d="M 4 9.375 C 4.082031 9.417969 4.164062 9.457031 4.25 9.5 C 3.921875 9.828125 3.589844 10.160156 3.25 10.5 C 3.25 10.125 3.25 10.125 3.554688 9.796875 C 3.660156 9.699219 3.765625 9.601562 3.875 9.5 C 3.917969 9.457031 3.957031 9.417969 4 9.375 Z M 4 9.375 "/>
</g>
</svg>
