<?xml version="1.0" encoding="UTF-8"?>
<svg xmlns="http://www.w3.org/2000/svg" xmlns:xlink="http://www.w3.org/1999/xlink" width="32" height="32" viewBox="0 0 32 32" version="1.1">
<g id="surface1">
<path style=" stroke:none;fill-rule:nonzero;fill:rgb(93.725491%,29.019609%,31.37255%);fill-opacity:1;" d="M 14 0.875 C 15.320312 0.875 16.640625 0.875 18 0.875 C 18.125 1.371094 18.246094 1.863281 18.375 2.375 C 19.113281 2.964844 19.113281 2.964844 20 3.140625 C 20.453125 2.96875 20.90625 2.796875 21.355469 2.605469 C 21.625 2.5 21.625 2.5 21.875 2.5 C 21.890625 2.402344 21.910156 2.308594 21.925781 2.207031 C 21.949219 2.082031 21.96875 1.957031 21.992188 1.828125 C 22.015625 1.703125 22.035156 1.578125 22.058594 1.449219 C 22.125 1.125 22.125 1.125 22.25 0.875 C 22.910156 0.875 23.570312 0.875 24.25 0.875 C 24.625 1.9375 24.625 1.9375 24.625 2.5 C 24.75 2.535156 24.75 2.535156 24.882812 2.574219 C 24.992188 2.605469 25.105469 2.640625 25.21875 2.671875 C 25.382812 2.71875 25.382812 2.71875 25.550781 2.769531 C 25.875 2.875 25.875 2.875 26.144531 3.015625 C 26.507812 3.1875 26.742188 3.105469 27.125 3 C 27.253906 2.914062 27.382812 2.824219 27.515625 2.734375 C 27.875 2.5 27.875 2.5 28.109375 2.515625 C 28.472656 2.667969 28.695312 2.886719 28.976562 3.164062 C 29.078125 3.261719 29.179688 3.359375 29.285156 3.460938 C 29.5 3.75 29.5 3.75 29.484375 4.011719 C 29.339844 4.324219 29.160156 4.601562 28.96875 4.890625 C 28.761719 5.410156 29.070312 5.964844 29.257812 6.460938 C 29.5 7.097656 29.5 7.097656 29.5 7.375 C 29.652344 7.390625 29.804688 7.40625 29.960938 7.421875 C 30.417969 7.46875 30.671875 7.570312 31.125 7.75 C 31.125 8.410156 31.125 9.070312 31.125 9.75 C 29.921875 10.125 29.921875 10.125 29.5 10.125 C 29.476562 10.210938 29.453125 10.292969 29.425781 10.382812 C 29.394531 10.492188 29.359375 10.605469 29.328125 10.71875 C 29.296875 10.828125 29.265625 10.9375 29.230469 11.050781 C 29.125 11.375 29.125 11.375 28.980469 11.628906 C 28.804688 12.046875 28.960938 12.378906 29.097656 12.792969 C 29.242188 13.140625 29.242188 13.140625 29.625 13.625 C 30.121094 13.75 30.613281 13.871094 31.125 14 C 31.125 15.320312 31.125 16.640625 31.125 18 C 29.648438 18.3125 29.648438 18.3125 29.183594 18.402344 C 28.488281 18.542969 28.488281 18.542969 27.957031 18.96875 C 27.863281 19.226562 27.804688 19.480469 27.75 19.75 C 27.691406 19.910156 27.632812 20.066406 27.566406 20.222656 C 27.335938 20.804688 27.335938 20.804688 27.109375 21.386719 C 27 21.625 27 21.625 26.839844 21.859375 C 26.667969 22.125 26.558594 22.316406 26.5 22.625 C 26.664062 23.105469 26.941406 23.492188 27.234375 23.90625 C 27.382812 24.125 27.53125 24.34375 27.679688 24.566406 C 27.78125 24.707031 27.78125 24.707031 27.882812 24.855469 C 28 25.125 28 25.125 27.929688 25.375 C 27.710938 25.679688 27.472656 25.929688 27.207031 26.195312 C 27.101562 26.296875 26.992188 26.40625 26.882812 26.515625 C 26.773438 26.621094 26.660156 26.730469 26.546875 26.84375 C 26.433594 26.953125 26.324219 27.066406 26.207031 27.179688 C 25.929688 27.453125 25.652344 27.726562 25.375 28 C 24.964844 27.851562 24.640625 27.6875 24.296875 27.417969 C 23.410156 26.722656 23.410156 26.722656 22.34375 26.53125 C 21.765625 26.722656 21.265625 27.042969 20.75 27.363281 C 20.371094 27.570312 20 27.648438 19.578125 27.742188 C 19.078125 27.875 19.078125 27.875 18.710938 28.210938 C 18.601562 28.515625 18.550781 28.804688 18.5 29.125 C 18.4375 29.382812 18.371094 29.636719 18.304688 29.894531 C 18.199219 30.300781 18.101562 30.714844 18 31.125 C 16.679688 31.125 15.359375 31.125 14 31.125 C 13.875 30.628906 13.753906 30.136719 13.625 29.625 C 12.890625 29.039062 12.890625 29.039062 12.007812 28.859375 C 11.820312 28.929688 11.820312 28.929688 11.625 29 C 11.515625 29.019531 11.40625 29.042969 11.292969 29.066406 C 10.886719 29.164062 10.597656 29.261719 10.25 29.5 C 9.976562 30.042969 9.875 30.519531 9.75 31.125 C 9.089844 31.125 8.429688 31.125 7.75 31.125 C 7.375 30.0625 7.375 30.0625 7.375 29.5 C 7.289062 29.476562 7.207031 29.453125 7.117188 29.425781 C 7.007812 29.394531 6.894531 29.359375 6.78125 29.328125 C 6.671875 29.296875 6.5625 29.265625 6.449219 29.230469 C 6.125 29.125 6.125 29.125 5.855469 28.984375 C 5.492188 28.8125 5.257812 28.894531 4.875 29 C 4.746094 29.085938 4.617188 29.175781 4.484375 29.265625 C 4.125 29.5 4.125 29.5 3.890625 29.484375 C 3.527344 29.332031 3.304688 29.113281 3.023438 28.835938 C 2.921875 28.738281 2.820312 28.640625 2.714844 28.539062 C 2.5 28.25 2.5 28.25 2.515625 27.988281 C 2.660156 27.675781 2.839844 27.398438 3.03125 27.109375 C 3.238281 26.589844 2.929688 26.035156 2.742188 25.539062 C 2.5 24.902344 2.5 24.902344 2.5 24.625 C 2.347656 24.609375 2.195312 24.59375 2.039062 24.578125 C 1.582031 24.53125 1.328125 24.429688 0.875 24.25 C 0.875 23.589844 0.875 22.929688 0.875 22.25 C 2.078125 21.875 2.078125 21.875 2.5 21.875 C 2.535156 21.75 2.535156 21.75 2.574219 21.617188 C 2.605469 21.507812 2.640625 21.394531 2.671875 21.28125 C 2.71875 21.117188 2.71875 21.117188 2.769531 20.949219 C 2.875 20.625 2.875 20.625 3.019531 20.371094 C 3.195312 19.953125 3.039062 19.621094 2.902344 19.207031 C 2.757812 18.859375 2.757812 18.859375 2.375 18.375 C 1.878906 18.25 1.386719 18.128906 0.875 18 C 0.875 16.679688 0.875 15.359375 0.875 14 C 2.351562 13.6875 2.351562 13.6875 2.816406 13.597656 C 3.511719 13.457031 3.511719 13.457031 4.042969 13.03125 C 4.136719 12.773438 4.195312 12.519531 4.25 12.25 C 4.308594 12.089844 4.367188 11.933594 4.433594 11.777344 C 4.664062 11.195312 4.664062 11.195312 4.890625 10.613281 C 5 10.375 5 10.375 5.160156 10.140625 C 5.332031 9.875 5.441406 9.683594 5.5 9.375 C 5.335938 8.894531 5.058594 8.507812 4.765625 8.09375 C 4.617188 7.875 4.46875 7.65625 4.320312 7.433594 C 4.253906 7.339844 4.1875 7.242188 4.117188 7.144531 C 4 6.875 4 6.875 4.070312 6.625 C 4.289062 6.320312 4.527344 6.070312 4.792969 5.804688 C 4.898438 5.703125 5.007812 5.59375 5.117188 5.484375 C 5.226562 5.378906 5.339844 5.269531 5.453125 5.15625 C 5.566406 5.046875 5.675781 4.933594 5.792969 4.820312 C 6.070312 4.546875 6.347656 4.273438 6.625 4 C 7.035156 4.148438 7.359375 4.3125 7.703125 4.582031 C 8.589844 5.277344 8.589844 5.277344 9.65625 5.46875 C 10.234375 5.277344 10.734375 4.957031 11.25 4.636719 C 11.628906 4.429688 12 4.351562 12.421875 4.257812 C 12.921875 4.125 12.921875 4.125 13.289062 3.789062 C 13.398438 3.484375 13.449219 3.195312 13.5 2.875 C 13.5625 2.617188 13.628906 2.363281 13.695312 2.105469 C 13.800781 1.699219 13.898438 1.285156 14 0.875 Z M 11.285156 11.441406 C 10.238281 12.574219 9.617188 13.964844 9.5 15.5 C 9.582031 15.542969 9.664062 15.582031 9.75 15.625 C 9.792969 15.867188 9.832031 16.109375 9.867188 16.351562 C 9.996094 16.941406 9.996094 16.941406 10.433594 17.328125 C 10.785156 17.449219 11.136719 17.539062 11.5 17.625 C 11.605469 17.675781 11.707031 17.730469 11.816406 17.785156 C 12.132812 17.914062 12.132812 17.914062 12.441406 17.726562 C 12.546875 17.652344 12.648438 17.578125 12.757812 17.5 C 13.074219 17.273438 13.074219 17.273438 13.375 17.125 C 13.820312 17.246094 14.09375 17.566406 14.40625 17.890625 C 14.496094 17.980469 14.582031 18.070312 14.671875 18.164062 C 14.738281 18.234375 14.804688 18.304688 14.875 18.375 C 14.808594 18.503906 14.808594 18.503906 14.742188 18.636719 C 14.6875 18.746094 14.628906 18.859375 14.570312 18.976562 C 14.515625 19.089844 14.457031 19.199219 14.398438 19.316406 C 14.238281 19.628906 14.238281 19.628906 14.125 20 C 14.242188 20.332031 14.242188 20.332031 14.421875 20.679688 C 14.613281 21.078125 14.785156 21.441406 14.875 21.875 C 14.980469 21.898438 15.089844 21.921875 15.199219 21.949219 C 15.335938 21.980469 15.476562 22.015625 15.617188 22.046875 C 15.753906 22.078125 15.890625 22.109375 16.035156 22.144531 C 16.148438 22.179688 16.257812 22.214844 16.375 22.25 C 16.417969 22.332031 16.457031 22.414062 16.5 22.5 C 18.277344 22.339844 19.808594 21.582031 21 20.25 C 21.859375 19.132812 22.394531 17.910156 22.5 16.5 C 22.417969 16.457031 22.335938 16.417969 22.25 16.375 C 22.207031 16.132812 22.167969 15.890625 22.132812 15.648438 C 22.003906 15.058594 22.003906 15.058594 21.566406 14.671875 C 21.214844 14.550781 20.863281 14.460938 20.5 14.375 C 20.394531 14.324219 20.292969 14.269531 20.183594 14.214844 C 19.867188 14.085938 19.867188 14.085938 19.558594 14.273438 C 19.453125 14.347656 19.351562 14.421875 19.242188 14.5 C 18.925781 14.726562 18.925781 14.726562 18.625 14.875 C 18.179688 14.753906 17.90625 14.433594 17.59375 14.109375 C 17.503906 14.019531 17.417969 13.929688 17.328125 13.835938 C 17.261719 13.765625 17.195312 13.695312 17.125 13.625 C 17.167969 13.539062 17.210938 13.453125 17.257812 13.363281 C 17.3125 13.253906 17.371094 13.140625 17.429688 13.023438 C 17.515625 12.855469 17.515625 12.855469 17.601562 12.683594 C 17.761719 12.371094 17.761719 12.371094 17.875 12 C 17.757812 11.667969 17.757812 11.667969 17.578125 11.320312 C 17.378906 10.910156 17.234375 10.570312 17.125 10.125 C 16.589844 10 16.050781 9.878906 15.5 9.75 C 15.5 9.667969 15.5 9.585938 15.5 9.5 C 13.878906 9.5 12.429688 10.355469 11.285156 11.441406 Z M 11.285156 11.441406 "/>
<path style=" stroke:none;fill-rule:nonzero;fill:rgb(47.843137%,53.725493%,57.647061%);fill-opacity:1;" d="M 7.75 15.5 C 8.410156 15.5 9.070312 15.5 9.75 15.5 C 10.125 16.5625 10.125 16.5625 10.125 17.125 C 10.246094 17.136719 10.367188 17.144531 10.492188 17.15625 C 10.90625 17.207031 11.179688 17.347656 11.539062 17.554688 C 11.816406 17.707031 11.816406 17.707031 12.125 17.75 C 12.492188 17.59375 12.777344 17.398438 13.09375 17.15625 C 13.375 17 13.375 17 13.625 17.066406 C 13.9375 17.296875 14.199219 17.550781 14.46875 17.828125 C 14.570312 17.929688 14.667969 18.03125 14.769531 18.136719 C 14.847656 18.214844 14.921875 18.292969 15 18.375 C 14.933594 18.503906 14.933594 18.503906 14.867188 18.636719 C 14.8125 18.746094 14.753906 18.859375 14.695312 18.976562 C 14.640625 19.089844 14.582031 19.199219 14.523438 19.316406 C 14.363281 19.628906 14.363281 19.628906 14.25 20 C 14.375 20.332031 14.375 20.332031 14.554688 20.679688 C 14.785156 21.140625 14.875 21.347656 14.875 21.875 C 15.105469 21.898438 15.105469 21.898438 15.335938 21.921875 C 15.792969 21.96875 16.046875 22.070312 16.5 22.25 C 16.5 22.910156 16.5 23.570312 16.5 24.25 C 15.964844 24.375 15.425781 24.496094 14.875 24.625 C 14.820312 24.820312 14.761719 25.015625 14.703125 25.21875 C 14.609375 25.546875 14.515625 25.839844 14.359375 26.144531 C 14.1875 26.507812 14.269531 26.742188 14.375 27.125 C 14.617188 27.539062 14.617188 27.539062 14.875 27.875 C 14.699219 28.273438 14.492188 28.53125 14.179688 28.828125 C 13.859375 29.132812 13.859375 29.132812 13.625 29.5 C 13.28125 29.371094 12.996094 29.246094 12.695312 29.039062 C 12.261719 28.816406 12.097656 28.867188 11.625 29 C 11.457031 29.03125 11.457031 29.03125 11.289062 29.0625 C 10.886719 29.167969 10.59375 29.265625 10.25 29.5 C 9.976562 30.042969 9.875 30.519531 9.75 31.125 C 9.089844 31.125 8.429688 31.125 7.75 31.125 C 7.375 30.0625 7.375 30.0625 7.375 29.5 C 7.289062 29.476562 7.207031 29.453125 7.117188 29.425781 C 7.007812 29.394531 6.894531 29.359375 6.78125 29.328125 C 6.671875 29.296875 6.5625 29.265625 6.449219 29.230469 C 6.125 29.125 6.125 29.125 5.855469 28.984375 C 5.492188 28.8125 5.257812 28.894531 4.875 29 C 4.746094 29.085938 4.617188 29.175781 4.484375 29.265625 C 4.125 29.5 4.125 29.5 3.890625 29.484375 C 3.527344 29.332031 3.304688 29.113281 3.023438 28.835938 C 2.921875 28.738281 2.820312 28.640625 2.714844 28.539062 C 2.5 28.25 2.5 28.25 2.515625 27.988281 C 2.660156 27.675781 2.839844 27.398438 3.03125 27.109375 C 3.238281 26.589844 2.929688 26.035156 2.742188 25.539062 C 2.5 24.902344 2.5 24.902344 2.5 24.625 C 2.347656 24.609375 2.195312 24.59375 2.039062 24.578125 C 1.582031 24.53125 1.328125 24.429688 0.875 24.25 C 0.875 23.589844 0.875 22.929688 0.875 22.25 C 2.078125 21.875 2.078125 21.875 2.5 21.875 C 2.523438 21.789062 2.546875 21.707031 2.574219 21.617188 C 2.605469 21.507812 2.640625 21.394531 2.671875 21.28125 C 2.703125 21.171875 2.734375 21.0625 2.769531 20.949219 C 2.875 20.625 2.875 20.625 3.015625 20.351562 C 3.175781 20.015625 3.113281 19.851562 3 19.5 C 2.839844 19.203125 2.671875 18.914062 2.5 18.625 C 2.5 18.542969 2.5 18.460938 2.5 18.375 C 2.703125 18.171875 2.703125 18.171875 2.976562 17.945312 C 3.289062 17.683594 3.589844 17.417969 3.875 17.125 C 4.21875 17.253906 4.507812 17.378906 4.8125 17.585938 C 5.203125 17.792969 5.328125 17.738281 5.75 17.625 C 6.074219 17.503906 6.390625 17.367188 6.710938 17.230469 C 7 17.125 7 17.125 7.375 17.125 C 7.5 16.589844 7.621094 16.050781 7.75 15.5 Z M 7.75 15.5 "/>
<path style=" stroke:none;fill-rule:nonzero;fill:rgb(96.470588%,72.941178%,26.666668%);fill-opacity:1;" d="M 29.960938 13.6875 C 30.183594 13.746094 30.40625 13.808594 30.625 13.875 C 30.871094 13.9375 30.871094 13.9375 31.125 14 C 31.125 15.320312 31.125 16.640625 31.125 18 C 29.648438 18.3125 29.648438 18.3125 29.183594 18.402344 C 28.488281 18.542969 28.488281 18.542969 27.957031 18.96875 C 27.863281 19.226562 27.804688 19.480469 27.75 19.75 C 27.691406 19.910156 27.632812 20.066406 27.566406 20.222656 C 27.335938 20.804688 27.335938 20.804688 27.109375 21.386719 C 27 21.625 27 21.625 26.839844 21.859375 C 26.667969 22.125 26.558594 22.316406 26.5 22.625 C 26.664062 23.105469 26.941406 23.492188 27.234375 23.90625 C 27.382812 24.125 27.53125 24.34375 27.679688 24.566406 C 27.78125 24.707031 27.78125 24.707031 27.882812 24.855469 C 28 25.125 28 25.125 27.929688 25.375 C 27.710938 25.679688 27.472656 25.929688 27.207031 26.195312 C 27.101562 26.296875 26.992188 26.40625 26.882812 26.515625 C 26.71875 26.675781 26.71875 26.675781 26.546875 26.84375 C 26.433594 26.953125 26.320312 27.066406 26.207031 27.179688 C 25.929688 27.453125 25.652344 27.726562 25.375 28 C 24.964844 27.851562 24.640625 27.6875 24.296875 27.417969 C 23.410156 26.722656 23.410156 26.722656 22.34375 26.53125 C 21.765625 26.722656 21.265625 27.042969 20.75 27.363281 C 20.371094 27.570312 20 27.648438 19.578125 27.742188 C 19.078125 27.875 19.078125 27.875 18.710938 28.210938 C 18.601562 28.515625 18.550781 28.804688 18.5 29.125 C 18.4375 29.382812 18.371094 29.636719 18.304688 29.894531 C 18.199219 30.300781 18.101562 30.714844 18 31.125 C 16.679688 31.125 15.359375 31.125 14 31.125 C 13.625 29.625 13.625 29.625 13.75 29.125 C 13.980469 28.859375 13.980469 28.859375 14.257812 28.59375 C 14.351562 28.503906 14.441406 28.417969 14.535156 28.328125 C 14.640625 28.226562 14.640625 28.226562 14.75 28.125 C 14.621094 27.78125 14.5 27.5 14.289062 27.195312 C 14.03125 26.691406 14.210938 26.265625 14.355469 25.734375 C 14.71875 24.71875 14.71875 24.71875 15.179688 24.445312 C 15.632812 24.308594 16.03125 24.25 16.5 24.25 C 16.5 23.671875 16.5 23.09375 16.5 22.5 C 16.757812 22.433594 17.015625 22.367188 17.28125 22.296875 C 19.132812 21.78125 20.5625 20.90625 21.5625 19.234375 C 22.015625 18.367188 22.285156 17.449219 22.5 16.5 C 23.078125 16.5 23.65625 16.5 24.25 16.5 C 24.308594 16.167969 24.308594 16.167969 24.367188 15.828125 C 24.484375 15.15625 24.484375 15.15625 24.625 14.875 C 24.902344 14.730469 25.175781 14.601562 25.460938 14.476562 C 25.574219 14.421875 25.574219 14.421875 25.695312 14.367188 C 26.222656 14.136719 26.570312 14.085938 27.125 14.25 C 27.546875 14.507812 27.546875 14.507812 27.875 14.75 C 28.289062 14.574219 28.484375 14.378906 28.757812 14.03125 C 29.164062 13.605469 29.386719 13.582031 29.960938 13.6875 Z M 29.960938 13.6875 "/>
<path style=" stroke:none;fill-rule:nonzero;fill:rgb(96.470588%,72.941178%,26.666668%);fill-opacity:1;" d="M 14 0.875 C 15.320312 0.875 16.640625 0.875 18 0.875 C 18.375 2.375 18.375 2.375 18.25 2.875 C 18.019531 3.140625 18.019531 3.140625 17.742188 3.40625 C 17.648438 3.496094 17.558594 3.582031 17.464844 3.671875 C 17.394531 3.738281 17.324219 3.804688 17.25 3.875 C 17.382812 4.21875 17.503906 4.507812 17.710938 4.8125 C 17.960938 5.292969 17.777344 5.644531 17.644531 6.152344 C 17.28125 7.277344 17.28125 7.277344 16.820312 7.5625 C 16.367188 7.699219 15.96875 7.75 15.5 7.75 C 15.5 8.328125 15.5 8.90625 15.5 9.5 C 15.378906 9.527344 15.261719 9.554688 15.140625 9.582031 C 13.289062 10.027344 11.738281 10.789062 10.648438 12.414062 C 10.070312 13.378906 9.746094 14.40625 9.5 15.5 C 8.921875 15.5 8.34375 15.5 7.75 15.5 C 7.710938 15.722656 7.671875 15.945312 7.632812 16.171875 C 7.515625 16.84375 7.515625 16.84375 7.375 17.125 C 7.117188 17.242188 6.859375 17.347656 6.59375 17.445312 C 6.378906 17.527344 6.378906 17.527344 6.164062 17.609375 C 5.460938 17.847656 5.460938 17.847656 5.125 17.875 C 4.84375 17.734375 4.621094 17.554688 4.371094 17.367188 C 4.128906 17.21875 4.128906 17.21875 3.867188 17.328125 C 3.605469 17.515625 3.441406 17.714844 3.242188 17.96875 C 3.015625 18.203125 3.015625 18.203125 2.75 18.375 C 2.265625 18.382812 1.835938 18.265625 1.375 18.125 C 1.210938 18.082031 1.046875 18.042969 0.875 18 C 0.875 16.679688 0.875 15.359375 0.875 14 C 2.351562 13.6875 2.351562 13.6875 2.816406 13.597656 C 3.511719 13.457031 3.511719 13.457031 4.042969 13.03125 C 4.136719 12.773438 4.195312 12.519531 4.25 12.25 C 4.308594 12.089844 4.367188 11.933594 4.433594 11.777344 C 4.664062 11.195312 4.664062 11.195312 4.890625 10.613281 C 5 10.375 5 10.375 5.160156 10.140625 C 5.332031 9.875 5.441406 9.683594 5.5 9.375 C 5.335938 8.894531 5.058594 8.507812 4.765625 8.09375 C 4.617188 7.875 4.46875 7.65625 4.320312 7.433594 C 4.253906 7.339844 4.1875 7.242188 4.117188 7.144531 C 4 6.875 4 6.875 4.070312 6.625 C 4.289062 6.320312 4.527344 6.070312 4.792969 5.804688 C 4.898438 5.703125 5.007812 5.59375 5.117188 5.484375 C 5.226562 5.378906 5.339844 5.269531 5.453125 5.15625 C 5.566406 5.046875 5.675781 4.933594 5.792969 4.820312 C 6.070312 4.546875 6.347656 4.273438 6.625 4 C 7.035156 4.148438 7.359375 4.3125 7.703125 4.582031 C 8.589844 5.277344 8.589844 5.277344 9.65625 5.46875 C 10.234375 5.277344 10.734375 4.957031 11.25 4.636719 C 11.628906 4.429688 12 4.351562 12.421875 4.257812 C 12.921875 4.125 12.921875 4.125 13.289062 3.789062 C 13.398438 3.484375 13.449219 3.195312 13.5 2.875 C 13.5625 2.617188 13.628906 2.363281 13.695312 2.105469 C 13.800781 1.699219 13.898438 1.285156 14 0.875 Z M 14 0.875 "/>
<path style=" stroke:none;fill-rule:nonzero;fill:rgb(30.588236%,39.607844%,45.490196%);fill-opacity:1;" d="M 3.875 17.125 C 4.132812 17.210938 4.132812 17.210938 4.5 17.375 C 4.578125 17.402344 4.652344 17.429688 4.734375 17.457031 C 5.042969 17.605469 5.179688 17.710938 5.375 18 C 5.457031 18.535156 5.476562 19.046875 5.480469 19.585938 C 5.484375 19.964844 5.53125 20.296875 5.628906 20.664062 C 5.761719 21.171875 5.730469 21.488281 5.625 22 C 5.394531 23.15625 5.378906 24.210938 6 25.25 C 6.617188 25.976562 7.347656 26.421875 8.296875 26.535156 C 9.078125 26.566406 9.773438 26.40625 10.5 26.125 C 10.542969 26.082031 10.582031 26.042969 10.625 26 C 10.816406 25.988281 11.011719 25.988281 11.203125 25.992188 C 11.324219 25.992188 11.441406 25.992188 11.566406 25.996094 C 11.816406 26 12.066406 26 12.316406 26.003906 C 13.015625 26.011719 13.683594 25.980469 14.375 25.875 C 14.339844 26.019531 14.308594 26.164062 14.273438 26.3125 C 14.207031 26.792969 14.296875 27.011719 14.570312 27.40625 C 14.632812 27.484375 14.695312 27.5625 14.757812 27.640625 C 14.875 27.875 14.875 27.875 14.796875 28.125 C 14.613281 28.394531 14.414062 28.605469 14.179688 28.828125 C 13.859375 29.132812 13.859375 29.132812 13.625 29.5 C 13.28125 29.371094 12.996094 29.246094 12.695312 29.039062 C 12.261719 28.816406 12.097656 28.867188 11.625 29 C 11.457031 29.03125 11.457031 29.03125 11.289062 29.0625 C 10.886719 29.167969 10.59375 29.265625 10.25 29.5 C 9.976562 30.042969 9.875 30.519531 9.75 31.125 C 9.089844 31.125 8.429688 31.125 7.75 31.125 C 7.375 30.0625 7.375 30.0625 7.375 29.5 C 7.289062 29.476562 7.207031 29.453125 7.117188 29.425781 C 7.007812 29.394531 6.894531 29.359375 6.78125 29.328125 C 6.671875 29.296875 6.5625 29.265625 6.449219 29.230469 C 6.125 29.125 6.125 29.125 5.855469 28.984375 C 5.492188 28.8125 5.257812 28.894531 4.875 29 C 4.746094 29.085938 4.617188 29.175781 4.484375 29.265625 C 4.125 29.5 4.125 29.5 3.890625 29.484375 C 3.527344 29.332031 3.304688 29.113281 3.023438 28.835938 C 2.921875 28.738281 2.820312 28.640625 2.714844 28.539062 C 2.5 28.25 2.5 28.25 2.515625 27.988281 C 2.660156 27.675781 2.839844 27.398438 3.03125 27.109375 C 3.238281 26.589844 2.929688 26.035156 2.742188 25.539062 C 2.5 24.902344 2.5 24.902344 2.5 24.625 C 2.347656 24.609375 2.195312 24.59375 2.039062 24.578125 C 1.582031 24.53125 1.328125 24.429688 0.875 24.25 C 0.875 23.589844 0.875 22.929688 0.875 22.25 C 2.078125 21.875 2.078125 21.875 2.5 21.875 C 2.523438 21.789062 2.546875 21.707031 2.574219 21.617188 C 2.605469 21.507812 2.640625 21.394531 2.671875 21.28125 C 2.703125 21.171875 2.734375 21.0625 2.769531 20.949219 C 2.875 20.625 2.875 20.625 3.015625 20.351562 C 3.175781 20.015625 3.113281 19.851562 3 19.5 C 2.839844 19.203125 2.671875 18.914062 2.5 18.625 C 2.5 18.542969 2.5 18.460938 2.5 18.375 C 2.703125 18.171875 2.703125 18.171875 2.976562 17.945312 C 3.289062 17.683594 3.589844 17.417969 3.875 17.125 Z M 3.875 17.125 "/>
<path style=" stroke:none;fill-rule:nonzero;fill:rgb(99.607843%,66.666669%,1.176471%);fill-opacity:1;" d="M 17.84375 22.726562 C 19.492188 23.378906 21.074219 23.671875 22.851562 23.664062 C 22.992188 23.664062 23.136719 23.664062 23.28125 23.664062 C 24.230469 23.652344 25.101562 23.5625 26.015625 23.320312 C 26.417969 23.242188 26.621094 23.214844 27 23.375 C 27.21875 23.660156 27.386719 23.914062 27.554688 24.226562 C 27.625 24.34375 27.625 24.34375 27.699219 24.464844 C 27.828125 24.699219 27.828125 24.699219 28 25.125 C 27.847656 25.578125 27.542969 25.863281 27.207031 26.191406 C 27.101562 26.300781 26.992188 26.402344 26.882812 26.511719 C 26.71875 26.675781 26.71875 26.675781 26.546875 26.84375 C 26.433594 26.957031 26.324219 27.066406 26.207031 27.179688 C 25.929688 27.453125 25.652344 27.726562 25.375 28 C 24.964844 27.847656 24.640625 27.6875 24.296875 27.417969 C 23.410156 26.722656 23.410156 26.722656 22.34375 26.53125 C 21.765625 26.722656 21.265625 27.042969 20.75 27.363281 C 20.371094 27.570312 20 27.648438 19.578125 27.742188 C 19.078125 27.875 19.078125 27.875 18.710938 28.210938 C 18.601562 28.515625 18.550781 28.804688 18.5 29.125 C 18.4375 29.382812 18.371094 29.636719 18.304688 29.894531 C 18.199219 30.304688 18.101562 30.714844 18 31.125 C 16.679688 31.125 15.359375 31.125 14 31.125 C 13.625 29.625 13.625 29.625 13.75 29.125 C 13.980469 28.859375 13.980469 28.859375 14.257812 28.59375 C 14.351562 28.503906 14.441406 28.417969 14.535156 28.328125 C 14.605469 28.261719 14.675781 28.191406 14.75 28.125 C 14.621094 27.78125 14.5 27.496094 14.289062 27.195312 C 14.03125 26.691406 14.210938 26.269531 14.355469 25.738281 C 14.71875 24.71875 14.71875 24.71875 15.179688 24.445312 C 15.632812 24.308594 16.03125 24.25 16.5 24.25 C 16.5 23.671875 16.5 23.09375 16.5 22.5 C 17.019531 22.328125 17.359375 22.53125 17.84375 22.726562 Z M 17.84375 22.726562 "/>
<path style=" stroke:none;fill-rule:nonzero;fill:rgb(99.607843%,66.666669%,1.176471%);fill-opacity:1;" d="M 6.625 4 C 7.128906 4.195312 7.574219 4.425781 8.039062 4.703125 C 8.238281 4.820312 8.238281 4.820312 8.445312 4.941406 C 8.59375 5.03125 8.59375 5.03125 8.75 5.125 C 8.6875 5.378906 8.628906 5.628906 8.566406 5.882812 C 8.035156 8.808594 8.253906 11.859375 9.414062 14.605469 C 9.5 14.875 9.5 14.875 9.5 15.5 C 8.921875 15.5 8.34375 15.5 7.75 15.5 C 7.710938 15.722656 7.671875 15.945312 7.632812 16.171875 C 7.515625 16.84375 7.515625 16.84375 7.375 17.125 C 7.117188 17.242188 6.859375 17.347656 6.59375 17.445312 C 6.378906 17.527344 6.378906 17.527344 6.164062 17.609375 C 5.460938 17.847656 5.460938 17.847656 5.125 17.875 C 4.84375 17.734375 4.621094 17.554688 4.371094 17.367188 C 4.128906 17.21875 4.128906 17.21875 3.867188 17.328125 C 3.605469 17.515625 3.441406 17.714844 3.242188 17.96875 C 3.015625 18.203125 3.015625 18.203125 2.75 18.375 C 2.265625 18.382812 1.835938 18.265625 1.375 18.125 C 1.210938 18.082031 1.046875 18.042969 0.875 18 C 0.875 16.679688 0.875 15.359375 0.875 14 C 2.351562 13.6875 2.351562 13.6875 2.816406 13.597656 C 3.511719 13.457031 3.511719 13.457031 4.042969 13.03125 C 4.136719 12.773438 4.195312 12.519531 4.25 12.25 C 4.308594 12.089844 4.367188 11.933594 4.433594 11.777344 C 4.664062 11.195312 4.664062 11.195312 4.890625 10.613281 C 5 10.375 5 10.375 5.160156 10.140625 C 5.332031 9.875 5.441406 9.683594 5.5 9.375 C 5.335938 8.894531 5.058594 8.507812 4.765625 8.09375 C 4.617188 7.875 4.46875 7.65625 4.320312 7.433594 C 4.253906 7.339844 4.1875 7.242188 4.117188 7.144531 C 4 6.875 4 6.875 4.070312 6.625 C 4.289062 6.320312 4.527344 6.070312 4.792969 5.804688 C 4.898438 5.703125 5.007812 5.59375 5.117188 5.484375 C 5.226562 5.378906 5.339844 5.269531 5.453125 5.15625 C 5.566406 5.046875 5.675781 4.933594 5.792969 4.820312 C 6.070312 4.546875 6.347656 4.273438 6.625 4 Z M 6.625 4 "/>
<path style=" stroke:none;fill-rule:nonzero;fill:rgb(92.156863%,46.27451%,48.235294%);fill-opacity:1;" d="M 22.25 0.875 C 22.910156 0.875 23.570312 0.875 24.25 0.875 C 24.625 1.9375 24.625 1.9375 24.625 2.5 C 24.710938 2.523438 24.792969 2.546875 24.882812 2.574219 C 24.992188 2.605469 25.105469 2.640625 25.21875 2.671875 C 25.328125 2.703125 25.4375 2.734375 25.550781 2.769531 C 25.875 2.875 25.875 2.875 26.144531 3.015625 C 26.507812 3.1875 26.742188 3.105469 27.125 3 C 27.253906 2.914062 27.382812 2.824219 27.515625 2.734375 C 27.875 2.5 27.875 2.5 28.109375 2.515625 C 28.472656 2.667969 28.695312 2.886719 28.976562 3.164062 C 29.078125 3.261719 29.179688 3.359375 29.285156 3.460938 C 29.5 3.75 29.5 3.75 29.484375 4.011719 C 29.339844 4.324219 29.160156 4.601562 28.96875 4.890625 C 28.761719 5.410156 29.070312 5.964844 29.257812 6.460938 C 29.5 7.097656 29.5 7.097656 29.5 7.375 C 29.730469 7.398438 29.730469 7.398438 29.960938 7.421875 C 30.417969 7.46875 30.671875 7.570312 31.125 7.75 C 31.125 8.410156 31.125 9.070312 31.125 9.75 C 29.921875 10.125 29.921875 10.125 29.5 10.125 C 29.375 10.539062 29.253906 10.949219 29.125 11.375 C 28.382812 11.539062 27.644531 11.515625 26.890625 11.507812 C 26.691406 11.507812 26.691406 11.507812 26.484375 11.507812 C 26.15625 11.503906 25.828125 11.503906 25.5 11.5 C 25.648438 11.191406 25.796875 10.9375 26 10.65625 C 26.519531 9.8125 26.628906 8.847656 26.5 7.875 C 26.1875 6.910156 25.652344 6.230469 24.765625 5.746094 C 23.894531 5.363281 22.902344 5.390625 21.992188 5.644531 C 21.363281 5.914062 20.847656 6.386719 20.375 6.875 C 19.910156 6.003906 19.859375 5.304688 19.867188 4.335938 C 19.867188 4.230469 19.867188 4.128906 19.867188 4.019531 C 19.871094 3.761719 19.871094 3.507812 19.875 3.25 C 20.089844 3.148438 20.308594 3.046875 20.523438 2.945312 C 20.644531 2.890625 20.765625 2.832031 20.890625 2.773438 C 21.222656 2.636719 21.519531 2.554688 21.875 2.5 C 21.890625 2.402344 21.910156 2.308594 21.925781 2.207031 C 21.949219 2.082031 21.96875 1.957031 21.992188 1.828125 C 22.015625 1.703125 22.035156 1.578125 22.058594 1.449219 C 22.125 1.125 22.125 1.125 22.25 0.875 Z M 22.25 0.875 "/>
<path style=" stroke:none;fill-rule:nonzero;fill:rgb(96.078432%,72.941178%,27.058825%);fill-opacity:1;" d="M 23.304688 5.335938 C 24.246094 5.351562 25.039062 5.632812 25.734375 6.273438 C 26.410156 7.023438 26.707031 7.804688 26.65625 8.816406 C 26.554688 9.808594 26.347656 10.523438 25.625 11.25 C 24.65625 11.996094 23.722656 12.273438 22.5 12.125 C 21.410156 11.757812 20.714844 11.101562 20.125 10.125 C 19.761719 9.351562 19.738281 8.507812 19.960938 7.683594 C 20.375 6.679688 21.007812 5.949219 22 5.5 C 22.359375 5.476562 22.359375 5.476562 22.625 5.5 C 22.824219 5.300781 23.027344 5.34375 23.304688 5.335938 Z M 23.304688 5.335938 "/>
<path style=" stroke:none;fill-rule:nonzero;fill:rgb(99.215686%,66.666669%,1.568628%);fill-opacity:1;" d="M 10.332031 20.203125 C 11.21875 20.722656 11.867188 21.5 12.125 22.5 C 12.277344 23.570312 12.042969 24.476562 11.460938 25.378906 C 10.957031 26.027344 10.351562 26.351562 9.578125 26.59375 C 8.421875 26.703125 7.46875 26.644531 6.496094 25.941406 C 5.832031 25.34375 5.453125 24.59375 5.335938 23.710938 C 5.328125 23.425781 5.34375 23.15625 5.375 22.875 C 5.386719 22.78125 5.394531 22.6875 5.40625 22.589844 C 5.53125 21.839844 5.828125 21.28125 6.375 20.75 C 7.628906 19.851562 8.875 19.542969 10.332031 20.203125 Z M 10.332031 20.203125 "/>
</g>
</svg>
