<?xml version="1.0" encoding="UTF-8"?>
<svg xmlns="http://www.w3.org/2000/svg" xmlns:xlink="http://www.w3.org/1999/xlink" width="32" height="32" viewBox="0 0 32 32" version="1.1">
<g id="surface1">
<path style=" stroke:none;fill-rule:nonzero;fill:rgb(99.607843%,61.176473%,0%);fill-opacity:1;" d="M 8.257812 0.839844 C 8.445312 0.839844 8.632812 0.839844 8.820312 0.839844 C 9.324219 0.835938 9.832031 0.835938 10.335938 0.835938 C 10.757812 0.835938 11.183594 0.835938 11.605469 0.835938 C 12.605469 0.835938 13.605469 0.835938 14.605469 0.835938 C 15.632812 0.835938 16.660156 0.835938 17.6875 0.832031 C 18.574219 0.828125 19.457031 0.828125 20.34375 0.828125 C 20.871094 0.828125 21.398438 0.828125 21.925781 0.828125 C 22.421875 0.824219 22.917969 0.828125 23.414062 0.828125 C 23.597656 0.828125 23.777344 0.828125 23.957031 0.828125 C 26.265625 0.8125 28.3125 1.351562 30 3 C 31.324219 4.511719 32.039062 6.101562 32.035156 8.109375 C 32.035156 8.230469 32.039062 8.347656 32.039062 8.472656 C 32.039062 8.863281 32.042969 9.257812 32.042969 9.648438 C 32.042969 9.925781 32.042969 10.199219 32.042969 10.472656 C 32.046875 11.050781 32.046875 11.625 32.046875 12.203125 C 32.046875 12.9375 32.050781 13.667969 32.054688 14.40625 C 32.058594 14.972656 32.058594 15.539062 32.058594 16.105469 C 32.058594 16.378906 32.058594 16.648438 32.0625 16.917969 C 32.078125 19.492188 31.675781 21.496094 29.839844 23.433594 C 29.199219 24.03125 28.488281 24.554688 27.625 24.75 C 27.660156 24.894531 27.660156 24.894531 27.691406 25.042969 C 27.792969 25.488281 27.890625 25.929688 27.992188 26.375 C 28.027344 26.527344 28.0625 26.679688 28.097656 26.835938 C 28.636719 29.234375 28.636719 29.234375 28.25 30.125 C 27.8125 30.675781 27.316406 31.050781 26.613281 31.167969 C 25.449219 31.242188 24.644531 30.441406 23.796875 29.734375 C 23.621094 29.589844 23.445312 29.445312 23.269531 29.300781 C 23.183594 29.226562 23.09375 29.15625 23.003906 29.082031 C 22.632812 28.777344 22.253906 28.484375 21.875 28.1875 C 21.128906 27.601562 20.390625 27.007812 19.65625 26.40625 C 19.574219 26.339844 19.496094 26.273438 19.414062 26.207031 C 19.34375 26.148438 19.269531 26.089844 19.199219 26.03125 C 18.410156 25.410156 17.429688 25.535156 16.464844 25.515625 C 16.222656 25.511719 15.988281 25.5 15.75 25.488281 C 14.351562 25.414062 13.351562 25.464844 12.257812 26.402344 C 12.03125 26.613281 11.808594 26.824219 11.589844 27.042969 C 11.25 27.371094 10.875 27.652344 10.5 27.9375 C 9.941406 28.371094 9.394531 28.8125 8.847656 29.261719 C 6.515625 31.175781 6.515625 31.175781 5.429688 31.160156 C 4.746094 31.082031 4.273438 30.792969 3.820312 30.28125 C 3.285156 29.171875 3.613281 28.105469 3.859375 26.960938 C 3.894531 26.789062 3.929688 26.617188 3.964844 26.441406 C 4.222656 25.210938 4.222656 25.210938 4.375 24.75 C 4.304688 24.738281 4.238281 24.722656 4.167969 24.710938 C 2.597656 24.246094 1.503906 22.871094 0.75 21.5 C 0.210938 20.359375 -0.0195312 19.433594 -0.0234375 18.183594 C -0.0234375 18.0625 -0.0234375 17.941406 -0.0234375 17.820312 C -0.0273438 17.425781 -0.0273438 17.03125 -0.0273438 16.636719 C -0.03125 16.5 -0.03125 16.367188 -0.03125 16.226562 C -0.0351562 15.507812 -0.0351562 14.792969 -0.0351562 14.078125 C -0.0390625 13.339844 -0.0429688 12.601562 -0.046875 11.867188 C -0.0507812 11.296875 -0.0507812 10.726562 -0.0507812 10.15625 C -0.0546875 9.886719 -0.0546875 9.613281 -0.0585938 9.34375 C -0.0742188 6.972656 0.21875 4.910156 1.894531 3.089844 C 3.800781 1.3125 5.722656 0.835938 8.257812 0.839844 Z M 8.257812 0.839844 "/>
<path style=" stroke:none;fill-rule:nonzero;fill:rgb(97.254902%,45.882353%,9.019608%);fill-opacity:1;" d="M 8.257812 0.839844 C 8.445312 0.839844 8.632812 0.839844 8.820312 0.839844 C 9.324219 0.835938 9.832031 0.835938 10.335938 0.835938 C 10.757812 0.835938 11.183594 0.835938 11.605469 0.835938 C 12.605469 0.835938 13.605469 0.835938 14.605469 0.835938 C 15.632812 0.835938 16.660156 0.835938 17.6875 0.832031 C 18.574219 0.828125 19.457031 0.828125 20.34375 0.828125 C 20.871094 0.828125 21.398438 0.828125 21.925781 0.828125 C 22.421875 0.824219 22.917969 0.828125 23.414062 0.828125 C 23.597656 0.828125 23.777344 0.828125 23.957031 0.828125 C 26.265625 0.8125 28.3125 1.351562 30 3 C 31.324219 4.511719 32.039062 6.101562 32.035156 8.109375 C 32.035156 8.230469 32.039062 8.347656 32.039062 8.472656 C 32.039062 8.863281 32.042969 9.257812 32.042969 9.648438 C 32.042969 9.925781 32.042969 10.199219 32.042969 10.472656 C 32.046875 11.050781 32.046875 11.625 32.046875 12.203125 C 32.046875 12.9375 32.050781 13.667969 32.054688 14.40625 C 32.058594 14.972656 32.058594 15.539062 32.058594 16.105469 C 32.058594 16.378906 32.058594 16.648438 32.0625 16.917969 C 32.078125 19.492188 31.675781 21.496094 29.839844 23.433594 C 29.199219 24.03125 28.488281 24.554688 27.625 24.75 C 27.660156 24.894531 27.660156 24.894531 27.691406 25.042969 C 27.792969 25.488281 27.890625 25.929688 27.992188 26.375 C 28.027344 26.527344 28.0625 26.679688 28.097656 26.835938 C 28.636719 29.234375 28.636719 29.234375 28.25 30.125 C 27.8125 30.675781 27.316406 31.050781 26.613281 31.167969 C 25.449219 31.242188 24.644531 30.441406 23.796875 29.734375 C 23.621094 29.589844 23.445312 29.445312 23.269531 29.300781 C 23.183594 29.226562 23.09375 29.15625 23.003906 29.082031 C 22.632812 28.777344 22.253906 28.484375 21.875 28.1875 C 21.128906 27.601562 20.390625 27.007812 19.65625 26.40625 C 19.574219 26.339844 19.496094 26.273438 19.414062 26.207031 C 19.34375 26.148438 19.269531 26.089844 19.199219 26.03125 C 18.410156 25.410156 17.429688 25.535156 16.464844 25.515625 C 16.222656 25.511719 15.988281 25.5 15.75 25.488281 C 14.351562 25.414062 13.351562 25.464844 12.257812 26.402344 C 12.03125 26.613281 11.808594 26.824219 11.589844 27.042969 C 11.25 27.371094 10.875 27.652344 10.5 27.9375 C 9.941406 28.371094 9.394531 28.8125 8.847656 29.261719 C 6.515625 31.175781 6.515625 31.175781 5.429688 31.160156 C 4.746094 31.082031 4.273438 30.792969 3.820312 30.28125 C 3.285156 29.171875 3.613281 28.105469 3.859375 26.960938 C 3.894531 26.789062 3.929688 26.617188 3.964844 26.441406 C 4.222656 25.210938 4.222656 25.210938 4.375 24.75 C 4.304688 24.738281 4.238281 24.722656 4.167969 24.710938 C 2.597656 24.246094 1.503906 22.871094 0.75 21.5 C 0.210938 20.359375 -0.0195312 19.433594 -0.0234375 18.183594 C -0.0234375 18.0625 -0.0234375 17.941406 -0.0234375 17.820312 C -0.0273438 17.425781 -0.0273438 17.03125 -0.0273438 16.636719 C -0.03125 16.5 -0.03125 16.367188 -0.03125 16.226562 C -0.0351562 15.507812 -0.0351562 14.792969 -0.0351562 14.078125 C -0.0390625 13.339844 -0.0429688 12.601562 -0.046875 11.867188 C -0.0507812 11.296875 -0.0507812 10.726562 -0.0507812 10.15625 C -0.0546875 9.886719 -0.0546875 9.613281 -0.0585938 9.34375 C -0.0742188 6.972656 0.21875 4.910156 1.894531 3.089844 C 3.800781 1.3125 5.722656 0.835938 8.257812 0.839844 Z M 2.46875 3.851562 C 2.085938 4.328125 1.789062 4.839844 1.5 5.375 C 1.429688 5.5 1.355469 5.628906 1.28125 5.757812 C 0.792969 6.902344 0.835938 8.082031 0.835938 9.300781 C 0.835938 9.5 0.835938 9.695312 0.835938 9.894531 C 0.835938 10.3125 0.835938 10.726562 0.835938 11.144531 C 0.835938 11.671875 0.835938 12.203125 0.832031 12.730469 C 0.828125 13.140625 0.828125 13.550781 0.828125 13.964844 C 0.828125 14.15625 0.828125 14.351562 0.828125 14.546875 C 0.816406 16.792969 1.214844 18.652344 2.796875 20.332031 C 4.066406 21.472656 5.582031 22.136719 7.285156 22.144531 C 7.527344 22.144531 7.527344 22.144531 7.769531 22.144531 C 7.941406 22.144531 8.117188 22.144531 8.292969 22.144531 C 8.476562 22.144531 8.664062 22.148438 8.847656 22.148438 C 9.351562 22.148438 9.851562 22.148438 10.355469 22.148438 C 10.667969 22.152344 10.984375 22.152344 11.296875 22.152344 C 12.28125 22.152344 13.265625 22.15625 14.25 22.15625 C 15.382812 22.15625 16.515625 22.15625 17.652344 22.160156 C 18.527344 22.164062 19.40625 22.164062 20.285156 22.164062 C 20.808594 22.164062 21.332031 22.164062 21.855469 22.167969 C 22.347656 22.171875 22.839844 22.171875 23.335938 22.167969 C 23.515625 22.167969 23.695312 22.171875 23.875 22.171875 C 26.03125 22.1875 27.851562 21.632812 29.433594 20.113281 C 30.910156 18.429688 31.183594 16.550781 31.175781 14.378906 C 31.175781 14.175781 31.175781 13.972656 31.175781 13.773438 C 31.175781 13.351562 31.175781 12.929688 31.175781 12.511719 C 31.171875 11.972656 31.171875 11.4375 31.175781 10.902344 C 31.175781 10.488281 31.175781 10.070312 31.175781 9.65625 C 31.175781 9.457031 31.175781 9.257812 31.175781 9.0625 C 31.183594 6.882812 30.722656 5.15625 29.183594 3.535156 C 27.902344 2.351562 26.316406 1.738281 24.574219 1.730469 C 24.335938 1.730469 24.335938 1.730469 24.09375 1.730469 C 23.917969 1.726562 23.746094 1.726562 23.570312 1.726562 C 23.386719 1.726562 23.203125 1.726562 23.015625 1.726562 C 22.410156 1.722656 21.808594 1.722656 21.203125 1.71875 C 20.992188 1.71875 20.785156 1.71875 20.574219 1.71875 C 19.59375 1.714844 18.609375 1.714844 17.628906 1.714844 C 16.5 1.710938 15.367188 1.710938 14.238281 1.703125 C 13.359375 1.699219 12.484375 1.699219 11.609375 1.699219 C 11.085938 1.699219 10.566406 1.695312 10.042969 1.691406 C 9.550781 1.691406 9.058594 1.6875 8.566406 1.691406 C 8.386719 1.691406 8.207031 1.691406 8.027344 1.6875 C 5.914062 1.667969 3.945312 2.273438 2.46875 3.851562 Z M 2.46875 3.851562 "/>
<path style=" stroke:none;fill-rule:nonzero;fill:rgb(1.176471%,0.392157%,0%);fill-opacity:1;" d="M 8.257812 0.839844 C 8.445312 0.839844 8.632812 0.839844 8.820312 0.839844 C 9.324219 0.835938 9.832031 0.835938 10.335938 0.835938 C 10.757812 0.835938 11.183594 0.835938 11.605469 0.835938 C 12.605469 0.835938 13.605469 0.835938 14.605469 0.835938 C 15.632812 0.835938 16.660156 0.835938 17.6875 0.832031 C 18.574219 0.828125 19.457031 0.828125 20.34375 0.828125 C 20.871094 0.828125 21.398438 0.828125 21.925781 0.828125 C 22.421875 0.824219 22.917969 0.828125 23.414062 0.828125 C 23.597656 0.828125 23.777344 0.828125 23.957031 0.828125 C 26.265625 0.8125 28.3125 1.351562 30 3 C 31.324219 4.511719 32.039062 6.101562 32.035156 8.109375 C 32.035156 8.230469 32.039062 8.347656 32.039062 8.472656 C 32.039062 8.863281 32.042969 9.257812 32.042969 9.648438 C 32.042969 9.925781 32.042969 10.199219 32.042969 10.472656 C 32.046875 11.050781 32.046875 11.625 32.046875 12.203125 C 32.046875 12.9375 32.050781 13.667969 32.054688 14.40625 C 32.058594 14.972656 32.058594 15.539062 32.058594 16.105469 C 32.058594 16.378906 32.058594 16.648438 32.0625 16.917969 C 32.078125 19.492188 31.675781 21.496094 29.839844 23.433594 C 29.199219 24.03125 28.488281 24.554688 27.625 24.75 C 27.660156 24.894531 27.660156 24.894531 27.691406 25.042969 C 27.792969 25.488281 27.890625 25.929688 27.992188 26.375 C 28.027344 26.527344 28.0625 26.679688 28.097656 26.835938 C 28.636719 29.234375 28.636719 29.234375 28.25 30.125 C 27.8125 30.675781 27.316406 31.050781 26.613281 31.167969 C 25.449219 31.242188 24.644531 30.441406 23.796875 29.734375 C 23.621094 29.589844 23.445312 29.445312 23.269531 29.300781 C 23.183594 29.226562 23.09375 29.15625 23.003906 29.082031 C 22.632812 28.777344 22.253906 28.484375 21.875 28.1875 C 21.128906 27.601562 20.390625 27.007812 19.65625 26.40625 C 19.574219 26.339844 19.496094 26.273438 19.414062 26.207031 C 19.34375 26.148438 19.269531 26.089844 19.199219 26.03125 C 18.410156 25.410156 17.429688 25.535156 16.464844 25.515625 C 16.222656 25.511719 15.988281 25.5 15.75 25.488281 C 14.351562 25.414062 13.351562 25.464844 12.257812 26.402344 C 12.03125 26.613281 11.808594 26.824219 11.589844 27.042969 C 11.25 27.371094 10.875 27.652344 10.5 27.9375 C 9.941406 28.371094 9.394531 28.8125 8.847656 29.261719 C 6.515625 31.175781 6.515625 31.175781 5.429688 31.160156 C 4.746094 31.082031 4.273438 30.792969 3.820312 30.28125 C 3.285156 29.171875 3.613281 28.105469 3.859375 26.960938 C 3.894531 26.789062 3.929688 26.617188 3.964844 26.441406 C 4.222656 25.210938 4.222656 25.210938 4.375 24.75 C 4.304688 24.738281 4.238281 24.722656 4.167969 24.710938 C 2.597656 24.246094 1.503906 22.871094 0.75 21.5 C 0.210938 20.359375 -0.0195312 19.433594 -0.0234375 18.183594 C -0.0234375 18.0625 -0.0234375 17.941406 -0.0234375 17.820312 C -0.0273438 17.425781 -0.0273438 17.03125 -0.0273438 16.636719 C -0.03125 16.5 -0.03125 16.367188 -0.03125 16.226562 C -0.0351562 15.507812 -0.0351562 14.792969 -0.0351562 14.078125 C -0.0390625 13.339844 -0.0429688 12.601562 -0.046875 11.867188 C -0.0507812 11.296875 -0.0507812 10.726562 -0.0507812 10.15625 C -0.0546875 9.886719 -0.0546875 9.613281 -0.0585938 9.34375 C -0.0742188 6.972656 0.21875 4.910156 1.894531 3.089844 C 3.800781 1.3125 5.722656 0.835938 8.257812 0.839844 Z M 2.46875 3.851562 C 2.085938 4.328125 1.789062 4.839844 1.5 5.375 C 1.429688 5.5 1.355469 5.628906 1.28125 5.757812 C 0.910156 6.632812 0.839844 7.515625 0.839844 8.457031 C 0.839844 8.570312 0.835938 8.6875 0.835938 8.804688 C 0.832031 9.179688 0.832031 9.554688 0.832031 9.933594 C 0.832031 10.195312 0.832031 10.460938 0.832031 10.722656 C 0.828125 11.277344 0.828125 11.828125 0.828125 12.378906 C 0.828125 13.082031 0.824219 13.785156 0.820312 14.492188 C 0.816406 15.035156 0.816406 15.582031 0.816406 16.125 C 0.816406 16.382812 0.816406 16.644531 0.816406 16.902344 C 0.800781 19.125 1.109375 20.957031 2.65625 22.667969 C 3.410156 23.382812 4.285156 23.875 5.25 24.25 C 5.132812 25.101562 4.992188 25.9375 4.804688 26.777344 C 4.367188 28.363281 4.367188 28.363281 4.734375 29.882812 C 5.050781 30.171875 5.171875 30.242188 5.601562 30.28125 C 6.066406 30.246094 6.234375 30.140625 6.601562 29.859375 C 6.722656 29.769531 6.839844 29.675781 6.960938 29.582031 C 7.636719 29.042969 8.300781 28.492188 8.964844 27.9375 C 9.496094 27.5 10.03125 27.066406 10.582031 26.652344 C 10.957031 26.367188 11.308594 26.074219 11.644531 25.738281 C 12.753906 24.667969 13.703125 24.40625 15.230469 24.40625 C 15.355469 24.410156 15.476562 24.414062 15.605469 24.414062 C 15.984375 24.421875 16.359375 24.410156 16.734375 24.398438 C 18.402344 24.382812 19.355469 24.769531 20.550781 25.933594 C 20.660156 26.042969 20.660156 26.042969 20.777344 26.15625 C 21.121094 26.492188 21.5 26.78125 21.882812 27.070312 C 22.4375 27.5 22.980469 27.9375 23.519531 28.378906 C 24.472656 29.160156 24.472656 29.160156 25.453125 29.914062 C 25.585938 30.015625 25.585938 30.015625 25.722656 30.117188 C 26.085938 30.292969 26.351562 30.289062 26.75 30.25 C 27.085938 30.023438 27.316406 29.863281 27.5 29.5 C 27.617188 28.4375 27.355469 27.414062 27.125 26.382812 C 27.054688 26.058594 26.984375 25.734375 26.914062 25.410156 C 26.867188 25.199219 26.867188 25.199219 26.820312 24.980469 C 26.75 24.625 26.75 24.625 26.75 24.25 C 26.863281 24.195312 26.980469 24.144531 27.097656 24.089844 C 28.996094 23.191406 30.09375 22.0625 30.882812 20.082031 C 31.042969 19.625 31.140625 19.226562 31.140625 18.742188 C 31.144531 18.644531 31.144531 18.542969 31.144531 18.441406 C 31.144531 18.332031 31.144531 18.222656 31.144531 18.113281 C 31.144531 18 31.148438 17.882812 31.148438 17.765625 C 31.148438 17.382812 31.148438 17.003906 31.152344 16.625 C 31.152344 16.359375 31.152344 16.09375 31.152344 15.828125 C 31.15625 15.273438 31.15625 14.71875 31.15625 14.160156 C 31.15625 13.449219 31.160156 12.742188 31.160156 12.03125 C 31.164062 11.484375 31.164062 10.9375 31.164062 10.386719 C 31.164062 10.125 31.167969 9.863281 31.167969 9.601562 C 31.183594 7.207031 30.902344 5.347656 29.183594 3.535156 C 27.902344 2.351562 26.316406 1.738281 24.574219 1.730469 C 24.335938 1.730469 24.335938 1.730469 24.09375 1.730469 C 23.917969 1.726562 23.746094 1.726562 23.570312 1.726562 C 23.386719 1.726562 23.203125 1.726562 23.015625 1.726562 C 22.410156 1.722656 21.808594 1.722656 21.203125 1.71875 C 20.992188 1.71875 20.785156 1.71875 20.574219 1.71875 C 19.59375 1.714844 18.609375 1.714844 17.628906 1.714844 C 16.5 1.710938 15.367188 1.710938 14.238281 1.703125 C 13.359375 1.699219 12.484375 1.699219 11.609375 1.699219 C 11.085938 1.699219 10.566406 1.695312 10.042969 1.691406 C 9.550781 1.691406 9.058594 1.6875 8.566406 1.691406 C 8.386719 1.691406 8.207031 1.691406 8.027344 1.6875 C 5.914062 1.667969 3.945312 2.273438 2.46875 3.851562 Z M 2.46875 3.851562 "/>
<path style=" stroke:none;fill-rule:nonzero;fill:rgb(3.529412%,2.745098%,0.784314%);fill-opacity:1;" d="M 23.589844 10.421875 C 24.117188 10.800781 24.460938 11.300781 24.75 11.875 C 24.859375 12.957031 24.789062 13.863281 24.125 14.75 C 23.347656 15.484375 22.597656 15.550781 21.566406 15.542969 C 20.789062 15.464844 20.367188 15.121094 19.835938 14.578125 C 19.3125 13.761719 19.117188 13.09375 19.25 12.125 C 19.519531 11.179688 20.226562 10.566406 21.046875 10.070312 C 21.988281 9.867188 22.742188 9.953125 23.589844 10.421875 Z M 23.589844 10.421875 "/>
<path style=" stroke:none;fill-rule:nonzero;fill:rgb(3.137255%,2.352941%,0.784314%);fill-opacity:1;" d="M 11.148438 10.257812 C 11.84375 10.640625 12.269531 11.113281 12.671875 11.789062 C 12.890625 12.730469 12.796875 13.492188 12.328125 14.339844 C 11.925781 14.902344 11.40625 15.28125 10.75 15.5 C 9.765625 15.601562 8.90625 15.632812 8.105469 14.992188 C 7.460938 14.3125 7.214844 13.609375 7.164062 12.679688 C 7.199219 11.867188 7.425781 11.328125 8 10.75 C 8.980469 9.984375 9.984375 9.722656 11.148438 10.257812 Z M 11.148438 10.257812 "/>
<path style=" stroke:none;fill-rule:nonzero;fill:rgb(3.137255%,2.352941%,1.176471%);fill-opacity:1;" d="M 17.390625 10.324219 C 17.964844 10.75 18.484375 11.328125 18.75 12 C 18.847656 12.8125 18.824219 13.667969 18.375 14.375 C 17.800781 15.003906 17.230469 15.441406 16.371094 15.546875 C 15.308594 15.566406 14.699219 15.425781 13.933594 14.691406 C 13.296875 13.992188 13.183594 13.257812 13.203125 12.34375 C 13.320312 11.496094 13.886719 10.910156 14.539062 10.398438 C 15.390625 9.796875 16.492188 9.816406 17.390625 10.324219 Z M 17.390625 10.324219 "/>
<path style=" stroke:none;fill-rule:nonzero;fill:rgb(87.450981%,89.411765%,80.784315%);fill-opacity:1;" d="M 10.773438 11.015625 C 11.257812 11.339844 11.609375 11.722656 11.875 12.25 C 11.945312 12.832031 11.933594 13.261719 11.664062 13.789062 C 11.160156 14.375 10.753906 14.707031 9.976562 14.796875 C 9.351562 14.734375 8.964844 14.539062 8.5 14.125 C 8.113281 13.640625 7.957031 13.171875 7.984375 12.554688 C 8.089844 11.9375 8.402344 11.523438 8.875 11.125 C 9.496094 10.753906 10.109375 10.78125 10.773438 11.015625 Z M 10.773438 11.015625 "/>
<path style=" stroke:none;fill-rule:nonzero;fill:rgb(87.450981%,89.803922%,80.784315%);fill-opacity:1;" d="M 22.625 10.875 C 23.039062 11.085938 23.039062 11.085938 23.375 11.375 C 23.472656 11.457031 23.570312 11.539062 23.671875 11.625 C 24 12.230469 23.960938 12.828125 23.875 13.5 C 23.609375 14.121094 23.238281 14.398438 22.636719 14.664062 C 22.230469 14.796875 21.921875 14.8125 21.5 14.75 C 20.839844 14.402344 20.363281 13.964844 20.125 13.25 C 20.070312 12.589844 20.089844 12.132812 20.460938 11.566406 C 21.03125 10.898438 21.773438 10.722656 22.625 10.875 Z M 22.625 10.875 "/>
<path style=" stroke:none;fill-rule:nonzero;fill:rgb(87.450981%,89.803922%,80.784315%);fill-opacity:1;" d="M 16.644531 10.960938 C 17.242188 11.226562 17.601562 11.511719 17.875 12.125 C 17.984375 12.824219 17.949219 13.46875 17.550781 14.066406 C 17.097656 14.542969 16.566406 14.722656 15.929688 14.8125 C 15.1875 14.703125 14.78125 14.449219 14.320312 13.859375 C 14.042969 13.300781 14.027344 12.734375 14.125 12.125 C 14.628906 11.078125 15.523438 10.597656 16.644531 10.960938 Z M 16.644531 10.960938 "/>
</g>
</svg>
