<?xml version="1.0" encoding="UTF-8"?>
<svg xmlns="http://www.w3.org/2000/svg" xmlns:xlink="http://www.w3.org/1999/xlink" width="32" height="32" viewBox="0 0 32 32" version="1.1">
<g id="surface1">
<path style=" stroke:none;fill-rule:nonzero;fill:rgb(89.411765%,89.803922%,91.764706%);fill-opacity:1;" d="M 2.757812 0.484375 C 2.875 0.484375 2.992188 0.480469 3.113281 0.480469 C 3.507812 0.480469 3.902344 0.480469 4.296875 0.480469 C 4.578125 0.480469 4.859375 0.480469 5.144531 0.476562 C 5.914062 0.476562 6.679688 0.476562 7.449219 0.476562 C 7.925781 0.476562 8.40625 0.472656 8.886719 0.472656 C 10.214844 0.472656 11.542969 0.472656 12.867188 0.46875 C 12.953125 0.46875 13.039062 0.46875 13.125 0.46875 C 13.210938 0.46875 13.296875 0.46875 13.386719 0.46875 C 13.558594 0.46875 13.730469 0.46875 13.902344 0.46875 C 13.988281 0.46875 14.074219 0.46875 14.160156 0.46875 C 15.546875 0.46875 16.9375 0.46875 18.324219 0.464844 C 19.75 0.460938 21.171875 0.460938 22.597656 0.460938 C 23.394531 0.460938 24.195312 0.457031 24.996094 0.457031 C 25.75 0.453125 26.5 0.453125 27.253906 0.453125 C 27.527344 0.453125 27.804688 0.453125 28.082031 0.453125 C 28.457031 0.453125 28.835938 0.453125 29.210938 0.453125 C 29.375 0.453125 29.375 0.453125 29.542969 0.453125 C 30.261719 0.457031 30.664062 0.589844 31.21875 1.0625 C 31.617188 1.542969 31.519531 2.167969 31.515625 2.757812 C 31.515625 2.875 31.519531 2.992188 31.519531 3.113281 C 31.519531 3.507812 31.519531 3.902344 31.519531 4.296875 C 31.519531 4.578125 31.519531 4.859375 31.523438 5.144531 C 31.523438 5.910156 31.523438 6.679688 31.523438 7.449219 C 31.523438 7.925781 31.527344 8.40625 31.527344 8.886719 C 31.527344 10.214844 31.53125 11.542969 31.53125 12.867188 C 31.53125 12.996094 31.53125 12.996094 31.53125 13.125 C 31.53125 13.210938 31.53125 13.296875 31.53125 13.386719 C 31.53125 13.558594 31.53125 13.730469 31.53125 13.902344 C 31.53125 14.03125 31.53125 14.03125 31.53125 14.160156 C 31.53125 15.546875 31.53125 16.9375 31.535156 18.324219 C 31.539062 19.75 31.539062 21.171875 31.539062 22.597656 C 31.542969 23.394531 31.542969 24.195312 31.542969 24.996094 C 31.546875 25.746094 31.546875 26.5 31.542969 27.253906 C 31.542969 27.527344 31.542969 27.804688 31.546875 28.082031 C 31.546875 28.457031 31.546875 28.832031 31.546875 29.210938 C 31.546875 29.375 31.546875 29.375 31.546875 29.542969 C 31.542969 30.261719 31.414062 30.664062 30.9375 31.21875 C 30.457031 31.617188 29.832031 31.519531 29.242188 31.515625 C 29.125 31.515625 29.007812 31.519531 28.886719 31.519531 C 28.492188 31.519531 28.097656 31.519531 27.703125 31.519531 C 27.421875 31.519531 27.136719 31.519531 26.855469 31.523438 C 26.089844 31.523438 25.320312 31.523438 24.550781 31.523438 C 24.074219 31.523438 23.59375 31.527344 23.113281 31.527344 C 21.785156 31.527344 20.457031 31.527344 19.132812 31.53125 C 19.046875 31.53125 18.960938 31.53125 18.875 31.53125 C 18.789062 31.53125 18.703125 31.53125 18.613281 31.53125 C 18.441406 31.53125 18.269531 31.53125 18.097656 31.53125 C 18.011719 31.53125 17.925781 31.53125 17.839844 31.53125 C 16.449219 31.53125 15.0625 31.53125 13.675781 31.535156 C 12.253906 31.539062 10.828125 31.539062 9.402344 31.539062 C 8.605469 31.539062 7.804688 31.542969 7.003906 31.542969 C 6.253906 31.546875 5.5 31.546875 4.746094 31.546875 C 4.472656 31.546875 4.195312 31.546875 3.917969 31.546875 C 3.542969 31.546875 3.167969 31.546875 2.789062 31.546875 C 2.679688 31.546875 2.570312 31.546875 2.457031 31.546875 C 1.738281 31.542969 1.335938 31.414062 0.78125 30.9375 C 0.382812 30.457031 0.480469 29.832031 0.480469 29.242188 C 0.480469 29.125 0.480469 29.007812 0.480469 28.886719 C 0.480469 28.492188 0.480469 28.097656 0.480469 27.703125 C 0.480469 27.421875 0.480469 27.140625 0.480469 26.855469 C 0.476562 26.089844 0.476562 25.320312 0.476562 24.550781 C 0.476562 24.074219 0.472656 23.59375 0.472656 23.113281 C 0.472656 21.785156 0.472656 20.457031 0.46875 19.132812 C 0.46875 19.046875 0.46875 18.960938 0.46875 18.875 C 0.46875 18.789062 0.46875 18.703125 0.46875 18.613281 C 0.46875 18.441406 0.46875 18.269531 0.46875 18.097656 C 0.46875 17.96875 0.46875 17.96875 0.46875 17.839844 C 0.46875 16.453125 0.46875 15.0625 0.464844 13.675781 C 0.460938 12.25 0.460938 10.828125 0.460938 9.402344 C 0.460938 8.605469 0.457031 7.804688 0.457031 7.003906 C 0.453125 6.253906 0.453125 5.5 0.453125 4.746094 C 0.453125 4.472656 0.453125 4.195312 0.453125 3.917969 C 0.453125 3.542969 0.453125 3.167969 0.453125 2.789062 C 0.453125 2.679688 0.453125 2.570312 0.449219 2.457031 C 0.457031 1.738281 0.589844 1.335938 1.0625 0.78125 C 1.542969 0.382812 2.167969 0.484375 2.757812 0.484375 Z M 2.757812 0.484375 "/>
<path style=" stroke:none;fill-rule:nonzero;fill:rgb(10.588235%,16.078432%,39.607844%);fill-opacity:1;" d="M 2.757812 0.484375 C 2.875 0.484375 2.992188 0.480469 3.113281 0.480469 C 3.507812 0.480469 3.902344 0.480469 4.296875 0.480469 C 4.578125 0.480469 4.859375 0.480469 5.144531 0.476562 C 5.914062 0.476562 6.679688 0.476562 7.449219 0.476562 C 7.925781 0.476562 8.40625 0.472656 8.886719 0.472656 C 10.214844 0.472656 11.542969 0.472656 12.867188 0.46875 C 12.953125 0.46875 13.039062 0.46875 13.125 0.46875 C 13.210938 0.46875 13.296875 0.46875 13.386719 0.46875 C 13.558594 0.46875 13.730469 0.46875 13.902344 0.46875 C 13.988281 0.46875 14.074219 0.46875 14.160156 0.46875 C 15.546875 0.46875 16.9375 0.46875 18.324219 0.464844 C 19.75 0.460938 21.171875 0.460938 22.597656 0.460938 C 23.394531 0.460938 24.195312 0.457031 24.996094 0.457031 C 25.75 0.453125 26.5 0.453125 27.253906 0.453125 C 27.527344 0.453125 27.804688 0.453125 28.082031 0.453125 C 28.457031 0.453125 28.835938 0.453125 29.210938 0.453125 C 29.375 0.453125 29.375 0.453125 29.542969 0.453125 C 30.261719 0.457031 30.664062 0.589844 31.21875 1.0625 C 31.984375 1.980469 31.5 4.144531 31.5 4.75 C 21.269531 4.75 11.039062 4.75 0.5 4.75 C 0.5 1.4375 0.5 1.4375 1.0625 0.78125 C 1.542969 0.382812 2.167969 0.484375 2.757812 0.484375 Z M 2.757812 0.484375 "/>
<path style=" stroke:none;fill-rule:nonzero;fill:rgb(66.666669%,68.627453%,73.725492%);fill-opacity:1;" d="M 6 7 C 6.25 6.996094 6.5 6.996094 6.75 7 C 6.988281 7.238281 6.890625 7.660156 6.890625 7.972656 C 6.890625 8.0625 6.890625 8.152344 6.890625 8.246094 C 6.894531 8.546875 6.894531 8.851562 6.894531 9.15625 C 6.894531 9.371094 6.894531 9.585938 6.894531 9.804688 C 6.894531 10.394531 6.894531 10.984375 6.894531 11.574219 C 6.894531 12.0625 6.894531 12.554688 6.898438 13.046875 C 6.898438 14.203125 6.898438 15.359375 6.898438 16.519531 C 6.898438 17.71875 6.898438 18.914062 6.902344 20.109375 C 6.902344 21.136719 6.902344 22.164062 6.902344 23.1875 C 6.902344 23.800781 6.902344 24.414062 6.90625 25.027344 C 6.90625 25.605469 6.90625 26.179688 6.90625 26.757812 C 6.90625 26.96875 6.90625 27.183594 6.90625 27.394531 C 6.90625 27.683594 6.90625 27.972656 6.90625 28.261719 C 6.90625 28.421875 6.90625 28.582031 6.90625 28.75 C 6.875 29.125 6.875 29.125 6.625 29.375 C 6.304688 29.34375 6.304688 29.34375 6 29.25 C 5.816406 28.882812 5.859375 28.554688 5.859375 28.144531 C 5.859375 28.058594 5.859375 27.96875 5.859375 27.875 C 5.859375 27.578125 5.859375 27.277344 5.859375 26.980469 C 5.859375 26.765625 5.859375 26.550781 5.859375 26.335938 C 5.859375 25.753906 5.859375 25.171875 5.859375 24.589844 C 5.859375 23.984375 5.859375 23.375 5.859375 22.765625 C 5.859375 21.746094 5.859375 20.722656 5.859375 19.703125 C 5.859375 18.519531 5.859375 17.335938 5.859375 16.15625 C 5.859375 15.140625 5.859375 14.128906 5.859375 13.113281 C 5.859375 12.507812 5.859375 11.902344 5.859375 11.296875 C 5.859375 10.726562 5.859375 10.15625 5.859375 9.585938 C 5.859375 9.378906 5.859375 9.167969 5.859375 8.957031 C 5.859375 8.671875 5.859375 8.390625 5.859375 8.105469 C 5.859375 7.945312 5.859375 7.785156 5.859375 7.621094 C 5.875 7.25 5.875 7.25 6 7 Z M 6 7 "/>
<path style=" stroke:none;fill-rule:nonzero;fill:rgb(5.882353%,9.411765%,30.19608%);fill-opacity:1;" d="M 12.640625 2.109375 C 12.777344 2.109375 12.917969 2.105469 13.058594 2.105469 C 13.214844 2.105469 13.367188 2.105469 13.523438 2.105469 C 13.765625 2.105469 13.765625 2.105469 14.011719 2.105469 C 14.453125 2.105469 14.894531 2.105469 15.335938 2.105469 C 15.703125 2.105469 16.070312 2.101562 16.441406 2.101562 C 17.308594 2.101562 18.175781 2.101562 19.042969 2.101562 C 19.941406 2.101562 20.839844 2.101562 21.734375 2.097656 C 22.503906 2.097656 23.273438 2.097656 24.042969 2.097656 C 24.503906 2.097656 24.960938 2.097656 25.421875 2.09375 C 25.933594 2.09375 26.445312 2.09375 26.957031 2.09375 C 27.113281 2.09375 27.265625 2.09375 27.421875 2.09375 C 27.632812 2.09375 27.632812 2.09375 27.84375 2.09375 C 27.964844 2.09375 28.085938 2.09375 28.210938 2.09375 C 28.5 2.125 28.5 2.125 28.75 2.375 C 28.78125 2.6875 28.78125 2.6875 28.75 3 C 28.425781 3.324219 28.300781 3.28125 27.851562 3.28125 C 27.714844 3.285156 27.574219 3.285156 27.433594 3.285156 C 27.28125 3.285156 27.132812 3.285156 26.976562 3.285156 C 26.816406 3.285156 26.65625 3.285156 26.492188 3.285156 C 26.054688 3.289062 25.617188 3.289062 25.179688 3.289062 C 24.816406 3.285156 24.449219 3.289062 24.085938 3.289062 C 23.226562 3.289062 22.367188 3.289062 21.507812 3.289062 C 20.617188 3.289062 19.730469 3.289062 18.839844 3.292969 C 18.078125 3.292969 17.316406 3.296875 16.554688 3.296875 C 16.101562 3.296875 15.644531 3.296875 15.191406 3.296875 C 14.683594 3.300781 14.175781 3.296875 13.667969 3.296875 C 13.515625 3.296875 13.363281 3.296875 13.207031 3.300781 C 13.070312 3.296875 12.933594 3.296875 12.789062 3.296875 C 12.667969 3.296875 12.550781 3.296875 12.425781 3.296875 C 12.125 3.25 12.125 3.25 11.894531 3.078125 C 11.75 2.875 11.75 2.875 11.78125 2.546875 C 11.945312 2.03125 12.125 2.109375 12.640625 2.109375 Z M 12.640625 2.109375 "/>
<path style=" stroke:none;fill-rule:nonzero;fill:rgb(89.803922%,77.64706%,18.431373%);fill-opacity:1;" d="M 19.03125 26.105469 C 19.125 26.105469 19.21875 26.105469 19.3125 26.105469 C 19.414062 26.105469 19.511719 26.105469 19.613281 26.105469 C 19.9375 26.105469 20.265625 26.105469 20.59375 26.105469 C 20.820312 26.105469 21.046875 26.101562 21.273438 26.101562 C 21.746094 26.101562 22.222656 26.101562 22.695312 26.101562 C 23.304688 26.101562 23.914062 26.101562 24.523438 26.097656 C 24.992188 26.097656 25.460938 26.097656 25.929688 26.097656 C 26.152344 26.097656 26.378906 26.09375 26.601562 26.09375 C 26.917969 26.09375 27.230469 26.09375 27.542969 26.09375 C 27.636719 26.09375 27.730469 26.09375 27.828125 26.09375 C 28.472656 26.097656 28.472656 26.097656 28.75 26.375 C 28.78125 26.6875 28.78125 26.6875 28.75 27 C 28.441406 27.308594 28.261719 27.28125 27.839844 27.285156 C 27.746094 27.285156 27.652344 27.285156 27.558594 27.285156 C 27.460938 27.285156 27.367188 27.285156 27.265625 27.285156 C 26.945312 27.289062 26.621094 27.289062 26.300781 27.289062 C 26.078125 27.289062 25.855469 27.289062 25.632812 27.289062 C 25.164062 27.289062 24.695312 27.289062 24.230469 27.289062 C 23.628906 27.289062 23.027344 27.289062 22.429688 27.292969 C 21.96875 27.296875 21.507812 27.296875 21.046875 27.296875 C 20.828125 27.296875 20.605469 27.296875 20.382812 27.296875 C 20.074219 27.300781 19.765625 27.296875 19.457031 27.296875 C 19.367188 27.296875 19.273438 27.296875 19.179688 27.300781 C 18.808594 27.296875 18.558594 27.289062 18.25 27.082031 C 18.125 26.875 18.125 26.875 18.15625 26.546875 C 18.320312 26.027344 18.515625 26.109375 19.03125 26.105469 Z M 19.03125 26.105469 "/>
<path style=" stroke:none;fill-rule:nonzero;fill:rgb(89.803922%,77.254903%,14.509805%);fill-opacity:1;" d="M 19.03125 17.605469 C 19.125 17.605469 19.21875 17.605469 19.3125 17.605469 C 19.414062 17.605469 19.511719 17.605469 19.613281 17.605469 C 19.9375 17.605469 20.265625 17.605469 20.59375 17.605469 C 20.820312 17.605469 21.046875 17.601562 21.273438 17.601562 C 21.746094 17.601562 22.222656 17.601562 22.695312 17.601562 C 23.304688 17.601562 23.914062 17.601562 24.523438 17.597656 C 24.992188 17.597656 25.460938 17.597656 25.929688 17.597656 C 26.152344 17.597656 26.378906 17.59375 26.601562 17.59375 C 26.917969 17.59375 27.230469 17.59375 27.542969 17.59375 C 27.636719 17.59375 27.730469 17.59375 27.828125 17.59375 C 28.472656 17.597656 28.472656 17.597656 28.75 17.875 C 28.773438 18.195312 28.773438 18.195312 28.75 18.5 C 28.53125 18.714844 28.25 18.640625 27.960938 18.644531 C 27.867188 18.644531 27.773438 18.644531 27.675781 18.644531 C 27.523438 18.644531 27.523438 18.644531 27.371094 18.644531 C 27.042969 18.644531 26.710938 18.644531 26.378906 18.644531 C 26.148438 18.648438 25.921875 18.648438 25.691406 18.648438 C 25.210938 18.648438 24.730469 18.648438 24.25 18.648438 C 23.632812 18.648438 23.015625 18.652344 22.398438 18.652344 C 21.925781 18.652344 21.453125 18.652344 20.980469 18.652344 C 20.75 18.652344 20.523438 18.652344 20.296875 18.65625 C 19.976562 18.65625 19.660156 18.65625 19.34375 18.65625 C 19.199219 18.65625 19.199219 18.65625 19.054688 18.65625 C 18.402344 18.652344 18.402344 18.652344 18.125 18.375 C 18.210938 17.652344 18.316406 17.613281 19.03125 17.605469 Z M 19.03125 17.605469 "/>
<path style=" stroke:none;fill-rule:nonzero;fill:rgb(89.803922%,77.254903%,14.509805%);fill-opacity:1;" d="M 19.039062 9.109375 C 19.183594 9.109375 19.183594 9.109375 19.328125 9.109375 C 19.429688 9.109375 19.527344 9.109375 19.632812 9.109375 C 19.960938 9.109375 20.292969 9.109375 20.625 9.109375 C 20.855469 9.109375 21.082031 9.109375 21.3125 9.109375 C 21.792969 9.109375 22.277344 9.109375 22.757812 9.109375 C 23.375 9.109375 23.992188 9.109375 24.613281 9.109375 C 25.085938 9.109375 25.558594 9.109375 26.035156 9.109375 C 26.261719 9.109375 26.488281 9.109375 26.71875 9.109375 C 27.035156 9.109375 27.351562 9.109375 27.671875 9.109375 C 27.765625 9.109375 27.863281 9.109375 27.960938 9.109375 C 28.609375 9.109375 28.609375 9.109375 28.75 9.25 C 28.773438 9.554688 28.773438 9.554688 28.75 9.875 C 28.4375 10.1875 28.253906 10.15625 27.828125 10.160156 C 27.691406 10.15625 27.691406 10.15625 27.546875 10.15625 C 27.445312 10.15625 27.351562 10.15625 27.25 10.15625 C 26.921875 10.160156 26.597656 10.160156 26.269531 10.15625 C 26.042969 10.15625 25.816406 10.15625 25.589844 10.160156 C 25.117188 10.160156 24.644531 10.160156 24.167969 10.15625 C 23.5625 10.15625 22.953125 10.15625 22.34375 10.15625 C 21.875 10.160156 21.410156 10.160156 20.941406 10.15625 C 20.71875 10.15625 20.492188 10.15625 20.269531 10.160156 C 19.957031 10.160156 19.640625 10.160156 19.328125 10.15625 C 19.234375 10.15625 19.140625 10.15625 19.046875 10.160156 C 18.402344 10.152344 18.402344 10.152344 18.125 9.875 C 18.214844 9.148438 18.320312 9.109375 19.039062 9.109375 Z M 19.039062 9.109375 "/>
<path style=" stroke:none;fill-rule:nonzero;fill:rgb(89.803922%,77.64706%,18.431373%);fill-opacity:1;" d="M 22.28125 28.21875 C 22.417969 28.214844 22.554688 28.214844 22.695312 28.214844 C 22.917969 28.214844 22.917969 28.214844 23.144531 28.214844 C 23.296875 28.214844 23.449219 28.214844 23.605469 28.214844 C 23.925781 28.214844 24.246094 28.214844 24.566406 28.21875 C 25.058594 28.21875 25.554688 28.21875 26.046875 28.214844 C 26.359375 28.214844 26.667969 28.214844 26.980469 28.214844 C 27.128906 28.214844 27.277344 28.214844 27.429688 28.214844 C 27.636719 28.214844 27.636719 28.214844 27.84375 28.21875 C 28.027344 28.21875 28.027344 28.21875 28.210938 28.21875 C 28.5 28.25 28.5 28.25 28.75 28.5 C 28.78125 28.8125 28.78125 28.8125 28.75 29.125 C 28.425781 29.449219 28.296875 29.40625 27.84375 29.40625 C 27.640625 29.410156 27.640625 29.410156 27.429688 29.410156 C 27.28125 29.410156 27.132812 29.410156 26.980469 29.40625 C 26.828125 29.410156 26.675781 29.410156 26.519531 29.410156 C 26.199219 29.410156 25.878906 29.410156 25.558594 29.40625 C 25.0625 29.40625 24.570312 29.40625 24.078125 29.410156 C 23.765625 29.410156 23.457031 29.410156 23.144531 29.40625 C 22.921875 29.410156 22.921875 29.410156 22.695312 29.410156 C 22.558594 29.410156 22.421875 29.40625 22.28125 29.40625 C 22.160156 29.40625 22.039062 29.40625 21.914062 29.40625 C 21.625 29.375 21.625 29.375 21.375 29.125 C 21.34375 28.8125 21.34375 28.8125 21.375 28.5 C 21.699219 28.175781 21.828125 28.21875 22.28125 28.21875 Z M 22.28125 28.21875 "/>
<path style=" stroke:none;fill-rule:nonzero;fill:rgb(89.803922%,77.254903%,14.509805%);fill-opacity:1;" d="M 22.28125 19.71875 C 22.417969 19.714844 22.554688 19.714844 22.695312 19.714844 C 22.917969 19.714844 22.917969 19.714844 23.144531 19.714844 C 23.296875 19.714844 23.449219 19.714844 23.605469 19.714844 C 23.925781 19.714844 24.246094 19.714844 24.566406 19.71875 C 25.058594 19.71875 25.554688 19.71875 26.046875 19.714844 C 26.359375 19.714844 26.667969 19.714844 26.980469 19.714844 C 27.128906 19.714844 27.277344 19.714844 27.429688 19.714844 C 27.636719 19.714844 27.636719 19.714844 27.84375 19.71875 C 28.027344 19.71875 28.027344 19.71875 28.210938 19.71875 C 28.5 19.75 28.5 19.75 28.75 20 C 28.773438 20.320312 28.773438 20.320312 28.75 20.625 C 28.535156 20.839844 28.25 20.765625 27.960938 20.765625 C 27.816406 20.765625 27.675781 20.765625 27.527344 20.769531 C 27.371094 20.769531 27.21875 20.765625 27.058594 20.765625 C 26.902344 20.765625 26.742188 20.765625 26.582031 20.765625 C 26.246094 20.769531 25.914062 20.765625 25.578125 20.765625 C 25.148438 20.765625 24.71875 20.765625 24.289062 20.765625 C 23.882812 20.769531 23.472656 20.765625 23.066406 20.765625 C 22.910156 20.765625 22.757812 20.769531 22.597656 20.769531 C 22.457031 20.765625 22.3125 20.765625 22.167969 20.765625 C 22.039062 20.765625 21.914062 20.765625 21.785156 20.765625 C 21.5 20.75 21.5 20.75 21.375 20.625 C 21.351562 20.320312 21.351562 20.320312 21.375 20 C 21.699219 19.675781 21.828125 19.71875 22.28125 19.71875 Z M 22.28125 19.71875 "/>
<path style=" stroke:none;fill-rule:nonzero;fill:rgb(89.803922%,77.254903%,14.509805%);fill-opacity:1;" d="M 22.167969 11.234375 C 22.308594 11.234375 22.453125 11.234375 22.597656 11.234375 C 22.753906 11.234375 22.90625 11.234375 23.066406 11.234375 C 23.222656 11.234375 23.382812 11.234375 23.542969 11.234375 C 23.878906 11.234375 24.210938 11.234375 24.546875 11.234375 C 24.976562 11.234375 25.40625 11.234375 25.832031 11.234375 C 26.242188 11.234375 26.648438 11.234375 27.058594 11.234375 C 27.214844 11.234375 27.367188 11.234375 27.527344 11.234375 C 27.671875 11.234375 27.8125 11.234375 27.957031 11.234375 C 28.085938 11.234375 28.210938 11.234375 28.339844 11.234375 C 28.625 11.25 28.625 11.25 28.75 11.375 C 28.773438 11.679688 28.773438 11.679688 28.75 12 C 28.425781 12.324219 28.296875 12.28125 27.84375 12.28125 C 27.640625 12.285156 27.640625 12.285156 27.429688 12.285156 C 27.28125 12.285156 27.132812 12.285156 26.980469 12.285156 C 26.828125 12.285156 26.675781 12.285156 26.519531 12.285156 C 26.199219 12.285156 25.878906 12.285156 25.558594 12.28125 C 25.066406 12.28125 24.570312 12.28125 24.078125 12.285156 C 23.765625 12.285156 23.457031 12.285156 23.144531 12.285156 C 22.921875 12.285156 22.921875 12.285156 22.695312 12.285156 C 22.558594 12.285156 22.421875 12.28125 22.28125 12.28125 C 22.160156 12.28125 22.039062 12.28125 21.914062 12.28125 C 21.625 12.25 21.625 12.25 21.375 12 C 21.351562 11.679688 21.351562 11.679688 21.375 11.375 C 21.589844 11.160156 21.875 11.234375 22.167969 11.234375 Z M 22.167969 11.234375 "/>
<path style=" stroke:none;fill-rule:nonzero;fill:rgb(89.803922%,77.64706%,18.431373%);fill-opacity:1;" d="M 20.679688 6.839844 C 20.84375 6.839844 20.84375 6.839844 21.015625 6.835938 C 21.136719 6.835938 21.253906 6.835938 21.378906 6.835938 C 21.5 6.835938 21.625 6.835938 21.753906 6.835938 C 22.015625 6.835938 22.277344 6.835938 22.535156 6.835938 C 22.933594 6.835938 23.335938 6.832031 23.734375 6.828125 C 23.988281 6.828125 24.242188 6.828125 24.496094 6.828125 C 24.617188 6.828125 24.734375 6.828125 24.859375 6.824219 C 24.96875 6.828125 25.082031 6.828125 25.195312 6.828125 C 25.296875 6.828125 25.394531 6.828125 25.496094 6.828125 C 25.816406 6.886719 25.933594 6.988281 26.125 7.25 C 26.074219 7.804688 26.074219 7.804688 25.875 8 C 25.691406 8.011719 25.507812 8.015625 25.324219 8.019531 C 25.152344 8.019531 25.152344 8.019531 24.972656 8.019531 C 24.84375 8.019531 24.71875 8.019531 24.585938 8.019531 C 24.457031 8.023438 24.328125 8.023438 24.191406 8.023438 C 23.917969 8.023438 23.644531 8.023438 23.371094 8.023438 C 22.949219 8.023438 22.527344 8.027344 22.105469 8.027344 C 21.839844 8.027344 21.570312 8.027344 21.304688 8.03125 C 21.179688 8.03125 21.050781 8.03125 20.921875 8.03125 C 20.804688 8.03125 20.6875 8.03125 20.566406 8.03125 C 20.460938 8.03125 20.359375 8.03125 20.25 8.03125 C 20 8 20 8 19.75 7.75 C 19.710938 7.4375 19.710938 7.4375 19.75 7.125 C 20.140625 6.863281 20.234375 6.84375 20.679688 6.839844 Z M 20.679688 6.839844 "/>
<path style=" stroke:none;fill-rule:nonzero;fill:rgb(89.803922%,77.64706%,18.431373%);fill-opacity:1;" d="M 20.550781 23.980469 C 20.722656 23.980469 20.722656 23.980469 20.902344 23.980469 C 21.03125 23.980469 21.15625 23.980469 21.289062 23.980469 C 21.417969 23.976562 21.546875 23.976562 21.679688 23.976562 C 21.957031 23.976562 22.230469 23.976562 22.503906 23.976562 C 22.925781 23.976562 23.347656 23.972656 23.769531 23.972656 C 24.035156 23.972656 24.304688 23.972656 24.570312 23.96875 C 24.695312 23.96875 24.824219 23.96875 24.953125 23.96875 C 25.070312 23.96875 25.1875 23.96875 25.308594 23.96875 C 25.414062 23.96875 25.515625 23.96875 25.625 23.96875 C 25.875 24 25.875 24 26.125 24.25 C 26.09375 24.632812 26.09375 24.632812 26 25 C 25.710938 25.144531 25.535156 25.140625 25.210938 25.144531 C 25.097656 25.148438 24.988281 25.148438 24.875 25.148438 C 24.691406 25.148438 24.691406 25.148438 24.507812 25.152344 C 24.324219 25.152344 24.324219 25.152344 24.132812 25.152344 C 23.871094 25.15625 23.609375 25.15625 23.347656 25.15625 C 22.945312 25.15625 22.546875 25.160156 22.144531 25.164062 C 21.890625 25.164062 21.636719 25.164062 21.382812 25.164062 C 21.203125 25.167969 21.203125 25.167969 21.019531 25.171875 C 20.90625 25.171875 20.792969 25.167969 20.679688 25.167969 C 20.53125 25.171875 20.53125 25.171875 20.382812 25.171875 C 20.058594 25.113281 19.941406 25.011719 19.75 24.75 C 19.8125 24.085938 19.90625 23.984375 20.550781 23.980469 Z M 20.550781 23.980469 "/>
<path style=" stroke:none;fill-rule:nonzero;fill:rgb(92.54902%,34.117648%,38.431373%);fill-opacity:1;" d="M 8.800781 23.980469 C 8.972656 23.980469 8.972656 23.980469 9.152344 23.980469 C 9.28125 23.980469 9.40625 23.980469 9.539062 23.980469 C 9.667969 23.976562 9.796875 23.976562 9.929688 23.976562 C 10.207031 23.976562 10.480469 23.976562 10.753906 23.976562 C 11.175781 23.976562 11.597656 23.972656 12.019531 23.972656 C 12.285156 23.972656 12.554688 23.972656 12.820312 23.96875 C 12.945312 23.96875 13.074219 23.96875 13.203125 23.96875 C 13.320312 23.96875 13.4375 23.96875 13.558594 23.96875 C 13.664062 23.96875 13.765625 23.96875 13.875 23.96875 C 14.125 24 14.125 24 14.375 24.25 C 14.414062 24.5625 14.414062 24.5625 14.375 24.875 C 13.984375 25.136719 13.890625 25.15625 13.445312 25.160156 C 13.28125 25.160156 13.28125 25.160156 13.109375 25.164062 C 12.988281 25.164062 12.871094 25.164062 12.746094 25.164062 C 12.625 25.164062 12.5 25.164062 12.371094 25.164062 C 12.109375 25.164062 11.847656 25.164062 11.589844 25.164062 C 11.191406 25.164062 10.789062 25.167969 10.390625 25.171875 C 10.136719 25.171875 9.882812 25.171875 9.628906 25.171875 C 9.449219 25.171875 9.449219 25.171875 9.265625 25.175781 C 9.15625 25.171875 9.042969 25.171875 8.929688 25.171875 C 8.78125 25.171875 8.78125 25.171875 8.628906 25.171875 C 8.308594 25.113281 8.191406 25.011719 8 24.75 C 8.0625 24.085938 8.15625 23.984375 8.800781 23.980469 Z M 8.800781 23.980469 "/>
<path style=" stroke:none;fill-rule:nonzero;fill:rgb(92.54902%,34.117648%,38.431373%);fill-opacity:1;" d="M 8.914062 6.84375 C 9.023438 6.839844 9.136719 6.839844 9.25 6.839844 C 9.433594 6.839844 9.433594 6.839844 9.617188 6.839844 C 9.800781 6.839844 9.800781 6.839844 9.992188 6.839844 C 10.253906 6.839844 10.515625 6.839844 10.777344 6.84375 C 11.175781 6.84375 11.578125 6.84375 11.980469 6.839844 C 12.234375 6.839844 12.488281 6.839844 12.742188 6.839844 C 12.921875 6.839844 12.921875 6.839844 13.105469 6.839844 C 13.21875 6.839844 13.328125 6.839844 13.445312 6.84375 C 13.542969 6.84375 13.640625 6.84375 13.742188 6.84375 C 14 6.875 14 6.875 14.375 7.125 C 14.414062 7.4375 14.414062 7.4375 14.375 7.75 C 14.066406 8.058594 13.984375 8.03125 13.5625 8.03125 C 13.445312 8.03125 13.328125 8.035156 13.207031 8.035156 C 13.082031 8.035156 12.953125 8.035156 12.824219 8.03125 C 12.695312 8.035156 12.566406 8.035156 12.433594 8.035156 C 12.15625 8.035156 11.882812 8.035156 11.609375 8.03125 C 11.1875 8.03125 10.769531 8.03125 10.347656 8.035156 C 10.082031 8.035156 9.816406 8.035156 9.550781 8.03125 C 9.359375 8.035156 9.359375 8.035156 9.167969 8.035156 C 9.050781 8.035156 8.933594 8.03125 8.8125 8.03125 C 8.660156 8.03125 8.660156 8.03125 8.5 8.03125 C 8.25 8 8.25 8 8 7.75 C 8.066406 7.085938 8.242188 6.84375 8.914062 6.84375 Z M 8.914062 6.84375 "/>
<path style=" stroke:none;fill-rule:nonzero;fill:rgb(89.803922%,77.254903%,14.509805%);fill-opacity:1;" d="M 20.550781 15.480469 C 20.722656 15.480469 20.722656 15.480469 20.902344 15.480469 C 21.03125 15.480469 21.15625 15.480469 21.289062 15.480469 C 21.417969 15.476562 21.546875 15.476562 21.679688 15.476562 C 21.957031 15.476562 22.230469 15.476562 22.503906 15.476562 C 22.925781 15.476562 23.347656 15.472656 23.769531 15.472656 C 24.035156 15.472656 24.304688 15.472656 24.570312 15.46875 C 24.695312 15.46875 24.824219 15.46875 24.953125 15.46875 C 25.070312 15.46875 25.1875 15.46875 25.308594 15.46875 C 25.414062 15.46875 25.515625 15.46875 25.625 15.46875 C 25.875 15.5 25.875 15.5 26.125 15.75 C 26.054688 16.320312 26.054688 16.320312 25.875 16.5 C 25.691406 16.511719 25.507812 16.515625 25.324219 16.519531 C 25.152344 16.519531 25.152344 16.519531 24.972656 16.519531 C 24.84375 16.519531 24.71875 16.519531 24.585938 16.519531 C 24.457031 16.523438 24.328125 16.523438 24.191406 16.523438 C 23.917969 16.523438 23.644531 16.523438 23.371094 16.523438 C 22.945312 16.523438 22.527344 16.527344 22.105469 16.527344 C 21.839844 16.527344 21.570312 16.527344 21.304688 16.53125 C 21.179688 16.53125 21.050781 16.53125 20.921875 16.53125 C 20.804688 16.53125 20.6875 16.53125 20.566406 16.53125 C 20.460938 16.53125 20.359375 16.53125 20.253906 16.53125 C 20 16.5 20 16.5 19.75 16.25 C 19.832031 15.589844 19.898438 15.484375 20.550781 15.480469 Z M 20.550781 15.480469 "/>
<path style=" stroke:none;fill-rule:nonzero;fill:rgb(92.54902%,30.980393%,35.686275%);fill-opacity:1;" d="M 8.800781 15.480469 C 8.972656 15.480469 8.972656 15.480469 9.152344 15.480469 C 9.28125 15.480469 9.40625 15.480469 9.539062 15.480469 C 9.667969 15.476562 9.796875 15.476562 9.929688 15.476562 C 10.207031 15.476562 10.480469 15.476562 10.753906 15.476562 C 11.175781 15.476562 11.597656 15.472656 12.019531 15.472656 C 12.285156 15.472656 12.554688 15.472656 12.820312 15.46875 C 12.945312 15.46875 13.074219 15.46875 13.203125 15.46875 C 13.320312 15.46875 13.4375 15.46875 13.558594 15.46875 C 13.664062 15.46875 13.765625 15.46875 13.875 15.46875 C 14.125 15.5 14.125 15.5 14.375 15.75 C 14.304688 16.320312 14.304688 16.320312 14.125 16.5 C 13.941406 16.511719 13.757812 16.515625 13.574219 16.519531 C 13.402344 16.519531 13.402344 16.519531 13.222656 16.519531 C 13.09375 16.519531 12.96875 16.519531 12.835938 16.519531 C 12.707031 16.523438 12.578125 16.523438 12.441406 16.523438 C 12.167969 16.523438 11.894531 16.523438 11.621094 16.523438 C 11.195312 16.523438 10.777344 16.527344 10.355469 16.527344 C 10.089844 16.527344 9.820312 16.527344 9.554688 16.53125 C 9.429688 16.53125 9.300781 16.53125 9.171875 16.53125 C 9.054688 16.53125 8.9375 16.53125 8.816406 16.53125 C 8.710938 16.53125 8.609375 16.53125 8.503906 16.53125 C 8.25 16.5 8.25 16.5 8 16.25 C 8.082031 15.589844 8.148438 15.484375 8.800781 15.480469 Z M 8.800781 15.480469 "/>
<path style=" stroke:none;fill-rule:nonzero;fill:rgb(92.54902%,34.117648%,38.82353%);fill-opacity:1;" d="M 10.542969 28.214844 C 10.636719 28.214844 10.726562 28.214844 10.820312 28.214844 C 10.914062 28.214844 11.007812 28.214844 11.105469 28.214844 C 11.300781 28.214844 11.5 28.214844 11.695312 28.21875 C 12 28.21875 12.300781 28.21875 12.605469 28.214844 C 12.796875 28.214844 12.988281 28.214844 13.179688 28.214844 C 13.269531 28.214844 13.359375 28.214844 13.453125 28.214844 C 14.097656 28.222656 14.097656 28.222656 14.375 28.5 C 14.40625 28.8125 14.40625 28.8125 14.375 29.125 C 14.0625 29.4375 13.878906 29.40625 13.453125 29.410156 C 13.363281 29.410156 13.273438 29.410156 13.179688 29.40625 C 13.039062 29.410156 13.039062 29.410156 12.894531 29.410156 C 12.699219 29.410156 12.5 29.410156 12.304688 29.40625 C 12 29.40625 11.699219 29.40625 11.394531 29.410156 C 11.203125 29.410156 11.011719 29.410156 10.820312 29.40625 C 10.730469 29.410156 10.636719 29.410156 10.542969 29.410156 C 9.902344 29.402344 9.902344 29.402344 9.625 29.125 C 9.59375 28.8125 9.59375 28.8125 9.625 28.5 C 9.9375 28.1875 10.121094 28.21875 10.542969 28.214844 Z M 10.542969 28.214844 "/>
<path style=" stroke:none;fill-rule:nonzero;fill:rgb(23.921569%,80.392158%,57.647061%);fill-opacity:1;" d="M 16.417969 28.214844 C 16.511719 28.214844 16.601562 28.214844 16.695312 28.214844 C 16.789062 28.214844 16.882812 28.214844 16.980469 28.214844 C 17.175781 28.214844 17.375 28.214844 17.570312 28.21875 C 17.875 28.21875 18.175781 28.21875 18.480469 28.214844 C 18.671875 28.214844 18.863281 28.214844 19.054688 28.214844 C 19.144531 28.214844 19.234375 28.214844 19.328125 28.214844 C 19.972656 28.222656 19.972656 28.222656 20.25 28.5 C 20.289062 28.8125 20.289062 28.8125 20.25 29.125 C 19.796875 29.425781 19.46875 29.410156 18.945312 29.40625 C 18.808594 29.410156 18.808594 29.410156 18.671875 29.410156 C 18.480469 29.410156 18.289062 29.410156 18.097656 29.40625 C 17.804688 29.40625 17.511719 29.40625 17.21875 29.410156 C 17.035156 29.410156 16.847656 29.410156 16.664062 29.40625 C 16.53125 29.410156 16.53125 29.410156 16.398438 29.410156 C 15.777344 29.402344 15.777344 29.402344 15.5 29.125 C 15.46875 28.8125 15.46875 28.8125 15.5 28.5 C 15.8125 28.1875 15.996094 28.21875 16.417969 28.214844 Z M 16.417969 28.214844 "/>
<path style=" stroke:none;fill-rule:nonzero;fill:rgb(92.54902%,31.37255%,36.078432%);fill-opacity:1;" d="M 10.175781 11.234375 C 10.367188 11.234375 10.558594 11.238281 10.746094 11.238281 C 10.847656 11.238281 10.945312 11.238281 11.046875 11.238281 C 11.367188 11.238281 11.6875 11.242188 12.007812 11.242188 C 12.222656 11.242188 12.441406 11.242188 12.65625 11.242188 C 13.1875 11.246094 13.71875 11.246094 14.25 11.25 C 14.328125 11.609375 14.328125 11.609375 14.375 12 C 14.0625 12.3125 13.878906 12.28125 13.453125 12.285156 C 13.363281 12.285156 13.273438 12.285156 13.179688 12.285156 C 13.039062 12.285156 13.039062 12.285156 12.898438 12.285156 C 12.699219 12.285156 12.5 12.285156 12.304688 12.28125 C 12 12.28125 11.699219 12.28125 11.394531 12.285156 C 11.203125 12.285156 11.011719 12.285156 10.820312 12.285156 C 10.730469 12.285156 10.636719 12.285156 10.542969 12.285156 C 9.902344 12.277344 9.902344 12.277344 9.625 12 C 9.601562 11.679688 9.601562 11.679688 9.625 11.375 C 9.75 11.25 9.75 11.25 10.175781 11.234375 Z M 10.175781 11.234375 "/>
<path style=" stroke:none;fill-rule:nonzero;fill:rgb(20.392157%,80.000001%,55.686277%);fill-opacity:1;" d="M 16.417969 19.714844 C 16.511719 19.714844 16.601562 19.714844 16.695312 19.714844 C 16.789062 19.714844 16.882812 19.714844 16.980469 19.714844 C 17.175781 19.714844 17.375 19.714844 17.570312 19.71875 C 17.875 19.71875 18.175781 19.71875 18.480469 19.714844 C 18.671875 19.714844 18.863281 19.714844 19.054688 19.714844 C 19.144531 19.714844 19.234375 19.714844 19.328125 19.714844 C 19.972656 19.722656 19.972656 19.722656 20.25 20 C 20.179688 20.570312 20.179688 20.570312 20 20.75 C 19.675781 20.761719 19.355469 20.769531 19.035156 20.765625 C 18.890625 20.765625 18.890625 20.765625 18.742188 20.765625 C 18.539062 20.765625 18.332031 20.765625 18.128906 20.765625 C 17.8125 20.765625 17.5 20.765625 17.183594 20.765625 C 16.984375 20.765625 16.789062 20.765625 16.589844 20.765625 C 16.496094 20.765625 16.402344 20.765625 16.300781 20.769531 C 15.640625 20.765625 15.640625 20.765625 15.5 20.625 C 15.476562 20.320312 15.476562 20.320312 15.5 20 C 15.8125 19.6875 15.996094 19.71875 16.417969 19.714844 Z M 16.417969 19.714844 "/>
<path style=" stroke:none;fill-rule:nonzero;fill:rgb(20.392157%,80.000001%,55.686277%);fill-opacity:1;" d="M 16.585938 11.230469 C 16.683594 11.230469 16.777344 11.226562 16.878906 11.226562 C 17.082031 11.226562 17.285156 11.226562 17.492188 11.226562 C 17.804688 11.226562 18.117188 11.222656 18.429688 11.222656 C 18.625 11.222656 18.824219 11.222656 19.023438 11.222656 C 19.117188 11.21875 19.210938 11.21875 19.308594 11.21875 C 19.972656 11.222656 19.972656 11.222656 20.25 11.5 C 20.179688 12.070312 20.179688 12.070312 20 12.25 C 19.6875 12.265625 19.378906 12.269531 19.066406 12.273438 C 18.925781 12.273438 18.925781 12.273438 18.78125 12.273438 C 18.585938 12.273438 18.386719 12.273438 18.1875 12.273438 C 17.882812 12.273438 17.582031 12.273438 17.277344 12.277344 C 17.085938 12.277344 16.890625 12.277344 16.699219 12.277344 C 16.5625 12.28125 16.5625 12.28125 16.421875 12.28125 C 15.777344 12.277344 15.777344 12.277344 15.5 12 C 15.476562 11.679688 15.476562 11.679688 15.5 11.375 C 15.75 11.125 16.246094 11.230469 16.585938 11.230469 Z M 16.585938 11.230469 "/>
<path style=" stroke:none;fill-rule:nonzero;fill:rgb(92.54902%,30.980393%,35.686275%);fill-opacity:1;" d="M 10.542969 19.714844 C 10.636719 19.714844 10.726562 19.714844 10.820312 19.714844 C 10.914062 19.714844 11.007812 19.714844 11.105469 19.714844 C 11.300781 19.714844 11.5 19.714844 11.695312 19.71875 C 12 19.71875 12.300781 19.71875 12.605469 19.714844 C 12.796875 19.714844 12.988281 19.714844 13.179688 19.714844 C 13.269531 19.714844 13.359375 19.714844 13.453125 19.714844 C 14.097656 19.722656 14.097656 19.722656 14.375 20 C 14.304688 20.570312 14.304688 20.570312 14.125 20.75 C 13.800781 20.761719 13.480469 20.765625 13.15625 20.761719 C 13.058594 20.761719 12.960938 20.761719 12.863281 20.761719 C 12.550781 20.761719 12.238281 20.757812 11.929688 20.757812 C 11.71875 20.757812 11.511719 20.757812 11.296875 20.757812 C 10.78125 20.753906 10.265625 20.753906 9.75 20.75 C 9.671875 20.390625 9.671875 20.390625 9.625 20 C 9.9375 19.6875 10.121094 19.71875 10.542969 19.714844 Z M 10.542969 19.714844 "/>
<path style=" stroke:none;fill-rule:nonzero;fill:rgb(92.54902%,34.117648%,38.82353%);fill-opacity:1;" d="M 10.464844 26.09375 C 10.582031 26.09375 10.699219 26.089844 10.816406 26.089844 C 10.941406 26.09375 11.0625 26.09375 11.1875 26.09375 C 11.308594 26.09375 11.429688 26.09375 11.558594 26.089844 C 11.671875 26.089844 11.789062 26.09375 11.910156 26.09375 C 12.015625 26.09375 12.125 26.09375 12.234375 26.09375 C 12.5 26.125 12.5 26.125 12.75 26.375 C 12.78125 26.6875 12.78125 26.6875 12.75 27 C 12.445312 27.304688 12.359375 27.28125 11.941406 27.28125 C 11.832031 27.28125 11.722656 27.285156 11.605469 27.285156 C 11.492188 27.28125 11.378906 27.28125 11.257812 27.28125 C 11.140625 27.28125 11.027344 27.28125 10.910156 27.285156 C 10.796875 27.285156 10.6875 27.28125 10.574219 27.28125 C 10.472656 27.28125 10.371094 27.28125 10.269531 27.28125 C 10 27.25 10 27.25 9.625 27 C 9.585938 26.6875 9.585938 26.6875 9.625 26.375 C 9.9375 26.0625 10.035156 26.09375 10.464844 26.09375 Z M 10.464844 26.09375 "/>
<path style=" stroke:none;fill-rule:nonzero;fill:rgb(23.529412%,80.392158%,57.647061%);fill-opacity:1;" d="M 15.429688 26.101562 C 15.550781 26.101562 15.675781 26.097656 15.800781 26.097656 C 15.917969 26.097656 16.035156 26.097656 16.15625 26.097656 C 16.261719 26.09375 16.371094 26.09375 16.480469 26.09375 C 16.75 26.125 16.75 26.125 17 26.375 C 17.03125 26.6875 17.03125 26.6875 17 27 C 16.640625 27.359375 16.351562 27.285156 15.855469 27.289062 C 15.742188 27.289062 15.628906 27.289062 15.507812 27.289062 C 15.335938 27.292969 15.335938 27.292969 15.160156 27.296875 C 14.992188 27.296875 14.992188 27.296875 14.824219 27.296875 C 14.722656 27.296875 14.621094 27.296875 14.519531 27.296875 C 14.1875 27.238281 14.070312 27.144531 13.875 26.875 C 13.972656 25.871094 14.578125 26.101562 15.429688 26.101562 Z M 15.429688 26.101562 "/>
<path style=" stroke:none;fill-rule:nonzero;fill:rgb(23.529412%,80.392158%,57.647061%);fill-opacity:1;" d="M 16.339844 23.96875 C 16.457031 23.96875 16.574219 23.964844 16.691406 23.964844 C 16.816406 23.96875 16.9375 23.96875 17.0625 23.96875 C 17.183594 23.96875 17.304688 23.96875 17.433594 23.964844 C 17.546875 23.964844 17.664062 23.96875 17.785156 23.96875 C 17.890625 23.96875 18 23.96875 18.109375 23.96875 C 18.375 24 18.375 24 18.625 24.25 C 18.664062 24.5625 18.664062 24.5625 18.625 24.875 C 18.238281 25.132812 18.148438 25.15625 17.707031 25.15625 C 17.601562 25.15625 17.5 25.160156 17.390625 25.160156 C 17.28125 25.15625 17.175781 25.15625 17.0625 25.15625 C 16.898438 25.15625 16.898438 25.15625 16.734375 25.160156 C 16.628906 25.160156 16.523438 25.15625 16.417969 25.15625 C 16.324219 25.15625 16.226562 25.15625 16.128906 25.15625 C 15.875 25.125 15.875 25.125 15.5 24.875 C 15.460938 24.5625 15.460938 24.5625 15.5 24.25 C 15.8125 23.9375 15.910156 23.96875 16.339844 23.96875 Z M 16.339844 23.96875 "/>
<path style=" stroke:none;fill-rule:nonzero;fill:rgb(23.529412%,80.392158%,57.647061%);fill-opacity:1;" d="M 16.417969 6.84375 C 16.523438 6.84375 16.625 6.839844 16.734375 6.839844 C 16.839844 6.84375 16.949219 6.84375 17.0625 6.84375 C 17.226562 6.84375 17.226562 6.84375 17.390625 6.839844 C 17.496094 6.839844 17.597656 6.84375 17.707031 6.84375 C 17.800781 6.84375 17.898438 6.84375 17.996094 6.84375 C 18.25 6.875 18.25 6.875 18.625 7.125 C 18.664062 7.4375 18.664062 7.4375 18.625 7.75 C 18.3125 8.0625 18.214844 8.03125 17.785156 8.03125 C 17.667969 8.03125 17.550781 8.035156 17.433594 8.035156 C 17.308594 8.03125 17.1875 8.03125 17.0625 8.03125 C 16.941406 8.03125 16.816406 8.03125 16.691406 8.035156 C 16.578125 8.035156 16.460938 8.03125 16.339844 8.03125 C 16.234375 8.03125 16.125 8.03125 16.015625 8.03125 C 15.75 8 15.75 8 15.5 7.75 C 15.460938 7.4375 15.460938 7.4375 15.5 7.125 C 15.886719 6.867188 15.976562 6.84375 16.417969 6.84375 Z M 16.417969 6.84375 "/>
<path style=" stroke:none;fill-rule:nonzero;fill:rgb(20.784314%,80.000001%,56.078434%);fill-opacity:1;" d="M 14.734375 17.609375 C 14.855469 17.609375 14.980469 17.609375 15.105469 17.609375 C 15.238281 17.609375 15.367188 17.609375 15.5 17.609375 C 15.695312 17.609375 15.695312 17.609375 15.894531 17.609375 C 16.015625 17.609375 16.140625 17.609375 16.265625 17.609375 C 16.378906 17.609375 16.492188 17.609375 16.609375 17.609375 C 16.875 17.625 16.875 17.625 17 17.75 C 17.015625 18.125 17.015625 18.125 17 18.5 C 16.699219 18.800781 15.914062 18.648438 15.507812 18.648438 C 15.378906 18.648438 15.25 18.652344 15.117188 18.652344 C 14.933594 18.652344 14.933594 18.652344 14.746094 18.652344 C 14.578125 18.65625 14.578125 18.65625 14.40625 18.65625 C 14.125 18.625 14.125 18.625 13.875 18.375 C 13.960938 17.675781 14.050781 17.609375 14.734375 17.609375 Z M 14.734375 17.609375 "/>
<path style=" stroke:none;fill-rule:nonzero;fill:rgb(92.54902%,31.37255%,36.078432%);fill-opacity:1;" d="M 10.386719 9.109375 C 10.515625 9.109375 10.644531 9.109375 10.777344 9.109375 C 10.980469 9.109375 10.980469 9.109375 11.1875 9.109375 C 11.324219 9.109375 11.457031 9.109375 11.597656 9.109375 C 11.726562 9.109375 11.855469 9.109375 11.988281 9.109375 C 12.167969 9.109375 12.167969 9.109375 12.347656 9.109375 C 12.625 9.125 12.625 9.125 12.75 9.25 C 12.773438 9.554688 12.773438 9.554688 12.75 9.875 C 12.4375 10.1875 12.339844 10.15625 11.910156 10.160156 C 11.792969 10.160156 11.675781 10.160156 11.558594 10.160156 C 11.433594 10.160156 11.3125 10.15625 11.1875 10.15625 C 11.066406 10.15625 10.941406 10.160156 10.816406 10.160156 C 10.703125 10.160156 10.585938 10.160156 10.464844 10.160156 C 10.359375 10.160156 10.25 10.15625 10.140625 10.15625 C 9.875 10.125 9.875 10.125 9.625 9.875 C 9.601562 9.554688 9.601562 9.554688 9.625 9.25 C 9.835938 9.039062 10.097656 9.109375 10.386719 9.109375 Z M 10.386719 9.109375 "/>
<path style=" stroke:none;fill-rule:nonzero;fill:rgb(92.54902%,31.37255%,36.078432%);fill-opacity:1;" d="M 10.453125 17.609375 C 10.628906 17.609375 10.628906 17.609375 10.804688 17.609375 C 10.992188 17.609375 10.992188 17.609375 11.179688 17.609375 C 11.300781 17.609375 11.425781 17.609375 11.550781 17.609375 C 11.667969 17.609375 11.785156 17.609375 11.90625 17.609375 C 12.066406 17.609375 12.066406 17.609375 12.234375 17.609375 C 12.5 17.625 12.5 17.625 12.75 17.75 C 12.753906 18 12.753906 18.25 12.75 18.5 C 12.449219 18.800781 11.664062 18.648438 11.257812 18.648438 C 11.128906 18.648438 11 18.652344 10.867188 18.652344 C 10.683594 18.652344 10.683594 18.652344 10.496094 18.652344 C 10.328125 18.65625 10.328125 18.65625 10.152344 18.65625 C 9.875 18.625 9.875 18.625 9.625 18.375 C 9.707031 17.695312 9.785156 17.609375 10.453125 17.609375 Z M 10.453125 17.609375 "/>
<path style=" stroke:none;fill-rule:nonzero;fill:rgb(20.392157%,80.000001%,55.686277%);fill-opacity:1;" d="M 14.734375 9.109375 C 14.855469 9.109375 14.980469 9.109375 15.105469 9.109375 C 15.238281 9.109375 15.367188 9.109375 15.5 9.109375 C 15.695312 9.109375 15.695312 9.109375 15.894531 9.109375 C 16.015625 9.109375 16.140625 9.109375 16.265625 9.109375 C 16.378906 9.109375 16.492188 9.109375 16.609375 9.109375 C 16.875 9.125 16.875 9.125 17 9.25 C 17.003906 9.5 17.003906 9.75 17 10 C 16.527344 10.234375 15.957031 10.148438 15.4375 10.148438 C 15.316406 10.148438 15.191406 10.152344 15.066406 10.152344 C 14.894531 10.152344 14.894531 10.152344 14.714844 10.152344 C 14.609375 10.15625 14.5 10.15625 14.390625 10.15625 C 14.125 10.125 14.125 10.125 13.875 9.875 C 13.960938 9.175781 14.050781 9.109375 14.734375 9.109375 Z M 14.734375 9.109375 "/>
<path style=" stroke:none;fill-rule:nonzero;fill:rgb(20%,80.000001%,55.686277%);fill-opacity:1;" d="M 17.054688 15.476562 C 17.175781 15.476562 17.300781 15.472656 17.425781 15.472656 C 17.542969 15.472656 17.660156 15.472656 17.78125 15.472656 C 17.886719 15.46875 17.996094 15.46875 18.105469 15.46875 C 18.375 15.5 18.375 15.5 18.625 15.75 C 18.554688 16.320312 18.554688 16.320312 18.375 16.5 C 17.941406 16.53125 17.507812 16.523438 17.070312 16.523438 C 16.945312 16.523438 16.824219 16.527344 16.699219 16.527344 C 16.582031 16.527344 16.464844 16.527344 16.34375 16.527344 C 16.234375 16.527344 16.128906 16.53125 16.015625 16.53125 C 15.75 16.5 15.75 16.5 15.5 16.25 C 15.621094 15.25 16.183594 15.476562 17.054688 15.476562 Z M 17.054688 15.476562 "/>
<path style=" stroke:none;fill-rule:nonzero;fill:rgb(67.843139%,69.803923%,74.509805%);fill-opacity:1;" d="M 3.734375 28.21875 C 3.820312 28.21875 3.910156 28.21875 4 28.21875 C 4.089844 28.21875 4.175781 28.21875 4.265625 28.21875 C 4.5 28.25 4.5 28.25 4.75 28.5 C 4.78125 28.8125 4.78125 28.8125 4.75 29.125 C 4.5 29.375 4.5 29.375 4.265625 29.40625 C 4.179688 29.40625 4.089844 29.40625 4 29.40625 C 3.910156 29.40625 3.824219 29.40625 3.734375 29.40625 C 3.5 29.375 3.5 29.375 3.25 29.125 C 3.21875 28.8125 3.21875 28.8125 3.25 28.5 C 3.5 28.25 3.5 28.25 3.734375 28.21875 Z M 3.734375 28.21875 "/>
<path style=" stroke:none;fill-rule:nonzero;fill:rgb(67.843139%,69.803923%,74.509805%);fill-opacity:1;" d="M 3.734375 26.09375 C 3.820312 26.09375 3.910156 26.09375 4 26.09375 C 4.089844 26.09375 4.175781 26.09375 4.265625 26.09375 C 4.5 26.125 4.5 26.125 4.75 26.375 C 4.78125 26.6875 4.78125 26.6875 4.75 27 C 4.5 27.25 4.5 27.25 4.265625 27.28125 C 4.179688 27.28125 4.089844 27.28125 4 27.28125 C 3.910156 27.28125 3.824219 27.28125 3.734375 27.28125 C 3.5 27.25 3.5 27.25 3.25 27 C 3.21875 26.6875 3.21875 26.6875 3.25 26.375 C 3.5 26.125 3.5 26.125 3.734375 26.09375 Z M 3.734375 26.09375 "/>
<path style=" stroke:none;fill-rule:nonzero;fill:rgb(67.450982%,69.411767%,74.509805%);fill-opacity:1;" d="M 3.65625 15.484375 C 3.769531 15.484375 3.882812 15.484375 4 15.484375 C 4.171875 15.484375 4.171875 15.484375 4.34375 15.484375 C 4.625 15.5 4.625 15.5 4.75 15.625 C 4.765625 16 4.765625 16 4.75 16.375 C 4.625 16.5 4.625 16.5 4.34375 16.515625 C 4.230469 16.515625 4.117188 16.515625 4 16.515625 C 3.828125 16.515625 3.828125 16.515625 3.65625 16.515625 C 3.375 16.5 3.375 16.5 3.25 16.375 C 3.234375 16 3.234375 16 3.25 15.625 C 3.375 15.5 3.375 15.5 3.65625 15.484375 Z M 3.65625 15.484375 "/>
<path style=" stroke:none;fill-rule:nonzero;fill:rgb(67.058825%,69.01961%,74.117649%);fill-opacity:1;" d="M 4 17.601562 C 4.132812 17.597656 4.132812 17.597656 4.265625 17.597656 C 4.5 17.625 4.5 17.625 4.75 17.875 C 4.773438 18.195312 4.773438 18.195312 4.75 18.5 C 4.625 18.625 4.625 18.625 4.34375 18.640625 C 4.230469 18.640625 4.117188 18.640625 4 18.640625 C 3.828125 18.640625 3.828125 18.640625 3.65625 18.640625 C 3.375 18.625 3.375 18.625 3.25 18.5 C 3.246094 18.25 3.246094 18 3.25 17.75 C 3.527344 17.609375 3.691406 17.605469 4 17.601562 Z M 4 17.601562 "/>
<path style=" stroke:none;fill-rule:nonzero;fill:rgb(67.058825%,69.01961%,73.725492%);fill-opacity:1;" d="M 3.734375 23.96875 C 3.820312 23.96875 3.910156 23.96875 4 23.96875 C 4.089844 23.96875 4.175781 23.96875 4.265625 23.96875 C 4.5 24 4.5 24 4.75 24.25 C 4.773438 24.570312 4.773438 24.570312 4.75 24.875 C 4.625 25 4.625 25 4.34375 25.015625 C 4.230469 25.015625 4.117188 25.015625 4 25.015625 C 3.828125 25.015625 3.828125 25.015625 3.65625 25.015625 C 3.375 25 3.375 25 3.25 24.875 C 3.226562 24.570312 3.226562 24.570312 3.25 24.25 C 3.5 24 3.5 24 3.734375 23.96875 Z M 3.734375 23.96875 "/>
<path style=" stroke:none;fill-rule:nonzero;fill:rgb(67.058825%,69.01961%,73.725492%);fill-opacity:1;" d="M 3.734375 21.84375 C 3.820312 21.84375 3.910156 21.84375 4 21.84375 C 4.089844 21.84375 4.175781 21.84375 4.265625 21.84375 C 4.5 21.875 4.5 21.875 4.75 22.125 C 4.773438 22.445312 4.773438 22.445312 4.75 22.75 C 4.625 22.875 4.625 22.875 4.34375 22.890625 C 4.230469 22.890625 4.117188 22.890625 4 22.890625 C 3.828125 22.890625 3.828125 22.890625 3.65625 22.890625 C 3.375 22.875 3.375 22.875 3.25 22.75 C 3.226562 22.445312 3.226562 22.445312 3.25 22.125 C 3.5 21.875 3.5 21.875 3.734375 21.84375 Z M 3.734375 21.84375 "/>
<path style=" stroke:none;fill-rule:nonzero;fill:rgb(67.058825%,69.01961%,73.725492%);fill-opacity:1;" d="M 3.734375 19.71875 C 3.820312 19.71875 3.910156 19.71875 4 19.71875 C 4.089844 19.71875 4.175781 19.71875 4.265625 19.71875 C 4.5 19.75 4.5 19.75 4.75 20 C 4.773438 20.320312 4.773438 20.320312 4.75 20.625 C 4.625 20.75 4.625 20.75 4.34375 20.765625 C 4.230469 20.765625 4.117188 20.765625 4 20.765625 C 3.828125 20.765625 3.828125 20.765625 3.65625 20.765625 C 3.375 20.75 3.375 20.75 3.25 20.625 C 3.226562 20.320312 3.226562 20.320312 3.25 20 C 3.5 19.75 3.5 19.75 3.734375 19.71875 Z M 3.734375 19.71875 "/>
<path style=" stroke:none;fill-rule:nonzero;fill:rgb(67.058825%,69.01961%,74.117649%);fill-opacity:1;" d="M 3.65625 13.359375 C 3.769531 13.359375 3.882812 13.359375 4 13.359375 C 4.171875 13.359375 4.171875 13.359375 4.34375 13.359375 C 4.625 13.375 4.625 13.375 4.75 13.5 C 4.773438 13.804688 4.773438 13.804688 4.75 14.125 C 4.5 14.375 4.5 14.375 4.265625 14.410156 C 4.175781 14.40625 4.089844 14.40625 4 14.40625 C 3.914062 14.40625 3.824219 14.40625 3.734375 14.410156 C 3.5 14.375 3.5 14.375 3.25 14.125 C 3.226562 13.804688 3.226562 13.804688 3.25 13.5 C 3.375 13.375 3.375 13.375 3.65625 13.359375 Z M 3.65625 13.359375 "/>
<path style=" stroke:none;fill-rule:nonzero;fill:rgb(67.058825%,69.01961%,73.725492%);fill-opacity:1;" d="M 3.65625 11.234375 C 3.769531 11.234375 3.882812 11.234375 4 11.234375 C 4.171875 11.234375 4.171875 11.234375 4.34375 11.234375 C 4.625 11.25 4.625 11.25 4.75 11.375 C 4.773438 11.679688 4.773438 11.679688 4.75 12 C 4.5 12.25 4.5 12.25 4.265625 12.285156 C 4.175781 12.28125 4.089844 12.28125 4 12.28125 C 3.914062 12.28125 3.824219 12.28125 3.734375 12.285156 C 3.5 12.25 3.5 12.25 3.25 12 C 3.226562 11.679688 3.226562 11.679688 3.25 11.375 C 3.375 11.25 3.375 11.25 3.65625 11.234375 Z M 3.65625 11.234375 "/>
<path style=" stroke:none;fill-rule:nonzero;fill:rgb(67.058825%,69.01961%,73.725492%);fill-opacity:1;" d="M 3.65625 9.109375 C 3.769531 9.109375 3.882812 9.109375 4 9.109375 C 4.171875 9.109375 4.171875 9.109375 4.34375 9.109375 C 4.625 9.125 4.625 9.125 4.75 9.25 C 4.773438 9.554688 4.773438 9.554688 4.75 9.875 C 4.5 10.125 4.5 10.125 4.265625 10.160156 C 4.175781 10.15625 4.089844 10.15625 4 10.15625 C 3.914062 10.15625 3.824219 10.15625 3.734375 10.160156 C 3.5 10.125 3.5 10.125 3.25 9.875 C 3.226562 9.554688 3.226562 9.554688 3.25 9.25 C 3.375 9.125 3.375 9.125 3.65625 9.109375 Z M 3.65625 9.109375 "/>
<path style=" stroke:none;fill-rule:nonzero;fill:rgb(67.058825%,69.01961%,73.725492%);fill-opacity:1;" d="M 3.65625 6.984375 C 3.769531 6.984375 3.882812 6.984375 4 6.984375 C 4.171875 6.984375 4.171875 6.984375 4.34375 6.984375 C 4.625 7 4.625 7 4.75 7.125 C 4.773438 7.429688 4.773438 7.429688 4.75 7.75 C 4.5 8 4.5 8 4.265625 8.035156 C 4.175781 8.03125 4.089844 8.03125 4 8.03125 C 3.914062 8.03125 3.824219 8.03125 3.734375 8.035156 C 3.5 8 3.5 8 3.25 7.75 C 3.226562 7.429688 3.226562 7.429688 3.25 7.125 C 3.375 7 3.375 7 3.65625 6.984375 Z M 3.65625 6.984375 "/>
<path style=" stroke:none;fill-rule:nonzero;fill:rgb(85.882354%,80.000001%,22.745098%);fill-opacity:1;" d="M 4.5 2.125 C 4.890625 2.171875 4.890625 2.171875 5.25 2.25 C 5.335938 2.539062 5.335938 2.539062 5.375 2.875 C 5.234375 3.109375 5.234375 3.109375 5 3.25 C 4.664062 3.210938 4.664062 3.210938 4.375 3.125 C 4.296875 2.765625 4.296875 2.765625 4.25 2.375 C 4.332031 2.292969 4.414062 2.210938 4.5 2.125 Z M 4.5 2.125 "/>
<path style=" stroke:none;fill-rule:nonzero;fill:rgb(18.82353%,73.725492%,54.11765%);fill-opacity:1;" d="M 2.375 2.125 C 2.789062 2.167969 2.953125 2.203125 3.25 2.5 C 3.203125 2.867188 3.140625 2.984375 2.875 3.25 C 2.546875 3.203125 2.546875 3.203125 2.25 3.125 C 2.171875 2.765625 2.171875 2.765625 2.125 2.375 C 2.207031 2.292969 2.289062 2.210938 2.375 2.125 Z M 2.375 2.125 "/>
<path style=" stroke:none;fill-rule:nonzero;fill:rgb(85.490197%,29.411766%,36.078432%);fill-opacity:1;" d="M 6.625 2.125 C 6.875 2.160156 7.125 2.203125 7.375 2.25 C 7.460938 2.539062 7.460938 2.539062 7.5 2.875 C 7.351562 3.109375 7.351562 3.109375 7.125 3.25 C 6.753906 3.214844 6.644531 3.144531 6.375 2.875 C 6.445312 2.304688 6.445312 2.304688 6.625 2.125 Z M 6.625 2.125 "/>
</g>
</svg>
