<?xml version="1.0" encoding="UTF-8"?>
<svg xmlns="http://www.w3.org/2000/svg" xmlns:xlink="http://www.w3.org/1999/xlink" width="32" height="32" viewBox="0 0 32 32" version="1.1">
<g id="surface1">
<path style=" stroke:none;fill-rule:nonzero;fill:rgb(94.509804%,38.039216%,38.039216%);fill-opacity:1;" d="M 12.71875 10.035156 C 14.351562 11.332031 15.492188 13.058594 15.875 15.125 C 16.359375 19.734375 13.078125 24.195312 10.5 27.75 C 10.660156 27.804688 10.660156 27.804688 10.824219 27.859375 C 12.703125 28.535156 12.703125 28.535156 13.125 29.375 C 13.210938 30.253906 13.210938 30.253906 12.882812 30.710938 C 11.386719 31.839844 9.800781 32.070312 7.953125 32.054688 C 7.792969 32.054688 7.632812 32.050781 7.472656 32.050781 C 5.835938 32.023438 4.324219 31.792969 3 30.75 C 2.691406 30.285156 2.652344 29.914062 2.75 29.375 C 3.347656 28.40625 4.347656 28.117188 5.375 27.75 C 5.3125 27.660156 5.246094 27.570312 5.183594 27.476562 C -0.597656 19.253906 -0.597656 19.253906 0.0390625 14.859375 C 0.453125 12.789062 1.753906 11.042969 3.449219 9.816406 C 6.292969 8.023438 9.972656 8.03125 12.71875 10.035156 Z M 4.335938 13.53125 C 3.554688 14.453125 3.195312 15.589844 3.214844 16.792969 C 3.351562 18.132812 3.878906 19.183594 4.859375 20.09375 C 5.855469 20.902344 7.09375 21.332031 8.375 21.25 C 9.691406 21.011719 10.828125 20.460938 11.683594 19.410156 C 12.378906 18.375 12.753906 17.25 12.625 16 C 12.300781 14.480469 11.640625 13.40625 10.375 12.5 C 8.253906 11.328125 5.980469 11.8125 4.335938 13.53125 Z M 4.335938 13.53125 "/>
<path style=" stroke:none;fill-rule:nonzero;fill:rgb(7.058824%,72.549021%,46.27451%);fill-opacity:1;" d="M 30.355469 0.765625 C 31.144531 1.347656 31.808594 2.414062 32 3.375 C 32.28125 6.066406 30.683594 8.347656 29.25 10.5 C 29.320312 10.542969 29.386719 10.585938 29.460938 10.628906 C 29.550781 10.683594 29.640625 10.738281 29.734375 10.796875 C 29.824219 10.851562 29.914062 10.90625 30.007812 10.964844 C 30.25 11.125 30.25 11.125 30.5 11.375 C 30.554688 11.804688 30.5625 12.035156 30.3125 12.398438 C 29.277344 13.148438 27.988281 13.207031 26.75 13.125 C 25.097656 12.855469 25.097656 12.855469 24.625 12.25 C 24.539062 11.820312 24.539062 11.820312 24.625 11.375 C 25.007812 10.984375 25.386719 10.734375 25.875 10.5 C 25.8125 10.40625 25.8125 10.40625 25.753906 10.3125 C 22.660156 5.566406 22.660156 5.566406 23.125 3.25 C 23.59375 1.722656 24.570312 0.871094 25.9375 0.140625 C 27.4375 -0.359375 29.042969 -0.03125 30.355469 0.765625 Z M 25.640625 2.875 C 25.101562 3.636719 25.042969 4.199219 25.125 5.125 C 25.347656 5.855469 25.898438 6.308594 26.5 6.75 C 27.15625 6.96875 27.894531 7.015625 28.542969 6.757812 C 29.242188 6.339844 29.78125 5.800781 30 5 C 30.101562 4.183594 29.976562 3.546875 29.5 2.875 C 28.953125 2.285156 28.382812 1.996094 27.585938 1.953125 C 26.789062 1.976562 26.164062 2.273438 25.640625 2.875 Z M 25.640625 2.875 "/>
<path style=" stroke:none;fill-rule:nonzero;fill:rgb(3.529412%,1.960784%,1.176471%);fill-opacity:1;" d="M 12.71875 10.035156 C 14.351562 11.332031 15.492188 13.058594 15.875 15.125 C 16.359375 19.734375 13.078125 24.195312 10.5 27.75 C 10.660156 27.804688 10.660156 27.804688 10.824219 27.859375 C 12.703125 28.535156 12.703125 28.535156 13.125 29.375 C 13.210938 30.253906 13.210938 30.253906 12.882812 30.710938 C 11.386719 31.839844 9.800781 32.070312 7.953125 32.054688 C 7.792969 32.054688 7.632812 32.050781 7.472656 32.050781 C 5.835938 32.023438 4.324219 31.792969 3 30.75 C 2.691406 30.285156 2.652344 29.914062 2.75 29.375 C 3.347656 28.40625 4.347656 28.117188 5.375 27.75 C 5.3125 27.660156 5.246094 27.570312 5.183594 27.476562 C -0.597656 19.253906 -0.597656 19.253906 0.0390625 14.859375 C 0.453125 12.789062 1.753906 11.042969 3.449219 9.816406 C 6.292969 8.023438 9.972656 8.03125 12.71875 10.035156 Z M 4.875 9.5 C 4.75 9.5625 4.625 9.625 4.496094 9.6875 C 2.496094 10.773438 1.152344 12.433594 0.476562 14.601562 C -0.0195312 17.136719 0.796875 19.28125 1.980469 21.484375 C 2.132812 21.761719 2.277344 22.042969 2.425781 22.324219 C 3.332031 24.046875 4.398438 25.648438 5.5 27.25 C 5.613281 27.414062 5.613281 27.414062 5.726562 27.582031 C 5.929688 27.878906 6.132812 28.171875 6.335938 28.46875 C 6.394531 28.554688 6.453125 28.640625 6.511719 28.726562 C 6.835938 29.1875 7.148438 29.5625 7.625 29.875 C 8.066406 29.925781 8.066406 29.925781 8.5 29.75 C 9.175781 29.132812 9.679688 28.292969 10.195312 27.546875 C 10.285156 27.421875 10.371094 27.292969 10.460938 27.164062 C 14.488281 21.496094 14.488281 21.496094 15.441406 14.851562 C 14.917969 12.734375 13.59375 11.007812 11.75 9.875 C 9.75 8.832031 6.953125 8.4375 4.875 9.5 Z M 4.875 9.5 "/>
<path style=" stroke:none;fill-rule:nonzero;fill:rgb(0.784314%,2.745098%,1.960784%);fill-opacity:1;" d="M 30.355469 0.765625 C 31.144531 1.347656 31.808594 2.414062 32 3.375 C 32.28125 6.066406 30.683594 8.347656 29.25 10.5 C 29.320312 10.542969 29.386719 10.585938 29.460938 10.628906 C 29.550781 10.683594 29.640625 10.738281 29.734375 10.796875 C 29.824219 10.851562 29.914062 10.90625 30.007812 10.964844 C 30.25 11.125 30.25 11.125 30.5 11.375 C 30.554688 11.804688 30.5625 12.035156 30.3125 12.398438 C 29.277344 13.148438 27.988281 13.207031 26.75 13.125 C 25.097656 12.855469 25.097656 12.855469 24.625 12.25 C 24.539062 11.820312 24.539062 11.820312 24.625 11.375 C 25.007812 10.984375 25.386719 10.734375 25.875 10.5 C 25.8125 10.40625 25.8125 10.40625 25.753906 10.3125 C 22.660156 5.566406 22.660156 5.566406 23.125 3.25 C 23.59375 1.722656 24.570312 0.871094 25.9375 0.140625 C 27.4375 -0.359375 29.042969 -0.03125 30.355469 0.765625 Z M 24.203125 1.957031 C 23.46875 3.007812 23.277344 4.113281 23.5 5.375 C 23.703125 6.042969 24.035156 6.640625 24.375 7.25 C 24.433594 7.367188 24.496094 7.484375 24.554688 7.605469 C 25.726562 10.003906 25.726562 10.003906 27.523438 11.714844 C 27.597656 11.726562 27.671875 11.738281 27.75 11.75 C 29.179688 10.117188 30.289062 8.1875 31.25 6.25 C 31.296875 6.160156 31.34375 6.070312 31.394531 5.980469 C 31.820312 5.0625 31.785156 3.902344 31.496094 2.957031 C 31 1.867188 30.257812 1.082031 29.179688 0.5625 C 27.3125 -0.0820312 25.4375 0.40625 24.203125 1.957031 Z M 24.203125 1.957031 "/>
<path style=" stroke:none;fill-rule:nonzero;fill:rgb(98.039216%,79.215688%,15.686275%);fill-opacity:1;" d="M 6 28.375 C 6.21875 28.625 6.402344 28.851562 6.585938 29.125 C 6.910156 29.636719 6.910156 29.636719 7.375 30 C 7.9375 30.078125 8.359375 30.101562 8.828125 29.757812 C 9 29.535156 9.167969 29.3125 9.320312 29.078125 C 9.53125 28.773438 9.734375 28.503906 10 28.25 C 10.894531 28.144531 11.753906 28.664062 12.5 29.125 C 12.75 29.5 12.75 29.5 12.742188 29.929688 C 12.597656 30.472656 12.453125 30.5625 12 30.875 C 11.617188 31.054688 11.617188 31.054688 11.210938 31.210938 C 11.078125 31.261719 10.945312 31.316406 10.804688 31.367188 C 8.773438 31.988281 5.878906 31.933594 3.984375 30.9375 C 3.652344 30.742188 3.375 30.546875 3.125 30.25 C 3.0625 29.890625 3.0625 29.890625 3.125 29.5 C 3.621094 28.847656 4.3125 28.507812 5.085938 28.273438 C 5.441406 28.246094 5.660156 28.261719 6 28.375 Z M 6 28.375 "/>
<path style=" stroke:none;fill-rule:nonzero;fill:rgb(4.313726%,1.568628%,1.568628%);fill-opacity:1;" d="M 10.5625 12.164062 C 11.789062 12.921875 12.605469 14.03125 12.953125 15.441406 C 13.152344 16.734375 12.996094 18.097656 12.289062 19.21875 C 11.507812 20.273438 10.738281 20.914062 9.5 21.375 C 9.378906 21.421875 9.253906 21.464844 9.128906 21.515625 C 7.945312 21.859375 6.726562 21.636719 5.625 21.125 C 5.261719 20.902344 4.941406 20.660156 4.625 20.375 C 4.460938 20.230469 4.460938 20.230469 4.296875 20.085938 C 3.222656 18.871094 2.828125 17.71875 2.847656 16.105469 C 2.945312 14.777344 3.582031 13.601562 4.546875 12.703125 C 6.308594 11.234375 8.542969 11.097656 10.5625 12.164062 Z M 4.335938 13.53125 C 3.554688 14.453125 3.195312 15.589844 3.214844 16.792969 C 3.351562 18.132812 3.878906 19.183594 4.859375 20.09375 C 5.855469 20.902344 7.09375 21.332031 8.375 21.25 C 9.691406 21.011719 10.828125 20.460938 11.683594 19.410156 C 12.378906 18.375 12.753906 17.25 12.625 16 C 12.300781 14.484375 11.640625 13.40625 10.375 12.5 C 8.253906 11.328125 5.980469 11.8125 4.335938 13.53125 Z M 4.335938 13.53125 "/>
<path style=" stroke:none;fill-rule:nonzero;fill:rgb(6.666667%,66.274512%,42.745098%);fill-opacity:1;" d="M 28.25 0.375 C 29.625 0.695312 30.492188 1.304688 31.25 2.5 C 31.757812 3.332031 31.78125 4.300781 31.625 5.25 C 31.429688 5.957031 31.097656 6.605469 30.75 7.25 C 30.703125 7.335938 30.65625 7.421875 30.609375 7.511719 C 29.820312 8.957031 28.921875 10.578125 27.75 11.75 C 27.484375 11.703125 27.484375 11.703125 27.25 11.625 C 27.25 11.152344 27.375 11.046875 27.664062 10.679688 C 30.003906 7.550781 30.003906 7.550781 30.75 3.875 C 30.53125 2.738281 30.039062 1.777344 29.101562 1.078125 C 29.019531 1.023438 28.9375 0.96875 28.855469 0.910156 C 28.625 0.75 28.441406 0.578125 28.25 0.375 Z M 28.25 0.375 "/>
<path style=" stroke:none;fill-rule:nonzero;fill:rgb(0%,2.745098%,1.568628%);fill-opacity:1;" d="M 28.734375 1.761719 C 29.53125 2.207031 30.082031 2.742188 30.375 3.625 C 30.488281 4.667969 30.386719 5.519531 29.75 6.375 C 28.917969 7.183594 28.183594 7.3125 27.042969 7.300781 C 26.15625 7.195312 25.59375 6.671875 25.054688 5.992188 C 24.585938 5.21875 24.609375 4.339844 24.8125 3.476562 C 25.078125 2.78125 25.550781 2.210938 26.1875 1.828125 C 26.992188 1.46875 27.914062 1.449219 28.734375 1.761719 Z M 25.640625 2.875 C 25.101562 3.636719 25.042969 4.199219 25.125 5.125 C 25.347656 5.855469 25.898438 6.308594 26.5 6.75 C 27.15625 6.96875 27.894531 7.015625 28.546875 6.757812 C 29.242188 6.339844 29.78125 5.800781 30 5 C 30.101562 4.1875 29.976562 3.546875 29.5 2.875 C 28.953125 2.285156 28.382812 1.996094 27.585938 1.953125 C 26.789062 1.972656 26.164062 2.273438 25.640625 2.875 Z M 25.640625 2.875 "/>
<path style=" stroke:none;fill-rule:nonzero;fill:rgb(90.588236%,89.803922%,89.803922%);fill-opacity:1;" d="M 26.5 11.125 C 26.597656 11.25 26.695312 11.378906 26.796875 11.507812 C 27.09375 11.914062 27.09375 11.914062 27.5625 11.976562 C 28.042969 11.863281 28.09375 11.816406 28.367188 11.4375 C 28.457031 11.292969 28.542969 11.148438 28.625 11 C 29.222656 11.058594 29.628906 11.15625 30.125 11.5 C 30.125 11.78125 30.125 11.78125 30 12.125 C 29.003906 12.832031 27.800781 12.84375 26.625 12.75 C 26.023438 12.601562 25.445312 12.445312 25 12 C 25 11.695312 25 11.695312 25.125 11.375 C 25.605469 11.046875 25.953125 10.886719 26.5 11.125 Z M 26.5 11.125 "/>
<path style=" stroke:none;fill-rule:nonzero;fill:rgb(98.039216%,62.352943%,62.352943%);fill-opacity:1;" d="M 3.46875 11.453125 C 3.75 11.5 3.75 11.5 3.875 11.625 C 3.929688 12.042969 3.890625 12.222656 3.671875 12.589844 C 3.535156 12.761719 3.535156 12.761719 3.398438 12.9375 C 3.136719 13.28125 2.890625 13.601562 2.679688 13.976562 C 2.621094 14.066406 2.5625 14.15625 2.5 14.25 C 2.101562 14.289062 2.101562 14.289062 1.75 14.25 C 1.632812 13.804688 1.589844 13.574219 1.78125 13.148438 C 2.878906 11.53125 2.878906 11.53125 3.46875 11.453125 Z M 3.46875 11.453125 "/>
<path style=" stroke:none;fill-rule:nonzero;fill:rgb(0.784314%,0.784314%,0.784314%);fill-opacity:1;" d="M 20.125 11.75 C 20.367188 11.953125 20.367188 11.953125 20.5 12.25 C 20.511719 12.789062 20.410156 12.964844 20.039062 13.359375 C 19.589844 13.648438 19.394531 13.71875 18.875 13.625 C 18.632812 13.492188 18.632812 13.492188 18.5 13.25 C 18.488281 12.667969 18.566406 12.441406 18.960938 12.007812 C 19.410156 11.730469 19.609375 11.644531 20.125 11.75 Z M 20.125 11.75 "/>
<path style=" stroke:none;fill-rule:nonzero;fill:rgb(0%,0%,0%);fill-opacity:1;" d="M 22.625 11.125 C 22.945312 11.265625 22.945312 11.265625 23.125 11.5 C 23.179688 11.890625 23.210938 12.132812 22.976562 12.457031 C 22.664062 12.6875 22.445312 12.675781 22.0625 12.671875 C 21.941406 12.671875 21.824219 12.671875 21.699219 12.675781 C 21.375 12.625 21.375 12.625 21.148438 12.457031 C 20.914062 12.132812 20.945312 11.890625 21 11.5 C 21.394531 10.984375 22.03125 11.046875 22.625 11.125 Z M 22.625 11.125 "/>
<path style=" stroke:none;fill-rule:nonzero;fill:rgb(0.784314%,0.784314%,0.784314%);fill-opacity:1;" d="M 27.5 28.125 C 27.75 28.375 27.75 28.375 27.820312 28.789062 C 27.746094 29.28125 27.726562 29.332031 27.359375 29.617188 C 26.9375 29.875 26.625 29.964844 26.125 29.875 C 25.890625 29.734375 25.890625 29.734375 25.75 29.5 C 25.671875 29.140625 25.671875 29.140625 25.75 28.75 C 26.242188 28.195312 26.761719 28.023438 27.5 28.125 Z M 27.5 28.125 "/>
<path style=" stroke:none;fill-rule:nonzero;fill:rgb(0.784314%,0.784314%,0.784314%);fill-opacity:1;" d="M 28.976562 26.015625 C 29.175781 26.070312 29.175781 26.070312 29.375 26.125 C 29.554688 26.488281 29.667969 26.746094 29.539062 27.144531 C 29.199219 27.839844 29.199219 27.839844 28.875 28 C 28.4375 28.03125 28.4375 28.03125 28 28 C 27.75 27.625 27.75 27.625 27.757812 27.210938 C 27.9375 26.503906 28.164062 25.988281 28.976562 26.015625 Z M 28.976562 26.015625 "/>
<path style=" stroke:none;fill-rule:nonzero;fill:rgb(0.784314%,0.784314%,0.784314%);fill-opacity:1;" d="M 26.765625 18.695312 C 27.328125 18.757812 27.558594 18.902344 27.957031 19.285156 C 28.125 19.5 28.125 19.5 28.21875 19.898438 C 28.125 20.25 28.125 20.25 27.859375 20.5 C 27.5 20.625 27.5 20.625 27.125 20.5625 C 26.679688 20.339844 26.421875 20.152344 26.125 19.75 C 26.15625 18.78125 26.15625 18.78125 26.765625 18.695312 Z M 26.765625 18.695312 "/>
<path style=" stroke:none;fill-rule:nonzero;fill:rgb(0.784314%,0.784314%,0.784314%);fill-opacity:1;" d="M 28.664062 20.703125 C 29.125 20.75 29.125 20.75 29.421875 21 C 29.6875 21.492188 29.742188 21.8125 29.75 22.375 C 29.617188 22.625 29.617188 22.625 29.375 22.75 C 29.015625 22.835938 29.015625 22.835938 28.625 22.75 C 28.332031 22.453125 28.148438 22.140625 28 21.75 C 28.03125 20.773438 28.03125 20.773438 28.664062 20.703125 Z M 28.664062 20.703125 "/>
<path style=" stroke:none;fill-rule:nonzero;fill:rgb(0.784314%,0.784314%,0.784314%);fill-opacity:1;" d="M 24.492188 17.828125 C 24.652344 17.828125 24.652344 17.828125 24.816406 17.824219 C 25.1875 17.882812 25.359375 17.984375 25.625 18.25 C 25.679688 18.695312 25.679688 18.695312 25.625 19.125 C 25.160156 19.433594 24.925781 19.414062 24.375 19.375 C 23.984375 19.253906 23.789062 19.164062 23.5 18.875 C 23.457031 18.527344 23.4375 18.332031 23.652344 18.046875 C 23.945312 17.820312 24.125 17.824219 24.492188 17.828125 Z M 24.492188 17.828125 "/>
<path style=" stroke:none;fill-rule:nonzero;fill:rgb(1.176471%,1.176471%,1.176471%);fill-opacity:1;" d="M 19.5 16.625 C 19.820312 16.828125 20.046875 17.054688 20.25 17.375 C 20.3125 17.84375 20.3125 17.84375 20.25 18.25 C 20 18.5 20 18.5 19.59375 18.5625 C 19.050781 18.488281 18.867188 18.363281 18.511719 17.964844 C 18.296875 17.625 18.296875 17.386719 18.375 17 C 18.652344 16.539062 18.996094 16.535156 19.5 16.625 Z M 19.5 16.625 "/>
<path style=" stroke:none;fill-rule:nonzero;fill:rgb(1.568628%,1.568628%,1.568628%);fill-opacity:1;" d="M 18.515625 14.007812 C 18.875 14.125 18.875 14.125 19.023438 14.34375 C 19.144531 14.679688 19.132812 14.910156 19.09375 15.265625 C 19.082031 15.375 19.070312 15.484375 19.0625 15.59375 C 19 15.875 19 15.875 18.75 16.125 C 18.3125 16.15625 18.3125 16.15625 17.875 16.125 C 17.539062 15.789062 17.585938 15.601562 17.578125 15.132812 C 17.574219 15 17.570312 14.867188 17.566406 14.730469 C 17.625 14.375 17.625 14.375 17.851562 14.140625 C 18.125 14 18.125 14 18.515625 14.007812 Z M 18.515625 14.007812 "/>
<path style=" stroke:none;fill-rule:nonzero;fill:rgb(1.176471%,1.176471%,1.176471%);fill-opacity:1;" d="M 29.4375 23.34375 C 29.875 23.375 29.875 23.375 30.125 23.625 C 30.164062 23.964844 30.164062 23.964844 30.164062 24.367188 C 30.167969 24.5 30.167969 24.632812 30.171875 24.769531 C 30.125 25.125 30.125 25.125 29.964844 25.359375 C 29.75 25.5 29.75 25.5 29.296875 25.46875 C 28.875 25.375 28.875 25.375 28.75 25.25 C 28.734375 24.984375 28.726562 24.714844 28.726562 24.445312 C 28.726562 24.296875 28.722656 24.152344 28.722656 24 C 28.765625 23.441406 28.886719 23.382812 29.4375 23.34375 Z M 29.4375 23.34375 "/>
<path style=" stroke:none;fill-rule:nonzero;fill:rgb(1.568628%,1.568628%,1.568628%);fill-opacity:1;" d="M 24.257812 29.085938 C 24.457031 29.082031 24.457031 29.082031 24.660156 29.078125 C 24.773438 29.09375 24.882812 29.109375 25 29.125 C 25.269531 29.53125 25.308594 29.65625 25.25 30.125 C 25.109375 30.328125 25.109375 30.328125 24.875 30.5 C 24.519531 30.546875 24.519531 30.546875 24.117188 30.539062 C 23.984375 30.539062 23.851562 30.539062 23.714844 30.539062 C 23.375 30.5 23.375 30.5 23.125 30.25 C 23.085938 29.8125 23.085938 29.8125 23.125 29.375 C 23.558594 29.085938 23.746094 29.085938 24.257812 29.085938 Z M 24.257812 29.085938 "/>
<path style=" stroke:none;fill-rule:nonzero;fill:rgb(1.960784%,1.960784%,1.960784%);fill-opacity:1;" d="M 18.617188 29.078125 C 18.816406 29.074219 18.816406 29.074219 19.019531 29.066406 C 19.375 29.125 19.375 29.125 19.609375 29.355469 C 19.75 29.625 19.75 29.625 19.726562 29.953125 C 19.625 30.25 19.625 30.25 19.375 30.5 C 19.035156 30.542969 19.035156 30.542969 18.632812 30.546875 C 18.5 30.550781 18.367188 30.554688 18.230469 30.558594 C 17.875 30.5 17.875 30.5 17.636719 30.269531 C 17.5 30 17.5 30 17.523438 29.671875 C 17.730469 29.066406 18.03125 29.085938 18.617188 29.078125 Z M 18.617188 29.078125 "/>
<path style=" stroke:none;fill-rule:nonzero;fill:rgb(1.176471%,1.176471%,1.176471%);fill-opacity:1;" d="M 21.804688 17.851562 C 22.023438 17.847656 22.023438 17.847656 22.25 17.847656 C 22.625 17.875 22.625 17.875 22.875 18.125 C 22.914062 18.5625 22.914062 18.5625 22.875 19 C 22.457031 19.277344 22.300781 19.285156 21.8125 19.289062 C 21.691406 19.292969 21.570312 19.292969 21.449219 19.296875 C 21.125 19.25 21.125 19.25 20.890625 19.085938 C 20.75 18.875 20.75 18.875 20.78125 18.421875 C 20.933594 17.730469 21.136719 17.855469 21.804688 17.851562 Z M 21.804688 17.851562 "/>
<path style=" stroke:none;fill-rule:nonzero;fill:rgb(1.960784%,1.960784%,1.960784%);fill-opacity:1;" d="M 21.367188 29.078125 C 21.566406 29.074219 21.566406 29.074219 21.769531 29.066406 C 22.125 29.125 22.125 29.125 22.359375 29.355469 C 22.5 29.625 22.5 29.625 22.476562 29.953125 C 22.375 30.25 22.375 30.25 22.125 30.5 C 21.78125 30.53125 21.78125 30.53125 21.375 30.53125 C 21.171875 30.53125 21.171875 30.53125 20.96875 30.53125 C 20.625 30.5 20.625 30.5 20.375 30.25 C 20.34375 29.8125 20.34375 29.8125 20.375 29.375 C 20.710938 29.039062 20.898438 29.085938 21.367188 29.078125 Z M 21.367188 29.078125 "/>
<path style=" stroke:none;fill-rule:nonzero;fill:rgb(1.960784%,1.960784%,1.960784%);fill-opacity:1;" d="M 15.867188 29.070312 C 16 29.066406 16.132812 29.058594 16.269531 29.054688 C 16.625 29.125 16.625 29.125 16.867188 29.417969 C 17 29.75 17 29.75 16.90625 30.09375 C 16.75 30.375 16.75 30.375 16.625 30.5 C 16.382812 30.523438 16.136719 30.535156 15.890625 30.539062 C 15.757812 30.542969 15.625 30.546875 15.484375 30.554688 C 15.125 30.5 15.125 30.5 14.886719 30.269531 C 14.75 30 14.75 30 14.773438 29.671875 C 14.980469 29.070312 15.28125 29.082031 15.867188 29.070312 Z M 15.867188 29.070312 "/>
<path style=" stroke:none;fill-rule:nonzero;fill:rgb(7.843138%,4.705882%,1.960784%);fill-opacity:1;" d="M 9.5 28.375 C 9.582031 28.375 9.664062 28.375 9.75 28.375 C 9.671875 28.832031 9.480469 29.101562 9.195312 29.460938 C 9.117188 29.558594 9.042969 29.65625 8.960938 29.757812 C 8.726562 30.027344 8.605469 30.113281 8.25 30.15625 C 7.765625 30.171875 7.460938 30.171875 7.03125 29.929688 C 6.125 28.949219 6.125 28.949219 6.125 28.5 C 6.457031 28.546875 6.59375 28.582031 6.808594 28.851562 C 6.863281 28.941406 6.917969 29.03125 6.976562 29.125 C 7.261719 29.523438 7.339844 29.613281 7.820312 29.78125 C 8.355469 29.742188 8.507812 29.636719 8.875 29.25 C 8.988281 29.09375 9.101562 28.9375 9.210938 28.78125 C 9.304688 28.648438 9.402344 28.511719 9.5 28.375 Z M 9.5 28.375 "/>
<path style=" stroke:none;fill-rule:nonzero;fill:rgb(37.64706%,37.64706%,37.64706%);fill-opacity:1;" d="M 22.261719 11.472656 C 22.5 11.5 22.5 11.5 22.75 11.75 C 22.75 11.875 22.75 11.996094 22.75 12.125 C 22.347656 12.328125 21.945312 12.257812 21.5 12.25 C 21.453125 12.042969 21.410156 11.835938 21.375 11.625 C 21.613281 11.390625 21.945312 11.476562 22.261719 11.472656 Z M 22.261719 11.472656 "/>
<path style=" stroke:none;fill-rule:nonzero;fill:rgb(39.215687%,39.215687%,39.215687%);fill-opacity:1;" d="M 24.761719 18.234375 C 25 18.25 25 18.25 25.25 18.375 C 25.207031 18.582031 25.167969 18.789062 25.125 19 C 24.753906 18.957031 24.382812 18.917969 24 18.875 C 23.957031 18.710938 23.917969 18.542969 23.875 18.375 C 24.113281 18.136719 24.445312 18.234375 24.761719 18.234375 Z M 24.761719 18.234375 "/>
<path style=" stroke:none;fill-rule:nonzero;fill:rgb(39.215687%,39.215687%,39.215687%);fill-opacity:1;" d="M 19.78125 12.15625 C 19.890625 12.203125 19.890625 12.203125 20 12.25 C 20 12.75 20 12.75 19.71875 13.039062 C 19.375 13.25 19.375 13.25 19.085938 13.21875 C 19.015625 13.1875 18.945312 13.15625 18.875 13.125 C 18.949219 12.613281 19.203125 12.09375 19.78125 12.15625 Z M 19.78125 12.15625 "/>
<path style=" stroke:none;fill-rule:nonzero;fill:rgb(39.607844%,39.607844%,39.607844%);fill-opacity:1;" d="M 28.625 26.375 C 28.789062 26.417969 28.953125 26.457031 29.125 26.5 C 29.0625 26.964844 29.015625 27.226562 28.75 27.625 C 28.542969 27.582031 28.335938 27.542969 28.125 27.5 C 28.207031 27.0625 28.386719 26.746094 28.625 26.375 Z M 28.625 26.375 "/>
<path style=" stroke:none;fill-rule:nonzero;fill:rgb(39.607844%,39.607844%,39.607844%);fill-opacity:1;" d="M 26.625 19.125 C 27.101562 19.191406 27.382812 19.3125 27.75 19.625 C 27.707031 19.789062 27.667969 19.953125 27.625 20.125 C 27.148438 20.058594 26.867188 19.9375 26.5 19.625 C 26.542969 19.460938 26.582031 19.296875 26.625 19.125 Z M 26.625 19.125 "/>
<path style=" stroke:none;fill-rule:nonzero;fill:rgb(40.392157%,40.392157%,40.392157%);fill-opacity:1;" d="M 27.375 28.625 C 27.351562 28.851562 27.351562 28.851562 27.25 29.125 C 26.960938 29.351562 26.960938 29.351562 26.625 29.5 C 26.335938 29.460938 26.335938 29.460938 26.125 29.375 C 26.171875 29.039062 26.230469 28.894531 26.46875 28.648438 C 26.824219 28.460938 26.996094 28.511719 27.375 28.625 Z M 27.375 28.625 "/>
<path style=" stroke:none;fill-rule:nonzero;fill:rgb(40.000001%,40.000001%,40.000001%);fill-opacity:1;" d="M 28.5 21.125 C 28.664062 21.125 28.828125 21.125 29 21.125 C 29.386719 21.800781 29.386719 21.800781 29.335938 22.171875 C 29.308594 22.238281 29.277344 22.304688 29.25 22.375 C 29.023438 22.351562 29.023438 22.351562 28.75 22.25 C 28.523438 21.960938 28.523438 21.960938 28.375 21.625 C 28.414062 21.335938 28.414062 21.335938 28.5 21.125 Z M 28.5 21.125 "/>
<path style=" stroke:none;fill-rule:nonzero;fill:rgb(40.784314%,40.784314%,40.784314%);fill-opacity:1;" d="M 23.882812 29.488281 C 24.039062 29.492188 24.039062 29.492188 24.195312 29.492188 C 24.296875 29.492188 24.402344 29.492188 24.507812 29.496094 C 24.589844 29.496094 24.667969 29.5 24.75 29.5 C 24.820312 29.742188 24.820312 29.742188 24.875 30 C 24.75 30.125 24.75 30.125 24.492188 30.136719 C 24.386719 30.136719 24.285156 30.132812 24.179688 30.132812 C 24.074219 30.132812 23.972656 30.128906 23.867188 30.128906 C 23.785156 30.128906 23.707031 30.125 23.625 30.125 C 23.554688 29.882812 23.554688 29.882812 23.5 29.625 C 23.625 29.5 23.625 29.5 23.882812 29.488281 Z M 23.882812 29.488281 "/>
<path style=" stroke:none;fill-rule:nonzero;fill:rgb(40.784314%,40.784314%,40.784314%);fill-opacity:1;" d="M 29.25 23.75 C 29.496094 23.8125 29.496094 23.8125 29.75 23.875 C 29.75 24.246094 29.75 24.617188 29.75 25 C 29.585938 25.042969 29.421875 25.082031 29.25 25.125 C 29.125 25 29.125 25 29.109375 24.746094 C 29.109375 24.644531 29.109375 24.542969 29.109375 24.4375 C 29.109375 24.335938 29.109375 24.234375 29.109375 24.128906 C 29.125 23.875 29.125 23.875 29.25 23.75 Z M 29.25 23.75 "/>
<path style=" stroke:none;fill-rule:nonzero;fill:rgb(40.784314%,40.784314%,40.784314%);fill-opacity:1;" d="M 21.507812 18.238281 C 21.664062 18.242188 21.664062 18.242188 21.820312 18.242188 C 21.921875 18.242188 22.027344 18.242188 22.132812 18.246094 C 22.214844 18.246094 22.292969 18.25 22.375 18.25 C 22.445312 18.492188 22.445312 18.492188 22.5 18.75 C 22.375 18.875 22.375 18.875 22.117188 18.886719 C 22.011719 18.886719 21.910156 18.882812 21.804688 18.882812 C 21.699219 18.882812 21.597656 18.878906 21.492188 18.878906 C 21.410156 18.878906 21.332031 18.875 21.25 18.875 C 21.179688 18.632812 21.179688 18.632812 21.125 18.375 C 21.25 18.25 21.25 18.25 21.507812 18.238281 Z M 21.507812 18.238281 "/>
<path style=" stroke:none;fill-rule:nonzero;fill:rgb(40.784314%,40.784314%,40.784314%);fill-opacity:1;" d="M 18.875 17 C 19.347656 17.066406 19.578125 17.253906 19.875 17.625 C 19.875 17.789062 19.875 17.953125 19.875 18.125 C 19.480469 18.082031 19.273438 18.015625 18.953125 17.773438 C 18.75 17.5 18.75 17.5 18.78125 17.21875 C 18.8125 17.144531 18.84375 17.074219 18.875 17 Z M 18.875 17 "/>
<path style=" stroke:none;fill-rule:nonzero;fill:rgb(40.784314%,40.784314%,40.784314%);fill-opacity:1;" d="M 18.25 14.375 C 18.375 14.417969 18.496094 14.457031 18.625 14.5 C 18.625 14.914062 18.625 15.324219 18.625 15.75 C 18.417969 15.707031 18.210938 15.667969 18 15.625 C 17.976562 14.867188 17.976562 14.867188 18 14.625 C 18.082031 14.542969 18.164062 14.460938 18.25 14.375 Z M 18.25 14.375 "/>
<path style=" stroke:none;fill-rule:nonzero;fill:rgb(6.666667%,9.019608%,8.235294%);fill-opacity:1;" d="M 28.375 10.875 C 28.457031 10.875 28.539062 10.875 28.625 10.875 C 28.550781 11.363281 28.355469 11.664062 28 12 C 27.546875 12.0625 27.265625 12.101562 26.882812 11.828125 C 26.75 11.625 26.75 11.625 26.75 11.375 C 27.25 11.5 27.25 11.5 27.75 11.625 C 27.847656 11.5 27.945312 11.378906 28.046875 11.25 C 28.15625 11.125 28.265625 11.003906 28.375 10.875 Z M 28.375 10.875 "/>
<path style=" stroke:none;fill-rule:nonzero;fill:rgb(41.960785%,41.960785%,41.960785%);fill-opacity:1;" d="M 20.875 29.5 C 21.203125 29.5 21.535156 29.5 21.875 29.5 C 21.917969 29.707031 21.957031 29.914062 22 30.125 C 21.585938 30.125 21.175781 30.125 20.75 30.125 C 20.792969 29.917969 20.832031 29.710938 20.875 29.5 Z M 20.875 29.5 "/>
<path style=" stroke:none;fill-rule:nonzero;fill:rgb(41.960785%,41.960785%,41.960785%);fill-opacity:1;" d="M 18.125 29.5 C 18.453125 29.5 18.785156 29.5 19.125 29.5 C 19.167969 29.707031 19.207031 29.914062 19.25 30.125 C 18.835938 30.125 18.425781 30.125 18 30.125 C 18.042969 29.917969 18.082031 29.710938 18.125 29.5 Z M 18.125 29.5 "/>
<path style=" stroke:none;fill-rule:nonzero;fill:rgb(41.960785%,41.960785%,41.960785%);fill-opacity:1;" d="M 15.375 29.5 C 15.703125 29.5 16.035156 29.5 16.375 29.5 C 16.417969 29.707031 16.457031 29.914062 16.5 30.125 C 16.085938 30.125 15.675781 30.125 15.25 30.125 C 15.292969 29.917969 15.332031 29.710938 15.375 29.5 Z M 15.375 29.5 "/>
<path style=" stroke:none;fill-rule:nonzero;fill:rgb(3.921569%,6.27451%,5.098039%);fill-opacity:1;" d="M 26.75 11.375 C 27.183594 11.457031 27.507812 11.628906 27.875 11.875 C 27.875 11.917969 27.875 11.957031 27.875 12 C 27.1875 12.046875 27.1875 12.046875 26.890625 11.828125 C 26.75 11.625 26.75 11.625 26.75 11.375 Z M 26.75 11.375 "/>
</g>
</svg>
