<?xml version="1.0" encoding="UTF-8"?>
<svg xmlns="http://www.w3.org/2000/svg" xmlns:xlink="http://www.w3.org/1999/xlink" width="32" height="32" viewBox="0 0 32 32" version="1.1">
<g id="surface1">
<path style=" stroke:none;fill-rule:nonzero;fill:rgb(94.901961%,34.901962%,23.137255%);fill-opacity:1;" d="M 22.5 0 C 23.160156 0 23.820312 0 24.5 0 C 24.640625 2.9375 23.402344 5.753906 22.34375 8.429688 C 20.058594 14.238281 20.746094 19.640625 23 25.304688 C 23.875 27.503906 24.535156 29.613281 24.5 32 C 23.839844 32 23.179688 32 22.5 32 C 22.484375 31.851562 22.472656 31.699219 22.457031 31.546875 C 22.171875 28.933594 21.230469 26.546875 20.265625 24.128906 C 17.808594 17.929688 18.683594 11.9375 21 5.875 C 21.746094 3.910156 22.265625 2.09375 22.5 0 Z M 22.5 0 "/>
<path style=" stroke:none;fill-rule:nonzero;fill:rgb(94.901961%,34.901962%,23.137255%);fill-opacity:1;" d="M 7.5 0 C 8.160156 0 8.820312 0 9.5 0 C 9.515625 0.15625 9.53125 0.308594 9.546875 0.46875 C 9.835938 3.03125 10.753906 5.332031 11.683594 7.71875 C 14.125 14.019531 13.394531 20.085938 10.953125 26.253906 C 10.363281 27.742188 9.851562 29.191406 9.65625 30.789062 C 9.640625 30.90625 9.625 31.023438 9.609375 31.144531 C 9.570312 31.429688 9.535156 31.714844 9.5 32 C 8.839844 32 8.179688 32 7.5 32 C 7.375 29.394531 8.359375 26.984375 9.269531 24.597656 C 11.675781 18.316406 11.472656 12.910156 9 6.695312 C 8.125 4.496094 7.464844 2.386719 7.5 0 Z M 7.5 0 "/>
<path style=" stroke:none;fill-rule:nonzero;fill:rgb(94.901961%,36.078432%,23.529412%);fill-opacity:1;" d="M 15 0 C 15.660156 0 16.320312 0 17 0 C 17 10.558594 17 21.121094 17 32 C 16.339844 32 15.679688 32 15 32 C 15 21.441406 15 10.878906 15 0 Z M 15 0 "/>
<path style=" stroke:none;fill-rule:nonzero;fill:rgb(22.745098%,28.627452%,31.37255%);fill-opacity:1;" d="M 28.59375 8.757812 C 29.011719 8.933594 29.296875 9.238281 29.613281 9.554688 C 29.679688 9.621094 29.75 9.691406 29.820312 9.757812 C 29.964844 9.902344 30.109375 10.046875 30.253906 10.191406 C 30.476562 10.414062 30.699219 10.632812 30.925781 10.851562 C 31.066406 10.992188 31.207031 11.132812 31.347656 11.273438 C 31.414062 11.335938 31.480469 11.402344 31.550781 11.46875 C 31.734375 11.660156 31.734375 11.660156 32 12 C 31.941406 12.570312 31.542969 12.878906 31.152344 13.257812 C 31.082031 13.332031 31.007812 13.402344 30.933594 13.476562 C 30.703125 13.703125 30.472656 13.929688 30.242188 14.15625 C 30.085938 14.3125 29.929688 14.464844 29.773438 14.621094 C 29.394531 14.996094 29.007812 15.375 28.625 15.75 C 28.199219 15.550781 27.921875 15.324219 27.59375 14.984375 C 27.503906 14.894531 27.417969 14.804688 27.328125 14.710938 C 27.261719 14.640625 27.195312 14.570312 27.125 14.5 C 27.339844 14.03125 27.625 13.730469 28 13.375 C 27.097656 13.316406 26.371094 13.320312 25.625 13.875 C 24.953125 14.496094 24.660156 15.070312 24.585938 15.992188 C 24.609375 16.75 24.925781 17.394531 25.429688 17.957031 C 26.175781 18.597656 27.066406 18.699219 28.007812 18.699219 C 28.179688 18.703125 28.179688 18.703125 28.355469 18.707031 C 28.71875 18.714844 29.082031 18.714844 29.445312 18.71875 C 29.691406 18.722656 29.941406 18.726562 30.1875 18.730469 C 30.792969 18.738281 31.394531 18.746094 32 18.75 C 32 19.410156 32 20.070312 32 20.75 C 31.265625 20.761719 30.527344 20.773438 29.792969 20.777344 C 29.542969 20.78125 29.292969 20.785156 29.042969 20.789062 C 25.414062 20.847656 25.414062 20.847656 24 19.5 C 22.992188 18.519531 22.492188 17.449219 22.46875 16.039062 C 22.484375 14.707031 22.917969 13.640625 23.8125 12.65625 C 23.914062 12.5625 24.019531 12.472656 24.125 12.375 C 24.265625 12.246094 24.265625 12.246094 24.40625 12.117188 C 25.277344 11.503906 26.167969 11.253906 27.21875 11.179688 C 27.4375 11.164062 27.4375 11.164062 27.664062 11.148438 C 27.773438 11.140625 27.886719 11.132812 28 11.125 C 27.710938 10.835938 27.421875 10.546875 27.125 10.25 C 27.347656 9.808594 27.523438 9.558594 27.859375 9.210938 C 27.988281 9.074219 27.988281 9.074219 28.117188 8.941406 C 28.375 8.75 28.375 8.75 28.59375 8.757812 Z M 28.59375 8.757812 "/>
<path style=" stroke:none;fill-rule:nonzero;fill:rgb(34.509805%,41.960785%,45.490196%);fill-opacity:1;" d="M 3.527344 8.753906 C 3.859375 8.933594 4.085938 9.175781 4.34375 9.445312 C 4.441406 9.546875 4.542969 9.652344 4.648438 9.757812 C 4.722656 9.839844 4.796875 9.917969 4.875 10 C 4.679688 10.476562 4.371094 10.773438 4 11.125 C 4.203125 11.140625 4.203125 11.140625 4.410156 11.152344 C 5.90625 11.277344 7.253906 11.585938 8.308594 12.742188 C 9.332031 14.121094 9.539062 15.449219 9.375 17.125 C 9.101562 18.285156 8.445312 19.246094 7.480469 19.945312 C 6.40625 20.582031 5.3125 20.808594 4.078125 20.785156 C 3.902344 20.785156 3.902344 20.785156 3.722656 20.785156 C 3.351562 20.78125 2.980469 20.777344 2.609375 20.773438 C 2.355469 20.773438 2.101562 20.769531 1.847656 20.769531 C 1.234375 20.765625 0.617188 20.757812 0 20.75 C 0 20.089844 0 19.429688 0 18.75 C 0.148438 18.746094 0.300781 18.746094 0.453125 18.746094 C 1.015625 18.738281 1.574219 18.726562 2.132812 18.714844 C 2.375 18.714844 2.617188 18.710938 2.859375 18.707031 C 3.207031 18.703125 3.558594 18.695312 3.90625 18.6875 C 4.011719 18.6875 4.121094 18.6875 4.230469 18.6875 C 5.183594 18.664062 6.0625 18.457031 6.75 17.75 C 7.316406 16.984375 7.371094 16.175781 7.25 15.25 C 7.03125 14.507812 6.632812 14.054688 6 13.625 C 5.339844 13.308594 4.71875 13.355469 4 13.375 C 4.289062 13.664062 4.578125 13.953125 4.875 14.25 C 4.644531 14.707031 4.46875 14.933594 4.109375 15.28125 C 4.019531 15.371094 3.929688 15.457031 3.835938 15.550781 C 3.765625 15.617188 3.695312 15.683594 3.625 15.75 C 3.117188 15.546875 2.769531 15.1875 2.386719 14.808594 C 2.320312 14.742188 2.25 14.675781 2.179688 14.605469 C 2.035156 14.460938 1.890625 14.316406 1.746094 14.171875 C 1.523438 13.953125 1.300781 13.734375 1.074219 13.519531 C 0.933594 13.378906 0.792969 13.238281 0.652344 13.097656 C 0.585938 13.035156 0.519531 12.96875 0.449219 12.902344 C 0.0078125 12.453125 0.0078125 12.453125 -0.0195312 12.125 C 0.199219 11.746094 0.496094 11.445312 0.804688 11.136719 C 0.871094 11.070312 0.941406 11 1.007812 10.929688 C 1.152344 10.785156 1.296875 10.640625 1.441406 10.496094 C 1.664062 10.273438 1.882812 10.050781 2.101562 9.824219 C 2.242188 9.683594 2.382812 9.542969 2.523438 9.402344 C 2.585938 9.335938 2.652344 9.269531 2.71875 9.199219 C 3.179688 8.746094 3.179688 8.746094 3.527344 8.753906 Z M 3.527344 8.753906 "/>
<path style=" stroke:none;fill-rule:nonzero;fill:rgb(100%,56.078434%,24.705882%);fill-opacity:1;" d="M 15 0 C 15.328125 0 15.660156 0 16 0 C 16 10.558594 16 21.121094 16 32 C 15.671875 32 15.339844 32 15 32 C 15 21.441406 15 10.878906 15 0 Z M 15 0 "/>
</g>
</svg>
