<?xml version="1.0" encoding="UTF-8"?>
<svg xmlns="http://www.w3.org/2000/svg" xmlns:xlink="http://www.w3.org/1999/xlink" width="32" height="32" viewBox="0 0 32 32" version="1.1">
<g id="surface1">
<path style=" stroke:none;fill-rule:nonzero;fill:rgb(94.509804%,0%,31.764707%);fill-opacity:1;" d="M 26.074219 3.417969 C 26.523438 3.808594 26.949219 4.214844 27.375 4.625 C 27.464844 4.707031 27.554688 4.789062 27.648438 4.875 C 28.433594 5.609375 29.027344 6.480469 29.625 7.375 C 29.703125 7.492188 29.78125 7.609375 29.863281 7.730469 C 32.019531 11.160156 32.625 15.710938 31.738281 19.644531 C 30.679688 23.804688 28.195312 27.472656 24.5 29.726562 C 23.070312 30.570312 21.59375 31.171875 20 31.625 C 19.851562 31.667969 19.707031 31.710938 19.554688 31.753906 C 15.566406 32.695312 11.066406 31.898438 7.585938 29.792969 C 3.949219 27.507812 1.535156 24.101562 0.375 20 C 0.332031 19.851562 0.289062 19.707031 0.246094 19.554688 C -0.703125 15.539062 0.117188 11.03125 2.253906 7.535156 C 2.871094 6.570312 3.582031 5.703125 4.375 4.875 C 4.476562 4.765625 4.578125 4.65625 4.679688 4.539062 C 6.667969 2.441406 9.242188 1.15625 12 0.375 C 12.148438 0.332031 12.292969 0.289062 12.445312 0.246094 C 17.070312 -0.847656 22.441406 0.367188 26.074219 3.417969 Z M 26.074219 3.417969 "/>
<path style=" stroke:none;fill-rule:nonzero;fill:rgb(99.607843%,0.392157%,34.901962%);fill-opacity:1;" d="M 26.074219 3.417969 C 26.523438 3.808594 26.949219 4.214844 27.375 4.625 C 27.464844 4.707031 27.554688 4.789062 27.648438 4.875 C 28.539062 5.707031 29.199219 6.738281 29.875 7.75 C 29.765625 8.828125 28.707031 9.851562 28.003906 10.597656 C 27.734375 10.882812 27.734375 10.882812 27.453125 11.257812 C 26.945312 11.828125 26.351562 12.285156 25.75 12.75 C 25.65625 12.824219 25.5625 12.898438 25.464844 12.972656 C 23.480469 14.445312 21.292969 15.3125 18.875 15.75 C 18.835938 19.542969 18.792969 23.339844 18.75 27.25 C 19.203125 27.25 19.65625 27.25 20.125 27.25 C 20.125 28.15625 20.125 29.066406 20.125 30 C 17.980469 30 15.835938 30 13.625 30 C 13.625 29.09375 13.625 28.183594 13.625 27.25 C 14.078125 27.207031 14.53125 27.167969 15 27.125 C 14.957031 27.035156 14.914062 26.949219 14.871094 26.859375 C 14.816406 26.742188 14.761719 26.621094 14.703125 26.5 C 14.648438 26.382812 14.59375 26.269531 14.535156 26.148438 C 14.1875 25.285156 14.078125 24.507812 14.085938 23.585938 C 14.085938 23.480469 14.085938 23.378906 14.085938 23.269531 C 14.101562 22.398438 14.1875 21.554688 14.621094 20.78125 C 14.992188 20.117188 15.074219 19.582031 15.078125 18.828125 C 15.09375 17.78125 15.09375 17.78125 15.375 17.5 C 15.726562 17.445312 15.726562 17.445312 16.125 17.5 C 16.332031 17.707031 16.539062 17.910156 16.75 18.125 C 16.792969 17.421875 16.832031 16.722656 16.875 16 C 16.527344 16.007812 16.183594 16.015625 15.828125 16.023438 C 13.152344 16.035156 10.65625 15.320312 8.28125 14.109375 C 8.179688 14.058594 8.078125 14.007812 7.972656 13.953125 C 7.878906 13.90625 7.785156 13.855469 7.6875 13.804688 C 7.609375 13.761719 7.523438 13.71875 7.441406 13.671875 C 7.171875 13.429688 7.179688 13.230469 7.125 12.875 C 7.113281 12.628906 7.109375 12.382812 7.109375 12.136719 C 7.109375 11.992188 7.109375 11.847656 7.109375 11.699219 C 7.113281 11.542969 7.113281 11.386719 7.113281 11.226562 C 7.113281 11.066406 7.113281 10.910156 7.113281 10.742188 C 7.113281 10.320312 7.117188 9.894531 7.117188 9.472656 C 7.117188 9.039062 7.117188 8.605469 7.117188 8.171875 C 7.121094 7.324219 7.121094 6.472656 7.125 5.625 C 6.011719 5.625 4.898438 5.625 3.75 5.625 C 6.019531 2.980469 8.648438 1.324219 12 0.375 C 12.148438 0.332031 12.292969 0.289062 12.445312 0.246094 C 17.070312 -0.847656 22.441406 0.367188 26.074219 3.417969 Z M 26.074219 3.417969 "/>
<path style=" stroke:none;fill-rule:nonzero;fill:rgb(94.901961%,0%,31.764707%);fill-opacity:1;" d="M 29.875 8 C 30.367188 8.542969 30.613281 9.117188 30.875 9.789062 C 30.941406 9.953125 30.941406 9.953125 31.007812 10.121094 C 32.546875 14.121094 32.414062 18.660156 30.75 22.59375 C 28.992188 26.523438 25.707031 29.53125 21.714844 31.089844 C 21.25 31.25 21.25 31.25 20.875 31.25 C 20.875 30.835938 20.875 30.425781 20.875 30 C 20.628906 30 20.378906 30 20.125 30 C 20.125 29.09375 20.125 28.183594 20.125 27.25 C 19.671875 27.25 19.21875 27.25 18.75 27.25 C 18.75 22.753906 18.75 18.257812 18.75 13.625 C 18.792969 13.625 18.832031 13.625 18.875 13.625 C 18.875 14.328125 18.875 15.027344 18.875 15.75 C 23.230469 14.664062 26.761719 12.511719 29.3125 8.773438 C 29.492188 8.511719 29.679688 8.253906 29.875 8 Z M 29.875 8 "/>
<path style=" stroke:none;fill-rule:nonzero;fill:rgb(99.607843%,80.000001%,74.117649%);fill-opacity:1;" d="M 7.125 6.25 C 8.03125 6.25 8.941406 6.25 9.875 6.25 C 9.875 6.746094 9.875 7.238281 9.875 7.75 C 10.046875 7.75 10.21875 7.75 10.398438 7.746094 C 12.023438 7.738281 13.648438 7.734375 15.277344 7.730469 C 16.113281 7.730469 16.949219 7.726562 17.785156 7.722656 C 18.589844 7.71875 19.398438 7.714844 20.203125 7.714844 C 20.511719 7.714844 20.820312 7.710938 21.128906 7.710938 C 21.558594 7.707031 21.988281 7.707031 22.421875 7.707031 C 22.546875 7.707031 22.675781 7.703125 22.808594 7.703125 C 22.925781 7.703125 23.042969 7.703125 23.164062 7.703125 C 23.265625 7.703125 23.367188 7.703125 23.472656 7.703125 C 23.820312 7.761719 23.992188 7.890625 24.25 8.125 C 24.316406 8.367188 24.316406 8.367188 24.3125 8.625 C 24.316406 8.753906 24.316406 8.753906 24.316406 8.882812 C 24.25 9.125 24.25 9.125 24.066406 9.324219 C 23.589844 9.585938 23.144531 9.558594 22.609375 9.5625 C 22.496094 9.566406 22.386719 9.570312 22.273438 9.570312 C 21.921875 9.578125 21.570312 9.582031 21.21875 9.585938 C 20.980469 9.589844 20.742188 9.59375 20.503906 9.597656 C 19.917969 9.609375 19.332031 9.617188 18.75 9.625 C 18.867188 9.699219 18.988281 9.773438 19.109375 9.851562 C 19.5 10.125 19.5 10.125 19.75 10.5 C 19.710938 10.914062 19.671875 11.078125 19.375 11.375 C 19.019531 11.398438 18.671875 11.410156 18.320312 11.414062 C 17.472656 11.441406 16.820312 11.542969 16.070312 11.96875 C 15.277344 12.359375 14.472656 12.421875 13.601562 12.421875 C 13.445312 12.421875 13.445312 12.421875 13.289062 12.421875 C 12.078125 12.398438 11.070312 12.050781 10 11.5 C 10 11.953125 10 12.40625 10 12.875 C 9.050781 12.875 8.101562 12.875 7.125 12.875 C 7.125 10.6875 7.125 8.503906 7.125 6.25 Z M 7.125 6.25 "/>
<path style=" stroke:none;fill-rule:nonzero;fill:rgb(99.607843%,79.215688%,73.725492%);fill-opacity:1;" d="M 18.25 12.875 C 18.519531 13.046875 18.519531 13.046875 18.75 13.375 C 18.824219 13.816406 18.8125 14.257812 18.804688 14.703125 C 18.804688 14.839844 18.808594 14.976562 18.808594 15.117188 C 18.804688 15.5625 18.800781 16.011719 18.796875 16.457031 C 18.796875 16.769531 18.796875 17.078125 18.796875 17.390625 C 18.796875 18.125 18.792969 18.859375 18.785156 19.589844 C 18.78125 20.507812 18.777344 21.425781 18.773438 22.34375 C 18.769531 23.980469 18.761719 25.613281 18.75 27.25 C 19.203125 27.25 19.65625 27.25 20.125 27.25 C 20.125 28.15625 20.125 29.066406 20.125 30 C 17.980469 30 15.835938 30 13.625 30 C 13.625 29.09375 13.625 28.183594 13.625 27.25 C 14.304688 27.1875 14.304688 27.1875 15 27.125 C 14.9375 26.992188 14.9375 26.992188 14.871094 26.859375 C 14.816406 26.742188 14.761719 26.621094 14.703125 26.5 C 14.648438 26.382812 14.59375 26.265625 14.535156 26.148438 C 14.1875 25.285156 14.078125 24.507812 14.085938 23.585938 C 14.085938 23.480469 14.085938 23.378906 14.085938 23.269531 C 14.105469 22.398438 14.1875 21.554688 14.621094 20.78125 C 14.988281 20.117188 15.074219 19.582031 15.078125 18.828125 C 15.09375 17.78125 15.09375 17.78125 15.375 17.5 C 15.726562 17.445312 15.726562 17.445312 16.125 17.5 C 16.445312 17.769531 16.6875 17.996094 16.875 18.375 C 16.875 18.226562 16.878906 18.078125 16.878906 17.921875 C 16.882812 17.371094 16.890625 16.820312 16.902344 16.265625 C 16.90625 16.027344 16.90625 15.789062 16.910156 15.546875 C 16.910156 15.203125 16.917969 14.859375 16.921875 14.515625 C 16.921875 14.410156 16.921875 14.304688 16.921875 14.195312 C 16.941406 13.453125 16.941406 13.453125 17.230469 13.058594 C 17.601562 12.808594 17.8125 12.800781 18.25 12.875 Z M 18.25 12.875 "/>
<path style=" stroke:none;fill-rule:nonzero;fill:rgb(22.352941%,17.647059%,43.137255%);fill-opacity:1;" d="M 3.625 5.625 C 4.78125 5.625 5.933594 5.625 7.125 5.625 C 7.125 8.222656 7.125 10.824219 7.125 13.5 C 4.816406 13.5 2.503906 13.5 0.125 13.5 C 0.421875 11.734375 0.421875 11.734375 0.703125 10.90625 C 0.734375 10.8125 0.765625 10.714844 0.800781 10.617188 C 1.457031 8.757812 2.445312 7.199219 3.625 5.625 Z M 3.625 5.625 "/>
<path style=" stroke:none;fill-rule:nonzero;fill:rgb(98.431373%,72.549021%,66.274512%);fill-opacity:1;" d="M 7.125 6.25 C 7.167969 6.25 7.207031 6.25 7.25 6.25 C 7.25 8.394531 7.25 10.539062 7.25 12.75 C 8.117188 12.75 8.984375 12.75 9.875 12.75 C 9.871094 12.5625 9.871094 12.375 9.867188 12.179688 C 9.875 11.285156 9.941406 10.390625 10 9.5 C 11.691406 9.5 13.382812 9.5 15.125 9.5 C 15.125 9.210938 15.125 8.921875 15.125 8.625 C 18.136719 8.625 21.148438 8.625 24.25 8.625 C 24.207031 8.832031 24.167969 9.039062 24.125 9.25 C 23.75 9.5 23.671875 9.53125 23.25 9.539062 C 23.148438 9.542969 23.046875 9.546875 22.945312 9.546875 C 22.785156 9.550781 22.785156 9.550781 22.621094 9.550781 C 22.507812 9.554688 22.398438 9.554688 22.285156 9.558594 C 21.933594 9.566406 21.578125 9.574219 21.226562 9.578125 C 20.988281 9.582031 20.75 9.585938 20.507812 9.59375 C 19.921875 9.605469 19.335938 9.613281 18.75 9.625 C 18.867188 9.699219 18.988281 9.773438 19.109375 9.851562 C 19.5 10.125 19.5 10.125 19.75 10.5 C 19.710938 10.914062 19.671875 11.078125 19.375 11.375 C 19.019531 11.398438 18.671875 11.410156 18.320312 11.414062 C 17.472656 11.441406 16.820312 11.542969 16.070312 11.96875 C 15.277344 12.359375 14.472656 12.421875 13.601562 12.421875 C 13.445312 12.421875 13.445312 12.421875 13.289062 12.421875 C 12.078125 12.398438 11.070312 12.050781 10 11.5 C 10 11.953125 10 12.40625 10 12.875 C 9.050781 12.875 8.101562 12.875 7.125 12.875 C 7.125 10.6875 7.125 8.503906 7.125 6.25 Z M 7.125 6.25 "/>
<path style=" stroke:none;fill-rule:nonzero;fill:rgb(100%,74.117649%,66.274512%);fill-opacity:1;" d="M 17.875 12.8125 C 18.25 12.875 18.25 12.875 18.519531 13.046875 C 18.882812 13.566406 18.816406 14.078125 18.804688 14.695312 C 18.804688 14.828125 18.808594 14.960938 18.808594 15.101562 C 18.804688 15.542969 18.800781 15.988281 18.796875 16.429688 C 18.796875 16.738281 18.796875 17.046875 18.796875 17.355469 C 18.796875 18.164062 18.789062 18.972656 18.785156 19.785156 C 18.777344 20.609375 18.777344 21.433594 18.773438 22.261719 C 18.769531 23.882812 18.761719 25.503906 18.75 27.125 C 18.132812 27.125 17.511719 27.125 16.875 27.125 C 16.851562 18.789062 16.851562 18.789062 16.902344 15.832031 C 16.90625 15.609375 16.90625 15.390625 16.910156 15.171875 C 16.910156 14.871094 16.917969 14.574219 16.921875 14.273438 C 16.925781 14.109375 16.929688 13.949219 16.929688 13.777344 C 17.035156 13.175781 17.269531 12.914062 17.875 12.8125 Z M 17.875 12.8125 "/>
<path style=" stroke:none;fill-rule:nonzero;fill:rgb(27.058825%,22.745098%,51.764709%);fill-opacity:1;" d="M 5.421875 5.5625 C 6.265625 5.59375 6.265625 5.59375 7.125 5.625 C 7.125 6.902344 7.125 8.183594 7.125 9.5 C 5.226562 9.5 3.328125 9.5 1.375 9.5 C 1.65625 8.515625 1.65625 8.515625 1.898438 8.136719 C 1.972656 8.011719 1.972656 8.011719 2.054688 7.886719 C 2.109375 7.800781 2.164062 7.71875 2.21875 7.632812 C 2.269531 7.550781 2.324219 7.464844 2.375 7.382812 C 2.484375 7.210938 2.59375 7.046875 2.707031 6.882812 C 2.878906 6.625 2.878906 6.625 3.019531 6.339844 C 3.582031 5.367188 4.398438 5.511719 5.421875 5.5625 Z M 5.421875 5.5625 "/>
<path style=" stroke:none;fill-rule:nonzero;fill:rgb(89.411765%,94.117647%,97.254902%);fill-opacity:1;" d="M 13.625 27.25 C 15.769531 27.25 17.914062 27.25 20.125 27.25 C 20.125 28.15625 20.125 29.066406 20.125 30 C 17.980469 30 15.835938 30 13.625 30 C 13.625 29.09375 13.625 28.183594 13.625 27.25 Z M 13.625 27.25 "/>
<path style=" stroke:none;fill-rule:nonzero;fill:rgb(89.411765%,94.117647%,97.254902%);fill-opacity:1;" d="M 7.25 6.25 C 8.117188 6.25 8.984375 6.25 9.875 6.25 C 9.875 8.394531 9.875 10.539062 9.875 12.75 C 9.007812 12.75 8.140625 12.75 7.25 12.75 C 7.25 10.605469 7.25 8.460938 7.25 6.25 Z M 7.25 6.25 "/>
<path style=" stroke:none;fill-rule:nonzero;fill:rgb(27.450982%,23.137255%,51.372552%);fill-opacity:1;" d="M 13 30 C 15.597656 30 18.199219 30 20.875 30 C 20.875 30.453125 20.875 30.90625 20.875 31.375 C 20.558594 31.457031 20.246094 31.539062 19.929688 31.617188 C 19.839844 31.640625 19.753906 31.664062 19.664062 31.6875 C 19.574219 31.707031 19.488281 31.730469 19.398438 31.753906 C 19.320312 31.773438 19.238281 31.792969 19.15625 31.816406 C 18.460938 31.964844 17.78125 32.015625 17.070312 32.015625 C 16.941406 32.015625 16.941406 32.015625 16.8125 32.015625 C 16.632812 32.015625 16.453125 32.015625 16.273438 32.015625 C 16 32.015625 15.730469 32.015625 15.457031 32.015625 C 15.28125 32.015625 15.105469 32.015625 14.929688 32.015625 C 14.773438 32.015625 14.613281 32.015625 14.453125 32.015625 C 13.222656 31.972656 13.222656 31.972656 13 31.75 C 13 31.171875 13 30.59375 13 30 Z M 13 30 "/>
<path style=" stroke:none;fill-rule:nonzero;fill:rgb(81.568629%,90.588236%,99.607843%);fill-opacity:1;" d="M 17 27.25 C 18.03125 27.25 19.0625 27.25 20.125 27.25 C 20.125 28.15625 20.125 29.066406 20.125 30 C 19.09375 30 18.0625 30 17 30 C 17 29.09375 17 28.183594 17 27.25 Z M 17 27.25 "/>
<path style=" stroke:none;fill-rule:nonzero;fill:rgb(81.568629%,90.980393%,100%);fill-opacity:1;" d="M 7.25 9.625 C 8.117188 9.625 8.984375 9.625 9.875 9.625 C 9.875 10.65625 9.875 11.6875 9.875 12.75 C 9.007812 12.75 8.140625 12.75 7.25 12.75 C 7.25 11.71875 7.25 10.6875 7.25 9.625 Z M 7.25 9.625 "/>
<path style=" stroke:none;fill-rule:nonzero;fill:rgb(99.607843%,64.705884%,54.901963%);fill-opacity:1;" d="M 18.25 12.875 C 18.125 12.917969 18.003906 12.957031 17.875 13 C 17.875 15.96875 17.875 18.941406 17.875 22 C 17.585938 22 17.296875 22 17 22 C 16.886719 20.058594 16.859375 18.121094 16.890625 16.175781 C 16.894531 15.9375 16.898438 15.703125 16.902344 15.464844 C 16.90625 15.128906 16.910156 14.789062 16.921875 14.453125 C 16.921875 14.351562 16.921875 14.25 16.921875 14.144531 C 16.933594 13.699219 16.960938 13.425781 17.230469 13.058594 C 17.582031 12.816406 17.828125 12.835938 18.25 12.875 Z M 18.25 12.875 "/>
<path style=" stroke:none;fill-rule:nonzero;fill:rgb(100%,64.705884%,54.901963%);fill-opacity:1;" d="M 15.125 8.625 C 18.136719 8.625 21.148438 8.625 24.25 8.625 C 24.207031 8.832031 24.167969 9.039062 24.125 9.25 C 23.738281 9.507812 23.648438 9.53125 23.210938 9.542969 C 23.101562 9.546875 22.992188 9.546875 22.882812 9.550781 C 22.765625 9.550781 22.644531 9.554688 22.523438 9.554688 C 22.402344 9.558594 22.277344 9.5625 22.152344 9.566406 C 21.890625 9.570312 21.625 9.574219 21.363281 9.578125 C 20.972656 9.585938 20.578125 9.59375 20.1875 9.605469 C 18.492188 9.640625 16.816406 9.597656 15.125 9.5 C 15.125 9.210938 15.125 8.921875 15.125 8.625 Z M 15.125 8.625 "/>
<path style=" stroke:none;fill-rule:nonzero;fill:rgb(22.745098%,17.647059%,42.745098%);fill-opacity:1;" d="M 17 30 C 18.277344 30 19.558594 30 20.875 30 C 20.875 30.453125 20.875 30.90625 20.875 31.375 C 20.558594 31.457031 20.246094 31.539062 19.929688 31.617188 C 19.839844 31.640625 19.753906 31.664062 19.664062 31.6875 C 18.90625 31.878906 18.164062 32.019531 17.382812 32.007812 C 17.285156 32.007812 17.191406 32.003906 17.089844 32.003906 C 17.019531 32.003906 16.949219 32 16.875 32 C 16.871094 31.738281 16.867188 31.472656 16.867188 31.210938 C 16.867188 31.066406 16.863281 30.917969 16.863281 30.765625 C 16.875 30.375 16.875 30.375 17 30 Z M 17 30 "/>
</g>
</svg>
