<?xml version="1.0" encoding="UTF-8"?>
<svg xmlns="http://www.w3.org/2000/svg" xmlns:xlink="http://www.w3.org/1999/xlink" width="32" height="32" viewBox="0 0 32 32" version="1.1">
<g id="surface1">
<path style=" stroke:none;fill-rule:nonzero;fill:rgb(19.607843%,84.313726%,21.176471%);fill-opacity:1;" d="M 24.25 2.125 C 24.304688 2.066406 24.359375 2.003906 24.417969 1.941406 C 24.671875 1.667969 24.929688 1.394531 25.1875 1.125 C 25.273438 1.03125 25.359375 0.933594 25.453125 0.835938 C 26.199219 0.0625 26.199219 0.0625 26.785156 0.03125 C 27.25 0.125 27.25 0.125 27.546875 0.296875 C 27.851562 0.789062 27.902344 1.269531 27.976562 1.835938 C 28.003906 2.03125 28.003906 2.03125 28.035156 2.226562 C 28.078125 2.539062 28.125 2.851562 28.167969 3.164062 C 28.246094 3.738281 28.332031 4.308594 28.417969 4.878906 C 28.496094 5.429688 28.578125 5.984375 28.65625 6.535156 C 28.699219 6.8125 28.738281 7.089844 28.78125 7.367188 C 28.835938 7.765625 28.894531 8.164062 28.953125 8.558594 C 28.96875 8.679688 28.984375 8.796875 29.003906 8.921875 C 29.234375 10.546875 29.234375 10.546875 28.921875 11.125 C 27.878906 11.742188 26.070312 11.171875 24.910156 11 C 24.742188 10.976562 24.570312 10.953125 24.402344 10.925781 C 24.050781 10.875 23.699219 10.824219 23.347656 10.773438 C 22.898438 10.707031 22.453125 10.644531 22.003906 10.578125 C 21.652344 10.527344 21.304688 10.480469 20.957031 10.425781 C 20.710938 10.390625 20.46875 10.355469 20.222656 10.320312 C 19.996094 10.289062 19.996094 10.289062 19.769531 10.253906 C 19.636719 10.234375 19.507812 10.214844 19.371094 10.199219 C 18.890625 10.105469 18.433594 9.988281 18.015625 9.726562 C 17.769531 9.332031 17.800781 9.082031 17.875 8.625 C 18.125 8.25 18.429688 7.941406 18.75 7.625 C 18.84375 7.53125 18.933594 7.4375 19.03125 7.339844 C 19.269531 7.097656 19.507812 6.859375 19.75 6.625 C 17.558594 5.527344 14.992188 5.667969 12.710938 6.378906 C 11.132812 6.9375 9.808594 7.820312 8.625 9 C 8.546875 9.074219 8.472656 9.148438 8.390625 9.222656 C 6.726562 10.960938 5.964844 13.351562 5.859375 15.707031 C 5.828125 16.203125 5.777344 16.457031 5.5 16.882812 C 4.988281 17.214844 4.582031 17.1875 4 17.125 C 3.867188 17.109375 3.738281 17.097656 3.605469 17.082031 C 3.160156 17.03125 2.722656 16.96875 2.28125 16.90625 C 2.128906 16.886719 1.980469 16.867188 1.824219 16.847656 C 1.609375 16.816406 1.609375 16.816406 1.386719 16.785156 C 1.253906 16.765625 1.121094 16.746094 0.988281 16.726562 C 0.554688 16.605469 0.316406 16.441406 0 16.125 C -0.0625 15.761719 -0.0820312 15.480469 -0.0703125 15.117188 C -0.0703125 15.019531 -0.0664062 14.917969 -0.0625 14.816406 C 0.0703125 11.351562 1.566406 8.136719 3.75 5.5 C 3.832031 5.398438 3.917969 5.296875 4.003906 5.1875 C 6.054688 2.765625 8.984375 1.226562 12 0.375 C 12.148438 0.332031 12.296875 0.289062 12.453125 0.246094 C 16.578125 -0.722656 20.546875 0.328125 24.25 2.125 Z M 24.25 2.125 "/>
<path style=" stroke:none;fill-rule:nonzero;fill:rgb(89.803922%,0%,15.294118%);fill-opacity:1;" d="M 28.84375 15.058594 C 29.097656 15.09375 29.355469 15.125 29.613281 15.160156 C 29.78125 15.179688 29.945312 15.203125 30.113281 15.226562 C 30.261719 15.246094 30.410156 15.261719 30.5625 15.285156 C 31.050781 15.386719 31.429688 15.527344 31.875 15.75 C 32.59375 17.191406 31.765625 19.683594 31.3125 21.105469 C 30.625 23.128906 29.605469 24.863281 28.25 26.5 C 28.167969 26.601562 28.082031 26.703125 27.996094 26.8125 C 25.546875 29.707031 21.734375 31.542969 18 32 C 17.375 32.039062 16.75 32.046875 16.125 32.046875 C 16.039062 32.046875 15.957031 32.046875 15.867188 32.046875 C 12.878906 32.035156 10.40625 31.164062 7.75 29.875 C 7.695312 29.933594 7.636719 29.996094 7.582031 30.054688 C 7.324219 30.328125 7.0625 30.597656 6.804688 30.867188 C 6.71875 30.960938 6.628906 31.054688 6.539062 31.152344 C 5.789062 31.921875 5.789062 31.921875 5.265625 32.003906 C 4.679688 31.996094 4.679688 31.996094 4.375 31.75 C 4.144531 31.269531 4.058594 30.808594 3.980469 30.28125 C 3.96875 30.199219 3.957031 30.117188 3.945312 30.035156 C 3.90625 29.761719 3.867188 29.492188 3.828125 29.222656 C 3.800781 29.03125 3.773438 28.84375 3.746094 28.652344 C 3.6875 28.257812 3.628906 27.859375 3.570312 27.460938 C 3.5 26.957031 3.425781 26.449219 3.351562 25.945312 C 3.292969 25.550781 3.238281 25.160156 3.179688 24.769531 C 3.152344 24.582031 3.125 24.394531 3.097656 24.210938 C 2.710938 21.566406 2.710938 21.566406 3.046875 20.921875 C 4.058594 20.390625 5.550781 20.855469 6.640625 21.011719 C 6.832031 21.039062 7.023438 21.066406 7.21875 21.089844 C 7.621094 21.148438 8.023438 21.207031 8.421875 21.261719 C 8.9375 21.335938 9.453125 21.410156 9.964844 21.480469 C 10.363281 21.535156 10.761719 21.59375 11.15625 21.648438 C 11.347656 21.675781 11.535156 21.703125 11.726562 21.730469 C 11.992188 21.765625 12.253906 21.804688 12.519531 21.84375 C 12.746094 21.875 12.746094 21.875 12.976562 21.90625 C 13.386719 22.003906 13.660156 22.128906 14 22.375 C 14.1875 22.753906 14.1875 22.953125 14.125 23.375 C 13.875 23.746094 13.566406 24.058594 13.25 24.375 C 13.15625 24.46875 13.0625 24.5625 12.96875 24.660156 C 12.730469 24.902344 12.492188 25.136719 12.25 25.375 C 14.4375 26.46875 16.976562 26.34375 19.25 25.625 C 20.863281 25.078125 22.164062 24.1875 23.375 23 C 23.453125 22.925781 23.53125 22.851562 23.609375 22.777344 C 25.25 21.0625 26.015625 18.699219 26.148438 16.371094 C 26.191406 15.765625 26.300781 15.417969 26.75 15 C 27.40625 14.742188 28.164062 14.964844 28.84375 15.058594 Z M 28.84375 15.058594 "/>
<path style=" stroke:none;fill-rule:nonzero;fill:rgb(6.27451%,73.333335%,40.000001%);fill-opacity:1;" d="M 16 0 C 18.191406 0 18.191406 0 19.117188 0.203125 C 19.222656 0.226562 19.328125 0.246094 19.4375 0.269531 C 21.136719 0.648438 22.691406 1.367188 24.25 2.125 C 24.304688 2.066406 24.359375 2.003906 24.417969 1.941406 C 24.671875 1.667969 24.929688 1.394531 25.1875 1.125 C 25.316406 0.984375 25.316406 0.984375 25.453125 0.835938 C 26.199219 0.0625 26.199219 0.0625 26.785156 0.03125 C 27.25 0.125 27.25 0.125 27.546875 0.296875 C 27.851562 0.789062 27.902344 1.269531 27.976562 1.835938 C 27.996094 1.964844 28.015625 2.09375 28.035156 2.226562 C 28.078125 2.539062 28.125 2.851562 28.167969 3.164062 C 28.246094 3.738281 28.332031 4.308594 28.417969 4.878906 C 28.496094 5.429688 28.578125 5.984375 28.65625 6.535156 C 28.699219 6.8125 28.738281 7.089844 28.78125 7.367188 C 28.835938 7.765625 28.894531 8.164062 28.953125 8.558594 C 28.976562 8.738281 28.976562 8.738281 29.003906 8.921875 C 29.234375 10.546875 29.234375 10.546875 28.921875 11.125 C 27.878906 11.742188 26.070312 11.171875 24.910156 11 C 24.742188 10.976562 24.570312 10.953125 24.402344 10.925781 C 24.050781 10.875 23.699219 10.824219 23.347656 10.773438 C 22.898438 10.707031 22.453125 10.644531 22.003906 10.578125 C 21.652344 10.527344 21.304688 10.480469 20.957031 10.425781 C 20.710938 10.390625 20.46875 10.355469 20.222656 10.320312 C 20.074219 10.300781 19.921875 10.277344 19.769531 10.253906 C 19.636719 10.234375 19.507812 10.214844 19.371094 10.199219 C 18.890625 10.105469 18.433594 9.988281 18.015625 9.726562 C 17.769531 9.332031 17.800781 9.082031 17.875 8.625 C 18.125 8.25 18.429688 7.941406 18.75 7.625 C 18.84375 7.53125 18.933594 7.4375 19.03125 7.339844 C 19.269531 7.097656 19.507812 6.859375 19.75 6.625 C 18.578125 6.039062 17.285156 5.890625 16 5.75 C 16 3.851562 16 1.953125 16 0 Z M 16 0 "/>
<path style=" stroke:none;fill-rule:nonzero;fill:rgb(99.215686%,0%,22.745098%);fill-opacity:1;" d="M 6.640625 21.011719 C 6.832031 21.039062 7.027344 21.0625 7.21875 21.089844 C 7.621094 21.148438 8.023438 21.207031 8.421875 21.265625 C 8.9375 21.335938 9.453125 21.410156 9.964844 21.480469 C 10.363281 21.535156 10.761719 21.59375 11.15625 21.648438 C 11.347656 21.675781 11.535156 21.703125 11.726562 21.730469 C 11.992188 21.765625 12.257812 21.804688 12.519531 21.84375 C 12.671875 21.863281 12.820312 21.886719 12.976562 21.90625 C 13.386719 22.003906 13.660156 22.128906 14 22.375 C 14.1875 22.753906 14.1875 22.953125 14.125 23.375 C 13.871094 23.746094 13.566406 24.054688 13.25 24.375 C 13.15625 24.46875 13.0625 24.5625 12.96875 24.660156 C 12.730469 24.902344 12.492188 25.140625 12.25 25.375 C 13.417969 25.960938 14.714844 26.105469 16 26.25 C 16 28.148438 16 30.046875 16 32 C 13.808594 32 13.808594 32 12.882812 31.796875 C 12.777344 31.773438 12.671875 31.753906 12.5625 31.730469 C 10.867188 31.351562 9.308594 30.632812 7.75 29.875 C 7.695312 29.933594 7.636719 29.996094 7.582031 30.054688 C 7.324219 30.328125 7.0625 30.597656 6.804688 30.867188 C 6.714844 30.960938 6.628906 31.054688 6.539062 31.152344 C 5.789062 31.921875 5.789062 31.921875 5.265625 32.003906 C 4.679688 31.996094 4.679688 31.996094 4.375 31.75 C 4.144531 31.269531 4.058594 30.804688 3.980469 30.28125 C 3.96875 30.199219 3.957031 30.117188 3.945312 30.03125 C 3.90625 29.761719 3.867188 29.492188 3.828125 29.222656 C 3.800781 29.03125 3.773438 28.84375 3.746094 28.652344 C 3.6875 28.253906 3.628906 27.859375 3.570312 27.460938 C 3.5 26.957031 3.425781 26.449219 3.351562 25.945312 C 3.292969 25.554688 3.238281 25.160156 3.179688 24.769531 C 3.152344 24.582031 3.125 24.398438 3.097656 24.210938 C 2.710938 21.566406 2.710938 21.566406 3.046875 20.921875 C 4.058594 20.390625 5.550781 20.855469 6.640625 21.011719 Z M 6.640625 21.011719 "/>
</g>
</svg>
