<?xml version="1.0" encoding="UTF-8"?>
<svg xmlns="http://www.w3.org/2000/svg" xmlns:xlink="http://www.w3.org/1999/xlink" width="32" height="32" viewBox="0 0 32 32" version="1.1">
<g id="surface1">
<path style=" stroke:none;fill-rule:nonzero;fill:rgb(89.803922%,18.039216%,18.431373%);fill-opacity:1;" d="M 16.339844 -0.0664062 C 16.882812 0.0625 17.164062 0.453125 17.5 0.875 C 18.097656 1.574219 18.71875 2.246094 19.351562 2.914062 C 19.945312 3.542969 20.535156 4.167969 21.117188 4.804688 C 21.261719 4.960938 21.261719 4.960938 21.410156 5.125 C 21.695312 5.457031 21.746094 5.59375 21.796875 6.039062 C 21.75 6.5 21.75 6.5 21.546875 6.867188 C 21.125 7.125 21.125 7.125 19.375 7.125 C 19.414062 9.023438 19.457031 10.921875 19.5 12.875 C 19.789062 12.585938 20.078125 12.296875 20.375 12 C 20.703125 11.714844 21.050781 11.453125 21.398438 11.1875 C 21.492188 11.117188 21.582031 11.046875 21.675781 10.976562 C 22.417969 10.417969 23.179688 9.933594 24 9.5 C 23.972656 9.402344 23.945312 9.304688 23.917969 9.203125 C 23.527344 7.726562 23.527344 7.726562 23.625 7.125 C 23.921875 6.703125 24.101562 6.527344 24.613281 6.433594 C 25.367188 6.460938 26.027344 6.921875 26.671875 7.273438 C 26.820312 7.351562 26.96875 7.429688 27.117188 7.511719 C 27.421875 7.675781 27.730469 7.839844 28.035156 8.003906 C 28.488281 8.246094 28.945312 8.480469 29.402344 8.714844 C 29.546875 8.789062 29.6875 8.863281 29.835938 8.9375 C 30.105469 9.074219 30.378906 9.214844 30.652344 9.351562 C 30.773438 9.417969 30.898438 9.480469 31.023438 9.542969 C 31.128906 9.597656 31.238281 9.652344 31.347656 9.710938 C 31.621094 9.871094 31.808594 10 32 10.25 C 32.199219 11.101562 31.925781 11.761719 31.5 12.488281 C 31.425781 12.601562 31.355469 12.71875 31.28125 12.835938 C 31.132812 13.085938 30.984375 13.339844 30.835938 13.589844 C 30.757812 13.71875 30.683594 13.847656 30.601562 13.980469 C 30.164062 14.738281 29.773438 15.523438 29.378906 16.308594 C 28.574219 17.886719 28.574219 17.886719 27.960938 18.101562 C 27.207031 18.082031 27.207031 18.082031 26.828125 17.695312 C 26.59375 17.179688 26.410156 16.667969 26.25 16.125 C 23.644531 17.574219 21.828125 20.417969 20.5 23 C 20.386719 23.214844 20.386719 23.214844 20.273438 23.433594 C 19.683594 24.53125 19.683594 24.53125 19.464844 25.738281 C 19.460938 25.855469 19.460938 25.972656 19.460938 26.09375 C 19.457031 26.21875 19.457031 26.347656 19.457031 26.476562 C 19.453125 26.671875 19.453125 26.671875 19.453125 26.871094 C 19.445312 27.289062 19.441406 27.707031 19.4375 28.125 C 19.433594 28.675781 19.425781 29.222656 19.417969 29.773438 C 19.417969 29.898438 19.417969 30.023438 19.414062 30.15625 C 19.414062 30.273438 19.414062 30.390625 19.410156 30.511719 C 19.410156 30.617188 19.410156 30.71875 19.40625 30.828125 C 19.355469 31.3125 19.21875 31.652344 18.875 32 C 18.628906 32.03125 18.628906 32.03125 18.324219 32.035156 C 18.210938 32.035156 18.097656 32.035156 17.980469 32.039062 C 17.792969 32.039062 17.792969 32.039062 17.605469 32.039062 C 17.417969 32.039062 17.417969 32.039062 17.222656 32.039062 C 16.957031 32.039062 16.6875 32.039062 16.421875 32.039062 C 16.007812 32.039062 15.597656 32.042969 15.1875 32.046875 C 14.929688 32.046875 14.671875 32.046875 14.410156 32.046875 C 14.289062 32.046875 14.164062 32.046875 14.039062 32.050781 C 13.921875 32.046875 13.808594 32.046875 13.691406 32.046875 C 13.539062 32.046875 13.539062 32.046875 13.386719 32.046875 C 13.058594 31.988281 12.953125 31.886719 12.75 31.625 C 12.632812 31.269531 12.597656 31.011719 12.582031 30.640625 C 12.359375 27.042969 11.636719 23.667969 9.875 20.5 C 9.773438 20.3125 9.773438 20.3125 9.664062 20.125 C 8.75 18.59375 7.308594 17.007812 5.75 16.125 C 5.707031 16.238281 5.664062 16.355469 5.621094 16.472656 C 5.566406 16.621094 5.511719 16.769531 5.453125 16.921875 C 5.398438 17.070312 5.34375 17.21875 5.285156 17.371094 C 5.125 17.75 5.125 17.75 4.875 18 C 4.480469 18.097656 4.144531 18.082031 3.75 18 C 2.910156 17.289062 2.445312 15.996094 1.945312 15.03125 C 1.761719 14.683594 1.582031 14.332031 1.398438 13.988281 C 1.355469 13.902344 1.3125 13.816406 1.265625 13.730469 C 0.921875 13.078125 0.554688 12.449219 0.164062 11.824219 C -0.0546875 11.390625 -0.09375 11 -0.09375 10.519531 C 0.148438 9.816406 1.078125 9.492188 1.703125 9.179688 C 1.859375 9.101562 1.859375 9.101562 2.019531 9.019531 C 2.351562 8.851562 2.683594 8.683594 3.015625 8.515625 C 3.449219 8.296875 3.886719 8.074219 4.320312 7.851562 C 4.425781 7.800781 4.53125 7.746094 4.636719 7.691406 C 5.304688 7.351562 5.964844 7 6.613281 6.628906 C 7.023438 6.425781 7.308594 6.402344 7.75 6.5 C 8.117188 6.757812 8.117188 6.757812 8.375 7.125 C 8.503906 7.925781 8.214844 8.730469 8 9.5 C 8.121094 9.566406 8.238281 9.636719 8.363281 9.707031 C 9.914062 10.605469 11.160156 11.671875 12.5 12.875 C 12.539062 10.976562 12.582031 9.082031 12.625 7.125 C 12.046875 7.125 11.46875 7.125 10.875 7.125 C 10.453125 6.867188 10.453125 6.867188 10.25 6.5 C 10.199219 6.007812 10.195312 5.71875 10.449219 5.289062 C 10.585938 5.128906 10.585938 5.128906 10.726562 4.96875 C 10.828125 4.851562 10.929688 4.734375 11.035156 4.613281 C 11.492188 4.125 11.957031 3.65625 12.433594 3.191406 C 12.6875 2.9375 12.929688 2.679688 13.164062 2.40625 C 13.230469 2.332031 13.296875 2.253906 13.367188 2.175781 C 13.515625 2 13.664062 1.828125 13.8125 1.648438 C 14.03125 1.390625 14.253906 1.132812 14.476562 0.875 C 14.546875 0.789062 14.617188 0.703125 14.6875 0.617188 C 15.199219 0.0351562 15.566406 -0.09375 16.339844 -0.0664062 Z M 16.339844 -0.0664062 "/>
<path style=" stroke:none;fill-rule:nonzero;fill:rgb(99.607843%,76.078433%,29.803923%);fill-opacity:1;" d="M 7.75 6.5 C 8.117188 6.757812 8.117188 6.757812 8.375 7.125 C 8.507812 7.925781 8.210938 8.730469 8 9.5 C 8.121094 9.570312 8.238281 9.636719 8.359375 9.707031 C 9.402344 10.308594 10.34375 10.953125 11.25 11.75 C 11.414062 11.890625 11.414062 11.890625 11.582031 12.03125 C 12.175781 12.546875 12.679688 13.066406 13.144531 13.699219 C 13.40625 14.039062 13.6875 14.359375 13.96875 14.679688 C 14.191406 14.953125 14.410156 15.226562 14.625 15.5 C 14.683594 15.574219 14.742188 15.648438 14.804688 15.722656 C 16.140625 17.433594 16.183594 18.976562 16.132812 21.085938 C 16.132812 21.402344 16.128906 21.71875 16.128906 22.035156 C 16.125 22.777344 16.113281 23.515625 16.097656 24.257812 C 16.082031 25.105469 16.078125 25.949219 16.070312 26.796875 C 16.054688 28.53125 16.03125 30.265625 16 32 C 15.527344 32.011719 15.058594 32.015625 14.585938 32.023438 C 14.453125 32.027344 14.316406 32.03125 14.179688 32.03125 C 14.050781 32.035156 13.921875 32.035156 13.789062 32.035156 C 13.671875 32.039062 13.554688 32.039062 13.429688 32.042969 C 13.125 32 13.125 32 12.902344 31.832031 C 12.625 31.457031 12.605469 31.09375 12.578125 30.640625 C 12.359375 27.042969 11.636719 23.667969 9.875 20.5 C 9.769531 20.3125 9.769531 20.3125 9.664062 20.125 C 8.75 18.59375 7.308594 17.007812 5.75 16.125 C 5.707031 16.238281 5.664062 16.355469 5.621094 16.472656 C 5.566406 16.621094 5.511719 16.769531 5.453125 16.921875 C 5.398438 17.070312 5.34375 17.21875 5.285156 17.371094 C 5.125 17.75 5.125 17.75 4.875 18 C 4.484375 18.097656 4.144531 18.082031 3.75 18 C 2.910156 17.289062 2.445312 15.996094 1.945312 15.03125 C 1.765625 14.683594 1.582031 14.335938 1.398438 13.984375 C 1.355469 13.902344 1.3125 13.816406 1.265625 13.730469 C 0.921875 13.078125 0.550781 12.449219 0.164062 11.824219 C -0.0546875 11.390625 -0.09375 11.003906 -0.0898438 10.519531 C 0.148438 9.816406 1.078125 9.492188 1.703125 9.179688 C 1.808594 9.128906 1.914062 9.074219 2.019531 9.019531 C 2.351562 8.851562 2.683594 8.683594 3.015625 8.515625 C 3.453125 8.296875 3.886719 8.074219 4.320312 7.851562 C 4.425781 7.800781 4.53125 7.746094 4.636719 7.691406 C 5.304688 7.351562 5.964844 7 6.613281 6.628906 C 7.019531 6.425781 7.308594 6.402344 7.75 6.5 Z M 7.75 6.5 "/>
<path style=" stroke:none;fill-rule:nonzero;fill:rgb(40.000001%,49.803922%,99.607843%);fill-opacity:1;" d="M 24.847656 6.445312 C 25.503906 6.578125 26.089844 6.957031 26.671875 7.273438 C 26.820312 7.351562 26.96875 7.433594 27.117188 7.511719 C 27.421875 7.675781 27.730469 7.839844 28.035156 8.003906 C 28.488281 8.246094 28.945312 8.480469 29.402344 8.714844 C 29.546875 8.789062 29.6875 8.859375 29.835938 8.9375 C 30.109375 9.074219 30.378906 9.214844 30.652344 9.351562 C 30.773438 9.414062 30.898438 9.480469 31.023438 9.542969 C 31.132812 9.601562 31.238281 9.65625 31.347656 9.710938 C 31.621094 9.871094 31.808594 10 32 10.25 C 32.199219 11.101562 31.925781 11.761719 31.5 12.484375 C 31.425781 12.601562 31.355469 12.71875 31.28125 12.835938 C 31.132812 13.085938 30.984375 13.339844 30.832031 13.589844 C 30.757812 13.71875 30.679688 13.847656 30.601562 13.980469 C 30.164062 14.738281 29.773438 15.523438 29.382812 16.308594 C 28.574219 17.886719 28.574219 17.886719 27.960938 18.101562 C 27.207031 18.082031 27.207031 18.082031 26.828125 17.695312 C 26.59375 17.183594 26.410156 16.664062 26.25 16.125 C 23.640625 17.574219 21.835938 20.417969 20.5 23 C 20.425781 23.136719 20.355469 23.277344 20.277344 23.417969 C 19.90625 24.140625 19.609375 24.847656 19.375 25.625 C 19.332031 25.625 19.292969 25.625 19.25 25.625 C 19.222656 24.015625 19.203125 22.40625 19.191406 20.792969 C 19.1875 20.046875 19.175781 19.296875 19.164062 18.550781 C 19.152344 17.828125 19.144531 17.105469 19.144531 16.382812 C 19.140625 16.109375 19.136719 15.832031 19.132812 15.558594 C 19.085938 13.40625 19.085938 13.40625 19.488281 12.714844 C 19.769531 12.429688 20.039062 12.214844 20.375 12 C 20.550781 11.855469 20.722656 11.710938 20.898438 11.566406 C 21.070312 11.433594 21.242188 11.300781 21.414062 11.171875 C 21.503906 11.101562 21.597656 11.035156 21.691406 10.964844 C 22.425781 10.410156 23.183594 9.933594 24 9.5 C 23.972656 9.402344 23.945312 9.304688 23.917969 9.203125 C 23.527344 7.726562 23.527344 7.726562 23.625 7.125 C 23.96875 6.636719 24.242188 6.421875 24.847656 6.445312 Z M 24.847656 6.445312 "/>
<path style=" stroke:none;fill-rule:nonzero;fill:rgb(99.607843%,29.803923%,29.803923%);fill-opacity:1;" d="M 16 0 C 16 5.859375 16 11.714844 16 17.75 C 15.621094 17.277344 15.292969 16.808594 14.976562 16.296875 C 14.457031 15.476562 13.878906 14.738281 13.25 14 C 12.609375 13.21875 12.609375 13.21875 12.609375 12.546875 C 12.609375 12.425781 12.609375 12.304688 12.609375 12.183594 C 12.609375 12.050781 12.613281 11.921875 12.613281 11.789062 C 12.613281 11.65625 12.613281 11.523438 12.613281 11.386719 C 12.613281 10.960938 12.613281 10.535156 12.617188 10.109375 C 12.617188 9.820312 12.617188 9.535156 12.617188 9.246094 C 12.621094 8.539062 12.621094 7.832031 12.625 7.125 C 12.503906 7.128906 12.382812 7.132812 12.257812 7.132812 C 12.097656 7.136719 11.941406 7.140625 11.777344 7.140625 C 11.539062 7.144531 11.539062 7.144531 11.296875 7.148438 C 10.875 7.125 10.875 7.125 10.453125 6.867188 C 10.199219 6.40625 10.203125 6.144531 10.25 5.625 C 10.449219 5.289062 10.449219 5.289062 10.726562 4.96875 C 10.828125 4.851562 10.929688 4.734375 11.035156 4.613281 C 11.488281 4.125 11.957031 3.65625 12.433594 3.191406 C 12.6875 2.9375 12.929688 2.679688 13.164062 2.40625 C 13.609375 1.890625 14.058594 1.378906 14.515625 0.875 C 14.628906 0.746094 14.628906 0.746094 14.742188 0.617188 C 14.851562 0.496094 14.851562 0.496094 14.960938 0.375 C 15.058594 0.265625 15.058594 0.265625 15.15625 0.15625 C 15.375 0 15.375 0 16 0 Z M 16 0 "/>
<path style=" stroke:none;fill-rule:nonzero;fill:rgb(99.607843%,46.27451%,19.607843%);fill-opacity:1;" d="M 16 17.875 C 17.175781 19.640625 17.859375 21.839844 18.375 23.875 C 18.394531 23.957031 18.417969 24.042969 18.4375 24.128906 C 18.800781 25.601562 18.960938 27.085938 19.09375 28.59375 C 19.101562 28.6875 19.109375 28.78125 19.117188 28.875 C 19.167969 29.457031 19.214844 30.042969 19.25 30.625 C 19.257812 30.757812 19.257812 30.757812 19.265625 30.890625 C 19.277344 31.160156 19.277344 31.160156 19.25 31.625 C 19.125 31.75 19.003906 31.871094 18.875 32 C 17.925781 32 16.976562 32 16 32 C 16 27.339844 16 22.675781 16 17.875 Z M 16 17.875 "/>
<path style=" stroke:none;fill-rule:nonzero;fill:rgb(84.705883%,17.254902%,16.470589%);fill-opacity:1;" d="M 19 28.25 C 19.125 28.25 19.246094 28.25 19.375 28.25 C 19.375 29.199219 19.375 30.148438 19.375 31.125 C 19.152344 30.679688 19.09375 30.523438 19.074219 30.054688 C 19.070312 29.953125 19.0625 29.84375 19.058594 29.734375 C 19.054688 29.628906 19.050781 29.519531 19.046875 29.40625 C 19.042969 29.296875 19.039062 29.183594 19.03125 29.070312 C 19.019531 28.796875 19.011719 28.523438 19 28.25 Z M 19 28.25 "/>
</g>
</svg>
