<?xml version="1.0" encoding="UTF-8"?>
<svg xmlns="http://www.w3.org/2000/svg" xmlns:xlink="http://www.w3.org/1999/xlink" width="32" height="32" viewBox="0 0 32 32" version="1.1">
<g id="surface1">
<path style=" stroke:none;fill-rule:nonzero;fill:rgb(6.27451%,12.156863%,17.647059%);fill-opacity:1;" d="M 18.535156 0.5625 C 18.625 0.5625 18.710938 0.5625 18.800781 0.558594 C 19.089844 0.558594 19.378906 0.5625 19.667969 0.5625 C 19.871094 0.5625 20.070312 0.5625 20.273438 0.5625 C 20.695312 0.5625 21.117188 0.5625 21.539062 0.566406 C 22.078125 0.570312 22.617188 0.570312 23.160156 0.570312 C 23.574219 0.566406 23.992188 0.570312 24.40625 0.570312 C 24.605469 0.570312 24.804688 0.570312 25.003906 0.570312 C 25.28125 0.570312 25.5625 0.574219 25.839844 0.574219 C 25.996094 0.574219 26.15625 0.574219 26.320312 0.574219 C 26.792969 0.628906 27.09375 0.753906 27.5 1 C 27.957031 1.597656 28.015625 2.195312 28.015625 2.929688 C 28.015625 3.0625 28.015625 3.195312 28.015625 3.332031 C 28.011719 3.472656 28.011719 3.613281 28.011719 3.761719 C 28.011719 3.980469 28.011719 3.980469 28.011719 4.203125 C 28.011719 4.667969 28.007812 5.136719 28.007812 5.601562 C 28.007812 5.917969 28.007812 6.234375 28.007812 6.550781 C 28.003906 7.324219 28.003906 8.101562 28 8.875 C 28.117188 8.871094 28.230469 8.867188 28.351562 8.863281 C 28.878906 8.878906 29.097656 9.042969 29.5 9.375 C 30.167969 10.089844 30.066406 10.878906 30.058594 11.816406 C 30.058594 11.988281 30.058594 12.160156 30.058594 12.332031 C 30.058594 12.800781 30.054688 13.265625 30.050781 13.734375 C 30.046875 14.222656 30.046875 14.710938 30.046875 15.199219 C 30.042969 16.125 30.039062 17.046875 30.035156 17.972656 C 30.03125 19.027344 30.027344 20.078125 30.023438 21.132812 C 30.019531 23.296875 30.011719 25.460938 30 27.625 C 30.136719 27.621094 30.273438 27.613281 30.414062 27.605469 C 30.875 27.625 30.875 27.625 31.234375 27.90625 C 31.636719 28.425781 31.644531 28.84375 31.648438 29.492188 C 31.648438 29.621094 31.652344 29.746094 31.652344 29.878906 C 31.613281 30.421875 31.503906 30.738281 31.128906 31.140625 C 30.597656 31.46875 30.167969 31.445312 29.558594 31.4375 C 29.4375 31.441406 29.320312 31.441406 29.195312 31.441406 C 28.789062 31.441406 28.386719 31.441406 27.980469 31.441406 C 27.691406 31.441406 27.402344 31.441406 27.113281 31.441406 C 26.324219 31.445312 25.539062 31.445312 24.75 31.441406 C 23.925781 31.441406 23.101562 31.441406 22.28125 31.441406 C 20.808594 31.445312 19.339844 31.441406 17.867188 31.441406 C 16.535156 31.4375 15.199219 31.4375 13.867188 31.441406 C 12.316406 31.441406 10.769531 31.445312 9.21875 31.441406 C 8.398438 31.441406 7.578125 31.441406 6.757812 31.445312 C 5.988281 31.445312 5.21875 31.445312 4.449219 31.441406 C 4.164062 31.441406 3.882812 31.441406 3.597656 31.441406 C 3.210938 31.441406 2.828125 31.441406 2.441406 31.4375 C 2.328125 31.441406 2.214844 31.441406 2.101562 31.441406 C 1.585938 31.433594 1.320312 31.417969 0.875 31.140625 C 0.285156 30.511719 0.328125 29.832031 0.34375 29.011719 C 0.382812 28.554688 0.476562 28.246094 0.75 27.875 C 1.179688 27.589844 1.375 27.601562 1.875 27.625 C 1.875 27.539062 1.875 27.449219 1.875 27.359375 C 1.867188 25.234375 1.859375 23.105469 1.855469 20.980469 C 1.851562 19.949219 1.851562 18.921875 1.847656 17.890625 C 1.84375 16.996094 1.839844 16.097656 1.839844 15.199219 C 1.839844 14.726562 1.839844 14.253906 1.835938 13.777344 C 1.832031 13.328125 1.832031 12.882812 1.832031 12.433594 C 1.832031 12.195312 1.832031 11.953125 1.828125 11.710938 C 1.832031 10.886719 1.882812 10.246094 2.25 9.5 C 2.796875 8.964844 3.222656 8.859375 3.96875 8.863281 C 4.109375 8.863281 4.25 8.863281 4.394531 8.863281 C 4.539062 8.863281 4.6875 8.867188 4.835938 8.867188 C 4.984375 8.867188 5.132812 8.867188 5.28125 8.867188 C 5.648438 8.871094 6.011719 8.871094 6.375 8.875 C 6.371094 8.777344 6.367188 8.675781 6.363281 8.574219 C 6.351562 8.117188 6.34375 7.660156 6.335938 7.203125 C 6.332031 7.046875 6.324219 6.890625 6.320312 6.730469 C 6.304688 5.613281 6.449219 4.738281 7.214844 3.886719 C 7.886719 3.242188 8.628906 2.984375 9.546875 2.945312 C 10.488281 2.976562 11.28125 3.257812 11.984375 3.890625 C 12.878906 4.914062 12.945312 6.019531 12.90625 7.328125 C 12.894531 7.839844 12.886719 8.347656 12.875 8.875 C 14.070312 8.875 15.265625 8.875 16.5 8.875 C 16.496094 8.378906 16.492188 7.882812 16.488281 7.371094 C 16.484375 6.886719 16.480469 6.40625 16.480469 5.925781 C 16.476562 5.589844 16.476562 5.257812 16.472656 4.921875 C 16.46875 4.441406 16.464844 3.960938 16.464844 3.480469 C 16.460938 3.328125 16.460938 3.179688 16.457031 3.027344 C 16.457031 1.675781 16.457031 1.675781 16.875 1.125 C 17.441406 0.671875 17.816406 0.5625 18.535156 0.5625 Z M 17.625 2 C 17.585938 2.289062 17.585938 2.289062 17.59375 2.632812 C 17.59375 2.765625 17.59375 2.898438 17.589844 3.035156 C 17.59375 3.183594 17.59375 3.328125 17.59375 3.480469 C 17.59375 3.636719 17.59375 3.792969 17.589844 3.949219 C 17.589844 4.375 17.589844 4.796875 17.589844 5.222656 C 17.59375 5.667969 17.589844 6.109375 17.589844 6.554688 C 17.589844 7.296875 17.589844 8.042969 17.59375 8.789062 C 17.59375 9.648438 17.59375 10.511719 17.59375 11.375 C 17.589844 12.113281 17.589844 12.851562 17.589844 13.589844 C 17.59375 14.03125 17.59375 14.476562 17.589844 14.917969 C 17.589844 15.410156 17.589844 15.902344 17.59375 16.394531 C 17.59375 16.542969 17.59375 16.6875 17.589844 16.839844 C 17.59375 16.972656 17.59375 17.105469 17.59375 17.242188 C 17.59375 17.359375 17.59375 17.476562 17.59375 17.597656 C 17.597656 17.902344 17.597656 17.902344 17.875 18.125 C 18.253906 18.164062 18.253906 18.164062 18.703125 18.160156 C 18.789062 18.160156 18.871094 18.160156 18.960938 18.160156 C 19.242188 18.164062 19.523438 18.164062 19.804688 18.164062 C 20 18.164062 20.195312 18.164062 20.390625 18.164062 C 20.800781 18.164062 21.210938 18.164062 21.617188 18.164062 C 22.144531 18.164062 22.667969 18.167969 23.195312 18.167969 C 23.597656 18.171875 24 18.171875 24.40625 18.167969 C 24.597656 18.167969 24.792969 18.171875 24.984375 18.171875 C 25.257812 18.171875 25.527344 18.171875 25.796875 18.171875 C 25.949219 18.171875 26.105469 18.171875 26.265625 18.171875 C 26.382812 18.15625 26.503906 18.140625 26.625 18.125 C 26.898438 17.714844 26.90625 17.59375 26.90625 17.113281 C 26.90625 16.980469 26.910156 16.851562 26.910156 16.714844 C 26.910156 16.574219 26.910156 16.425781 26.90625 16.277344 C 26.910156 16.128906 26.910156 15.976562 26.910156 15.820312 C 26.910156 15.402344 26.910156 14.984375 26.910156 14.570312 C 26.910156 14.132812 26.910156 13.699219 26.910156 13.261719 C 26.910156 12.53125 26.910156 11.796875 26.90625 11.066406 C 26.90625 10.21875 26.90625 9.375 26.910156 8.527344 C 26.910156 7.800781 26.910156 7.074219 26.910156 6.347656 C 26.910156 5.914062 26.910156 5.480469 26.910156 5.046875 C 26.910156 4.5625 26.910156 4.078125 26.90625 3.597656 C 26.910156 3.453125 26.910156 3.308594 26.910156 3.160156 C 26.910156 3.027344 26.90625 2.894531 26.90625 2.761719 C 26.90625 2.644531 26.90625 2.53125 26.90625 2.414062 C 26.894531 2.089844 26.894531 2.089844 26.625 1.75 C 26.234375 1.703125 26.234375 1.703125 25.796875 1.726562 C 25.648438 1.730469 25.5 1.734375 25.347656 1.738281 C 25.175781 1.742188 25.175781 1.742188 25 1.75 C 24.988281 1.835938 24.976562 1.921875 24.964844 2.011719 C 24.945312 2.121094 24.925781 2.234375 24.90625 2.351562 C 24.886719 2.464844 24.871094 2.574219 24.851562 2.691406 C 24.722656 3.085938 24.613281 3.167969 24.25 3.375 C 23.925781 3.410156 23.632812 3.421875 23.3125 3.417969 C 23.175781 3.417969 23.175781 3.417969 23.039062 3.414062 C 22.851562 3.414062 22.660156 3.414062 22.472656 3.410156 C 22.179688 3.40625 21.890625 3.40625 21.601562 3.40625 C 21.414062 3.402344 21.230469 3.402344 21.046875 3.398438 C 20.960938 3.398438 20.875 3.398438 20.785156 3.398438 C 20.40625 3.394531 20.113281 3.371094 19.75 3.25 C 19.667969 2.753906 19.585938 2.261719 19.5 1.75 C 19.234375 1.742188 18.96875 1.738281 18.703125 1.734375 C 18.554688 1.730469 18.40625 1.730469 18.253906 1.726562 C 17.859375 1.707031 17.859375 1.707031 17.625 2 Z M 7.835938 4.914062 C 7.320312 5.734375 7.34375 6.554688 7.359375 7.492188 C 7.359375 7.613281 7.363281 7.734375 7.363281 7.859375 C 7.367188 8.15625 7.371094 8.453125 7.375 8.75 C 7.621094 8.667969 7.871094 8.585938 8.125 8.5 C 8.125 8.425781 8.128906 8.347656 8.128906 8.269531 C 8.136719 7.925781 8.144531 7.578125 8.15625 7.234375 C 8.160156 7.054688 8.160156 7.054688 8.164062 6.875 C 8.1875 6.136719 8.257812 5.691406 8.75 5.125 C 9.039062 4.980469 9.222656 4.980469 9.546875 4.976562 C 9.691406 4.972656 9.691406 4.972656 9.839844 4.972656 C 10.160156 5.003906 10.351562 5.074219 10.625 5.25 C 11.066406 5.914062 11.035156 6.640625 11.070312 7.414062 C 11.074219 7.519531 11.082031 7.625 11.085938 7.730469 C 11.101562 7.988281 11.113281 8.242188 11.125 8.5 C 11.332031 8.582031 11.539062 8.664062 11.75 8.75 C 11.765625 8.269531 11.773438 7.792969 11.78125 7.3125 C 11.785156 7.175781 11.789062 7.042969 11.792969 6.90625 C 11.804688 5.949219 11.703125 5.226562 11.027344 4.515625 C 9.875 3.808594 8.785156 3.964844 7.835938 4.914062 Z M 9.5 5.875 C 9.230469 6.09375 9.230469 6.09375 9.222656 6.359375 C 9.222656 6.453125 9.226562 6.546875 9.226562 6.640625 C 9.226562 6.742188 9.226562 6.84375 9.226562 6.949219 C 9.230469 7.050781 9.230469 7.15625 9.234375 7.265625 C 9.234375 7.371094 9.238281 7.480469 9.238281 7.585938 C 9.242188 7.851562 9.246094 8.113281 9.25 8.375 C 9.496094 8.375 9.746094 8.375 10 8.375 C 10 7.632812 10 6.890625 10 6.125 C 9.835938 6.042969 9.667969 5.960938 9.5 5.875 Z M 3.175781 10.207031 C 2.957031 10.570312 2.953125 10.792969 2.953125 11.210938 C 2.953125 11.355469 2.953125 11.5 2.953125 11.648438 C 2.953125 11.808594 2.957031 11.964844 2.957031 12.128906 C 2.957031 12.300781 2.957031 12.472656 2.957031 12.644531 C 2.957031 13.101562 2.960938 13.5625 2.960938 14.019531 C 2.964844 14.453125 2.964844 14.882812 2.964844 15.3125 C 2.964844 16.574219 2.972656 17.832031 2.976562 19.09375 C 2.984375 21.910156 2.992188 24.726562 3 27.625 C 11.539062 27.625 20.078125 27.625 28.875 27.625 C 28.882812 24.785156 28.890625 21.949219 28.898438 19.023438 C 28.902344 18.125 28.90625 17.230469 28.910156 16.304688 C 28.910156 15.503906 28.910156 15.503906 28.910156 14.699219 C 28.910156 14.34375 28.914062 13.984375 28.914062 13.625 C 28.917969 13.167969 28.917969 12.714844 28.917969 12.257812 C 28.917969 12.011719 28.917969 11.761719 28.921875 11.515625 C 28.921875 11.371094 28.921875 11.226562 28.917969 11.074219 C 28.921875 10.949219 28.921875 10.820312 28.921875 10.691406 C 28.898438 10.371094 28.898438 10.371094 28.714844 10.144531 C 28.472656 9.953125 28.472656 9.953125 28 10 C 28 10.140625 28 10.140625 27.996094 10.285156 C 27.988281 11.167969 27.976562 12.050781 27.964844 12.9375 C 27.957031 13.390625 27.953125 13.847656 27.945312 14.300781 C 27.941406 14.742188 27.9375 15.179688 27.929688 15.617188 C 27.925781 15.867188 27.925781 16.113281 27.921875 16.363281 C 27.910156 17.121094 27.886719 17.785156 27.625 18.5 C 27.582031 18.625 27.542969 18.746094 27.5 18.875 C 26.945312 19.125 26.445312 19.15625 25.839844 19.160156 C 25.707031 19.164062 25.707031 19.164062 25.570312 19.164062 C 25.285156 19.167969 24.996094 19.167969 24.707031 19.167969 C 24.507812 19.167969 24.304688 19.167969 24.101562 19.167969 C 23.679688 19.171875 23.257812 19.171875 22.835938 19.171875 C 22.296875 19.171875 21.757812 19.175781 21.21875 19.179688 C 20.800781 19.183594 20.382812 19.183594 19.96875 19.183594 C 19.769531 19.183594 19.570312 19.183594 19.371094 19.1875 C 19.09375 19.1875 18.816406 19.1875 18.535156 19.1875 C 18.378906 19.1875 18.21875 19.1875 18.058594 19.1875 C 17.539062 19.113281 17.273438 18.964844 16.875 18.625 C 16.605469 18.15625 16.589844 17.730469 16.585938 17.195312 C 16.582031 17.035156 16.578125 16.875 16.578125 16.710938 C 16.574219 16.535156 16.574219 16.363281 16.574219 16.1875 C 16.570312 16.011719 16.570312 15.832031 16.566406 15.652344 C 16.558594 15.183594 16.554688 14.71875 16.550781 14.25 C 16.542969 13.769531 16.539062 13.292969 16.53125 12.8125 C 16.519531 11.875 16.507812 10.9375 16.5 10 C 15.507812 10 14.519531 10 13.5 10 C 13.636719 10.21875 13.773438 10.4375 13.914062 10.664062 C 14.710938 12.039062 14.980469 13.394531 14.601562 14.953125 C 14.382812 15.671875 14.085938 16.417969 13.542969 16.953125 C 13.347656 17.113281 13.347656 17.113281 13.375 17.375 C 13.304688 17.410156 13.230469 17.441406 13.160156 17.476562 C 12.875 17.621094 12.875 17.621094 12.613281 17.800781 C 11.289062 18.691406 9.882812 18.878906 8.339844 18.605469 C 7.007812 18.300781 5.945312 17.550781 5.210938 16.398438 C 4.480469 15.074219 4.269531 13.699219 4.589844 12.203125 C 4.824219 11.445312 5.136719 10.871094 5.625 10.25 C 5.625 10.167969 5.625 10.085938 5.625 10 C 5.257812 9.984375 4.890625 9.976562 4.523438 9.96875 C 4.417969 9.964844 4.316406 9.960938 4.207031 9.957031 C 4.058594 9.953125 4.058594 9.953125 3.902344 9.949219 C 3.8125 9.949219 3.71875 9.945312 3.625 9.945312 C 3.355469 9.980469 3.355469 9.980469 3.175781 10.207031 Z M 3.175781 10.207031 "/>
<path style=" stroke:none;fill-rule:nonzero;fill:rgb(38.431373%,75.686276%,95.294118%);fill-opacity:1;" d="M 12 10.003906 C 12.78125 10.492188 13.347656 11.308594 13.648438 12.171875 C 13.964844 13.570312 13.800781 14.792969 13.09375 16.023438 C 12.484375 16.9375 11.546875 17.460938 10.5 17.75 C 9.105469 17.875 7.957031 17.730469 6.855469 16.839844 C 6.042969 16.078125 5.460938 15.121094 5.332031 14 C 5.292969 12.6875 5.65625 11.636719 6.5 10.625 C 6.8125 10.328125 7.136719 10.097656 7.5 9.875 C 7.582031 9.824219 7.667969 9.773438 7.753906 9.71875 C 9.132812 8.984375 10.675781 9.320312 12 10.003906 Z M 12 10.003906 "/>
<path style=" stroke:none;fill-rule:nonzero;fill:rgb(92.156863%,38.82353%,37.64706%);fill-opacity:1;" d="M 1.5 28.625 C 11.070312 28.625 20.640625 28.625 30.5 28.625 C 30.5 29.160156 30.5 29.699219 30.5 30.25 C 30.265625 30.484375 29.921875 30.390625 29.609375 30.390625 C 29.496094 30.390625 29.382812 30.390625 29.269531 30.390625 C 29.152344 30.390625 29.035156 30.390625 28.914062 30.390625 C 28.515625 30.390625 28.121094 30.390625 27.722656 30.390625 C 27.441406 30.390625 27.15625 30.390625 26.875 30.390625 C 26.105469 30.390625 25.332031 30.390625 24.5625 30.390625 C 23.757812 30.390625 22.953125 30.390625 22.144531 30.390625 C 20.707031 30.390625 19.265625 30.390625 17.828125 30.390625 C 16.523438 30.390625 15.21875 30.390625 13.910156 30.390625 C 12.394531 30.390625 10.882812 30.390625 9.367188 30.390625 C 8.5625 30.390625 7.761719 30.390625 6.957031 30.390625 C 6.203125 30.390625 5.449219 30.390625 4.695312 30.390625 C 4.417969 30.390625 4.140625 30.390625 3.863281 30.390625 C 3.484375 30.390625 3.109375 30.390625 2.730469 30.390625 C 2.5625 30.390625 2.5625 30.390625 2.390625 30.390625 C 1.640625 30.390625 1.640625 30.390625 1.5 30.25 C 1.5 29.714844 1.5 29.175781 1.5 28.625 Z M 1.5 28.625 "/>
<path style=" stroke:none;fill-rule:nonzero;fill:rgb(5.882353%,11.764706%,17.254902%);fill-opacity:1;" d="M 24.625 6.25 C 24.703125 6.296875 24.78125 6.347656 24.859375 6.394531 C 25.070312 6.546875 25.070312 6.546875 25.375 6.875 C 25.429688 7.28125 25.429688 7.28125 25.375 7.625 C 25.25 7.75 25.25 7.75 24.90625 7.789062 C 24.402344 7.742188 24.257812 7.570312 23.875 7.25 C 23.171875 6.863281 22.523438 6.78125 21.75 7 C 20.945312 7.335938 20.496094 7.84375 20.125 8.625 C 20.023438 9.011719 19.980469 9.398438 19.9375 9.796875 C 19.820312 10.707031 19.683594 11.691406 19 12.375 C 18.75 12.378906 18.5 12.378906 18.25 12.375 C 18.097656 11.882812 18.109375 11.605469 18.34375 11.164062 C 18.644531 10.5625 18.710938 9.980469 18.796875 9.320312 C 18.964844 8.113281 19.265625 7.230469 20.242188 6.445312 C 20.410156 6.335938 20.578125 6.226562 20.75 6.125 C 20.875 6.046875 21.003906 5.96875 21.132812 5.890625 C 22.242188 5.464844 23.636719 5.617188 24.625 6.25 Z M 24.625 6.25 "/>
<path style=" stroke:none;fill-rule:nonzero;fill:rgb(5.882353%,11.764706%,17.254902%);fill-opacity:1;" d="M 23.546875 7.5 C 23.972656 7.761719 24.21875 7.953125 24.5 8.375 C 24.523438 8.765625 24.523438 8.765625 24.5 9.125 C 24.375 9.25 24.375 9.25 24.03125 9.296875 C 23.625 9.25 23.625 9.25 23.320312 8.9375 C 23.019531 8.585938 23.019531 8.585938 22.554688 8.546875 C 22.117188 8.585938 22.117188 8.585938 21.855469 8.886719 C 21.578125 9.324219 21.542969 9.628906 21.5 10.140625 C 21.382812 11.25 21.125 12.386719 20.375 13.25 C 20.03125 13.359375 20.03125 13.359375 19.75 13.375 C 19.546875 13.164062 19.546875 13.164062 19.375 12.875 C 19.453125 12.570312 19.585938 12.316406 19.742188 12.042969 C 20.140625 11.261719 20.25 10.46875 20.347656 9.605469 C 20.453125 8.789062 20.699219 8.273438 21.320312 7.710938 C 21.964844 7.265625 22.820312 7.191406 23.546875 7.5 Z M 23.546875 7.5 "/>
<path style=" stroke:none;fill-rule:nonzero;fill:rgb(7.450981%,14.117648%,20%);fill-opacity:1;" d="M 10 12.625 C 10.53125 12.824219 10.828125 13.019531 11.125 13.5 C 11.222656 14.046875 11.253906 14.625 10.992188 15.128906 C 10.773438 15.394531 10.558594 15.59375 10.25 15.75 C 10.207031 16.042969 10.167969 16.332031 10.125 16.625 C 10.042969 16.707031 9.960938 16.789062 9.875 16.875 C 9.304688 16.804688 9.304688 16.804688 9.125 16.625 C 9.117188 16.425781 9.117188 16.425781 9.109375 16.226562 C 8.976562 15.648438 8.785156 15.507812 8.324219 15.171875 C 8.003906 14.894531 8 14.617188 7.960938 14.210938 C 8.015625 13.566406 8.285156 13.230469 8.71875 12.765625 C 9.140625 12.554688 9.542969 12.558594 10 12.625 Z M 10 12.625 "/>
<path style=" stroke:none;fill-rule:nonzero;fill:rgb(5.882353%,11.764706%,17.254902%);fill-opacity:1;" d="M 20.625 20.5 C 20.832031 20.542969 21.039062 20.582031 21.25 20.625 C 21.292969 20.789062 21.332031 20.953125 21.375 21.125 C 21.5 21.042969 21.621094 20.960938 21.75 20.875 C 22.070312 20.84375 22.070312 20.84375 22.375 20.875 C 22.457031 20.957031 22.539062 21.039062 22.625 21.125 C 22.609375 21.492188 22.609375 21.492188 22.5 21.875 C 22.242188 22.109375 22.242188 22.109375 22 22.25 C 22.105469 22.339844 22.210938 22.429688 22.320312 22.523438 C 22.625 22.875 22.625 22.875 22.609375 23.21875 C 22.5 23.5 22.5 23.5 22.375 23.625 C 22.082031 23.589844 21.792969 23.546875 21.5 23.5 C 21.453125 23.582031 21.402344 23.664062 21.351562 23.75 C 21.125 24 21.125 24 20.804688 24.054688 C 20.703125 24.035156 20.605469 24.019531 20.5 24 C 20.417969 23.875 20.335938 23.753906 20.25 23.625 C 19.957031 23.621094 19.667969 23.621094 19.375 23.625 C 19.292969 23.542969 19.210938 23.460938 19.125 23.375 C 19.148438 22.953125 19.222656 22.78125 19.507812 22.460938 C 19.628906 22.355469 19.628906 22.355469 19.75 22.25 C 19.648438 22.179688 19.542969 22.109375 19.4375 22.039062 C 19.125 21.75 19.125 21.75 19.070312 21.421875 C 19.125 21.125 19.125 21.125 19.375 20.875 C 19.722656 20.847656 19.9375 20.84375 20.25 21 C 20.375 20.835938 20.496094 20.671875 20.625 20.5 Z M 20.625 20.5 "/>
<path style=" stroke:none;fill-rule:nonzero;fill:rgb(5.882353%,11.764706%,17.254902%);fill-opacity:1;" d="M 11.242188 20.53125 C 11.535156 20.636719 11.671875 20.769531 11.875 21 C 11.914062 20.957031 11.957031 20.917969 12 20.875 C 12.304688 20.851562 12.304688 20.851562 12.625 20.875 C 12.875 21.125 12.875 21.125 12.929688 21.421875 C 12.875 21.75 12.875 21.75 12.5625 22.039062 C 12.410156 22.144531 12.410156 22.144531 12.25 22.25 C 12.355469 22.339844 12.460938 22.429688 12.570312 22.523438 C 12.875 22.875 12.875 22.875 12.859375 23.21875 C 12.75 23.5 12.75 23.5 12.625 23.625 C 12.484375 23.621094 12.339844 23.613281 12.195312 23.609375 C 11.976562 23.617188 11.976562 23.617188 11.75 23.625 C 11.667969 23.75 11.585938 23.871094 11.5 24 C 11.195312 24.054688 11.195312 24.054688 10.875 24 C 10.648438 23.75 10.648438 23.75 10.5 23.5 C 10.359375 23.527344 10.222656 23.550781 10.078125 23.578125 C 9.929688 23.59375 9.78125 23.609375 9.625 23.625 C 9.542969 23.542969 9.460938 23.460938 9.375 23.375 C 9.398438 22.953125 9.472656 22.78125 9.757812 22.460938 C 9.878906 22.355469 9.878906 22.355469 10 22.25 C 9.894531 22.160156 9.789062 22.070312 9.679688 21.976562 C 9.375 21.625 9.375 21.625 9.390625 21.28125 C 9.5 21 9.5 21 9.625 20.875 C 10.089844 20.839844 10.222656 20.855469 10.625 21.125 C 10.640625 21.046875 10.65625 20.964844 10.671875 20.882812 C 10.695312 20.796875 10.722656 20.710938 10.75 20.625 C 11 20.5 11 20.5 11.242188 20.53125 Z M 11.242188 20.53125 "/>
<path style=" stroke:none;fill-rule:nonzero;fill:rgb(5.882353%,11.764706%,17.647059%);fill-opacity:1;" d="M 25.5 20.5 C 25.84375 20.53125 25.84375 20.53125 26.125 20.625 C 26.167969 20.789062 26.207031 20.953125 26.25 21.125 C 26.375 21.042969 26.496094 20.960938 26.625 20.875 C 27.023438 20.921875 27.023438 20.921875 27.375 21 C 27.476562 21.265625 27.476562 21.265625 27.5 21.625 C 27.320312 21.914062 27.109375 22.128906 26.875 22.375 C 27.082031 22.582031 27.289062 22.789062 27.5 23 C 27.375 23.308594 27.375 23.308594 27.25 23.625 C 27 23.628906 26.75 23.628906 26.5 23.625 C 26.457031 23.582031 26.417969 23.542969 26.375 23.5 C 26.328125 23.582031 26.277344 23.664062 26.226562 23.75 C 26 24 26 24 25.664062 24.03125 C 25.570312 24.019531 25.472656 24.011719 25.375 24 C 25.292969 23.835938 25.210938 23.671875 25.125 23.5 C 25.042969 23.542969 24.960938 23.582031 24.875 23.625 C 24.625 23.628906 24.375 23.628906 24.125 23.625 C 24.023438 23.289062 24.023438 23.289062 24 22.875 C 24.304688 22.515625 24.304688 22.515625 24.625 22.25 C 24.523438 22.179688 24.417969 22.109375 24.3125 22.039062 C 24 21.75 24 21.75 23.945312 21.421875 C 24 21.125 24 21.125 24.25 20.875 C 24.367188 20.902344 24.488281 20.925781 24.609375 20.953125 C 24.738281 20.96875 24.867188 20.984375 25 21 C 25.167969 20.835938 25.335938 20.667969 25.5 20.5 Z M 25.5 20.5 "/>
<path style=" stroke:none;fill-rule:nonzero;fill:rgb(5.882353%,11.764706%,17.254902%);fill-opacity:1;" d="M 6.75 20.625 C 6.832031 20.75 6.914062 20.871094 7 21 C 7.175781 20.960938 7.175781 20.960938 7.359375 20.921875 C 7.488281 20.90625 7.617188 20.890625 7.75 20.875 C 8 21.125 8 21.125 8.054688 21.421875 C 8 21.75 8 21.75 7.6875 22.039062 C 7.53125 22.144531 7.53125 22.144531 7.375 22.25 C 7.480469 22.335938 7.585938 22.425781 7.695312 22.515625 C 8 22.875 8 22.875 7.976562 23.289062 C 7.941406 23.398438 7.910156 23.511719 7.875 23.625 C 7.15625 23.640625 7.15625 23.640625 6.875 23.5 C 6.792969 23.664062 6.710938 23.828125 6.625 24 C 6.335938 24.03125 6.335938 24.03125 6 24 C 5.773438 23.75 5.773438 23.75 5.625 23.5 C 5.582031 23.542969 5.542969 23.582031 5.5 23.625 C 5.25 23.628906 5 23.628906 4.75 23.625 C 4.667969 23.417969 4.585938 23.210938 4.5 23 C 4.707031 22.753906 4.914062 22.503906 5.125 22.25 C 5.019531 22.160156 4.914062 22.070312 4.804688 21.976562 C 4.5 21.625 4.5 21.625 4.523438 21.273438 C 4.558594 21.183594 4.589844 21.09375 4.625 21 C 4.976562 20.921875 4.976562 20.921875 5.375 20.875 C 5.5 20.957031 5.621094 21.039062 5.75 21.125 C 5.765625 21.046875 5.78125 20.964844 5.796875 20.882812 C 5.824219 20.796875 5.847656 20.710938 5.875 20.625 C 6.214844 20.453125 6.390625 20.515625 6.75 20.625 Z M 6.75 20.625 "/>
<path style=" stroke:none;fill-rule:nonzero;fill:rgb(5.882353%,11.764706%,17.647059%);fill-opacity:1;" d="M 15.875 20.5 C 16.203125 20.617188 16.203125 20.617188 16.5 20.75 C 16.5 20.875 16.5 20.996094 16.5 21.125 C 16.625 21.042969 16.746094 20.960938 16.875 20.875 C 17.273438 20.921875 17.273438 20.921875 17.625 21 C 17.726562 21.265625 17.726562 21.265625 17.75 21.625 C 17.570312 21.914062 17.359375 22.128906 17.125 22.375 C 17.230469 22.46875 17.335938 22.5625 17.445312 22.65625 C 17.75 23 17.75 23 17.734375 23.28125 C 17.625 23.5 17.625 23.5 17.5 23.625 C 17.125 23.640625 17.125 23.640625 16.75 23.625 C 16.707031 23.582031 16.667969 23.542969 16.625 23.5 C 16.582031 23.625 16.542969 23.746094 16.5 23.875 C 15.78125 24.015625 15.78125 24.015625 15.5 23.875 C 15.457031 23.75 15.417969 23.628906 15.375 23.5 C 15.332031 23.542969 15.292969 23.582031 15.25 23.625 C 14.882812 23.648438 14.882812 23.648438 14.5 23.625 C 14.417969 23.542969 14.335938 23.460938 14.25 23.375 C 14.273438 22.953125 14.347656 22.78125 14.632812 22.460938 C 14.753906 22.355469 14.753906 22.355469 14.875 22.25 C 14.769531 22.160156 14.664062 22.070312 14.554688 21.976562 C 14.25 21.625 14.25 21.625 14.273438 21.273438 C 14.308594 21.183594 14.339844 21.09375 14.375 21 C 14.726562 20.921875 14.726562 20.921875 15.125 20.875 C 15.25 20.957031 15.371094 21.039062 15.5 21.125 C 15.515625 21.046875 15.53125 20.964844 15.546875 20.882812 C 15.574219 20.796875 15.597656 20.710938 15.625 20.625 C 15.707031 20.582031 15.789062 20.542969 15.875 20.5 Z M 15.875 20.5 "/>
<path style=" stroke:none;fill-rule:nonzero;fill:rgb(5.882353%,11.764706%,17.647059%);fill-opacity:1;" d="M 25.75 8.609375 C 26.125 8.625 26.125 8.625 26.25 8.75 C 26.367188 10.421875 26.25 12.21875 25.5 13.75 C 25.195312 13.875 25.195312 13.875 24.875 13.875 C 24.640625 13.75 24.640625 13.75 24.5 13.5 C 24.519531 13.074219 24.605469 12.699219 24.710938 12.285156 C 24.9375 11.351562 25.078125 10.4375 25.167969 9.476562 C 25.25 8.628906 25.25 8.628906 25.75 8.609375 Z M 25.75 8.609375 "/>
<path style=" stroke:none;fill-rule:nonzero;fill:rgb(5.882353%,11.764706%,17.647059%);fill-opacity:1;" d="M 22.703125 9.15625 C 22.800781 9.1875 22.898438 9.21875 23 9.25 C 23.371094 9.992188 23.03125 11.105469 22.792969 11.863281 C 22.554688 12.578125 22.289062 13.246094 21.875 13.875 C 21.628906 13.875 21.378906 13.875 21.125 13.875 C 20.980469 13.609375 20.980469 13.609375 20.875 13.25 C 21 12.882812 21 12.882812 21.210938 12.46875 C 21.589844 11.679688 21.761719 10.929688 21.871094 10.0625 C 21.902344 9.832031 21.949219 9.605469 22 9.375 C 22.375 9.125 22.375 9.125 22.703125 9.15625 Z M 22.703125 9.15625 "/>
<path style=" stroke:none;fill-rule:nonzero;fill:rgb(5.882353%,11.764706%,17.254902%);fill-opacity:1;" d="M 24.5 10.25 C 24.808594 11.558594 24.144531 13 23.5 14.125 C 23.203125 14.140625 23.203125 14.140625 22.875 14.125 C 22.792969 14.042969 22.710938 13.960938 22.625 13.875 C 22.671875 13.214844 22.851562 12.613281 23.054688 11.992188 C 23.082031 11.90625 23.109375 11.820312 23.136719 11.734375 C 23.191406 11.566406 23.242188 11.402344 23.296875 11.234375 C 23.371094 11.015625 23.4375 10.792969 23.503906 10.570312 C 23.714844 10.007812 23.984375 10.128906 24.5 10.25 Z M 24.5 10.25 "/>
<path style=" stroke:none;fill-rule:nonzero;fill:rgb(5.882353%,12.156863%,17.254902%);fill-opacity:1;" d="M 20.867188 24.601562 C 21.007812 24.601562 21.148438 24.597656 21.292969 24.597656 C 21.492188 24.597656 21.492188 24.597656 21.699219 24.597656 C 21.882812 24.59375 21.882812 24.59375 22.074219 24.59375 C 22.375 24.625 22.375 24.625 22.625 24.875 C 22.59375 25.257812 22.59375 25.257812 22.5 25.625 C 22.015625 25.867188 21.414062 25.777344 20.882812 25.78125 C 20.757812 25.785156 20.628906 25.785156 20.5 25.789062 C 20.375 25.789062 20.253906 25.789062 20.128906 25.792969 C 20.015625 25.792969 19.90625 25.792969 19.789062 25.792969 C 19.5 25.75 19.5 25.75 19.269531 25.582031 C 19.125 25.375 19.125 25.375 19.15625 25.046875 C 19.378906 24.34375 20.238281 24.601562 20.867188 24.601562 Z M 20.867188 24.601562 "/>
<path style=" stroke:none;fill-rule:nonzero;fill:rgb(5.882353%,12.156863%,17.254902%);fill-opacity:1;" d="M 11.117188 24.601562 C 11.257812 24.601562 11.398438 24.597656 11.542969 24.597656 C 11.742188 24.597656 11.742188 24.597656 11.949219 24.597656 C 12.132812 24.59375 12.132812 24.59375 12.324219 24.59375 C 12.625 24.625 12.625 24.625 12.875 24.875 C 12.84375 25.257812 12.84375 25.257812 12.75 25.625 C 12.265625 25.867188 11.664062 25.777344 11.132812 25.78125 C 11.007812 25.785156 10.878906 25.785156 10.75 25.789062 C 10.625 25.789062 10.503906 25.789062 10.378906 25.792969 C 10.265625 25.792969 10.15625 25.792969 10.039062 25.792969 C 9.75 25.75 9.75 25.75 9.519531 25.582031 C 9.375 25.375 9.375 25.375 9.40625 25.046875 C 9.628906 24.34375 10.488281 24.601562 11.117188 24.601562 Z M 11.117188 24.601562 "/>
<path style=" stroke:none;fill-rule:nonzero;fill:rgb(5.882353%,12.156863%,17.647059%);fill-opacity:1;" d="M 25.328125 24.585938 C 25.464844 24.585938 25.605469 24.585938 25.75 24.585938 C 25.960938 24.582031 25.960938 24.582031 26.171875 24.578125 C 26.375 24.578125 26.375 24.578125 26.578125 24.578125 C 26.703125 24.578125 26.824219 24.578125 26.949219 24.578125 C 27.097656 24.601562 27.097656 24.601562 27.25 24.625 C 27.5 25 27.5 25 27.46875 25.257812 C 27.375 25.5 27.375 25.5 27.125 25.75 C 26.851562 25.78125 26.851562 25.78125 26.511719 25.785156 C 26.328125 25.785156 26.328125 25.785156 26.144531 25.785156 C 26.015625 25.785156 25.890625 25.78125 25.757812 25.78125 C 25.632812 25.78125 25.503906 25.785156 25.375 25.785156 C 25.25 25.785156 25.128906 25.785156 25.003906 25.785156 C 24.890625 25.785156 24.78125 25.78125 24.667969 25.78125 C 24.375 25.75 24.375 25.75 24 25.5 C 23.960938 25.1875 23.960938 25.1875 24 24.875 C 24.386719 24.488281 24.796875 24.589844 25.328125 24.585938 Z M 25.328125 24.585938 "/>
<path style=" stroke:none;fill-rule:nonzero;fill:rgb(5.882353%,12.156863%,17.647059%);fill-opacity:1;" d="M 6.242188 24.601562 C 6.382812 24.601562 6.523438 24.597656 6.667969 24.597656 C 6.867188 24.597656 6.867188 24.597656 7.074219 24.597656 C 7.257812 24.59375 7.257812 24.59375 7.449219 24.59375 C 7.75 24.625 7.75 24.625 8 24.875 C 8.039062 25.1875 8.039062 25.1875 8 25.5 C 7.441406 25.871094 6.90625 25.792969 6.25 25.789062 C 6.125 25.792969 5.996094 25.792969 5.867188 25.796875 C 5.6875 25.796875 5.6875 25.796875 5.5 25.796875 C 5.390625 25.796875 5.277344 25.796875 5.164062 25.796875 C 4.875 25.75 4.875 25.75 4.644531 25.582031 C 4.5 25.375 4.5 25.375 4.53125 25.046875 C 4.753906 24.34375 5.613281 24.601562 6.242188 24.601562 Z M 6.242188 24.601562 "/>
<path style=" stroke:none;fill-rule:nonzero;fill:rgb(5.882353%,11.764706%,17.254902%);fill-opacity:1;" d="M 15.992188 24.59375 C 16.132812 24.589844 16.273438 24.589844 16.417969 24.585938 C 16.550781 24.585938 16.6875 24.585938 16.824219 24.582031 C 16.945312 24.582031 17.070312 24.582031 17.199219 24.578125 C 17.296875 24.59375 17.398438 24.609375 17.5 24.625 C 17.75 25 17.75 25 17.71875 25.328125 C 17.6875 25.425781 17.65625 25.523438 17.625 25.625 C 17.140625 25.867188 16.539062 25.777344 16.007812 25.78125 C 15.882812 25.785156 15.753906 25.785156 15.625 25.789062 C 15.5 25.789062 15.378906 25.789062 15.253906 25.792969 C 15.140625 25.792969 15.03125 25.792969 14.914062 25.796875 C 14.625 25.75 14.625 25.75 14.394531 25.578125 C 14.25 25.375 14.25 25.375 14.28125 25.046875 C 14.503906 24.34375 15.363281 24.597656 15.992188 24.59375 Z M 15.992188 24.59375 "/>
<path style=" stroke:none;fill-rule:nonzero;fill:rgb(36.862746%,72.156864%,90.980393%);fill-opacity:1;" d="M 20.5 1.625 C 21.65625 1.625 22.808594 1.625 24 1.625 C 24 1.871094 24 2.121094 24 2.375 C 23.875 2.5 23.875 2.5 23.550781 2.515625 C 23.410156 2.515625 23.269531 2.511719 23.125 2.511719 C 22.972656 2.511719 22.820312 2.511719 22.664062 2.511719 C 22.503906 2.511719 22.34375 2.507812 22.179688 2.507812 C 22.019531 2.507812 21.859375 2.507812 21.695312 2.507812 C 21.296875 2.503906 20.898438 2.503906 20.5 2.5 C 20.5 2.210938 20.5 1.921875 20.5 1.625 Z M 20.5 1.625 "/>
<path style=" stroke:none;fill-rule:nonzero;fill:rgb(5.882353%,11.764706%,17.647059%);fill-opacity:1;" d="M 22.179688 16.226562 C 22.324219 16.226562 22.46875 16.222656 22.617188 16.222656 C 23 16.25 23 16.25 23.375 16.5 C 23.414062 16.8125 23.414062 16.8125 23.375 17.125 C 23.066406 17.433594 22.875 17.410156 22.449219 17.414062 C 22.320312 17.414062 22.320312 17.414062 22.1875 17.414062 C 22.101562 17.417969 22.015625 17.417969 21.925781 17.421875 C 21.675781 17.421875 21.675781 17.421875 21.25 17.375 C 21 17 21 17 21.03125 16.671875 C 21.0625 16.574219 21.09375 16.476562 21.125 16.375 C 21.480469 16.199219 21.785156 16.230469 22.179688 16.226562 Z M 22.179688 16.226562 "/>
<path style=" stroke:none;fill-rule:nonzero;fill:rgb(93.725491%,94.117647%,94.509804%);fill-opacity:1;" d="M 9.625 13.59375 C 10 13.625 10 13.625 10.25 13.875 C 10.296875 14.230469 10.296875 14.425781 10.109375 14.734375 C 9.761719 14.945312 9.507812 14.84375 9.125 14.75 C 9.046875 14.328125 9.046875 14.328125 9 13.875 C 9.25 13.625 9.25 13.625 9.625 13.59375 Z M 9.625 13.59375 "/>
</g>
</svg>
