<?xml version="1.0" encoding="UTF-8"?>
<svg xmlns="http://www.w3.org/2000/svg" xmlns:xlink="http://www.w3.org/1999/xlink" width="32" height="32" viewBox="0 0 32 32" version="1.1">
<g id="surface1">
<path style=" stroke:none;fill-rule:nonzero;fill:rgb(0%,83.92157%,74.117649%);fill-opacity:1;" d="M 7.5 0 C 7.984375 0.25 8.199219 0.425781 8.5 0.875 C 8.769531 0.933594 8.769531 0.933594 9.085938 0.921875 C 9.265625 0.925781 9.265625 0.925781 9.453125 0.925781 C 9.582031 0.925781 9.714844 0.925781 9.851562 0.925781 C 10.054688 0.925781 10.054688 0.925781 10.257812 0.929688 C 10.691406 0.933594 11.121094 0.9375 11.554688 0.9375 C 12.121094 0.9375 12.691406 0.945312 13.257812 0.949219 C 13.453125 0.949219 13.453125 0.949219 13.65625 0.949219 C 13.777344 0.949219 13.898438 0.949219 14.023438 0.953125 C 14.132812 0.953125 14.238281 0.953125 14.347656 0.953125 C 14.6875 1.011719 14.796875 1.105469 15 1.375 C 15.050781 1.796875 15.015625 2.199219 15 2.625 C 15.660156 2.625 16.320312 2.625 17 2.625 C 16.992188 2.425781 16.984375 2.226562 16.976562 2.023438 C 16.953125 1.4375 16.953125 1.4375 17.152344 1.171875 C 17.441406 0.949219 17.609375 0.953125 17.96875 0.957031 C 18.089844 0.957031 18.210938 0.957031 18.335938 0.957031 C 18.464844 0.957031 18.59375 0.960938 18.730469 0.960938 C 19.003906 0.960938 19.28125 0.960938 19.554688 0.957031 C 19.988281 0.960938 20.421875 0.960938 20.855469 0.964844 C 21.273438 0.96875 21.695312 0.964844 22.113281 0.960938 C 22.242188 0.964844 22.371094 0.96875 22.503906 0.96875 C 23.152344 0.980469 23.152344 0.980469 23.714844 0.707031 C 23.90625 0.480469 23.90625 0.480469 24.125 0.125 C 24.589844 -0.109375 25.117188 -0.0546875 25.625 0 C 26.09375 0.222656 26.316406 0.417969 26.617188 0.835938 C 26.792969 1.386719 26.777344 1.820312 26.625 2.375 C 26.359375 2.804688 26.113281 3.101562 25.625 3.25 C 24.820312 3.328125 24.410156 3.214844 23.75 2.75 C 23.625 2.566406 23.625 2.566406 23.5 2.375 C 23.265625 2.316406 23.265625 2.316406 22.988281 2.320312 C 22.886719 2.320312 22.78125 2.316406 22.671875 2.3125 C 22.5 2.3125 22.5 2.3125 22.328125 2.3125 C 22.210938 2.308594 22.09375 2.304688 21.976562 2.304688 C 21.605469 2.296875 21.230469 2.292969 20.859375 2.289062 C 20.609375 2.285156 20.355469 2.28125 20.105469 2.277344 C 19.484375 2.265625 18.867188 2.257812 18.25 2.25 C 18.292969 2.414062 18.332031 2.578125 18.375 2.75 C 18.492188 2.777344 18.609375 2.808594 18.726562 2.835938 C 20.886719 3.390625 22.660156 4.261719 24.5 5.5 C 24.550781 5.449219 24.605469 5.394531 24.65625 5.339844 C 24.890625 5.105469 25.125 4.867188 25.359375 4.632812 C 25.480469 4.507812 25.480469 4.507812 25.605469 4.382812 C 25.683594 4.304688 25.761719 4.226562 25.84375 4.144531 C 25.914062 4.074219 25.984375 4 26.0625 3.925781 C 26.613281 3.414062 27.488281 3.597656 28.199219 3.59375 C 28.484375 3.59375 28.765625 3.589844 29.046875 3.585938 C 29.226562 3.585938 29.40625 3.585938 29.585938 3.582031 C 29.75 3.582031 29.910156 3.582031 30.078125 3.578125 C 30.519531 3.628906 30.699219 3.683594 31 4 C 31.050781 4.316406 31.050781 4.316406 31.046875 4.671875 C 31.0625 5.171875 31.0625 5.171875 31.292969 5.59375 C 31.519531 5.78125 31.519531 5.78125 31.875 6 C 32.109375 6.464844 32.054688 6.992188 32 7.5 C 31.777344 7.96875 31.582031 8.191406 31.164062 8.492188 C 30.613281 8.667969 30.179688 8.652344 29.625 8.5 C 29.195312 8.234375 28.898438 7.988281 28.75 7.5 C 28.671875 6.695312 28.785156 6.285156 29.25 5.625 C 29.375 5.542969 29.496094 5.460938 29.625 5.375 C 29.714844 5.117188 29.714844 5.117188 29.75 4.875 C 27.976562 4.726562 27.976562 4.726562 26.378906 5.316406 C 26.039062 5.632812 25.761719 5.988281 25.5 6.375 C 25.601562 6.492188 25.707031 6.609375 25.8125 6.726562 C 28.445312 9.808594 29.671875 13.335938 29.375 17.375 C 29.3125 17.863281 29.230469 18.347656 29.121094 18.828125 C 29.019531 19.300781 28.964844 19.664062 29.125 20.125 C 29.289062 20.375 29.289062 20.375 29.507812 20.601562 C 29.578125 20.675781 29.644531 20.753906 29.714844 20.828125 C 29.984375 21.121094 29.984375 21.121094 30.242188 21.316406 C 30.652344 21.664062 30.953125 21.941406 31.089844 22.476562 C 31.113281 22.886719 31.113281 23.289062 31.097656 23.699219 C 31.097656 23.847656 31.09375 23.996094 31.09375 24.148438 C 31.085938 24.621094 31.074219 25.089844 31.0625 25.5625 C 31.058594 25.882812 31.050781 26.203125 31.046875 26.523438 C 31.039062 27.308594 31.019531 28.089844 31 28.875 C 31.148438 28.929688 31.148438 28.929688 31.296875 28.984375 C 31.625 29.125 31.625 29.125 31.851562 29.375 C 32.070312 29.921875 32.085938 30.421875 32 31 C 31.742188 31.515625 31.53125 31.785156 31 32 C 30.464844 32.074219 30.007812 32.0625 29.515625 31.835938 C 28.910156 31.355469 28.910156 31.355469 28.75 30.875 C 28.691406 30.109375 28.828125 29.609375 29.320312 29.015625 C 29.5 28.875 29.5 28.875 29.75 28.875 C 29.761719 27.988281 29.761719 27.101562 29.757812 26.210938 C 29.757812 25.910156 29.761719 25.609375 29.765625 25.308594 C 29.769531 24.875 29.765625 24.4375 29.761719 24.003906 C 29.765625 23.804688 29.765625 23.804688 29.769531 23.601562 C 29.757812 22.8125 29.628906 22.417969 29.070312 21.851562 C 28.800781 21.613281 28.570312 21.410156 28.25 21.25 C 28.203125 21.410156 28.203125 21.410156 28.152344 21.574219 C 27.625 23.046875 26.664062 24.234375 25.625 25.375 C 25.550781 25.460938 25.476562 25.542969 25.398438 25.632812 C 23.835938 27.320312 21.542969 28.359375 19.375 29 C 19.535156 29.332031 19.535156 29.332031 19.875 29.625 C 20.320312 29.722656 20.761719 29.722656 21.21875 29.726562 C 21.339844 29.730469 21.464844 29.734375 21.589844 29.734375 C 21.894531 29.742188 22.199219 29.746094 22.5 29.75 C 22.535156 29.671875 22.570312 29.597656 22.609375 29.515625 C 22.8125 29.136719 23 28.972656 23.375 28.75 C 23.910156 28.664062 24.351562 28.6875 24.851562 28.898438 C 25.585938 29.507812 25.585938 29.507812 25.667969 30.019531 C 25.699219 30.800781 25.515625 31.210938 24.984375 31.789062 C 24.484375 32.082031 24.066406 32.085938 23.5 32 C 23.097656 31.816406 22.78125 31.59375 22.5 31.25 C 22.5 31.167969 22.5 31.085938 22.5 31 C 22.414062 31.003906 22.328125 31.007812 22.238281 31.015625 C 21.847656 31.03125 21.453125 31.042969 21.0625 31.054688 C 20.859375 31.066406 20.859375 31.066406 20.652344 31.078125 C 19.953125 31.089844 19.492188 31.074219 18.949219 30.605469 C 18.726562 30.382812 18.523438 30.15625 18.332031 29.90625 C 18.042969 29.546875 17.847656 29.398438 17.386719 29.292969 C 16.9375 29.246094 16.5 29.234375 16.046875 29.234375 C 15.890625 29.234375 15.734375 29.234375 15.570312 29.234375 C 14.730469 29.261719 14.109375 29.320312 13.480469 29.90625 C 13.210938 30.214844 12.980469 30.535156 12.75 30.875 C 12.421875 31.039062 12.183594 31.015625 11.820312 31.011719 C 11.683594 31.011719 11.550781 31.011719 11.410156 31.011719 C 11.269531 31.011719 11.128906 31.007812 10.984375 31.007812 C 10.769531 31.007812 10.769531 31.007812 10.554688 31.007812 C 10.203125 31.003906 9.851562 31.003906 9.5 31 C 9.464844 31.097656 9.429688 31.199219 9.390625 31.296875 C 9.203125 31.730469 9.0625 31.824219 8.625 32 C 8.089844 32.070312 7.648438 32.0625 7.148438 31.851562 C 6.414062 31.242188 6.414062 31.242188 6.332031 30.730469 C 6.300781 29.949219 6.484375 29.539062 7.015625 28.960938 C 7.515625 28.667969 7.933594 28.664062 8.5 28.75 C 8.902344 28.933594 9.21875 29.15625 9.5 29.5 C 9.5 29.582031 9.5 29.664062 9.5 29.75 C 9.925781 29.746094 10.355469 29.738281 10.78125 29.726562 C 10.902344 29.726562 11.023438 29.726562 11.148438 29.722656 C 11.878906 29.714844 11.878906 29.714844 12.457031 29.304688 C 12.515625 29.203125 12.570312 29.105469 12.625 29 C 12.539062 28.976562 12.453125 28.953125 12.367188 28.925781 C 8.859375 27.84375 5.902344 25.601562 4.164062 22.34375 C 3.75 21.558594 3.75 21.558594 3.75 21.25 C 3.589844 21.386719 3.433594 21.527344 3.273438 21.664062 C 3.183594 21.742188 3.097656 21.816406 3.003906 21.898438 C 2.921875 21.972656 2.835938 22.046875 2.75 22.125 C 2.683594 22.179688 2.617188 22.234375 2.550781 22.289062 C 2.316406 22.574219 2.328125 22.753906 2.324219 23.121094 C 2.320312 23.246094 2.320312 23.371094 2.316406 23.5 C 2.316406 23.636719 2.316406 23.773438 2.316406 23.914062 C 2.316406 24.054688 2.316406 24.195312 2.3125 24.335938 C 2.3125 24.632812 2.3125 24.929688 2.3125 25.226562 C 2.3125 25.675781 2.308594 26.128906 2.300781 26.582031 C 2.300781 26.871094 2.300781 27.15625 2.300781 27.445312 C 2.296875 27.578125 2.296875 27.714844 2.296875 27.855469 C 2.28125 28.605469 2.28125 28.605469 2.683594 29.203125 C 2.839844 29.289062 2.839844 29.289062 3 29.375 C 3.332031 29.820312 3.320312 30.339844 3.25 30.875 C 3.027344 31.390625 2.734375 31.722656 2.25 32 C 1.613281 32.105469 1.140625 32.070312 0.5625 31.78125 C 0.199219 31.453125 0.0273438 31.214844 -0.0390625 30.726562 C -0.0429688 29.988281 0.0820312 29.589844 0.570312 29.023438 C 0.75 28.875 0.75 28.875 1 28.875 C 0.996094 28.796875 0.988281 28.714844 0.984375 28.632812 C 0.9375 27.792969 0.90625 26.949219 0.882812 26.109375 C 0.871094 25.796875 0.859375 25.480469 0.839844 25.167969 C 0.679688 22.410156 0.679688 22.410156 1.484375 21.460938 C 1.855469 21.082031 2.25 20.753906 2.671875 20.425781 C 3.09375 20.082031 3.09375 20.082031 3.175781 19.523438 C 3.078125 19.109375 2.921875 18.765625 2.75 18.375 C 2.140625 14.851562 2.960938 11.171875 5 8.25 C 5.355469 7.773438 5.738281 7.324219 6.125 6.875 C 6.25 6.710938 6.378906 6.542969 6.5 6.375 C 6.050781 5.707031 5.59375 5.105469 4.777344 4.921875 C 3.9375 4.832031 3.09375 4.839844 2.25 4.875 C 2.347656 5.40625 2.578125 5.546875 3 5.875 C 3.285156 6.253906 3.300781 6.644531 3.289062 7.113281 C 3.199219 7.722656 2.910156 8.132812 2.414062 8.5 C 1.863281 8.667969 1.425781 8.664062 0.875 8.5 C 0.4375 8.246094 0.164062 7.992188 0 7.5 C -0.0703125 6.902344 -0.0585938 6.484375 0.226562 5.945312 C 0.5 5.625 0.5 5.625 0.875 5.375 C 0.925781 5.023438 0.929688 4.683594 0.9375 4.328125 C 1 4 1 4 1.199219 3.796875 C 1.792969 3.457031 2.523438 3.550781 3.191406 3.546875 C 3.464844 3.546875 3.738281 3.539062 4.015625 3.53125 C 5.484375 3.507812 5.484375 3.507812 6.089844 4.03125 C 6.234375 4.183594 6.367188 4.339844 6.5 4.5 C 6.605469 4.601562 6.707031 4.703125 6.816406 4.804688 C 6.898438 4.886719 6.980469 4.96875 7.0625 5.054688 C 7.144531 5.140625 7.230469 5.226562 7.316406 5.3125 C 7.378906 5.375 7.4375 5.4375 7.5 5.5 C 7.582031 5.449219 7.664062 5.394531 7.746094 5.339844 C 8.121094 5.097656 8.5 4.863281 8.875 4.625 C 9.046875 4.511719 9.046875 4.511719 9.222656 4.398438 C 10.574219 3.550781 12.085938 3.121094 13.625 2.75 C 13.667969 2.585938 13.707031 2.421875 13.75 2.25 C 13.015625 2.253906 12.277344 2.257812 11.542969 2.269531 C 11.292969 2.273438 11.039062 2.273438 10.789062 2.273438 C 10.429688 2.273438 10.070312 2.28125 9.710938 2.285156 C 9.542969 2.285156 9.542969 2.285156 9.371094 2.285156 C 8.804688 2.296875 8.578125 2.3125 8.125 2.683594 C 8.042969 2.789062 7.960938 2.890625 7.875 3 C 7.429688 3.308594 7.03125 3.304688 6.5 3.25 C 6 3.070312 5.691406 2.839844 5.375 2.414062 C 5.207031 1.863281 5.210938 1.425781 5.375 0.875 C 5.90625 -0.015625 6.523438 -0.109375 7.5 0 Z M 7.5 0 "/>
<path style=" stroke:none;fill-rule:nonzero;fill:rgb(12.941177%,11.764706%,11.764706%);fill-opacity:1;" d="M 7.5 0 C 7.984375 0.25 8.199219 0.425781 8.5 0.875 C 8.769531 0.933594 8.769531 0.933594 9.085938 0.921875 C 9.265625 0.925781 9.265625 0.925781 9.453125 0.925781 C 9.582031 0.925781 9.714844 0.925781 9.851562 0.925781 C 10.054688 0.925781 10.054688 0.925781 10.257812 0.929688 C 10.691406 0.933594 11.121094 0.9375 11.554688 0.9375 C 12.121094 0.9375 12.691406 0.945312 13.257812 0.949219 C 13.453125 0.949219 13.453125 0.949219 13.65625 0.949219 C 13.777344 0.949219 13.898438 0.949219 14.023438 0.953125 C 14.132812 0.953125 14.238281 0.953125 14.347656 0.953125 C 14.6875 1.011719 14.796875 1.105469 15 1.375 C 15.050781 1.796875 15.015625 2.199219 15 2.625 C 15.660156 2.625 16.320312 2.625 17 2.625 C 16.992188 2.425781 16.984375 2.226562 16.976562 2.023438 C 16.953125 1.4375 16.953125 1.4375 17.152344 1.171875 C 17.441406 0.949219 17.609375 0.953125 17.96875 0.957031 C 18.089844 0.957031 18.210938 0.957031 18.335938 0.957031 C 18.464844 0.957031 18.59375 0.960938 18.730469 0.960938 C 19.003906 0.960938 19.28125 0.960938 19.554688 0.957031 C 19.988281 0.960938 20.421875 0.960938 20.855469 0.964844 C 21.273438 0.96875 21.695312 0.964844 22.113281 0.960938 C 22.242188 0.964844 22.371094 0.96875 22.503906 0.96875 C 23.152344 0.980469 23.152344 0.980469 23.714844 0.707031 C 23.90625 0.480469 23.90625 0.480469 24.125 0.125 C 24.589844 -0.109375 25.117188 -0.0546875 25.625 0 C 26.09375 0.222656 26.316406 0.417969 26.617188 0.835938 C 26.792969 1.386719 26.777344 1.820312 26.625 2.375 C 26.359375 2.804688 26.113281 3.101562 25.625 3.25 C 24.820312 3.328125 24.410156 3.214844 23.75 2.75 C 23.625 2.566406 23.625 2.566406 23.5 2.375 C 23.265625 2.316406 23.265625 2.316406 22.988281 2.320312 C 22.886719 2.320312 22.78125 2.316406 22.671875 2.3125 C 22.5 2.3125 22.5 2.3125 22.328125 2.3125 C 22.210938 2.308594 22.09375 2.304688 21.976562 2.304688 C 21.605469 2.296875 21.230469 2.292969 20.859375 2.289062 C 20.609375 2.285156 20.355469 2.28125 20.105469 2.277344 C 19.484375 2.265625 18.867188 2.257812 18.25 2.25 C 18.292969 2.414062 18.332031 2.578125 18.375 2.75 C 18.492188 2.777344 18.609375 2.808594 18.726562 2.835938 C 20.886719 3.390625 22.660156 4.261719 24.5 5.5 C 24.550781 5.449219 24.605469 5.394531 24.65625 5.339844 C 24.890625 5.105469 25.125 4.867188 25.359375 4.632812 C 25.480469 4.507812 25.480469 4.507812 25.605469 4.382812 C 25.683594 4.304688 25.761719 4.226562 25.84375 4.144531 C 25.914062 4.074219 25.984375 4 26.0625 3.925781 C 26.613281 3.414062 27.488281 3.597656 28.199219 3.59375 C 28.484375 3.59375 28.765625 3.589844 29.046875 3.585938 C 29.226562 3.585938 29.40625 3.585938 29.585938 3.582031 C 29.75 3.582031 29.910156 3.582031 30.078125 3.578125 C 30.519531 3.628906 30.699219 3.683594 31 4 C 31.050781 4.316406 31.050781 4.316406 31.046875 4.671875 C 31.0625 5.171875 31.0625 5.171875 31.292969 5.59375 C 31.519531 5.78125 31.519531 5.78125 31.875 6 C 32.109375 6.464844 32.054688 6.992188 32 7.5 C 31.777344 7.96875 31.582031 8.191406 31.164062 8.492188 C 30.613281 8.667969 30.179688 8.652344 29.625 8.5 C 29.195312 8.234375 28.898438 7.988281 28.75 7.5 C 28.671875 6.695312 28.785156 6.285156 29.25 5.625 C 29.375 5.542969 29.496094 5.460938 29.625 5.375 C 29.714844 5.117188 29.714844 5.117188 29.75 4.875 C 27.976562 4.726562 27.976562 4.726562 26.378906 5.316406 C 26.039062 5.632812 25.761719 5.988281 25.5 6.375 C 25.601562 6.492188 25.707031 6.609375 25.8125 6.726562 C 28.445312 9.808594 29.671875 13.335938 29.375 17.375 C 29.3125 17.863281 29.230469 18.347656 29.121094 18.828125 C 29.019531 19.300781 28.964844 19.664062 29.125 20.125 C 29.289062 20.375 29.289062 20.375 29.507812 20.601562 C 29.578125 20.675781 29.644531 20.753906 29.714844 20.828125 C 29.984375 21.121094 29.984375 21.121094 30.242188 21.316406 C 30.652344 21.664062 30.953125 21.941406 31.089844 22.476562 C 31.113281 22.886719 31.113281 23.289062 31.097656 23.699219 C 31.097656 23.847656 31.09375 23.996094 31.09375 24.148438 C 31.085938 24.621094 31.074219 25.089844 31.0625 25.5625 C 31.058594 25.882812 31.050781 26.203125 31.046875 26.523438 C 31.039062 27.308594 31.019531 28.089844 31 28.875 C 31.148438 28.929688 31.148438 28.929688 31.296875 28.984375 C 31.625 29.125 31.625 29.125 31.851562 29.375 C 32.070312 29.921875 32.085938 30.421875 32 31 C 31.742188 31.515625 31.53125 31.785156 31 32 C 30.464844 32.074219 30.007812 32.0625 29.515625 31.835938 C 28.910156 31.355469 28.910156 31.355469 28.75 30.875 C 28.691406 30.109375 28.828125 29.609375 29.320312 29.015625 C 29.5 28.875 29.5 28.875 29.75 28.875 C 29.761719 27.988281 29.761719 27.101562 29.757812 26.210938 C 29.757812 25.910156 29.761719 25.609375 29.765625 25.308594 C 29.769531 24.875 29.765625 24.4375 29.761719 24.003906 C 29.765625 23.804688 29.765625 23.804688 29.769531 23.601562 C 29.757812 22.8125 29.628906 22.417969 29.070312 21.851562 C 28.800781 21.613281 28.570312 21.410156 28.25 21.25 C 28.203125 21.410156 28.203125 21.410156 28.152344 21.574219 C 27.625 23.046875 26.664062 24.234375 25.625 25.375 C 25.550781 25.460938 25.476562 25.542969 25.398438 25.632812 C 23.835938 27.320312 21.542969 28.359375 19.375 29 C 19.535156 29.332031 19.535156 29.332031 19.875 29.625 C 20.320312 29.722656 20.761719 29.722656 21.21875 29.726562 C 21.339844 29.730469 21.464844 29.734375 21.589844 29.734375 C 21.894531 29.742188 22.199219 29.746094 22.5 29.75 C 22.535156 29.671875 22.570312 29.597656 22.609375 29.515625 C 22.8125 29.136719 23 28.972656 23.375 28.75 C 23.910156 28.664062 24.351562 28.6875 24.851562 28.898438 C 25.585938 29.507812 25.585938 29.507812 25.667969 30.019531 C 25.699219 30.800781 25.515625 31.210938 24.984375 31.789062 C 24.484375 32.082031 24.066406 32.085938 23.5 32 C 23.097656 31.816406 22.78125 31.59375 22.5 31.25 C 22.5 31.167969 22.5 31.085938 22.5 31 C 22.414062 31.003906 22.328125 31.007812 22.238281 31.015625 C 21.847656 31.03125 21.453125 31.042969 21.0625 31.054688 C 20.859375 31.066406 20.859375 31.066406 20.652344 31.078125 C 19.953125 31.089844 19.492188 31.074219 18.949219 30.605469 C 18.726562 30.382812 18.523438 30.15625 18.332031 29.90625 C 18.042969 29.546875 17.847656 29.398438 17.386719 29.292969 C 16.9375 29.246094 16.5 29.234375 16.046875 29.234375 C 15.890625 29.234375 15.734375 29.234375 15.570312 29.234375 C 14.730469 29.261719 14.109375 29.320312 13.480469 29.90625 C 13.210938 30.214844 12.980469 30.535156 12.75 30.875 C 12.421875 31.039062 12.183594 31.015625 11.820312 31.011719 C 11.683594 31.011719 11.550781 31.011719 11.410156 31.011719 C 11.269531 31.011719 11.128906 31.007812 10.984375 31.007812 C 10.769531 31.007812 10.769531 31.007812 10.554688 31.007812 C 10.203125 31.003906 9.851562 31.003906 9.5 31 C 9.464844 31.097656 9.429688 31.199219 9.390625 31.296875 C 9.203125 31.730469 9.0625 31.824219 8.625 32 C 8.089844 32.070312 7.648438 32.0625 7.148438 31.851562 C 6.414062 31.242188 6.414062 31.242188 6.332031 30.730469 C 6.300781 29.949219 6.484375 29.539062 7.015625 28.960938 C 7.515625 28.667969 7.933594 28.664062 8.5 28.75 C 8.902344 28.933594 9.21875 29.15625 9.5 29.5 C 9.5 29.582031 9.5 29.664062 9.5 29.75 C 9.925781 29.746094 10.355469 29.738281 10.78125 29.726562 C 10.902344 29.726562 11.023438 29.726562 11.148438 29.722656 C 11.878906 29.714844 11.878906 29.714844 12.457031 29.304688 C 12.515625 29.203125 12.570312 29.105469 12.625 29 C 12.539062 28.976562 12.453125 28.953125 12.367188 28.925781 C 8.859375 27.84375 5.902344 25.601562 4.164062 22.34375 C 3.75 21.558594 3.75 21.558594 3.75 21.25 C 3.589844 21.386719 3.433594 21.527344 3.273438 21.664062 C 3.183594 21.742188 3.097656 21.816406 3.003906 21.898438 C 2.921875 21.972656 2.835938 22.046875 2.75 22.125 C 2.683594 22.179688 2.617188 22.234375 2.550781 22.289062 C 2.316406 22.574219 2.328125 22.753906 2.324219 23.121094 C 2.320312 23.246094 2.320312 23.371094 2.316406 23.5 C 2.316406 23.636719 2.316406 23.773438 2.316406 23.914062 C 2.316406 24.054688 2.316406 24.195312 2.3125 24.335938 C 2.3125 24.632812 2.3125 24.929688 2.3125 25.226562 C 2.3125 25.675781 2.308594 26.128906 2.300781 26.582031 C 2.300781 26.871094 2.300781 27.15625 2.300781 27.445312 C 2.296875 27.578125 2.296875 27.714844 2.296875 27.855469 C 2.28125 28.605469 2.28125 28.605469 2.683594 29.203125 C 2.839844 29.289062 2.839844 29.289062 3 29.375 C 3.332031 29.820312 3.320312 30.339844 3.25 30.875 C 3.027344 31.390625 2.734375 31.722656 2.25 32 C 1.613281 32.105469 1.140625 32.070312 0.5625 31.78125 C 0.199219 31.453125 0.0273438 31.214844 -0.0390625 30.726562 C -0.0429688 29.988281 0.0820312 29.589844 0.570312 29.023438 C 0.75 28.875 0.75 28.875 1 28.875 C 0.996094 28.796875 0.988281 28.714844 0.984375 28.632812 C 0.9375 27.792969 0.90625 26.949219 0.882812 26.109375 C 0.871094 25.796875 0.859375 25.480469 0.839844 25.167969 C 0.679688 22.410156 0.679688 22.410156 1.484375 21.460938 C 1.855469 21.082031 2.25 20.753906 2.671875 20.425781 C 3.09375 20.082031 3.09375 20.082031 3.175781 19.523438 C 3.078125 19.109375 2.921875 18.765625 2.75 18.375 C 2.140625 14.851562 2.960938 11.171875 5 8.25 C 5.355469 7.773438 5.738281 7.324219 6.125 6.875 C 6.25 6.710938 6.378906 6.542969 6.5 6.375 C 6.050781 5.707031 5.59375 5.105469 4.777344 4.921875 C 3.9375 4.832031 3.09375 4.839844 2.25 4.875 C 2.347656 5.40625 2.578125 5.546875 3 5.875 C 3.285156 6.253906 3.300781 6.644531 3.289062 7.113281 C 3.199219 7.722656 2.910156 8.132812 2.414062 8.5 C 1.863281 8.667969 1.425781 8.664062 0.875 8.5 C 0.4375 8.246094 0.164062 7.992188 0 7.5 C -0.0703125 6.902344 -0.0585938 6.484375 0.226562 5.945312 C 0.5 5.625 0.5 5.625 0.875 5.375 C 0.925781 5.023438 0.929688 4.683594 0.9375 4.328125 C 1 4 1 4 1.199219 3.796875 C 1.792969 3.457031 2.523438 3.550781 3.191406 3.546875 C 3.464844 3.546875 3.738281 3.539062 4.015625 3.53125 C 5.484375 3.507812 5.484375 3.507812 6.089844 4.03125 C 6.234375 4.183594 6.367188 4.339844 6.5 4.5 C 6.605469 4.601562 6.707031 4.703125 6.816406 4.804688 C 6.898438 4.886719 6.980469 4.96875 7.0625 5.054688 C 7.144531 5.140625 7.230469 5.226562 7.316406 5.3125 C 7.378906 5.375 7.4375 5.4375 7.5 5.5 C 7.582031 5.449219 7.664062 5.394531 7.746094 5.339844 C 8.121094 5.097656 8.5 4.863281 8.875 4.625 C 9.046875 4.511719 9.046875 4.511719 9.222656 4.398438 C 10.574219 3.550781 12.085938 3.121094 13.625 2.75 C 13.667969 2.585938 13.707031 2.421875 13.75 2.25 C 13.015625 2.253906 12.277344 2.257812 11.542969 2.269531 C 11.292969 2.273438 11.039062 2.273438 10.789062 2.273438 C 10.429688 2.273438 10.070312 2.28125 9.710938 2.285156 C 9.542969 2.285156 9.542969 2.285156 9.371094 2.285156 C 8.804688 2.296875 8.578125 2.3125 8.125 2.683594 C 8.042969 2.789062 7.960938 2.890625 7.875 3 C 7.429688 3.308594 7.03125 3.304688 6.5 3.25 C 6 3.070312 5.691406 2.839844 5.375 2.414062 C 5.207031 1.863281 5.210938 1.425781 5.375 0.875 C 5.90625 -0.015625 6.523438 -0.109375 7.5 0 Z M 7.25 7.375 C 7.15625 7.46875 7.058594 7.5625 6.960938 7.65625 C 4.753906 9.960938 3.660156 13.109375 3.691406 16.269531 C 3.808594 19.695312 5.296875 22.78125 7.773438 25.140625 C 10.433594 27.472656 13.746094 28.476562 17.25 28.25 C 20.617188 27.859375 23.628906 26.140625 25.75 23.5 C 27.023438 21.789062 27.699219 19.949219 28.125 17.875 C 28.148438 17.777344 28.171875 17.675781 28.199219 17.578125 C 28.6875 14.496094 27.773438 11.433594 26.039062 8.898438 C 25.609375 8.304688 25.144531 7.769531 24.625 7.25 C 24.527344 7.152344 24.433594 7.058594 24.332031 6.957031 C 21.84375 4.597656 18.597656 3.652344 15.234375 3.710938 C 12.207031 3.828125 9.375 5.253906 7.25 7.375 Z M 7.25 7.375 "/>
<path style=" stroke:none;fill-rule:nonzero;fill:rgb(82.745099%,0%,14.509805%);fill-opacity:1;" d="M 18.875 8.875 C 19.800781 9.597656 20.582031 10.648438 20.734375 11.835938 C 20.738281 11.972656 20.746094 12.109375 20.75 12.25 C 20.859375 12.261719 20.972656 12.269531 21.085938 12.28125 C 21.710938 12.421875 22.023438 12.722656 22.375 13.25 C 22.398438 13.558594 22.410156 13.855469 22.410156 14.164062 C 22.414062 14.257812 22.414062 14.351562 22.414062 14.445312 C 22.417969 14.753906 22.417969 15.058594 22.417969 15.367188 C 22.417969 15.578125 22.417969 15.792969 22.421875 16.007812 C 22.421875 16.453125 22.421875 16.902344 22.421875 17.347656 C 22.421875 17.921875 22.425781 18.496094 22.429688 19.066406 C 22.429688 19.507812 22.433594 19.949219 22.433594 20.390625 C 22.433594 20.601562 22.433594 20.8125 22.433594 21.023438 C 22.4375 21.320312 22.4375 21.617188 22.4375 21.914062 C 22.4375 22 22.4375 22.085938 22.441406 22.175781 C 22.433594 22.796875 22.273438 23.152344 21.875 23.625 C 21.363281 24.046875 20.867188 24.054688 20.226562 24.050781 C 20.125 24.050781 20.023438 24.050781 19.921875 24.050781 C 19.585938 24.054688 19.253906 24.054688 18.917969 24.054688 C 18.6875 24.054688 18.453125 24.054688 18.21875 24.054688 C 17.734375 24.058594 17.246094 24.058594 16.757812 24.054688 C 16.132812 24.054688 15.511719 24.054688 14.886719 24.058594 C 14.40625 24.0625 13.925781 24.0625 13.445312 24.0625 C 13.214844 24.0625 12.984375 24.0625 12.753906 24.0625 C 12.433594 24.066406 12.109375 24.066406 11.789062 24.0625 C 11.695312 24.0625 11.601562 24.066406 11.503906 24.066406 C 10.859375 24.058594 10.488281 23.917969 10 23.5 C 9.597656 23.003906 9.570312 22.546875 9.574219 21.933594 C 9.570312 21.839844 9.570312 21.746094 9.570312 21.652344 C 9.566406 21.347656 9.566406 21.039062 9.566406 20.734375 C 9.566406 20.519531 9.566406 20.308594 9.5625 20.09375 C 9.5625 19.648438 9.5625 19.203125 9.5625 18.757812 C 9.5625 18.1875 9.558594 17.613281 9.554688 17.042969 C 9.550781 16.605469 9.550781 16.164062 9.550781 15.722656 C 9.550781 15.515625 9.550781 15.304688 9.546875 15.09375 C 9.546875 14.796875 9.546875 14.503906 9.546875 14.207031 C 9.546875 14.121094 9.546875 14.035156 9.542969 13.949219 C 9.554688 13.253906 9.78125 12.972656 10.25 12.5 C 10.636719 12.242188 10.761719 12.25 11.25 12.25 C 11.253906 12.113281 11.261719 11.976562 11.265625 11.835938 C 11.402344 10.765625 12.058594 9.824219 12.832031 9.097656 C 14.699219 7.675781 16.914062 7.652344 18.875 8.875 Z M 18.875 8.875 "/>
<path style=" stroke:none;fill-rule:nonzero;fill:rgb(46.666667%,71.372551%,90.980393%);fill-opacity:1;" d="M 22.382812 8.09375 C 24.28125 9.664062 25.699219 11.929688 26.09375 14.390625 C 26.351562 17.324219 25.773438 20.054688 23.875 22.375 C 23.746094 22.535156 23.746094 22.535156 23.617188 22.699219 C 21.957031 24.675781 19.566406 25.753906 17.039062 26.09375 C 16.859375 26.109375 16.679688 26.117188 16.5 26.125 C 16.324219 26.136719 16.324219 26.136719 16.148438 26.148438 C 13.480469 26.25 11.042969 25.132812 9.046875 23.421875 C 7.132812 21.617188 5.96875 19.132812 5.84375 16.492188 C 5.773438 13.621094 6.738281 11.023438 8.710938 8.910156 C 12.410156 5.085938 18.25 4.933594 22.382812 8.09375 Z M 12.195312 9.753906 C 11.597656 10.507812 11.304688 11.292969 11.25 12.25 C 11.140625 12.261719 11.027344 12.269531 10.914062 12.28125 C 10.285156 12.421875 9.976562 12.722656 9.625 13.25 C 9.597656 13.558594 9.585938 13.855469 9.589844 14.164062 C 9.585938 14.257812 9.585938 14.351562 9.585938 14.445312 C 9.585938 14.753906 9.582031 15.058594 9.582031 15.367188 C 9.582031 15.578125 9.582031 15.792969 9.582031 16.007812 C 9.578125 16.453125 9.578125 16.902344 9.578125 17.347656 C 9.578125 17.921875 9.574219 18.496094 9.570312 19.066406 C 9.566406 19.507812 9.566406 19.949219 9.566406 20.390625 C 9.566406 20.601562 9.566406 20.8125 9.5625 21.023438 C 9.5625 21.320312 9.5625 21.617188 9.5625 21.914062 C 9.5625 22 9.5625 22.085938 9.558594 22.175781 C 9.566406 22.796875 9.726562 23.152344 10.125 23.625 C 10.636719 24.046875 11.132812 24.054688 11.773438 24.050781 C 11.875 24.050781 11.976562 24.050781 12.082031 24.050781 C 12.414062 24.054688 12.746094 24.054688 13.082031 24.054688 C 13.3125 24.054688 13.546875 24.054688 13.78125 24.054688 C 14.265625 24.058594 14.753906 24.058594 15.242188 24.054688 C 15.867188 24.054688 16.492188 24.054688 17.113281 24.058594 C 17.59375 24.0625 18.074219 24.0625 18.554688 24.0625 C 18.785156 24.0625 19.015625 24.0625 19.246094 24.0625 C 19.566406 24.066406 19.890625 24.066406 20.210938 24.0625 C 20.304688 24.0625 20.398438 24.066406 20.496094 24.066406 C 21.140625 24.058594 21.511719 23.917969 22 23.5 C 22.402344 23.003906 22.429688 22.546875 22.429688 21.933594 C 22.429688 21.839844 22.429688 21.746094 22.429688 21.652344 C 22.433594 21.347656 22.433594 21.039062 22.433594 20.734375 C 22.433594 20.519531 22.433594 20.308594 22.4375 20.09375 C 22.4375 19.648438 22.4375 19.203125 22.4375 18.757812 C 22.4375 18.1875 22.441406 17.613281 22.445312 17.042969 C 22.449219 16.605469 22.449219 16.164062 22.449219 15.722656 C 22.449219 15.515625 22.449219 15.304688 22.453125 15.09375 C 22.457031 14.796875 22.453125 14.503906 22.453125 14.207031 C 22.453125 14.121094 22.457031 14.035156 22.457031 13.949219 C 22.445312 13.253906 22.21875 12.972656 21.75 12.5 C 21.367188 12.242188 21.238281 12.25 20.75 12.25 C 20.746094 12.113281 20.742188 11.976562 20.734375 11.835938 C 20.597656 10.765625 19.941406 9.820312 19.167969 9.097656 C 16.898438 7.367188 14.121094 7.726562 12.195312 9.753906 Z M 12.195312 9.753906 "/>
<path style=" stroke:none;fill-rule:nonzero;fill:rgb(13.333334%,11.764706%,12.156863%);fill-opacity:1;" d="M 18.875 8.875 C 19.800781 9.597656 20.582031 10.648438 20.734375 11.835938 C 20.738281 11.972656 20.746094 12.109375 20.75 12.25 C 20.859375 12.261719 20.972656 12.269531 21.085938 12.28125 C 21.710938 12.421875 22.023438 12.722656 22.375 13.25 C 22.398438 13.558594 22.410156 13.855469 22.410156 14.164062 C 22.414062 14.257812 22.414062 14.351562 22.414062 14.445312 C 22.417969 14.753906 22.417969 15.058594 22.417969 15.367188 C 22.417969 15.578125 22.417969 15.792969 22.421875 16.007812 C 22.421875 16.453125 22.421875 16.902344 22.421875 17.347656 C 22.421875 17.921875 22.425781 18.496094 22.429688 19.066406 C 22.429688 19.507812 22.433594 19.949219 22.433594 20.390625 C 22.433594 20.601562 22.433594 20.8125 22.433594 21.023438 C 22.4375 21.320312 22.4375 21.617188 22.4375 21.914062 C 22.4375 22 22.4375 22.085938 22.441406 22.175781 C 22.433594 22.796875 22.273438 23.152344 21.875 23.625 C 21.363281 24.046875 20.867188 24.054688 20.226562 24.050781 C 20.125 24.050781 20.023438 24.050781 19.921875 24.050781 C 19.585938 24.054688 19.253906 24.054688 18.917969 24.054688 C 18.6875 24.054688 18.453125 24.054688 18.21875 24.054688 C 17.734375 24.058594 17.246094 24.058594 16.757812 24.054688 C 16.132812 24.054688 15.511719 24.054688 14.886719 24.058594 C 14.40625 24.0625 13.925781 24.0625 13.445312 24.0625 C 13.214844 24.0625 12.984375 24.0625 12.753906 24.0625 C 12.433594 24.066406 12.109375 24.066406 11.789062 24.0625 C 11.695312 24.0625 11.601562 24.066406 11.503906 24.066406 C 10.859375 24.058594 10.488281 23.917969 10 23.5 C 9.597656 23.003906 9.570312 22.546875 9.574219 21.933594 C 9.570312 21.839844 9.570312 21.746094 9.570312 21.652344 C 9.566406 21.347656 9.566406 21.039062 9.566406 20.734375 C 9.566406 20.519531 9.566406 20.308594 9.5625 20.09375 C 9.5625 19.648438 9.5625 19.203125 9.5625 18.757812 C 9.5625 18.1875 9.558594 17.613281 9.554688 17.042969 C 9.550781 16.605469 9.550781 16.164062 9.550781 15.722656 C 9.550781 15.515625 9.550781 15.304688 9.546875 15.09375 C 9.546875 14.796875 9.546875 14.503906 9.546875 14.207031 C 9.546875 14.121094 9.546875 14.035156 9.542969 13.949219 C 9.554688 13.253906 9.78125 12.972656 10.25 12.5 C 10.636719 12.242188 10.761719 12.25 11.25 12.25 C 11.253906 12.113281 11.261719 11.976562 11.265625 11.835938 C 11.402344 10.765625 12.058594 9.824219 12.832031 9.097656 C 14.699219 7.675781 16.914062 7.652344 18.875 8.875 Z M 10.875 13.375 C 10.570312 13.832031 10.59375 14.046875 10.59375 14.589844 C 10.59375 14.675781 10.589844 14.761719 10.589844 14.847656 C 10.589844 15.128906 10.589844 15.40625 10.589844 15.6875 C 10.589844 15.882812 10.589844 16.078125 10.589844 16.269531 C 10.589844 16.679688 10.589844 17.085938 10.59375 17.496094 C 10.59375 18.019531 10.59375 18.542969 10.589844 19.066406 C 10.589844 19.46875 10.589844 19.871094 10.589844 20.273438 C 10.589844 20.464844 10.589844 20.660156 10.589844 20.851562 C 10.589844 21.121094 10.589844 21.390625 10.59375 21.660156 C 10.59375 21.8125 10.59375 21.96875 10.59375 22.125 C 10.597656 22.523438 10.597656 22.523438 10.875 22.875 C 11.207031 22.914062 11.507812 22.925781 11.839844 22.921875 C 11.941406 22.921875 12.039062 22.925781 12.140625 22.925781 C 12.472656 22.925781 12.800781 22.925781 13.132812 22.925781 C 13.359375 22.925781 13.589844 22.925781 13.820312 22.925781 C 14.300781 22.925781 14.78125 22.925781 15.261719 22.921875 C 15.875 22.921875 16.492188 22.921875 17.109375 22.925781 C 17.582031 22.925781 18.054688 22.925781 18.527344 22.925781 C 18.753906 22.925781 18.980469 22.925781 19.207031 22.925781 C 19.523438 22.925781 19.84375 22.925781 20.160156 22.921875 C 20.300781 22.925781 20.300781 22.925781 20.445312 22.925781 C 20.734375 22.925781 20.734375 22.925781 21.125 22.875 C 21.429688 22.417969 21.40625 22.203125 21.40625 21.660156 C 21.40625 21.574219 21.410156 21.488281 21.410156 21.402344 C 21.410156 21.121094 21.410156 20.84375 21.410156 20.5625 C 21.410156 20.367188 21.410156 20.171875 21.410156 19.980469 C 21.410156 19.570312 21.410156 19.164062 21.40625 18.753906 C 21.40625 18.230469 21.40625 17.707031 21.410156 17.183594 C 21.410156 16.78125 21.410156 16.378906 21.410156 15.976562 C 21.410156 15.785156 21.410156 15.589844 21.410156 15.398438 C 21.410156 15.128906 21.410156 14.859375 21.40625 14.589844 C 21.40625 14.4375 21.40625 14.28125 21.40625 14.125 C 21.402344 13.726562 21.402344 13.726562 21.125 13.375 C 20.792969 13.335938 20.492188 13.324219 20.160156 13.328125 C 20.058594 13.328125 19.960938 13.324219 19.859375 13.324219 C 19.527344 13.324219 19.199219 13.324219 18.867188 13.324219 C 18.640625 13.324219 18.410156 13.324219 18.179688 13.324219 C 17.699219 13.324219 17.21875 13.324219 16.738281 13.328125 C 16.125 13.328125 15.507812 13.328125 14.890625 13.324219 C 14.417969 13.324219 13.945312 13.324219 13.472656 13.324219 C 13.246094 13.324219 13.019531 13.324219 12.792969 13.324219 C 12.476562 13.324219 12.15625 13.324219 11.839844 13.328125 C 11.746094 13.328125 11.652344 13.324219 11.554688 13.324219 C 11.265625 13.324219 11.265625 13.324219 10.875 13.375 Z M 10.875 13.375 "/>
<path style=" stroke:none;fill-rule:nonzero;fill:rgb(12.941177%,12.941177%,12.941177%);fill-opacity:1;" d="M 22.292969 6.640625 C 24.949219 8.546875 26.636719 11.238281 27.183594 14.46875 C 27.21875 14.769531 27.238281 15.070312 27.25 15.375 C 27.257812 15.480469 27.265625 15.585938 27.273438 15.699219 C 27.394531 18.492188 26.277344 21.3125 24.453125 23.398438 C 22.382812 25.605469 19.789062 27.035156 16.730469 27.164062 C 13.390625 27.25 10.636719 26.328125 8.167969 24.035156 C 6.234375 22.15625 4.921875 19.582031 4.820312 16.863281 C 4.816406 16.5625 4.816406 16.257812 4.820312 15.953125 C 4.820312 15.714844 4.820312 15.714844 4.824219 15.46875 C 4.84375 14.316406 4.9375 13.324219 5.375 12.25 C 5.425781 12.121094 5.425781 12.121094 5.480469 11.992188 C 6.710938 9 8.871094 6.839844 11.820312 5.535156 C 12.609375 5.242188 13.425781 5.050781 14.25 4.875 C 14.351562 4.851562 14.453125 4.828125 14.558594 4.800781 C 17.234375 4.359375 20.042969 5.203125 22.292969 6.640625 Z M 8.375 9.25 C 7.335938 10.457031 6.53125 11.957031 6.125 13.5 C 6.097656 13.589844 6.074219 13.675781 6.046875 13.765625 C 5.4375 16.234375 5.996094 18.96875 7.226562 21.152344 C 8.902344 23.773438 11.246094 25.316406 14.25 26 C 14.355469 26.023438 14.460938 26.046875 14.570312 26.074219 C 17.023438 26.484375 19.769531 25.75 21.792969 24.34375 C 24.074219 22.683594 25.523438 20.386719 26.0625 17.605469 C 26.425781 14.839844 25.800781 12.136719 24.125 9.875 C 22.355469 7.707031 19.945312 6.195312 17.125 5.875 C 13.75 5.644531 10.71875 6.769531 8.375 9.25 Z M 8.375 9.25 "/>
<path style=" stroke:none;fill-rule:nonzero;fill:rgb(14.509805%,12.156863%,11.764706%);fill-opacity:1;" d="M 17.15625 14.0625 C 17.808594 14.4375 18.386719 15.03125 18.625 15.75 C 18.710938 16.683594 18.6875 17.472656 18.125 18.25 C 18.0625 18.300781 17.996094 18.351562 17.929688 18.398438 C 17.664062 18.730469 17.699219 18.996094 17.695312 19.417969 C 17.691406 19.574219 17.6875 19.730469 17.683594 19.890625 C 17.683594 20.132812 17.683594 20.132812 17.679688 20.382812 C 17.675781 20.703125 17.671875 21.027344 17.664062 21.347656 C 17.664062 21.492188 17.660156 21.632812 17.660156 21.78125 C 17.625 22.125 17.625 22.125 17.375 22.375 C 17.097656 22.40625 17.097656 22.40625 16.757812 22.410156 C 16.636719 22.410156 16.515625 22.410156 16.386719 22.410156 C 16.261719 22.410156 16.132812 22.40625 16 22.40625 C 15.871094 22.40625 15.742188 22.410156 15.613281 22.410156 C 15.429688 22.410156 15.429688 22.410156 15.242188 22.410156 C 15.128906 22.40625 15.015625 22.40625 14.902344 22.40625 C 14.625 22.375 14.625 22.375 14.375 22.125 C 14.347656 21.792969 14.347656 21.792969 14.351562 21.371094 C 14.347656 21.21875 14.347656 21.066406 14.34375 20.90625 C 14.34375 20.585938 14.34375 20.265625 14.347656 19.945312 C 14.335938 19.058594 14.292969 18.480469 13.671875 17.816406 C 13.257812 17.355469 13.324219 16.726562 13.332031 16.140625 C 13.414062 15.386719 13.699219 14.886719 14.269531 14.390625 C 15.175781 13.769531 16.132812 13.625 17.15625 14.0625 Z M 17.15625 14.0625 "/>
<path style=" stroke:none;fill-rule:nonzero;fill:rgb(46.666667%,71.372551%,91.37255%);fill-opacity:1;" d="M 18 9.625 C 18.800781 10.175781 19.304688 10.828125 19.625 11.75 C 19.625 11.914062 19.625 12.078125 19.625 12.25 C 17.234375 12.25 14.839844 12.25 12.375 12.25 C 12.535156 11.117188 12.992188 10.359375 13.898438 9.652344 C 15.101562 8.847656 16.785156 8.835938 18 9.625 Z M 18 9.625 "/>
<path style=" stroke:none;fill-rule:nonzero;fill:rgb(98.823529%,83.92157%,25.490198%);fill-opacity:1;" d="M 16.625 15 C 17.023438 15.203125 17.277344 15.5 17.554688 15.851562 C 17.671875 16.300781 17.65625 16.695312 17.5 17.125 C 17.300781 17.339844 17.300781 17.339844 17.0625 17.554688 C 16.457031 18.21875 16.5 18.890625 16.507812 19.75 C 16.507812 19.894531 16.503906 20.039062 16.5 20.1875 C 16.496094 20.542969 16.496094 20.894531 16.5 21.25 C 16.171875 21.25 15.839844 21.25 15.5 21.25 C 15.5 21.160156 15.5 21.070312 15.503906 20.980469 C 15.503906 20.570312 15.496094 20.160156 15.492188 19.75 C 15.492188 19.609375 15.496094 19.46875 15.496094 19.324219 C 15.480469 18.585938 15.445312 18.113281 14.941406 17.554688 C 14.859375 17.484375 14.78125 17.410156 14.703125 17.335938 C 14.46875 17.09375 14.410156 16.9375 14.351562 16.609375 C 14.378906 16.035156 14.503906 15.808594 14.875 15.375 C 15.417969 14.894531 15.925781 14.882812 16.625 15 Z M 16.625 15 "/>
<path style=" stroke:none;fill-rule:nonzero;fill:rgb(94.509804%,56.078434%,5.882353%);fill-opacity:1;" d="M 1.375 6.375 C 1.703125 6.421875 1.703125 6.421875 2 6.5 C 2.140625 7.09375 2.140625 7.09375 2 7.375 C 1.75 7.378906 1.5 7.378906 1.25 7.375 C 1.125 7.25 1.125 7.25 1.101562 6.945312 C 1.125 6.625 1.125 6.625 1.375 6.375 Z M 1.375 6.375 "/>
<path style=" stroke:none;fill-rule:nonzero;fill:rgb(95.294118%,56.470591%,5.882353%);fill-opacity:1;" d="M 30.515625 6.40625 C 30.75 6.5 30.75 6.5 30.875 6.625 C 30.890625 6.9375 30.890625 6.9375 30.875 7.25 C 30.75 7.375 30.75 7.375 30.367188 7.382812 C 30.246094 7.378906 30.125 7.378906 30 7.375 C 29.914062 7.085938 29.914062 7.085938 29.875 6.75 C 30.070312 6.445312 30.148438 6.363281 30.515625 6.40625 Z M 30.515625 6.40625 "/>
<path style=" stroke:none;fill-rule:nonzero;fill:rgb(94.901961%,56.470591%,5.882353%);fill-opacity:1;" d="M 25.054688 1.101562 C 25.375 1.125 25.375 1.125 25.625 1.375 C 25.578125 1.703125 25.578125 1.703125 25.5 2 C 24.90625 2.140625 24.90625 2.140625 24.625 2 C 24.621094 1.75 24.621094 1.5 24.625 1.25 C 24.75 1.125 24.75 1.125 25.054688 1.101562 Z M 25.054688 1.101562 "/>
<path style=" stroke:none;fill-rule:nonzero;fill:rgb(94.901961%,56.470591%,5.882353%);fill-opacity:1;" d="M 6.929688 1.101562 C 7.25 1.125 7.25 1.125 7.5 1.375 C 7.453125 1.703125 7.453125 1.703125 7.375 2 C 6.78125 2.140625 6.78125 2.140625 6.5 2 C 6.496094 1.75 6.496094 1.5 6.5 1.25 C 6.625 1.125 6.625 1.125 6.929688 1.101562 Z M 6.929688 1.101562 "/>
<path style=" stroke:none;fill-rule:nonzero;fill:rgb(98.039216%,58.039218%,5.882353%);fill-opacity:1;" d="M 30.125 29.875 C 30.453125 29.921875 30.453125 29.921875 30.75 30 C 30.828125 30.296875 30.828125 30.296875 30.875 30.625 C 30.792969 30.707031 30.710938 30.789062 30.625 30.875 C 30.296875 30.828125 30.296875 30.828125 30 30.75 C 29.921875 30.453125 29.921875 30.453125 29.875 30.125 C 29.957031 30.042969 30.039062 29.960938 30.125 29.875 Z M 30.125 29.875 "/>
<path style=" stroke:none;fill-rule:nonzero;fill:rgb(98.823529%,58.431375%,5.882353%);fill-opacity:1;" d="M 23.75 29.875 C 24.078125 29.921875 24.078125 29.921875 24.375 30 C 24.453125 30.296875 24.453125 30.296875 24.5 30.625 C 24.417969 30.707031 24.335938 30.789062 24.25 30.875 C 23.921875 30.828125 23.921875 30.828125 23.625 30.75 C 23.546875 30.453125 23.546875 30.453125 23.5 30.125 C 23.582031 30.042969 23.664062 29.960938 23.75 29.875 Z M 23.75 29.875 "/>
<path style=" stroke:none;fill-rule:nonzero;fill:rgb(98.431373%,58.431375%,5.882353%);fill-opacity:1;" d="M 7.75 29.875 C 8.078125 29.921875 8.078125 29.921875 8.375 30 C 8.453125 30.296875 8.453125 30.296875 8.5 30.625 C 8.417969 30.707031 8.335938 30.789062 8.25 30.875 C 7.921875 30.828125 7.921875 30.828125 7.625 30.75 C 7.546875 30.453125 7.546875 30.453125 7.5 30.125 C 7.582031 30.042969 7.664062 29.960938 7.75 29.875 Z M 7.75 29.875 "/>
<path style=" stroke:none;fill-rule:nonzero;fill:rgb(98.431373%,58.431375%,5.882353%);fill-opacity:1;" d="M 1.375 29.875 C 1.703125 29.921875 1.703125 29.921875 2 30 C 2.078125 30.296875 2.078125 30.296875 2.125 30.625 C 2.042969 30.707031 1.960938 30.789062 1.875 30.875 C 1.546875 30.828125 1.546875 30.828125 1.25 30.75 C 1.171875 30.453125 1.171875 30.453125 1.125 30.125 C 1.207031 30.042969 1.289062 29.960938 1.375 29.875 Z M 1.375 29.875 "/>
</g>
</svg>
