<?xml version="1.0" encoding="UTF-8"?>
<svg xmlns="http://www.w3.org/2000/svg" xmlns:xlink="http://www.w3.org/1999/xlink" width="32" height="32" viewBox="0 0 32 32" version="1.1">
<g id="surface1">
<path style=" stroke:none;fill-rule:nonzero;fill:rgb(0.784314%,0.392157%,0%);fill-opacity:1;" d="M 10.375 0.5 C 10.660156 0.648438 10.941406 0.800781 11.21875 0.960938 C 13.390625 2.15625 15.746094 2.683594 18.203125 2.890625 C 18.328125 2.898438 18.453125 2.910156 18.582031 2.921875 C 18.890625 2.949219 19.195312 2.976562 19.5 3 C 19.507812 3.949219 19.515625 4.894531 19.519531 5.84375 C 19.519531 6.285156 19.523438 6.722656 19.527344 7.164062 C 19.535156 7.671875 19.535156 8.179688 19.535156 8.6875 C 19.539062 8.84375 19.539062 9 19.542969 9.160156 C 19.542969 12 18.460938 14.601562 16.625 16.75 C 16.507812 16.902344 16.507812 16.902344 16.390625 17.058594 C 16.09375 17.414062 15.773438 17.683594 15.414062 17.96875 C 15.292969 18.066406 15.171875 18.164062 15.046875 18.265625 C 14.898438 18.382812 14.898438 18.382812 14.75 18.5 C 14.273438 18.976562 14.546875 19.828125 14.5 20.5 C 17.140625 20.457031 19.78125 20.417969 22.5 20.375 C 22.292969 20.210938 22.085938 20.046875 21.875 19.875 C 20.621094 18.414062 20.335938 16.917969 20.464844 15.046875 C 20.621094 13.664062 21.386719 12.515625 22.417969 11.621094 C 23.902344 10.507812 25.4375 10.296875 27.25 10.5 C 28.773438 10.835938 29.980469 11.742188 30.816406 13.050781 C 31.625 14.480469 31.734375 16.078125 31.414062 17.679688 C 31.046875 18.785156 30.328125 19.585938 29.5 20.375 C 30.160156 20.417969 30.820312 20.457031 31.5 20.5 C 31.5 23.46875 31.5 26.441406 31.5 29.5 C 30.292969 29.484375 29.082031 29.472656 27.839844 29.457031 C 27.066406 29.453125 26.292969 29.449219 25.519531 29.445312 C 24.296875 29.445312 23.074219 29.4375 21.851562 29.421875 C 20.671875 29.402344 19.496094 29.394531 18.316406 29.402344 C 18.222656 29.402344 18.125 29.402344 18.027344 29.402344 C 15.199219 29.425781 12.738281 29.664062 10.433594 31.472656 C 10.125 31.625 10.125 31.625 9.738281 31.539062 C 9.316406 31.347656 8.898438 31.152344 8.484375 30.945312 C 8.402344 30.902344 8.324219 30.863281 8.238281 30.820312 C 8.066406 30.734375 7.894531 30.648438 7.722656 30.5625 C 7.460938 30.429688 7.195312 30.296875 6.933594 30.164062 C 6.765625 30.082031 6.597656 29.996094 6.429688 29.914062 C 6.351562 29.875 6.273438 29.835938 6.191406 29.792969 C 5.640625 29.515625 5.640625 29.515625 5.5 29.375 C 5.492188 29.058594 5.488281 28.746094 5.492188 28.429688 C 5.492188 28.339844 5.492188 28.253906 5.492188 28.160156 C 5.496094 27.941406 5.496094 27.71875 5.5 27.5 C 5.996094 27.5 6.488281 27.5 7 27.5 C 7 27.171875 7 26.839844 7 26.5 C 6.503906 26.5 6.011719 26.5 5.5 26.5 C 5.5 25.179688 5.5 23.859375 5.5 22.5 C 5.996094 22.5 6.488281 22.5 7 22.5 C 7 22.171875 7 21.839844 7 21.5 C 6.503906 21.5 6.011719 21.5 5.5 21.5 C 5.503906 21.304688 5.511719 21.109375 5.515625 20.910156 C 5.570312 19.496094 5.570312 19.496094 5.109375 18.203125 C 4.796875 17.933594 4.480469 17.714844 4.125 17.5 C 3.910156 17.296875 3.703125 17.089844 3.5 16.875 C 3.433594 16.808594 3.371094 16.742188 3.304688 16.675781 C 1.632812 14.902344 0.480469 12.164062 0.484375 9.726562 C 0.484375 9.578125 0.484375 9.425781 0.484375 9.269531 C 0.484375 9.109375 0.488281 8.953125 0.488281 8.785156 C 0.488281 8.617188 0.488281 8.453125 0.488281 8.285156 C 0.488281 7.847656 0.488281 7.410156 0.492188 6.972656 C 0.492188 6.523438 0.492188 6.078125 0.492188 5.628906 C 0.496094 4.753906 0.496094 3.875 0.5 3 C 0.648438 2.984375 0.648438 2.984375 0.804688 2.96875 C 1.261719 2.921875 1.71875 2.875 2.179688 2.828125 C 2.335938 2.808594 2.492188 2.792969 2.65625 2.777344 C 5.078125 2.519531 7.480469 1.925781 9.5 0.492188 C 9.851562 0.328125 10.007812 0.378906 10.375 0.5 Z M 10.375 0.5 "/>
<path style=" stroke:none;fill-rule:nonzero;fill:rgb(2.352941%,1.960784%,1.176471%);fill-opacity:1;" d="M 10.375 1.75 C 10.546875 1.828125 10.714844 1.90625 10.882812 1.992188 C 12.078125 2.582031 13.203125 3.0625 14.5 3.375 C 14.675781 3.425781 14.675781 3.425781 14.851562 3.480469 C 15.664062 3.707031 16.464844 3.808594 17.300781 3.886719 C 17.414062 3.898438 17.53125 3.90625 17.648438 3.921875 C 17.933594 3.945312 18.214844 3.972656 18.5 4 C 18.507812 4.828125 18.511719 5.652344 18.515625 6.480469 C 18.515625 6.761719 18.515625 7.042969 18.519531 7.324219 C 18.523438 7.730469 18.523438 8.136719 18.523438 8.542969 C 18.527344 8.664062 18.527344 8.789062 18.527344 8.914062 C 18.527344 10.152344 18.363281 11.351562 17.90625 12.507812 C 17.859375 12.636719 17.859375 12.636719 17.804688 12.765625 C 16.707031 15.519531 14.703125 17.601562 12.023438 18.859375 C 11.808594 18.949219 11.59375 19.039062 11.375 19.125 C 11.277344 19.167969 11.175781 19.207031 11.074219 19.25 C 9.976562 19.671875 9.175781 19.390625 8.136719 18.929688 C 5.183594 17.546875 3.191406 15.359375 2.015625 12.339844 C 1.578125 11.132812 1.460938 9.925781 1.476562 8.652344 C 1.476562 8.515625 1.476562 8.382812 1.476562 8.246094 C 1.476562 7.824219 1.480469 7.398438 1.484375 6.976562 C 1.484375 6.6875 1.484375 6.398438 1.488281 6.109375 C 1.488281 5.40625 1.496094 4.703125 1.5 4 C 1.582031 3.988281 1.667969 3.980469 1.753906 3.972656 C 2.140625 3.925781 2.527344 3.878906 2.914062 3.832031 C 3.109375 3.8125 3.109375 3.8125 3.3125 3.789062 C 5.488281 3.523438 7.605469 2.84375 9.523438 1.777344 C 9.917969 1.605469 9.984375 1.617188 10.375 1.75 Z M 10.375 1.75 "/>
<path style=" stroke:none;fill-rule:nonzero;fill:rgb(89.411765%,90.588236%,92.156863%);fill-opacity:1;" d="M 14.5 21.5 C 19.78125 21.5 25.058594 21.5 30.5 21.5 C 30.5 23.808594 30.5 26.121094 30.5 28.5 C 25.21875 28.5 19.941406 28.5 14.5 28.5 C 14.5 26.191406 14.5 23.878906 14.5 21.5 Z M 14.5 21.5 "/>
<path style=" stroke:none;fill-rule:nonzero;fill:rgb(98.431373%,50.196081%,42.352942%);fill-opacity:1;" d="M 29.019531 12.59375 C 29.90625 13.414062 30.4375 14.390625 30.527344 15.597656 C 30.550781 17.097656 30.117188 18.230469 29.101562 19.335938 C 28.378906 20.023438 27.496094 20.445312 26.5 20.5 C 26.402344 20.507812 26.308594 20.511719 26.207031 20.519531 C 24.8125 20.574219 23.683594 20.035156 22.664062 19.101562 C 21.71875 18.113281 21.457031 16.96875 21.472656 15.640625 C 21.5625 14.3125 22.152344 13.417969 23.109375 12.53125 C 24.867188 11.058594 27.257812 11.167969 29.019531 12.59375 Z M 29.019531 12.59375 "/>
<path style=" stroke:none;fill-rule:nonzero;fill:rgb(98.431373%,90.196079%,64.313728%);fill-opacity:1;" d="M 11.34375 4.59375 C 12.050781 4.886719 12.761719 5.136719 13.5 5.34375 C 13.582031 5.367188 13.667969 5.394531 13.753906 5.417969 C 14.652344 5.664062 15.578125 5.765625 16.5 5.875 C 16.507812 6.398438 16.511719 6.921875 16.515625 7.449219 C 16.515625 7.625 16.515625 7.804688 16.519531 7.980469 C 16.535156 9.453125 16.496094 10.882812 15.867188 12.242188 C 15.8125 12.367188 15.8125 12.367188 15.753906 12.492188 C 14.765625 14.605469 14.765625 14.605469 14.027344 14.992188 C 13.597656 15.003906 13.195312 14.914062 12.78125 14.820312 C 12.695312 14.800781 12.609375 14.785156 12.515625 14.765625 C 12.300781 14.71875 12.089844 14.671875 11.875 14.625 C 11.796875 14.265625 11.796875 14.265625 11.75 13.875 C 11.953125 13.660156 12.164062 13.453125 12.375 13.25 C 12.515625 12.988281 12.625 12.722656 12.734375 12.453125 C 12.953125 11.945312 13.203125 11.460938 13.453125 10.976562 C 13.941406 9.980469 14.097656 9.042969 13.738281 7.960938 C 13.261719 6.941406 12.710938 6.324219 11.703125 5.828125 C 10.53125 5.40625 9.167969 5.421875 8.039062 5.945312 C 7.441406 6.296875 6.992188 6.660156 6.625 7.25 C 6.574219 7.332031 6.523438 7.414062 6.46875 7.5 C 5.984375 8.410156 5.949219 9.421875 6.25 10.402344 C 6.402344 10.777344 6.570312 11.140625 6.75 11.5 C 6.796875 11.59375 6.84375 11.691406 6.890625 11.789062 C 6.96875 11.953125 7.054688 12.117188 7.140625 12.28125 C 7.242188 12.484375 7.335938 12.691406 7.429688 12.898438 C 7.613281 13.273438 7.613281 13.273438 7.96875 13.5625 C 8.109375 13.71875 8.109375 13.71875 8.25 13.875 C 8.203125 14.269531 8.203125 14.269531 8.125 14.625 C 8.015625 14.640625 7.90625 14.660156 7.792969 14.675781 C 7.574219 14.707031 7.574219 14.707031 7.351562 14.742188 C 7.136719 14.773438 7.136719 14.773438 6.917969 14.808594 C 6.566406 14.863281 6.222656 14.925781 5.875 15 C 4.398438 13.175781 3.476562 11.199219 3.488281 8.816406 C 3.488281 8.734375 3.488281 8.648438 3.488281 8.558594 C 3.488281 8.292969 3.488281 8.023438 3.492188 7.757812 C 3.492188 7.574219 3.492188 7.390625 3.492188 7.210938 C 3.496094 6.765625 3.496094 6.320312 3.5 5.875 C 3.648438 5.855469 3.796875 5.835938 3.949219 5.816406 C 5.496094 5.597656 6.945312 5.265625 8.390625 4.664062 C 8.472656 4.628906 8.558594 4.59375 8.644531 4.558594 C 8.875 4.457031 9.105469 4.359375 9.335938 4.253906 C 10.09375 4.015625 10.640625 4.292969 11.34375 4.59375 Z M 11.34375 4.59375 "/>
<path style=" stroke:none;fill-rule:nonzero;fill:rgb(96.078432%,81.960785%,42.745098%);fill-opacity:1;" d="M 10.375 1.75 C 10.546875 1.828125 10.714844 1.90625 10.882812 1.992188 C 12.078125 2.582031 13.203125 3.0625 14.5 3.375 C 14.675781 3.425781 14.675781 3.425781 14.851562 3.480469 C 15.664062 3.707031 16.464844 3.808594 17.300781 3.886719 C 17.414062 3.898438 17.53125 3.90625 17.648438 3.921875 C 17.933594 3.945312 18.214844 3.972656 18.5 4 C 18.507812 4.828125 18.511719 5.652344 18.515625 6.480469 C 18.515625 6.761719 18.515625 7.042969 18.519531 7.324219 C 18.523438 7.730469 18.523438 8.136719 18.523438 8.542969 C 18.527344 8.664062 18.527344 8.789062 18.527344 8.914062 C 18.527344 10.152344 18.363281 11.351562 17.90625 12.507812 C 17.859375 12.636719 17.859375 12.636719 17.804688 12.765625 C 16.707031 15.519531 14.703125 17.601562 12.023438 18.859375 C 11.808594 18.949219 11.59375 19.039062 11.375 19.125 C 11.277344 19.167969 11.175781 19.207031 11.074219 19.25 C 9.976562 19.671875 9.175781 19.390625 8.136719 18.929688 C 5.183594 17.546875 3.191406 15.359375 2.015625 12.339844 C 1.578125 11.132812 1.460938 9.925781 1.476562 8.652344 C 1.476562 8.515625 1.476562 8.382812 1.476562 8.246094 C 1.476562 7.824219 1.480469 7.398438 1.484375 6.976562 C 1.484375 6.6875 1.484375 6.398438 1.488281 6.109375 C 1.488281 5.40625 1.496094 4.703125 1.5 4 C 1.582031 3.988281 1.667969 3.980469 1.753906 3.972656 C 2.140625 3.925781 2.527344 3.878906 2.914062 3.832031 C 3.109375 3.8125 3.109375 3.8125 3.3125 3.789062 C 5.488281 3.523438 7.605469 2.84375 9.523438 1.777344 C 9.917969 1.605469 9.984375 1.617188 10.375 1.75 Z M 8.882812 3.390625 C 6.839844 4.320312 4.71875 4.742188 2.5 5 C 2.492188 5.644531 2.488281 6.292969 2.484375 6.941406 C 2.484375 7.160156 2.484375 7.378906 2.480469 7.597656 C 2.449219 10.804688 3.09375 13.546875 5.398438 15.90625 C 6.601562 17.085938 8.023438 17.953125 9.625 18.5 C 11.609375 18.464844 13.394531 17.078125 14.75 15.75 C 14.828125 15.671875 14.90625 15.597656 14.988281 15.515625 C 17.160156 13.21875 17.546875 10.296875 17.515625 7.273438 C 17.515625 7.050781 17.515625 6.828125 17.511719 6.609375 C 17.511719 6.074219 17.503906 5.535156 17.5 5 C 17.429688 4.992188 17.359375 4.984375 17.289062 4.976562 C 14.9375 4.714844 12.730469 4.253906 10.617188 3.164062 C 9.933594 2.859375 9.507812 3.09375 8.882812 3.390625 Z M 8.882812 3.390625 "/>
<path style=" stroke:none;fill-rule:nonzero;fill:rgb(98.039216%,83.529413%,43.529412%);fill-opacity:1;" d="M 13.5 19.25 C 13.5 19.539062 13.5 19.828125 13.5 20.125 C 12.882812 20.289062 12.261719 20.453125 11.625 20.625 C 11.625 21.863281 11.625 23.101562 11.625 24.375 C 12.242188 24.539062 12.863281 24.703125 13.5 24.875 C 13.5 26.152344 13.5 27.433594 13.5 28.75 C 12.828125 29.089844 12.828125 29.089844 12.140625 29.4375 C 11.929688 29.546875 11.929688 29.546875 11.710938 29.65625 C 11.601562 29.710938 11.488281 29.765625 11.375 29.824219 C 11.261719 29.882812 11.148438 29.941406 11.03125 30 C 10.75 30.125 10.75 30.125 10.5 30.125 C 10.5 26.90625 10.5 23.691406 10.5 20.375 C 10.828125 20.25 11.160156 20.128906 11.5 20 C 11.960938 19.804688 12.421875 19.601562 12.878906 19.402344 C 13.25 19.25 13.25 19.25 13.5 19.25 Z M 13.5 19.25 "/>
<path style=" stroke:none;fill-rule:nonzero;fill:rgb(98.039216%,83.92157%,43.529412%);fill-opacity:1;" d="M 6.5 19.25 C 7.140625 19.457031 7.753906 19.707031 8.375 19.972656 C 8.742188 20.121094 9.121094 20.25 9.5 20.375 C 9.5 23.59375 9.5 26.808594 9.5 30.125 C 9.019531 29.964844 8.625 29.828125 8.183594 29.605469 C 8.035156 29.53125 8.035156 29.53125 7.882812 29.453125 C 7.785156 29.402344 7.683594 29.351562 7.578125 29.296875 C 7.472656 29.242188 7.371094 29.191406 7.265625 29.136719 C 7.007812 29.007812 6.753906 28.878906 6.5 28.75 C 6.5 28.667969 6.5 28.585938 6.5 28.5 C 6.996094 28.5 7.488281 28.5 8 28.5 C 8 27.511719 8 26.519531 8 25.5 C 7.503906 25.5 7.011719 25.5 6.5 25.5 C 6.5 24.839844 6.5 24.179688 6.5 23.5 C 6.996094 23.5 7.488281 23.5 8 23.5 C 8 22.511719 8 21.519531 8 20.5 C 7.503906 20.5 7.011719 20.5 6.5 20.5 C 6.5 20.085938 6.5 19.675781 6.5 19.25 Z M 6.5 19.25 "/>
<path style=" stroke:none;fill-rule:nonzero;fill:rgb(0.392157%,0.392157%,0.392157%);fill-opacity:1;" d="M 25.5 22.5 C 25.828125 22.5 26.160156 22.5 26.5 22.5 C 26.542969 22.871094 26.582031 23.242188 26.625 23.625 C 26.75 23.5 26.871094 23.378906 27 23.25 C 27.371094 23.285156 27.480469 23.355469 27.75 23.625 C 27.703125 23.992188 27.640625 24.109375 27.375 24.375 C 27.746094 24.417969 28.117188 24.457031 28.5 24.5 C 28.5 24.828125 28.5 25.160156 28.5 25.5 C 28.128906 25.542969 27.757812 25.582031 27.375 25.625 C 27.5 25.75 27.621094 25.871094 27.75 26 C 27.617188 26.328125 27.542969 26.472656 27.234375 26.65625 C 27.15625 26.6875 27.078125 26.71875 27 26.75 C 26.875 26.625 26.753906 26.503906 26.625 26.375 C 26.582031 26.746094 26.542969 27.117188 26.5 27.5 C 26.171875 27.5 25.839844 27.5 25.5 27.5 C 25.457031 27.128906 25.417969 26.757812 25.375 26.375 C 25.1875 26.5625 25.1875 26.5625 25 26.75 C 24.671875 26.617188 24.527344 26.542969 24.34375 26.234375 C 24.3125 26.15625 24.28125 26.078125 24.25 26 C 24.375 25.875 24.496094 25.753906 24.625 25.625 C 24.253906 25.582031 23.882812 25.542969 23.5 25.5 C 23.5 25.171875 23.5 24.839844 23.5 24.5 C 24.058594 24.4375 24.058594 24.4375 24.625 24.375 C 24.5 24.25 24.378906 24.128906 24.25 24 C 24.382812 23.671875 24.457031 23.527344 24.765625 23.34375 C 24.84375 23.3125 24.921875 23.28125 25 23.25 C 25.125 23.375 25.246094 23.496094 25.375 23.625 C 25.417969 23.253906 25.457031 22.882812 25.5 22.5 Z M 25.5 22.5 "/>
<path style=" stroke:none;fill-rule:nonzero;fill:rgb(0.392157%,0.392157%,0.392157%);fill-opacity:1;" d="M 18.5 22.5 C 18.828125 22.5 19.160156 22.5 19.5 22.5 C 19.542969 22.871094 19.582031 23.242188 19.625 23.625 C 19.75 23.5 19.871094 23.378906 20 23.25 C 20.371094 23.285156 20.480469 23.355469 20.75 23.625 C 20.703125 23.992188 20.640625 24.109375 20.375 24.375 C 20.746094 24.417969 21.117188 24.457031 21.5 24.5 C 21.5 24.828125 21.5 25.160156 21.5 25.5 C 21.128906 25.542969 20.757812 25.582031 20.375 25.625 C 20.5 25.75 20.621094 25.871094 20.75 26 C 20.617188 26.328125 20.542969 26.472656 20.234375 26.65625 C 20.15625 26.6875 20.078125 26.71875 20 26.75 C 19.875 26.625 19.753906 26.503906 19.625 26.375 C 19.582031 26.746094 19.542969 27.117188 19.5 27.5 C 19.171875 27.5 18.839844 27.5 18.5 27.5 C 18.457031 27.128906 18.417969 26.757812 18.375 26.375 C 18.1875 26.5625 18.1875 26.5625 18 26.75 C 17.671875 26.617188 17.527344 26.542969 17.34375 26.234375 C 17.3125 26.15625 17.28125 26.078125 17.25 26 C 17.375 25.875 17.496094 25.753906 17.625 25.625 C 17.253906 25.582031 16.882812 25.542969 16.5 25.5 C 16.5 25.171875 16.5 24.839844 16.5 24.5 C 17.058594 24.4375 17.058594 24.4375 17.625 24.375 C 17.5 24.25 17.378906 24.128906 17.25 24 C 17.382812 23.671875 17.457031 23.527344 17.765625 23.34375 C 17.84375 23.3125 17.921875 23.28125 18 23.25 C 18.125 23.375 18.246094 23.496094 18.375 23.625 C 18.417969 23.253906 18.457031 22.882812 18.5 22.5 Z M 18.5 22.5 "/>
<path style=" stroke:none;fill-rule:nonzero;fill:rgb(67.843139%,45.882353%,26.666668%);fill-opacity:1;" d="M 11.25 6.601562 C 12.148438 6.996094 12.574219 7.644531 13 8.5 C 13.015625 8.707031 13.023438 8.910156 13.023438 9.117188 C 13.027344 9.226562 13.027344 9.335938 13.027344 9.449219 C 13 9.75 13 9.75 12.75 10.125 C 12.65625 10.027344 12.5625 9.929688 12.46875 9.828125 C 12.082031 9.496094 11.757812 9.441406 11.257812 9.382812 C 10.613281 9.296875 10.238281 9.15625 9.777344 8.699219 C 9.574219 8.433594 9.507812 8.207031 9.5 7.875 C 9.210938 7.957031 8.921875 8.039062 8.625 8.125 C 8.667969 8.414062 8.707031 8.703125 8.75 9 C 8.664062 9.050781 8.578125 9.101562 8.488281 9.152344 C 8.375 9.21875 8.265625 9.285156 8.148438 9.351562 C 8.035156 9.417969 7.925781 9.484375 7.808594 9.550781 C 7.542969 9.722656 7.339844 9.890625 7.125 10.125 C 6.871094 9.371094 6.886719 8.625 7.242188 7.90625 C 8.109375 6.503906 9.738281 6.199219 11.25 6.601562 Z M 11.25 6.601562 "/>
<path style=" stroke:none;fill-rule:nonzero;fill:rgb(92.54902%,80.392158%,69.411767%);fill-opacity:1;" d="M 10 10 C 10.453125 10.101562 10.910156 10.191406 11.363281 10.277344 C 11.75 10.375 11.75 10.375 12 10.625 C 12.097656 11.390625 12.082031 12.109375 11.625 12.75 C 11.121094 13.253906 10.675781 13.515625 9.960938 13.539062 C 9.382812 13.53125 9.070312 13.382812 8.625 13 C 8.027344 12.320312 7.941406 11.890625 7.949219 10.992188 C 8.003906 10.605469 8.046875 10.480469 8.335938 10.234375 C 9.269531 9.703125 9.269531 9.703125 10 10 Z M 10 10 "/>
<path style=" stroke:none;fill-rule:nonzero;fill:rgb(2.352941%,1.176471%,0.784314%);fill-opacity:1;" d="M 28.5 13.25 C 28.828125 13.382812 28.972656 13.457031 29.15625 13.765625 C 29.1875 13.84375 29.21875 13.921875 29.25 14 C 26.4375 17.125 26.4375 17.125 26.160156 17.433594 C 25.960938 17.65625 25.765625 17.878906 25.570312 18.105469 C 25.472656 18.222656 25.375 18.335938 25.273438 18.453125 C 25.140625 18.609375 25.140625 18.609375 25.003906 18.769531 C 24.75 19 24.75 19 24.25 19 C 23.96875 18.757812 23.722656 18.519531 23.46875 18.25 C 23.363281 18.140625 23.363281 18.140625 23.257812 18.035156 C 23.085938 17.855469 22.917969 17.679688 22.75 17.5 C 22.9375 17.027344 23 17 23.5 16.75 C 23.789062 17.039062 24.078125 17.328125 24.375 17.625 C 25.46875 16.75 26.371094 15.675781 27.289062 14.621094 C 27.6875 14.160156 28.09375 13.703125 28.5 13.25 Z M 28.5 13.25 "/>
<path style=" stroke:none;fill-rule:nonzero;fill:rgb(67.450982%,82.745099%,47.450981%);fill-opacity:1;" d="M 8.375 15.625 C 8.6875 15.9375 8.6875 15.9375 9 16.25 C 9.714844 16.488281 10.378906 16.472656 11.0625 16.140625 C 11.417969 15.953125 11.417969 15.953125 11.625 15.625 C 11.804688 15.617188 11.984375 15.613281 12.164062 15.609375 C 12.265625 15.605469 12.363281 15.605469 12.46875 15.601562 C 12.75 15.625 12.75 15.625 13.125 15.875 C 10.960938 17.527344 10.960938 17.527344 9.890625 17.484375 C 9.390625 17.34375 8.953125 17.140625 8.492188 16.90625 C 8.40625 16.863281 8.320312 16.824219 8.230469 16.777344 C 7.675781 16.503906 7.289062 16.210938 6.875 15.75 C 7.054688 15.703125 7.234375 15.660156 7.414062 15.617188 C 7.515625 15.59375 7.613281 15.566406 7.71875 15.542969 C 8 15.5 8 15.5 8.375 15.625 Z M 8.375 15.625 "/>
<path style=" stroke:none;fill-rule:nonzero;fill:rgb(97.647059%,76.078433%,15.686275%);fill-opacity:1;" d="M 13.5 21.125 C 13.5 22.03125 13.5 22.941406 13.5 23.875 C 13.171875 23.792969 12.839844 23.710938 12.5 23.625 C 12.5 22.882812 12.5 22.140625 12.5 21.375 C 13.25 21.125 13.25 21.125 13.5 21.125 Z M 13.5 21.125 "/>
<path style=" stroke:none;fill-rule:nonzero;fill:rgb(91.37255%,79.215688%,68.235296%);fill-opacity:1;" d="M 9.125 14.5 C 9.703125 14.5 10.28125 14.5 10.875 14.5 C 10.875 15.125 10.875 15.125 10.679688 15.351562 C 10.261719 15.554688 9.957031 15.550781 9.5 15.5 C 9.257812 15.351562 9.257812 15.351562 9.125 15.125 C 9.125 14.917969 9.125 14.710938 9.125 14.5 Z M 9.125 14.5 "/>
<path style=" stroke:none;fill-rule:nonzero;fill:rgb(0%,0%,0%);fill-opacity:1;" d="M 11.5 27.5 C 11.828125 27.5 12.160156 27.5 12.5 27.5 C 12.5 27.828125 12.5 28.160156 12.5 28.5 C 12.171875 28.5 11.839844 28.5 11.5 28.5 C 11.5 28.171875 11.5 27.839844 11.5 27.5 Z M 11.5 27.5 "/>
<path style=" stroke:none;fill-rule:nonzero;fill:rgb(0%,0%,0%);fill-opacity:1;" d="M 11.5 25.5 C 11.828125 25.5 12.160156 25.5 12.5 25.5 C 12.5 25.828125 12.5 26.160156 12.5 26.5 C 12.171875 26.5 11.839844 26.5 11.5 26.5 C 11.5 26.171875 11.5 25.839844 11.5 25.5 Z M 11.5 25.5 "/>
</g>
</svg>
