<?xml version="1.0" encoding="UTF-8"?>
<svg xmlns="http://www.w3.org/2000/svg" xmlns:xlink="http://www.w3.org/1999/xlink" width="32" height="32" viewBox="0 0 32 32" version="1.1">
<g id="surface1">
<path style=" stroke:none;fill-rule:nonzero;fill:rgb(0.392157%,0.392157%,0.392157%);fill-opacity:1;" d="M 8.484375 0.84375 C 9.519531 1.460938 10.195312 2.328125 10.5 3.5 C 10.53125 4.015625 10.523438 4.53125 10.519531 5.050781 C 10.519531 5.359375 10.523438 5.664062 10.523438 5.972656 C 10.523438 6.457031 10.523438 6.9375 10.519531 7.421875 C 10.515625 7.890625 10.515625 8.355469 10.519531 8.824219 C 10.515625 9.039062 10.515625 9.039062 10.515625 9.261719 C 10.507812 10 10.507812 10 10.828125 10.636719 C 11.042969 10.824219 11.253906 10.980469 11.5 11.125 C 11.5625 11.074219 11.628906 11.023438 11.695312 10.96875 C 13.398438 9.617188 15.125 9.332031 17.25 9.5 C 18.921875 9.785156 20.339844 10.710938 21.355469 12.054688 C 22.621094 13.902344 22.734375 15.964844 22.375 18.125 C 22.4375 18.074219 22.5 18.023438 22.5625 17.972656 C 22.648438 17.90625 22.734375 17.839844 22.820312 17.773438 C 22.902344 17.707031 22.984375 17.644531 23.070312 17.574219 C 24.199219 16.832031 25.4375 16.835938 26.75 17 C 27.835938 17.316406 28.550781 17.898438 29.136719 18.847656 C 29.570312 19.683594 29.578125 20.523438 29.574219 21.449219 C 29.570312 21.710938 29.574219 21.972656 29.578125 22.238281 C 29.585938 23.632812 29.585938 23.632812 29.214844 24.113281 C 28.902344 24.355469 28.753906 24.460938 28.367188 24.5 C 27.925781 24.582031 27.886719 24.613281 27.5625 24.976562 C 27.378906 25.367188 27.324219 25.578125 27.375 26 C 27.535156 26.023438 27.695312 26.050781 27.859375 26.078125 C 29.097656 26.359375 30.015625 27.109375 30.75 28.125 C 31.457031 29.320312 31.5 30.015625 31.5 31.5 C 27.539062 31.5 23.578125 31.5 19.5 31.5 C 19.5 29.523438 19.789062 28.550781 21.074219 27.160156 C 21.722656 26.535156 22.714844 26 23.625 26 C 23.675781 25.578125 23.621094 25.367188 23.4375 24.976562 C 23.113281 24.613281 23.074219 24.582031 22.632812 24.5 C 22.1875 24.410156 21.882812 24.285156 21.605469 23.898438 C 21.378906 23.300781 21.472656 22.640625 21.496094 22.011719 C 21.503906 21.570312 21.46875 21.132812 21.4375 20.695312 C 21.425781 20.539062 21.414062 20.382812 21.402344 20.21875 C 21.394531 20.105469 21.382812 19.992188 21.375 19.875 C 21.304688 19.957031 21.238281 20.039062 21.167969 20.121094 C 20.078125 21.386719 18.714844 22.390625 16.984375 22.519531 C 14.484375 22.566406 14.484375 22.566406 13.5 22.125 C 13.351562 22.066406 13.351562 22.066406 13.195312 22.003906 C 11.628906 21.316406 10.484375 20.027344 9.835938 18.46875 C 9.375 17.28125 9.5 16.367188 9.5 15 C 6.53125 15 3.558594 15 0.5 15 C 0.5 13.179688 0.695312 12.183594 1.875 10.875 C 1.960938 10.800781 2.046875 10.726562 2.136719 10.652344 C 2.429688 10.308594 2.4375 10.152344 2.433594 9.707031 C 2.4375 9.574219 2.4375 9.441406 2.4375 9.304688 C 2.4375 9.085938 2.4375 9.085938 2.433594 8.867188 C 2.433594 8.71875 2.433594 8.566406 2.4375 8.414062 C 2.441406 7.777344 2.4375 7.140625 2.4375 6.503906 C 2.4375 6.039062 2.4375 5.574219 2.441406 5.109375 C 2.4375 4.894531 2.4375 4.894531 2.4375 4.675781 C 2.445312 3.480469 2.703125 2.460938 3.539062 1.566406 C 4.859375 0.375 6.867188 0.0664062 8.484375 0.84375 Z M 22.125 18.25 C 22.25 18.5 22.25 18.5 22.25 18.5 Z M 21.5 19.5 C 21.625 19.75 21.625 19.75 21.625 19.75 Z M 21.5 19.5 "/>
<path style=" stroke:none;fill-rule:nonzero;fill:rgb(0%,0%,0%);fill-opacity:1;" d="M 5.21875 19.636719 C 5.820312 20.007812 6.265625 20.441406 6.5 21.125 C 6.574219 21.828125 6.550781 22.535156 6.539062 23.246094 C 6.542969 24.140625 6.636719 24.691406 7.203125 25.402344 C 7.652344 25.976562 7.539062 26.75 7.546875 27.445312 C 7.554688 27.640625 7.554688 27.640625 7.5625 27.84375 C 7.574219 28.894531 7.351562 29.734375 6.625 30.519531 C 5.773438 31.328125 4.925781 31.570312 3.757812 31.5625 C 2.691406 31.523438 1.980469 31.160156 1.257812 30.390625 C 0.5 29.5 0.433594 28.652344 0.4375 27.523438 C 0.433594 27.394531 0.429688 27.265625 0.425781 27.132812 C 0.425781 26.207031 0.617188 25.53125 1.125 24.75 C 1.207031 24.667969 1.289062 24.585938 1.375 24.5 C 1.410156 24.167969 1.410156 24.167969 1.402344 23.777344 C 1.402344 23.628906 1.402344 23.484375 1.40625 23.332031 C 1.40625 23.027344 1.40625 22.71875 1.402344 22.410156 C 1.414062 21.40625 1.5625 20.75 2.25 20 C 3.058594 19.308594 4.238281 19.246094 5.21875 19.636719 Z M 2.75 21.25 C 2.507812 21.820312 2.472656 22.304688 2.484375 22.921875 C 2.488281 23.078125 2.488281 23.234375 2.492188 23.394531 C 2.496094 23.511719 2.496094 23.628906 2.5 23.75 C 2.59375 23.71875 2.59375 23.71875 2.6875 23.6875 C 3.125 23.597656 3.554688 23.605469 4 23.609375 C 4.089844 23.609375 4.179688 23.609375 4.269531 23.609375 C 4.695312 23.609375 5.09375 23.617188 5.5 23.75 C 5.59375 22.15625 5.59375 22.15625 4.851562 20.820312 C 4 20.347656 3.378906 20.558594 2.75 21.25 Z M 2.75 21.25 "/>
<path style=" stroke:none;fill-rule:nonzero;fill:rgb(0%,0%,0%);fill-opacity:1;" d="M 29.21875 0.636719 C 29.820312 1.007812 30.265625 1.441406 30.5 2.125 C 30.574219 2.828125 30.550781 3.535156 30.539062 4.246094 C 30.542969 5.140625 30.636719 5.691406 31.203125 6.402344 C 31.652344 6.976562 31.539062 7.75 31.546875 8.445312 C 31.554688 8.640625 31.554688 8.640625 31.5625 8.84375 C 31.574219 9.894531 31.351562 10.734375 30.625 11.519531 C 29.773438 12.328125 28.925781 12.570312 27.757812 12.5625 C 26.691406 12.523438 25.980469 12.160156 25.257812 11.390625 C 24.5 10.5 24.433594 9.652344 24.4375 8.523438 C 24.433594 8.394531 24.429688 8.265625 24.425781 8.132812 C 24.425781 7.207031 24.617188 6.53125 25.125 5.75 C 25.207031 5.667969 25.289062 5.585938 25.375 5.5 C 25.410156 5.167969 25.410156 5.167969 25.402344 4.777344 C 25.402344 4.628906 25.402344 4.484375 25.40625 4.332031 C 25.40625 4.027344 25.40625 3.71875 25.402344 3.410156 C 25.414062 2.40625 25.5625 1.75 26.25 1 C 27.058594 0.308594 28.238281 0.246094 29.21875 0.636719 Z M 26.75 2.25 C 26.507812 2.820312 26.472656 3.304688 26.484375 3.921875 C 26.488281 4.078125 26.488281 4.234375 26.492188 4.394531 C 26.496094 4.511719 26.496094 4.628906 26.5 4.75 C 26.59375 4.71875 26.59375 4.71875 26.6875 4.6875 C 27.125 4.597656 27.554688 4.605469 28 4.609375 C 28.089844 4.609375 28.179688 4.609375 28.269531 4.609375 C 28.695312 4.609375 29.09375 4.617188 29.5 4.75 C 29.59375 3.15625 29.59375 3.15625 28.851562 1.820312 C 28 1.347656 27.378906 1.558594 26.75 2.25 Z M 26.75 2.25 "/>
<path style=" stroke:none;fill-rule:nonzero;fill:rgb(68.627453%,84.313726%,48.235294%);fill-opacity:1;" d="M 5.363281 24.824219 C 5.921875 25.203125 6.289062 25.742188 6.5 26.375 C 6.652344 28.734375 6.652344 28.734375 6 29.625 C 5.515625 30.171875 4.960938 30.445312 4.238281 30.53125 C 3.511719 30.570312 2.96875 30.421875 2.375 30 C 1.796875 29.464844 1.5 28.890625 1.457031 28.109375 C 1.453125 27.914062 1.453125 27.71875 1.453125 27.523438 C 1.449219 27.378906 1.449219 27.378906 1.445312 27.234375 C 1.441406 26.390625 1.65625 25.722656 2.253906 25.117188 C 2.339844 25.0625 2.421875 25.003906 2.507812 24.945312 C 2.59375 24.886719 2.675781 24.828125 2.761719 24.765625 C 3.585938 24.277344 4.539062 24.421875 5.363281 24.824219 Z M 5.363281 24.824219 "/>
<path style=" stroke:none;fill-rule:nonzero;fill:rgb(68.627453%,84.313726%,48.235294%);fill-opacity:1;" d="M 29.363281 5.824219 C 29.921875 6.203125 30.289062 6.742188 30.5 7.375 C 30.652344 9.734375 30.652344 9.734375 30 10.625 C 29.515625 11.171875 28.960938 11.445312 28.238281 11.53125 C 27.511719 11.570312 26.96875 11.421875 26.375 11 C 25.796875 10.464844 25.5 9.890625 25.457031 9.109375 C 25.453125 8.914062 25.453125 8.71875 25.453125 8.523438 C 25.449219 8.378906 25.449219 8.378906 25.445312 8.234375 C 25.441406 7.390625 25.65625 6.722656 26.253906 6.117188 C 26.339844 6.0625 26.421875 6.003906 26.507812 5.945312 C 26.59375 5.886719 26.675781 5.828125 26.761719 5.765625 C 27.585938 5.277344 28.539062 5.421875 29.363281 5.824219 Z M 29.363281 5.824219 "/>
<path style=" stroke:none;fill-rule:nonzero;fill:rgb(68.235296%,46.27451%,26.666668%);fill-opacity:1;" d="M 27.125 18.324219 C 27.734375 18.75 28.335938 19.382812 28.5 20.125 C 28.5625 21.125 28.5625 21.125 28.375 21.5 C 28.25 21.5 28.128906 21.5 28 21.5 C 28 21.335938 28 21.167969 28 21 C 27.667969 21 27.339844 21 27 21 C 27 21.164062 27 21.328125 27 21.5 C 26.679688 21.457031 26.527344 21.398438 26.289062 21.171875 C 26.074219 20.789062 26.042969 20.433594 26 20 C 25.667969 20 25.339844 20 25 20 C 25.179688 20.828125 25.363281 21.695312 26.054688 22.242188 C 26.371094 22.375 26.664062 22.4375 27 22.5 C 27.042969 23.421875 27.054688 23.996094 26.4375 24.71875 C 26.136719 24.96875 25.847656 25.003906 25.46875 25.054688 C 24.851562 24.980469 24.527344 24.714844 24.125 24.25 C 23.953125 23.734375 23.960938 23.246094 23.953125 22.703125 C 23.949219 22.597656 23.941406 22.492188 23.941406 22.382812 C 23.929688 21.800781 23.9375 21.578125 24.316406 21.113281 C 24.417969 21.035156 24.519531 20.957031 24.625 20.875 C 24.542969 20.628906 24.460938 20.378906 24.375 20.125 C 23.664062 20.457031 23.664062 20.457031 23.257812 21.09375 C 23.214844 21.226562 23.171875 21.363281 23.125 21.5 C 22.960938 21.5 22.792969 21.5 22.625 21.5 C 22.375 21 22.421875 20.390625 22.578125 19.859375 C 22.921875 19.078125 23.535156 18.480469 24.296875 18.101562 C 25.210938 17.816406 26.273438 17.882812 27.125 18.324219 Z M 27.125 18.324219 "/>
<path style=" stroke:none;fill-rule:nonzero;fill:rgb(98.431373%,50.196081%,42.352942%);fill-opacity:1;" d="M 4.75 10.75 C 4.917969 11 5.085938 11.25 5.25 11.5 C 5.675781 11.855469 6.050781 11.941406 6.609375 11.917969 C 7.167969 11.828125 7.671875 11.609375 8.046875 11.175781 C 8.203125 10.953125 8.203125 10.953125 8.375 10.625 C 9.132812 10.664062 9.679688 11.03125 10.25 11.5 C 10.414062 11.707031 10.578125 11.914062 10.75 12.125 C 10.316406 13.050781 10.316406 13.050781 9.875 14 C 7.109375 14 4.347656 14 1.5 14 C 1.796875 12.65625 2.25 11.796875 3.394531 11.015625 C 4.253906 10.492188 4.253906 10.492188 4.75 10.75 Z M 4.75 10.75 "/>
<path style=" stroke:none;fill-rule:nonzero;fill:rgb(38.431373%,41.568628%,45.882353%);fill-opacity:1;" d="M 7.757812 1.738281 C 8.566406 2.195312 9.246094 2.835938 9.5 3.75 C 9.535156 4.171875 9.53125 4.578125 9.5 5 C 9.335938 5 9.171875 5 9 5 C 9 4.835938 9 4.667969 9 4.5 C 8.671875 4.5 8.339844 4.5 8 4.5 C 8 4.664062 8 4.828125 8 5 C 7.679688 4.957031 7.527344 4.898438 7.289062 4.671875 C 7.078125 4.289062 7.042969 3.933594 7 3.5 C 6.710938 3.542969 6.421875 3.582031 6.125 3.625 C 6.296875 4.824219 6.296875 4.824219 7.046875 5.71875 C 7.371094 5.871094 7.648438 5.9375 8 6 C 8.042969 6.921875 8.058594 7.496094 7.4375 8.21875 C 7.136719 8.46875 6.847656 8.503906 6.46875 8.554688 C 5.851562 8.480469 5.527344 8.214844 5.125 7.75 C 4.953125 7.234375 4.960938 6.746094 4.953125 6.203125 C 4.949219 6.097656 4.945312 5.988281 4.9375 5.882812 C 4.929688 5.300781 4.9375 5.078125 5.316406 4.613281 C 5.417969 4.535156 5.519531 4.457031 5.625 4.375 C 5.542969 4.128906 5.460938 3.878906 5.375 3.625 C 4.664062 3.957031 4.664062 3.957031 4.257812 4.59375 C 4.214844 4.726562 4.171875 4.863281 4.125 5 C 3.917969 5 3.714844 5 3.5 5 C 3.4375 4.136719 3.46875 3.457031 4 2.75 C 5.0625 1.628906 6.25 1.085938 7.757812 1.738281 Z M 7.757812 1.738281 "/>
<path style=" stroke:none;fill-rule:nonzero;fill:rgb(0%,0%,0%);fill-opacity:1;" d="M 15.5 23.5 C 15.828125 23.5 16.160156 23.5 16.5 23.5 C 16.5 23.707031 16.5 23.707031 16.5 23.914062 C 16.507812 24.097656 16.511719 24.277344 16.515625 24.460938 C 16.515625 24.550781 16.515625 24.640625 16.515625 24.734375 C 16.53125 25.257812 16.53125 25.257812 16.796875 25.695312 C 16.980469 25.847656 17.175781 25.988281 17.375 26.125 C 17.609375 26.589844 17.570312 27.117188 17.5 27.625 C 17.292969 28.015625 17.027344 28.296875 16.625 28.5 C 16.113281 28.566406 15.59375 28.617188 15.128906 28.367188 C 14.863281 28.148438 14.65625 27.9375 14.5 27.625 C 12.519531 27.582031 10.539062 27.542969 8.5 27.5 C 8.5 27.171875 8.5 26.839844 8.5 26.5 C 8.609375 26.5 8.609375 26.5 8.722656 26.5 C 9.492188 26.5 10.261719 26.496094 11.027344 26.488281 C 11.316406 26.484375 11.601562 26.484375 11.890625 26.484375 C 12.300781 26.484375 12.714844 26.480469 13.125 26.476562 C 13.320312 26.476562 13.320312 26.476562 13.515625 26.480469 C 14.160156 26.484375 14.160156 26.484375 14.714844 26.207031 C 14.90625 25.980469 14.90625 25.980469 15.125 25.625 C 15.207031 25.582031 15.289062 25.542969 15.375 25.5 C 15.414062 25.160156 15.4375 24.832031 15.453125 24.492188 C 15.457031 24.398438 15.460938 24.300781 15.46875 24.203125 C 15.480469 23.96875 15.488281 23.734375 15.5 23.5 Z M 15.5 23.5 "/>
<path style=" stroke:none;fill-rule:nonzero;fill:rgb(0%,0%,0%);fill-opacity:1;" d="M 16.625 3.5 C 17.015625 3.707031 17.296875 3.972656 17.5 4.375 C 19.480469 4.417969 21.460938 4.457031 23.5 4.5 C 23.5 4.828125 23.5 5.160156 23.5 5.5 C 23.390625 5.5 23.390625 5.5 23.277344 5.5 C 22.507812 5.5 21.738281 5.503906 20.972656 5.511719 C 20.683594 5.515625 20.398438 5.515625 20.109375 5.515625 C 19.699219 5.515625 19.285156 5.519531 18.875 5.523438 C 18.679688 5.523438 18.679688 5.523438 18.484375 5.519531 C 17.839844 5.515625 17.839844 5.515625 17.285156 5.792969 C 17.09375 6.019531 17.09375 6.019531 16.875 6.375 C 16.792969 6.417969 16.710938 6.457031 16.625 6.5 C 16.585938 6.839844 16.5625 7.167969 16.546875 7.507812 C 16.542969 7.601562 16.539062 7.699219 16.53125 7.796875 C 16.519531 8.03125 16.511719 8.265625 16.5 8.5 C 16.171875 8.5 15.839844 8.5 15.5 8.5 C 15.5 8.363281 15.5 8.226562 15.5 8.085938 C 15.492188 7.902344 15.488281 7.722656 15.484375 7.539062 C 15.484375 7.449219 15.484375 7.359375 15.484375 7.265625 C 15.46875 6.742188 15.46875 6.742188 15.203125 6.304688 C 15.019531 6.152344 14.824219 6.011719 14.625 5.875 C 14.390625 5.410156 14.429688 4.882812 14.5 4.375 C 14.980469 3.480469 15.683594 3.367188 16.625 3.5 Z M 16.625 3.5 "/>
<path style=" stroke:none;fill-rule:nonzero;fill:rgb(92.54902%,80.392158%,69.411767%);fill-opacity:1;" d="M 24.625 20.5 C 24.75 20.5 24.871094 20.5 25 20.5 C 25.046875 20.605469 25.09375 20.707031 25.140625 20.816406 C 25.207031 20.953125 25.269531 21.085938 25.335938 21.226562 C 25.398438 21.359375 25.460938 21.496094 25.523438 21.636719 C 25.839844 22.144531 26.148438 22.320312 26.726562 22.460938 C 26.816406 22.472656 26.90625 22.484375 27 22.5 C 27.042969 23.421875 27.054688 23.996094 26.4375 24.71875 C 26.136719 24.96875 25.847656 25.003906 25.46875 25.054688 C 24.851562 24.984375 24.523438 24.714844 24.125 24.25 C 23.953125 23.734375 23.960938 23.246094 23.953125 22.703125 C 23.949219 22.597656 23.945312 22.488281 23.9375 22.382812 C 23.925781 21.582031 23.925781 21.582031 24.316406 21.136719 C 24.417969 21.050781 24.519531 20.964844 24.625 20.875 C 24.625 20.75 24.625 20.628906 24.625 20.5 Z M 24.625 20.5 "/>
<path style=" stroke:none;fill-rule:nonzero;fill:rgb(92.54902%,80.392158%,69.411767%);fill-opacity:1;" d="M 5.625 4 C 5.75 4 5.871094 4 6 4 C 6.046875 4.105469 6.09375 4.207031 6.140625 4.316406 C 6.207031 4.453125 6.269531 4.585938 6.335938 4.726562 C 6.398438 4.859375 6.460938 4.996094 6.523438 5.136719 C 6.839844 5.644531 7.148438 5.820312 7.726562 5.960938 C 7.816406 5.972656 7.90625 5.984375 8 6 C 8.042969 6.921875 8.054688 7.496094 7.4375 8.21875 C 7.136719 8.46875 6.847656 8.503906 6.46875 8.554688 C 5.851562 8.484375 5.523438 8.214844 5.125 7.75 C 4.953125 7.234375 4.960938 6.746094 4.953125 6.203125 C 4.949219 6.097656 4.945312 5.988281 4.9375 5.882812 C 4.925781 5.082031 4.925781 5.082031 5.316406 4.636719 C 5.417969 4.550781 5.519531 4.464844 5.625 4.375 C 5.625 4.25 5.625 4.128906 5.625 4 Z M 5.625 4 "/>
<path style=" stroke:none;fill-rule:nonzero;fill:rgb(1.568628%,1.960784%,0.784314%);fill-opacity:1;" d="M 4.375 25.5 C 4.886719 25.726562 5.210938 26.019531 5.5 26.5 C 5.582031 27.023438 5.621094 27.308594 5.339844 27.757812 C 5.152344 27.984375 4.976562 28.1875 4.75 28.375 C 4.667969 28.375 4.585938 28.375 4.5 28.375 C 4.5 28.746094 4.5 29.117188 4.5 29.5 C 4.171875 29.5 3.839844 29.5 3.5 29.5 C 3.5 29.128906 3.5 28.757812 3.5 28.375 C 3.335938 28.292969 3.171875 28.210938 3 28.125 C 2.609375 27.757812 2.507812 27.550781 2.421875 27.015625 C 2.445312 26.472656 2.699219 26.179688 3.0625 25.792969 C 3.472656 25.425781 3.839844 25.464844 4.375 25.5 Z M 4.375 25.5 "/>
<path style=" stroke:none;fill-rule:nonzero;fill:rgb(1.568628%,1.960784%,0.784314%);fill-opacity:1;" d="M 28.375 6.5 C 28.886719 6.726562 29.210938 7.019531 29.5 7.5 C 29.582031 8.023438 29.621094 8.308594 29.339844 8.757812 C 29.152344 8.984375 28.976562 9.1875 28.75 9.375 C 28.667969 9.375 28.585938 9.375 28.5 9.375 C 28.5 9.746094 28.5 10.117188 28.5 10.5 C 28.171875 10.5 27.839844 10.5 27.5 10.5 C 27.5 10.128906 27.5 9.757812 27.5 9.375 C 27.335938 9.292969 27.171875 9.210938 27 9.125 C 26.609375 8.757812 26.507812 8.550781 26.421875 8.015625 C 26.445312 7.472656 26.699219 7.179688 27.0625 6.792969 C 27.472656 6.425781 27.839844 6.464844 28.375 6.5 Z M 28.375 6.5 "/>
<path style=" stroke:none;fill-rule:nonzero;fill:rgb(40.000001%,81.960785%,93.333334%);fill-opacity:1;" d="M 14.25 13.5 C 15.40625 13.5 16.558594 13.5 17.75 13.5 C 18 14.375 18 14.375 18 15.5 C 16.679688 15.5 15.359375 15.5 14 15.5 C 14 14.375 14 14.375 14.25 13.5 Z M 14.25 13.5 "/>
<path style=" stroke:none;fill-rule:nonzero;fill:rgb(40.784314%,83.137256%,94.901961%);fill-opacity:1;" d="M 14 16.5 C 15.320312 16.5 16.640625 16.5 18 16.5 C 17.875 18.125 17.875 18.125 17.75 18.5 C 16.59375 18.5 15.441406 18.5 14.25 18.5 C 14 17.125 14 17.125 14 16.5 Z M 14 16.5 "/>
<path style=" stroke:none;fill-rule:nonzero;fill:rgb(96.078432%,81.960785%,42.352942%);fill-opacity:1;" d="M 27.75 27.25 C 28.597656 27.367188 29.183594 27.878906 29.730469 28.519531 C 30.222656 29.207031 30.296875 29.589844 30.5 30.5 C 29.46875 30.5 28.4375 30.5 27.375 30.5 C 27.515625 28.8125 27.515625 28.8125 27.632812 28.03125 C 27.65625 27.882812 27.675781 27.734375 27.699219 27.578125 C 27.714844 27.472656 27.734375 27.363281 27.75 27.25 Z M 27.75 27.25 "/>
<path style=" stroke:none;fill-rule:nonzero;fill:rgb(95.686275%,81.568629%,42.352942%);fill-opacity:1;" d="M 23.25 27.25 C 23.3125 27.671875 23.375 28.097656 23.4375 28.523438 C 23.453125 28.644531 23.472656 28.765625 23.492188 28.886719 C 23.507812 29.003906 23.523438 29.121094 23.542969 29.238281 C 23.566406 29.398438 23.566406 29.398438 23.589844 29.5625 C 23.625 29.875 23.625 29.875 23.625 30.5 C 22.59375 30.5 21.5625 30.5 20.5 30.5 C 20.804688 29.128906 21.261719 28.308594 22.414062 27.507812 C 22.734375 27.308594 22.859375 27.25 23.25 27.25 Z M 23.25 27.25 "/>
<path style=" stroke:none;fill-rule:nonzero;fill:rgb(40.000001%,81.568629%,92.941177%);fill-opacity:1;" d="M 18.875 13.5 C 19.535156 13.5 20.195312 13.5 20.875 13.5 C 21.292969 14.253906 21.386719 14.578125 21.5 15.5 C 20.675781 15.5 19.851562 15.5 19 15.5 C 18.722656 14.941406 18.871094 14.097656 18.875 13.5 Z M 18.875 13.5 "/>
<path style=" stroke:none;fill-rule:nonzero;fill:rgb(40.000001%,81.568629%,93.333334%);fill-opacity:1;" d="M 19 16.5 C 19.824219 16.5 20.648438 16.5 21.5 16.5 C 21.386719 17.421875 21.292969 17.746094 20.875 18.5 C 20.171875 18.5 19.472656 18.5 18.75 18.5 C 18.832031 17.839844 18.914062 17.179688 19 16.5 Z M 19 16.5 "/>
<path style=" stroke:none;fill-rule:nonzero;fill:rgb(40.000001%,81.960785%,93.333334%);fill-opacity:1;" d="M 10.5 16.5 C 11.324219 16.5 12.148438 16.5 13 16.5 C 13.171875 17.179688 13.132812 17.800781 13.125 18.5 C 12.464844 18.5 11.804688 18.5 11.125 18.5 C 10.707031 17.746094 10.613281 17.421875 10.5 16.5 Z M 10.5 16.5 "/>
<path style=" stroke:none;fill-rule:nonzero;fill:rgb(40.392157%,82.352942%,94.117647%);fill-opacity:1;" d="M 11.125 13.5 C 11.785156 13.5 12.445312 13.5 13.125 13.5 C 13.082031 14.160156 13.042969 14.820312 13 15.5 C 12.175781 15.5 11.351562 15.5 10.5 15.5 C 10.613281 14.578125 10.707031 14.253906 11.125 13.5 Z M 11.125 13.5 "/>
<path style=" stroke:none;fill-rule:nonzero;fill:rgb(40.000001%,81.568629%,93.333334%);fill-opacity:1;" d="M 16.5 10.625 C 16.960938 11.074219 17.253906 11.660156 17.5 12.25 C 17.5 12.332031 17.5 12.414062 17.5 12.5 C 16.511719 12.5 15.519531 12.5 14.5 12.5 C 14.78125 11.511719 14.78125 11.511719 15.125 11.078125 C 15.191406 10.996094 15.253906 10.910156 15.320312 10.824219 C 15.691406 10.410156 15.988281 10.480469 16.5 10.625 Z M 16.5 10.625 "/>
<path style=" stroke:none;fill-rule:nonzero;fill:rgb(40.392157%,82.352942%,93.725491%);fill-opacity:1;" d="M 14.5 19.5 C 15.488281 19.5 16.480469 19.5 17.5 19.5 C 16.894531 21.015625 16.894531 21.015625 16.5 21.375 C 16.132812 21.507812 16.132812 21.507812 15.75 21.5 C 15.015625 21.140625 14.78125 20.34375 14.5 19.625 C 14.5 19.582031 14.5 19.542969 14.5 19.5 Z M 14.5 19.5 "/>
<path style=" stroke:none;fill-rule:nonzero;fill:rgb(95.686275%,81.568629%,42.352942%);fill-opacity:1;" d="M 25.375 28.75 C 25.882812 28.953125 26.21875 29.3125 26.59375 29.695312 C 26.65625 29.757812 26.71875 29.824219 26.785156 29.886719 C 27.25 30.359375 27.25 30.359375 27.25 30.5 C 26.09375 30.5 24.941406 30.5 23.75 30.5 C 24.59375 29.515625 24.59375 29.515625 24.984375 29.132812 C 25.097656 29.023438 25.097656 29.023438 25.210938 28.910156 C 25.265625 28.859375 25.320312 28.804688 25.375 28.75 Z M 25.375 28.75 "/>
<path style=" stroke:none;fill-rule:nonzero;fill:rgb(89.803922%,77.64706%,67.058825%);fill-opacity:1;" d="M 6.089844 9.363281 C 6.296875 9.367188 6.296875 9.367188 6.507812 9.367188 C 6.714844 9.367188 6.714844 9.367188 6.925781 9.371094 C 7.03125 9.371094 7.140625 9.375 7.25 9.375 C 7.441406 9.714844 7.5 9.855469 7.484375 10.257812 C 7.375 10.625 7.375 10.625 7.164062 10.859375 C 6.777344 11.046875 6.550781 11.070312 6.125 11 C 5.757812 10.742188 5.757812 10.742188 5.5 10.375 C 5.53125 9.382812 5.53125 9.382812 6.089844 9.363281 Z M 6.089844 9.363281 "/>
<path style=" stroke:none;fill-rule:nonzero;fill:rgb(38.82353%,41.960785%,45.882353%);fill-opacity:1;" d="M 8.75 8 C 8.996094 8 9.246094 8 9.5 8 C 9.5 8.617188 9.5 9.238281 9.5 9.875 C 8.945312 9.75 8.945312 9.75 8.375 9.625 C 8.246094 9.089844 8.214844 8.828125 8.445312 8.320312 C 8.546875 8.214844 8.644531 8.109375 8.75 8 Z M 8.75 8 "/>
<path style=" stroke:none;fill-rule:nonzero;fill:rgb(38.82353%,41.568628%,45.882353%);fill-opacity:1;" d="M 3.5 8 C 3.746094 8 3.996094 8 4.25 8 C 4.554688 8.320312 4.554688 8.320312 4.75 8.75 C 4.71875 9.234375 4.71875 9.234375 4.625 9.625 C 4.253906 9.707031 3.882812 9.789062 3.5 9.875 C 3.5 9.257812 3.5 8.636719 3.5 8 Z M 3.5 8 "/>
<path style=" stroke:none;fill-rule:nonzero;fill:rgb(38.82353%,79.215688%,90.196079%);fill-opacity:1;" d="M 18.5 19.5 C 19.035156 19.5 19.574219 19.5 20.125 19.5 C 19.871094 20.011719 19.734375 20.140625 19.28125 20.453125 C 19.125 20.5625 19.125 20.5625 18.960938 20.675781 C 18.625 20.875 18.625 20.875 17.875 21.125 C 18.082031 20.589844 18.289062 20.050781 18.5 19.5 Z M 18.5 19.5 "/>
<path style=" stroke:none;fill-rule:nonzero;fill:rgb(38.82353%,79.215688%,90.588236%);fill-opacity:1;" d="M 11.875 19.5 C 12.410156 19.5 12.949219 19.5 13.5 19.5 C 13.707031 20.035156 13.914062 20.574219 14.125 21.125 C 13.496094 20.917969 13.164062 20.761719 12.648438 20.382812 C 12.527344 20.296875 12.410156 20.210938 12.285156 20.121094 C 12 19.875 12 19.875 11.875 19.5 Z M 11.875 19.5 "/>
<path style=" stroke:none;fill-rule:nonzero;fill:rgb(39.215687%,79.607844%,90.980393%);fill-opacity:1;" d="M 13.875 10.875 C 13.957031 10.917969 14.039062 10.957031 14.125 11 C 13.917969 11.496094 13.710938 11.988281 13.5 12.5 C 12.921875 12.5 12.34375 12.5 11.75 12.5 C 12.171875 11.96875 12.402344 11.742188 12.953125 11.40625 C 13.074219 11.332031 13.195312 11.257812 13.316406 11.179688 C 13.5 11.074219 13.683594 10.96875 13.875 10.875 Z M 13.875 10.875 "/>
<path style=" stroke:none;fill-rule:nonzero;fill:rgb(39.215687%,80.000001%,91.37255%);fill-opacity:1;" d="M 17.875 10.875 C 18.503906 11.082031 18.835938 11.238281 19.351562 11.617188 C 19.472656 11.703125 19.589844 11.789062 19.714844 11.878906 C 20 12.125 20 12.125 20.125 12.5 C 19.589844 12.5 19.050781 12.5 18.5 12.5 C 18.292969 11.964844 18.085938 11.425781 17.875 10.875 Z M 17.875 10.875 "/>
<path style=" stroke:none;fill-rule:nonzero;fill:rgb(89.803922%,77.64706%,67.450982%);fill-opacity:1;" d="M 24.75 25.875 C 25.246094 25.875 25.738281 25.875 26.25 25.875 C 26.292969 26.082031 26.332031 26.289062 26.375 26.5 C 26.222656 26.726562 26.222656 26.726562 26.007812 26.914062 C 25.9375 26.976562 25.867188 27.042969 25.792969 27.109375 C 25.738281 27.15625 25.683594 27.203125 25.625 27.25 C 25.203125 27.070312 24.90625 26.863281 24.625 26.5 C 24.667969 26.292969 24.707031 26.085938 24.75 25.875 Z M 24.75 25.875 "/>
<path style=" stroke:none;fill-rule:nonzero;fill:rgb(93.333334%,47.450981%,40.000001%);fill-opacity:1;" d="M 15.75 26.5 C 16.078125 26.546875 16.078125 26.546875 16.375 26.625 C 16.453125 26.921875 16.453125 26.921875 16.5 27.25 C 16.417969 27.332031 16.335938 27.414062 16.25 27.5 C 15.921875 27.453125 15.921875 27.453125 15.625 27.375 C 15.546875 27.078125 15.546875 27.078125 15.5 26.75 C 15.582031 26.667969 15.664062 26.585938 15.75 26.5 Z M 15.75 26.5 "/>
<path style=" stroke:none;fill-rule:nonzero;fill:rgb(92.156863%,78.823531%,40.784314%);fill-opacity:1;" d="M 3.75 26.5 C 4.078125 26.546875 4.078125 26.546875 4.375 26.625 C 4.453125 26.921875 4.453125 26.921875 4.5 27.25 C 4.417969 27.332031 4.335938 27.414062 4.25 27.5 C 3.921875 27.453125 3.921875 27.453125 3.625 27.375 C 3.546875 27.078125 3.546875 27.078125 3.5 26.75 C 3.582031 26.667969 3.664062 26.585938 3.75 26.5 Z M 3.75 26.5 "/>
<path style=" stroke:none;fill-rule:nonzero;fill:rgb(92.156863%,78.823531%,40.784314%);fill-opacity:1;" d="M 27.75 7.5 C 28.078125 7.546875 28.078125 7.546875 28.375 7.625 C 28.453125 7.921875 28.453125 7.921875 28.5 8.25 C 28.417969 8.332031 28.335938 8.414062 28.25 8.5 C 27.921875 8.453125 27.921875 8.453125 27.625 8.375 C 27.546875 8.078125 27.546875 8.078125 27.5 7.75 C 27.582031 7.667969 27.664062 7.585938 27.75 7.5 Z M 27.75 7.5 "/>
<path style=" stroke:none;fill-rule:nonzero;fill:rgb(93.333334%,47.450981%,40.000001%);fill-opacity:1;" d="M 15.75 4.5 C 16.078125 4.546875 16.078125 4.546875 16.375 4.625 C 16.453125 4.921875 16.453125 4.921875 16.5 5.25 C 16.417969 5.332031 16.335938 5.414062 16.25 5.5 C 15.921875 5.453125 15.921875 5.453125 15.625 5.375 C 15.546875 5.078125 15.546875 5.078125 15.5 4.75 C 15.582031 4.667969 15.664062 4.585938 15.75 4.5 Z M 15.75 4.5 "/>
<path style=" stroke:none;fill-rule:nonzero;fill:rgb(87.843138%,76.078433%,65.882355%);fill-opacity:1;" d="M 28 22.5 C 28.246094 22.625 28.246094 22.625 28.5 22.75 C 28.457031 22.957031 28.417969 23.164062 28.375 23.375 C 28.25 23.417969 28.128906 23.457031 28 23.5 C 28 23.171875 28 22.839844 28 22.5 Z M 28 22.5 "/>
<path style=" stroke:none;fill-rule:nonzero;fill:rgb(87.843138%,76.078433%,65.882355%);fill-opacity:1;" d="M 22.75 22.5 C 22.832031 22.5 22.914062 22.5 23 22.5 C 23 22.828125 23 23.160156 23 23.5 C 22.835938 23.417969 22.671875 23.335938 22.5 23.25 C 22.609375 22.640625 22.609375 22.640625 22.75 22.5 Z M 22.75 22.5 "/>
<path style=" stroke:none;fill-rule:nonzero;fill:rgb(87.843138%,76.078433%,65.882355%);fill-opacity:1;" d="M 9 6 C 9.246094 6.125 9.246094 6.125 9.5 6.25 C 9.457031 6.457031 9.417969 6.664062 9.375 6.875 C 9.25 6.917969 9.128906 6.957031 9 7 C 9 6.671875 9 6.339844 9 6 Z M 9 6 "/>
<path style=" stroke:none;fill-rule:nonzero;fill:rgb(87.843138%,76.078433%,65.882355%);fill-opacity:1;" d="M 3.75 6 C 3.832031 6 3.914062 6 4 6 C 4 6.328125 4 6.660156 4 7 C 3.835938 6.917969 3.671875 6.835938 3.5 6.75 C 3.609375 6.140625 3.609375 6.140625 3.75 6 Z M 3.75 6 "/>
<path style=" stroke:none;fill-rule:nonzero;fill:rgb(81.176472%,63.529414%,12.941177%);fill-opacity:1;" d="M 26.625 27.5 C 26.667969 27.5 26.707031 27.5 26.75 27.5 C 26.75 27.789062 26.75 28.078125 26.75 28.375 C 26.585938 28.292969 26.421875 28.210938 26.25 28.125 C 26.484375 27.640625 26.484375 27.640625 26.625 27.5 Z M 26.625 27.5 "/>
<path style=" stroke:none;fill-rule:nonzero;fill:rgb(81.568629%,63.529414%,12.941177%);fill-opacity:1;" d="M 24.25 27.5 C 24.414062 27.625 24.578125 27.746094 24.75 27.875 C 24.667969 28.039062 24.585938 28.203125 24.5 28.375 C 24.417969 28.375 24.335938 28.375 24.25 28.375 C 24.25 28.085938 24.25 27.796875 24.25 27.5 Z M 24.25 27.5 "/>
</g>
</svg>
