<?xml version="1.0" encoding="UTF-8"?>
<svg xmlns="http://www.w3.org/2000/svg" xmlns:xlink="http://www.w3.org/1999/xlink" width="32" height="32" viewBox="0 0 32 32" version="1.1">
<g id="surface1">
<path style=" stroke:none;fill-rule:nonzero;fill:rgb(42.352942%,49.411765%,84.313726%);fill-opacity:1;" d="M 13.5 2.875 C 13.773438 3.035156 13.773438 3.035156 14 3.257812 C 14.082031 3.335938 14.164062 3.417969 14.25 3.5 C 14.332031 3.582031 14.414062 3.664062 14.5 3.75 C 14.628906 3.863281 14.628906 3.863281 14.761719 3.980469 C 15.367188 4.527344 15.367188 4.527344 15.398438 4.945312 C 15.25 5.25 15.25 5.25 14.984375 5.601562 C 14.714844 6.058594 14.703125 6.265625 14.800781 6.769531 C 14.917969 7.132812 15.058594 7.292969 15.375 7.5 C 15.898438 7.644531 16.164062 7.660156 16.671875 7.460938 C 17.011719 7.28125 17.011719 7.28125 17.125 7 C 17.386719 6.949219 17.386719 6.949219 17.75 7 C 18.066406 7.234375 18.328125 7.511719 18.59375 7.796875 C 18.667969 7.871094 18.742188 7.949219 18.816406 8.023438 C 19.472656 8.703125 19.472656 8.703125 19.5625 9.269531 C 19.472656 9.953125 19.121094 10.226562 18.625 10.679688 C 18.542969 10.757812 18.457031 10.839844 18.371094 10.921875 C 18.167969 11.117188 17.957031 11.308594 17.75 11.5 C 17.886719 11.78125 18.019531 12.027344 18.203125 12.28125 C 18.429688 12.734375 18.476562 13.132812 18.375 13.625 C 18.15625 14.035156 17.855469 14.304688 17.46875 14.5625 C 16.953125 14.65625 16.488281 14.566406 16 14.375 C 15.792969 14.210938 15.585938 14.046875 15.375 13.875 C 14.714844 14.535156 14.054688 15.195312 13.375 15.875 C 13.589844 16.304688 13.703125 16.476562 14.035156 16.785156 C 14.113281 16.859375 14.195312 16.933594 14.273438 17.011719 C 14.441406 17.164062 14.609375 17.320312 14.777344 17.472656 C 14.996094 17.679688 15.195312 17.878906 15.375 18.125 C 15.378906 18.484375 15.378906 18.484375 15.25 18.75 C 15.1875 18.804688 15.125 18.859375 15.0625 18.914062 C 14.808594 19.203125 14.769531 19.492188 14.734375 19.867188 C 14.761719 20.296875 14.976562 20.554688 15.25 20.875 C 15.652344 21.078125 16.066406 21.078125 16.5 21 C 16.71875 20.859375 16.71875 20.859375 16.90625 20.679688 C 17.078125 20.527344 17.078125 20.527344 17.25 20.375 C 17.871094 20.425781 18.234375 20.914062 18.65625 21.328125 C 18.738281 21.402344 18.820312 21.480469 18.902344 21.558594 C 19.300781 21.949219 19.484375 22.148438 19.578125 22.714844 C 19.496094 23.148438 19.421875 23.3125 19.117188 23.625 C 19.039062 23.707031 18.957031 23.792969 18.878906 23.875 C 18.140625 24.605469 18.140625 24.605469 17.910156 24.820312 C 17.722656 24.992188 17.722656 24.992188 17.75 25.25 C 17.914062 25.417969 18.082031 25.585938 18.25 25.75 C 18.453125 26.152344 18.433594 26.5625 18.375 27 C 18.171875 27.386719 18 27.652344 17.65625 27.921875 C 16.988281 28.109375 16.539062 28.085938 15.9375 27.765625 C 15.832031 27.675781 15.730469 27.589844 15.625 27.5 C 15.625 27.417969 15.625 27.335938 15.625 27.25 C 15.035156 27.753906 14.46875 28.269531 13.929688 28.828125 C 13.65625 29.085938 13.488281 29.128906 13.109375 29.191406 C 12.40625 29.097656 12.101562 28.71875 11.625 28.21875 C 11.496094 28.089844 11.496094 28.089844 11.363281 27.960938 C 10.898438 27.484375 10.898438 27.484375 10.75 27.25 C 10.785156 26.867188 10.867188 26.757812 11.132812 26.46875 C 11.414062 26.070312 11.457031 25.847656 11.429688 25.367188 C 11.328125 24.929688 11.109375 24.75 10.75 24.5 C 10.25 24.359375 10 24.316406 9.523438 24.539062 C 9.242188 24.746094 9.242188 24.746094 9 25 C 8.503906 24.964844 8.261719 24.820312 7.917969 24.472656 C 7.832031 24.386719 7.75 24.300781 7.664062 24.210938 C 7.574219 24.121094 7.484375 24.027344 7.390625 23.933594 C 7.300781 23.839844 7.207031 23.746094 7.109375 23.648438 C 6.816406 23.347656 6.519531 23.046875 6.226562 22.742188 C 5.929688 22.441406 5.636719 22.136719 5.335938 21.835938 C 5.152344 21.648438 4.96875 21.457031 4.785156 21.269531 C 4.703125 21.183594 4.617188 21.101562 4.535156 21.015625 C 4.421875 20.898438 4.421875 20.898438 4.3125 20.785156 C 4.136719 20.597656 4.136719 20.597656 3.875 20.625 C 3.707031 20.789062 3.539062 20.957031 3.375 21.125 C 2.945312 21.339844 2.472656 21.296875 2 21.25 C 1.511719 21.042969 1.324219 20.859375 1.125 20.375 C 1.046875 19.878906 0.984375 19.34375 1.265625 18.90625 C 1.4375 18.734375 1.4375 18.734375 1.75 18.5 C 1.523438 17.894531 1 17.511719 0.519531 17.097656 C 0.136719 16.734375 0.0117188 16.546875 -0.105469 16.015625 C -0.0507812 15.324219 0.453125 14.941406 0.9375 14.5 C 1.027344 14.414062 1.117188 14.328125 1.207031 14.242188 C 1.429688 14.035156 1.652344 13.828125 1.875 13.625 C 2.148438 13.757812 2.375 13.875 2.609375 14.070312 C 2.960938 14.308594 3.203125 14.359375 3.625 14.375 C 4.160156 14.207031 4.332031 14.070312 4.625 13.585938 C 4.769531 13.050781 4.742188 12.863281 4.5 12.375 C 4.25 12.023438 4.25 12.023438 4 11.75 C 4.171875 11.367188 4.359375 11.113281 4.660156 10.824219 C 4.742188 10.742188 4.824219 10.660156 4.910156 10.578125 C 5 10.492188 5.089844 10.40625 5.179688 10.316406 C 5.367188 10.132812 5.554688 9.949219 5.746094 9.765625 C 6.042969 9.476562 6.335938 9.1875 6.636719 8.898438 C 6.921875 8.617188 7.207031 8.339844 7.492188 8.058594 C 7.582031 7.972656 7.671875 7.886719 7.765625 7.796875 C 7.847656 7.714844 7.929688 7.636719 8.015625 7.550781 C 8.085938 7.480469 8.160156 7.410156 8.234375 7.339844 C 8.402344 7.128906 8.402344 7.128906 8.347656 6.863281 C 8.261719 6.613281 8.261719 6.613281 8.0625 6.40625 C 7.792969 6.003906 7.734375 5.601562 7.75 5.125 C 7.898438 4.683594 8.042969 4.449219 8.390625 4.140625 C 8.894531 3.945312 9.339844 3.894531 9.875 4 C 10.179688 4.179688 10.375 4.367188 10.625 4.625 C 11.234375 4.394531 11.621094 3.871094 12.039062 3.394531 C 12.503906 2.902344 12.796875 2.757812 13.5 2.875 Z M 13.5 2.875 "/>
<path style=" stroke:none;fill-rule:nonzero;fill:rgb(5.490196%,81.960785%,69.803923%);fill-opacity:1;" d="M 13.125 16 C 13.6875 16.460938 14.222656 16.945312 14.75 17.445312 C 14.8125 17.503906 14.875 17.558594 14.941406 17.617188 C 15.117188 17.789062 15.117188 17.789062 15.375 18.125 C 15.363281 18.46875 15.363281 18.46875 15.25 18.75 C 15.1875 18.804688 15.125 18.859375 15.0625 18.914062 C 14.808594 19.203125 14.769531 19.492188 14.734375 19.867188 C 14.761719 20.296875 14.976562 20.554688 15.25 20.875 C 15.652344 21.078125 16.066406 21.078125 16.5 21 C 16.71875 20.859375 16.71875 20.859375 16.90625 20.679688 C 17.019531 20.578125 17.132812 20.480469 17.25 20.375 C 17.871094 20.425781 18.234375 20.914062 18.65625 21.328125 C 18.777344 21.441406 18.777344 21.441406 18.902344 21.558594 C 19.300781 21.949219 19.484375 22.148438 19.578125 22.714844 C 19.496094 23.148438 19.421875 23.3125 19.117188 23.625 C 19.039062 23.707031 18.957031 23.792969 18.878906 23.875 C 18.140625 24.605469 18.140625 24.605469 17.910156 24.820312 C 17.722656 24.992188 17.722656 24.992188 17.75 25.25 C 17.914062 25.417969 18.082031 25.585938 18.25 25.75 C 18.453125 26.152344 18.433594 26.5625 18.375 27 C 18.171875 27.386719 18 27.652344 17.65625 27.921875 C 16.988281 28.109375 16.539062 28.085938 15.9375 27.765625 C 15.832031 27.675781 15.730469 27.589844 15.625 27.5 C 15.625 27.417969 15.625 27.335938 15.625 27.25 C 15.035156 27.753906 14.46875 28.269531 13.929688 28.828125 C 13.65625 29.085938 13.488281 29.128906 13.109375 29.191406 C 12.40625 29.097656 12.101562 28.71875 11.625 28.21875 C 11.539062 28.132812 11.453125 28.046875 11.363281 27.960938 C 10.898438 27.484375 10.898438 27.484375 10.75 27.25 C 10.785156 26.867188 10.867188 26.757812 11.132812 26.46875 C 11.414062 26.070312 11.457031 25.847656 11.429688 25.367188 C 11.328125 24.929688 11.109375 24.75 10.75 24.5 C 10.25 24.359375 10 24.316406 9.523438 24.539062 C 9.242188 24.746094 9.242188 24.746094 9 25 C 8.480469 24.96875 8.234375 24.792969 7.875 24.425781 C 7.789062 24.335938 7.699219 24.246094 7.609375 24.152344 C 7.519531 24.058594 7.429688 23.964844 7.335938 23.867188 C 7.242188 23.773438 7.152344 23.675781 7.054688 23.578125 C 6.828125 23.347656 6.601562 23.109375 6.375 22.875 C 6.546875 22.484375 6.746094 22.226562 7.054688 21.929688 C 7.140625 21.847656 7.222656 21.765625 7.308594 21.683594 C 7.4375 21.558594 7.4375 21.558594 7.570312 21.429688 C 7.742188 21.265625 7.914062 21.097656 8.085938 20.929688 C 8.164062 20.855469 8.238281 20.78125 8.316406 20.707031 C 8.527344 20.492188 8.527344 20.492188 8.625 20.125 C 8.546875 20.09375 8.46875 20.0625 8.390625 20.03125 C 8.058594 19.835938 7.988281 19.738281 7.875 19.375 C 7.78125 18.539062 7.78125 18.539062 8.007812 18.148438 C 8.230469 17.875 8.433594 17.65625 8.75 17.5 C 9.363281 17.449219 9.640625 17.441406 10.1875 17.734375 C 10.34375 17.867188 10.34375 17.867188 10.5 18 C 10.5 18.082031 10.5 18.164062 10.5 18.25 C 11.117188 17.933594 11.546875 17.476562 12.023438 16.984375 C 12.179688 16.824219 12.332031 16.667969 12.488281 16.507812 C 12.558594 16.4375 12.625 16.367188 12.695312 16.292969 C 12.875 16.125 12.875 16.125 13.125 16 Z M 13.125 16 "/>
<path style=" stroke:none;fill-rule:nonzero;fill:rgb(100%,87.843138%,46.27451%);fill-opacity:1;" d="M 25.863281 9.554688 C 26.386719 9.695312 26.699219 10.105469 27.046875 10.5 C 27.199219 10.664062 27.351562 10.828125 27.503906 10.992188 C 27.570312 11.066406 27.632812 11.140625 27.703125 11.214844 C 27.867188 11.402344 27.867188 11.402344 28.125 11.375 C 28.292969 11.210938 28.460938 11.042969 28.625 10.875 C 28.914062 10.730469 29.097656 10.730469 29.421875 10.726562 C 29.566406 10.722656 29.566406 10.722656 29.714844 10.722656 C 30.164062 10.765625 30.421875 10.910156 30.71875 11.25 C 30.945312 11.792969 30.980469 12.296875 30.875 12.875 C 30.691406 13.160156 30.527344 13.292969 30.25 13.5 C 30.476562 14.105469 31.003906 14.488281 31.476562 14.902344 C 31.867188 15.265625 31.988281 15.453125 32.105469 15.984375 C 32.050781 16.675781 31.546875 17.058594 31.0625 17.5 C 30.972656 17.585938 30.882812 17.671875 30.789062 17.757812 C 30.570312 17.964844 30.351562 18.171875 30.125 18.375 C 29.851562 18.242188 29.625 18.125 29.390625 17.929688 C 29.039062 17.691406 28.796875 17.640625 28.375 17.625 C 27.839844 17.792969 27.664062 17.929688 27.375 18.414062 C 27.230469 18.949219 27.257812 19.136719 27.5 19.625 C 27.75 19.976562 27.75 19.976562 28 20.25 C 27.75 20.792969 27.398438 21.167969 26.984375 21.59375 C 26.914062 21.667969 26.847656 21.742188 26.777344 21.820312 C 26.425781 22.183594 26.144531 22.429688 25.628906 22.480469 C 24.972656 22.421875 24.621094 21.96875 24.203125 21.5 C 24.050781 21.335938 23.898438 21.171875 23.746094 21.007812 C 23.679688 20.933594 23.617188 20.859375 23.546875 20.785156 C 23.382812 20.597656 23.382812 20.597656 23.125 20.625 C 22.957031 20.789062 22.789062 20.957031 22.625 21.125 C 22.191406 21.34375 21.726562 21.324219 21.25 21.25 C 20.867188 21.039062 20.574219 20.773438 20.375 20.375 C 20.304688 19.703125 20.308594 19.171875 20.75 18.625 C 20.875 18.5625 20.875 18.5625 21 18.5 C 20.773438 17.894531 20.25 17.511719 19.769531 17.097656 C 19.382812 16.734375 19.257812 16.546875 19.148438 16.015625 C 19.203125 15.328125 19.679688 14.9375 20.15625 14.492188 C 20.242188 14.40625 20.328125 14.320312 20.414062 14.230469 C 20.890625 13.769531 20.890625 13.769531 21.125 13.625 C 21.496094 13.660156 21.601562 13.722656 21.859375 14 C 22.203125 14.324219 22.40625 14.367188 22.875 14.375 C 23.363281 14.210938 23.574219 14.074219 23.867188 13.648438 C 24.023438 13.175781 24.027344 12.972656 23.875 12.5 C 23.683594 12.191406 23.476562 11.914062 23.25 11.625 C 23.539062 11.289062 23.832031 10.957031 24.125 10.625 C 24.207031 10.53125 24.289062 10.433594 24.371094 10.335938 C 24.453125 10.246094 24.535156 10.15625 24.617188 10.0625 C 24.691406 9.980469 24.761719 9.894531 24.839844 9.808594 C 25.179688 9.589844 25.460938 9.535156 25.863281 9.554688 Z M 25.863281 9.554688 "/>
<path style=" stroke:none;fill-rule:nonzero;fill:rgb(98.823529%,27.450982%,32.941177%);fill-opacity:1;" d="M 6.25 9.25 C 6.910156 9.800781 7.515625 10.382812 8.113281 11.003906 C 8.277344 11.171875 8.453125 11.335938 8.625 11.5 C 8.917969 11.527344 8.917969 11.527344 9.1875 11.195312 C 9.34375 11.035156 9.34375 11.035156 9.5 10.875 C 9.949219 10.652344 10.40625 10.738281 10.875 10.875 C 11.230469 11.113281 11.445312 11.359375 11.625 11.75 C 11.679688 12.160156 11.640625 12.488281 11.5 12.875 C 11.179688 13.257812 11.179688 13.257812 10.875 13.5 C 11.046875 13.894531 11.253906 14.15625 11.558594 14.457031 C 11.644531 14.542969 11.726562 14.625 11.8125 14.710938 C 11.902344 14.796875 11.988281 14.882812 12.078125 14.96875 C 12.167969 15.054688 12.253906 15.140625 12.347656 15.234375 C 12.5625 15.449219 12.78125 15.660156 13 15.875 C 12.730469 16.480469 12.285156 16.882812 11.820312 17.34375 C 11.734375 17.429688 11.648438 17.515625 11.5625 17.609375 C 11.480469 17.691406 11.398438 17.773438 11.3125 17.859375 C 11.238281 17.933594 11.164062 18.007812 11.085938 18.085938 C 10.875 18.25 10.875 18.25 10.5 18.25 C 10.328125 18.089844 10.160156 17.921875 10 17.75 C 9.601562 17.550781 9.183594 17.5625 8.75 17.625 C 8.398438 17.847656 8.1875 18.003906 8 18.375 C 7.957031 19.042969 7.945312 19.453125 8.375 20 C 8.457031 20.042969 8.539062 20.082031 8.625 20.125 C 8.554688 20.597656 8.359375 20.808594 8.023438 21.140625 C 7.878906 21.28125 7.878906 21.28125 7.734375 21.421875 C 7.632812 21.519531 7.53125 21.617188 7.429688 21.71875 C 7.328125 21.816406 7.226562 21.917969 7.125 22.019531 C 6.875 22.265625 6.625 22.507812 6.375 22.75 C 5.742188 22.222656 5.160156 21.671875 4.59375 21.078125 C 4.441406 20.921875 4.285156 20.773438 4.125 20.625 C 3.847656 20.597656 3.847656 20.597656 3.625 20.867188 C 3.542969 20.953125 3.460938 21.039062 3.375 21.125 C 2.945312 21.339844 2.472656 21.296875 2 21.25 C 1.511719 21.042969 1.324219 20.859375 1.125 20.375 C 1.046875 19.878906 0.984375 19.34375 1.265625 18.90625 C 1.4375 18.734375 1.4375 18.734375 1.75 18.5 C 1.523438 17.894531 1 17.511719 0.519531 17.097656 C 0.136719 16.734375 0.0117188 16.546875 -0.105469 16.015625 C -0.0507812 15.324219 0.453125 14.941406 0.9375 14.5 C 1.027344 14.414062 1.117188 14.328125 1.207031 14.242188 C 1.429688 14.035156 1.652344 13.828125 1.875 13.625 C 2.148438 13.757812 2.375 13.875 2.609375 14.070312 C 2.960938 14.308594 3.203125 14.359375 3.625 14.375 C 4.160156 14.207031 4.332031 14.070312 4.625 13.585938 C 4.769531 13.050781 4.742188 12.863281 4.5 12.375 C 4.25 12.023438 4.25 12.023438 4 11.75 C 4.179688 11.34375 4.394531 11.074219 4.710938 10.765625 C 4.800781 10.675781 4.890625 10.585938 4.984375 10.496094 C 5.078125 10.402344 5.171875 10.3125 5.265625 10.21875 C 5.359375 10.125 5.453125 10.03125 5.550781 9.9375 C 5.785156 9.707031 6.015625 9.480469 6.25 9.25 Z M 6.25 9.25 "/>
<path style=" stroke:none;fill-rule:nonzero;fill:rgb(3.921569%,71.764708%,62.7451%);fill-opacity:1;" d="M 17.5 20.398438 C 17.972656 20.589844 18.296875 20.972656 18.65625 21.328125 C 18.738281 21.402344 18.820312 21.480469 18.902344 21.558594 C 19.300781 21.949219 19.484375 22.148438 19.578125 22.714844 C 19.496094 23.148438 19.421875 23.316406 19.117188 23.625 C 19.039062 23.707031 18.960938 23.789062 18.878906 23.875 C 18.136719 24.605469 18.136719 24.605469 17.910156 24.820312 C 17.722656 24.992188 17.722656 24.992188 17.75 25.25 C 17.914062 25.417969 18.082031 25.585938 18.25 25.75 C 18.449219 26.152344 18.433594 26.566406 18.375 27 C 18.171875 27.386719 18 27.652344 17.65625 27.921875 C 17.226562 28.039062 16.816406 28.0625 16.375 28 C 16.0625 27.8125 16.0625 27.8125 15.875 27.625 C 15.9375 27.542969 16 27.460938 16.0625 27.375 C 16.292969 26.910156 16.363281 26.503906 16.25 26 C 16.109375 25.78125 16.109375 25.78125 15.929688 25.59375 C 15.828125 25.480469 15.726562 25.367188 15.625 25.25 C 15.660156 24.835938 15.816406 24.644531 16.117188 24.371094 C 16.191406 24.304688 16.261719 24.234375 16.339844 24.164062 C 16.492188 24.023438 16.648438 23.882812 16.804688 23.746094 C 17.257812 23.316406 17.257812 23.316406 17.453125 22.730469 C 17.363281 22.316406 17.238281 22.148438 16.9375 21.851562 C 16.5 21.410156 16.5 21.410156 16.5 21 C 17.132812 20.363281 17.132812 20.363281 17.5 20.398438 Z M 17.5 20.398438 "/>
<path style=" stroke:none;fill-rule:nonzero;fill:rgb(31.37255%,40.000001%,81.568629%);fill-opacity:1;" d="M 17.125 7 C 17.386719 6.949219 17.386719 6.949219 17.75 7 C 18.066406 7.234375 18.328125 7.511719 18.59375 7.796875 C 18.667969 7.871094 18.742188 7.949219 18.816406 8.023438 C 19.472656 8.703125 19.472656 8.703125 19.5625 9.269531 C 19.472656 9.953125 19.121094 10.226562 18.625 10.679688 C 18.542969 10.757812 18.457031 10.839844 18.371094 10.921875 C 18.167969 11.117188 17.957031 11.308594 17.75 11.5 C 17.886719 11.78125 18.019531 12.027344 18.203125 12.28125 C 18.429688 12.734375 18.476562 13.132812 18.375 13.625 C 18.15625 14.035156 17.855469 14.304688 17.46875 14.5625 C 16.949219 14.65625 16.5 14.515625 16 14.375 C 16 14 16 14 16.125 13.789062 C 16.308594 13.359375 16.339844 12.953125 16.25 12.5 C 16.070312 12.203125 15.875 12 15.625 11.75 C 15.824219 11.246094 16.1875 10.914062 16.570312 10.546875 C 17.152344 10.011719 17.152344 10.011719 17.445312 9.296875 C 17.347656 8.707031 17.027344 8.480469 16.59375 8.089844 C 16.519531 8.019531 16.449219 7.949219 16.375 7.875 C 16.375 7.792969 16.375 7.710938 16.375 7.625 C 16.582031 7.496094 16.789062 7.371094 17 7.25 C 17.042969 7.167969 17.082031 7.085938 17.125 7 Z M 17.125 7 "/>
<path style=" stroke:none;fill-rule:nonzero;fill:rgb(100%,81.960785%,36.078432%);fill-opacity:1;" d="M 29.4375 10.71875 C 29.53125 10.71875 29.625 10.71875 29.722656 10.714844 C 30.167969 10.769531 30.425781 10.914062 30.71875 11.25 C 30.945312 11.792969 30.980469 12.296875 30.875 12.875 C 30.691406 13.160156 30.523438 13.292969 30.25 13.5 C 30.476562 14.105469 31 14.488281 31.480469 14.902344 C 31.863281 15.265625 31.988281 15.453125 32.105469 15.984375 C 32.050781 16.675781 31.546875 17.058594 31.0625 17.5 C 30.972656 17.585938 30.882812 17.671875 30.792969 17.757812 C 30.570312 17.964844 30.347656 18.171875 30.125 18.375 C 29.679688 18.160156 29.28125 17.902344 28.875 17.625 C 28.996094 17.484375 29.113281 17.34375 29.234375 17.203125 C 29.300781 17.125 29.367188 17.046875 29.4375 16.964844 C 29.578125 16.804688 29.722656 16.652344 29.875 16.5 C 29.953125 15.996094 30 15.683594 29.710938 15.253906 C 29.484375 15.011719 29.246094 14.785156 29 14.5625 C 28.917969 14.484375 28.832031 14.40625 28.746094 14.324219 C 28.542969 14.128906 28.335938 13.9375 28.125 13.75 C 28.257812 13.472656 28.363281 13.261719 28.578125 13.039062 C 28.847656 12.585938 28.820312 12.136719 28.75 11.625 C 28.582031 11.253906 28.582031 11.253906 28.375 11 C 28.746094 10.789062 29.011719 10.714844 29.4375 10.71875 Z M 29.4375 10.71875 "/>
<path style=" stroke:none;fill-rule:nonzero;fill:rgb(97.647059%,16.862746%,23.137255%);fill-opacity:1;" d="M 10.585938 10.785156 C 11.015625 10.917969 11.238281 11.128906 11.503906 11.488281 C 11.726562 11.964844 11.679688 12.386719 11.5 12.875 C 11.179688 13.257812 11.179688 13.257812 10.875 13.5 C 11.046875 13.894531 11.253906 14.15625 11.558594 14.457031 C 11.644531 14.542969 11.726562 14.625 11.8125 14.710938 C 11.945312 14.839844 11.945312 14.839844 12.078125 14.96875 C 12.167969 15.054688 12.253906 15.144531 12.347656 15.234375 C 12.5625 15.445312 12.78125 15.660156 13 15.875 C 12.730469 16.480469 12.285156 16.882812 11.820312 17.34375 C 11.734375 17.429688 11.648438 17.519531 11.5625 17.609375 C 11.480469 17.691406 11.398438 17.773438 11.3125 17.855469 C 11.238281 17.933594 11.164062 18.007812 11.085938 18.085938 C 10.875 18.25 10.875 18.25 10.5 18.25 C 10.328125 18.089844 10.160156 17.921875 10 17.75 C 9.917969 17.707031 9.835938 17.667969 9.75 17.625 C 9.96875 17.117188 10.292969 16.839844 10.703125 16.484375 C 10.898438 16.257812 10.898438 16.257812 10.894531 15.964844 C 10.632812 15.351562 10.09375 14.960938 9.605469 14.519531 C 9.386719 14.316406 9.179688 14.117188 9 13.875 C 8.996094 13.46875 9.050781 13.332031 9.320312 13.03125 C 9.660156 12.5 9.535156 11.84375 9.4375 11.242188 C 9.417969 11.164062 9.394531 11.082031 9.375 11 C 9.835938 10.691406 10.054688 10.707031 10.585938 10.785156 Z M 10.585938 10.785156 "/>
<path style=" stroke:none;fill-rule:nonzero;fill:rgb(31.37255%,40.392157%,81.568629%);fill-opacity:1;" d="M 13.015625 2.804688 C 13.710938 2.90625 14.015625 3.265625 14.5 3.75 C 14.585938 3.824219 14.671875 3.902344 14.761719 3.980469 C 15.367188 4.527344 15.367188 4.527344 15.398438 4.945312 C 15.25 5.25 15.25 5.25 14.984375 5.601562 C 14.660156 6.148438 14.734375 6.386719 14.875 7 C 14.957031 7.125 15.039062 7.246094 15.125 7.375 C 14.796875 7.703125 14.613281 7.75 14.140625 7.804688 C 13.605469 7.785156 13.289062 7.59375 12.875 7.25 C 12.570312 6.789062 12.519531 6.410156 12.625 5.875 C 12.769531 5.660156 12.769531 5.660156 12.945312 5.46875 C 13.28125 5.171875 13.28125 5.171875 13.238281 4.886719 C 13.089844 4.542969 12.886719 4.351562 12.617188 4.09375 C 12.480469 3.960938 12.480469 3.960938 12.339844 3.824219 C 12.269531 3.757812 12.199219 3.695312 12.125 3.625 C 12.347656 3.144531 12.464844 2.90625 13.015625 2.804688 Z M 13.015625 2.804688 "/>
<path style=" stroke:none;fill-rule:nonzero;fill:rgb(3.921569%,71.372551%,62.352943%);fill-opacity:1;" d="M 13.125 16 C 13.6875 16.460938 14.222656 16.945312 14.75 17.445312 C 14.8125 17.503906 14.875 17.558594 14.941406 17.617188 C 15.117188 17.789062 15.117188 17.789062 15.375 18.125 C 15.363281 18.46875 15.363281 18.46875 15.25 18.75 C 15.1875 18.804688 15.125 18.859375 15.0625 18.914062 C 14.757812 19.257812 14.746094 19.675781 14.75 20.125 C 14.855469 20.410156 14.855469 20.410156 15 20.625 C 15 20.75 15 20.871094 15 21 C 14.539062 21.296875 14.164062 21.324219 13.625 21.25 C 13.214844 20.984375 12.84375 20.691406 12.625 20.25 C 12.574219 19.707031 12.59375 19.429688 12.859375 18.945312 C 12.992188 18.785156 12.992188 18.785156 13.125 18.625 C 13.207031 18.625 13.289062 18.625 13.375 18.625 C 13.207031 18.121094 12.992188 17.828125 12.609375 17.460938 C 12.519531 17.375 12.429688 17.285156 12.335938 17.195312 C 12.265625 17.132812 12.195312 17.066406 12.125 17 C 12.242188 16.855469 12.363281 16.714844 12.484375 16.570312 C 12.550781 16.488281 12.617188 16.410156 12.6875 16.328125 C 12.875 16.125 12.875 16.125 13.125 16 Z M 13.125 16 "/>
<path style=" stroke:none;fill-rule:nonzero;fill:rgb(100%,81.960785%,35.686275%);fill-opacity:1;" d="M 27.125 17.5 C 27.4375 17.75 27.4375 17.75 27.625 18 C 27.558594 18.128906 27.492188 18.257812 27.421875 18.390625 C 27.265625 18.753906 27.246094 18.859375 27.320312 19.265625 C 27.507812 19.640625 27.722656 19.9375 28 20.25 C 27.75 20.792969 27.398438 21.167969 26.984375 21.59375 C 26.917969 21.667969 26.847656 21.742188 26.777344 21.820312 C 26.410156 22.199219 26.140625 22.425781 25.601562 22.460938 C 25.125 22.375 25.125 22.375 24.625 21.75 C 25.039062 21.335938 25.449219 20.925781 25.875 20.5 C 25.667969 20.023438 25.667969 20.023438 25.421875 19.789062 C 25.152344 19.332031 25.152344 18.890625 25.25 18.375 C 25.6875 17.597656 26.253906 17.367188 27.125 17.5 Z M 27.125 17.5 "/>
<path style=" stroke:none;fill-rule:nonzero;fill:rgb(97.647059%,16.862746%,22.745098%);fill-opacity:1;" d="M 7.875 17.5 C 8 17.582031 8.121094 17.664062 8.25 17.75 C 8.207031 17.832031 8.167969 17.914062 8.125 18 C 7.917969 18.617188 7.894531 19.148438 8.171875 19.742188 C 8.355469 20.011719 8.355469 20.011719 8.625 20.125 C 8.554688 20.597656 8.359375 20.808594 8.023438 21.140625 C 7.925781 21.234375 7.832031 21.328125 7.734375 21.421875 C 7.582031 21.570312 7.582031 21.570312 7.429688 21.71875 C 7.328125 21.816406 7.226562 21.917969 7.125 22.019531 C 6.875 22.265625 6.625 22.507812 6.375 22.75 C 6.226562 22.632812 6.082031 22.515625 5.9375 22.398438 C 5.855469 22.332031 5.773438 22.265625 5.691406 22.203125 C 5.5 22 5.5 22 5.5 21.625 C 5.75 21.363281 6.019531 21.128906 6.292969 20.890625 C 6.539062 20.636719 6.539062 20.636719 6.480469 20.292969 C 6.394531 19.992188 6.394531 19.992188 6.179688 19.78125 C 5.894531 19.332031 5.902344 18.890625 6 18.375 C 6.445312 17.582031 6.996094 17.398438 7.875 17.5 Z M 7.875 17.5 "/>
<path style=" stroke:none;fill-rule:nonzero;fill:rgb(3.921569%,72.156864%,62.7451%);fill-opacity:1;" d="M 13.570312 27.226562 C 13.949219 27.410156 14.285156 27.628906 14.625 27.875 C 14.375 28.4375 14.023438 28.800781 13.5 29.125 C 13.039062 29.203125 13.039062 29.203125 12.625 29.125 C 12.320312 28.875 12.320312 28.875 12.125 28.625 C 12.394531 28.027344 12.871094 27.277344 13.570312 27.226562 Z M 13.570312 27.226562 "/>
<path style=" stroke:none;fill-rule:nonzero;fill:rgb(32.156864%,40.000001%,80.784315%);fill-opacity:1;" d="M 13.75 13.75 C 13.921875 13.910156 14.089844 14.078125 14.25 14.25 C 14.332031 14.292969 14.414062 14.332031 14.5 14.375 C 14.441406 14.914062 14.121094 15.167969 13.742188 15.53125 C 13.628906 15.640625 13.511719 15.753906 13.394531 15.867188 C 13.304688 15.953125 13.214844 16.039062 13.125 16.125 C 12.757812 15.769531 12.421875 15.417969 12.125 15 C 12.324219 14.789062 12.523438 14.582031 12.726562 14.375 C 12.839844 14.257812 12.949219 14.140625 13.066406 14.023438 C 13.375 13.75 13.375 13.75 13.75 13.75 Z M 13.75 13.75 "/>
<path style=" stroke:none;fill-rule:nonzero;fill:rgb(100%,81.960785%,36.078432%);fill-opacity:1;" d="M 25.59375 9.523438 C 26.214844 9.558594 26.535156 9.945312 26.941406 10.382812 C 27.125 10.625 27.125 10.625 27.125 10.875 C 26.921875 11.003906 26.710938 11.128906 26.5 11.25 C 26.417969 11.332031 26.335938 11.414062 26.25 11.5 C 25.742188 11.476562 25.492188 11.15625 25.15625 10.804688 C 25.007812 10.648438 25.007812 10.648438 24.855469 10.492188 C 24.777344 10.414062 24.703125 10.332031 24.625 10.25 C 24.90625 9.777344 25.046875 9.640625 25.59375 9.523438 Z M 25.59375 9.523438 "/>
<path style=" stroke:none;fill-rule:nonzero;fill:rgb(98.039216%,16.862746%,22.745098%);fill-opacity:1;" d="M 6.25 9.25 C 6.769531 9.6875 7.289062 10.121094 7.75 10.625 C 7.75 10.707031 7.75 10.789062 7.75 10.875 C 7.40625 11.210938 7.40625 11.210938 7 11.5 C 6.492188 11.480469 6.242188 11.15625 5.90625 10.804688 C 5.757812 10.648438 5.757812 10.648438 5.605469 10.492188 C 5.527344 10.414062 5.453125 10.332031 5.375 10.25 C 5.496094 10.105469 5.621094 9.964844 5.742188 9.820312 C 5.808594 9.738281 5.878906 9.660156 5.949219 9.578125 C 6.046875 9.464844 6.144531 9.355469 6.25 9.25 Z M 6.25 9.25 "/>
</g>
</svg>
