<?xml version="1.0" encoding="UTF-8"?>
<svg xmlns="http://www.w3.org/2000/svg" xmlns:xlink="http://www.w3.org/1999/xlink" width="32" height="32" viewBox="0 0 32 32" version="1.1">
<g id="surface1">
<path style=" stroke:none;fill-rule:nonzero;fill:rgb(99.607843%,99.607843%,99.607843%);fill-opacity:1;" d="M 1.25 1.25 C 10.984375 1.25 20.71875 1.25 30.75 1.25 C 30.75 10.984375 30.75 20.71875 30.75 30.75 C 21.015625 30.75 11.28125 30.75 1.25 30.75 C 1.25 21.015625 1.25 11.28125 1.25 1.25 Z M 1.25 1.25 "/>
<path style=" stroke:none;fill-rule:nonzero;fill:rgb(16.078432%,16.078432%,19.607843%);fill-opacity:1;" d="M 1.25 1.25 C 10.984375 1.25 20.71875 1.25 30.75 1.25 C 30.75 10.984375 30.75 20.71875 30.75 30.75 C 21.015625 30.75 11.28125 30.75 1.25 30.75 C 1.25 21.015625 1.25 11.28125 1.25 1.25 Z M 4 4 C 4 11.921875 4 19.839844 4 28 C 11.921875 28 19.839844 28 28 28 C 28 20.078125 28 12.160156 28 4 C 20.078125 4 12.160156 4 4 4 Z M 4 4 "/>
<path style=" stroke:none;fill-rule:nonzero;fill:rgb(72.549021%,85.09804%,95.686275%);fill-opacity:1;" d="M 4 4 C 11.921875 4 19.839844 4 28 4 C 28 4.867188 28 5.734375 28 6.625 C 27.414062 6.609375 27.414062 6.609375 26.8125 6.59375 C 25.511719 6.5625 24.207031 6.546875 22.902344 6.539062 C 22.113281 6.53125 21.328125 6.519531 20.539062 6.5 C 16.945312 6.160156 16.945312 6.160156 13.757812 7.34375 C 13.433594 7.691406 13.15625 8.050781 12.875 8.433594 C 12.414062 9.035156 12.085938 9.421875 11.316406 9.558594 C 10.25 9.6875 9.175781 9.625 8.109375 9.554688 C 7.644531 9.527344 7.179688 9.515625 6.714844 9.503906 C 5.808594 9.476562 4.90625 9.425781 4 9.375 C 4 7.601562 4 5.828125 4 4 Z M 4 4 "/>
<path style=" stroke:none;fill-rule:nonzero;fill:rgb(16.470589%,16.470589%,20%);fill-opacity:1;" d="M 14.625 17.375 C 18.171875 17.375 21.71875 17.375 25.375 17.375 C 25.375 18.242188 25.375 19.109375 25.375 20 C 21.828125 20 18.28125 20 14.625 20 C 14.625 19.132812 14.625 18.265625 14.625 17.375 Z M 14.625 17.375 "/>
<path style=" stroke:none;fill-rule:nonzero;fill:rgb(18.82353%,18.82353%,22.352941%);fill-opacity:1;" d="M 14.625 22.625 C 17.265625 22.625 19.90625 22.625 22.625 22.625 C 22.625 23.53125 22.625 24.441406 22.625 25.375 C 19.984375 25.375 17.34375 25.375 14.625 25.375 C 14.625 24.46875 14.625 23.558594 14.625 22.625 Z M 14.625 22.625 "/>
<path style=" stroke:none;fill-rule:nonzero;fill:rgb(16.078432%,16.078432%,19.607843%);fill-opacity:1;" d="M 12 12 C 14.640625 12 17.28125 12 20 12 C 20 12.867188 20 13.734375 20 14.625 C 17.359375 14.625 14.71875 14.625 12 14.625 C 12 13.757812 12 12.890625 12 12 Z M 12 12 "/>
<path style=" stroke:none;fill-rule:nonzero;fill:rgb(2.745098%,52.941179%,94.117647%);fill-opacity:1;" d="M 9.375 22.625 C 10.242188 22.625 11.109375 22.625 12 22.625 C 12 23.53125 12 24.441406 12 25.375 C 11.132812 25.375 10.265625 25.375 9.375 25.375 C 9.375 24.46875 9.375 23.558594 9.375 22.625 Z M 9.375 22.625 "/>
<path style=" stroke:none;fill-rule:nonzero;fill:rgb(2.745098%,52.941179%,94.117647%);fill-opacity:1;" d="M 6.625 12 C 7.53125 12 8.441406 12 9.375 12 C 9.375 12.867188 9.375 13.734375 9.375 14.625 C 8.46875 14.625 7.558594 14.625 6.625 14.625 C 6.625 13.757812 6.625 12.890625 6.625 12 Z M 6.625 12 "/>
<path style=" stroke:none;fill-rule:nonzero;fill:rgb(0%,51.764709%,94.117647%);fill-opacity:1;" d="M 9.375 17.375 C 10.242188 17.375 11.109375 17.375 12 17.375 C 12 18.242188 12 19.109375 12 20 C 11.132812 20 10.265625 20 9.375 20 C 9.375 19.132812 9.375 18.265625 9.375 17.375 Z M 9.375 17.375 "/>
</g>
</svg>
