<?xml version="1.0" encoding="UTF-8"?>
<svg xmlns="http://www.w3.org/2000/svg" xmlns:xlink="http://www.w3.org/1999/xlink" width="32" height="32" viewBox="0 0 32 32" version="1.1">
<g id="surface1">
<path style=" stroke:none;fill-rule:nonzero;fill:rgb(94.509804%,38.039216%,45.882353%);fill-opacity:1;" d="M 2.53125 20.699219 C 2.691406 20.695312 2.851562 20.695312 3.011719 20.691406 C 3.1875 20.691406 3.359375 20.691406 3.53125 20.691406 C 3.707031 20.691406 3.886719 20.691406 4.0625 20.6875 C 4.4375 20.6875 4.808594 20.6875 5.179688 20.6875 C 5.65625 20.6875 6.128906 20.683594 6.605469 20.679688 C 6.972656 20.675781 7.339844 20.675781 7.703125 20.675781 C 7.878906 20.675781 8.054688 20.675781 8.230469 20.671875 C 8.476562 20.671875 8.722656 20.671875 8.96875 20.671875 C 9.105469 20.671875 9.246094 20.671875 9.390625 20.671875 C 9.75 20.75 9.75 20.75 10.046875 21.050781 C 10.253906 21.378906 10.3125 21.519531 10.296875 21.902344 C 10.296875 21.984375 10.296875 22.070312 10.292969 22.15625 C 10.289062 22.261719 10.285156 22.367188 10.28125 22.476562 C 10.269531 22.8125 10.261719 23.152344 10.25 23.5 C 11.300781 23.4375 11.300781 23.4375 12.375 23.375 C 12.167969 23.167969 11.960938 22.960938 11.75 22.75 C 11.773438 22.460938 11.773438 22.460938 11.875 22.25 C 12.292969 22.433594 12.585938 22.667969 12.914062 22.984375 C 13.003906 23.070312 13.09375 23.152344 13.1875 23.242188 C 13.375 23.5 13.375 23.5 13.375 23.746094 C 13.203125 24.097656 12.964844 24.324219 12.679688 24.59375 C 12.578125 24.695312 12.472656 24.792969 12.367188 24.894531 C 12.285156 24.972656 12.207031 25.046875 12.125 25.125 C 11.9375 25.0625 11.9375 25.0625 11.75 25 C 11.828125 24.546875 11.898438 24.480469 12.25 24.125 C 11.589844 24.082031 10.929688 24.042969 10.25 24 C 10.25 24.703125 10.25 25.402344 10.25 26.125 C 11.652344 26.125 13.054688 26.125 14.5 26.125 C 14.496094 25.777344 14.488281 25.433594 14.480469 25.078125 C 14.476562 24.742188 14.476562 24.40625 14.472656 24.070312 C 14.46875 23.835938 14.46875 23.605469 14.460938 23.371094 C 14.457031 23.035156 14.453125 22.699219 14.449219 22.363281 C 14.449219 22.261719 14.445312 22.15625 14.441406 22.050781 C 14.441406 21.902344 14.441406 21.902344 14.441406 21.753906 C 14.441406 21.667969 14.441406 21.582031 14.4375 21.496094 C 14.53125 21.132812 14.71875 20.984375 15 20.75 C 15.296875 20.6875 15.296875 20.6875 15.636719 20.6875 C 15.765625 20.6875 15.890625 20.683594 16.023438 20.683594 C 16.164062 20.683594 16.304688 20.6875 16.449219 20.6875 C 16.671875 20.6875 16.671875 20.6875 16.898438 20.683594 C 17.304688 20.683594 17.707031 20.683594 18.113281 20.6875 C 18.539062 20.6875 18.964844 20.6875 19.386719 20.6875 C 20.097656 20.6875 20.8125 20.6875 21.527344 20.691406 C 22.347656 20.695312 23.171875 20.695312 23.996094 20.695312 C 24.789062 20.691406 25.582031 20.695312 26.375 20.695312 C 26.714844 20.695312 27.050781 20.695312 27.386719 20.695312 C 27.859375 20.695312 28.332031 20.695312 28.800781 20.699219 C 28.941406 20.699219 29.082031 20.699219 29.226562 20.699219 C 29.355469 20.699219 29.480469 20.699219 29.613281 20.703125 C 29.78125 20.703125 29.78125 20.703125 29.953125 20.703125 C 30.3125 20.761719 30.484375 20.878906 30.75 21.125 C 30.8125 21.359375 30.8125 21.359375 30.808594 21.625 C 30.808594 21.726562 30.808594 21.828125 30.808594 21.929688 C 30.804688 22.039062 30.800781 22.144531 30.796875 22.253906 C 30.796875 22.367188 30.796875 22.476562 30.796875 22.589844 C 30.792969 22.941406 30.789062 23.296875 30.78125 23.648438 C 30.777344 23.886719 30.777344 24.125 30.773438 24.367188 C 30.769531 24.953125 30.761719 25.539062 30.75 26.125 C 30.875 26.167969 30.996094 26.207031 31.125 26.25 C 31.082031 26.375 31.042969 26.496094 31 26.625 C 21.097656 26.625 11.199219 26.625 1 26.625 C 1 26.460938 1 26.296875 1 26.125 C 1.082031 26.125 1.164062 26.125 1.25 26.125 C 1.246094 25.976562 1.246094 25.828125 1.242188 25.671875 C 1.234375 25.117188 1.226562 24.5625 1.222656 24.007812 C 1.21875 23.769531 1.21875 23.53125 1.210938 23.289062 C 1.207031 22.945312 1.203125 22.601562 1.199219 22.253906 C 1.199219 22.148438 1.195312 22.039062 1.191406 21.929688 C 1.191406 21.78125 1.191406 21.78125 1.191406 21.625 C 1.191406 21.539062 1.191406 21.449219 1.1875 21.359375 C 1.25 21.125 1.25 21.125 1.453125 20.910156 C 1.832031 20.703125 2.101562 20.703125 2.53125 20.699219 Z M 2.53125 20.699219 "/>
<path style=" stroke:none;fill-rule:nonzero;fill:rgb(61.176473%,61.176473%,61.56863%);fill-opacity:1;" d="M 15.640625 3.9375 C 15.835938 3.9375 15.835938 3.9375 16.035156 3.933594 C 16.175781 3.933594 16.316406 3.9375 16.460938 3.9375 C 16.6875 3.9375 16.6875 3.9375 16.914062 3.933594 C 17.324219 3.933594 17.734375 3.933594 18.140625 3.9375 C 18.570312 3.9375 19 3.9375 19.429688 3.9375 C 20.148438 3.9375 20.867188 3.9375 21.585938 3.941406 C 22.417969 3.945312 23.25 3.945312 24.082031 3.945312 C 24.882812 3.941406 25.679688 3.945312 26.480469 3.945312 C 26.824219 3.945312 27.164062 3.945312 27.503906 3.945312 C 27.980469 3.945312 28.453125 3.949219 28.929688 3.949219 C 29.070312 3.949219 29.210938 3.949219 29.359375 3.949219 C 29.488281 3.949219 29.617188 3.949219 29.75 3.949219 C 29.917969 3.953125 29.917969 3.953125 30.089844 3.953125 C 30.429688 4.011719 30.542969 4.101562 30.75 4.375 C 30.796875 4.613281 30.796875 4.613281 30.800781 4.882812 C 30.800781 5.035156 30.800781 5.035156 30.804688 5.191406 C 30.804688 5.296875 30.804688 5.40625 30.804688 5.519531 C 30.804688 5.632812 30.804688 5.742188 30.804688 5.859375 C 30.808594 6.097656 30.804688 6.335938 30.804688 6.574219 C 30.804688 6.9375 30.808594 7.300781 30.8125 7.664062 C 30.8125 7.894531 30.8125 8.125 30.8125 8.355469 C 30.8125 8.464844 30.816406 8.574219 30.816406 8.6875 C 30.816406 8.789062 30.8125 8.886719 30.8125 8.992188 C 30.8125 9.082031 30.8125 9.171875 30.8125 9.261719 C 30.722656 9.605469 30.550781 9.691406 30.25 9.875 C 29.953125 9.921875 29.953125 9.921875 29.613281 9.921875 C 29.484375 9.925781 29.359375 9.925781 29.226562 9.925781 C 29.085938 9.925781 28.945312 9.925781 28.800781 9.925781 C 28.578125 9.925781 28.578125 9.925781 28.351562 9.929688 C 27.949219 9.929688 27.542969 9.929688 27.136719 9.929688 C 26.796875 9.929688 26.457031 9.929688 26.121094 9.929688 C 25.320312 9.933594 24.523438 9.933594 23.722656 9.929688 C 22.898438 9.929688 22.078125 9.929688 21.253906 9.933594 C 20.546875 9.9375 19.835938 9.9375 19.128906 9.9375 C 18.707031 9.9375 18.285156 9.9375 17.859375 9.941406 C 17.390625 9.941406 16.921875 9.941406 16.449219 9.9375 C 16.238281 9.941406 16.238281 9.941406 16.023438 9.941406 C 15.894531 9.941406 15.765625 9.9375 15.636719 9.9375 C 15.523438 9.9375 15.414062 9.9375 15.296875 9.9375 C 14.902344 9.855469 14.753906 9.683594 14.5 9.375 C 14.4375 9.132812 14.4375 9.132812 14.433594 8.878906 C 14.433594 8.78125 14.433594 8.6875 14.429688 8.585938 C 14.429688 8.484375 14.433594 8.382812 14.433594 8.277344 C 14.433594 8.171875 14.433594 8.066406 14.433594 7.953125 C 14.429688 7.730469 14.433594 7.507812 14.433594 7.28125 C 14.4375 6.9375 14.433594 6.597656 14.429688 6.253906 C 14.433594 6.035156 14.433594 5.816406 14.433594 5.597656 C 14.433594 5.496094 14.429688 5.390625 14.429688 5.289062 C 14.433594 5.191406 14.433594 5.09375 14.433594 4.996094 C 14.4375 4.914062 14.4375 4.828125 14.4375 4.742188 C 14.597656 4.121094 15.046875 3.9375 15.640625 3.9375 Z M 15.640625 3.9375 "/>
<path style=" stroke:none;fill-rule:nonzero;fill:rgb(38.039216%,72.156864%,89.019608%);fill-opacity:1;" d="M 15.636719 12.3125 C 15.765625 12.3125 15.890625 12.308594 16.023438 12.308594 C 16.164062 12.308594 16.304688 12.3125 16.449219 12.3125 C 16.671875 12.3125 16.671875 12.3125 16.898438 12.308594 C 17.304688 12.308594 17.707031 12.308594 18.113281 12.3125 C 18.539062 12.3125 18.964844 12.3125 19.386719 12.3125 C 20.097656 12.3125 20.8125 12.3125 21.527344 12.316406 C 22.347656 12.320312 23.171875 12.320312 23.996094 12.320312 C 24.789062 12.316406 25.582031 12.320312 26.375 12.320312 C 26.714844 12.320312 27.050781 12.320312 27.386719 12.320312 C 27.859375 12.320312 28.332031 12.324219 28.800781 12.324219 C 28.941406 12.324219 29.082031 12.324219 29.226562 12.324219 C 29.355469 12.324219 29.480469 12.324219 29.613281 12.324219 C 29.78125 12.328125 29.78125 12.328125 29.953125 12.328125 C 30.3125 12.386719 30.484375 12.503906 30.75 12.75 C 30.8125 12.988281 30.8125 12.988281 30.816406 13.257812 C 30.816406 13.359375 30.816406 13.460938 30.820312 13.566406 C 30.816406 13.671875 30.816406 13.78125 30.816406 13.894531 C 30.816406 14.007812 30.816406 14.117188 30.816406 14.234375 C 30.816406 14.472656 30.816406 14.710938 30.816406 14.949219 C 30.8125 15.3125 30.816406 15.675781 30.816406 16.039062 C 30.816406 16.269531 30.816406 16.5 30.816406 16.730469 C 30.816406 16.839844 30.816406 16.949219 30.820312 17.0625 C 30.816406 17.210938 30.816406 17.210938 30.816406 17.367188 C 30.816406 17.457031 30.816406 17.546875 30.8125 17.636719 C 30.722656 17.980469 30.550781 18.066406 30.25 18.25 C 29.953125 18.296875 29.953125 18.296875 29.613281 18.296875 C 29.484375 18.300781 29.359375 18.300781 29.226562 18.300781 C 29.085938 18.300781 28.945312 18.300781 28.800781 18.300781 C 28.578125 18.300781 28.578125 18.300781 28.351562 18.304688 C 27.945312 18.304688 27.542969 18.304688 27.136719 18.304688 C 26.796875 18.304688 26.460938 18.304688 26.121094 18.304688 C 25.320312 18.308594 24.523438 18.308594 23.722656 18.304688 C 22.902344 18.304688 22.078125 18.304688 21.253906 18.308594 C 20.542969 18.3125 19.835938 18.3125 19.128906 18.3125 C 18.707031 18.3125 18.285156 18.3125 17.863281 18.316406 C 17.390625 18.316406 16.917969 18.316406 16.449219 18.3125 C 16.238281 18.316406 16.238281 18.316406 16.023438 18.316406 C 15.894531 18.316406 15.769531 18.3125 15.636719 18.3125 C 15.523438 18.3125 15.414062 18.3125 15.296875 18.3125 C 14.902344 18.230469 14.753906 18.058594 14.5 17.75 C 14.4375 17.507812 14.4375 17.507812 14.4375 17.253906 C 14.433594 17.15625 14.433594 17.0625 14.429688 16.960938 C 14.433594 16.859375 14.433594 16.757812 14.433594 16.652344 C 14.433594 16.546875 14.433594 16.441406 14.433594 16.328125 C 14.433594 16.105469 14.433594 15.882812 14.433594 15.65625 C 14.4375 15.3125 14.433594 14.972656 14.433594 14.628906 C 14.433594 14.410156 14.433594 14.191406 14.433594 13.972656 C 14.433594 13.871094 14.433594 13.765625 14.429688 13.664062 C 14.433594 13.566406 14.433594 13.46875 14.4375 13.371094 C 14.4375 13.289062 14.4375 13.203125 14.4375 13.117188 C 14.597656 12.5 15.046875 12.3125 15.636719 12.3125 Z M 15.636719 12.3125 "/>
<path style=" stroke:none;fill-rule:nonzero;fill:rgb(94.901961%,38.039216%,45.882353%);fill-opacity:1;" d="M 2.53125 20.699219 C 2.691406 20.695312 2.851562 20.695312 3.011719 20.691406 C 3.1875 20.691406 3.359375 20.691406 3.53125 20.691406 C 3.707031 20.691406 3.886719 20.691406 4.0625 20.6875 C 4.4375 20.6875 4.808594 20.6875 5.179688 20.6875 C 5.65625 20.6875 6.128906 20.683594 6.605469 20.679688 C 6.972656 20.675781 7.339844 20.675781 7.703125 20.675781 C 7.878906 20.675781 8.054688 20.675781 8.230469 20.671875 C 8.476562 20.671875 8.722656 20.671875 8.96875 20.671875 C 9.105469 20.671875 9.246094 20.671875 9.390625 20.671875 C 9.75 20.75 9.75 20.75 10.046875 21.050781 C 10.253906 21.378906 10.3125 21.519531 10.296875 21.902344 C 10.296875 21.984375 10.296875 22.070312 10.292969 22.15625 C 10.289062 22.261719 10.285156 22.367188 10.28125 22.476562 C 10.269531 22.8125 10.261719 23.152344 10.25 23.5 C 11.300781 23.4375 11.300781 23.4375 12.375 23.375 C 12.167969 23.167969 11.960938 22.960938 11.75 22.75 C 11.773438 22.460938 11.773438 22.460938 11.875 22.25 C 12.292969 22.433594 12.585938 22.667969 12.914062 22.984375 C 13.003906 23.070312 13.09375 23.152344 13.1875 23.242188 C 13.375 23.5 13.375 23.5 13.375 23.746094 C 13.203125 24.097656 12.964844 24.324219 12.679688 24.59375 C 12.578125 24.695312 12.472656 24.792969 12.367188 24.894531 C 12.285156 24.972656 12.207031 25.046875 12.125 25.125 C 11.9375 25.0625 11.9375 25.0625 11.75 25 C 11.828125 24.546875 11.898438 24.480469 12.25 24.125 C 11.589844 24.082031 10.929688 24.042969 10.25 24 C 10.25 24.703125 10.25 25.402344 10.25 26.125 C 11.652344 26.125 13.054688 26.125 14.5 26.125 C 14.496094 25.777344 14.488281 25.433594 14.480469 25.078125 C 14.476562 24.742188 14.476562 24.40625 14.472656 24.070312 C 14.46875 23.835938 14.46875 23.605469 14.460938 23.371094 C 14.457031 23.035156 14.453125 22.699219 14.449219 22.363281 C 14.449219 22.261719 14.445312 22.15625 14.441406 22.050781 C 14.441406 21.902344 14.441406 21.902344 14.441406 21.753906 C 14.441406 21.667969 14.441406 21.582031 14.4375 21.496094 C 14.53125 21.132812 14.71875 20.984375 15 20.75 C 15.296875 20.6875 15.296875 20.6875 15.636719 20.6875 C 15.765625 20.6875 15.890625 20.683594 16.023438 20.683594 C 16.164062 20.683594 16.304688 20.6875 16.449219 20.6875 C 16.671875 20.6875 16.671875 20.6875 16.898438 20.683594 C 17.304688 20.683594 17.707031 20.683594 18.113281 20.6875 C 18.539062 20.6875 18.964844 20.6875 19.386719 20.6875 C 20.097656 20.6875 20.8125 20.6875 21.527344 20.691406 C 22.347656 20.695312 23.171875 20.695312 23.996094 20.695312 C 24.789062 20.691406 25.582031 20.695312 26.375 20.695312 C 26.714844 20.695312 27.050781 20.695312 27.386719 20.695312 C 27.859375 20.695312 28.332031 20.695312 28.800781 20.699219 C 28.941406 20.699219 29.082031 20.699219 29.226562 20.699219 C 29.355469 20.699219 29.480469 20.699219 29.613281 20.703125 C 29.78125 20.703125 29.78125 20.703125 29.953125 20.703125 C 30.3125 20.761719 30.484375 20.878906 30.75 21.125 C 30.8125 21.359375 30.8125 21.359375 30.808594 21.625 C 30.808594 21.726562 30.808594 21.828125 30.808594 21.929688 C 30.804688 22.039062 30.800781 22.144531 30.796875 22.253906 C 30.796875 22.367188 30.796875 22.476562 30.796875 22.589844 C 30.792969 22.941406 30.789062 23.296875 30.78125 23.648438 C 30.777344 23.886719 30.777344 24.125 30.773438 24.367188 C 30.769531 24.953125 30.761719 25.539062 30.75 26.125 C 30.875 26.167969 30.996094 26.207031 31.125 26.25 C 31.082031 26.375 31.042969 26.496094 31 26.625 C 21.097656 26.625 11.199219 26.625 1 26.625 C 1 26.460938 1 26.296875 1 26.125 C 1.082031 26.125 1.164062 26.125 1.25 26.125 C 1.246094 25.976562 1.246094 25.828125 1.242188 25.671875 C 1.234375 25.117188 1.226562 24.5625 1.222656 24.007812 C 1.21875 23.769531 1.21875 23.53125 1.210938 23.289062 C 1.207031 22.945312 1.203125 22.601562 1.199219 22.253906 C 1.199219 22.148438 1.195312 22.039062 1.191406 21.929688 C 1.191406 21.78125 1.191406 21.78125 1.191406 21.625 C 1.191406 21.539062 1.191406 21.449219 1.1875 21.359375 C 1.25 21.125 1.25 21.125 1.453125 20.910156 C 1.832031 20.703125 2.101562 20.703125 2.53125 20.699219 Z M 15 21.375 C 14.984375 21.714844 14.980469 22.050781 14.980469 22.390625 C 14.976562 22.492188 14.976562 22.59375 14.976562 22.699219 C 14.976562 22.914062 14.976562 23.132812 14.976562 23.347656 C 14.976562 23.675781 14.972656 24.007812 14.972656 24.339844 C 14.972656 24.550781 14.96875 24.757812 14.96875 24.96875 C 14.96875 25.066406 14.96875 25.167969 14.96875 25.269531 C 14.949219 25.820312 14.949219 25.820312 15.25 26.25 C 15.523438 26.289062 15.523438 26.289062 15.84375 26.28125 C 15.96875 26.28125 16.09375 26.285156 16.222656 26.285156 C 16.359375 26.285156 16.5 26.28125 16.640625 26.28125 C 16.855469 26.28125 16.855469 26.28125 17.078125 26.285156 C 17.558594 26.285156 18.039062 26.285156 18.519531 26.285156 C 18.851562 26.285156 19.183594 26.285156 19.515625 26.285156 C 20.214844 26.285156 20.914062 26.285156 21.609375 26.28125 C 22.417969 26.28125 23.222656 26.28125 24.03125 26.28125 C 24.722656 26.285156 25.417969 26.285156 26.109375 26.285156 C 26.523438 26.285156 26.9375 26.285156 27.351562 26.285156 C 27.8125 26.285156 28.273438 26.285156 28.734375 26.28125 C 28.875 26.28125 29.011719 26.285156 29.152344 26.285156 C 29.277344 26.285156 29.402344 26.28125 29.53125 26.28125 C 29.695312 26.28125 29.695312 26.28125 29.863281 26.28125 C 30.152344 26.273438 30.152344 26.273438 30.375 26 C 30.398438 25.652344 30.40625 25.316406 30.402344 24.96875 C 30.402344 24.867188 30.402344 24.765625 30.402344 24.660156 C 30.402344 24.445312 30.402344 24.226562 30.402344 24.011719 C 30.398438 23.679688 30.398438 23.347656 30.398438 23.015625 C 30.398438 22.808594 30.398438 22.597656 30.394531 22.390625 C 30.394531 22.289062 30.394531 22.191406 30.394531 22.085938 C 30.433594 21.632812 30.433594 21.632812 30.25 21.25 C 30.054688 21.238281 29.859375 21.234375 29.660156 21.234375 C 29.535156 21.234375 29.40625 21.234375 29.277344 21.234375 C 29.136719 21.234375 28.996094 21.234375 28.847656 21.234375 C 28.628906 21.234375 28.628906 21.234375 28.402344 21.234375 C 28 21.234375 27.59375 21.234375 27.1875 21.234375 C 26.765625 21.234375 26.339844 21.234375 25.917969 21.234375 C 25.207031 21.234375 24.496094 21.234375 23.785156 21.234375 C 22.960938 21.234375 22.140625 21.234375 21.316406 21.234375 C 20.613281 21.234375 19.90625 21.234375 19.199219 21.234375 C 18.78125 21.234375 18.355469 21.234375 17.9375 21.234375 C 17.464844 21.234375 16.996094 21.234375 16.527344 21.234375 C 16.3125 21.234375 16.3125 21.234375 16.097656 21.234375 C 15.90625 21.234375 15.90625 21.234375 15.714844 21.234375 C 15.601562 21.234375 15.492188 21.234375 15.375 21.234375 C 15.125 21.222656 15.125 21.222656 15 21.375 Z M 15 21.375 "/>
<path style=" stroke:none;fill-rule:nonzero;fill:rgb(61.56863%,61.56863%,61.56863%);fill-opacity:1;" d="M 2.53125 3.949219 C 2.691406 3.945312 2.851562 3.945312 3.011719 3.941406 C 3.1875 3.941406 3.359375 3.941406 3.53125 3.941406 C 3.707031 3.941406 3.886719 3.941406 4.0625 3.9375 C 4.4375 3.9375 4.808594 3.9375 5.179688 3.9375 C 5.65625 3.9375 6.128906 3.933594 6.605469 3.929688 C 6.972656 3.925781 7.339844 3.925781 7.703125 3.925781 C 7.878906 3.925781 8.054688 3.925781 8.230469 3.921875 C 8.476562 3.921875 8.722656 3.921875 8.96875 3.921875 C 9.105469 3.921875 9.246094 3.921875 9.390625 3.921875 C 9.75 4 9.75 4 10.046875 4.300781 C 10.253906 4.628906 10.3125 4.769531 10.296875 5.152344 C 10.296875 5.234375 10.296875 5.320312 10.292969 5.40625 C 10.289062 5.511719 10.285156 5.617188 10.28125 5.726562 C 10.269531 6.0625 10.261719 6.402344 10.25 6.75 C 11.300781 6.6875 11.300781 6.6875 12.375 6.625 C 12.167969 6.417969 11.960938 6.210938 11.75 6 C 11.773438 5.710938 11.773438 5.710938 11.875 5.5 C 12.292969 5.683594 12.585938 5.917969 12.914062 6.234375 C 13.003906 6.320312 13.09375 6.402344 13.1875 6.492188 C 13.375 6.75 13.375 6.75 13.375 6.996094 C 13.203125 7.347656 12.964844 7.574219 12.679688 7.84375 C 12.578125 7.945312 12.472656 8.042969 12.367188 8.144531 C 12.285156 8.222656 12.207031 8.296875 12.125 8.375 C 11.9375 8.3125 11.9375 8.3125 11.75 8.25 C 11.824219 7.722656 11.945312 7.679688 12.375 7.25 C 11.671875 7.207031 10.972656 7.167969 10.25 7.125 C 10.253906 7.28125 10.261719 7.4375 10.269531 7.601562 C 10.273438 7.804688 10.277344 8.011719 10.28125 8.21875 C 10.285156 8.320312 10.289062 8.425781 10.292969 8.53125 C 10.296875 8.679688 10.296875 8.679688 10.296875 8.832031 C 10.304688 8.972656 10.304688 8.972656 10.308594 9.109375 C 10.222656 9.496094 10.054688 9.632812 9.75 9.875 C 9.382812 9.9375 9.382812 9.9375 8.953125 9.9375 C 8.710938 9.941406 8.710938 9.941406 8.464844 9.941406 C 8.289062 9.941406 8.113281 9.9375 7.9375 9.9375 C 7.757812 9.9375 7.574219 9.9375 7.394531 9.9375 C 7.015625 9.9375 6.640625 9.9375 6.261719 9.933594 C 5.777344 9.929688 5.292969 9.929688 4.808594 9.929688 C 4.4375 9.933594 4.0625 9.929688 3.691406 9.929688 C 3.511719 9.929688 3.332031 9.929688 3.15625 9.929688 C 2.90625 9.929688 2.65625 9.925781 2.40625 9.925781 C 2.261719 9.925781 2.121094 9.921875 1.976562 9.921875 C 1.625 9.875 1.625 9.875 1.390625 9.714844 C 1.21875 9.453125 1.203125 9.304688 1.199219 8.992188 C 1.199219 8.890625 1.195312 8.789062 1.195312 8.6875 C 1.195312 8.578125 1.195312 8.46875 1.195312 8.355469 C 1.195312 8.1875 1.195312 8.1875 1.191406 8.015625 C 1.191406 7.777344 1.191406 7.539062 1.195312 7.300781 C 1.195312 6.9375 1.191406 6.574219 1.1875 6.210938 C 1.1875 5.980469 1.1875 5.75 1.1875 5.519531 C 1.1875 5.410156 1.1875 5.300781 1.183594 5.1875 C 1.183594 5.085938 1.1875 4.984375 1.1875 4.882812 C 1.1875 4.792969 1.1875 4.703125 1.1875 4.613281 C 1.25 4.375 1.25 4.375 1.453125 4.160156 C 1.835938 3.953125 2.101562 3.953125 2.53125 3.949219 Z M 2.53125 3.949219 "/>
<path style=" stroke:none;fill-rule:nonzero;fill:rgb(38.431373%,73.333335%,90.196079%);fill-opacity:1;" d="M 2.53125 12.324219 C 2.691406 12.320312 2.851562 12.320312 3.011719 12.316406 C 3.1875 12.316406 3.359375 12.316406 3.53125 12.316406 C 3.707031 12.316406 3.886719 12.316406 4.0625 12.3125 C 4.4375 12.3125 4.808594 12.3125 5.179688 12.3125 C 5.65625 12.3125 6.128906 12.308594 6.605469 12.304688 C 6.972656 12.300781 7.339844 12.300781 7.703125 12.300781 C 7.878906 12.300781 8.054688 12.300781 8.230469 12.296875 C 8.476562 12.296875 8.722656 12.296875 8.96875 12.296875 C 9.105469 12.296875 9.246094 12.296875 9.390625 12.296875 C 9.75 12.375 9.75 12.375 10.046875 12.675781 C 10.253906 13.003906 10.3125 13.144531 10.296875 13.527344 C 10.296875 13.609375 10.296875 13.695312 10.292969 13.78125 C 10.289062 13.886719 10.285156 13.992188 10.28125 14.101562 C 10.269531 14.4375 10.261719 14.777344 10.25 15.125 C 11.300781 15.0625 11.300781 15.0625 12.375 15 C 12.167969 14.792969 11.960938 14.585938 11.75 14.375 C 11.773438 14.085938 11.773438 14.085938 11.875 13.875 C 12.292969 14.058594 12.585938 14.292969 12.914062 14.609375 C 13.003906 14.695312 13.09375 14.777344 13.1875 14.867188 C 13.375 15.125 13.375 15.125 13.375 15.371094 C 13.203125 15.722656 12.964844 15.949219 12.679688 16.21875 C 12.578125 16.320312 12.472656 16.417969 12.367188 16.519531 C 12.285156 16.597656 12.207031 16.671875 12.125 16.75 C 11.9375 16.6875 11.9375 16.6875 11.75 16.625 C 11.824219 16.097656 11.945312 16.054688 12.375 15.625 C 11.671875 15.582031 10.972656 15.542969 10.25 15.5 C 10.269531 16.171875 10.269531 16.171875 10.292969 16.84375 C 10.296875 16.925781 10.296875 17.011719 10.296875 17.097656 C 10.300781 17.183594 10.304688 17.269531 10.308594 17.359375 C 10.21875 17.761719 10.035156 17.960938 9.75 18.25 C 9.390625 18.328125 9.390625 18.328125 8.96875 18.328125 C 8.808594 18.328125 8.648438 18.328125 8.488281 18.328125 C 8.3125 18.328125 8.140625 18.328125 7.96875 18.324219 C 7.789062 18.324219 7.613281 18.324219 7.4375 18.324219 C 7.0625 18.324219 6.691406 18.320312 6.320312 18.316406 C 5.84375 18.3125 5.371094 18.3125 4.894531 18.3125 C 4.527344 18.3125 4.160156 18.3125 3.796875 18.308594 C 3.621094 18.308594 3.445312 18.308594 3.269531 18.308594 C 3.023438 18.308594 2.777344 18.304688 2.53125 18.300781 C 2.324219 18.300781 2.324219 18.300781 2.109375 18.296875 C 1.707031 18.242188 1.53125 18.171875 1.25 17.875 C 1.1875 17.636719 1.1875 17.636719 1.1875 17.367188 C 1.183594 17.214844 1.183594 17.214844 1.179688 17.0625 C 1.183594 16.953125 1.183594 16.84375 1.183594 16.730469 C 1.183594 16.617188 1.183594 16.507812 1.183594 16.390625 C 1.183594 16.152344 1.183594 15.914062 1.183594 15.675781 C 1.1875 15.3125 1.183594 14.949219 1.183594 14.585938 C 1.183594 14.355469 1.183594 14.125 1.183594 13.894531 C 1.183594 13.785156 1.183594 13.675781 1.179688 13.5625 C 1.183594 13.460938 1.183594 13.359375 1.1875 13.257812 C 1.1875 13.167969 1.1875 13.078125 1.1875 12.988281 C 1.25 12.75 1.25 12.75 1.457031 12.535156 C 1.835938 12.328125 2.101562 12.328125 2.53125 12.324219 Z M 2.53125 12.324219 "/>
<path style=" stroke:none;fill-rule:nonzero;fill:rgb(27.843139%,21.960784%,47.058824%);fill-opacity:1;" d="M 2.53125 20.699219 C 2.691406 20.695312 2.851562 20.695312 3.011719 20.691406 C 3.1875 20.691406 3.359375 20.691406 3.53125 20.691406 C 3.707031 20.691406 3.886719 20.691406 4.0625 20.6875 C 4.4375 20.6875 4.808594 20.6875 5.179688 20.6875 C 5.65625 20.6875 6.128906 20.683594 6.605469 20.679688 C 6.972656 20.675781 7.339844 20.675781 7.703125 20.675781 C 7.878906 20.675781 8.054688 20.675781 8.230469 20.671875 C 8.476562 20.671875 8.722656 20.671875 8.96875 20.671875 C 9.105469 20.671875 9.246094 20.671875 9.390625 20.671875 C 9.75 20.75 9.75 20.75 10.046875 21.050781 C 10.253906 21.378906 10.3125 21.519531 10.296875 21.902344 C 10.296875 21.984375 10.296875 22.070312 10.292969 22.15625 C 10.289062 22.261719 10.285156 22.367188 10.28125 22.476562 C 10.269531 22.8125 10.261719 23.152344 10.25 23.5 C 11.300781 23.4375 11.300781 23.4375 12.375 23.375 C 12.167969 23.167969 11.960938 22.960938 11.75 22.75 C 11.773438 22.460938 11.773438 22.460938 11.875 22.25 C 12.292969 22.433594 12.585938 22.667969 12.914062 22.984375 C 13.003906 23.070312 13.09375 23.152344 13.1875 23.242188 C 13.375 23.5 13.375 23.5 13.375 23.746094 C 13.203125 24.097656 12.964844 24.324219 12.679688 24.59375 C 12.578125 24.695312 12.472656 24.792969 12.367188 24.894531 C 12.285156 24.972656 12.207031 25.046875 12.125 25.125 C 11.9375 25.0625 11.9375 25.0625 11.75 25 C 11.828125 24.546875 11.898438 24.480469 12.25 24.125 C 11.589844 24.082031 10.929688 24.042969 10.25 24 C 10.25 24.703125 10.25 25.402344 10.25 26.125 C 11.652344 26.125 13.054688 26.125 14.5 26.125 C 14.496094 25.777344 14.488281 25.433594 14.480469 25.078125 C 14.476562 24.742188 14.476562 24.40625 14.472656 24.070312 C 14.46875 23.835938 14.46875 23.605469 14.460938 23.371094 C 14.457031 23.035156 14.453125 22.699219 14.449219 22.363281 C 14.449219 22.261719 14.445312 22.15625 14.441406 22.050781 C 14.441406 21.902344 14.441406 21.902344 14.441406 21.753906 C 14.441406 21.667969 14.441406 21.582031 14.4375 21.496094 C 14.53125 21.132812 14.71875 20.984375 15 20.75 C 15.296875 20.6875 15.296875 20.6875 15.636719 20.6875 C 15.765625 20.6875 15.890625 20.683594 16.023438 20.683594 C 16.164062 20.683594 16.304688 20.6875 16.449219 20.6875 C 16.671875 20.6875 16.671875 20.6875 16.898438 20.683594 C 17.304688 20.683594 17.707031 20.683594 18.113281 20.6875 C 18.539062 20.6875 18.964844 20.6875 19.386719 20.6875 C 20.097656 20.6875 20.8125 20.6875 21.527344 20.691406 C 22.347656 20.695312 23.171875 20.695312 23.996094 20.695312 C 24.789062 20.691406 25.582031 20.695312 26.375 20.695312 C 26.714844 20.695312 27.050781 20.695312 27.386719 20.695312 C 27.859375 20.695312 28.332031 20.695312 28.800781 20.699219 C 28.941406 20.699219 29.082031 20.699219 29.226562 20.699219 C 29.355469 20.699219 29.480469 20.699219 29.613281 20.703125 C 29.78125 20.703125 29.78125 20.703125 29.953125 20.703125 C 30.3125 20.761719 30.484375 20.878906 30.75 21.125 C 30.8125 21.359375 30.8125 21.359375 30.808594 21.625 C 30.808594 21.726562 30.808594 21.828125 30.808594 21.929688 C 30.804688 22.039062 30.800781 22.144531 30.796875 22.253906 C 30.796875 22.367188 30.796875 22.476562 30.796875 22.589844 C 30.792969 22.941406 30.789062 23.296875 30.78125 23.648438 C 30.777344 23.886719 30.777344 24.125 30.773438 24.367188 C 30.769531 24.953125 30.761719 25.539062 30.75 26.125 C 30.875 26.167969 30.996094 26.207031 31.125 26.25 C 31.082031 26.375 31.042969 26.496094 31 26.625 C 21.097656 26.625 11.199219 26.625 1 26.625 C 1 26.460938 1 26.296875 1 26.125 C 1.082031 26.125 1.164062 26.125 1.25 26.125 C 1.246094 25.976562 1.246094 25.828125 1.242188 25.671875 C 1.234375 25.117188 1.226562 24.5625 1.222656 24.007812 C 1.21875 23.769531 1.21875 23.53125 1.210938 23.289062 C 1.207031 22.945312 1.203125 22.601562 1.199219 22.253906 C 1.199219 22.148438 1.195312 22.039062 1.191406 21.929688 C 1.191406 21.78125 1.191406 21.78125 1.191406 21.625 C 1.191406 21.539062 1.191406 21.449219 1.1875 21.359375 C 1.25 21.125 1.25 21.125 1.453125 20.910156 C 1.832031 20.703125 2.101562 20.703125 2.53125 20.699219 Z M 1.625 21.375 C 1.609375 21.714844 1.605469 22.050781 1.605469 22.390625 C 1.601562 22.492188 1.601562 22.59375 1.601562 22.699219 C 1.601562 22.914062 1.601562 23.132812 1.601562 23.347656 C 1.601562 23.675781 1.597656 24.007812 1.597656 24.339844 C 1.597656 24.550781 1.59375 24.757812 1.59375 24.96875 C 1.59375 25.066406 1.59375 25.167969 1.59375 25.269531 C 1.574219 25.820312 1.574219 25.820312 1.875 26.25 C 2.207031 26.289062 2.207031 26.289062 2.597656 26.28125 C 2.75 26.285156 2.902344 26.285156 3.058594 26.285156 C 3.222656 26.285156 3.390625 26.285156 3.558594 26.285156 C 3.726562 26.285156 3.898438 26.285156 4.066406 26.285156 C 4.425781 26.285156 4.78125 26.285156 5.136719 26.28125 C 5.59375 26.28125 6.050781 26.28125 6.507812 26.285156 C 6.859375 26.285156 7.210938 26.285156 7.5625 26.285156 C 7.8125 26.285156 8.0625 26.285156 8.316406 26.285156 C 8.46875 26.285156 8.621094 26.285156 8.777344 26.28125 C 8.910156 26.28125 9.042969 26.28125 9.183594 26.28125 C 9.519531 26.28125 9.519531 26.28125 9.75 26 C 9.773438 25.652344 9.78125 25.316406 9.777344 24.96875 C 9.777344 24.867188 9.777344 24.765625 9.777344 24.660156 C 9.777344 24.445312 9.777344 24.226562 9.777344 24.011719 C 9.773438 23.679688 9.773438 23.347656 9.773438 23.015625 C 9.773438 22.808594 9.773438 22.597656 9.769531 22.390625 C 9.769531 22.289062 9.769531 22.191406 9.769531 22.085938 C 9.808594 21.632812 9.808594 21.632812 9.625 21.25 C 9.378906 21.238281 9.132812 21.234375 8.890625 21.234375 C 8.734375 21.234375 8.574219 21.234375 8.414062 21.234375 C 8.242188 21.234375 8.066406 21.234375 7.894531 21.234375 C 7.71875 21.234375 7.542969 21.234375 7.367188 21.234375 C 6.996094 21.234375 6.625 21.234375 6.257812 21.234375 C 5.78125 21.234375 5.308594 21.234375 4.835938 21.234375 C 4.46875 21.234375 4.105469 21.234375 3.742188 21.234375 C 3.566406 21.234375 3.394531 21.234375 3.21875 21.234375 C 2.972656 21.234375 2.730469 21.234375 2.484375 21.234375 C 2.34375 21.234375 2.207031 21.234375 2.0625 21.234375 C 1.757812 21.214844 1.757812 21.214844 1.625 21.375 Z M 15 21.375 C 14.984375 21.714844 14.980469 22.050781 14.980469 22.390625 C 14.976562 22.492188 14.976562 22.59375 14.976562 22.699219 C 14.976562 22.914062 14.976562 23.132812 14.976562 23.347656 C 14.976562 23.675781 14.972656 24.007812 14.972656 24.339844 C 14.972656 24.550781 14.96875 24.757812 14.96875 24.96875 C 14.96875 25.066406 14.96875 25.167969 14.96875 25.269531 C 14.949219 25.820312 14.949219 25.820312 15.25 26.25 C 15.523438 26.289062 15.523438 26.289062 15.84375 26.28125 C 15.96875 26.28125 16.09375 26.285156 16.222656 26.285156 C 16.359375 26.285156 16.5 26.28125 16.640625 26.28125 C 16.855469 26.28125 16.855469 26.28125 17.078125 26.285156 C 17.558594 26.285156 18.039062 26.285156 18.519531 26.285156 C 18.851562 26.285156 19.183594 26.285156 19.515625 26.285156 C 20.214844 26.285156 20.914062 26.285156 21.609375 26.28125 C 22.417969 26.28125 23.222656 26.28125 24.03125 26.28125 C 24.722656 26.285156 25.417969 26.285156 26.109375 26.285156 C 26.523438 26.285156 26.9375 26.285156 27.351562 26.285156 C 27.8125 26.285156 28.273438 26.285156 28.734375 26.28125 C 28.875 26.28125 29.011719 26.285156 29.152344 26.285156 C 29.277344 26.285156 29.402344 26.28125 29.53125 26.28125 C 29.695312 26.28125 29.695312 26.28125 29.863281 26.28125 C 30.152344 26.273438 30.152344 26.273438 30.375 26 C 30.398438 25.652344 30.40625 25.316406 30.402344 24.96875 C 30.402344 24.867188 30.402344 24.765625 30.402344 24.660156 C 30.402344 24.445312 30.402344 24.226562 30.402344 24.011719 C 30.398438 23.679688 30.398438 23.347656 30.398438 23.015625 C 30.398438 22.808594 30.398438 22.597656 30.394531 22.390625 C 30.394531 22.289062 30.394531 22.191406 30.394531 22.085938 C 30.433594 21.632812 30.433594 21.632812 30.25 21.25 C 30.054688 21.238281 29.859375 21.234375 29.660156 21.234375 C 29.535156 21.234375 29.40625 21.234375 29.277344 21.234375 C 29.136719 21.234375 28.996094 21.234375 28.847656 21.234375 C 28.628906 21.234375 28.628906 21.234375 28.402344 21.234375 C 28 21.234375 27.59375 21.234375 27.1875 21.234375 C 26.765625 21.234375 26.339844 21.234375 25.917969 21.234375 C 25.207031 21.234375 24.496094 21.234375 23.785156 21.234375 C 22.960938 21.234375 22.140625 21.234375 21.316406 21.234375 C 20.613281 21.234375 19.90625 21.234375 19.199219 21.234375 C 18.78125 21.234375 18.355469 21.234375 17.9375 21.234375 C 17.464844 21.234375 16.996094 21.234375 16.527344 21.234375 C 16.3125 21.234375 16.3125 21.234375 16.097656 21.234375 C 15.90625 21.234375 15.90625 21.234375 15.714844 21.234375 C 15.601562 21.234375 15.492188 21.234375 15.375 21.234375 C 15.125 21.222656 15.125 21.222656 15 21.375 Z M 15 21.375 "/>
<path style=" stroke:none;fill-rule:nonzero;fill:rgb(25.098041%,21.568628%,47.450981%);fill-opacity:1;" d="M 2.53125 3.949219 C 2.691406 3.945312 2.851562 3.945312 3.011719 3.941406 C 3.1875 3.941406 3.359375 3.941406 3.53125 3.941406 C 3.707031 3.941406 3.886719 3.941406 4.0625 3.9375 C 4.4375 3.9375 4.808594 3.9375 5.179688 3.9375 C 5.65625 3.9375 6.128906 3.933594 6.605469 3.929688 C 6.972656 3.925781 7.339844 3.925781 7.703125 3.925781 C 7.878906 3.925781 8.054688 3.925781 8.230469 3.921875 C 8.476562 3.921875 8.722656 3.921875 8.96875 3.921875 C 9.105469 3.921875 9.246094 3.921875 9.390625 3.921875 C 9.75 4 9.75 4 10.046875 4.300781 C 10.253906 4.628906 10.3125 4.769531 10.296875 5.152344 C 10.296875 5.234375 10.296875 5.320312 10.292969 5.40625 C 10.289062 5.511719 10.285156 5.617188 10.28125 5.726562 C 10.269531 6.0625 10.261719 6.402344 10.25 6.75 C 11.300781 6.6875 11.300781 6.6875 12.375 6.625 C 12.167969 6.417969 11.960938 6.210938 11.75 6 C 11.773438 5.710938 11.773438 5.710938 11.875 5.5 C 12.292969 5.683594 12.585938 5.917969 12.914062 6.234375 C 13.003906 6.320312 13.09375 6.402344 13.1875 6.492188 C 13.375 6.75 13.375 6.75 13.375 6.996094 C 13.203125 7.347656 12.964844 7.574219 12.679688 7.84375 C 12.578125 7.945312 12.472656 8.042969 12.367188 8.144531 C 12.285156 8.222656 12.207031 8.296875 12.125 8.375 C 11.9375 8.3125 11.9375 8.3125 11.75 8.25 C 11.824219 7.722656 11.945312 7.679688 12.375 7.25 C 11.671875 7.207031 10.972656 7.167969 10.25 7.125 C 10.253906 7.28125 10.261719 7.4375 10.269531 7.601562 C 10.273438 7.804688 10.277344 8.011719 10.28125 8.21875 C 10.285156 8.320312 10.289062 8.425781 10.292969 8.53125 C 10.296875 8.679688 10.296875 8.679688 10.296875 8.832031 C 10.304688 8.972656 10.304688 8.972656 10.308594 9.109375 C 10.222656 9.496094 10.054688 9.632812 9.75 9.875 C 9.382812 9.9375 9.382812 9.9375 8.953125 9.9375 C 8.710938 9.941406 8.710938 9.941406 8.464844 9.941406 C 8.289062 9.941406 8.113281 9.9375 7.9375 9.9375 C 7.757812 9.9375 7.574219 9.9375 7.394531 9.9375 C 7.015625 9.9375 6.640625 9.9375 6.261719 9.933594 C 5.777344 9.929688 5.292969 9.929688 4.808594 9.929688 C 4.4375 9.933594 4.0625 9.929688 3.691406 9.929688 C 3.511719 9.929688 3.332031 9.929688 3.15625 9.929688 C 2.90625 9.929688 2.65625 9.925781 2.40625 9.925781 C 2.261719 9.925781 2.121094 9.921875 1.976562 9.921875 C 1.625 9.875 1.625 9.875 1.390625 9.714844 C 1.21875 9.453125 1.203125 9.304688 1.199219 8.992188 C 1.199219 8.890625 1.195312 8.789062 1.195312 8.6875 C 1.195312 8.578125 1.195312 8.46875 1.195312 8.355469 C 1.195312 8.1875 1.195312 8.1875 1.191406 8.015625 C 1.191406 7.777344 1.191406 7.539062 1.195312 7.300781 C 1.195312 6.9375 1.191406 6.574219 1.1875 6.210938 C 1.1875 5.980469 1.1875 5.75 1.1875 5.519531 C 1.1875 5.410156 1.1875 5.300781 1.183594 5.1875 C 1.183594 5.085938 1.1875 4.984375 1.1875 4.882812 C 1.1875 4.792969 1.1875 4.703125 1.1875 4.613281 C 1.25 4.375 1.25 4.375 1.453125 4.160156 C 1.835938 3.953125 2.101562 3.953125 2.53125 3.949219 Z M 2.625 4.625 C 2.613281 4.964844 2.605469 5.304688 2.609375 5.644531 C 2.609375 5.746094 2.609375 5.847656 2.609375 5.953125 C 2.609375 6.171875 2.609375 6.386719 2.609375 6.605469 C 2.609375 6.9375 2.609375 7.269531 2.609375 7.601562 C 2.609375 7.8125 2.609375 8.019531 2.609375 8.230469 C 2.609375 8.328125 2.609375 8.429688 2.609375 8.535156 C 2.566406 8.992188 2.566406 8.992188 2.75 9.375 C 2.964844 9.386719 3.179688 9.390625 3.394531 9.390625 C 3.53125 9.390625 3.667969 9.390625 3.808594 9.390625 C 3.957031 9.390625 4.109375 9.390625 4.261719 9.390625 C 4.488281 9.390625 4.488281 9.390625 4.722656 9.390625 C 5.046875 9.390625 5.367188 9.390625 5.6875 9.390625 C 6.1875 9.390625 6.679688 9.390625 7.175781 9.390625 C 7.488281 9.390625 7.800781 9.390625 8.113281 9.390625 C 8.335938 9.390625 8.335938 9.390625 8.566406 9.390625 C 8.703125 9.390625 8.839844 9.390625 8.980469 9.390625 C 9.101562 9.390625 9.222656 9.390625 9.347656 9.390625 C 9.621094 9.40625 9.621094 9.40625 9.75 9.25 C 9.761719 8.910156 9.765625 8.570312 9.765625 8.230469 C 9.765625 8.128906 9.765625 8.027344 9.765625 7.921875 C 9.765625 7.703125 9.765625 7.488281 9.765625 7.269531 C 9.765625 6.9375 9.765625 6.605469 9.765625 6.273438 C 9.765625 6.0625 9.765625 5.855469 9.765625 5.644531 C 9.765625 5.546875 9.765625 5.445312 9.765625 5.339844 C 9.808594 4.882812 9.808594 4.882812 9.625 4.5 C 9.410156 4.488281 9.195312 4.484375 8.980469 4.484375 C 8.84375 4.484375 8.707031 4.484375 8.566406 4.484375 C 8.34375 4.484375 8.34375 4.484375 8.113281 4.484375 C 7.886719 4.484375 7.886719 4.484375 7.652344 4.484375 C 7.328125 4.484375 7.007812 4.484375 6.6875 4.484375 C 6.1875 4.484375 5.695312 4.484375 5.199219 4.484375 C 4.886719 4.484375 4.574219 4.484375 4.261719 4.484375 C 4.113281 4.484375 3.964844 4.484375 3.808594 4.484375 C 3.671875 4.484375 3.535156 4.484375 3.394531 4.484375 C 3.273438 4.484375 3.152344 4.484375 3.027344 4.484375 C 2.753906 4.46875 2.753906 4.46875 2.625 4.625 Z M 2.625 4.625 "/>
<path style=" stroke:none;fill-rule:nonzero;fill:rgb(26.666668%,23.529412%,48.235294%);fill-opacity:1;" d="M 15.640625 3.9375 C 15.835938 3.9375 15.835938 3.9375 16.035156 3.933594 C 16.175781 3.933594 16.316406 3.9375 16.460938 3.9375 C 16.6875 3.9375 16.6875 3.9375 16.914062 3.933594 C 17.324219 3.933594 17.734375 3.933594 18.140625 3.9375 C 18.570312 3.9375 19 3.9375 19.429688 3.9375 C 20.148438 3.9375 20.867188 3.9375 21.585938 3.941406 C 22.417969 3.945312 23.25 3.945312 24.082031 3.945312 C 24.882812 3.941406 25.679688 3.945312 26.480469 3.945312 C 26.824219 3.945312 27.164062 3.945312 27.503906 3.945312 C 27.980469 3.945312 28.453125 3.949219 28.929688 3.949219 C 29.070312 3.949219 29.210938 3.949219 29.359375 3.949219 C 29.488281 3.949219 29.617188 3.949219 29.75 3.949219 C 29.917969 3.953125 29.917969 3.953125 30.089844 3.953125 C 30.429688 4.011719 30.542969 4.101562 30.75 4.375 C 30.796875 4.613281 30.796875 4.613281 30.800781 4.882812 C 30.800781 5.035156 30.800781 5.035156 30.804688 5.191406 C 30.804688 5.296875 30.804688 5.40625 30.804688 5.519531 C 30.804688 5.632812 30.804688 5.742188 30.804688 5.859375 C 30.808594 6.097656 30.804688 6.335938 30.804688 6.574219 C 30.804688 6.9375 30.808594 7.300781 30.8125 7.664062 C 30.8125 7.894531 30.8125 8.125 30.8125 8.355469 C 30.8125 8.464844 30.816406 8.574219 30.816406 8.6875 C 30.816406 8.789062 30.8125 8.886719 30.8125 8.992188 C 30.8125 9.082031 30.8125 9.171875 30.8125 9.261719 C 30.722656 9.605469 30.550781 9.691406 30.25 9.875 C 29.953125 9.921875 29.953125 9.921875 29.613281 9.921875 C 29.484375 9.925781 29.359375 9.925781 29.226562 9.925781 C 29.085938 9.925781 28.945312 9.925781 28.800781 9.925781 C 28.578125 9.925781 28.578125 9.925781 28.351562 9.929688 C 27.949219 9.929688 27.542969 9.929688 27.136719 9.929688 C 26.796875 9.929688 26.457031 9.929688 26.121094 9.929688 C 25.320312 9.933594 24.523438 9.933594 23.722656 9.929688 C 22.898438 9.929688 22.078125 9.929688 21.253906 9.933594 C 20.546875 9.9375 19.835938 9.9375 19.128906 9.9375 C 18.707031 9.9375 18.285156 9.9375 17.859375 9.941406 C 17.390625 9.941406 16.921875 9.941406 16.449219 9.9375 C 16.238281 9.941406 16.238281 9.941406 16.023438 9.941406 C 15.894531 9.941406 15.765625 9.9375 15.636719 9.9375 C 15.523438 9.9375 15.414062 9.9375 15.296875 9.9375 C 14.902344 9.855469 14.753906 9.683594 14.5 9.375 C 14.4375 9.132812 14.4375 9.132812 14.433594 8.878906 C 14.433594 8.78125 14.433594 8.6875 14.429688 8.585938 C 14.429688 8.484375 14.433594 8.382812 14.433594 8.277344 C 14.433594 8.171875 14.433594 8.066406 14.433594 7.953125 C 14.429688 7.730469 14.433594 7.507812 14.433594 7.28125 C 14.4375 6.9375 14.433594 6.597656 14.429688 6.253906 C 14.433594 6.035156 14.433594 5.816406 14.433594 5.597656 C 14.433594 5.496094 14.429688 5.390625 14.429688 5.289062 C 14.433594 5.191406 14.433594 5.09375 14.433594 4.996094 C 14.4375 4.914062 14.4375 4.828125 14.4375 4.742188 C 14.597656 4.121094 15.046875 3.9375 15.640625 3.9375 Z M 15 4.625 C 14.976562 4.972656 14.96875 5.308594 14.972656 5.65625 C 14.972656 5.757812 14.972656 5.859375 14.972656 5.964844 C 14.972656 6.179688 14.972656 6.398438 14.972656 6.613281 C 14.976562 6.945312 14.976562 7.277344 14.976562 7.605469 C 14.976562 7.816406 14.976562 8.027344 14.980469 8.234375 C 14.980469 8.335938 14.980469 8.433594 14.980469 8.539062 C 14.941406 8.992188 14.941406 8.992188 15.125 9.375 C 15.320312 9.386719 15.515625 9.390625 15.714844 9.390625 C 15.902344 9.390625 15.902344 9.390625 16.097656 9.390625 C 16.238281 9.390625 16.378906 9.390625 16.523438 9.390625 C 16.746094 9.390625 16.746094 9.390625 16.972656 9.390625 C 17.378906 9.390625 17.78125 9.390625 18.1875 9.390625 C 18.609375 9.390625 19.035156 9.390625 19.457031 9.390625 C 20.167969 9.390625 20.878906 9.390625 21.589844 9.390625 C 22.414062 9.390625 23.234375 9.390625 24.058594 9.390625 C 24.765625 9.390625 25.46875 9.390625 26.171875 9.390625 C 26.597656 9.390625 27.015625 9.390625 27.441406 9.390625 C 27.910156 9.390625 28.378906 9.390625 28.847656 9.390625 C 29.058594 9.390625 29.058594 9.390625 29.277344 9.390625 C 29.402344 9.390625 29.53125 9.390625 29.660156 9.390625 C 29.828125 9.390625 29.828125 9.390625 30 9.390625 C 30.25 9.402344 30.25 9.402344 30.375 9.25 C 30.390625 8.910156 30.394531 8.574219 30.394531 8.234375 C 30.394531 8.132812 30.394531 8.03125 30.398438 7.925781 C 30.398438 7.710938 30.398438 7.496094 30.398438 7.277344 C 30.398438 6.949219 30.402344 6.617188 30.402344 6.285156 C 30.402344 6.074219 30.402344 5.867188 30.402344 5.65625 C 30.40625 5.507812 30.40625 5.507812 30.40625 5.355469 C 30.425781 4.804688 30.425781 4.804688 30.125 4.375 C 29.851562 4.335938 29.851562 4.335938 29.53125 4.34375 C 29.40625 4.34375 29.28125 4.34375 29.152344 4.339844 C 29.015625 4.339844 28.878906 4.34375 28.734375 4.34375 C 28.589844 4.34375 28.445312 4.34375 28.296875 4.339844 C 27.816406 4.339844 27.335938 4.339844 26.855469 4.34375 C 26.523438 4.339844 26.191406 4.339844 25.859375 4.339844 C 25.160156 4.339844 24.460938 4.339844 23.765625 4.34375 C 22.957031 4.34375 22.148438 4.34375 21.34375 4.34375 C 20.648438 4.339844 19.957031 4.339844 19.265625 4.339844 C 18.851562 4.339844 18.4375 4.339844 18.023438 4.339844 C 17.5625 4.339844 17.101562 4.339844 16.640625 4.34375 C 16.503906 4.34375 16.363281 4.339844 16.222656 4.339844 C 16.097656 4.34375 15.972656 4.34375 15.84375 4.34375 C 15.734375 4.34375 15.625 4.34375 15.511719 4.34375 C 15.222656 4.351562 15.222656 4.351562 15 4.625 Z M 15 4.625 "/>
<path style=" stroke:none;fill-rule:nonzero;fill:rgb(24.705882%,21.960784%,47.843137%);fill-opacity:1;" d="M 15.636719 12.3125 C 15.765625 12.3125 15.890625 12.308594 16.023438 12.308594 C 16.164062 12.308594 16.304688 12.3125 16.449219 12.3125 C 16.671875 12.3125 16.671875 12.3125 16.898438 12.308594 C 17.304688 12.308594 17.707031 12.308594 18.113281 12.3125 C 18.539062 12.3125 18.964844 12.3125 19.386719 12.3125 C 20.097656 12.3125 20.8125 12.3125 21.527344 12.316406 C 22.347656 12.320312 23.171875 12.320312 23.996094 12.320312 C 24.789062 12.316406 25.582031 12.320312 26.375 12.320312 C 26.714844 12.320312 27.050781 12.320312 27.386719 12.320312 C 27.859375 12.320312 28.332031 12.324219 28.800781 12.324219 C 28.941406 12.324219 29.082031 12.324219 29.226562 12.324219 C 29.355469 12.324219 29.480469 12.324219 29.613281 12.324219 C 29.78125 12.328125 29.78125 12.328125 29.953125 12.328125 C 30.3125 12.386719 30.484375 12.503906 30.75 12.75 C 30.8125 12.988281 30.8125 12.988281 30.816406 13.257812 C 30.816406 13.359375 30.816406 13.460938 30.820312 13.566406 C 30.816406 13.671875 30.816406 13.78125 30.816406 13.894531 C 30.816406 14.007812 30.816406 14.117188 30.816406 14.234375 C 30.816406 14.472656 30.816406 14.710938 30.816406 14.949219 C 30.8125 15.3125 30.816406 15.675781 30.816406 16.039062 C 30.816406 16.269531 30.816406 16.5 30.816406 16.730469 C 30.816406 16.839844 30.816406 16.949219 30.820312 17.0625 C 30.816406 17.210938 30.816406 17.210938 30.816406 17.367188 C 30.816406 17.457031 30.816406 17.546875 30.8125 17.636719 C 30.722656 17.980469 30.550781 18.066406 30.25 18.25 C 29.953125 18.296875 29.953125 18.296875 29.613281 18.296875 C 29.484375 18.300781 29.359375 18.300781 29.226562 18.300781 C 29.085938 18.300781 28.945312 18.300781 28.800781 18.300781 C 28.578125 18.300781 28.578125 18.300781 28.351562 18.304688 C 27.945312 18.304688 27.542969 18.304688 27.136719 18.304688 C 26.796875 18.304688 26.460938 18.304688 26.121094 18.304688 C 25.320312 18.308594 24.523438 18.308594 23.722656 18.304688 C 22.902344 18.304688 22.078125 18.304688 21.253906 18.308594 C 20.542969 18.3125 19.835938 18.3125 19.128906 18.3125 C 18.707031 18.3125 18.285156 18.3125 17.863281 18.316406 C 17.390625 18.316406 16.917969 18.316406 16.449219 18.3125 C 16.238281 18.316406 16.238281 18.316406 16.023438 18.316406 C 15.894531 18.316406 15.769531 18.3125 15.636719 18.3125 C 15.523438 18.3125 15.414062 18.3125 15.296875 18.3125 C 14.902344 18.230469 14.753906 18.058594 14.5 17.75 C 14.4375 17.507812 14.4375 17.507812 14.4375 17.253906 C 14.433594 17.15625 14.433594 17.0625 14.429688 16.960938 C 14.433594 16.859375 14.433594 16.757812 14.433594 16.652344 C 14.433594 16.546875 14.433594 16.441406 14.433594 16.328125 C 14.433594 16.105469 14.433594 15.882812 14.433594 15.65625 C 14.4375 15.3125 14.433594 14.972656 14.433594 14.628906 C 14.433594 14.410156 14.433594 14.191406 14.433594 13.972656 C 14.433594 13.871094 14.433594 13.765625 14.429688 13.664062 C 14.433594 13.566406 14.433594 13.46875 14.4375 13.371094 C 14.4375 13.289062 14.4375 13.203125 14.4375 13.117188 C 14.597656 12.5 15.046875 12.3125 15.636719 12.3125 Z M 15 13 C 14.972656 13.347656 14.964844 13.679688 14.96875 14.027344 C 14.96875 14.128906 14.964844 14.230469 14.964844 14.335938 C 14.964844 14.550781 14.96875 14.765625 14.96875 14.980469 C 14.96875 15.3125 14.96875 15.640625 14.964844 15.972656 C 14.964844 16.179688 14.964844 16.386719 14.96875 16.597656 C 14.964844 16.699219 14.964844 16.796875 14.964844 16.898438 C 14.949219 17.445312 14.949219 17.445312 15.25 17.875 C 15.523438 17.914062 15.523438 17.914062 15.84375 17.90625 C 15.96875 17.90625 16.09375 17.910156 16.222656 17.910156 C 16.359375 17.910156 16.5 17.90625 16.640625 17.90625 C 16.855469 17.910156 16.855469 17.910156 17.078125 17.910156 C 17.558594 17.910156 18.039062 17.910156 18.519531 17.910156 C 18.851562 17.910156 19.183594 17.910156 19.515625 17.910156 C 20.214844 17.910156 20.914062 17.910156 21.609375 17.90625 C 22.417969 17.90625 23.222656 17.90625 24.03125 17.910156 C 24.722656 17.910156 25.417969 17.910156 26.109375 17.910156 C 26.523438 17.910156 26.9375 17.910156 27.351562 17.910156 C 27.8125 17.910156 28.273438 17.910156 28.734375 17.90625 C 28.875 17.90625 29.011719 17.910156 29.152344 17.910156 C 29.277344 17.910156 29.402344 17.90625 29.53125 17.90625 C 29.695312 17.90625 29.695312 17.90625 29.863281 17.90625 C 30.152344 17.898438 30.152344 17.898438 30.375 17.625 C 30.398438 17.277344 30.410156 16.945312 30.410156 16.597656 C 30.410156 16.496094 30.410156 16.394531 30.410156 16.289062 C 30.410156 16.074219 30.410156 15.859375 30.410156 15.644531 C 30.40625 15.3125 30.40625 14.984375 30.410156 14.652344 C 30.410156 14.445312 30.410156 14.234375 30.410156 14.027344 C 30.410156 13.929688 30.410156 13.828125 30.410156 13.726562 C 30.425781 13.179688 30.425781 13.179688 30.125 12.75 C 29.851562 12.710938 29.851562 12.710938 29.53125 12.71875 C 29.40625 12.71875 29.28125 12.71875 29.152344 12.714844 C 29.015625 12.714844 28.878906 12.71875 28.734375 12.71875 C 28.589844 12.71875 28.445312 12.71875 28.296875 12.714844 C 27.816406 12.714844 27.335938 12.714844 26.855469 12.71875 C 26.523438 12.714844 26.191406 12.714844 25.859375 12.714844 C 25.160156 12.714844 24.460938 12.714844 23.765625 12.71875 C 22.957031 12.71875 22.148438 12.71875 21.34375 12.71875 C 20.652344 12.714844 19.957031 12.714844 19.265625 12.714844 C 18.851562 12.714844 18.4375 12.714844 18.023438 12.714844 C 17.5625 12.714844 17.101562 12.714844 16.640625 12.71875 C 16.503906 12.71875 16.363281 12.714844 16.222656 12.714844 C 16.097656 12.71875 15.972656 12.71875 15.84375 12.71875 C 15.734375 12.71875 15.625 12.71875 15.511719 12.71875 C 15.222656 12.726562 15.222656 12.726562 15 13 Z M 15 13 "/>
<path style=" stroke:none;fill-rule:nonzero;fill:rgb(28.627452%,25.490198%,48.627451%);fill-opacity:1;" d="M 19.28125 6.09375 C 19.445312 6.089844 19.609375 6.089844 19.777344 6.089844 C 19.960938 6.089844 20.140625 6.089844 20.320312 6.089844 C 20.503906 6.089844 20.6875 6.089844 20.871094 6.089844 C 21.257812 6.089844 21.644531 6.089844 22.03125 6.09375 C 22.527344 6.09375 23.019531 6.09375 23.515625 6.089844 C 23.894531 6.089844 24.277344 6.089844 24.65625 6.089844 C 24.839844 6.089844 25.019531 6.089844 25.203125 6.089844 C 25.457031 6.089844 25.714844 6.089844 25.96875 6.09375 C 26.1875 6.09375 26.1875 6.09375 26.40625 6.09375 C 26.75 6.125 26.75 6.125 27 6.375 C 27.03125 6.636719 27.03125 6.636719 27.03125 6.9375 C 27.03125 7.085938 27.03125 7.085938 27.03125 7.238281 C 27 7.5 27 7.5 26.75 7.75 C 26.414062 7.78125 26.414062 7.78125 25.980469 7.785156 C 25.820312 7.785156 25.660156 7.785156 25.492188 7.789062 C 25.316406 7.789062 25.136719 7.789062 24.960938 7.789062 C 24.78125 7.789062 24.597656 7.789062 24.417969 7.789062 C 24.039062 7.789062 23.660156 7.789062 23.28125 7.789062 C 22.792969 7.789062 22.308594 7.792969 21.820312 7.792969 C 21.445312 7.796875 21.074219 7.796875 20.699219 7.796875 C 20.519531 7.796875 20.339844 7.796875 20.160156 7.796875 C 19.910156 7.800781 19.660156 7.796875 19.410156 7.796875 C 19.265625 7.796875 19.125 7.796875 18.976562 7.796875 C 18.625 7.75 18.625 7.75 18.390625 7.574219 C 18.121094 7.195312 18.214844 6.828125 18.25 6.375 C 18.59375 6.027344 18.796875 6.09375 19.28125 6.09375 Z M 19.28125 6.09375 "/>
<path style=" stroke:none;fill-rule:nonzero;fill:rgb(24.705882%,21.568628%,47.843137%);fill-opacity:1;" d="M 2.53125 12.324219 C 2.691406 12.320312 2.851562 12.320312 3.011719 12.316406 C 3.1875 12.316406 3.359375 12.316406 3.53125 12.316406 C 3.707031 12.316406 3.886719 12.316406 4.0625 12.3125 C 4.4375 12.3125 4.808594 12.3125 5.179688 12.3125 C 5.65625 12.3125 6.128906 12.308594 6.605469 12.304688 C 6.972656 12.300781 7.339844 12.300781 7.703125 12.300781 C 7.878906 12.300781 8.054688 12.300781 8.230469 12.296875 C 8.476562 12.296875 8.722656 12.296875 8.96875 12.296875 C 9.105469 12.296875 9.246094 12.296875 9.390625 12.296875 C 9.75 12.375 9.75 12.375 10.046875 12.675781 C 10.253906 13.003906 10.3125 13.144531 10.296875 13.527344 C 10.296875 13.609375 10.296875 13.695312 10.292969 13.78125 C 10.289062 13.886719 10.285156 13.992188 10.28125 14.101562 C 10.269531 14.4375 10.261719 14.777344 10.25 15.125 C 11.300781 15.0625 11.300781 15.0625 12.375 15 C 12.167969 14.792969 11.960938 14.585938 11.75 14.375 C 11.773438 14.085938 11.773438 14.085938 11.875 13.875 C 12.292969 14.058594 12.585938 14.292969 12.914062 14.609375 C 13.003906 14.695312 13.09375 14.777344 13.1875 14.867188 C 13.375 15.125 13.375 15.125 13.375 15.371094 C 13.203125 15.722656 12.964844 15.949219 12.679688 16.21875 C 12.578125 16.320312 12.472656 16.417969 12.367188 16.519531 C 12.285156 16.597656 12.207031 16.671875 12.125 16.75 C 11.9375 16.6875 11.9375 16.6875 11.75 16.625 C 11.824219 16.097656 11.945312 16.054688 12.375 15.625 C 11.671875 15.582031 10.972656 15.542969 10.25 15.5 C 10.269531 16.171875 10.269531 16.171875 10.292969 16.84375 C 10.296875 16.925781 10.296875 17.011719 10.296875 17.097656 C 10.300781 17.183594 10.304688 17.269531 10.308594 17.359375 C 10.21875 17.761719 10.035156 17.960938 9.75 18.25 C 9.390625 18.328125 9.390625 18.328125 8.96875 18.328125 C 8.808594 18.328125 8.648438 18.328125 8.488281 18.328125 C 8.3125 18.328125 8.140625 18.328125 7.96875 18.324219 C 7.789062 18.324219 7.613281 18.324219 7.4375 18.324219 C 7.0625 18.324219 6.691406 18.320312 6.320312 18.316406 C 5.84375 18.3125 5.371094 18.3125 4.894531 18.3125 C 4.527344 18.3125 4.160156 18.3125 3.796875 18.308594 C 3.621094 18.308594 3.445312 18.308594 3.269531 18.308594 C 3.023438 18.308594 2.777344 18.304688 2.53125 18.300781 C 2.324219 18.300781 2.324219 18.300781 2.109375 18.296875 C 1.707031 18.242188 1.53125 18.171875 1.25 17.875 C 1.1875 17.636719 1.1875 17.636719 1.1875 17.367188 C 1.183594 17.214844 1.183594 17.214844 1.179688 17.0625 C 1.183594 16.953125 1.183594 16.84375 1.183594 16.730469 C 1.183594 16.617188 1.183594 16.507812 1.183594 16.390625 C 1.183594 16.152344 1.183594 15.914062 1.183594 15.675781 C 1.1875 15.3125 1.183594 14.949219 1.183594 14.585938 C 1.183594 14.355469 1.183594 14.125 1.183594 13.894531 C 1.183594 13.785156 1.183594 13.675781 1.179688 13.5625 C 1.183594 13.460938 1.183594 13.359375 1.1875 13.257812 C 1.1875 13.167969 1.1875 13.078125 1.1875 12.988281 C 1.25 12.75 1.25 12.75 1.457031 12.535156 C 1.835938 12.328125 2.101562 12.328125 2.53125 12.324219 Z M 1.625 13 C 1.597656 13.347656 1.589844 13.679688 1.59375 14.027344 C 1.59375 14.128906 1.589844 14.230469 1.589844 14.335938 C 1.589844 14.550781 1.59375 14.765625 1.59375 14.980469 C 1.59375 15.3125 1.59375 15.640625 1.589844 15.972656 C 1.589844 16.179688 1.589844 16.390625 1.59375 16.597656 C 1.589844 16.695312 1.589844 16.796875 1.589844 16.898438 C 1.574219 17.445312 1.574219 17.445312 1.875 17.875 C 2.207031 17.914062 2.207031 17.914062 2.597656 17.90625 C 2.75 17.910156 2.902344 17.910156 3.058594 17.910156 C 3.222656 17.910156 3.390625 17.910156 3.558594 17.910156 C 3.726562 17.910156 3.898438 17.910156 4.066406 17.910156 C 4.425781 17.910156 4.78125 17.910156 5.136719 17.90625 C 5.59375 17.90625 6.050781 17.90625 6.507812 17.910156 C 6.859375 17.910156 7.210938 17.910156 7.5625 17.910156 C 7.8125 17.910156 8.0625 17.910156 8.316406 17.910156 C 8.46875 17.910156 8.621094 17.910156 8.777344 17.90625 C 8.910156 17.90625 9.042969 17.90625 9.183594 17.90625 C 9.519531 17.90625 9.519531 17.90625 9.75 17.625 C 9.773438 17.277344 9.785156 16.945312 9.78125 16.597656 C 9.78125 16.496094 9.78125 16.394531 9.785156 16.289062 C 9.785156 16.074219 9.78125 15.859375 9.78125 15.644531 C 9.78125 15.3125 9.78125 14.984375 9.785156 14.652344 C 9.785156 14.445312 9.78125 14.234375 9.78125 14.027344 C 9.78125 13.929688 9.785156 13.828125 9.785156 13.726562 C 9.800781 13.179688 9.800781 13.179688 9.5 12.75 C 9.167969 12.710938 9.167969 12.710938 8.777344 12.71875 C 8.625 12.714844 8.472656 12.714844 8.316406 12.714844 C 8.152344 12.714844 7.984375 12.714844 7.816406 12.714844 C 7.648438 12.714844 7.476562 12.714844 7.308594 12.714844 C 6.949219 12.714844 6.59375 12.714844 6.238281 12.71875 C 5.78125 12.71875 5.320312 12.71875 4.867188 12.714844 C 4.515625 12.714844 4.164062 12.714844 3.8125 12.714844 C 3.5625 12.714844 3.3125 12.714844 3.058594 12.714844 C 2.90625 12.714844 2.753906 12.714844 2.597656 12.71875 C 2.464844 12.71875 2.332031 12.71875 2.191406 12.71875 C 1.855469 12.71875 1.855469 12.71875 1.625 13 Z M 1.625 13 "/>
<path style=" stroke:none;fill-rule:nonzero;fill:rgb(24.313726%,21.176471%,47.058824%);fill-opacity:1;" d="M 4.5 27.5 C 12.089844 27.5 19.679688 27.5 27.5 27.5 C 27.5 27.664062 27.5 27.828125 27.5 28 C 19.910156 28 12.320312 28 4.5 28 C 4.5 27.835938 4.5 27.671875 4.5 27.5 Z M 4.5 27.5 "/>
<path style=" stroke:none;fill-rule:nonzero;fill:rgb(89.019608%,63.137257%,17.254902%);fill-opacity:1;" d="M 18.625 23.25 C 21.265625 23.25 23.90625 23.25 26.625 23.25 C 26.625 23.539062 26.625 23.828125 26.625 24.125 C 23.984375 24.125 21.34375 24.125 18.625 24.125 C 18.625 23.835938 18.625 23.546875 18.625 23.25 Z M 18.625 23.25 "/>
<path style=" stroke:none;fill-rule:nonzero;fill:rgb(32.941177%,23.137255%,47.058824%);fill-opacity:1;" d="M 19.410156 22.828125 C 19.570312 22.828125 19.734375 22.828125 19.898438 22.824219 C 20.078125 22.828125 20.253906 22.828125 20.429688 22.828125 C 20.609375 22.828125 20.792969 22.828125 20.972656 22.828125 C 21.351562 22.828125 21.730469 22.832031 22.109375 22.832031 C 22.597656 22.835938 23.085938 22.835938 23.570312 22.835938 C 23.945312 22.835938 24.316406 22.835938 24.691406 22.835938 C 24.871094 22.835938 25.050781 22.835938 25.230469 22.835938 C 25.480469 22.835938 25.730469 22.839844 25.980469 22.839844 C 26.195312 22.839844 26.195312 22.839844 26.414062 22.84375 C 26.75 22.875 26.75 22.875 27 23.125 C 27.035156 23.386719 27.035156 23.386719 27.03125 23.6875 C 27.03125 23.835938 27.03125 23.835938 27.035156 23.988281 C 27 24.25 27 24.25 26.75 24.5 C 26.410156 24.53125 26.410156 24.53125 25.96875 24.53125 C 25.804688 24.535156 25.640625 24.535156 25.472656 24.535156 C 25.289062 24.535156 25.109375 24.535156 24.929688 24.535156 C 24.746094 24.535156 24.5625 24.535156 24.378906 24.535156 C 23.992188 24.535156 23.605469 24.535156 23.222656 24.53125 C 22.722656 24.53125 22.230469 24.53125 21.734375 24.535156 C 21.355469 24.535156 20.972656 24.535156 20.59375 24.535156 C 20.410156 24.535156 20.230469 24.535156 20.046875 24.535156 C 19.792969 24.535156 19.535156 24.535156 19.28125 24.53125 C 19.066406 24.53125 19.066406 24.53125 18.84375 24.53125 C 18.5 24.5 18.5 24.5 18.25 24.25 C 18.179688 23.351562 18.179688 23.351562 18.390625 23.050781 C 18.730469 22.796875 18.988281 22.828125 19.410156 22.828125 Z M 18.625 23.25 C 18.625 23.539062 18.625 23.828125 18.625 24.125 C 21.265625 24.125 23.90625 24.125 26.625 24.125 C 26.625 23.835938 26.625 23.546875 26.625 23.25 C 23.984375 23.25 21.34375 23.25 18.625 23.25 Z M 18.625 23.25 "/>
<path style=" stroke:none;fill-rule:nonzero;fill:rgb(89.019608%,63.137257%,17.254902%);fill-opacity:1;" d="M 18.625 14.875 C 21.265625 14.875 23.90625 14.875 26.625 14.875 C 26.625 15.164062 26.625 15.453125 26.625 15.75 C 23.984375 15.75 21.34375 15.75 18.625 15.75 C 18.625 15.460938 18.625 15.171875 18.625 14.875 Z M 18.625 14.875 "/>
<path style=" stroke:none;fill-rule:nonzero;fill:rgb(89.803922%,63.921571%,16.862746%);fill-opacity:1;" d="M 18.625 6.5 C 21.265625 6.5 23.90625 6.5 26.625 6.5 C 26.625 6.789062 26.625 7.078125 26.625 7.375 C 25.601562 7.378906 24.578125 7.378906 23.550781 7.382812 C 23.074219 7.382812 22.601562 7.382812 22.125 7.386719 C 21.664062 7.386719 21.207031 7.386719 20.746094 7.386719 C 20.574219 7.386719 20.398438 7.386719 20.222656 7.390625 C 19.976562 7.390625 19.734375 7.390625 19.488281 7.390625 C 19.347656 7.390625 19.207031 7.390625 19.0625 7.390625 C 18.75 7.375 18.75 7.375 18.625 7.25 C 18.625 7.003906 18.625 6.753906 18.625 6.5 Z M 18.625 6.5 "/>
<path style=" stroke:none;fill-rule:nonzero;fill:rgb(26.274511%,27.058825%,52.156866%);fill-opacity:1;" d="M 19.410156 14.453125 C 19.570312 14.453125 19.734375 14.453125 19.898438 14.449219 C 20.078125 14.453125 20.253906 14.453125 20.429688 14.453125 C 20.609375 14.453125 20.792969 14.453125 20.972656 14.453125 C 21.351562 14.453125 21.730469 14.457031 22.109375 14.457031 C 22.597656 14.460938 23.085938 14.460938 23.570312 14.460938 C 23.945312 14.460938 24.316406 14.460938 24.691406 14.460938 C 24.871094 14.460938 25.050781 14.460938 25.230469 14.460938 C 25.480469 14.460938 25.730469 14.464844 25.980469 14.464844 C 26.195312 14.464844 26.195312 14.464844 26.414062 14.46875 C 26.75 14.5 26.75 14.5 27 14.75 C 27.035156 15.011719 27.035156 15.011719 27.03125 15.3125 C 27.03125 15.460938 27.03125 15.460938 27.035156 15.613281 C 27 15.875 27 15.875 26.75 16.125 C 26.414062 16.15625 26.414062 16.15625 25.980469 16.160156 C 25.820312 16.160156 25.660156 16.164062 25.492188 16.164062 C 25.316406 16.164062 25.136719 16.164062 24.960938 16.164062 C 24.78125 16.164062 24.597656 16.164062 24.417969 16.164062 C 24.039062 16.164062 23.660156 16.164062 23.28125 16.164062 C 22.792969 16.164062 22.308594 16.164062 21.820312 16.167969 C 21.445312 16.171875 21.074219 16.171875 20.699219 16.167969 C 20.519531 16.171875 20.339844 16.171875 20.160156 16.171875 C 19.910156 16.171875 19.660156 16.171875 19.410156 16.171875 C 19.265625 16.171875 19.125 16.171875 18.976562 16.171875 C 18.625 16.125 18.625 16.125 18.390625 15.960938 C 18.152344 15.605469 18.207031 15.289062 18.25 14.875 C 18.554688 14.417969 18.890625 14.453125 19.410156 14.453125 Z M 18.625 14.875 C 18.625 15.164062 18.625 15.453125 18.625 15.75 C 21.265625 15.75 23.90625 15.75 26.625 15.75 C 26.625 15.460938 26.625 15.171875 26.625 14.875 C 23.984375 14.875 21.34375 14.875 18.625 14.875 Z M 18.625 14.875 "/>
<path style=" stroke:none;fill-rule:nonzero;fill:rgb(36.470589%,46.27451%,84.313726%);fill-opacity:1;" d="M 2.195312 12.71875 C 2.398438 12.722656 2.398438 12.722656 2.601562 12.722656 C 2.832031 12.722656 2.832031 12.722656 3.066406 12.722656 C 3.234375 12.722656 3.402344 12.722656 3.566406 12.726562 C 3.738281 12.726562 3.910156 12.726562 4.078125 12.726562 C 4.527344 12.726562 4.976562 12.730469 5.425781 12.734375 C 5.882812 12.734375 6.34375 12.734375 6.800781 12.738281 C 7.699219 12.738281 8.601562 12.746094 9.5 12.75 C 9.5 12.792969 9.5 12.832031 9.5 12.875 C 7.273438 12.917969 5.042969 12.957031 2.75 13 C 2.75 14.527344 2.75 16.050781 2.75 17.625 C 4.976562 17.667969 7.203125 17.707031 9.5 17.75 C 9.5 17.792969 9.5 17.832031 9.5 17.875 C 8.507812 17.882812 7.519531 17.886719 6.53125 17.886719 C 6.070312 17.890625 5.609375 17.890625 5.152344 17.894531 C 4.707031 17.894531 4.265625 17.898438 3.820312 17.898438 C 3.652344 17.898438 3.484375 17.898438 3.3125 17.902344 C 3.078125 17.902344 2.839844 17.902344 2.601562 17.902344 C 2.46875 17.902344 2.332031 17.90625 2.195312 17.90625 C 1.875 17.875 1.875 17.875 1.625 17.625 C 1.597656 17.277344 1.589844 16.945312 1.59375 16.597656 C 1.59375 16.496094 1.589844 16.394531 1.589844 16.289062 C 1.589844 16.074219 1.589844 15.859375 1.59375 15.644531 C 1.59375 15.3125 1.59375 14.984375 1.589844 14.652344 C 1.589844 14.445312 1.589844 14.234375 1.59375 14.027344 C 1.589844 13.929688 1.589844 13.828125 1.589844 13.726562 C 1.597656 12.777344 1.597656 12.777344 2.195312 12.71875 Z M 2.195312 12.71875 "/>
<path style=" stroke:none;fill-rule:nonzero;fill:rgb(43.529412%,43.137255%,46.666667%);fill-opacity:1;" d="M 2.195312 4.34375 C 2.398438 4.347656 2.398438 4.347656 2.601562 4.347656 C 2.832031 4.347656 2.832031 4.347656 3.066406 4.347656 C 3.234375 4.347656 3.402344 4.347656 3.566406 4.351562 C 3.738281 4.351562 3.910156 4.351562 4.078125 4.351562 C 4.527344 4.351562 4.976562 4.355469 5.425781 4.359375 C 5.882812 4.359375 6.34375 4.359375 6.800781 4.363281 C 7.699219 4.363281 8.601562 4.371094 9.5 4.375 C 9.5 4.417969 9.5 4.457031 9.5 4.5 C 7.273438 4.542969 5.042969 4.582031 2.75 4.625 C 2.75 6.152344 2.75 7.675781 2.75 9.25 C 4.976562 9.292969 7.203125 9.332031 9.5 9.375 C 9.5 9.417969 9.5 9.457031 9.5 9.5 C 8.507812 9.507812 7.519531 9.511719 6.53125 9.511719 C 6.070312 9.515625 5.609375 9.515625 5.152344 9.519531 C 4.707031 9.519531 4.265625 9.523438 3.820312 9.523438 C 3.652344 9.523438 3.484375 9.523438 3.3125 9.527344 C 3.078125 9.527344 2.839844 9.527344 2.601562 9.527344 C 2.46875 9.527344 2.332031 9.53125 2.195312 9.53125 C 1.875 9.5 1.875 9.5 1.625 9.25 C 1.597656 8.902344 1.589844 8.570312 1.59375 8.222656 C 1.59375 8.121094 1.589844 8.019531 1.589844 7.914062 C 1.589844 7.699219 1.589844 7.484375 1.59375 7.269531 C 1.59375 6.9375 1.59375 6.609375 1.589844 6.277344 C 1.589844 6.070312 1.589844 5.859375 1.59375 5.652344 C 1.589844 5.554688 1.589844 5.453125 1.589844 5.351562 C 1.597656 4.402344 1.597656 4.402344 2.195312 4.34375 Z M 2.195312 4.34375 "/>
<path style=" stroke:none;fill-rule:nonzero;fill:rgb(94.509804%,52.549022%,45.882353%);fill-opacity:1;" d="M 29.25 21.25 C 29.578125 21.25 29.910156 21.25 30.25 21.25 C 30.476562 21.476562 30.390625 21.789062 30.390625 22.089844 C 30.390625 22.191406 30.390625 22.292969 30.390625 22.394531 C 30.390625 22.496094 30.390625 22.597656 30.390625 22.703125 C 30.390625 22.921875 30.390625 23.136719 30.390625 23.355469 C 30.390625 23.6875 30.390625 24.019531 30.390625 24.351562 C 30.390625 24.5625 30.390625 24.769531 30.390625 24.980469 C 30.390625 25.078125 30.390625 25.179688 30.390625 25.285156 C 30.390625 25.984375 30.390625 25.984375 30.25 26.125 C 29.921875 26.125 29.589844 26.125 29.25 26.125 C 29.25 24.515625 29.25 22.90625 29.25 21.25 Z M 29.25 21.25 "/>
<path style=" stroke:none;fill-rule:nonzero;fill:rgb(94.509804%,18.82353%,45.882353%);fill-opacity:1;" d="M 1.75 21.25 C 2.078125 21.25 2.410156 21.25 2.75 21.25 C 2.75 22.859375 2.75 24.46875 2.75 26.125 C 2.421875 26.125 2.089844 26.125 1.75 26.125 C 1.523438 25.898438 1.609375 25.585938 1.609375 25.285156 C 1.609375 25.183594 1.609375 25.082031 1.609375 24.980469 C 1.609375 24.878906 1.609375 24.777344 1.609375 24.671875 C 1.609375 24.453125 1.609375 24.238281 1.609375 24.019531 C 1.609375 23.6875 1.609375 23.355469 1.609375 23.023438 C 1.609375 22.8125 1.609375 22.605469 1.609375 22.394531 C 1.609375 22.296875 1.609375 22.195312 1.609375 22.089844 C 1.609375 21.390625 1.609375 21.390625 1.75 21.25 Z M 1.75 21.25 "/>
<path style=" stroke:none;fill-rule:nonzero;fill:rgb(38.431373%,87.450981%,89.803922%);fill-opacity:1;" d="M 29.25 12.875 C 29.578125 12.875 29.910156 12.875 30.25 12.875 C 30.476562 13.101562 30.390625 13.414062 30.390625 13.714844 C 30.390625 13.816406 30.390625 13.917969 30.390625 14.019531 C 30.390625 14.121094 30.390625 14.222656 30.390625 14.328125 C 30.390625 14.546875 30.390625 14.761719 30.390625 14.980469 C 30.390625 15.3125 30.390625 15.644531 30.390625 15.976562 C 30.390625 16.1875 30.390625 16.394531 30.390625 16.605469 C 30.390625 16.703125 30.390625 16.804688 30.390625 16.910156 C 30.390625 17.609375 30.390625 17.609375 30.25 17.75 C 29.921875 17.75 29.589844 17.75 29.25 17.75 C 29.25 16.140625 29.25 14.53125 29.25 12.875 Z M 29.25 12.875 "/>
<path style=" stroke:none;fill-rule:nonzero;fill:rgb(79.607844%,79.607844%,80.000001%);fill-opacity:1;" d="M 29.25 4.5 C 29.578125 4.5 29.910156 4.5 30.25 4.5 C 30.476562 4.726562 30.390625 5.039062 30.390625 5.339844 C 30.390625 5.441406 30.390625 5.542969 30.390625 5.644531 C 30.390625 5.746094 30.390625 5.847656 30.390625 5.953125 C 30.390625 6.171875 30.390625 6.386719 30.390625 6.605469 C 30.390625 6.9375 30.390625 7.269531 30.390625 7.601562 C 30.390625 7.8125 30.390625 8.019531 30.390625 8.230469 C 30.390625 8.328125 30.390625 8.429688 30.390625 8.535156 C 30.390625 9.234375 30.390625 9.234375 30.25 9.375 C 29.921875 9.375 29.589844 9.375 29.25 9.375 C 29.25 7.765625 29.25 6.15625 29.25 4.5 Z M 29.25 4.5 "/>
<path style=" stroke:none;fill-rule:nonzero;fill:rgb(24.705882%,20.784314%,47.450981%);fill-opacity:1;" d="M 28.375 27.5 C 29.242188 27.5 30.109375 27.5 31 27.5 C 31 27.664062 31 27.828125 31 28 C 30.132812 28 29.265625 28 28.375 28 C 28.375 27.835938 28.375 27.671875 28.375 27.5 Z M 28.375 27.5 "/>
<path style=" stroke:none;fill-rule:nonzero;fill:rgb(24.705882%,20.784314%,47.058824%);fill-opacity:1;" d="M 1 27.5 C 1.867188 27.5 2.734375 27.5 3.625 27.5 C 3.625 27.664062 3.625 27.828125 3.625 28 C 2.757812 28 1.890625 28 1 28 C 1 27.835938 1 27.671875 1 27.5 Z M 1 27.5 "/>
</g>
</svg>
