<?xml version="1.0" encoding="UTF-8"?>
<svg xmlns="http://www.w3.org/2000/svg" xmlns:xlink="http://www.w3.org/1999/xlink" width="32" height="32" viewBox="0 0 32 32" version="1.1">
<g id="surface1">
<path style=" stroke:none;fill-rule:nonzero;fill:rgb(4.705882%,3.921569%,3.137255%);fill-opacity:1;" d="M 24.25 1.25 C 24.996094 1.578125 25.304688 2.15625 25.625 2.875 C 25.65625 3.003906 25.683594 3.128906 25.714844 3.261719 C 25.933594 3.765625 26.1875 3.824219 26.6875 4.03125 C 28.105469 4.675781 28.902344 5.660156 29.578125 7.039062 C 29.96875 8.089844 30.035156 9.113281 30.035156 10.226562 C 30.035156 10.507812 30.039062 10.789062 30.042969 11.070312 C 30.046875 11.507812 30.046875 11.949219 30.046875 12.386719 C 30.046875 12.8125 30.050781 13.238281 30.058594 13.664062 C 30.054688 13.859375 30.054688 13.859375 30.054688 14.058594 C 30.070312 15.140625 30.339844 16.089844 31.125 16.875 C 31.410156 17.0625 31.695312 17.21875 32 17.375 C 32.0625 17.703125 32.0625 17.703125 32 18.125 C 31.152344 19.148438 29.578125 19.433594 28.34375 19.695312 C 28.183594 19.730469 28.027344 19.765625 27.863281 19.796875 C 27.683594 19.835938 27.683594 19.835938 27.5 19.875 C 27.5 19.988281 27.5 20.101562 27.496094 20.21875 C 27.488281 21.296875 27.480469 22.371094 27.46875 23.449219 C 27.464844 24 27.460938 24.554688 27.457031 25.109375 C 27.453125 25.640625 27.449219 26.175781 27.441406 26.707031 C 27.441406 26.914062 27.4375 27.117188 27.4375 27.320312 C 27.4375 27.605469 27.433594 27.890625 27.429688 28.175781 C 27.425781 28.421875 27.425781 28.421875 27.425781 28.667969 C 27.332031 29.503906 27.023438 30.074219 26.375 30.625 C 25.917969 30.777344 25.496094 30.765625 25.019531 30.765625 C 24.917969 30.765625 24.816406 30.769531 24.714844 30.769531 C 24.375 30.769531 24.035156 30.769531 23.695312 30.769531 C 23.453125 30.769531 23.210938 30.769531 22.964844 30.773438 C 22.304688 30.773438 21.644531 30.773438 20.984375 30.773438 C 20.574219 30.773438 20.160156 30.777344 19.746094 30.777344 C 18.457031 30.777344 17.167969 30.78125 15.878906 30.78125 C 14.386719 30.78125 12.894531 30.78125 11.40625 30.785156 C 10.253906 30.789062 9.105469 30.789062 7.953125 30.789062 C 7.265625 30.789062 6.578125 30.792969 5.890625 30.792969 C 5.242188 30.796875 4.59375 30.796875 3.949219 30.796875 C 3.710938 30.796875 3.472656 30.796875 3.234375 30.796875 C 2.910156 30.796875 2.585938 30.796875 2.261719 30.796875 C 2.167969 30.796875 2.074219 30.796875 1.976562 30.796875 C 1.207031 30.792969 0.835938 30.566406 0.277344 30.0625 C -0.148438 29.515625 -0.0859375 28.898438 -0.078125 28.234375 C -0.078125 28.09375 -0.0820312 27.953125 -0.0820312 27.8125 C -0.0820312 27.351562 -0.0820312 26.890625 -0.078125 26.433594 C -0.078125 26.113281 -0.078125 25.796875 -0.078125 25.476562 C -0.078125 24.804688 -0.078125 24.136719 -0.0742188 23.46875 C -0.0703125 22.695312 -0.0703125 21.921875 -0.0742188 21.152344 C -0.0742188 20.40625 -0.0742188 19.660156 -0.0703125 18.917969 C -0.0703125 18.601562 -0.0703125 18.285156 -0.0742188 17.96875 C -0.0742188 17.527344 -0.0703125 17.085938 -0.0664062 16.640625 C -0.0664062 16.511719 -0.0703125 16.382812 -0.0703125 16.246094 C -0.0585938 15.5 0.0078125 15.074219 0.5 14.5 C 0.722656 14.289062 0.722656 14.289062 0.953125 14.121094 C 1.039062 14.054688 1.125 13.988281 1.214844 13.921875 C 1.304688 13.859375 1.390625 13.792969 1.484375 13.726562 C 1.753906 13.527344 2.023438 13.324219 2.289062 13.117188 C 2.550781 12.929688 2.800781 12.769531 3.082031 12.609375 C 3.667969 12.25 4.242188 11.894531 4.46875 11.214844 C 4.609375 10.414062 4.570312 9.609375 4.539062 8.796875 C 4.535156 8.550781 4.53125 8.304688 4.53125 8.058594 C 4.527344 7.613281 4.515625 7.171875 4.503906 6.722656 C 4.5 6.566406 4.5 6.410156 4.5 6.25 C 4.625 6.125 4.625 6.125 4.886719 6.113281 C 5 6.117188 5.113281 6.117188 5.230469 6.121094 C 5.359375 6.121094 5.488281 6.125 5.625 6.128906 C 5.765625 6.128906 5.90625 6.132812 6.050781 6.132812 C 6.351562 6.136719 6.652344 6.136719 6.949219 6.136719 C 7.421875 6.136719 7.894531 6.140625 8.367188 6.148438 C 10.546875 6.253906 10.546875 6.253906 12.429688 5.320312 C 12.554688 5.195312 12.679688 5.074219 12.804688 4.945312 C 13.121094 4.628906 13.3125 4.464844 13.75 4.375 C 14.003906 4.484375 14.003906 4.484375 14.242188 4.671875 C 14.375 4.777344 14.375 4.777344 14.511719 4.878906 C 14.644531 4.988281 14.644531 4.988281 14.78125 5.101562 C 14.871094 5.171875 14.964844 5.246094 15.058594 5.320312 C 15.691406 5.816406 15.691406 5.816406 15.875 6 C 16.746094 6.113281 17.929688 6.265625 18.703125 5.804688 C 18.914062 5.546875 19.082031 5.285156 19.25 5 C 19.722656 4.484375 20.183594 4.21875 20.835938 3.976562 C 21.261719 3.796875 21.453125 3.707031 21.679688 3.300781 C 21.761719 3.0625 21.835938 2.820312 21.90625 2.574219 C 22.0625 2.039062 22.355469 1.746094 22.773438 1.398438 C 23.277344 1.1875 23.710938 1.167969 24.25 1.25 Z M 24.25 1.25 "/>
<path style=" stroke:none;fill-rule:nonzero;fill:rgb(99.215686%,38.82353%,43.137255%);fill-opacity:1;" d="M 23.648438 3.96875 C 23.761719 3.964844 23.871094 3.964844 23.988281 3.960938 C 25.503906 3.953125 26.746094 4.46875 27.878906 5.476562 C 28.753906 6.402344 29.386719 7.621094 29.390625 8.90625 C 29.394531 9.101562 29.394531 9.101562 29.394531 9.300781 C 29.394531 9.441406 29.394531 9.582031 29.398438 9.726562 C 29.398438 10.027344 29.402344 10.328125 29.40625 10.625 C 29.410156 11.097656 29.414062 11.570312 29.414062 12.039062 C 29.417969 12.496094 29.421875 12.953125 29.429688 13.40625 C 29.429688 13.546875 29.425781 13.683594 29.425781 13.828125 C 29.445312 14.984375 29.675781 15.945312 30.375 16.875 C 30.375 16.957031 30.375 17.039062 30.375 17.125 C 30.484375 17.171875 30.484375 17.171875 30.59375 17.21875 C 30.914062 17.394531 31.128906 17.609375 31.375 17.875 C 31.226562 17.972656 31.078125 18.070312 30.929688 18.164062 C 30.804688 18.246094 30.804688 18.246094 30.679688 18.328125 C 29.953125 18.738281 29.238281 18.960938 28.429688 19.132812 C 28.296875 19.164062 28.296875 19.164062 28.160156 19.195312 C 26.679688 19.515625 25.21875 19.667969 23.703125 19.65625 C 23.542969 19.65625 23.386719 19.65625 23.222656 19.652344 C 20.71875 19.625 18.320312 19.253906 16.125 18 C 16.125 17.875 16.125 17.753906 16.125 17.625 C 16.324219 17.433594 16.324219 17.433594 16.59375 17.226562 C 17.113281 16.792969 17.386719 16.378906 17.625 15.75 C 17.667969 15.652344 17.710938 15.550781 17.753906 15.453125 C 17.925781 14.808594 17.914062 14.1875 17.914062 13.519531 C 17.917969 13.226562 17.917969 12.933594 17.921875 12.640625 C 17.925781 12.179688 17.929688 11.71875 17.933594 11.257812 C 17.933594 10.8125 17.941406 10.367188 17.945312 9.921875 C 17.945312 9.785156 17.945312 9.648438 17.945312 9.507812 C 17.964844 7.9375 18.425781 6.679688 19.476562 5.496094 C 20.6875 4.347656 22.035156 3.976562 23.648438 3.96875 Z M 23.648438 3.96875 "/>
<path style=" stroke:none;fill-rule:nonzero;fill:rgb(99.215686%,88.627452%,34.901962%);fill-opacity:1;" d="M 13.5 18.75 C 14.019531 18.957031 14.382812 19.332031 14.78125 19.710938 C 14.925781 19.847656 15.074219 19.984375 15.21875 20.121094 C 15.289062 20.1875 15.359375 20.253906 15.429688 20.320312 C 15.742188 20.609375 16.0625 20.886719 16.382812 21.164062 C 16.667969 21.410156 16.945312 21.667969 17.226562 21.921875 C 17.648438 22.304688 18.078125 22.667969 18.523438 23.023438 C 19.28125 23.636719 19.984375 24.300781 20.695312 24.972656 C 21.085938 25.339844 21.484375 25.695312 21.890625 26.046875 C 22.179688 26.296875 22.464844 26.554688 22.75 26.8125 C 23.121094 27.148438 23.496094 27.484375 23.875 27.8125 C 25.53125 29.257812 25.53125 29.257812 26.25 30 C 25.78125 30.304688 25.3125 30.285156 24.769531 30.28125 C 24.621094 30.28125 24.621094 30.28125 24.472656 30.28125 C 24.140625 30.285156 23.804688 30.285156 23.472656 30.28125 C 23.234375 30.28125 22.996094 30.285156 22.757812 30.285156 C 22.109375 30.285156 21.460938 30.285156 20.816406 30.285156 C 20.136719 30.28125 19.460938 30.285156 18.785156 30.285156 C 17.644531 30.285156 16.507812 30.285156 15.371094 30.28125 C 14.054688 30.28125 12.742188 30.28125 11.425781 30.28125 C 10.296875 30.285156 9.167969 30.285156 8.039062 30.285156 C 7.363281 30.285156 6.691406 30.285156 6.015625 30.285156 C 5.382812 30.285156 4.746094 30.285156 4.113281 30.28125 C 3.878906 30.28125 3.648438 30.28125 3.414062 30.285156 C 3.097656 30.285156 2.78125 30.28125 2.460938 30.28125 C 2.371094 30.28125 2.277344 30.28125 2.179688 30.285156 C 1.71875 30.28125 1.519531 30.265625 1.125 30 C 1.125 29.75 1.125 29.75 1.300781 29.574219 C 1.382812 29.503906 1.460938 29.4375 1.546875 29.367188 C 1.953125 29.019531 2.355469 28.671875 2.75 28.3125 C 3.203125 27.90625 3.65625 27.5 4.117188 27.101562 C 4.414062 26.839844 4.707031 26.578125 5 26.3125 C 5.453125 25.902344 5.910156 25.5 6.367188 25.101562 C 6.65625 24.847656 6.941406 24.585938 7.226562 24.328125 C 7.667969 23.925781 8.121094 23.546875 8.585938 23.171875 C 9.058594 22.789062 9.496094 22.394531 9.917969 21.957031 C 10.214844 21.660156 10.535156 21.386719 10.855469 21.109375 C 11.15625 20.847656 11.453125 20.582031 11.75 20.3125 C 12.226562 19.882812 12.703125 19.457031 13.1875 19.039062 C 13.296875 18.945312 13.398438 18.851562 13.5 18.75 Z M 13.5 18.75 "/>
<path style=" stroke:none;fill-rule:nonzero;fill:rgb(97.254902%,96.470588%,96.862745%);fill-opacity:1;" d="M 5.125 6.75 C 9.375 6.75 13.621094 6.75 18 6.75 C 17.875 7.246094 17.753906 7.738281 17.625 8.25 C 17.496094 8.25 17.363281 8.253906 17.234375 8.253906 C 16.011719 8.265625 14.792969 8.277344 13.574219 8.292969 C 12.945312 8.296875 12.320312 8.304688 11.691406 8.3125 C 11.085938 8.316406 10.484375 8.324219 9.878906 8.332031 C 9.648438 8.332031 9.417969 8.335938 9.183594 8.339844 C 8.863281 8.339844 8.539062 8.34375 8.214844 8.347656 C 8.121094 8.351562 8.023438 8.351562 7.921875 8.351562 C 7.488281 8.320312 7.488281 8.320312 7.125 8.5 C 7.113281 8.683594 7.109375 8.871094 7.109375 9.054688 C 7.109375 9.167969 7.109375 9.277344 7.109375 9.394531 C 7.109375 9.511719 7.109375 9.628906 7.109375 9.75 C 7.109375 9.867188 7.109375 9.984375 7.109375 10.105469 C 7.109375 10.273438 7.109375 10.273438 7.109375 10.445312 C 7.109375 10.546875 7.109375 10.652344 7.109375 10.757812 C 7.097656 11 7.097656 11 7.25 11.125 C 7.570312 11.140625 7.886719 11.148438 8.203125 11.152344 C 8.304688 11.152344 8.40625 11.152344 8.507812 11.15625 C 8.839844 11.160156 9.171875 11.160156 9.503906 11.164062 C 9.734375 11.167969 9.964844 11.171875 10.195312 11.171875 C 10.796875 11.179688 11.40625 11.183594 12.011719 11.191406 C 12.628906 11.199219 13.246094 11.203125 13.863281 11.210938 C 15.074219 11.226562 16.289062 11.238281 17.5 11.25 C 17.507812 11.789062 17.511719 12.328125 17.515625 12.867188 C 17.515625 13.019531 17.519531 13.171875 17.523438 13.328125 C 17.527344 14.679688 17.433594 15.828125 16.5 16.875 C 16.183594 17.121094 15.859375 17.320312 15.5 17.5 C 15.484375 17.792969 15.484375 17.792969 15.625 18.125 C 16.722656 19.125 18.46875 19.46875 19.875 19.75 C 19.425781 20.210938 18.957031 20.632812 18.460938 21.039062 C 18.390625 21.097656 18.324219 21.152344 18.253906 21.210938 C 18.085938 21.351562 17.917969 21.488281 17.75 21.625 C 17.398438 21.464844 17.132812 21.292969 16.855469 21.027344 C 16.78125 20.957031 16.707031 20.890625 16.636719 20.820312 C 16.558594 20.746094 16.484375 20.675781 16.40625 20.601562 C 16.25 20.453125 16.09375 20.304688 15.933594 20.160156 C 15.859375 20.085938 15.785156 20.015625 15.707031 19.945312 C 15.078125 19.355469 14.417969 18.800781 13.75 18.25 C 13.28125 18.449219 12.960938 18.742188 12.59375 19.085938 C 12.472656 19.199219 12.347656 19.3125 12.226562 19.425781 C 12.109375 19.53125 11.992188 19.640625 11.875 19.75 C 11.621094 19.972656 11.367188 20.195312 11.113281 20.414062 C 10.941406 20.566406 10.777344 20.71875 10.613281 20.878906 C 10.527344 20.957031 10.441406 21.042969 10.351562 21.125 C 10.273438 21.199219 10.199219 21.273438 10.121094 21.351562 C 9.875 21.5 9.875 21.5 9.589844 21.507812 C 9.09375 21.3125 8.738281 20.992188 8.335938 20.648438 C 8.160156 20.5 7.984375 20.355469 7.804688 20.207031 C 7.671875 20.09375 7.671875 20.09375 7.53125 19.976562 C 6.914062 19.476562 6.269531 19.007812 5.628906 18.535156 C 5.25 18.25 5.25 18.25 5.125 18.125 C 5.113281 17.769531 5.109375 17.421875 5.109375 17.066406 C 5.109375 16.898438 5.109375 16.898438 5.109375 16.726562 C 5.109375 16.359375 5.109375 15.992188 5.113281 15.625 C 5.113281 15.398438 5.113281 15.171875 5.113281 14.949219 C 5.113281 14.109375 5.113281 13.269531 5.117188 12.429688 C 5.121094 10.554688 5.121094 8.679688 5.125 6.75 Z M 5.125 6.75 "/>
<path style=" stroke:none;fill-rule:nonzero;fill:rgb(99.215686%,89.019608%,34.901962%);fill-opacity:1;" d="M 0.625 15.25 C 1.136719 15.464844 1.535156 15.816406 1.960938 16.164062 C 2.648438 16.722656 3.347656 17.269531 4.054688 17.804688 C 4.851562 18.410156 5.632812 19.03125 6.40625 19.664062 C 7.0625 20.203125 7.734375 20.722656 8.417969 21.234375 C 8.71875 21.472656 8.984375 21.722656 9.25 22 C 7.351562 23.785156 7.351562 23.785156 6.609375 24.421875 C 6.328125 24.667969 6.050781 24.921875 5.773438 25.171875 C 5.351562 25.554688 4.921875 25.917969 4.476562 26.273438 C 3.890625 26.746094 3.335938 27.25 2.789062 27.765625 C 2.667969 27.878906 2.667969 27.878906 2.546875 27.992188 C 2.210938 28.308594 1.878906 28.621094 1.546875 28.9375 C 1.457031 29.015625 1.371094 29.097656 1.28125 29.179688 C 1.210938 29.246094 1.140625 29.3125 1.066406 29.382812 C 1.003906 29.421875 0.941406 29.460938 0.875 29.5 C 0.75 29.457031 0.628906 29.417969 0.5 29.375 C 0.496094 27.570312 0.496094 25.765625 0.492188 23.960938 C 0.492188 23.121094 0.492188 22.285156 0.488281 21.449219 C 0.488281 20.640625 0.488281 19.832031 0.488281 19.023438 C 0.488281 18.714844 0.488281 18.40625 0.484375 18.097656 C 0.484375 17.664062 0.484375 17.234375 0.484375 16.800781 C 0.484375 16.671875 0.484375 16.546875 0.484375 16.410156 C 0.484375 16.296875 0.484375 16.175781 0.484375 16.054688 C 0.484375 15.953125 0.484375 15.851562 0.484375 15.746094 C 0.5 15.5 0.5 15.5 0.625 15.25 Z M 0.625 15.25 "/>
<path style=" stroke:none;fill-rule:nonzero;fill:rgb(99.215686%,88.627452%,34.901962%);fill-opacity:1;" d="M 20 20.375 C 20.304688 20.671875 20.574219 20.964844 20.828125 21.304688 C 21.359375 21.9375 22.101562 22.242188 22.875 22.5 C 24.3125 22.621094 25.214844 22.328125 26.375 21.5 C 26.5 21.417969 26.621094 21.335938 26.75 21.25 C 26.757812 22.289062 26.761719 23.328125 26.761719 24.367188 C 26.765625 24.847656 26.765625 25.332031 26.769531 25.8125 C 26.769531 26.277344 26.773438 26.742188 26.773438 27.207031 C 26.773438 27.386719 26.773438 27.5625 26.777344 27.742188 C 26.777344 27.988281 26.777344 28.238281 26.777344 28.488281 C 26.777344 28.628906 26.78125 28.769531 26.78125 28.917969 C 26.75 29.25 26.75 29.25 26.5 29.5 C 25.953125 29.027344 25.414062 28.546875 24.875 28.0625 C 24.421875 27.652344 23.964844 27.25 23.507812 26.851562 C 23.21875 26.597656 22.933594 26.335938 22.648438 26.078125 C 22.226562 25.695312 21.796875 25.332031 21.351562 24.976562 C 20.675781 24.429688 20.042969 23.84375 19.414062 23.246094 C 18.953125 22.8125 18.488281 22.398438 18 22 C 18.585938 21.355469 19.289062 20.875 20 20.375 Z M 20 20.375 "/>
<path style=" stroke:none;fill-rule:nonzero;fill:rgb(96.862745%,96.078432%,96.862745%);fill-opacity:1;" d="M 7.5 8.75 C 10.800781 8.75 14.101562 8.75 17.5 8.75 C 17.5 9.410156 17.5 10.070312 17.5 10.75 C 14.199219 10.75 10.898438 10.75 7.5 10.75 C 7.5 10.089844 7.5 9.429688 7.5 8.75 Z M 7.5 8.75 "/>
<path style=" stroke:none;fill-rule:nonzero;fill:rgb(85.882354%,84.705883%,91.764706%);fill-opacity:1;" d="M 5.125 6.75 C 5.332031 6.75 5.539062 6.75 5.75 6.75 C 5.746094 6.882812 5.746094 7.015625 5.742188 7.148438 C 5.722656 8.394531 5.710938 9.640625 5.707031 10.882812 C 5.707031 11.523438 5.703125 12.164062 5.691406 12.804688 C 5.675781 13.421875 5.675781 14.039062 5.675781 14.660156 C 5.675781 14.894531 5.671875 15.128906 5.667969 15.363281 C 5.601562 16.609375 5.601562 16.609375 6.046875 17.734375 C 6.515625 18.203125 7.054688 18.535156 7.625 18.875 C 7.804688 19.011719 7.984375 19.152344 8.160156 19.296875 C 8.234375 19.351562 8.304688 19.410156 8.375 19.464844 C 8.515625 19.578125 8.65625 19.6875 8.796875 19.796875 C 9.152344 20.078125 9.511719 20.355469 9.875 20.625 C 10.363281 20.421875 10.714844 20.085938 11.09375 19.726562 C 11.226562 19.601562 11.359375 19.476562 11.496094 19.351562 C 11.59375 19.261719 11.59375 19.261719 11.691406 19.171875 C 12.007812 18.878906 12.332031 18.59375 12.660156 18.3125 C 12.800781 18.191406 12.941406 18.0625 13.078125 17.933594 C 13.371094 17.660156 13.574219 17.507812 13.976562 17.445312 C 14.5 17.515625 14.753906 17.769531 15.109375 18.132812 C 15.242188 18.261719 15.371094 18.386719 15.503906 18.515625 C 15.570312 18.578125 15.632812 18.640625 15.699219 18.703125 C 15.925781 18.925781 16.164062 19.136719 16.40625 19.34375 C 16.484375 19.410156 16.558594 19.476562 16.640625 19.546875 C 16.714844 19.613281 16.796875 19.679688 16.875 19.75 C 17.0625 19.914062 17.25 20.078125 17.4375 20.242188 C 17.519531 20.316406 17.605469 20.390625 17.691406 20.464844 C 17.753906 20.515625 17.8125 20.570312 17.875 20.625 C 18.15625 20.488281 18.390625 20.359375 18.640625 20.171875 C 18.875 20 18.875 20 19.125 20 C 19.125 19.875 19.125 19.753906 19.125 19.625 C 19.371094 19.667969 19.621094 19.707031 19.875 19.75 C 19.425781 20.210938 18.957031 20.632812 18.460938 21.039062 C 18.390625 21.097656 18.324219 21.152344 18.253906 21.210938 C 18.085938 21.351562 17.917969 21.488281 17.75 21.625 C 17.398438 21.464844 17.132812 21.292969 16.855469 21.027344 C 16.78125 20.957031 16.707031 20.890625 16.636719 20.820312 C 16.558594 20.746094 16.484375 20.675781 16.40625 20.601562 C 16.25 20.453125 16.09375 20.304688 15.933594 20.160156 C 15.859375 20.085938 15.785156 20.015625 15.707031 19.945312 C 15.078125 19.355469 14.417969 18.800781 13.75 18.25 C 13.28125 18.449219 12.960938 18.742188 12.59375 19.085938 C 12.472656 19.199219 12.347656 19.3125 12.226562 19.425781 C 12.109375 19.53125 11.992188 19.640625 11.875 19.75 C 11.621094 19.972656 11.367188 20.195312 11.113281 20.414062 C 10.941406 20.566406 10.777344 20.71875 10.613281 20.878906 C 10.527344 20.957031 10.441406 21.042969 10.351562 21.125 C 10.273438 21.199219 10.199219 21.273438 10.121094 21.351562 C 9.875 21.5 9.875 21.5 9.589844 21.507812 C 9.09375 21.3125 8.738281 20.992188 8.335938 20.648438 C 8.160156 20.5 7.984375 20.355469 7.804688 20.207031 C 7.671875 20.09375 7.671875 20.09375 7.53125 19.976562 C 6.914062 19.476562 6.269531 19.007812 5.628906 18.535156 C 5.25 18.25 5.25 18.25 5.125 18.125 C 5.113281 17.769531 5.109375 17.421875 5.109375 17.066406 C 5.109375 16.957031 5.109375 16.84375 5.109375 16.730469 C 5.109375 16.359375 5.109375 15.992188 5.113281 15.625 C 5.113281 15.371094 5.113281 15.113281 5.113281 14.859375 C 5.113281 14.1875 5.113281 13.515625 5.117188 12.84375 C 5.117188 12.15625 5.117188 11.472656 5.117188 10.789062 C 5.121094 9.441406 5.121094 8.097656 5.125 6.75 Z M 5.125 6.75 "/>
<path style=" stroke:none;fill-rule:nonzero;fill:rgb(96.078432%,78.823531%,34.117648%);fill-opacity:1;" d="M 2.625 28.5 C 2.667969 28.582031 2.707031 28.664062 2.75 28.75 C 2.667969 28.707031 2.585938 28.667969 2.5 28.625 C 2.542969 28.582031 2.582031 28.542969 2.625 28.5 Z M 2.25 28.75 C 2.332031 28.792969 2.414062 28.832031 2.5 28.875 C 2.335938 29.082031 2.171875 29.289062 2 29.5 C 2.121094 29.5 2.246094 29.5 2.371094 29.5 C 5.355469 29.488281 8.335938 29.480469 11.320312 29.472656 C 12.761719 29.472656 14.203125 29.46875 15.644531 29.460938 C 16.902344 29.457031 18.160156 29.453125 19.417969 29.453125 C 20.082031 29.453125 20.746094 29.453125 21.414062 29.449219 C 22.039062 29.445312 22.667969 29.441406 23.292969 29.445312 C 23.523438 29.445312 23.753906 29.441406 23.984375 29.441406 C 24.296875 29.4375 24.609375 29.4375 24.921875 29.441406 C 25.015625 29.4375 25.109375 29.4375 25.203125 29.433594 C 25.457031 29.4375 25.457031 29.4375 25.875 29.5 C 26.121094 29.753906 26.121094 29.753906 26.25 30 C 25.78125 30.304688 25.3125 30.285156 24.769531 30.28125 C 24.671875 30.28125 24.574219 30.28125 24.472656 30.28125 C 24.140625 30.285156 23.804688 30.285156 23.472656 30.28125 C 23.234375 30.28125 22.996094 30.285156 22.757812 30.285156 C 22.109375 30.285156 21.460938 30.285156 20.816406 30.285156 C 20.136719 30.28125 19.460938 30.285156 18.785156 30.285156 C 17.644531 30.285156 16.507812 30.285156 15.371094 30.28125 C 14.054688 30.28125 12.742188 30.28125 11.425781 30.28125 C 10.296875 30.285156 9.167969 30.285156 8.039062 30.285156 C 7.363281 30.285156 6.691406 30.285156 6.015625 30.285156 C 5.382812 30.285156 4.746094 30.285156 4.113281 30.28125 C 3.878906 30.28125 3.648438 30.28125 3.414062 30.285156 C 3.097656 30.285156 2.78125 30.28125 2.460938 30.28125 C 2.324219 30.28125 2.324219 30.28125 2.179688 30.285156 C 1.71875 30.28125 1.519531 30.265625 1.125 30 C 1.125 29.917969 1.125 29.835938 1.125 29.75 C 1.339844 29.539062 1.339844 29.539062 1.617188 29.304688 C 1.753906 29.1875 1.753906 29.1875 1.894531 29.070312 C 1.96875 29.003906 2.046875 28.941406 2.125 28.875 C 2.167969 28.832031 2.207031 28.792969 2.25 28.75 Z M 2.25 28.75 "/>
<path style=" stroke:none;fill-rule:nonzero;fill:rgb(96.078432%,27.058825%,32.156864%);fill-opacity:1;" d="M 20.25 4.875 C 20.332031 4.917969 20.414062 4.957031 20.5 5 C 20.371094 5.085938 20.242188 5.175781 20.109375 5.265625 C 19.351562 5.90625 18.949219 7.042969 18.75 8 C 18.738281 8.207031 18.730469 8.414062 18.730469 8.617188 C 18.730469 8.800781 18.730469 8.800781 18.726562 8.988281 C 18.726562 9.121094 18.726562 9.253906 18.722656 9.390625 C 18.71875 9.671875 18.714844 9.953125 18.710938 10.234375 C 18.707031 10.679688 18.703125 11.121094 18.699219 11.566406 C 18.695312 11.992188 18.691406 12.421875 18.683594 12.851562 C 18.683594 12.980469 18.683594 13.109375 18.683594 13.246094 C 18.65625 14.863281 18.316406 16.015625 17.203125 17.1875 C 17.136719 17.25 17.070312 17.3125 17 17.375 C 19.097656 18.605469 21.652344 18.800781 24.03125 18.789062 C 24.113281 18.789062 24.199219 18.789062 24.285156 18.789062 C 26.546875 18.777344 28.941406 18.527344 31 17.5 C 31.125 17.625 31.246094 17.746094 31.375 17.875 C 31.226562 17.972656 31.078125 18.070312 30.929688 18.164062 C 30.804688 18.246094 30.804688 18.246094 30.679688 18.328125 C 29.953125 18.738281 29.238281 18.960938 28.429688 19.132812 C 28.296875 19.164062 28.296875 19.164062 28.160156 19.195312 C 26.679688 19.515625 25.21875 19.667969 23.703125 19.65625 C 23.542969 19.65625 23.386719 19.65625 23.222656 19.652344 C 20.71875 19.625 18.324219 19.253906 16.125 18 C 16.125 17.875 16.125 17.753906 16.125 17.625 C 16.328125 17.433594 16.328125 17.433594 16.59375 17.226562 C 17.113281 16.792969 17.386719 16.378906 17.625 15.75 C 17.667969 15.652344 17.710938 15.550781 17.753906 15.453125 C 17.925781 14.808594 17.914062 14.1875 17.914062 13.519531 C 17.917969 13.226562 17.921875 12.933594 17.921875 12.640625 C 17.925781 12.179688 17.929688 11.71875 17.933594 11.257812 C 17.933594 10.8125 17.941406 10.367188 17.945312 9.921875 C 17.945312 9.785156 17.945312 9.648438 17.945312 9.507812 C 17.964844 7.949219 18.410156 6.597656 19.527344 5.46875 C 19.765625 5.261719 20 5.0625 20.25 4.875 Z M 20.25 4.875 "/>
<path style=" stroke:none;fill-rule:nonzero;fill:rgb(98.039216%,80.392158%,34.901962%);fill-opacity:1;" d="M 0.625 15.25 C 1.109375 15.46875 1.109375 15.46875 1.25 15.75 C 1.261719 15.921875 1.261719 16.09375 1.261719 16.265625 C 1.261719 16.371094 1.257812 16.480469 1.257812 16.589844 C 1.257812 16.707031 1.253906 16.828125 1.253906 16.949219 C 1.25 17.074219 1.25 17.199219 1.25 17.328125 C 1.246094 17.738281 1.238281 18.152344 1.234375 18.5625 C 1.230469 18.847656 1.230469 19.136719 1.226562 19.421875 C 1.21875 20.171875 1.210938 20.925781 1.203125 21.675781 C 1.191406 22.445312 1.183594 23.210938 1.175781 23.980469 C 1.160156 25.484375 1.140625 26.992188 1.125 28.5 C 1.324219 28.34375 1.523438 28.183594 1.722656 28.027344 C 1.832031 27.9375 1.941406 27.851562 2.054688 27.761719 C 2.476562 27.417969 2.871094 27.054688 3.265625 26.679688 C 3.417969 26.539062 3.566406 26.394531 3.71875 26.253906 C 3.789062 26.1875 3.859375 26.121094 3.929688 26.054688 C 4.242188 25.765625 4.5625 25.484375 4.886719 25.207031 C 5.175781 24.953125 5.464844 24.695312 5.75 24.4375 C 6.203125 24.03125 6.65625 23.628906 7.113281 23.230469 C 7.3125 23.054688 7.503906 22.878906 7.699219 22.699219 C 7.863281 22.546875 7.863281 22.546875 8.03125 22.390625 C 8.132812 22.296875 8.234375 22.199219 8.335938 22.101562 C 8.613281 21.882812 8.78125 21.796875 9.125 21.75 C 9.125 22.125 9.125 22.125 8.980469 22.300781 C 8.914062 22.363281 8.847656 22.421875 8.777344 22.484375 C 8.703125 22.554688 8.628906 22.621094 8.554688 22.691406 C 8.472656 22.761719 8.394531 22.832031 8.3125 22.90625 C 8.234375 22.980469 8.152344 23.050781 8.070312 23.128906 C 7.589844 23.5625 7.105469 23.992188 6.613281 24.417969 C 6.328125 24.664062 6.050781 24.917969 5.773438 25.171875 C 5.351562 25.554688 4.921875 25.917969 4.476562 26.273438 C 3.890625 26.746094 3.335938 27.25 2.789062 27.765625 C 2.667969 27.878906 2.667969 27.878906 2.546875 27.992188 C 2.210938 28.308594 1.878906 28.621094 1.546875 28.9375 C 1.457031 29.015625 1.371094 29.097656 1.28125 29.179688 C 1.210938 29.246094 1.140625 29.3125 1.066406 29.382812 C 1.003906 29.421875 0.941406 29.460938 0.875 29.5 C 0.75 29.457031 0.628906 29.417969 0.5 29.375 C 0.496094 27.570312 0.496094 25.765625 0.492188 23.960938 C 0.492188 23.121094 0.492188 22.285156 0.488281 21.449219 C 0.488281 20.640625 0.488281 19.832031 0.488281 19.023438 C 0.488281 18.714844 0.488281 18.40625 0.484375 18.097656 C 0.484375 17.664062 0.484375 17.234375 0.484375 16.800781 C 0.484375 16.671875 0.484375 16.546875 0.484375 16.410156 C 0.484375 16.296875 0.484375 16.175781 0.484375 16.054688 C 0.484375 15.953125 0.484375 15.851562 0.484375 15.746094 C 0.5 15.5 0.5 15.5 0.625 15.25 Z M 0.625 15.25 "/>
<path style=" stroke:none;fill-rule:nonzero;fill:rgb(98.039216%,80.392158%,34.901962%);fill-opacity:1;" d="M 19.25 20.875 C 19.332031 20.917969 19.414062 20.957031 19.5 21 C 19.335938 21.207031 19.171875 21.414062 19 21.625 C 19.863281 22.40625 19.863281 22.40625 20.734375 23.171875 C 21.089844 23.480469 21.4375 23.796875 21.785156 24.117188 C 22.335938 24.628906 22.890625 25.121094 23.476562 25.59375 C 23.945312 25.96875 24.375 26.359375 24.789062 26.789062 C 25.238281 27.238281 25.71875 27.667969 26.230469 28.042969 C 26.601562 28.316406 26.738281 28.433594 26.8125 28.898438 C 26.75 29.25 26.75 29.25 26.5 29.5 C 25.953125 29.027344 25.414062 28.546875 24.875 28.0625 C 24.421875 27.652344 23.964844 27.25 23.507812 26.851562 C 23.21875 26.597656 22.933594 26.335938 22.648438 26.078125 C 22.226562 25.695312 21.796875 25.332031 21.351562 24.976562 C 20.675781 24.429688 20.042969 23.84375 19.414062 23.246094 C 18.953125 22.8125 18.488281 22.398438 18 22 C 18.394531 21.59375 18.800781 21.222656 19.25 20.875 Z M 19.25 20.875 "/>
<path style=" stroke:none;fill-rule:nonzero;fill:rgb(75.686276%,74.901962%,80.784315%);fill-opacity:1;" d="M 7.5 8.75 C 10.800781 8.75 14.101562 8.75 17.5 8.75 C 17.5 9.410156 17.5 10.070312 17.5 10.75 C 14.199219 10.75 10.898438 10.75 7.5 10.75 C 7.5 10.089844 7.5 9.429688 7.5 8.75 Z M 8.25 8.875 C 8.25 9.246094 8.25 9.617188 8.25 10 C 11.261719 10 14.273438 10 17.375 10 C 17.375 9.628906 17.375 9.257812 17.375 8.875 C 14.363281 8.875 11.351562 8.875 8.25 8.875 Z M 8.25 8.875 "/>
<path style=" stroke:none;fill-rule:nonzero;fill:rgb(95.294118%,27.058825%,32.156864%);fill-opacity:1;" d="M 20.5 19.875 C 20.578125 19.882812 20.65625 19.890625 20.734375 19.902344 C 21.742188 20.007812 22.742188 20.019531 23.757812 20.015625 C 23.921875 20.015625 24.082031 20.015625 24.25 20.015625 C 25.132812 20.015625 26 19.988281 26.875 19.875 C 26.710938 20.617188 26.328125 21.035156 25.75 21.5 C 24.820312 22.078125 23.929688 22.253906 22.847656 22.078125 C 21.984375 21.851562 21.320312 21.296875 20.75 20.625 C 20.589844 20.214844 20.589844 20.214844 20.5 19.875 Z M 20.5 19.875 "/>
<path style=" stroke:none;fill-rule:nonzero;fill:rgb(98.823529%,88.235295%,34.901962%);fill-opacity:1;" d="M 4.5 12.25 C 4.5 13.984375 4.5 15.714844 4.5 17.5 C 3.871094 17.140625 3.414062 16.851562 2.882812 16.390625 C 2.367188 15.949219 1.847656 15.53125 1.292969 15.144531 C 1.234375 15.097656 1.179688 15.046875 1.125 15 C 1.125 14.917969 1.125 14.835938 1.125 14.75 C 1.300781 14.585938 1.300781 14.585938 1.550781 14.402344 C 1.640625 14.332031 1.730469 14.265625 1.824219 14.195312 C 1.921875 14.121094 2.015625 14.050781 2.117188 13.976562 C 2.3125 13.828125 2.507812 13.683594 2.703125 13.535156 C 2.796875 13.464844 2.890625 13.394531 2.988281 13.324219 C 3.394531 13.015625 3.792969 12.699219 4.191406 12.382812 C 4.375 12.25 4.375 12.25 4.5 12.25 Z M 4.5 12.25 "/>
<path style=" stroke:none;fill-rule:nonzero;fill:rgb(80.784315%,80.000001%,86.666667%);fill-opacity:1;" d="M 8.007812 13.71875 C 8.140625 13.714844 8.269531 13.714844 8.40625 13.714844 C 8.621094 13.714844 8.621094 13.714844 8.839844 13.714844 C 9.058594 13.714844 9.058594 13.714844 9.28125 13.714844 C 9.589844 13.714844 9.902344 13.714844 10.210938 13.71875 C 10.683594 13.71875 11.160156 13.71875 11.636719 13.714844 C 11.933594 13.714844 12.234375 13.714844 12.535156 13.714844 C 12.675781 13.714844 12.820312 13.714844 12.96875 13.714844 C 13.167969 13.714844 13.167969 13.714844 13.367188 13.71875 C 13.484375 13.71875 13.601562 13.71875 13.71875 13.71875 C 14 13.75 14 13.75 14.25 14 C 14.242188 14.304688 14.242188 14.304688 14.125 14.625 C 13.535156 15.148438 12.820312 15.050781 12.078125 15.042969 C 11.9375 15.042969 11.800781 15.039062 11.660156 15.039062 C 11.367188 15.039062 11.078125 15.039062 10.789062 15.035156 C 10.34375 15.03125 9.898438 15.03125 9.453125 15.027344 C 9.171875 15.027344 8.890625 15.027344 8.609375 15.023438 C 8.40625 15.023438 8.40625 15.023438 8.203125 15.023438 C 8.015625 15.019531 8.015625 15.019531 7.828125 15.019531 C 7.71875 15.019531 7.609375 15.019531 7.496094 15.019531 C 7.25 15 7.25 15 7.125 14.875 C 7.101562 14.445312 7.101562 14.445312 7.125 14 C 7.445312 13.679688 7.5625 13.71875 8.007812 13.71875 Z M 8.007812 13.71875 "/>
<path style=" stroke:none;fill-rule:nonzero;fill:rgb(87.450981%,86.274511%,92.941177%);fill-opacity:1;" d="M 8.484375 7.457031 C 8.582031 7.457031 8.683594 7.457031 8.785156 7.457031 C 9.117188 7.457031 9.449219 7.460938 9.777344 7.464844 C 10.007812 7.464844 10.238281 7.464844 10.46875 7.464844 C 11.070312 7.464844 11.671875 7.46875 12.277344 7.472656 C 12.894531 7.480469 13.507812 7.480469 14.125 7.480469 C 15.332031 7.484375 16.539062 7.492188 17.75 7.5 C 17.707031 7.746094 17.667969 7.996094 17.625 8.25 C 17.496094 8.25 17.367188 8.253906 17.230469 8.253906 C 16.015625 8.265625 14.796875 8.277344 13.578125 8.292969 C 12.953125 8.300781 12.328125 8.304688 11.699219 8.3125 C 11.097656 8.320312 10.492188 8.324219 9.890625 8.332031 C 9.660156 8.332031 9.429688 8.335938 9.195312 8.339844 C 8.875 8.339844 8.554688 8.34375 8.230469 8.351562 C 8.085938 8.351562 8.085938 8.351562 7.941406 8.351562 C 7.453125 8.351562 7.453125 8.351562 7 8.5 C 7.042969 8.1875 7.085938 7.9375 7.257812 7.667969 C 7.636719 7.40625 8.039062 7.453125 8.484375 7.457031 Z M 8.484375 7.457031 "/>
<path style=" stroke:none;fill-rule:nonzero;fill:rgb(99.215686%,38.82353%,43.137255%);fill-opacity:1;" d="M 26.625 20 C 26.09375 20.769531 25.535156 21.152344 24.625 21.375 C 23.632812 21.523438 22.929688 21.339844 22.125 20.75 C 21.804688 20.46875 21.804688 20.46875 21.625 20.25 C 21.625 20.207031 21.625 20.167969 21.625 20.125 C 22.175781 20.109375 22.726562 20.089844 23.277344 20.070312 C 23.464844 20.066406 23.652344 20.058594 23.839844 20.054688 C 24.109375 20.046875 24.382812 20.035156 24.652344 20.027344 C 24.816406 20.023438 24.976562 20.015625 25.144531 20.011719 C 25.640625 20 26.132812 19.996094 26.625 20 Z M 26.625 20 "/>
<path style=" stroke:none;fill-rule:nonzero;fill:rgb(83.529413%,82.352942%,89.411765%);fill-opacity:1;" d="M 7.675781 12.09375 C 7.863281 12.097656 7.863281 12.097656 8.050781 12.097656 C 8.183594 12.097656 8.320312 12.097656 8.457031 12.097656 C 8.597656 12.097656 8.738281 12.101562 8.882812 12.101562 C 9.09375 12.101562 9.09375 12.101562 9.308594 12.101562 C 10.359375 12.105469 10.359375 12.105469 10.5 12.25 C 10.523438 12.617188 10.523438 12.617188 10.5 13 C 10.164062 13.332031 9.917969 13.367188 9.453125 13.390625 C 9.292969 13.386719 9.292969 13.386719 9.125 13.386719 C 9.011719 13.386719 8.894531 13.386719 8.773438 13.386719 C 8.652344 13.382812 8.53125 13.382812 8.40625 13.382812 C 8.222656 13.382812 8.222656 13.382812 8.035156 13.382812 C 7.730469 13.378906 7.429688 13.378906 7.125 13.375 C 7.101562 12.617188 7.101562 12.617188 7.125 12.375 C 7.375 12.125 7.375 12.125 7.675781 12.09375 Z M 7.675781 12.09375 "/>
<path style=" stroke:none;fill-rule:nonzero;fill:rgb(95.294118%,26.666668%,32.156864%);fill-opacity:1;" d="M 24.25 1.875 C 24.730469 2.355469 25.125 2.804688 25.125 3.5 C 24.175781 3.5 23.226562 3.5 22.25 3.5 C 22.390625 2.796875 22.617188 2.402344 23.101562 1.882812 C 23.53125 1.671875 23.796875 1.738281 24.25 1.875 Z M 24.25 1.875 "/>
<path style=" stroke:none;fill-rule:nonzero;fill:rgb(97.254902%,79.607844%,34.509805%);fill-opacity:1;" d="M 2.375 13.75 C 2.457031 13.792969 2.539062 13.832031 2.625 13.875 C 2.417969 14.121094 2.210938 14.371094 2 14.625 C 2.109375 14.675781 2.109375 14.675781 2.222656 14.730469 C 2.484375 14.867188 2.695312 15.011719 2.921875 15.191406 C 3.039062 15.28125 3.039062 15.28125 3.152344 15.375 C 3.234375 15.4375 3.308594 15.5 3.390625 15.5625 C 3.46875 15.625 3.546875 15.6875 3.628906 15.75 C 3.933594 15.992188 4.226562 16.226562 4.5 16.5 C 4.535156 16.835938 4.511719 17.160156 4.5 17.5 C 3.820312 17.160156 3.261719 16.714844 2.6875 16.222656 C 2.238281 15.839844 1.777344 15.484375 1.292969 15.144531 C 1.234375 15.097656 1.179688 15.046875 1.125 15 C 1.125 14.917969 1.125 14.835938 1.125 14.75 C 1.328125 14.570312 1.535156 14.398438 1.75 14.234375 C 1.867188 14.144531 1.984375 14.054688 2.101562 13.960938 C 2.191406 13.890625 2.28125 13.820312 2.375 13.75 Z M 2.375 13.75 "/>
<path style=" stroke:none;fill-rule:nonzero;fill:rgb(11.372549%,11.372549%,11.764706%);fill-opacity:1;" d="M 7.125 14.5 C 9.269531 14.5 11.414062 14.5 13.625 14.5 C 13.582031 14.664062 13.542969 14.828125 13.5 15 C 11.4375 15 9.375 15 7.25 15 C 7.207031 14.835938 7.167969 14.671875 7.125 14.5 Z M 7.125 14.5 "/>
<path style=" stroke:none;fill-rule:nonzero;fill:rgb(92.941177%,76.862746%,32.941177%);fill-opacity:1;" d="M 13.742188 5.144531 C 14.070312 5.28125 14.316406 5.464844 14.59375 5.6875 C 14.695312 5.765625 14.792969 5.84375 14.898438 5.925781 C 14.972656 5.992188 15.046875 6.058594 15.125 6.125 C 15.125 6.167969 15.125 6.207031 15.125 6.25 C 14.136719 6.25 13.144531 6.25 12.125 6.25 C 12.714844 5.660156 12.714844 5.660156 13.0625 5.398438 C 13.132812 5.34375 13.203125 5.289062 13.277344 5.230469 C 13.5 5.125 13.5 5.125 13.742188 5.144531 Z M 13.742188 5.144531 "/>
<path style=" stroke:none;fill-rule:nonzero;fill:rgb(8.235294%,8.235294%,8.235294%);fill-opacity:1;" d="M 7.125 12.875 C 8.03125 12.875 8.941406 12.875 9.875 12.875 C 9.832031 13.039062 9.792969 13.203125 9.75 13.375 C 8.882812 13.375 8.015625 13.375 7.125 13.375 C 7.125 13.210938 7.125 13.046875 7.125 12.875 Z M 7.125 12.875 "/>
<path style=" stroke:none;fill-rule:nonzero;fill:rgb(95.294118%,36.470589%,40.784314%);fill-opacity:1;" d="M 23.375 1.75 C 24.167969 1.8125 24.167969 1.8125 24.554688 2.109375 C 24.75 2.375 24.75 2.375 24.75 2.75 C 24.171875 2.75 23.59375 2.75 23 2.75 C 23.125 2.421875 23.246094 2.089844 23.375 1.75 Z M 23.375 1.75 "/>
<path style=" stroke:none;fill-rule:nonzero;fill:rgb(82.352942%,81.176472%,87.843138%);fill-opacity:1;" d="M 17.25 15.25 C 17.292969 15.332031 17.332031 15.414062 17.375 15.5 C 16.980469 16.453125 16.390625 17.011719 15.5 17.5 C 15.457031 17.375 15.417969 17.253906 15.375 17.125 C 15.648438 16.828125 15.898438 16.609375 16.242188 16.398438 C 16.710938 16.0625 16.9375 15.730469 17.25 15.25 Z M 17.25 15.25 "/>
<path style=" stroke:none;fill-rule:nonzero;fill:rgb(97.647059%,33.725491%,38.431373%);fill-opacity:1;" d="M 20.625 4.625 C 20.707031 4.625 20.789062 4.625 20.875 4.625 C 20.691406 5.054688 20.445312 5.332031 20.109375 5.65625 C 20.019531 5.746094 19.929688 5.832031 19.835938 5.921875 C 19.765625 5.988281 19.695312 6.054688 19.625 6.125 C 19.582031 6 19.542969 5.878906 19.5 5.75 C 19.558594 5.699219 19.621094 5.648438 19.683594 5.597656 C 19.761719 5.53125 19.839844 5.464844 19.921875 5.398438 C 20 5.332031 20.078125 5.265625 20.160156 5.203125 C 20.402344 4.988281 20.402344 4.988281 20.625 4.625 Z M 20.625 4.625 "/>
</g>
</svg>
