<?xml version="1.0" encoding="UTF-8"?>
<svg xmlns="http://www.w3.org/2000/svg" xmlns:xlink="http://www.w3.org/1999/xlink" width="32" height="32" viewBox="0 0 32 32" version="1.1">
<g id="surface1">
<path style=" stroke:none;fill-rule:nonzero;fill:rgb(64.705884%,83.529413%,96.862745%);fill-opacity:1;" d="M 18.875 0.375 C 23.082031 0.375 27.289062 0.375 31.625 0.375 C 31.628906 1.753906 31.628906 3.132812 31.632812 4.554688 C 31.632812 4.992188 31.636719 5.425781 31.636719 5.875 C 31.636719 6.21875 31.636719 6.5625 31.636719 6.90625 C 31.636719 6.996094 31.636719 7.085938 31.640625 7.175781 C 31.640625 7.441406 31.640625 7.703125 31.640625 7.96875 C 31.640625 8.113281 31.640625 8.265625 31.640625 8.417969 C 31.625 8.75 31.625 8.75 31.5 8.875 C 31.128906 8.886719 30.765625 8.890625 30.394531 8.886719 C 30.226562 8.886719 30.226562 8.886719 30.058594 8.886719 C 29.703125 8.886719 29.347656 8.886719 28.992188 8.882812 C 28.75 8.882812 28.511719 8.882812 28.269531 8.882812 C 27.679688 8.878906 27.089844 8.878906 26.5 8.875 C 26.5625 9.371094 26.5625 9.371094 26.625 9.875 C 27.078125 10.039062 27.53125 10.203125 28 10.375 C 28 10.582031 28 10.789062 28 11 C 27.957031 11.042969 27.917969 11.082031 27.875 11.125 C 27.402344 11.078125 26.941406 11.011719 26.472656 10.925781 C 25.449219 10.753906 24.636719 10.789062 23.625 11 C 23.25 11.050781 22.875 11.085938 22.5 11.125 C 22.421875 10.898438 22.421875 10.898438 22.375 10.625 C 22.667969 10.1875 22.777344 10.171875 23.265625 10.039062 C 23.378906 10.007812 23.492188 9.976562 23.609375 9.945312 C 23.699219 9.921875 23.785156 9.898438 23.875 9.875 C 23.917969 9.546875 23.957031 9.214844 24 8.875 C 23.851562 8.875 23.699219 8.878906 23.546875 8.878906 C 22.988281 8.882812 22.433594 8.886719 21.878906 8.890625 C 21.636719 8.890625 21.394531 8.890625 21.15625 8.894531 C 20.808594 8.898438 20.464844 8.898438 20.117188 8.898438 C 20.011719 8.902344 19.902344 8.902344 19.792969 8.902344 C 19.527344 8.902344 19.265625 8.890625 19 8.875 C 18.75 8.625 18.75 8.625 18.71875 8.292969 C 18.71875 8.082031 18.71875 8.082031 18.71875 7.867188 C 18.71875 7.707031 18.71875 7.546875 18.71875 7.382812 C 18.71875 7.207031 18.71875 7.035156 18.722656 6.859375 C 18.722656 6.679688 18.722656 6.503906 18.722656 6.324219 C 18.722656 5.949219 18.722656 5.578125 18.722656 5.203125 C 18.726562 4.722656 18.726562 4.242188 18.726562 3.761719 C 18.726562 3.394531 18.726562 3.023438 18.730469 2.65625 C 18.730469 2.480469 18.730469 2.300781 18.730469 2.125 C 18.730469 1.878906 18.730469 1.632812 18.730469 1.382812 C 18.734375 1.242188 18.734375 1.101562 18.734375 0.957031 C 18.75 0.625 18.75 0.625 18.875 0.375 Z M 18.875 0.375 "/>
<path style=" stroke:none;fill-rule:nonzero;fill:rgb(63.921571%,82.352942%,95.294118%);fill-opacity:1;" d="M 1.316406 20.859375 C 1.433594 20.859375 1.550781 20.859375 1.671875 20.859375 C 1.859375 20.859375 1.859375 20.859375 2.046875 20.859375 C 2.457031 20.859375 2.863281 20.863281 3.273438 20.863281 C 3.558594 20.863281 3.839844 20.863281 4.121094 20.863281 C 4.871094 20.863281 5.617188 20.863281 6.359375 20.867188 C 7.121094 20.867188 7.882812 20.867188 8.644531 20.871094 C 10.136719 20.871094 11.628906 20.871094 13.125 20.875 C 13.296875 21.21875 13.265625 21.5 13.265625 21.882812 C 13.265625 22.042969 13.265625 22.203125 13.265625 22.367188 C 13.265625 22.539062 13.265625 22.714844 13.265625 22.890625 C 13.265625 23.070312 13.265625 23.246094 13.265625 23.425781 C 13.265625 23.800781 13.265625 24.175781 13.265625 24.546875 C 13.265625 25.027344 13.265625 25.507812 13.265625 25.988281 C 13.265625 26.355469 13.265625 26.726562 13.265625 27.09375 C 13.265625 27.269531 13.265625 27.449219 13.265625 27.625 C 13.265625 27.871094 13.265625 28.121094 13.265625 28.367188 C 13.265625 28.507812 13.265625 28.648438 13.265625 28.792969 C 13.25 29.125 13.25 29.125 13.125 29.375 C 11.433594 29.375 9.742188 29.375 8 29.375 C 8 29.746094 8 30.117188 8 30.5 C 8.230469 30.523438 8.230469 30.523438 8.46875 30.546875 C 9.191406 30.640625 9.191406 30.640625 9.5 30.875 C 9.601562 31.125 9.601562 31.125 9.625 31.375 C 9.585938 31.457031 9.542969 31.539062 9.5 31.625 C 9.058594 31.644531 8.703125 31.652344 8.285156 31.5 C 7.78125 31.347656 7.339844 31.339844 6.820312 31.34375 C 6.730469 31.34375 6.640625 31.34375 6.546875 31.339844 C 5.945312 31.34375 5.449219 31.445312 4.875 31.625 C 4.582031 31.632812 4.292969 31.636719 4 31.625 C 4 31.375 4 31.128906 4 30.875 C 4.496094 30.710938 4.992188 30.542969 5.5 30.375 C 5.542969 30.042969 5.582031 29.714844 5.625 29.375 C 3.894531 29.375 2.160156 29.375 0.375 29.375 C 0.371094 27.289062 0.371094 27.289062 0.371094 26.40625 C 0.367188 25.796875 0.367188 25.191406 0.367188 24.589844 C 0.363281 24.097656 0.363281 23.613281 0.363281 23.125 C 0.363281 22.9375 0.363281 22.75 0.363281 22.5625 C 0.359375 22.304688 0.359375 22.042969 0.359375 21.78125 C 0.359375 21.632812 0.359375 21.484375 0.359375 21.332031 C 0.390625 20.691406 0.761719 20.859375 1.316406 20.859375 Z M 1.316406 20.859375 "/>
<path style=" stroke:none;fill-rule:nonzero;fill:rgb(0%,0%,0%);fill-opacity:1;" d="M 16.625 3 C 17.253906 3.039062 17.546875 3.210938 17.984375 3.65625 C 18.082031 3.753906 18.179688 3.847656 18.28125 3.949219 C 18.5 4.25 18.5 4.25 18.574219 4.554688 C 18.46875 5.019531 18.183594 5.285156 17.851562 5.609375 C 17.792969 5.671875 17.730469 5.738281 17.667969 5.800781 C 17.484375 5.984375 17.484375 5.984375 17.125 6.25 C 16.765625 6.226562 16.765625 6.226562 16.5 6.125 C 16.476562 5.835938 16.476562 5.835938 16.5 5.5 C 16.6875 5.292969 16.6875 5.292969 16.875 5.125 C 15.609375 5.117188 14.34375 5.113281 13.078125 5.113281 C 12.488281 5.109375 11.902344 5.109375 11.3125 5.105469 C 10.746094 5.105469 10.175781 5.101562 9.609375 5.101562 C 9.390625 5.101562 9.175781 5.101562 8.960938 5.097656 C 6.960938 5.085938 5.40625 5.195312 3.882812 6.59375 C 3.496094 7.015625 3.238281 7.484375 3 8 C 3.0625 8.0625 3.125 8.125 3.1875 8.1875 C 3.570312 8.59375 3.84375 8.898438 4.015625 9.4375 C 3.988281 10.15625 3.800781 10.734375 3.289062 11.25 C 3.144531 11.375 3.144531 11.375 3 11.5 C 3.695312 12.808594 4.433594 13.5625 5.820312 14.117188 C 6.578125 14.351562 7.339844 14.34375 8.128906 14.335938 C 8.304688 14.339844 8.480469 14.339844 8.65625 14.339844 C 9.023438 14.339844 9.386719 14.339844 9.753906 14.339844 C 10.222656 14.335938 10.691406 14.339844 11.15625 14.34375 C 11.519531 14.347656 11.882812 14.347656 12.242188 14.34375 C 12.417969 14.34375 12.589844 14.347656 12.761719 14.347656 C 13.660156 14.402344 13.660156 14.402344 14.460938 14.085938 C 14.617188 13.863281 14.617188 13.863281 14.75 13.5 C 15.140625 13.121094 15.4375 13.066406 15.976562 13.054688 C 16.644531 13.070312 16.996094 13.203125 17.472656 13.664062 C 17.640625 13.898438 17.6875 14.09375 17.75 14.375 C 17.835938 14.375 17.921875 14.375 18.011719 14.375 C 18.828125 14.367188 19.640625 14.363281 20.457031 14.363281 C 20.878906 14.359375 21.296875 14.359375 21.71875 14.355469 C 22.203125 14.351562 22.6875 14.351562 23.171875 14.351562 C 23.316406 14.347656 23.464844 14.347656 23.617188 14.347656 C 25.355469 14.347656 26.824219 14.589844 28.25 15.625 C 28.351562 15.691406 28.453125 15.757812 28.554688 15.828125 C 29.273438 16.492188 29.8125 17.285156 30 18.25 C 30.109375 18.261719 30.222656 18.269531 30.335938 18.28125 C 30.8125 18.390625 31.027344 18.539062 31.375 18.875 C 31.734375 19.460938 31.730469 20.082031 31.625 20.75 C 31.4375 21.128906 31.222656 21.386719 30.875 21.625 C 30.390625 21.742188 30.390625 21.742188 30 21.75 C 29.984375 21.816406 29.96875 21.882812 29.953125 21.953125 C 29.605469 23.210938 28.785156 24.109375 27.707031 24.816406 C 26.566406 25.449219 25.429688 25.644531 24.132812 25.636719 C 23.9375 25.636719 23.738281 25.636719 23.542969 25.636719 C 23.441406 25.636719 23.335938 25.636719 23.230469 25.636719 C 22.679688 25.632812 22.128906 25.636719 21.578125 25.636719 C 20.882812 25.640625 20.183594 25.640625 19.488281 25.636719 C 18.921875 25.636719 18.355469 25.636719 17.789062 25.640625 C 17.574219 25.640625 17.359375 25.640625 17.144531 25.640625 C 15.992188 25.585938 15.992188 25.585938 14.933594 25.949219 C 14.699219 26.175781 14.699219 26.175781 14.53125 26.425781 C 14.375 26.625 14.375 26.625 13.953125 26.75 C 13.84375 26.75 13.734375 26.75 13.625 26.75 C 13.5 26.625 13.5 26.625 13.445312 26.351562 C 13.527344 25.828125 13.859375 25.585938 14.25 25.25 C 14.113281 24.929688 13.996094 24.746094 13.734375 24.507812 C 13.5 24.25 13.5 24.25 13.46875 23.90625 C 13.480469 23.8125 13.488281 23.71875 13.5 23.625 C 13.785156 23.527344 13.785156 23.527344 14.125 23.5 C 14.355469 23.730469 14.355469 23.730469 14.589844 24.046875 C 15.101562 24.589844 15.519531 24.734375 16.253906 24.757812 C 16.652344 24.761719 17.050781 24.753906 17.449219 24.742188 C 17.664062 24.742188 17.875 24.742188 18.089844 24.742188 C 18.539062 24.738281 18.984375 24.734375 19.429688 24.722656 C 20.003906 24.710938 20.570312 24.707031 21.140625 24.703125 C 21.691406 24.703125 22.238281 24.695312 22.785156 24.6875 C 22.886719 24.6875 22.988281 24.6875 23.097656 24.6875 C 24.867188 24.664062 26.605469 24.621094 27.976562 23.34375 C 28.417969 22.871094 28.714844 22.328125 29 21.75 C 28.949219 21.699219 28.894531 21.648438 28.839844 21.597656 C 28.769531 21.53125 28.703125 21.464844 28.632812 21.398438 C 28.566406 21.332031 28.496094 21.265625 28.425781 21.203125 C 28.042969 20.765625 28.082031 20.238281 28.089844 19.6875 C 28.160156 19.058594 28.566406 18.675781 29 18.25 C 28.359375 17.039062 27.570312 16.101562 26.25 15.625 C 25.195312 15.382812 24.148438 15.332031 23.074219 15.324219 C 22.917969 15.320312 22.765625 15.320312 22.609375 15.316406 C 22.125 15.308594 21.640625 15.300781 21.15625 15.296875 C 20.828125 15.292969 20.496094 15.289062 20.164062 15.28125 C 19.359375 15.269531 18.554688 15.261719 17.75 15.25 C 17.714844 15.367188 17.679688 15.484375 17.644531 15.601562 C 17.5 16.003906 17.347656 16.25 17.003906 16.511719 C 16.445312 16.765625 15.84375 16.726562 15.25 16.625 C 14.882812 16.457031 14.765625 16.324219 14.5 16 C 14.410156 15.753906 14.328125 15.503906 14.25 15.25 C 14.152344 15.25 14.050781 15.253906 13.953125 15.253906 C 13.015625 15.265625 12.082031 15.269531 11.148438 15.277344 C 10.671875 15.277344 10.191406 15.28125 9.710938 15.289062 C 9.246094 15.292969 8.78125 15.296875 8.316406 15.296875 C 8.140625 15.296875 7.964844 15.300781 7.789062 15.300781 C 5.933594 15.328125 4.636719 14.941406 3.28125 13.679688 C 2 12.292969 2 12.292969 2 11.5 C 1.890625 11.488281 1.777344 11.480469 1.664062 11.46875 C 1.1875 11.359375 0.972656 11.210938 0.625 10.875 C 0.265625 10.289062 0.269531 9.667969 0.375 9 C 0.5625 8.621094 0.777344 8.363281 1.125 8.125 C 1.609375 8.007812 1.609375 8.007812 2 8 C 2.019531 7.882812 2.042969 7.765625 2.0625 7.648438 C 2.441406 6.355469 3.492188 5.402344 4.625 4.75 C 5.6875 4.257812 6.714844 4.109375 7.882812 4.097656 C 8.023438 4.097656 8.023438 4.097656 8.171875 4.09375 C 8.488281 4.089844 8.804688 4.089844 9.121094 4.085938 C 9.339844 4.082031 9.5625 4.078125 9.78125 4.078125 C 10.359375 4.070312 10.933594 4.066406 11.511719 4.058594 C 12.101562 4.050781 12.691406 4.046875 13.28125 4.039062 C 14.4375 4.023438 15.59375 4.011719 16.75 4 C 16.625 3.875 16.625 3.875 16.5 3.75 C 16.476562 3.429688 16.476562 3.429688 16.5 3.125 C 16.542969 3.082031 16.582031 3.042969 16.625 3 Z M 16.625 3 "/>
<path style=" stroke:none;fill-rule:nonzero;fill:rgb(0.784314%,1.176471%,1.176471%);fill-opacity:1;" d="M 18.875 0.375 C 23.082031 0.375 27.289062 0.375 31.625 0.375 C 31.628906 1.753906 31.628906 3.132812 31.632812 4.554688 C 31.632812 4.992188 31.636719 5.425781 31.636719 5.875 C 31.636719 6.21875 31.636719 6.5625 31.636719 6.90625 C 31.636719 6.996094 31.636719 7.085938 31.640625 7.175781 C 31.640625 7.441406 31.640625 7.703125 31.640625 7.96875 C 31.640625 8.113281 31.640625 8.265625 31.640625 8.417969 C 31.625 8.75 31.625 8.75 31.5 8.875 C 31.128906 8.886719 30.765625 8.890625 30.394531 8.886719 C 30.226562 8.886719 30.226562 8.886719 30.058594 8.886719 C 29.703125 8.886719 29.347656 8.886719 28.992188 8.882812 C 28.75 8.882812 28.511719 8.882812 28.269531 8.882812 C 27.679688 8.878906 27.089844 8.878906 26.5 8.875 C 26.5625 9.371094 26.5625 9.371094 26.625 9.875 C 27.078125 10.039062 27.53125 10.203125 28 10.375 C 28 10.582031 28 10.789062 28 11 C 27.957031 11.042969 27.917969 11.082031 27.875 11.125 C 27.402344 11.078125 26.941406 11.011719 26.472656 10.925781 C 25.449219 10.753906 24.636719 10.789062 23.625 11 C 23.25 11.050781 22.875 11.085938 22.5 11.125 C 22.421875 10.898438 22.421875 10.898438 22.375 10.625 C 22.667969 10.1875 22.777344 10.171875 23.265625 10.039062 C 23.378906 10.007812 23.492188 9.976562 23.609375 9.945312 C 23.699219 9.921875 23.785156 9.898438 23.875 9.875 C 23.917969 9.546875 23.957031 9.214844 24 8.875 C 23.851562 8.875 23.699219 8.878906 23.546875 8.878906 C 22.988281 8.882812 22.433594 8.886719 21.878906 8.890625 C 21.636719 8.890625 21.394531 8.890625 21.15625 8.894531 C 20.808594 8.898438 20.464844 8.898438 20.117188 8.898438 C 20.011719 8.902344 19.902344 8.902344 19.792969 8.902344 C 19.527344 8.902344 19.265625 8.890625 19 8.875 C 18.75 8.625 18.75 8.625 18.71875 8.292969 C 18.71875 8.082031 18.71875 8.082031 18.71875 7.867188 C 18.71875 7.707031 18.71875 7.546875 18.71875 7.382812 C 18.71875 7.207031 18.71875 7.035156 18.722656 6.859375 C 18.722656 6.679688 18.722656 6.503906 18.722656 6.324219 C 18.722656 5.949219 18.722656 5.578125 18.722656 5.203125 C 18.726562 4.722656 18.726562 4.242188 18.726562 3.761719 C 18.726562 3.394531 18.726562 3.023438 18.730469 2.65625 C 18.730469 2.480469 18.730469 2.300781 18.730469 2.125 C 18.730469 1.878906 18.730469 1.632812 18.730469 1.382812 C 18.734375 1.242188 18.734375 1.101562 18.734375 0.957031 C 18.75 0.625 18.75 0.625 18.875 0.375 Z M 19.625 1.125 C 19.625 2.898438 19.625 4.671875 19.625 6.5 C 23.335938 6.5 27.050781 6.5 30.875 6.5 C 30.875 4.726562 30.875 2.953125 30.875 1.125 C 27.164062 1.125 23.449219 1.125 19.625 1.125 Z M 19.625 1.125 "/>
<path style=" stroke:none;fill-rule:nonzero;fill:rgb(0.392157%,0.392157%,0.784314%);fill-opacity:1;" d="M 1.316406 20.859375 C 1.433594 20.859375 1.550781 20.859375 1.671875 20.859375 C 1.859375 20.859375 1.859375 20.859375 2.046875 20.859375 C 2.457031 20.859375 2.863281 20.863281 3.273438 20.863281 C 3.558594 20.863281 3.839844 20.863281 4.121094 20.863281 C 4.871094 20.863281 5.617188 20.863281 6.359375 20.867188 C 7.121094 20.867188 7.882812 20.867188 8.644531 20.871094 C 10.136719 20.871094 11.628906 20.871094 13.125 20.875 C 13.296875 21.21875 13.265625 21.5 13.265625 21.882812 C 13.265625 22.042969 13.265625 22.203125 13.265625 22.367188 C 13.265625 22.539062 13.265625 22.714844 13.265625 22.890625 C 13.265625 23.070312 13.265625 23.246094 13.265625 23.425781 C 13.265625 23.800781 13.265625 24.175781 13.265625 24.546875 C 13.265625 25.027344 13.265625 25.507812 13.265625 25.988281 C 13.265625 26.355469 13.265625 26.726562 13.265625 27.09375 C 13.265625 27.269531 13.265625 27.449219 13.265625 27.625 C 13.265625 27.871094 13.265625 28.121094 13.265625 28.367188 C 13.265625 28.507812 13.265625 28.648438 13.265625 28.792969 C 13.25 29.125 13.25 29.125 13.125 29.375 C 11.433594 29.375 9.742188 29.375 8 29.375 C 8 29.746094 8 30.117188 8 30.5 C 8.230469 30.523438 8.230469 30.523438 8.46875 30.546875 C 9.191406 30.640625 9.191406 30.640625 9.5 30.875 C 9.601562 31.125 9.601562 31.125 9.625 31.375 C 9.585938 31.457031 9.542969 31.539062 9.5 31.625 C 9.058594 31.644531 8.703125 31.652344 8.285156 31.5 C 7.78125 31.347656 7.339844 31.339844 6.820312 31.34375 C 6.730469 31.34375 6.640625 31.34375 6.546875 31.339844 C 5.945312 31.34375 5.449219 31.445312 4.875 31.625 C 4.582031 31.632812 4.292969 31.636719 4 31.625 C 4 31.375 4 31.128906 4 30.875 C 4.496094 30.710938 4.992188 30.542969 5.5 30.375 C 5.542969 30.042969 5.582031 29.714844 5.625 29.375 C 3.894531 29.375 2.160156 29.375 0.375 29.375 C 0.371094 27.289062 0.371094 27.289062 0.371094 26.40625 C 0.367188 25.796875 0.367188 25.191406 0.367188 24.589844 C 0.363281 24.097656 0.363281 23.613281 0.363281 23.125 C 0.363281 22.9375 0.363281 22.75 0.363281 22.5625 C 0.359375 22.304688 0.359375 22.042969 0.359375 21.78125 C 0.359375 21.632812 0.359375 21.484375 0.359375 21.332031 C 0.390625 20.691406 0.761719 20.859375 1.316406 20.859375 Z M 1.125 21.625 C 1.125 23.4375 1.125 25.253906 1.125 27.125 C 4.839844 27.125 8.550781 27.125 12.375 27.125 C 12.375 25.308594 12.375 23.496094 12.375 21.625 C 8.664062 21.625 4.949219 21.625 1.125 21.625 Z M 1.125 21.625 "/>
<path style=" stroke:none;fill-rule:nonzero;fill:rgb(27.058825%,37.64706%,49.411765%);fill-opacity:1;" d="M 19.625 7.25 C 23.335938 7.25 27.050781 7.25 30.875 7.25 C 30.875 7.539062 30.875 7.828125 30.875 8.125 C 27.164062 8.125 23.449219 8.125 19.625 8.125 C 19.625 7.835938 19.625 7.546875 19.625 7.25 Z M 19.625 7.25 "/>
<path style=" stroke:none;fill-rule:nonzero;fill:rgb(0%,0%,0%);fill-opacity:1;" d="M 6.375 7.5 C 6.640625 7.453125 6.640625 7.453125 7 7.5 C 7.296875 7.71875 7.539062 7.980469 7.789062 8.25 C 7.890625 8.359375 7.890625 8.359375 7.996094 8.464844 C 8.167969 8.644531 8.332031 8.820312 8.5 9 C 8.945312 8.625 9.371094 8.257812 9.765625 7.828125 C 10.125 7.5 10.125 7.5 10.484375 7.453125 C 10.617188 7.476562 10.617188 7.476562 10.75 7.5 C 10.859375 7.765625 10.859375 7.765625 10.875 8.125 C 10.667969 8.429688 10.402344 8.667969 10.132812 8.914062 C 10.023438 9.015625 10.023438 9.015625 9.914062 9.121094 C 9.734375 9.292969 9.554688 9.457031 9.375 9.625 C 9.625 10.25 10.140625 10.625 10.621094 11.070312 C 10.875 11.375 10.875 11.375 10.851562 11.664062 C 10.75 11.875 10.75 11.875 10.484375 11.984375 C 10.125 12 10.125 12 9.933594 11.871094 C 9.722656 11.671875 9.527344 11.46875 9.335938 11.257812 C 9.234375 11.148438 9.234375 11.148438 9.128906 11.039062 C 8.957031 10.859375 8.792969 10.679688 8.625 10.5 C 8.175781 10.875 7.75 11.246094 7.359375 11.679688 C 7 12 7 12 6.640625 11.984375 C 6.507812 11.929688 6.507812 11.929688 6.375 11.875 C 6.292969 11.648438 6.292969 11.648438 6.25 11.375 C 6.488281 11.089844 6.71875 10.847656 6.992188 10.59375 C 7.0625 10.523438 7.136719 10.453125 7.210938 10.382812 C 7.390625 10.210938 7.570312 10.042969 7.75 9.875 C 7.5 9.253906 6.988281 8.882812 6.503906 8.441406 C 6.25 8.125 6.25 8.125 6.273438 7.773438 C 6.308594 7.683594 6.339844 7.59375 6.375 7.5 Z M 6.375 7.5 "/>
<path style=" stroke:none;fill-rule:nonzero;fill:rgb(0%,0%,0%);fill-opacity:1;" d="M 21.375 17.75 C 21.839844 17.753906 22.007812 17.882812 22.359375 18.1875 C 22.484375 18.3125 22.605469 18.441406 22.726562 18.570312 C 22.789062 18.636719 22.851562 18.699219 22.917969 18.765625 C 23.070312 18.925781 23.222656 19.089844 23.375 19.25 C 23.820312 18.878906 24.25 18.507812 24.640625 18.078125 C 25 17.75 25 17.75 25.359375 17.703125 C 25.492188 17.726562 25.492188 17.726562 25.625 17.75 C 25.734375 18.015625 25.734375 18.015625 25.75 18.375 C 25.542969 18.679688 25.277344 18.917969 25.007812 19.164062 C 24.898438 19.265625 24.898438 19.265625 24.789062 19.371094 C 24.609375 19.542969 24.429688 19.707031 24.25 19.875 C 24.5 20.496094 25.011719 20.867188 25.496094 21.308594 C 25.75 21.625 25.75 21.625 25.726562 21.976562 C 25.675781 22.113281 25.675781 22.113281 25.625 22.25 C 25.359375 22.296875 25.359375 22.296875 25 22.25 C 24.703125 22.03125 24.460938 21.769531 24.210938 21.5 C 24.140625 21.429688 24.074219 21.359375 24.003906 21.285156 C 23.832031 21.105469 23.667969 20.929688 23.5 20.75 C 23.050781 21.125 22.625 21.496094 22.234375 21.929688 C 21.875 22.25 21.875 22.25 21.515625 22.234375 C 21.382812 22.179688 21.382812 22.179688 21.25 22.125 C 21.1875 21.9375 21.1875 21.9375 21.125 21.75 C 21.28125 21.515625 21.28125 21.515625 21.515625 21.265625 C 21.597656 21.179688 21.675781 21.089844 21.757812 21 C 22.042969 20.703125 22.328125 20.410156 22.625 20.125 C 22.382812 19.546875 21.949219 19.199219 21.5 18.777344 C 21.253906 18.503906 21.144531 18.363281 21.125 18 C 21.207031 17.917969 21.289062 17.835938 21.375 17.75 Z M 21.375 17.75 "/>
<path style=" stroke:none;fill-rule:nonzero;fill:rgb(30.19608%,41.568628%,54.509807%);fill-opacity:1;" d="M 1.125 27.875 C 4.835938 27.875 8.550781 27.875 12.375 27.875 C 12.375 28.121094 12.375 28.371094 12.375 28.625 C 8.664062 28.625 4.949219 28.625 1.125 28.625 C 1.125 28.378906 1.125 28.128906 1.125 27.875 Z M 1.125 27.875 "/>
<path style=" stroke:none;fill-rule:nonzero;fill:rgb(88.235295%,76.862746%,40.784314%);fill-opacity:1;" d="M 16 13.796875 C 16.507812 13.902344 16.691406 14.085938 17 14.5 C 17.078125 14.875 17.078125 14.875 17 15.25 C 16.691406 15.664062 16.507812 15.847656 16 15.953125 C 15.492188 15.847656 15.308594 15.664062 15 15.25 C 14.921875 14.875 14.921875 14.875 15 14.5 C 15.308594 14.085938 15.492188 13.902344 16 13.796875 Z M 16 13.796875 "/>
<path style=" stroke:none;fill-rule:nonzero;fill:rgb(88.627452%,77.254903%,41.176471%);fill-opacity:1;" d="M 2.125 8.671875 C 2.632812 8.777344 2.816406 8.960938 3.125 9.375 C 3.203125 9.75 3.203125 9.75 3.125 10.125 C 2.816406 10.539062 2.632812 10.722656 2.125 10.828125 C 1.617188 10.722656 1.433594 10.539062 1.125 10.125 C 1.046875 9.75 1.046875 9.75 1.125 9.375 C 1.433594 8.960938 1.617188 8.777344 2.125 8.671875 Z M 2.125 8.671875 "/>
<path style=" stroke:none;fill-rule:nonzero;fill:rgb(89.019608%,77.254903%,41.176471%);fill-opacity:1;" d="M 29.875 18.921875 C 30.382812 19.027344 30.566406 19.210938 30.875 19.625 C 30.953125 20 30.953125 20 30.875 20.375 C 30.566406 20.789062 30.382812 20.972656 29.875 21.078125 C 29.367188 20.972656 29.183594 20.789062 28.875 20.375 C 28.796875 20 28.796875 20 28.875 19.625 C 29.183594 19.210938 29.367188 19.027344 29.875 18.921875 Z M 29.875 18.921875 "/>
<path style=" stroke:none;fill-rule:nonzero;fill:rgb(26.666668%,36.078432%,48.627451%);fill-opacity:1;" d="M 6.375 29.375 C 6.621094 29.375 6.871094 29.375 7.125 29.375 C 7.125 29.703125 7.125 30.035156 7.125 30.375 C 6.878906 30.375 6.628906 30.375 6.375 30.375 C 6.375 30.046875 6.375 29.714844 6.375 29.375 Z M 6.375 29.375 "/>
<path style=" stroke:none;fill-rule:nonzero;fill:rgb(26.666668%,36.470589%,48.627451%);fill-opacity:1;" d="M 24.875 8.875 C 25.121094 8.875 25.371094 8.875 25.625 8.875 C 25.625 9.203125 25.625 9.535156 25.625 9.875 C 25.378906 9.875 25.128906 9.875 24.875 9.875 C 24.875 9.546875 24.875 9.214844 24.875 8.875 Z M 24.875 8.875 "/>
</g>
</svg>
