<?xml version="1.0" encoding="UTF-8"?>
<svg xmlns="http://www.w3.org/2000/svg" xmlns:xlink="http://www.w3.org/1999/xlink" width="32" height="32" viewBox="0 0 32 32" version="1.1">
<g id="surface1">
<path style=" stroke:none;fill-rule:nonzero;fill:rgb(10.588235%,13.333334%,12.54902%);fill-opacity:1;" d="M 7.1875 1.484375 C 7.351562 1.484375 7.511719 1.480469 7.675781 1.480469 C 7.855469 1.480469 8.03125 1.480469 8.210938 1.480469 C 8.398438 1.480469 8.585938 1.480469 8.773438 1.480469 C 9.28125 1.480469 9.792969 1.480469 10.300781 1.480469 C 10.621094 1.480469 10.9375 1.476562 11.257812 1.476562 C 12.371094 1.476562 13.480469 1.476562 14.59375 1.476562 C 15.628906 1.476562 16.664062 1.476562 17.699219 1.472656 C 18.589844 1.472656 19.480469 1.472656 20.371094 1.472656 C 20.902344 1.472656 21.433594 1.472656 21.964844 1.46875 C 22.464844 1.46875 22.964844 1.46875 23.464844 1.46875 C 23.644531 1.46875 23.828125 1.46875 24.011719 1.46875 C 25.46875 1.464844 26.632812 1.480469 27.75 2.5 C 28.578125 3.328125 28.78125 4.183594 28.789062 5.332031 C 28.785156 5.683594 28.78125 6.035156 28.773438 6.382812 C 28.773438 6.566406 28.769531 6.746094 28.769531 6.925781 C 28.765625 7.367188 28.757812 7.808594 28.75 8.25 C 28.871094 8.246094 28.988281 8.238281 29.109375 8.230469 C 29.265625 8.226562 29.425781 8.222656 29.585938 8.21875 C 29.742188 8.214844 29.894531 8.207031 30.054688 8.199219 C 30.578125 8.257812 30.765625 8.371094 31.125 8.75 C 31.335938 9.191406 31.40625 9.542969 31.410156 10.03125 C 31.410156 10.160156 31.414062 10.285156 31.414062 10.417969 C 31.414062 10.621094 31.414062 10.621094 31.414062 10.832031 C 31.414062 10.972656 31.414062 11.113281 31.414062 11.261719 C 31.414062 11.558594 31.414062 11.859375 31.414062 12.160156 C 31.414062 12.613281 31.417969 13.070312 31.417969 13.53125 C 31.421875 13.820312 31.421875 14.109375 31.421875 14.402344 C 31.421875 14.539062 31.421875 14.675781 31.421875 14.816406 C 31.417969 15.613281 31.390625 16.238281 30.792969 16.832031 C 30.382812 17.066406 30.0625 17.035156 29.59375 17.023438 C 29.4375 17.019531 29.277344 17.015625 29.113281 17.011719 C 28.996094 17.007812 28.875 17.003906 28.75 17 C 28.75 17.160156 28.75 17.160156 28.753906 17.320312 C 28.757812 18.316406 28.765625 19.316406 28.769531 20.316406 C 28.769531 20.828125 28.773438 21.34375 28.777344 21.855469 C 28.78125 22.351562 28.785156 22.847656 28.785156 23.34375 C 28.785156 23.53125 28.789062 23.722656 28.789062 23.910156 C 28.800781 25.171875 28.8125 26.363281 27.921875 27.351562 C 27.847656 27.441406 27.769531 27.527344 27.691406 27.621094 C 26.765625 28.367188 25.84375 28.445312 24.6875 28.433594 C 24.535156 28.433594 24.382812 28.433594 24.226562 28.433594 C 23.8125 28.433594 23.394531 28.429688 22.980469 28.425781 C 22.546875 28.421875 22.109375 28.421875 21.675781 28.421875 C 20.851562 28.417969 20.03125 28.414062 19.210938 28.410156 C 18.273438 28.40625 17.335938 28.402344 16.398438 28.402344 C 14.476562 28.394531 12.550781 28.386719 10.625 28.375 C 10.589844 28.453125 10.554688 28.53125 10.515625 28.609375 C 10.054688 29.46875 8.871094 30.003906 7.976562 30.289062 C 6.308594 30.695312 4.777344 30.460938 3.285156 29.628906 C 2.035156 28.851562 1.21875 27.671875 0.804688 26.257812 C 0.464844 24.648438 0.738281 23.039062 1.601562 21.65625 C 2.007812 21.085938 2.488281 20.441406 3.125 20.125 C 3.164062 19.09375 3.207031 18.0625 3.25 17 C 2.835938 17.015625 2.835938 17.015625 2.414062 17.03125 C 1.890625 17.050781 1.597656 17.058594 1.144531 16.785156 C 0.699219 16.3125 0.59375 15.859375 0.589844 15.21875 C 0.589844 15.027344 0.589844 15.027344 0.585938 14.832031 C 0.585938 14.695312 0.585938 14.558594 0.585938 14.417969 C 0.585938 14.277344 0.585938 14.136719 0.585938 13.988281 C 0.585938 13.691406 0.585938 13.390625 0.585938 13.09375 C 0.585938 12.632812 0.582031 12.179688 0.578125 11.722656 C 0.578125 11.429688 0.578125 11.140625 0.578125 10.847656 C 0.578125 10.710938 0.578125 10.574219 0.574219 10.433594 C 0.582031 9.609375 0.632812 9.019531 1.21875 8.390625 C 1.621094 8.191406 1.957031 8.214844 2.40625 8.226562 C 2.566406 8.230469 2.722656 8.234375 2.882812 8.238281 C 3.003906 8.242188 3.125 8.246094 3.25 8.25 C 3.25 8.136719 3.246094 8.027344 3.242188 7.910156 C 3.238281 7.492188 3.234375 7.074219 3.230469 6.65625 C 3.226562 6.476562 3.226562 6.296875 3.222656 6.117188 C 3.195312 4.609375 3.273438 3.503906 4.351562 2.367188 C 5.1875 1.621094 6.089844 1.484375 7.1875 1.484375 Z M 7.1875 1.484375 "/>
<path style=" stroke:none;fill-rule:nonzero;fill:rgb(88.627452%,89.803922%,98.823529%);fill-opacity:1;" d="M 4 17 C 11.921875 17 19.839844 17 28 17 C 28 26.046875 28 26.046875 27.28125 26.878906 C 27.210938 26.933594 27.140625 26.988281 27.070312 27.046875 C 27 27.105469 26.929688 27.164062 26.859375 27.222656 C 26.375 27.539062 25.941406 27.65625 25.363281 27.65625 C 25.238281 27.65625 25.113281 27.65625 24.984375 27.65625 C 24.851562 27.65625 24.714844 27.652344 24.574219 27.652344 C 24.359375 27.652344 24.359375 27.652344 24.140625 27.652344 C 23.664062 27.652344 23.1875 27.652344 22.710938 27.648438 C 22.382812 27.648438 22.050781 27.648438 21.722656 27.648438 C 20.945312 27.648438 20.164062 27.644531 19.386719 27.640625 C 18.5 27.640625 17.609375 27.640625 16.722656 27.636719 C 14.898438 27.636719 13.074219 27.628906 11.25 27.625 C 11.273438 27.550781 11.300781 27.472656 11.328125 27.394531 C 11.359375 27.296875 11.394531 27.195312 11.429688 27.09375 C 11.460938 26.996094 11.496094 26.894531 11.53125 26.796875 C 11.753906 26.101562 11.773438 25.484375 11.773438 24.757812 C 11.777344 24.589844 11.777344 24.589844 11.777344 24.417969 C 11.78125 23.832031 11.734375 23.417969 11.5 22.875 C 11.59375 22.21875 12.121094 21.863281 12.585938 21.4375 C 12.984375 21.0625 13.214844 20.824219 13.25 20.25 C 13.179688 20.21875 13.109375 20.1875 13.039062 20.152344 C 12.714844 19.980469 12.445312 19.773438 12.15625 19.546875 C 12.054688 19.46875 11.957031 19.390625 11.855469 19.308594 C 11.777344 19.246094 11.703125 19.1875 11.625 19.125 C 11.167969 19.3125 10.914062 19.578125 10.59375 19.953125 C 10.503906 20.054688 10.417969 20.15625 10.328125 20.261719 C 10.261719 20.339844 10.195312 20.417969 10.125 20.5 C 9.59375 20.296875 9.101562 20.046875 8.597656 19.777344 C 7.804688 19.429688 7.050781 19.332031 6.195312 19.335938 C 6.0625 19.332031 6.0625 19.332031 5.929688 19.328125 C 5.175781 19.328125 4.773438 19.492188 4 19.75 C 4 18.84375 4 17.933594 4 17 Z M 4 17 "/>
<path style=" stroke:none;fill-rule:nonzero;fill:rgb(98.431373%,81.176472%,30.588236%);fill-opacity:1;" d="M 9.375 9 C 12.089844 8.992188 14.804688 8.984375 17.519531 8.980469 C 18.78125 8.980469 20.042969 8.976562 21.300781 8.972656 C 22.402344 8.96875 23.5 8.964844 24.597656 8.964844 C 25.179688 8.964844 25.761719 8.960938 26.34375 8.960938 C 26.890625 8.957031 27.4375 8.957031 27.984375 8.957031 C 28.1875 8.957031 28.390625 8.957031 28.589844 8.953125 C 28.863281 8.953125 29.140625 8.953125 29.414062 8.953125 C 29.640625 8.953125 29.640625 8.953125 29.878906 8.953125 C 30.25 9 30.25 9 30.484375 9.171875 C 30.679688 9.457031 30.671875 9.664062 30.671875 10.007812 C 30.675781 10.136719 30.675781 10.265625 30.675781 10.398438 C 30.675781 10.609375 30.675781 10.609375 30.675781 10.820312 C 30.675781 11.035156 30.675781 11.035156 30.675781 11.253906 C 30.675781 11.554688 30.675781 11.859375 30.671875 12.160156 C 30.671875 12.625 30.671875 13.085938 30.675781 13.550781 C 30.675781 13.84375 30.675781 14.136719 30.675781 14.429688 C 30.675781 14.570312 30.675781 14.707031 30.675781 14.851562 C 30.675781 15.046875 30.675781 15.046875 30.671875 15.242188 C 30.671875 15.355469 30.671875 15.46875 30.671875 15.585938 C 30.613281 15.949219 30.546875 16.035156 30.25 16.25 C 29.878906 16.296875 29.878906 16.296875 29.414062 16.296875 C 29.285156 16.296875 29.285156 16.296875 29.152344 16.296875 C 28.867188 16.296875 28.578125 16.296875 28.292969 16.292969 C 28.085938 16.292969 27.878906 16.292969 27.671875 16.292969 C 27.113281 16.292969 26.554688 16.292969 25.996094 16.289062 C 25.414062 16.285156 24.828125 16.285156 24.246094 16.285156 C 23.140625 16.285156 22.03125 16.28125 20.925781 16.277344 C 19.667969 16.273438 18.40625 16.269531 17.148438 16.269531 C 14.554688 16.265625 11.964844 16.257812 9.375 16.25 C 9.375 13.859375 9.375 11.464844 9.375 9 Z M 9.375 9 "/>
<path style=" stroke:none;fill-rule:nonzero;fill:rgb(1.568628%,70.588237%,63.921571%);fill-opacity:1;" d="M 6.546875 2.359375 C 6.671875 2.359375 6.671875 2.359375 6.800781 2.355469 C 7.078125 2.355469 7.355469 2.355469 7.636719 2.355469 C 7.835938 2.355469 8.035156 2.355469 8.234375 2.351562 C 8.777344 2.351562 9.324219 2.351562 9.863281 2.351562 C 10.203125 2.351562 10.542969 2.347656 10.882812 2.347656 C 11.945312 2.347656 13.003906 2.347656 14.066406 2.34375 C 15.292969 2.34375 16.515625 2.34375 17.742188 2.339844 C 18.691406 2.335938 19.636719 2.335938 20.582031 2.335938 C 21.148438 2.335938 21.714844 2.332031 22.28125 2.332031 C 22.8125 2.328125 23.34375 2.328125 23.878906 2.328125 C 24.074219 2.328125 24.265625 2.328125 24.460938 2.328125 C 24.730469 2.328125 24.996094 2.328125 25.261719 2.328125 C 25.414062 2.328125 25.5625 2.328125 25.714844 2.328125 C 26.574219 2.425781 27.042969 2.863281 27.566406 3.503906 C 28.121094 4.242188 28 4.601562 28 5.625 C 20.078125 5.625 12.160156 5.625 4 5.625 C 4 3.886719 4 3.886719 4.746094 3.121094 C 5.378906 2.558594 5.691406 2.359375 6.546875 2.359375 Z M 6.546875 2.359375 "/>
<path style=" stroke:none;fill-rule:nonzero;fill:rgb(1.568628%,69.803923%,63.137257%);fill-opacity:1;" d="M 9.019531 20.652344 C 9.183594 20.761719 9.34375 20.878906 9.5 21 C 9.074219 21.601562 8.628906 22.140625 8.097656 22.648438 C 7.78125 22.964844 7.496094 23.308594 7.210938 23.648438 C 6.992188 23.882812 6.761719 24.066406 6.5 24.25 C 6.332031 24.066406 6.167969 23.886719 6 23.703125 C 5.90625 23.601562 5.8125 23.5 5.71875 23.394531 C 5.5 23.125 5.5 23.125 5.5 22.875 C 5.054688 22.8125 4.902344 22.851562 4.535156 23.125 C 4.425781 23.238281 4.316406 23.347656 4.203125 23.460938 C 4.089844 23.570312 3.980469 23.679688 3.863281 23.789062 C 3.597656 24.097656 3.597656 24.097656 3.617188 24.4375 C 3.789062 24.839844 4.023438 25.097656 4.328125 25.414062 C 4.441406 25.535156 4.554688 25.652344 4.667969 25.777344 C 4.777344 25.890625 4.886719 26.007812 5 26.125 C 5.164062 26.308594 5.328125 26.492188 5.492188 26.679688 C 5.558594 26.753906 5.621094 26.828125 5.691406 26.90625 C 5.886719 27.140625 6.070312 27.378906 6.25 27.625 C 6.859375 27.605469 7.128906 27.296875 7.523438 26.878906 C 7.820312 26.546875 8.113281 26.210938 8.40625 25.871094 C 8.683594 25.558594 8.980469 25.265625 9.28125 24.972656 C 9.515625 24.734375 9.734375 24.484375 9.953125 24.226562 C 10.273438 23.855469 10.601562 23.539062 11 23.25 C 11.457031 24.5 11.335938 25.652344 10.816406 26.867188 C 10.332031 27.832031 9.675781 28.566406 8.75 29.125 C 8.664062 29.175781 8.582031 29.226562 8.492188 29.28125 C 7.4375 29.808594 5.996094 29.863281 4.863281 29.554688 C 3.347656 28.996094 2.445312 28.019531 1.765625 26.589844 C 1.359375 25.601562 1.332031 24.316406 1.585938 23.273438 C 1.703125 22.996094 1.839844 22.753906 2 22.5 C 2.050781 22.40625 2.101562 22.3125 2.152344 22.21875 C 2.835938 21.042969 3.953125 20.324219 5.246094 19.953125 C 6.628906 19.667969 7.796875 19.957031 9.019531 20.652344 Z M 9.019531 20.652344 "/>
<path style=" stroke:none;fill-rule:nonzero;fill:rgb(98.431373%,25.098041%,27.843139%);fill-opacity:1;" d="M 2.421875 8.957031 C 2.632812 8.957031 2.632812 8.957031 2.847656 8.957031 C 2.992188 8.960938 3.140625 8.960938 3.289062 8.964844 C 3.492188 8.964844 3.492188 8.964844 3.699219 8.964844 C 4.203125 8.964844 4.707031 8.972656 5.210938 8.976562 C 6.902344 8.988281 6.902344 8.988281 8.625 9 C 8.625 11.390625 8.625 13.785156 8.625 16.25 C 7.5 16.257812 6.371094 16.265625 5.210938 16.273438 C 4.675781 16.277344 4.675781 16.277344 4.132812 16.285156 C 3.851562 16.285156 3.570312 16.285156 3.289062 16.285156 C 3.070312 16.289062 3.070312 16.289062 2.847656 16.292969 C 2.636719 16.292969 2.636719 16.292969 2.421875 16.292969 C 2.242188 16.292969 2.242188 16.292969 2.054688 16.296875 C 1.75 16.25 1.75 16.25 1.523438 16.101562 C 1.324219 15.800781 1.328125 15.601562 1.328125 15.242188 C 1.324219 15.113281 1.324219 14.984375 1.324219 14.851562 C 1.324219 14.710938 1.324219 14.574219 1.324219 14.429688 C 1.324219 14.289062 1.324219 14.144531 1.324219 13.996094 C 1.324219 13.695312 1.324219 13.390625 1.328125 13.089844 C 1.328125 12.628906 1.328125 12.164062 1.324219 11.699219 C 1.324219 11.40625 1.324219 11.113281 1.324219 10.820312 C 1.324219 10.679688 1.324219 10.542969 1.324219 10.398438 C 1.324219 10.269531 1.324219 10.140625 1.328125 10.007812 C 1.328125 9.894531 1.328125 9.78125 1.328125 9.664062 C 1.375 9.375 1.375 9.375 1.523438 9.152344 C 1.835938 8.945312 2.050781 8.953125 2.421875 8.957031 Z M 2.421875 8.957031 "/>
<path style=" stroke:none;fill-rule:nonzero;fill:rgb(89.411765%,90.588236%,99.607843%);fill-opacity:1;" d="M 4 6.375 C 11.921875 6.375 19.839844 6.375 28 6.375 C 28 6.992188 28 7.613281 28 8.25 C 20.078125 8.25 12.160156 8.25 4 8.25 C 4 7.632812 4 7.011719 4 6.375 Z M 4 6.375 "/>
<path style=" stroke:none;fill-rule:nonzero;fill:rgb(13.333334%,11.372549%,11.764706%);fill-opacity:1;" d="M 5.890625 10.367188 C 6.429688 10.671875 6.765625 11.1875 7 11.75 C 7.078125 12.453125 7.027344 13.09375 6.75 13.75 C 6.910156 13.886719 6.910156 13.886719 7.070312 14.03125 C 7.171875 14.144531 7.269531 14.257812 7.375 14.375 C 7.351562 14.664062 7.351562 14.664062 7.25 14.875 C 6.664062 14.796875 6.664062 14.796875 6.449219 14.550781 C 6.382812 14.492188 6.316406 14.433594 6.25 14.375 C 5.996094 14.390625 5.996094 14.390625 5.734375 14.484375 C 4.953125 14.6875 4.320312 14.660156 3.59375 14.296875 C 3.058594 13.835938 2.679688 13.484375 2.570312 12.761719 C 2.542969 11.992188 2.582031 11.460938 3.125 10.875 C 4 10.085938 4.78125 9.914062 5.890625 10.367188 Z M 5.890625 10.367188 "/>
<path style=" stroke:none;fill-rule:nonzero;fill:rgb(96.862745%,96.862745%,96.862745%);fill-opacity:1;" d="M 11.5 19.875 C 11.875 20.09375 11.875 20.09375 12.25 20.375 C 12.25 20.875 12.25 20.875 12.0625 21.109375 C 11.976562 21.183594 11.890625 21.265625 11.804688 21.34375 C 11.453125 21.675781 11.121094 22.015625 10.804688 22.382812 C 10.460938 22.785156 10.097656 23.15625 9.71875 23.527344 C 9.492188 23.757812 9.28125 23.996094 9.070312 24.242188 C 8.691406 24.683594 8.289062 25.089844 7.875 25.496094 C 7.542969 25.835938 7.242188 26.199219 6.941406 26.566406 C 6.75 26.75 6.75 26.75 6.375 26.75 C 6.050781 26.492188 5.78125 26.179688 5.5 25.875 C 5.421875 25.789062 5.339844 25.703125 5.257812 25.617188 C 4.867188 25.1875 4.535156 24.820312 4.375 24.25 C 4.746094 23.941406 4.746094 23.941406 5.125 23.625 C 5.539062 24.078125 5.949219 24.53125 6.375 25 C 6.917969 24.863281 7.039062 24.757812 7.414062 24.367188 C 7.515625 24.265625 7.613281 24.160156 7.714844 24.054688 C 8.019531 23.726562 8.316406 23.394531 8.609375 23.054688 C 8.980469 22.632812 9.363281 22.222656 9.75 21.8125 C 10.347656 21.175781 10.9375 20.539062 11.5 19.875 Z M 11.5 19.875 "/>
<path style=" stroke:none;fill-rule:nonzero;fill:rgb(17.254902%,19.215687%,17.254902%);fill-opacity:1;" d="M 21.125 10.5 C 21.453125 10.5 21.785156 10.5 22.125 10.5 C 22.148438 10.640625 22.175781 10.785156 22.203125 10.933594 C 22.234375 11.121094 22.269531 11.304688 22.304688 11.492188 C 22.320312 11.585938 22.339844 11.679688 22.355469 11.777344 C 22.40625 12.238281 22.40625 12.238281 22.625 12.625 C 22.75 12.210938 22.871094 11.800781 23 11.375 C 23.246094 11.375 23.496094 11.375 23.75 11.375 C 23.875 11.746094 23.996094 12.117188 24.125 12.5 C 24.167969 12.5 24.207031 12.5 24.25 12.5 C 24.375 11.839844 24.496094 11.179688 24.625 10.5 C 24.953125 10.5 25.285156 10.5 25.625 10.5 C 25.539062 11.066406 25.453125 11.636719 25.363281 12.203125 C 25.335938 12.394531 25.304688 12.589844 25.277344 12.78125 C 25.234375 13.058594 25.191406 13.335938 25.148438 13.613281 C 25.136719 13.699219 25.121094 13.785156 25.109375 13.875 C 25.015625 14.484375 25.015625 14.484375 24.875 14.625 C 24.625 14.628906 24.375 14.628906 24.125 14.625 C 23.828125 14.003906 23.570312 13.441406 23.5 12.75 C 23.417969 12.75 23.335938 12.75 23.25 12.75 C 23.230469 12.859375 23.230469 12.859375 23.207031 12.96875 C 23.085938 13.574219 22.929688 14.082031 22.625 14.625 C 22.378906 14.625 22.128906 14.625 21.875 14.625 C 21.601562 13.789062 21.488281 12.9375 21.359375 12.070312 C 21.324219 11.84375 21.324219 11.84375 21.289062 11.613281 C 21.234375 11.242188 21.179688 10.871094 21.125 10.5 Z M 21.125 10.5 "/>
<path style=" stroke:none;fill-rule:nonzero;fill:rgb(16.862746%,18.82353%,17.254902%);fill-opacity:1;" d="M 11.25 10.5 C 11.578125 10.5 11.910156 10.5 12.25 10.5 C 12.273438 10.652344 12.300781 10.804688 12.328125 10.960938 C 12.359375 11.160156 12.394531 11.355469 12.429688 11.554688 C 12.445312 11.65625 12.464844 11.753906 12.480469 11.859375 C 12.523438 12.34375 12.523438 12.34375 12.75 12.75 C 12.773438 12.660156 12.800781 12.574219 12.828125 12.480469 C 12.859375 12.367188 12.894531 12.25 12.929688 12.132812 C 12.960938 12.019531 12.996094 11.902344 13.03125 11.785156 C 13.125 11.5 13.125 11.5 13.25 11.375 C 13.457031 11.371094 13.667969 11.371094 13.875 11.375 C 13.9375 11.535156 14 11.691406 14.0625 11.851562 C 14.097656 11.941406 14.132812 12.027344 14.167969 12.121094 C 14.25 12.375 14.25 12.375 14.25 12.75 C 14.332031 12.75 14.414062 12.75 14.5 12.75 C 14.511719 12.601562 14.511719 12.601562 14.523438 12.449219 C 14.628906 11.132812 14.628906 11.132812 14.75 10.5 C 15.078125 10.5 15.410156 10.5 15.75 10.5 C 15.203125 14.421875 15.203125 14.421875 15 14.625 C 14.75 14.628906 14.5 14.628906 14.25 14.625 C 14.214844 14.539062 14.183594 14.457031 14.148438 14.367188 C 14.105469 14.257812 14.0625 14.144531 14.015625 14.03125 C 13.972656 13.921875 13.929688 13.8125 13.882812 13.699219 C 13.765625 13.417969 13.636719 13.144531 13.5 12.875 C 13.292969 13.453125 13.085938 14.03125 12.875 14.625 C 12.585938 14.625 12.296875 14.625 12 14.625 C 11.6875 13.257812 11.457031 11.886719 11.25 10.5 Z M 11.25 10.5 "/>
<path style=" stroke:none;fill-rule:nonzero;fill:rgb(16.470589%,18.82353%,17.254902%);fill-opacity:1;" d="M 16.25 10.5 C 16.539062 10.5 16.828125 10.5 17.125 10.5 C 17.289062 11.285156 17.453125 12.066406 17.625 12.875 C 17.683594 12.652344 17.742188 12.425781 17.804688 12.195312 C 17.984375 11.515625 17.984375 11.515625 18.125 11.375 C 18.332031 11.375 18.539062 11.375 18.75 11.375 C 18.914062 11.789062 19.078125 12.199219 19.25 12.625 C 19.285156 12.460938 19.324219 12.296875 19.359375 12.125 C 19.480469 11.582031 19.613281 11.039062 19.75 10.5 C 20.039062 10.5 20.328125 10.5 20.625 10.5 C 20.566406 11.898438 20.277344 13.253906 20 14.625 C 19.710938 14.625 19.421875 14.625 19.125 14.625 C 18.917969 14.046875 18.710938 13.46875 18.5 12.875 C 18.109375 13.742188 18.109375 13.742188 17.75 14.625 C 17.503906 14.625 17.253906 14.625 17 14.625 C 16.820312 14.207031 16.699219 13.8125 16.617188 13.363281 C 16.59375 13.246094 16.574219 13.125 16.550781 13.003906 C 16.515625 12.820312 16.515625 12.820312 16.484375 12.632812 C 16.460938 12.511719 16.4375 12.390625 16.414062 12.261719 C 16.308594 11.667969 16.21875 11.105469 16.25 10.5 Z M 16.25 10.5 "/>
<path style=" stroke:none;fill-rule:nonzero;fill:rgb(7.843138%,14.901961%,14.509805%);fill-opacity:1;" d="M 15.007812 3.59375 C 15.113281 3.59375 15.21875 3.59375 15.332031 3.59375 C 15.441406 3.59375 15.554688 3.59375 15.667969 3.59375 C 16.039062 3.59375 16.410156 3.59375 16.78125 3.597656 C 17.039062 3.597656 17.292969 3.597656 17.550781 3.597656 C 18.089844 3.597656 18.628906 3.597656 19.167969 3.597656 C 19.859375 3.601562 20.550781 3.601562 21.246094 3.601562 C 21.773438 3.601562 22.304688 3.601562 22.835938 3.605469 C 23.089844 3.605469 23.347656 3.605469 23.601562 3.605469 C 23.957031 3.605469 24.3125 3.605469 24.667969 3.605469 C 24.777344 3.605469 24.882812 3.605469 24.992188 3.605469 C 25.722656 3.609375 25.722656 3.609375 26 3.75 C 25.890625 4.234375 25.890625 4.234375 25.75 4.375 C 25.390625 4.386719 25.039062 4.390625 24.679688 4.390625 C 24.566406 4.390625 24.457031 4.390625 24.339844 4.390625 C 23.96875 4.390625 23.59375 4.390625 23.222656 4.386719 C 22.964844 4.386719 22.707031 4.386719 22.449219 4.386719 C 21.769531 4.386719 21.089844 4.386719 20.410156 4.382812 C 19.71875 4.382812 19.023438 4.382812 18.332031 4.382812 C 16.96875 4.378906 15.609375 4.378906 14.25 4.375 C 14.167969 4.210938 14.085938 4.046875 14 3.875 C 14.328125 3.546875 14.5625 3.59375 15.007812 3.59375 Z M 15.007812 3.59375 "/>
<path style=" stroke:none;fill-rule:nonzero;fill:rgb(14.117648%,16.470589%,16.862746%);fill-opacity:1;" d="M 16.75 19.355469 C 16.882812 19.355469 16.882812 19.355469 17.019531 19.355469 C 17.160156 19.355469 17.160156 19.355469 17.300781 19.355469 C 17.613281 19.355469 17.921875 19.355469 18.234375 19.355469 C 18.449219 19.355469 18.664062 19.351562 18.878906 19.351562 C 19.328125 19.351562 19.78125 19.351562 20.230469 19.351562 C 20.8125 19.351562 21.390625 19.351562 21.972656 19.347656 C 22.414062 19.347656 22.859375 19.347656 23.304688 19.347656 C 23.515625 19.347656 23.730469 19.34375 23.945312 19.34375 C 24.242188 19.34375 24.542969 19.34375 24.839844 19.34375 C 24.929688 19.34375 25.015625 19.34375 25.109375 19.34375 C 25.722656 19.347656 25.722656 19.347656 26 19.625 C 26 19.75 26 19.871094 26 20 C 25.628906 20.1875 25.246094 20.140625 24.839844 20.140625 C 24.699219 20.140625 24.699219 20.140625 24.554688 20.140625 C 24.242188 20.140625 23.929688 20.136719 23.621094 20.136719 C 23.40625 20.136719 23.191406 20.136719 22.972656 20.136719 C 22.40625 20.136719 21.839844 20.136719 21.269531 20.132812 C 20.691406 20.132812 20.113281 20.132812 19.535156 20.132812 C 18.398438 20.128906 17.261719 20.128906 16.125 20.125 C 16.078125 19.917969 16.035156 19.710938 16 19.5 C 16.210938 19.289062 16.46875 19.359375 16.75 19.355469 Z M 16.75 19.355469 "/>
<path style=" stroke:none;fill-rule:nonzero;fill:rgb(98.039216%,25.098041%,27.843139%);fill-opacity:1;" d="M 5.125 10.875 C 5.652344 11.078125 5.953125 11.269531 6.25 11.75 C 6.359375 12.34375 6.335938 12.847656 6.039062 13.375 C 5.621094 13.734375 5.300781 13.851562 4.757812 13.921875 C 4.265625 13.859375 4.007812 13.679688 3.625 13.375 C 3.269531 12.84375 3.277344 12.371094 3.375 11.75 C 3.792969 10.972656 4.277344 10.820312 5.125 10.875 Z M 5.125 10.875 "/>
<path style=" stroke:none;fill-rule:nonzero;fill:rgb(8.627451%,10.980392%,10.980392%);fill-opacity:1;" d="M 16.476562 23.984375 C 16.632812 23.984375 16.792969 23.984375 16.953125 23.984375 C 17.039062 23.984375 17.128906 23.984375 17.214844 23.984375 C 17.503906 23.984375 17.789062 23.984375 18.078125 23.988281 C 18.277344 23.988281 18.476562 23.988281 18.675781 23.988281 C 19.199219 23.988281 19.722656 23.988281 20.25 23.992188 C 20.78125 23.992188 21.316406 23.992188 21.851562 23.992188 C 22.902344 23.996094 23.949219 23.996094 25 24 C 25.070312 24.242188 25.070312 24.242188 25.125 24.5 C 25 24.625 25 24.625 24.648438 24.640625 C 24.410156 24.640625 24.410156 24.640625 24.171875 24.640625 C 24.085938 24.640625 24 24.640625 23.910156 24.640625 C 23.621094 24.640625 23.335938 24.640625 23.046875 24.636719 C 22.847656 24.636719 22.648438 24.636719 22.449219 24.636719 C 21.925781 24.636719 21.402344 24.636719 20.878906 24.632812 C 20.34375 24.632812 19.808594 24.632812 19.273438 24.632812 C 18.222656 24.628906 17.175781 24.628906 16.125 24.625 C 16.054688 24.382812 16.054688 24.382812 16 24.125 C 16.125 24 16.125 24 16.476562 23.984375 Z M 16.476562 23.984375 "/>
<path style=" stroke:none;fill-rule:nonzero;fill:rgb(8.627451%,10.980392%,10.980392%);fill-opacity:1;" d="M 16 21.75 C 18.351562 21.75 20.703125 21.75 23.125 21.75 C 23.1875 21.996094 23.1875 21.996094 23.25 22.25 C 23.125 22.375 23.125 22.375 22.84375 22.390625 C 22.71875 22.390625 22.597656 22.390625 22.46875 22.390625 C 22.328125 22.390625 22.1875 22.390625 22.042969 22.390625 C 21.816406 22.390625 21.816406 22.390625 21.582031 22.386719 C 21.425781 22.386719 21.269531 22.386719 21.109375 22.386719 C 20.699219 22.386719 20.285156 22.386719 19.871094 22.382812 C 19.449219 22.382812 19.027344 22.382812 18.609375 22.382812 C 17.78125 22.378906 16.953125 22.378906 16.125 22.375 C 16.082031 22.167969 16.042969 21.960938 16 21.75 Z M 16 21.75 "/>
<path style=" stroke:none;fill-rule:nonzero;fill:rgb(21.176471%,21.960784%,17.647059%);fill-opacity:1;" d="M 26 13.625 C 26.292969 13.621094 26.582031 13.621094 26.875 13.625 C 27 13.75 27 13.75 27.007812 14.195312 C 27.003906 14.335938 27.003906 14.480469 27 14.625 C 26.671875 14.625 26.339844 14.625 26 14.625 C 26 14.296875 26 13.964844 26 13.625 Z M 26 13.625 "/>
<path style=" stroke:none;fill-rule:nonzero;fill:rgb(20%,21.176471%,17.647059%);fill-opacity:1;" d="M 28.125 13.609375 C 28.5 13.625 28.5 13.625 28.625 13.75 C 28.628906 14.042969 28.628906 14.332031 28.625 14.625 C 28.296875 14.625 27.964844 14.625 27.625 14.625 C 27.621094 14.332031 27.621094 14.042969 27.625 13.75 C 27.75 13.625 27.75 13.625 28.125 13.609375 Z M 28.125 13.609375 "/>
<path style=" stroke:none;fill-rule:nonzero;fill:rgb(7.450981%,18.82353%,18.039216%);fill-opacity:1;" d="M 9.375 3.625 C 9.632812 3.679688 9.632812 3.679688 9.875 3.75 C 9.832031 3.914062 9.792969 4.078125 9.75 4.25 C 9.585938 4.25 9.421875 4.25 9.25 4.25 C 9.25 3.75 9.25 3.75 9.375 3.625 Z M 9.375 3.625 "/>
<path style=" stroke:none;fill-rule:nonzero;fill:rgb(7.843138%,14.901961%,14.117648%);fill-opacity:1;" d="M 6.375 3.625 C 6.621094 3.6875 6.621094 3.6875 6.875 3.75 C 6.875 3.914062 6.875 4.078125 6.875 4.25 C 6.667969 4.25 6.460938 4.25 6.25 4.25 C 6.292969 4.042969 6.332031 3.835938 6.375 3.625 Z M 6.375 3.625 "/>
<path style=" stroke:none;fill-rule:nonzero;fill:rgb(7.843138%,14.117648%,13.725491%);fill-opacity:1;" d="M 7.875 3.625 C 8.121094 3.6875 8.121094 3.6875 8.375 3.75 C 8.332031 3.914062 8.292969 4.078125 8.25 4.25 C 8.085938 4.25 7.921875 4.25 7.75 4.25 C 7.792969 4.042969 7.832031 3.835938 7.875 3.625 Z M 7.875 3.625 "/>
</g>
</svg>
