<?xml version="1.0" encoding="UTF-8"?>
<svg xmlns="http://www.w3.org/2000/svg" xmlns:xlink="http://www.w3.org/1999/xlink" width="32" height="32" viewBox="0 0 32 32" version="1.1">
<g id="surface1">
<path style=" stroke:none;fill-rule:nonzero;fill:rgb(0.784314%,0.392157%,0%);fill-opacity:1;" d="M 9.75 7.5 C 10.511719 7.917969 11.105469 8.542969 11.71875 9.148438 C 11.828125 9.25 11.933594 9.351562 12.046875 9.457031 C 12.605469 10.007812 12.988281 10.445312 13.148438 11.222656 C 13.070312 12.175781 12.242188 12.835938 11.609375 13.476562 C 11.421875 13.664062 11.238281 13.855469 11.058594 14.046875 C 10.070312 15.066406 10.070312 15.066406 9.394531 15.175781 C 8.296875 15.15625 7.558594 14.089844 6.84375 13.367188 C 6.671875 13.195312 6.671875 13.195312 6.5 13.023438 C 5.660156 12.175781 5.660156 12.175781 5.375 11.75 C 4.199219 12.058594 3.324219 12.472656 2.625 13.5 C 2.101562 14.449219 1.96875 15.371094 2.1875 16.429688 C 2.5 17.484375 3.035156 18.117188 3.941406 18.71875 C 4.664062 19.085938 5.371094 19.164062 6.167969 19.175781 C 6.265625 19.179688 6.359375 19.179688 6.457031 19.183594 C 6.761719 19.191406 7.0625 19.199219 7.367188 19.203125 C 7.574219 19.207031 7.78125 19.210938 7.988281 19.21875 C 8.492188 19.230469 8.996094 19.238281 9.5 19.25 C 9.476562 19.152344 9.453125 19.054688 9.429688 18.953125 C 9.375 18.625 9.375 18.625 9.515625 18.390625 C 9.75 18.25 9.75 18.25 10.039062 18.242188 C 10.375 18.375 10.375 18.375 10.664062 18.75 C 11.160156 19.261719 11.710938 19.222656 12.390625 19.234375 C 12.621094 19.234375 12.621094 19.234375 12.859375 19.234375 C 13.015625 19.238281 13.175781 19.238281 13.335938 19.242188 C 13.726562 19.246094 14.113281 19.25 14.5 19.25 C 14.515625 19.171875 14.53125 19.097656 14.546875 19.019531 C 14.566406 18.921875 14.585938 18.820312 14.609375 18.714844 C 14.628906 18.617188 14.648438 18.519531 14.667969 18.417969 C 14.894531 17.601562 15.4375 17.15625 16.140625 16.742188 C 16.921875 16.347656 17.90625 16.359375 18.734375 16.609375 C 19.566406 16.996094 20.121094 17.515625 20.546875 18.328125 C 20.625 18.625 20.625 18.625 20.625 19.25 C 21.160156 19.207031 21.699219 19.167969 22.25 19.125 C 22.25 18.917969 22.25 18.710938 22.25 18.5 C 22.332031 18.417969 22.414062 18.335938 22.5 18.25 C 22.78125 18.25 22.78125 18.25 23.125 18.375 C 23.222656 18.5 23.320312 18.625 23.417969 18.753906 C 23.800781 19.144531 24.097656 19.183594 24.640625 19.207031 C 24.933594 19.210938 25.230469 19.207031 25.523438 19.203125 C 27.203125 19.183594 28.503906 19.433594 29.75 20.625 C 30.738281 21.6875 31.136719 22.933594 31.125 24.375 C 31.039062 25.6875 30.484375 26.902344 29.515625 27.804688 C 28.765625 28.359375 27.800781 28.898438 26.851562 28.882812 C 26.695312 28.878906 26.539062 28.878906 26.375 28.875 C 26.328125 28.980469 26.328125 28.980469 26.285156 29.085938 C 26.089844 29.441406 25.847656 29.679688 25.5625 29.964844 C 25.394531 30.132812 25.394531 30.132812 25.226562 30.300781 C 25.109375 30.417969 24.996094 30.53125 24.875 30.648438 C 24.757812 30.765625 24.640625 30.878906 24.523438 31 C 23.496094 32.019531 23.496094 32.019531 22.796875 32.0625 C 22.695312 32.070312 22.59375 32.078125 22.488281 32.089844 C 21.902344 31.945312 21.550781 31.539062 21.125 31.125 C 21.039062 31.042969 20.949219 30.957031 20.859375 30.871094 C 20.59375 30.609375 20.332031 30.347656 20.070312 30.085938 C 19.933594 29.953125 19.933594 29.953125 19.796875 29.816406 C 19.710938 29.730469 19.628906 29.644531 19.539062 29.554688 C 19.460938 29.480469 19.386719 29.402344 19.308594 29.324219 C 19.125 29.125 19.125 29.125 19 28.875 C 18.214844 28.832031 17.433594 28.792969 16.625 28.75 C 16.667969 28.996094 16.707031 29.246094 16.75 29.5 C 16.5 29.75 16.5 29.75 16.210938 29.796875 C 15.757812 29.734375 15.59375 29.554688 15.273438 29.234375 C 15.175781 29.140625 15.078125 29.042969 14.972656 28.945312 C 14.695312 28.542969 14.667969 28.355469 14.75 27.875 C 14.972656 27.554688 14.972656 27.554688 15.273438 27.265625 C 15.371094 27.167969 15.46875 27.070312 15.566406 26.96875 C 15.917969 26.71875 16.078125 26.679688 16.5 26.75 C 16.582031 26.832031 16.664062 26.914062 16.75 27 C 16.703125 27.390625 16.703125 27.390625 16.625 27.75 C 17.003906 27.757812 17.378906 27.753906 17.757812 27.75 C 17.863281 27.753906 17.96875 27.753906 18.078125 27.757812 C 18.542969 27.746094 18.871094 27.730469 19.238281 27.429688 C 19.464844 27.171875 19.667969 26.898438 19.875 26.625 C 20.195312 26.265625 20.53125 25.921875 20.867188 25.578125 C 20.949219 25.488281 21.035156 25.398438 21.117188 25.308594 C 21.675781 24.738281 22.066406 24.445312 22.875 24.375 C 23.757812 24.566406 24.316406 25.242188 24.929688 25.871094 C 25.109375 26.054688 25.292969 26.234375 25.472656 26.417969 C 26.4375 27.386719 26.4375 27.386719 26.5 27.875 C 27.847656 27.480469 28.722656 27.125 29.472656 25.90625 C 29.953125 25.023438 30.03125 24.015625 29.792969 23.042969 C 29.421875 22.011719 28.835938 21.265625 27.859375 20.757812 C 27.015625 20.359375 26.183594 20.332031 25.265625 20.3125 C 25.082031 20.300781 25.082031 20.300781 24.898438 20.292969 C 24.207031 20.273438 24.207031 20.273438 23.605469 20.574219 C 23.371094 20.808594 23.371094 20.808594 23.175781 21.0625 C 23.117188 21.125 23.058594 21.1875 23 21.25 C 22.640625 21.25 22.640625 21.25 22.375 21.125 C 22.332031 21.082031 22.292969 21.042969 22.25 21 C 22.25 20.792969 22.25 20.585938 22.25 20.375 C 21.445312 20.3125 21.445312 20.3125 20.625 20.25 C 20.582031 20.417969 20.539062 20.585938 20.492188 20.757812 C 20.214844 21.582031 19.710938 22.035156 18.992188 22.492188 C 18.070312 22.824219 16.949219 22.769531 16.0625 22.375 C 15.484375 22.039062 15.046875 21.605469 14.75 21 C 14.703125 20.75 14.664062 20.5 14.625 20.25 C 14.058594 20.246094 13.496094 20.25 12.929688 20.257812 C 12.769531 20.257812 12.609375 20.253906 12.445312 20.253906 C 11.417969 20.257812 11.417969 20.257812 10.597656 20.816406 C 10.539062 20.894531 10.476562 20.976562 10.414062 21.058594 C 10.25 21.25 10.25 21.25 9.882812 21.304688 C 9.796875 21.285156 9.710938 21.269531 9.625 21.25 C 9.492188 20.953125 9.492188 20.953125 9.375 20.625 C 9.417969 20.542969 9.457031 20.460938 9.5 20.375 C 9.359375 20.375 9.21875 20.375 9.078125 20.375 C 8.550781 20.371094 8.023438 20.363281 7.5 20.355469 C 7.273438 20.351562 7.046875 20.351562 6.820312 20.351562 C 4.976562 20.34375 3.535156 20.15625 2.148438 18.816406 C 1.191406 17.714844 0.828125 16.515625 0.882812 15.078125 C 1.027344 13.679688 1.585938 12.570312 2.625 11.625 C 3.382812 11.015625 4.300781 10.660156 5.273438 10.601562 C 5.75 10.464844 5.917969 10.203125 6.226562 9.824219 C 6.574219 9.414062 6.949219 9.03125 7.328125 8.648438 C 7.398438 8.578125 7.464844 8.507812 7.535156 8.433594 C 8.175781 7.796875 8.789062 7.277344 9.75 7.5 Z M 9.75 7.5 "/>
<path style=" stroke:none;fill-rule:nonzero;fill:rgb(0%,0%,0.392157%);fill-opacity:1;" d="M 16.554688 0.1875 C 17.449219 0.734375 17.839844 1.378906 18.125 2.375 C 19.484375 2.332031 20.847656 2.292969 22.25 2.25 C 22.25 2.003906 22.25 1.753906 22.25 1.5 C 22.375 1.375 22.375 1.375 22.703125 1.3125 C 23.195312 1.386719 23.199219 1.441406 23.484375 1.8125 C 23.898438 2.238281 24.179688 2.316406 24.769531 2.339844 C 25.0625 2.339844 25.355469 2.335938 25.648438 2.328125 C 27.117188 2.296875 28.421875 2.480469 29.546875 3.515625 C 30.621094 4.558594 31.101562 5.761719 31.132812 7.242188 C 31.078125 8.53125 30.648438 9.722656 29.738281 10.65625 C 28.988281 11.339844 28.34375 11.652344 27.359375 11.859375 C 26.621094 12.019531 26.183594 12.179688 25.738281 12.804688 C 25.398438 13.261719 25.003906 13.648438 24.601562 14.046875 C 24.527344 14.125 24.449219 14.203125 24.371094 14.28125 C 24.296875 14.355469 24.226562 14.425781 24.152344 14.503906 C 24.085938 14.570312 24.019531 14.632812 23.953125 14.703125 C 23.5 15.085938 23.117188 15.15625 22.523438 15.183594 C 21.625 14.992188 20.957031 14.117188 20.34375 13.492188 C 20.242188 13.390625 20.140625 13.289062 20.035156 13.183594 C 19.285156 12.425781 19.285156 12.425781 19 12 C 18.695312 11.949219 18.695312 11.949219 18.347656 11.964844 C 18.21875 11.964844 18.089844 11.964844 17.957031 11.96875 C 17.820312 11.96875 17.6875 11.972656 17.546875 11.976562 C 17.410156 11.980469 17.273438 11.980469 17.132812 11.980469 C 16.796875 11.984375 16.460938 11.992188 16.125 12 C 16.082031 12.246094 16.042969 12.496094 16 12.75 C 15.71875 12.839844 15.71875 12.839844 15.375 12.875 C 15.101562 12.703125 15.101562 12.703125 14.851562 12.460938 C 14.765625 12.382812 14.683594 12.300781 14.597656 12.21875 C 14.125 11.75 14.125 11.75 14.078125 11.398438 C 14.136719 10.894531 14.289062 10.738281 14.648438 10.390625 C 14.792969 10.242188 14.792969 10.242188 14.945312 10.09375 C 15.292969 9.84375 15.453125 9.804688 15.875 9.875 C 16.125 10.125 16.125 10.125 16.125 10.625 C 17.113281 10.667969 18.105469 10.707031 19.125 10.75 C 19.207031 10.585938 19.289062 10.421875 19.375 10.25 C 19.714844 9.847656 20.082031 9.472656 20.453125 9.097656 C 20.570312 8.976562 20.691406 8.851562 20.808594 8.730469 C 21.898438 7.566406 21.898438 7.566406 22.601562 7.453125 C 23.703125 7.464844 24.441406 8.53125 25.15625 9.257812 C 25.328125 9.429688 25.328125 9.429688 25.5 9.601562 C 26.339844 10.449219 26.339844 10.449219 26.625 10.875 C 27.765625 10.609375 28.726562 10.140625 29.375 9.125 C 29.925781 8.070312 30.066406 7.054688 29.726562 5.90625 C 29.332031 4.890625 28.726562 4.246094 27.75 3.75 C 26.972656 3.460938 26.210938 3.441406 25.382812 3.429688 C 25.253906 3.421875 25.121094 3.417969 24.988281 3.410156 C 24.261719 3.402344 23.851562 3.445312 23.3125 3.949219 C 23.238281 4.03125 23.164062 4.113281 23.089844 4.199219 C 23.019531 4.257812 22.949219 4.316406 22.875 4.375 C 22.601562 4.347656 22.445312 4.320312 22.25 4.125 C 22.25 3.917969 22.25 3.710938 22.25 3.5 C 20.886719 3.457031 19.527344 3.417969 18.125 3.375 C 18.082031 3.703125 18.042969 4.035156 18 4.375 C 17.632812 5.140625 17 5.628906 16.25 6 C 15.464844 6.261719 14.464844 6.277344 13.703125 5.929688 C 12.949219 5.476562 12.320312 4.882812 12.054688 4.027344 C 11.832031 2.882812 12.003906 1.949219 12.632812 0.976562 C 13.609375 -0.078125 15.234375 -0.386719 16.554688 0.1875 Z M 16.554688 0.1875 "/>
<path style=" stroke:none;fill-rule:nonzero;fill:rgb(0%,80.784315%,97.647059%);fill-opacity:1;" d="M 2.921875 25.464844 C 3.046875 25.464844 3.046875 25.464844 3.179688 25.464844 C 3.445312 25.46875 3.714844 25.472656 3.984375 25.476562 C 4.167969 25.476562 4.351562 25.480469 4.535156 25.480469 C 4.980469 25.484375 5.429688 25.492188 5.875 25.5 C 5.957031 25.664062 6.039062 25.828125 6.125 26 C 6.414062 26 6.703125 26 7 26 C 7.082031 25.835938 7.164062 25.667969 7.25 25.5 C 7.929688 25.492188 8.609375 25.484375 9.292969 25.480469 C 9.523438 25.476562 9.753906 25.476562 9.984375 25.472656 C 10.320312 25.46875 10.652344 25.464844 10.984375 25.464844 C 11.140625 25.460938 11.140625 25.460938 11.296875 25.457031 C 11.914062 25.457031 12.351562 25.515625 12.875 25.875 C 13.4375 26.570312 13.308594 27.390625 13.304688 28.242188 C 13.308594 28.398438 13.308594 28.558594 13.3125 28.722656 C 13.3125 30.011719 13.3125 30.011719 13.035156 30.46875 C 12.476562 31.019531 11.890625 31.039062 11.132812 31.035156 C 10.988281 31.035156 10.988281 31.035156 10.839844 31.035156 C 10.515625 31.039062 10.195312 31.039062 9.871094 31.039062 C 9.644531 31.039062 9.421875 31.039062 9.195312 31.039062 C 8.726562 31.039062 8.257812 31.039062 7.785156 31.039062 C 7.183594 31.039062 6.582031 31.039062 5.980469 31.042969 C 5.515625 31.046875 5.050781 31.046875 4.589844 31.046875 C 4.367188 31.046875 4.144531 31.046875 3.921875 31.046875 C 3.609375 31.046875 3.300781 31.046875 2.992188 31.046875 C 2.898438 31.046875 2.808594 31.046875 2.714844 31.050781 C 2.039062 31.042969 1.664062 30.863281 1.15625 30.445312 C 0.699219 29.871094 0.847656 28.964844 0.84375 28.273438 C 0.839844 28.140625 0.839844 28.007812 0.835938 27.867188 C 0.832031 27.113281 0.839844 26.523438 1.25 25.875 C 1.820312 25.515625 2.253906 25.453125 2.921875 25.464844 Z M 2.921875 25.464844 "/>
<path style=" stroke:none;fill-rule:nonzero;fill:rgb(1.176471%,0.784314%,0%);fill-opacity:1;" d="M 2.78125 -0.0234375 C 2.875 -0.0234375 2.96875 -0.0195312 3.0625 -0.0195312 C 3.292969 -0.0117188 3.519531 -0.0078125 3.75 0 C 3.792969 0.125 3.832031 0.246094 3.875 0.375 C 4.167969 0.34375 4.460938 0.300781 4.75 0.25 C 4.792969 0.167969 4.832031 0.0859375 4.875 0 C 6.242188 -0.0976562 6.242188 -0.0976562 6.773438 0.296875 C 7.265625 1.007812 7.132812 1.648438 7.125 2.5 C 7.742188 2.5 8.363281 2.5 9 2.5 C 8.9375 2.253906 8.9375 2.253906 8.875 2 C 9.117188 1.71875 9.117188 1.71875 9.375 1.5 C 10.015625 1.675781 10.484375 2.101562 10.875 2.625 C 10.988281 2.933594 10.988281 2.933594 11 3.25 C 10.828125 3.523438 10.828125 3.523438 10.585938 3.773438 C 10.507812 3.859375 10.425781 3.941406 10.34375 4.027344 C 9.875 4.5 9.875 4.5 9.484375 4.515625 C 9.367188 4.511719 9.246094 4.503906 9.125 4.5 C 8.992188 4.203125 8.992188 4.203125 8.875 3.875 C 8.917969 3.792969 8.957031 3.710938 9 3.625 C 8.382812 3.625 7.761719 3.625 7.125 3.625 C 7.144531 4.003906 7.144531 4.003906 7.164062 4.390625 C 7.167969 5.316406 7.167969 5.316406 6.828125 5.71875 C 6.308594 6.164062 5.921875 6.148438 5.265625 6.15625 C 5.117188 6.15625 5.117188 6.15625 4.964844 6.15625 C 4.757812 6.160156 4.550781 6.160156 4.34375 6.160156 C 4.027344 6.164062 3.707031 6.167969 3.390625 6.175781 C 3.191406 6.175781 2.988281 6.179688 2.785156 6.179688 C 2.691406 6.179688 2.597656 6.183594 2.5 6.183594 C 2.054688 6.183594 1.777344 6.140625 1.390625 5.910156 C 0.710938 5.175781 0.832031 4.277344 0.835938 3.339844 C 0.835938 3.070312 0.832031 2.804688 0.828125 2.539062 C 0.828125 2.367188 0.828125 2.195312 0.828125 2.023438 C 0.828125 1.867188 0.828125 1.714844 0.828125 1.554688 C 0.890625 0.984375 1.078125 0.570312 1.457031 0.140625 C 1.890625 -0.0703125 2.3125 -0.0390625 2.78125 -0.0234375 Z M 2.78125 -0.0234375 "/>
<path style=" stroke:none;fill-rule:nonzero;fill:rgb(0%,0%,0%);fill-opacity:1;" d="M 2.921875 25.464844 C 3.046875 25.464844 3.046875 25.464844 3.179688 25.464844 C 3.445312 25.46875 3.714844 25.472656 3.984375 25.476562 C 4.167969 25.476562 4.351562 25.480469 4.535156 25.480469 C 4.980469 25.484375 5.429688 25.492188 5.875 25.5 C 6.015625 25.71875 6.015625 25.71875 6.125 26 C 6.015625 26.28125 6.015625 26.28125 5.875 26.5 C 5.761719 26.503906 5.648438 26.507812 5.53125 26.507812 C 5.113281 26.519531 4.695312 26.535156 4.28125 26.546875 C 4.097656 26.550781 3.917969 26.558594 3.738281 26.5625 C 3.476562 26.570312 3.21875 26.578125 2.957031 26.585938 C 2.800781 26.589844 2.644531 26.59375 2.484375 26.601562 C 2.136719 26.585938 2.136719 26.585938 2 26.75 C 1.988281 26.972656 1.984375 27.191406 1.984375 27.414062 C 1.984375 27.546875 1.984375 27.683594 1.984375 27.820312 C 1.984375 27.964844 1.984375 28.105469 1.984375 28.25 C 1.984375 28.390625 1.984375 28.535156 1.984375 28.679688 C 1.984375 28.882812 1.984375 28.882812 1.984375 29.085938 C 1.984375 29.210938 1.984375 29.335938 1.984375 29.460938 C 1.96875 29.746094 1.96875 29.746094 2.125 29.875 C 2.433594 29.886719 2.734375 29.890625 3.042969 29.890625 C 3.140625 29.890625 3.234375 29.890625 3.335938 29.890625 C 3.65625 29.890625 3.972656 29.890625 4.292969 29.890625 C 4.511719 29.890625 4.734375 29.890625 4.957031 29.890625 C 5.417969 29.890625 5.882812 29.890625 6.347656 29.890625 C 6.941406 29.890625 7.539062 29.890625 8.132812 29.890625 C 8.589844 29.890625 9.046875 29.890625 9.503906 29.890625 C 9.722656 29.890625 9.941406 29.890625 10.164062 29.890625 C 10.46875 29.890625 10.773438 29.890625 11.082031 29.890625 C 11.21875 29.890625 11.21875 29.890625 11.359375 29.890625 C 11.777344 29.925781 11.777344 29.925781 12.125 29.75 C 12.136719 29.527344 12.140625 29.308594 12.140625 29.085938 C 12.140625 28.953125 12.140625 28.816406 12.140625 28.679688 C 12.140625 28.539062 12.140625 28.394531 12.140625 28.25 C 12.140625 28.109375 12.140625 27.96875 12.140625 27.820312 C 12.140625 27.6875 12.140625 27.550781 12.140625 27.414062 C 12.140625 27.226562 12.140625 27.226562 12.140625 27.039062 C 12.15625 26.753906 12.15625 26.753906 12 26.625 C 11.652344 26.609375 11.304688 26.597656 10.957031 26.59375 C 10.742188 26.589844 10.527344 26.585938 10.3125 26.582031 C 9.972656 26.574219 9.632812 26.570312 9.289062 26.566406 C 8.964844 26.5625 8.636719 26.554688 8.308594 26.546875 C 8.207031 26.546875 8.105469 26.546875 8 26.542969 C 7.277344 26.527344 7.277344 26.527344 7 26.25 C 7.070312 25.679688 7.070312 25.679688 7.25 25.5 C 7.601562 25.484375 7.949219 25.476562 8.300781 25.476562 C 8.460938 25.472656 8.460938 25.472656 8.625 25.472656 C 8.851562 25.472656 9.074219 25.472656 9.300781 25.46875 C 9.644531 25.46875 9.988281 25.464844 10.332031 25.460938 C 10.550781 25.460938 10.769531 25.460938 10.988281 25.457031 C 11.144531 25.457031 11.144531 25.457031 11.300781 25.453125 C 11.914062 25.457031 12.351562 25.515625 12.875 25.875 C 13.4375 26.570312 13.308594 27.390625 13.304688 28.242188 C 13.308594 28.398438 13.308594 28.558594 13.3125 28.722656 C 13.3125 30.011719 13.3125 30.011719 13.035156 30.46875 C 12.476562 31.019531 11.890625 31.039062 11.132812 31.035156 C 10.988281 31.035156 10.988281 31.035156 10.839844 31.035156 C 10.515625 31.039062 10.195312 31.039062 9.871094 31.039062 C 9.644531 31.039062 9.421875 31.039062 9.195312 31.039062 C 8.726562 31.039062 8.257812 31.039062 7.785156 31.039062 C 7.183594 31.039062 6.582031 31.039062 5.980469 31.042969 C 5.515625 31.046875 5.050781 31.046875 4.589844 31.046875 C 4.367188 31.046875 4.144531 31.046875 3.921875 31.046875 C 3.609375 31.046875 3.300781 31.046875 2.992188 31.046875 C 2.898438 31.046875 2.808594 31.046875 2.714844 31.050781 C 2.039062 31.042969 1.664062 30.863281 1.15625 30.445312 C 0.699219 29.871094 0.847656 28.964844 0.84375 28.273438 C 0.839844 28.140625 0.839844 28.007812 0.835938 27.867188 C 0.832031 27.113281 0.839844 26.523438 1.25 25.875 C 1.820312 25.515625 2.253906 25.453125 2.921875 25.464844 Z M 2.921875 25.464844 "/>
<path style=" stroke:none;fill-rule:nonzero;fill:rgb(98.039216%,80.392158%,34.901962%);fill-opacity:1;" d="M 3.875 0.375 C 4.203125 0.375 4.535156 0.375 4.875 0.375 C 4.898438 0.453125 4.921875 0.535156 4.945312 0.617188 C 5.117188 0.925781 5.117188 0.925781 5.570312 0.960938 C 5.710938 0.972656 5.855469 0.984375 6 1 C 6.238281 1.238281 6.140625 1.664062 6.140625 1.980469 C 6.140625 2.066406 6.140625 2.152344 6.140625 2.238281 C 6.140625 2.421875 6.140625 2.601562 6.140625 2.785156 C 6.140625 3.0625 6.140625 3.339844 6.140625 3.617188 C 6.140625 3.792969 6.140625 3.96875 6.140625 4.144531 C 6.140625 4.304688 6.140625 4.464844 6.140625 4.632812 C 6.125 5 6.125 5 6 5.125 C 5.449219 5.152344 4.898438 5.148438 4.347656 5.148438 C 4.074219 5.148438 3.796875 5.152344 3.519531 5.152344 C 3.34375 5.152344 3.167969 5.152344 2.992188 5.152344 C 2.832031 5.152344 2.671875 5.15625 2.507812 5.15625 C 2.125 5.125 2.125 5.125 1.875 4.875 C 1.84375 4.503906 1.84375 4.503906 1.847656 4.035156 C 1.847656 3.953125 1.847656 3.871094 1.847656 3.785156 C 1.847656 3.609375 1.847656 3.433594 1.847656 3.261719 C 1.851562 2.992188 1.851562 2.726562 1.851562 2.457031 C 1.855469 1.144531 1.855469 1.144531 2 1 C 2.246094 0.972656 2.496094 0.953125 2.742188 0.9375 C 3.265625 0.914062 3.265625 0.914062 3.75 0.75 C 3.792969 0.625 3.832031 0.503906 3.875 0.375 Z M 3.875 0.375 "/>
<path style=" stroke:none;fill-rule:nonzero;fill:rgb(98.823529%,49.803922%,52.549022%);fill-opacity:1;" d="M 22.8125 8.5 C 23.445312 8.757812 23.878906 9.304688 24.351562 9.78125 C 24.460938 9.886719 24.574219 9.996094 24.6875 10.105469 C 24.789062 10.210938 24.894531 10.316406 25.003906 10.421875 C 25.097656 10.519531 25.191406 10.613281 25.292969 10.714844 C 25.5 11 25.5 11 25.5625 11.308594 C 25.425781 11.992188 24.765625 12.449219 24.289062 12.921875 C 24.117188 13.097656 24.117188 13.097656 23.945312 13.277344 C 23.832031 13.386719 23.722656 13.5 23.609375 13.613281 C 23.507812 13.714844 23.40625 13.816406 23.300781 13.917969 C 23 14.125 23 14.125 22.683594 14.125 C 22.054688 13.867188 21.621094 13.324219 21.148438 12.84375 C 21.039062 12.734375 20.929688 12.628906 20.8125 12.519531 C 20.710938 12.414062 20.605469 12.308594 20.496094 12.199219 C 20.355469 12.058594 20.355469 12.058594 20.207031 11.914062 C 20 11.625 20 11.625 19.9375 11.316406 C 20.074219 10.632812 20.734375 10.171875 21.210938 9.703125 C 21.324219 9.585938 21.4375 9.46875 21.558594 9.347656 C 21.667969 9.238281 21.777344 9.125 21.890625 9.011719 C 21.992188 8.910156 22.09375 8.808594 22.199219 8.703125 C 22.5 8.5 22.5 8.5 22.8125 8.5 Z M 22.8125 8.5 "/>
<path style=" stroke:none;fill-rule:nonzero;fill:rgb(58.039218%,84.313726%,47.450981%);fill-opacity:1;" d="M 9.3125 8.5 C 9.945312 8.757812 10.378906 9.304688 10.851562 9.78125 C 10.960938 9.886719 11.074219 9.996094 11.1875 10.105469 C 11.289062 10.210938 11.394531 10.316406 11.503906 10.421875 C 11.597656 10.519531 11.691406 10.613281 11.792969 10.714844 C 12 11 12 11 12.0625 11.308594 C 11.925781 11.992188 11.265625 12.449219 10.789062 12.921875 C 10.617188 13.097656 10.617188 13.097656 10.445312 13.277344 C 10.332031 13.386719 10.222656 13.5 10.109375 13.613281 C 10.007812 13.714844 9.90625 13.816406 9.800781 13.917969 C 9.5 14.125 9.5 14.125 9.183594 14.125 C 8.554688 13.867188 8.121094 13.324219 7.648438 12.84375 C 7.539062 12.734375 7.429688 12.628906 7.3125 12.519531 C 7.210938 12.414062 7.105469 12.308594 6.996094 12.199219 C 6.855469 12.058594 6.855469 12.058594 6.707031 11.914062 C 6.5 11.625 6.5 11.625 6.4375 11.316406 C 6.574219 10.632812 7.234375 10.171875 7.710938 9.703125 C 7.824219 9.585938 7.9375 9.46875 8.058594 9.347656 C 8.167969 9.238281 8.277344 9.125 8.390625 9.011719 C 8.492188 8.910156 8.59375 8.808594 8.699219 8.703125 C 9 8.5 9 8.5 9.3125 8.5 Z M 9.3125 8.5 "/>
<path style=" stroke:none;fill-rule:nonzero;fill:rgb(98.823529%,49.803922%,52.549022%);fill-opacity:1;" d="M 22.8125 25.5 C 23.449219 25.753906 23.882812 26.304688 24.359375 26.78125 C 24.46875 26.890625 24.582031 26.996094 24.695312 27.105469 C 24.800781 27.210938 24.90625 27.316406 25.015625 27.425781 C 25.160156 27.566406 25.160156 27.566406 25.304688 27.710938 C 25.5 28 25.5 28 25.5 28.3125 C 25.246094 28.949219 24.695312 29.382812 24.21875 29.859375 C 24.109375 29.96875 24.003906 30.082031 23.894531 30.199219 C 23.734375 30.355469 23.734375 30.355469 23.574219 30.515625 C 23.433594 30.660156 23.433594 30.660156 23.285156 30.804688 C 23 31 23 31 22.6875 31 C 22.050781 30.746094 21.617188 30.199219 21.140625 29.71875 C 21.03125 29.613281 20.917969 29.503906 20.804688 29.394531 C 20.699219 29.289062 20.59375 29.183594 20.484375 29.078125 C 20.390625 28.980469 20.292969 28.886719 20.195312 28.785156 C 20 28.5 20 28.5 20 28.1875 C 20.253906 27.550781 20.804688 27.117188 21.28125 26.640625 C 21.386719 26.527344 21.496094 26.417969 21.605469 26.304688 C 21.761719 26.144531 21.761719 26.144531 21.925781 25.984375 C 22.019531 25.890625 22.113281 25.792969 22.214844 25.695312 C 22.5 25.5 22.5 25.5 22.8125 25.5 Z M 22.8125 25.5 "/>
<path style=" stroke:none;fill-rule:nonzero;fill:rgb(98.431373%,80.392158%,34.901962%);fill-opacity:1;" d="M 18.515625 17.585938 C 19.058594 17.863281 19.378906 18.199219 19.625 18.75 C 19.71875 19.429688 19.742188 20.121094 19.429688 20.75 C 18.980469 21.300781 18.609375 21.574219 17.914062 21.671875 C 17.171875 21.703125 16.695312 21.640625 16.125 21.125 C 15.558594 20.480469 15.441406 20.085938 15.449219 19.238281 C 15.550781 18.515625 16.007812 18.097656 16.523438 17.625 C 17.164062 17.398438 17.863281 17.375 18.515625 17.585938 Z M 18.515625 17.585938 "/>
<path style=" stroke:none;fill-rule:nonzero;fill:rgb(0%,80.784315%,97.254902%);fill-opacity:1;" d="M 16.015625 1.085938 C 16.550781 1.367188 16.863281 1.714844 17.125 2.25 C 17.277344 2.824219 17.28125 3.261719 17.125 3.835938 C 16.757812 4.445312 16.304688 4.898438 15.625 5.125 C 14.9375 5.222656 14.398438 5.207031 13.820312 4.804688 C 13.300781 4.355469 13.054688 3.90625 12.960938 3.21875 C 12.921875 2.542969 13.046875 2.152344 13.5 1.625 C 14.25 0.964844 15.03125 0.769531 16.015625 1.085938 Z M 16.015625 1.085938 "/>
<path style=" stroke:none;fill-rule:nonzero;fill:rgb(0%,70.980394%,92.156863%);fill-opacity:1;" d="M 7.375 26.5 C 8.027344 26.492188 8.683594 26.488281 9.335938 26.484375 C 9.558594 26.484375 9.78125 26.484375 10.003906 26.480469 C 10.324219 26.476562 10.644531 26.476562 10.964844 26.476562 C 11.113281 26.472656 11.113281 26.472656 11.265625 26.472656 C 11.511719 26.472656 11.757812 26.484375 12 26.5 C 12.328125 26.828125 12.28125 26.96875 12.285156 27.421875 C 12.285156 27.621094 12.285156 27.621094 12.285156 27.828125 C 12.285156 27.964844 12.28125 28.105469 12.28125 28.25 C 12.28125 28.460938 12.28125 28.460938 12.285156 28.671875 C 12.285156 28.808594 12.285156 28.941406 12.285156 29.078125 C 12.28125 29.203125 12.28125 29.324219 12.28125 29.449219 C 12.25 29.75 12.25 29.75 12 30 C 11.683594 30.023438 11.382812 30.035156 11.070312 30.03125 C 10.972656 30.03125 10.878906 30.035156 10.777344 30.035156 C 10.460938 30.035156 10.140625 30.035156 9.824219 30.035156 C 9.605469 30.035156 9.382812 30.035156 9.164062 30.035156 C 8.699219 30.035156 8.238281 30.035156 7.777344 30.03125 C 7.183594 30.03125 6.589844 30.03125 5.996094 30.035156 C 5.539062 30.035156 5.085938 30.035156 4.628906 30.035156 C 4.410156 30.035156 4.191406 30.035156 3.972656 30.035156 C 3.667969 30.035156 3.359375 30.035156 3.054688 30.03125 C 2.964844 30.03125 2.875 30.035156 2.78125 30.035156 C 2.152344 30.027344 2.152344 30.027344 1.875 29.75 C 1.847656 29.445312 1.847656 29.445312 1.851562 29.070312 C 1.851562 28.933594 1.851562 28.800781 1.851562 28.660156 C 1.855469 28.519531 1.859375 28.378906 1.859375 28.234375 C 1.859375 28.09375 1.859375 27.949219 1.863281 27.804688 C 1.867188 27.453125 1.871094 27.101562 1.875 26.75 C 1.917969 26.75 1.957031 26.75 2 26.75 C 2 27.574219 2 28.398438 2 29.25 C 3.066406 29.246094 4.132812 29.238281 5.203125 29.226562 C 5.695312 29.222656 6.191406 29.21875 6.6875 29.214844 C 7.167969 29.214844 7.644531 29.210938 8.121094 29.203125 C 8.304688 29.203125 8.484375 29.203125 8.667969 29.203125 C 8.925781 29.203125 9.179688 29.199219 9.4375 29.195312 C 9.582031 29.191406 9.726562 29.191406 9.875 29.191406 C 10.328125 29.109375 10.480469 28.992188 10.75 28.625 C 10.804688 28.265625 10.835938 27.953125 10.84375 27.59375 C 10.855469 27.273438 10.863281 26.953125 10.875 26.625 C 9.71875 26.625 8.566406 26.625 7.375 26.625 C 7.375 26.582031 7.375 26.542969 7.375 26.5 Z M 7.375 26.5 "/>
<path style=" stroke:none;fill-rule:nonzero;fill:rgb(95.686275%,38.431373%,42.352942%);fill-opacity:1;" d="M 22.8125 8.5 C 23.445312 8.753906 23.878906 9.300781 24.351562 9.78125 C 24.460938 9.886719 24.574219 9.996094 24.6875 10.105469 C 24.789062 10.210938 24.894531 10.316406 25.003906 10.421875 C 25.097656 10.519531 25.195312 10.613281 25.292969 10.714844 C 25.5 11 25.5 11 25.5625 11.308594 C 25.425781 11.992188 24.765625 12.449219 24.289062 12.921875 C 24.117188 13.097656 24.117188 13.097656 23.945312 13.277344 C 23.832031 13.386719 23.722656 13.5 23.609375 13.613281 C 23.507812 13.714844 23.40625 13.816406 23.300781 13.917969 C 23 14.125 23 14.125 22.660156 14.105469 C 22.199219 13.9375 22.039062 13.636719 21.75 13.25 C 21.808594 13.199219 21.863281 13.152344 21.925781 13.101562 C 22.441406 12.660156 22.945312 12.207031 23.4375 11.742188 C 23.546875 11.640625 23.652344 11.542969 23.761719 11.441406 C 24.027344 11.136719 24.027344 11.136719 24.058594 10.742188 C 23.992188 10.320312 23.890625 10.164062 23.601562 9.859375 C 23.527344 9.777344 23.453125 9.699219 23.378906 9.617188 C 23.101562 9.351562 22.796875 9.113281 22.5 8.875 C 21.714844 9.660156 20.933594 10.441406 20.125 11.25 C 20.125 10.5625 20.808594 10.121094 21.273438 9.65625 C 21.382812 9.542969 21.488281 9.429688 21.601562 9.316406 C 21.707031 9.207031 21.8125 9.101562 21.921875 8.996094 C 22.015625 8.894531 22.113281 8.796875 22.210938 8.695312 C 22.5 8.5 22.5 8.5 22.8125 8.5 Z M 22.8125 8.5 "/>
<path style=" stroke:none;fill-rule:nonzero;fill:rgb(49.019608%,80.000001%,36.862746%);fill-opacity:1;" d="M 9 8.5 C 9.84375 8.59375 10.28125 9.203125 10.851562 9.78125 C 10.960938 9.890625 11.074219 9.996094 11.1875 10.109375 C 11.289062 10.210938 11.394531 10.316406 11.503906 10.421875 C 11.597656 10.519531 11.695312 10.613281 11.792969 10.710938 C 12 11 12 11 12.0625 11.308594 C 11.925781 11.992188 11.265625 12.453125 10.789062 12.921875 C 10.675781 13.039062 10.5625 13.15625 10.445312 13.277344 C 10.332031 13.390625 10.222656 13.5 10.109375 13.613281 C 10.007812 13.714844 9.90625 13.816406 9.800781 13.921875 C 9.5 14.125 9.5 14.125 9.160156 14.105469 C 8.699219 13.9375 8.539062 13.640625 8.25 13.25 C 8.308594 13.203125 8.363281 13.152344 8.425781 13.101562 C 8.703125 12.863281 8.976562 12.621094 9.25 12.375 C 9.363281 12.273438 9.476562 12.171875 9.59375 12.070312 C 9.765625 11.910156 9.765625 11.910156 9.9375 11.75 C 10.046875 11.652344 10.152344 11.554688 10.261719 11.453125 C 10.578125 11.015625 10.582031 10.777344 10.5 10.25 C 10.273438 9.898438 10.273438 9.898438 9.960938 9.601562 C 9.613281 9.246094 9.289062 8.90625 9 8.5 Z M 9 8.5 "/>
<path style=" stroke:none;fill-rule:nonzero;fill:rgb(99.215686%,38.82353%,43.137255%);fill-opacity:1;" d="M 22.5 25.5 C 23.34375 25.59375 23.785156 26.203125 24.359375 26.78125 C 24.472656 26.890625 24.582031 26.996094 24.699219 27.109375 C 24.800781 27.210938 24.90625 27.316406 25.015625 27.421875 C 25.160156 27.566406 25.160156 27.566406 25.304688 27.710938 C 25.5 28 25.5 28 25.5 28.3125 C 25.246094 28.949219 24.699219 29.382812 24.21875 29.859375 C 24.109375 29.972656 24.003906 30.082031 23.890625 30.199219 C 23.734375 30.355469 23.734375 30.355469 23.578125 30.515625 C 23.433594 30.660156 23.433594 30.660156 23.289062 30.804688 C 23 31 23 31 22.671875 30.988281 C 22.269531 30.835938 22.113281 30.59375 21.875 30.25 C 21.933594 30.191406 21.996094 30.132812 22.054688 30.070312 C 22.328125 29.800781 22.597656 29.535156 22.867188 29.265625 C 22.960938 29.171875 23.054688 29.078125 23.152344 28.984375 C 23.289062 28.847656 23.289062 28.847656 23.425781 28.710938 C 23.550781 28.589844 23.550781 28.589844 23.675781 28.460938 C 23.925781 28.195312 23.992188 28.03125 24.0625 27.671875 C 23.96875 27.03125 23.5625 26.707031 23.125 26.25 C 23 26.105469 22.878906 25.960938 22.757812 25.8125 C 22.628906 25.65625 22.628906 25.65625 22.5 25.5 Z M 22.5 25.5 "/>
<path style=" stroke:none;fill-rule:nonzero;fill:rgb(99.215686%,75.686276%,26.274511%);fill-opacity:1;" d="M 4.75 0.375 C 4.800781 0.457031 4.855469 0.535156 4.910156 0.621094 C 5.222656 0.992188 5.53125 0.957031 6 1 C 6.238281 1.238281 6.140625 1.664062 6.140625 1.980469 C 6.140625 2.066406 6.140625 2.152344 6.140625 2.238281 C 6.140625 2.421875 6.140625 2.601562 6.140625 2.785156 C 6.140625 3.0625 6.140625 3.339844 6.140625 3.617188 C 6.140625 3.792969 6.140625 3.96875 6.140625 4.144531 C 6.140625 4.304688 6.140625 4.464844 6.140625 4.632812 C 6.125 5 6.125 5 6 5.125 C 5.714844 5.136719 5.425781 5.140625 5.140625 5.136719 C 5.011719 5.136719 5.011719 5.136719 4.878906 5.136719 C 4.605469 5.136719 4.328125 5.136719 4.054688 5.132812 C 3.867188 5.132812 3.683594 5.132812 3.496094 5.132812 C 3.039062 5.128906 2.582031 5.128906 2.125 5.125 C 2.125 5.082031 2.125 5.042969 2.125 5 C 2.347656 4.996094 2.347656 4.996094 2.578125 4.988281 C 2.773438 4.984375 2.96875 4.976562 3.164062 4.96875 C 3.261719 4.96875 3.359375 4.964844 3.460938 4.964844 C 3.554688 4.957031 3.652344 4.953125 3.75 4.953125 C 3.835938 4.949219 3.921875 4.945312 4.011719 4.945312 C 4.265625 4.890625 4.265625 4.890625 4.464844 4.675781 C 4.6875 4.261719 4.679688 3.921875 4.6875 3.453125 C 4.691406 3.363281 4.695312 3.273438 4.695312 3.183594 C 4.703125 2.902344 4.707031 2.625 4.710938 2.34375 C 4.714844 2.152344 4.71875 1.960938 4.722656 1.773438 C 4.734375 1.304688 4.742188 0.839844 4.75 0.375 Z M 4.75 0.375 "/>
<path style=" stroke:none;fill-rule:nonzero;fill:rgb(0%,73.725492%,95.686275%);fill-opacity:1;" d="M 15.375 1 C 15.988281 1.058594 16.320312 1.183594 16.75 1.625 C 17.117188 2.136719 17.292969 2.578125 17.242188 3.210938 C 17.09375 4.066406 16.675781 4.492188 16 5 C 15.636719 5.121094 15.378906 5.148438 15 5.15625 C 14.890625 5.160156 14.785156 5.164062 14.671875 5.167969 C 14.320312 5.117188 14.21875 5.019531 14 4.75 C 14.195312 4.691406 14.195312 4.691406 14.390625 4.632812 C 15.027344 4.351562 15.371094 3.886719 15.625 3.25 C 15.734375 2.449219 15.714844 1.738281 15.375 1 Z M 15.375 1 "/>
<path style=" stroke:none;fill-rule:nonzero;fill:rgb(98.431373%,75.294119%,26.274511%);fill-opacity:1;" d="M 18 17.5 C 18.785156 17.703125 19.179688 18.082031 19.625 18.75 C 19.707031 19.421875 19.742188 20.136719 19.429688 20.75 C 18.976562 21.308594 18.605469 21.585938 17.894531 21.664062 C 17.546875 21.671875 17.21875 21.671875 16.875 21.625 C 16.792969 21.542969 16.710938 21.460938 16.625 21.375 C 16.691406 21.332031 16.757812 21.289062 16.828125 21.242188 C 17.402344 20.839844 17.929688 20.453125 18.125 19.75 C 18.191406 18.984375 18.171875 18.25 18 17.5 Z M 18 17.5 "/>
</g>
</svg>
